<?xml version="1.0" encoding="utf-8"?>
<!-- Generator: Adobe Illustrator 24.0.1, SVG Export Plug-In . SVG Version: 6.00 Build 0)  -->
<svg version="1.1" id="Calque_1" xmlns="http://www.w3.org/2000/svg" xmlns:xlink="http://www.w3.org/1999/xlink" x="0px" y="0px"
	 viewBox="0 0 1028 469" style="enable-background:new 0 0 1028 469;" xml:space="preserve">
<style type="text/css">
	.st0{fill-rule:evenodd;clip-rule:evenodd;fill:#F5F9F8;}
	.st1{filter:url(#d);}
	.st2{fill-rule:evenodd;clip-rule:evenodd;}
	.st3{fill-rule:evenodd;clip-rule:evenodd;fill:#FFFFFF;}
	.st4{fill-rule:evenodd;clip-rule:evenodd;fill:#4EA7DD;}
	.st5{fill-rule:evenodd;clip-rule:evenodd;fill:#E0F1FC;}
	.st6{enable-background:new    ;}
	.st7{fill:#3A438B;}
	.st8{font-family:'Lato-Italic';}
	.st9{font-size:24px;}
	.st10{fill-rule:evenodd;clip-rule:evenodd;fill:#8F92C7;}
	.st11{filter:url(#i);}
	.st12{fill-rule:evenodd;clip-rule:evenodd;fill:#5D63AA;}
	.st13{fill:none;stroke:#FFFFFF;stroke-linecap:round;stroke-linejoin:round;}
	.st14{fill:#8F92C7;}
	.st15{font-size:13px;}
	.st16{font-size:17px;}
	.st17{fill:none;stroke:#8F92C7;stroke-width:2;stroke-linecap:round;stroke-linejoin:round;stroke-dasharray:2,6;}
	.st18{filter:url(#k);}
	.st19{fill-rule:evenodd;clip-rule:evenodd;fill:#82549D;}
	.st20{fill-rule:evenodd;clip-rule:evenodd;fill:#F9F9FB;}
	.st21{fill:#FFFFFF;}
	.st22{fill-rule:evenodd;clip-rule:evenodd;fill:#FFFFFF;stroke:#B9A7C9;stroke-miterlimit:10;}
	.st23{fill-rule:evenodd;clip-rule:evenodd;fill:#B9A7C9;stroke:#FFFFFF;stroke-miterlimit:10;}
	.st24{fill:#FFFFFF;stroke:#B9A7C9;stroke-miterlimit:10;}
	.st25{fill:none;stroke:#B9A7C9;stroke-miterlimit:10;}
	.st26{fill-rule:evenodd;clip-rule:evenodd;fill:#FFFFFF;stroke:#B1D9E8;stroke-miterlimit:10;}
	.st27{fill-rule:evenodd;clip-rule:evenodd;fill:#B1D9E8;}
	.st28{fill:none;stroke:#B1D9E8;stroke-miterlimit:10;}
	.st29{fill-rule:evenodd;clip-rule:evenodd;fill:#DD5B03;}
	.st30{fill-rule:evenodd;clip-rule:evenodd;fill:#E5A300;}
	.st31{fill-rule:evenodd;clip-rule:evenodd;fill:#FFFFFF;stroke:#F7CD6F;stroke-miterlimit:10;}
	.st32{fill:#FFFFFF;stroke:#F7CD6F;stroke-miterlimit:10;}
	.st33{fill:none;stroke:#F7CD6F;stroke-miterlimit:10;}
	.st34{fill:none;stroke:#E5A300;stroke-miterlimit:10;}
	.st35{fill-rule:evenodd;clip-rule:evenodd;fill:#F7CD6F;stroke:#FFFFFF;stroke-miterlimit:10;}
	.st36{fill:#E5A300;}
	.st37{font-family:'MyriadPro-Regular';}
	.st38{font-size:20px;}
	.st39{fill:#4EA7DD;}
	.st40{fill:none;stroke:#E5A300;stroke-width:3;stroke-miterlimit:10;}
	.st41{fill:none;stroke:#4EA7DD;stroke-width:3;stroke-miterlimit:10;}
</style>
<filter  filterUnits="objectBoundingBox" height="114.7%" id="k" width="117.7%" x="-8.2%" y="-6.3%">
	<feOffset  dx="2" dy="4" in="SourceAlpha" result="shadowOffsetOuter1"></feOffset>
	<feGaussianBlur  in="shadowOffsetOuter1" result="shadowBlurOuter1" stdDeviation="9"></feGaussianBlur>
	<feColorMatrix  in="shadowBlurOuter1" values="0 0 0 0 0.0352941176 0 0 0 0 0.117647059 0 0 0 0 0.258823529 0 0 0 0.14 0">
		</feColorMatrix>
</filter>
<filter  filterUnits="objectBoundingBox" height="177.3%" id="i" width="124.5%" x="-11.4%" y="-33.3%">
	<feOffset  dx="2" dy="4" in="SourceAlpha" result="shadowOffsetOuter1"></feOffset>
	<feGaussianBlur  in="shadowOffsetOuter1" result="shadowBlurOuter1" stdDeviation="9"></feGaussianBlur>
	<feColorMatrix  in="shadowBlurOuter1" values="0 0 0 0 0.0352941176 0 0 0 0 0.117647059 0 0 0 0 0.258823529 0 0 0 0.14 0">
		</feColorMatrix>
</filter>
<filter  filterUnits="objectBoundingBox" height="114.7%" id="d" width="123.4%" x="-10.9%" y="-6.3%">
	<feOffset  dx="2" dy="4" in="SourceAlpha" result="shadowOffsetOuter1"></feOffset>
	<feGaussianBlur  in="shadowOffsetOuter1" result="shadowBlurOuter1" stdDeviation="9"></feGaussianBlur>
	<feColorMatrix  in="shadowBlurOuter1" values="0 0 0 0 0.0352941176 0 0 0 0 0.117647059 0 0 0 0 0.258823529 0 0 0 0.14 0">
		</feColorMatrix>
</filter>
<path class="st0" d="M0,0h1028v469H0V0z"/>
<g transform="translate(43 34)">
	<g class="st1">
		<path id="e_2_" class="st2" d="M699.8,36h245.5c5.9,0,10.8,3.9,10.8,8.6v323.1c0,4.8-4.8,8.6-10.8,8.6H699.8
			c-5.9,0-10.8-3.9-10.8-8.6V44.6C689,39.8,693.8,36,699.8,36z"/>
	</g>
	<g>
		<path id="e_1_" class="st3" d="M699.8,36h245.5c5.9,0,10.8,3.9,10.8,8.6v323.1c0,4.8-4.8,8.6-10.8,8.6H699.8
			c-5.9,0-10.8-3.9-10.8-8.6V44.6C689,39.8,693.8,36,699.8,36z"/>
	</g>
</g>
<path class="st4" d="M757,80h38c2.8,0,5,2.2,5,5v38c0,2.8-2.2,5-5,5h-38c-2.8,0-5-2.2-5-5V85C752,82.2,754.2,80,757,80z"/>
<path class="st5" d="M752,147h208v1H752V147z"/>
<text transform="matrix(1 0 0 1 805.0012 98.9687)" class="st6"><tspan x="0" y="0" class="st7 st8 st9">Your eCommerce</tspan><tspan x="0" y="28.8" class="st7 st8 st9">Solution</tspan></text>
<path class="st10" d="M390.5,135.4v-10.8c0-1.2,0.9-2.1,2-2.1c0.5,0,1,0.2,1.4,0.6l5,5.4c0.8,0.8,0.8,2.2,0,3l-5,5.4
	c-0.7,0.8-1.9,0.8-2.7,0.1c0,0-0.1-0.1-0.1-0.1C390.7,136.5,390.5,135.9,390.5,135.4L390.5,135.4z"/>
<g transform="translate(347 219)">
	<g class="st11">
		<path id="j_3_" class="st2" d="M58.4-126h246.2c3,0,5.4,2.2,5.4,5v65c0,2.8-2.4,5-5.4,5H58.4c-3,0-5.4-2.2-5.4-5v-65
			C53-123.8,55.4-126,58.4-126z"/>
	</g>
	<g>
		<path id="j_1_" class="st3" d="M58.4-126h246.2c3,0,5.4,2.2,5.4,5v65c0,2.8-2.4,5-5.4,5H58.4c-3,0-5.4-2.2-5.4-5v-65
			C53-123.8,55.4-126,58.4-126z"/>
	</g>
</g>
<g transform="translate(357 229)">
	<path class="st12" d="M57-126h28c2.8,0,5,2.2,5,5v28c0,2.8-2.2,5-5,5H57c-2.8,0-5-2.2-5-5v-28C52-123.8,54.2-126,57-126z"/>
	<path class="st13" d="M67.7-113.3c-2.3,1.3-3.9,3.6-3.9,6.3c0,2.7,1.6,5.1,4,6.4 M69.4-101.1l2.4,2v-4L69.4-101.1L69.4-101.1z
		 M73.5-113.3c2.3,1.3,3.9,3.6,3.9,6.3c0,2.7-1.6,5.1-4,6.4 M71.8-112.9l-2.4,2v-4L71.8-112.9z"/>
</g>
<text transform="matrix(1 0 0 1 462 136)" class="st14 st8 st15">The piece of software you are </text>
<text transform="matrix(1 0 0 1 462 152)" class="st14 st8 st15">going to write</text>
<text transform="matrix(1 0 0 1 462 119)" class="st7 st8 st16">PIM/eCommerce App</text>
<g>
	<path class="st17" d="M662,130.5h65"/>
	<circle class="st10" cx="662.5" cy="130.5" r="5.5"/>
	<path class="st10" d="M723,135.9v-10.8c0-1.2,0.9-2.1,2-2.1c0.5,0,1,0.2,1.4,0.6l5,5.4c0.8,0.8,0.8,2.2,0,3l-5,5.4
		c-0.7,0.8-1.9,0.8-2.7,0.1c0,0-0.1-0.1-0.1-0.1C723.2,137,723,136.4,723,135.9L723,135.9z"/>
</g>
<g transform="translate(654 34)">
	<g class="st18">
		<path id="l_3_" class="st2" d="M-605-19h278c5,0,9,2.4,9,5.3v197.5c0,2.9-4,5.3-9,5.3h-278c-5,0-9-2.4-9-5.3V-13.8
			C-614-16.7-610-19-605-19z"/>
	</g>
	<g>
		<path id="l_1_" class="st3" d="M-605-19h278c5,0,9,2.4,9,5.3v197.5c0,2.9-4,5.3-9,5.3h-278c-5,0-9-2.4-9-5.3V-13.8
			C-614-16.7-610-19-605-19z"/>
	</g>
</g>
<g transform="translate(674 54)">
	<path class="st19" d="M-609-32h38c2.8,0,5,2.2,5,5v38c0,2.8-2.2,5-5,5h-38c-2.8,0-5-2.2-5-5v-38C-614-29.8-611.8-32-609-32z"/>
	<path class="st20" d="M-579.3-8.7c0-0.1,0-0.1,0-0.2c0-0.1,0.1-0.2,0.1-0.3c0.2-1.1-0.2-2.3-1-3.7c-0.1-0.1-0.2-0.2-0.2-0.4
		c-0.1-0.2-0.3-0.4-0.4-0.6c0,0,0,0-0.1-0.1c0-0.1-0.1-0.1-0.1-0.2c0-0.1-0.1-0.1-0.1-0.2c0-0.1-0.1-0.1-0.1-0.2
		c-0.1-0.1-0.1-0.1-0.1-0.2c0,0-0.1-0.1-0.1-0.1c-1.3-1.6-2.9-3.1-4.6-4.4c0.2,2.2,0.1,4.4-0.1,6.1c-0.3,2.1-1.2,4.5-2.3,6.7
		c-2.5-0.3-4.9-0.9-6.9-1.8c-1.6-0.8-3.4-1.9-5.2-3.3l0.1,0.5c0,0.1,0,0.1,0,0.2c0,0.1,0,0.3,0,0.4c0,0.1,0,0.1,0,0.2
		c0,0.1,0,0.3,0.1,0.4c0,0.1,0,0.1,0,0.2c0,0.2,0,0.3,0.1,0.5c0,0.2,0.1,0.4,0.1,0.6c0,0.2,0.1,0.4,0.1,0.5c0,0,0,0.1,0,0.1
		c0,0.2,0.1,0.3,0.1,0.5c0,0,0,0.1,0,0.1c0.1,0.7,0.3,1.4,0.5,2.1c0.3,0.9,0.6,1.7,0.9,2.3c0.1,0.1,0.1,0.2,0.2,0.3
		c0.1,0.1,0.1,0.2,0.1,0.3c0.1,0.1,0.1,0.2,0.2,0.3c0.1,0.1,0.2,0.2,0.2,0.4c0,0.1,0,0.1,0.1,0.1c0.1,0.1,0.2,0.2,0.3,0.3
		c0.1,0.1,0.1,0.1,0.2,0.2l0.1,0.1c0,0,0.1,0.1,0.1,0.1l0.1,0.1c0,0,0.1,0.1,0.1,0.1c0,0,0.1,0.1,0.1,0.1c0,0,0.1,0.1,0.1,0.1
		c0,0,0.1,0,0.1,0.1c0,0,0.1,0.1,0.1,0.1c0,0,0.1,0,0.1,0.1c0.1,0,0.1,0.1,0.2,0.1c0,0,0.1,0,0.1,0c0.1,0,0.2,0.1,0.2,0.1
		c0.1,0,0.1,0,0.1,0.1c3.9,1.1,7.8-0.3,12.4,3.2C-583.9-2.6-580.5-4.9-579.3-8.7L-579.3-8.7z"/>
</g>
<path class="st5" d="M58,83H318v1H58V83z"/>
<text transform="matrix(1 0 0 1 123 65)" class="st14 st8 st15">«Cold» product information</text>
<text transform="matrix(1 0 0 1 123 48)" class="st7 st8 st9">Akeneo PIM</text>
<g>
	<path class="st21" d="M783.1,104.9h-11.4l1.1,2.9h9.5v1.3h-10.4l-1.5-4.2h0l-3.8-10.5l-2.4-0.6l0.3-1.3l3.1,0.7l1.7,4.6l0,0
		l2.1,5.8h10.8l1.8-7.9l1.3,0.3L783.1,104.9z M776.8,102.3l-5-4.6l0.9-1l3.5,3.2v-8.6h1.3v8.6l3.4-3.2l0.9,1L776.8,102.3z
		 M772.4,110.1c-0.3,0.3-0.5,0.7-0.5,1.2c0,0.5,0.2,0.8,0.5,1.2c0.3,0.3,0.7,0.5,1.2,0.5c0.5,0,0.8-0.2,1.2-0.5
		c0.3-0.3,0.5-0.7,0.5-1.2c0-0.4-0.2-0.8-0.5-1.2c-0.3-0.3-0.7-0.5-1.2-0.5C773.1,109.6,772.7,109.8,772.4,110.1z M779.2,110.1
		c-0.3,0.3-0.5,0.7-0.5,1.2c0,0.5,0.2,0.8,0.5,1.2c0.3,0.3,0.7,0.5,1.2,0.5c0.5,0,0.8-0.2,1.1-0.5c0.3-0.3,0.5-0.7,0.5-1.2
		c0-0.4-0.2-0.8-0.5-1.2c-0.3-0.3-0.7-0.5-1.1-0.5C779.9,109.6,779.5,109.8,779.2,110.1z"/>
</g>
<path class="st17" d="M337.5,130h51"/>
<circle class="st10" cx="338" cy="130" r="5.5"/>
<g>
	<rect x="106.4" y="100.8" class="st22" width="61.1" height="80.4"/>
	<rect x="112" y="106.8" class="st23" width="11.9" height="21"/>
	<line class="st24" x1="131.9" y1="111.8" x2="156" y2="111.8"/>
	<line class="st24" x1="131.9" y1="119.8" x2="156" y2="119.8"/>
	<line class="st25" x1="114" y1="136" x2="158" y2="136"/>
	<line class="st25" x1="114" y1="146.3" x2="158" y2="146.3"/>
	<line class="st25" x1="114" y1="158.3" x2="158" y2="158.3"/>
</g>
<g>
	<rect x="148.4" y="114.1" class="st22" width="61.1" height="80.4"/>
	<rect x="154" y="120.1" class="st23" width="11.9" height="21"/>
	<line class="st24" x1="173.9" y1="125.1" x2="198" y2="125.1"/>
	<line class="st24" x1="173.9" y1="133.1" x2="198" y2="133.1"/>
	<line class="st25" x1="156" y1="149.3" x2="200" y2="149.3"/>
	<line class="st25" x1="156" y1="159.6" x2="200" y2="159.6"/>
	<line class="st25" x1="156" y1="171.6" x2="200" y2="171.6"/>
</g>
<g>
	<rect x="200" y="123.4" class="st22" width="61.1" height="80.4"/>
	<rect x="205.6" y="129.4" class="st23" width="11.9" height="21"/>
	<line class="st24" x1="225.4" y1="134.4" x2="249.6" y2="134.4"/>
	<line class="st24" x1="225.4" y1="142.4" x2="249.6" y2="142.4"/>
	<line class="st25" x1="207.6" y1="158.6" x2="251.6" y2="158.6"/>
	<line class="st25" x1="207.6" y1="168.9" x2="251.6" y2="168.9"/>
	<line class="st25" x1="207.6" y1="180.9" x2="251.6" y2="180.9"/>
</g>
<rect x="788.6" y="199.1" class="st26" width="61.1" height="98.2"/>
<rect x="794.2" y="205.1" class="st27" width="11.9" height="21"/>
<line class="st28" x1="814.1" y1="210.1" x2="838.2" y2="210.1"/>
<line class="st28" x1="814.1" y1="218.1" x2="838.2" y2="218.1"/>
<line class="st28" x1="796.2" y1="234.3" x2="840.2" y2="234.3"/>
<line class="st28" x1="796.2" y1="244.6" x2="840.2" y2="244.6"/>
<line class="st28" x1="796.2" y1="256.6" x2="840.2" y2="256.6"/>
<rect x="838.2" y="212.1" class="st26" width="61.1" height="98.2"/>
<rect x="843.8" y="217.4" class="st27" width="11.9" height="21"/>
<line class="st28" x1="863.6" y1="222.4" x2="887.8" y2="222.4"/>
<line class="st28" x1="863.6" y1="230.4" x2="887.8" y2="230.4"/>
<line class="st28" x1="845.8" y1="246.6" x2="889.8" y2="246.6"/>
<line class="st28" x1="845.8" y1="256.9" x2="889.8" y2="256.9"/>
<line class="st28" x1="845.8" y1="268.9" x2="889.8" y2="268.9"/>
<rect x="887.8" y="222.6" class="st26" width="61.1" height="98.2"/>
<rect x="893.4" y="228.4" class="st27" width="11.9" height="21"/>
<line class="st28" x1="913.2" y1="233.4" x2="937.4" y2="233.4"/>
<line class="st28" x1="913.2" y1="241.4" x2="937.4" y2="241.4"/>
<line class="st28" x1="895.4" y1="257.6" x2="939.4" y2="257.6"/>
<line class="st28" x1="895.4" y1="267.9" x2="939.4" y2="267.9"/>
<line class="st28" x1="895.4" y1="279.9" x2="939.4" y2="279.9"/>
<path class="st10" d="M390.5,360.4v-10.8c0-1.2,0.9-2.1,2-2.1c0.5,0,1,0.2,1.4,0.6l5,5.4c0.8,0.8,0.8,2.2,0,3l-5,5.4
	c-0.7,0.8-1.9,0.8-2.7,0.1c0,0-0.1-0.1-0.1-0.1C390.7,361.5,390.5,361,390.5,360.4L390.5,360.4z"/>
<g transform="translate(347 219)">
	<g class="st11">
		<path id="j_3_" class="st2" d="M58.5,99h246.2c3,0,5.4,2.2,5.4,5v65c0,2.8-2.4,5-5.4,5H58.5c-3,0-5.4-2.2-5.4-5v-65
			C53,101.3,55.5,99,58.5,99z"/>
	</g>
	<g>
		<path id="j_2_" class="st3" d="M58.5,99h246.2c3,0,5.4,2.2,5.4,5v65c0,2.8-2.4,5-5.4,5H58.5c-3,0-5.4-2.2-5.4-5v-65
			C53,101.3,55.5,99,58.5,99z"/>
	</g>
</g>
<path class="st29" d="M414,328h28c2.8,0,5,2.2,5,5v28c0,2.8-2.2,5-5,5h-28c-2.8,0-5-2.2-5-5v-28C409,330.3,411.3,328,414,328z"/>
<path class="st13" d="M424.8,340.7c-2.3,1.3-3.9,3.6-3.9,6.3c0,2.7,1.6,5.1,4,6.4 M426.5,353l2.4,2v-4L426.5,353L426.5,353z
	 M430.5,340.7c2.3,1.3,3.9,3.6,3.9,6.3c0,2.7-1.6,5.1-4,6.4 M428.8,341.1l-2.4,2v-4L428.8,341.1z"/>
<text transform="matrix(1 0 0 1 462.0385 361.029)" class="st14 st8 st15">The piece of software Filip will</text>
<text transform="matrix(1 0 0 1 462.0385 377.029)" class="st14 st8 st15">have to write</text>
<text transform="matrix(1 0 0 1 462.0385 344.029)" class="st7 st8 st16">ERP/eCommerce App</text>
<g>
	<path class="st17" d="M662,355.5h65"/>
	<circle class="st10" cx="662.5" cy="355.5" r="5.5"/>
	<path class="st10" d="M723,360.9v-10.8c0-1.2,0.9-2.1,2-2.1c0.5,0,1,0.2,1.4,0.6l5,5.4c0.8,0.8,0.8,2.2,0,3l-5,5.4
		c-0.7,0.8-1.9,0.8-2.7,0.1c0,0-0.1-0.1-0.1-0.1C723.2,362,723,361.5,723,360.9L723,360.9z"/>
</g>
<g transform="translate(654 34)">
	<g class="st18">
		<path id="l_3_" class="st2" d="M-604.9,206h278c5,0,9,2.4,9,5.3v197.5c0,2.9-4,5.3-9,5.3h-278c-5,0-9-2.4-9-5.3V211.3
			C-614,208.4-609.9,206-604.9,206z"/>
	</g>
	<g>
		<path id="l_2_" class="st3" d="M-604.9,206h278c5,0,9,2.4,9,5.3v197.5c0,2.9-4,5.3-9,5.3h-278c-5,0-9-2.4-9-5.3V211.3
			C-614,208.4-609.9,206-604.9,206z"/>
	</g>
</g>
<path class="st30" d="M65,247h38c2.8,0,5,2.2,5,5v38c0,2.8-2.2,5-5,5H65c-2.8,0-5-2.2-5-5v-38C60,249.3,62.3,247,65,247z"/>
<path class="st5" d="M58.1,308H318v1H58.1V308z"/>
<text transform="matrix(1 0 0 1 123.0385 290.0289)" class="st14 st8 st15">«Hot» product information</text>
<text transform="matrix(1 0 0 1 123.0385 273.0289)" class="st7 st8 st9">ERP</text>
<path class="st17" d="M337.5,355h51"/>
<circle class="st10" cx="338" cy="355" r="5.5"/>
<g>
	<rect x="104.5" y="325.8" class="st31" width="61.1" height="80.4"/>
	<line class="st32" x1="118.9" y1="336.8" x2="143" y2="336.8"/>
	<line class="st32" x1="118.9" y1="344.8" x2="143" y2="344.8"/>
	<path class="st33" d="M156,361"/>
	<path class="st33" d="M112,361"/>
	<path class="st34" d="M156,371.3"/>
	<path class="st34" d="M112,371.3"/>
	<path class="st34" d="M156,383.3"/>
	<path class="st34" d="M112,383.3"/>
</g>
<g>
	<rect x="146.5" y="339.1" class="st31" width="61.1" height="80.4"/>
	<line class="st32" x1="160.9" y1="350.1" x2="185" y2="350.1"/>
	<line class="st32" x1="160.9" y1="358.1" x2="185" y2="358.1"/>
	<path class="st25" d="M198,374.3"/>
	<path class="st25" d="M198,384.6"/>
	<path class="st25" d="M198,396.6"/>
	<path class="st25" d="M154,396.6"/>
</g>
<g>
	<rect x="198" y="348.4" class="st31" width="61.1" height="80.4"/>
	<path class="st35" d="M215.5,354.4"/>
	<path class="st35" d="M203.6,375.4"/>
	<line class="st32" x1="212.5" y1="359.4" x2="236.6" y2="359.4"/>
	<line class="st32" x1="212.5" y1="367.4" x2="236.6" y2="367.4"/>
	<path class="st25" d="M249.6,383.6"/>
	<path class="st25" d="M205.6,383.6"/>
	<path class="st25" d="M249.6,393.9"/>
	<path class="st25" d="M205.6,393.9"/>
	<path class="st25" d="M249.6,405.9"/>
	<path class="st25" d="M205.6,405.9"/>
</g>
<text transform="matrix(1 0 0 1 111 393.6392)" class="st36 st37 st38">$</text>
<text transform="matrix(1 0 0 1 152.976 407.9442)" class="st36 st37 st38">$</text>
<text transform="matrix(1 0 0 1 204.6114 418.5289)" class="st36 st37 st38">$</text>
<text transform="matrix(1 0 0 1 794.9551 285.0288)" class="st39 st37 st38">$</text>
<text transform="matrix(1 0 0 1 845.787 300.8897)" class="st39 st37 st38">$</text>
<text transform="matrix(1 0 0 1 896.3599 312.0289)" class="st39 st37 st38">$</text>
<path class="st21" d="M84.1,255.2c-0.5,1.2-0.8,2.5-1,3.7c-0.5,0.1-0.9,0.2-1.4,0.3c-0.4,0.2-0.9,0.3-1.3,0.5
	c-0.8-0.9-1.8-1.8-2.8-2.6c-0.6,0.4-1.2,0.8-1.8,1.3c0.4,1.3,0.8,2.5,1.4,3.6c-0.3,0.3-0.6,0.7-0.9,1.1c-0.3,0.4-0.5,0.8-0.8,1.2
	c-1.2-0.2-2.5-0.4-3.8-0.4c-0.3,0.7-0.5,1.4-0.7,2.1c1,0.8,2.1,1.6,3.2,2.1c-0.1,0.5-0.1,1-0.1,1.4c0,0.5,0,1,0.1,1.4
	c-1.1,0.5-2.3,1.1-3.3,1.9c0.2,0.7,0.4,1.4,0.7,2.1c1.3,0.1,2.6,0,3.9-0.2c0.3,0.4,0.5,0.8,0.8,1.2c0.3,0.4,0.6,0.8,0.9,1.1
	c-0.6,1.1-1.1,2.2-1.6,3.5c0.5,0.5,1.1,0.9,1.7,1.3c1.1-0.7,2.1-1.5,3-2.4c0.4,0.2,0.9,0.4,1.3,0.5c0.5,0.1,0.9,0.3,1.4,0.3
	c0.1,1.2,0.4,2.5,0.8,3.7c0.7,0.1,1.4,0.1,2.2,0c0.5-1.2,0.8-2.5,1-3.7c0.5-0.1,0.9-0.2,1.4-0.3c0.4-0.2,0.9-0.3,1.3-0.5
	c0.8,0.9,1.8,1.8,2.8,2.6c0.6-0.4,1.2-0.8,1.8-1.3c-0.4-1.3-0.8-2.5-1.4-3.6c0.3-0.3,0.6-0.7,0.9-1.1c0.3-0.4,0.5-0.8,0.8-1.2
	c1.2,0.2,2.5,0.4,3.8,0.4c0.3-0.7,0.5-1.4,0.7-2.1c-1-0.8-2.1-1.6-3.2-2.1c0.1-0.5,0.1-1,0.1-1.4c0-0.5,0-1-0.1-1.4
	c1.1-0.5,2.3-1.1,3.3-1.9c-0.2-0.7-0.4-1.4-0.7-2.1c-1.3-0.1-2.6,0-3.9,0.2c-0.3-0.4-0.5-0.8-0.8-1.2c-0.3-0.4-0.6-0.8-0.9-1.1
	c0.6-1.1,1.1-2.2,1.6-3.5c-0.5-0.5-1.1-0.9-1.7-1.3c-1.1,0.7-2.1,1.5-3,2.4c-0.4-0.2-0.9-0.4-1.3-0.5c-0.5-0.1-0.9-0.3-1.4-0.3
	c-0.1-1.2-0.4-2.5-0.8-3.7C85.5,255.2,84.8,255.2,84.1,255.2z M87.1,263.3c1.3,0.4,2.6,1.3,3.4,2.5c0.8,1.1,1.3,2.5,1.3,4
	c0,1.4-0.4,2.8-1.3,4c-0.8,1.2-2,2-3.4,2.5c-1.3,0.4-2.8,0.4-4.2,0c-1.3-0.4-2.6-1.3-3.4-2.5c-0.8-1.1-1.3-2.5-1.3-4
	c0-1.4,0.4-2.8,1.3-4c0.8-1.2,2-2,3.4-2.5C84.3,262.9,85.8,262.9,87.1,263.3z"/>
<g>
	<line class="st40" x1="224.5" y1="419.9" x2="224.5" y2="414.9"/>
	<line class="st40" x1="229" y1="419.9" x2="229" y2="412"/>
	<line class="st40" x1="233.7" y1="419.9" x2="233.7" y2="409.3"/>
</g>
<g>
	<line class="st40" x1="172.1" y1="409.4" x2="172.1" y2="404.4"/>
	<line class="st40" x1="176.6" y1="409.3" x2="176.6" y2="401.5"/>
	<line class="st40" x1="181.3" y1="409.4" x2="181.3" y2="398.8"/>
</g>
<g>
	<line class="st40" x1="131.1" y1="395.4" x2="131.1" y2="390.4"/>
	<line class="st40" x1="135.6" y1="395.3" x2="135.6" y2="387.5"/>
	<line class="st40" x1="140.3" y1="395.4" x2="140.3" y2="384.8"/>
</g>
<g>
	<g>
		<line class="st41" x1="812.9" y1="287" x2="812.9" y2="282"/>
		<line class="st41" x1="817.5" y1="287" x2="817.5" y2="279.2"/>
		<line class="st41" x1="822.2" y1="287.1" x2="822.2" y2="276.5"/>
	</g>
</g>
<g>
	<g>
		<line class="st41" x1="863.2" y1="302.3" x2="863.2" y2="297.3"/>
		<line class="st41" x1="867.7" y1="302.3" x2="867.7" y2="294.4"/>
		<line class="st41" x1="872.4" y1="302.3" x2="872.4" y2="291.7"/>
	</g>
</g>
<g>
	<g>
		<line class="st41" x1="914.2" y1="313.3" x2="914.2" y2="308.3"/>
		<line class="st41" x1="918.7" y1="313.3" x2="918.7" y2="305.4"/>
		<line class="st41" x1="923.4" y1="313.3" x2="923.4" y2="302.7"/>
	</g>
</g>
</svg>
