<?xml version="1.0" encoding="utf-8"?>
<!-- Generator: Adobe Illustrator 24.0.1, SVG Export Plug-In . SVG Version: 6.00 Build 0)  -->
<svg version="1.1" id="Calque_1" xmlns="http://www.w3.org/2000/svg" xmlns:xlink="http://www.w3.org/1999/xlink" x="0px" y="0px"
	 viewBox="0 0 1028 469" style="enable-background:new 0 0 1028 469;" xml:space="preserve">
<style type="text/css">
	.st0{fill-rule:evenodd;clip-rule:evenodd;fill:#F5F9F8;}
	.st1{filter:url(#d);}
	.st2{fill-rule:evenodd;clip-rule:evenodd;}
	.st3{fill-rule:evenodd;clip-rule:evenodd;fill:#FFFFFF;}
	.st4{fill-rule:evenodd;clip-rule:evenodd;fill:#4EA7DD;}
	.st5{fill-rule:evenodd;clip-rule:evenodd;fill:#E0F1FC;}
	.st6{enable-background:new    ;}
	.st7{fill:#3A438B;}
	.st8{font-family:'Lato-Italic';}
	.st9{font-size:24px;}
	.st10{fill-rule:evenodd;clip-rule:evenodd;fill:#8F92C7;}
	.st11{filter:url(#i);}
	.st12{fill-rule:evenodd;clip-rule:evenodd;fill:#5D63AA;}
	.st13{fill:none;stroke:#FFFFFF;stroke-linecap:round;stroke-linejoin:round;}
	.st14{fill:#8F92C7;}
	.st15{font-size:13px;}
	.st16{font-size:17px;}
	.st17{fill:none;stroke:#8F92C7;stroke-width:2;stroke-linecap:round;stroke-linejoin:round;stroke-dasharray:2,6;}
	.st18{filter:url(#k);}
	.st19{fill-rule:evenodd;clip-rule:evenodd;fill:#82549D;}
	.st20{fill-rule:evenodd;clip-rule:evenodd;fill:#F9F9FB;}
	.st21{fill:#FFFFFF;}
	.st22{fill-rule:evenodd;clip-rule:evenodd;fill:#FFFFFF;stroke:#B9A7C9;stroke-miterlimit:10;}
	.st23{fill-rule:evenodd;clip-rule:evenodd;fill:#B9A7C9;stroke:#FFFFFF;stroke-miterlimit:10;}
	.st24{fill:#FFFFFF;stroke:#B9A7C9;stroke-miterlimit:10;}
	.st25{fill:none;stroke:#B9A7C9;stroke-miterlimit:10;}
	.st26{fill-rule:evenodd;clip-rule:evenodd;fill:#FFFFFF;stroke:#B1D9E8;stroke-miterlimit:10;}
	.st27{fill-rule:evenodd;clip-rule:evenodd;fill:#B1D9E8;}
	.st28{fill:none;stroke:#B1D9E8;stroke-miterlimit:10;}
</style>
<filter  filterUnits="objectBoundingBox" height="114.7%" id="k" width="117.7%" x="-8.2%" y="-6.3%">
	<feOffset  dx="2" dy="4" in="SourceAlpha" result="shadowOffsetOuter1"></feOffset>
	<feGaussianBlur  in="shadowOffsetOuter1" result="shadowBlurOuter1" stdDeviation="9"></feGaussianBlur>
	<feColorMatrix  in="shadowBlurOuter1" values="0 0 0 0 0.0352941176 0 0 0 0 0.117647059 0 0 0 0 0.258823529 0 0 0 0.14 0">
		</feColorMatrix>
</filter>
<filter  filterUnits="objectBoundingBox" height="177.3%" id="i" width="124.5%" x="-11.4%" y="-33.3%">
	<feOffset  dx="2" dy="4" in="SourceAlpha" result="shadowOffsetOuter1"></feOffset>
	<feGaussianBlur  in="shadowOffsetOuter1" result="shadowBlurOuter1" stdDeviation="9"></feGaussianBlur>
	<feColorMatrix  in="shadowBlurOuter1" values="0 0 0 0 0.0352941176 0 0 0 0 0.117647059 0 0 0 0 0.258823529 0 0 0 0.14 0">
		</feColorMatrix>
</filter>
<filter  filterUnits="objectBoundingBox" height="114.7%" id="d" width="123.4%" x="-10.9%" y="-6.3%">
	<feOffset  dx="2" dy="4" in="SourceAlpha" result="shadowOffsetOuter1"></feOffset>
	<feGaussianBlur  in="shadowOffsetOuter1" result="shadowBlurOuter1" stdDeviation="9"></feGaussianBlur>
	<feColorMatrix  in="shadowBlurOuter1" values="0 0 0 0 0.0352941176 0 0 0 0 0.117647059 0 0 0 0 0.258823529 0 0 0 0.14 0">
		</feColorMatrix>
</filter>
<path class="st0" d="M0,0h1028v469H0V0z"/>
<g transform="translate(43 34)">
	<g class="st1">
		<path id="e_2_" class="st2" d="M699,107h228c5.5,0,10,2.4,10,5.3v197.5c0,2.9-4.5,5.3-10,5.3H699c-5.5,0-10-2.4-10-5.3V112.2
			C689,109.3,693.5,107,699,107z"/>
	</g>
	<g>
		<path id="e_1_" class="st3" d="M699,107h228c5.5,0,10,2.4,10,5.3v197.5c0,2.9-4.5,5.3-10,5.3H699c-5.5,0-10-2.4-10-5.3V112.2
			C689,109.3,693.5,107,699,107z"/>
	</g>
</g>
<path class="st4" d="M757,151h38c2.8,0,5,2.2,5,5v38c0,2.8-2.2,5-5,5h-38c-2.8,0-5-2.2-5-5v-38C752,153.2,754.2,151,757,151z"/>
<path class="st5" d="M752,218h208v1H752V218z"/>
<text transform="matrix(1 0 0 1 805.0012 169.9688)" class="st6"><tspan x="0" y="0" class="st7 st8 st9">Your eCommerce</tspan><tspan x="0" y="28.8" class="st7 st8 st9">Solution</tspan></text>
<path class="st10" d="M390.5,261.4v-10.8c0-1.2,0.9-2.1,2-2.1c0.5,0,1,0.2,1.4,0.6l5,5.4c0.8,0.8,0.8,2.2,0,3l-5,5.4
	c-0.7,0.8-1.9,0.8-2.7,0.1c0,0-0.1-0.1-0.1-0.1C390.7,262.5,390.5,261.9,390.5,261.4L390.5,261.4z"/>
<g transform="translate(347 219)">
	<g class="st11">
		<path id="j_2_" class="st2" d="M58.4,0h246.2c3,0,5.4,2.2,5.4,5v65c0,2.8-2.4,5-5.4,5H58.4c-3,0-5.4-2.2-5.4-5V5
			C53,2.2,55.4,0,58.4,0z"/>
	</g>
	<g>
		<path id="j_1_" class="st3" d="M58.4,0h246.2c3,0,5.4,2.2,5.4,5v65c0,2.8-2.4,5-5.4,5H58.4c-3,0-5.4-2.2-5.4-5V5
			C53,2.2,55.4,0,58.4,0z"/>
	</g>
</g>
<g transform="translate(357 229)">
	<path class="st12" d="M57,0h28c2.8,0,5,2.2,5,5v28c0,2.8-2.2,5-5,5H57c-2.8,0-5-2.2-5-5V5C52,2.2,54.2,0,57,0z"/>
	<path class="st13" d="M67.7,12.7c-2.3,1.3-3.9,3.6-3.9,6.3c0,2.7,1.6,5.1,4,6.4 M69.4,24.9l2.4,2v-4L69.4,24.9L69.4,24.9z
		 M73.5,12.7c2.3,1.3,3.9,3.6,3.9,6.3c0,2.7-1.6,5.1-4,6.4 M71.8,13.1l-2.4,2v-4L71.8,13.1z"/>
</g>
<text transform="matrix(1 0 0 1 462 262)" class="st14 st8 st15">The piece of software you are </text>
<text transform="matrix(1 0 0 1 462 278)" class="st14 st8 st15">going to write</text>
<text transform="matrix(1 0 0 1 462 245)" class="st7 st8 st16">PIM/eCommerce App</text>
<g>
	<path class="st17" d="M662,256.5h65"/>
	<circle class="st10" cx="662.5" cy="256.5" r="5.5"/>
	<path class="st10" d="M723,261.9v-10.8c0-1.2,0.9-2.1,2-2.1c0.5,0,1,0.2,1.4,0.6l5,5.4c0.8,0.8,0.8,2.2,0,3l-5,5.4
		c-0.7,0.8-1.9,0.8-2.7,0.1c0,0-0.1-0.1-0.1-0.1C723.2,263,723,262.4,723,261.9L723,261.9z"/>
</g>
<g transform="translate(654 34)">
	<g class="st18">
		<path id="l_2_" class="st2" d="M-605,107h278c5,0,9,2.4,9,5.3v197.5c0,2.9-4,5.3-9,5.3h-278c-5,0-9-2.4-9-5.3V112.2
			C-614,109.3-610,107-605,107z"/>
	</g>
	<g>
		<path id="l_1_" class="st3" d="M-605,107h278c5,0,9,2.4,9,5.3v197.5c0,2.9-4,5.3-9,5.3h-278c-5,0-9-2.4-9-5.3V112.2
			C-614,109.3-610,107-605,107z"/>
	</g>
</g>
<g transform="translate(674 54)">
	<path class="st19" d="M-609,94h38c2.8,0,5,2.2,5,5v38c0,2.8-2.2,5-5,5h-38c-2.8,0-5-2.2-5-5V99C-614,96.2-611.8,94-609,94z"/>
	<path class="st20" d="M-579.3,117.3c0-0.1,0-0.1,0-0.2c0-0.1,0.1-0.2,0.1-0.3c0.2-1.1-0.2-2.3-1-3.7c-0.1-0.1-0.2-0.2-0.2-0.4
		c-0.1-0.2-0.3-0.4-0.4-0.6c0,0,0,0-0.1-0.1c0-0.1-0.1-0.1-0.1-0.2c0-0.1-0.1-0.1-0.1-0.2c0-0.1-0.1-0.1-0.1-0.2
		c-0.1-0.1-0.1-0.1-0.1-0.2c0,0-0.1-0.1-0.1-0.1c-1.3-1.6-2.9-3.1-4.6-4.4c0.2,2.2,0.1,4.4-0.1,6.1c-0.3,2.1-1.2,4.5-2.3,6.7
		c-2.5-0.3-4.9-0.9-6.9-1.8c-1.6-0.8-3.4-1.9-5.2-3.3l0.1,0.5c0,0.1,0,0.1,0,0.2c0,0.1,0,0.3,0,0.4c0,0.1,0,0.1,0,0.2
		c0,0.1,0,0.3,0.1,0.4c0,0.1,0,0.1,0,0.2c0,0.2,0,0.3,0.1,0.5c0,0.2,0.1,0.4,0.1,0.6c0,0.2,0.1,0.4,0.1,0.5c0,0,0,0.1,0,0.1
		c0,0.2,0.1,0.3,0.1,0.5c0,0,0,0.1,0,0.1c0.1,0.7,0.3,1.4,0.5,2.1c0.3,0.9,0.6,1.7,0.9,2.3c0.1,0.1,0.1,0.2,0.2,0.3
		c0.1,0.1,0.1,0.2,0.1,0.3c0.1,0.1,0.1,0.2,0.2,0.3c0.1,0.1,0.2,0.2,0.2,0.4c0,0.1,0,0.1,0.1,0.1c0.1,0.1,0.2,0.2,0.3,0.3
		c0.1,0.1,0.1,0.1,0.2,0.2l0.1,0.1c0,0,0.1,0.1,0.1,0.1l0.1,0.1c0,0,0.1,0.1,0.1,0.1c0,0,0.1,0.1,0.1,0.1c0,0,0.1,0.1,0.1,0.1
		c0,0,0.1,0,0.1,0.1c0,0,0.1,0.1,0.1,0.1c0,0,0.1,0,0.1,0.1c0.1,0,0.1,0.1,0.2,0.1c0,0,0.1,0,0.1,0c0.1,0,0.2,0.1,0.2,0.1
		c0.1,0,0.1,0,0.1,0.1c3.9,1.1,7.8-0.3,12.4,3.2C-583.9,123.4-580.5,121.1-579.3,117.3L-579.3,117.3z"/>
</g>
<path class="st5" d="M58,216H318v1H58V216z"/>
<text transform="matrix(1 0 0 1 123 191)" class="st14 st8 st15">The master of your products</text>
<text transform="matrix(1 0 0 1 123 174)" class="st7 st8 st9">Akeneo PIM</text>
<g>
	<path class="st21" d="M783.1,175.9h-11.4l1.1,2.9h9.5v1.3h-10.4l-1.5-4.2h0l-3.8-10.5l-2.4-0.6l0.3-1.3l3.1,0.7l1.7,4.6l0,0
		l2.1,5.8h10.8l1.8-7.9l1.3,0.3L783.1,175.9z M776.8,173.3l-5-4.6l0.9-1l3.5,3.2v-8.6h1.3v8.6l3.4-3.2l0.9,1L776.8,173.3z
		 M772.4,181.1c-0.3,0.3-0.5,0.7-0.5,1.2c0,0.5,0.2,0.8,0.5,1.2c0.3,0.3,0.7,0.5,1.2,0.5c0.5,0,0.8-0.2,1.2-0.5
		c0.3-0.3,0.5-0.7,0.5-1.2c0-0.4-0.2-0.8-0.5-1.2c-0.3-0.3-0.7-0.5-1.2-0.5C773.1,180.6,772.7,180.8,772.4,181.1z M779.2,181.1
		c-0.3,0.3-0.5,0.7-0.5,1.2c0,0.5,0.2,0.8,0.5,1.2c0.3,0.3,0.7,0.5,1.2,0.5c0.5,0,0.8-0.2,1.1-0.5c0.3-0.3,0.5-0.7,0.5-1.2
		c0-0.4-0.2-0.8-0.5-1.2c-0.3-0.3-0.7-0.5-1.1-0.5C779.9,180.6,779.5,180.8,779.2,181.1z"/>
</g>
<path class="st17" d="M337.5,256h51"/>
<circle class="st10" cx="338" cy="256" r="5.5"/>
<g>
	<rect x="92.4" y="226.8" class="st22" width="61.1" height="80.4"/>
	<rect x="98" y="232.8" class="st23" width="11.9" height="21"/>
	<line class="st24" x1="117.9" y1="237.8" x2="142" y2="237.8"/>
	<line class="st24" x1="117.9" y1="245.8" x2="142" y2="245.8"/>
	<line class="st25" x1="100" y1="262" x2="144" y2="262"/>
	<line class="st25" x1="100" y1="272.3" x2="144" y2="272.3"/>
	<line class="st25" x1="100" y1="284.3" x2="144" y2="284.3"/>
</g>
<g>
	<rect x="134.4" y="240.1" class="st22" width="61.1" height="80.4"/>
	<rect x="140" y="246.1" class="st23" width="11.9" height="21"/>
	<line class="st24" x1="159.9" y1="251.1" x2="184" y2="251.1"/>
	<line class="st24" x1="159.9" y1="259.1" x2="184" y2="259.1"/>
	<line class="st25" x1="142" y1="275.3" x2="186" y2="275.3"/>
	<line class="st25" x1="142" y1="285.6" x2="186" y2="285.6"/>
	<line class="st25" x1="142" y1="297.6" x2="186" y2="297.6"/>
</g>
<g>
	<rect x="186" y="249.4" class="st22" width="61.1" height="80.4"/>
	<rect x="191.6" y="255.4" class="st23" width="11.9" height="21"/>
	<line class="st24" x1="211.4" y1="260.4" x2="235.6" y2="260.4"/>
	<line class="st24" x1="211.4" y1="268.4" x2="235.6" y2="268.4"/>
	<line class="st25" x1="193.6" y1="284.6" x2="237.6" y2="284.6"/>
	<line class="st25" x1="193.6" y1="294.9" x2="237.6" y2="294.9"/>
	<line class="st25" x1="193.6" y1="306.9" x2="237.6" y2="306.9"/>
</g>
<g>
	<rect x="775.6" y="227.1" class="st26" width="61.1" height="80.4"/>
	<rect x="781.2" y="233.1" class="st27" width="11.9" height="21"/>
	<line class="st28" x1="801.1" y1="238.1" x2="825.2" y2="238.1"/>
	<line class="st28" x1="801.1" y1="246.1" x2="825.2" y2="246.1"/>
	<line class="st28" x1="783.2" y1="262.3" x2="827.2" y2="262.3"/>
	<line class="st28" x1="783.2" y1="272.6" x2="827.2" y2="272.6"/>
	<line class="st28" x1="783.2" y1="284.6" x2="827.2" y2="284.6"/>
</g>
<g>
	<rect x="825.2" y="239.4" class="st26" width="61.1" height="80.4"/>
	<rect x="830.8" y="245.4" class="st27" width="11.9" height="21"/>
	<line class="st28" x1="850.6" y1="250.4" x2="874.8" y2="250.4"/>
	<line class="st28" x1="850.6" y1="258.4" x2="874.8" y2="258.4"/>
	<line class="st28" x1="832.8" y1="274.6" x2="876.8" y2="274.6"/>
	<line class="st28" x1="832.8" y1="284.9" x2="876.8" y2="284.9"/>
	<line class="st28" x1="832.8" y1="296.9" x2="876.8" y2="296.9"/>
</g>
<g>
	<rect x="874.8" y="250.4" class="st26" width="61.1" height="80.4"/>
	<rect x="880.4" y="256.4" class="st27" width="11.9" height="21"/>
	<line class="st28" x1="900.2" y1="261.4" x2="924.4" y2="261.4"/>
	<line class="st28" x1="900.2" y1="269.4" x2="924.4" y2="269.4"/>
	<line class="st28" x1="882.4" y1="285.6" x2="926.4" y2="285.6"/>
	<line class="st28" x1="882.4" y1="295.9" x2="926.4" y2="295.9"/>
	<line class="st28" x1="882.4" y1="307.9" x2="926.4" y2="307.9"/>
</g>
</svg>
