<?xml version="1.0" encoding="utf-8"?>
<!-- Generator: Adobe Illustrator 24.0.1, SVG Export Plug-In . SVG Version: 6.00 Build 0)  -->
<svg version="1.1" id="Calque_1" xmlns="http://www.w3.org/2000/svg" xmlns:xlink="http://www.w3.org/1999/xlink" x="0px" y="0px"
	 viewBox="0 0 1028 966.3" style="enable-background:new 0 0 1028 966.3;" xml:space="preserve">
<style type="text/css">
	.st0{fill-rule:evenodd;clip-rule:evenodd;fill:#F5F9F8;}
	.st1{filter:url(#i);}
	.st2{fill-rule:evenodd;clip-rule:evenodd;}
	.st3{fill-rule:evenodd;clip-rule:evenodd;fill:#FFFFFF;}
	.st4{fill-rule:evenodd;clip-rule:evenodd;fill:#5D63AA;}
	.st5{fill:none;stroke:#FFFFFF;stroke-linecap:round;stroke-linejoin:round;}
	.st6{fill:#8F92C7;}
	.st7{font-family:'Lato-Italic';}
	.st8{font-size:13px;}
	.st9{fill:#3A438B;}
	.st10{font-size:17px;}
	.st11{fill:none;stroke:#8F92C7;stroke-width:2;stroke-linecap:round;stroke-linejoin:round;stroke-dasharray:2,6;}
	.st12{fill-rule:evenodd;clip-rule:evenodd;fill:#8F92C7;}
	.st13{filter:url(#k);}
	.st14{fill-rule:evenodd;clip-rule:evenodd;fill:#82549D;}
	.st15{fill-rule:evenodd;clip-rule:evenodd;fill:#F9F9FB;}
	.st16{fill-rule:evenodd;clip-rule:evenodd;fill:#E0F1FC;}
	.st17{font-size:24px;}
	.st18{fill-rule:evenodd;clip-rule:evenodd;fill:#FFFFFF;stroke:#B9A7C9;stroke-miterlimit:10;}
	.st19{fill-rule:evenodd;clip-rule:evenodd;fill:#B9A7C9;stroke:#FFFFFF;stroke-miterlimit:10;}
	.st20{fill:#FFFFFF;stroke:#B9A7C9;stroke-miterlimit:10;}
	.st21{fill:none;stroke:#B9A7C9;stroke-miterlimit:10;}
	.st22{fill-rule:evenodd;clip-rule:evenodd;fill:#DD5B03;}
	.st23{fill-rule:evenodd;clip-rule:evenodd;fill:#E5A300;}
	.st24{fill-rule:evenodd;clip-rule:evenodd;fill:#FFFFFF;stroke:#F7CD6F;stroke-miterlimit:10;}
	.st25{fill:#FFFFFF;stroke:#F7CD6F;stroke-miterlimit:10;}
	.st26{fill:none;stroke:#F7CD6F;stroke-miterlimit:10;}
	.st27{fill:none;stroke:#E5A300;stroke-miterlimit:10;}
	.st28{fill-rule:evenodd;clip-rule:evenodd;fill:#F7CD6F;stroke:#FFFFFF;stroke-miterlimit:10;}
	.st29{fill:#E5A300;}
	.st30{font-family:'MyriadPro-Regular';}
	.st31{font-size:20px;}
	.st32{fill:#FFFFFF;}
	.st33{fill:none;stroke:#E5A300;stroke-width:3;stroke-miterlimit:10;}
	.st34{filter:url(#d);}
	.st35{fill-rule:evenodd;clip-rule:evenodd;fill:#4EA7DD;}
	.st36{enable-background:new    ;}
	.st37{fill-rule:evenodd;clip-rule:evenodd;fill:#FFFFFF;stroke:#B1D9E8;stroke-miterlimit:10;}
	.st38{fill-rule:evenodd;clip-rule:evenodd;fill:#B1D9E8;}
	.st39{fill:none;stroke:#B1D9E8;stroke-miterlimit:10;}
	.st40{fill:#4EA7DD;}
	.st41{fill:none;stroke:#4EA7DD;stroke-width:3;stroke-miterlimit:10;}
	.st42{fill:none;stroke:#979797;}
	.st43{filter:url(#Adobe_OpacityMaskFilter);}
	.st44{filter:url(#Adobe_OpacityMaskFilter_1_);}
	.st45{filter:url(#Adobe_OpacityMaskFilter_2_);}
	.st46{fill-rule:evenodd;clip-rule:evenodd;fill:#66CC66;}
	.st47{fill:#FFFFFF;stroke:#9B9B9B;stroke-miterlimit:10;}
	.st48{fill:none;stroke:#7C7C7C;stroke-width:3;stroke-miterlimit:10;}
	.st49{fill:#848484;}
	.st50{fill:none;stroke:#8F92C7;stroke-width:5;stroke-linecap:round;stroke-linejoin:round;stroke-dasharray:2,6;}
	.st51{filter:url(#Adobe_OpacityMaskFilter_3_);}
	.st52{filter:url(#Adobe_OpacityMaskFilter_4_);}
	.st53{filter:url(#Adobe_OpacityMaskFilter_5_);}
</style>
<filter  filterUnits="objectBoundingBox" height="114.7%" id="k" width="117.7%" x="-8.2%" y="-6.3%">
	<feOffset  dx="2" dy="4" in="SourceAlpha" result="shadowOffsetOuter1"></feOffset>
	<feGaussianBlur  in="shadowOffsetOuter1" result="shadowBlurOuter1" stdDeviation="9"></feGaussianBlur>
	<feColorMatrix  in="shadowBlurOuter1" values="0 0 0 0 0.0352941176 0 0 0 0 0.117647059 0 0 0 0 0.258823529 0 0 0 0.14 0">
		</feColorMatrix>
</filter>
<filter  filterUnits="objectBoundingBox" height="177.3%" id="i" width="124.5%" x="-11.4%" y="-33.3%">
	<feOffset  dx="2" dy="4" in="SourceAlpha" result="shadowOffsetOuter1"></feOffset>
	<feGaussianBlur  in="shadowOffsetOuter1" result="shadowBlurOuter1" stdDeviation="9"></feGaussianBlur>
	<feColorMatrix  in="shadowBlurOuter1" values="0 0 0 0 0.0352941176 0 0 0 0 0.117647059 0 0 0 0 0.258823529 0 0 0 0.14 0">
		</feColorMatrix>
</filter>
<filter  filterUnits="objectBoundingBox" height="114.7%" id="d" width="123.4%" x="-10.9%" y="-6.3%">
	<feOffset  dx="2" dy="4" in="SourceAlpha" result="shadowOffsetOuter1"></feOffset>
	<feGaussianBlur  in="shadowOffsetOuter1" result="shadowBlurOuter1" stdDeviation="9"></feGaussianBlur>
	<feColorMatrix  in="shadowBlurOuter1" values="0 0 0 0 0.0352941176 0 0 0 0 0.117647059 0 0 0 0 0.258823529 0 0 0 0.14 0">
		</feColorMatrix>
</filter>
<path class="st0" d="M0,0h1028v966.3H0V0z"/>
<g>
	<g transform="translate(347 219)">
		<g class="st1">
			<path id="j_6_" class="st2" d="M59.4,240.3h246.2c3,0,5.4,2.2,5.4,5v65c0,2.8-2.4,5-5.4,5H59.4c-3,0-5.4-2.2-5.4-5v-65
				C54,242.5,56.4,240.3,59.4,240.3z"/>
		</g>
		<g>
			<path id="j_1_" class="st3" d="M59.4,240.3h246.2c3,0,5.4,2.2,5.4,5v65c0,2.8-2.4,5-5.4,5H59.4c-3,0-5.4-2.2-5.4-5v-65
				C54,242.5,56.4,240.3,59.4,240.3z"/>
		</g>
	</g>
	<g transform="translate(357 229)">
		<path class="st4" d="M57,240.3h28c2.8,0,5,2.2,5,5v28c0,2.8-2.2,5-5,5H57c-2.8,0-5-2.2-5-5v-28C52,242.5,54.2,240.3,57,240.3z"/>
		<path class="st5" d="M67.7,252.9c-2.3,1.3-3.9,3.6-3.9,6.3c0,2.7,1.6,5.1,4,6.4 M69.4,265.2l2.4,2v-4L69.4,265.2L69.4,265.2z
			 M73.5,252.9c2.3,1.3,3.9,3.6,3.9,6.3c0,2.7-1.6,5.1-4,6.4 M71.8,253.3l-2.4,2v-4L71.8,253.3z"/>
	</g>
	<text transform="matrix(1 0 0 1 462 502.2625)" class="st6 st7 st8">The piece of software you are </text>
	<text transform="matrix(1 0 0 1 462 518.2625)" class="st6 st7 st8">going to write</text>
	<text transform="matrix(1 0 0 1 462 485.2625)" class="st9 st7 st10">PIM/eCommerce connector</text>
</g>
<g>
	<path class="st11" d="M662,496.8h65"/>
	<circle class="st12" cx="662.5" cy="496.8" r="5.5"/>
	<path class="st12" d="M723,502.1v-10.8c0-1.2,0.9-2.1,2-2.1c0.5,0,1,0.2,1.4,0.6l5,5.4c0.8,0.8,0.8,2.2,0,3l-5,5.4
		c-0.7,0.8-1.9,0.8-2.7,0.1c0,0-0.1-0.1-0.1-0.1C723.2,503.2,723,502.7,723,502.1L723,502.1z"/>
</g>
<g>
	<g transform="translate(654 34)">
		<g class="st13">
			<path id="l_6_" class="st2" d="M-605,356.2h278c5,0,9,2.4,9,5.3V559c0,2.9-4,5.3-9,5.3h-278c-5,0-9-2.4-9-5.3V361.5
				C-614,358.6-610,356.2-605,356.2z"/>
		</g>
		<g>
			<path id="l_1_" class="st3" d="M-605,356.2h278c5,0,9,2.4,9,5.3V559c0,2.9-4,5.3-9,5.3h-278c-5,0-9-2.4-9-5.3V361.5
				C-614,358.6-610,356.2-605,356.2z"/>
		</g>
	</g>
	<g transform="translate(674 54)">
		<path class="st14" d="M-609,343.3h38c2.8,0,5,2.2,5,5v38c0,2.8-2.2,5-5,5h-38c-2.8,0-5-2.2-5-5v-38
			C-614,345.5-611.8,343.3-609,343.3z"/>
		<path class="st15" d="M-579.3,366.6c0-0.1,0-0.1,0-0.2c0-0.1,0.1-0.2,0.1-0.3c0.2-1.1-0.2-2.3-1-3.7c-0.1-0.1-0.2-0.2-0.2-0.4
			c-0.1-0.2-0.3-0.4-0.4-0.6c0,0,0,0-0.1-0.1c0-0.1-0.1-0.1-0.1-0.2c0-0.1-0.1-0.1-0.1-0.2c0-0.1-0.1-0.1-0.1-0.2
			c-0.1-0.1-0.1-0.1-0.1-0.2c0,0-0.1-0.1-0.1-0.1c-1.3-1.6-2.9-3.1-4.6-4.4c0.2,2.2,0.1,4.4-0.1,6.1c-0.3,2.1-1.2,4.5-2.3,6.7
			c-2.5-0.3-4.9-0.9-6.9-1.8c-1.6-0.8-3.4-1.9-5.2-3.3l0.1,0.5c0,0.1,0,0.1,0,0.2c0,0.1,0,0.3,0,0.4c0,0.1,0,0.1,0,0.2
			c0,0.1,0,0.3,0.1,0.4c0,0.1,0,0.1,0,0.2c0,0.2,0,0.3,0.1,0.5c0,0.2,0.1,0.4,0.1,0.6c0,0.2,0.1,0.4,0.1,0.5c0,0,0,0.1,0,0.1
			c0,0.2,0.1,0.3,0.1,0.5c0,0,0,0.1,0,0.1c0.1,0.7,0.3,1.4,0.5,2.1c0.3,0.9,0.6,1.7,0.9,2.3c0.1,0.1,0.1,0.2,0.2,0.3
			c0.1,0.1,0.1,0.2,0.1,0.3c0.1,0.1,0.1,0.2,0.2,0.3c0.1,0.1,0.2,0.2,0.2,0.4c0,0.1,0,0.1,0.1,0.1c0.1,0.1,0.2,0.2,0.3,0.3
			c0.1,0.1,0.1,0.1,0.2,0.2l0.1,0.1c0,0,0.1,0.1,0.1,0.1l0.1,0.1c0,0,0.1,0.1,0.1,0.1c0,0,0.1,0.1,0.1,0.1c0,0,0.1,0.1,0.1,0.1
			c0,0,0.1,0,0.1,0.1c0,0,0.1,0.1,0.1,0.1c0,0,0.1,0,0.1,0.1c0.1,0,0.1,0.1,0.2,0.1c0,0,0.1,0,0.1,0c0.1,0,0.2,0.1,0.2,0.1
			c0.1,0,0.1,0,0.1,0.1c3.9,1.1,7.8-0.3,12.4,3.2C-583.9,372.7-580.5,370.4-579.3,366.6L-579.3,366.6z"/>
	</g>
	<path class="st16" d="M58,458.3H318v1H58V458.3z"/>
	<text transform="matrix(1 0 0 1 123 440.2625)" class="st6 st7 st8">Your «Cold» product information</text>
	<text transform="matrix(1 0 0 1 123 423.2625)" class="st9 st7 st17">Akeneo PIM</text>
	<g>
		<rect x="106.4" y="476.1" class="st18" width="61.1" height="80.4"/>
		<rect x="112" y="482.1" class="st19" width="11.9" height="21"/>
		<line class="st20" x1="131.9" y1="487.1" x2="156" y2="487.1"/>
		<line class="st20" x1="131.9" y1="495.1" x2="156" y2="495.1"/>
		<line class="st21" x1="114" y1="511.3" x2="158" y2="511.3"/>
		<line class="st21" x1="114" y1="521.6" x2="158" y2="521.6"/>
		<line class="st21" x1="114" y1="533.6" x2="158" y2="533.6"/>
	</g>
	<g>
		<rect x="148.4" y="489.4" class="st18" width="61.1" height="80.4"/>
		<rect x="154" y="495.4" class="st19" width="11.9" height="21"/>
		<line class="st20" x1="173.9" y1="500.4" x2="198" y2="500.4"/>
		<line class="st20" x1="173.9" y1="508.4" x2="198" y2="508.4"/>
		<line class="st21" x1="156" y1="524.6" x2="200" y2="524.6"/>
		<line class="st21" x1="156" y1="534.9" x2="200" y2="534.9"/>
		<line class="st21" x1="156" y1="546.9" x2="200" y2="546.9"/>
	</g>
	<g>
		<rect x="200" y="498.7" class="st18" width="61.1" height="80.4"/>
		<rect x="205.6" y="504.7" class="st19" width="11.9" height="21"/>
		<line class="st20" x1="225.4" y1="509.7" x2="249.6" y2="509.7"/>
		<line class="st20" x1="225.4" y1="517.7" x2="249.6" y2="517.7"/>
		<line class="st21" x1="207.6" y1="533.9" x2="251.6" y2="533.9"/>
		<line class="st21" x1="207.6" y1="544.2" x2="251.6" y2="544.2"/>
		<line class="st21" x1="207.6" y1="556.2" x2="251.6" y2="556.2"/>
	</g>
</g>
<g>
	<g transform="translate(347 219)">
		<g class="st1">
			<path id="j_6_" class="st2" d="M58.5,577.3h246.2c3,0,5.4,2.2,5.4,5v65c0,2.8-2.4,5-5.4,5H58.5c-3,0-5.4-2.2-5.4-5v-65
				C53,579.5,55.5,577.3,58.5,577.3z"/>
		</g>
		<g>
			<path id="j_2_" class="st3" d="M58.5,577.3h246.2c3,0,5.4,2.2,5.4,5v65c0,2.8-2.4,5-5.4,5H58.5c-3,0-5.4-2.2-5.4-5v-65
				C53,579.5,55.5,577.3,58.5,577.3z"/>
		</g>
	</g>
	<path class="st22" d="M414,806.3h28c2.8,0,5,2.2,5,5v28c0,2.8-2.2,5-5,5h-28c-2.8,0-5-2.2-5-5v-28C409,808.5,411.3,806.3,414,806.3
		z"/>
	<path class="st5" d="M424.8,819c-2.3,1.3-3.9,3.6-3.9,6.3c0,2.7,1.6,5.1,4,6.4 M426.5,831.2l2.4,2v-4L426.5,831.2L426.5,831.2z
		 M430.5,819c2.3,1.3,3.9,3.6,3.9,6.3c0,2.7-1.6,5.1-4,6.4 M428.8,819.4l-2.4,2v-4L428.8,819.4z"/>
	<text transform="matrix(1 0 0 1 462.0385 839.2914)" class="st6 st7 st8">The piece of software Filip will</text>
	<text transform="matrix(1 0 0 1 462.0385 855.2914)" class="st6 st7 st8">have to write</text>
	<text transform="matrix(1 0 0 1 462.0385 822.2914)" class="st9 st7 st10">ERP/eCommerce connector</text>
</g>
<g>
	<path class="st11" d="M662,833.8h65"/>
	<circle class="st12" cx="662.5" cy="833.8" r="5.5"/>
	<path class="st12" d="M723,839.2v-10.8c0-1.2,0.9-2.1,2-2.1c0.5,0,1,0.2,1.4,0.6l5,5.4c0.8,0.8,0.8,2.2,0,3l-5,5.4
		c-0.7,0.8-1.9,0.8-2.7,0.1c0,0-0.1-0.1-0.1-0.1C723.2,840.3,723,839.7,723,839.2L723,839.2z"/>
</g>
<g>
	<g transform="translate(654 34)">
		<g class="st13">
			<path id="l_6_" class="st2" d="M-604.9,683.3h278c5,0,9,2.4,9,5.3v197.5c0,2.9-4,5.3-9,5.3h-278c-5,0-9-2.4-9-5.3V688.5
				C-614,685.6-609.9,683.3-604.9,683.3z"/>
		</g>
		<g>
			<path id="l_2_" class="st3" d="M-604.9,683.3h278c5,0,9,2.4,9,5.3v197.5c0,2.9-4,5.3-9,5.3h-278c-5,0-9-2.4-9-5.3V688.5
				C-614,685.6-609.9,683.3-604.9,683.3z"/>
		</g>
	</g>
	<path class="st23" d="M65,724.3h38c2.8,0,5,2.2,5,5v38c0,2.8-2.2,5-5,5H65c-2.8,0-5-2.2-5-5v-38C60,726.5,62.3,724.3,65,724.3z"/>
	<path class="st16" d="M58.1,785.3H318v1H58.1V785.3z"/>
	<text transform="matrix(1 0 0 1 123.0385 767.2914)" class="st6 st7 st8">Your ERP product information</text>
	<text transform="matrix(1 0 0 1 123.0385 750.2914)" class="st9 st7 st17">ERP</text>
	<g>
		<rect x="104.5" y="803.1" class="st24" width="61.1" height="80.4"/>
		<line class="st25" x1="118.9" y1="814.1" x2="143" y2="814.1"/>
		<line class="st25" x1="118.9" y1="822.1" x2="143" y2="822.1"/>
		<path class="st26" d="M156,838.3"/>
		<path class="st26" d="M112,838.3"/>
		<path class="st27" d="M156,848.6"/>
		<path class="st27" d="M112,848.6"/>
		<path class="st27" d="M156,860.6"/>
		<path class="st27" d="M112,860.6"/>
	</g>
	<g>
		<rect x="146.5" y="816.4" class="st24" width="61.1" height="80.4"/>
		<line class="st25" x1="160.9" y1="827.4" x2="185" y2="827.4"/>
		<line class="st25" x1="160.9" y1="835.4" x2="185" y2="835.4"/>
		<path class="st21" d="M198,851.6"/>
		<path class="st21" d="M198,861.9"/>
		<path class="st21" d="M198,873.9"/>
		<path class="st21" d="M154,873.9"/>
	</g>
	<g>
		<rect x="198" y="825.7" class="st24" width="61.1" height="80.4"/>
		<path class="st28" d="M215.5,831.7"/>
		<path class="st28" d="M203.6,852.7"/>
		<line class="st25" x1="212.5" y1="836.7" x2="236.6" y2="836.7"/>
		<line class="st25" x1="212.5" y1="844.7" x2="236.6" y2="844.7"/>
		<path class="st21" d="M249.6,860.9"/>
		<path class="st21" d="M205.6,860.9"/>
		<path class="st21" d="M249.6,871.2"/>
		<path class="st21" d="M205.6,871.2"/>
		<path class="st21" d="M249.6,883.2"/>
		<path class="st21" d="M205.6,883.2"/>
	</g>
	<text transform="matrix(1 0 0 1 111 870.9016)" class="st29 st30 st31">$</text>
	<text transform="matrix(1 0 0 1 152.976 885.2067)" class="st29 st30 st31">$</text>
	<text transform="matrix(1 0 0 1 204.6114 895.7913)" class="st29 st30 st31">$</text>
	<path class="st32" d="M84.1,732.5c-0.5,1.2-0.8,2.5-1,3.7c-0.5,0.1-0.9,0.2-1.4,0.3c-0.4,0.2-0.9,0.3-1.3,0.5
		c-0.8-0.9-1.8-1.8-2.8-2.6c-0.6,0.4-1.2,0.8-1.8,1.3c0.4,1.3,0.8,2.5,1.4,3.6c-0.3,0.3-0.6,0.7-0.9,1.1c-0.3,0.4-0.5,0.8-0.8,1.2
		c-1.2-0.2-2.5-0.4-3.8-0.4c-0.3,0.7-0.5,1.4-0.7,2.1c1,0.8,2.1,1.6,3.2,2.1c-0.1,0.5-0.1,1-0.1,1.4c0,0.5,0,1,0.1,1.4
		c-1.1,0.5-2.3,1.1-3.3,1.9c0.2,0.7,0.4,1.4,0.7,2.1c1.3,0.1,2.6,0,3.9-0.2c0.3,0.4,0.5,0.8,0.8,1.2c0.3,0.4,0.6,0.8,0.9,1.1
		c-0.6,1.1-1.1,2.2-1.6,3.5c0.5,0.5,1.1,0.9,1.7,1.3c1.1-0.7,2.1-1.5,3-2.4c0.4,0.2,0.9,0.4,1.3,0.5c0.5,0.1,0.9,0.3,1.4,0.3
		c0.1,1.2,0.4,2.5,0.8,3.7c0.7,0.1,1.4,0.1,2.2,0c0.5-1.2,0.8-2.5,1-3.7c0.5-0.1,0.9-0.2,1.4-0.3c0.4-0.2,0.9-0.3,1.3-0.5
		c0.8,0.9,1.8,1.8,2.8,2.6c0.6-0.4,1.2-0.8,1.8-1.3c-0.4-1.3-0.8-2.5-1.4-3.6c0.3-0.3,0.6-0.7,0.9-1.1c0.3-0.4,0.5-0.8,0.8-1.2
		c1.2,0.2,2.5,0.4,3.8,0.4c0.3-0.7,0.5-1.4,0.7-2.1c-1-0.8-2.1-1.6-3.2-2.1c0.1-0.5,0.1-1,0.1-1.4c0-0.5,0-1-0.1-1.4
		c1.1-0.5,2.3-1.1,3.3-1.9c-0.2-0.7-0.4-1.4-0.7-2.1c-1.3-0.1-2.6,0-3.9,0.2c-0.3-0.4-0.5-0.8-0.8-1.2c-0.3-0.4-0.6-0.8-0.9-1.1
		c0.6-1.1,1.1-2.2,1.6-3.5c-0.5-0.5-1.1-0.9-1.7-1.3c-1.1,0.7-2.1,1.5-3,2.4c-0.4-0.2-0.9-0.4-1.3-0.5c-0.5-0.1-0.9-0.3-1.4-0.3
		c-0.1-1.2-0.4-2.5-0.8-3.7C85.5,732.5,84.8,732.4,84.1,732.5z M87.1,740.6c1.3,0.4,2.6,1.3,3.4,2.5c0.8,1.1,1.3,2.5,1.3,4
		c0,1.4-0.4,2.8-1.3,4c-0.8,1.2-2,2-3.4,2.5c-1.3,0.4-2.8,0.4-4.2,0c-1.3-0.4-2.6-1.3-3.4-2.5c-0.8-1.1-1.3-2.5-1.3-4
		c0-1.4,0.4-2.8,1.3-4c0.8-1.2,2-2,3.4-2.5C84.3,740.1,85.8,740.1,87.1,740.6z"/>
	<g>
		<line class="st33" x1="224.5" y1="897.1" x2="224.5" y2="892.1"/>
		<line class="st33" x1="229" y1="897.1" x2="229" y2="889.3"/>
		<line class="st33" x1="233.7" y1="897.1" x2="233.7" y2="886.5"/>
	</g>
	<g>
		<line class="st33" x1="172.1" y1="886.6" x2="172.1" y2="881.6"/>
		<line class="st33" x1="176.6" y1="886.6" x2="176.6" y2="878.7"/>
		<line class="st33" x1="181.3" y1="886.6" x2="181.3" y2="876"/>
	</g>
	<g>
		<line class="st33" x1="131.1" y1="872.6" x2="131.1" y2="867.6"/>
		<line class="st33" x1="135.6" y1="872.6" x2="135.6" y2="864.7"/>
		<line class="st33" x1="140.3" y1="872.6" x2="140.3" y2="862"/>
	</g>
</g>
<g transform="translate(43 34)">
	<g class="st34">
		<path id="e_2_" class="st2" d="M699.8,398.5h245.5c5.9,0,10.8,5.3,10.8,11.8v441.1c0,6.5-4.8,11.8-10.8,11.8H699.8
			c-5.9,0-10.8-5.3-10.8-11.8V410.3C689,403.8,693.8,398.5,699.8,398.5z"/>
	</g>
	<g>
		<path id="e_1_" class="st3" d="M699.8,398.5h245.5c5.9,0,10.8,5.3,10.8,11.8v441.1c0,6.5-4.8,11.8-10.8,11.8H699.8
			c-5.9,0-10.8-5.3-10.8-11.8V410.3C689,403.8,693.8,398.5,699.8,398.5z"/>
	</g>
</g>
<path class="st35" d="M757,446.2h38c2.8,0,5,2.2,5,5v38c0,2.8-2.2,5-5,5h-38c-2.8,0-5-2.2-5-5v-38C752,448.5,754.2,446.2,757,446.2z
	"/>
<path class="st16" d="M752,516.2h230.8v0.9H752V516.2z"/>
<text transform="matrix(1 0 0 1 805.0012 465.2312)" class="st36"><tspan x="0" y="0" class="st9 st7 st17">Your eCommerce</tspan><tspan x="0" y="28.8" class="st9 st7 st17">Solution</tspan></text>
<g>
	<path class="st32" d="M783.1,471.2h-11.4l1.1,2.9h9.5v1.3h-10.4l-1.5-4.2h0l-3.8-10.5l-2.4-0.6l0.3-1.3l3.1,0.7l1.7,4.6l0,0
		l2.1,5.8h10.8l1.8-7.9l1.3,0.3L783.1,471.2z M776.8,468.6l-5-4.6l0.9-1l3.5,3.2v-8.6h1.3v8.6l3.4-3.2l0.9,1L776.8,468.6z
		 M772.4,476.3c-0.3,0.3-0.5,0.7-0.5,1.2c0,0.5,0.2,0.8,0.5,1.2c0.3,0.3,0.7,0.5,1.2,0.5c0.5,0,0.8-0.2,1.2-0.5
		c0.3-0.3,0.5-0.7,0.5-1.2c0-0.4-0.2-0.8-0.5-1.2c-0.3-0.3-0.7-0.5-1.2-0.5C773.1,475.9,772.7,476,772.4,476.3z M779.2,476.3
		c-0.3,0.3-0.5,0.7-0.5,1.2c0,0.5,0.2,0.8,0.5,1.2c0.3,0.3,0.7,0.5,1.2,0.5c0.5,0,0.8-0.2,1.1-0.5c0.3-0.3,0.5-0.7,0.5-1.2
		c0-0.4-0.2-0.8-0.5-1.2c-0.3-0.3-0.7-0.5-1.1-0.5C779.9,475.9,779.5,476,779.2,476.3z"/>
</g>
<rect x="788.6" y="622.4" class="st37" width="61.1" height="98.2"/>
<rect x="794.2" y="628.4" class="st38" width="11.9" height="21"/>
<line class="st39" x1="814.1" y1="633.4" x2="838.2" y2="633.4"/>
<line class="st39" x1="814.1" y1="641.4" x2="838.2" y2="641.4"/>
<line class="st39" x1="796.2" y1="657.6" x2="840.2" y2="657.6"/>
<line class="st39" x1="796.2" y1="667.9" x2="840.2" y2="667.9"/>
<line class="st39" x1="796.2" y1="679.9" x2="840.2" y2="679.9"/>
<rect x="838.2" y="635.4" class="st37" width="61.1" height="98.2"/>
<rect x="843.8" y="640.7" class="st38" width="11.9" height="21"/>
<line class="st39" x1="863.6" y1="645.7" x2="887.8" y2="645.7"/>
<line class="st39" x1="863.6" y1="653.7" x2="887.8" y2="653.7"/>
<line class="st39" x1="845.8" y1="669.9" x2="889.8" y2="669.9"/>
<line class="st39" x1="845.8" y1="680.2" x2="889.8" y2="680.2"/>
<line class="st39" x1="845.8" y1="692.2" x2="889.8" y2="692.2"/>
<rect x="887.8" y="645.9" class="st37" width="61.1" height="98.2"/>
<rect x="893.4" y="651.7" class="st38" width="11.9" height="21"/>
<line class="st39" x1="913.2" y1="656.7" x2="937.4" y2="656.7"/>
<line class="st39" x1="913.2" y1="664.7" x2="937.4" y2="664.7"/>
<line class="st39" x1="895.4" y1="680.9" x2="939.4" y2="680.9"/>
<line class="st39" x1="895.4" y1="691.2" x2="939.4" y2="691.2"/>
<line class="st39" x1="895.4" y1="703.2" x2="939.4" y2="703.2"/>
<text transform="matrix(1 0 0 1 794.9551 708.2913)" class="st40 st30 st31">$</text>
<text transform="matrix(1 0 0 1 845.787 724.1521)" class="st40 st30 st31">$</text>
<text transform="matrix(1 0 0 1 896.3599 735.2913)" class="st40 st30 st31">$</text>
<g>
	<g>
		<line class="st41" x1="812.9" y1="710.3" x2="812.9" y2="705.3"/>
		<line class="st41" x1="817.5" y1="710.3" x2="817.5" y2="702.4"/>
		<line class="st41" x1="822.2" y1="710.3" x2="822.2" y2="699.7"/>
	</g>
</g>
<g>
	<g>
		<line class="st41" x1="863.2" y1="725.6" x2="863.2" y2="720.6"/>
		<line class="st41" x1="867.7" y1="725.6" x2="867.7" y2="717.7"/>
		<line class="st41" x1="872.4" y1="725.6" x2="872.4" y2="715"/>
	</g>
</g>
<g>
	<g>
		<line class="st41" x1="914.2" y1="736.6" x2="914.2" y2="731.6"/>
		<line class="st41" x1="918.7" y1="736.6" x2="918.7" y2="728.7"/>
		<line class="st41" x1="923.4" y1="736.6" x2="923.4" y2="726"/>
	</g>
</g>
<path class="st12" d="M193.4,610h-10.8c-1.2,0-2.1-0.9-2.1-2c0-0.5,0.2-1,0.6-1.4l5.4-5c0.8-0.8,2.2-0.8,3,0l5.4,5
	c0.8,0.7,0.8,1.9,0.1,2.7c0,0-0.1,0.1-0.1,0.1C194.5,609.8,194,610,193.4,610L193.4,610z"/>
<circle class="st12" cx="188" cy="712.5" r="5.5"/>
<g>
	<path class="st12" d="M390.5,501.6v-10.8c0-1.2,0.9-2.1,2-2.1c0.5,0,1,0.2,1.4,0.6l5,5.4c0.8,0.8,0.8,2.2,0,3l-5,5.4
		c-0.7,0.8-1.9,0.8-2.7,0.1c0,0-0.1-0.1-0.1-0.1C390.7,502.7,390.5,502.2,390.5,501.6L390.5,501.6z"/>
	<path class="st11" d="M337.5,496.3h51"/>
	<circle class="st12" cx="338" cy="496.3" r="5.5"/>
</g>
<g>
	<path class="st12" d="M390.5,838.7v-10.8c0-1.2,0.9-2.1,2-2.1c0.5,0,1,0.2,1.4,0.6l5,5.4c0.8,0.8,0.8,2.2,0,3l-5,5.4
		c-0.7,0.8-1.9,0.8-2.7,0.1c0,0-0.1-0.1-0.1-0.1C390.7,839.8,390.5,839.2,390.5,838.7L390.5,838.7z"/>
	<path class="st11" d="M337.5,833.3h51"/>
	<circle class="st12" cx="338" cy="833.3" r="5.5"/>
</g>
<path class="st11" d="M188,713V610"/>
<text transform="matrix(1 0 0 1 198.0387 661.532)" class="st6 st7 st8">«Cold» ERP product information</text>
<text transform="matrix(1 0 0 1 408.1916 901.2697)" class="st6 st7 st8">«Hot» ERP product information (price, stock...)</text>
<text transform="matrix(1 0 0 1 451.0047 567.0874)" class="st36"><tspan x="0" y="0" class="st6 st7 st8">«Cold» PIM product information</tspan><tspan x="0" y="15.6" class="st6 st7 st8">+ Asset CDN URLs &amp; metadata</tspan></text>
<path class="st12" d="M155.1,381.7l10.8,0c1.2,0,2.1,0.9,2.1,2c0,0.5-0.2,1-0.6,1.4l-5.4,5c-0.8,0.8-2.2,0.8-3,0l-5.4-5
	c-0.8-0.7-0.8-1.9-0.1-2.7c0,0,0.1-0.1,0.1-0.1C154,381.9,154.6,381.7,155.1,381.7L155.1,381.7z"/>
<path class="st11" d="M160.3,238.7l0.5,143"/>
<path class="st11" d="M237.2,388.7L235.6,242"/>
<circle class="st12" cx="237.2" cy="388.2" r="5.5"/>
<text transform="matrix(1 0 0 1 62.0815 264.2189)" class="st36"><tspan x="0" y="0" class="st6 st7 st8">Asset CDN URLs</tspan><tspan x="24.8" y="15.6" class="st6 st7 st8">&amp; metadata</tspan></text>
<text transform="matrix(1 0 0 1 250.1113 264.9867)" class="st36"><tspan x="0" y="0" class="st6 st7 st8">Product </tspan><tspan x="0" y="15.6" class="st6 st7 st8">information</tspan></text>
<g>
	<g transform="translate(654 34)">
		<g class="st13">
			<path id="l_6_" class="st2" d="M-605-11.6h278c5,0,9,2.4,9,5.3v197.5c0,2.9-4,5.3-9,5.3h-278c-5,0-9-2.4-9-5.3V-6.3
				C-614-9.2-610-11.6-605-11.6z"/>
		</g>
		<g>
			<path id="l_3_" class="st3" d="M-605-11.6h278c5,0,9,2.4,9,5.3v197.5c0,2.9-4,5.3-9,5.3h-278c-5,0-9-2.4-9-5.3V-6.3
				C-614-9.2-610-11.6-605-11.6z"/>
		</g>
	</g>
	<path class="st16" d="M58,90.5H318v1H58V90.5z"/>
	<text transform="matrix(1 0 0 1 123 72.4614)" class="st6 st7 st8">The master of assets</text>
	<text transform="matrix(1 0 0 1 123 55.4614)" class="st9 st7 st17">DAM</text>
	<g transform="translate(63 54)">
		<path class="st35" d="M2.1-21.5h38c2.8,0,5,2.2,5,5v38c0,2.8-2.2,5-5,5h-38c-2.8,0-5-2.2-5-5v-38C-2.9-19.3-0.6-21.5,2.1-21.5z"/>
		<path class="st5" d="M12.1-5.5h16c0.6,0,1,0.4,1,1v16c0,0.6-0.4,1-1,1h-16c-0.6,0-1-0.4-1-1v-16C11.1-5,11.6-5.5,12.1-5.5z
			 M23.1,2.5c1.1,0,2-0.9,2-2s-0.9-2-2-2s-2,0.9-2,2S22,2.5,23.1,2.5z M11,6.3l5-3.6l4.4,4.4L24,4.5l5,2.7 M14.1-7.5h17.1V10"/>
	</g>
	<g transform="translate(709 336.604)">
		<g>
			<path id="q_4_" class="st42" d="M-589.4-230.6h54.6c5.4,0,9.7,4.4,9.7,9.7v54.6c0,5.4-4.4,9.7-9.7,9.7h-54.6
				c-5.4,0-9.7-4.4-9.7-9.7v-54.6C-599.2-226.2-594.8-230.6-589.4-230.6z"/>
		</g>
		<defs>
			<filter id="Adobe_OpacityMaskFilter" filterUnits="userSpaceOnUse" x="-599.2" y="-231.4" width="75.6" height="75.6">
				<feColorMatrix  type="matrix" values="1 0 0 0 0  0 1 0 0 0  0 0 1 0 0  0 0 0 1 0"/>
			</filter>
		</defs>
		<mask maskUnits="userSpaceOnUse" x="-599.2" y="-231.4" width="75.6" height="75.6" id="r_6_">
			<g class="st43">
				<path id="q_11_" class="st3" d="M-589.4-230.6h54.6c5.4,0,9.7,4.4,9.7,9.7v54.6c0,5.4-4.4,9.7-9.7,9.7h-54.6
					c-5.4,0-9.7-4.4-9.7-9.7v-54.6C-599.2-226.2-594.8-230.6-589.4-230.6z"/>
			</g>
		</mask>
		<g style="mask:url(#r_6_);enable-background:new    ;">
			
				<image style="overflow:visible;" width="150" height="150" xlink:href="3D6524B0A84CFEC8.jpg"  transform="matrix(0.5041 0 0 0.5041 -599.1547 -231.3566)">
			</image>
		</g>
	</g>
	<g transform="translate(709 336.604)">
		<g>
			<path id="q_6_" class="st42" d="M-559.9-219.9h54.6c5.4,0,9.7,4.4,9.7,9.7v54.6c0,5.4-4.4,9.7-9.7,9.7h-54.6
				c-5.4,0-9.7-4.4-9.7-9.7v-54.6C-569.6-215.5-565.2-219.9-559.9-219.9z"/>
		</g>
		<defs>
			<filter id="Adobe_OpacityMaskFilter_1_" filterUnits="userSpaceOnUse" x="-569.6" y="-220.6" width="75.6" height="75.6">
				<feColorMatrix  type="matrix" values="1 0 0 0 0  0 1 0 0 0  0 0 1 0 0  0 0 0 1 0"/>
			</filter>
		</defs>
		<mask maskUnits="userSpaceOnUse" x="-569.6" y="-220.6" width="75.6" height="75.6" id="r_5_">
			<g class="st44">
				<path id="q_9_" class="st3" d="M-559.9-219.9h54.6c5.4,0,9.7,4.4,9.7,9.7v54.6c0,5.4-4.4,9.7-9.7,9.7h-54.6
					c-5.4,0-9.7-4.4-9.7-9.7v-54.6C-569.6-215.5-565.2-219.9-559.9-219.9z"/>
			</g>
		</mask>
		<g style="mask:url(#r_5_);enable-background:new    ;">
			
				<image style="overflow:visible;" width="150" height="150" xlink:href="3D6524B0A84CFEC9.jpg"  transform="matrix(0.5041 0 0 0.5041 -569.6036 -220.6277)">
			</image>
		</g>
	</g>
	<g transform="translate(709 336.604)">
		<g>
			<path id="q_8_" class="st42" d="M-526.1-205.5h54.6c5.4,0,9.7,4.4,9.7,9.7v54.6c0,5.4-4.4,9.7-9.7,9.7h-54.6
				c-5.4,0-9.7-4.4-9.7-9.7v-54.6C-535.9-201.1-531.5-205.5-526.1-205.5z"/>
		</g>
		<defs>
			<filter id="Adobe_OpacityMaskFilter_2_" filterUnits="userSpaceOnUse" x="-535.9" y="-206.3" width="75.6" height="75.6">
				<feColorMatrix  type="matrix" values="1 0 0 0 0  0 1 0 0 0  0 0 1 0 0  0 0 0 1 0"/>
			</filter>
		</defs>
		<mask maskUnits="userSpaceOnUse" x="-535.9" y="-206.3" width="75.6" height="75.6" id="r_4_">
			<g class="st45">
				<path id="q_2_" class="st3" d="M-526.1-205.5h54.6c5.4,0,9.7,4.4,9.7,9.7v54.6c0,5.4-4.4,9.7-9.7,9.7h-54.6
					c-5.4,0-9.7-4.4-9.7-9.7v-54.6C-535.9-201.1-531.5-205.5-526.1-205.5z"/>
			</g>
		</mask>
		<g style="mask:url(#r_4_);enable-background:new    ;">
			
				<image style="overflow:visible;" width="150" height="150" xlink:href="3D6524B0A84CFECF.jpg"  transform="matrix(0.5041 0 0 0.5041 -535.8723 -206.2642)">
			</image>
		</g>
	</g>
</g>
<g transform="translate(654 34)">
	<g class="st13">
		<path id="l_6_" class="st2" d="M88.9-11.6h250.7c4.5,0,8.1,2.4,8.1,5.3v197.5c0,2.9-3.6,5.3-8.1,5.3H88.9c-4.5,0-8.1-2.4-8.1-5.3
			V-6.3C80.7-9.2,84.4-11.6,88.9-11.6z"/>
	</g>
	<g>
		<path id="l_4_" class="st3" d="M88.9-11.6h250.7c4.5,0,8.1,2.4,8.1,5.3v197.5c0,2.9-3.6,5.3-8.1,5.3H88.9c-4.5,0-8.1-2.4-8.1-5.3
			V-6.3C80.7-9.2,84.4-11.6,88.9-11.6z"/>
	</g>
</g>
<g>
	<path class="st46" d="M762.4,37.4h38c2.8,0,5,2.2,5,5v38c0,2.8-2.2,5-5,5h-38c-2.8,0-5-2.2-5-5v-38
		C757.4,39.6,759.7,37.4,762.4,37.4z"/>
	<path class="st5" d="M772.4,53.4h16c0.6,0,1,0.4,1,1v16c0,0.6-0.4,1-1,1h-16c-0.6,0-1-0.4-1-1v-16
		C771.4,53.8,771.9,53.4,772.4,53.4z M783.4,61.4c1.1,0,2-0.9,2-2c0-1.1-0.9-2-2-2c-1.1,0-2,0.9-2,2
		C781.4,60.5,782.3,61.4,783.4,61.4z M771.3,65.2l5-3.6l4.4,4.4l3.6-2.7l5,2.7 M774.4,51.4h17.1v17.5"/>
	<path class="st47" d="M792.5,81.7h25.8c0,0,4.4-0.1,4.4-4.3c0-4.2-4.2-4.4-4.2-4.4s0.2-4-3.2-5.3s-5,1.8-5,1.8s-0.2-4.8-5.1-4.8
		s-5,5.9-5,5.9s-1.6-1.8-3.8-0.6c-2.2,1.2-1.6,2.6-1.6,2.6s-6-0.2-6,4.8C788.9,81.7,792.5,81.7,792.5,81.7z"/>
	<line class="st48" x1="806" y1="76.8" x2="806" y2="89.2"/>
	<polygon class="st49" points="805.9,92.4 800.2,84.5 811.3,84.5 	"/>
</g>
<text transform="matrix(1 0 0 1 828.1409 58.3931)" class="st9 st7 st17">CDN</text>
<text transform="matrix(1 0 0 1 830.2053 76.7928)" class="st6 st7 st8">The frontend delivery system</text>
<path class="st50" d="M866.2,234.2l0.6,199.3"/>
<path class="st12" d="M724.5,131.9v-10.8c0-1.2,0.9-2.1,2-2.1c0.5,0,1,0.2,1.4,0.6l5,5.4c0.8,0.8,0.8,2.2,0,3l-5,5.4
	c-0.7,0.8-1.9,0.8-2.7,0.1c0,0-0.1-0.1-0.1-0.1C724.7,132.9,724.5,132.4,724.5,131.9L724.5,131.9z"/>
<path class="st11" d="M334.5,126.5h390"/>
<circle class="st12" cx="335" cy="126.5" r="5.5"/>
<path class="st16" d="M752,95.9h230.8v0.9H752V95.9z"/>
<text transform="matrix(1 0 0 1 504.4009 114.6779)" class="st6 st7 st8">Asset binaries</text>
<g transform="translate(709 336.604)">
	<g>
		<path id="q_12_" class="st42" d="M100-222.4h54.6c5.4,0,9.7,4.4,9.7,9.7v54.6c0,5.4-4.4,9.7-9.7,9.7H100c-5.4,0-9.7-4.4-9.7-9.7
			v-54.6C90.3-218,94.6-222.4,100-222.4z"/>
	</g>
	<defs>
		<filter id="Adobe_OpacityMaskFilter_3_" filterUnits="userSpaceOnUse" x="90.3" y="-223.1" width="75.6" height="75.6">
			<feColorMatrix  type="matrix" values="1 0 0 0 0  0 1 0 0 0  0 0 1 0 0  0 0 0 1 0"/>
		</filter>
	</defs>
	<mask maskUnits="userSpaceOnUse" x="90.3" y="-223.1" width="75.6" height="75.6" id="r_3_">
		<g class="st51">
			<path id="q_10_" class="st3" d="M100-222.4h54.6c5.4,0,9.7,4.4,9.7,9.7v54.6c0,5.4-4.4,9.7-9.7,9.7H100c-5.4,0-9.7-4.4-9.7-9.7
				v-54.6C90.3-218,94.6-222.4,100-222.4z"/>
		</g>
	</mask>
	<g style="mask:url(#r_3_);enable-background:new    ;">
		
			<image style="overflow:visible;" width="150" height="150" xlink:href="3D6524B0A84CFECA.jpg"  transform="matrix(0.5041 0 0 0.5041 90.2737 -223.1308)">
		</image>
	</g>
</g>
<g transform="translate(709 336.604)">
	<g>
		<path id="q_7_" class="st42" d="M129.6-211.6h54.6c5.4,0,9.7,4.4,9.7,9.7v54.6c0,5.4-4.4,9.7-9.7,9.7h-54.6
			c-5.4,0-9.7-4.4-9.7-9.7v-54.6C119.8-207.3,124.2-211.6,129.6-211.6z"/>
	</g>
	<defs>
		<filter id="Adobe_OpacityMaskFilter_4_" filterUnits="userSpaceOnUse" x="119.8" y="-212.4" width="75.6" height="75.6">
			<feColorMatrix  type="matrix" values="1 0 0 0 0  0 1 0 0 0  0 0 1 0 0  0 0 0 1 0"/>
		</filter>
	</defs>
	<mask maskUnits="userSpaceOnUse" x="119.8" y="-212.4" width="75.6" height="75.6" id="r_2_">
		<g class="st52">
			<path id="q_5_" class="st3" d="M129.6-211.6h54.6c5.4,0,9.7,4.4,9.7,9.7v54.6c0,5.4-4.4,9.7-9.7,9.7h-54.6
				c-5.4,0-9.7-4.4-9.7-9.7v-54.6C119.8-207.3,124.2-211.6,129.6-211.6z"/>
		</g>
	</mask>
	<g style="mask:url(#r_2_);enable-background:new    ;">
		
			<image style="overflow:visible;" width="150" height="150" xlink:href="3D6524B0A84CFECB.jpg"  transform="matrix(0.5041 0 0 0.5041 119.8248 -212.4019)">
		</image>
	</g>
</g>
<g transform="translate(709 336.604)">
	<g>
		<path id="q_3_" class="st42" d="M163.3-197.3h54.6c5.4,0,9.7,4.4,9.7,9.7v54.6c0,5.4-4.4,9.7-9.7,9.7h-54.6
			c-5.4,0-9.7-4.4-9.7-9.7v-54.6C153.6-192.9,157.9-197.3,163.3-197.3z"/>
	</g>
	<defs>
		<filter id="Adobe_OpacityMaskFilter_5_" filterUnits="userSpaceOnUse" x="153.6" y="-198" width="75.6" height="75.6">
			<feColorMatrix  type="matrix" values="1 0 0 0 0  0 1 0 0 0  0 0 1 0 0  0 0 0 1 0"/>
		</filter>
	</defs>
	<mask maskUnits="userSpaceOnUse" x="153.6" y="-198" width="75.6" height="75.6" id="r_1_">
		<g class="st53">
			<path id="q_1_" class="st3" d="M163.3-197.3h54.6c5.4,0,9.7,4.4,9.7,9.7v54.6c0,5.4-4.4,9.7-9.7,9.7h-54.6
				c-5.4,0-9.7-4.4-9.7-9.7v-54.6C153.6-192.9,157.9-197.3,163.3-197.3z"/>
		</g>
	</mask>
	<g style="mask:url(#r_1_);enable-background:new    ;">
		
			<image style="overflow:visible;" width="150" height="150" xlink:href="3D6524B0A84CFEC6.jpg"  transform="matrix(0.5041 0 0 0.5041 153.5561 -198.0384)">
		</image>
	</g>
</g>
<circle class="st12" cx="160.3" cy="233.2" r="5.5"/>
<path class="st12" d="M242,242.7l-10.8,0.1c-1.2,0-2.1-0.9-2.1-2c0-0.5,0.2-1,0.6-1.4l5.3-5.1c0.8-0.8,2.2-0.8,3,0l5.4,5
	c0.8,0.7,0.9,1.9,0.2,2.7c0,0-0.1,0.1-0.1,0.1C243.1,242.4,242.6,242.7,242,242.7L242,242.7z"/>
<g transform="translate(347 219)">
	<g class="st1">
		<path id="j_6_" class="st2" d="M-259.3,81.2h211.5c2.6,0,4.7,1.6,4.7,3.5v46.1c0,2-2.1,3.5-4.7,3.5h-211.5c-2.6,0-4.7-1.6-4.7-3.5
			V84.7C-264,82.8-261.9,81.2-259.3,81.2z"/>
	</g>
	<g>
		<path id="j_3_" class="st3" d="M-259.3,81.2h211.5c2.6,0,4.7,1.6,4.7,3.5v46.1c0,2-2.1,3.5-4.7,3.5h-211.5c-2.6,0-4.7-1.6-4.7-3.5
			V84.7C-264,82.8-261.9,81.2-259.3,81.2z"/>
	</g>
</g>
<path class="st35" d="M96,306.7h28c2.8,0,5,2.2,5,5v28c0,2.8-2.2,5-5,5H96c-2.8,0-5-2.2-5-5v-28C91,309,93.3,306.7,96,306.7z"/>
<path class="st5" d="M106.8,319.4c-2.3,1.3-3.9,3.6-3.9,6.3c0,2.7,1.6,5.1,4,6.4 M108.5,331.7l2.4,2v-4L108.5,331.7L108.5,331.7z
	 M112.5,319.4c2.3,1.3,3.9,3.6,3.9,6.3c0,2.7-1.6,5.1-4,6.4 M110.8,319.8l-2.4,2v-4L110.8,319.8z"/>
<text transform="matrix(1 0 0 1 144.0394 332.7189)" class="st9 st7 st10">DAM/PIM connector</text>
</svg>
