<?xml version="1.0" encoding="utf-8"?>
<svg viewBox="0 0 1028 606.5" style="enable-background:new 0 0 1028 606.5;" xmlns="http://www.w3.org/2000/svg">
 <defs>
  <style type="text/css">
	.st0{fill-rule:evenodd;clip-rule:evenodd;fill:#F5F9F8;}
	.st1{filter:url(#i);}
	.st2{fill-rule:evenodd;clip-rule:evenodd;}
	.st3{fill-rule:evenodd;clip-rule:evenodd;fill:#FFFFFF;}
	.st4{fill-rule:evenodd;clip-rule:evenodd;fill:#5D63AA;}
	.st5{fill:none;stroke:#FFFFFF;stroke-linecap:round;stroke-linejoin:round;}
	.st6{fill:#8F92C7;}
	.st7{font-family:'Lato-Italic';}
	.st8{font-size:13px;}
	.st9{fill:#3A438B;}
	.st10{font-size:17px;}
	.st11{fill:none;stroke:#8F92C7;stroke-width:2;stroke-linecap:round;stroke-linejoin:round;stroke-dasharray:2,6;}
	.st12{fill-rule:evenodd;clip-rule:evenodd;fill:#8F92C7;}
	.st13{filter:url(#k);}
	.st14{fill-rule:evenodd;clip-rule:evenodd;fill:#82549D;}
	.st15{fill-rule:evenodd;clip-rule:evenodd;fill:#F9F9FB;}
	.st16{fill-rule:evenodd;clip-rule:evenodd;fill:#E0F1FC;}
	.st17{font-size:24px;}
	.st18{fill-rule:evenodd;clip-rule:evenodd;fill:#FFFFFF;stroke:#B9A7C9;stroke-miterlimit:10;}
	.st19{fill-rule:evenodd;clip-rule:evenodd;fill:#B9A7C9;stroke:#FFFFFF;stroke-miterlimit:10;}
	.st20{fill:#FFFFFF;stroke:#B9A7C9;stroke-miterlimit:10;}
	.st21{fill:none;stroke:#B9A7C9;stroke-miterlimit:10;}
	.st22{fill-rule:evenodd;clip-rule:evenodd;fill:#DD5B03;}
	.st23{fill-rule:evenodd;clip-rule:evenodd;fill:#E5A300;}
	.st24{fill-rule:evenodd;clip-rule:evenodd;fill:#FFFFFF;stroke:#F7CD6F;stroke-miterlimit:10;}
	.st25{fill:#FFFFFF;stroke:#F7CD6F;stroke-miterlimit:10;}
	.st26{fill:none;stroke:#F7CD6F;stroke-miterlimit:10;}
	.st27{fill:none;stroke:#E5A300;stroke-miterlimit:10;}
	.st28{fill-rule:evenodd;clip-rule:evenodd;fill:#F7CD6F;stroke:#FFFFFF;stroke-miterlimit:10;}
	.st29{fill:#E5A300;}
	.st30{font-family:'MyriadPro-Regular';}
	.st31{font-size:20px;}
	.st32{fill:#FFFFFF;}
	.st33{fill:none;stroke:#E5A300;stroke-width:3;stroke-miterlimit:10;}
	.st34{filter:url(#d);}
	.st35{fill-rule:evenodd;clip-rule:evenodd;fill:#4EA7DD;}
	.st36{enable-background:new    ;}
	.st37{fill-rule:evenodd;clip-rule:evenodd;fill:#FFFFFF;stroke:#B1D9E8;stroke-miterlimit:10;}
	.st38{fill-rule:evenodd;clip-rule:evenodd;fill:#B1D9E8;}
	.st39{fill:none;stroke:#B1D9E8;stroke-miterlimit:10;}
	.st40{fill:#4EA7DD;}
	.st41{fill:none;stroke:#4EA7DD;stroke-width:3;stroke-miterlimit:10;}
</style>
 </defs>
 <filter filterUnits="objectBoundingBox" height="177.3%" id="i" width="124.5%" x="-11.4%" y="-33.3%">
  <feOffset dx="2" dy="4" in="SourceAlpha" result="shadowOffsetOuter1"/>
  <feGaussianBlur in="shadowOffsetOuter1" result="shadowBlurOuter1" stdDeviation="9"/>
  <feColorMatrix in="shadowBlurOuter1" values="0 0 0 0 0.0352941176 0 0 0 0 0.117647059 0 0 0 0 0.258823529 0 0 0 0.14 0"/>
 </filter>
 <filter filterUnits="objectBoundingBox" height="114.7%" id="k" width="117.7%" x="-8.2%" y="-6.3%">
  <feOffset dx="2" dy="4" in="SourceAlpha" result="shadowOffsetOuter1"/>
  <feGaussianBlur in="shadowOffsetOuter1" result="shadowBlurOuter1" stdDeviation="9"/>
  <feColorMatrix in="shadowBlurOuter1" values="0 0 0 0 0.0352941176 0 0 0 0 0.117647059 0 0 0 0 0.258823529 0 0 0 0.14 0"/>
 </filter>
 <filter filterUnits="objectBoundingBox" height="114.7%" id="d" width="123.4%" x="-10.9%" y="-6.3%">
  <feOffset dx="2" dy="4" in="SourceAlpha" result="shadowOffsetOuter1"/>
  <feGaussianBlur in="shadowOffsetOuter1" result="shadowBlurOuter1" stdDeviation="9"/>
  <feColorMatrix in="shadowBlurOuter1" values="0 0 0 0 0.0352941176 0 0 0 0 0.117647059 0 0 0 0 0.258823529 0 0 0 0.14 0"/>
 </filter>
 <path class="st0" d="M0,0h1028v606.5H0V0z"/>
 <g>
  <g transform="translate(347 219)">
   <g class="st1">
    <path id="j_3_" class="st2" d="M59.4-119.6h246.2c3,0,5.4,2.2,5.4,5v65c0,2.8-2.4,5-5.4,5H59.4c-3,0-5.4-2.2-5.4-5v-65 C54-117.3,56.4-119.6,59.4-119.6z"/>
   </g>
   <g>
    <path id="j_1_" class="st3" d="M59.4-119.6h246.2c3,0,5.4,2.2,5.4,5v65c0,2.8-2.4,5-5.4,5H59.4c-3,0-5.4-2.2-5.4-5v-65 C54-117.3,56.4-119.6,59.4-119.6z"/>
   </g>
  </g>
  <g transform="translate(357 229)">
   <path class="st4" d="M57-119.6h28c2.8,0,5,2.2,5,5v28c0,2.8-2.2,5-5,5H57c-2.8,0-5-2.2-5-5v-28C52-117.3,54.2-119.6,57-119.6z"/>
   <path class="st5" d="M67.7-106.9c-2.3,1.3-3.9,3.6-3.9,6.3c0,2.7,1.6,5.1,4,6.4 M69.4-94.6l2.4,2v-4L69.4-94.6L69.4-94.6z M73.5-106.9c2.3,1.3,3.9,3.6,3.9,6.3c0,2.7-1.6,5.1-4,6.4 M71.8-106.5l-2.4,2v-4L71.8-106.5z"/>
  </g>
  <text transform="matrix(1 0 0 1 462 142.4292)" class="st6 st7 st8" style="white-space: pre;">The piece of software you are </text>
  <text transform="matrix(1 0 0 1 462 158.4292)" class="st6 st7 st8" style="white-space: pre;">going to write</text>
  <text transform="matrix(1 0 0 1 462 125.4292)" class="st9 st7 st10" style="white-space: pre;">PIM/syndication App</text>
 </g>
 <g>
  <path class="st11" d="M662,136.9h65"/>
  <circle class="st12" cx="662.5" cy="136.9" r="5.5"/>
  <path class="st12" d="M723,142.3v-10.8c0-1.2,0.9-2.1,2-2.1c0.5,0,1,0.2,1.4,0.6l5,5.4c0.8,0.8,0.8,2.2,0,3l-5,5.4 c-0.7,0.8-1.9,0.8-2.7,0.1c0,0-0.1-0.1-0.1-0.1C723.2,143.4,723,142.9,723,142.3L723,142.3z"/>
 </g>
 <g>
  <g transform="translate(654 34)">
   <g class="st13">
    <path id="l_3_" class="st2" d="M-605-3.6h278c5,0,9,2.4,9,5.3v197.5c0,2.9-4,5.3-9,5.3h-278c-5,0-9-2.4-9-5.3V1.7 C-614-1.2-610-3.6-605-3.6z"/>
   </g>
   <g>
    <path id="l_1_" class="st3" d="M-605-3.6h278c5,0,9,2.4,9,5.3v197.5c0,2.9-4,5.3-9,5.3h-278c-5,0-9-2.4-9-5.3V1.7 C-614-1.2-610-3.6-605-3.6z"/>
   </g>
  </g>
  <g transform="translate(674 54)">
   <path class="st14" d="M-609-16.6h38c2.8,0,5,2.2,5,5v38c0,2.8-2.2,5-5,5h-38c-2.8,0-5-2.2-5-5v-38C-614-14.3-611.8-16.6-609-16.6z "/>
   <path class="st15" d="M-579.3,6.7c0-0.1,0-0.1,0-0.2c0-0.1,0.1-0.2,0.1-0.3c0.2-1.1-0.2-2.3-1-3.7c-0.1-0.1-0.2-0.2-0.2-0.4 c-0.1-0.2-0.3-0.4-0.4-0.6c0,0,0,0-0.1-0.1c0-0.1-0.1-0.1-0.1-0.2c0-0.1-0.1-0.1-0.1-0.2c0-0.1-0.1-0.1-0.1-0.2 c-0.1-0.1-0.1-0.1-0.1-0.2c0,0-0.1-0.1-0.1-0.1c-1.3-1.6-2.9-3.1-4.6-4.4c0.2,2.2,0.1,4.4-0.1,6.1c-0.3,2.1-1.2,4.5-2.3,6.7 c-2.5-0.3-4.9-0.9-6.9-1.8c-1.6-0.8-3.4-1.9-5.2-3.3l0.1,0.5c0,0.1,0,0.1,0,0.2c0,0.1,0,0.3,0,0.4c0,0.1,0,0.1,0,0.2 c0,0.1,0,0.3,0.1,0.4c0,0.1,0,0.1,0,0.2c0,0.2,0,0.3,0.1,0.5c0,0.2,0.1,0.4,0.1,0.6c0,0.2,0.1,0.4,0.1,0.5c0,0,0,0.1,0,0.1 c0,0.2,0.1,0.3,0.1,0.5c0,0,0,0.1,0,0.1c0.1,0.7,0.3,1.4,0.5,2.1c0.3,0.9,0.6,1.7,0.9,2.3c0.1,0.1,0.1,0.2,0.2,0.3 c0.1,0.1,0.1,0.2,0.1,0.3c0.1,0.1,0.1,0.2,0.2,0.3c0.1,0.1,0.2,0.2,0.2,0.4c0,0.1,0,0.1,0.1,0.1c0.1,0.1,0.2,0.2,0.3,0.3 c0.1,0.1,0.1,0.1,0.2,0.2l0.1,0.1c0,0,0.1,0.1,0.1,0.1l0.1,0.1c0,0,0.1,0.1,0.1,0.1c0,0,0.1,0.1,0.1,0.1c0,0,0.1,0.1,0.1,0.1 c0,0,0.1,0,0.1,0.1c0,0,0.1,0.1,0.1,0.1c0,0,0.1,0,0.1,0.1c0.1,0,0.1,0.1,0.2,0.1c0,0,0.1,0,0.1,0c0.1,0,0.2,0.1,0.2,0.1 c0.1,0,0.1,0,0.1,0.1c3.9,1.1,7.8-0.3,12.4,3.2C-583.9,12.9-580.5,10.6-579.3,6.7L-579.3,6.7z"/>
  </g>
  <path class="st16" d="M58,98.4H318v1H58V98.4z"/>
  <text transform="matrix(1 0 0 1 123 80.4292)" class="st6 st7 st8" style="white-space: pre;">Your «Cold» product information</text>
  <text transform="matrix(1 0 0 1 123 63.4292)" class="st9 st7 st17" style="white-space: pre;">Akeneo PIM</text>
  <g>
   <rect x="106.4" y="116.2" class="st18" width="61.1" height="80.4"/>
   <rect x="112" y="122.2" class="st19" width="11.9" height="21"/>
   <line class="st20" x1="131.9" y1="127.2" x2="156" y2="127.2"/>
   <line class="st20" x1="131.9" y1="135.2" x2="156" y2="135.2"/>
   <line class="st21" x1="114" y1="151.4" x2="158" y2="151.4"/>
   <line class="st21" x1="114" y1="161.7" x2="158" y2="161.7"/>
   <line class="st21" x1="114" y1="173.7" x2="158" y2="173.7"/>
  </g>
  <g>
   <rect x="148.4" y="129.5" class="st18" width="61.1" height="80.4"/>
   <rect x="154" y="135.5" class="st19" width="11.9" height="21"/>
   <line class="st20" x1="173.9" y1="140.5" x2="198" y2="140.5"/>
   <line class="st20" x1="173.9" y1="148.5" x2="198" y2="148.5"/>
   <line class="st21" x1="156" y1="164.7" x2="200" y2="164.7"/>
   <line class="st21" x1="156" y1="175" x2="200" y2="175"/>
   <line class="st21" x1="156" y1="187" x2="200" y2="187"/>
  </g>
  <g>
   <rect x="200" y="138.8" class="st18" width="61.1" height="80.4"/>
   <rect x="205.6" y="144.8" class="st19" width="11.9" height="21"/>
   <line class="st20" x1="225.4" y1="149.8" x2="249.6" y2="149.8"/>
   <line class="st20" x1="225.4" y1="157.8" x2="249.6" y2="157.8"/>
   <line class="st21" x1="207.6" y1="174" x2="251.6" y2="174"/>
   <line class="st21" x1="207.6" y1="184.3" x2="251.6" y2="184.3"/>
   <line class="st21" x1="207.6" y1="196.3" x2="251.6" y2="196.3"/>
  </g>
 </g>
 <g>
  <g transform="translate(347 219)">
   <g class="st1">
    <path id="j_3_" class="st2" d="M58.5,217.5h246.2c3,0,5.4,2.2,5.4,5v65c0,2.8-2.4,5-5.4,5H58.5c-3,0-5.4-2.2-5.4-5v-65 C53,219.7,55.5,217.5,58.5,217.5z"/>
   </g>
   <g>
    <path id="j_2_" class="st3" d="M58.5,217.5h246.2c3,0,5.4,2.2,5.4,5v65c0,2.8-2.4,5-5.4,5H58.5c-3,0-5.4-2.2-5.4-5v-65 C53,219.7,55.5,217.5,58.5,217.5z"/>
   </g>
  </g>
  <path class="st22" d="M414,446.5h28c2.8,0,5,2.2,5,5v28c0,2.8-2.2,5-5,5h-28c-2.8,0-5-2.2-5-5v-28C409,448.7,411.3,446.5,414,446.5 z"/>
  <path class="st5" d="M424.8,459.1c-2.3,1.3-3.9,3.6-3.9,6.3c0,2.7,1.6,5.1,4,6.4 M426.5,471.4l2.4,2v-4L426.5,471.4L426.5,471.4z M430.5,459.1c2.3,1.3,3.9,3.6,3.9,6.3c0,2.7-1.6,5.1-4,6.4 M428.8,459.5l-2.4,2v-4L428.8,459.5z"/>
  <text transform="matrix(1 0 0 1 462.0385 479.4581)" class="st6 st7 st8" style="white-space: pre;">The piece of software Filip will</text>
  <text transform="matrix(1 0 0 1 462.0385 495.4581)" class="st6 st7 st8" style="white-space: pre;">have to write</text>
  <text transform="matrix(1 0 0 1 462.0385 462.4581)" class="st9 st7 st10" style="white-space: pre;">ERP/syndication App</text>
 </g>
 <g>
  <path class="st11" d="M662,474h65"/>
  <circle class="st12" cx="662.5" cy="474" r="5.5"/>
  <path class="st12" d="M723,479.3v-10.8c0-1.2,0.9-2.1,2-2.1c0.5,0,1,0.2,1.4,0.6l5,5.4c0.8,0.8,0.8,2.2,0,3l-5,5.4 c-0.7,0.8-1.9,0.8-2.7,0.1c0,0-0.1-0.1-0.1-0.1C723.2,480.4,723,479.9,723,479.3L723,479.3z"/>
 </g>
 <g>
  <g transform="translate(654 34)">
   <g class="st13">
    <path id="l_3_" class="st2" d="M-604.9,323.4h278c5,0,9,2.4,9,5.3v197.5c0,2.9-4,5.3-9,5.3h-278c-5,0-9-2.4-9-5.3V328.7 C-614,325.8-609.9,323.4-604.9,323.4z"/>
   </g>
   <g>
    <path id="l_2_" class="st3" d="M-604.9,323.4h278c5,0,9,2.4,9,5.3v197.5c0,2.9-4,5.3-9,5.3h-278c-5,0-9-2.4-9-5.3V328.7 C-614,325.8-609.9,323.4-604.9,323.4z"/>
   </g>
  </g>
  <path class="st23" d="M65,364.5h38c2.8,0,5,2.2,5,5v38c0,2.8-2.2,5-5,5H65c-2.8,0-5-2.2-5-5v-38C60,366.7,62.3,364.5,65,364.5z"/>
  <path class="st16" d="M58.1,425.5H318v1H58.1V425.5z"/>
  <text transform="matrix(1 0 0 1 123.0385 407.4581)" class="st6 st7 st8" style="white-space: pre;">Your ERP product information</text>
  <text transform="matrix(1 0 0 1 123.0385 390.4581)" class="st9 st7 st17" style="white-space: pre;">ERP</text>
  <g>
   <rect x="104.5" y="443.3" class="st24" width="61.1" height="80.4"/>
   <line class="st25" x1="118.9" y1="454.3" x2="143" y2="454.3"/>
   <line class="st25" x1="118.9" y1="462.3" x2="143" y2="462.3"/>
   <path class="st26" d="M156,478.5"/>
   <path class="st26" d="M112,478.5"/>
   <path class="st27" d="M156,488.8"/>
   <path class="st27" d="M112,488.8"/>
   <path class="st27" d="M156,500.8"/>
   <path class="st27" d="M112,500.8"/>
  </g>
  <g>
   <rect x="146.5" y="456.6" class="st24" width="61.1" height="80.4"/>
   <line class="st25" x1="160.9" y1="467.6" x2="185" y2="467.6"/>
   <line class="st25" x1="160.9" y1="475.6" x2="185" y2="475.6"/>
   <path class="st21" d="M198,491.8"/>
   <path class="st21" d="M198,502.1"/>
   <path class="st21" d="M198,514.1"/>
   <path class="st21" d="M154,514.1"/>
  </g>
  <g>
   <rect x="198" y="465.9" class="st24" width="61.1" height="80.4"/>
   <path class="st28" d="M215.5,471.9"/>
   <path class="st28" d="M203.6,492.9"/>
   <line class="st25" x1="212.5" y1="476.9" x2="236.6" y2="476.9"/>
   <line class="st25" x1="212.5" y1="484.9" x2="236.6" y2="484.9"/>
   <path class="st21" d="M249.6,501.1"/>
   <path class="st21" d="M205.6,501.1"/>
   <path class="st21" d="M249.6,511.4"/>
   <path class="st21" d="M205.6,511.4"/>
   <path class="st21" d="M249.6,523.4"/>
   <path class="st21" d="M205.6,523.4"/>
  </g>
  <text transform="matrix(1 0 0 1 111 511.0684)" class="st29 st30 st31" style="white-space: pre;">$</text>
  <text transform="matrix(1 0 0 1 152.976 525.3734)" class="st29 st30 st31" style="white-space: pre;">$</text>
  <text transform="matrix(1 0 0 1 204.6114 535.9581)" class="st29 st30 st31" style="white-space: pre;">$</text>
  <path class="st32" d="M84.1,372.7c-0.5,1.2-0.8,2.5-1,3.7c-0.5,0.1-0.9,0.2-1.4,0.3c-0.4,0.2-0.9,0.3-1.3,0.5 c-0.8-0.9-1.8-1.8-2.8-2.6c-0.6,0.4-1.2,0.8-1.8,1.3c0.4,1.3,0.8,2.5,1.4,3.6c-0.3,0.3-0.6,0.7-0.9,1.1c-0.3,0.4-0.5,0.8-0.8,1.2 c-1.2-0.2-2.5-0.4-3.8-0.4c-0.3,0.7-0.5,1.4-0.7,2.1c1,0.8,2.1,1.6,3.2,2.1c-0.1,0.5-0.1,1-0.1,1.4c0,0.5,0,1,0.1,1.4 c-1.1,0.5-2.3,1.1-3.3,1.9c0.2,0.7,0.4,1.4,0.7,2.1c1.3,0.1,2.6,0,3.9-0.2c0.3,0.4,0.5,0.8,0.8,1.2c0.3,0.4,0.6,0.8,0.9,1.1 c-0.6,1.1-1.1,2.2-1.6,3.5c0.5,0.5,1.1,0.9,1.7,1.3c1.1-0.7,2.1-1.5,3-2.4c0.4,0.2,0.9,0.4,1.3,0.5c0.5,0.1,0.9,0.3,1.4,0.3 c0.1,1.2,0.4,2.5,0.8,3.7c0.7,0.1,1.4,0.1,2.2,0c0.5-1.2,0.8-2.5,1-3.7c0.5-0.1,0.9-0.2,1.4-0.3c0.4-0.2,0.9-0.3,1.3-0.5 c0.8,0.9,1.8,1.8,2.8,2.6c0.6-0.4,1.2-0.8,1.8-1.3c-0.4-1.3-0.8-2.5-1.4-3.6c0.3-0.3,0.6-0.7,0.9-1.1c0.3-0.4,0.5-0.8,0.8-1.2 c1.2,0.2,2.5,0.4,3.8,0.4c0.3-0.7,0.5-1.4,0.7-2.1c-1-0.8-2.1-1.6-3.2-2.1c0.1-0.5,0.1-1,0.1-1.4c0-0.5,0-1-0.1-1.4 c1.1-0.5,2.3-1.1,3.3-1.9c-0.2-0.7-0.4-1.4-0.7-2.1c-1.3-0.1-2.6,0-3.9,0.2c-0.3-0.4-0.5-0.8-0.8-1.2c-0.3-0.4-0.6-0.8-0.9-1.1 c0.6-1.1,1.1-2.2,1.6-3.5c-0.5-0.5-1.1-0.9-1.7-1.3c-1.1,0.7-2.1,1.5-3,2.4c-0.4-0.2-0.9-0.4-1.3-0.5c-0.5-0.1-0.9-0.3-1.4-0.3 c-0.1-1.2-0.4-2.5-0.8-3.7C85.5,372.6,84.8,372.6,84.1,372.7z M87.1,380.7c1.3,0.4,2.6,1.3,3.4,2.5c0.8,1.1,1.3,2.5,1.3,4 c0,1.4-0.4,2.8-1.3,4c-0.8,1.2-2,2-3.4,2.5c-1.3,0.4-2.8,0.4-4.2,0c-1.3-0.4-2.6-1.3-3.4-2.5c-0.8-1.1-1.3-2.5-1.3-4 c0-1.4,0.4-2.8,1.3-4c0.8-1.2,2-2,3.4-2.5C84.3,380.3,85.8,380.3,87.1,380.7z"/>
  <g>
   <line class="st33" x1="224.5" y1="537.3" x2="224.5" y2="532.3"/>
   <line class="st33" x1="229" y1="537.3" x2="229" y2="529.4"/>
   <line class="st33" x1="233.7" y1="537.3" x2="233.7" y2="526.7"/>
  </g>
  <g>
   <line class="st33" x1="172.1" y1="526.8" x2="172.1" y2="521.8"/>
   <line class="st33" x1="176.6" y1="526.8" x2="176.6" y2="518.9"/>
   <line class="st33" x1="181.3" y1="526.8" x2="181.3" y2="516.2"/>
  </g>
  <g>
   <line class="st33" x1="131.1" y1="512.8" x2="131.1" y2="507.8"/>
   <line class="st33" x1="135.6" y1="512.8" x2="135.6" y2="504.9"/>
   <line class="st33" x1="140.3" y1="512.8" x2="140.3" y2="502.2"/>
  </g>
 </g>
 <path class="st12" d="M193.4,250.2h-10.8c-1.2,0-2.1-0.9-2.1-2c0-0.5,0.2-1,0.6-1.4l5.4-5c0.8-0.8,2.2-0.8,3,0l5.4,5 c0.8,0.7,0.8,1.9,0.1,2.7c0,0-0.1,0.1-0.1,0.1C194.5,250,194,250.2,193.4,250.2L193.4,250.2z"/>
 <circle class="st12" cx="188" cy="352.7" r="5.5"/>
 <g>
  <path class="st12" d="M390.5,141.8V131c0-1.2,0.9-2.1,2-2.1c0.5,0,1,0.2,1.4,0.6l5,5.4c0.8,0.8,0.8,2.2,0,3l-5,5.4 c-0.7,0.8-1.9,0.8-2.7,0.1c0,0-0.1-0.1-0.1-0.1C390.7,142.9,390.5,142.4,390.5,141.8L390.5,141.8z"/>
  <path class="st11" d="M337.5,136.4h51"/>
  <circle class="st12" cx="338" cy="136.4" r="5.5"/>
 </g>
 <g>
  <path class="st12" d="M390.5,478.8v-10.8c0-1.2,0.9-2.1,2-2.1c0.5,0,1,0.2,1.4,0.6l5,5.4c0.8,0.8,0.8,2.2,0,3l-5,5.4 c-0.7,0.8-1.9,0.8-2.7,0.1c0,0-0.1-0.1-0.1-0.1C390.7,479.9,390.5,479.4,390.5,478.8L390.5,478.8z"/>
  <path class="st11" d="M337.5,473.5h51"/>
  <circle class="st12" cx="338" cy="473.5" r="5.5"/>
 </g>
 <path class="st11" d="M188,353.2v-103"/>
 <text transform="matrix(1, 0, 0, 1, 198.038696, 301.6987)" class="st6 st7 st8" style="white-space: pre;">«Cold» ERP product information</text>
 <text transform="matrix(1, 0, 0, 1, 408.191589, 541.436401)" class="st6 st7 st8" style="white-space: pre;">«Hot» ERP product information (price, stock...)</text>
 <text transform="matrix(1, 0, 0, 1, 451.0047, 207.254105)" class="st36" style="white-space: pre;"><tspan x="0" y="0" class="st6 st7 st8">«Cold» PIM product information</tspan><tspan x="0" y="15.6" class="st6 st7 st8">+ Asset media</tspan></text>
 <g transform="matrix(1, 0, 0, 1.139247, 45.510773, -13.36785)" style="">
  <g class="st34">
   <path id="e_2_" class="st2" d="M699.8,38.7h245.5c5.9,0,10.8,5.3,10.8,11.8v441.1c0,6.5-4.8,11.8-10.8,11.8H699.8 c-5.9,0-10.8-5.3-10.8-11.8V50.5C689,44,693.8,38.7,699.8,38.7z"/>
  </g>
  <g>
   <path id="e_1_" class="st3" d="M699.8,38.7h245.5c5.9,0,10.8,5.3,10.8,11.8v441.1c0,6.5-4.8,11.8-10.8,11.8H699.8 c-5.9,0-10.8-5.3-10.8-11.8V50.5C689,44,693.8,38.7,699.8,38.7z"/>
  </g>
 </g>
 <text class="st36" style="white-space: pre;" x="813.512" y="73.749" transform="matrix(1, 0, 0, 0.937366, 0, 1.924179)"><tspan x="813.512" y="73.749" class="st9 st7 st17" style="font-size: 24px; word-spacing: 0px;">Your syndication</tspan><tspan x="813.512" y="102.549" class="st9 st7 st17" style="font-size: 24px; word-spacing: 0px;">solution</tspan></text>
 <path class="st35" d="M 759.515 52.409 L 797.515 52.409 C 800.315 52.409 802.515 54.471 802.515 57.095 L 802.515 92.716 C 802.515 95.34 800.315 97.402 797.515 97.402 L 759.515 97.402 C 756.715 97.402 754.515 95.34 754.515 92.716 L 754.515 57.095 C 754.515 54.565 756.715 52.409 759.515 52.409 Z" style="fill: rgb(255, 103, 255);"/>
 <path d="M 793.805 73.431 C 793.086 73.431 792.476 73.812 792.255 74.383 L 785.497 74.383 L 785.497 69.904 L 784.057 68.666 L 790.316 63.281 C 790.537 63.377 790.76 63.425 791.036 63.425 C 791.978 63.425 792.698 62.805 792.698 61.996 C 792.698 61.185 791.978 60.566 791.036 60.566 C 790.095 60.566 789.375 61.185 789.375 61.996 C 789.375 62.234 789.43 62.424 789.54 62.615 L 783.281 67.999 L 781.842 66.76 L 778.85 66.76 L 778.85 63.329 C 779.515 63.139 779.957 62.615 779.957 61.996 C 779.957 61.185 779.238 60.566 778.296 60.566 C 777.354 60.566 776.635 61.185 776.635 61.996 C 776.635 62.615 777.077 63.139 777.742 63.329 L 777.742 66.76 L 771.871 66.76 L 767.052 62.615 C 767.162 62.424 767.218 62.234 767.218 61.996 C 767.218 61.185 766.498 60.566 765.556 60.566 C 764.615 60.566 763.894 61.185 763.894 61.996 C 763.894 62.805 764.615 63.425 765.556 63.425 C 765.833 63.425 766.055 63.377 766.276 63.281 L 771.095 67.428 L 771.095 74.383 L 764.891 74.383 C 764.67 73.812 764.061 73.431 763.341 73.431 C 762.399 73.431 761.679 74.05 761.679 74.86 C 761.679 75.671 762.399 76.289 763.341 76.289 C 764.061 76.289 764.67 75.909 764.891 75.336 L 771.095 75.336 L 771.095 82.293 L 766.276 86.439 C 766.055 86.344 765.833 86.296 765.556 86.296 C 764.615 86.296 763.894 86.915 763.894 87.725 C 763.894 88.535 764.615 89.155 765.556 89.155 C 766.498 89.155 767.218 88.535 767.218 87.725 C 767.218 87.487 767.162 87.297 767.052 87.106 L 771.871 82.96 L 777.742 82.96 L 777.742 86.392 C 777.077 86.582 776.635 87.106 776.635 87.725 C 776.635 88.535 777.354 89.155 778.296 89.155 C 779.238 89.155 779.957 88.535 779.957 87.725 C 779.957 87.106 779.515 86.582 778.85 86.392 L 778.85 82.96 L 784.722 82.96 L 789.54 87.106 C 789.43 87.297 789.375 87.487 789.375 87.725 C 789.375 88.535 790.095 89.155 791.036 89.155 C 791.978 89.155 792.698 88.535 792.698 87.725 C 792.698 86.915 791.978 86.296 791.036 86.296 C 790.76 86.296 790.537 86.344 790.316 86.439 L 785.497 82.293 L 785.497 75.336 L 792.255 75.336 C 792.476 75.909 793.086 76.289 793.805 76.289 C 794.748 76.289 795.467 75.671 795.467 74.86 C 795.467 74.05 794.748 73.431 793.805 73.431 Z M 791.036 61.519 C 791.369 61.519 791.59 61.709 791.59 61.996 C 791.59 62.282 791.369 62.472 791.036 62.472 C 790.704 62.472 790.482 62.282 790.482 61.996 C 790.482 61.709 790.704 61.519 791.036 61.519 Z M 778.296 61.519 C 778.628 61.519 778.85 61.709 778.85 61.996 C 778.85 62.282 778.628 62.472 778.296 62.472 C 777.964 62.472 777.742 62.282 777.742 61.996 C 777.742 61.709 777.964 61.519 778.296 61.519 Z M 763.341 75.336 C 763.008 75.336 762.787 75.146 762.787 74.86 C 762.787 74.575 763.008 74.383 763.341 74.383 C 763.673 74.383 763.894 74.575 763.894 74.86 C 763.894 75.146 763.673 75.336 763.341 75.336 Z M 778.296 88.201 C 777.964 88.201 777.742 88.011 777.742 87.725 C 777.742 87.439 777.964 87.249 778.296 87.249 C 778.628 87.249 778.85 87.439 778.85 87.725 C 778.85 88.011 778.628 88.201 778.296 88.201 Z M 782.174 68.38 L 783.613 69.619 L 782.174 69.619 L 782.174 68.38 Z M 765.003 61.996 C 765.003 61.709 765.224 61.519 765.556 61.519 C 765.889 61.519 766.111 61.709 766.111 61.996 C 766.111 62.282 765.889 62.472 765.556 62.472 C 765.224 62.472 765.003 62.282 765.003 61.996 Z M 765.556 88.201 C 765.224 88.201 765.003 88.011 765.003 87.725 C 765.003 87.439 765.224 87.249 765.556 87.249 C 765.889 87.249 766.111 87.439 766.111 87.725 C 766.111 88.011 765.889 88.201 765.556 88.201 Z M 772.203 82.007 L 772.203 67.714 L 781.066 67.714 L 781.066 70.573 L 784.389 70.573 L 784.389 82.007 L 772.203 82.007 Z M 791.59 87.725 C 791.59 88.011 791.369 88.201 791.036 88.201 C 790.704 88.201 790.482 88.011 790.482 87.725 C 790.482 87.439 790.704 87.249 791.036 87.249 C 791.369 87.249 791.59 87.439 791.59 87.725 Z M 793.805 75.336 C 793.473 75.336 793.252 75.146 793.252 74.86 C 793.252 74.575 793.473 74.383 793.805 74.383 C 794.138 74.383 794.36 74.575 794.36 74.86 C 794.36 75.146 794.138 75.336 793.805 75.336 Z" style="fill: rgb(255, 255, 255);"/>
 <rect x="789.667" y="258.616" class="st37" width="61.1" height="92.05" style="stroke: rgb(232, 177, 221);"/>
 <rect x="795.267" y="264.24" class="st38" width="11.9" height="19.685" style="stroke: rgb(232, 177, 221); fill: rgb(232, 177, 221);"/>
 <line class="st39" x1="815.167" y1="268.926" x2="839.267" y2="268.926" style="stroke: rgb(232, 177, 221);"/>
 <line class="st39" x1="815.167" y1="276.425" x2="839.267" y2="276.425" style="stroke: rgb(232, 177, 221);"/>
 <line class="st39" x1="797.267" y1="291.611" x2="841.267" y2="291.611" style="stroke: rgb(232, 177, 221);"/>
 <line class="st39" x1="797.267" y1="301.265" x2="841.267" y2="301.265" style="stroke: rgb(232, 177, 221);"/>
 <line class="st39" x1="797.267" y1="312.514" x2="841.267" y2="312.514" style="stroke: rgb(232, 177, 221);"/>
 <rect x="839.267" y="270.801" class="st37" width="61.1" height="92.05" style="stroke: rgb(232, 177, 221);"/>
 <rect x="844.867" y="275.769" class="st38" width="11.9" height="19.685" style="stroke: rgb(232, 177, 221); fill: rgb(232, 177, 221);"/>
 <line class="st39" x1="864.667" y1="280.456" x2="888.867" y2="280.456" style="stroke: rgb(232, 177, 221);"/>
 <line class="st39" x1="864.667" y1="287.954" x2="888.867" y2="287.954" style="stroke: rgb(232, 177, 221);"/>
 <line class="st39" x1="846.867" y1="303.14" x2="890.867" y2="303.14" style="stroke: rgb(232, 177, 221);"/>
 <line class="st39" x1="846.867" y1="312.795" x2="890.867" y2="312.795" style="stroke: rgb(232, 177, 221);"/>
 <line class="st39" x1="846.867" y1="324.044" x2="890.867" y2="324.044" style="stroke: rgb(232, 177, 221);"/>
 <rect x="888.867" y="280.643" class="st37" width="61.1" height="92.05" style="stroke: rgb(232, 177, 221);"/>
 <rect x="894.467" y="286.08" class="st38" width="11.9" height="19.685" style="stroke: rgb(232, 177, 221); fill: rgb(232, 177, 221);"/>
 <line class="st39" x1="914.267" y1="290.767" x2="938.467" y2="290.767" style="stroke: rgb(232, 177, 221);"/>
 <line class="st39" x1="914.267" y1="298.266" x2="938.467" y2="298.266" style="stroke: rgb(232, 177, 221);"/>
 <line class="st39" x1="896.467" y1="313.452" x2="940.467" y2="313.452" style="stroke: rgb(232, 177, 221);"/>
 <line class="st39" x1="896.467" y1="323.106" x2="940.467" y2="323.106" style="stroke: rgb(232, 177, 221);"/>
 <line class="st39" x1="896.467" y1="334.354" x2="940.467" y2="334.354" style="stroke: rgb(232, 177, 221);"/>
 <text class="st40 st30 st31" style="fill: rgb(235, 127, 213); white-space: pre; font-size: 20px;" x="796.022" y="359.734" transform="matrix(1, 0, 0, 0.937366, 0, 1.924179)">$</text>
 <text class="st40 st30 st31" style="fill: rgb(235, 127, 213); white-space: pre; font-size: 20px;" x="846.854" y="375.595" transform="matrix(1, 0, 0, 0.937366, 0, 1.924179)">$</text>
 <text class="st40 st30 st31" style="fill: rgb(235, 127, 213); white-space: pre; font-size: 20px;" x="897.427" y="386.734" transform="matrix(1, 0, 0, 0.937366, 0, 1.924179)">$</text>
 <g transform="matrix(1, 0, 0, 0.937366, 1.067063, -324.801025)" style="">
  <g>
   <line class="st41" x1="812.9" y1="710.3" x2="812.9" y2="705.3" style="stroke: rgb(235, 127, 213);"/>
   <line class="st41" x1="817.5" y1="710.3" x2="817.5" y2="702.4" style="stroke: rgb(235, 127, 213);"/>
   <line class="st41" x1="822.2" y1="710.3" x2="822.2" y2="699.7" style="stroke: rgb(235, 127, 213);"/>
  </g>
 </g>
 <g transform="matrix(1, 0, 0, 0.937366, 1.067063, -324.801025)" style="">
  <g>
   <line class="st41" x1="863.2" y1="725.6" x2="863.2" y2="720.6" style="stroke: rgb(235, 127, 213);"/>
   <line class="st41" x1="867.7" y1="725.6" x2="867.7" y2="717.7" style="stroke: rgb(235, 127, 213);"/>
   <line class="st41" x1="872.4" y1="725.6" x2="872.4" y2="715" style="stroke: rgb(235, 127, 213);"/>
  </g>
 </g>
 <g transform="matrix(1, 0, 0, 0.937366, 1.067063, -324.801025)" style="">
  <g>
   <line class="st41" x1="914.2" y1="736.6" x2="914.2" y2="731.6" style="stroke: rgb(235, 127, 213);"/>
   <line class="st41" x1="918.7" y1="736.6" x2="918.7" y2="728.7" style="stroke: rgb(235, 127, 213);"/>
   <line class="st41" x1="923.4" y1="736.6" x2="923.4" y2="726" style="stroke: rgb(235, 127, 213);"/>
  </g>
 </g>
 <path class="st16" d="M 751.27 114.846 L 982.07 114.846 L 982.07 115.691 L 751.27 115.691 L 751.27 114.846 Z" style="fill: rgb(232, 177, 221);"/>
</svg>