<?xml version="1.0" encoding="utf-8"?>
<svg viewBox="0 0 1028 606.5" style="enable-background:new 0 0 1028 606.5;" xmlns="http://www.w3.org/2000/svg">
 <defs>
  <style type="text/css">
	.st0{fill-rule:evenodd;clip-rule:evenodd;fill:#F5F9F8;}
	.st1{filter:url(#i);}
	.st2{fill-rule:evenodd;clip-rule:evenodd;}
	.st3{fill-rule:evenodd;clip-rule:evenodd;fill:#FFFFFF;}
	.st4{fill-rule:evenodd;clip-rule:evenodd;fill:#5D63AA;}
	.st5{fill:none;stroke:#FFFFFF;stroke-linecap:round;stroke-linejoin:round;}
	.st6{fill:#8F92C7;}
	.st7{font-family:'Lato-Italic';}
	.st8{font-size:13px;}
	.st9{fill:#3A438B;}
	.st10{font-size:17px;}
	.st11{fill:none;stroke:#8F92C7;stroke-width:2;stroke-linecap:round;stroke-linejoin:round;stroke-dasharray:2,6;}
	.st12{fill-rule:evenodd;clip-rule:evenodd;fill:#8F92C7;}
	.st13{filter:url(#k);}
	.st14{fill-rule:evenodd;clip-rule:evenodd;fill:#82549D;}
	.st15{fill-rule:evenodd;clip-rule:evenodd;fill:#F9F9FB;}
	.st16{fill-rule:evenodd;clip-rule:evenodd;fill:#E0F1FC;}
	.st17{font-size:24px;}
	.st18{fill-rule:evenodd;clip-rule:evenodd;fill:#FFFFFF;stroke:#B9A7C9;stroke-miterlimit:10;}
	.st19{fill-rule:evenodd;clip-rule:evenodd;fill:#B9A7C9;stroke:#FFFFFF;stroke-miterlimit:10;}
	.st20{fill:#FFFFFF;stroke:#B9A7C9;stroke-miterlimit:10;}
	.st21{fill:none;stroke:#B9A7C9;stroke-miterlimit:10;}
	.st22{fill-rule:evenodd;clip-rule:evenodd;fill:#DD5B03;}
	.st23{fill-rule:evenodd;clip-rule:evenodd;fill:#E5A300;}
	.st24{fill-rule:evenodd;clip-rule:evenodd;fill:#FFFFFF;stroke:#F7CD6F;stroke-miterlimit:10;}
	.st25{fill:#FFFFFF;stroke:#F7CD6F;stroke-miterlimit:10;}
	.st26{fill:none;stroke:#F7CD6F;stroke-miterlimit:10;}
	.st27{fill:none;stroke:#E5A300;stroke-miterlimit:10;}
	.st28{fill-rule:evenodd;clip-rule:evenodd;fill:#F7CD6F;stroke:#FFFFFF;stroke-miterlimit:10;}
	.st29{fill:#E5A300;}
	.st30{font-family:'MyriadPro-Regular';}
	.st31{font-size:20px;}
	.st32{fill:#FFFFFF;}
	.st33{fill:none;stroke:#E5A300;stroke-width:3;stroke-miterlimit:10;}
	.st34{filter:url(#d);}
	.st35{fill-rule:evenodd;clip-rule:evenodd;fill:#4EA7DD;}
	.st36{enable-background:new    ;}
	.st37{fill-rule:evenodd;clip-rule:evenodd;fill:#FFFFFF;stroke:#B1D9E8;stroke-miterlimit:10;}
	.st38{fill-rule:evenodd;clip-rule:evenodd;fill:#B1D9E8;}
	.st39{fill:none;stroke:#B1D9E8;stroke-miterlimit:10;}
	.st40{fill:#4EA7DD;}
	.st41{fill:none;stroke:#4EA7DD;stroke-width:3;stroke-miterlimit:10;}
</style>
 </defs>
 <filter filterUnits="objectBoundingBox" height="177.3%" id="i" width="124.5%" x="-11.4%" y="-33.3%">
  <feOffset dx="2" dy="4" in="SourceAlpha" result="shadowOffsetOuter1"/>
  <feGaussianBlur in="shadowOffsetOuter1" result="shadowBlurOuter1" stdDeviation="9"/>
  <feColorMatrix in="shadowBlurOuter1" values="0 0 0 0 0.0352941176 0 0 0 0 0.117647059 0 0 0 0 0.258823529 0 0 0 0.14 0"/>
 </filter>
 <filter filterUnits="objectBoundingBox" height="114.7%" id="k" width="117.7%" x="-8.2%" y="-6.3%">
  <feOffset dx="2" dy="4" in="SourceAlpha" result="shadowOffsetOuter1"/>
  <feGaussianBlur in="shadowOffsetOuter1" result="shadowBlurOuter1" stdDeviation="9"/>
  <feColorMatrix in="shadowBlurOuter1" values="0 0 0 0 0.0352941176 0 0 0 0 0.117647059 0 0 0 0 0.258823529 0 0 0 0.14 0"/>
 </filter>
 <filter filterUnits="objectBoundingBox" height="114.7%" id="d" width="123.4%" x="-10.9%" y="-6.3%">
  <feOffset dx="2" dy="4" in="SourceAlpha" result="shadowOffsetOuter1"/>
  <feGaussianBlur in="shadowOffsetOuter1" result="shadowBlurOuter1" stdDeviation="9"/>
  <feColorMatrix in="shadowBlurOuter1" values="0 0 0 0 0.0352941176 0 0 0 0 0.117647059 0 0 0 0 0.258823529 0 0 0 0.14 0"/>
 </filter>
 <path class="st0" d="M -2 0 L 1026 0 L 1026 606.5 L -2 606.5 L -2 0 Z"/>
 <g transform="matrix(1, 0, 0, 1, 1, 0)">
  <g transform="translate(347 219)">
   <g class="st1">
    <path id="j_3_" class="st2" d="M59.4-119.6h246.2c3,0,5.4,2.2,5.4,5v65c0,2.8-2.4,5-5.4,5H59.4c-3,0-5.4-2.2-5.4-5v-65 C54-117.3,56.4-119.6,59.4-119.6z"/>
   </g>
   <g>
    <path id="j_1_" class="st3" d="M59.4-119.6h246.2c3,0,5.4,2.2,5.4,5v65c0,2.8-2.4,5-5.4,5H59.4c-3,0-5.4-2.2-5.4-5v-65 C54-117.3,56.4-119.6,59.4-119.6z"/>
   </g>
  </g>
  <g transform="matrix(1, 0, 0, 1, 357, 236)">
   <path class="st4" d="M57-119.6h28c2.8,0,5,2.2,5,5v28c0,2.8-2.2,5-5,5H57c-2.8,0-5-2.2-5-5v-28C52-117.3,54.2-119.6,57-119.6z"/>
   <path class="st5" d="M67.7-106.9c-2.3,1.3-3.9,3.6-3.9,6.3c0,2.7,1.6,5.1,4,6.4 M69.4-94.6l2.4,2v-4L69.4-94.6L69.4-94.6z M73.5-106.9c2.3,1.3,3.9,3.6,3.9,6.3c0,2.7-1.6,5.1-4,6.4 M71.8-106.5l-2.4,2v-4L71.8-106.5z"/>
  </g>
  <text class="st9 st7 st10" style="white-space: pre; font-size: 17px;" x="454" y="141.429">PIM/eCommerce App</text>
 </g>
 <g>
  <path class="st11" d="M662,136.9h65"/>
  <circle class="st12" cx="659.5" cy="136.9" r="5.5"/>
  <path class="st12" d="M723,142.3v-10.8c0-1.2,0.9-2.1,2-2.1c0.5,0,1,0.2,1.4,0.6l5,5.4c0.8,0.8,0.8,2.2,0,3l-5,5.4 c-0.7,0.8-1.9,0.8-2.7,0.1c0,0-0.1-0.1-0.1-0.1C723.2,143.4,723,142.9,723,142.3L723,142.3z"/>
 </g>
 <g transform="matrix(1, 0, 0, 1, -18, -12)">
  <g transform="translate(654 34)">
   <g class="st13">
    <path id="l_3_" class="st2" d="M-605-3.6h278c5,0,9,2.4,9,5.3v197.5c0,2.9-4,5.3-9,5.3h-278c-5,0-9-2.4-9-5.3V1.7 C-614-1.2-610-3.6-605-3.6z"/>
   </g>
   <g>
    <path id="l_1_" class="st3" d="M-605-3.6h278c5,0,9,2.4,9,5.3v197.5c0,2.9-4,5.3-9,5.3h-278c-5,0-9-2.4-9-5.3V1.7 C-614-1.2-610-3.6-605-3.6z"/>
   </g>
  </g>
  <g transform="translate(674 54)">
   <path class="st14" d="M-609-16.6h38c2.8,0,5,2.2,5,5v38c0,2.8-2.2,5-5,5h-38c-2.8,0-5-2.2-5-5v-38C-614-14.3-611.8-16.6-609-16.6z "/>
   <path class="st15" d="M-579.3,6.7c0-0.1,0-0.1,0-0.2c0-0.1,0.1-0.2,0.1-0.3c0.2-1.1-0.2-2.3-1-3.7c-0.1-0.1-0.2-0.2-0.2-0.4 c-0.1-0.2-0.3-0.4-0.4-0.6c0,0,0,0-0.1-0.1c0-0.1-0.1-0.1-0.1-0.2c0-0.1-0.1-0.1-0.1-0.2c0-0.1-0.1-0.1-0.1-0.2 c-0.1-0.1-0.1-0.1-0.1-0.2c0,0-0.1-0.1-0.1-0.1c-1.3-1.6-2.9-3.1-4.6-4.4c0.2,2.2,0.1,4.4-0.1,6.1c-0.3,2.1-1.2,4.5-2.3,6.7 c-2.5-0.3-4.9-0.9-6.9-1.8c-1.6-0.8-3.4-1.9-5.2-3.3l0.1,0.5c0,0.1,0,0.1,0,0.2c0,0.1,0,0.3,0,0.4c0,0.1,0,0.1,0,0.2 c0,0.1,0,0.3,0.1,0.4c0,0.1,0,0.1,0,0.2c0,0.2,0,0.3,0.1,0.5c0,0.2,0.1,0.4,0.1,0.6c0,0.2,0.1,0.4,0.1,0.5c0,0,0,0.1,0,0.1 c0,0.2,0.1,0.3,0.1,0.5c0,0,0,0.1,0,0.1c0.1,0.7,0.3,1.4,0.5,2.1c0.3,0.9,0.6,1.7,0.9,2.3c0.1,0.1,0.1,0.2,0.2,0.3 c0.1,0.1,0.1,0.2,0.1,0.3c0.1,0.1,0.1,0.2,0.2,0.3c0.1,0.1,0.2,0.2,0.2,0.4c0,0.1,0,0.1,0.1,0.1c0.1,0.1,0.2,0.2,0.3,0.3 c0.1,0.1,0.1,0.1,0.2,0.2l0.1,0.1c0,0,0.1,0.1,0.1,0.1l0.1,0.1c0,0,0.1,0.1,0.1,0.1c0,0,0.1,0.1,0.1,0.1c0,0,0.1,0.1,0.1,0.1 c0,0,0.1,0,0.1,0.1c0,0,0.1,0.1,0.1,0.1c0,0,0.1,0,0.1,0.1c0.1,0,0.1,0.1,0.2,0.1c0,0,0.1,0,0.1,0c0.1,0,0.2,0.1,0.2,0.1 c0.1,0,0.1,0,0.1,0.1c3.9,1.1,7.8-0.3,12.4,3.2C-583.9,12.9-580.5,10.6-579.3,6.7L-579.3,6.7z"/>
  </g>
  <path class="st16" d="M58,98.4H318v1H58V98.4z"/>
  <text transform="matrix(1 0 0 1 123 80.4292)" class="st6 st7 st8" style="white-space: pre;">"Marketing" product information</text>
  <text transform="matrix(1 0 0 1 123 63.4292)" class="st9 st7 st17" style="white-space: pre;">Akeneo PIM</text>
  <g>
   <rect x="106.4" y="116.2" class="st18" width="61.1" height="80.4"/>
   <rect x="112" y="122.2" class="st19" width="11.9" height="21"/>
   <line class="st20" x1="131.9" y1="127.2" x2="156" y2="127.2"/>
   <line class="st20" x1="131.9" y1="135.2" x2="156" y2="135.2"/>
   <line class="st21" x1="114" y1="151.4" x2="158" y2="151.4"/>
   <line class="st21" x1="114" y1="161.7" x2="158" y2="161.7"/>
   <line class="st21" x1="114" y1="173.7" x2="158" y2="173.7"/>
  </g>
  <g>
   <rect x="148.4" y="129.5" class="st18" width="61.1" height="80.4"/>
   <rect x="154" y="135.5" class="st19" width="11.9" height="21"/>
   <line class="st20" x1="173.9" y1="140.5" x2="198" y2="140.5"/>
   <line class="st20" x1="173.9" y1="148.5" x2="198" y2="148.5"/>
   <line class="st21" x1="156" y1="164.7" x2="200" y2="164.7"/>
   <line class="st21" x1="156" y1="175" x2="200" y2="175"/>
   <line class="st21" x1="156" y1="187" x2="200" y2="187"/>
  </g>
  <g>
   <rect x="200" y="138.8" class="st18" width="61.1" height="80.4"/>
   <rect x="205.6" y="144.8" class="st19" width="11.9" height="21"/>
   <line class="st20" x1="225.4" y1="149.8" x2="249.6" y2="149.8"/>
   <line class="st20" x1="225.4" y1="157.8" x2="249.6" y2="157.8"/>
   <line class="st21" x1="207.6" y1="174" x2="251.6" y2="174"/>
   <line class="st21" x1="207.6" y1="184.3" x2="251.6" y2="184.3"/>
   <line class="st21" x1="207.6" y1="196.3" x2="251.6" y2="196.3"/>
  </g>
 </g>
 <g transform="matrix(1, 0, 0, 1, 0, 14)">
  <g transform="translate(347 219)">
   <g class="st1">
    <path id="j_3_" class="st2" d="M58.5,217.5h246.2c3,0,5.4,2.2,5.4,5v65c0,2.8-2.4,5-5.4,5H58.5c-3,0-5.4-2.2-5.4-5v-65 C53,219.7,55.5,217.5,58.5,217.5z"/>
   </g>
   <g>
    <path id="j_2_" class="st3" d="M58.5,217.5h246.2c3,0,5.4,2.2,5.4,5v65c0,2.8-2.4,5-5.4,5H58.5c-3,0-5.4-2.2-5.4-5v-65 C53,219.7,55.5,217.5,58.5,217.5z"/>
   </g>
  </g>
  <path class="st22" d="M414,446.5h28c2.8,0,5,2.2,5,5v28c0,2.8-2.2,5-5,5h-28c-2.8,0-5-2.2-5-5v-28C409,448.7,411.3,446.5,414,446.5 z"/>
  <path class="st5" d="M424.8,459.1c-2.3,1.3-3.9,3.6-3.9,6.3c0,2.7,1.6,5.1,4,6.4 M426.5,471.4l2.4,2v-4L426.5,471.4L426.5,471.4z M430.5,459.1c2.3,1.3,3.9,3.6,3.9,6.3c0,2.7-1.6,5.1-4,6.4 M428.8,459.5l-2.4,2v-4L428.8,459.5z"/>
  <text class="st6 st7 st8" style="white-space: pre; font-size: 13px;" x="456.039" y="479.458">The piece of software you need</text>
  <text class="st6 st7 st8" style="white-space: pre; font-size: 13px;" x="457.039" y="495.458">to develop too...</text>
  <text class="st9 st7 st10" style="white-space: pre; font-size: 17px;" x="455.039" y="462.458">ERP/eCommerce connector</text>
 </g>
 <g>
  <path class="st11" d="M 658 489 L 723 489"/>
  <circle class="st12" cx="658.5" cy="489" r="5.5"/>
  <path class="st12" d="M 723 494.3 L 723 483.5 C 723 482.3 723.9 481.4 725 481.4 C 725.5 481.4 726 481.6 726.4 482 L 731.4 487.4 C 732.2 488.2 732.2 489.6 731.4 490.4 L 726.4 495.8 C 725.7 496.6 724.5 496.6 723.7 495.9 C 723.7 495.9 723.6 495.8 723.6 495.8 C 723.2 495.4 723 494.9 723 494.3 L 723 494.3 Z"/>
 </g>
 <g transform="matrix(1, 0, 0, 1, -16, 20)">
  <g transform="translate(654 34)">
   <g class="st13">
    <path id="l_3_" class="st2" d="M-604.9,323.4h278c5,0,9,2.4,9,5.3v197.5c0,2.9-4,5.3-9,5.3h-278c-5,0-9-2.4-9-5.3V328.7 C-614,325.8-609.9,323.4-604.9,323.4z"/>
   </g>
   <g>
    <path id="l_2_" class="st3" d="M-604.9,323.4h278c5,0,9,2.4,9,5.3v197.5c0,2.9-4,5.3-9,5.3h-278c-5,0-9-2.4-9-5.3V328.7 C-614,325.8-609.9,323.4-604.9,323.4z"/>
   </g>
  </g>
  <path class="st23" d="M65,364.5h38c2.8,0,5,2.2,5,5v38c0,2.8-2.2,5-5,5H65c-2.8,0-5-2.2-5-5v-38C60,366.7,62.3,364.5,65,364.5z"/>
  <path class="st16" d="M58.1,425.5H318v1H58.1V425.5z"/>
  <text transform="matrix(1 0 0 1 123.0385 407.4581)" class="st6 st7 st8" style="white-space: pre;">"Technical" product information</text>
  <text transform="matrix(1 0 0 1 123.0385 390.4581)" class="st9 st7 st17" style="white-space: pre;">Your ERP solution</text>
  <g>
   <rect x="104.5" y="443.3" class="st24" width="61.1" height="80.4"/>
   <line class="st25" x1="118.9" y1="454.3" x2="143" y2="454.3"/>
   <line class="st25" x1="118.9" y1="462.3" x2="143" y2="462.3"/>
   <path class="st26" d="M156,478.5"/>
   <path class="st26" d="M112,478.5"/>
   <path class="st27" d="M156,488.8"/>
   <path class="st27" d="M112,488.8"/>
   <path class="st27" d="M156,500.8"/>
   <path class="st27" d="M112,500.8"/>
  </g>
  <g>
   <rect x="146.5" y="456.6" class="st24" width="61.1" height="80.4"/>
   <line class="st25" x1="160.9" y1="467.6" x2="185" y2="467.6"/>
   <line class="st25" x1="160.9" y1="475.6" x2="185" y2="475.6"/>
   <path class="st21" d="M198,491.8"/>
   <path class="st21" d="M198,502.1"/>
   <path class="st21" d="M198,514.1"/>
   <path class="st21" d="M154,514.1"/>
  </g>
  <g>
   <rect x="198" y="465.9" class="st24" width="61.1" height="80.4"/>
   <path class="st28" d="M215.5,471.9"/>
   <path class="st28" d="M203.6,492.9"/>
   <line class="st25" x1="212.5" y1="476.9" x2="236.6" y2="476.9"/>
   <line class="st25" x1="212.5" y1="484.9" x2="236.6" y2="484.9"/>
   <path class="st21" d="M249.6,501.1"/>
   <path class="st21" d="M205.6,501.1"/>
   <path class="st21" d="M249.6,511.4"/>
   <path class="st21" d="M205.6,511.4"/>
   <path class="st21" d="M249.6,523.4"/>
   <path class="st21" d="M205.6,523.4"/>
  </g>
  <text transform="matrix(1 0 0 1 111 511.0684)" class="st29 st30 st31" style="white-space: pre;">$</text>
  <text transform="matrix(1 0 0 1 152.976 525.3734)" class="st29 st30 st31" style="white-space: pre;">$</text>
  <text transform="matrix(1 0 0 1 204.6114 535.9581)" class="st29 st30 st31" style="white-space: pre;">$</text>
  <path class="st32" d="M84.1,372.7c-0.5,1.2-0.8,2.5-1,3.7c-0.5,0.1-0.9,0.2-1.4,0.3c-0.4,0.2-0.9,0.3-1.3,0.5 c-0.8-0.9-1.8-1.8-2.8-2.6c-0.6,0.4-1.2,0.8-1.8,1.3c0.4,1.3,0.8,2.5,1.4,3.6c-0.3,0.3-0.6,0.7-0.9,1.1c-0.3,0.4-0.5,0.8-0.8,1.2 c-1.2-0.2-2.5-0.4-3.8-0.4c-0.3,0.7-0.5,1.4-0.7,2.1c1,0.8,2.1,1.6,3.2,2.1c-0.1,0.5-0.1,1-0.1,1.4c0,0.5,0,1,0.1,1.4 c-1.1,0.5-2.3,1.1-3.3,1.9c0.2,0.7,0.4,1.4,0.7,2.1c1.3,0.1,2.6,0,3.9-0.2c0.3,0.4,0.5,0.8,0.8,1.2c0.3,0.4,0.6,0.8,0.9,1.1 c-0.6,1.1-1.1,2.2-1.6,3.5c0.5,0.5,1.1,0.9,1.7,1.3c1.1-0.7,2.1-1.5,3-2.4c0.4,0.2,0.9,0.4,1.3,0.5c0.5,0.1,0.9,0.3,1.4,0.3 c0.1,1.2,0.4,2.5,0.8,3.7c0.7,0.1,1.4,0.1,2.2,0c0.5-1.2,0.8-2.5,1-3.7c0.5-0.1,0.9-0.2,1.4-0.3c0.4-0.2,0.9-0.3,1.3-0.5 c0.8,0.9,1.8,1.8,2.8,2.6c0.6-0.4,1.2-0.8,1.8-1.3c-0.4-1.3-0.8-2.5-1.4-3.6c0.3-0.3,0.6-0.7,0.9-1.1c0.3-0.4,0.5-0.8,0.8-1.2 c1.2,0.2,2.5,0.4,3.8,0.4c0.3-0.7,0.5-1.4,0.7-2.1c-1-0.8-2.1-1.6-3.2-2.1c0.1-0.5,0.1-1,0.1-1.4c0-0.5,0-1-0.1-1.4 c1.1-0.5,2.3-1.1,3.3-1.9c-0.2-0.7-0.4-1.4-0.7-2.1c-1.3-0.1-2.6,0-3.9,0.2c-0.3-0.4-0.5-0.8-0.8-1.2c-0.3-0.4-0.6-0.8-0.9-1.1 c0.6-1.1,1.1-2.2,1.6-3.5c-0.5-0.5-1.1-0.9-1.7-1.3c-1.1,0.7-2.1,1.5-3,2.4c-0.4-0.2-0.9-0.4-1.3-0.5c-0.5-0.1-0.9-0.3-1.4-0.3 c-0.1-1.2-0.4-2.5-0.8-3.7C85.5,372.6,84.8,372.6,84.1,372.7z M87.1,380.7c1.3,0.4,2.6,1.3,3.4,2.5c0.8,1.1,1.3,2.5,1.3,4 c0,1.4-0.4,2.8-1.3,4c-0.8,1.2-2,2-3.4,2.5c-1.3,0.4-2.8,0.4-4.2,0c-1.3-0.4-2.6-1.3-3.4-2.5c-0.8-1.1-1.3-2.5-1.3-4 c0-1.4,0.4-2.8,1.3-4c0.8-1.2,2-2,3.4-2.5C84.3,380.3,85.8,380.3,87.1,380.7z"/>
  <g>
   <line class="st33" x1="224.5" y1="537.3" x2="224.5" y2="532.3"/>
   <line class="st33" x1="229" y1="537.3" x2="229" y2="529.4"/>
   <line class="st33" x1="233.7" y1="537.3" x2="233.7" y2="526.7"/>
  </g>
  <g>
   <line class="st33" x1="172.1" y1="526.8" x2="172.1" y2="521.8"/>
   <line class="st33" x1="176.6" y1="526.8" x2="176.6" y2="518.9"/>
   <line class="st33" x1="181.3" y1="526.8" x2="181.3" y2="516.2"/>
  </g>
  <g>
   <line class="st33" x1="131.1" y1="512.8" x2="131.1" y2="507.8"/>
   <line class="st33" x1="135.6" y1="512.8" x2="135.6" y2="504.9"/>
   <line class="st33" x1="140.3" y1="512.8" x2="140.3" y2="502.2"/>
  </g>
 </g>
 <g transform="matrix(1, 0, 0, 1, 43, 34)">
  <g class="st34">
   <path id="e_2_" class="st2" d="M699.8,38.7h245.5c5.9,0,10.8,5.3,10.8,11.8v441.1c0,6.5-4.8,11.8-10.8,11.8H699.8 c-5.9,0-10.8-5.3-10.8-11.8V50.5C689,44,693.8,38.7,699.8,38.7z"/>
  </g>
  <g>
   <path id="e_1_" class="st3" d="M699.8,38.7h245.5c5.9,0,10.8,5.3,10.8,11.8v441.1c0,6.5-4.8,11.8-10.8,11.8H699.8 c-5.9,0-10.8-5.3-10.8-11.8V50.5C689,44,693.8,38.7,699.8,38.7z"/>
  </g>
 </g>
 <path class="st35" d="M757,86.4h38c2.8,0,5,2.2,5,5v38c0,2.8-2.2,5-5,5h-38c-2.8,0-5-2.2-5-5v-38C752,88.6,754.2,86.4,757,86.4z"/>
 <path class="st16" d="M752,156.4h208v1H752V156.4z"/>
 <text transform="matrix(1, 0, 0, 1, 805.001221, 105.397903)" class="st36" style="white-space: pre;"><tspan x="0" y="0" class="st9 st7 st17">eCommerce</tspan><tspan x="0" y="28.8" class="st9 st7 st17">Solution</tspan></text>
 <g>
  <path class="st32" d="M783.1,111.4h-11.4l1.1,2.9h9.5v1.3h-10.4l-1.5-4.2h0l-3.8-10.5l-2.4-0.6l0.3-1.3l3.1,0.7l1.7,4.6l0,0 l2.1,5.8h10.8l1.8-7.9l1.3,0.3L783.1,111.4z M776.8,108.7l-5-4.6l0.9-1l3.5,3.2v-8.6h1.3v8.6l3.4-3.2l0.9,1L776.8,108.7z M772.4,116.5c-0.3,0.3-0.5,0.7-0.5,1.2c0,0.5,0.2,0.8,0.5,1.2c0.3,0.3,0.7,0.5,1.2,0.5c0.5,0,0.8-0.2,1.2-0.5 c0.3-0.3,0.5-0.7,0.5-1.2c0-0.4-0.2-0.8-0.5-1.2c-0.3-0.3-0.7-0.5-1.2-0.5C773.1,116,772.7,116.2,772.4,116.5z M779.2,116.5 c-0.3,0.3-0.5,0.7-0.5,1.2c0,0.5,0.2,0.8,0.5,1.2c0.3,0.3,0.7,0.5,1.2,0.5c0.5,0,0.8-0.2,1.1-0.5c0.3-0.3,0.5-0.7,0.5-1.2 c0-0.4-0.2-0.8-0.5-1.2c-0.3-0.3-0.7-0.5-1.1-0.5C779.9,116,779.5,116.2,779.2,116.5z"/>
 </g>
 <rect x="788.6" y="262.5" class="st37" width="61.1" height="98.2"/>
 <rect x="794.2" y="268.5" class="st38" width="11.9" height="21"/>
 <line class="st39" x1="814.1" y1="273.5" x2="838.2" y2="273.5"/>
 <line class="st39" x1="814.1" y1="281.5" x2="838.2" y2="281.5"/>
 <line class="st39" x1="796.2" y1="297.7" x2="840.2" y2="297.7"/>
 <line class="st39" x1="796.2" y1="308" x2="840.2" y2="308"/>
 <line class="st39" x1="796.2" y1="320" x2="840.2" y2="320"/>
 <rect x="838.2" y="275.6" class="st37" width="61.1" height="98.2"/>
 <rect x="843.8" y="280.8" class="st38" width="11.9" height="21"/>
 <line class="st39" x1="863.6" y1="285.8" x2="887.8" y2="285.8"/>
 <line class="st39" x1="863.6" y1="293.8" x2="887.8" y2="293.8"/>
 <line class="st39" x1="845.8" y1="310" x2="889.8" y2="310"/>
 <line class="st39" x1="845.8" y1="320.3" x2="889.8" y2="320.3"/>
 <line class="st39" x1="845.8" y1="332.3" x2="889.8" y2="332.3"/>
 <rect x="887.8" y="286" class="st37" width="61.1" height="98.2"/>
 <rect x="893.4" y="291.8" class="st38" width="11.9" height="21"/>
 <line class="st39" x1="913.2" y1="296.8" x2="937.4" y2="296.8"/>
 <line class="st39" x1="913.2" y1="304.8" x2="937.4" y2="304.8"/>
 <line class="st39" x1="895.4" y1="321" x2="939.4" y2="321"/>
 <line class="st39" x1="895.4" y1="331.3" x2="939.4" y2="331.3"/>
 <line class="st39" x1="895.4" y1="343.3" x2="939.4" y2="343.3"/>
 <text transform="matrix(1, 0, 0, 1, 794.955078, 348.458008)" class="st40 st30 st31" style="white-space: pre;">$</text>
 <text transform="matrix(1, 0, 0, 1, 845.786987, 364.318787)" class="st40 st30 st31" style="white-space: pre;">$</text>
 <text transform="matrix(1, 0, 0, 1, 896.359924, 375.458008)" class="st40 st30 st31" style="white-space: pre;">$</text>
 <g>
  <g>
   <line class="st41" x1="812.9" y1="350.5" x2="812.9" y2="345.5"/>
   <line class="st41" x1="817.5" y1="350.5" x2="817.5" y2="342.6"/>
   <line class="st41" x1="822.2" y1="350.5" x2="822.2" y2="339.9"/>
  </g>
 </g>
 <g>
  <g>
   <line class="st41" x1="863.2" y1="365.7" x2="863.2" y2="360.7"/>
   <line class="st41" x1="867.7" y1="365.7" x2="867.7" y2="357.8"/>
   <line class="st41" x1="872.4" y1="365.7" x2="872.4" y2="355.1"/>
  </g>
 </g>
 <g>
  <g>
   <line class="st41" x1="914.2" y1="376.7" x2="914.2" y2="371.7"/>
   <line class="st41" x1="918.7" y1="376.7" x2="918.7" y2="368.8"/>
   <line class="st41" x1="923.4" y1="376.7" x2="923.4" y2="366.1"/>
  </g>
 </g>
 <path class="st12" d="M 177.155 238.073 L 166.355 238.073 C 165.155 238.073 164.255 237.173 164.255 236.073 C 164.255 235.573 164.455 235.073 164.855 234.673 L 170.255 229.673 C 171.055 228.873 172.455 228.873 173.255 229.673 L 178.655 234.673 C 179.455 235.373 179.455 236.573 178.755 237.373 C 178.755 237.373 178.655 237.473 178.655 237.473 C 178.255 237.873 177.755 238.073 177.155 238.073 L 177.155 238.073 Z"/>
 <circle class="st12" cx="171.755" cy="376.573" r="5.5"/>
 <g>
  <path class="st12" d="M390.5,141.8V131c0-1.2,0.9-2.1,2-2.1c0.5,0,1,0.2,1.4,0.6l5,5.4c0.8,0.8,0.8,2.2,0,3l-5,5.4 c-0.7,0.8-1.9,0.8-2.7,0.1c0,0-0.1-0.1-0.1-0.1C390.7,142.9,390.5,142.4,390.5,141.8L390.5,141.8z"/>
  <path class="st11" d="M 319.34 136.4 L 388.5 136.4" style=""/>
  <circle class="st12" cx="318.02" cy="135.699" r="5.5"/>
 </g>
 <g transform="matrix(1, 0, 0, 1, 0, 14)">
  <path class="st12" d="M390.5,478.8v-10.8c0-1.2,0.9-2.1,2-2.1c0.5,0,1,0.2,1.4,0.6l5,5.4c0.8,0.8,0.8,2.2,0,3l-5,5.4 c-0.7,0.8-1.9,0.8-2.7,0.1c0,0-0.1-0.1-0.1-0.1C390.7,479.9,390.5,479.4,390.5,478.8L390.5,478.8z"/>
  <path class="st11" d="M 320.252 473.962 L 388.5 473.5"/>
  <circle class="st12" cx="319.721" cy="473.5" r="5.5"/>
 </g>
 <path class="st11" d="M 171.755 371.623 L 171.755 234.358" style=""/>
 <text transform="matrix(1, 0, 0, 1, 408.191589, 541.436401)" class="st6 st7 st8" style="white-space: pre;">«Hot» ERP product information (price, stock...)</text>
 <text class="st36" style="white-space: pre;" x="451.005" y="195.254"><tspan x="451.005" y="195.254" class="st6 st7 st8" style="font-size: 13px; word-spacing: 0px;">«Cold» PIM product information</tspan><tspan x="451.005" y="210.854" class="st6 st7 st8" style="font-size: 13px; word-spacing: 0px;">+ Asset media</tspan></text>
 <g transform="matrix(1, 0, 0, 1, -358.286469, -169.600739)">
  <g transform="translate(347 219)">
   <g class="st1">
    <path id="path-1" class="st2" d="M58.5,217.5h246.2c3,0,5.4,2.2,5.4,5v65c0,2.8-2.4,5-5.4,5H58.5c-3,0-5.4-2.2-5.4-5v-65 C53,219.7,55.5,217.5,58.5,217.5z"/>
   </g>
   <g>
    <path id="path-2" class="st3" d="M58.5,217.5h246.2c3,0,5.4,2.2,5.4,5v65c0,2.8-2.4,5-5.4,5H58.5c-3,0-5.4-2.2-5.4-5v-65 C53,219.7,55.5,217.5,58.5,217.5z"/>
   </g>
  </g>
  <path class="st22" d="M414,446.5h28c2.8,0,5,2.2,5,5v28c0,2.8-2.2,5-5,5h-28c-2.8,0-5-2.2-5-5v-28C409,448.7,411.3,446.5,414,446.5 z"/>
  <path class="st5" d="M424.8,459.1c-2.3,1.3-3.9,3.6-3.9,6.3c0,2.7,1.6,5.1,4,6.4 M426.5,471.4l2.4,2v-4L426.5,471.4L426.5,471.4z M430.5,459.1c2.3,1.3,3.9,3.6,3.9,6.3c0,2.7-1.6,5.1-4,6.4 M428.8,459.5l-2.4,2v-4L428.8,459.5z"/>
  <text transform="matrix(1 0 0 1 462.0385 479.4581)" class="st6 st7 st8" style="white-space: pre;">The piece of software you need</text>
  <text transform="matrix(1 0 0 1 462.0385 495.4581)" class="st6 st7 st8" style="white-space: pre;">to develop ...</text>
  <text transform="matrix(1 0 0 1 462.0385 462.4581)" class="st9 st7 st10" style="white-space: pre;">PIM/ERP App</text>
 </g>
 <path class="st12" d="M 176.734 350.772 L 165.934 350.772 C 164.734 350.772 163.834 349.872 163.834 348.772 C 163.834 348.272 164.034 347.772 164.434 347.372 L 169.834 342.372 C 170.634 341.572 172.034 341.572 172.834 342.372 L 178.234 347.372 C 179.034 348.072 179.034 349.272 178.334 350.072 C 178.334 350.072 178.234 350.172 178.234 350.172 C 177.834 350.572 177.334 350.772 176.734 350.772 L 176.734 350.772 Z"/>
 <circle class="st12" cx="172.038" cy="266.574" r="5.5"/>
</svg>
