<?xml version="1.0" encoding="utf-8"?>
<svg viewBox="0 0 1028 606.5" style="enable-background:new 0 0 1028 606.5;" xmlns="http://www.w3.org/2000/svg">
 <defs>
  <style type="text/css">
	.st0{fill-rule:evenodd;clip-rule:evenodd;fill:#F5F9F8;}
	.st1{filter:url(#i);}
	.st2{fill-rule:evenodd;clip-rule:evenodd;}
	.st3{fill-rule:evenodd;clip-rule:evenodd;fill:#FFFFFF;}
	.st4{fill-rule:evenodd;clip-rule:evenodd;fill:#5D63AA;}
	.st5{fill:none;stroke:#FFFFFF;stroke-linecap:round;stroke-linejoin:round;}
	.st6{fill:#8F92C7;}
	.st7{font-family:'Lato-Italic';}
	.st8{font-size:13px;}
	.st9{fill:#3A438B;}
	.st10{font-size:17px;}
	.st11{fill:none;stroke:#8F92C7;stroke-width:2;stroke-linecap:round;stroke-linejoin:round;stroke-dasharray:2,6;}
	.st12{fill-rule:evenodd;clip-rule:evenodd;fill:#8F92C7;}
	.st13{filter:url(#k);}
	.st14{fill-rule:evenodd;clip-rule:evenodd;fill:#82549D;}
	.st15{fill-rule:evenodd;clip-rule:evenodd;fill:#F9F9FB;}
	.st16{fill-rule:evenodd;clip-rule:evenodd;fill:#E0F1FC;}
	.st17{font-size:24px;}
	.st18{fill-rule:evenodd;clip-rule:evenodd;fill:#FFFFFF;stroke:#B9A7C9;stroke-miterlimit:10;}
	.st19{fill-rule:evenodd;clip-rule:evenodd;fill:#B9A7C9;stroke:#FFFFFF;stroke-miterlimit:10;}
	.st20{fill:#FFFFFF;stroke:#B9A7C9;stroke-miterlimit:10;}
	.st21{fill:none;stroke:#B9A7C9;stroke-miterlimit:10;}
	.st22{fill-rule:evenodd;clip-rule:evenodd;fill:#DD5B03;}
	.st23{fill-rule:evenodd;clip-rule:evenodd;fill:#E5A300;}
	.st24{fill-rule:evenodd;clip-rule:evenodd;fill:#FFFFFF;stroke:#F7CD6F;stroke-miterlimit:10;}
	.st25{fill:#FFFFFF;stroke:#F7CD6F;stroke-miterlimit:10;}
	.st26{fill:none;stroke:#F7CD6F;stroke-miterlimit:10;}
	.st27{fill:none;stroke:#E5A300;stroke-miterlimit:10;}
	.st28{fill-rule:evenodd;clip-rule:evenodd;fill:#F7CD6F;stroke:#FFFFFF;stroke-miterlimit:10;}
	.st29{fill:#E5A300;}
	.st30{font-family:'MyriadPro-Regular';}
	.st31{font-size:20px;}
	.st32{fill:#FFFFFF;}
	.st33{fill:none;stroke:#E5A300;stroke-width:3;stroke-miterlimit:10;}
	.st34{filter:url(#d);}
	.st35{fill-rule:evenodd;clip-rule:evenodd;fill:#4EA7DD;}
	.st36{enable-background:new    ;}
	.st37{fill-rule:evenodd;clip-rule:evenodd;fill:#FFFFFF;stroke:#B1D9E8;stroke-miterlimit:10;}
	.st38{fill-rule:evenodd;clip-rule:evenodd;fill:#B1D9E8;}
	.st39{fill:none;stroke:#B1D9E8;stroke-miterlimit:10;}
	.st40{fill:#4EA7DD;}
	.st41{fill:none;stroke:#4EA7DD;stroke-width:3;stroke-miterlimit:10;}
</style>
 </defs>
 <filter filterUnits="objectBoundingBox" height="177.3%" id="i" width="124.5%" x="-11.4%" y="-33.3%">
  <feOffset dx="2" dy="4" in="SourceAlpha" result="shadowOffsetOuter1"/>
  <feGaussianBlur in="shadowOffsetOuter1" result="shadowBlurOuter1" stdDeviation="9"/>
  <feColorMatrix in="shadowBlurOuter1" values="0 0 0 0 0.0352941176 0 0 0 0 0.117647059 0 0 0 0 0.258823529 0 0 0 0.14 0"/>
 </filter>
 <filter filterUnits="objectBoundingBox" height="114.7%" id="k" width="117.7%" x="-8.2%" y="-6.3%">
  <feOffset dx="2" dy="4" in="SourceAlpha" result="shadowOffsetOuter1"/>
  <feGaussianBlur in="shadowOffsetOuter1" result="shadowBlurOuter1" stdDeviation="9"/>
  <feColorMatrix in="shadowBlurOuter1" values="0 0 0 0 0.0352941176 0 0 0 0 0.117647059 0 0 0 0 0.258823529 0 0 0 0.14 0"/>
 </filter>
 <filter filterUnits="objectBoundingBox" height="114.7%" id="d" width="123.4%" x="-10.9%" y="-6.3%">
  <feOffset dx="2" dy="4" in="SourceAlpha" result="shadowOffsetOuter1"/>
  <feGaussianBlur in="shadowOffsetOuter1" result="shadowBlurOuter1" stdDeviation="9"/>
  <feColorMatrix in="shadowBlurOuter1" values="0 0 0 0 0.0352941176 0 0 0 0 0.117647059 0 0 0 0 0.258823529 0 0 0 0.14 0"/>
 </filter>
 <path class="st0" d="M -2 0 L 1026 0 L 1026 606.5 L -2 606.5 L -2 0 Z"/>
 <g transform="matrix(1, 0, 0, 1, 1, 0)">
  <g transform="translate(347 219)">
   <g class="st1">
    <path id="j_3_" class="st2" d="M59.4-119.6h246.2c3,0,5.4,2.2,5.4,5v65c0,2.8-2.4,5-5.4,5H59.4c-3,0-5.4-2.2-5.4-5v-65 C54-117.3,56.4-119.6,59.4-119.6z"/>
   </g>
   <g>
    <path id="j_1_" class="st3" d="M59.4-119.6h246.2c3,0,5.4,2.2,5.4,5v65c0,2.8-2.4,5-5.4,5H59.4c-3,0-5.4-2.2-5.4-5v-65 C54-117.3,56.4-119.6,59.4-119.6z"/>
   </g>
  </g>
  <g transform="matrix(1, 0, 0, 1, 357, 229)">
   <path class="st4" d="M57-119.6h28c2.8,0,5,2.2,5,5v28c0,2.8-2.2,5-5,5H57c-2.8,0-5-2.2-5-5v-28C52-117.3,54.2-119.6,57-119.6z"/>
   <path class="st5" d="M67.7-106.9c-2.3,1.3-3.9,3.6-3.9,6.3c0,2.7,1.6,5.1,4,6.4 M69.4-94.6l2.4,2v-4L69.4-94.6L69.4-94.6z M73.5-106.9c2.3,1.3,3.9,3.6,3.9,6.3c0,2.7-1.6,5.1-4,6.4 M71.8-106.5l-2.4,2v-4L71.8-106.5z"/>
  </g>
  <text class="st9 st7 st10" style="white-space: pre; font-size: 17px;" x="454" y="128.429">PIM/syndication App</text>
 </g>
 <g>
  <path class="st11" d="M662,136.9h65"/>
  <circle class="st12" cx="659.5" cy="136.9" r="5.5"/>
  <path class="st12" d="M723,142.3v-10.8c0-1.2,0.9-2.1,2-2.1c0.5,0,1,0.2,1.4,0.6l5,5.4c0.8,0.8,0.8,2.2,0,3l-5,5.4 c-0.7,0.8-1.9,0.8-2.7,0.1c0,0-0.1-0.1-0.1-0.1C723.2,143.4,723,142.9,723,142.3L723,142.3z"/>
 </g>
 <g transform="matrix(1, 0, 0, 1, -18, -12)">
  <g transform="translate(654 34)">
   <g class="st13">
    <path id="l_3_" class="st2" d="M-605-3.6h278c5,0,9,2.4,9,5.3v197.5c0,2.9-4,5.3-9,5.3h-278c-5,0-9-2.4-9-5.3V1.7 C-614-1.2-610-3.6-605-3.6z"/>
   </g>
   <g>
    <path id="l_1_" class="st3" d="M-605-3.6h278c5,0,9,2.4,9,5.3v197.5c0,2.9-4,5.3-9,5.3h-278c-5,0-9-2.4-9-5.3V1.7 C-614-1.2-610-3.6-605-3.6z"/>
   </g>
  </g>
  <g transform="translate(674 54)">
   <path class="st14" d="M-609-16.6h38c2.8,0,5,2.2,5,5v38c0,2.8-2.2,5-5,5h-38c-2.8,0-5-2.2-5-5v-38C-614-14.3-611.8-16.6-609-16.6z "/>
   <path class="st15" d="M-579.3,6.7c0-0.1,0-0.1,0-0.2c0-0.1,0.1-0.2,0.1-0.3c0.2-1.1-0.2-2.3-1-3.7c-0.1-0.1-0.2-0.2-0.2-0.4 c-0.1-0.2-0.3-0.4-0.4-0.6c0,0,0,0-0.1-0.1c0-0.1-0.1-0.1-0.1-0.2c0-0.1-0.1-0.1-0.1-0.2c0-0.1-0.1-0.1-0.1-0.2 c-0.1-0.1-0.1-0.1-0.1-0.2c0,0-0.1-0.1-0.1-0.1c-1.3-1.6-2.9-3.1-4.6-4.4c0.2,2.2,0.1,4.4-0.1,6.1c-0.3,2.1-1.2,4.5-2.3,6.7 c-2.5-0.3-4.9-0.9-6.9-1.8c-1.6-0.8-3.4-1.9-5.2-3.3l0.1,0.5c0,0.1,0,0.1,0,0.2c0,0.1,0,0.3,0,0.4c0,0.1,0,0.1,0,0.2 c0,0.1,0,0.3,0.1,0.4c0,0.1,0,0.1,0,0.2c0,0.2,0,0.3,0.1,0.5c0,0.2,0.1,0.4,0.1,0.6c0,0.2,0.1,0.4,0.1,0.5c0,0,0,0.1,0,0.1 c0,0.2,0.1,0.3,0.1,0.5c0,0,0,0.1,0,0.1c0.1,0.7,0.3,1.4,0.5,2.1c0.3,0.9,0.6,1.7,0.9,2.3c0.1,0.1,0.1,0.2,0.2,0.3 c0.1,0.1,0.1,0.2,0.1,0.3c0.1,0.1,0.1,0.2,0.2,0.3c0.1,0.1,0.2,0.2,0.2,0.4c0,0.1,0,0.1,0.1,0.1c0.1,0.1,0.2,0.2,0.3,0.3 c0.1,0.1,0.1,0.1,0.2,0.2l0.1,0.1c0,0,0.1,0.1,0.1,0.1l0.1,0.1c0,0,0.1,0.1,0.1,0.1c0,0,0.1,0.1,0.1,0.1c0,0,0.1,0.1,0.1,0.1 c0,0,0.1,0,0.1,0.1c0,0,0.1,0.1,0.1,0.1c0,0,0.1,0,0.1,0.1c0.1,0,0.1,0.1,0.2,0.1c0,0,0.1,0,0.1,0c0.1,0,0.2,0.1,0.2,0.1 c0.1,0,0.1,0,0.1,0.1c3.9,1.1,7.8-0.3,12.4,3.2C-583.9,12.9-580.5,10.6-579.3,6.7L-579.3,6.7z"/>
  </g>
  <path class="st16" d="M58,98.4H318v1H58V98.4z"/>
  <text transform="matrix(1 0 0 1 123 80.4292)" class="st6 st7 st8" style="white-space: pre;">"Marketing" product information</text>
  <text transform="matrix(1 0 0 1 123 63.4292)" class="st9 st7 st17" style="white-space: pre;">Akeneo PIM</text>
  <g>
   <rect x="106.4" y="116.2" class="st18" width="61.1" height="80.4"/>
   <rect x="112" y="122.2" class="st19" width="11.9" height="21"/>
   <line class="st20" x1="131.9" y1="127.2" x2="156" y2="127.2"/>
   <line class="st20" x1="131.9" y1="135.2" x2="156" y2="135.2"/>
   <line class="st21" x1="114" y1="151.4" x2="158" y2="151.4"/>
   <line class="st21" x1="114" y1="161.7" x2="158" y2="161.7"/>
   <line class="st21" x1="114" y1="173.7" x2="158" y2="173.7"/>
  </g>
  <g>
   <rect x="148.4" y="129.5" class="st18" width="61.1" height="80.4"/>
   <rect x="154" y="135.5" class="st19" width="11.9" height="21"/>
   <line class="st20" x1="173.9" y1="140.5" x2="198" y2="140.5"/>
   <line class="st20" x1="173.9" y1="148.5" x2="198" y2="148.5"/>
   <line class="st21" x1="156" y1="164.7" x2="200" y2="164.7"/>
   <line class="st21" x1="156" y1="175" x2="200" y2="175"/>
   <line class="st21" x1="156" y1="187" x2="200" y2="187"/>
  </g>
  <g>
   <rect x="200" y="138.8" class="st18" width="61.1" height="80.4"/>
   <rect x="205.6" y="144.8" class="st19" width="11.9" height="21"/>
   <line class="st20" x1="225.4" y1="149.8" x2="249.6" y2="149.8"/>
   <line class="st20" x1="225.4" y1="157.8" x2="249.6" y2="157.8"/>
   <line class="st21" x1="207.6" y1="174" x2="251.6" y2="174"/>
   <line class="st21" x1="207.6" y1="184.3" x2="251.6" y2="184.3"/>
   <line class="st21" x1="207.6" y1="196.3" x2="251.6" y2="196.3"/>
  </g>
 </g>
 <g transform="matrix(1, 0, 0, 1, 0, 14)">
  <g transform="translate(347 219)">
   <g class="st1">
    <path id="j_3_" class="st2" d="M58.5,217.5h246.2c3,0,5.4,2.2,5.4,5v65c0,2.8-2.4,5-5.4,5H58.5c-3,0-5.4-2.2-5.4-5v-65 C53,219.7,55.5,217.5,58.5,217.5z"/>
   </g>
   <g>
    <path id="j_2_" class="st3" d="M58.5,217.5h246.2c3,0,5.4,2.2,5.4,5v65c0,2.8-2.4,5-5.4,5H58.5c-3,0-5.4-2.2-5.4-5v-65 C53,219.7,55.5,217.5,58.5,217.5z"/>
   </g>
  </g>
  <path class="st22" d="M414,446.5h28c2.8,0,5,2.2,5,5v28c0,2.8-2.2,5-5,5h-28c-2.8,0-5-2.2-5-5v-28C409,448.7,411.3,446.5,414,446.5 z"/>
  <path class="st5" d="M424.8,459.1c-2.3,1.3-3.9,3.6-3.9,6.3c0,2.7,1.6,5.1,4,6.4 M426.5,471.4l2.4,2v-4L426.5,471.4L426.5,471.4z M430.5,459.1c2.3,1.3,3.9,3.6,3.9,6.3c0,2.7-1.6,5.1-4,6.4 M428.8,459.5l-2.4,2v-4L428.8,459.5z"/>
  <text class="st6 st7 st8" style="white-space: pre; font-size: 13px;" x="456.039" y="479.458">The piece of software you need</text>
  <text class="st6 st7 st8" style="white-space: pre; font-size: 13px;" x="457.039" y="495.458">to develop too...</text>
  <text class="st9 st7 st10" style="white-space: pre; font-size: 17px;" x="455.039" y="462.458">ERP/syndication connector</text>
 </g>
 <g>
  <path class="st11" d="M 658 489 L 723 489"/>
  <circle class="st12" cx="658.5" cy="489" r="5.5"/>
  <path class="st12" d="M 723 494.3 L 723 483.5 C 723 482.3 723.9 481.4 725 481.4 C 725.5 481.4 726 481.6 726.4 482 L 731.4 487.4 C 732.2 488.2 732.2 489.6 731.4 490.4 L 726.4 495.8 C 725.7 496.6 724.5 496.6 723.7 495.9 C 723.7 495.9 723.6 495.8 723.6 495.8 C 723.2 495.4 723 494.9 723 494.3 L 723 494.3 Z"/>
 </g>
 <g transform="matrix(1, 0, 0, 1, -16, 20)">
  <g transform="translate(654 34)">
   <g class="st13">
    <path id="l_3_" class="st2" d="M-604.9,323.4h278c5,0,9,2.4,9,5.3v197.5c0,2.9-4,5.3-9,5.3h-278c-5,0-9-2.4-9-5.3V328.7 C-614,325.8-609.9,323.4-604.9,323.4z"/>
   </g>
   <g>
    <path id="l_2_" class="st3" d="M-604.9,323.4h278c5,0,9,2.4,9,5.3v197.5c0,2.9-4,5.3-9,5.3h-278c-5,0-9-2.4-9-5.3V328.7 C-614,325.8-609.9,323.4-604.9,323.4z"/>
   </g>
  </g>
  <path class="st23" d="M65,364.5h38c2.8,0,5,2.2,5,5v38c0,2.8-2.2,5-5,5H65c-2.8,0-5-2.2-5-5v-38C60,366.7,62.3,364.5,65,364.5z"/>
  <path class="st16" d="M58.1,425.5H318v1H58.1V425.5z"/>
  <text transform="matrix(1 0 0 1 123.0385 407.4581)" class="st6 st7 st8" style="white-space: pre;">"Technical" product information</text>
  <text transform="matrix(1 0 0 1 123.0385 390.4581)" class="st9 st7 st17" style="white-space: pre;">Your ERP solution</text>
  <g>
   <rect x="104.5" y="443.3" class="st24" width="61.1" height="80.4"/>
   <line class="st25" x1="118.9" y1="454.3" x2="143" y2="454.3"/>
   <line class="st25" x1="118.9" y1="462.3" x2="143" y2="462.3"/>
   <path class="st26" d="M156,478.5"/>
   <path class="st26" d="M112,478.5"/>
   <path class="st27" d="M156,488.8"/>
   <path class="st27" d="M112,488.8"/>
   <path class="st27" d="M156,500.8"/>
   <path class="st27" d="M112,500.8"/>
  </g>
  <g>
   <rect x="146.5" y="456.6" class="st24" width="61.1" height="80.4"/>
   <line class="st25" x1="160.9" y1="467.6" x2="185" y2="467.6"/>
   <line class="st25" x1="160.9" y1="475.6" x2="185" y2="475.6"/>
   <path class="st21" d="M198,491.8"/>
   <path class="st21" d="M198,502.1"/>
   <path class="st21" d="M198,514.1"/>
   <path class="st21" d="M154,514.1"/>
  </g>
  <g>
   <rect x="198" y="465.9" class="st24" width="61.1" height="80.4"/>
   <path class="st28" d="M215.5,471.9"/>
   <path class="st28" d="M203.6,492.9"/>
   <line class="st25" x1="212.5" y1="476.9" x2="236.6" y2="476.9"/>
   <line class="st25" x1="212.5" y1="484.9" x2="236.6" y2="484.9"/>
   <path class="st21" d="M249.6,501.1"/>
   <path class="st21" d="M205.6,501.1"/>
   <path class="st21" d="M249.6,511.4"/>
   <path class="st21" d="M205.6,511.4"/>
   <path class="st21" d="M249.6,523.4"/>
   <path class="st21" d="M205.6,523.4"/>
  </g>
  <text transform="matrix(1 0 0 1 111 511.0684)" class="st29 st30 st31" style="white-space: pre;">$</text>
  <text transform="matrix(1 0 0 1 152.976 525.3734)" class="st29 st30 st31" style="white-space: pre;">$</text>
  <text transform="matrix(1 0 0 1 204.6114 535.9581)" class="st29 st30 st31" style="white-space: pre;">$</text>
  <path class="st32" d="M84.1,372.7c-0.5,1.2-0.8,2.5-1,3.7c-0.5,0.1-0.9,0.2-1.4,0.3c-0.4,0.2-0.9,0.3-1.3,0.5 c-0.8-0.9-1.8-1.8-2.8-2.6c-0.6,0.4-1.2,0.8-1.8,1.3c0.4,1.3,0.8,2.5,1.4,3.6c-0.3,0.3-0.6,0.7-0.9,1.1c-0.3,0.4-0.5,0.8-0.8,1.2 c-1.2-0.2-2.5-0.4-3.8-0.4c-0.3,0.7-0.5,1.4-0.7,2.1c1,0.8,2.1,1.6,3.2,2.1c-0.1,0.5-0.1,1-0.1,1.4c0,0.5,0,1,0.1,1.4 c-1.1,0.5-2.3,1.1-3.3,1.9c0.2,0.7,0.4,1.4,0.7,2.1c1.3,0.1,2.6,0,3.9-0.2c0.3,0.4,0.5,0.8,0.8,1.2c0.3,0.4,0.6,0.8,0.9,1.1 c-0.6,1.1-1.1,2.2-1.6,3.5c0.5,0.5,1.1,0.9,1.7,1.3c1.1-0.7,2.1-1.5,3-2.4c0.4,0.2,0.9,0.4,1.3,0.5c0.5,0.1,0.9,0.3,1.4,0.3 c0.1,1.2,0.4,2.5,0.8,3.7c0.7,0.1,1.4,0.1,2.2,0c0.5-1.2,0.8-2.5,1-3.7c0.5-0.1,0.9-0.2,1.4-0.3c0.4-0.2,0.9-0.3,1.3-0.5 c0.8,0.9,1.8,1.8,2.8,2.6c0.6-0.4,1.2-0.8,1.8-1.3c-0.4-1.3-0.8-2.5-1.4-3.6c0.3-0.3,0.6-0.7,0.9-1.1c0.3-0.4,0.5-0.8,0.8-1.2 c1.2,0.2,2.5,0.4,3.8,0.4c0.3-0.7,0.5-1.4,0.7-2.1c-1-0.8-2.1-1.6-3.2-2.1c0.1-0.5,0.1-1,0.1-1.4c0-0.5,0-1-0.1-1.4 c1.1-0.5,2.3-1.1,3.3-1.9c-0.2-0.7-0.4-1.4-0.7-2.1c-1.3-0.1-2.6,0-3.9,0.2c-0.3-0.4-0.5-0.8-0.8-1.2c-0.3-0.4-0.6-0.8-0.9-1.1 c0.6-1.1,1.1-2.2,1.6-3.5c-0.5-0.5-1.1-0.9-1.7-1.3c-1.1,0.7-2.1,1.5-3,2.4c-0.4-0.2-0.9-0.4-1.3-0.5c-0.5-0.1-0.9-0.3-1.4-0.3 c-0.1-1.2-0.4-2.5-0.8-3.7C85.5,372.6,84.8,372.6,84.1,372.7z M87.1,380.7c1.3,0.4,2.6,1.3,3.4,2.5c0.8,1.1,1.3,2.5,1.3,4 c0,1.4-0.4,2.8-1.3,4c-0.8,1.2-2,2-3.4,2.5c-1.3,0.4-2.8,0.4-4.2,0c-1.3-0.4-2.6-1.3-3.4-2.5c-0.8-1.1-1.3-2.5-1.3-4 c0-1.4,0.4-2.8,1.3-4c0.8-1.2,2-2,3.4-2.5C84.3,380.3,85.8,380.3,87.1,380.7z"/>
  <g>
   <line class="st33" x1="224.5" y1="537.3" x2="224.5" y2="532.3"/>
   <line class="st33" x1="229" y1="537.3" x2="229" y2="529.4"/>
   <line class="st33" x1="233.7" y1="537.3" x2="233.7" y2="526.7"/>
  </g>
  <g>
   <line class="st33" x1="172.1" y1="526.8" x2="172.1" y2="521.8"/>
   <line class="st33" x1="176.6" y1="526.8" x2="176.6" y2="518.9"/>
   <line class="st33" x1="181.3" y1="526.8" x2="181.3" y2="516.2"/>
  </g>
  <g>
   <line class="st33" x1="131.1" y1="512.8" x2="131.1" y2="507.8"/>
   <line class="st33" x1="135.6" y1="512.8" x2="135.6" y2="504.9"/>
   <line class="st33" x1="140.3" y1="512.8" x2="140.3" y2="502.2"/>
  </g>
 </g>
 <g transform="matrix(1, 0, 0, 1.215371, 43, -25.665174)" style="">
  <g class="st34">
   <path id="e_2_" class="st2" d="M699.8,38.7h245.5c5.9,0,10.8,5.3,10.8,11.8v441.1c0,6.5-4.8,11.8-10.8,11.8H699.8 c-5.9,0-10.8-5.3-10.8-11.8V50.5C689,44,693.8,38.7,699.8,38.7z"/>
  </g>
  <g>
   <path id="e_1_" class="st3" d="M699.8,38.7h245.5c5.9,0,10.8,5.3,10.8,11.8v441.1c0,6.5-4.8,11.8-10.8,11.8H699.8 c-5.9,0-10.8-5.3-10.8-11.8V50.5C689,44,693.8,38.7,699.8,38.7z"/>
  </g>
 </g>
 <text class="st36" style="white-space: pre;" x="811.001" y="64.398"><tspan x="811.001" y="64.398" class="st9 st7 st17" style="font-size: 24px; word-spacing: 0px;">Your syndication</tspan><tspan x="811.001" y="93.198" class="st9 st7 st17" style="font-size: 24px; word-spacing: 0px;">solution</tspan></text>
 <path class="st12" d="M 177.155 238.073 L 166.355 238.073 C 165.155 238.073 164.255 237.173 164.255 236.073 C 164.255 235.573 164.455 235.073 164.855 234.673 L 170.255 229.673 C 171.055 228.873 172.455 228.873 173.255 229.673 L 178.655 234.673 C 179.455 235.373 179.455 236.573 178.755 237.373 C 178.755 237.373 178.655 237.473 178.655 237.473 C 178.255 237.873 177.755 238.073 177.155 238.073 L 177.155 238.073 Z"/>
 <circle class="st12" cx="171.755" cy="376.573" r="5.5"/>
 <g>
  <path class="st12" d="M390.5,141.8V131c0-1.2,0.9-2.1,2-2.1c0.5,0,1,0.2,1.4,0.6l5,5.4c0.8,0.8,0.8,2.2,0,3l-5,5.4 c-0.7,0.8-1.9,0.8-2.7,0.1c0,0-0.1-0.1-0.1-0.1C390.7,142.9,390.5,142.4,390.5,141.8L390.5,141.8z"/>
  <path class="st11" d="M 319.34 136.4 L 388.5 136.4" style=""/>
  <circle class="st12" cx="318.02" cy="135.699" r="5.5"/>
 </g>
 <g transform="matrix(1, 0, 0, 1, 0, 14)">
  <path class="st12" d="M390.5,478.8v-10.8c0-1.2,0.9-2.1,2-2.1c0.5,0,1,0.2,1.4,0.6l5,5.4c0.8,0.8,0.8,2.2,0,3l-5,5.4 c-0.7,0.8-1.9,0.8-2.7,0.1c0,0-0.1-0.1-0.1-0.1C390.7,479.9,390.5,479.4,390.5,478.8L390.5,478.8z"/>
  <path class="st11" d="M 320.252 473.962 L 388.5 473.5"/>
  <circle class="st12" cx="319.721" cy="473.5" r="5.5"/>
 </g>
 <path class="st11" d="M 171.755 371.623 L 171.755 234.358" style=""/>
 <text transform="matrix(1, 0, 0, 1, 408.191589, 541.436401)" class="st6 st7 st8" style="white-space: pre;">«Hot» ERP product information (price, stock...)</text>
 <text class="st36" style="white-space: pre;" x="451.005" y="195.254"><tspan x="451.005" y="195.254" class="st6 st7 st8" style="font-size: 13px; word-spacing: 0px;">«Cold» PIM product information</tspan><tspan x="451.005" y="210.854" class="st6 st7 st8" style="font-size: 13px; word-spacing: 0px;">+ Asset media</tspan></text>
 <g transform="matrix(1, 0, 0, 1, -358.286469, -169.600739)">
  <g transform="translate(347 219)">
   <g class="st1">
    <path id="path-1" class="st2" d="M58.5,217.5h246.2c3,0,5.4,2.2,5.4,5v65c0,2.8-2.4,5-5.4,5H58.5c-3,0-5.4-2.2-5.4-5v-65 C53,219.7,55.5,217.5,58.5,217.5z"/>
   </g>
   <g>
    <path id="path-2" class="st3" d="M58.5,217.5h246.2c3,0,5.4,2.2,5.4,5v65c0,2.8-2.4,5-5.4,5H58.5c-3,0-5.4-2.2-5.4-5v-65 C53,219.7,55.5,217.5,58.5,217.5z"/>
   </g>
  </g>
  <path class="st22" d="M 414 455.5 L 442 455.5 C 444.8 455.5 447 457.7 447 460.5 L 447 488.5 C 447 491.3 444.8 493.5 442 493.5 L 414 493.5 C 411.2 493.5 409 491.3 409 488.5 L 409 460.5 C 409 457.7 411.3 455.5 414 455.5 Z"/>
  <path class="st5" d="M 424.8 468.1 C 422.5 469.4 420.9 471.7 420.9 474.4 C 420.9 477.1 422.5 479.5 424.9 480.8 M 426.5 480.4 L 428.9 482.4 L 428.9 478.4 L 426.5 480.4 L 426.5 480.4 Z M 430.5 468.1 C 432.8 469.4 434.4 471.7 434.4 474.4 C 434.4 477.1 432.8 479.5 430.4 480.8 M 428.8 468.5 L 426.4 470.5 L 426.4 466.5 L 428.8 468.5 Z"/>
  <text class="st9 st7 st10" style="white-space: pre; font-size: 17px;" x="462.039" y="480.458">PIM/ERP App</text>
 </g>
 <path class="st12" d="M 176.734 350.772 L 165.934 350.772 C 164.734 350.772 163.834 349.872 163.834 348.772 C 163.834 348.272 164.034 347.772 164.434 347.372 L 169.834 342.372 C 170.634 341.572 172.034 341.572 172.834 342.372 L 178.234 347.372 C 179.034 348.072 179.034 349.272 178.334 350.072 C 178.334 350.072 178.234 350.172 178.234 350.172 C 177.834 350.572 177.334 350.772 176.734 350.772 L 176.734 350.772 Z"/>
 <circle class="st12" cx="172.038" cy="266.574" r="5.5"/>
 <path class="st35" d="M 757.004 44.507 L 795.004 44.507 C 797.804 44.507 800.004 46.707 800.004 49.507 L 800.004 87.507 C 800.004 90.307 797.804 92.507 795.004 92.507 L 757.004 92.507 C 754.204 92.507 752.004 90.307 752.004 87.507 L 752.004 49.507 C 752.004 46.807 754.204 44.507 757.004 44.507 Z" style="fill: rgb(255, 103, 255);"/>
 <path d="M 791.294 66.934 C 790.575 66.934 789.965 67.34 789.744 67.95 L 782.986 67.95 L 782.986 63.172 L 781.546 61.85 L 787.805 56.106 C 788.026 56.208 788.249 56.259 788.525 56.259 C 789.467 56.259 790.187 55.598 790.187 54.734 C 790.187 53.87 789.467 53.209 788.525 53.209 C 787.584 53.209 786.864 53.87 786.864 54.734 C 786.864 54.988 786.919 55.191 787.029 55.395 L 780.77 61.139 L 779.331 59.817 L 776.339 59.817 L 776.339 56.157 C 777.004 55.954 777.446 55.395 777.446 54.734 C 777.446 53.87 776.727 53.209 775.785 53.209 C 774.843 53.209 774.124 53.87 774.124 54.734 C 774.124 55.395 774.566 55.954 775.231 56.157 L 775.231 59.817 L 769.36 59.817 L 764.541 55.395 C 764.651 55.191 764.707 54.988 764.707 54.734 C 764.707 53.87 763.987 53.209 763.045 53.209 C 762.104 53.209 761.383 53.87 761.383 54.734 C 761.383 55.598 762.104 56.259 763.045 56.259 C 763.322 56.259 763.544 56.208 763.765 56.106 L 768.584 60.529 L 768.584 67.95 L 762.38 67.95 C 762.159 67.34 761.55 66.934 760.83 66.934 C 759.888 66.934 759.168 67.594 759.168 68.459 C 759.168 69.323 759.888 69.983 760.83 69.983 C 761.55 69.983 762.159 69.577 762.38 68.967 L 768.584 68.967 L 768.584 76.388 L 763.765 80.811 C 763.544 80.709 763.322 80.658 763.045 80.658 C 762.104 80.658 761.383 81.319 761.383 82.183 C 761.383 83.047 762.104 83.708 763.045 83.708 C 763.987 83.708 764.707 83.047 764.707 82.183 C 764.707 81.929 764.651 81.726 764.541 81.522 L 769.36 77.1 L 775.231 77.1 L 775.231 80.76 C 774.566 80.963 774.124 81.522 774.124 82.183 C 774.124 83.047 774.843 83.708 775.785 83.708 C 776.727 83.708 777.446 83.047 777.446 82.183 C 777.446 81.522 777.004 80.963 776.339 80.76 L 776.339 77.1 L 782.211 77.1 L 787.029 81.522 C 786.919 81.726 786.864 81.929 786.864 82.183 C 786.864 83.047 787.584 83.708 788.525 83.708 C 789.467 83.708 790.187 83.047 790.187 82.183 C 790.187 81.319 789.467 80.658 788.525 80.658 C 788.249 80.658 788.026 80.709 787.805 80.811 L 782.986 76.388 L 782.986 68.967 L 789.744 68.967 C 789.965 69.577 790.575 69.983 791.294 69.983 C 792.237 69.983 792.956 69.323 792.956 68.459 C 792.956 67.594 792.237 66.934 791.294 66.934 Z M 788.525 54.226 C 788.858 54.226 789.079 54.429 789.079 54.734 C 789.079 55.039 788.858 55.242 788.525 55.242 C 788.193 55.242 787.971 55.039 787.971 54.734 C 787.971 54.429 788.193 54.226 788.525 54.226 Z M 775.785 54.226 C 776.117 54.226 776.339 54.429 776.339 54.734 C 776.339 55.039 776.117 55.242 775.785 55.242 C 775.453 55.242 775.231 55.039 775.231 54.734 C 775.231 54.429 775.453 54.226 775.785 54.226 Z M 760.83 68.967 C 760.497 68.967 760.276 68.764 760.276 68.459 C 760.276 68.154 760.497 67.95 760.83 67.95 C 761.162 67.95 761.383 68.154 761.383 68.459 C 761.383 68.764 761.162 68.967 760.83 68.967 Z M 775.785 82.691 C 775.453 82.691 775.231 82.488 775.231 82.183 C 775.231 81.878 775.453 81.675 775.785 81.675 C 776.117 81.675 776.339 81.878 776.339 82.183 C 776.339 82.488 776.117 82.691 775.785 82.691 Z M 779.663 61.545 L 781.102 62.867 L 779.663 62.867 L 779.663 61.545 Z M 762.492 54.734 C 762.492 54.429 762.713 54.226 763.045 54.226 C 763.378 54.226 763.6 54.429 763.6 54.734 C 763.6 55.039 763.378 55.242 763.045 55.242 C 762.713 55.242 762.492 55.039 762.492 54.734 Z M 763.045 82.691 C 762.713 82.691 762.492 82.488 762.492 82.183 C 762.492 81.878 762.713 81.675 763.045 81.675 C 763.378 81.675 763.6 81.878 763.6 82.183 C 763.6 82.488 763.378 82.691 763.045 82.691 Z M 769.692 76.083 L 769.692 60.834 L 778.555 60.834 L 778.555 63.884 L 781.878 63.884 L 781.878 76.083 L 769.692 76.083 Z M 789.079 82.183 C 789.079 82.488 788.858 82.691 788.525 82.691 C 788.193 82.691 787.971 82.488 787.971 82.183 C 787.971 81.878 788.193 81.675 788.525 81.675 C 788.858 81.675 789.079 81.878 789.079 82.183 Z M 791.294 68.967 C 790.962 68.967 790.741 68.764 790.741 68.459 C 790.741 68.154 790.962 67.95 791.294 67.95 C 791.627 67.95 791.849 68.154 791.849 68.459 C 791.849 68.764 791.627 68.967 791.294 68.967 Z" style="fill: rgb(255, 255, 255);"/>
 <rect x="787.156" y="264.492" class="st37" width="61.1" height="98.2" style="stroke: rgb(232, 177, 221);"/>
 <rect x="792.756" y="270.492" class="st38" width="11.9" height="21" style="stroke: rgb(232, 177, 221); fill: rgb(232, 177, 221);"/>
 <line class="st39" x1="812.656" y1="275.492" x2="836.756" y2="275.492" style="stroke: rgb(232, 177, 221);"/>
 <line class="st39" x1="812.656" y1="283.492" x2="836.756" y2="283.492" style="stroke: rgb(232, 177, 221);"/>
 <line class="st39" x1="794.756" y1="299.692" x2="838.756" y2="299.692" style="stroke: rgb(232, 177, 221);"/>
 <line class="st39" x1="794.756" y1="309.992" x2="838.756" y2="309.992" style="stroke: rgb(232, 177, 221);"/>
 <line class="st39" x1="794.756" y1="321.992" x2="838.756" y2="321.992" style="stroke: rgb(232, 177, 221);"/>
 <rect x="836.756" y="277.492" class="st37" width="61.1" height="98.2" style="stroke: rgb(232, 177, 221);"/>
 <rect x="842.356" y="282.792" class="st38" width="11.9" height="21" style="stroke: rgb(232, 177, 221); fill: rgb(232, 177, 221);"/>
 <line class="st39" x1="862.156" y1="287.792" x2="886.356" y2="287.792" style="stroke: rgb(232, 177, 221);"/>
 <line class="st39" x1="862.156" y1="295.792" x2="886.356" y2="295.792" style="stroke: rgb(232, 177, 221);"/>
 <line class="st39" x1="844.356" y1="311.992" x2="888.356" y2="311.992" style="stroke: rgb(232, 177, 221);"/>
 <line class="st39" x1="844.356" y1="322.292" x2="888.356" y2="322.292" style="stroke: rgb(232, 177, 221);"/>
 <line class="st39" x1="844.356" y1="334.292" x2="888.356" y2="334.292" style="stroke: rgb(232, 177, 221);"/>
 <rect x="886.356" y="287.992" class="st37" width="61.1" height="98.2" style="stroke: rgb(232, 177, 221);"/>
 <rect x="891.956" y="293.792" class="st38" width="11.9" height="21" style="stroke: rgb(232, 177, 221); fill: rgb(232, 177, 221);"/>
 <line class="st39" x1="911.756" y1="298.792" x2="935.956" y2="298.792" style="stroke: rgb(232, 177, 221);"/>
 <line class="st39" x1="911.756" y1="306.792" x2="935.956" y2="306.792" style="stroke: rgb(232, 177, 221);"/>
 <line class="st39" x1="893.956" y1="322.992" x2="937.956" y2="322.992" style="stroke: rgb(232, 177, 221);"/>
 <line class="st39" x1="893.956" y1="333.292" x2="937.956" y2="333.292" style="stroke: rgb(232, 177, 221);"/>
 <line class="st39" x1="893.956" y1="345.292" x2="937.956" y2="345.292" style="stroke: rgb(232, 177, 221);"/>
 <text class="st40 st30 st31" style="fill: rgb(235, 127, 213); white-space: pre; font-size: 20px;" x="793.511" y="350.383">$</text>
 <text class="st40 st30 st31" style="fill: rgb(235, 127, 213); white-space: pre; font-size: 20px;" x="844.343" y="366.244">$</text>
 <text class="st40 st30 st31" style="fill: rgb(235, 127, 213); white-space: pre; font-size: 20px;" x="894.916" y="377.383">$</text>
 <g transform="matrix(1, 0, 0, 1, -1.44371, -357.90802)">
  <g>
   <line class="st41" x1="812.9" y1="710.3" x2="812.9" y2="705.3" style="stroke: rgb(235, 127, 213);"/>
   <line class="st41" x1="817.5" y1="710.3" x2="817.5" y2="702.4" style="stroke: rgb(235, 127, 213);"/>
   <line class="st41" x1="822.2" y1="710.3" x2="822.2" y2="699.7" style="stroke: rgb(235, 127, 213);"/>
  </g>
 </g>
 <g transform="matrix(1, 0, 0, 1, -1.44371, -357.90802)">
  <g>
   <line class="st41" x1="863.2" y1="725.6" x2="863.2" y2="720.6" style="stroke: rgb(235, 127, 213);"/>
   <line class="st41" x1="867.7" y1="725.6" x2="867.7" y2="717.7" style="stroke: rgb(235, 127, 213);"/>
   <line class="st41" x1="872.4" y1="725.6" x2="872.4" y2="715" style="stroke: rgb(235, 127, 213);"/>
  </g>
 </g>
 <g transform="matrix(1, 0, 0, 1, -1.44371, -357.90802)">
  <g>
   <line class="st41" x1="914.2" y1="736.6" x2="914.2" y2="731.6" style="stroke: rgb(235, 127, 213);"/>
   <line class="st41" x1="918.7" y1="736.6" x2="918.7" y2="728.7" style="stroke: rgb(235, 127, 213);"/>
   <line class="st41" x1="923.4" y1="736.6" x2="923.4" y2="726" style="stroke: rgb(235, 127, 213);"/>
  </g>
 </g>
 <path class="st16" d="M 748.759 111.117 L 979.559 111.117 L 979.559 112.017 L 748.759 112.017 L 748.759 111.117 Z" style="fill: rgb(232, 177, 221);"/>
 <text class="st6 st7 st8" style="white-space: pre; font-size: 13px;" x="453.803" y="145.567">The piece of software you need</text>
 <text class="st6 st7 st8" style="white-space: pre; font-size: 13px;" x="454.803" y="161.567">to develop</text>
</svg>
