<?xml version="1.0" encoding="utf-8"?>
<svg viewBox="0 0 1028 469" style="enable-background:new 0 0 1028 469;" xmlns="http://www.w3.org/2000/svg">
 <defs>
  <style type="text/css">
	.st0{fill-rule:evenodd;clip-rule:evenodd;fill:#F5F9F8;}
	.st1{filter:url(#d);}
	.st2{fill-rule:evenodd;clip-rule:evenodd;}
	.st3{fill-rule:evenodd;clip-rule:evenodd;fill:#FFFFFF;}
	.st4{fill-rule:evenodd;clip-rule:evenodd;fill:#4EA7DD;}
	.st5{fill-rule:evenodd;clip-rule:evenodd;fill:#E0F1FC;}
	.st6{enable-background:new    ;}
	.st7{fill:#3A438B;}
	.st8{font-family:'Lato-Italic';}
	.st9{font-size:24px;}
	.st10{fill-rule:evenodd;clip-rule:evenodd;fill:#8F92C7;}
	.st11{filter:url(#i);}
	.st12{fill-rule:evenodd;clip-rule:evenodd;fill:#5D63AA;}
	.st13{fill:none;stroke:#FFFFFF;stroke-linecap:round;stroke-linejoin:round;}
	.st14{fill:#8F92C7;}
	.st15{font-size:13px;}
	.st16{font-size:17px;}
	.st17{fill:none;stroke:#8F92C7;stroke-width:2;stroke-linecap:round;stroke-linejoin:round;stroke-dasharray:2,6;}
	.st18{filter:url(#k);}
	.st19{fill-rule:evenodd;clip-rule:evenodd;fill:#82549D;}
	.st20{fill-rule:evenodd;clip-rule:evenodd;fill:#F9F9FB;}
	.st21{fill:#FFFFFF;}
	.st22{fill-rule:evenodd;clip-rule:evenodd;fill:#FFFFFF;stroke:#B9A7C9;stroke-miterlimit:10;}
	.st23{fill-rule:evenodd;clip-rule:evenodd;fill:#B9A7C9;stroke:#FFFFFF;stroke-miterlimit:10;}
	.st24{fill:#FFFFFF;stroke:#B9A7C9;stroke-miterlimit:10;}
	.st25{fill:none;stroke:#B9A7C9;stroke-miterlimit:10;}
	.st26{fill-rule:evenodd;clip-rule:evenodd;fill:#FFFFFF;stroke:#B1D9E8;stroke-miterlimit:10;}
	.st27{fill-rule:evenodd;clip-rule:evenodd;fill:#B1D9E8;}
	.st28{fill:none;stroke:#B1D9E8;stroke-miterlimit:10;}
</style>
 </defs>
 <filter filterUnits="objectBoundingBox" height="114.7%" id="d" width="123.4%" x="-10.9%" y="-6.3%">
  <feOffset dx="2" dy="4" in="SourceAlpha" result="shadowOffsetOuter1"/>
  <feGaussianBlur in="shadowOffsetOuter1" result="shadowBlurOuter1" stdDeviation="9"/>
  <feColorMatrix in="shadowBlurOuter1" values="0 0 0 0 0.0352941176 0 0 0 0 0.117647059 0 0 0 0 0.258823529 0 0 0 0.14 0"/>
 </filter>
 <filter filterUnits="objectBoundingBox" height="177.3%" id="i" width="124.5%" x="-11.4%" y="-33.3%">
  <feOffset dx="2" dy="4" in="SourceAlpha" result="shadowOffsetOuter1"/>
  <feGaussianBlur in="shadowOffsetOuter1" result="shadowBlurOuter1" stdDeviation="9"/>
  <feColorMatrix in="shadowBlurOuter1" values="0 0 0 0 0.0352941176 0 0 0 0 0.117647059 0 0 0 0 0.258823529 0 0 0 0.14 0"/>
 </filter>
 <filter filterUnits="objectBoundingBox" height="114.7%" id="k" width="117.7%" x="-8.2%" y="-6.3%">
  <feOffset dx="2" dy="4" in="SourceAlpha" result="shadowOffsetOuter1"/>
  <feGaussianBlur in="shadowOffsetOuter1" result="shadowBlurOuter1" stdDeviation="9"/>
  <feColorMatrix in="shadowBlurOuter1" values="0 0 0 0 0.0352941176 0 0 0 0 0.117647059 0 0 0 0 0.258823529 0 0 0 0.14 0"/>
 </filter>
 <path class="st0" d="M0,0h1028v469H0V0z"/>
 <g transform="matrix(1.10172, 0, 0, 1, -40.085087, 34)" style="">
  <g class="st1">
   <path id="e_2_" class="st2" d="M699,107h228c5.5,0,10,2.4,10,5.3v197.5c0,2.9-4.5,5.3-10,5.3H699c-5.5,0-10-2.4-10-5.3V112.2 C689,109.3,693.5,107,699,107z"/>
  </g>
  <g>
   <path id="e_1_" class="st3" d="M699,107h228c5.5,0,10,2.4,10,5.3v197.5c0,2.9-4.5,5.3-10,5.3H699c-5.5,0-10-2.4-10-5.3V112.2 C689,109.3,693.5,107,699,107z"/>
  </g>
 </g>
 <path class="st4" d="M 742 151 L 780 151 C 782.8 151 785 153.2 785 156 L 785 194 C 785 196.8 782.8 199 780 199 L 742 199 C 739.2 199 737 196.8 737 194 L 737 156 C 737 153.2 739.2 151 742 151 Z" style="fill: rgb(247, 75, 100);"/>
 <path class="st5" d="M752,218h208v1H752V218z" style="fill: rgb(238, 175, 185);"/>
 <text transform="matrix(1, 0, 0, 1, 805.001221, 169.968796)" class="st6" style="white-space: pre;"><tspan x="0" y="0" class="st7 st8 st9">Your Translation<tspan x="0" dy="1em">​</tspan>Solution</tspan></text>
 <path class="st10" d="M 387.5 261.4 L 387.5 250.6 C 387.5 249.4 388.4 248.5 389.5 248.5 C 390 248.5 390.5 248.7 390.9 249.1 L 395.9 254.5 C 396.7 255.3 396.7 256.7 395.9 257.5 L 390.9 262.9 C 390.2 263.7 389 263.7 388.2 263 C 388.2 263 388.1 262.9 388.1 262.9 C 387.7 262.5 387.5 261.9 387.5 261.4 L 387.5 261.4 Z"/>
 <g transform="matrix(1.014126, 0, 0, 1, 342.62088, 225)" style="">
  <g class="st11">
   <path id="j_2_" class="st2" d="M58.4,0h246.2c3,0,5.4,2.2,5.4,5v65c0,2.8-2.4,5-5.4,5H58.4c-3,0-5.4-2.2-5.4-5V5 C53,2.2,55.4,0,58.4,0z"/>
  </g>
  <g>
   <path id="j_1_" class="st3" d="M58.4,0h246.2c3,0,5.4,2.2,5.4,5v65c0,2.8-2.4,5-5.4,5H58.4c-3,0-5.4-2.2-5.4-5V5 C53,2.2,55.4,0,58.4,0z"/>
  </g>
 </g>
 <g transform="matrix(1, 0, 0, 1, 352, 229)">
  <path class="st12" d="M57,0h28c2.8,0,5,2.2,5,5v28c0,2.8-2.2,5-5,5H57c-2.8,0-5-2.2-5-5V5C52,2.2,54.2,0,57,0z"/>
  <path class="st13" d="M67.7,12.7c-2.3,1.3-3.9,3.6-3.9,6.3c0,2.7,1.6,5.1,4,6.4 M69.4,24.9l2.4,2v-4L69.4,24.9L69.4,24.9z M73.5,12.7c2.3,1.3,3.9,3.6,3.9,6.3c0,2.7-1.6,5.1-4,6.4 M71.8,13.1l-2.4,2v-4L71.8,13.1z"/>
 </g>
 <text class="st14 st8 st15" style="white-space: pre; font-size: 13px;" x="453" y="262">The piece of software you are </text>
 <text class="st14 st8 st15" style="white-space: pre; font-size: 13px;" x="453" y="278">going to write</text>
 <text class="st7 st8 st16" style="white-space: pre; font-size: 17px;" x="453" y="245">PIM/Translation connector</text>
 <g transform="matrix(1, 0, 0, 1, 654, 34)">
  <g class="st18">
   <path id="l_2_" class="st2" d="M-605,107h278c5,0,9,2.4,9,5.3v197.5c0,2.9-4,5.3-9,5.3h-278c-5,0-9-2.4-9-5.3V112.2 C-614,109.3-610,107-605,107z"/>
  </g>
  <g>
   <path id="l_1_" class="st3" d="M-605,107h278c5,0,9,2.4,9,5.3v197.5c0,2.9-4,5.3-9,5.3h-278c-5,0-9-2.4-9-5.3V112.2 C-614,109.3-610,107-605,107z"/>
  </g>
 </g>
 <g transform="matrix(1, 0, 0, 1, 674, 54)">
  <path class="st19" d="M-609,94h38c2.8,0,5,2.2,5,5v38c0,2.8-2.2,5-5,5h-38c-2.8,0-5-2.2-5-5V99C-614,96.2-611.8,94-609,94z"/>
  <path class="st20" d="M-579.3,117.3c0-0.1,0-0.1,0-0.2c0-0.1,0.1-0.2,0.1-0.3c0.2-1.1-0.2-2.3-1-3.7c-0.1-0.1-0.2-0.2-0.2-0.4 c-0.1-0.2-0.3-0.4-0.4-0.6c0,0,0,0-0.1-0.1c0-0.1-0.1-0.1-0.1-0.2c0-0.1-0.1-0.1-0.1-0.2c0-0.1-0.1-0.1-0.1-0.2 c-0.1-0.1-0.1-0.1-0.1-0.2c0,0-0.1-0.1-0.1-0.1c-1.3-1.6-2.9-3.1-4.6-4.4c0.2,2.2,0.1,4.4-0.1,6.1c-0.3,2.1-1.2,4.5-2.3,6.7 c-2.5-0.3-4.9-0.9-6.9-1.8c-1.6-0.8-3.4-1.9-5.2-3.3l0.1,0.5c0,0.1,0,0.1,0,0.2c0,0.1,0,0.3,0,0.4c0,0.1,0,0.1,0,0.2 c0,0.1,0,0.3,0.1,0.4c0,0.1,0,0.1,0,0.2c0,0.2,0,0.3,0.1,0.5c0,0.2,0.1,0.4,0.1,0.6c0,0.2,0.1,0.4,0.1,0.5c0,0,0,0.1,0,0.1 c0,0.2,0.1,0.3,0.1,0.5c0,0,0,0.1,0,0.1c0.1,0.7,0.3,1.4,0.5,2.1c0.3,0.9,0.6,1.7,0.9,2.3c0.1,0.1,0.1,0.2,0.2,0.3 c0.1,0.1,0.1,0.2,0.1,0.3c0.1,0.1,0.1,0.2,0.2,0.3c0.1,0.1,0.2,0.2,0.2,0.4c0,0.1,0,0.1,0.1,0.1c0.1,0.1,0.2,0.2,0.3,0.3 c0.1,0.1,0.1,0.1,0.2,0.2l0.1,0.1c0,0,0.1,0.1,0.1,0.1l0.1,0.1c0,0,0.1,0.1,0.1,0.1c0,0,0.1,0.1,0.1,0.1c0,0,0.1,0.1,0.1,0.1 c0,0,0.1,0,0.1,0.1c0,0,0.1,0.1,0.1,0.1c0,0,0.1,0,0.1,0.1c0.1,0,0.1,0.1,0.2,0.1c0,0,0.1,0,0.1,0c0.1,0,0.2,0.1,0.2,0.1 c0.1,0,0.1,0,0.1,0.1c3.9,1.1,7.8-0.3,12.4,3.2C-583.9,123.4-580.5,121.1-579.3,117.3L-579.3,117.3z"/>
 </g>
 <path class="st5" d="M58,216H318v1H58V216z"/>
 <text transform="matrix(1, 0, 0, 1, 123, 191)" class="st14 st8 st15" style="white-space: pre;">The master of your products</text>
 <text transform="matrix(1, 0, 0, 1, 123, 174)" class="st7 st8 st9" style="white-space: pre;">Akeneo PIM</text>
 <path class="st17" d="M 345.823 274.789 L 391.655 274.789" style=""/>
 <circle class="st10" cx="338" cy="256" r="5.5"/>
 <g>
  <rect x="92.4" y="226.8" class="st22" width="61.1" height="80.4"/>
  <rect x="98" y="232.8" class="st23" width="11.9" height="21"/>
  <line class="st24" x1="117.9" y1="237.8" x2="142" y2="237.8"/>
  <line class="st24" x1="117.9" y1="245.8" x2="142" y2="245.8"/>
  <line class="st25" x1="100" y1="262" x2="144" y2="262"/>
  <line class="st25" x1="100" y1="272.3" x2="144" y2="272.3"/>
  <line class="st25" x1="100" y1="284.3" x2="144" y2="284.3"/>
 </g>
 <g>
  <rect x="134.4" y="240.1" class="st22" width="61.1" height="80.4"/>
  <rect x="140" y="246.1" class="st23" width="11.9" height="21"/>
  <line class="st24" x1="159.9" y1="251.1" x2="184" y2="251.1"/>
  <line class="st24" x1="159.9" y1="259.1" x2="184" y2="259.1"/>
  <line class="st25" x1="142" y1="275.3" x2="186" y2="275.3"/>
  <line class="st25" x1="142" y1="285.6" x2="186" y2="285.6"/>
  <line class="st25" x1="142" y1="297.6" x2="186" y2="297.6"/>
 </g>
 <g>
  <rect x="186" y="249.4" class="st22" width="61.1" height="80.4"/>
  <rect x="191.6" y="255.4" class="st23" width="11.9" height="21"/>
  <line class="st24" x1="211.4" y1="260.4" x2="235.6" y2="260.4"/>
  <line class="st24" x1="211.4" y1="268.4" x2="235.6" y2="268.4"/>
  <line class="st25" x1="193.6" y1="284.6" x2="237.6" y2="284.6"/>
  <line class="st25" x1="193.6" y1="294.9" x2="237.6" y2="294.9"/>
  <line class="st25" x1="193.6" y1="306.9" x2="237.6" y2="306.9"/>
 </g>
 <g>
  <rect x="775.6" y="227.1" class="st26" width="61.1" height="80.4" style="paint-order: stroke markers; fill-rule: nonzero; fill: none; stroke: rgb(238, 175, 185);"/>
  <rect x="781.2" y="233.1" class="st27" width="11.9" height="21" style="fill: rgb(238, 175, 185);"/>
  <line class="st28" x1="801.1" y1="238.1" x2="825.2" y2="238.1" style="stroke: rgb(238, 175, 185);"/>
  <line class="st28" x1="801.1" y1="246.1" x2="825.2" y2="246.1" style="stroke: rgb(238, 175, 185);"/>
  <line class="st28" x1="783.2" y1="262.3" x2="827.2" y2="262.3" style="stroke: rgb(238, 175, 185);"/>
  <line class="st28" x1="783.2" y1="272.6" x2="827.2" y2="272.6" style="stroke: rgb(238, 175, 185);"/>
  <line class="st28" x1="783.2" y1="284.6" x2="827.2" y2="284.6" style="stroke: rgb(238, 175, 185);"/>
 </g>
 <g>
  <rect x="825.2" y="239.4" class="st26" width="61.1" height="80.4" style="stroke: rgb(238, 175, 185);"/>
  <rect x="830.8" y="245.4" class="st27" width="11.9" height="21" style="fill: rgb(238, 175, 185);"/>
  <line class="st28" x1="850.6" y1="250.4" x2="874.8" y2="250.4" style="stroke: rgb(238, 175, 185);"/>
  <line class="st28" x1="850.6" y1="258.4" x2="874.8" y2="258.4" style="stroke: rgb(238, 175, 185);"/>
  <line class="st28" x1="832.8" y1="274.6" x2="876.8" y2="274.6" style="stroke: rgb(238, 175, 185);"/>
  <line class="st28" x1="832.8" y1="284.9" x2="876.8" y2="284.9" style="stroke: rgb(238, 175, 185);"/>
  <line class="st28" x1="832.8" y1="296.9" x2="876.8" y2="296.9" style="stroke: rgb(238, 175, 185);"/>
 </g>
 <g>
  <rect x="874.8" y="250.4" class="st26" width="61.1" height="80.4" style="stroke: rgb(238, 175, 185);"/>
  <rect x="880.4" y="256.4" class="st27" width="11.9" height="21" style="fill: rgb(238, 175, 185);"/>
  <line class="st28" x1="900.2" y1="261.4" x2="924.4" y2="261.4" style="stroke: rgb(238, 175, 185);"/>
  <line class="st28" x1="900.2" y1="269.4" x2="924.4" y2="269.4" style="stroke: rgb(238, 175, 185);"/>
  <line class="st28" x1="882.4" y1="285.6" x2="926.4" y2="285.6" style="stroke: rgb(238, 175, 185);"/>
  <line class="st28" x1="882.4" y1="295.9" x2="926.4" y2="295.9" style="stroke: rgb(238, 175, 185);"/>
  <line class="st28" x1="882.4" y1="307.9" x2="926.4" y2="307.9" style="stroke: rgb(238, 175, 185);"/>
 </g>
 <circle class="st10" cx="396.059" cy="274.49" r="5.5"/>
 <path class="st17" d="M 343.141 257.005 L 388.973 257.005" style=""/>
 <path class="st10" d="M 335.832 280.072 L 335.832 269.272 C 335.832 268.072 336.732 267.172 337.832 267.172 C 338.332 267.172 338.832 267.372 339.232 267.772 L 344.232 273.172 C 345.032 273.972 345.032 275.372 344.232 276.172 L 339.232 281.572 C 338.532 282.372 337.332 282.372 336.532 281.672 C 336.532 281.672 336.432 281.572 336.432 281.572 C 336.032 281.172 335.832 280.572 335.832 280.072 L 335.832 280.072 Z" transform="matrix(-1, 0, 0, -1, 680.664001, 549.357117)"/>
 <path d="M 757.25 183.778 L 751.55 183.778 L 751.55 182.058 L 753.02 181.848 L 759.98 163.868 L 762.29 163.868 L 769.13 181.848 L 770.59 182.058 L 770.59 183.778 L 764.88 183.778 L 764.88 182.058 L 766.38 181.798 L 765.07 178.128 L 757.1 178.128 L 755.74 181.798 L 757.25 182.058 L 757.25 183.778 Z M 760.91 167.778 L 757.93 175.878 L 764.25 175.878 L 761.32 167.778 L 761.16 167.328 L 761.08 167.328 L 760.91 167.778 Z" transform="matrix(1, 0, 0, 1, 0, 0)" style="fill: rgb(255, 255, 255); white-space: pre;"/>
 <path class="st10" d="M 708.879 257.94 L 708.879 247.14 C 708.879 245.94 709.779 245.04 710.879 245.04 C 711.379 245.04 711.879 245.24 712.279 245.64 L 717.279 251.04 C 718.079 251.84 718.079 253.24 717.279 254.04 L 712.279 259.44 C 711.579 260.24 710.379 260.24 709.579 259.54 C 709.579 259.54 709.479 259.44 709.479 259.44 C 709.079 259.04 708.879 258.44 708.879 257.94 L 708.879 257.94 Z"/>
 <path class="st17" d="M 666.202 271.329 L 712.034 271.329" style=""/>
 <circle class="st10" cx="658.379" cy="252.54" r="5.5"/>
 <circle class="st10" cx="716.438" cy="271.03" r="5.5"/>
 <path class="st17" d="M 665.519 253.545 L 711.351 253.545" style=""/>
 <path class="st10" d="M 656.211 276.612 L 656.211 265.812 C 656.211 264.612 657.111 263.712 658.211 263.712 C 658.711 263.712 659.211 263.912 659.611 264.312 L 664.611 269.712 C 665.411 270.512 665.411 271.912 664.611 272.712 L 659.611 278.112 C 658.911 278.912 657.711 278.912 656.911 278.212 C 656.911 278.212 656.811 278.112 656.811 278.112 C 656.411 277.712 656.211 277.112 656.211 276.612 L 656.211 276.612 Z" transform="matrix(-1, 0, 0, -1, 1321.421997, 542.437134)"/>
</svg>
