<?xml version="1.0" encoding="UTF-8"?>
<svg width="243px" height="204px" viewBox="0 0 243 204" version="1.1" xmlns="http://www.w3.org/2000/svg" xmlns:xlink="http://www.w3.org/1999/xlink">
    <!-- Generator: Sketch 47.1 (45422) - http://www.bohemiancoding.com/sketch -->
    <title>Locale</title>
    <desc>Created with Sketch.</desc>
    <defs>
        <path d="M53.4838446,33.0915423 C47.9219344,32.9337467 41.675306,32.5156408 41.12,31.619 C38.566,33.565 14.134,39.329 14.178,36.179 C14.223,33.028 3.312,17.895 3.312,17.895 L0.057,5.319 L1.58047755,0.5383 L53.4838446,0.5383 L53.4838446,33.0915423 L53.4838446,33.0915423 Z" id="path-1"></path>
        <path d="M1.89915003,0.5383 L0.057,6.319 L3.312,18.895 C3.312,18.895 14.223,34.028 14.178,37.179 C14.134,40.329 38.566,34.565 41.12,32.619 C41.7096159,33.5710404 48.7155656,33.9835858 54.5054387,34.1178612 L54.5054387,0.5383 L1.89915003,0.5383 L1.89915003,0.5383 Z" id="path-3"></path>
        <path d="M39.4241,16.6539379 C33.0510378,21.9952719 26.7478216,24.0819594 24.149,24.148 C19.898,24.255 4.992,24.027 4.12,22.619 C3.631593,22.9911378 2.34311305,23.502899 0.578728166,24.0652445 L0.578728166,0.4456 L39.4241,0.4456 L39.4241,16.6539379 L39.4241,16.6539379 Z" id="path-5"></path>
        <path d="M0.581955127,25.3732 C2.85351757,24.6915894 4.54371037,24.0580993 5.12,23.619 C5.992,25.027 20.898,25.255 25.149,25.148 C27.8837146,25.0785061 34.7203598,22.7715201 41.4239,16.7891655 L41.4239,0.4453 L0.581955127,0.4453 L0.581955127,25.3732 L0.581955127,25.3732 Z" id="path-7"></path>
        <path d="M11.5366,12.1391501 C7.85371288,12.0724495 3.45010086,11.8928321 0.4786,11.5266155 L0.4786,0.620511746 L11.5366,0.620511746 L11.5366,12.1391501 L11.5366,12.1391501 Z" id="path-9"></path>
        <path d="M13.5446,12.1549009 C9.48211647,12.1015978 4.19969432,11.9078311 0.9786,11.461297 L0.9786,0.120511356 L13.5446,0.120511356 L13.5446,12.1549009 L13.5446,12.1549009 Z" id="path-11"></path>
        <path d="M24.687,38.12199 C18.8630636,37.9921705 11.715793,37.5810143 11.12,36.619 C10.0718367,37.4176397 5.33879036,38.8593401 0.125,40.0640242 L0.125,0.6019 L24.687,0.6019 L24.687,38.12199 L24.687,38.12199 Z" id="path-13"></path>
        <path d="M26.6862,39.1418046 C20.7148322,39.0380441 12.7503745,38.6368525 12.12,37.619 C11.0123473,38.4629672 5.78966393,40.0250616 0.2332,41.2666916 L0.2332,0.6015 L26.6862,0.6015 L26.6862,39.1418046 L26.6862,39.1418046 Z" id="path-15"></path>
        <path d="M34.2845105,25.0536881 C29.0590533,24.8716111 23.635663,24.4516301 23.12,23.619 C21.2432853,25.0489479 7.55351233,28.5404304 0.442272437,29.0418504 L0.442272437,0.5088 L34.2845095,0.5088 L34.2845095,25.0536881 L34.2845105,25.0536881 Z" id="path-17"></path>
        <path d="M0.957738032,29.0718816 C7.91134005,28.7036991 22.1997046,25.0821538 24.12,23.619 C24.6521316,24.4782216 30.4104694,24.8980159 35.7843902,25.0704107 L35.7843902,0.0084 L0.957738032,0.0084 L0.957738032,29.0718816 L0.957738032,29.0718816 Z" id="path-19"></path>
        <path d="M4.3149,139.136537 C2.86714111,139.282528 1.4675152,139.191145 0.3109,139.029514 L0.3109,0.1123 L4.3149,0.1123 L4.3149,139.136537 L4.3149,139.136537 Z" id="path-21"></path>
        <path d="M0.3101,139.86373 C1.82930611,140.154847 4.06751615,140.402417 6.3141,139.997006 L6.3141,0.1123 L0.3101,0.1123 L0.3101,139.86373 L0.3101,139.86373 Z" id="path-23"></path>
    </defs>
    <g id="Page-1" stroke="none" stroke-width="1" fill="none" fill-rule="evenodd">
        <g id="Artboard" transform="translate(-6.000000, -25.000000)">
            <g id="Locale">
                <g id="Page-1" transform="translate(6.000000, 24.000000)">
                    <g id="Group-33" transform="translate(0.000000, 87.476000)">
                        <path d="M20.9941,103.7158 C20.9941,46.5228 67.3581,0.1578 124.5521,0.1578 C181.7451,0.1578 228.1101,46.5228 228.1101,103.7158 L20.9941,103.7158 Z" id="Fill-1" fill="#E1F2FF"></path>
                        <path d="M26.6094,115.5283 L48.9424,115.5283" id="Fill-3" fill="#FFFFFF"></path>
                        <path d="M48.9424,116.5283 L26.6094,116.5283 C26.0564,116.5283 25.6094,116.0813 25.6094,115.5283 C25.6094,114.9753 26.0564,114.5283 26.6094,114.5283 L48.9424,114.5283 C49.4954,114.5283 49.9424,114.9753 49.9424,115.5283 C49.9424,116.0813 49.4954,116.5283 48.9424,116.5283" id="Fill-5" fill="#9ACDED"></path>
                        <path d="M241.2187,105.5654 L236.2187,105.5654 C235.6657,105.5654 235.2187,105.1184 235.2187,104.5654 C235.2187,104.0124 235.6657,103.5654 236.2187,103.5654 L241.2187,103.5654 C241.7717,103.5654 242.2187,104.0124 242.2187,104.5654 C242.2187,105.1184 241.7717,105.5654 241.2187,105.5654" id="Fill-7" fill="#9ACDED"></path>
                        <path d="M1,104.5654 L6.333,104.5654" id="Fill-9" fill="#FFFFFF"></path>
                        <path d="M6.333,105.5654 L1,105.5654 C0.447,105.5654 0,105.1184 0,104.5654 C0,104.0124 0.447,103.5654 1,103.5654 L6.333,103.5654 C6.886,103.5654 7.333,104.0124 7.333,104.5654 C7.333,105.1184 6.886,105.5654 6.333,105.5654" id="Fill-11" fill="#9ACDED"></path>
                        <path d="M92.3467,115.5283 L148.0737,115.5283" id="Fill-13" fill="#FFFFFF"></path>
                        <path d="M148.0732,116.5283 L92.3462,116.5283 C91.7942,116.5283 91.3462,116.0813 91.3462,115.5283 C91.3462,114.9753 91.7942,114.5283 92.3462,114.5283 L148.0732,114.5283 C148.6262,114.5283 149.0732,114.9753 149.0732,115.5283 C149.0732,116.0813 148.6262,116.5283 148.0732,116.5283" id="Fill-15" fill="#9ACDED"></path>
                        <path d="M154.7187,115.5283 L166.0517,115.5283" id="Fill-17" fill="#FFFFFF"></path>
                        <path d="M166.0518,116.5283 L154.7188,116.5283 C154.1658,116.5283 153.7188,116.0813 153.7188,115.5283 C153.7188,114.9753 154.1658,114.5283 154.7188,114.5283 L166.0518,114.5283 C166.6048,114.5283 167.0518,114.9753 167.0518,115.5283 C167.0518,116.0813 166.6048,116.5283 166.0518,116.5283" id="Fill-19" fill="#9ACDED"></path>
                        <path d="M87.3857,115.5283 L83.0517,115.5283" id="Fill-21" fill="#FFFFFF"></path>
                        <path d="M87.3857,116.5283 L83.0517,116.5283 C82.4987,116.5283 82.0517,116.0813 82.0517,115.5283 C82.0517,114.9753 82.4987,114.5283 83.0517,114.5283 L87.3857,114.5283 C87.9387,114.5283 88.3857,114.9753 88.3857,115.5283 C88.3857,116.0813 87.9387,116.5283 87.3857,116.5283" id="Fill-23" fill="#9ACDED"></path>
                        <path d="M15.5518,115.5283 L19.2188,115.5283" id="Fill-25" fill="#FFFFFF"></path>
                        <path d="M19.2188,116.5283 L15.5518,116.5283 C14.9988,116.5283 14.5518,116.0813 14.5518,115.5283 C14.5518,114.9753 14.9988,114.5283 15.5518,114.5283 L19.2188,114.5283 C19.7718,114.5283 20.2188,114.9753 20.2188,115.5283 C20.2188,116.0813 19.7718,116.5283 19.2188,116.5283" id="Fill-27" fill="#9ACDED"></path>
                        <path d="M213.2129,115.5283 L226.8799,115.5283" id="Fill-29" fill="#FFFFFF"></path>
                        <path d="M226.8799,116.5283 L213.2129,116.5283 C212.6599,116.5283 212.2129,116.0813 212.2129,115.5283 C212.2129,114.9753 212.6599,114.5283 213.2129,114.5283 L226.8799,114.5283 C227.4329,114.5283 227.8799,114.9753 227.8799,115.5283 C227.8799,116.0813 227.4329,116.5283 226.8799,116.5283" id="Fill-31" fill="#9ACDED"></path>
                    </g>
                    <g id="Group-232" transform="translate(154.000000, 145.476000)">
                        <g id="Group-36" transform="translate(0.000000, 8.000000)">
                            <mask id="mask-2" fill="white">
                                <use xlink:href="#path-1"></use>
                            </mask>
                            <g id="Clip-35"></g>
                            <path d="M49.4951,46.9453 C45.1151,46.8553 41.0111,43.8403 32.0741,43.4273 C31.9451,42.8433 31.7881,42.3163 31.5891,41.8833 C29.9721,38.3823 27.6891,28.2903 29.1551,21.6613 L30.3151,16.4163 C30.6951,14.6943 30.8881,12.9373 30.8881,11.1743 C30.8881,10.4403 30.8131,9.7233 30.6711,9.0313 C30.6361,8.8583 30.5971,8.6863 30.5531,8.5163 C30.4221,8.0073 30.2541,7.5113 30.0521,7.0343 C29.9841,6.8763 29.9131,6.7183 29.8391,6.5633 C29.6891,6.2533 29.5251,5.9523 29.3481,5.6593 C29.1701,5.3673 28.9781,5.0843 28.7741,4.8103 C28.1621,3.9913 27.4331,3.2633 26.6151,2.6513 C26.3421,2.4473 26.0581,2.2563 25.7661,2.0783 C24.1581,1.1003 22.2701,0.5383 20.2511,0.5383 L18.5071,0.5383 C15.5691,0.5383 12.9101,1.7283 10.9851,3.6533 C10.7451,3.8943 10.5161,4.1463 10.2991,4.4093 C9.9051,4.8863 9.5551,5.4003 9.2471,5.9423 C9.1321,6.1453 9.0201,6.3513 8.9191,6.5633 C8.8451,6.7183 8.7731,6.8763 8.7061,7.0343 C8.5041,7.5113 8.3361,8.0073 8.2051,8.5163 C8.0741,9.0263 7.9791,9.5503 7.9251,10.0873 C7.8891,10.4453 7.8701,10.8073 7.8701,11.1743 C7.8701,11.9073 8.1671,12.5703 8.6461,13.0493 C9.1271,13.5293 9.7891,13.8263 10.5211,13.8263 L21.4121,13.8263 L19.7641,23.2783 C17.8291,32.9883 18.4101,39.4823 19.9091,43.8103 C20.2431,44.7763 22.1451,48.1963 22.1451,48.1963 C16.6991,56.7893 8.3491,60.5453 -0.5799,61.6343 C-8.1709,62.5613 -24.5589,55.6393 -16.1089,47.6323 C-7.6599,39.6243 -17.8699,44.6023 -19.3729,45.6163 C-20.8759,46.6303 -29.5659,54.1383 -20.1349,65.1553 C-16.1469,69.8133 -11.6289,74.0493 -0.7599,77.2963 C0.9831,77.8163 10.4951,78.5073 15.6151,79.9773 C30.8611,84.3533 43.2561,79.5953 50.2011,69.5313 C57.1181,59.5083 51.2241,46.9803 49.4951,46.9453" id="Fill-34" fill="#9452BA" mask="url(#mask-2)"></path>
                        </g>
                        <g id="Group-39" transform="translate(0.000000, 7.000000)">
                            <mask id="mask-4" fill="white">
                                <use xlink:href="#path-3"></use>
                            </mask>
                            <g id="Clip-38"></g>
                            <path d="M-14.3716,45.3703 C-15.7786,45.8313 -18.0226,46.9113 -18.8136,47.4453 C-19.9016,48.1783 -22.8406,50.9483 -23.3766,54.9023 C-23.8366,58.2983 -22.4916,61.8653 -19.3746,65.5053 C-15.6246,69.8853 -11.3576,74.0863 -0.4736,77.3383 C0.1034,77.5093 1.9904,77.7463 3.9894,77.9973 C7.6324,78.4533 12.6244,79.0793 15.8914,80.0163 C29.9704,84.0563 42.1794,80.3943 49.3774,69.9633 C53.3144,64.2583 52.6654,58.0213 51.9264,54.8103 C51.1424,51.3973 49.8114,49.3173 49.3304,48.9413 C47.3884,48.8763 45.5374,48.2983 43.4014,47.6333 C40.5744,46.7543 37.0554,45.6583 32.0284,45.4263 L31.2624,45.3913 L31.0974,44.6433 C30.9754,44.0893 30.8354,43.6373 30.6804,43.3013 C29.0024,39.6673 26.6634,29.2993 28.1784,22.4453 L29.3384,17.2003 C29.7034,15.5493 29.8874,13.8593 29.8874,12.1743 C29.8874,11.5183 29.8214,10.8653 29.6914,10.2333 C29.6594,10.0753 29.6244,9.9203 29.5854,9.7663 C29.4664,9.3093 29.3144,8.8583 29.1304,8.4233 C29.0704,8.2813 29.0044,8.1363 28.9364,7.9953 C28.8024,7.7153 28.6534,7.4433 28.4934,7.1773 C28.3324,6.9143 28.1584,6.6573 27.9724,6.4093 C27.4194,5.6683 26.7604,5.0083 26.0164,4.4523 C25.7684,4.2673 25.5114,4.0933 25.2474,3.9323 C23.7464,3.0203 22.0184,2.5383 20.2514,2.5383 L18.5064,2.5383 C15.9324,2.5383 13.5124,3.5403 11.6924,5.3603 C11.4754,5.5783 11.2664,5.8063 11.0704,6.0463 C10.7194,6.4703 10.3994,6.9383 10.1174,7.4353 C10.0124,7.6193 9.9124,7.8043 9.8204,7.9963 C9.7524,8.1363 9.6874,8.2813 9.6264,8.4253 C9.4434,8.8583 9.2914,9.3093 9.1734,9.7653 C9.0534,10.2323 8.9684,10.7113 8.9194,11.1883 C8.8864,11.5123 8.8704,11.8413 8.8704,12.1743 C8.8704,12.6163 9.0424,13.0313 9.3534,13.3423 C9.6664,13.6543 10.0814,13.8263 10.5214,13.8263 L22.6014,13.8263 L20.7494,24.4503 C19.0914,32.7683 19.1284,39.5013 20.8544,44.4833 C21.0764,45.1273 22.3004,47.4173 23.0194,48.7103 L23.3084,49.2293 L22.9904,49.7313 C17.9614,57.6673 10.0714,62.3413 -0.4586,63.6273 C-5.9466,64.2983 -16.3786,60.9813 -18.8966,55.6333 C-19.7486,53.8243 -20.0766,51.0133 -16.7966,47.9063 C-15.5296,46.7043 -14.7956,45.8983 -14.3716,45.3703 L-14.3716,45.3703 Z M26.5104,83.5823 C22.9324,83.5823 19.1844,83.0423 15.3384,81.9383 C12.2214,81.0443 7.3194,80.4293 3.7404,79.9813 C1.3884,79.6863 -0.3096,79.4733 -1.0456,79.2543 C-12.4416,75.8493 -17.0996,71.2373 -20.8946,66.8053 C-24.3966,62.7143 -25.8996,58.6193 -25.3586,54.6333 C-24.7476,50.1183 -21.5416,46.8733 -19.9326,45.7873 C-19.8706,45.7463 -13.5786,41.8393 -12.0896,43.6943 C-11.2366,44.7583 -12.0776,46.1873 -15.4216,49.3573 C-17.3846,51.2183 -17.9296,52.9923 -17.0866,54.7823 C-15.1296,58.9393 -5.9026,62.2723 -0.7016,61.6423 C8.9824,60.4603 16.2744,56.2593 20.9804,49.1553 C20.4154,48.1223 19.2454,45.9483 18.9634,45.1373 C17.1214,39.8153 17.0594,32.7313 18.7834,24.0833 L20.2224,15.8263 L10.5214,15.8263 C9.5464,15.8263 8.6304,15.4463 7.9404,14.7573 C7.2504,14.0673 6.8704,13.1503 6.8704,12.1743 C6.8704,11.7733 6.8904,11.3783 6.9294,10.9863 C6.9884,10.4093 7.0914,9.8313 7.2364,9.2673 C7.3774,8.7153 7.5624,8.1703 7.7854,7.6443 C7.8594,7.4703 7.9364,7.3003 8.0164,7.1313 C8.1284,6.8983 8.2514,6.6723 8.3774,6.4493 C8.7164,5.8503 9.1034,5.2873 9.5274,4.7733 C9.7644,4.4863 10.0144,4.2113 10.2764,3.9473 C12.4754,1.7483 15.3984,0.5383 18.5064,0.5383 L20.2514,0.5383 C22.3844,0.5383 24.4714,1.1213 26.2864,2.2233 C26.6054,2.4183 26.9154,2.6273 27.2134,2.8493 C28.1124,3.5223 28.9064,4.3173 29.5754,5.2123 C29.7984,5.5103 30.0074,5.8203 30.2024,6.1393 C30.3974,6.4613 30.5764,6.7903 30.7404,7.1303 C30.8214,7.3003 30.8984,7.4703 30.9714,7.6423 C31.1954,8.1703 31.3794,8.7153 31.5214,9.2673 C31.5694,9.4533 31.6124,9.6413 31.6504,9.8323 C31.8074,10.5943 31.8874,11.3833 31.8874,12.1743 C31.8874,14.0043 31.6874,15.8393 31.2924,17.6313 L30.1314,22.8773 C28.7324,29.2063 30.9604,39.1363 32.4974,42.4653 C32.6314,42.7583 32.7524,43.0903 32.8634,43.4693 C37.7514,43.7803 41.1994,44.8533 43.9964,45.7243 C46.1244,46.3863 47.8044,46.9103 49.5154,46.9453 C49.8424,46.9523 50.8394,46.9723 52.2114,49.6493 C54.3654,53.8563 56.5394,63.1083 51.0244,71.0993 C45.4044,79.2433 36.6474,83.5823 26.5104,83.5823 L26.5104,83.5823 Z" id="Fill-37" fill="#52267D" mask="url(#mask-4)"></path>
                        </g>
                        <g id="Group-42" transform="translate(37.000000, 17.000000)">
                            <mask id="mask-6" fill="white">
                                <use xlink:href="#path-5"></use>
                            </mask>
                            <g id="Clip-41"></g>
                            <path d="M3.0361,23.4746 C2.6861,12.2146 11.6231,3.3656 21.7791,1.4956 C23.8881,1.1076 24.5741,0.4456 26.8811,0.4456 L28.6471,0.4456 C34.5991,0.4456 39.4241,5.2706 39.4241,11.2216 C39.4241,12.7046 38.2211,13.9086 36.7371,13.9086 C36.7371,13.9086 18.6181,13.9036 18.5331,13.8946 C18.5321,13.8956 17.0571,13.8966 17.0561,13.8966 C17.0581,13.8986 18.5351,13.8996 18.5371,13.9016 C14.5301,15.6016 12.0361,20.7226 11.5971,23.4746 C10.9711,27.3926 11.4291,30.6246 12.7651,33.2396 C13.6561,34.9806 13.7571,37.0786 13.6201,38.7766 C13.6201,38.7766 13.5771,38.7916 13.5161,38.8126 C13.4541,39.7206 13.3071,40.7536 13.0361,41.9326 C11.3301,40.7436 8.6771,38.9536 8.1911,38.6986 C7.1441,38.1456 4.7811,36.8876 3.7231,36.2816 C-3.0349,32.4066 3.2341,29.8786 3.0361,23.4746" id="Fill-40" fill="#9452BA" mask="url(#mask-6)"></path>
                        </g>
                        <g id="Group-45" transform="translate(36.000000, 16.000000)">
                            <mask id="mask-8" fill="white">
                                <use xlink:href="#path-7"></use>
                            </mask>
                            <g id="Clip-44"></g>
                            <path d="M27.8809,2.4453 C26.6069,2.4453 25.9149,2.6633 25.0379,2.9383 C24.4699,3.1173 23.8239,3.3193 22.9599,3.4783 C14.0069,5.1273 4.6819,13.0353 5.0359,24.4433 C5.1169,27.0833 4.1999,29.1133 3.4639,30.7443 C2.2809,33.3633 1.7919,34.4473 5.2209,36.4143 C6.2189,36.9853 8.4799,38.1913 9.6579,38.8133 C10.1099,39.0523 11.8819,40.2393 13.3469,41.2423 C13.4289,40.7243 13.4859,40.2233 13.5189,39.7443 L13.5649,39.0793 L13.6609,39.0473 C13.7069,37.7223 13.5759,36.0653 12.8749,34.6943 C11.3969,31.8033 10.9709,28.3123 11.6099,24.3163 C12.0109,21.8033 13.8989,17.7443 16.9109,15.3353 L14.7559,13.8983 L18.0559,13.8963 C18.0629,13.8963 18.6859,13.8963 19.1179,13.8953 L19.1629,13.8503 L19.6359,13.8993 C19.9209,13.9013 31.6089,13.9063 37.7369,13.9083 C38.6669,13.9083 39.4239,13.1513 39.4239,12.2213 C39.4239,6.8313 35.0379,2.4453 29.6479,2.4453 L27.8809,2.4453 Z M14.6799,44.6003 L13.4639,43.7533 C11.5439,42.4143 9.1089,40.7853 8.7249,40.5833 C8.3969,40.4093 5.4839,38.8703 4.2269,38.1483 C-0.7781,35.2793 0.4509,32.5553 1.6419,29.9213 C2.3269,28.4033 3.1039,26.6823 3.0359,24.5063 C2.6479,11.9813 12.8249,3.3113 22.5989,1.5113 C23.3419,1.3753 23.8999,1.1993 24.4389,1.0303 C25.3959,0.7293 26.2999,0.4453 27.8809,0.4453 L29.6479,0.4453 C36.1409,0.4453 41.4239,5.7283 41.4239,12.2213 C41.4239,14.2553 39.7709,15.9083 37.7369,15.9083 C24.0969,15.9043 20.6589,15.8993 19.7629,15.8943 C16.1199,17.5543 13.9439,22.3783 13.5839,24.6323 C13.0149,28.1993 13.3749,31.2783 14.6559,33.7843 C15.4869,35.4093 15.8109,37.4523 15.6169,39.8563 L15.5659,40.4963 L15.4569,40.5363 C15.3679,41.3703 15.2189,42.2493 15.0109,43.1563 L14.6799,44.6003 Z" id="Fill-43" fill="#52267D" mask="url(#mask-8)"></path>
                        </g>
                        <g id="Group-48" transform="translate(44.000000, 29.000000)">
                            <mask id="mask-10" fill="white">
                                <use xlink:href="#path-9"></use>
                            </mask>
                            <g id="Clip-47"></g>
                            <path d="M1.8066,24.4844 C1.8956,22.7464 2.1606,21.8534 1.9656,21.1454 C0.8436,17.0724 0.4786,15.7864 0.4786,11.4744 C0.4786,7.1894 2.9606,2.9544 6.6256,0.7014 C6.8276,0.5774 9.4656,0.3914 11.5366,1.9014 C7.5306,3.6014 5.0356,8.7224 4.5966,11.4744 C3.9706,15.3924 4.4296,18.6254 5.7656,21.2394 C6.6566,22.9804 6.7576,25.0784 6.6196,26.7764 C6.6196,26.7764 1.7036,28.6224 1.8066,24.4844" id="Fill-46" fill="#F3E3FF" mask="url(#mask-10)"></path>
                        </g>
                        <g id="Group-51" transform="translate(43.000000, 29.000000)">
                            <mask id="mask-12" fill="white">
                                <use xlink:href="#path-11"></use>
                            </mask>
                            <g id="Clip-50"></g>
                            <path d="M3.3066,24.5039 C3.2856,25.3769 3.5146,25.9909 3.9876,26.3269 C4.8226,26.9239 6.3456,26.6469 7.1446,26.4069 C7.2296,24.9749 7.1326,23.0559 6.3206,21.4669 C4.8916,18.6709 4.4826,15.2819 5.1026,11.3959 C5.5456,8.6239 7.8546,3.9059 11.5066,1.8529 C9.8156,0.9829 8.0246,1.1009 7.8126,1.1629 C4.2976,3.3339 1.9786,7.3959 1.9786,11.4749 C1.9786,15.6799 2.3126,16.8909 3.4166,20.9019 L3.4486,21.0129 C3.5946,21.5439 3.5326,22.1079 3.4466,22.8879 C3.3976,23.3309 3.3396,23.8579 3.3066,24.5039 M5.3886,27.6849 C4.7016,27.6849 3.9836,27.5519 3.4086,27.1439 C2.6476,26.6019 2.2766,25.7029 2.3066,24.4719 L2.3076,24.4589 C2.3416,23.7869 2.4016,23.2389 2.4526,22.7779 C2.5296,22.0839 2.5786,21.6249 2.4836,21.2779 L2.4526,21.1679 C1.3506,17.1629 0.9786,15.8149 0.9786,11.4749 C0.9786,7.0559 3.4856,2.6599 7.3646,0.2749 C7.8046,0.0049 10.6626,-0.0821 12.8316,1.4969 L13.5446,2.0169 L12.7326,2.3609 C9.1116,3.8989 6.5476,8.6879 6.0906,11.5539 C5.5036,15.2269 5.8806,18.4079 7.2106,21.0119 C8.1946,22.9349 8.2466,25.2299 8.1186,26.8169 L8.0926,27.1329 L7.7956,27.2439 C7.7236,27.2719 6.6026,27.6849 5.3886,27.6849" id="Fill-49" fill="#52267D" mask="url(#mask-12)"></path>
                        </g>
                        <path d="M71.3027,19.2764 C71.3027,19.2764 71.3067,17.3944 69.4367,16.6464 C68.8657,16.4184 67.8237,15.9944 67.8237,15.9944 C67.8237,15.9944 66.7097,18.3494 67.9717,18.9434 C69.7877,19.7984 71.3027,19.2764 71.3027,19.2764" id="Fill-52" fill="#FFFFFF"></path>
                        <path d="M68.1035,16.6465 C67.8885,17.2705 67.6715,18.2505 68.1845,18.4915 C69.2815,19.0055 70.2425,18.9695 70.7525,18.8895 C70.6455,18.3885 70.3095,17.5345 69.2505,17.1105 L68.1035,16.6465 Z M70.1285,19.9345 C69.4825,19.9345 68.6535,19.8175 67.7585,19.3955 C67.3925,19.2235 67.1255,18.9275 66.9875,18.5395 C66.6015,17.4645 67.2915,15.9495 67.3725,15.7805 L67.5745,15.3525 L69.6225,16.1825 C71.7825,17.0455 71.8025,19.1865 71.8025,19.2775 L71.8015,19.6325 L71.4655,19.7495 C71.4275,19.7615 70.9125,19.9345 70.1285,19.9345 L70.1285,19.9345 Z" id="Fill-54" fill="#52267D"></path>
                        <path d="M66.6211,17.9531 C66.6211,17.9531 66.5671,15.3891 63.6831,15.0151 C63.1441,14.9451 61.7411,14.9781 61.7411,14.9781 C61.7411,14.9781 61.0931,17.6921 62.6141,17.9531 C64.4841,18.2731 66.6211,17.9531 66.6211,17.9531" id="Fill-56" fill="#FFFFFF"></path>
                        <path d="M62.1592,15.4717 C62.0852,15.9947 62.0462,16.8007 62.3202,17.2157 C62.4122,17.3557 62.5292,17.4317 62.6982,17.4597 C63.9452,17.6737 65.3302,17.5877 66.0502,17.5167 C65.8882,16.8697 65.3562,15.7357 63.6182,15.5107 C63.3132,15.4717 62.6412,15.4677 62.1592,15.4717 M64.4902,18.5957 C63.8712,18.5957 63.1872,18.5587 62.5302,18.4467 C62.0902,18.3697 61.7282,18.1357 61.4852,17.7657 C60.8262,16.7677 61.2092,15.0547 61.2552,14.8627 L61.3452,14.4877 L61.7292,14.4787 C61.7882,14.4767 63.1782,14.4447 63.7462,14.5187 C66.3662,14.8587 67.0992,16.9077 67.1212,17.9427 L67.1302,18.3827 L66.6952,18.4477 C66.6362,18.4557 65.6832,18.5957 64.4902,18.5957" id="Fill-58" fill="#52267D"></path>
                        <path d="M60.8848,18.1982 C60.8848,18.1982 60.5048,15.3542 57.9498,16.1362 C56.8588,16.4692 56.2528,17.3002 56.2528,17.3002 C56.2528,17.3002 56.7608,19.4652 57.7778,19.2212 C59.5518,18.7972 60.8848,18.1982 60.8848,18.1982" id="Fill-60" fill="#FFFFFF"></path>
                        <path d="M56.8047,17.4258 C56.9537,17.9158 57.2287,18.5298 57.5147,18.7048 C57.5777,18.7418 57.6167,18.7428 57.6607,18.7358 C58.8217,18.4578 59.7957,18.1008 60.3027,17.8988 C60.1947,17.5328 59.9627,16.9888 59.5107,16.6998 C59.1417,16.4648 58.6787,16.4368 58.0967,16.6148 C57.4677,16.8068 57.0217,17.1998 56.8047,17.4258 M57.6197,19.7398 C57.4027,19.7398 57.1887,19.6788 56.9897,19.5558 C56.1697,19.0498 55.8047,17.5798 55.7667,17.4138 L55.7137,17.1908 L55.8487,17.0048 C55.8777,16.9658 56.5677,16.0358 57.8047,15.6578 C58.6747,15.3938 59.4317,15.4628 60.0537,15.8608 C61.1597,16.5708 61.3717,18.0688 61.3797,18.1318 L61.4297,18.5018 L61.0897,18.6548 C61.0337,18.6798 59.6937,19.2778 57.8937,19.7078 C57.8027,19.7298 57.7107,19.7398 57.6197,19.7398" id="Fill-62" fill="#52267D"></path>
                        <path d="M53.4658,32.0039 C53.4658,32.0039 47.5108,28.7669 48.6438,23.3179 C47.8528,23.9699 45.7378,25.9559 44.9718,26.9729 C44.9718,28.0389 44.7768,32.2749 50.6248,35.1109 C51.6538,34.0449 52.5198,32.7139 53.4658,32.0039" id="Fill-64" fill="#FFFFFF"></path>
                        <path d="M45.4707,27.1455 C45.4667,28.4135 45.5427,31.9395 50.5147,34.4975 C50.8137,34.1665 51.1037,33.8155 51.3857,33.4735 C51.8057,32.9645 52.2077,32.4765 52.6287,32.0685 C51.2417,31.1315 47.9327,28.4815 48.0017,24.5535 C47.1197,25.3695 46.0237,26.4565 45.4707,27.1455 L45.4707,27.1455 Z M50.7337,35.7195 L50.4077,35.5615 C46.4497,33.6425 44.4527,30.7865 44.4717,27.0705 L44.4717,26.9035 L44.5727,26.6715 C45.3607,25.6265 47.4807,23.6285 48.3257,22.9325 L49.4217,22.0295 L49.1327,23.4195 C48.0877,28.4465 53.6487,31.5345 53.7047,31.5645 L54.3887,31.9365 L53.7657,32.4045 C53.2377,32.8005 52.7127,33.4365 52.1577,34.1105 C51.7847,34.5605 51.4007,35.0275 50.9857,35.4585 L50.7337,35.7195 Z" id="Fill-66" fill="#52267D"></path>
                        <path d="M70.4912,18.7588 C70.4912,18.7588 70.4932,17.7838 69.5252,17.3978 C69.2302,17.2798 68.6912,17.0598 68.6912,17.0598 C68.6912,17.0598 68.1142,18.2798 68.7672,18.5858 C69.7082,19.0288 70.4912,18.7588 70.4912,18.7588" id="Fill-68" fill="#F3E3FF"></path>
                        <path d="M65.3896,17.373 C65.3896,17.373 65.3626,16.065 63.8916,15.875 C63.6176,15.839 62.9016,15.856 62.9016,15.856 C62.9016,15.856 62.5716,17.24 63.3466,17.373 C64.2996,17.536 65.3896,17.373 65.3896,17.373" id="Fill-70" fill="#F3E3FF"></path>
                        <path d="M59.9658,17.9941 C59.9658,17.9941 59.7648,16.4841 58.4088,16.8991 C57.8298,17.0771 57.5078,17.5161 57.5078,17.5161 C57.5078,17.5161 57.7778,18.6661 58.3178,18.5371 C59.2588,18.3111 59.9658,17.9941 59.9658,17.9941" id="Fill-72" fill="#F3E3FF"></path>
                        <path d="M61.4971,29.1035 L66.9431,29.1035 C66.9431,26.3615 64.7201,24.1375 61.9761,24.1375 L61.4971,24.1375 C60.1261,24.1375 59.0151,25.2495 59.0151,26.6215 C59.0151,27.9925 60.1261,29.1035 61.4971,29.1035" id="Fill-74" fill="#F3E3FF"></path>
                        <path d="M61.9561,29.0107 L66.8501,29.0107 C66.8501,26.8557 65.1021,25.1097 62.9471,25.1097 L61.9561,25.1097 C60.8791,25.1097 60.0051,25.9827 60.0051,27.0597 C60.0051,28.1377 60.8791,29.0107 61.9561,29.0107" id="Fill-76" fill="#FFFFFF"></path>
                        <path d="M61.9561,25.6094 C61.1561,25.6094 60.5051,26.2594 60.5051,27.0594 C60.5051,27.8594 61.1561,28.5104 61.9561,28.5104 L66.3121,28.5104 C66.0701,26.8714 64.6531,25.6094 62.9471,25.6094 L61.9561,25.6094 Z M67.3501,29.5104 L61.9561,29.5104 C60.6041,29.5104 59.5051,28.4114 59.5051,27.0594 C59.5051,25.7094 60.6041,24.6094 61.9561,24.6094 L62.9471,24.6094 C65.3751,24.6094 67.3501,26.5844 67.3501,29.0104 L67.3501,29.5104 Z" id="Fill-78" fill="#52267D"></path>
                        <path d="M65.9629,26.9453 C65.9629,27.5473 65.4759,28.0353 64.8729,28.0353 C64.2719,28.0353 63.7839,27.5473 63.7839,26.9453 C63.7839,26.3423 64.2719,25.8553 64.8729,25.8553 C65.4759,25.8553 65.9629,26.3423 65.9629,26.9453" id="Fill-80" fill="#52267D"></path>
                        <path d="M73.9863,30.0898 L73.9863,30.0898 C73.6763,30.0238 73.3993,29.8518 73.2033,29.6038 L72.8383,29.1438 L73.6513,29.3188 L74.1303,29.4208 C74.3143,29.4608 74.4313,29.6428 74.3923,29.8268 C74.3523,30.0118 74.1713,30.1288 73.9863,30.0898" id="Fill-82" fill="#52267D"></path>
                        <path d="M52.46,32.1113 C52.46,32.1113 47.872,29.6413 47.942,24.6653 C45.971,26.1013 45.437,27.0293 45.437,27.0293 C45.437,27.0293 45.78,29.3983 46.884,30.5933 C48.578,32.4283 50.343,32.9943 52.46,32.1113" id="Fill-84" fill="#EAF3FB"></path>
                        <path d="M48.1162,31.2373 C48.1162,31.2373 49.9262,33.0783 51.6902,33.9613" id="Fill-86" fill="#FFFFFF"></path>
                        <path d="M51.4668,34.4082 C49.6488,33.4982 47.8358,31.6652 47.7598,31.5882 L48.4728,30.8872 C48.4898,30.9042 50.2468,32.6792 51.9138,33.5132 L51.4668,34.4082 Z" id="Fill-88" fill="#52267D"></path>
                        <g id="Group-92" transform="translate(30.000000, 3.000000)">
                            <mask id="mask-14" fill="white">
                                <use xlink:href="#path-13"></use>
                            </mask>
                            <g id="Clip-91"></g>
                            <path d="M0.125,47.5859 L1.147,45.5679 C4.965,36.1879 5.553,30.6789 3.573,21.7249 L2.413,16.4799 C2.033,14.7579 1.841,13.0009 1.841,11.2379 C1.841,5.3629 6.604,0.6019 12.478,0.6019 L14.195,0.6019 C19.989,0.6019 24.687,5.2989 24.687,11.0929 L24.687,11.3939 C24.687,12.7729 23.568,13.8899 22.19,13.8899 L11.316,13.8899 L12.965,23.3419 C18.012,48.6729 17.506,58.9419 7.574,56.8319" id="Fill-90" fill="#9452BA" mask="url(#mask-14)"></path>
                        </g>
                        <g id="Group-95" transform="translate(29.000000, 2.000000)">
                            <mask id="mask-16" fill="white">
                                <use xlink:href="#path-15"></use>
                            </mask>
                            <g id="Clip-94"></g>
                            <path d="M10.9092,59.1025 C10.1292,59.1025 9.2822,59.0045 8.3662,58.8105 L8.7822,56.8535 C11.1972,57.3695 12.9132,57.0775 14.0342,55.9705 C17.8722,52.1805 15.6572,37.9545 12.9842,24.5375 L11.1272,13.8895 L23.1902,13.8895 C24.0152,13.8895 24.6862,13.2185 24.6862,12.3935 L24.6862,12.0925 C24.6862,6.8595 20.4292,2.6015 15.1952,2.6015 L13.4772,2.6015 C8.1642,2.6015 3.8412,6.9245 3.8412,12.2385 C3.8412,13.9225 4.0252,15.6135 4.3892,17.2635 L5.5502,22.5085 C7.5642,31.6225 6.9862,37.3315 3.0732,46.9455 L2.0162,49.0385 L0.2332,48.1335 L1.2562,46.1165 C4.9992,36.9085 5.5322,31.6935 3.5972,22.9405 L2.4362,17.6955 C2.0412,15.9035 1.8412,14.0675 1.8412,12.2385 C1.8412,5.8215 7.0602,0.6015 13.4772,0.6015 L15.1952,0.6015 C21.5312,0.6015 26.6862,5.7565 26.6862,12.0925 L26.6862,12.3935 C26.6862,14.3215 25.1182,15.8895 23.1902,15.8895 L13.5062,15.8895 L14.9502,24.1695 C18.9872,44.4325 19.1262,53.7535 15.4392,57.3945 C14.2822,58.5365 12.7882,59.1025 10.9092,59.1025" id="Fill-93" fill="#52267D" mask="url(#mask-16)"></path>
                        </g>
                        <path d="M49.4443,4.8604 C49.4443,4.8604 49.2693,3.0164 47.4373,2.2844 C46.8783,2.0604 46.0033,2.2974 46.0033,2.2974 C46.0033,2.2974 44.9453,3.9524 46.1813,4.5344 C47.9613,5.3724 49.4443,4.8604 49.4443,4.8604" id="Fill-96" fill="#FFFFFF"></path>
                        <path d="M46.3291,2.7373 C46.1921,3.0093 46.0151,3.4663 46.1051,3.7783 C46.1321,3.8693 46.1881,3.9853 46.3941,4.0823 C47.4261,4.5663 48.3351,4.5523 48.8491,4.4793 C48.6871,3.9753 48.2761,3.1583 47.2521,2.7483 C47.0131,2.6533 46.6081,2.6893 46.3291,2.7373 M48.2951,5.5143 C47.6601,5.5143 46.8471,5.3993 45.9691,4.9863 C45.5491,4.7893 45.2641,4.4663 45.1441,4.0543 C44.8851,3.1553 45.5101,2.1413 45.5821,2.0283 L45.6851,1.8663 L45.8721,1.8153 C45.9781,1.7863 46.9281,1.5423 47.6231,1.8203 C49.7151,2.6563 49.9331,4.7253 49.9421,4.8133 L49.9791,5.2053 L49.6071,5.3333 C49.5701,5.3453 49.0631,5.5143 48.2951,5.5143" id="Fill-98" fill="#52267D"></path>
                        <path d="M45.082,4.252 C45.082,4.252 45.021,1.348 41.755,0.925 C41.145,0.846 40.363,0.905 40.363,0.905 C40.363,0.905 38.822,3.957 40.545,4.252 C42.662,4.615 45.082,4.252 45.082,4.252" id="Fill-100" fill="#FFFFFF"></path>
                        <path d="M40.6885,1.3896 C40.3715,2.1096 40.0855,3.1196 40.3045,3.5536 C40.3455,3.6346 40.4165,3.7226 40.6285,3.7586 C42.0905,4.0116 43.7235,3.8976 44.5175,3.8166 C44.3525,3.0826 43.7675,1.6896 41.6905,1.4206 C41.3585,1.3766 40.9545,1.3786 40.6885,1.3896 M42.6685,4.9136 C41.9715,4.9136 41.2015,4.8716 40.4595,4.7446 C39.8495,4.6406 39.5525,4.2846 39.4115,4.0026 C38.8415,2.8726 39.8055,0.9016 39.9175,0.6796 L40.0435,0.4276 L40.3255,0.4066 C40.3595,0.4046 41.1655,0.3456 41.8195,0.4286 C44.7405,0.8066 45.5575,3.0876 45.5825,4.2416 L45.5905,4.6806 L45.1565,4.7456 C45.0885,4.7566 44.0145,4.9136 42.6685,4.9136" id="Fill-102" fill="#52267D"></path>
                        <path d="M39.2373,4.9131 C39.2373,4.9131 38.7943,2.1371 36.3113,2.9661 C35.2513,3.3201 34.6773,4.1471 34.6773,4.1471 C34.6773,4.1471 35.2303,6.2561 36.2193,5.9921 C37.9463,5.5321 39.2373,4.9131 39.2373,4.9131" id="Fill-104" fill="#FFFFFF"></path>
                        <path d="M35.2334,4.2598 C35.3914,4.7348 35.6734,5.3208 35.9554,5.4848 C36.0204,5.5228 36.0584,5.5198 36.0904,5.5088 C37.2124,5.2098 38.1534,4.8388 38.6474,4.6278 C38.5314,4.2758 38.2924,3.7548 37.8484,3.4888 C37.4834,3.2678 37.0344,3.2508 36.4694,3.4408 C35.8654,3.6428 35.4404,4.0328 35.2334,4.2598 M36.0494,6.5148 C35.8444,6.5148 35.6424,6.4588 35.4524,6.3488 C34.6494,5.8818 34.2634,4.5388 34.1944,4.2748 L34.1354,4.0518 L34.2664,3.8628 C34.2944,3.8228 34.9484,2.8948 36.1534,2.4908 C37.0024,2.2078 37.7464,2.2578 38.3704,2.6348 C39.4754,3.3048 39.7204,4.7728 39.7314,4.8338 L39.7904,5.2018 L39.4534,5.3638 C39.3994,5.3898 38.1004,6.0088 36.3484,6.4758 C36.2494,6.5018 36.1494,6.5148 36.0494,6.5148" id="Fill-106" fill="#52267D"></path>
                        <g id="Group-116" transform="translate(18.000000, 16.000000)">
                            <mask id="mask-18" fill="white">
                                <use xlink:href="#path-17"></use>
                            </mask>
                            <g id="Clip-115"></g>
                            <path d="M27.666,38.5518 C29.443,31.3298 26.237,17.5228 25.647,14.1238 L23.313,0.5088 L22.29,0.5088 C20.994,0.5088 20.013,1.9178 20.196,3.2028 L21.889,15.0128 C22.461,19.0118 23.057,37.5268 16.108,41.5038 C14.626,42.3528 12.216,41.7958 11.309,41.3628 C8.006,39.7848 7.057,35.6668 6.333,32.3478 C4.835,25.4788 6.002,20.0858 6.333,14.7008 L6.682,7.9638 C6.744,6.7458 5.775,5.4528 4.559,5.4528 L3.317,5.4528 L1.081,19.0698 C0.408,22.9468 -1.322,36.3908 6.6,42.6948 C6.743,42.8088 4.674,43.2718 5.273,44.3318 C7.656,48.5438 14.562,49.2098 15.861,51.0138 C20.868,57.9578 16.179,72.7538 16.179,72.7538 C16.179,72.7538 21.736,70.5358 25.178,67.4508 C33.225,60.2398 34.246,49.7938 34.283,46.7178 C34.328,43.0388 33.361,40.7568 32.172,39.3958" id="Fill-114" fill="#F3E3FF" mask="url(#mask-18)"></path>
                        </g>
                        <g id="Group-119" transform="translate(17.000000, 16.000000)">
                            <mask id="mask-20" fill="white">
                                <use xlink:href="#path-19"></use>
                            </mask>
                            <g id="Clip-118"></g>
                            <path d="M16.3828,73.6094 L16.7018,72.6024 C16.7478,72.4574 21.2568,57.9654 16.4558,51.3054 C16.0398,50.7294 14.6858,50.1954 13.2518,49.6304 C10.6398,48.6004 7.3888,47.3194 5.8378,44.5784 C5.6118,44.1764 5.6478,43.8334 5.7178,43.6154 C5.8728,43.1344 6.3188,42.8214 6.7208,42.6074 C-0.6902,36.0194 0.9048,22.9194 1.5888,18.9834 L3.8928,4.9534 L5.5588,4.9534 C6.2078,4.9534 6.8388,5.2404 7.3338,5.7614 C7.9048,6.3624 8.2218,7.1954 8.1808,7.9894 L7.8318,14.7264 C7.7558,15.9714 7.6358,17.2134 7.5138,18.4714 C7.1058,22.6754 6.6838,27.0234 7.8208,32.2414 C8.4818,35.2674 9.3848,39.4124 12.5248,40.9114 C13.3738,41.3174 15.5898,41.7964 16.8608,41.0704 C23.3638,37.3464 23.0598,19.7344 22.3938,15.0844 L20.7008,3.2744 C20.5828,2.4494 20.8528,1.5644 21.4218,0.9084 C21.9248,0.3284 22.5888,0.0084 23.2898,0.0084 L24.7358,0.0084 L27.1408,14.0394 C27.2188,14.4934 27.3448,15.1344 27.4988,15.9214 C28.5438,21.2424 30.7158,32.3134 29.1518,38.6714 L28.1808,38.4324 C29.6928,32.2894 27.4678,20.9544 26.5188,16.1144 C26.3618,15.3184 26.2348,14.6694 26.1548,14.2104 L23.8918,1.0084 L23.2898,1.0084 C22.8828,1.0084 22.4868,1.2064 22.1778,1.5634 C21.8008,1.9974 21.6148,2.5984 21.6918,3.1324 L23.3838,14.9414 C23.8668,18.3244 24.8128,37.6704 17.3568,41.9374 C15.6538,42.9124 13.0288,42.2594 12.0928,41.8134 C8.5118,40.1034 7.5478,35.6824 6.8448,32.4544 C5.6728,27.0834 6.1028,22.6564 6.5188,18.3754 C6.6388,17.1284 6.7588,15.8994 6.8338,14.6714 L7.1828,7.9384 C7.2088,7.4214 6.9888,6.8504 6.6098,6.4504 C6.3048,6.1304 5.9318,5.9534 5.5588,5.9534 L4.7418,5.9534 L2.5738,19.1504 C1.8978,23.0504 0.2838,36.2344 7.9108,42.3024 L8.1298,42.4764 L8.1038,42.7684 C8.0658,43.0784 7.8218,43.1904 7.5398,43.3214 C7.3228,43.4214 6.7448,43.6874 6.6698,43.9224 C6.6638,43.9384 6.6508,43.9824 6.7088,44.0864 C8.0848,46.5184 11.1538,47.7284 13.6188,48.7004 C15.3288,49.3744 16.6798,49.9064 17.2668,50.7214 C21.6428,56.7914 18.9328,68.3444 17.9568,71.8754 C19.6838,71.0994 23.3568,69.3084 25.8438,67.0794 C34.3858,59.4234 34.7678,47.9904 34.7828,46.7124 C34.8198,43.6724 34.1328,41.2554 32.7948,39.7244 L33.5488,39.0664 C35.0718,40.8104 35.8238,43.3864 35.7828,46.7234 C35.7568,48.8824 35.1878,60.0484 26.5118,67.8234 C23.0438,70.9314 17.5948,73.1264 17.3638,73.2184 L16.3828,73.6094 Z" id="Fill-117" fill="#52267D" mask="url(#mask-20)"></path>
                        </g>
                        <path d="M41.8428,19.8291 C41.8428,19.8291 37.9698,22.0181 32.5248,20.0421 C32.8988,21.7311 33.6588,25.1261 33.6588,25.1261 C33.6588,25.1261 38.7038,26.6731 42.5958,24.2251 C42.1968,21.9831 41.8428,19.8291 41.8428,19.8291" id="Fill-129" fill="#FFFFFF"></path>
                        <path d="M34.0811,24.7207 C35.1281,24.9787 38.9471,25.7327 42.0431,23.9727 C41.8011,22.6027 41.5821,21.3057 41.4571,20.5597 C40.1961,21.0767 37.1641,21.9707 33.2031,20.7927 C33.5151,22.1927 33.9231,24.0167 34.0811,24.7207 M37.2961,26.1147 C35.2191,26.1147 33.6311,25.6407 33.5131,25.6047 L33.2341,25.5187 L33.1711,25.2357 C33.1711,25.2357 32.4101,21.8397 32.0361,20.1507 L31.8401,19.2617 L32.6951,19.5727 C37.8371,21.4377 41.5601,19.4127 41.5981,19.3937 L42.2201,19.0457 L42.3361,19.7477 C42.3361,19.7487 42.6891,21.8997 43.0881,24.1367 L43.1471,24.4687 L42.8621,24.6477 C41.0401,25.7937 39.0031,26.1147 37.2961,26.1147" id="Fill-131" fill="#52267D"></path>
                        <path d="M12.8633,9.9873 C12.8633,9.9873 13.0403,8.1303 14.8853,7.3913 C15.4483,7.1673 16.9683,7.1053 16.9683,7.1053 C16.9683,7.1053 17.3963,9.0733 16.1513,9.6593 C14.3583,10.5033 12.8633,9.9873 12.8633,9.9873" id="Fill-133" fill="#FFFFFF"></path>
                        <path d="M13.46,9.6074 C13.976,9.6804 14.895,9.6984 15.939,9.2074 C16.513,8.9364 16.561,8.1334 16.53,7.6314 C15.989,7.6724 15.339,7.7494 15.071,7.8554 C14.037,8.2694 13.621,9.0994 13.46,9.6074 M14.022,10.6434 C13.247,10.6434 12.738,10.4724 12.7,10.4604 L12.328,10.3324 L12.365,9.9394 C12.374,9.8514 12.596,7.7694 14.7,6.9274 C15.324,6.6774 16.784,6.6124 16.948,6.6054 L17.368,6.5884 L17.457,6.9994 C17.479,7.0954 17.951,9.3644 16.364,10.1114 C15.481,10.5274 14.661,10.6434 14.022,10.6434" id="Fill-135" fill="#52267D"></path>
                        <path d="M17.5459,9.0391 C17.5459,9.0391 17.5989,6.5081 20.4459,6.1391 C20.9779,6.0701 21.6589,6.1221 21.6589,6.1221 C21.6589,6.1221 23.0029,8.7811 21.5009,9.0391 C19.6549,9.3551 17.5459,9.0391 17.5459,9.0391" id="Fill-137" fill="#FFFFFF"></path>
                        <path d="M18.1172,8.6025 C18.8322,8.6715 20.1972,8.7545 21.4162,8.5455 C21.5962,8.5155 21.6332,8.4415 21.6532,8.4015 C21.8292,8.0535 21.5932,7.2095 21.3332,6.6065 C21.1042,6.6015 20.7822,6.5995 20.5102,6.6345 C18.8052,6.8555 18.2792,7.9645 18.1172,8.6025 M19.6492,9.6805 C18.4712,9.6805 17.5302,9.5415 17.4712,9.5335 L17.0372,9.4685 L17.0462,9.0285 C17.0672,8.0035 17.7922,5.9785 20.3822,5.6425 C20.9592,5.5685 21.6672,5.6215 21.6972,5.6235 L21.9782,5.6445 L22.1052,5.8965 C22.2662,6.2155 23.0462,7.8585 22.5472,8.8505 C22.4172,9.1085 22.1442,9.4355 21.5862,9.5325 C20.9352,9.6435 20.2612,9.6805 19.6492,9.6805" id="Fill-139" fill="#52267D"></path>
                        <path d="M22.9404,9.2227 C22.9404,9.2227 23.3864,6.4257 25.8874,7.2617 C26.9564,7.6187 27.5334,8.4517 27.5334,8.4517 C27.5334,8.4517 26.9774,10.5767 25.9804,10.3107 C24.2404,9.8467 22.9404,9.2227 22.9404,9.2227" id="Fill-141" fill="#FFFFFF"></path>
                        <path d="M23.5303,8.9375 C24.0263,9.1495 24.9753,9.5255 26.1093,9.8275 C26.1413,9.8365 26.1793,9.8415 26.2493,9.8015 C26.5333,9.6365 26.8183,9.0425 26.9773,8.5635 C26.7693,8.3355 26.3413,7.9405 25.7293,7.7365 C25.1603,7.5455 24.7053,7.5625 24.3383,7.7845 C23.8873,8.0545 23.6473,8.5815 23.5303,8.9375 M26.1513,10.8335 C26.0513,10.8335 25.9513,10.8205 25.8513,10.7935 C24.0863,10.3235 22.7793,9.6995 22.7233,9.6735 L22.3873,9.5115 L22.4463,9.1435 C22.4573,9.0815 22.7043,7.6055 23.8153,6.9305 C24.4433,6.5515 25.1943,6.5035 26.0463,6.7875 C27.2593,7.1925 27.9173,8.1275 27.9443,8.1675 L28.0753,8.3565 L28.0163,8.5795 C27.9473,8.8445 27.5593,10.1965 26.7533,10.6665 C26.5613,10.7775 26.3573,10.8335 26.1513,10.8335" id="Fill-143" fill="#52267D"></path>
                        <path d="M48.4844,4.3945 C48.4844,4.3945 48.3914,3.4095 47.4134,3.0175 C47.1144,2.8985 46.6464,3.0255 46.6464,3.0255 C46.6464,3.0255 46.0814,3.9095 46.7424,4.2195 C47.6924,4.6665 48.4844,4.3945 48.4844,4.3945" id="Fill-145" fill="#F3E3FF"></path>
                        <path d="M44.0068,3.7637 C44.0068,3.7637 43.9688,1.9437 41.9208,1.6777 C41.5388,1.6277 41.0478,1.6657 41.0478,1.6657 C41.0478,1.6657 40.0818,3.5787 41.1618,3.7637 C42.4888,3.9917 44.0068,3.7637 44.0068,3.7637" id="Fill-147" fill="#F3E3FF"></path>
                        <path d="M38.1592,4.6338 C38.1592,4.6338 37.9032,3.0308 36.4712,3.5098 C35.8582,3.7148 35.5272,4.1928 35.5272,4.1928 C35.5272,4.1928 35.8462,5.4088 36.4172,5.2568 C37.4142,4.9908 38.1592,4.6338 38.1592,4.6338" id="Fill-149" fill="#F3E3FF"></path>
                        <path d="M13.7803,9.5127 C13.7803,9.5127 13.8733,8.5317 14.8483,8.1407 C15.1463,8.0217 15.9503,7.9897 15.9503,7.9897 C15.9503,7.9897 16.1763,9.0297 15.5183,9.3397 C14.5703,9.7847 13.7803,9.5127 13.7803,9.5127" id="Fill-151" fill="#F3E3FF"></path>
                        <path d="M18.6514,8.5928 C18.6514,8.5928 18.6804,7.1938 20.2554,6.9888 C20.5484,6.9508 20.9254,6.9808 20.9254,6.9808 C20.9254,6.9808 21.6684,8.4498 20.8384,8.5928 C19.8174,8.7678 18.6514,8.5928 18.6514,8.5928" id="Fill-153" fill="#F3E3FF"></path>
                        <path d="M23.9355,9.0322 C23.9355,9.0322 24.1795,7.5032 25.5475,7.9602 C26.1325,8.1552 26.4485,8.6112 26.4485,8.6112 C26.4485,8.6112 26.1445,9.7732 25.5985,9.6282 C24.6465,9.3742 23.9355,9.0322 23.9355,9.0322" id="Fill-155" fill="#F3E3FF"></path>
                        <path d="M30.2686,24.625 C30.2686,24.625 25.4726,25.373 20.9116,24.254 C20.4656,26.732 20.1806,28.604 20.1806,28.604 C20.1806,28.604 23.3446,30.752 29.1896,29.506 C29.8786,26.322 30.2686,24.625 30.2686,24.625" id="Fill-157" fill="#FFFFFF"></path>
                        <path d="M20.7275,28.3408 C21.5635,28.7768 24.3425,29.9448 28.7695,29.0808 C29.1665,27.2498 29.4575,25.9448 29.6235,25.2098 C28.1675,25.3668 24.7485,25.5998 21.3115,24.8598 C21.0265,26.4668 20.8195,27.7568 20.7275,28.3408 M25.6445,30.3968 C21.9855,30.3968 20.0045,29.0888 19.8995,29.0178 L19.6385,28.8398 L19.6865,28.5278 C19.6865,28.5278 19.9725,26.6518 20.4185,24.1648 L20.5125,23.6418 L21.0305,23.7688 C25.4385,24.8508 30.1465,24.1388 30.1915,24.1308 L30.9205,24.0178 L30.7555,24.7368 C30.7555,24.7378 30.3665,26.4338 29.6775,29.6118 L29.6095,29.9278 L29.2935,29.9948 C27.9365,30.2838 26.7175,30.3968 25.6445,30.3968" id="Fill-159" fill="#52267D"></path>
                        <path d="M22.3359,19.8076 L16.8909,19.8076 C16.8909,17.0646 19.1139,14.8416 21.8569,14.8416 L22.3359,14.8416 C23.7069,14.8416 24.8189,15.9536 24.8189,17.3246 C24.8189,18.6966 23.7069,19.8076 22.3359,19.8076" id="Fill-161" fill="#F3E3FF"></path>
                        <path d="M21.7393,19.7139 L16.9843,19.7139 C16.9843,17.5599 18.7303,15.8129 20.8853,15.8129 L22.0143,15.8129 C23.0163,15.8129 23.8283,16.6239 23.8283,17.6259 C23.8283,18.7789 22.8923,19.7139 21.7393,19.7139" id="Fill-163" fill="#FFFFFF"></path>
                        <path d="M17.5215,19.2139 L21.7395,19.2139 C22.6155,19.2139 23.3285,18.5019 23.3285,17.6259 C23.3285,16.9009 22.7395,16.3129 22.0145,16.3129 L20.8855,16.3129 C19.1795,16.3129 17.7635,17.5739 17.5215,19.2139 M21.7395,20.2139 L16.4845,20.2139 L16.4845,19.7139 C16.4845,17.2869 18.4585,15.3129 20.8855,15.3129 L22.0145,15.3129 C23.2905,15.3129 24.3285,16.3509 24.3285,17.6259 C24.3285,19.0529 23.1675,20.2139 21.7395,20.2139" id="Fill-165" fill="#52267D"></path>
                        <path d="M20.7373,17.8008 C21.0003,17.2598 20.7743,16.6078 20.2333,16.3448 C19.6923,16.0808 19.0403,16.3068 18.7773,16.8478 C18.5133,17.3898 18.7393,18.0408 19.2803,18.3048 C19.8223,18.5678 20.4733,18.3418 20.7373,17.8008" id="Fill-167" fill="#52267D"></path>
                        <path d="M41.1787,15.0996 L46.6237,15.0996 C46.6237,12.3566 44.4007,10.1326 41.6577,10.1326 L41.1787,10.1326 C39.8077,10.1326 38.6957,11.2456 38.6957,12.6166 C38.6957,13.9876 39.8077,15.0996 41.1787,15.0996" id="Fill-169" fill="#F3E3FF"></path>
                        <path d="M41.6377,15.0059 L46.5307,15.0059 C46.5307,12.8519 44.7837,11.1049 42.6287,11.1049 L41.6367,11.1049 C40.5597,11.1049 39.6867,11.9779 39.6867,13.0549 C39.6867,14.1329 40.5597,15.0059 41.6377,15.0059" id="Fill-171" fill="#FFFFFF"></path>
                        <path d="M41.6367,11.6045 C40.8367,11.6045 40.1867,12.2545 40.1867,13.0545 C40.1867,13.8545 40.8377,14.5055 41.6377,14.5055 L45.9927,14.5055 C45.7507,12.8665 44.3347,11.6045 42.6287,11.6045 L41.6367,11.6045 Z M47.0307,15.5055 L41.6377,15.5055 C40.2857,15.5055 39.1867,14.4065 39.1867,13.0545 C39.1867,11.7045 40.2857,10.6045 41.6367,10.6045 L42.6287,10.6045 C45.0557,10.6045 47.0307,12.5795 47.0307,15.0055 L47.0307,15.5055 Z" id="Fill-173" fill="#52267D"></path>
                        <path d="M44.7754,12.5811 C44.7754,13.1831 44.2874,13.6711 43.6854,13.6711 C43.0834,13.6711 42.5954,13.1831 42.5954,12.5811 C42.5954,11.9791 43.0834,11.4911 43.6854,11.4911 C44.2874,11.4911 44.7754,11.9791 44.7754,12.5811" id="Fill-175" fill="#52267D"></path>
                        <path d="M10.3301,20.9404 L10.3301,20.9404 C10.6401,20.8744 10.9171,20.7024 11.1131,20.4544 L11.4781,19.9954 L10.6661,20.1694 L10.1861,20.2724 C10.0021,20.3114 9.8851,20.4934 9.9241,20.6774 C9.9641,20.8624 10.1451,20.9804 10.3301,20.9404" id="Fill-177" fill="#52267D"></path>
                        <path d="M52.3359,15.8447 L52.3359,15.8447 C52.0259,15.7787 51.7489,15.6067 51.5519,15.3587 L51.1869,14.8997 L51.9999,15.0737 L52.4799,15.1757 C52.6639,15.2157 52.7809,15.3977 52.7409,15.5817 C52.7019,15.7667 52.5209,15.8837 52.3359,15.8447" id="Fill-179" fill="#52267D"></path>
                        <path d="M41.3779,20.5361 C41.3779,20.5361 37.3189,22.2651 33.2269,20.6841 C33.6549,23.0861 34.0379,24.3121 34.0379,24.3121 C34.0379,24.3121 36.5009,24.4571 38.1319,24.1361 C40.4609,23.6771 41.3779,22.6181 41.3779,20.5361" id="Fill-181" fill="#EAF3FB"></path>
                        <path d="M35.7314,23.6143 C35.7314,23.6143 39.4244,23.9233 42.2834,22.4403" id="Fill-183" fill="#FFFFFF"></path>
                        <path d="M36.5947,24.1426 C36.0697,24.1426 35.7347,24.1166 35.6897,24.1126 L35.7727,23.1166 C35.8107,23.1216 39.3637,23.3936 42.0527,21.9966 L42.5137,22.8846 C40.4047,23.9776 37.9067,24.1426 36.5947,24.1426" id="Fill-185" fill="#52267D"></path>
                        <path d="M22.668,25.166 C22.668,25.166 26.268,26.189 29.444,25.555 C28.844,27.919 28.526,28.66 28.526,28.66 C28.526,28.66 23.762,28.024 22.668,25.166" id="Fill-187" fill="#EAF3FB"></path>
                        <path d="M22.3213,26.5273 C22.3213,26.5273 25.9443,27.2143 29.7913,26.7553" id="Fill-189" fill="#FFFFFF"></path>
                        <path d="M26.9785,27.4141 C24.3565,27.4141 22.3405,27.0401 22.2285,27.0181 L22.4145,26.0361 C22.4495,26.0431 26.0125,26.7001 29.7315,26.2591 L29.8505,27.2511 C28.8565,27.3701 27.8815,27.4141 26.9785,27.4141" id="Fill-191" fill="#52267D"></path>
                        <g id="Group-231" transform="translate(9.000000, 11.000000)" fill="#F3E3FF">
                            <path d="M63.3311,16.1484 C62.9671,16.1484 62.6701,15.8514 62.6701,15.4874 L62.9201,15.4874 C62.9201,15.7134 63.1041,15.8984 63.3311,15.8984 C63.5581,15.8984 63.7411,15.7134 63.7411,15.4874 L63.9911,15.4874 C63.9911,15.8514 63.6951,16.1484 63.3311,16.1484" id="Fill-193"></path>
                            <path d="M64.4023,16.1484 C64.0383,16.1484 63.7413,15.8514 63.7413,15.4874 L63.9913,15.4874 C63.9913,15.7134 64.1753,15.8984 64.4023,15.8984 C64.6293,15.8984 64.8133,15.7134 64.8133,15.4874 L65.0633,15.4874 C65.0633,15.8514 64.7663,16.1484 64.4023,16.1484" id="Fill-195"></path>
                            <path d="M63.8662,16.6836 C63.5022,16.6836 63.2062,16.3876 63.2062,16.0236 L63.4562,16.0236 C63.4562,16.2496 63.6392,16.4336 63.8662,16.4336 C64.0932,16.4336 64.2772,16.2496 64.2772,16.0236 L64.5272,16.0236 C64.5272,16.3876 64.2302,16.6836 63.8662,16.6836" id="Fill-197"></path>
                            <path d="M42.9209,15.2295 C42.8519,15.2295 42.7809,15.2215 42.7119,15.2055 C42.4739,15.1495 42.2719,15.0045 42.1429,14.7965 C42.0139,14.5895 41.9739,14.3445 42.0279,14.1065 C42.0839,13.8685 42.2299,13.6665 42.4369,13.5375 L42.5689,13.7505 C42.4179,13.8435 42.3129,13.9905 42.2729,14.1635 C42.2319,14.3365 42.2619,14.5145 42.3559,14.6655 C42.4479,14.8165 42.5959,14.9215 42.7689,14.9615 C42.9419,15.0025 43.1189,14.9725 43.2699,14.8785 L43.4019,15.0915 C43.2559,15.1825 43.0899,15.2295 42.9209,15.2295" id="Fill-199"></path>
                            <path d="M42.668,16.3174 C42.598,16.3174 42.526,16.3084 42.456,16.2934 C42.219,16.2364 42.018,16.0914 41.889,15.8834 C41.76,15.6764 41.72,15.4314 41.774,15.1944 C41.83,14.9564 41.976,14.7544 42.183,14.6254 L42.315,14.8384 C42.164,14.9314 42.059,15.0784 42.019,15.2514 C41.978,15.4234 42.008,15.6014 42.102,15.7524 C42.194,15.9034 42.341,16.0084 42.514,16.0484 C42.688,16.0934 42.865,16.0614 43.017,15.9664 L43.147,16.1794 C43.001,16.2704 42.836,16.3174 42.668,16.3174" id="Fill-201"></path>
                            <path d="M17.1904,33.8291 C16.7254,33.8291 16.3464,33.4501 16.3464,32.9851 L16.5964,32.9851 C16.5964,33.3121 16.8634,33.5791 17.1904,33.5791 C17.5174,33.5791 17.7844,33.3121 17.7844,32.9851 L18.0344,32.9851 C18.0344,33.4501 17.6554,33.8291 17.1904,33.8291" id="Fill-203"></path>
                            <g id="Group-209" transform="translate(17.000000, 33.000000)">
                                <path d="M0.9092,1.5479 C0.4442,1.5479 0.0652,1.1689 0.0652,0.7039 L0.3152,0.7039 C0.3152,1.0309 0.5822,1.2979 0.9092,1.2979 C1.2362,1.2979 1.5032,1.0309 1.5032,0.7039 L1.7532,0.7039 C1.7532,1.1689 1.3742,1.5479 0.9092,1.5479" id="Fill-207"></path>
                            </g>
                            <path d="M18.2324,10.9951 C17.7284,10.9951 17.3184,10.5851 17.3184,10.0811 L17.5684,10.0811 C17.5684,10.4471 17.8664,10.7451 18.2324,10.7451 C18.5994,10.7451 18.8974,10.4471 18.8974,10.0811 L19.1474,10.0811 C19.1474,10.5851 18.7374,10.9951 18.2324,10.9951" id="Fill-210"></path>
                            <path d="M19.0225,11.7852 C18.5175,11.7852 18.1075,11.3752 18.1075,10.8702 L18.3575,10.8702 C18.3575,11.2372 18.6555,11.5352 19.0225,11.5352 C19.3885,11.5352 19.6865,11.2372 19.6865,10.8702 L19.9365,10.8702 C19.9365,11.3752 19.5265,11.7852 19.0225,11.7852" id="Fill-212"></path>
                            <path d="M28.1562,25.1123 C27.5582,25.1123 27.0722,24.6263 27.0722,24.0273 L27.3222,24.0273 C27.3222,24.4873 27.6962,24.8623 28.1562,24.8623 C28.6162,24.8623 28.9912,24.4873 28.9912,24.0273 L29.2412,24.0273 C29.2412,24.6263 28.7552,25.1123 28.1562,25.1123" id="Fill-214"></path>
                            <path d="M29.1162,26.0713 C28.5172,26.0713 28.0312,25.5853 28.0312,24.9873 L28.2812,24.9873 C28.2812,25.4473 28.6562,25.8213 29.1162,25.8213 C29.5762,25.8213 29.9502,25.4473 29.9502,24.9873 L30.2002,24.9873 C30.2002,25.5853 29.7142,26.0713 29.1162,26.0713" id="Fill-216"></path>
                            <path d="M42.4121,0.9375 C41.9891,0.9375 41.6451,0.5935 41.6451,0.1705 L41.8951,0.1705 C41.8951,0.4565 42.1271,0.6875 42.4121,0.6875 C42.6971,0.6875 42.9291,0.4565 42.9291,0.1705 L43.1791,0.1705 C43.1791,0.5935 42.8351,0.9375 42.4121,0.9375" id="Fill-218"></path>
                            <path d="M43.0537,1.5791 C42.6307,1.5791 42.2867,1.2351 42.2867,0.8121 L42.5367,0.8121 C42.5367,1.0981 42.7687,1.3291 43.0537,1.3291 C43.3387,1.3291 43.5707,1.0981 43.5707,0.8121 L43.8207,0.8121 C43.8207,1.2351 43.4767,1.5791 43.0537,1.5791" id="Fill-220"></path>
                            <path d="M26.2373,7.6582 C25.6863,7.6582 25.2383,7.2102 25.2383,6.6582 L25.4883,6.6582 C25.4883,7.0712 25.8243,7.4082 26.2373,7.4082 C26.6503,7.4082 26.9873,7.0712 26.9873,6.6582 L27.2373,6.6582 C27.2373,7.2102 26.7893,7.6582 26.2373,7.6582" id="Fill-222"></path>
                            <path d="M16.8398,22.2783 C16.4058,22.2783 16.0528,21.9243 16.0528,21.4903 L16.3028,21.4903 C16.3028,21.7873 16.5438,22.0283 16.8398,22.0283 C17.1368,22.0283 17.3778,21.7873 17.3778,21.4903 L17.6278,21.4903 C17.6278,21.9243 17.2748,22.2783 16.8398,22.2783" id="Fill-227"></path>
                            <path d="M1.2266,7.0557 C0.8836,7.0557 0.6046,6.7767 0.6046,6.4337 L0.8546,6.4337 C0.8546,6.6387 1.0216,6.8057 1.2266,6.8057 C1.4316,6.8057 1.5986,6.6387 1.5986,6.4337 L1.8486,6.4337 C1.8486,6.7767 1.5696,7.0557 1.2266,7.0557" id="Fill-229"></path>
                        </g>
                    </g>
                    <g id="Group-291" transform="translate(14.000000, 0.476000)">
                        <path d="M87.7236,189.6953 C87.2866,189.6953 86.8856,189.4073 86.7616,188.9663 C86.6126,188.4343 86.9216,187.8833 87.4526,187.7323 C87.8616,187.6173 89.0696,187.1943 89.7496,186.6283 C90.1746,186.2753 90.8036,186.3313 91.1586,186.7573 C91.5116,187.1803 91.4536,187.8113 91.0296,188.1653 C89.8976,189.1073 88.1846,189.6043 87.9936,189.6583 C87.9036,189.6833 87.8126,189.6953 87.7236,189.6953" id="Fill-233" fill="#9ACDED"></path>
                        <path d="M218.0479,191.5654 L201.9909,191.5654 C202.5889,189.5184 202.9229,187.3574 202.9229,185.1164 C202.9229,172.4054 192.6179,162.1014 179.9069,162.1014 C169.7769,162.1014 161.1819,168.6494 158.1069,177.7414 C157.0239,177.5004 155.8999,177.3684 154.7429,177.3684 C146.6479,177.3684 140.0269,183.6264 139.4209,191.5654 L125.7039,191.6014 C125.1679,181.9944 117.7579,174.2244 108.2999,173.1614 C105.2409,158.3244 92.1059,147.1694 76.3629,147.1694 C65.6539,147.1694 56.1519,152.3314 50.2079,160.3014 C48.1419,159.7834 45.9809,159.5044 43.7539,159.5044 C29.1509,159.5044 17.3129,171.3424 17.3129,185.9464 C17.3129,187.8884 17.5279,189.7794 17.9269,191.6014 L1.6659,191.6014" id="Fill-235" fill="#FFFFFF"></path>
                        <path d="M124.7588,192.6045 L124.7058,191.6575 C124.1968,182.5345 117.2498,175.1735 108.1888,174.1555 L107.4668,174.0745 L107.3208,173.3635 C104.3108,158.7645 91.2918,148.1685 76.3628,148.1685 C66.2838,148.1685 57.0428,152.8095 51.0098,160.8995 L50.6118,161.4335 L49.9648,161.2715 C47.9378,160.7625 45.8478,160.5045 43.7538,160.5045 C29.7258,160.5045 18.3128,171.9175 18.3128,185.9465 C18.3128,187.7625 18.5118,189.5935 18.9038,191.3875 L19.1688,192.6015 L1.6658,192.6015 C1.1128,192.6015 0.6658,192.1545 0.6658,191.6015 C0.6658,191.0485 1.1128,190.6015 1.6658,190.6015 L16.7128,190.6015 C16.4468,189.0585 16.3128,187.4985 16.3128,185.9465 C16.3128,170.8155 28.6228,158.5045 43.7538,158.5045 C45.7898,158.5045 47.8228,158.7315 49.8068,159.1775 C56.2258,150.9015 65.8668,146.1685 76.3628,146.1685 C91.9968,146.1685 105.6608,157.0985 109.1268,172.2605 C118.4978,173.6405 125.6768,181.1785 126.6278,190.5995 L138.5208,190.5675 C139.5968,182.5335 146.5498,176.3685 154.7428,176.3685 C155.6458,176.3685 156.5538,176.4445 157.4548,176.5955 C160.9818,167.2925 169.8958,161.1015 179.9068,161.1015 C193.1498,161.1015 203.9228,171.8745 203.9228,185.1165 C203.9228,186.9395 203.7098,188.7665 203.2878,190.5655 L218.0478,190.5655 C218.6008,190.5655 219.0478,191.0125 219.0478,191.5655 C219.0478,192.1185 218.6008,192.5655 218.0478,192.5655 L200.6568,192.5655 L201.0308,191.2855 C201.6228,189.2585 201.9228,187.1835 201.9228,185.1165 C201.9228,172.9775 192.0468,163.1015 179.9068,163.1015 C170.4608,163.1015 162.0798,169.1135 159.0538,178.0615 L158.7658,178.9125 L157.8888,178.7175 C156.8488,178.4855 155.7898,178.3685 154.7428,178.3685 C147.2798,178.3685 140.9868,184.1985 140.4178,191.6415 L140.3478,192.5625 L124.7588,192.6045 Z" id="Fill-237" fill="#9ACDED"></path>
                        <path d="M206.0459,93.5537 C205.4929,93.5537 205.0459,93.1067 205.0459,92.5537 L205.0459,85.5537 C205.0459,85.0007 205.4929,84.5537 206.0459,84.5537 C206.5989,84.5537 207.0459,85.0007 207.0459,85.5537 L207.0459,92.5537 C207.0459,93.1067 206.5989,93.5537 206.0459,93.5537" id="Fill-239" fill="#375D81"></path>
                        <path d="M209.5459,90.0537 L202.5459,90.0537 C201.9929,90.0537 201.5459,89.6067 201.5459,89.0537 C201.5459,88.5007 201.9929,88.0537 202.5459,88.0537 L209.5459,88.0537 C210.0989,88.0537 210.5459,88.5007 210.5459,89.0537 C210.5459,89.6067 210.0989,90.0537 209.5459,90.0537" id="Fill-241" fill="#375D81"></path>
                        <path d="M20.2764,51.2227 C19.7234,51.2227 19.2764,50.7757 19.2764,50.2227 L19.2764,43.2227 C19.2764,42.6697 19.7234,42.2227 20.2764,42.2227 C20.8294,42.2227 21.2764,42.6697 21.2764,43.2227 L21.2764,50.2227 C21.2764,50.7757 20.8294,51.2227 20.2764,51.2227" id="Fill-243" fill="#375D81"></path>
                        <path d="M23.7764,47.7227 L16.7764,47.7227 C16.2234,47.7227 15.7764,47.2757 15.7764,46.7227 C15.7764,46.1697 16.2234,45.7227 16.7764,45.7227 L23.7764,45.7227 C24.3294,45.7227 24.7764,46.1697 24.7764,46.7227 C24.7764,47.2757 24.3294,47.7227 23.7764,47.7227" id="Fill-245" fill="#375D81"></path>
                        <path d="M143.9033,5.4619 C143.6273,5.4619 143.4033,5.2379 143.4033,4.9619 L143.4033,1.0249 C143.4033,0.7479 143.6273,0.5249 143.9033,0.5249 C144.1793,0.5249 144.4033,0.7479 144.4033,1.0249 L144.4033,4.9619 C144.4033,5.2379 144.1793,5.4619 143.9033,5.4619" id="Fill-247" fill="#375D81"></path>
                        <path d="M145.8721,3.4932 L141.9341,3.4932 C141.6581,3.4932 141.4351,3.2692 141.4351,2.9932 C141.4351,2.7172 141.6581,2.4932 141.9341,2.4932 L145.8721,2.4932 C146.1481,2.4932 146.3721,2.7172 146.3721,2.9932 C146.3721,3.2692 146.1481,3.4932 145.8721,3.4932" id="Fill-249" fill="#375D81"></path>
                        <path d="M6.9941,134.5039 C6.7181,134.5039 6.4941,134.2799 6.4941,134.0039 L6.4941,130.0669 C6.4941,129.7899 6.7181,129.5669 6.9941,129.5669 C7.2701,129.5669 7.4941,129.7899 7.4941,130.0669 L7.4941,134.0039 C7.4941,134.2799 7.2701,134.5039 6.9941,134.5039" id="Fill-251" fill="#375D81"></path>
                        <path d="M8.9629,132.5352 L5.0249,132.5352 C4.7489,132.5352 4.5259,132.3112 4.5259,132.0352 C4.5259,131.7592 4.7489,131.5352 5.0249,131.5352 L8.9629,131.5352 C9.2389,131.5352 9.4629,131.7592 9.4629,132.0352 C9.4629,132.3112 9.2389,132.5352 8.9629,132.5352" id="Fill-253" fill="#375D81"></path>
                        <path d="M183.3184,134.9746 C183.0424,134.9746 182.8184,134.7506 182.8184,134.4746 L182.8184,130.5376 C182.8184,130.2606 183.0424,130.0376 183.3184,130.0376 C183.5944,130.0376 183.8184,130.2606 183.8184,130.5376 L183.8184,134.4746 C183.8184,134.7506 183.5944,134.9746 183.3184,134.9746" id="Fill-255" fill="#375D81"></path>
                        <path d="M185.2871,133.0059 L181.3491,133.0059 C181.0731,133.0059 180.8501,132.7819 180.8501,132.5059 C180.8501,132.2299 181.0731,132.0059 181.3491,132.0059 L185.2871,132.0059 C185.5631,132.0059 185.7871,132.2299 185.7871,132.5059 C185.7871,132.7819 185.5631,133.0059 185.2871,133.0059" id="Fill-257" fill="#375D81"></path>
                        <path d="M129.7187,141.2549 C135.9327,141.2549 140.9697,146.2919 140.9697,152.5059 C140.9697,154.5529 140.4147,156.4659 139.4597,158.1199 L140.1567,160.7249 L140.9697,163.7569 L137.9377,162.9439 L135.3327,162.2459 C133.6797,163.2019 131.7657,163.7569 129.7187,163.7569 C123.5047,163.7569 118.4677,158.7199 118.4677,152.5059 C118.4677,146.2919 123.5047,141.2549 129.7187,141.2549" id="Fill-259" fill="#FFFFFF"></path>
                        <path d="M133.3799,153.0781 C133.3799,153.7981 133.9639,154.3831 134.6849,154.3831 C135.4049,154.3831 135.9889,153.7981 135.9889,153.0781 C135.9889,152.3571 135.4049,151.7721 134.6849,151.7721 C133.9639,151.7721 133.3799,152.3571 133.3799,153.0781" id="Fill-261" fill="#E1F2FF"></path>
                        <path d="M128.4141,153.0781 C128.4141,153.7981 128.9981,154.3831 129.7191,154.3831 C130.4391,154.3831 131.0231,153.7981 131.0231,153.0781 C131.0231,152.3571 130.4391,151.7721 129.7191,151.7721 C128.9981,151.7721 128.4141,152.3571 128.4141,153.0781" id="Fill-263" fill="#E1F2FF"></path>
                        <path d="M123.4482,153.0781 C123.4482,153.7981 124.0322,154.3831 124.7532,154.3831 C125.4732,154.3831 126.0582,153.7981 126.0582,153.0781 C126.0582,152.3571 125.4732,151.7721 124.7532,151.7721 C124.0322,151.7721 123.4482,152.3571 123.4482,153.0781" id="Fill-265" fill="#E1F2FF"></path>
                        <path d="M165.6357,122.2295 L165.6357,122.2295 C151.6967,125.2825 137.2657,125.3175 123.3117,122.3345 L101.6507,117.7045 C87.0287,114.5785 71.9247,114.4305 57.2437,117.2715 L55.5587,117.5975 L55.5587,50.5945 C70.6277,47.5405 86.1667,47.6415 101.1957,50.8935 L122.2077,55.4395 C135.6787,58.3535 149.6067,58.4545 163.1167,55.7335 L165.6357,55.2265 L165.6357,122.2295 Z" id="Fill-267" fill="#FFFFFF"></path>
                        <path d="M165.6357,122.2295 L165.6457,122.2295 L165.6357,122.2295 Z M78.3967,114.2325 C86.2427,114.2325 94.0837,115.0635 101.8597,116.7265 L123.5207,121.3575 C137.1697,124.2745 150.9977,124.2945 164.6357,121.4215 L164.6357,56.4485 L163.3147,56.7135 C149.5877,59.4775 135.6857,59.3775 121.9957,56.4165 L100.9837,51.8715 C86.2667,48.6865 71.3247,48.5345 56.5587,51.4155 L56.5587,116.3855 L57.0537,116.2905 C64.1427,114.9175 71.2717,114.2325 78.3967,114.2325 L78.3967,114.2325 Z M144.2347,125.5615 C137.1757,125.5615 130.1157,124.8115 123.1027,123.3125 L101.4417,118.6815 C86.8687,115.5685 72.0617,115.4225 57.4347,118.2525 L55.7487,118.5795 C55.4557,118.6385 55.1527,118.5585 54.9217,118.3695 C54.6927,118.1785 54.5587,117.8965 54.5587,117.5975 L54.5587,50.5945 C54.5587,50.1195 54.8937,49.7085 55.3607,49.6145 C70.6597,46.5155 86.1527,46.6175 101.4067,49.9165 L122.4197,54.4615 C135.8367,57.3655 149.4637,57.4635 162.9197,54.7525 L165.4387,54.2465 C165.7317,54.1875 166.0367,54.2625 166.2697,54.4535 C166.5007,54.6425 166.6357,54.9265 166.6357,55.2265 L166.6357,122.2295 C166.6357,122.6995 166.3087,123.1055 165.8497,123.2065 C158.6807,124.7765 151.4587,125.5615 144.2347,125.5615 L144.2347,125.5615 Z" id="Fill-269" fill="#375D81"></path>
                        <path d="M61.6162,115.3857 C59.9952,115.6587 58.3792,115.9907 56.7682,116.3817 L55.4692,116.6977 L55.4692,51.8857 C57.5372,51.3607 59.6172,50.9317 61.7042,50.5987 C61.6162,53.3197 61.6162,104.5847 61.6162,115.3857" id="Fill-271" fill="#E1F2FF"></path>
                        <path d="M125.3945,90.1123 C125.3945,99.8473 117.5015,107.7413 107.7655,107.7413 C98.0295,107.7413 90.1365,99.8473 90.1365,90.1123 C90.1365,80.3763 98.0295,72.4833 107.7655,72.4833 C117.5015,72.4833 125.3945,80.3763 125.3945,90.1123" id="Fill-273" fill="#EFEFF6"></path>
                        <path d="M129.5469,86.79 C129.5469,96.525 121.6539,104.419 111.9189,104.419 C102.1829,104.419 94.2899,96.525 94.2899,86.79 C94.2899,77.054 102.1829,69.161 111.9189,69.161 C121.6539,69.161 129.5469,77.054 129.5469,86.79" id="Fill-275" fill="#FFFFFF"></path>
                        <path d="M111.9189,70.1611 C102.7499,70.1611 95.2899,77.6211 95.2899,86.7901 C95.2899,95.9591 102.7499,103.4191 111.9189,103.4191 C121.0879,103.4191 128.5469,95.9591 128.5469,86.7901 C128.5469,77.6211 121.0879,70.1611 111.9189,70.1611 M111.9189,105.4191 C101.6469,105.4191 93.2899,97.0621 93.2899,86.7901 C93.2899,76.5171 101.6469,68.1611 111.9189,68.1611 C122.1899,68.1611 130.5469,76.5171 130.5469,86.7901 C130.5469,97.0621 122.1899,105.4191 111.9189,105.4191" id="Fill-277" fill="#375D81"></path>
                        <path d="M117.5645,95.6875 C117.6425,95.9165 117.7105,96.0735 117.7305,96.1245 C117.7375,96.1305 117.7245,96.1225 117.7305,96.1245 C117.7305,96.1245 117.7305,96.1265 117.7305,96.1245 C117.7315,96.1255 117.7295,96.1245 117.7295,96.1245 C117.2105,91.1115 120.0535,89.0225 120.9675,85.6925 C120.9715,85.6425 120.9815,85.5885 120.9975,85.5285 C121.0155,85.4535 121.0315,85.3765 121.0425,85.2995 C121.1785,84.3775 120.8005,83.3055 120.0855,82.1895 C120.0825,82.1825 120.0775,82.1765 120.0745,82.1705 C120.0155,82.0785 119.9535,81.9855 119.8895,81.8925 C119.8895,81.8925 119.8865,81.8905 119.8865,81.8885 C119.7695,81.7195 119.6435,81.5475 119.5125,81.3755 C119.4995,81.3585 119.4865,81.3395 119.4725,81.3235 C119.4355,81.2765 119.3975,81.2295 119.3615,81.1825 C119.3235,81.1335 119.2855,81.0845 119.2475,81.0385 C119.2075,80.9915 119.1685,80.9445 119.1295,80.8985 C119.0885,80.8495 119.0485,80.8015 119.0075,80.7525 C118.9805,80.7205 118.9495,80.6865 118.9195,80.6525 C117.7955,79.3585 116.3345,78.0795 114.8075,76.9665 C114.8075,76.9665 114.7955,76.9505 114.8075,76.9665 C115.0095,78.8535 115.0355,80.7405 114.8565,82.2495 C114.6405,84.0685 113.9905,86.1855 113.0865,88.1045 C110.9735,87.9315 108.8125,87.4415 107.1275,86.7225 C105.7185,86.1215 104.1055,85.1715 102.5625,84.0455 C102.5795,84.2025 102.5985,84.3575 102.6165,84.5135 C102.6225,84.5605 102.6285,84.6065 102.6345,84.6535 C102.6495,84.7655 102.6635,84.8755 102.6805,84.9875 C102.6865,85.0395 102.6945,85.0895 102.7025,85.1415 C102.7185,85.2535 102.7355,85.3655 102.7535,85.4755 C102.7605,85.5205 102.7685,85.5665 102.7755,85.6115 C102.7985,85.7515 102.8225,85.8915 102.8475,86.0315 C102.8495,86.0455 102.8515,86.0595 102.8545,86.0725 C102.8835,86.2355 102.9145,86.3955 102.9465,86.5565 C102.9485,86.5685 102.9515,86.5805 102.9545,86.5925 C102.9835,86.7375 103.0125,86.8785 103.0435,87.0225 C103.0505,87.0515 103.0565,87.0805 103.0625,87.1095 C103.0915,87.2395 103.1225,87.3695 103.1525,87.4985 C103.1595,87.5225 103.1665,87.5475 103.1715,87.5745 C103.2085,87.7225 103.2445,87.8715 103.2835,88.0175 C103.2845,88.0185 103.2845,88.0195 103.2845,88.0195 C103.4095,88.4905 103.5455,88.9455 103.6945,89.3805 C103.6965,89.3865 103.6985,89.3915 103.6995,89.3965 C103.9505,90.1255 104.2355,90.7955 104.5545,91.3825 C104.6015,91.4675 104.6495,91.5515 104.6975,91.6325 C104.7005,91.6355 104.7005,91.6395 104.7025,91.6425 L104.7035,91.6425 C104.7465,91.7175 104.7915,91.7915 104.8355,91.8615 L104.8365,91.8625 C104.8365,91.8625 104.8395,91.8675 104.8415,91.8705 C104.8895,91.9475 104.9385,92.0215 104.9885,92.0925 L104.9885,92.0935 C104.9955,92.1035 105.0015,92.1125 105.0095,92.1225 C105.0095,92.1225 105.0085,92.1245 105.0095,92.1245 C105.0745,92.2175 105.1405,92.3075 105.2065,92.3935 C105.2185,92.4075 105.2295,92.4215 105.2405,92.4345 C105.2435,92.4405 105.2485,92.4445 105.2515,92.4515 C105.3285,92.5465 105.4065,92.6405 105.4865,92.7265 C105.5425,92.7895 105.5985,92.8465 105.6565,92.9035 C105.6805,92.9275 105.7065,92.9505 105.7295,92.9725 C105.7655,93.0065 105.8015,93.0385 105.8375,93.0715 C105.8655,93.0945 105.8925,93.1155 105.9205,93.1385 C105.9555,93.1675 105.9915,93.1945 106.0265,93.2225 C106.0535,93.2435 106.0815,93.2625 106.1105,93.2825 C106.1475,93.3085 106.1825,93.3335 106.2195,93.3575 C106.2475,93.3745 106.2765,93.3925 106.3045,93.4105 C106.3425,93.4325 106.3825,93.4545 106.4205,93.4765 C106.4485,93.4915 106.4755,93.5045 106.5015,93.5175 C106.5465,93.5395 106.5905,93.5585 106.6365,93.5785 C106.6585,93.5855 106.6815,93.5975 106.7055,93.6065 C106.7735,93.6335 106.8425,93.6575 106.9125,93.6765 C106.9595,93.6905 106.9995,93.7055 107.0375,93.7195 C110.3835,94.6035 113.6435,93.2025 117.7305,96.1245" id="Fill-279" fill="#9452BA"></path>
                        <path d="M134.2871,102.0371 L134.2871,116.8411" id="Fill-281" fill="#FFFFFF"></path>
                        <path d="M134.2871,117.8408 C133.7341,117.8408 133.2871,117.3938 133.2871,116.8408 L133.2871,102.0368 C133.2871,101.4848 133.7341,101.0368 134.2871,101.0368 C134.8401,101.0368 135.2871,101.4848 135.2871,102.0368 L135.2871,116.8408 C135.2871,117.3938 134.8401,117.8408 134.2871,117.8408" id="Fill-283" fill="#E1F2FF"></path>
                        <path d="M79.624,69.8076 L79.624,93.3366" id="Fill-285" fill="#FFFFFF"></path>
                        <path d="M79.624,94.3369 C79.071,94.3369 78.624,93.8899 78.624,93.3369 L78.624,69.8079 C78.624,69.2549 79.071,68.8079 79.624,68.8079 C80.177,68.8079 80.624,69.2549 80.624,69.8079 L80.624,93.3369 C80.624,93.8899 80.177,94.3369 79.624,94.3369" id="Fill-287" fill="#E1F2FF"></path>
                        <path d="M59.9355,178 C61.7675,181.371 44.9235,177.747 44.9235,177.747 C44.9235,177.747 46.5655,173.446 50.7385,173.068 C54.9555,172.686 57.9765,174.395 59.9355,178" id="Fill-289" fill="#E1F2FF"></path>
                    </g>
                    <g id="Group-298" transform="translate(63.000000, 39.476000)">
                        <g id="Group-294" transform="translate(1.000000, 1.000000)">
                            <mask id="mask-22" fill="white">
                                <use xlink:href="#path-21"></use>
                            </mask>
                            <g id="Clip-293"></g>
                            <path d="M2.5029,150.4053 L2.1209,150.4053 C1.1209,150.4053 0.3109,149.5943 0.3109,148.5943 L0.3109,1.9233 C0.3109,0.9233 1.1209,0.1123 2.1209,0.1123 L2.5029,0.1123 C3.5039,0.1123 4.3149,0.9233 4.3149,1.9233 L4.3149,148.5943 C4.3149,149.5943 3.5039,150.4053 2.5029,150.4053" id="Fill-292" fill="#FFFFFF" mask="url(#mask-22)"></path>
                        </g>
                        <g id="Group-297">
                            <mask id="mask-24" fill="white">
                                <use xlink:href="#path-23"></use>
                            </mask>
                            <g id="Clip-296"></g>
                            <path d="M3.1211,2.1123 C2.6741,2.1123 2.3101,2.4753 2.3101,2.9233 L2.3101,149.5943 C2.3101,150.0423 2.6741,150.4053 3.1211,150.4053 L3.5031,150.4053 C3.9501,150.4053 4.3141,150.0423 4.3141,149.5943 L4.3141,2.9233 C4.3141,2.4753 3.9501,2.1123 3.5031,2.1123 L3.1211,2.1123 Z M3.5031,152.4053 L3.1211,152.4053 C1.5711,152.4053 0.3101,151.1443 0.3101,149.5943 L0.3101,2.9233 C0.3101,1.3733 1.5711,0.1123 3.1211,0.1123 L3.5031,0.1123 C5.0531,0.1123 6.3141,1.3733 6.3141,2.9233 L6.3141,149.5943 C6.3141,151.1443 5.0531,152.4053 3.5031,152.4053 L3.5031,152.4053 Z" id="Fill-295" fill="#375D81" mask="url(#mask-24)"></path>
                        </g>
                    </g>
                    <g id="Group-303" transform="translate(58.000000, 176.476000)" fill="#9ACDED">
                        <path d="M9.0273,4.5801 C4.3303,4.5801 1.1623,2.5581 0.9713,2.4341 C0.5093,2.1311 0.3803,1.5121 0.6823,1.0491 C0.9843,0.5881 1.6023,0.4551 2.0643,0.7591 C2.3063,0.9131 8.0843,4.5511 15.5133,1.0931 C16.0163,0.8631 16.6093,1.0781 16.8423,1.5781 C17.0753,2.0791 16.8583,2.6741 16.3573,2.9071 C13.6833,4.1491 11.1923,4.5801 9.0273,4.5801" id="Fill-299"></path>
                        <path d="M16.7461,6.751 C16.3351,6.751 15.9501,6.495 15.8051,6.085 C15.6201,5.565 15.8921,4.994 16.4121,4.809 C16.4171,4.807 16.9811,4.604 17.8021,4.174 C18.2891,3.918 18.8941,4.105 19.1511,4.596 C19.4081,5.084 19.2191,5.689 18.7291,5.945 C17.7721,6.447 17.1061,6.685 17.0791,6.694 C16.9691,6.732 16.8561,6.751 16.7461,6.751" id="Fill-301"></path>
                    </g>
                </g>
            </g>
        </g>
    </g>
</svg>