<svg width="256" height="256" viewBox="0 0 256 256" xmlns="http://www.w3.org/2000/svg" xmlns:xlink="http://www.w3.org/1999/xlink">
  <title>
    Artboard
  </title>
  <defs>
    <path id="path-1" d="M9.19.418v2H.2174v-2H9.19z"/>
    <path id="path-3" d="M0 2.418v-2h10.9727v2z"/>
    <path id="path-5" d="M.221 46.36h86V.121h-86z"/>
    <path id="path-7" d="M55.22.1192384V33.377H.0416331V.1192384H55.22z"/>
    <path id="path-9" d="M39.7321134 24.377H.62124928V.59526558H39.7321134V24.377z"/>
    <path id="path-11" d="M.6207694 25.377h41.1082001V.59503176H.6207694V25.377z"/>
    <path id="path-13" d="M11.7250345 12.377H.5407V.61332658h11.1843345V12.377z"/>
    <path id="path-15" d="M13.2252979 12.377H.5352V.11418146h12.6900979z"/>
    <path id="path-17" d="M25.1982 38.377H.17937293V.4846384H25.1982V38.377z"/>
    <path id="path-19" d="M27.0847 39.377H.1797927V.48147776H27.0847z"/>
    <path id="path-21" d="M33.7804944 25.377H.18801643V.36356374H33.7804944V25.377z"/>
    <path id="path-23" d="M.68830157 26.377H35.2634964V.86111574H.68830157V26.377z"/>
  </defs>
  <g id="Page-1" fill="none" fill-rule="evenodd">
    <g id="Artboard">
      <g id="Channels">
        <g id="Page-1">
          <path d="M187.7528 138.8898h37.415-37.415z" id="Fill-1" fill="#FFF"/>
          <g id="Group-67">
            <path d="M225.168 139.8894h-37.415c-.553 0-1-.447-1-1 0-.553.447-1 1-1h37.415c.553 0 1 .447 1 1 0 .553-.447 1-1 1z" id="Fill-2" fill="#375D81"/>
            <path d="M23.3604 218.903c0-57.193 46.364-103.558 103.558-103.558 57.193 0 103.557 46.365 103.557 103.558H23.3604z" id="Fill-4" fill="#E1F2FF"/>
            <path d="M211.1074 181.8152c-.276 0-.5-.224-.5-.5v-3.937c0-.277.224-.5.5-.5s.5.223.5.5v3.937c0 .276-.224.5-.5.5" id="Fill-6" fill="#375D81"/>
            <path d="M213.0762 179.8464h-3.938c-.276 0-.499-.224-.499-.5s.223-.5.499-.5h3.938c.276 0 .5.224.5.5s-.224.5-.5.5" id="Fill-8" fill="#375D81"/>
            <path d="M245.2178 210.073h6.973" id="Fill-10" fill="#FFF"/>
            <g id="Group-14" transform="translate(244 208.655)">
              <mask id="mask-2" fill="#fff">
                <use xlink:href="#path-1"/>
              </mask>
              <path d="M8.1904 2.418h-6.973c-.552 0-1-.447-1-1 0-.553.448-1 1-1h6.973c.553 0 1 .447 1 1 0 .553-.447 1-1 1" id="Fill-12" fill="#375D81" mask="url(#mask-2)"/>
            </g>
            <path d="M3 210.073h8.973" id="Fill-15" fill="#FFF"/>
            <g id="Group-19" transform="translate(2 208.655)">
              <mask id="mask-4" fill="#fff">
                <use xlink:href="#path-3"/>
              </mask>
              <path d="M9.9727 2.418H.9997c-.552 0-1-.447-1-1 0-.553.448-1 1-1h8.973c.553 0 1 .447 1 1 0 .553-.447 1-1 1" id="Fill-17" fill="#375D81" mask="url(#mask-4)"/>
            </g>
            <path d="M94.2305 219.1872h67.187" id="Fill-20" fill="#FFF"/>
            <path d="M161.417 220.1872H94.23c-.552 0-1-.447-1-1 0-.553.448-1 1-1h67.187c.553 0 1 .447 1 1 0 .553-.447 1-1 1" id="Fill-22" fill="#375D81"/>
            <path d="M170.0352 219.1872h9.142" id="Fill-24" fill="#FFF"/>
            <path d="M179.1768 220.1872h-9.142c-.552 0-1-.447-1-1 0-.553.448-1 1-1h9.142c.553 0 1 .447 1 1 0 .553-.447 1-1 1" id="Fill-26" fill="#375D81"/>
            <path d="M86.3486 219.112l-5 .075" id="Fill-28" fill="#FFF"/>
            <path d="M81.3486 220.1872c-.546 0-.991-.437-1-.985-.008-.552.433-1.006.985-1.015l5-.075c.515-.009 1.005.432 1.015.985.008.552-.433 1.006-.985 1.015l-5 .075h-.015z" id="Fill-30" fill="#375D81"/>
            <path d="M210.2529 64.5739c-.553 0-1-.447-1-1v-7c0-.553.447-1 1-1 .553 0 1 .447 1 1v7c0 .553-.447 1-1 1" id="Fill-32" fill="#375D81"/>
            <path d="M213.7529 61.0739h-7c-.553 0-1-.447-1-1 0-.553.447-1 1-1h7c.553 0 1 .447 1 1 0 .553-.447 1-1 1" id="Fill-34" fill="#375D81"/>
            <path d="M35.6523 43.2185c-.553 0-1-.447-1-1v-7c0-.553.447-1 1-1 .553 0 1 .447 1 1v7c0 .553-.447 1-1 1" id="Fill-36" fill="#375D81"/>
            <path d="M39.1523 39.7185h-7c-.553 0-1-.447-1-1 0-.553.447-1 1-1h7c.553 0 1 .447 1 1 0 .553-.447 1-1 1" id="Fill-38" fill="#375D81"/>
            <path d="M174.7959 14.9372c-.276 0-.5-.224-.5-.5v-3.937c0-.277.224-.5.5-.5s.5.223.5.5v3.937c0 .276-.224.5-.5.5" id="Fill-40" fill="#375D81"/>
            <path d="M176.7646 12.9685h-3.938c-.276 0-.499-.224-.499-.5s.223-.5.499-.5h3.938c.276 0 .5.224.5.5s-.224.5-.5.5" id="Fill-42" fill="#375D81"/>
            <path d="M22.4092 173.8122c-.276 0-.5-.224-.5-.5v-3.937c0-.277.224-.5.5-.5s.5.223.5.5v3.937c0 .276-.224.5-.5.5" id="Fill-44" fill="#375D81"/>
            <path d="M24.3779 171.8435h-3.938c-.276 0-.499-.224-.499-.5s.223-.5.499-.5h3.938c.276 0 .5.224.5.5s-.224.5-.5.5" id="Fill-46" fill="#375D81"/>
            <path d="M187.0146 206.9685c-.553 0-1-.447-1-1v-14.25c0-.553.447-1 1-1 .553 0 1 .447 1 1v14.25c0 .553-.447 1-1 1" id="Fill-48" fill="#E1F2FF"/>
            <path id="Fill-50" fill="#FFF" d="M53.648 210.016h146.54v-94.067H53.648z"/>
            <path d="M54.648 209.016h144.54v-92.067H54.648v92.067zm-2 2h148.54v-96.067H52.648v96.067z" id="Fill-52" fill="#375D81"/>
            <path d="M198.1885 83.7702h-142.54c-1.105 0-2-.703-2-1.57v-5.661c0-.868.895-1.571 2-1.571h142.54c1.104 0 2 .703 2 1.571v5.661c0 .867-.896 1.57-2 1.57" id="Fill-53" fill="#FFF"/>
            <path d="M55.6484 75.9685c-.61 0-1 .338-1 .57v5.661c0 .233.39.571 1 .571h142.54c.61 0 1-.338 1-.571v-5.661c0-.232-.39-.57-1-.57h-142.54zm142.54 8.802h-142.54c-1.654 0-3-1.154-3-2.571v-5.661c0-1.417 1.346-2.57 3-2.57h142.54c1.654 0 3 1.153 3 2.57v5.661c0 1.417-1.346 2.571-3 2.571z" id="Fill-54" fill="#375D81"/>
            <path d="M171.0703 67.7458h-88.304c-.97 0-1.757-.896-1.757-2v-21.709c0-1.104.787-2 1.757-2h88.304c.97 0 1.757.896 1.757 2v21.709c0 1.104-.787 2-1.757 2" id="Fill-55" fill="#FFF"/>
            <path d="M82.7666 43.0368c-.41 0-.757.458-.757 1v21.709c0 .542.347 1 .757 1h88.304c.41 0 .757-.458.757-1v-21.709c0-.542-.347-1-.757-1h-88.304zm88.304 25.709h-88.304c-1.521 0-2.757-1.346-2.757-3v-21.709c0-1.654 1.236-3 2.757-3h88.304c1.52 0 2.757 1.346 2.757 3v21.709c0 1.654-1.237 3-2.757 3z" id="Fill-56" fill="#375D81"/>
            <path id="Fill-57" fill="#E1F2FF" d="M67.493 183.015h61.728v-46.239H67.493z"/>
            <path d="M68.493 182.015h59.728v-44.239H68.493v44.239zm-2 2h63.728v-48.239H66.493v48.239z" id="Fill-58" fill="#375D81"/>
            <path id="Fill-59" fill="#E1F2FF" d="M152.483 210.016h34.864v-73.24h-34.864z"/>
            <path d="M153.482 209.016h32.864v-71.24h-32.864v71.24zm-1.999 2h36.864v-75.24h-36.864v75.24z" id="Fill-60" fill="#375D81"/>
            <path d="M87.5928 210.0905c-.318-5.696-4.711-10.303-10.319-10.933-1.813-8.796-9.602-15.411-18.936-15.411-6.349 0-11.982 3.061-15.508 7.786-1.224-.307-2.506-.472-3.826-.472-8.658 0-15.678 7.019-15.678 15.677 0 1.152.128 2.273.366 3.353" id="Fill-61" fill="#FFF"/>
            <path d="M23.6904 211.0905c-.459 0-.873-.318-.976-.785-.257-1.174-.388-2.374-.388-3.568 0-9.196 7.481-16.677 16.677-16.677 1.152 0 2.301.119 3.426.354 3.884-4.882 9.645-7.668 15.908-7.668 9.368 0 17.566 6.485 19.76 15.518 5.796.981 10.161 5.824 10.493 11.77.032.552-.39 1.024-.942 1.054-.55.022-1.023-.391-1.054-.942-.292-5.21-4.258-9.413-9.432-9.994l-.722-.082-.146-.71c-1.745-8.468-9.296-14.614-17.957-14.614-5.844 0-11.205 2.692-14.706 7.384l-.398.534-.647-.162c-1.168-.294-2.375-.442-3.583-.442-8.093 0-14.677 6.584-14.677 14.677 0 1.05.115 2.106.342 3.138.119.54-.223 1.073-.762 1.192-.072.015-.145.023-.216.023" id="Fill-62" fill="#9ACDED"/>
            <path d="M233.7275 209.5896c.458-1.569.714-3.225.714-4.942 0-9.741-7.897-17.637-17.637-17.637-7.763 0-14.349 5.017-16.706 11.985-.83-.185-1.692-.286-2.578-.286-6.203 0-11.276 4.795-11.741 10.88" id="Fill-63" fill="#FFF"/>
            <path d="M233.7275 210.5896c-.093 0-.187-.013-.28-.04-.531-.154-.834-.71-.68-1.24.447-1.533.674-3.101.674-4.662 0-9.174-7.463-16.637-16.637-16.637-7.139 0-13.472 4.543-15.759 11.306l-.288.851-.877-.196c-.778-.174-1.572-.262-2.36-.262-5.599 0-10.317 4.373-10.744 9.956-.042.551-.507.951-1.073.921-.551-.042-.963-.522-.921-1.073.506-6.619 6.1-11.804 12.738-11.804.643 0 1.289.05 1.929.148 2.782-7.122 9.649-11.847 17.355-11.847 10.277 0 18.637 8.36 18.637 18.637 0 1.751-.254 3.508-.754 5.222-.127.437-.526.72-.96.72" id="Fill-64" fill="#9ACDED"/>
            <path d="M20.2744 210.112h217.894" id="Fill-65" fill="#FFF"/>
            <path d="M238.168 211.112H20.274c-.552 0-1-.447-1-1 0-.553.448-1 1-1h217.894c.553 0 1 .447 1 1 0 .553-.447 1-1 1" id="Fill-66" fill="#375D81"/>
          </g>
          <g id="Group-346" transform="translate(43 136.655)">
            <mask id="mask-6" fill="#fff">
              <use xlink:href="#path-5"/>
            </mask>
            <g transform="translate(31 12)" id="Group-82" mask="url(#mask-6)">
              <mask id="mask-8" fill="#fff">
                <use xlink:href="#path-7"/>
              </mask>
              <path d="M3.8848 46.9131c4.378-.145 8.444-3.212 17.375-3.736.121-.586.272-1.116.467-1.551 1.572-3.522 3.727-13.641 2.179-20.251l-1.226-5.231c-.402-1.715-.616-3.47-.638-5.233-.01-.734.056-1.452.189-2.145.033-.174.071-.346.112-.517.125-.511.287-1.008.482-1.488.066-.16.135-.318.207-.474.146-.312.306-.615.48-.91.175-.295.362-.58.562-.856.603-.827 1.322-1.563 2.133-2.186.271-.208.551-.402.841-.584 1.596-.997 3.477-1.584 5.496-1.609l1.744-.022c2.937-.037 5.611 1.12 7.56 3.021.243.237.475.487.695.747.401.471.758.981 1.071 1.519.119.202.232.407.336.617.078.155.15.311.219.469.208.475.383.967.52 1.476.137.507.239 1.031.3 1.566.041.357.064.72.069 1.087.009.732-.279 1.399-.754 1.885-.474.486-1.133.791-1.864.8l-10.89.137 1.767 9.431c2.056 9.684 1.556 16.184.113 20.532-.322.969-2.182 4.413-2.182 4.413 5.554 8.524 13.95 12.174 22.893 13.153 7.601.831 23.901-6.297 15.352-14.198-8.548-7.901 1.722-3.05 3.238-2.056 1.515.995 10.299 8.393 1.007 19.528-3.929 4.708-8.393 8.999-19.221 12.383-1.736.542-11.238 1.353-16.34 2.887-15.189 4.567-27.643-.035-34.714-10.011-7.043-9.935-1.307-22.536.422-22.593" id="Fill-80" fill="#9452BA" mask="url(#mask-8)"/>
            </g>
            <g id="Group-85" mask="url(#mask-6)" fill="#52267D">
              <path d="M63.4809 55.0921c1.662-5.006 1.614-11.739-.143-20.009l-1.99-10.624 12.079-.152c.441-.005.853-.182 1.16-.498.31-.316.477-.733.471-1.175-.004-.332-.026-.66-.063-.985-.053-.476-.145-.953-.271-1.419-.122-.451-.28-.9-.471-1.336-.062-.142-.128-.284-.197-.422-.096-.192-.198-.377-.305-.56-.289-.495-.615-.958-.971-1.377-.2-.237-.41-.464-.63-.679-1.814-1.767-4.198-2.737-6.724-2.737-.028 0-.651.00733333-1.869.022-1.767.023-3.489.527-4.979 1.458-.262.164-.516.34-.761.529-.738.566-1.388 1.233-1.934 1.982-.182.249-.352.509-.511.777-.156.265-.302.541-.433.823-.065.139-.128.285-.189.431-.177.436-.324.89-.435 1.345-.038.152-.072.309-.102.467-.122.638-.18 1.291-.171 1.944.021 1.689.227 3.376.611 5.019l1.226 5.23c1.602 6.834-.606 17.231-2.239 20.887-.152.34 9.627 1.703 9.841 1.059zm-11.667-1.873c1.494-3.348 3.596-13.306 2.118-19.616l-1.226-5.23c-.418-1.784-.641-3.617-.664-5.45-.011-.786.059-1.576.206-2.346.036-.188.078-.375.122-.561.136-.555.314-1.102.529-1.632.072-.176.147-.347.226-.517.16-.344.335-.676.525-.998.192-.324.397-.635.616-.936.659-.905 1.443-1.709 2.332-2.391.296-.228.602-.44.919-.639 1.802-1.126 3.882-1.734 6.014-1.762l1.744-.021c3.159-.041 6.044 1.135 8.271 3.305.266.259.521.533.761.817.43.507.825 1.066 1.172 1.662.129.22.253.445.367.675.084.167.163.339.239.513.232.527.423 1.071.569 1.617.153.561.263 1.139.329 1.714.043.388.069.785.075 1.185.011.979-.358 1.901-1.039 2.598-.679.697-1.592 1.089-2.568 1.101l-9.699.123 1.547 8.26c1.827 8.6 1.855 15.684.08 21.033-.1806667.542-4.70233333-.2926667-13.565-2.504z" id="Fill-83"/>
            </g>
            <g transform="translate(7 21)" id="Group-88" mask="url(#mask-6)">
              <mask id="mask-10" fill="#fff">
                <use xlink:href="#path-9"/>
              </mask>
              <path d="M37.1611 23.3242c.208-11.264-8.839-19.999-19.018-21.742-2.113-.362-2.808-1.015-5.114-.986l-1.766.023c-5.952.074-10.715 4.959-10.641 10.91.019 1.483 1.236 2.671 2.721 2.652 0 0 18.117-.232 18.202-.241 0 0 1.475-.017 1.477-.016-.003.001-1.478.02-1.481.022 4.028 1.65 6.586 6.74 7.06 9.485.676 3.911.257 7.149-1.046 9.779-.869 1.753-.943 3.851-.785 5.549 0 0 .043.014.104.034.074.907.234 1.938.519 3.113 1.692-1.21 4.323-3.033 4.804-3.295 1.04-.565 3.388-1.852 4.438-2.473 6.71-3.959.409-6.407.526-12.814" id="Fill-86" fill="#9452BA" mask="url(#mask-10)"/>
            </g>
            <g transform="translate(6 20)" id="Group-91" mask="url(#mask-6)">
              <mask id="mask-12" fill="#fff">
                <use xlink:href="#path-11"/>
              </mask>
              <path d="M28.7197 39.0146l.009.003.142.694c.039.48.103.98.191 1.495 1.456-1.022 3.215-2.233 3.658-2.474 1.167-.635 3.409-1.865 4.406-2.455 3.406-2.009 2.903-3.087 1.687-5.691-.757-1.622-1.699-3.639-1.652-6.281.211-11.411-9.212-19.201-18.186-20.738-.865-.148-1.513-.342-2.084-.514-.88-.264-1.569-.491-2.849-.457l-1.766.022c-5.391.068-9.721 4.507-9.654 9.898.012.923.767 1.665 1.687 1.665h.015c6.142-.079 17.837-.23 18.183-.24.468-.006.81-.01 1.065-.011l.423-.007v.01c.302.01.357.036.475.096l2.159 1.08-1.238.412c2.916 2.39 4.773 6.292 5.196 8.74.689 3.985.307 7.482-1.137 10.393-.682 1.379-.792 3.037-.73 4.36zm-.948 5.566l-.35-1.438c-.219-.902-.379-1.776-.478-2.609l-.109-.038-.06-.644c-.224-2.402.074-4.449.883-6.085 1.251-2.523 1.574-5.606.958-9.165-.388-2.249-2.623-7.039-6.282-8.656-.762.011-4.05.057-17.978.236h-.047c-2.011 0-3.66-1.623-3.687-3.64-.039-3.145 1.149-6.118 3.345-8.37 2.196-2.252 5.138-3.513 8.283-3.553l1.767-.022c1.557-.025 2.487.253 3.449.541.541.163 1.102.331 1.847.459 9.795 1.677 20.08 10.219 19.848 22.746-.04 2.178.759 3.889 1.464 5.398 1.223 2.62 2.487 5.328-2.482 8.259-1.021.604-3.289 1.849-4.468 2.491-.374.203-2.789 1.863-4.699 3.229l-1.204.861z" id="Fill-89" fill="#52267D" mask="url(#mask-12)"/>
            </g>
            <g transform="translate(28 33)" id="Group-94" mask="url(#mask-6)">
              <mask id="mask-14" fill="#fff">
                <use xlink:href="#path-13"/>
              </mask>
              <path d="M10.5547 24.4062c-.11-1.737-.388-2.627-.201-3.337 1.071-4.087 1.42-5.378 1.366-9.689-.054-4.286-2.59-8.489-6.283-10.695-.203-.122-2.843-.274-4.896 1.261 4.029 1.65 6.586 6.74 7.061 9.485.676 3.911.257 7.149-1.047 9.779-.868 1.753-.943 3.851-.784 5.549 0 0 4.938 1.783 4.784-2.353" id="Fill-92" fill="#F3E3FF" mask="url(#mask-14)"/>
            </g>
            <g transform="translate(27 33)" id="Group-97" mask="url(#mask-6)">
              <mask id="mask-16" fill="#fff">
                <use xlink:href="#path-15"/>
              </mask>
              <path d="M7.2412 26.3838c.803.229 2.327.487 3.156-.12.468-.342.69-.959.658-1.832-.042-.647-.106-1.173-.161-1.615-.095-.78-.165-1.342-.024-1.874l.027-.104c1.056-4.029 1.375-5.246 1.323-9.453-.051-4.078-2.422-8.11-6.041-10.271-.147-.027-1.929-.122-3.608.77 3.676 2.008 6.045 6.696 6.524 9.462.669 3.879.302 7.271-1.092 10.085-.792 1.599-.865 3.52-.762 4.952m1.703 1.255c-1.187 0-2.272-.384-2.344-.409l-.297-.109-.031-.315c-.148-1.586-.124-3.882.834-5.818 1.299-2.62 1.636-5.806 1.002-9.471-.494-2.861-3.117-7.616-6.757-9.108l-.816-.335.706-.528c2.153-1.609 5.011-1.554 5.453-1.289 3.908 2.335 6.47 6.698 6.526 11.117.053 4.342-.301 5.697-1.356 9.718l-.027.105c-.091.347-.035.804.05 1.498.056.46.124 1.007.166 1.68l.001.013c.046 1.23-.313 2.134-1.068 2.684-.589.43-1.334.567-2.042.567" id="Fill-95" fill="#52267D" mask="url(#mask-16)"/>
            </g>
            <path d="M12.6309 23.5205s-.027-1.882 1.833-2.652c.567-.237 1.605-.673 1.605-.673s1.143 2.341-.112 2.951c-1.805.877-3.326.374-3.326.374" id="Fill-98" fill="#FFF" mask="url(#mask-6)"/>
            <path d="M13.1768 23.124c.517.068 1.485.095 2.562-.428.126-.061.205-.151.253-.293.145-.419-.025-1.086-.193-1.552l-1.143.479c-1.049.435-1.376 1.293-1.479 1.794m.568 1.04c-.745 0-1.234-.156-1.271-.169l-.338-.111-.005-.357c-.001-.09-.008-2.231 2.142-3.121l2.038-.855.207.425c.082.168.792 1.673.42 2.753-.135.39-.399.69-.762.867-.92.447-1.774.568-2.431.568" id="Fill-100" fill="#52267D" mask="url(#mask-6)"/>
            <path d="M17.2959 22.1387s.021-2.564 2.9-2.975c.538-.077 1.942-.06 1.942-.06s.681 2.705-.836 2.984c-1.865.345-4.006.051-4.006.051" id="Fill-102" fill="#FFF" mask="url(#mask-6)"/>
            <path d="M17.8564 21.6943c.722.062 2.116.131 3.354-.098.169-.031.286-.108.376-.25.271-.421.221-1.223.14-1.745-.481.002-1.154.014-1.459.058-1.753.249-2.263 1.389-2.411 2.035m1.381 1.062c-1.1 0-1.953-.115-2.01-.123l-.435-.059.003-.44c.008-1.036.715-3.093 3.331-3.465.559-.079 1.869-.066 2.017-.066l.385.005.094.373c.048.192.453 1.9-.194 2.905-.239.373-.597.613-1.036.694-.726.134-1.486.176-2.155.176" id="Fill-104" fill="#52267D" mask="url(#mask-6)"/>
            <path d="M23.0342 22.3125s.345-2.849 2.909-2.1c1.096.321 1.712 1.142 1.712 1.142s-.481 2.172-1.501 1.941c-1.779-.402-3.12-.983-3.12-.983" id="Fill-106" fill="#FFF" mask="url(#mask-6)"/>
            <path d="M23.6123 22.0059c.511.194 1.489.539 2.652.803.047.01.084.007.146-.032.284-.18.552-.796.694-1.29-.219-.222-.67-.61-1.302-.794-.586-.171-1.049-.136-1.416.106-.445.294-.669.841-.774 1.207m2.691 1.807c-.086 0-.172-.01-.259-.03-1.804-.407-3.153-.987-3.209-1.011l-.342-.149.045-.371c.008-.063.2-1.564 1.298-2.288.621-.407 1.377-.486 2.248-.23 1.241.362 1.942 1.282 1.971 1.321l.138.183-.05.225c-.037.166-.384 1.642-1.197 2.157-.201.128-.42.193-.643.193" id="Fill-108" fill="#52267D" mask="url(#mask-6)"/>
            <path d="M30.626 36.0234s5.915-3.313 4.714-8.746c.799.642 2.937 2.601 3.717 3.608.013 1.066.262 5.3-5.551 8.209-1.041-1.053-1.925-2.373-2.88-3.071" id="Fill-110" fill="#FFF" mask="url(#mask-6)"/>
            <path d="M31.4639 36.0771c.427.403.836.888 1.263 1.393.286.336.58.683.882 1.009 4.94-2.62 4.971-6.146 4.951-7.415-.562-.682-1.671-1.755-2.564-2.559.119 3.926-3.157 6.618-4.532 7.572zm1.941 3.627l-.254-.258c-.42-.425-.81-.886-1.187-1.331-.565-.667-1.099-1.298-1.633-1.688l-.627-.458.677-.381c.057-.032 5.576-3.202 4.471-8.202l-.307-1.389 1.108.891c.854.685 2.998 2.658 3.799 3.692l.103.132.002.167c.067 3.813-1.894 6.694-5.827 8.663l-.325.162z" id="Fill-112" fill="#52267D" mask="url(#mask-6)"/>
            <path d="M13.4355 22.9922s-.015-.974.948-1.373c.294-.121.83-.348.83-.348s.593 1.212-.056 1.528c-.935.454-1.722.193-1.722.193" id="Fill-114" fill="#F3E3FF" mask="url(#mask-6)"/>
            <path d="M18.5195 21.543s.011-1.308 1.479-1.517c.274-.039.99-.031.99-.031s.347 1.38-.426 1.523c-.951.174-2.043.025-2.043.025" id="Fill-116" fill="#F3E3FF" mask="url(#mask-6)"/>
            <path d="M23.9502 22.0957s.183-1.512 1.544-1.113c.581.17.908.605.908.605s-.256 1.153-.797 1.03c-.943-.213-1.655-.522-1.655-.522" id="Fill-118" fill="#F3E3FF" mask="url(#mask-6)"/>
            <path d="M22.5586 33.2246l-5.445.068c-.034-2.743 2.161-4.994 4.904-5.028l.479-.006c1.371-.017 2.497 1.08 2.514 2.451.017 1.372-1.081 2.497-2.452 2.515" id="Fill-120" fill="#F3E3FF" mask="url(#mask-6)"/>
            <path d="M22.0986 33.1367l-4.893.062c-.027-2.155 1.699-3.923 3.853-3.951l.991-.012c1.077-.014 1.962.848 1.976 1.926.013 1.078-.849 1.961-1.927 1.975" id="Fill-122" fill="#FFF" mask="url(#mask-6)"/>
            <path d="M22.0752 29.7354h-.019l-.991.013c-.909.011-1.759.376-2.393 1.026-.517.53-.84 1.197-.936 1.917l4.357-.055c.387-.005.75-.16 1.02-.437.271-.277.417-.644.412-1.031-.005-.388-.16-.75-.438-1.021-.273-.266-.632-.412-1.012-.412zm-5.362 3.969l-.007-.499c-.03-2.427 1.919-4.426 4.346-4.457l.991-.013h.032c.643 0 1.249.246 1.71.696.469.457.731 1.07.74 1.725.008.654-.239 1.272-.696 1.741-.457.469-1.069.731-1.725.739l-5.391.068z" id="Fill-124" fill="#52267D" mask="url(#mask-6)"/>
            <path d="M18.0664 31.1221c.008.602.502 1.083 1.104 1.075.601-.007 1.083-.501 1.075-1.102-.007-.603-.501-1.084-1.103-1.077-.601.008-1.084.501-1.076 1.104" id="Fill-126" fill="#52267D" mask="url(#mask-6)"/>
            <path d="M10.083 34.3662c.309-.069.584-.245.777-.495l.36-.464-.811.185-.477.108c-.185.042-.3.225-.258.409.042.184.224.299.409.257" id="Fill-128" fill="#52267D" mask="url(#mask-6)"/>
            <path d="M31.6338 36.1182s4.557-2.527 4.423-7.503c1.99 1.412 2.535 2.333 2.535 2.333s-.313 2.373-1.401 3.582c-1.671 1.857-3.429 2.443-5.557 1.588" id="Fill-130" fill="#EAF3FB" mask="url(#mask-6)"/>
            <path d="M35.9658 35.1895s-1.786 1.863-3.539 2.768" id="Fill-132" fill="#FFF" mask="url(#mask-6)"/>
            <path d="M32.6563 38.4014l-.459-.889c1.656-.854 3.391-2.651 3.407-2.669l.723.692c-.075.079-1.865 1.934-3.671 2.866" id="Fill-134" fill="#52267D" mask="url(#mask-6)"/>
            <g transform="translate(29 7)" id="Group-138" mask="url(#mask-6)">
              <mask id="mask-18" fill="#fff">
                <use xlink:href="#path-17"/>
              </mask>
              <path d="M25.1982 47.3105l-1.047-2.004c-3.934-9.333-4.593-14.834-2.725-23.812l1.093-5.26c.36-1.726.529-3.485.507-5.247-.074-5.874-4.895-10.576-10.769-10.502l-1.718.021C4.7462.5795.1082 5.3345.1802 11.1285l.004.301c.018 1.379 1.15 2.483 2.528 2.465l10.873-.137-1.531 9.472c-4.727 25.393-4.092 35.655 5.812 33.42" id="Fill-136" fill="#9452BA" mask="url(#mask-18)"/>
            </g>
            <g transform="translate(28 6)" id="Group-141" mask="url(#mask-6)">
              <mask id="mask-20" fill="#fff">
                <use xlink:href="#path-19"/>
              </mask>
              <path d="M16.4307 58.9502c-1.824 0-3.287-.548-4.435-1.652-3.731-3.593-3.711-12.916.076-33.251l1.337-8.275-9.684.122c-.946-.005-1.816-.34-2.484-.993-.669-.651-1.044-1.525-1.056-2.459l-.004-.301C.1017 5.8042 5.1917.5862 11.5267.5072l1.717-.022c3.095-.08 6.044 1.133 8.271 3.305 2.226 2.17 3.473 5.076 3.512 8.184.022 1.837-.156 3.675-.529 5.464l-1.092 5.259c-1.826 8.775-1.227 13.983 2.668 23.221l1.011 1.929-1.773.926-1.047-2.004c-4.067-9.64-4.718-15.342-2.818-24.478l1.093-5.26c.344-1.647.507-3.341.487-5.032-.033-2.573-1.066-4.981-2.908-6.778-1.843-1.796-4.267-2.807-6.849-2.736l-1.718.022c-5.232.065-9.436 4.376-9.371 9.609l.004.301c.005.399.165.773.452 1.053.286.279.687.419 1.063.424l12.062-.151-1.72 10.645c-2.507 13.474-4.544 27.728-.658 31.469 1.136 1.093 2.854 1.361 5.263.817l.439 1.951c-.959.217-1.843.325-2.655.325" id="Fill-139" fill="#52267D" mask="url(#mask-20)"/>
            </g>
            <path d="M34.3066 8.8311s.151-1.846 1.974-2.602c.556-.23 1.435-.002 1.435-.002s1.078 1.64-.15 2.237c-1.77.86-3.259.367-3.259.367" id="Fill-142" fill="#FFF" mask="url(#mask-6)"/>
            <path d="M34.8984 8.4434c.513.064 1.422.069 2.448-.429.205-.099.26-.217.285-.307.083-.301-.087-.752-.236-1.037-.292-.051-.693-.076-.924.021-1.017.422-1.419 1.246-1.573 1.752m.5 1.028c-.732 0-1.213-.154-1.249-.166l-.373-.124.032-.391c.007-.088.2-2.159 2.28-3.023.692-.287 1.647-.052 1.752-.025l.187.049.106.161c.074.111.711 1.118.462 2.02-.113.413-.394.739-.811.942-.904.438-1.742.557-2.386.557" id="Fill-144" fill="#52267D" mask="url(#mask-6)"/>
            <path d="M38.6602 8.168s.024-2.904 3.286-3.369c.609-.087 1.392-.036 1.392-.036s1.579 3.031-.14 3.348c-2.113.39-4.538.057-4.538.057" id="Fill-146" fill="#FFF" mask="url(#mask-6)"/>
            <path d="M39.2148 7.7246c.795.071 2.435.164 3.893-.105.212-.04.282-.128.322-.21.214-.439-.084-1.445-.41-2.159-.266-.007-.668-.005-1.003.043-2.092.298-2.652 1.698-2.802 2.431m1.647 1.077c-1.242 0-2.206-.13-2.27-.139l-.436-.059.004-.44c.01-1.153.799-3.444 3.716-3.86.653-.092 1.461-.041 1.494-.04l.282.019.129.249c.115.219 1.103 2.179.547 3.316-.137.282-.429.643-1.039.755-.818.151-1.674.199-2.427.199" id="Fill-148" fill="#52267D" mask="url(#mask-6)"/>
            <path d="M44.5137 8.7549s.408-2.78 2.9-1.982c1.066.34 1.649 1.161 1.649 1.161s-.526 2.115-1.519 1.863c-1.732-.438-3.03-1.042-3.03-1.042" id="Fill-150" fill="#FFF" mask="url(#mask-6)"/>
            <path d="M45.0996 8.4629c.497.204 1.441.564 2.567.85.032.007.07.012.136-.028.277-.166.555-.763.706-1.232-.21-.224-.639-.61-1.247-.804-.563-.182-1.014-.159-1.378.065-.44.272-.672.795-.784 1.149m2.607 1.854c-.095 0-.19-.011-.286-.036-1.758-.444-3.063-1.047-3.118-1.073l-.338-.157.054-.368c.01-.063.236-1.532 1.333-2.215.619-.386 1.364-.443 2.215-.172 1.21.388 1.876 1.309 1.903 1.348l.134.187-.056.223c-.066.265-.434 1.613-1.231 2.09-.194.115-.4.173-.61.173" id="Fill-152" fill="#52267D" mask="url(#mask-6)"/>
            <g id="Group-156" mask="url(#mask-6)" fill="#F3E3FF">
              <path d="M35.1094 58.5742c.613-.473 1.238-.748 1.775-.884" id="Fill-154"/>
            </g>
            <g transform="translate(32 20)" id="Group-162" mask="url(#mask-6)">
              <mask id="mask-22" fill="#fff">
                <use xlink:href="#path-21"/>
              </mask>
              <path d="M6.708 38.4717c-1.867-7.199 1.165-21.046 1.712-24.451L10.583.3767l1.023-.013c1.296-.016 2.295 1.38 2.127 2.668l-1.543 11.83c-.522 4.006-.885 22.527 6.113 26.417 1.492.829 3.895.243 4.797-.203 3.283-1.619 4.18-5.748 4.863-9.076 1.411-6.887.176-12.265-.223-17.645l-.432-6.733c-.079-1.216.874-2.521 2.091-2.537l1.241-.015 2.407 13.587c.721 3.868 2.62 17.29-5.222 23.692-.142.116 1.933.553 1.347 1.621-2.33 4.242-9.226 4.994-10.503 6.814-4.92 7.007-.044 21.743-.044 21.743s-5.585-2.148-9.065-5.189c-8.137-7.11-9.289-17.543-9.366-20.617-.09-3.679.847-5.973 2.02-7.35" id="Fill-160" fill="#F3E3FF" mask="url(#mask-22)"/>
            </g>
            <g transform="translate(31 19)" id="Group-165" mask="url(#mask-6)">
              <mask id="mask-24" fill="#fff">
                <use xlink:href="#path-23"/>
              </mask>
              <path d="M20.4316 74.3721l-.986-.379c-.232-.089-5.708-2.215-9.215-5.278-8.772-7.665-9.483-18.823-9.536-20.982-.082-3.338.637-5.924 2.138-7.686l.762.648c-1.318 1.548-1.975 3.973-1.9 7.013.031 1.278.558 12.707 9.194 20.253 2.516 2.198 6.211 3.943 7.947 4.696-1.02-3.517-3.876-15.036.424-21.161.577-.822 1.921-1.371 3.621-2.066 2.453-1.002 5.507-2.25 6.853-4.701.057-.104.042-.148.037-.165-.079-.233-.659-.492-.878-.589-.284-.127-.528-.237-.57-.546l-.037-.277.224-.191c7.547-6.162 5.77-19.325 5.046-23.213l-2.334-13.174-.816.011c-.373.005-.745.186-1.045.512-.375.404-.587.976-.554 1.493l.433 6.732c.09 1.224.225 2.452.362 3.698.469 4.275.954 8.696-.149 14.081-.664 3.236-1.573 7.668-5.132 9.423-.929.459-3.545 1.144-5.261.192-7.51-4.175-6.807-23.532-6.365-26.919l1.543-11.83c.07-.534-.123-1.133-.505-1.562-.311-.349-.702-.542-1.105-.542h-.015l-.602.008-2.097 13.228c-.074.461-.193 1.113-.339 1.912-.889 4.851-2.971 16.212-1.382 22.335l-.969.252c-1.644-6.338.39-17.435 1.367-22.768.145-.79.263-1.434.335-1.889l2.23-14.058 1.444-.02c.736-.031 1.37.303 1.881.878.576.649.856 1.529.749 2.355l-1.543 11.83c-.609 4.659-.692 22.274 5.859 25.915 1.282.716 3.489.203 4.332-.213 3.12-1.539 3.973-5.694 4.595-8.729 1.072-5.23.596-9.572.135-13.77-.138-1.258-.275-2.497-.366-3.737l-.433-6.738c-.051-.793.255-1.63.817-2.237.49-.528 1.117-.823 1.767-.832l1.665-.021 2.481 14.005c.732 3.923 2.49 17.003-4.836 23.682.405.209.854.517 1.015.994.073.218.114.562-.107.965-1.517 2.762-4.752 4.083-7.351 5.145-1.426.583-2.773 1.134-3.182 1.715-4.717 6.721-.026 21.155.022 21.299l.332 1.003z" id="Fill-163" fill="#52267D" mask="url(#mask-24)"/>
            </g>
            <path d="M42.0947 23.7031s3.901 2.142 9.32.096c-.351 1.694-1.07 5.097-1.07 5.097s-5.025 1.611-8.947-.789c.371-2.245.697-4.404.697-4.404" id="Fill-202" fill="#FFF" mask="url(#mask-6)"/>
            <path d="M41.9473 27.8486c3.119 1.722 6.928.917 7.971.648.149-.707.535-2.535.828-3.939-3.945 1.23-6.99.372-8.257-.129-.115.748-.317 2.048-.542 3.42m4.603 2.083c-1.671 0-3.638-.312-5.414-1.397l-.287-.176.055-.332c.37-2.241.696-4.397.696-4.398l.107-.705.627.341c.037.021 3.787 1.998 8.904.066l.852-.321-.186.891c-.352 1.695-1.07 5.099-1.07 5.099l-.061.285-.276.088c-.12.038-1.787.559-3.947.559" id="Fill-204" fill="#52267D" mask="url(#mask-6)"/>
            <path d="M70.9482 13.499s-.199-1.855-2.054-2.57c-.566-.219-2.087-.261-2.087-.261s-.403 1.974.85 2.544c1.804.821 3.291.287 3.291.287" id="Fill-206" fill="#FFF" mask="url(#mask-6)"/>
            <path d="M67.2529 11.1895c-.024.502.033 1.305.611 1.567 1.049.478 1.973.449 2.484.37-.167-.507-.591-1.33-1.633-1.731-.27-.104-.921-.173-1.462-.206m2.479 2.98c-.628 0-1.423-.112-2.282-.502-1.596-.727-1.152-3.003-1.133-3.1l.084-.411.42.012c.165.004 1.625.051 2.253.293 2.116.816 2.362 2.896 2.371 2.984l.042.391-.37.133c-.038.014-.573.2-1.385.2" id="Fill-208" fill="#52267D" mask="url(#mask-6)"/>
            <path d="M66.2539 12.6094s-.084-2.53-2.936-2.864c-.532-.062-1.213-.001-1.213-.001s-1.31 2.676.195 2.914c1.85.294 3.954-.049 3.954-.049" id="Fill-210" fill="#FFF" mask="url(#mask-6)"/>
            <path d="M62.4365 10.2246c-.252.606-.477 1.452-.297 1.798.021.039.06.113.238.141 1.225.196 2.587.095 3.299.017-.17-.636-.709-1.739-2.417-1.938-.272-.033-.594-.028-.823-.018m1.54 3.054c-.561 0-1.168-.033-1.755-.126-.56-.089-.837-.413-.97-.669-.511-.986.247-2.638.404-2.959l.124-.253.281-.026c.03-.002.737-.063 1.315.002 2.594.305 3.344 2.322 3.378 3.345l.015.44-.435.07c-.061.011-1.094.176-2.357.176" id="Fill-212" fill="#52267D" mask="url(#mask-6)"/>
            <path d="M60.8633 12.8604s-.481-2.791-2.972-1.924c-1.064.37-1.631 1.211-1.631 1.211s.583 2.117 1.577 1.839c1.734-.486 3.026-1.126 3.026-1.126" id="Fill-214" fill="#FFF" mask="url(#mask-6)"/>
            <path d="M56.8174 12.252c.166.478.458 1.067.745 1.229.069.04.106.033.14.024 1.129-.316 2.074-.704 2.568-.922-.122-.355-.369-.879-.822-1.143-.372-.217-.826-.228-1.393-.031-.609.211-1.032.613-1.238.843m.841 2.26c-.201 0-.401-.054-.588-.16-.813-.459-1.219-1.806-1.292-2.072l-.061-.221.128-.191c.028-.04.674-.984 1.882-1.404.85-.293 1.601-.256 2.232.116 1.121.66 1.386 2.133 1.397 2.195l.063.368-.334.166c-.055.026-1.354.666-3.114 1.159-.103.029-.209.044-.313.044" id="Fill-216" fill="#52267D" mask="url(#mask-6)"/>
            <path d="M35.2598 8.3525s.081-.985 1.055-1.389c.297-.124.766-.002.766-.002s.576.876-.08 1.196c-.945.459-1.741.195-1.741.195" id="Fill-218" fill="#F3E3FF" mask="url(#mask-6)"/>
            <path d="M39.7295 7.667s.015-1.821 2.06-2.112c.381-.055.873-.024.873-.024s.989 1.902-.088 2.1c-1.324.244-2.845.036-2.845.036" id="Fill-220" fill="#F3E3FF" mask="url(#mask-6)"/>
            <path d="M45.5879 8.4629s.235-1.605 1.675-1.145c.614.197.951.67.951.67s-.304 1.221-.877 1.076c-1-.253-1.749-.601-1.749-.601" id="Fill-222" fill="#F3E3FF" mask="url(#mask-6)"/>
            <path d="M70.0264 13.0352s-.105-.98-1.086-1.358c-.3-.116-1.103-.138-1.103-.138s-.213 1.043.449 1.345c.953.433 1.74.151 1.74.151" id="Fill-224" fill="#F3E3FF" mask="url(#mask-6)"/>
            <path d="M65.1436 12.1768s-.046-1.399-1.623-1.583c-.294-.035-.671-.001-.671-.001s-.724 1.48.108 1.611c1.023.162 2.186-.027 2.186-.027" id="Fill-226" fill="#F3E3FF" mask="url(#mask-6)"/>
            <path d="M59.8652 12.6826s-.263-1.526-1.626-1.053c-.582.203-.892.663-.892.663s.319 1.159.863 1.006c.948-.265 1.655-.616 1.655-.616" id="Fill-228" fill="#F3E3FF" mask="url(#mask-6)"/>
            <path d="M53.7285 28.3535s4.806.687 9.353-.489c.475 2.472.784 4.341.784 4.341s-3.136 2.187-8.996 1.015c-.73-3.175-1.141-4.867-1.141-4.867" id="Fill-230" fill="#FFF" mask="url(#mask-6)"/>
            <path d="M55.2832 32.791c4.437.804 7.2-.396 8.032-.842-.099-.583-.323-1.871-.627-3.474-3.429.785-6.85.595-8.307.456.174.732.481 2.033.902 3.86m2.946 1.277c-1.025 0-2.178-.101-3.458-.357l-.317-.064-.072-.314c-.729-3.169-1.139-4.859-1.14-4.861l-.174-.717.731.103c.047.008 4.762.66 9.157-.478l.515-.133.101.523c.477 2.48.786 4.354.786 4.354l.052.311-.259.18c-.106.074-2.138 1.453-5.922 1.453" id="Fill-232" fill="#52267D" mask="url(#mask-6)"/>
            <path d="M61.6006 23.4365l5.445-.068c-.035-2.743-2.286-4.938-5.028-4.904l-.479.006c-1.372.018-2.469 1.143-2.452 2.515.017 1.371 1.143 2.469 2.514 2.451" id="Fill-234" fill="#F3E3FF" mask="url(#mask-6)"/>
            <path d="M62.1963 23.3359l4.755-.06c-.027-2.155-1.796-3.879-3.951-3.852l-1.129.015c-1.001.011-1.803.834-1.79 1.834.014 1.154.961 2.078 2.115 2.063" id="Fill-236" fill="#FFF" mask="url(#mask-6)"/>
            <path d="M63.0508 19.9238h-.045l-1.128.015c-.351.004-.679.144-.924.395s-.378.583-.373.934c.011.869.722 1.568 1.589 1.568h.013l4.225-.053c-.114-.717-.454-1.377-.983-1.893-.641-.624-1.481-.966-2.374-.966zm-.882 3.912c-1.412 0-2.57-1.14-2.588-2.557-.008-.617.226-1.201.657-1.643.432-.442 1.009-.691 1.627-.697l1.128-.015c1.221-.021 2.288.429 3.13 1.25.842.82 1.314 1.92 1.328 3.097l.006.5-5.255.065h-.033z" id="Fill-238" fill="#52267D" mask="url(#mask-6)"/>
            <path d="M64.1865 22.3975c-.27-.538-.053-1.192.485-1.463.538-.269 1.193-.053 1.463.485.27.539.053 1.193-.485 1.463s-1.193.053-1.463-.485" id="Fill-240" fill="#52267D" mask="url(#mask-6)"/>
            <path d="M42.7002 18.9658l-5.445.068c-.034-2.743 2.161-4.994 4.903-5.028l.48-.006c1.371-.017 2.497 1.08 2.513 2.451.018 1.371-1.08 2.497-2.451 2.515" id="Fill-242" fill="#F3E3FF" mask="url(#mask-6)"/>
            <path d="M42.2402 18.8779l-4.893.062c-.027-2.155 1.698-3.923 3.853-3.951l.991-.012c1.077-.014 1.962.848 1.975 1.925.013 1.079-.849 1.962-1.926 1.976" id="Fill-244" fill="#FFF" mask="url(#mask-6)"/>
            <path d="M42.2168 15.4766h-.02l-.99.013c-.909.011-1.759.376-2.393 1.026-.517.529-.84 1.197-.936 1.917l4.357-.055c.799-.009 1.441-.669 1.431-1.469-.005-.387-.16-.749-.437-1.02-.273-.266-.632-.412-1.012-.412zm-5.362 3.969l-.007-.499c-.015-1.176.429-2.287 1.25-3.129.82-.842 1.92-1.314 3.097-1.328l.99-.013h.032c.643 0 1.249.246 1.71.696.469.457.731 1.07.739 1.724.018 1.351-1.068 2.464-2.42 2.481l-5.391.068z" id="Fill-246" fill="#52267D" mask="url(#mask-6)"/>
            <path d="M38.7119 17.8086c.467.379 1.153.308 1.532-.159.38-.467.309-1.153-.159-1.533-.467-.379-1.153-.308-1.532.16-.38.467-.309 1.153.159 1.532" id="Fill-248" fill="#52267D" mask="url(#mask-6)"/>
            <path d="M73.6201 24.4189c-.311-.062-.59-.231-.79-.477l-.371-.454.815.164.481.097c.184.037.304.217.267.402-.037.185-.217.305-.402.268" id="Fill-250" fill="#52267D" mask="url(#mask-6)"/>
            <path d="M31.5527 19.8506c.31-.07.584-.245.778-.496l.36-.464-.812.185-.477.109c-.184.042-.299.225-.258.409.042.184.225.299.409.257" id="Fill-252" fill="#52267D" mask="url(#mask-6)"/>
            <path d="M42.5684 24.4043s4.08 1.678 8.153.047c-.398 2.406-.765 3.637-.765 3.637s-2.461.175-4.096-.125c-2.335-.43-3.266-1.477-3.292-3.559" id="Fill-254" fill="#EAF3FB" mask="url(#mask-6)"/>
            <path d="M48.2539 27.4121s-3.689.354-6.566-1.092" id="Fill-256" fill="#FFF" mask="url(#mask-6)"/>
            <path d="M47.2012 27.9521c-1.354 0-3.717-.17-5.738-1.185l.449-.894c2.709 1.361 6.26 1.043 6.294 1.041l.096.996c-.05.005-.464.042-1.101.042" id="Fill-258" fill="#52267D" mask="url(#mask-6)"/>
            <path d="M61.3359 28.7988s-3.587 1.069-6.771.474c.629 2.356.957 3.093.957 3.093s4.755-.695 5.814-3.567" id="Fill-260" fill="#EAF3FB" mask="url(#mask-6)"/>
            <g id="Group-264" mask="url(#mask-6)" fill="#F3E3FF">
              <path d="M59.8252 62.3994s-.215.16-.522.35" id="Fill-262"/>
            </g>
            <path d="M61.7002 30.1553s-3.615.732-7.468.322" id="Fill-268" fill="#FFF" mask="url(#mask-6)"/>
            <path d="M56.708 31.1035c-.805 0-1.658-.036-2.528-.129l.105-.994c3.733.396 7.279-.309 7.316-.315l.199.98c-.117.023-2.303.458-5.092.458" id="Fill-270" fill="#52267D" mask="url(#mask-6)"/>
            <g id="Group-345" mask="url(#mask-6)">
              <path d="M11.6953 31.4053c-.361 0-.658-.291-.663-.652l.25-.004c.003.224.187.406.412.406h.005c.109-.001.212-.046.288-.124.077-.079.118-.183.117-.292l.25-.004c.002.177-.064.344-.187.47-.124.127-.289.198-.465.2h-.007z" id="Fill-284" fill="#F3E3FF"/>
              <path d="M10.6211 31.418c-.173 0-.336-.066-.46-.187-.127-.124-.198-.289-.2-.464l.25-.004c.003.224.186.405.411.405h.005c.11-.001.212-.045.288-.123.077-.078.118-.183.117-.292l.25-.004c.002.178-.064.345-.187.471-.124.126-.288.196-.465.198h-.009z" id="Fill-286" fill="#F3E3FF"/>
              <path d="M11.1641 31.9473c-.174 0-.337-.066-.461-.187-.126-.125-.197-.29-.199-.465l.25-.004c.001.11.046.213.124.29.077.075.179.116.286.116h.005c.227-.003.409-.189.406-.415l.25-.004c.002.177-.064.344-.187.47-.124.126-.289.197-.465.199h-.009z" id="Fill-288" fill="#F3E3FF"/>
              <path d="M32.0869 30.2295c-.161 0-.324-.042-.472-.131l.129-.215c.314.191.724.089.913-.224.19-.315.089-.724-.224-.913l.129-.215c.431.261.57.825.31 1.257-.172.284-.475.441-.785.441" id="Fill-290" fill="#F3E3FF"/>
              <path d="M32.3545 31.3135c-.161 0-.324-.042-.472-.131l.129-.215c.314.191.725.088.913-.224.092-.153.119-.33.077-.503-.043-.172-.15-.318-.301-.409l.129-.215c.209.127.356.327.415.564.058.237.021.483-.105.692-.172.284-.475.441-.785.441" id="Fill-292" fill="#F3E3FF"/>
              <path d="M56.7188 25.6855c-.24 0-.466-.092-.638-.26-.174-.17-.272-.398-.275-.643l.25-.002c.002.176.073.343.2.467.125.122.289.188.463.188h.006c.181-.002.347-.073.471-.2s.191-.295.189-.473l.25-.002c.003.244-.09.475-.26.65-.171.174-.399.272-.644.275h-.012z" id="Fill-303" fill="#F3E3FF"/>
              <path d="M55.9395 26.4854c-.239 0-.466-.092-.638-.26-.174-.171-.273-.398-.276-.642l.25-.004c.002.177.074.344.201.468.127.123.293.199.472.188.178-.002.344-.073.468-.2.124-.128.19-.295.188-.473l.25-.004c.003.245-.089.476-.259.651-.171.174-.399.273-.643.276h-.013z" id="Fill-305" fill="#F3E3FF"/>
              <path d="M46.9717 39.9258c-.284 0-.553-.109-.757-.308-.207-.202-.323-.473-.327-.762l.25-.004c.003.223.093.431.252.588.156.152.363.236.582.236h.011c.461-.006.83-.385.824-.845l.25-.004c.008.599-.473 1.091-1.07 1.099h-.015z" id="Fill-307" fill="#F3E3FF"/>
              <path d="M46.0244 40.8975c-.284 0-.553-.109-.757-.308-.207-.202-.323-.473-.327-.762l.25-.004c.003.223.093.431.252.588.156.152.363.236.582.236h.011c.461-.006.83-.385.824-.845l.25-.004c.008.599-.473 1.091-1.07 1.099h-.015z" id="Fill-309" fill="#F3E3FF"/>
              <path d="M32.4189 15.9326c-.42 0-.763-.338-.768-.758l.25-.002c.002.138.057.267.156.363.097.095.225.147.362.147h.006c.138-.002.266-.058.363-.156.097-.099.149-.23.147-.367l.25-.004c.003.205-.075.398-.218.546-.143.146-.334.228-.539.231h-.009z" id="Fill-311" fill="#F3E3FF"/>
              <path d="M31.7822 16.582c-.416 0-.759-.337-.765-.757l.25-.004c.004.283.235.511.516.511h.007c.138-.002.267-.057.364-.155.097-.1.149-.23.147-.367l.25-.004c.002.205-.075.398-.218.545-.143.147-.335.229-.54.231h-.011z" id="Fill-313" fill="#F3E3FF"/>
              <g id="Group-317">
                <path d="M93.5469 79.4941c-.021 0-.041-.001-.062-.003-.23-.016-.44-.121-.591-.295l.189-.164c.108.124.257.198.42.21.153.01.321-.041.446-.149.256-.222.284-.611.061-.866l.189-.164c.312.36.274.906-.086 1.219-.159.138-.358.212-.566.212" id="Fill-315" fill="#F3E3FF"/>
              </g>
              <g id="Group-320">
                <path d="M93.4746 80.5361c-.02 0-.04-.001-.061-.002-.23-.016-.44-.12-.592-.295l.189-.164c.108.124.257.198.421.21.148.009.321-.043.444-.149.256-.223.284-.612.061-.867l.189-.164c.312.36.274.906-.086 1.219-.158.138-.357.212-.565.212" id="Fill-318" fill="#F3E3FF"/>
              </g>
              <path d="M48.6729 22.4492c-.545 0-.992-.44-1-.986l.25-.004c.006.412.347.739.759.74.201-.002.388-.083.528-.227.14-.142.215-.332.212-.532l.25-.004c.004.268-.097.52-.283.711-.187.192-.437.299-.703.302h-.013z" id="Fill-336" fill="#F3E3FF"/>
              <path d="M58.2539 36.9502c-.205 0-.4-.079-.548-.224-.151-.146-.235-.343-.238-.553l.25-.004c.002.143.059.278.162.379.102.098.234.152.375.152h.007c.297-.003.535-.247.532-.545l.25-.002c.005.435-.345.792-.779.797h-.011z" id="Fill-341" fill="#F3E3FF"/>
              <path d="M73.6797 21.5332c-.34 0-.618-.274-.623-.614l.25-.004c.003.204.17.368.373.368h.004c.099-.001.192-.041.262-.112.069-.072.106-.166.105-.265l.25-.004c.002.166-.06.323-.177.443-.115.119-.271.186-.437.188h-.007z" id="Fill-343" fill="#F3E3FF"/>
            </g>
          </g>
          <g id="Group-414">
            <path d="M129.2207 189.0105h-26.395c-.552 0-1-.447-1-1 0-.553.448-1 1-1h26.395c.553 0 1 .447 1 1 0 .553-.447 1-1 1z" id="Fill-347" fill="#9ACDED"/>
            <path d="M94.3486 67.4685v7.5" id="Fill-349" fill="#FFF"/>
            <path id="Fill-351" fill="#375D81" d="M93.349 74.968h2v-7.5h-2z"/>
            <path d="M159.9141 67.4685v7.5" id="Fill-353" fill="#FFF"/>
            <path id="Fill-354" fill="#375D81" d="M158.914 74.968h2v-7.5h-2z"/>
            <path d="M182.8262 170.0163v20.285" id="Fill-355" fill="#FFF"/>
            <path id="Fill-356" fill="#375D81" d="M181.826 190.301h2v-20.285h-2z"/>
            <path d="M113.1377 196.6872v9.281" id="Fill-357" fill="#FFF"/>
            <path d="M113.1377 206.9685c-.553 0-1-.447-1-1v-9.281c0-.553.447-1 1-1 .553 0 1 .447 1 1v9.281c0 .553-.447 1-1 1" id="Fill-358" fill="#E1F2FF"/>
            <path d="M122.3262 194.6355v6.566" id="Fill-359" fill="#FFF"/>
            <path d="M122.3262 202.2019c-.553 0-1-.447-1-1v-6.566c0-.553.447-1 1-1 .553 0 1 .447 1 1v6.566c0 .553-.447 1-1 1" id="Fill-360" fill="#E1F2FF"/>
            <path d="M131.1592 202.3357v3.633" id="Fill-361" fill="#FFF"/>
            <path d="M131.1592 206.9685c-.553 0-1-.447-1-1v-3.633c0-.553.447-1 1-1 .553 0 1 .447 1 1v3.633c0 .553-.447 1-1 1" id="Fill-362" fill="#E1F2FF"/>
            <path d="M136.8262 198.7019v3.634" id="Fill-363" fill="#FFF"/>
            <path d="M136.8262 203.3357c-.553 0-1-.447-1-1v-3.634c0-.553.447-1 1-1 .553 0 1 .447 1 1v3.634c0 .553-.447 1-1 1" id="Fill-364" fill="#E1F2FF"/>
            <path d="M139.2207 202.3357h-25.15" id="Fill-365" fill="#FFF"/>
            <path d="M139.2207 203.3357h-25.15c-.553 0-1-.447-1-1 0-.553.447-1 1-1h25.15c.553 0 1 .447 1 1 0 .553-.447 1-1 1" id="Fill-366" fill="#E1F2FF"/>
            <path d="M154.7207 153.2077v-6.567" id="Fill-367" fill="#FFF"/>
            <path d="M154.7207 154.2077c-.553 0-1-.447-1-1v-6.567c0-.553.447-1 1-1 .553 0 1 .447 1 1v6.567c0 .553-.447 1-1 1" id="Fill-368" fill="#E1F2FF"/>
            <path d="M144.8877 154.5075v-3.634" id="Fill-369" fill="#FFF"/>
            <path d="M144.8877 155.5075c-.553 0-1-.447-1-1v-3.634c0-.553.447-1 1-1 .553 0 1 .447 1 1v3.634c0 .553-.447 1-1 1" id="Fill-370" fill="#E1F2FF"/>
            <path d="M139.2207 158.1404v-3.633" id="Fill-371" fill="#FFF"/>
            <path d="M139.2207 159.1404c-.553 0-1-.447-1-1v-3.633c0-.553.447-1 1-1 .553 0 1 .447 1 1v3.633c0 .553-.447 1-1 1" id="Fill-372" fill="#E1F2FF"/>
            <path d="M136.8262 154.5075h11.15" id="Fill-373" fill="#FFF"/>
            <path d="M147.9766 155.5075h-11.15c-.553 0-1-.447-1-1 0-.553.447-1 1-1h11.15c.553 0 1 .447 1 1 0 .553-.447 1-1 1" id="Fill-374" fill="#E1F2FF"/>
            <path d="M144.5293 183.8659v-4.566" id="Fill-375" fill="#FFF"/>
            <path d="M144.5293 184.8659c-.553 0-1-.447-1-1v-4.566c0-.553.447-1 1-1 .553 0 1 .447 1 1v4.566c0 .553-.447 1-1 1" id="Fill-376" fill="#E1F2FF"/>
            <path d="M203.9111 166.9392v3.634" id="Fill-377" fill="#FFF"/>
            <path d="M203.9111 171.573c-.553 0-1-.447-1-1v-3.634c0-.553.447-1 1-1 .553 0 1 .447 1 1v3.634c0 .553-.447 1-1 1" id="Fill-378" fill="#E1F2FF"/>
            <path d="M142.1006 178.1657h6.502" id="Fill-379" fill="#FFF"/>
            <path d="M148.6025 179.1657h-6.502c-.553 0-1-.447-1-1 0-.553.447-1 1-1h6.502c.553 0 1 .447 1 1 0 .553-.447 1-1 1" id="Fill-380" fill="#E1F2FF"/>
            <path id="Fill-381" fill="#E1F2FF" d="M54.7461 133.489l144.345-4.91v-5.931H54.7461z"/>
            <path d="M234.1992 139.531c0 7.55-6.121 13.671-13.671 13.671-7.55 0-13.671-6.121-13.671-13.671 0-7.551 6.121-13.671 13.671-13.671 7.55 0 13.671 6.12 13.671 13.671" id="Fill-382" fill="#FFF"/>
            <path d="M220.5283 126.8601c-6.986 0-12.671 5.685-12.671 12.671s5.685 12.671 12.671 12.671 12.671-5.685 12.671-12.671-5.685-12.671-12.671-12.671m0 27.342c-8.09 0-14.671-6.581-14.671-14.671s6.581-14.671 14.671-14.671 14.671 6.581 14.671 14.671-6.581 14.671-14.671 14.671" id="Fill-383" fill="#375D81"/>
            <path d="M224.8086 147.1687c.065.194.123.326.141.37.005.005-.006-.002 0 0 0 0 0 .002 0 0 0 .001-.001 0-.001 0-.441-4.25 1.969-6.021 2.745-8.845.004-.042.011-.088.024-.139.016-.063.029-.128.039-.194.115-.781-.205-1.69-.811-2.636-.003-.006-.007-.011-.01-.016-.05-.079-.103-.157-.156-.236 0 0-.002-.001-.002-.003-.1-.144-.206-.289-.318-.435-.011-.014-.022-.03-.034-.045-.031-.04-.064-.079-.095-.119-.032-.041-.064-.082-.096-.122-.034-.04-.067-.08-.1-.119-.034-.041-.068-.082-.103-.123-.024-.027-.049-.057-.075-.086-.952-1.097-2.192-2.181-3.486-3.124 0 0-.01-.015 0 0 .171 1.6.193 3.199.042 4.478-.183 1.542-.735 3.337-1.501 4.964-1.792-.146-3.623-.561-5.052-1.171-1.194-.51-2.562-1.315-3.871-2.269.015.133.031.264.046.396.005.039.011.079.016.119.012.094.024.188.039.283.005.044.012.087.018.131.014.094.029.189.043.283.006.038.013.076.019.115.019.119.04.237.061.355.002.013.003.025.006.036.025.137.051.274.078.41.001.011.004.02.007.031.025.123.049.243.075.364.006.025.012.049.017.074.024.11.05.219.075.33.007.02.012.042.017.064.031.126.061.252.095.376.001 0 .001.002.001.002.105.398.221.784.347 1.153.001.005.003.009.004.014.213.617.455 1.186.726 1.684.04.072.08.143.121.212.002.002.002.005.004.008h.001c.036.064.074.126.111.186l.001.001s.004.004.005.006c.04.065.082.129.125.189.006.009.011.017.017.025v.002c.055.079.112.155.166.228.011.012.021.023.03.035.003.004.007.008.01.014.064.081.13.16.199.233.047.053.094.102.143.151.021.02.042.039.063.058.03.029.06.056.092.083.022.02.046.037.07.058.028.024.059.047.089.07.023.019.047.034.072.052.03.021.061.042.092.063.023.015.048.03.072.044.033.02.067.037.099.057.023.012.047.023.068.035.038.018.076.034.115.051.018.007.037.017.057.023.059.025.117.044.176.061.04.012.074.023.106.036 2.838.75 5.601-.438 9.067 2.039" id="Fill-384" fill="#9452BA"/>
            <path d="M191.6592 158.1404h5.167" id="Fill-385" fill="#FFF"/>
            <path d="M196.8262 159.1404h-5.167c-.553 0-1-.447-1-1 0-.553.447-1 1-1h5.167c.553 0 1 .447 1 1 0 .553-.447 1-1 1" id="Fill-386" fill="#E1F2FF"/>
            <path d="M135.2432 136.7761h5.166" id="Fill-387" fill="#FFF"/>
            <path d="M140.4092 137.7761h-5.166c-.553 0-1-.447-1-1 0-.553.447-1 1-1h5.166c.553 0 1 .447 1 1 0 .553-.447 1-1 1" id="Fill-388" fill="#E1F2FF"/>
            <path d="M189.6592 188.0105h4" id="Fill-389" fill="#FFF"/>
            <path d="M193.6592 189.0105h-4c-.553 0-1-.447-1-1 0-.553.447-1 1-1h4c.553 0 1 .447 1 1 0 .553-.447 1-1 1" id="Fill-390" fill="#E1F2FF"/>
            <path d="M86.4189 194.6355h4" id="Fill-391" fill="#FFF"/>
            <path d="M90.4189 195.6355h-4c-.553 0-1-.447-1-1 0-.553.447-1 1-1h4c.553 0 1 .447 1 1 0 .553-.447 1-1 1" id="Fill-392" fill="#E1F2FF"/>
            <path d="M162.7266 171.573c-.165 0-.332-.041-.486-.127-.483-.269-.656-.879-.386-1.36l10.308-18.449c.269-.482.877-.655 1.36-.385.482.269.655.879.386 1.36l-10.308 18.448c-.184.328-.523.513-.874.513" id="Fill-393" fill="#FFF"/>
            <path d="M170.6357 170.3747c-.169 0-.341-.043-.498-.134-.479-.275-.644-.887-.367-1.365l6.969-12.097c.275-.478.887-.644 1.366-.367.478.275.643.887.367 1.365l-6.97 12.097c-.184.321-.521.501-.867.501" id="Fill-394" fill="#FFF"/>
            <path d="M202.667 121.6999H51.17v-10.038c0-15.404 12.487-27.892 27.892-27.892h95.713c15.404 0 27.892 12.488 27.892 27.892v10.038z" id="Fill-395" fill="#E1F2FF"/>
            <path d="M52.1699 120.6999h149.497v-9.038c0-14.828-12.063-26.892-26.892-26.892h-95.713c-14.829 0-26.892 12.064-26.892 26.892v9.038zm151.497 2H50.1699v-11.038c0-15.931 12.961-28.892 28.892-28.892h95.713c15.931 0 28.892 12.961 28.892 28.892v11.038z" id="Fill-396" fill="#9ACDED"/>
            <path d="M187.0146 121.6999H66.8226v-10.038c0-15.404 12.487-27.892 27.891-27.892h64.409c15.405 0 27.892 12.488 27.892 27.892v10.038z" id="Fill-397" fill="#FFF"/>
            <path d="M67.8223 120.6999h118.192v-9.038c0-14.828-12.063-26.892-26.891-26.892h-64.409c-14.829 0-26.892 12.064-26.892 26.892v9.038zm120.192 2H65.8223v-11.038c0-15.931 12.961-28.892 28.892-28.892h64.409c15.93 0 28.891 12.961 28.891 28.892v11.038z" id="Fill-398" fill="#9ACDED"/>
            <path d="M170.4004 121.6999h-86.964v-10.038c0-15.404 12.487-27.892 27.892-27.892h31.179c15.405 0 27.893 12.488 27.893 27.892v10.038z" id="Fill-399" fill="#E1F2FF"/>
            <path d="M84.4365 120.6999h84.964v-9.038c0-14.828-12.064-26.892-26.893-26.892h-31.179c-14.829 0-26.892 12.064-26.892 26.892v9.038zm86.964 2h-88.964v-11.038c0-15.931 12.961-28.892 28.892-28.892h31.179c15.932 0 28.893 12.961 28.893 28.892v11.038z" id="Fill-400" fill="#9ACDED"/>
            <path d="M154.8096 121.6999h-55.783v-10.038c0-15.404 12.487-27.892 27.891-27.892 15.405 0 27.892 12.488 27.892 27.892v10.038z" id="Fill-401" fill="#FFF"/>
            <path d="M100.0264 120.6999h53.783v-9.038c0-14.828-12.063-26.892-26.891-26.892-14.829 0-26.892 12.064-26.892 26.892v9.038zm55.783 2h-57.783v-11.038c0-15.931 12.961-28.892 28.892-28.892 15.93 0 28.891 12.961 28.891 28.892v11.038z" id="Fill-402" fill="#9ACDED"/>
            <path d="M127.2598 83.7702l3.894 5.738c4.295 6.333 6.672 14.548 6.672 23.064v9.128h-21.815v-9.128c0-8.516 2.376-16.731 6.673-23.064l3.892-5.738" id="Fill-403" fill="#E1F2FF"/>
            <path d="M117.0107 120.6999h19.815v-8.128c0-8.331-2.308-16.322-6.5-22.502l-3.408-5.022-3.407 5.022c-4.191 6.178-6.5 14.17-6.5 22.502v8.128zm21.815 2h-23.815v-10.128c0-8.728 2.431-17.119 6.846-23.625l3.892-5.738c.263-.387.75-.531 1.169-.379.42-.152.906-.008 1.169.379l3.894 5.738c4.415 6.508 6.845 14.898 6.845 23.625v10.128z" id="Fill-404" fill="#9ACDED"/>
            <path d="M38.0771 120.6999h177.683v-9.038c0-14.828-12.065-26.892-26.893-26.892H64.9691c-14.829 0-26.892 12.064-26.892 26.892v9.038zm179.683 2H36.0771v-11.038c0-15.931 12.961-28.892 28.892-28.892h123.898c15.932 0 28.893 12.961 28.893 28.892v11.038z" id="Fill-405" fill="#375D81"/>
            <path d="M195.8262 80.3689h-75c-.553 0-1-.447-1-1 0-.553.447-1 1-1h75c.553 0 1 .447 1 1 0 .553-.447 1-1 1" id="Fill-406" fill="#E1F2FF"/>
            <path d="M75.8262 80.3689h-18c-.553 0-1-.447-1-1 0-.553.447-1 1-1h18c.553 0 1 .447 1 1 0 .553-.447 1-1 1" id="Fill-407" fill="#E1F2FF"/>
            <path d="M111.7695 51.1306c-.072.126-.148.218-.229.275-.082.057-.182.085-.302.085-.126 0-.262-.046-.409-.139-.148-.093-.323-.197-.527-.311-.204-.113-.442-.217-.716-.31-.272-.093-.595-.139-.967-.139-.336 0-.63.04-.882.121-.252.081-.463.193-.634.338-.172.143-.299.316-.383.517-.084.201-.126.421-.126.662 0 .305.085.56.257.764.171.204.397.378.679.523.282.143.603.272.963.386.36.115.729.236 1.107.365s.747.279 1.107.45c.36.171.681.387.963.648.282.261.508.58.68.958.171.378.256.837.256 1.377 0 .588-.101 1.139-.302 1.652-.2.513-.494.96-.882 1.341-.386.381-.859.681-1.417.9-.558.219-1.197.328-1.917.328-.414 0-.822-.04-1.224-.121-.402-.081-.787-.196-1.157-.347-.369-.149-.715-.33-1.039-.54-.324-.21-.612-.443-.864-.702l.711-1.16c.06-.084.138-.155.234-.212.096-.057.198-.086.306-.086.15 0 .312.062.486.185s.381.259.622.41c.239.149.519.286.84.409.322.123.707.185 1.157.185.69 0 1.224-.164 1.602-.491.378-.327.568-.797.568-1.409 0-.342-.086-.621-.257-.837-.171-.216-.398-.397-.68-.544-.282-.147-.603-.271-.963-.374-.36-.101-.726-.213-1.098-.333-.372-.12-.738-.263-1.098-.431-.36-.168-.681-.387-.963-.658-.282-.269-.509-.607-.68-1.012-.171-.405-.256-.905-.256-1.498 0-.474.094-.937.284-1.386.189-.45.463-.85.823-1.197.36-.348.804-.627 1.332-.837.528-.21 1.134-.316 1.818-.316.768 0 1.476.12 2.124.361.648.24 1.2.576 1.657 1.007l-.604 1.143z" id="Fill-408" fill="#375D81"/>
            <path id="Fill-409" fill="#375D81" d="M125.6836 48.7644v13.014h-2.43v-5.689h-6.111v5.689h-2.43v-13.014h2.43v5.598h6.111v-5.598z"/>
            <path d="M138.5176 55.2712c0-.714-.096-1.354-.288-1.922-.191-.566-.465-1.048-.818-1.444-.355-.396-.786-.699-1.292-.909-.507-.21-1.079-.315-1.714-.315-.637 0-1.208.105-1.715.315-.507.21-.94.513-1.296.909-.357.396-.632.878-.823 1.444-.193.568-.288 1.208-.288 1.922s.095 1.354.288 1.921c.191.567.466 1.048.823 1.44.356.393.789.695 1.296.905.507.21 1.078.315 1.715.315.635 0 1.207-.105 1.714-.315.506-.21.937-.512 1.292-.905.353-.392.627-.873.818-1.44.192-.567.288-1.207.288-1.921m2.476 0c0 .954-.159 1.837-.473 2.65-.316.814-.761 1.517-1.337 2.111-.576.593-1.269 1.057-2.079 1.39-.81.333-1.71.499-2.699.499-.985 0-1.882-.166-2.692-.499-.809-.333-1.505-.797-2.084-1.39-.579-.594-1.027-1.297-1.344-2.111-.319-.813-.478-1.696-.478-2.65s.159-1.838.478-2.65c.317-.814.765-1.517 1.344-2.111.579-.594 1.275-1.057 2.084-1.39.81-.333 1.707-.5 2.692-.5.659 0 1.28.077 1.862.229.582.153 1.116.369 1.603.649.485.278.921.618 1.309 1.016.387.4.715.845.985 1.337s.476 1.025.617 1.602c.14.576.212 1.182.212 1.818" id="Fill-410" fill="#375D81"/>
            <path d="M147.3555 55.3073c.444 0 .831-.056 1.161-.167.33-.11.605-.27.823-.477.22-.207.383-.459.492-.755.107-.298.162-.629.162-.996 0-.347-.055-.663-.162-.944-.109-.282-.271-.522-.487-.721-.216-.197-.489-.349-.819-.454-.33-.105-.72-.157-1.17-.157h-1.809v4.671h1.809zm0-6.543c.87 0 1.623.102 2.26.306.636.204 1.16.489 1.574.855.414.365.722.804.923 1.314.201.509.302 1.068.302 1.673 0 .63-.106 1.208-.316 1.733-.21.525-.525.976-.945 1.354-.42.378-.946.673-1.579.882-.633.211-1.372.316-2.219.316h-1.809v4.581h-2.42v-13.014h4.229z" id="Fill-411" fill="#375D81"/>
            <path d="M167.8818 62.4685c-.553 0-1-.447-1-1v-13.064c0-.553.447-1 1-1 .553 0 1 .447 1 1v13.064c0 .553-.447 1-1 1" id="Fill-412" fill="#9ACDED"/>
            <path d="M88.4189 62.4685c-.553 0-1-.447-1-1v-9.064c0-.553.447-1 1-1 .553 0 1 .447 1 1v9.064c0 .553-.447 1-1 1" id="Fill-413" fill="#9ACDED"/>
          </g>
        </g>
      </g>
    </g>
  </g>
</svg>
