<svg xmlns="http://www.w3.org/2000/svg" width="256" height="256" xmlns:xlink="http://www.w3.org/1999/xlink">
  <defs>
    <path id="a" d="M0 2.6836v-2h10.9727v2H0z"/>
    <path id="c" d="M.0343.533h58.9809701v67.7287H.0343V.533z"/>
  </defs>
  <g fill="none" fill-rule="evenodd">
    <path fill="#E1F2FF" d="M22.2041 230.3918c0-57.193 46.364-103.558 103.558-103.558 57.193 0 103.557 46.365 103.557 103.558H22.2041z"/>
    <path fill="#FFF" d="M18.9775 221.3918h36"/>
    <path fill="#375D81" d="M54.9775 222.3918h-36c-.553 0-1-.447-1-1 0-.553.447-1 1-1h36c.553 0 1 .447 1 1 0 .553-.447 1-1 1"/>
    <path fill="#FFF" d="M61.4258 221.3918h176.894"/>
    <path fill="#375D81" d="M238.3193 222.3918H61.4253c-.552 0-1-.447-1-1 0-.553.448-1 1-1h176.894c.553 0 1 .447 1 1 0 .553-.447 1-1 1M134.9463 32.5686c-.276 0-.5-.224-.5-.5v-3.937c0-.277.224-.5.5-.5s.5.223.5.5v3.937c0 .276-.224.5-.5.5"/>
    <path fill="#375D81" d="M136.915 30.5998h-3.938c-.276 0-.499-.224-.499-.5s.223-.5.499-.5h3.938c.276 0 .5.224.5.5s-.224.5-.5.5m72.5625 170.5254c-.276 0-.5-.224-.5-.5v-3.937c0-.277.224-.5.5-.5s.5.223.5.5v3.937c0 .276-.224.5-.5.5"/>
    <path fill="#375D81" d="M211.4463 199.1565h-3.938c-.276 0-.499-.224-.499-.5s.223-.5.499-.5h3.938c.276 0 .5.224.5.5s-.224.5-.5.5m5.2812-66.0372c-.276 0-.5-.224-.5-.5v-3.937c0-.277.224-.5.5-.5s.5.223.5.5v3.937c0 .276-.224.5-.5.5"/>
    <path fill="#375D81" d="M218.6963 131.1506h-3.938c-.276 0-.499-.224-.499-.5s.223-.5.499-.5h3.938c.276 0 .5.224.5.5s-.224.5-.5.5m-203.499 45.124c-.276 0-.5-.224-.5-.5v-3.937c0-.277.224-.5.5-.5s.5.223.5.5v3.937c0 .276-.224.5-.5.5"/>
    <path fill="#375D81" d="M17.166 174.3059h-3.938c-.276 0-.499-.224-.499-.5s.223-.5.499-.5h3.938c.276 0 .5.224.5.5s-.224.5-.5.5"/>
    <path fill="#FFF" d="M35.916 77.2561v8.125"/>
    <path fill="#375D81" d="M35.916 86.3811c-.553 0-1-.447-1-1v-8.125c0-.553.447-1 1-1 .553 0 1 .447 1 1v8.125c0 .553-.447 1-1 1"/>
    <path fill="#FFF" d="M39.9785 81.3186h-8.125"/>
    <path fill="#375D81" d="M39.9785 82.3186h-8.125c-.553 0-1-.447-1-1 0-.553.447-1 1-1h8.125c.553 0 1 .447 1 1 0 .553-.447 1-1 1"/>
    <path fill="#FFF" d="M216.7275 34.8723v8.125"/>
    <path fill="#375D81" d="M216.7275 43.9973c-.553 0-1-.447-1-1v-8.125c0-.553.447-1 1-1 .553 0 1 .447 1 1v8.125c0 .553-.447 1-1 1"/>
    <path fill="#FFF" d="M220.79 38.9348h-8.125"/>
    <path fill="#375D81" d="M220.79 39.9348h-8.125c-.553 0-1-.447-1-1 0-.553.447-1 1-1h8.125c.553 0 1 .447 1 1 0 .553-.447 1-1 1"/>
    <path fill="#FFF" d="M245.166 221.1506h6.974"/>
    <path fill="#375D81" d="M252.1396 222.1506h-6.974c-.552 0-1-.447-1-1 0-.553.448-1 1-1h6.974c.553 0 1 .447 1 1 0 .553-.447 1-1 1"/>
    <path fill="#FFF" d="M2 221.1506h8.973"/>
    <g transform="translate(1 219.467)">
      <mask id="b" fill="#fff">
        <use xlink:href="#a"/>
      </mask>
      <path fill="#375D81" d="M9.9727 2.6836H.9997c-.552 0-1-.447-1-1 0-.553.448-1 1-1h8.973c.553 0 1 .447 1 1 0 .553-.447 1-1 1" mask="url(#b)"/>
    </g>
    <path fill="#FFF" d="M94.3818 230.467h67.187"/>
    <path fill="#375D81" d="M161.5684 231.467h-67.187c-.552 0-1-.447-1-1 0-.553.448-1 1-1h67.187c.553 0 1 .447 1 1 0 .553-.447 1-1 1"/>
    <path fill="#FFF" d="M170.1875 230.467h9.141"/>
    <path fill="#375D81" d="M179.3281 231.467h-9.141c-.552 0-1-.447-1-1 0-.553.448-1 1-1h9.141c.553 0 1 .447 1 1 0 .553-.447 1-1 1"/>
    <path fill="#FFF" d="M86.5 230.3918l-5 .075"/>
    <path fill="#375D81" d="M81.5 231.467c-.546 0-.991-.437-1-.985-.008-.552.433-1.006.985-1.015l5-.075c.547-.035 1.006.432 1.015.985.008.552-.433 1.006-.985 1.015l-5 .075H81.5z"/>
    <path fill="#FFF" d="M229.9873 80.9758l-26.592 66.931c-.303.76-1.164 1.132-1.925.83l-73.394-29.159c-1.841-.732-3.313-2.169-4.086-3.993l-17.605-41.486c-.985-2.321.081-5.003 2.39-6.015l41.275-18.092c1.814-.795 3.872-.831 5.711-.1l73.396 29.159c.761.303 1.132 1.164.83 1.925"/>
    <path fill="#9ACDED" d="M153.0273 50.3713c-.881 0-1.761.179-2.575.536l-41.276 18.093c-1.798.788-2.637 2.899-1.87 4.708l17.605 41.486c.664 1.567 1.952 2.825 3.534 3.453l73.395 29.16c.16.064.298.024.369-.005.068-.03.193-.104.257-.266l26.591-66.93c.098-.247-.023-.528-.27-.627l-73.395-29.158c-.755-.301-1.56-.45-2.365-.45m48.991 99.472c-.31 0-.621-.06-.918-.178l-73.393-29.158c-2.076-.825-3.766-2.477-4.638-4.532l-17.605-41.486c-1.193-2.811.113-6.096 2.91-7.321l41.275-18.093c2.045-.894 4.407-.938 6.482-.113l73.395 29.159c1.272.506 1.895 1.952 1.391 3.224l-26.592 66.93c-.246.617-.716 1.101-1.324 1.364-.316.135-.649.204-.983.204"/>
    <path fill="#E1F2FF" d="M128.8574 64.7658l26.064-7.412 65.139 28.051-22.965 55.049-87.866-41.619"/>
    <path fill="#EFEFF6" d="M169.459 77.758c9.407 3.737 14.003 14.393 10.266 23.8-3.738 9.407-14.394 14.004-23.801 10.266-9.406-3.738-14.003-14.393-10.266-23.8 3.738-9.408 14.394-14.003 23.801-10.266"/>
    <path fill="#FFF" d="M166.8359 74.3234c9.407 3.737 14.004 14.394 10.266 23.801-3.738 9.407-14.393 14.003-23.8 10.265-9.407-3.737-14.004-14.393-10.266-23.8 3.738-9.407 14.393-14.003 23.8-10.266"/>
    <path fill="#9ACDED" d="M160.0898 74.0285c-6.895 0-13.428 4.143-16.124 10.93-1.71 4.301-1.642 9.01.191 13.261 1.834 4.25 5.212 7.532 9.514 9.241 8.879 3.526 18.974-.827 22.501-9.705 1.71-4.302 1.642-9.011-.191-13.262-1.834-4.25-5.212-7.531-9.514-9.24-2.092-.831-4.252-1.225-6.377-1.225m-.044 36.657c-2.371 0-4.779-.439-7.113-1.366-4.798-1.906-8.567-5.567-10.612-10.308-2.044-4.741-2.121-9.994-.214-14.792 3.934-9.903 15.192-14.76 25.098-10.826 4.798 1.906 8.567 5.568 10.612 10.308 2.044 4.741 2.121 9.994.214 14.792-3.007 7.57-10.295 12.192-17.985 12.192"/>
    <path fill="#9ACDED" d="M170.1514 90.4602c.241.013.411.008.466.008.008-.004-.005.005 0 0 0 0 .002.001 0 0 .002 0 0 .001 0 .001-4.833-1.364-5.722-4.765-8.469-6.835-.044-.024-.091-.052-.142-.088-.061-.045-.126-.088-.194-.126-.803-.465-1.934-.51-3.231-.259-.008 0-.015.003-.022.004-.107.02-.217.044-.326.068 0 0-.002.002-.004.001-.2.047-.404.1-.612.159-.021.005-.043.01-.065.017-.056.017-.113.035-.17.052-.059.018-.118.034-.175.053-.059.019-.116.037-.173.056-.061.02-.119.039-.18.06-.04.014-.083.029-.126.044-1.611.564-3.333 1.448-4.924 2.452 0 0-.02.004 0 0 1.821.507 3.577 1.177 4.909 1.897 1.604.87 3.326 2.25 4.77 3.792-.937 1.894-2.186 3.714-3.472 5.01-1.075 1.083-2.548 2.228-4.157 3.242.151.042.302.081.453.122.045.012.09.023.136.035.108.027.216.055.326.081.05.012.1.025.151.036.11.026.218.052.328.075.044.01.089.02.133.03.139.031.277.06.416.087.014.004.027.007.041.009.161.033.321.063.481.093.013.004.024.005.037.007.145.026.287.05.431.074.029.006.058.01.087.015.131.021.262.041.393.06.026.003.051.006.077.011.152.02.302.041.452.059.001-.001.002 0 .002 0 .482.057.954.098 1.412.121.005 0 .01 0 .016.001.767.036 1.492.018 2.154-.061.095-.013.191-.025.284-.04.004-.001.007 0 .01-.001l.001-.001c.085-.013.169-.026.25-.042l.002-.001s.006-.001.009-.002c.089-.016.176-.033.261-.054.013-.003.022-.005.034-.009.001 0 .002.001.003.001.11-.025.218-.054.321-.083.018-.006.034-.011.051-.016.006-.001.012-.003.02-.005.116-.035.231-.073.34-.116.079-.029.153-.06.227-.091.031-.014.061-.029.091-.043.045-.022.088-.043.131-.064.032-.017.061-.035.093-.052.039-.021.078-.044.116-.067.03-.018.057-.036.087-.056.038-.024.073-.048.11-.074.025-.018.053-.039.079-.058.035-.028.069-.057.105-.084.023-.02.045-.04.068-.06.036-.034.07-.067.105-.103.015-.017.036-.033.051-.052.051-.054.098-.109.142-.166.03-.039.057-.07.086-.1 2.049-2.774 1.951-6.307 6.16-9.016m13.9383 34.407c-.123 0-.248-.022-.369-.07-.514-.204-.764-.786-.561-1.299l15.237-38.35c.204-.513.786-.763 1.298-.56.514.204.764.786.561 1.299l-15.236 38.349c-.157.393-.533.631-.93.631m10.1279 4.0234c-.123 0-.248-.022-.369-.07-.514-.204-.764-.785-.561-1.299l15.236-38.35c.205-.513.786-.762 1.298-.56.514.204.764.785.561 1.299l-15.235 38.349c-.157.393-.533.631-.93.631"/>
    <path fill="#FFF" d="M126.6943 72.3059c3.043 1.209 4.529 4.656 3.32 7.699s-4.655 4.53-7.698 3.321-4.529-4.656-3.32-7.699 4.655-4.53 7.698-3.321"/>
    <path fill="#375D81" d="M124.5049 72.884c-.663 0-1.324.136-1.951.406-1.209.522-2.143 1.483-2.628 2.706-.486 1.224-.467 2.564.055 3.772.52 1.209 1.481 2.142 2.705 2.628 1.224.486 2.564.467 3.771-.055 1.209-.52 2.143-1.481 2.628-2.705.486-1.224.467-2.564-.055-3.773-.52-1.208-1.481-2.142-2.705-2.627-.589-.235-1.205-.352-1.82-.352m.002 11.864c-.865 0-1.731-.164-2.56-.493-1.719-.683-3.071-1.996-3.803-3.695-.733-1.699-.76-3.582-.077-5.302.683-1.72 1.996-3.071 3.695-3.804 1.699-.735 3.582-.761 5.302-.078 1.719.684 3.071 1.996 3.803 3.696.733 1.7.76 3.583.077 5.302-.683 1.72-1.996 3.072-3.695 3.804-.881.38-1.81.57-2.742.57"/>
    <path fill="#FFF" d="M236.7354 144.3274l-62.897 61.759c-.715.701-1.864.691-2.566-.024l-67.723-68.972c-1.699-1.73-2.633-4.068-2.597-6.492l.829-55.153c.046-3.087 2.566-5.56 5.653-5.551l55.159.179c2.424.008 4.745.986 6.443 2.716l67.722 68.973c.703.714.693 1.863-.023 2.565"/>
    <path fill="#9ACDED" d="M107.417 70.8947c-2.521 0-4.599 2.045-4.636 4.565l-.829 55.154c-.032 2.143.811 4.248 2.311 5.775l67.723 68.974c.314.319.832.324 1.152.01l62.897-61.759c.155-.153.242-.356.244-.573.002-.217-.081-.422-.234-.578l-67.723-68.973c-1.501-1.529-3.59-2.409-5.731-2.416l-55.159-.179h-.015zm65.149 136.709c-.728 0-1.457-.28-2.007-.84l-67.723-68.973c-1.872-1.906-2.924-4.533-2.884-7.207l.829-55.153c.054-3.608 3.029-6.536 6.636-6.536h.021l55.159.179c2.673.009 5.28 1.107 7.153 3.015l67.723 68.973c.526.536.812 1.245.805 1.997-.006.752-.305 1.456-.842 1.982l-62.898 61.759c-.547.536-1.26.804-1.972.804z"/>
    <path fill="#E1F2FF" d="M130.0146 80.0051l32.134 3.629 59.203 60.484-50.299 50.37-78.146-85.764"/>
    <path fill="#EFEFF6" d="M170.5742 110.7629c8.68 8.84 8.55 23.043-.29 31.724-8.841 8.679-23.044 8.549-31.724-.29-8.68-8.841-8.55-23.044.29-31.724s23.043-8.551 31.724.29"/>
    <path fill="#FFF" d="M169.3379 105.6203c8.681 8.841 8.551 23.044-.29 31.724-8.84 8.68-23.043 8.55-31.724-.29-8.679-8.84-8.549-23.043.29-31.724 8.841-8.68 23.044-8.55 31.724.29"/>
    <path fill="#9ACDED" d="M153.3291 99.9143c-5.423 0-10.848 2.039-15.015 6.13-8.431 8.28-8.556 21.877-.276 30.309 4.011 4.085 9.373 6.364 15.098 6.416.066 0 .133.001.201.001 5.65 0 10.973-2.175 15.011-6.14 4.085-4.011 6.363-9.372 6.416-15.097.051-5.724-2.128-11.127-6.14-15.213-4.189-4.266-9.74-6.406-15.295-6.406m.009 44.856c-.074 0-.147-.001-.221-.001-6.259-.057-12.121-2.548-16.507-7.015-9.052-9.219-8.916-24.084.304-33.138 9.219-9.052 24.085-8.917 33.138.304 4.384 4.466 6.768 10.373 6.712 16.632-.058 6.258-2.549 12.12-7.016 16.506-4.413 4.333-10.233 6.712-16.41 6.712"/>
    <path fill="#9ACDED" d="M165.0615 125.3254c.264.133.456.211.518.238.01 0-.008.003 0 0 0 0 .002.002 0 0 .002.001-.001.001-.001.001-4.735-3.919-4.046-8.165-6.096-11.843-.038-.047-.076-.102-.115-.167-.047-.082-.099-.162-.156-.239-.668-.918-1.913-1.528-3.49-1.888-.008-.003-.016-.004-.024-.006-.13-.032-.265-.059-.4-.085 0 0-.003.001-.005-.001-.247-.047-.502-.089-.763-.126-.027-.004-.054-.01-.08-.013-.073-.009-.146-.017-.217-.026-.075-.01-.15-.02-.223-.029-.075-.006-.148-.014-.221-.021-.078-.008-.153-.016-.231-.023-.052-.004-.107-.007-.163-.012-2.083-.166-4.447-.03-6.726.306 0 0-.024-.004 0 0 1.788 1.469 3.422 3.089 4.556 4.555 1.366 1.767 2.608 4.165 3.463 6.607-1.987 1.655-4.286 3.074-6.366 3.888-1.74.68-3.955 1.233-6.259 1.572.148.122.297.24.446.361.045.035.09.069.136.105.107.085.214.169.324.252.05.039.101.077.152.115.11.083.219.166.33.247.044.033.09.066.134.099.141.103.281.204.422.304.014.011.028.021.041.03.164.116.328.231.493.342.012.01.025.017.039.025.149.102.295.2.444.297.031.021.061.04.091.06.136.089.273.176.41.262.027.015.054.032.082.05.159.098.317.197.476.29.001 0 .002.001.002.001.511.303 1.019.581 1.52.834.007.004.013.006.018.01.84.419 1.662.759 2.441.997.113.033.227.067.338.096.005.001.008.004.013.005l.001-.001c.101.027.203.053.3.077h.003s.008.001.011.002c.107.026.214.05.318.068v.001c.016.003.029.005.043.007.001-.001.002.002.003.002.136.026.271.047.401.066.022.001.044.004.064.007.008.002.016.002.024.004.149.019.296.033.44.039.101.007.2.009.299.01.042 0 .082-.003.123-.004.06-.001.119-.004.178-.007.043-.002.085-.008.13-.012.054-.003.109-.01.163-.016.042-.006.083-.013.125-.021.054-.007.106-.017.159-.027.039-.009.079-.018.118-.027.054-.013.106-.029.158-.042.036-.01.072-.022.107-.033.057-.019.112-.041.168-.063.026-.011.056-.021.083-.033.083-.034.164-.074.241-.116.052-.029.099-.049.145-.07 3.668-2.09 5.307-6.094 11.36-7.043m-.934 45.2962c-.259 0-.518-.1-.714-.3-.387-.393-.381-1.026.014-1.414l36.038-35.386c.392-.385 1.025-.382 1.414.014.387.394.381 1.026-.014 1.414l-36.038 35.386c-.194.19-.447.286-.7.286m9.3438 9.5166c-.259 0-.518-.1-.714-.3-.387-.393-.381-1.026.014-1.414l36.039-35.386c.393-.385 1.024-.381 1.414.014.387.394.381 1.026-.014 1.414l-36.039 35.386c-.194.19-.447.286-.7.286"/>
    <path fill="#FFF" d="M125.4023 83.4914c2.808 2.859 2.766 7.454-.094 10.262-2.859 2.807-7.453 2.765-10.261-.094-2.808-2.859-2.766-7.454.094-10.262 2.86-2.807 7.453-2.765 10.261.094"/>
    <path fill="#375D81" d="M120.2246 82.3225c-1.583 0-3.166.595-4.383 1.789-1.192 1.171-1.857 2.735-1.873 4.407-.015 1.671.621 3.248 1.792 4.441 2.417 2.462 6.388 2.498 8.848.08 2.461-2.417 2.497-6.386.08-8.848-1.223-1.245-2.843-1.869-4.464-1.869m.001 14.505c-2.14 0-4.277-.823-5.893-2.467-1.545-1.574-2.384-3.655-2.364-5.86.021-2.206.899-4.272 2.473-5.817 3.248-3.188 8.484-3.142 11.675.108 3.189 3.248 3.141 8.485-.108 11.676-1.603 1.575-3.694 2.36-5.783 2.36"/>
    <path fill="#9452BA" d="M80.7568 221.3039l4.977.146c1.711.049 3.294-.952 3.961-2.53 1.899-4.497 1.581-8.689 1.897-12.258.584-6.61-.352-10.033-1.177-15.6l-7.475-.045s.554 2.769.736 11.037c.057 2.558-4.464 12.693-4.413 17.732.009.827.668 1.494 1.494 1.518"/>
    <path fill="#52267D" d="M80.7861 220.3039l4.977.146c1.327.035 2.51-.733 3.01-1.918 1.39-3.292 1.531-6.369 1.666-9.342.042-.904.082-1.777.157-2.615.464-5.268-.054-8.441-.71-12.459-.109-.662-.22-1.344-.331-2.059l-5.459-.033c.183 1.516.461 4.598.58 10.009.026 1.184-.639 3.291-1.725 6.631-1.21 3.722-2.717 8.355-2.688 11.113.002.287.233.519.523.527m5.066 2.147c-.048 0-.098-.001-.148-.001l-4.977-.146c-1.368-.041-2.45-1.142-2.464-2.507-.032-3.085 1.465-7.689 2.787-11.752.809-2.489 1.646-5.063 1.626-5.969-.176-8.027-.712-10.837-.717-10.865l-.236-1.2 9.555.056.126.848c.152 1.021.307 1.969.455 2.878.653 3.992 1.216 7.44.729 12.957-.073.813-.111 1.658-.151 2.531-.136 3.002-.292 6.407-1.822 10.028-.799 1.894-2.7 3.142-4.763 3.142"/>
    <path fill="#9452BA" d="M66.959 197.2219l-5.81-6.99-3.714.039s-.687 5.654-.97 8.021c-.497 4.173-2.471 12.321-3.641 15.888-.381 1.16-.614 2.248-.699 3.238-.143 1.666 1.209 3.085 2.881 3.134l4.409.129c2.567.075 4.901-1.572 5.605-4.043 2.191-7.692 1.939-19.416 1.939-19.416"/>
    <path fill="#52267D" d="M58.3213 191.2619c-.203 1.679-.649 5.356-.863 7.149-.489 4.101-2.434 12.27-3.684 16.08-.354 1.081-.574 2.094-.653 3.013-.043.5.124.989.469 1.376.366.411.893.656 1.445.672l4.409.129c2.121.081 4.04-1.301 4.613-3.316 1.918-6.735 1.925-16.792 1.907-18.776l-5.28-6.352-2.363.025zm1.266 30.422c-.068 0-.134-.001-.202-.003l-4.409-.129c-1.099-.032-2.148-.521-2.88-1.341-.714-.802-1.058-1.823-.967-2.878.091-1.073.342-2.239.745-3.465 1.196-3.648 3.13-11.769 3.597-15.694.284-2.368.97-8.023.97-8.023l.107-.871 5.066-.053 6.337 7.624.008.349c.009.485.229 11.963-1.978 19.712-.806 2.833-3.419 4.772-6.394 4.772z"/>
    <path fill="#52267D" d="M57.7314 202.5295l.286.273-.011-.502-.275.229zm.4.383l.208.198 1.167-.409-.105-.252-.805.165.006.288-.471.01zm.085.772l-1.237-1.182 1.233-1.021.319.385-.404.334 1.575-.323.472 1.121-1.958.686z"/>
    <path fill="#9452BA" d="M59.2861 171.6008c4.38.038 8.57-2.856 17.516-3.008.145-.58.318-1.102.531-1.529 1.718-3.453 4.294-13.474 3.022-20.143l-1.007-5.277c-.33-1.73-.47-3.493-.418-5.255.021-.734.116-1.448.278-2.137.041-.172.085-.341.134-.51.146-.506.328-.995.544-1.467.072-.157.147-.312.226-.465.159-.306.331-.603.518-.89.186-.287.385-.564.597-.831.637-.801 1.385-1.507 2.222-2.095.278-.197.567-.379.865-.548 1.636-.93 3.539-1.438 5.558-1.379l1.743.052c2.937.085 5.56 1.352 7.428 3.333.233.248.455.506.664.775.38.488.715 1.013 1.006 1.563.109.207.215.416.31.63.071.158.137.317.2.478.187.483.34.982.457 1.496.116.514.195 1.04.234 1.578.026.358.034.722.023 1.089-.021.731-.338 1.386-.831 1.852-.494.465-1.165.743-1.897.721l-10.885-.318 1.371 9.496c1.651 9.763.88 16.236-.744 20.519-.362.956-2.363 4.319-2.363 4.319 5.192 8.748 13.429 12.746 22.323 14.097 7.561 1.147 24.143-5.294 15.932-13.545-8.212-8.251 1.847-2.976 3.32-1.919 1.473 1.057 9.939 8.816.191 19.552-4.122 4.54-8.76 8.642-19.72 11.571-1.758.468-11.286.883-16.448 2.203-15.366 3.929-27.616-1.19-34.265-11.451-6.621-10.221-.364-22.573 1.365-22.557"/>
    <path fill="#52267D" d="M59.4219 172.6008c-.492.362-1.883 2.403-2.767 5.792-.831 3.187-1.663 9.404 2.105 15.221 6.892 10.635 18.988 14.653 33.179 11.026 3.295-.843 8.304-1.322 11.962-1.673 2.003-.191 3.894-.373 4.475-.527 10.975-2.933 15.362-7.008 19.238-11.277 3.22-3.546 4.67-7.073 4.31-10.48-.42-3.967-3.278-6.822-4.344-7.588-.775-.556-2.986-1.701-4.379-2.203.409.54 1.119 1.367 2.351 2.605 3.186 3.202 2.776 6 1.872 7.786-2.674 5.271-13.2 8.284-18.663 7.452-10.488-1.593-18.238-6.496-23.033-14.574l-.303-.512.304-.511c.756-1.271 2.047-3.525 2.288-4.161 1.869-4.931 2.102-11.659.692-19.998l-1.545-10.697 12.074.352c.446.032.861-.146 1.183-.449.32-.303.504-.713.517-1.153.009-.333.003-.661-.021-.987-.035-.48-.106-.962-.213-1.43-.103-.458-.243-.914-.414-1.356-.055-.145-.116-.289-.18-.43-.085-.194-.181-.383-.28-.57-.269-.51-.576-.986-.912-1.418-.19-.244-.392-.479-.603-.704-1.766-1.872-4.156-2.944-6.729-3.018l-1.743-.052c-1.774-.054-3.506.38-5.034 1.248-.271.153-.532.318-.783.496-.759.534-1.437 1.174-2.015 1.9-.193.243-.373.494-.542.754-.169.26-.325.53-.47.807-.07.137-.139.277-.205.421-.194.425-.359.871-.491 1.327-.045.153-.085.308-.122.465-.148.626-.233 1.277-.251 1.933-.05 1.687.085 3.381.401 5.038l1.007 5.278c1.314 6.894-1.326 17.189-3.109 20.775-.165.331-.32.778-.457 1.327l-.187.744-.767.013c-5.032.085-8.581 1.077-11.432 1.875-2.154.603-4.022 1.124-5.964 1.133m22.85 35.309c-10.588 0-19.623-4.618-25.19-13.208-5.28-8.151-2.836-17.336-.559-21.479 1.445-2.629 2.433-2.63 2.772-2.622 1.75-.019 3.406-.46 5.553-1.06 2.82-.788 6.298-1.76 11.193-1.928.121-.376.253-.705.398-.995 1.631-3.282 4.148-13.144 2.934-19.509l-1.007-5.278c-.342-1.799-.49-3.64-.436-5.471.023-.791.126-1.577.304-2.337.046-.19.094-.375.147-.559.159-.55.359-1.09.596-1.605.079-.173.161-.341.247-.507.176-.338.363-.662.567-.977.204-.313.422-.617.653-.908.698-.877 1.515-1.648 2.43-2.291.304-.215.621-.415.947-.6 1.846-1.049 3.962-1.559 6.08-1.509l1.744.052c3.106.089 5.992 1.385 8.126 3.646.255.273.498.555.725.848.408.524.779 1.099 1.101 1.711.119.223.234.454.34.688.077.173.149.348.218.525.206.532.374 1.083.5 1.636.128.567.214 1.147.256 1.727.03.39.038.789.027 1.19-.03.975-.436 1.88-1.145 2.549-.71.67-1.612 1.017-2.613.995l-9.696-.284 1.201 8.319c1.466 8.67 1.199 15.749-.799 21.017-.304.803-1.537 2.94-2.133 3.957 4.497 7.238 11.662 11.65 21.309 13.115 5.187.783 14.5-2.282 16.578-6.38.894-1.764.402-3.554-1.506-5.471-3.25-3.266-4.049-4.719-3.165-5.757 1.545-1.813 7.717 2.277 7.777 2.32 1.577 1.133 4.688 4.473 5.166 9.003.424 3.999-1.197 8.048-4.817 12.034-3.922 4.321-8.712 8.794-20.203 11.865-.741.198-2.444.361-4.799.586-3.594.344-8.514.815-11.658 1.62-3.497.893-6.905 1.332-10.163 1.332"/>
    <path fill="#9452BA" d="M69.1641 157.4123c.678-11.245-7.997-20.351-18.095-22.517-2.096-.449-2.762-1.13-5.068-1.198l-1.767-.052c-5.948-.173-10.912 4.508-11.086 10.457-.043 1.484 1.124 2.721 2.608 2.764 0 0 18.111.524 18.196.519.001 0 1.476.044 1.477.044-.002.002-1.478-.04-1.481-.038 3.956 1.817 6.299 7.008 6.658 9.771.512 3.936-.041 7.152-1.454 9.727-.94 1.714-1.102 3.808-1.015 5.51 0 0 .043.016.102.038.036.91.154 1.947.39 3.133 1.74-1.138 4.444-2.849 4.936-3.092 1.063-.521 3.462-1.71 4.537-2.285 6.87-3.676.676-6.385 1.062-12.781"/>
    <path fill="#52267D" d="M59.1172 171.6994l.095.036.026.662c.02.482.063.984.129 1.504 1.494-.96 3.3-2.095 3.757-2.32 1.189-.584 3.476-1.719 4.507-2.27 3.485-1.865 3.027-2.963 1.922-5.615-.689-1.651-1.546-3.708-1.387-6.345.686-11.391-8.404-19.568-17.307-21.478-.858-.184-1.498-.405-2.061-.601-.868-.301-1.553-.538-2.827-.575l-1.766-.052c-2.605-.065-5.092.868-6.993 2.66-1.9 1.791-2.988 4.216-3.064 6.827-.013.45.15.879.459 1.206.309.328.728.515 1.178.528 6.136.178 17.831.515 18.172.519-.002 0 .381.01.763.022l3.055.089-1.318 1.318c3.002 2.487 4.808 6.665 5.14 9.219.523 4.012-.005 7.489-1.568 10.337-.741 1.35-.92 3.005-.912 4.329zm-1.18 5.519l-.289-1.453c-.18-.905-.303-1.781-.368-2.613l-.017-.006-.125-.696c-.124-2.409.259-4.441 1.137-6.042 1.355-2.468 1.805-5.535 1.34-9.117-.295-2.263-2.327-7.143-5.916-8.912-.765-.02-4.055-.112-17.973-.513-.984-.029-1.898-.439-2.574-1.155-.676-.717-1.032-1.654-1.004-2.638.093-3.145 1.404-6.064 3.692-8.223 2.288-2.157 5.27-3.278 8.423-3.205l1.767.052c1.58.047 2.476.356 3.423.686.534.184 1.087.377 1.826.535 9.717 2.084 19.637 11.048 18.883 23.554-.131 2.174.596 3.917 1.236 5.455 1.113 2.668 2.263 5.426-2.824 8.148-1.055.564-3.367 1.712-4.568 2.301-.387.19-2.869 1.749-4.829 3.031l-1.24.811z"/>
    <path fill="#F3E3FF" d="M63.0156 170.2482c-.038-1.74-.277-2.641-.062-3.342 1.241-4.039 1.644-5.313 1.769-9.624.125-4.283-2.232-8.589-5.831-10.947-.197-.13-2.829-.393-4.943 1.056 3.956 1.817 6.298 7.008 6.658 9.771.512 3.936-.041 7.152-1.454 9.727-.941 1.714-1.103 3.808-1.016 5.51 0 0 4.86 1.989 4.879-2.151"/>
    <path fill="#52267D" d="M58.623 172.0451c.792.262 2.306.585 3.158.012.483-.324.73-.93.735-1.805-.015-.647-.058-1.176-.093-1.62-.064-.781-.11-1.347.052-1.872l.036-.116c1.221-3.975 1.59-5.175 1.712-9.376.119-4.078-2.081-8.205-5.606-10.515-.143-.032-1.923-.202-3.638.619 3.59 2.159 5.761 6.943 6.123 9.726.508 3.904 0 7.279-1.511 10.031-.858 1.562-1.01 3.479-.968 4.916m1.869 1.329c-1.271 0-2.47-.481-2.545-.512l-.294-.12-.015-.317c-.082-1.592.039-3.886 1.076-5.776 1.406-2.563 1.877-5.733 1.396-9.422-.374-2.878-2.797-7.74-6.371-9.382l-.802-.368.729-.498c2.217-1.521 5.068-1.344 5.501-1.062 3.807 2.495 6.185 6.963 6.056 11.38-.126 4.337-.538 5.673-1.756 9.641l-.036.115c-.105.343-.068.803-.012 1.498.038.463.082 1.013.097 1.686v.013c-.006 1.232-.403 2.119-1.18 2.639-.544.363-1.203.485-1.844.485"/>
    <path fill="#FFF" d="M38.5293 135.3107s.051-1.881 1.941-2.574c.578-.212 1.631-.605 1.631-.605s1.045 2.387-.234 2.944c-1.84.801-3.338.235-3.338.235"/>
    <path fill="#52267D" d="M39.0908 134.9377c.511.09 1.479.156 2.576-.32.13-.057.212-.144.266-.283.162-.413.02-1.085-.128-1.559l-1.162.431c-1.068.391-1.43 1.233-1.552 1.731m.749 1.067c-.871 0-1.447-.212-1.487-.226l-.333-.126.009-.356c.003-.09.085-2.229 2.27-3.03l2.071-.768.19.433c.075.171.721 1.705.304 2.769-.151.383-.426.672-.797.833-.834.364-1.606.471-2.227.471"/>
    <path fill="#FFF" d="M43.2471 134.1242s.128-2.562 3.022-2.851c.541-.054 1.943.021 1.943.021s.568 2.731-.96 2.947c-1.878.266-4.005-.117-4.005-.117"/>
    <path fill="#52267D" d="M43.8262 133.7043c.718.09 2.105.218 3.355.042.171-.024.29-.096.386-.233.287-.407.271-1.213.212-1.739-.48-.017-1.153-.032-1.459-.004-1.763.177-2.319 1.294-2.494 1.934m1.959 1.132c-1.386 0-2.561-.208-2.627-.22l-.433-.078.023-.439c.052-1.035.844-3.061 3.472-3.323.559-.057 1.871.01 2.018.019l.385.02.078.377c.04.194.373 1.916-.314 2.896-.255.361-.623.586-1.065.648-.512.072-1.038.1-1.537.1"/>
    <path fill="#FFF" d="M48.9736 134.5373s.463-2.831 2.994-1.976c1.081.366 1.662 1.212 1.662 1.212s-.571 2.151-1.58 1.877c-1.762-.476-3.076-1.113-3.076-1.113"/>
    <path fill="#52267D" d="M49.5645 134.2551c.501.216 1.465.602 2.616.913.041.011.081.011.147-.026.289-.167.585-.78.747-1.259-.21-.232-.644-.638-1.267-.848-.578-.195-1.043-.179-1.42.047-.457.275-.703.813-.823 1.173m2.661 1.92c-.102 0-.205-.015-.307-.042-1.786-.483-3.107-1.119-3.163-1.146l-.336-.163.061-.368c.01-.062.266-1.554 1.392-2.231.634-.381 1.393-.429 2.255-.137 1.225.414 1.887 1.362 1.915 1.402l.129.19-.058.221c-.044.166-.452 1.625-1.286 2.107-.192.11-.396.167-.602.167"/>
    <path fill="#FFF" d="M55.9863 148.5529s6.048-3.062 5.074-8.541c.772.674 2.826 2.722 3.564 3.76-.032 1.066.041 5.306-5.889 7.97-.996-1.096-1.824-2.451-2.749-3.189"/>
    <path fill="#52267D" d="M56.8213 148.6418c.409.421.798.923 1.204 1.444.272.349.55.708.839 1.046 5.045-2.412 5.223-5.934 5.256-7.202-.534-.707-1.598-1.824-2.455-2.665-.044 3.93-3.43 6.481-4.844 7.377zm1.788 3.705l-.244-.268c-.401-.443-.772-.918-1.13-1.379-.536-.691-1.043-1.343-1.56-1.756l-.608-.485.692-.352c.058-.028 5.705-2.965 4.809-8.007l-.249-1.398 1.07.933c.824.719 2.882 2.777 3.642 3.848l.098.136-.005.168c-.094 3.813-2.173 6.61-6.184 8.412l-.331.148z"/>
    <path fill="#F3E3FF" d="M39.3545 134.8166s.026-.974 1.005-1.332c.299-.109.845-.314.845-.314s.541 1.236-.121 1.524c-.954.415-1.729.122-1.729.122m5.1406-1.2363s.065-1.306 1.541-1.453c.275-.027.99.011.99.011s.29 1.392-.489 1.502c-.958.135-2.042-.06-2.042-.06m5.4033.7793s.245-1.502 1.588-1.048c.574.194.883.643.883.643s-.304 1.14-.839.996c-.935-.253-1.632-.591-1.632-.591m-1.8554 11.0605l-5.443-.159c.08-2.741 2.367-4.899 5.109-4.819l.479.014c1.371.04 2.45 1.184 2.41 2.555-.04 1.371-1.184 2.449-2.555 2.409"/>
    <path fill="#FFF" d="M47.5869 145.3137l-4.891-.143c.063-2.154 1.86-3.849 4.014-3.786l.991.029c1.077.032 1.925.93 1.893 2.007-.031 1.077-.93 1.924-2.007 1.893"/>
    <path fill="#52267D" d="M47.6016 144.8137c.014.001.028.001.043.001.78 0 1.427-.623 1.449-1.408.012-.388-.128-.756-.394-1.038-.266-.283-.625-.444-1.013-.455l-.991-.029c-.895-.03-1.773.302-2.434.925-.538.508-.889 1.161-1.014 1.877l4.354.127zm.043 1.001c-.024 0-.048 0-.072-.001l-5.391-.157.015-.5c.034-1.176.524-2.267 1.379-3.074.855-.807 1.981-1.229 3.149-1.198l.991.029c1.352.041 2.418 1.171 2.378 2.522-.039 1.326-1.131 2.379-2.449 2.379z"/>
    <path fill="#52267D" d="M43.6133 144.132c-.018.602.456 1.103 1.058 1.12.601.018 1.102-.455 1.12-1.057.017-.601-.455-1.103-1.057-1.121-.601-.017-1.103.456-1.121 1.058m-8.083 1.9092c.312-.058.594-.222.798-.464l.378-.448-.818.15-.482.089c-.186.034-.309.213-.274.399.034.185.212.308.398.274"/>
    <path fill="#EAF3FB" d="M56.9893 148.6906s4.658-2.336 4.732-7.312c1.929 1.494 2.436 2.437 2.436 2.437s-.412 2.358-1.551 3.521c-1.746 1.785-3.526 2.297-5.617 1.354"/>
    <path fill="#FFF" d="M61.3555 147.9436s-1.861 1.787-3.651 2.617"/>
    <path fill="#52267D" d="M57.9141 151.0139l-.42-.906c1.691-.785 3.497-2.508 3.515-2.525l.693.721c-.079.075-1.943 1.856-3.788 2.71"/>
    <path fill="#9452BA" d="M78.7744 167.8088l-.963-2.046c-3.541-9.489-3.969-15.013-1.728-23.905l1.312-5.209c.431-1.709.674-3.46.726-5.222.171-5.872-4.451-10.771-10.323-10.943l-1.716-.05c-5.791-.169-10.623 4.389-10.793 10.181l-.009.3c-.04 1.378 1.045 2.528 2.423 2.569l10.868.316-1.923 9.401c-5.784 25.172-5.578 35.453 4.41 33.632"/>
    <path fill="#52267D" d="M68.9688 178.0393c-2.013 0-3.58-.61-4.759-1.844-3.579-3.746-3.168-13.059 1.464-33.219l1.68-8.211-9.68-.282c-1.927-.057-3.449-1.671-3.393-3.597l.008-.301c.186-6.334 5.445-11.317 11.823-11.151l1.716.049c6.413.189 11.48 5.559 11.293 11.973-.054 1.832-.308 3.661-.756 5.437l-1.312 5.208c-2.189 8.691-1.809 13.92 1.695 23.312l.932 1.97-1.811.851-.963-2.046c-3.661-9.802-4.072-15.526-1.792-24.575l1.312-5.209c.412-1.636.647-3.32.695-5.007.156-5.311-4.04-9.758-9.351-9.914l-1.717-.049c-5.216-.14-9.61 3.978-9.764 9.209l-.008.301c-.025.824.627 1.515 1.452 1.539l12.056.352-2.161 10.565c-3.068 13.358-5.698 27.514-1.972 31.413 1.089 1.141 2.799 1.475 5.223 1.037l.36 1.966c-.813.149-1.569.223-2.27.223"/>
    <path fill="#FFF" d="M60.7988 121.5383s.229-1.837 2.081-2.517c.565-.207 1.434.057 1.434.057s1.008 1.685-.244 2.23c-1.803.785-3.271.23-3.271.23"/>
    <path fill="#52267D" d="M61.4063 121.176c.51.087 1.417.13 2.464-.326.208-.091.268-.205.297-.295.1-.309-.064-.772-.193-1.047-.29-.062-.687-.102-.922-.017-1.035.379-1.47 1.186-1.646 1.685m.677 1.053c-.856 0-1.422-.208-1.461-.223l-.368-.139.048-.39c.011-.088.291-2.149 2.406-2.925.702-.259 1.645.016 1.751.048l.184.055.099.167c.069.114.663 1.147.378 2.038-.131.408-.426.721-.852.907-.818.356-1.576.462-2.185.462"/>
    <path fill="#FFF" d="M65.1768 121.0578s.145-2.9 3.423-3.229c.611-.061 1.391.022 1.391.022s1.452 3.095-.279 3.34c-2.127.301-4.535-.133-4.535-.133"/>
    <path fill="#52267D" d="M65.7529 120.6389c.795.104 2.424.264 3.889.057.214-.031.287-.117.331-.197.231-.429-.024-1.447-.32-2.173-.265-.018-.668-.034-1.004 0-2.084.209-2.709 1.584-2.896 2.313m2.298 1.158c-1.564 0-2.888-.233-2.963-.247l-.433-.078.023-.438c.056-1.153.94-3.409 3.872-3.702.653-.066 1.46.018 1.494.022l.28.029.12.256c.105.224 1.01 2.223.409 3.336-.151.276-.457.624-1.071.711-.577.081-1.17.111-1.731.111"/>
    <path fill="#FFF" d="M71 121.8889s.523-2.762 2.981-1.86c1.05.385 1.598 1.229 1.598 1.229s-.613 2.091-1.595 1.798c-1.713-.511-2.984-1.167-2.984-1.167"/>
    <path fill="#52267D" d="M71.5977 121.6213c.488.225 1.417.624 2.529.955.032.009.067.018.138-.02.283-.155.586-.741.756-1.203-.2-.232-.612-.635-1.212-.855-.558-.207-1.011-.202-1.383.01-.448.254-.701.764-.828 1.113m2.574 1.963c-.11 0-.22-.017-.33-.049-1.738-.518-3.017-1.175-3.071-1.202l-.331-.171.069-.366c.012-.063.3-1.521 1.424-2.158.634-.36 1.381-.387 2.221-.08 1.193.439 1.819 1.387 1.844 1.427l.125.193-.064.22c-.076.263-.502 1.593-1.316 2.036-.184.099-.376.15-.571.15"/>
    <path fill="#F3E3FF" d="M59.5244 171.2717c.633-.446 1.268-.695 1.812-.809"/>
    <path fill="#52267D" d="M59.8125 171.6799l-.576-.816c.623-.44 1.313-.747 1.998-.89l.203.978c-.384.081-.978.272-1.625.728"/>
    <path fill="#F3E3FF" d="M63.125 171.3195c-1.565-7.271 2.042-20.979 2.73-24.358l2.731-13.542 1.022.03c1.296.038 2.237 1.474 2.015 2.754l-2.036 11.756c-.689 3.98-1.824 22.469 5.005 26.648 1.457.892 3.882.405 4.802-.001 3.346-1.48 4.417-5.569 5.236-8.866 1.698-6.822.688-12.247.515-17.64l-.152-6.744c-.027-1.219.979-2.482 2.195-2.447l1.242.036 1.838 13.675c.558 3.895 1.896 17.386-6.207 23.455-.147.109 1.909.633 1.278 1.675-2.505 4.141-9.426 4.605-10.778 6.37-5.207 6.796-.952 21.721-.952 21.721s-5.49-2.378-8.84-5.562c-7.833-7.443-8.549-17.915-8.497-20.99.063-3.679 1.095-5.932 2.325-7.259"/>
    <path fill="#52267D" d="M74.3799 206.7209l-.97-.42c-.227-.099-5.61-2.451-8.986-5.659-8.445-8.025-8.689-19.202-8.651-21.361.056-3.337.883-5.891 2.457-7.59l.734.679c-1.382 1.492-2.14 3.887-2.191 6.928-.023 1.278.025 12.718 8.34 20.619 2.424 2.303 6.041 4.2 7.745 5.024-.873-3.557-3.246-15.185 1.306-21.124.611-.798 1.976-1.29 3.704-1.914 2.493-.9 5.596-2.019 7.043-4.411.062-.102.049-.146.044-.163-.069-.237-.638-.52-.853-.627-.279-.137-.519-.256-.547-.567l-.025-.278.232-.182c7.798-5.841 6.572-19.068 6.011-22.983l-1.783-13.259-.816-.024c-.356-.039-.751.155-1.065.467-.392.389-.627.951-.616 1.47l.152 6.744c.039 1.226.123 2.457.208 3.708.29 4.291.59 8.729-.738 14.064-.797 3.205-1.887 7.595-5.519 9.202-.949.42-3.591.993-5.265-.03-7.327-4.483-5.819-23.793-5.237-27.16l2.037-11.756c.092-.531-.077-1.136-.439-1.581-.3-.367-.69-.576-1.098-.587l-.601-.018-2.647 13.128c-.094.459-.24 1.104-.42 1.897-1.09 4.81-3.644 16.074-2.312 22.257l-.978.211c-1.378-6.4 1.116-17.402 2.315-22.689.178-.784.323-1.422.414-1.874l2.814-13.955 1.444.043c.702.02 1.357.36 1.843.955.549.672.792 1.563.649 2.383l-2.036 11.756c-.8 4.63-1.618 22.226 4.774 26.137 1.248.766 3.476.348 4.339-.031 3.183-1.408 4.206-5.525 4.953-8.53 1.29-5.182.995-9.54.71-13.754-.086-1.263-.17-2.506-.21-3.749l-.152-6.75c-.017-.793.323-1.616.91-2.2.512-.508 1.145-.746 1.8-.758l1.666.049 1.894 14.096c.566 3.95 1.776 17.093-5.82 23.46.396.226.832.552.972 1.036.065.22.09.566-.148.959-1.63 2.695-4.917 3.882-7.559 4.835-1.449.523-2.818 1.017-3.251 1.58-4.993 6.518-.908 21.134-.867 21.281l.29 1.016z"/>
    <path fill="#FFF" d="M128.2354 179.2473s1.18-1.232.587-2.95c-.181-.525-.874-.991-.874-.991s-1.79.259-1.451 1.471c.488 1.744 1.738 2.47 1.738 2.47"/>
    <path fill="#52267D" d="M127.8291 175.841c-.281.073-.673.227-.818.45-.042.066-.084.165-.033.352.272.97.8 1.58 1.154 1.899.246-.418.534-1.166.218-2.082-.073-.211-.325-.459-.521-.619zm.495 4.036l-.34-.197c-.058-.034-1.431-.85-1.968-2.768-.119-.423-.064-.827.158-1.168.479-.736 1.579-.915 1.702-.933l.191-.028.16.108c.085.057.839.58 1.068 1.243.684 1.983-.642 3.399-.698 3.459l-.273.284z"/>
    <path fill="#F3E3FF" d="M127.9092 177.4777s.413-.432.205-1.034c-.063-.185-.307-.348-.307-.348s-.627.091-.508.516c.172.612.61.866.61.866"/>
    <path fill="#FFF" d="M118.6143 188.0383s-1.013-2.507 1.628-4.067c.492-.291 1.184-.527 1.184-.527s2.437 2.046 1.071 2.931c-1.679 1.087-3.883 1.663-3.883 1.663"/>
    <path fill="#52267D" d="M121.3174 184.0178c-.229.089-.561.229-.82.384-1.63.963-1.652 2.32-1.533 3.012.722-.227 2.128-.725 3.261-1.459.155-.1.182-.188.187-.268.026-.433-.577-1.182-1.095-1.669zm-3.002 4.615l-.165-.407c-.405-1.005-.544-3.277 1.838-4.686.53-.313 1.246-.558 1.276-.569l.267-.091.216.182c.291.243 1.735 1.518 1.663 2.686-.019.3-.145.726-.642 1.047-1.726 1.118-3.934 1.702-4.028 1.727l-.425.111z"/>
    <path fill="#F3E3FF" d="M119.5449 187.133s-.562-1.39.902-2.255c.274-.162.658-.292.658-.292s1.351 1.135.593 1.625c-.93.603-2.153.922-2.153.922"/>
    <path fill="#FFF" d="M126.7656 180.1613s1.831 1.705-.015 3.128c-.788.608-1.683.621-1.683.621s-1.284-1.455-.598-2.056c1.197-1.047 2.296-1.693 2.296-1.693"/>
    <path fill="#52267D" d="M126.6709 180.8117c-.408.268-1.123.764-1.872 1.419-.042.33.229.814.485 1.154.27-.044.739-.165 1.161-.491.406-.312.611-.64.629-1.002.021-.422-.211-.822-.403-1.08zm-1.826 3.602l-.153-.172c-.163-.186-.976-1.154-.921-1.999.019-.306.147-.57.37-.764 1.218-1.066 2.325-1.721 2.372-1.748l.321-.19.273.254c.042.039 1.021.965.966 2.14-.031.665-.373 1.254-1.016 1.75-.909.702-1.939.725-1.983.726l-.229.003z"/>
    <path fill="#F3E3FF" d="M126.458 181.3234s.812.755-.006 1.386c-.349.268-.746.274-.746.274s-.569-.644-.265-.91c.531-.464 1.017-.75 1.017-.75"/>
    <path fill="#FFF" d="M109.5586 189.0774s-.556-2.222 1.896-3.026c2.451-.804 3.081-.057 3.081-.057s1.276 2.297.055 2.989c-1.219.692-5.032.094-5.032.094"/>
    <path fill="#52267D" d="M110.001 188.6359c1.443.193 3.628.317 4.344-.087.612-.348.048-1.736-.203-2.229-.154-.088-.815-.359-2.532.207-1.489.488-1.638 1.56-1.609 2.109m2.475 1.182c-1.364 0-2.751-.208-2.995-.246l-.327-.052-.081-.322c-.23-.923-.063-2.871 2.225-3.622 2.641-.865 3.478-.072 3.619.096.619 1.094 1.225 3.007-.079 3.746-.537.305-1.444.4-2.362.4"/>
    <path fill="#F3E3FF" d="M110.7109 188.6096s-.288-1.155.986-1.573c1.275-.418 1.603-.031 1.603-.031s.663 1.196.028 1.555c-.634.361-2.617.049-2.617.049"/>
    <path fill="#FFF" d="M67.96 136.7229s3.808 2.302 9.308.485c-.422 1.678-1.283 5.048-1.283 5.048s-5.087 1.4-8.906-1.162c.464-2.227.881-4.371.881-4.371"/>
    <path fill="#52267D" d="M67.6387 140.8586c3.052 1.854 6.887 1.209 7.937.98.178-.699.64-2.509.992-3.9-3.993 1.063-6.999.078-8.243-.475-.147.743-.404 2.033-.686 3.395m5.087 2.285c-1.783 0-3.993-.339-5.925-1.635l-.28-.187.069-.329c.463-2.224.879-4.364.879-4.365l.137-.7.612.367c.035.021 3.693 2.153 8.893.439l.864-.285-.222.882c-.423 1.677-1.283 5.049-1.283 5.049l-.071.282-.281.077c-.111.03-1.515.405-3.392.405"/>
    <path fill="#FFF" d="M97.2139 127.7316s-.122-1.862-1.945-2.653c-.556-.243-2.075-.348-2.075-.348s-.484 1.954.744 2.577c1.767.896 3.276.424 3.276.424"/>
    <path fill="#52267D" d="M93.6182 125.2697c-.046.501-.021 1.305.546 1.592 1.027.521 1.947.529 2.466.472-.147-.513-.536-1.352-1.561-1.796-.264-.116-.913-.211-1.451-.268m2.572 3.086c-.659 0-1.536-.124-2.478-.602-1.566-.794-1.027-3.047-1.003-3.143l.1-.408.419.029c.165.012 1.623.119 2.241.389 2.078.901 2.238 2.99 2.244 3.079l.025.391-.375.118c-.036.011-.485.147-1.173.147"/>
    <path fill="#FFF" d="M92.5605 126.6467s.021-2.531-2.814-2.983c-.529-.085-1.212-.052-1.212-.052s-1.42 2.619.073 2.92c1.836.37 3.953.115 3.953.115"/>
    <path fill="#52267D" d="M88.8467 124.1047c-.277.596-.538 1.433-.373 1.785.019.04.055.115.232.152 1.217.244 2.58.202 3.296.152-.143-.642-.636-1.766-2.335-2.036-.257-.042-.578-.053-.818-.053h-.002zm2.052 3.128c-.72 0-1.576-.047-2.39-.211-.556-.112-.818-.447-.94-.709-.471-1.006.355-2.625.526-2.939l.134-.248.281-.013c.03-.003.741-.035 1.316.056 2.579.412 3.244 2.457 3.235 3.482l-.004.44-.437.052c-.05.007-.765.09-1.721.09z"/>
    <path fill="#FFF" d="M87.1641 126.6731s-.364-2.809-2.89-2.047c-1.078.326-1.679 1.143-1.679 1.143s.494 2.138 1.498 1.902c1.754-.413 3.071-.998 3.071-.998"/>
    <path fill="#52267D" d="M83.1465 125.8967c.146.483.413 1.085.693 1.258.069.043.107.036.139.03 1.145-.27 2.103-.616 2.605-.813-.107-.36-.333-.894-.774-1.177-.362-.233-.817-.262-1.391-.09-.616.187-1.056.569-1.272.792m.793 2.293c-.217 0-.431-.063-.628-.186-.793-.493-1.142-1.854-1.204-2.123l-.052-.223.137-.186c.028-.038.714-.954 1.937-1.324.863-.261 1.611-.188 2.227.209 1.092.707 1.295 2.189 1.304 2.252l.048.37-.341.151c-.056.025-1.381.609-3.16 1.028-.089.021-.179.032-.268.032"/>
    <path fill="#F3E3FF" d="M61.7715 121.1008s.122-.981 1.111-1.345c.302-.11.766.031.766.031s.539.9-.13 1.191c-.963.419-1.747.123-1.747.123m4.4941-.499s.091-1.819 2.146-2.024c.383-.039.873.013.873.013s.91 1.941-.175 2.094c-1.334.188-2.844-.083-2.844-.083m5.8203 1.04s.302-1.594 1.721-1.074c.605.222.922.709.922.709s-.354 1.207-.92 1.038c-.99-.294-1.723-.673-1.723-.673m24.2256 5.5889s-.064-.984-1.028-1.403c-.294-.128-1.097-.184-1.097-.184s-.256 1.033.393 1.362c.934.474 1.732.225 1.732.225m-4.8418-1.0625s.012-1.399-1.557-1.649c-.292-.047-.67-.029-.67-.029s-.785 1.448.041 1.615c1.015.204 2.186.063 2.186.063m-5.2949.2851s-.199-1.536-1.581-1.119c-.59.178-.919.625-.919.625s.271 1.17.819 1.041c.96-.226 1.681-.547 1.681-.547"/>
    <path fill="#FFF" d="M79.3887 141.8547s4.773.888 9.365-.099c.372 2.492.603 4.37.603 4.37s-3.226 2.055-9.031.639c-.596-3.202-.937-4.91-.937-4.91"/>
    <path fill="#52267D" d="M80.7568 146.3527c4.399.989 7.212-.096 8.061-.505-.076-.587-.245-1.883-.482-3.498-3.457.643-6.868.309-8.319.108.144.74.396 2.052.74 3.895m3.526 1.413c-1.177 0-2.54-.141-4.076-.516l-.314-.076-.059-.317c-.595-3.196-.935-4.902-.935-4.904l-.145-.724.726.135c.047.008 4.735.857 9.169-.097l.521-.111.078.526c.374 2.499.605 4.384.605 4.384l.039.312-.267.17c-.102.066-1.964 1.217-5.342 1.218"/>
    <path fill="#F3E3FF" d="M87.459 137.2707l5.443.159c.08-2.742-2.077-5.029-4.819-5.109l-.478-.014c-1.372-.04-2.515 1.039-2.555 2.409-.04 1.371 1.039 2.515 2.409 2.555"/>
    <path fill="#FFF" d="M88.0586 137.1945l4.753.14c.062-2.155-1.633-3.952-3.786-4.015l-1.129-.032c-1.001-.03-1.836.758-1.865 1.759-.034 1.153.874 2.115 2.027 2.148"/>
    <path fill="#52267D" d="M87.8428 133.7863c-.337 0-.655.126-.9.357-.255.242-.402.567-.412.917-.012.424.142.829.433 1.137.291.309.685.485 1.109.497l4.217.124c-.195-1.645-1.574-2.949-3.279-2.999l-1.129-.032c-.013-.001-.026-.001-.039-.001zm5.454 4.062l-5.253-.154c-.691-.02-1.333-.307-1.807-.811-.475-.502-.725-1.16-.706-1.852.019-.617.276-1.191.726-1.615.45-.423 1.046-.633 1.654-.629l1.129.032c2.426.071 4.342 2.104 4.272 4.53l-.015.499z"/>
    <path fill="#52267D" d="M91.6162 135.052c-.018.602-.52 1.075-1.121 1.058-.602-.018-1.075-.52-1.058-1.121.018-.602.52-1.076 1.121-1.058.602.017 1.076.519 1.058 1.121"/>
    <path fill="#F3E3FF" d="M68.7617 132.0149l-5.443-.159c.08-2.741 2.368-4.9 5.109-4.82l.479.015c1.371.039 2.45 1.184 2.41 2.554-.04 1.371-1.184 2.45-2.555 2.41"/>
    <path fill="#FFF" d="M68.3057 131.9084l-4.891-.144c.063-2.153 1.861-3.848 4.014-3.786l.991.03c1.077.031 1.925.929 1.894 2.006-.032 1.078-.931 1.925-2.008 1.894"/>
    <path fill="#52267D" d="M68.3203 131.4084c.788.019 1.47-.608 1.493-1.408.024-.8-.608-1.469-1.408-1.492l-.991-.03c-.908-.023-1.772.302-2.434.926-.538.508-.889 1.161-1.014 1.876l4.354.128zm.043 1.001c-.024 0-.048 0-.072-.001l-5.391-.158.015-.5c.034-1.175.524-2.267 1.38-3.073.855-.806 1.96-1.215 3.148-1.199l.991.03c1.351.039 2.418 1.17 2.379 2.521-.04 1.327-1.132 2.38-2.45 2.38z"/>
    <path fill="#52267D" d="M67.0195 130.7141c-.018.602.456 1.104 1.058 1.121.601.018 1.103-.456 1.121-1.058.017-.601-.456-1.103-1.058-1.121-.601-.017-1.103.456-1.121 1.058m32.4073 8.04c-.308-.076-.579-.256-.77-.509l-.351-.47.809.198.475.117c.184.045.295.229.25.413-.045.184-.229.296-.413.251m-41.8389-6.3203c.312-.058.593-.221.798-.463l.378-.448-.819.15-.481.089c-.186.034-.309.212-.274.398.034.185.212.308.398.274"/>
    <path fill="#EAF3FB" d="M68.4033 137.4436s4.007 1.847 8.145.387c-.499 2.387-.917 3.601-.917 3.601s-2.467.074-4.087-.296c-2.315-.526-3.202-1.611-3.141-3.692"/>
    <path fill="#FFF" d="M73.958 140.6857s-3.701.199-6.515-1.365"/>
    <path fill="#52267D" d="M73.5137 141.1945c-1.114 0-3.978-.138-6.313-1.437l.486-.874c2.649 1.473 6.206 1.301 6.245 1.303l.054.998c-.032.002-.2.01-.472.01"/>
    <path fill="#EAF3FB" d="M86.9707 142.6174s-3.628.918-6.784.19c.53 2.381.826 3.131.826 3.131s4.781-.496 5.958-3.321"/>
    <path fill="#F3E3FF" d="M84.0596 176.1262s-.223.15-.537.327"/>
    <path fill="#52267D" d="M83.6445 176.6711l-.244-.436c.301-.169.515-.314.519-.316l.28.414s-.23.155-.555.338"/>
    <path fill="#FFF" d="M87.2783 143.9885s-3.643.58-7.475.01"/>
    <path fill="#52267D" d="M83.4199 144.7512c-1.12 0-2.391-.065-3.689-.259l.146-.988c3.707.551 7.287-.004 7.323-.01l.158.988c-.102.016-1.727.269-3.938.269"/>
    <path fill="#FFF" d="M79.166 218.3332s-.937-.811-2.245.201c-1.195.924-2.116 2.379-1.597 2.543.519.165 1.435.336 2.406.188.846-.13 1.584.053 1.973-1.697.182-.815-.537-1.235-.537-1.235"/>
    <path fill="#52267D" d="M78.2363 218.2766c-.314 0-.71.105-1.162.455-1.056.816-1.718 1.904-1.647 2.138.237.053 1.178.315 2.265.148.116-.017.231-.03.343-.042.678-.072 1.126-.119 1.424-1.462.14-.63-.413-.962-.419-.965l-.036-.026c-.024-.018-.308-.246-.768-.246m-1.269 3.295c-.835 0-1.497-.186-1.719-.256-.167-.053-.282-.185-.313-.361-.111-.622.877-1.879 1.832-2.618 1.34-1.032 2.373-.336 2.539-.21.305.185.813.723.641 1.497-.376 1.692-1.13 1.772-1.859 1.849-.105.011-.211.023-.32.039-.277.042-.547.06-.801.06"/>
    <path fill="#EAF3FB" d="M78.9395 218.6125s-.584-.505-1.397.125c-.745.575-1.317 1.48-.995 1.583.324.102.893.209 1.498.116.526-.081.986.033 1.228-1.055.112-.508-.334-.769-.334-.769"/>
    <path fill="#FFF" d="M80.5303 218.3557c.51-.053 1.208 1.07 1.115 1.404-.094.334-.183 1.443-1.009 1.539-.607.072-2.772.233-3.23-.25-.422-.445.487-2.418 3.124-2.693"/>
    <path fill="#52267D" d="M80.5557 218.6047c-1.854.193-2.715 1.238-2.933 1.826-.096.263-.065.414-.035.446.294.311 1.942.3 3.02.174.483-.056.64-.622.749-1.147.017-.085.033-.157.049-.211.013-.109-.173-.541-.481-.859-.172-.178-.307-.246-.369-.229m-1.409 3.032c-.772 0-1.608-.085-1.922-.416-.195-.206-.221-.557-.07-.964.344-.931 1.513-1.958 3.349-2.15h.001c.346-.029.676.249.884.495.253.3.595.874.498 1.226-.014.046-.025.106-.04.177-.098.467-.299 1.439-1.181 1.542-.138.017-.801.09-1.519.09"/>
    <path fill="#EAF3FB" d="M80.6641 218.6652c.301-.031.713.632.657.829-.054.197-.108.851-.595.908-.358.042-1.636.137-1.906-.147-.249-.263.287-1.427 1.844-1.59"/>
    <path fill="#FFF" d="M82.6719 218.633s-.432-.241-1.314.229c-.781.417-1.946 1.084-1.67 1.965s2.709.627 3.253.459c.543-.169.899-.746.819-1.261-.175-1.126-1.088-1.392-1.088-1.392"/>
    <path fill="#52267D" d="M82.3379 218.8225c-.178 0-.464.048-.863.261-.877.468-1.747 1.034-1.549 1.67.189.601 2.305.49 2.94.294.413-.128.709-.579.647-.985-.147-.945-.881-1.18-.912-1.19l-.044-.018c-.009-.004-.081-.032-.219-.032m-.913 2.886c-.863 0-1.777-.172-1.976-.806-.349-1.117 1.096-1.89 1.79-2.261.884-.468 1.396-.301 1.526-.241.161.054 1.059.406 1.242 1.586.101.648-.345 1.337-.992 1.538-.233.072-.895.184-1.59.184"/>
    <path fill="#EAF3FB" d="M82.8271 218.9465s-.256-.143-.778.136c-.462.247-1.152.642-.989 1.164.163.521 1.604.371 1.926.271.322-.1.533-.441.486-.747-.104-.667-.645-.824-.645-.824"/>
    <path fill="#9452BA" d="M73.3496 190.5354s.33 5.63-1.355 14.415c-1.569 8.177-4 10.686-3.89 12.82.086 1.655.738 3.186 2.393 3.234l4.939.144c2.306.068 4.382-1.344 5.186-3.507.649-1.741 1.34-4.115 1.799-7.128.5-4.104.539-8.234.541-10.659"/>
    <path fill="#52267D" d="M75.5938 222.1506c-.062 0-.124-.001-.187-.002l-4.938-.144c-1.973-.058-3.229-1.621-3.363-4.182-.059-1.132.404-2.232 1.045-3.753.834-1.981 1.976-4.694 2.861-9.308 1.644-8.563 1.343-14.113 1.34-14.168l1.996-.117c.014.236.318 5.856-1.371 14.662-.925 4.82-2.163 7.761-2.983 9.707-.557 1.325-.925 2.199-.89 2.873.053 1.026.343 2.254 1.424 2.286l4.938.144c1.863.089 3.564-1.092 4.22-2.855.777-2.086 1.365-4.418 1.748-6.931.47-3.859.527-7.848.529-10.509l2 .002c-.002 2.713-.061 6.782-.549 10.778-.407 2.678-1.029 5.143-1.853 7.357-.934 2.508-3.316 4.16-5.967 4.16"/>
    <path fill="#9452BA" d="M98.5625 194.9895c-1.677 1.36-2.593 3.642-2.642 5.761-.065 2.829 1.471 6.477.293 11.148-1.048 4.16-2.915 4.845-2.468 8.617.08.682.674 1.187 1.36 1.207l5.503.162c2.533.073 4.755-1.7 5.242-4.187 1.301-6.64.64-12.962-.108-17.821"/>
    <path fill="#52267D" d="M100.7627 222.8859c-.061 0-.122-.001-.184-.002l-5.503-.161c-1.189-.036-2.188-.935-2.324-2.091-.303-2.565.358-3.901 1.123-5.449.458-.927.979-1.978 1.369-3.528.729-2.89.345-5.382.007-7.581-.182-1.182-.354-2.298-.33-3.347.06-2.559 1.213-5.055 3.012-6.514l1.26 1.553c-1.356 1.099-2.226 3.018-2.272 5.008-.02.872.131 1.856.307 2.997.348 2.267.783 5.091-.044 8.372-.443 1.759-1.038 2.961-1.516 3.927-.701 1.416-1.164 2.351-.929 4.329.02.175.195.318.397.324l5.502.161c2.061.084 3.837-1.362 4.231-3.379 1.279-6.523.61-12.766-.115-17.476l1.977-.305c.75 4.871 1.439 11.338.101 18.166-.572 2.921-3.108 4.996-6.069 4.996"/>
    <path fill="#52267D" d="M99.6553 202.2922l-1.852-.979 1.911-1.438.782.287-.172.469-.526-.193-1.065.8.906.48.548-.327-.348-.089-.237.16-.281-.414.424-.287 1.729.442"/>
    <path fill="#FFF" d="M69.1768 218.0412s-.938-.811-2.246.201c-1.194.924-2.115 2.38-1.597 2.544.519.164 1.435.336 2.407.187.845-.13 1.584.054 1.973-1.697.181-.815-.537-1.235-.537-1.235"/>
    <path fill="#52267D" d="M65.7383 220.3801c.4.098 1.127.223 1.927.099.121-.019.239-.032.355-.044.63-.067.947-.1 1.205-1.267.094-.425-.239-.656-.306-.698l-.063-.045c-.068-.056-.682-.511-1.62.213-.775.599-1.331 1.36-1.498 1.742m1.229 1.15c-.827 0-1.49-.174-1.784-.267-.256-.081-.436-.288-.484-.556-.147-.822 1.062-2.192 1.926-2.86 1.256-.971 2.386-.578 2.842-.214.384.243.933.857.735 1.752-.384 1.727-1.168 1.948-2.077 2.045-.101.011-.203.021-.308.037-.296.046-.581.063-.85.063"/>
    <path fill="#EAF3FB" d="M68.9492 218.3205s-.584-.505-1.397.125c-.744.575-1.317 1.48-.994 1.583.323.103.893.209 1.497.116.527-.081.987.034 1.228-1.055.113-.507-.334-.769-.334-.769"/>
    <path fill="#52267D" d="M77.4873 206.5637l-2.336-.239-.254-2.242 2.191-.614.134.483-1.78.498.16 1.418 1.686.173.677-.739-.832-.493-.521.135.356.419-.38.324-.872-1.028 1.493-.387 1.541.915"/>
    <g fill="#F3E3FF">
      <path d="M37.29 143.1496h-.018c-.177-.005-.34-.079-.462-.207-.122-.129-.185-.297-.18-.474l.25.008c-.007.227.172.416.399.423.225-.006.416-.173.422-.399l.25.007c-.011.358-.306.642-.661.642"/>
      <path d="M36.2188 143.1184h-.018c-.177-.005-.34-.079-.462-.207-.122-.129-.185-.297-.18-.474l.25.008c-.007.227.172.416.399.423h.011c.221 0 .404-.177.411-.399l.25.007c-.011.358-.306.642-.661.642"/>
      <path d="M36.7402 143.6691h-.021c-.175-.005-.339-.079-.46-.207-.122-.129-.185-.296-.18-.473l.25.008c-.003.11.036.213.111.293.075.08.177.126.287.129h.013c.104 0 .204-.039.281-.111.08-.076.126-.177.129-.287l.25.007c-.005.177-.079.34-.208.461-.123.117-.283.18-.452.18m20.9854-.8417c-.178 0-.352-.052-.504-.152l.139-.209c.305.205.719.119.921-.188.098-.147.132-.325.097-.499s-.136-.323-.284-.421l.137-.209c.204.135.344.341.392.58.049.24.001.484-.133.688-.136.204-.342.343-.581.391-.061.013-.122.019-.184.019"/>
      <path d="M57.9482 143.9211c-.174 0-.349-.049-.504-.151l.139-.209c.305.202.719.119.92-.188.098-.147.132-.325.097-.499s-.135-.324-.284-.422l.139-.209c.203.136.342.342.39.581.049.241.001.484-.133.688-.176.265-.467.409-.764.409m24.9532 18.248h-.025c-.225-.007-.435-.101-.589-.265-.155-.164-.237-.378-.23-.603l.25.008c-.005.158.053.308.161.423.11.117.257.182.415.187.148-.004.31-.053.424-.161.116-.11.182-.257.187-.415l.25.008c-.007.224-.101.433-.265.589-.157.148-.362.229-.578.229"/>
      <path d="M81.4648 162.1272h-.025c-.226-.007-.435-.101-.589-.265-.155-.164-.237-.378-.23-.603l.25.008c-.005.158.053.308.161.423.109.117.256.182.415.187.161-.002.309-.053.424-.161.116-.11.182-.257.187-.415l.25.008c-.007.224-.101.433-.265.589-.157.148-.362.229-.578.229"/>
      <path d="M82.1621 162.8664h-.025c-.465-.014-.832-.403-.819-.868l.25.008c-.01.327.249.6.576.61.149-.003.31-.053.424-.161.116-.11.182-.257.187-.415l.25.008c-.007.224-.101.433-.265.589-.157.148-.362.229-.578.229m-22.0449 44.1885h-.025c-.225-.007-.434-.101-.589-.265-.155-.164-.237-.378-.23-.603l.25.008c-.01.327.249.6.576.61h.018c.152 0 .296-.057.406-.161.116-.11.182-.257.187-.415l.25.008c-.007.224-.101.433-.265.589-.157.148-.362.229-.578.229"/>
      <path d="M58.6807 207.0129h-.025c-.225-.007-.435-.101-.589-.265-.155-.164-.237-.378-.23-.603l.25.008c-.005.158.053.308.161.423.11.117.257.182.415.187.164.003.309-.053.424-.161.116-.11.182-.257.187-.415l.25.008c-.007.224-.101.433-.265.589-.157.148-.362.229-.578.229"/>
      <path d="M59.3779 207.7522h-.025c-.225-.007-.435-.101-.589-.265-.155-.164-.237-.378-.23-.603l.25.008c-.005.158.053.308.161.423.11.117.257.182.415.187.152.002.31-.053.424-.161.116-.11.182-.257.187-.415l.25.008c-.007.224-.101.433-.265.589-.157.148-.362.229-.578.229m23.1494-68.4375h-.027c-.504-.015-.902-.437-.887-.941l.25.007c-.011.367.278.673.644.684h.02c.357 0 .653-.285.664-.645l.25.008c-.015.494-.422.887-.914.887"/>
      <path d="M81.7148 140.0813h-.027c-.244-.007-.471-.109-.638-.287-.168-.178-.256-.41-.249-.654l.25.007c-.005.177.059.346.181.476.122.129.286.203.463.208h.02c.357 0 .653-.285.664-.646l.25.008c-.015.495-.422.888-.914.888m-9.5127 13.0546h-.033c-.29-.009-.559-.129-.758-.34-.198-.211-.304-.486-.295-.776l.25.008c-.007.222.074.434.227.596.153.162.36.255.584.262h.025c.213 0 .415-.08.571-.228.162-.152.255-.359.261-.583l.25.008c-.008.289-.129.559-.339.758-.203.191-.466.295-.743.295"/>
      <path d="M71.2139 154.0666h-.032c-.597-.018-1.07-.518-1.053-1.115l.25.008c-.013.459.351.843.811.857h.025c.213 0 .415-.08.571-.227.162-.153.255-.36.262-.583l.25.008c-.018.587-.5 1.052-1.084 1.052m-12.5674-25.5107h-.021c-.423-.013-.757-.367-.745-.79l.25.008c-.004.137.046.269.141.37.095.1.223.158.361.162h.015c.277 0 .508-.222.517-.502l.25.008c-.013.415-.355.744-.768.744"/>
      <path d="M57.9883 129.1779h-.023c-.205-.006-.395-.091-.536-.24-.14-.149-.214-.344-.209-.549l.25.008c-.003.137.046.269.141.37.095.099.223.157.361.161.125.002.268-.045.37-.141.1-.094.158-.222.162-.36l.25.008c-.006.204-.092.394-.242.535-.142.135-.328.208-.524.208m59.0869 65.4356c-.033 0-.065-.002-.099-.006-.229-.025-.434-.14-.578-.319l.196-.156c.101.127.248.209.41.227.163.016.324-.028.452-.131.128-.101.209-.247.227-.41.019-.163-.028-.323-.13-.452l.195-.156c.144.18.21.407.183.636-.025.229-.139.434-.319.578-.154.124-.343.189-.537.189"/>
      <path d="M116.958 195.6506c-.255 0-.507-.111-.677-.324l.196-.156c.21.265.599.308.863.097.264-.212.307-.598.097-.863l.195-.156c.297.372.236.917-.136 1.215-.159.125-.35.187-.538.187m-28.7217-11.8389c-.127 0-.253-.024-.374-.074-.245-.1-.438-.289-.54-.532l.23-.098c.159.378.596.55.971.395.183-.077.325-.219.4-.403.075-.184.074-.386-.003-.567l.23-.098c.103.244.105.514.004.759-.1.246-.289.437-.533.54-.124.052-.254.078-.385.078"/>
      <path d="M86.6377 184.4856c-.126 0-.252-.024-.373-.074-.245-.1-.438-.289-.54-.533l.23-.098c.078.184.221.325.405.399.183.076.384.074.566-.004.183-.077.325-.219.399-.403.076-.183.075-.386-.002-.567l.23-.098c.103.244.105.514.004.759-.1.246-.289.437-.533.54-.124.053-.255.079-.386.079"/>
      <path d="M87.7764 184.9465c-.388 0-.757-.228-.917-.606l.23-.098c.16.377.598.554.972.396.377-.159.555-.595.396-.971l.23-.098c.104.244.105.514.005.76-.1.245-.289.436-.533.54-.125.053-.255.077-.383.077"/>
      <path d="M86.1777 185.6193c-.387 0-.756-.228-.916-.605l.23-.098c.161.377.598.553.972.395.183-.077.325-.219.4-.403.075-.184.073-.386-.004-.568l.23-.098c.104.244.105.515.005.76-.1.246-.289.437-.533.54-.125.053-.256.077-.384.077m2.7334-.2109c-.388 0-.757-.228-.916-.605l.23-.098c.159.376.594.553.972.395.377-.158.554-.594.396-.971l.23-.098c.212.505-.025 1.088-.528 1.3-.126.053-.256.077-.384.077M74.626 135.7453h-.029c-.551-.017-.987-.479-.971-1.029l.25.008c-.012.413.315.758.729.771.402.009.757-.313.77-.728l.25.008c-.017.541-.462.97-.999.97m-1.2686 33.0293h-.029c-.55-.017-.986-.479-.97-1.029l.25.008c-.012.413.314.758.728.771h.021c.403 0 .737-.321.75-.728l.25.008c-.017.541-.463.97-1 .97m10.2295-18.1406h-.024c-.21-.006-.406-.094-.55-.247-.144-.153-.22-.354-.214-.564l.25.008c-.004.143.048.28.146.384.099.105.232.165.375.169h.016c.29 0 .529-.23.538-.522l.25.007c-.006.21-.094.406-.247.55-.147.14-.339.215-.54.215m16.0459-14.7608h-.019c-.166-.005-.32-.074-.434-.195-.114-.121-.174-.28-.169-.446l.25.008c-.003.099.032.194.101.266.068.073.161.114.26.117h.011c.2 0 .365-.159.371-.361l.25.007c-.005.167-.074.321-.194.434-.116.11-.268.17-.427.17m2.3701 73.4297c-.488 0-.918-.359-.99-.857l.248-.036c.058.41.431.703.848.635.409-.058.694-.439.635-.848l.248-.036c.078.545-.302 1.053-.847 1.132-.047.007-.095.01-.142.01m-24.2461 5.9707h-.032c-.289-.008-.558-.128-.756-.339-.199-.211-.305-.486-.296-.776l.25.008c-.007.222.074.434.228.596.152.162.359.255.582.261h.024c.449 0 .82-.357.834-.81l.25.008c-.018.587-.5 1.052-1.084 1.052"/>
      <path d="M76.7715 216.2053h-.033c-.29-.009-.559-.13-.758-.34-.198-.211-.304-.486-.295-.776l.25.008c-.007.222.074.434.227.596.153.162.36.255.584.262h.025c.213 0 .415-.08.571-.228.162-.152.255-.359.261-.583l.25.008c-.008.289-.129.559-.339.758-.203.191-.466.295-.743.295"/>
    </g>
    <path fill="#FFF" d="M70.54 218.0647c.51-.054 1.209 1.07 1.115 1.403-.093.334-.183 1.443-1.008 1.539-.608.072-2.773.233-3.23-.25-.422-.445.486-2.418 3.123-2.692"/>
    <path fill="#52267D" d="M70.5654 218.5647c-1.535.168-2.246.941-2.481 1.269-.234.323-.28.578-.264.644.192.124 1.561.174 2.768.032.319-.037.443-.51.535-.952.018-.09.034-.166.05-.223-.029-.141-.406-.695-.608-.77m-1.394 3.033c-.838 0-1.744-.102-2.118-.497-.262-.277-.307-.724-.123-1.223.345-.931 1.483-2.094 3.558-2.31.352-.034.748.162 1.102.583.266.315.68.976.546 1.453-.01.039-.021.093-.035.156-.099.485-.334 1.619-1.395 1.744-.298.035-.898.094-1.535.094"/>
    <path fill="#EAF3FB" d="M70.6738 218.3742c.301-.031.713.631.658.828-.055.197-.108.851-.595.908-.359.042-1.636.138-1.907-.147-.248-.263.288-1.427 1.844-1.589"/>
    <path fill="#FFF" d="M72.3281 218.6594s-.382-.214-1.162.203c-.691.368-1.721.959-1.477 1.737.244.78 2.396.555 2.877.406.481-.149.795-.659.724-1.116-.154-.996-.962-1.23-.962-1.23"/>
    <path fill="#52267D" d="M72.0322 219.1047c-.107 0-.315.03-.631.199-.338.18-1.366.729-1.234 1.147.177.266 1.694.25 2.251.077.255-.078.409-.361.378-.561-.103-.663-.603-.826-.608-.827l-.075-.028c-.014-.002-.04-.007-.081-.007m-.81 2.548c-.851 0-1.784-.182-2.01-.903-.379-1.209 1.091-1.994 1.718-2.329.845-.449 1.38-.311 1.576-.23.42.138 1.123.619 1.278 1.623.111.716-.358 1.449-1.07 1.669-.159.05-.798.17-1.492.17"/>
    <path fill="#EAF3FB" d="M72.4658 218.9367s-.227-.127-.688.12c-.409.218-1.019.567-.874 1.029.144.461 1.417.329 1.703.241.285-.089.47-.391.428-.661-.09-.59-.569-.729-.569-.729"/>
    <path fill="#FFF" d="M52.0518 218.2815s-.382-.214-1.162.203c-.69.368-1.721.959-1.477 1.737.244.78 2.396.555 2.877.406.481-.149.795-.659.725-1.116-.155-.996-.963-1.23-.963-1.23"/>
    <path fill="#52267D" d="M51.7559 218.7268c-.107 0-.315.03-.631.199-.338.18-1.365.73-1.234 1.147.177.265 1.693.25 2.251.077.255-.078.41-.361.379-.562-.104-.662-.604-.825-.609-.826l-.075-.028c-.014-.002-.04-.007-.081-.007m-.81 2.548c-.851 0-1.784-.182-2.01-.903-.379-1.208 1.091-1.993 1.718-2.329.841-.448 1.379-.312 1.576-.23.419.138 1.123.619 1.279 1.622.11.717-.36 1.45-1.071 1.67-.159.05-.798.17-1.492.17"/>
    <path fill="#EAF3FB" d="M52.1895 218.5588s-.226-.127-.688.12c-.409.218-1.019.567-.874 1.029.144.461 1.418.329 1.703.24.285-.088.471-.39.429-.66-.091-.59-.57-.729-.57-.729"/>
    <path fill="#FFF" d="M54.4121 217.8068c.51-.053 1.208 1.071 1.115 1.404-.094.334-.183 1.443-1.009 1.539-.607.072-2.772.233-3.23-.25-.422-.445.487-2.418 3.124-2.693"/>
    <path fill="#52267D" d="M54.4375 218.3068c-1.536.169-2.247.943-2.482 1.27-.233.323-.279.578-.264.644.191.123 1.559.175 2.768.032.319-.037.443-.509.535-.949.018-.092.035-.17.051-.227-.029-.14-.407-.695-.608-.77m-1.395 3.034c-.838 0-1.743-.102-2.117-.496-.263-.278-.308-.724-.124-1.224.344-.93 1.483-2.094 3.559-2.311.37-.035.747.163 1.1.582.267.315.681.976.548 1.453-.011.042-.022.098-.036.162-.099.484-.335 1.615-1.395 1.74-.299.035-.898.094-1.535.094"/>
    <path fill="#EAF3FB" d="M54.5459 218.1174c.301-.032.713.631.657.828-.054.197-.108.851-.595.908-.358.042-1.635.137-1.906-.147-.249-.263.287-1.427 1.844-1.589"/>
    <path fill="#FFF" d="M95.8945 218.8215s-.937-.811-2.245.201c-1.195.924-2.116 2.379-1.597 2.544.519.164 1.435.335 2.406.187.846-.13 1.584.053 1.973-1.697.182-.815-.537-1.235-.537-1.235"/>
    <path fill="#52267D" d="M94.9648 218.7649c-.314 0-.71.105-1.162.455-1.057.817-1.718 1.905-1.647 2.139.237.053 1.188.311 2.265.147.116-.017.231-.03.343-.042.678-.072 1.126-.119 1.424-1.462.14-.63-.413-.962-.419-.965l-.036-.026c-.024-.018-.308-.246-.768-.246m-1.268 3.295c-.834 0-1.497-.185-1.719-.255-.168-.054-.283-.186-.315-.362-.109-.623.878-1.879 1.833-2.618 1.339-1.033 2.374-.335 2.539-.21.305.185.813.723.641 1.497-.376 1.692-1.13 1.772-1.859 1.849-.105.011-.211.023-.32.039-.277.042-.547.06-.8.06"/>
    <path fill="#EAF3FB" d="M95.668 219.1008s-.584-.505-1.397.125c-.745.575-1.317 1.48-.995 1.583.324.102.893.209 1.498.116.526-.081.986.033 1.228-1.055.112-.508-.334-.769-.334-.769"/>
    <path fill="#FFF" d="M97.2588 218.844c.51-.053 1.208 1.071 1.115 1.404-.094.334-.183 1.443-1.009 1.539-.607.072-2.772.233-3.23-.25-.422-.445.487-2.418 3.124-2.693"/>
    <path fill="#52267D" d="M97.2842 219.093c-1.854.193-2.715 1.238-2.933 1.826-.096.263-.065.414-.035.446.293.311 1.943.3 3.02.174.483-.056.64-.622.749-1.147.017-.085.033-.157.049-.211.013-.109-.174-.542-.482-.859-.173-.177-.286-.245-.368-.229m-1.409 3.032c-.772 0-1.608-.085-1.922-.416-.195-.206-.221-.557-.07-.964.344-.931 1.513-1.958 3.349-2.15h.001c.345-.033.677.249.884.495.254.301.596.875.498 1.226-.014.046-.025.106-.04.177-.098.467-.299 1.439-1.181 1.542-.138.017-.801.09-1.519.09"/>
    <path fill="#EAF3FB" d="M97.3926 219.1545c.301-.032.713.631.657.828-.054.197-.108.851-.595.908-.358.042-1.636.137-1.906-.147-.249-.263.287-1.427 1.844-1.589"/>
    <path fill="#FFF" d="M99.0459 219.4397s-.382-.214-1.162.203c-.69.368-1.72.959-1.477 1.737.244.78 2.396.555 2.877.406.482-.149.796-.659.725-1.116-.154-.996-.963-1.23-.963-1.23"/>
    <path fill="#52267D" d="M98.75 219.6359c-.151 0-.399.041-.748.228-.766.408-1.525.899-1.356 1.442.16.51 2.025.408 2.564.241.353-.109.605-.493.552-.838-.127-.818-.761-1.021-.787-1.03l-.044-.018c-.008-.003-.068-.025-.181-.025m-.801 2.551c-.775 0-1.599-.156-1.78-.732-.316-1.011.977-1.701 1.597-2.033.785-.42 1.248-.272 1.373-.215.15.051.954.369 1.117 1.425.092.587-.312 1.211-.899 1.393-.206.063-.791.162-1.408.162"/>
    <path fill="#EAF3FB" d="M99.1836 219.717s-.226-.127-.687.12c-.41.218-1.019.567-.875 1.029.144.461 1.418.329 1.704.24.284-.088.47-.39.428-.66-.091-.59-.57-.729-.57-.729"/>
    <path fill="#FFF" d="M61.0645 218.4768c.163-.13.354-.161.509-.083.574.292 2.024 1.117 1.689 2.166-.261.817-.758.555-1.72.545l-.727-.008c-.149-.002-.281-.083-.359-.224-.398-.709-.14-1.8.557-2.355l.051-.041z"/>
    <path fill="#52267D" d="M61.5479 220.6047c.216.002.41.017.584.029.574.042.57.041.654-.226.21-.657-1.009-1.348-1.421-1.559l.014.017-.051.041c-.509.404-.715 1.224-.435 1.722l.655-.024zm.91 1.046c-.136 0-.27-.01-.399-.02-.156-.011-.328-.024-.522-.026l-.727-.008c-.33-.004-.626-.183-.791-.48-.513-.917-.2-2.287.683-2.991l.363.351-.312-.392c.315-.249.715-.305 1.045-.137 2.114 1.074 2.124 2.193 1.941 2.764-.255.802-.776.939-1.281.939z"/>
    <path fill="#EAF3FB" d="M61.1328 218.716c.118-.095.257-.117.369-.061.418.212 1.472.812 1.229 1.575-.191.593-.551.403-1.251.395l-.528-.006c-.109-.001-.204-.059-.261-.162-.289-.515-.102-1.308.405-1.712l.037-.029z"/>
    <path fill="#FFF" d="M57.666 218.0608s-.866-.888-2.255.01c-1.268.819-2.309 2.191-1.807 2.398.503.208 1.401.457 2.382.391.854-.058 1.575.188 2.111-1.523.249-.797-.431-1.276-.431-1.276"/>
    <path fill="#52267D" d="M54.042 220.0988c.389.132 1.109.32 1.91.262.122-.008.241-.011.358-.013.634-.014.953-.02 1.309-1.16.139-.443-.237-.716-.241-.719l-.065-.055c-.072-.065-.649-.557-1.63.077-.824.532-1.442 1.242-1.641 1.608m1.611 1.271c-1.052 0-1.901-.298-2.24-.439-.247-.102-.409-.324-.434-.595-.077-.83 1.245-2.093 2.161-2.685 1.335-.863 2.426-.373 2.851.028.362.274.856.934.583 1.808-.529 1.688-1.33 1.841-2.244 1.86-.1.003-.204.005-.31.012-.124.008-.248.011-.367.011"/>
    <path fill="#EAF3FB" d="M57.416 218.3195s-.539-.553-1.403.006c-.789.51-1.438 1.363-1.124 1.493.312.129.871.283 1.482.242.53-.035.979.118 1.313-.947.155-.496-.268-.794-.268-.794"/>
    <path fill="#9ACDED" d="M111.71 81.26c-9.479-16.646-60.318-49.988-60.831-50.323l1.094-1.674c2.109 1.378 51.758 33.944 61.475 51.007l-1.738.99z"/>
    <path fill="#FFF" d="M165.6621 221.2385h-97.185c-1.104 0-2-.896-2-2v-106.57c0-2.673 1.07-5.235 2.971-7.114l43.254-42.748c2.421-2.391 6.314-2.391 8.734 0l43.255 42.748c1.902 1.879 2.971 4.441 2.971 7.114v106.57c0 1.104-.896 2-2 2"/>
    <path fill="#375D81" d="M117.0693 62.0207c-1.327 0-2.653.499-3.664 1.497l-43.254 42.748c-1.699 1.68-2.674 4.013-2.674 6.402v106.571c0 .552.448 1 1 1h97.185c.552 0 1-.448 1-1v-106.571c0-2.389-.975-4.722-2.674-6.402l-43.255-42.748c-1.01-.998-2.337-1.497-3.664-1.497m48.593 160.218h-97.185c-1.654 0-3-1.346-3-3v-106.571c0-2.92 1.192-5.772 3.268-7.824l43.254-42.748c2.798-2.763 7.346-2.762 10.14 0l43.255 42.748c2.076 2.052 3.268 4.904 3.268 7.824v106.571c0 1.654-1.346 3-3 3"/>
    <path fill="#EFEFF6" d="M139.54 143.7287c0 13.659-11.073 24.732-24.732 24.732-13.66 0-24.733-11.073-24.733-24.732 0-13.659 11.073-24.732 24.733-24.732 13.659 0 24.732 11.073 24.732 24.732"/>
    <path fill="#FFF" d="M142.54 138.7287c0 13.659-11.073 24.732-24.732 24.732-13.66 0-24.733-11.073-24.733-24.732 0-13.659 11.073-24.732 24.733-24.732 13.659 0 24.732 11.073 24.732 24.732"/>
    <path fill="#375D81" d="M117.8076 114.9963c-13.086 0-23.732 10.646-23.732 23.732 0 13.086 10.646 23.733 23.732 23.733 13.086 0 23.732-10.647 23.732-23.733s-10.646-23.732-23.732-23.732m0 49.465c-14.188 0-25.732-11.544-25.732-25.733 0-14.188 11.544-25.732 25.732-25.732 14.188 0 25.732 11.544 25.732 25.732 0 14.189-11.544 25.733-25.732 25.733"/>
    <path fill="#9452BA" d="M123.9551 150.926c.104.309.195.519.223.589.008.007-.008-.004 0 0 0 0 0 .002 0 0 .001.001-.001 0-.001 0-.699-6.741 3.124-9.55 4.352-14.027.006-.066.019-.138.039-.22.026-.1.046-.203.062-.307.182-1.239-.325-2.681-1.286-4.182-.004-.009-.011-.016-.016-.024-.078-.125-.163-.25-.248-.375 0 0-.003-.002-.004-.005-.157-.227-.326-.458-.503-.689-.017-.023-.035-.048-.054-.072-.049-.062-.101-.125-.149-.188-.052-.065-.102-.131-.153-.193-.054-.065-.106-.127-.158-.189-.055-.066-.109-.13-.165-.195-.037-.045-.078-.09-.118-.137-1.51-1.739-3.476-3.458-5.528-4.953 0 0-.016-.023 0 0 .271 2.536.307 5.072.066 7.101-.29 2.445-1.165 5.292-2.379 7.872-2.841-.233-5.747-.891-8.011-1.858-1.895-.809-4.064-2.085-6.138-3.598.023.21.048.419.072.629.008.062.017.125.025.187.019.15.038.299.061.449.009.07.019.139.03.207.022.152.044.3.069.449.01.061.019.122.029.183.031.19.063.377.098.565.002.019.005.038.009.055.039.218.08.435.124.651.001.016.006.031.009.048.039.195.08.385.122.578.007.04.016.078.024.117.039.175.08.348.121.522.01.033.018.067.025.103.05.2.098.399.151.595.001.001.001.003.001.003.168.633.352 1.245.552 1.83.001.008.004.014.005.022.338.978.722 1.881 1.151 2.67.063.114.128.227.192.337.003.004.003.009.006.013h.001c.059.1.118.199.178.293l.002.001s.005.008.007.011c.064.104.129.204.198.3v.001c.009.014.017.024.027.038.002.001 0 .003.001.004.087.125.176.245.264.361.016.019.031.037.046.056.004.007.009.013.015.021.103.129.207.254.316.371.074.084.151.161.227.238.033.032.068.061.1.093.048.045.097.087.145.131.037.033.074.06.112.091.046.039.094.075.141.113.037.028.075.054.114.081.048.035.096.068.146.101.037.023.076.047.114.07.052.031.106.059.157.089.037.02.074.038.109.057.06.028.12.054.182.08.028.011.059.027.09.038.093.037.186.069.28.095.062.018.116.038.167.057 4.501 1.189 8.882-.695 14.377 3.235"/>
    <path fill="#375D81" d="M144.9111 186.6389h-55.684c-.552 0-1-.447-1-1 0-.553.448-1 1-1h55.684c.553 0 1 .447 1 1 0 .553-.447 1-1 1m0 14.7051h-55.684c-.552 0-1-.447-1-1 0-.553.448-1 1-1h55.684c.553 0 1 .447 1 1 0 .553-.447 1-1 1"/>
    <path fill="#FFF" d="M125.0693 87.383c0 4.418-3.581 8-8 8-4.418 0-8-3.582-8-8s3.582-8 8-8c4.419 0 8 3.582 8 8"/>
    <path fill="#375D81" d="M117.0693 80.383c-3.859 0-7 3.141-7 7s3.141 7 7 7 7-3.141 7-7-3.141-7-7-7m0 16c-4.963 0-9-4.037-9-9s4.037-9 9-9 9 4.037 9 9-4.037 9-9 9"/>
    <g transform="translate(56 24.467)">
      <mask id="d" fill="#fff">
        <use xlink:href="#c"/>
      </mask>
      <path fill="#9ACDED" d="M50.3613 68.2617c-.337 0-.675-.023-1.013-.071-6.193-.865-11.356-9.617-17.892-20.7-1.991-3.374-4.05-6.864-6.299-10.41-5.159-8.133-10.616-13.728-15.431-18.665-1.601-1.642-3.114-3.193-4.528-4.747C2.2133 10.3897.1213 1.3627.0343.9797l1.949-.447c.021.089 2.061 8.898 4.693 11.791 1.392 1.527 2.893 3.066 4.482 4.696 4.883 5.006 10.417 10.68 15.688 18.991 2.267 3.572 4.333 7.076 6.332 10.465 6.015 10.196 11.209 19.003 16.447 19.734 1.969.276 3.964-.586 6.111-2.629 1.14-1.084 1.893-4.246.652-5.57l1.461-1.367c2.101 2.246 1.059 6.681-.734 8.387-2.279 2.167-4.499 3.231-6.754 3.231" mask="url(#d)"/>
    </g>
    <path fill="#9ACDED" d="M60.7891 40.2541c.734.593 2.924.3 4.577-.203.247-1.623.035-2.451-.248-2.671-.235-.186-.82-.1-1.489.215-1.452.687-2.69 2.096-2.84 2.659m1.495 2.338c-1.203 0-2.375-.275-3.109-1.127-.377-.438-.83-1.416.378-3.047 1.333-1.8 4.265-3.811 6.294-2.915 1.503.664 1.968 2.515 1.382 5.502l-.109.556-.532.192c-.551.199-2.465.839-4.304.839"/>
  </g>
</svg>
