<svg width="194" height="446" viewBox="0 0 194 446" fill="none" xmlns="http://www.w3.org/2000/svg">
    <rect width="194" height="446" fill="white"/>
    <g filter="url(#filter0_d_45_1133)">
        <rect x="20" y="388" width="154" height="38" rx="5" fill="white"/>
        <path d="M65.6285 403.475V406.932H69.851V408.35H65.6285V412.857H63.866V402.057H70.601V403.475H65.6285ZM75.0949 409.512C74.5199 409.532 74.0349 409.58 73.6399 409.655C73.2449 409.725 72.9249 409.817 72.6799 409.932C72.4349 410.042 72.2574 410.175 72.1474 410.33C72.0424 410.485 71.9899 410.655 71.9899 410.84C71.9899 411.02 72.0174 411.175 72.0724 411.305C72.1324 411.43 72.2124 411.535 72.3124 411.62C72.4174 411.7 72.5374 411.76 72.6724 411.8C72.8124 411.835 72.9649 411.852 73.1299 411.852C73.5499 411.852 73.9099 411.775 74.2099 411.62C74.5149 411.46 74.8099 411.23 75.0949 410.93V409.512ZM70.8199 406.272C71.6849 405.467 72.7149 405.065 73.9099 405.065C74.3499 405.065 74.7399 405.137 75.0799 405.282C75.4249 405.422 75.7124 405.622 75.9424 405.882C76.1774 406.142 76.3549 406.452 76.4749 406.812C76.5999 407.167 76.6624 407.562 76.6624 407.997V412.857H75.9424C75.7874 412.857 75.6699 412.835 75.5899 412.79C75.5099 412.74 75.4424 412.642 75.3874 412.497L75.2299 411.875C75.0349 412.05 74.8424 412.207 74.6524 412.347C74.4624 412.482 74.2649 412.597 74.0599 412.692C73.8599 412.787 73.6424 412.857 73.4074 412.902C73.1774 412.952 72.9224 412.977 72.6424 412.977C72.3324 412.977 72.0424 412.935 71.7724 412.85C71.5074 412.765 71.2774 412.637 71.0824 412.467C70.8874 412.292 70.7324 412.077 70.6174 411.822C70.5074 411.567 70.4524 411.267 70.4524 410.922C70.4524 410.627 70.5299 410.34 70.6849 410.06C70.8449 409.78 71.1049 409.53 71.4649 409.31C71.8299 409.085 72.3074 408.9 72.8974 408.755C73.4924 408.61 74.2249 408.527 75.0949 408.507V407.997C75.0949 407.447 74.9774 407.037 74.7424 406.767C74.5074 406.497 74.1624 406.362 73.7074 406.362C73.3974 406.362 73.1374 406.402 72.9274 406.482C72.7174 406.557 72.5349 406.64 72.3799 406.73C72.2249 406.82 72.0874 406.905 71.9674 406.985C71.8474 407.06 71.7199 407.097 71.5849 407.097C71.4749 407.097 71.3799 407.07 71.2999 407.015C71.2249 406.955 71.1624 406.882 71.1124 406.797L70.8199 406.272ZM78.5513 412.857V405.207H79.5263C79.7463 405.207 79.8863 405.31 79.9463 405.515L80.0513 406.182C80.1913 406.022 80.3363 405.877 80.4863 405.747C80.6363 405.612 80.7963 405.497 80.9663 405.402C81.1413 405.302 81.3263 405.225 81.5213 405.17C81.7213 405.115 81.9363 405.087 82.1663 405.087C82.4113 405.087 82.6363 405.122 82.8413 405.192C83.0463 405.262 83.2263 405.362 83.3813 405.492C83.5413 405.622 83.6788 405.78 83.7938 405.965C83.9088 406.15 84.0038 406.357 84.0788 406.587C84.1938 406.322 84.3388 406.095 84.5138 405.905C84.6888 405.715 84.8838 405.56 85.0988 405.44C85.3138 405.32 85.5413 405.232 85.7813 405.177C86.0263 405.117 86.2738 405.087 86.5238 405.087C86.9338 405.087 87.2988 405.152 87.6188 405.282C87.9438 405.412 88.2163 405.602 88.4363 405.852C88.6613 406.097 88.8313 406.4 88.9463 406.76C89.0613 407.12 89.1188 407.53 89.1188 407.99V412.857H87.5063V407.99C87.5063 407.45 87.3888 407.045 87.1538 406.775C86.9238 406.5 86.5813 406.362 86.1263 406.362C85.9213 406.362 85.7288 406.397 85.5488 406.467C85.3688 406.537 85.2113 406.64 85.0763 406.775C84.9413 406.91 84.8338 407.08 84.7538 407.285C84.6788 407.485 84.6413 407.72 84.6413 407.99V412.857H83.0288V407.99C83.0288 407.43 82.9163 407.02 82.6913 406.76C82.4663 406.495 82.1363 406.362 81.7013 406.362C81.4013 406.362 81.1238 406.44 80.8688 406.595C80.6138 406.745 80.3788 406.952 80.1638 407.217V412.857H78.5513ZM92.6825 405.207V412.857H91.07V405.207H92.6825ZM92.9525 402.897C92.9525 403.042 92.9225 403.18 92.8625 403.31C92.8075 403.44 92.73 403.555 92.63 403.655C92.53 403.75 92.4125 403.827 92.2775 403.887C92.1475 403.942 92.0075 403.97 91.8575 403.97C91.7125 403.97 91.575 403.942 91.445 403.887C91.32 403.827 91.21 403.75 91.115 403.655C91.02 403.555 90.9425 403.44 90.8825 403.31C90.8275 403.18 90.8 403.042 90.8 402.897C90.8 402.747 90.8275 402.607 90.8825 402.477C90.9425 402.347 91.02 402.235 91.115 402.14C91.21 402.04 91.32 401.962 91.445 401.907C91.575 401.847 91.7125 401.817 91.8575 401.817C92.0075 401.817 92.1475 401.847 92.2775 401.907C92.4125 401.962 92.53 402.04 92.63 402.14C92.73 402.235 92.8075 402.347 92.8625 402.477C92.9225 402.607 92.9525 402.747 92.9525 402.897ZM96.3511 401.757V412.857H94.7386V401.757H96.3511ZM99.9839 401.757V412.857H98.3714V401.757H99.9839ZM108.762 405.207L104.547 415.032C104.492 415.147 104.424 415.237 104.344 415.302C104.269 415.367 104.152 415.4 103.992 415.4H102.799L104.209 412.34L101.089 405.207H102.492C102.627 405.207 102.729 405.24 102.799 405.305C102.874 405.365 102.929 405.437 102.964 405.522L104.787 409.865C104.832 409.99 104.872 410.115 104.907 410.24C104.947 410.36 104.984 410.485 105.019 410.615C105.059 410.485 105.099 410.357 105.139 410.232C105.179 410.107 105.224 409.982 105.274 409.857L107.022 405.522C107.057 405.432 107.114 405.357 107.194 405.297C107.279 405.237 107.372 405.207 107.472 405.207H108.762ZM119.549 405.207L116.474 412.857H115.019L111.944 405.207H113.272C113.397 405.207 113.499 405.24 113.579 405.305C113.664 405.365 113.719 405.437 113.744 405.522L115.439 409.977C115.509 410.187 115.572 410.395 115.627 410.6C115.682 410.805 115.729 411.012 115.769 411.222C115.809 411.012 115.857 410.807 115.912 410.607C115.972 410.402 116.037 410.192 116.107 409.977L117.832 405.522C117.862 405.432 117.917 405.357 117.997 405.297C118.077 405.237 118.174 405.207 118.289 405.207H119.549ZM124.563 409.512C123.988 409.532 123.503 409.58 123.108 409.655C122.713 409.725 122.393 409.817 122.148 409.932C121.903 410.042 121.725 410.175 121.615 410.33C121.51 410.485 121.458 410.655 121.458 410.84C121.458 411.02 121.485 411.175 121.54 411.305C121.6 411.43 121.68 411.535 121.78 411.62C121.885 411.7 122.005 411.76 122.14 411.8C122.28 411.835 122.433 411.852 122.598 411.852C123.018 411.852 123.378 411.775 123.678 411.62C123.983 411.46 124.278 411.23 124.563 410.93V409.512ZM120.288 406.272C121.153 405.467 122.183 405.065 123.378 405.065C123.818 405.065 124.208 405.137 124.548 405.282C124.893 405.422 125.18 405.622 125.41 405.882C125.645 406.142 125.823 406.452 125.943 406.812C126.068 407.167 126.13 407.562 126.13 407.997V412.857H125.41C125.255 412.857 125.138 412.835 125.058 412.79C124.978 412.74 124.91 412.642 124.855 412.497L124.698 411.875C124.503 412.05 124.31 412.207 124.12 412.347C123.93 412.482 123.733 412.597 123.528 412.692C123.328 412.787 123.11 412.857 122.875 412.902C122.645 412.952 122.39 412.977 122.11 412.977C121.8 412.977 121.51 412.935 121.24 412.85C120.975 412.765 120.745 412.637 120.55 412.467C120.355 412.292 120.2 412.077 120.085 411.822C119.975 411.567 119.92 411.267 119.92 410.922C119.92 410.627 119.998 410.34 120.153 410.06C120.313 409.78 120.573 409.53 120.933 409.31C121.298 409.085 121.775 408.9 122.365 408.755C122.96 408.61 123.693 408.527 124.563 408.507V407.997C124.563 407.447 124.445 407.037 124.21 406.767C123.975 406.497 123.63 406.362 123.175 406.362C122.865 406.362 122.605 406.402 122.395 406.482C122.185 406.557 122.003 406.64 121.848 406.73C121.693 406.82 121.555 406.905 121.435 406.985C121.315 407.06 121.188 407.097 121.053 407.097C120.943 407.097 120.848 407.07 120.768 407.015C120.693 406.955 120.63 406.882 120.58 406.797L120.288 406.272ZM129.542 406.625C129.782 406.14 130.072 405.76 130.412 405.485C130.752 405.205 131.159 405.065 131.634 405.065C131.799 405.065 131.954 405.085 132.099 405.125C132.244 405.16 132.374 405.215 132.489 405.29L132.377 406.505C132.357 406.59 132.324 406.65 132.279 406.685C132.239 406.715 132.184 406.73 132.114 406.73C132.039 406.73 131.932 406.717 131.792 406.692C131.652 406.662 131.504 406.647 131.349 406.647C131.124 406.647 130.924 406.68 130.749 406.745C130.579 406.81 130.424 406.905 130.284 407.03C130.149 407.155 130.029 407.307 129.924 407.487C129.819 407.667 129.722 407.872 129.632 408.102V412.857H128.019V405.207H128.957C129.127 405.207 129.244 405.24 129.309 405.305C129.374 405.365 129.419 405.472 129.444 405.627L129.542 406.625ZM135.236 405.207V412.857H133.624V405.207H135.236ZM135.506 402.897C135.506 403.042 135.476 403.18 135.416 403.31C135.361 403.44 135.284 403.555 135.184 403.655C135.084 403.75 134.966 403.827 134.831 403.887C134.701 403.942 134.561 403.97 134.411 403.97C134.266 403.97 134.129 403.942 133.999 403.887C133.874 403.827 133.764 403.75 133.669 403.655C133.574 403.555 133.496 403.44 133.436 403.31C133.381 403.18 133.354 403.042 133.354 402.897C133.354 402.747 133.381 402.607 133.436 402.477C133.496 402.347 133.574 402.235 133.669 402.14C133.764 402.04 133.874 401.962 133.999 401.907C134.129 401.847 134.266 401.817 134.411 401.817C134.561 401.817 134.701 401.847 134.831 401.907C134.966 401.962 135.084 402.04 135.184 402.14C135.284 402.235 135.361 402.347 135.416 402.477C135.476 402.607 135.506 402.747 135.506 402.897ZM141.35 409.512C140.775 409.532 140.29 409.58 139.895 409.655C139.5 409.725 139.18 409.817 138.935 409.932C138.69 410.042 138.512 410.175 138.402 410.33C138.297 410.485 138.245 410.655 138.245 410.84C138.245 411.02 138.272 411.175 138.327 411.305C138.387 411.43 138.467 411.535 138.567 411.62C138.672 411.7 138.792 411.76 138.927 411.8C139.067 411.835 139.22 411.852 139.385 411.852C139.805 411.852 140.165 411.775 140.465 411.62C140.77 411.46 141.065 411.23 141.35 410.93V409.512ZM137.075 406.272C137.94 405.467 138.97 405.065 140.165 405.065C140.605 405.065 140.995 405.137 141.335 405.282C141.68 405.422 141.967 405.622 142.197 405.882C142.432 406.142 142.61 406.452 142.73 406.812C142.855 407.167 142.917 407.562 142.917 407.997V412.857H142.197C142.042 412.857 141.925 412.835 141.845 412.79C141.765 412.74 141.697 412.642 141.642 412.497L141.485 411.875C141.29 412.05 141.097 412.207 140.907 412.347C140.717 412.482 140.52 412.597 140.315 412.692C140.115 412.787 139.897 412.857 139.662 412.902C139.432 412.952 139.177 412.977 138.897 412.977C138.587 412.977 138.297 412.935 138.027 412.85C137.762 412.765 137.532 412.637 137.337 412.467C137.142 412.292 136.987 412.077 136.872 411.822C136.762 411.567 136.707 411.267 136.707 410.922C136.707 410.627 136.785 410.34 136.94 410.06C137.1 409.78 137.36 409.53 137.72 409.31C138.085 409.085 138.562 408.9 139.152 408.755C139.747 408.61 140.48 408.527 141.35 408.507V407.997C141.35 407.447 141.232 407.037 140.997 406.767C140.762 406.497 140.417 406.362 139.962 406.362C139.652 406.362 139.392 406.402 139.182 406.482C138.972 406.557 138.79 406.64 138.635 406.73C138.48 406.82 138.342 406.905 138.222 406.985C138.102 407.06 137.975 407.097 137.84 407.097C137.73 407.097 137.635 407.07 137.555 407.015C137.48 406.955 137.417 406.882 137.367 406.797L137.075 406.272ZM146.314 406.22C146.479 406.05 146.649 405.897 146.824 405.762C147.004 405.622 147.194 405.502 147.394 405.402C147.594 405.302 147.806 405.225 148.031 405.17C148.256 405.115 148.501 405.087 148.766 405.087C149.186 405.087 149.554 405.157 149.869 405.297C150.189 405.437 150.456 405.635 150.671 405.89C150.891 406.145 151.056 406.452 151.166 406.812C151.276 407.167 151.331 407.56 151.331 407.99V412.857H149.726V407.99C149.726 407.475 149.606 407.075 149.366 406.79C149.131 406.505 148.771 406.362 148.286 406.362C147.926 406.362 147.591 406.445 147.281 406.61C146.976 406.775 146.689 407 146.419 407.285V412.857H144.806V405.207H145.781C146.001 405.207 146.141 405.31 146.201 405.515L146.314 406.22ZM155.564 412.977C154.929 412.977 154.439 412.8 154.094 412.445C153.754 412.085 153.584 411.58 153.584 410.93V406.475H152.744C152.654 406.475 152.577 406.447 152.512 406.392C152.447 406.332 152.414 406.245 152.414 406.13V405.477L153.652 405.297L154.004 403.085C154.029 403 154.072 402.932 154.132 402.882C154.192 402.827 154.272 402.8 154.372 402.8H155.197V405.312H157.319V406.475H155.197V410.817C155.197 411.092 155.264 411.302 155.399 411.447C155.534 411.592 155.714 411.665 155.939 411.665C156.064 411.665 156.172 411.65 156.262 411.62C156.352 411.585 156.429 411.55 156.494 411.515C156.559 411.475 156.614 411.44 156.659 411.41C156.709 411.375 156.757 411.357 156.802 411.357C156.892 411.357 156.964 411.407 157.019 411.507L157.499 412.295C157.249 412.515 156.954 412.685 156.614 412.805C156.274 412.92 155.924 412.977 155.564 412.977Z" fill="#3B438C"/>
        <path fill-rule="evenodd" clip-rule="evenodd" d="M44 408V416H36V408H44ZM50 408C52.2091 408 54 409.791 54 412C54 414.209 52.2091 416 50 416C47.7909 416 46 414.209 46 412C46 409.791 47.7909 408 50 408ZM54 398V406H46V398H54ZM44 398V406H36V398H44Z" stroke="#9452BA" stroke-linecap="round" stroke-linejoin="round"/>
    </g>
    <g filter="url(#filter1_d_45_1133)">
        <rect x="20" y="204" width="154" height="38" rx="5" fill="white"/>
        <path d="M90.5181 219.475V222.932H94.7406V224.35H90.5181V228.857H88.7556V218.057H95.4906V219.475H90.5181ZM99.9846 225.512C99.4096 225.532 98.9246 225.58 98.5296 225.655C98.1346 225.725 97.8146 225.817 97.5696 225.932C97.3246 226.042 97.1471 226.175 97.0371 226.33C96.9321 226.485 96.8796 226.655 96.8796 226.84C96.8796 227.02 96.9071 227.175 96.9621 227.305C97.0221 227.43 97.1021 227.535 97.2021 227.62C97.3071 227.7 97.4271 227.76 97.5621 227.8C97.7021 227.835 97.8546 227.852 98.0196 227.852C98.4396 227.852 98.7996 227.775 99.0996 227.62C99.4046 227.46 99.6996 227.23 99.9846 226.93V225.512ZM95.7096 222.272C96.5746 221.467 97.6046 221.065 98.7996 221.065C99.2396 221.065 99.6296 221.137 99.9696 221.282C100.315 221.422 100.602 221.622 100.832 221.882C101.067 222.142 101.245 222.452 101.365 222.812C101.49 223.167 101.552 223.562 101.552 223.997V228.857H100.832C100.677 228.857 100.56 228.835 100.48 228.79C100.4 228.74 100.332 228.642 100.277 228.497L100.12 227.875C99.9246 228.05 99.7321 228.207 99.5421 228.347C99.3521 228.482 99.1546 228.597 98.9496 228.692C98.7496 228.787 98.5321 228.857 98.2971 228.902C98.0671 228.952 97.8121 228.977 97.5321 228.977C97.2221 228.977 96.9321 228.935 96.6621 228.85C96.3971 228.765 96.1671 228.637 95.9721 228.467C95.7771 228.292 95.6221 228.077 95.5071 227.822C95.3971 227.567 95.3421 227.267 95.3421 226.922C95.3421 226.627 95.4196 226.34 95.5746 226.06C95.7346 225.78 95.9946 225.53 96.3546 225.31C96.7196 225.085 97.1971 224.9 97.7871 224.755C98.3821 224.61 99.1146 224.527 99.9846 224.507V223.997C99.9846 223.447 99.8671 223.037 99.6321 222.767C99.3971 222.497 99.0521 222.362 98.5971 222.362C98.2871 222.362 98.0271 222.402 97.8171 222.482C97.6071 222.557 97.4246 222.64 97.2696 222.73C97.1146 222.82 96.9771 222.905 96.8571 222.985C96.7371 223.06 96.6096 223.097 96.4746 223.097C96.3646 223.097 96.2696 223.07 96.1896 223.015C96.1146 222.955 96.0521 222.882 96.0021 222.797L95.7096 222.272ZM103.441 228.857V221.207H104.416C104.636 221.207 104.776 221.31 104.836 221.515L104.941 222.182C105.081 222.022 105.226 221.877 105.376 221.747C105.526 221.612 105.686 221.497 105.856 221.402C106.031 221.302 106.216 221.225 106.411 221.17C106.611 221.115 106.826 221.087 107.056 221.087C107.301 221.087 107.526 221.122 107.731 221.192C107.936 221.262 108.116 221.362 108.271 221.492C108.431 221.622 108.568 221.78 108.683 221.965C108.798 222.15 108.893 222.357 108.968 222.587C109.083 222.322 109.228 222.095 109.403 221.905C109.578 221.715 109.773 221.56 109.988 221.44C110.203 221.32 110.431 221.232 110.671 221.177C110.916 221.117 111.163 221.087 111.413 221.087C111.823 221.087 112.188 221.152 112.508 221.282C112.833 221.412 113.106 221.602 113.326 221.852C113.551 222.097 113.721 222.4 113.836 222.76C113.951 223.12 114.008 223.53 114.008 223.99V228.857H112.396V223.99C112.396 223.45 112.278 223.045 112.043 222.775C111.813 222.5 111.471 222.362 111.016 222.362C110.811 222.362 110.618 222.397 110.438 222.467C110.258 222.537 110.101 222.64 109.966 222.775C109.831 222.91 109.723 223.08 109.643 223.285C109.568 223.485 109.531 223.72 109.531 223.99V228.857H107.918V223.99C107.918 223.43 107.806 223.02 107.581 222.76C107.356 222.495 107.026 222.362 106.591 222.362C106.291 222.362 106.013 222.44 105.758 222.595C105.503 222.745 105.268 222.952 105.053 223.217V228.857H103.441ZM117.572 221.207V228.857H115.96V221.207H117.572ZM117.842 218.897C117.842 219.042 117.812 219.18 117.752 219.31C117.697 219.44 117.62 219.555 117.52 219.655C117.42 219.75 117.302 219.827 117.167 219.887C117.037 219.942 116.897 219.97 116.747 219.97C116.602 219.97 116.465 219.942 116.335 219.887C116.21 219.827 116.1 219.75 116.005 219.655C115.91 219.555 115.832 219.44 115.772 219.31C115.717 219.18 115.69 219.042 115.69 218.897C115.69 218.747 115.717 218.607 115.772 218.477C115.832 218.347 115.91 218.235 116.005 218.14C116.1 218.04 116.21 217.962 116.335 217.907C116.465 217.847 116.602 217.817 116.747 217.817C116.897 217.817 117.037 217.847 117.167 217.907C117.302 217.962 117.42 218.04 117.52 218.14C117.62 218.235 117.697 218.347 117.752 218.477C117.812 218.607 117.842 218.747 117.842 218.897ZM121.241 217.757V228.857H119.628V217.757H121.241ZM124.874 217.757V228.857H123.261V217.757H124.874ZM133.651 221.207L129.436 231.032C129.381 231.147 129.314 231.237 129.234 231.302C129.159 231.367 129.041 231.4 128.881 231.4H127.689L129.099 228.34L125.979 221.207H127.381C127.516 221.207 127.619 221.24 127.689 221.305C127.764 221.365 127.819 221.437 127.854 221.522L129.676 225.865C129.721 225.99 129.761 226.115 129.796 226.24C129.836 226.36 129.874 226.485 129.909 226.615C129.949 226.485 129.989 226.357 130.029 226.232C130.069 226.107 130.114 225.982 130.164 225.857L131.911 221.522C131.946 221.432 132.004 221.357 132.084 221.297C132.169 221.237 132.261 221.207 132.361 221.207H133.651Z" fill="#3B438C"/>
        <path fill-rule="evenodd" clip-rule="evenodd" d="M67.5 224.5V232.5H59.5V224.5H67.5ZM78.5 224.5V232.5H70.5V224.5H78.5ZM67.5 213.5V221.5H59.5V213.5H67.5ZM78.5 213.5V221.5H70.5V213.5H78.5Z" stroke="#9452BA" stroke-linecap="round" stroke-linejoin="round"/>
    </g>
    <g filter="url(#filter2_d_45_1133)">
        <rect x="20" y="20" width="154" height="38" rx="5" fill="white"/>
        <path d="M86.2177 40.8072L84.7327 36.8622C84.6127 36.5572 84.4902 36.1697 84.3652 35.6997C84.3102 35.9347 84.2502 36.1522 84.1852 36.3522C84.1202 36.5472 84.0602 36.7197 84.0052 36.8697L82.5202 40.8072H86.2177ZM89.5402 44.8572H88.1827C88.0277 44.8572 87.9027 44.8197 87.8077 44.7447C87.7127 44.6647 87.6402 44.5672 87.5902 44.4522L86.6902 42.0672H82.0402L81.1402 44.4522C81.1002 44.5522 81.0302 44.6447 80.9302 44.7297C80.8302 44.8147 80.7052 44.8572 80.5552 44.8572H79.1977L83.4802 34.0572H85.2577L89.5402 44.8572ZM92.499 44.9772C91.864 44.9772 91.374 44.7997 91.029 44.4447C90.689 44.0847 90.519 43.5797 90.519 42.9297V38.4747H89.679C89.589 38.4747 89.5115 38.4472 89.4465 38.3922C89.3815 38.3322 89.349 38.2447 89.349 38.1297V37.4772L90.5865 37.2972L90.939 35.0847C90.964 34.9997 91.0065 34.9322 91.0665 34.8822C91.1265 34.8272 91.2065 34.7997 91.3065 34.7997H92.1315V37.3122H95.5065L95.8665 35.0847C95.8865 34.9997 95.9265 34.9322 95.9865 34.8822C96.0465 34.8272 96.1265 34.7997 96.2265 34.7997H97.0515V37.3122H99.174V38.4747H97.0515V42.8172C97.0515 43.0922 97.119 43.3022 97.254 43.4472C97.389 43.5922 97.569 43.6647 97.794 43.6647C97.919 43.6647 98.0265 43.6497 98.1165 43.6197C98.2115 43.5847 98.2915 43.5497 98.3565 43.5147C98.4215 43.4747 98.4765 43.4397 98.5215 43.4097C98.5715 43.3747 98.6165 43.3572 98.6565 43.3572C98.7115 43.3572 98.754 43.3697 98.784 43.3947C98.814 43.4147 98.8465 43.4522 98.8815 43.5072L99.3615 44.2947C99.1065 44.5147 98.809 44.6847 98.469 44.8047C98.134 44.9197 97.7865 44.9772 97.4265 44.9772C96.7865 44.9772 96.2965 44.7997 95.9565 44.4447C95.6165 44.0847 95.4465 43.5797 95.4465 42.9297V38.4747H92.1315V42.8172C92.1315 43.0922 92.199 43.3022 92.334 43.4472C92.469 43.5922 92.649 43.6647 92.874 43.6647C92.999 43.6647 93.1065 43.6497 93.1965 43.6197C93.2865 43.5847 93.364 43.5497 93.429 43.5147C93.494 43.4747 93.549 43.4397 93.594 43.4097C93.644 43.3747 93.6915 43.3572 93.7365 43.3572C93.8265 43.3572 93.899 43.4072 93.954 43.5072L94.434 44.2947C94.184 44.5147 93.889 44.6847 93.549 44.8047C93.209 44.9197 92.859 44.9772 92.499 44.9772ZM101.969 38.6247C102.209 38.1397 102.499 37.7597 102.839 37.4847C103.179 37.2047 103.587 37.0647 104.062 37.0647C104.227 37.0647 104.382 37.0847 104.527 37.1247C104.672 37.1597 104.802 37.2147 104.917 37.2897L104.804 38.5047C104.784 38.5897 104.752 38.6497 104.707 38.6847C104.667 38.7147 104.612 38.7297 104.542 38.7297C104.467 38.7297 104.359 38.7172 104.219 38.6922C104.079 38.6622 103.932 38.6472 103.777 38.6472C103.552 38.6472 103.352 38.6797 103.177 38.7447C103.007 38.8097 102.852 38.9047 102.712 39.0297C102.577 39.1547 102.457 39.3072 102.352 39.4872C102.247 39.6672 102.149 39.8722 102.059 40.1022V44.8572H100.447V37.2072H101.384C101.554 37.2072 101.672 37.2397 101.737 37.3047C101.802 37.3647 101.847 37.4722 101.872 37.6272L101.969 38.6247ZM107.664 37.2072V44.8572H106.051V37.2072H107.664ZM107.934 34.8972C107.934 35.0422 107.904 35.1797 107.844 35.3097C107.789 35.4397 107.711 35.5547 107.611 35.6547C107.511 35.7497 107.394 35.8272 107.259 35.8872C107.129 35.9422 106.989 35.9697 106.839 35.9697C106.694 35.9697 106.556 35.9422 106.426 35.8872C106.301 35.8272 106.191 35.7497 106.096 35.6547C106.001 35.5547 105.924 35.4397 105.864 35.3097C105.809 35.1797 105.781 35.0422 105.781 34.8972C105.781 34.7472 105.809 34.6072 105.864 34.4772C105.924 34.3472 106.001 34.2347 106.096 34.1397C106.191 34.0397 106.301 33.9622 106.426 33.9072C106.556 33.8472 106.694 33.8172 106.839 33.8172C106.989 33.8172 107.129 33.8472 107.259 33.9072C107.394 33.9622 107.511 34.0397 107.611 34.1397C107.711 34.2347 107.789 34.3472 107.844 34.4772C107.904 34.6072 107.934 34.7472 107.934 34.8972ZM111.303 42.9372C111.528 43.2272 111.773 43.4322 112.038 43.5522C112.308 43.6672 112.6 43.7247 112.915 43.7247C113.55 43.7247 114.045 43.4947 114.4 43.0347C114.755 42.5747 114.933 41.8622 114.933 40.8972C114.933 40.0172 114.778 39.3747 114.468 38.9697C114.163 38.5647 113.725 38.3622 113.155 38.3622C112.76 38.3622 112.415 38.4522 112.12 38.6322C111.83 38.8072 111.558 39.0597 111.303 39.3897V42.9372ZM111.303 38.2197C111.618 37.8747 111.97 37.5997 112.36 37.3947C112.75 37.1897 113.195 37.0872 113.695 37.0872C114.14 37.0872 114.54 37.1747 114.895 37.3497C115.255 37.5197 115.56 37.7672 115.81 38.0922C116.06 38.4172 116.253 38.8122 116.388 39.2772C116.523 39.7372 116.59 40.2572 116.59 40.8372C116.59 41.4572 116.513 42.0222 116.358 42.5322C116.208 43.0372 115.99 43.4722 115.705 43.8372C115.42 44.1972 115.075 44.4772 114.67 44.6772C114.265 44.8722 113.813 44.9697 113.313 44.9697C113.068 44.9697 112.845 44.9447 112.645 44.8947C112.445 44.8497 112.26 44.7822 112.09 44.6922C111.92 44.6022 111.763 44.4947 111.618 44.3697C111.478 44.2447 111.343 44.1022 111.213 43.9422L111.145 44.5347C111.12 44.6497 111.075 44.7322 111.01 44.7822C110.945 44.8322 110.855 44.8572 110.74 44.8572H109.69V33.7572H111.303V38.2197ZM124.607 37.2072V44.8572H123.632C123.417 44.8572 123.279 44.7547 123.219 44.5497L123.099 43.8372C122.939 44.0072 122.769 44.1622 122.589 44.3022C122.414 44.4422 122.227 44.5622 122.027 44.6622C121.827 44.7622 121.612 44.8397 121.382 44.8947C121.157 44.9497 120.914 44.9772 120.654 44.9772C120.234 44.9772 119.864 44.9072 119.544 44.7672C119.224 44.6272 118.954 44.4297 118.734 44.1747C118.519 43.9197 118.357 43.6147 118.247 43.2597C118.137 42.8997 118.082 42.5047 118.082 42.0747V37.2072H119.694V42.0747C119.694 42.5897 119.812 42.9897 120.047 43.2747C120.287 43.5597 120.649 43.7022 121.134 43.7022C121.489 43.7022 121.819 43.6222 122.124 43.4622C122.434 43.2972 122.724 43.0722 122.994 42.7872V37.2072H124.607ZM129.018 44.9772C128.383 44.9772 127.893 44.7997 127.548 44.4447C127.208 44.0847 127.038 43.5797 127.038 42.9297V38.4747H126.198C126.108 38.4747 126.03 38.4472 125.965 38.3922C125.9 38.3322 125.868 38.2447 125.868 38.1297V37.4772L127.105 37.2972L127.458 35.0847C127.483 34.9997 127.525 34.9322 127.585 34.8822C127.645 34.8272 127.725 34.7997 127.825 34.7997H128.65V37.3122H130.773V38.4747H128.65V42.8172C128.65 43.0922 128.718 43.3022 128.853 43.4472C128.988 43.5922 129.168 43.6647 129.393 43.6647C129.518 43.6647 129.625 43.6497 129.715 43.6197C129.805 43.5847 129.883 43.5497 129.948 43.5147C130.013 43.4747 130.068 43.4397 130.113 43.4097C130.163 43.3747 130.21 43.3572 130.255 43.3572C130.345 43.3572 130.418 43.4072 130.473 43.5072L130.953 44.2947C130.703 44.5147 130.408 44.6847 130.068 44.8047C129.728 44.9197 129.378 44.9772 129.018 44.9772ZM137.002 40.1697C137.002 39.8997 136.962 39.6497 136.882 39.4197C136.807 39.1847 136.695 38.9822 136.545 38.8122C136.395 38.6372 136.207 38.5022 135.982 38.4072C135.762 38.3072 135.507 38.2572 135.217 38.2572C134.632 38.2572 134.172 38.4247 133.837 38.7597C133.502 39.0947 133.29 39.5647 133.2 40.1697H137.002ZM133.155 41.1597C133.175 41.5947 133.242 41.9722 133.357 42.2922C133.472 42.6072 133.625 42.8697 133.815 43.0797C134.01 43.2897 134.24 43.4472 134.505 43.5522C134.775 43.6522 135.075 43.7022 135.405 43.7022C135.72 43.7022 135.992 43.6672 136.222 43.5972C136.452 43.5222 136.652 43.4422 136.822 43.3572C136.992 43.2672 137.137 43.1872 137.257 43.1172C137.377 43.0422 137.487 43.0047 137.587 43.0047C137.717 43.0047 137.817 43.0547 137.887 43.1547L138.345 43.7472C138.155 43.9722 137.94 44.1622 137.7 44.3172C137.46 44.4722 137.205 44.5997 136.935 44.6997C136.665 44.7947 136.387 44.8622 136.102 44.9022C135.817 44.9472 135.54 44.9697 135.27 44.9697C134.74 44.9697 134.247 44.8822 133.792 44.7072C133.342 44.5272 132.95 44.2647 132.615 43.9197C132.285 43.5747 132.025 43.1472 131.835 42.6372C131.65 42.1272 131.557 41.5397 131.557 40.8747C131.557 40.3447 131.64 39.8497 131.805 39.3897C131.975 38.9297 132.215 38.5297 132.525 38.1897C132.84 37.8497 133.22 37.5822 133.665 37.3872C134.115 37.1872 134.622 37.0872 135.187 37.0872C135.657 37.0872 136.092 37.1647 136.492 37.3197C136.892 37.4697 137.237 37.6922 137.527 37.9872C137.817 38.2822 138.042 38.6447 138.202 39.0747C138.367 39.4997 138.45 39.9847 138.45 40.5297C138.45 40.7797 138.422 40.9472 138.367 41.0322C138.312 41.1172 138.212 41.1597 138.067 41.1597H133.155Z" fill="#3B438C"/>
        <path d="M50.5 33H54.5M66.5 40.5L57.5 49.5L50.5 42.5L60 33.3L66.5 33.5V40.5ZM63 38.5C63.8284 38.5 64.5 37.8284 64.5 37C64.5 36.1716 63.8284 35.5 63 35.5C62.1716 35.5 61.5 36.1716 61.5 37C61.5 37.8284 62.1716 38.5 63 38.5ZM69.5 30.5L64.5 35.5L69.5 30.5ZM52.5 31V35V31Z" stroke="#9452BA" stroke-linecap="round" stroke-linejoin="round"/>
    </g>
    <path d="M94.5 65C94.5 64.7239 94.2761 64.5 94 64.5C93.7239 64.5 93.5 64.7239 93.5 65L94.5 65ZM93.5 194C93.5 194.276 93.7239 194.5 94 194.5C94.2761 194.5 94.5 194.276 94.5 194L93.5 194ZM93.5 66.0238C93.5 66.3 93.7239 66.5238 94 66.5238C94.2761 66.5238 94.5 66.3 94.5 66.0238L93.5 66.0238ZM94.5 71.1429C94.5 70.8667 94.2761 70.6429 94 70.6429C93.7239 70.6429 93.5 70.8667 93.5 71.1429L94.5 71.1429ZM93.5 73.1905C93.5 73.4666 93.7239 73.6905 94 73.6905C94.2761 73.6905 94.5 73.4666 94.5 73.1905L93.5 73.1905ZM94.5 78.3095C94.5 78.0334 94.2761 77.8095 94 77.8095C93.7239 77.8095 93.5 78.0334 93.5 78.3095L94.5 78.3095ZM93.5 80.3571C93.5 80.6333 93.7239 80.8571 94 80.8571C94.2761 80.8571 94.5 80.6333 94.5 80.3571L93.5 80.3571ZM94.5 85.4762C94.5 85.2 94.2761 84.9762 94 84.9762C93.7239 84.9762 93.5 85.2 93.5 85.4762L94.5 85.4762ZM93.5 87.5238C93.5 87.8 93.7239 88.0238 94 88.0238C94.2761 88.0238 94.5 87.8 94.5 87.5238L93.5 87.5238ZM94.5 92.6429C94.5 92.3667 94.2761 92.1429 94 92.1429C93.7239 92.1429 93.5 92.3667 93.5 92.6429L94.5 92.6429ZM93.5 94.6905C93.5 94.9666 93.7239 95.1905 94 95.1905C94.2761 95.1905 94.5 94.9666 94.5 94.6905L93.5 94.6905ZM94.5 99.8095C94.5 99.5334 94.2761 99.3095 94 99.3095C93.7239 99.3095 93.5 99.5334 93.5 99.8095L94.5 99.8095ZM93.5 101.857C93.5 102.133 93.7239 102.357 94 102.357C94.2761 102.357 94.5 102.133 94.5 101.857L93.5 101.857ZM94.5 106.976C94.5 106.7 94.2761 106.476 94 106.476C93.7239 106.476 93.5 106.7 93.5 106.976L94.5 106.976ZM93.5 109.024C93.5 109.3 93.7239 109.524 94 109.524C94.2761 109.524 94.5 109.3 94.5 109.024L93.5 109.024ZM94.5 114.143C94.5 113.867 94.2761 113.643 94 113.643C93.7239 113.643 93.5 113.867 93.5 114.143L94.5 114.143ZM93.5 116.19C93.5 116.467 93.7239 116.69 94 116.69C94.2761 116.69 94.5 116.467 94.5 116.19L93.5 116.19ZM94.5 121.31C94.5 121.033 94.2761 120.81 94 120.81C93.7239 120.81 93.5 121.033 93.5 121.31L94.5 121.31ZM93.5 123.357C93.5 123.633 93.7239 123.857 94 123.857C94.2761 123.857 94.5 123.633 94.5 123.357L93.5 123.357ZM94.5 128.476C94.5 128.2 94.2761 127.976 94 127.976C93.7239 127.976 93.5 128.2 93.5 128.476L94.5 128.476ZM93.5 130.524C93.5 130.8 93.7239 131.024 94 131.024C94.2761 131.024 94.5 130.8 94.5 130.524L93.5 130.524ZM94.5 135.643C94.5 135.367 94.2761 135.143 94 135.143C93.7239 135.143 93.5 135.367 93.5 135.643L94.5 135.643ZM93.5 137.69C93.5 137.967 93.7239 138.19 94 138.19C94.2761 138.19 94.5 137.967 94.5 137.69L93.5 137.69ZM94.5 142.81C94.5 142.533 94.2761 142.31 94 142.31C93.7239 142.31 93.5 142.533 93.5 142.81L94.5 142.81ZM93.5 144.857C93.5 145.133 93.7239 145.357 94 145.357C94.2761 145.357 94.5 145.133 94.5 144.857L93.5 144.857ZM94.5 149.976C94.5 149.7 94.2761 149.476 94 149.476C93.7239 149.476 93.5 149.7 93.5 149.976L94.5 149.976ZM93.5 152.024C93.5 152.3 93.7239 152.524 94 152.524C94.2761 152.524 94.5 152.3 94.5 152.024L93.5 152.024ZM94.5 157.143C94.5 156.867 94.2761 156.643 94 156.643C93.7239 156.643 93.5 156.867 93.5 157.143L94.5 157.143ZM93.5 159.191C93.5 159.467 93.7239 159.691 94 159.691C94.2761 159.691 94.5 159.467 94.5 159.191L93.5 159.191ZM94.5 164.31C94.5 164.033 94.2761 163.81 94 163.81C93.7239 163.81 93.5 164.033 93.5 164.31L94.5 164.31ZM93.5 166.357C93.5 166.633 93.7239 166.857 94 166.857C94.2761 166.857 94.5 166.633 94.5 166.357L93.5 166.357ZM94.5 171.476C94.5 171.2 94.2761 170.976 94 170.976C93.7239 170.976 93.5 171.2 93.5 171.476L94.5 171.476ZM93.5 173.524C93.5 173.8 93.7239 174.024 94 174.024C94.2761 174.024 94.5 173.8 94.5 173.524L93.5 173.524ZM94.5 178.643C94.5 178.367 94.2761 178.143 94 178.143C93.7239 178.143 93.5 178.367 93.5 178.643L94.5 178.643ZM93.5 180.691C93.5 180.967 93.7239 181.191 94 181.191C94.2761 181.191 94.5 180.967 94.5 180.691L93.5 180.691ZM94.5 185.81C94.5 185.533 94.2761 185.31 94 185.31C93.7239 185.31 93.5 185.533 93.5 185.81L94.5 185.81ZM93.5 187.857C93.5 188.133 93.7239 188.357 94 188.357C94.2761 188.357 94.5 188.133 94.5 187.857L93.5 187.857ZM94.5 192.976C94.5 192.7 94.2761 192.476 94 192.476C93.7239 192.476 93.5 192.7 93.5 192.976L94.5 192.976ZM93.5 65L93.5 66.0238L94.5 66.0238L94.5 65L93.5 65ZM93.5 71.1429L93.5 73.1905L94.5 73.1905L94.5 71.1429L93.5 71.1429ZM93.5 78.3095L93.5 80.3571L94.5 80.3571L94.5 78.3095L93.5 78.3095ZM93.5 85.4762L93.5 87.5238L94.5 87.5238L94.5 85.4762L93.5 85.4762ZM93.5 92.6429L93.5 94.6905L94.5 94.6905L94.5 92.6429L93.5 92.6429ZM93.5 99.8095L93.5 101.857L94.5 101.857L94.5 99.8095L93.5 99.8095ZM93.5 106.976L93.5 109.024L94.5 109.024L94.5 106.976L93.5 106.976ZM93.5 114.143L93.5 116.19L94.5 116.19L94.5 114.143L93.5 114.143ZM93.5 121.31L93.5 123.357L94.5 123.357L94.5 121.31L93.5 121.31ZM93.5 128.476L93.5 130.524L94.5 130.524L94.5 128.476L93.5 128.476ZM93.5 135.643L93.5 137.69L94.5 137.69L94.5 135.643L93.5 135.643ZM93.5 142.81L93.5 144.857L94.5 144.857L94.5 142.81L93.5 142.81ZM93.5 149.976L93.5 152.024L94.5 152.024L94.5 149.976L93.5 149.976ZM93.5 157.143L93.5 159.191L94.5 159.191L94.5 157.143L93.5 157.143ZM93.5 164.31L93.5 166.357L94.5 166.357L94.5 164.31L93.5 164.31ZM93.5 171.476L93.5 173.524L94.5 173.524L94.5 171.476L93.5 171.476ZM93.5 178.643L93.5 180.691L94.5 180.691L94.5 178.643L93.5 178.643ZM93.5 185.81L93.5 187.857L94.5 187.857L94.5 185.81L93.5 185.81ZM93.5 192.976L93.5 194L94.5 194L94.5 192.976L93.5 192.976ZM95 65C95 64.4477 94.5523 64 94 64C93.4477 64 93 64.4477 93 65L95 65ZM93 194C93 194.552 93.4477 195 94 195C94.5523 195 95 194.552 95 194L93 194ZM93 66.0238C93 66.5761 93.4477 67.0238 94 67.0238C94.5523 67.0238 95 66.5761 95 66.0238L93 66.0238ZM95 71.1429C95 70.5906 94.5523 70.1429 94 70.1429C93.4477 70.1429 93 70.5906 93 71.1429L95 71.1429ZM93 73.1905C93 73.7428 93.4477 74.1905 94 74.1905C94.5523 74.1905 95 73.7428 95 73.1905L93 73.1905ZM95 78.3095C95 77.7572 94.5523 77.3095 94 77.3095C93.4477 77.3095 93 77.7572 93 78.3095L95 78.3095ZM93 80.3571C93 80.9094 93.4477 81.3571 94 81.3571C94.5523 81.3571 95 80.9094 95 80.3571L93 80.3571ZM95 85.4762C95 84.9239 94.5523 84.4762 94 84.4762C93.4477 84.4762 93 84.9239 93 85.4762L95 85.4762ZM93 87.5238C93 88.0761 93.4477 88.5238 94 88.5238C94.5523 88.5238 95 88.0761 95 87.5238L93 87.5238ZM95 92.6429C95 92.0906 94.5523 91.6429 94 91.6429C93.4477 91.6429 93 92.0906 93 92.6429L95 92.6429ZM93 94.6905C93 95.2428 93.4477 95.6905 94 95.6905C94.5523 95.6905 95 95.2428 95 94.6905L93 94.6905ZM95 99.8095C95 99.2572 94.5523 98.8095 94 98.8095C93.4477 98.8095 93 99.2572 93 99.8095L95 99.8095ZM93 101.857C93 102.409 93.4477 102.857 94 102.857C94.5523 102.857 95 102.409 95 101.857L93 101.857ZM95 106.976C95 106.424 94.5523 105.976 94 105.976C93.4477 105.976 93 106.424 93 106.976L95 106.976ZM93 109.024C93 109.576 93.4477 110.024 94 110.024C94.5523 110.024 95 109.576 95 109.024L93 109.024ZM95 114.143C95 113.591 94.5523 113.143 94 113.143C93.4477 113.143 93 113.591 93 114.143L95 114.143ZM93 116.19C93 116.743 93.4477 117.19 94 117.19C94.5523 117.19 95 116.743 95 116.19L93 116.19ZM95 121.31C95 120.757 94.5523 120.31 94 120.31C93.4477 120.31 93 120.757 93 121.31L95 121.31ZM93 123.357C93 123.909 93.4477 124.357 94 124.357C94.5523 124.357 95 123.909 95 123.357L93 123.357ZM95 128.476C95 127.924 94.5523 127.476 94 127.476C93.4477 127.476 93 127.924 93 128.476L95 128.476ZM93 130.524C93 131.076 93.4477 131.524 94 131.524C94.5523 131.524 95 131.076 95 130.524L93 130.524ZM95 135.643C95 135.091 94.5523 134.643 94 134.643C93.4477 134.643 93 135.091 93 135.643L95 135.643ZM93 137.69C93 138.243 93.4477 138.69 94 138.69C94.5523 138.69 95 138.243 95 137.69L93 137.69ZM95 142.81C95 142.257 94.5523 141.81 94 141.81C93.4477 141.81 93 142.257 93 142.81L95 142.81ZM93 144.857C93 145.409 93.4477 145.857 94 145.857C94.5523 145.857 95 145.409 95 144.857L93 144.857ZM95 149.976C95 149.424 94.5523 148.976 94 148.976C93.4477 148.976 93 149.424 93 149.976L95 149.976ZM93 152.024C93 152.576 93.4477 153.024 94 153.024C94.5523 153.024 95 152.576 95 152.024L93 152.024ZM95 157.143C95 156.591 94.5523 156.143 94 156.143C93.4477 156.143 93 156.591 93 157.143L95 157.143ZM93 159.191C93 159.743 93.4477 160.191 94 160.191C94.5523 160.191 95 159.743 95 159.191L93 159.191ZM95 164.31C95 163.757 94.5523 163.31 94 163.31C93.4477 163.31 93 163.757 93 164.31L95 164.31ZM93 166.357C93 166.909 93.4477 167.357 94 167.357C94.5523 167.357 95 166.909 95 166.357L93 166.357ZM95 171.476C95 170.924 94.5523 170.476 94 170.476C93.4477 170.476 93 170.924 93 171.476L95 171.476ZM93 173.524C93 174.076 93.4477 174.524 94 174.524C94.5523 174.524 95 174.076 95 173.524L93 173.524ZM95 178.643C95 178.091 94.5523 177.643 94 177.643C93.4477 177.643 93 178.091 93 178.643L95 178.643ZM93 180.691C93 181.243 93.4477 181.691 94 181.691C94.5523 181.691 95 181.243 95 180.691L93 180.691ZM95 185.81C95 185.257 94.5523 184.81 94 184.81C93.4477 184.81 93 185.257 93 185.81L95 185.81ZM93 187.857C93 188.409 93.4477 188.857 94 188.857C94.5523 188.857 95 188.409 95 187.857L93 187.857ZM95 192.976C95 192.424 94.5523 191.976 94 191.976C93.4477 191.976 93 192.424 93 192.976L95 192.976ZM93 65L93 66.0238L95 66.0238L95 65L93 65ZM93 71.1429L93 73.1905L95 73.1905L95 71.1429L93 71.1429ZM93 78.3095L93 80.3571L95 80.3571L95 78.3095L93 78.3095ZM93 85.4762L93 87.5238L95 87.5238L95 85.4762L93 85.4762ZM93 92.6429L93 94.6905L95 94.6905L95 92.6429L93 92.6429ZM93 99.8095L93 101.857L95 101.857L95 99.8095L93 99.8095ZM93 106.976L93 109.024L95 109.024L95 106.976L93 106.976ZM93 114.143L93 116.19L95 116.19L95 114.143L93 114.143ZM93 121.31L93 123.357L95 123.357L95 121.31L93 121.31ZM93 128.476L93 130.524L95 130.524L95 128.476L93 128.476ZM93 135.643L93 137.69L95 137.69L95 135.643L93 135.643ZM93 142.81L93 144.857L95 144.857L95 142.81L93 142.81ZM93 149.976L93 152.024L95 152.024L95 149.976L93 149.976ZM93 157.143L93 159.191L95 159.191L95 157.143L93 157.143ZM93 164.31L93 166.357L95 166.357L95 164.31L93 164.31ZM93 171.476L93 173.524L95 173.524L95 171.476L93 171.476ZM93 178.643L93 180.691L95 180.691L95 178.643L93 178.643ZM93 185.81L93 187.857L95 187.857L95 185.81L93 185.81ZM93 192.976L93 194L95 194L95 192.976L93 192.976Z" fill="#8F92C7"/>
    <path d="M92.4864 61.7526C93.2841 60.829 94.7159 60.829 95.5136 61.7526L100.644 67.6928C101.763 68.9886 100.842 71 99.1301 71L88.8699 71C87.1577 71 86.2371 68.9886 87.3563 67.6928L92.4864 61.7526Z" fill="#8F92C7"/>
    <path d="M95 246C95 245.724 94.7761 245.5 94.5 245.5C94.2239 245.5 94 245.724 94 246L95 246ZM94 382C94 382.276 94.2239 382.5 94.5 382.5C94.7761 382.5 95 382.276 95 382L94 382ZM94 247.023C94 247.299 94.2239 247.523 94.5 247.523C94.7761 247.523 95 247.299 95 247.023L94 247.023ZM95 252.135C95 251.859 94.7761 251.635 94.5 251.635C94.2239 251.635 94 251.859 94 252.135L95 252.135ZM94 254.18C94 254.457 94.2239 254.68 94.5 254.68C94.7761 254.68 95 254.457 95 254.18L94 254.18ZM95 259.293C95 259.017 94.7761 258.793 94.5 258.793C94.2239 258.793 94 259.017 94 259.293L95 259.293ZM94 261.338C94 261.614 94.2239 261.838 94.5 261.838C94.7761 261.838 95 261.614 95 261.338L94 261.338ZM95 266.451C95 266.175 94.7761 265.951 94.5 265.951C94.2239 265.951 94 266.175 94 266.451L95 266.451ZM94 268.496C94 268.772 94.2239 268.996 94.5 268.996C94.7761 268.996 95 268.772 95 268.496L94 268.496ZM95 273.609C95 273.333 94.7761 273.109 94.5 273.109C94.2239 273.109 94 273.333 94 273.609L95 273.609ZM94 275.654C94 275.93 94.2239 276.154 94.5 276.154C94.7761 276.154 95 275.93 95 275.654L94 275.654ZM95 280.767C95 280.491 94.7761 280.267 94.5 280.267C94.2239 280.267 94 280.491 94 280.767L95 280.767ZM94 282.812C94 283.088 94.2239 283.312 94.5 283.312C94.7761 283.312 95 283.088 95 282.812L94 282.812ZM95 287.925C95 287.649 94.7761 287.425 94.5 287.425C94.2239 287.425 94 287.649 94 287.925L95 287.925ZM94 289.97C94 290.246 94.2239 290.47 94.5 290.47C94.7761 290.47 95 290.246 95 289.97L94 289.97ZM95 295.083C95 294.807 94.7761 294.583 94.5 294.583C94.2239 294.583 94 294.807 94 295.083L95 295.083ZM94 297.128C94 297.404 94.2239 297.628 94.5 297.628C94.7761 297.628 95 297.404 95 297.128L94 297.128ZM95 302.241C95 301.964 94.7761 301.741 94.5 301.741C94.2239 301.741 94 301.964 94 302.241L95 302.241ZM94 304.286C94 304.562 94.2239 304.786 94.5 304.786C94.7761 304.786 95 304.562 95 304.286L94 304.286ZM95 309.398C95 309.122 94.7761 308.898 94.5 308.898C94.2239 308.898 94 309.122 94 309.398L95 309.398ZM94 311.444C94 311.72 94.2239 311.944 94.5 311.944C94.7761 311.944 95 311.72 95 311.444L94 311.444ZM95 316.556C95 316.28 94.7761 316.056 94.5 316.056C94.2239 316.056 94 316.28 94 316.556L95 316.556ZM94 318.602C94 318.878 94.2239 319.102 94.5 319.102C94.7761 319.102 95 318.878 95 318.602L94 318.602ZM95 323.714C95 323.438 94.7761 323.214 94.5 323.214C94.2239 323.214 94 323.438 94 323.714L95 323.714ZM94 325.759C94 326.036 94.2239 326.259 94.5 326.259C94.7761 326.259 95 326.036 95 325.759L94 325.759ZM95 330.872C95 330.596 94.7761 330.372 94.5 330.372C94.2239 330.372 94 330.596 94 330.872L95 330.872ZM94 332.917C94 333.193 94.2239 333.417 94.5 333.417C94.7761 333.417 95 333.193 95 332.917L94 332.917ZM95 338.03C95 337.754 94.7761 337.53 94.5 337.53C94.2239 337.53 94 337.754 94 338.03L95 338.03ZM94 340.075C94 340.351 94.2239 340.575 94.5 340.575C94.7761 340.575 95 340.351 95 340.075L94 340.075ZM95 345.188C95 344.912 94.7761 344.688 94.5 344.688C94.2239 344.688 94 344.912 94 345.188L95 345.188ZM94 347.233C94 347.509 94.2239 347.733 94.5 347.733C94.7761 347.733 95 347.509 95 347.233L94 347.233ZM95 352.346C95 352.07 94.7761 351.846 94.5 351.846C94.2239 351.846 94 352.07 94 352.346L95 352.346ZM94 354.391C94 354.667 94.2239 354.891 94.5 354.891C94.7761 354.891 95 354.667 95 354.391L94 354.391ZM95 359.504C95 359.228 94.7761 359.004 94.5 359.004C94.2239 359.004 94 359.228 94 359.504L95 359.504ZM94 361.549C94 361.825 94.2239 362.049 94.5 362.049C94.7761 362.049 95 361.825 95 361.549L94 361.549ZM95 366.662C95 366.386 94.7761 366.162 94.5 366.162C94.2239 366.162 94 366.386 94 366.662L95 366.662ZM94 368.707C94 368.983 94.2239 369.207 94.5 369.207C94.7761 369.207 95 368.983 95 368.707L94 368.707ZM95 373.82C95 373.543 94.7761 373.32 94.5 373.32C94.2239 373.32 94 373.543 94 373.82L95 373.82ZM94 375.865C94 376.141 94.2239 376.365 94.5 376.365C94.7761 376.365 95 376.141 95 375.865L94 375.865ZM95 380.977C95 380.701 94.7761 380.477 94.5 380.477C94.2239 380.477 94 380.701 94 380.977L95 380.977ZM94 246L94 247.023L95 247.023L95 246L94 246ZM94 252.135L94 254.18L95 254.18L95 252.135L94 252.135ZM94 259.293L94 261.338L95 261.338L95 259.293L94 259.293ZM94 266.451L94 268.496L95 268.496L95 266.451L94 266.451ZM94 273.609L94 275.654L95 275.654L95 273.609L94 273.609ZM94 280.767L94 282.812L95 282.812L95 280.767L94 280.767ZM94 287.925L94 289.97L95 289.97L95 287.925L94 287.925ZM94 295.083L94 297.128L95 297.128L95 295.083L94 295.083ZM94 302.241L94 304.286L95 304.286L95 302.241L94 302.241ZM94 309.398L94 311.444L95 311.444L95 309.398L94 309.398ZM94 316.556L94 318.602L95 318.602L95 316.556L94 316.556ZM94 323.714L94 325.759L95 325.759L95 323.714L94 323.714ZM94 330.872L94 332.917L95 332.917L95 330.872L94 330.872ZM94 338.03L94 340.075L95 340.075L95 338.03L94 338.03ZM94 345.188L94 347.233L95 347.233L95 345.188L94 345.188ZM94 352.346L94 354.391L95 354.391L95 352.346L94 352.346ZM94 359.504L94 361.549L95 361.549L95 359.504L94 359.504ZM94 366.662L94 368.707L95 368.707L95 366.662L94 366.662ZM94 373.82L94 375.865L95 375.865L95 373.82L94 373.82ZM94 380.977L94 382L95 382L95 380.977L94 380.977ZM95.5 246C95.5 245.448 95.0523 245 94.5 245C93.9477 245 93.5 245.448 93.5 246L95.5 246ZM93.5 382C93.5 382.552 93.9477 383 94.5 383C95.0523 383 95.5 382.552 95.5 382L93.5 382ZM93.5 247.023C93.5 247.575 93.9477 248.023 94.5 248.023C95.0523 248.023 95.5 247.575 95.5 247.023L93.5 247.023ZM95.5 252.135C95.5 251.583 95.0523 251.135 94.5 251.135C93.9477 251.135 93.5 251.583 93.5 252.135L95.5 252.135ZM93.5 254.18C93.5 254.733 93.9477 255.18 94.5 255.18C95.0523 255.18 95.5 254.733 95.5 254.18L93.5 254.18ZM95.5 259.293C95.5 258.741 95.0523 258.293 94.5 258.293C93.9477 258.293 93.5 258.741 93.5 259.293L95.5 259.293ZM93.5 261.338C93.5 261.891 93.9477 262.338 94.5 262.338C95.0523 262.338 95.5 261.891 95.5 261.338L93.5 261.338ZM95.5 266.451C95.5 265.899 95.0523 265.451 94.5 265.451C93.9477 265.451 93.5 265.899 93.5 266.451L95.5 266.451ZM93.5 268.496C93.5 269.049 93.9477 269.496 94.5 269.496C95.0523 269.496 95.5 269.049 95.5 268.496L93.5 268.496ZM95.5 273.609C95.5 273.057 95.0523 272.609 94.5 272.609C93.9477 272.609 93.5 273.057 93.5 273.609L95.5 273.609ZM93.5 275.654C93.5 276.206 93.9477 276.654 94.5 276.654C95.0523 276.654 95.5 276.206 95.5 275.654L93.5 275.654ZM95.5 280.767C95.5 280.215 95.0523 279.767 94.5 279.767C93.9477 279.767 93.5 280.215 93.5 280.767L95.5 280.767ZM93.5 282.812C93.5 283.364 93.9477 283.812 94.5 283.812C95.0523 283.812 95.5 283.364 95.5 282.812L93.5 282.812ZM95.5 287.925C95.5 287.373 95.0523 286.925 94.5 286.925C93.9477 286.925 93.5 287.373 93.5 287.925L95.5 287.925ZM93.5 289.97C93.5 290.522 93.9477 290.97 94.5 290.97C95.0523 290.97 95.5 290.522 95.5 289.97L93.5 289.97ZM95.5 295.083C95.5 294.53 95.0523 294.083 94.5 294.083C93.9477 294.083 93.5 294.53 93.5 295.083L95.5 295.083ZM93.5 297.128C93.5 297.68 93.9477 298.128 94.5 298.128C95.0523 298.128 95.5 297.68 95.5 297.128L93.5 297.128ZM95.5 302.241C95.5 301.688 95.0523 301.241 94.5 301.241C93.9477 301.241 93.5 301.688 93.5 302.241L95.5 302.241ZM93.5 304.286C93.5 304.838 93.9477 305.286 94.5 305.286C95.0523 305.286 95.5 304.838 95.5 304.286L93.5 304.286ZM95.5 309.398C95.5 308.846 95.0523 308.398 94.5 308.398C93.9477 308.398 93.5 308.846 93.5 309.398L95.5 309.398ZM93.5 311.444C93.5 311.996 93.9477 312.444 94.5 312.444C95.0523 312.444 95.5 311.996 95.5 311.444L93.5 311.444ZM95.5 316.556C95.5 316.004 95.0523 315.556 94.5 315.556C93.9477 315.556 93.5 316.004 93.5 316.556L95.5 316.556ZM93.5 318.602C93.5 319.154 93.9477 319.602 94.5 319.602C95.0523 319.602 95.5 319.154 95.5 318.602L93.5 318.602ZM95.5 323.714C95.5 323.162 95.0523 322.714 94.5 322.714C93.9477 322.714 93.5 323.162 93.5 323.714L95.5 323.714ZM93.5 325.759C93.5 326.312 93.9477 326.759 94.5 326.759C95.0523 326.759 95.5 326.312 95.5 325.759L93.5 325.759ZM95.5 330.872C95.5 330.32 95.0523 329.872 94.5 329.872C93.9477 329.872 93.5 330.32 93.5 330.872L95.5 330.872ZM93.5 332.917C93.5 333.47 93.9477 333.917 94.5 333.917C95.0523 333.917 95.5 333.47 95.5 332.917L93.5 332.917ZM95.5 338.03C95.5 337.478 95.0523 337.03 94.5 337.03C93.9477 337.03 93.5 337.478 93.5 338.03L95.5 338.03ZM93.5 340.075C93.5 340.627 93.9477 341.075 94.5 341.075C95.0523 341.075 95.5 340.627 95.5 340.075L93.5 340.075ZM95.5 345.188C95.5 344.636 95.0523 344.188 94.5 344.188C93.9477 344.188 93.5 344.636 93.5 345.188L95.5 345.188ZM93.5 347.233C93.5 347.785 93.9477 348.233 94.5 348.233C95.0523 348.233 95.5 347.785 95.5 347.233L93.5 347.233ZM95.5 352.346C95.5 351.794 95.0523 351.346 94.5 351.346C93.9477 351.346 93.5 351.794 93.5 352.346L95.5 352.346ZM93.5 354.391C93.5 354.943 93.9477 355.391 94.5 355.391C95.0523 355.391 95.5 354.943 95.5 354.391L93.5 354.391ZM95.5 359.504C95.5 358.951 95.0523 358.504 94.5 358.504C93.9477 358.504 93.5 358.951 93.5 359.504L95.5 359.504ZM93.5 361.549C93.5 362.101 93.9477 362.549 94.5 362.549C95.0523 362.549 95.5 362.101 95.5 361.549L93.5 361.549ZM95.5 366.662C95.5 366.109 95.0523 365.662 94.5 365.662C93.9477 365.662 93.5 366.109 93.5 366.662L95.5 366.662ZM93.5 368.707C93.5 369.259 93.9477 369.707 94.5 369.707C95.0523 369.707 95.5 369.259 95.5 368.707L93.5 368.707ZM95.5 373.82C95.5 373.267 95.0523 372.82 94.5 372.82C93.9477 372.82 93.5 373.267 93.5 373.82L95.5 373.82ZM93.5 375.865C93.5 376.417 93.9477 376.865 94.5 376.865C95.0523 376.865 95.5 376.417 95.5 375.865L93.5 375.865ZM95.5 380.977C95.5 380.425 95.0523 379.977 94.5 379.977C93.9477 379.977 93.5 380.425 93.5 380.977L95.5 380.977ZM93.5 246L93.5 247.023L95.5 247.023L95.5 246L93.5 246ZM93.5 252.135L93.5 254.18L95.5 254.18L95.5 252.135L93.5 252.135ZM93.5 259.293L93.5 261.338L95.5 261.338L95.5 259.293L93.5 259.293ZM93.5 266.451L93.5 268.496L95.5 268.496L95.5 266.451L93.5 266.451ZM93.5 273.609L93.5 275.654L95.5 275.654L95.5 273.609L93.5 273.609ZM93.5 280.767L93.5 282.812L95.5 282.812L95.5 280.767L93.5 280.767ZM93.5 287.925L93.5 289.97L95.5 289.97L95.5 287.925L93.5 287.925ZM93.5 295.083L93.5 297.128L95.5 297.128L95.5 295.083L93.5 295.083ZM93.5 302.241L93.5 304.286L95.5 304.286L95.5 302.241L93.5 302.241ZM93.5 309.398L93.5 311.444L95.5 311.444L95.5 309.398L93.5 309.398ZM93.5 316.556L93.5 318.602L95.5 318.602L95.5 316.556L93.5 316.556ZM93.5 323.714L93.5 325.759L95.5 325.759L95.5 323.714L93.5 323.714ZM93.5 330.872L93.5 332.917L95.5 332.917L95.5 330.872L93.5 330.872ZM93.5 338.03L93.5 340.075L95.5 340.075L95.5 338.03L93.5 338.03ZM93.5 345.188L93.5 347.233L95.5 347.233L95.5 345.188L93.5 345.188ZM93.5 352.346L93.5 354.391L95.5 354.391L95.5 352.346L93.5 352.346ZM93.5 359.504L93.5 361.549L95.5 361.549L95.5 359.504L93.5 359.504ZM93.5 366.662L93.5 368.707L95.5 368.707L95.5 366.662L93.5 366.662ZM93.5 373.82L93.5 375.865L95.5 375.865L95.5 373.82L93.5 373.82ZM93.5 380.977L93.5 382L95.5 382L95.5 380.977L93.5 380.977Z" fill="#8F92C7"/>
    <path d="M96.0136 383.247C95.2159 384.171 93.7841 384.171 92.9864 383.247L87.8563 377.307C86.7371 376.011 87.6577 374 89.3699 374L99.6301 374C101.342 374 102.263 376.011 101.144 377.307L96.0136 383.247Z" fill="#8F92C7"/>
    <rect width="101" height="26" transform="translate(44 113)" fill="white"/>
    <path d="M53.463 129.932C53.715 129.932 53.937 129.912 54.129 129.872C54.325 129.832 54.495 129.782 54.639 129.722C54.783 129.658 54.905 129.59 55.005 129.518C55.109 129.446 55.199 129.38 55.275 129.32C55.351 129.256 55.417 129.204 55.473 129.164C55.529 129.124 55.583 129.104 55.635 129.104C55.679 129.104 55.715 129.114 55.743 129.134C55.771 129.15 55.793 129.168 55.809 129.188L56.283 129.782C55.911 130.198 55.473 130.522 54.969 130.754C54.465 130.982 53.887 131.096 53.235 131.096C52.711 131.096 52.243 131.002 51.831 130.814C51.419 130.626 51.071 130.366 50.787 130.034C50.503 129.702 50.285 129.306 50.133 128.846C49.985 128.386 49.911 127.884 49.911 127.34C49.911 126.592 50.029 125.908 50.265 125.288C50.501 124.664 50.825 124.128 51.237 123.68C51.649 123.232 52.131 122.884 52.683 122.636C53.239 122.388 53.835 122.264 54.471 122.264C54.783 122.264 55.065 122.292 55.317 122.348C55.573 122.404 55.803 122.484 56.007 122.588C56.215 122.688 56.403 122.81 56.571 122.954C56.739 123.098 56.893 123.258 57.033 123.434L56.571 123.998C56.535 124.042 56.493 124.08 56.445 124.112C56.397 124.144 56.337 124.16 56.265 124.16C56.213 124.16 56.161 124.142 56.109 124.106C56.057 124.07 55.999 124.026 55.935 123.974C55.871 123.918 55.795 123.86 55.707 123.8C55.623 123.736 55.521 123.678 55.401 123.626C55.281 123.57 55.139 123.524 54.975 123.488C54.815 123.452 54.625 123.434 54.405 123.434C53.965 123.434 53.555 123.524 53.175 123.704C52.795 123.88 52.465 124.132 52.185 124.46C51.909 124.788 51.691 125.186 51.531 125.654C51.371 126.122 51.291 126.646 51.291 127.226C51.291 127.646 51.345 128.024 51.453 128.36C51.561 128.696 51.711 128.98 51.903 129.212C52.095 129.444 52.323 129.622 52.587 129.746C52.855 129.87 53.147 129.932 53.463 129.932ZM61.1463 125.744C61.0783 125.736 61.0103 125.73 60.9423 125.726C60.8783 125.722 60.8123 125.72 60.7443 125.72C60.4003 125.72 60.0763 125.8 59.7723 125.96C59.4723 126.12 59.2103 126.336 58.9863 126.608C58.7663 126.88 58.5923 127.196 58.4643 127.556C58.3363 127.912 58.2723 128.288 58.2723 128.684C58.2723 129.14 58.3443 129.478 58.4883 129.698C58.6363 129.914 58.8443 130.022 59.1123 130.022C59.2923 130.022 59.4683 129.964 59.6403 129.848C59.8123 129.728 59.9743 129.566 60.1263 129.362C60.2823 129.154 60.4263 128.91 60.5583 128.63C60.6903 128.35 60.8043 128.046 60.9003 127.718L61.1463 125.744ZM60.7383 129.572C60.5983 129.804 60.4483 130.014 60.2883 130.202C60.1323 130.386 59.9663 130.544 59.7903 130.676C59.6143 130.808 59.4283 130.91 59.2323 130.982C59.0363 131.054 58.8323 131.09 58.6203 131.09C58.3843 131.09 58.1663 131.044 57.9663 130.952C57.7663 130.86 57.5943 130.722 57.4503 130.538C57.3063 130.354 57.1923 130.128 57.1083 129.86C57.0283 129.588 56.9883 129.274 56.9883 128.918C56.9883 128.554 57.0343 128.2 57.1263 127.856C57.2183 127.508 57.3483 127.182 57.5163 126.878C57.6843 126.57 57.8863 126.288 58.1223 126.032C58.3583 125.776 58.6223 125.556 58.9143 125.372C59.2063 125.188 59.5203 125.046 59.8563 124.946C60.1963 124.842 60.5523 124.79 60.9243 124.79C61.1923 124.79 61.4583 124.812 61.7223 124.856C61.9863 124.896 62.2443 124.968 62.4963 125.072L61.7643 131H61.0863C60.9223 131 60.8103 130.958 60.7503 130.874C60.6903 130.79 60.6603 130.686 60.6603 130.562L60.7383 129.572ZM64.9875 126.266C65.3035 125.77 65.6575 125.4 66.0495 125.156C66.4415 124.908 66.8455 124.784 67.2615 124.784C67.5175 124.784 67.7455 124.836 67.9455 124.94C68.1455 125.04 68.3095 125.19 68.4375 125.39C68.5655 125.586 68.6535 125.828 68.7015 126.116C68.7495 126.404 68.7515 126.734 68.7075 127.106L68.2455 131H66.9615L67.4235 127.106C67.4795 126.67 67.4535 126.354 67.3455 126.158C67.2415 125.958 67.0515 125.858 66.7755 125.858C66.5995 125.858 66.4175 125.908 66.2295 126.008C66.0455 126.108 65.8675 126.25 65.6955 126.434C65.5275 126.614 65.3695 126.834 65.2215 127.094C65.0735 127.35 64.9515 127.636 64.8555 127.952L64.5195 131H63.2355L63.9675 124.868H64.6155C64.7555 124.868 64.8615 124.904 64.9335 124.976C65.0095 125.044 65.0475 125.152 65.0475 125.3L64.9875 126.266ZM74.2542 126.062C74.5622 125.638 74.8982 125.32 75.2622 125.108C75.6262 124.892 76.0002 124.784 76.3842 124.784C76.6442 124.784 76.8742 124.836 77.0742 124.94C77.2782 125.04 77.4442 125.19 77.5722 125.39C77.7002 125.586 77.7882 125.828 77.8362 126.116C77.8842 126.404 77.8842 126.734 77.8362 127.106L77.3802 131H76.0962L76.5522 127.106C76.6082 126.67 76.5842 126.352 76.4802 126.152C76.3762 125.948 76.1842 125.846 75.9042 125.846C75.7362 125.846 75.5622 125.894 75.3822 125.99C75.2062 126.082 75.0362 126.214 74.8722 126.386C74.7082 126.554 74.5522 126.76 74.4042 127.004C74.2602 127.244 74.1382 127.512 74.0382 127.808L73.6542 131H72.3702L73.4442 122.12H74.7282L74.2542 126.062ZM82.908 125.744C82.84 125.736 82.772 125.73 82.704 125.726C82.64 125.722 82.574 125.72 82.506 125.72C82.162 125.72 81.838 125.8 81.534 125.96C81.234 126.12 80.972 126.336 80.748 126.608C80.528 126.88 80.354 127.196 80.226 127.556C80.098 127.912 80.034 128.288 80.034 128.684C80.034 129.14 80.106 129.478 80.25 129.698C80.398 129.914 80.606 130.022 80.874 130.022C81.054 130.022 81.23 129.964 81.402 129.848C81.574 129.728 81.736 129.566 81.888 129.362C82.044 129.154 82.188 128.91 82.32 128.63C82.452 128.35 82.566 128.046 82.662 127.718L82.908 125.744ZM82.5 129.572C82.36 129.804 82.21 130.014 82.05 130.202C81.894 130.386 81.728 130.544 81.552 130.676C81.376 130.808 81.19 130.91 80.994 130.982C80.798 131.054 80.594 131.09 80.382 131.09C80.146 131.09 79.928 131.044 79.728 130.952C79.528 130.86 79.356 130.722 79.212 130.538C79.068 130.354 78.954 130.128 78.87 129.86C78.79 129.588 78.75 129.274 78.75 128.918C78.75 128.554 78.796 128.2 78.888 127.856C78.98 127.508 79.11 127.182 79.278 126.878C79.446 126.57 79.648 126.288 79.884 126.032C80.12 125.776 80.384 125.556 80.676 125.372C80.968 125.188 81.282 125.046 81.618 124.946C81.958 124.842 82.314 124.79 82.686 124.79C82.954 124.79 83.22 124.812 83.484 124.856C83.748 124.896 84.006 124.968 84.258 125.072L83.526 131H82.848C82.684 131 82.572 130.958 82.512 130.874C82.452 130.79 82.422 130.686 82.422 130.562L82.5 129.572ZM90.7513 124.88L87.7153 131H86.6353L85.0813 124.88H86.1313C86.2233 124.88 86.2973 124.906 86.3533 124.958C86.4093 125.006 86.4433 125.064 86.4553 125.132L87.2233 128.696C87.2553 128.876 87.2793 129.052 87.2953 129.224C87.3113 129.396 87.3253 129.57 87.3373 129.746C87.3933 129.574 87.4513 129.402 87.5113 129.23C87.5713 129.058 87.6393 128.88 87.7153 128.696L89.3773 125.132C89.4093 125.06 89.4573 125 89.5213 124.952C89.5893 124.904 89.6633 124.88 89.7433 124.88H90.7513ZM93.8131 125.708C93.5891 125.708 93.3811 125.754 93.1891 125.846C93.0011 125.938 92.8311 126.066 92.6791 126.23C92.5311 126.39 92.4011 126.582 92.2891 126.806C92.1811 127.03 92.0971 127.274 92.0371 127.538C92.5891 127.466 93.0331 127.386 93.3691 127.298C93.7051 127.21 93.9631 127.114 94.1431 127.01C94.3231 126.906 94.4431 126.796 94.5031 126.68C94.5631 126.56 94.5931 126.434 94.5931 126.302C94.5931 126.238 94.5791 126.17 94.5511 126.098C94.5231 126.026 94.4771 125.962 94.4131 125.906C94.3531 125.85 94.2731 125.804 94.1731 125.768C94.0731 125.728 93.9531 125.708 93.8131 125.708ZM95.6071 129.866C95.3991 130.078 95.1951 130.262 94.9951 130.418C94.7951 130.57 94.5911 130.696 94.3831 130.796C94.1751 130.896 93.9571 130.97 93.7291 131.018C93.5011 131.066 93.2531 131.09 92.9851 131.09C92.6291 131.09 92.3091 131.03 92.0251 130.91C91.7411 130.79 91.4971 130.622 91.2931 130.406C91.0931 130.186 90.9391 129.922 90.8311 129.614C90.7231 129.302 90.6691 128.954 90.6691 128.57C90.6691 128.25 90.7031 127.936 90.7711 127.628C90.8391 127.316 90.9371 127.02 91.0651 126.74C91.1971 126.46 91.3551 126.202 91.5391 125.966C91.7271 125.726 91.9391 125.52 92.1751 125.348C92.4151 125.176 92.6771 125.042 92.9611 124.946C93.2491 124.846 93.5571 124.796 93.8851 124.796C94.2011 124.796 94.4751 124.842 94.7071 124.934C94.9391 125.022 95.1311 125.138 95.2831 125.282C95.4391 125.422 95.5551 125.578 95.6311 125.75C95.7071 125.922 95.7451 126.09 95.7451 126.254C95.7451 126.522 95.6891 126.768 95.5771 126.992C95.4691 127.216 95.2731 127.418 94.9891 127.598C94.7051 127.778 94.3151 127.934 93.8191 128.066C93.3271 128.198 92.6951 128.304 91.9231 128.384C91.9191 128.408 91.9171 128.434 91.9171 128.462C91.9171 128.486 91.9171 128.512 91.9171 128.54C91.9171 129.048 92.0271 129.432 92.2471 129.692C92.4671 129.948 92.7971 130.076 93.2371 130.076C93.5131 130.076 93.7431 130.038 93.9271 129.962C94.1111 129.886 94.2671 129.804 94.3951 129.716C94.5271 129.624 94.6411 129.54 94.7371 129.464C94.8371 129.388 94.9411 129.35 95.0491 129.35C95.1331 129.35 95.2111 129.39 95.2831 129.47L95.6071 129.866ZM99.171 131L99.909 124.868H100.557C100.697 124.868 100.803 124.904 100.875 124.976C100.951 125.044 100.989 125.152 100.989 125.3L100.935 126.164C101.223 125.704 101.535 125.36 101.871 125.132C102.211 124.9 102.569 124.784 102.945 124.784C103.337 124.784 103.637 124.918 103.845 125.186C104.053 125.45 104.165 125.832 104.181 126.332C104.477 125.8 104.807 125.41 105.171 125.162C105.535 124.91 105.925 124.784 106.341 124.784C106.861 124.784 107.239 124.986 107.475 125.39C107.711 125.794 107.785 126.366 107.697 127.106L107.235 131H105.969L106.425 127.106C106.453 126.89 106.463 126.704 106.455 126.548C106.451 126.388 106.427 126.258 106.383 126.158C106.343 126.054 106.281 125.978 106.197 125.93C106.117 125.882 106.011 125.858 105.879 125.858C105.719 125.858 105.559 125.9 105.399 125.984C105.243 126.068 105.093 126.19 104.949 126.35C104.805 126.51 104.671 126.706 104.547 126.938C104.423 127.17 104.313 127.434 104.217 127.73L103.833 131H102.567L103.029 127.106C103.057 126.89 103.069 126.704 103.065 126.548C103.061 126.388 103.039 126.258 102.999 126.158C102.959 126.054 102.899 125.978 102.819 125.93C102.739 125.882 102.633 125.858 102.501 125.858C102.325 125.858 102.157 125.904 101.997 125.996C101.837 126.084 101.685 126.212 101.541 126.38C101.397 126.548 101.263 126.754 101.139 126.998C101.015 127.238 100.905 127.51 100.809 127.814L100.431 131H99.171ZM114.339 124.88L113.601 131H112.959C112.647 131 112.491 130.848 112.491 130.544L112.551 129.662C112.239 130.138 111.889 130.496 111.501 130.736C111.117 130.972 110.721 131.09 110.313 131.09C110.057 131.09 109.829 131.04 109.629 130.94C109.429 130.836 109.265 130.686 109.137 130.49C109.009 130.29 108.921 130.046 108.873 129.758C108.825 129.47 108.823 129.14 108.867 128.768L109.329 124.88H110.613L110.151 128.768C110.095 129.204 110.119 129.522 110.223 129.722C110.331 129.922 110.523 130.022 110.799 130.022C110.967 130.022 111.141 129.976 111.321 129.884C111.501 129.788 111.675 129.654 111.843 129.482C112.011 129.31 112.167 129.102 112.311 128.858C112.455 128.614 112.577 128.342 112.677 128.042L113.055 124.88H114.339ZM115.097 131L116.171 122.12H117.443L116.363 131H115.097ZM124.006 125.876L123.376 131H122.134L122.764 125.876H120.076L119.722 128.708C119.702 128.872 119.686 129.004 119.674 129.104C119.662 129.2 119.652 129.278 119.644 129.338C119.64 129.394 119.636 129.434 119.632 129.458C119.632 129.478 119.632 129.494 119.632 129.506C119.632 129.682 119.674 129.816 119.758 129.908C119.842 130 119.96 130.046 120.112 130.046C120.204 130.046 120.284 130.034 120.352 130.01C120.424 129.982 120.484 129.954 120.532 129.926C120.584 129.894 120.628 129.866 120.664 129.842C120.704 129.814 120.74 129.8 120.772 129.8C120.812 129.8 120.842 129.81 120.862 129.83C120.882 129.846 120.902 129.876 120.922 129.92L121.198 130.55C120.99 130.726 120.756 130.862 120.496 130.958C120.24 131.05 119.98 131.096 119.716 131.096C119.3 131.096 118.972 130.984 118.732 130.76C118.496 130.532 118.372 130.21 118.36 129.794C118.36 129.766 118.36 129.734 118.36 129.698C118.36 129.658 118.362 129.602 118.366 129.53C118.374 129.458 118.384 129.362 118.396 129.242C118.412 129.122 118.432 128.968 118.456 128.78L118.816 125.876H118.21C118.142 125.876 118.086 125.854 118.042 125.81C118.002 125.762 117.986 125.694 117.994 125.606L118.054 125.108L118.978 124.964L119.452 123.182C119.476 123.114 119.512 123.06 119.56 123.02C119.612 122.976 119.676 122.954 119.752 122.954H120.436L120.184 124.976H124.114L124.006 125.876ZM124.63 123.032C124.63 123.148 124.606 123.258 124.558 123.362C124.51 123.466 124.446 123.558 124.366 123.638C124.286 123.714 124.196 123.776 124.096 123.824C123.996 123.868 123.892 123.89 123.784 123.89C123.676 123.89 123.572 123.868 123.472 123.824C123.376 123.776 123.29 123.714 123.214 123.638C123.142 123.558 123.082 123.466 123.034 123.362C122.99 123.258 122.968 123.148 122.968 123.032C122.968 122.916 122.99 122.806 123.034 122.702C123.082 122.594 123.144 122.502 123.22 122.426C123.296 122.346 123.384 122.284 123.484 122.24C123.584 122.192 123.686 122.168 123.79 122.168C123.898 122.168 124.002 122.192 124.102 122.24C124.206 122.284 124.296 122.346 124.372 122.426C124.452 122.502 124.514 122.592 124.558 122.696C124.606 122.8 124.63 122.912 124.63 123.032ZM126.339 129.608C126.483 129.788 126.651 129.914 126.843 129.986C127.039 130.058 127.233 130.094 127.425 130.094C127.617 130.094 127.797 130.054 127.965 129.974C128.133 129.894 128.287 129.784 128.427 129.644C128.567 129.504 128.693 129.34 128.805 129.152C128.917 128.96 129.011 128.756 129.087 128.54C129.163 128.324 129.221 128.1 129.261 127.868C129.301 127.632 129.321 127.4 129.321 127.172C129.321 126.72 129.243 126.382 129.087 126.158C128.935 125.93 128.717 125.816 128.433 125.816C128.257 125.816 128.079 125.874 127.899 125.99C127.719 126.102 127.545 126.26 127.377 126.464C127.209 126.668 127.051 126.908 126.903 127.184C126.755 127.46 126.629 127.76 126.525 128.084L126.339 129.608ZM126.675 126.356C126.823 126.116 126.983 125.9 127.155 125.708C127.331 125.516 127.513 125.352 127.701 125.216C127.893 125.076 128.091 124.97 128.295 124.898C128.503 124.822 128.715 124.784 128.931 124.784C129.187 124.784 129.417 124.832 129.621 124.928C129.829 125.02 130.005 125.162 130.149 125.354C130.293 125.542 130.403 125.778 130.479 126.062C130.559 126.342 130.599 126.67 130.599 127.046C130.599 127.386 130.563 127.722 130.491 128.054C130.423 128.386 130.325 128.702 130.197 129.002C130.069 129.298 129.913 129.574 129.729 129.83C129.549 130.086 129.349 130.308 129.129 130.496C128.909 130.68 128.671 130.826 128.415 130.934C128.159 131.038 127.893 131.09 127.617 131.09C127.329 131.09 127.067 131.036 126.831 130.928C126.599 130.82 126.399 130.67 126.231 130.478L125.919 133.034H124.665L125.661 124.868H126.309C126.449 124.868 126.555 124.904 126.627 124.976C126.703 125.044 126.741 125.152 126.741 125.3L126.675 126.356ZM131.351 131L132.425 122.12H133.697L132.617 131H131.351ZM137.266 125.708C137.042 125.708 136.834 125.754 136.642 125.846C136.454 125.938 136.284 126.066 136.132 126.23C135.984 126.39 135.854 126.582 135.742 126.806C135.634 127.03 135.55 127.274 135.49 127.538C136.042 127.466 136.486 127.386 136.822 127.298C137.158 127.21 137.416 127.114 137.596 127.01C137.776 126.906 137.896 126.796 137.956 126.68C138.016 126.56 138.046 126.434 138.046 126.302C138.046 126.238 138.032 126.17 138.004 126.098C137.976 126.026 137.93 125.962 137.866 125.906C137.806 125.85 137.726 125.804 137.626 125.768C137.526 125.728 137.406 125.708 137.266 125.708ZM139.06 129.866C138.852 130.078 138.648 130.262 138.448 130.418C138.248 130.57 138.044 130.696 137.836 130.796C137.628 130.896 137.41 130.97 137.182 131.018C136.954 131.066 136.706 131.09 136.438 131.09C136.082 131.09 135.762 131.03 135.478 130.91C135.194 130.79 134.95 130.622 134.746 130.406C134.546 130.186 134.392 129.922 134.284 129.614C134.176 129.302 134.122 128.954 134.122 128.57C134.122 128.25 134.156 127.936 134.224 127.628C134.292 127.316 134.39 127.02 134.518 126.74C134.65 126.46 134.808 126.202 134.992 125.966C135.18 125.726 135.392 125.52 135.628 125.348C135.868 125.176 136.13 125.042 136.414 124.946C136.702 124.846 137.01 124.796 137.338 124.796C137.654 124.796 137.928 124.842 138.16 124.934C138.392 125.022 138.584 125.138 138.736 125.282C138.892 125.422 139.008 125.578 139.084 125.75C139.16 125.922 139.198 126.09 139.198 126.254C139.198 126.522 139.142 126.768 139.03 126.992C138.922 127.216 138.726 127.418 138.442 127.598C138.158 127.778 137.768 127.934 137.272 128.066C136.78 128.198 136.148 128.304 135.376 128.384C135.372 128.408 135.37 128.434 135.37 128.462C135.37 128.486 135.37 128.512 135.37 128.54C135.37 129.048 135.48 129.432 135.7 129.692C135.92 129.948 136.25 130.076 136.69 130.076C136.966 130.076 137.196 130.038 137.38 129.962C137.564 129.886 137.72 129.804 137.848 129.716C137.98 129.624 138.094 129.54 138.19 129.464C138.29 129.388 138.394 129.35 138.502 129.35C138.586 129.35 138.664 129.39 138.736 129.47L139.06 129.866Z" fill="#3B438C"/>
    <rect width="60" height="38" transform="translate(69 284)" fill="white"/>
    <path d="M78.336 299.932C78.588 299.932 78.81 299.912 79.002 299.872C79.198 299.832 79.368 299.782 79.512 299.722C79.656 299.658 79.778 299.59 79.878 299.518C79.982 299.446 80.072 299.38 80.148 299.32C80.224 299.256 80.29 299.204 80.346 299.164C80.402 299.124 80.456 299.104 80.508 299.104C80.552 299.104 80.588 299.114 80.616 299.134C80.644 299.15 80.666 299.168 80.682 299.188L81.156 299.782C80.784 300.198 80.346 300.522 79.842 300.754C79.338 300.982 78.76 301.096 78.108 301.096C77.584 301.096 77.116 301.002 76.704 300.814C76.292 300.626 75.944 300.366 75.66 300.034C75.376 299.702 75.158 299.306 75.006 298.846C74.858 298.386 74.784 297.884 74.784 297.34C74.784 296.592 74.902 295.908 75.138 295.288C75.374 294.664 75.698 294.128 76.11 293.68C76.522 293.232 77.004 292.884 77.556 292.636C78.112 292.388 78.708 292.264 79.344 292.264C79.656 292.264 79.938 292.292 80.19 292.348C80.446 292.404 80.676 292.484 80.88 292.588C81.088 292.688 81.276 292.81 81.444 292.954C81.612 293.098 81.766 293.258 81.906 293.434L81.444 293.998C81.408 294.042 81.366 294.08 81.318 294.112C81.27 294.144 81.21 294.16 81.138 294.16C81.086 294.16 81.034 294.142 80.982 294.106C80.93 294.07 80.872 294.026 80.808 293.974C80.744 293.918 80.668 293.86 80.58 293.8C80.496 293.736 80.394 293.678 80.274 293.626C80.154 293.57 80.012 293.524 79.848 293.488C79.688 293.452 79.498 293.434 79.278 293.434C78.838 293.434 78.428 293.524 78.048 293.704C77.668 293.88 77.338 294.132 77.058 294.46C76.782 294.788 76.564 295.186 76.404 295.654C76.244 296.122 76.164 296.646 76.164 297.226C76.164 297.646 76.218 298.024 76.326 298.36C76.434 298.696 76.584 298.98 76.776 299.212C76.968 299.444 77.196 299.622 77.46 299.746C77.728 299.87 78.02 299.932 78.336 299.932ZM86.0194 295.744C85.9514 295.736 85.8834 295.73 85.8154 295.726C85.7514 295.722 85.6854 295.72 85.6174 295.72C85.2734 295.72 84.9494 295.8 84.6454 295.96C84.3454 296.12 84.0834 296.336 83.8594 296.608C83.6394 296.88 83.4654 297.196 83.3374 297.556C83.2094 297.912 83.1454 298.288 83.1454 298.684C83.1454 299.14 83.2174 299.478 83.3614 299.698C83.5094 299.914 83.7174 300.022 83.9854 300.022C84.1654 300.022 84.3414 299.964 84.5134 299.848C84.6854 299.728 84.8474 299.566 84.9994 299.362C85.1554 299.154 85.2994 298.91 85.4314 298.63C85.5634 298.35 85.6774 298.046 85.7734 297.718L86.0194 295.744ZM85.6114 299.572C85.4714 299.804 85.3214 300.014 85.1614 300.202C85.0054 300.386 84.8394 300.544 84.6634 300.676C84.4874 300.808 84.3014 300.91 84.1054 300.982C83.9094 301.054 83.7054 301.09 83.4934 301.09C83.2574 301.09 83.0394 301.044 82.8394 300.952C82.6394 300.86 82.4674 300.722 82.3234 300.538C82.1794 300.354 82.0654 300.128 81.9814 299.86C81.9014 299.588 81.8614 299.274 81.8614 298.918C81.8614 298.554 81.9074 298.2 81.9994 297.856C82.0914 297.508 82.2214 297.182 82.3894 296.878C82.5574 296.57 82.7594 296.288 82.9954 296.032C83.2314 295.776 83.4954 295.556 83.7874 295.372C84.0794 295.188 84.3934 295.046 84.7294 294.946C85.0694 294.842 85.4254 294.79 85.7974 294.79C86.0654 294.79 86.3314 294.812 86.5954 294.856C86.8594 294.896 87.1174 294.968 87.3694 295.072L86.6374 301H85.9594C85.7954 301 85.6834 300.958 85.6234 300.874C85.5634 300.79 85.5334 300.686 85.5334 300.562L85.6114 299.572ZM89.8606 296.266C90.1766 295.77 90.5306 295.4 90.9226 295.156C91.3146 294.908 91.7186 294.784 92.1346 294.784C92.3906 294.784 92.6186 294.836 92.8186 294.94C93.0186 295.04 93.1826 295.19 93.3106 295.39C93.4386 295.586 93.5266 295.828 93.5746 296.116C93.6226 296.404 93.6246 296.734 93.5806 297.106L93.1186 301H91.8346L92.2966 297.106C92.3526 296.67 92.3266 296.354 92.2186 296.158C92.1146 295.958 91.9246 295.858 91.6486 295.858C91.4726 295.858 91.2906 295.908 91.1026 296.008C90.9186 296.108 90.7406 296.25 90.5686 296.434C90.4006 296.614 90.2426 296.834 90.0946 297.094C89.9466 297.35 89.8246 297.636 89.7286 297.952L89.3926 301H88.1086L88.8406 294.868H89.4886C89.6286 294.868 89.7346 294.904 89.8066 294.976C89.8826 295.044 89.9206 295.152 89.9206 295.3L89.8606 296.266ZM99.1272 296.062C99.4352 295.638 99.7712 295.32 100.135 295.108C100.499 294.892 100.873 294.784 101.257 294.784C101.517 294.784 101.747 294.836 101.947 294.94C102.151 295.04 102.317 295.19 102.445 295.39C102.573 295.586 102.661 295.828 102.709 296.116C102.757 296.404 102.757 296.734 102.709 297.106L102.253 301H100.969L101.425 297.106C101.481 296.67 101.457 296.352 101.353 296.152C101.249 295.948 101.057 295.846 100.777 295.846C100.609 295.846 100.435 295.894 100.255 295.99C100.079 296.082 99.9092 296.214 99.7452 296.386C99.5812 296.554 99.4252 296.76 99.2772 297.004C99.1332 297.244 99.0112 297.512 98.9112 297.808L98.5272 301H97.2432L98.3172 292.12H99.6012L99.1272 296.062ZM107.781 295.744C107.713 295.736 107.645 295.73 107.577 295.726C107.513 295.722 107.447 295.72 107.379 295.72C107.035 295.72 106.711 295.8 106.407 295.96C106.107 296.12 105.845 296.336 105.621 296.608C105.401 296.88 105.227 297.196 105.099 297.556C104.971 297.912 104.907 298.288 104.907 298.684C104.907 299.14 104.979 299.478 105.123 299.698C105.271 299.914 105.479 300.022 105.747 300.022C105.927 300.022 106.103 299.964 106.275 299.848C106.447 299.728 106.609 299.566 106.761 299.362C106.917 299.154 107.061 298.91 107.193 298.63C107.325 298.35 107.439 298.046 107.535 297.718L107.781 295.744ZM107.373 299.572C107.233 299.804 107.083 300.014 106.923 300.202C106.767 300.386 106.601 300.544 106.425 300.676C106.249 300.808 106.063 300.91 105.867 300.982C105.671 301.054 105.467 301.09 105.255 301.09C105.019 301.09 104.801 301.044 104.601 300.952C104.401 300.86 104.229 300.722 104.085 300.538C103.941 300.354 103.827 300.128 103.743 299.86C103.663 299.588 103.623 299.274 103.623 298.918C103.623 298.554 103.669 298.2 103.761 297.856C103.853 297.508 103.983 297.182 104.151 296.878C104.319 296.57 104.521 296.288 104.757 296.032C104.993 295.776 105.257 295.556 105.549 295.372C105.841 295.188 106.155 295.046 106.491 294.946C106.831 294.842 107.187 294.79 107.559 294.79C107.827 294.79 108.093 294.812 108.357 294.856C108.621 294.896 108.879 294.968 109.131 295.072L108.399 301H107.721C107.557 301 107.445 300.958 107.385 300.874C107.325 300.79 107.295 300.686 107.295 300.562L107.373 299.572ZM115.624 294.88L112.588 301H111.508L109.954 294.88H111.004C111.096 294.88 111.17 294.906 111.226 294.958C111.282 295.006 111.316 295.064 111.328 295.132L112.096 298.696C112.128 298.876 112.152 299.052 112.168 299.224C112.184 299.396 112.198 299.57 112.21 299.746C112.266 299.574 112.324 299.402 112.384 299.23C112.444 299.058 112.512 298.88 112.588 298.696L114.25 295.132C114.282 295.06 114.33 295 114.394 294.952C114.462 294.904 114.536 294.88 114.616 294.88H115.624ZM118.686 295.708C118.462 295.708 118.254 295.754 118.062 295.846C117.874 295.938 117.704 296.066 117.552 296.23C117.404 296.39 117.274 296.582 117.162 296.806C117.054 297.03 116.97 297.274 116.91 297.538C117.462 297.466 117.906 297.386 118.242 297.298C118.578 297.21 118.836 297.114 119.016 297.01C119.196 296.906 119.316 296.796 119.376 296.68C119.436 296.56 119.466 296.434 119.466 296.302C119.466 296.238 119.452 296.17 119.424 296.098C119.396 296.026 119.35 295.962 119.286 295.906C119.226 295.85 119.146 295.804 119.046 295.768C118.946 295.728 118.826 295.708 118.686 295.708ZM120.48 299.866C120.272 300.078 120.068 300.262 119.868 300.418C119.668 300.57 119.464 300.696 119.256 300.796C119.048 300.896 118.83 300.97 118.602 301.018C118.374 301.066 118.126 301.09 117.858 301.09C117.502 301.09 117.182 301.03 116.898 300.91C116.614 300.79 116.37 300.622 116.166 300.406C115.966 300.186 115.812 299.922 115.704 299.614C115.596 299.302 115.542 298.954 115.542 298.57C115.542 298.25 115.576 297.936 115.644 297.628C115.712 297.316 115.81 297.02 115.938 296.74C116.07 296.46 116.228 296.202 116.412 295.966C116.6 295.726 116.812 295.52 117.048 295.348C117.288 295.176 117.55 295.042 117.834 294.946C118.122 294.846 118.43 294.796 118.758 294.796C119.074 294.796 119.348 294.842 119.58 294.934C119.812 295.022 120.004 295.138 120.156 295.282C120.312 295.422 120.428 295.578 120.504 295.75C120.58 295.922 120.618 296.09 120.618 296.254C120.618 296.522 120.562 296.768 120.45 296.992C120.342 297.216 120.146 297.418 119.862 297.598C119.578 297.778 119.188 297.934 118.692 298.066C118.2 298.198 117.568 298.304 116.796 298.384C116.792 298.408 116.79 298.434 116.79 298.462C116.79 298.486 116.79 298.512 116.79 298.54C116.79 299.048 116.9 299.432 117.12 299.692C117.34 299.948 117.67 300.076 118.11 300.076C118.386 300.076 118.616 300.038 118.8 299.962C118.984 299.886 119.14 299.804 119.268 299.716C119.4 299.624 119.514 299.54 119.61 299.464C119.71 299.388 119.814 299.35 119.922 299.35C120.006 299.35 120.084 299.39 120.156 299.47L120.48 299.866ZM78.921 315L79.659 308.868H80.307C80.447 308.868 80.553 308.904 80.625 308.976C80.701 309.044 80.739 309.152 80.739 309.3L80.685 310.164C80.973 309.704 81.285 309.36 81.621 309.132C81.961 308.9 82.319 308.784 82.695 308.784C83.087 308.784 83.387 308.918 83.595 309.186C83.803 309.45 83.915 309.832 83.931 310.332C84.227 309.8 84.557 309.41 84.921 309.162C85.285 308.91 85.675 308.784 86.091 308.784C86.611 308.784 86.989 308.986 87.225 309.39C87.461 309.794 87.535 310.366 87.447 311.106L86.985 315H85.719L86.175 311.106C86.203 310.89 86.213 310.704 86.205 310.548C86.201 310.388 86.177 310.258 86.133 310.158C86.093 310.054 86.031 309.978 85.947 309.93C85.867 309.882 85.761 309.858 85.629 309.858C85.469 309.858 85.309 309.9 85.149 309.984C84.993 310.068 84.843 310.19 84.699 310.35C84.555 310.51 84.421 310.706 84.297 310.938C84.173 311.17 84.063 311.434 83.967 311.73L83.583 315H82.317L82.779 311.106C82.807 310.89 82.819 310.704 82.815 310.548C82.811 310.388 82.789 310.258 82.749 310.158C82.709 310.054 82.649 309.978 82.569 309.93C82.489 309.882 82.383 309.858 82.251 309.858C82.075 309.858 81.907 309.904 81.747 309.996C81.587 310.084 81.435 310.212 81.291 310.38C81.147 310.548 81.013 310.754 80.889 310.998C80.765 311.238 80.655 311.51 80.559 311.814L80.181 315H78.921ZM94.0894 308.88L93.3514 315H92.7094C92.3974 315 92.2414 314.848 92.2414 314.544L92.3014 313.662C91.9894 314.138 91.6394 314.496 91.2514 314.736C90.8674 314.972 90.4714 315.09 90.0634 315.09C89.8074 315.09 89.5794 315.04 89.3794 314.94C89.1794 314.836 89.0154 314.686 88.8874 314.49C88.7594 314.29 88.6714 314.046 88.6234 313.758C88.5754 313.47 88.5734 313.14 88.6174 312.768L89.0794 308.88H90.3634L89.9014 312.768C89.8454 313.204 89.8694 313.522 89.9734 313.722C90.0814 313.922 90.2734 314.022 90.5494 314.022C90.7174 314.022 90.8914 313.976 91.0714 313.884C91.2514 313.788 91.4254 313.654 91.5934 313.482C91.7614 313.31 91.9174 313.102 92.0614 312.858C92.2054 312.614 92.3274 312.342 92.4274 312.042L92.8054 308.88H94.0894ZM94.8473 315L95.9213 306.12H97.1933L96.1133 315H94.8473ZM103.756 309.876L103.126 315H101.884L102.514 309.876H99.8264L99.4724 312.708C99.4524 312.872 99.4364 313.004 99.4244 313.104C99.4124 313.2 99.4024 313.278 99.3944 313.338C99.3904 313.394 99.3864 313.434 99.3824 313.458C99.3824 313.478 99.3824 313.494 99.3824 313.506C99.3824 313.682 99.4244 313.816 99.5084 313.908C99.5924 314 99.7104 314.046 99.8624 314.046C99.9544 314.046 100.034 314.034 100.102 314.01C100.174 313.982 100.234 313.954 100.282 313.926C100.334 313.894 100.378 313.866 100.414 313.842C100.454 313.814 100.49 313.8 100.522 313.8C100.562 313.8 100.592 313.81 100.612 313.83C100.632 313.846 100.652 313.876 100.672 313.92L100.948 314.55C100.74 314.726 100.506 314.862 100.246 314.958C99.9904 315.05 99.7304 315.096 99.4664 315.096C99.0504 315.096 98.7224 314.984 98.4824 314.76C98.2464 314.532 98.1224 314.21 98.1104 313.794C98.1104 313.766 98.1104 313.734 98.1104 313.698C98.1104 313.658 98.1124 313.602 98.1164 313.53C98.1244 313.458 98.1344 313.362 98.1464 313.242C98.1624 313.122 98.1824 312.968 98.2064 312.78L98.5664 309.876H97.9604C97.8924 309.876 97.8364 309.854 97.7924 309.81C97.7524 309.762 97.7364 309.694 97.7444 309.606L97.8044 309.108L98.7284 308.964L99.2024 307.182C99.2264 307.114 99.2624 307.06 99.3104 307.02C99.3624 306.976 99.4264 306.954 99.5024 306.954H100.186L99.9344 308.976H103.864L103.756 309.876ZM104.38 307.032C104.38 307.148 104.356 307.258 104.308 307.362C104.26 307.466 104.196 307.558 104.116 307.638C104.036 307.714 103.946 307.776 103.846 307.824C103.746 307.868 103.642 307.89 103.534 307.89C103.426 307.89 103.322 307.868 103.222 307.824C103.126 307.776 103.04 307.714 102.964 307.638C102.892 307.558 102.832 307.466 102.784 307.362C102.74 307.258 102.718 307.148 102.718 307.032C102.718 306.916 102.74 306.806 102.784 306.702C102.832 306.594 102.894 306.502 102.97 306.426C103.046 306.346 103.134 306.284 103.234 306.24C103.334 306.192 103.436 306.168 103.54 306.168C103.648 306.168 103.752 306.192 103.852 306.24C103.956 306.284 104.046 306.346 104.122 306.426C104.202 306.502 104.264 306.592 104.308 306.696C104.356 306.8 104.38 306.912 104.38 307.032ZM106.089 313.608C106.233 313.788 106.401 313.914 106.593 313.986C106.789 314.058 106.983 314.094 107.175 314.094C107.367 314.094 107.547 314.054 107.715 313.974C107.883 313.894 108.037 313.784 108.177 313.644C108.317 313.504 108.443 313.34 108.555 313.152C108.667 312.96 108.761 312.756 108.837 312.54C108.913 312.324 108.971 312.1 109.011 311.868C109.051 311.632 109.071 311.4 109.071 311.172C109.071 310.72 108.993 310.382 108.837 310.158C108.685 309.93 108.467 309.816 108.183 309.816C108.007 309.816 107.829 309.874 107.649 309.99C107.469 310.102 107.295 310.26 107.127 310.464C106.959 310.668 106.801 310.908 106.653 311.184C106.505 311.46 106.379 311.76 106.275 312.084L106.089 313.608ZM106.425 310.356C106.573 310.116 106.733 309.9 106.905 309.708C107.081 309.516 107.263 309.352 107.451 309.216C107.643 309.076 107.841 308.97 108.045 308.898C108.253 308.822 108.465 308.784 108.681 308.784C108.937 308.784 109.167 308.832 109.371 308.928C109.579 309.02 109.755 309.162 109.899 309.354C110.043 309.542 110.153 309.778 110.229 310.062C110.309 310.342 110.349 310.67 110.349 311.046C110.349 311.386 110.313 311.722 110.241 312.054C110.173 312.386 110.075 312.702 109.947 313.002C109.819 313.298 109.663 313.574 109.479 313.83C109.299 314.086 109.099 314.308 108.879 314.496C108.659 314.68 108.421 314.826 108.165 314.934C107.909 315.038 107.643 315.09 107.367 315.09C107.079 315.09 106.817 315.036 106.581 314.928C106.349 314.82 106.149 314.67 105.981 314.478L105.669 317.034H104.415L105.411 308.868H106.059C106.199 308.868 106.305 308.904 106.377 308.976C106.453 309.044 106.491 309.152 106.491 309.3L106.425 310.356ZM111.101 315L112.175 306.12H113.447L112.367 315H111.101ZM117.016 309.708C116.792 309.708 116.584 309.754 116.392 309.846C116.204 309.938 116.034 310.066 115.882 310.23C115.734 310.39 115.604 310.582 115.492 310.806C115.384 311.03 115.3 311.274 115.24 311.538C115.792 311.466 116.236 311.386 116.572 311.298C116.908 311.21 117.166 311.114 117.346 311.01C117.526 310.906 117.646 310.796 117.706 310.68C117.766 310.56 117.796 310.434 117.796 310.302C117.796 310.238 117.782 310.17 117.754 310.098C117.726 310.026 117.68 309.962 117.616 309.906C117.556 309.85 117.476 309.804 117.376 309.768C117.276 309.728 117.156 309.708 117.016 309.708ZM118.81 313.866C118.602 314.078 118.398 314.262 118.198 314.418C117.998 314.57 117.794 314.696 117.586 314.796C117.378 314.896 117.16 314.97 116.932 315.018C116.704 315.066 116.456 315.09 116.188 315.09C115.832 315.09 115.512 315.03 115.228 314.91C114.944 314.79 114.7 314.622 114.496 314.406C114.296 314.186 114.142 313.922 114.034 313.614C113.926 313.302 113.872 312.954 113.872 312.57C113.872 312.25 113.906 311.936 113.974 311.628C114.042 311.316 114.14 311.02 114.268 310.74C114.4 310.46 114.558 310.202 114.742 309.966C114.93 309.726 115.142 309.52 115.378 309.348C115.618 309.176 115.88 309.042 116.164 308.946C116.452 308.846 116.76 308.796 117.088 308.796C117.404 308.796 117.678 308.842 117.91 308.934C118.142 309.022 118.334 309.138 118.486 309.282C118.642 309.422 118.758 309.578 118.834 309.75C118.91 309.922 118.948 310.09 118.948 310.254C118.948 310.522 118.892 310.768 118.78 310.992C118.672 311.216 118.476 311.418 118.192 311.598C117.908 311.778 117.518 311.934 117.022 312.066C116.53 312.198 115.898 312.304 115.126 312.384C115.122 312.408 115.12 312.434 115.12 312.462C115.12 312.486 115.12 312.512 115.12 312.54C115.12 313.048 115.23 313.432 115.45 313.692C115.67 313.948 116 314.076 116.44 314.076C116.716 314.076 116.946 314.038 117.13 313.962C117.314 313.886 117.47 313.804 117.598 313.716C117.73 313.624 117.844 313.54 117.94 313.464C118.04 313.388 118.144 313.35 118.252 313.35C118.336 313.35 118.414 313.39 118.486 313.47L118.81 313.866Z" fill="#3B438C"/>
    <defs>
        <filter id="filter0_d_45_1133" x="7" y="375" width="184" height="68" filterUnits="userSpaceOnUse" color-interpolation-filters="sRGB">
            <feFlood flood-opacity="0" result="BackgroundImageFix"/>
            <feColorMatrix in="SourceAlpha" type="matrix" values="0 0 0 0 0 0 0 0 0 0 0 0 0 0 0 0 0 0 127 0" result="hardAlpha"/>
            <feOffset dx="2" dy="2"/>
            <feGaussianBlur stdDeviation="7.5"/>
            <feComposite in2="hardAlpha" operator="out"/>
            <feColorMatrix type="matrix" values="0 0 0 0 0.780392 0 0 0 0 0.796078 0 0 0 0 0.831373 0 0 0 0.77 0"/>
            <feBlend mode="normal" in2="BackgroundImageFix" result="effect1_dropShadow_45_1133"/>
            <feBlend mode="normal" in="SourceGraphic" in2="effect1_dropShadow_45_1133" result="shape"/>
        </filter>
        <filter id="filter1_d_45_1133" x="7" y="191" width="184" height="68" filterUnits="userSpaceOnUse" color-interpolation-filters="sRGB">
            <feFlood flood-opacity="0" result="BackgroundImageFix"/>
            <feColorMatrix in="SourceAlpha" type="matrix" values="0 0 0 0 0 0 0 0 0 0 0 0 0 0 0 0 0 0 127 0" result="hardAlpha"/>
            <feOffset dx="2" dy="2"/>
            <feGaussianBlur stdDeviation="7.5"/>
            <feComposite in2="hardAlpha" operator="out"/>
            <feColorMatrix type="matrix" values="0 0 0 0 0.780392 0 0 0 0 0.796078 0 0 0 0 0.831373 0 0 0 0.77 0"/>
            <feBlend mode="normal" in2="BackgroundImageFix" result="effect1_dropShadow_45_1133"/>
            <feBlend mode="normal" in="SourceGraphic" in2="effect1_dropShadow_45_1133" result="shape"/>
        </filter>
        <filter id="filter2_d_45_1133" x="7" y="7" width="184" height="68" filterUnits="userSpaceOnUse" color-interpolation-filters="sRGB">
            <feFlood flood-opacity="0" result="BackgroundImageFix"/>
            <feColorMatrix in="SourceAlpha" type="matrix" values="0 0 0 0 0 0 0 0 0 0 0 0 0 0 0 0 0 0 127 0" result="hardAlpha"/>
            <feOffset dx="2" dy="2"/>
            <feGaussianBlur stdDeviation="7.5"/>
            <feComposite in2="hardAlpha" operator="out"/>
            <feColorMatrix type="matrix" values="0 0 0 0 0.780392 0 0 0 0 0.796078 0 0 0 0 0.831373 0 0 0 0.77 0"/>
            <feBlend mode="normal" in2="BackgroundImageFix" result="effect1_dropShadow_45_1133"/>
            <feBlend mode="normal" in="SourceGraphic" in2="effect1_dropShadow_45_1133" result="shape"/>
        </filter>
    </defs>
</svg>
