<svg width="24" height="24" xmlns="http://www.w3.org/2000/svg">
  <g fill="none" fill-rule="evenodd">
    <circle stroke="#5563B6" cx="7" cy="17" r="6"/>
    <circle stroke="#5563B6" cx="7" cy="17" r="3"/>
    <path stroke="#5563B6" stroke-linecap="round" d="M17.5 7.5l-1-4M21.5 7.5l1-4"/>
    <path stroke="#5563B6" stroke-linecap="square" d="M13.5 17.5h6"/>
    <path d="M3.25 8V6.437h.642c.272 0 .51-.035.715-.104.205-.069.377-.165.514-.288.138-.122.242-.27.313-.44.07-.171.104-.36.104-.566 0-.202-.033-.386-.099-.553a1.106 1.106 0 00-.301-.43 1.414 1.414 0 00-.513-.277 2.424 2.424 0 00-.733-.099H2.546V8h.702zm.642-2.118h-.643V4.229h.643c.16 0 .299.018.418.056.119.037.218.09.296.16a.66.66 0 01.175.255c.039.1.059.213.059.339 0 .128-.02.244-.06.348a.696.696 0 01-.179.266.812.812 0 01-.297.169c-.119.04-.256.06-.413.06zM6.915 8V6.077h2.17V8h.701V3.68h-.701v1.89h-2.17V3.68H6.21V8h.705zm4.603 0V6.437h.641c.272 0 .511-.035.716-.104.205-.069.377-.165.514-.288.139-.122.243-.27.313-.44.07-.171.104-.36.104-.566 0-.202-.032-.386-.098-.553a1.106 1.106 0 00-.302-.43 1.414 1.414 0 00-.513-.277 2.424 2.424 0 00-.734-.099h-1.344V8h.703zm.641-2.118h-.642V4.229h.643c.16 0 .299.018.418.056.119.037.218.09.296.16a.66.66 0 01.175.255c.039.1.059.213.059.339 0 .128-.02.244-.06.348a.696.696 0 01-.179.266.812.812 0 01-.297.169c-.119.04-.256.06-.412.06z" fill="#5563B6" fill-rule="nonzero"/>
    <path stroke="#5563B6" stroke-linecap="square" d="M19.5 16.5v-8M20.5 1.5v1M18.5 1.5v1"/>
    <path stroke="#5563B6" stroke-linecap="round" d="M17.5 7.5h4M16.5 3.5h6"/>
  </g>
</svg>
