<svg width="24" height="24" xmlns="http://www.w3.org/2000/svg">
  <g fill-rule="nonzero" fill="none">
    <path d="M13.522.145C6.976-.695.985 3.932.145 10.478c-.84 6.546 3.787 12.537 10.333 13.377 6.546.84 12.537-3.787 13.377-10.333C24.695 6.976 20.068.985 13.522.145zm5.136 7.685l-1.204-1.204 1.527-1.527a1.812 1.812 0 01-.323 2.731zM5.001 18.584l.943-.944 1.219 1.22-2.116-.146a.078.078 0 01-.07-.084c0-.018.005-.032.024-.046zm4.842-7.074l.878.873-1.97.425a.075.075 0 01-.085-.038c-.019-.032-.014-.07.014-.093l1.163-1.167zm.462 1.83a.063.063 0 01.01-.075l.644-.644.509.509-1.098.238a.052.052 0 01-.065-.028zm6.308-4.865a.6.6 0 01-.21.443l-4.678 4.11-.584-.584 4.422-4.422a.614.614 0 011.05.453zm-1.223-.626l-4.436 4.436-.308-.308-.64-.64c4.37-4.361 5.16-4.403 5.972-3.74a.9.9 0 00-.588.252zM7.33 18.696l-.928-.93-.295-.294 3.75-3.744 1.811-.393.869.869c-1.251 1.097-2.96 2.19-5.08 3.254a.23.23 0 00-.117.257l.2.864c.015.065-.022.135-.093.15a.138.138 0 01-.116-.033zm5.384-4.65l-.835-.837L16.557 9.1a.748.748 0 00.117-.126c-.145 1.34-2.017 3.231-3.96 5.071zm3.642-6.44a1.82 1.82 0 01.005-2.568 1.81 1.81 0 012.442-.107l-1.601 1.606a.118.118 0 000 .168l1.242 1.242a1.797 1.797 0 01-2.088-.34z" fill="#FF6C37"/>
    <path d="M10.01 11.342l.64.64.309.307 4.436-4.435a.856.856 0 01.588-.252c-.813-.663-1.602-.621-5.972 3.74zM16.562 9.1l-4.679 4.11.836.835c1.942-1.84 3.815-3.73 3.964-5.075a1.61 1.61 0 01-.121.13zM8.661 12.77c.014.033.052.047.085.038l1.97-.425-.878-.873-1.167 1.167a.077.077 0 00-.01.093zM18.444 7.952L17.202 6.71a.118.118 0 010-.168l1.606-1.607a1.815 1.815 0 00-2.559.225 1.815 1.815 0 00.224 2.558 1.827 1.827 0 001.97.234z" fill="#FFF"/>
    <path d="M19.461 6.327c0-.453-.168-.892-.476-1.223L17.458 6.63l1.205 1.205a2.06 2.06 0 00.27-.22c.337-.345.528-.807.528-1.288zm-.719.546a.136.136 0 01-.018-.196.414.414 0 00.051-.448.142.142 0 01.093-.178.14.14 0 01.155.052.7.7 0 01-.084.751.145.145 0 01-.197.02zM15.563 8.022l-4.422 4.422.588.583 4.679-4.109a.614.614 0 00.056-.868l-.028-.028a.614.614 0 00-.873 0zM7.54 18.579l-.2-.864a.232.232 0 01.117-.257c2.12-1.064 3.829-2.157 5.08-3.254l-.869-.873-1.811.392-3.745 3.745.294.294.93.93a.13.13 0 00.177 0 .133.133 0 00.028-.113zM5.043 18.714l2.115.145-1.214-1.219-.943.944a.08.08 0 000 .107c.01.014.028.019.042.023zM11.468 13.135l-.51-.51-.644.645a.065.065 0 000 .089c.014.014.038.018.056.018l1.098-.242z" fill="#FFF"/>
    <path d="M19.023 6.107a.141.141 0 00-.197-.032.135.135 0 00-.05.154.423.423 0 01-.052.448.14.14 0 00.023.196.14.14 0 00.191-.023.683.683 0 00.085-.743z" fill="#FF6C37"/>
  </g>
</svg>
