<svg width="24" height="24" xmlns="http://www.w3.org/2000/svg">
  <g fill="none" fill-rule="evenodd">
    <path d="M6.5 1.5h-5m5 21h-5m0-21v21M17.5 1.5h5m-5 21h5m0-21v21" stroke="#5563B6" stroke-linecap="round"/>
    <g stroke="#5563B6" stroke-linecap="round">
      <path d="M8 4c-1.392.064-2.292.64-2.7 1.73-.348.925.633 2.875.731 5.246.012.28-.332.62-1.031 1.024M8 20c-1.392-.064-2.292-.64-2.7-1.73-.348-.925.633-2.875.731-5.246.012-.28-.332-.62-1.031-1.024"/>
    </g>
    <g stroke="#5563B6" stroke-linecap="round">
      <path d="M16 4c1.392.064 2.292.64 2.7 1.73.348.925-.633 2.875-.731 5.246-.012.28.332.62 1.031 1.024M16 20c1.392-.064 2.292-.64 2.7-1.73.348-.925-.633-2.875-.731-5.246-.012-.28.332-.62 1.031-1.024"/>
    </g>
    <circle fill="#5563B6" cx="9" cy="12" r="1"/>
    <circle fill="#5563B6" cx="15" cy="12" r="1"/>
    <circle fill="#5563B6" cx="12" cy="12" r="1"/>
  </g>
</svg>
