<svg width="12" height="12" viewBox="0 0 12 12" fill="none" xmlns="http://www.w3.org/2000/svg">
<rect x="0.5" y="2.99988" width="8" height="8" rx="2.5" fill="white" stroke="#414D97"/>
<path d="M11.5711 0.500099C11.5711 0.223957 11.3472 9.91709e-05 11.0711 9.90445e-05L6.57107 9.94449e-05C6.29493 9.92763e-05 6.07107 0.223957 6.07107 0.500099C6.07107 0.776242 6.29493 1.0001 6.57107 1.0001L10.5711 1.0001L10.5711 5.0001C10.5711 5.27624 10.7949 5.5001 11.0711 5.5001C11.3472 5.5001 11.5711 5.27624 11.5711 5.0001L11.5711 0.500099ZM4.35355 7.92472L11.4246 0.853653L10.7175 0.146546L3.64645 7.21761L4.35355 7.92472Z" fill="#414D97"/>
</svg>
