<?xml version="1.0" encoding="UTF-8"?>
<svg id="Layer_1" xmlns="http://www.w3.org/2000/svg" viewBox="0 0 478.18 517.82">
    <defs>
        <style>.cls-1{fill:#414d97;}</style>
    </defs>
    <path class="cls-1"
          d="M279.2,298.3c6.89-1.79,21.95-3.3,25.09,3.3h0c.72,1.78,2.14,3.19,3.93,3.89,1.79,.7,3.79,.64,5.53-.18,1.74-.82,3.07-2.31,3.67-4.14,.61-1.83,.43-3.82-.48-5.52-8.85-18.87-37.97-11.76-41.27-10.92h0c-3.74,.98-5.98,4.8-5.01,8.54,.98,3.74,4.8,5.98,8.54,5.01h0Z"/>
    <path class="cls-1"
          d="M342.7,265.03c6.72,1.06,16.8,4.87,17.36,9.02,.52,3.44,3.47,5.98,6.94,5.99h1.01c3.82-.57,6.47-4.12,5.94-7.95-2.35-16.24-26.38-20.38-29.12-20.83-3.74-.64-7.3,1.86-7.95,5.6-.34,1.86,.09,3.78,1.18,5.32,1.1,1.54,2.77,2.57,4.64,2.86h0Z"/>
    <path class="cls-1"
          d="M225.21,280.04c1.57,0,3.08-.54,4.31-1.51,0,0,6.55-5.04,10.41-.79h0c2.59,2.85,6.99,3.08,9.86,.51,2.81-2.66,2.96-7.07,.34-9.91-10.02-11.2-23.63-5.6-29.4-.79-1.48,1.13-2.43,2.81-2.66,4.65-.22,1.85,.31,3.7,1.48,5.15,1.34,1.76,3.45,2.76,5.66,2.69h0Z"/>
    <path class="cls-1"
          d="M155.38,245.61c1.59,.96,3.49,1.25,5.29,.79,1.8-.45,3.34-1.61,4.29-3.2,.79-1.23,2.24-2.69,2.35-2.91s.95,.45,2.46,2.97c1.29,2.1,3.58,3.37,6.05,3.36,1.26,.02,2.5-.31,3.59-.95,3.31-2.01,4.38-6.3,2.41-9.63-1.27-2.74-3.26-5.08-5.75-6.79-2.49-1.7-5.4-2.71-8.41-2.9-6.2,.62-11.7,4.27-14.67,9.75-1.96,3.29-.88,7.55,2.41,9.52h0Z"/>
    <path class="cls-1"
          d="M123.63,305.97c.92,.39,1.91,.61,2.91,.62,2.49,0,4.78-1.36,5.99-3.53,.73-.56,4.54-1.57,13.21,2.8,3.18,1.77,7.18,.8,9.18-2.24,1.4-.29,2.67-1.02,3.64-2.07,.88,.28,1.71,.7,2.46,1.23,1.54,1.15,3.49,1.62,5.38,1.29,1.89-.33,3.57-1.42,4.64-3.03,1.06-1.6,1.42-3.57,.98-5.45s-1.62-3.49-3.28-4.46c-3.89-3.12-8.92-4.42-13.83-3.59-2.63,.59-5,2-6.78,4.04-6.13-3.05-13.16-3.75-19.77-1.96-3.57,1.19-6.55,3.71-8.29,7.05-.77,1.7-.84,3.64-.17,5.38,.66,1.75,1.99,3.16,3.7,3.91h0Z"/>
    <path class="cls-1"
          d="M6.75,422.45H30.04v88.37c0,1.91,.77,3.73,2.15,5.05,1.37,1.32,3.23,2.03,5.13,1.95H441.08c3.76-.15,6.72-3.24,6.72-7v-88.37h23.3c3.8,0,6.91-3.03,7-6.83v-42.11c.11-.67,.11-1.35,0-2.02l-46.59-137.26c-.98-2.84-3.66-4.75-6.66-4.76h-51.52c-15.23-19.43-35.5-40.77-53.54-44.8l4.37-7.67c.96-1.7,1.2-3.72,.67-5.6-.5-1.8-1.69-3.32-3.3-4.26l-32.93-18.65,44.52-78.4,10.7,6.11h0c5.25,3.02,11.49,3.78,17.3,2.12,5.84-1.59,10.79-5.46,13.72-10.75,2.98-5.25,3.76-11.47,2.15-17.29-1.61-5.82-5.46-10.76-10.72-13.74L306.79,2.95h0c-7.07-4-15.74-3.92-22.74,.2-7,4.12-11.27,11.67-11.2,19.79,.07,8.13,4.47,15.6,11.54,19.6l10.53,5.94-44.8,78.51-32.93-18.7h0c-3.37-1.83-7.57-.66-9.52,2.63l-19.66,34.66c-8.1,14.43-13.77,30.1-16.8,46.37l-2.18-.34c-26.32-4.03-49.9,17.47-66.02,37.97H53c-3.01,0-5.68,1.91-6.66,4.76L.08,371.26c-.11,.67-.11,1.35,0,2.02v42.34c.08,3.67,2.99,6.66,6.66,6.83h0Zm427.05,81.37H44.04v-81.37H433.8v81.37ZM290.94,30.22c-3.91-2.52-5.17-7.65-2.89-11.7,2.29-4.05,7.33-5.62,11.51-3.58l59.53,33.6h0c2.21,1.04,3.89,2.96,4.63,5.3,.74,2.34,.47,4.88-.75,7-1.21,2.13-3.26,3.66-5.64,4.21-2.38,.55-4.89,.09-6.92-1.28l-16.8-9.52-12.93-7.17-29.74-16.86Zm-43.79,130.65l59.81-105.5,13.66,7.79-59.81,105.45c-1,1.85-2.72,3.21-4.76,3.75-2,.54-4.14,.25-5.94-.78-1.84-1-3.19-2.71-3.75-4.72-.56-2.02-.28-4.17,.78-5.98h0Zm-46.82-8.46l16.19-28.45,26.82,15.18-8.4,14.79h0c-2.87,5.05-3.61,11.03-2.06,16.63,1.54,5.6,5.25,10.35,10.3,13.22,3.27,1.87,6.98,2.85,10.75,2.86,1.89-.04,3.77-.3,5.6-.79,5.59-1.56,10.34-5.26,13.21-10.3l8.4-14.84,26.82,15.23-4.87,8.57c-13.33,3.36-22.4,14.62-30.52,24.92-7.05,8.85-13.78,17.25-22.4,20.05h-10.64c-7.07-3.1-13.61-7.3-19.38-12.43-10.68-9.1-22.79-16.38-35.84-21.56,2.84-15.16,8.26-29.73,16.02-43.06h0Zm-33.6,52.81c19.71,3.02,33.15,13.5,44.8,22.79,13.05,10.14,25.37,19.77,41.72,15.06,13.21-3.75,21.84-14.56,30.18-25.03,11.2-14,18.82-22.4,31.36-20.33,22.4,3.64,56.56,51.97,68.6,71.46l13.66,50.79H80.38s13.72-51.13,13.72-51.13c10.42-19.77,41.83-68.26,72.8-63.5l-.17-.11Zm-108.69,38.25h34.94c-4.27,6.4-8.18,13.04-11.7,19.88-.22,.41-.39,.84-.5,1.29l-16.24,60.65c-.58,2.1-.14,4.36,1.19,6.09,1.33,1.73,3.4,2.73,5.58,2.71H406.53c2.18,.02,4.25-.98,5.58-2.71,1.33-1.73,1.77-3.98,1.19-6.09l-16.24-60.87c-.19-.64-.45-1.27-.79-1.85-1.4-2.24-6.11-9.74-12.88-19.32h36.4l41.55,123.2H16.49l41.55-122.98ZM13.74,380.51H464.09v28H13.74v-28Z"/>
</svg>
