<svg width="514" height="78" viewBox="0 0 514 78" fill="none" xmlns="http://www.w3.org/2000/svg">
    <rect width="514" height="78" fill="white"/>
    <g filter="url(#filter0_d_45_1243)">
        <rect x="340" y="20" width="154" height="38" rx="5" fill="white"/>
        <path d="M409.025 39.5622C409.415 39.5622 409.757 39.5122 410.052 39.4122C410.352 39.3122 410.6 39.1722 410.795 38.9922C410.995 38.8072 411.145 38.5847 411.245 38.3247C411.345 38.0647 411.395 37.7747 411.395 37.4547C411.395 37.1397 411.345 36.8572 411.245 36.6072C411.15 36.3572 411.005 36.1447 410.81 35.9697C410.615 35.7947 410.367 35.6622 410.067 35.5722C409.772 35.4772 409.425 35.4297 409.025 35.4297H407.42V39.5622H409.025ZM409.025 34.0572C409.73 34.0572 410.34 34.1397 410.855 34.3047C411.375 34.4697 411.802 34.7022 412.137 35.0022C412.477 35.2972 412.73 35.6547 412.895 36.0747C413.06 36.4897 413.142 36.9497 413.142 37.4547C413.142 37.9697 413.055 38.4422 412.88 38.8722C412.705 39.2972 412.445 39.6647 412.1 39.9747C411.755 40.2797 411.325 40.5197 410.81 40.6947C410.3 40.8647 409.705 40.9497 409.025 40.9497H407.42V44.8572H405.665V34.0572H409.025ZM415.911 38.6247C416.151 38.1397 416.441 37.7597 416.781 37.4847C417.121 37.2047 417.528 37.0647 418.003 37.0647C418.168 37.0647 418.323 37.0847 418.468 37.1247C418.613 37.1597 418.743 37.2147 418.858 37.2897L418.746 38.5047C418.726 38.5897 418.693 38.6497 418.648 38.6847C418.608 38.7147 418.553 38.7297 418.483 38.7297C418.408 38.7297 418.301 38.7172 418.161 38.6922C418.021 38.6622 417.873 38.6472 417.718 38.6472C417.493 38.6472 417.293 38.6797 417.118 38.7447C416.948 38.8097 416.793 38.9047 416.653 39.0297C416.518 39.1547 416.398 39.3072 416.293 39.4872C416.188 39.6672 416.091 39.8722 416.001 40.1022V44.8572H414.388V37.2072H415.326C415.496 37.2072 415.613 37.2397 415.678 37.3047C415.743 37.3647 415.788 37.4722 415.813 37.6272L415.911 38.6247ZM422.969 37.0872C423.534 37.0872 424.044 37.1797 424.499 37.3647C424.959 37.5497 425.349 37.8122 425.669 38.1522C425.994 38.4922 426.244 38.9047 426.419 39.3897C426.594 39.8747 426.682 40.4197 426.682 41.0247C426.682 41.6297 426.594 42.1747 426.419 42.6597C426.244 43.1447 425.994 43.5597 425.669 43.9047C425.349 44.2447 424.959 44.5072 424.499 44.6922C424.044 44.8772 423.534 44.9697 422.969 44.9697C422.399 44.9697 421.884 44.8772 421.424 44.6922C420.969 44.5072 420.579 44.2447 420.254 43.9047C419.929 43.5597 419.679 43.1447 419.504 42.6597C419.329 42.1747 419.242 41.6297 419.242 41.0247C419.242 40.4197 419.329 39.8747 419.504 39.3897C419.679 38.9047 419.929 38.4922 420.254 38.1522C420.579 37.8122 420.969 37.5497 421.424 37.3647C421.884 37.1797 422.399 37.0872 422.969 37.0872ZM422.969 43.7097C423.659 43.7097 424.172 43.4797 424.507 43.0197C424.847 42.5547 425.017 41.8922 425.017 41.0322C425.017 40.1722 424.847 39.5097 424.507 39.0447C424.172 38.5747 423.659 38.3397 422.969 38.3397C422.269 38.3397 421.749 38.5747 421.409 39.0447C421.069 39.5097 420.899 40.1722 420.899 41.0322C420.899 41.8922 421.069 42.5547 421.409 43.0197C421.749 43.4797 422.269 43.7097 422.969 43.7097ZM433.114 39.0897C432.889 38.7997 432.641 38.5972 432.371 38.4822C432.101 38.3672 431.809 38.3097 431.494 38.3097C430.864 38.3097 430.371 38.5422 430.016 39.0072C429.661 39.4672 429.484 40.1497 429.484 41.0547C429.484 41.5247 429.524 41.9272 429.604 42.2622C429.684 42.5922 429.799 42.8622 429.949 43.0722C430.099 43.2822 430.281 43.4347 430.496 43.5297C430.711 43.6247 430.954 43.6722 431.224 43.6722C431.634 43.6722 431.986 43.5847 432.281 43.4097C432.581 43.2297 432.859 42.9772 433.114 42.6522V39.0897ZM434.726 33.7572V44.8572H433.751C433.536 44.8572 433.399 44.7547 433.339 44.5497L433.196 43.7172C432.876 44.0922 432.511 44.3947 432.101 44.6247C431.696 44.8547 431.224 44.9697 430.684 44.9697C430.254 44.9697 429.864 44.8847 429.514 44.7147C429.164 44.5397 428.864 44.2872 428.614 43.9572C428.364 43.6272 428.169 43.2197 428.029 42.7347C427.894 42.2447 427.826 41.6847 427.826 41.0547C427.826 40.4847 427.901 39.9572 428.051 39.4722C428.206 38.9872 428.426 38.5672 428.711 38.2122C428.996 37.8522 429.341 37.5722 429.746 37.3722C430.156 37.1672 430.614 37.0647 431.119 37.0647C431.569 37.0647 431.951 37.1372 432.266 37.2822C432.581 37.4222 432.864 37.6197 433.114 37.8747V33.7572H434.726ZM443.148 37.2072V44.8572H442.173C441.958 44.8572 441.82 44.7547 441.76 44.5497L441.64 43.8372C441.48 44.0072 441.31 44.1622 441.13 44.3022C440.955 44.4422 440.768 44.5622 440.568 44.6622C440.368 44.7622 440.153 44.8397 439.923 44.8947C439.698 44.9497 439.455 44.9772 439.195 44.9772C438.775 44.9772 438.405 44.9072 438.085 44.7672C437.765 44.6272 437.495 44.4297 437.275 44.1747C437.06 43.9197 436.898 43.6147 436.788 43.2597C436.678 42.8997 436.623 42.5047 436.623 42.0747V37.2072H438.235V42.0747C438.235 42.5897 438.353 42.9897 438.588 43.2747C438.828 43.5597 439.19 43.7022 439.675 43.7022C440.03 43.7022 440.36 43.6222 440.665 43.4622C440.975 43.2972 441.265 43.0722 441.535 42.7872V37.2072H443.148ZM450.514 38.7072C450.464 38.7722 450.416 38.8222 450.371 38.8572C450.326 38.8922 450.261 38.9097 450.176 38.9097C450.091 38.9097 450.001 38.8797 449.906 38.8197C449.816 38.7597 449.706 38.6947 449.576 38.6247C449.451 38.5497 449.299 38.4822 449.119 38.4222C448.939 38.3622 448.714 38.3322 448.444 38.3322C448.094 38.3322 447.786 38.3947 447.521 38.5197C447.261 38.6447 447.041 38.8247 446.861 39.0597C446.686 39.2897 446.554 39.5722 446.464 39.9072C446.379 40.2372 446.336 40.6097 446.336 41.0247C446.336 41.4547 446.384 41.8372 446.479 42.1722C446.574 42.5072 446.709 42.7897 446.884 43.0197C447.064 43.2497 447.279 43.4247 447.529 43.5447C447.784 43.6647 448.069 43.7247 448.384 43.7247C448.694 43.7247 448.946 43.6872 449.141 43.6122C449.336 43.5372 449.499 43.4547 449.629 43.3647C449.759 43.2747 449.869 43.1922 449.959 43.1172C450.054 43.0422 450.154 43.0047 450.259 43.0047C450.389 43.0047 450.489 43.0547 450.559 43.1547L451.016 43.7472C450.831 43.9722 450.626 44.1622 450.401 44.3172C450.176 44.4722 449.939 44.5997 449.689 44.6997C449.439 44.7947 449.179 44.8622 448.909 44.9022C448.639 44.9472 448.366 44.9697 448.091 44.9697C447.616 44.9697 447.171 44.8822 446.756 44.7072C446.346 44.5272 445.986 44.2697 445.676 43.9347C445.371 43.5947 445.129 43.1822 444.949 42.6972C444.774 42.2072 444.686 41.6497 444.686 41.0247C444.686 40.4597 444.766 39.9372 444.926 39.4572C445.086 38.9722 445.319 38.5547 445.624 38.2047C445.934 37.8547 446.316 37.5822 446.771 37.3872C447.226 37.1872 447.751 37.0872 448.346 37.0872C448.901 37.0872 449.389 37.1772 449.809 37.3572C450.234 37.5372 450.611 37.7922 450.941 38.1222L450.514 38.7072ZM454.766 44.9772C454.131 44.9772 453.641 44.7997 453.296 44.4447C452.956 44.0847 452.786 43.5797 452.786 42.9297V38.4747H451.946C451.856 38.4747 451.778 38.4472 451.713 38.3922C451.648 38.3322 451.616 38.2447 451.616 38.1297V37.4772L452.853 37.2972L453.206 35.0847C453.231 34.9997 453.273 34.9322 453.333 34.8822C453.393 34.8272 453.473 34.7997 453.573 34.7997H454.398V37.3122H456.521V38.4747H454.398V42.8172C454.398 43.0922 454.466 43.3022 454.601 43.4472C454.736 43.5922 454.916 43.6647 455.141 43.6647C455.266 43.6647 455.373 43.6497 455.463 43.6197C455.553 43.5847 455.631 43.5497 455.696 43.5147C455.761 43.4747 455.816 43.4397 455.861 43.4097C455.911 43.3747 455.958 43.3572 456.003 43.3572C456.093 43.3572 456.166 43.4072 456.221 43.5072L456.701 44.2947C456.451 44.5147 456.156 44.6847 455.816 44.8047C455.476 44.9197 455.126 44.9772 454.766 44.9772Z" fill="#3B438C"/>
        <path d="M384.219 31.5H386.75C387.164 31.5 387.5 32.0437 387.5 32.7143V47.2857C387.5 47.9563 387.164 48.5 386.75 48.5H373.25C372.836 48.5 372.5 47.9563 372.5 47.2857V32.7143C372.5 32.0437 372.836 31.5 373.25 31.5H375.781M376 43.5H384M376 40.5H384M376 37.5H384M377.5 29.5H382.5V33.5H377.5V29.5Z" stroke="#9452BA" stroke-linecap="round" stroke-linejoin="round"/>
    </g>
    <g filter="url(#filter1_d_45_1243)">
        <rect x="20" y="20" width="154" height="38" rx="5" fill="white"/>
        <path d="M68.1371 39.705C68.5271 39.705 68.8696 39.655 69.1646 39.555C69.4646 39.455 69.7121 39.315 69.9071 39.135C70.1071 38.95 70.2571 38.7275 70.3571 38.4675C70.4571 38.2075 70.5071 37.9175 70.5071 37.5975C70.5071 37.2825 70.4571 37 70.3571 36.75C70.2621 36.5 70.1171 36.2875 69.9221 36.1125C69.7271 35.9375 69.4796 35.805 69.1796 35.715C68.8846 35.62 68.5371 35.5725 68.1371 35.5725H66.5321V39.705H68.1371ZM68.1371 34.2C68.8421 34.2 69.4521 34.2825 69.9671 34.4475C70.4871 34.6125 70.9146 34.845 71.2496 35.145C71.5896 35.44 71.8421 35.7975 72.0071 36.2175C72.1721 36.6325 72.2546 37.0925 72.2546 37.5975C72.2546 38.1125 72.1671 38.585 71.9921 39.015C71.8171 39.44 71.5571 39.8075 71.2121 40.1175C70.8671 40.4225 70.4371 40.6625 69.9221 40.8375C69.4121 41.0075 68.8171 41.0925 68.1371 41.0925H66.5321V45H64.7771V34.2H68.1371ZM75.0231 38.7675C75.2631 38.2825 75.5531 37.9025 75.8931 37.6275C76.2331 37.3475 76.6406 37.2075 77.1156 37.2075C77.2806 37.2075 77.4356 37.2275 77.5806 37.2675C77.7256 37.3025 77.8556 37.3575 77.9706 37.4325L77.8581 38.6475C77.8381 38.7325 77.8056 38.7925 77.7606 38.8275C77.7206 38.8575 77.6656 38.8725 77.5956 38.8725C77.5206 38.8725 77.4131 38.86 77.2731 38.835C77.1331 38.805 76.9856 38.79 76.8306 38.79C76.6056 38.79 76.4056 38.8225 76.2306 38.8875C76.0606 38.9525 75.9056 39.0475 75.7656 39.1725C75.6306 39.2975 75.5106 39.45 75.4056 39.63C75.3006 39.81 75.2031 40.015 75.1131 40.245V45H73.5006V37.35H74.4381C74.6081 37.35 74.7256 37.3825 74.7906 37.4475C74.8556 37.5075 74.9006 37.615 74.9256 37.77L75.0231 38.7675ZM82.0815 37.23C82.6465 37.23 83.1565 37.3225 83.6115 37.5075C84.0715 37.6925 84.4615 37.955 84.7815 38.295C85.1065 38.635 85.3565 39.0475 85.5315 39.5325C85.7065 40.0175 85.794 40.5625 85.794 41.1675C85.794 41.7725 85.7065 42.3175 85.5315 42.8025C85.3565 43.2875 85.1065 43.7025 84.7815 44.0475C84.4615 44.3875 84.0715 44.65 83.6115 44.835C83.1565 45.02 82.6465 45.1125 82.0815 45.1125C81.5115 45.1125 80.9965 45.02 80.5365 44.835C80.0815 44.65 79.6915 44.3875 79.3665 44.0475C79.0415 43.7025 78.7915 43.2875 78.6165 42.8025C78.4415 42.3175 78.354 41.7725 78.354 41.1675C78.354 40.5625 78.4415 40.0175 78.6165 39.5325C78.7915 39.0475 79.0415 38.635 79.3665 38.295C79.6915 37.955 80.0815 37.6925 80.5365 37.5075C80.9965 37.3225 81.5115 37.23 82.0815 37.23ZM82.0815 43.8525C82.7715 43.8525 83.284 43.6225 83.619 43.1625C83.959 42.6975 84.129 42.035 84.129 41.175C84.129 40.315 83.959 39.6525 83.619 39.1875C83.284 38.7175 82.7715 38.4825 82.0815 38.4825C81.3815 38.4825 80.8615 38.7175 80.5215 39.1875C80.1815 39.6525 80.0115 40.315 80.0115 41.175C80.0115 42.035 80.1815 42.6975 80.5215 43.1625C80.8615 43.6225 81.3815 43.8525 82.0815 43.8525ZM92.2258 39.2325C92.0008 38.9425 91.7533 38.74 91.4833 38.625C91.2133 38.51 90.9208 38.4525 90.6058 38.4525C89.9758 38.4525 89.4833 38.685 89.1283 39.15C88.7733 39.61 88.5958 40.2925 88.5958 41.1975C88.5958 41.6675 88.6358 42.07 88.7158 42.405C88.7958 42.735 88.9108 43.005 89.0608 43.215C89.2108 43.425 89.3933 43.5775 89.6083 43.6725C89.8233 43.7675 90.0658 43.815 90.3358 43.815C90.7458 43.815 91.0983 43.7275 91.3933 43.5525C91.6933 43.3725 91.9708 43.12 92.2258 42.795V39.2325ZM93.8383 33.9V45H92.8633C92.6483 45 92.5108 44.8975 92.4508 44.6925L92.3083 43.86C91.9883 44.235 91.6233 44.5375 91.2133 44.7675C90.8083 44.9975 90.3358 45.1125 89.7958 45.1125C89.3658 45.1125 88.9758 45.0275 88.6258 44.8575C88.2758 44.6825 87.9758 44.43 87.7258 44.1C87.4758 43.77 87.2808 43.3625 87.1408 42.8775C87.0058 42.3875 86.9383 41.8275 86.9383 41.1975C86.9383 40.6275 87.0133 40.1 87.1633 39.615C87.3183 39.13 87.5383 38.71 87.8233 38.355C88.1083 37.995 88.4533 37.715 88.8583 37.515C89.2683 37.31 89.7258 37.2075 90.2308 37.2075C90.6808 37.2075 91.0633 37.28 91.3783 37.425C91.6933 37.565 91.9758 37.7625 92.2258 38.0175V33.9H93.8383ZM102.26 37.35V45H101.285C101.07 45 100.933 44.8975 100.873 44.6925L100.753 43.98C100.593 44.15 100.423 44.305 100.243 44.445C100.068 44.585 99.8801 44.705 99.6801 44.805C99.4801 44.905 99.2651 44.9825 99.0351 45.0375C98.8101 45.0925 98.5676 45.12 98.3076 45.12C97.8876 45.12 97.5176 45.05 97.1976 44.91C96.8776 44.77 96.6076 44.5725 96.3876 44.3175C96.1726 44.0625 96.0101 43.7575 95.9001 43.4025C95.7901 43.0425 95.7351 42.6475 95.7351 42.2175V37.35H97.3476V42.2175C97.3476 42.7325 97.4651 43.1325 97.7001 43.4175C97.9401 43.7025 98.3026 43.845 98.7876 43.845C99.1426 43.845 99.4726 43.765 99.7776 43.605C100.088 43.44 100.378 43.215 100.648 42.93V37.35H102.26ZM109.626 38.85C109.576 38.915 109.528 38.965 109.483 39C109.438 39.035 109.373 39.0525 109.288 39.0525C109.203 39.0525 109.113 39.0225 109.018 38.9625C108.928 38.9025 108.818 38.8375 108.688 38.7675C108.563 38.6925 108.411 38.625 108.231 38.565C108.051 38.505 107.826 38.475 107.556 38.475C107.206 38.475 106.898 38.5375 106.633 38.6625C106.373 38.7875 106.153 38.9675 105.973 39.2025C105.798 39.4325 105.666 39.715 105.576 40.05C105.491 40.38 105.448 40.7525 105.448 41.1675C105.448 41.5975 105.496 41.98 105.591 42.315C105.686 42.65 105.821 42.9325 105.996 43.1625C106.176 43.3925 106.391 43.5675 106.641 43.6875C106.896 43.8075 107.181 43.8675 107.496 43.8675C107.806 43.8675 108.058 43.83 108.253 43.755C108.448 43.68 108.611 43.5975 108.741 43.5075C108.871 43.4175 108.981 43.335 109.071 43.26C109.166 43.185 109.266 43.1475 109.371 43.1475C109.501 43.1475 109.601 43.1975 109.671 43.2975L110.128 43.89C109.943 44.115 109.738 44.305 109.513 44.46C109.288 44.615 109.051 44.7425 108.801 44.8425C108.551 44.9375 108.291 45.005 108.021 45.045C107.751 45.09 107.478 45.1125 107.203 45.1125C106.728 45.1125 106.283 45.025 105.868 44.85C105.458 44.67 105.098 44.4125 104.788 44.0775C104.483 43.7375 104.241 43.325 104.061 42.84C103.886 42.35 103.798 41.7925 103.798 41.1675C103.798 40.6025 103.878 40.08 104.038 39.6C104.198 39.115 104.431 38.6975 104.736 38.3475C105.046 37.9975 105.428 37.725 105.883 37.53C106.338 37.33 106.863 37.23 107.458 37.23C108.013 37.23 108.501 37.32 108.921 37.5C109.346 37.68 109.723 37.935 110.053 38.265L109.626 38.85ZM113.878 45.12C113.243 45.12 112.753 44.9425 112.408 44.5875C112.068 44.2275 111.898 43.7225 111.898 43.0725V38.6175H111.058C110.968 38.6175 110.89 38.59 110.825 38.535C110.76 38.475 110.728 38.3875 110.728 38.2725V37.62L111.965 37.44L112.318 35.2275C112.343 35.1425 112.385 35.075 112.445 35.025C112.505 34.97 112.585 34.9425 112.685 34.9425H113.51V37.455H115.633V38.6175H113.51V42.96C113.51 43.235 113.578 43.445 113.713 43.59C113.848 43.735 114.028 43.8075 114.253 43.8075C114.378 43.8075 114.485 43.7925 114.575 43.7625C114.665 43.7275 114.743 43.6925 114.808 43.6575C114.873 43.6175 114.928 43.5825 114.973 43.5525C115.023 43.5175 115.07 43.5 115.115 43.5C115.205 43.5 115.278 43.55 115.333 43.65L115.813 44.4375C115.563 44.6575 115.268 44.8275 114.928 44.9475C114.588 45.0625 114.238 45.12 113.878 45.12ZM127.008 37.35L123.933 45H122.478L119.403 37.35H120.731C120.856 37.35 120.958 37.3825 121.038 37.4475C121.123 37.5075 121.178 37.58 121.203 37.665L122.898 42.12C122.968 42.33 123.031 42.5375 123.086 42.7425C123.141 42.9475 123.188 43.155 123.228 43.365C123.268 43.155 123.316 42.95 123.371 42.75C123.431 42.545 123.496 42.335 123.566 42.12L125.291 37.665C125.321 37.575 125.376 37.5 125.456 37.44C125.536 37.38 125.633 37.35 125.748 37.35H127.008ZM132.022 41.655C131.447 41.675 130.962 41.7225 130.567 41.7975C130.172 41.8675 129.852 41.96 129.607 42.075C129.362 42.185 129.184 42.3175 129.074 42.4725C128.969 42.6275 128.917 42.7975 128.917 42.9825C128.917 43.1625 128.944 43.3175 128.999 43.4475C129.059 43.5725 129.139 43.6775 129.239 43.7625C129.344 43.8425 129.464 43.9025 129.599 43.9425C129.739 43.9775 129.892 43.995 130.057 43.995C130.477 43.995 130.837 43.9175 131.137 43.7625C131.442 43.6025 131.737 43.3725 132.022 43.0725V41.655ZM127.747 38.415C128.612 37.61 129.642 37.2075 130.837 37.2075C131.277 37.2075 131.667 37.28 132.007 37.425C132.352 37.565 132.639 37.765 132.869 38.025C133.104 38.285 133.282 38.595 133.402 38.955C133.527 39.31 133.589 39.705 133.589 40.14V45H132.869C132.714 45 132.597 44.9775 132.517 44.9325C132.437 44.8825 132.369 44.785 132.314 44.64L132.157 44.0175C131.962 44.1925 131.769 44.35 131.579 44.49C131.389 44.625 131.192 44.74 130.987 44.835C130.787 44.93 130.569 45 130.334 45.045C130.104 45.095 129.849 45.12 129.569 45.12C129.259 45.12 128.969 45.0775 128.699 44.9925C128.434 44.9075 128.204 44.78 128.009 44.61C127.814 44.435 127.659 44.22 127.544 43.965C127.434 43.71 127.379 43.41 127.379 43.065C127.379 42.77 127.457 42.4825 127.612 42.2025C127.772 41.9225 128.032 41.6725 128.392 41.4525C128.757 41.2275 129.234 41.0425 129.824 40.8975C130.419 40.7525 131.152 40.67 132.022 40.65V40.14C132.022 39.59 131.904 39.18 131.669 38.91C131.434 38.64 131.089 38.505 130.634 38.505C130.324 38.505 130.064 38.545 129.854 38.625C129.644 38.7 129.462 38.7825 129.307 38.8725C129.152 38.9625 129.014 39.0475 128.894 39.1275C128.774 39.2025 128.647 39.24 128.512 39.24C128.402 39.24 128.307 39.2125 128.227 39.1575C128.152 39.0975 128.089 39.025 128.039 38.94L127.747 38.415ZM137.121 33.9V45H135.508V33.9H137.121ZM145.561 37.35V45H144.586C144.371 45 144.233 44.8975 144.173 44.6925L144.053 43.98C143.893 44.15 143.723 44.305 143.543 44.445C143.368 44.585 143.181 44.705 142.981 44.805C142.781 44.905 142.566 44.9825 142.336 45.0375C142.111 45.0925 141.868 45.12 141.608 45.12C141.188 45.12 140.818 45.05 140.498 44.91C140.178 44.77 139.908 44.5725 139.688 44.3175C139.473 44.0625 139.311 43.7575 139.201 43.4025C139.091 43.0425 139.036 42.6475 139.036 42.2175V37.35H140.648V42.2175C140.648 42.7325 140.766 43.1325 141.001 43.4175C141.241 43.7025 141.603 43.845 142.088 43.845C142.443 43.845 142.773 43.765 143.078 43.605C143.388 43.44 143.678 43.215 143.948 42.93V37.35H145.561ZM152.537 40.3125C152.537 40.0425 152.497 39.7925 152.417 39.5625C152.342 39.3275 152.229 39.125 152.079 38.955C151.929 38.78 151.742 38.645 151.517 38.55C151.297 38.45 151.042 38.4 150.752 38.4C150.167 38.4 149.707 38.5675 149.372 38.9025C149.037 39.2375 148.824 39.7075 148.734 40.3125H152.537ZM148.689 41.3025C148.709 41.7375 148.777 42.115 148.892 42.435C149.007 42.75 149.159 43.0125 149.349 43.2225C149.544 43.4325 149.774 43.59 150.039 43.695C150.309 43.795 150.609 43.845 150.939 43.845C151.254 43.845 151.527 43.81 151.757 43.74C151.987 43.665 152.187 43.585 152.357 43.5C152.527 43.41 152.672 43.33 152.792 43.26C152.912 43.185 153.022 43.1475 153.122 43.1475C153.252 43.1475 153.352 43.1975 153.422 43.2975L153.879 43.89C153.689 44.115 153.474 44.305 153.234 44.46C152.994 44.615 152.739 44.7425 152.469 44.8425C152.199 44.9375 151.922 45.005 151.637 45.045C151.352 45.09 151.074 45.1125 150.804 45.1125C150.274 45.1125 149.782 45.025 149.327 44.85C148.877 44.67 148.484 44.4075 148.149 44.0625C147.819 43.7175 147.559 43.29 147.369 42.78C147.184 42.27 147.092 41.6825 147.092 41.0175C147.092 40.4875 147.174 39.9925 147.339 39.5325C147.509 39.0725 147.749 38.6725 148.059 38.3325C148.374 37.9925 148.754 37.725 149.199 37.53C149.649 37.33 150.157 37.23 150.722 37.23C151.192 37.23 151.627 37.3075 152.027 37.4625C152.427 37.6125 152.772 37.835 153.062 38.13C153.352 38.425 153.577 38.7875 153.737 39.2175C153.902 39.6425 153.984 40.1275 153.984 40.6725C153.984 40.9225 153.957 41.09 153.902 41.175C153.847 41.26 153.747 41.3025 153.602 41.3025H148.689Z" fill="#3B438C"/>
        <path d="M40.5 37.5L44.3891 41.3891M33.5 41.5L43 32.3L33.5 41.5ZM40.5 48.5L49.5 39.5L40.5 48.5ZM43 32.3L49.5 32.5L43 32.3ZM49.5 39.4981V32.5V39.4981ZM33.5 41.5L40.5 48.5L33.5 41.5ZM52.5 29.5L47.5 34.5L52.5 29.5ZM46 37.5C46.8284 37.5 47.5 36.8284 47.5 36C47.5 35.1716 46.8284 34.5 46 34.5C45.1716 34.5 44.5 35.1716 44.5 36C44.5 36.8284 45.1716 37.5 46 37.5ZM37.5 40.5L41.3891 44.3891L37.5 40.5ZM39 39L42 42L39 39Z" stroke="#9452BA" stroke-linecap="round" stroke-linejoin="round"/>
    </g>
    <path d="M337 41.5C337.276 41.5 337.5 41.2761 337.5 41C337.5 40.7239 337.276 40.5 337 40.5V41.5ZM182 40.5C181.724 40.5 181.5 40.7239 181.5 41C181.5 41.2761 181.724 41.5 182 41.5V40.5ZM335.994 40.5C335.717 40.5 335.494 40.7239 335.494 41C335.494 41.2761 335.717 41.5 335.994 41.5V40.5ZM330.961 41.5C331.237 41.5 331.461 41.2761 331.461 41C331.461 40.7239 331.237 40.5 330.961 40.5V41.5ZM328.948 40.5C328.672 40.5 328.448 40.7239 328.448 41C328.448 41.2761 328.672 41.5 328.948 41.5V40.5ZM323.916 41.5C324.192 41.5 324.416 41.2761 324.416 41C324.416 40.7239 324.192 40.5 323.916 40.5V41.5ZM321.903 40.5C321.626 40.5 321.403 40.7239 321.403 41C321.403 41.2761 321.626 41.5 321.903 41.5V40.5ZM316.87 41.5C317.146 41.5 317.37 41.2761 317.37 41C317.37 40.7239 317.146 40.5 316.87 40.5V41.5ZM314.857 40.5C314.581 40.5 314.357 40.7239 314.357 41C314.357 41.2761 314.581 41.5 314.857 41.5V40.5ZM309.825 41.5C310.101 41.5 310.325 41.2761 310.325 41C310.325 40.7239 310.101 40.5 309.825 40.5V41.5ZM307.812 40.5C307.536 40.5 307.312 40.7239 307.312 41C307.312 41.2761 307.536 41.5 307.812 41.5V40.5ZM302.779 41.5C303.055 41.5 303.279 41.2761 303.279 41C303.279 40.7239 303.055 40.5 302.779 40.5V41.5ZM300.766 40.5C300.49 40.5 300.266 40.7239 300.266 41C300.266 41.2761 300.49 41.5 300.766 41.5V40.5ZM295.734 41.5C296.01 41.5 296.234 41.2761 296.234 41C296.234 40.7239 296.01 40.5 295.734 40.5V41.5ZM293.721 40.5C293.445 40.5 293.221 40.7239 293.221 41C293.221 41.2761 293.445 41.5 293.721 41.5V40.5ZM288.688 41.5C288.964 41.5 289.188 41.2761 289.188 41C289.188 40.7239 288.964 40.5 288.688 40.5V41.5ZM286.675 40.5C286.399 40.5 286.175 40.7239 286.175 41C286.175 41.2761 286.399 41.5 286.675 41.5V40.5ZM281.643 41.5C281.919 41.5 282.143 41.2761 282.143 41C282.143 40.7239 281.919 40.5 281.643 40.5V41.5ZM279.63 40.5C279.354 40.5 279.13 40.7239 279.13 41C279.13 41.2761 279.354 41.5 279.63 41.5V40.5ZM274.597 41.5C274.874 41.5 275.097 41.2761 275.097 41C275.097 40.7239 274.874 40.5 274.597 40.5V41.5ZM272.584 40.5C272.308 40.5 272.084 40.7239 272.084 41C272.084 41.2761 272.308 41.5 272.584 41.5V40.5ZM267.552 41.5C267.828 41.5 268.052 41.2761 268.052 41C268.052 40.7239 267.828 40.5 267.552 40.5V41.5ZM265.539 40.5C265.263 40.5 265.039 40.7239 265.039 41C265.039 41.2761 265.263 41.5 265.539 41.5V40.5ZM260.507 41.5C260.783 41.5 261.007 41.2761 261.007 41C261.007 40.7239 260.783 40.5 260.507 40.5V41.5ZM258.494 40.5C258.217 40.5 257.994 40.7239 257.994 41C257.994 41.2761 258.217 41.5 258.494 41.5V40.5ZM253.461 41.5C253.737 41.5 253.961 41.2761 253.961 41C253.961 40.7239 253.737 40.5 253.461 40.5V41.5ZM251.448 40.5C251.172 40.5 250.948 40.7239 250.948 41C250.948 41.2761 251.172 41.5 251.448 41.5V40.5ZM246.416 41.5C246.692 41.5 246.916 41.2761 246.916 41C246.916 40.7239 246.692 40.5 246.416 40.5V41.5ZM244.403 40.5C244.126 40.5 243.903 40.7239 243.903 41C243.903 41.2761 244.126 41.5 244.403 41.5V40.5ZM239.37 41.5C239.646 41.5 239.87 41.2761 239.87 41C239.87 40.7239 239.646 40.5 239.37 40.5V41.5ZM237.357 40.5C237.081 40.5 236.857 40.7239 236.857 41C236.857 41.2761 237.081 41.5 237.357 41.5V40.5ZM232.325 41.5C232.601 41.5 232.825 41.2761 232.825 41C232.825 40.7239 232.601 40.5 232.325 40.5V41.5ZM230.312 40.5C230.036 40.5 229.812 40.7239 229.812 41C229.812 41.2761 230.036 41.5 230.312 41.5V40.5ZM225.279 41.5C225.555 41.5 225.779 41.2761 225.779 41C225.779 40.7239 225.555 40.5 225.279 40.5V41.5ZM223.266 40.5C222.99 40.5 222.766 40.7239 222.766 41C222.766 41.2761 222.99 41.5 223.266 41.5V40.5ZM218.234 41.5C218.51 41.5 218.734 41.2761 218.734 41C218.734 40.7239 218.51 40.5 218.234 40.5V41.5ZM216.221 40.5C215.945 40.5 215.721 40.7239 215.721 41C215.721 41.2761 215.945 41.5 216.221 41.5V40.5ZM211.188 41.5C211.464 41.5 211.688 41.2761 211.688 41C211.688 40.7239 211.464 40.5 211.188 40.5V41.5ZM209.175 40.5C208.899 40.5 208.675 40.7239 208.675 41C208.675 41.2761 208.899 41.5 209.175 41.5V40.5ZM204.143 41.5C204.419 41.5 204.643 41.2761 204.643 41C204.643 40.7239 204.419 40.5 204.143 40.5V41.5ZM202.13 40.5C201.854 40.5 201.63 40.7239 201.63 41C201.63 41.2761 201.854 41.5 202.13 41.5V40.5ZM197.097 41.5C197.374 41.5 197.597 41.2761 197.597 41C197.597 40.7239 197.374 40.5 197.097 40.5V41.5ZM195.084 40.5C194.808 40.5 194.584 40.7239 194.584 41C194.584 41.2761 194.808 41.5 195.084 41.5V40.5ZM190.052 41.5C190.328 41.5 190.552 41.2761 190.552 41C190.552 40.7239 190.328 40.5 190.052 40.5V41.5ZM188.039 40.5C187.763 40.5 187.539 40.7239 187.539 41C187.539 41.2761 187.763 41.5 188.039 41.5V40.5ZM183.006 41.5C183.283 41.5 183.506 41.2761 183.506 41C183.506 40.7239 183.283 40.5 183.006 40.5V41.5ZM337 40.5H335.994V41.5H337V40.5ZM330.961 40.5H328.948V41.5H330.961V40.5ZM323.916 40.5H321.903V41.5H323.916V40.5ZM316.87 40.5H314.857V41.5H316.87V40.5ZM309.825 40.5L307.812 40.5V41.5L309.825 41.5V40.5ZM302.779 40.5H300.766V41.5H302.779V40.5ZM295.734 40.5H293.721V41.5H295.734V40.5ZM288.688 40.5L286.675 40.5V41.5L288.688 41.5V40.5ZM281.643 40.5H279.63V41.5H281.643V40.5ZM274.597 40.5H272.584V41.5H274.597V40.5ZM267.552 40.5H265.539V41.5H267.552V40.5ZM260.507 40.5H258.494V41.5H260.507V40.5ZM253.461 40.5H251.448V41.5H253.461V40.5ZM246.416 40.5H244.403V41.5H246.416V40.5ZM239.37 40.5H237.357V41.5H239.37V40.5ZM232.325 40.5L230.312 40.5V41.5L232.325 41.5V40.5ZM225.279 40.5H223.266V41.5H225.279V40.5ZM218.234 40.5H216.221V41.5H218.234V40.5ZM211.188 40.5H209.175V41.5L211.188 41.5V40.5ZM204.143 40.5H202.13V41.5H204.143V40.5ZM197.097 40.5H195.084V41.5H197.097V40.5ZM190.052 40.5H188.039V41.5H190.052V40.5ZM183.006 40.5H182V41.5H183.006V40.5ZM337 42C337.552 42 338 41.5523 338 41C338 40.4477 337.552 40 337 40V42ZM182 40C181.448 40 181 40.4477 181 41C181 41.5523 181.448 42 182 42V40ZM335.994 40C335.441 40 334.994 40.4477 334.994 41C334.994 41.5523 335.441 42 335.994 42V40ZM330.961 42C331.513 42 331.961 41.5523 331.961 41C331.961 40.4477 331.513 40 330.961 40V42ZM328.948 40C328.396 40 327.948 40.4477 327.948 41C327.948 41.5523 328.396 42 328.948 42V40ZM323.916 42C324.468 42 324.916 41.5523 324.916 41C324.916 40.4477 324.468 40 323.916 40V42ZM321.903 40C321.35 40 320.903 40.4477 320.903 41C320.903 41.5523 321.35 42 321.903 42V40ZM316.87 42C317.422 42 317.87 41.5523 317.87 41C317.87 40.4477 317.422 40 316.87 40V42ZM314.857 40C314.305 40 313.857 40.4477 313.857 41C313.857 41.5523 314.305 42 314.857 42V40ZM309.825 42C310.377 42 310.825 41.5523 310.825 41C310.825 40.4477 310.377 40 309.825 40V42ZM307.812 40C307.259 40 306.812 40.4477 306.812 41C306.812 41.5523 307.259 42 307.812 42V40ZM302.779 42C303.332 42 303.779 41.5523 303.779 41C303.779 40.4477 303.332 40 302.779 40V42ZM300.766 40C300.214 40 299.766 40.4477 299.766 41C299.766 41.5523 300.214 42 300.766 42V40ZM295.734 42C296.286 42 296.734 41.5523 296.734 41C296.734 40.4477 296.286 40 295.734 40V42ZM293.721 40C293.168 40 292.721 40.4477 292.721 41C292.721 41.5523 293.168 42 293.721 42V40ZM288.688 42C289.241 42 289.688 41.5523 289.688 41C289.688 40.4477 289.241 40 288.688 40V42ZM286.675 40C286.123 40 285.675 40.4477 285.675 41C285.675 41.5523 286.123 42 286.675 42V40ZM281.643 42C282.195 42 282.643 41.5523 282.643 41C282.643 40.4477 282.195 40 281.643 40V42ZM279.63 40C279.078 40 278.63 40.4477 278.63 41C278.63 41.5523 279.078 42 279.63 42V40ZM274.597 42C275.15 42 275.597 41.5523 275.597 41C275.597 40.4477 275.15 40 274.597 40V42ZM272.584 40C272.032 40 271.584 40.4477 271.584 41C271.584 41.5523 272.032 42 272.584 42V40ZM267.552 42C268.104 42 268.552 41.5523 268.552 41C268.552 40.4477 268.104 40 267.552 40V42ZM265.539 40C264.987 40 264.539 40.4477 264.539 41C264.539 41.5523 264.987 42 265.539 42V40ZM260.507 42C261.059 42 261.507 41.5523 261.507 41C261.507 40.4477 261.059 40 260.507 40V42ZM258.494 40C257.941 40 257.494 40.4477 257.494 41C257.494 41.5523 257.941 42 258.494 42V40ZM253.461 42C254.013 42 254.461 41.5523 254.461 41C254.461 40.4477 254.013 40 253.461 40V42ZM251.448 40C250.896 40 250.448 40.4477 250.448 41C250.448 41.5523 250.896 42 251.448 42V40ZM246.416 42C246.968 42 247.416 41.5523 247.416 41C247.416 40.4477 246.968 40 246.416 40V42ZM244.403 40C243.85 40 243.403 40.4477 243.403 41C243.403 41.5523 243.85 42 244.403 42V40ZM239.37 42C239.922 42 240.37 41.5523 240.37 41C240.37 40.4477 239.922 40 239.37 40V42ZM237.357 40C236.805 40 236.357 40.4477 236.357 41C236.357 41.5523 236.805 42 237.357 42V40ZM232.325 42C232.877 42 233.325 41.5523 233.325 41C233.325 40.4477 232.877 40 232.325 40V42ZM230.312 40C229.759 40 229.312 40.4477 229.312 41C229.312 41.5523 229.759 42 230.312 42V40ZM225.279 42C225.832 42 226.279 41.5523 226.279 41C226.279 40.4477 225.832 40 225.279 40V42ZM223.266 40C222.714 40 222.266 40.4477 222.266 41C222.266 41.5523 222.714 42 223.266 42V40ZM218.234 42C218.786 42 219.234 41.5523 219.234 41C219.234 40.4477 218.786 40 218.234 40V42ZM216.221 40C215.668 40 215.221 40.4477 215.221 41C215.221 41.5523 215.668 42 216.221 42V40ZM211.188 42C211.741 42 212.188 41.5523 212.188 41C212.188 40.4477 211.741 40 211.188 40V42ZM209.175 40C208.623 40 208.175 40.4477 208.175 41C208.175 41.5523 208.623 42 209.175 42V40ZM204.143 42C204.695 42 205.143 41.5523 205.143 41C205.143 40.4477 204.695 40 204.143 40V42ZM202.13 40C201.578 40 201.13 40.4477 201.13 41C201.13 41.5523 201.578 42 202.13 42V40ZM197.097 42C197.65 42 198.097 41.5523 198.097 41C198.097 40.4477 197.65 40 197.097 40V42ZM195.084 40C194.532 40 194.084 40.4477 194.084 41C194.084 41.5523 194.532 42 195.084 42V40ZM190.052 42C190.604 42 191.052 41.5523 191.052 41C191.052 40.4477 190.604 40 190.052 40V42ZM188.039 40C187.487 40 187.039 40.4477 187.039 41C187.039 41.5523 187.487 42 188.039 42V40ZM183.006 42C183.559 42 184.006 41.5523 184.006 41C184.006 40.4477 183.559 40 183.006 40V42ZM337 40H335.994V42H337V40ZM330.961 40H328.948V42H330.961V40ZM323.916 40H321.903V42H323.916V40ZM316.87 40H314.857V42H316.87V40ZM309.825 40L307.812 40V42L309.825 42V40ZM302.779 40H300.766V42H302.779V40ZM295.734 40H293.721V42H295.734V40ZM288.688 40L286.675 40V42L288.688 42V40ZM281.643 40H279.63V42H281.643V40ZM274.597 40H272.584V42H274.597V40ZM267.552 40H265.539V42H267.552V40ZM260.507 40H258.494V42H260.507V40ZM253.461 40H251.448V42H253.461V40ZM246.416 40H244.403V42H246.416V40ZM239.37 40H237.357V42H239.37V40ZM232.325 40L230.312 40V42L232.325 42V40ZM225.279 40H223.266V42H225.279V40ZM218.234 40H216.221V42H218.234V40ZM211.188 40L209.175 40V42L211.188 42V40ZM204.143 40H202.13V42H204.143V40ZM197.097 40H195.084V42H197.097V40ZM190.052 40H188.039V42H190.052V40ZM183.006 40H182V42H183.006V40Z" fill="#8F92C7"/>
    <path d="M175.753 42.0136C174.829 41.2159 174.829 39.7841 175.753 38.9864L181.693 33.8563C182.989 32.7371 185 33.6577 185 35.3699L185 45.6301C185 47.3423 182.989 48.2629 181.693 47.1437L175.753 42.0136Z" fill="#8F92C7"/>
    <rect width="70" height="26" transform="translate(227 27)" fill="white"/>
    <path d="M233.721 40.062C234.029 39.638 234.365 39.32 234.729 39.108C235.093 38.892 235.467 38.784 235.851 38.784C236.111 38.784 236.341 38.836 236.541 38.94C236.745 39.04 236.911 39.19 237.039 39.39C237.167 39.586 237.255 39.828 237.303 40.116C237.351 40.404 237.351 40.734 237.303 41.106L236.847 45H235.563L236.019 41.106C236.075 40.67 236.051 40.352 235.947 40.152C235.843 39.948 235.651 39.846 235.371 39.846C235.203 39.846 235.029 39.894 234.849 39.99C234.673 40.082 234.503 40.214 234.339 40.386C234.175 40.554 234.019 40.76 233.871 41.004C233.727 41.244 233.605 41.512 233.505 41.808L233.121 45H231.837L232.911 36.12H234.195L233.721 40.062ZM242.375 39.744C242.307 39.736 242.239 39.73 242.171 39.726C242.107 39.722 242.041 39.72 241.973 39.72C241.629 39.72 241.305 39.8 241.001 39.96C240.701 40.12 240.439 40.336 240.215 40.608C239.995 40.88 239.821 41.196 239.693 41.556C239.565 41.912 239.501 42.288 239.501 42.684C239.501 43.14 239.573 43.478 239.717 43.698C239.865 43.914 240.073 44.022 240.341 44.022C240.521 44.022 240.697 43.964 240.869 43.848C241.041 43.728 241.203 43.566 241.355 43.362C241.511 43.154 241.655 42.91 241.787 42.63C241.919 42.35 242.033 42.046 242.129 41.718L242.375 39.744ZM241.967 43.572C241.827 43.804 241.677 44.014 241.517 44.202C241.361 44.386 241.195 44.544 241.019 44.676C240.843 44.808 240.657 44.91 240.461 44.982C240.265 45.054 240.061 45.09 239.849 45.09C239.613 45.09 239.395 45.044 239.195 44.952C238.995 44.86 238.823 44.722 238.679 44.538C238.535 44.354 238.421 44.128 238.337 43.86C238.257 43.588 238.217 43.274 238.217 42.918C238.217 42.554 238.263 42.2 238.355 41.856C238.447 41.508 238.577 41.182 238.745 40.878C238.913 40.57 239.115 40.288 239.351 40.032C239.587 39.776 239.851 39.556 240.143 39.372C240.435 39.188 240.749 39.046 241.085 38.946C241.425 38.842 241.781 38.79 242.153 38.79C242.421 38.79 242.687 38.812 242.951 38.856C243.215 38.896 243.473 38.968 243.725 39.072L242.993 45H242.315C242.151 45 242.039 44.958 241.979 44.874C241.919 44.79 241.889 44.686 241.889 44.562L241.967 43.572ZM248.472 39.954C248.436 40.01 248.398 40.05 248.358 40.074C248.322 40.098 248.276 40.11 248.22 40.11C248.156 40.11 248.09 40.09 248.022 40.05C247.954 40.006 247.872 39.958 247.776 39.906C247.684 39.854 247.574 39.808 247.446 39.768C247.318 39.724 247.164 39.702 246.984 39.702C246.816 39.702 246.664 39.724 246.528 39.768C246.396 39.812 246.282 39.872 246.186 39.948C246.09 40.024 246.016 40.114 245.964 40.218C245.916 40.322 245.892 40.432 245.892 40.548C245.892 40.68 245.926 40.792 245.994 40.884C246.066 40.972 246.16 41.05 246.276 41.118C246.392 41.186 246.524 41.248 246.672 41.304C246.82 41.36 246.97 41.418 247.122 41.478C247.278 41.538 247.43 41.608 247.578 41.688C247.726 41.764 247.858 41.858 247.974 41.97C248.09 42.078 248.182 42.21 248.25 42.366C248.322 42.522 248.358 42.708 248.358 42.924C248.358 43.212 248.3 43.488 248.184 43.752C248.072 44.016 247.908 44.248 247.692 44.448C247.48 44.644 247.222 44.802 246.918 44.922C246.618 45.038 246.282 45.096 245.91 45.096C245.522 45.096 245.17 45.026 244.854 44.886C244.542 44.742 244.292 44.562 244.104 44.346L244.422 43.854C244.462 43.794 244.508 43.748 244.56 43.716C244.612 43.68 244.676 43.662 244.752 43.662C244.824 43.662 244.894 43.69 244.962 43.746C245.03 43.798 245.11 43.858 245.202 43.926C245.298 43.99 245.414 44.05 245.55 44.106C245.686 44.158 245.862 44.184 246.078 44.184C246.258 44.184 246.418 44.16 246.558 44.112C246.698 44.06 246.816 43.99 246.912 43.902C247.008 43.814 247.082 43.712 247.134 43.596C247.186 43.48 247.212 43.358 247.212 43.23C247.212 43.086 247.176 42.966 247.104 42.87C247.036 42.774 246.944 42.692 246.828 42.624C246.712 42.552 246.58 42.49 246.432 42.438C246.288 42.386 246.138 42.332 245.982 42.276C245.83 42.22 245.68 42.156 245.532 42.084C245.388 42.012 245.258 41.922 245.142 41.814C245.026 41.706 244.932 41.576 244.86 41.424C244.792 41.268 244.758 41.078 244.758 40.854C244.758 40.59 244.81 40.334 244.914 40.086C245.018 39.834 245.168 39.612 245.364 39.42C245.56 39.228 245.8 39.074 246.084 38.958C246.368 38.842 246.692 38.784 247.056 38.784C247.436 38.784 247.77 38.848 248.058 38.976C248.35 39.104 248.598 39.274 248.802 39.486L248.472 39.954ZM252.005 45L252.743 38.868H253.391C253.531 38.868 253.637 38.904 253.709 38.976C253.785 39.044 253.823 39.152 253.823 39.3L253.769 40.164C254.057 39.704 254.369 39.36 254.705 39.132C255.045 38.9 255.403 38.784 255.779 38.784C256.171 38.784 256.471 38.918 256.679 39.186C256.887 39.45 256.999 39.832 257.015 40.332C257.311 39.8 257.641 39.41 258.005 39.162C258.369 38.91 258.759 38.784 259.175 38.784C259.695 38.784 260.073 38.986 260.309 39.39C260.545 39.794 260.619 40.366 260.531 41.106L260.069 45H258.803L259.259 41.106C259.287 40.89 259.297 40.704 259.289 40.548C259.285 40.388 259.261 40.258 259.217 40.158C259.177 40.054 259.115 39.978 259.031 39.93C258.951 39.882 258.845 39.858 258.713 39.858C258.553 39.858 258.393 39.9 258.233 39.984C258.077 40.068 257.927 40.19 257.783 40.35C257.639 40.51 257.505 40.706 257.381 40.938C257.257 41.17 257.147 41.434 257.051 41.73L256.667 45H255.401L255.863 41.106C255.891 40.89 255.903 40.704 255.899 40.548C255.895 40.388 255.873 40.258 255.833 40.158C255.793 40.054 255.733 39.978 255.653 39.93C255.573 39.882 255.467 39.858 255.335 39.858C255.159 39.858 254.991 39.904 254.831 39.996C254.671 40.084 254.519 40.212 254.375 40.38C254.231 40.548 254.097 40.754 253.973 40.998C253.849 41.238 253.739 41.51 253.643 41.814L253.265 45H252.005ZM267.173 38.88L266.435 45H265.793C265.481 45 265.325 44.848 265.325 44.544L265.385 43.662C265.073 44.138 264.723 44.496 264.335 44.736C263.951 44.972 263.555 45.09 263.147 45.09C262.891 45.09 262.663 45.04 262.463 44.94C262.263 44.836 262.099 44.686 261.971 44.49C261.843 44.29 261.755 44.046 261.707 43.758C261.659 43.47 261.657 43.14 261.701 42.768L262.163 38.88H263.447L262.985 42.768C262.929 43.204 262.953 43.522 263.057 43.722C263.165 43.922 263.357 44.022 263.633 44.022C263.801 44.022 263.975 43.976 264.155 43.884C264.335 43.788 264.509 43.654 264.677 43.482C264.845 43.31 265.001 43.102 265.145 42.858C265.289 42.614 265.411 42.342 265.511 42.042L265.889 38.88H267.173ZM267.931 45L269.005 36.12H270.277L269.197 45H267.931ZM276.84 39.876L276.21 45H274.968L275.598 39.876H272.91L272.556 42.708C272.536 42.872 272.52 43.004 272.508 43.104C272.496 43.2 272.486 43.278 272.478 43.338C272.474 43.394 272.47 43.434 272.466 43.458C272.466 43.478 272.466 43.494 272.466 43.506C272.466 43.682 272.508 43.816 272.592 43.908C272.676 44 272.794 44.046 272.946 44.046C273.038 44.046 273.118 44.034 273.186 44.01C273.258 43.982 273.318 43.954 273.366 43.926C273.418 43.894 273.462 43.866 273.498 43.842C273.538 43.814 273.574 43.8 273.606 43.8C273.646 43.8 273.676 43.81 273.696 43.83C273.716 43.846 273.736 43.876 273.756 43.92L274.032 44.55C273.824 44.726 273.59 44.862 273.33 44.958C273.074 45.05 272.814 45.096 272.55 45.096C272.134 45.096 271.806 44.984 271.566 44.76C271.33 44.532 271.206 44.21 271.194 43.794C271.194 43.766 271.194 43.734 271.194 43.698C271.194 43.658 271.196 43.602 271.2 43.53C271.208 43.458 271.218 43.362 271.23 43.242C271.246 43.122 271.266 42.968 271.29 42.78L271.65 39.876H271.044C270.976 39.876 270.92 39.854 270.876 39.81C270.836 39.762 270.82 39.694 270.828 39.606L270.888 39.108L271.812 38.964L272.286 37.182C272.31 37.114 272.346 37.06 272.394 37.02C272.446 36.976 272.51 36.954 272.586 36.954H273.27L273.018 38.976H276.948L276.84 39.876ZM277.464 37.032C277.464 37.148 277.44 37.258 277.392 37.362C277.344 37.466 277.28 37.558 277.2 37.638C277.12 37.714 277.03 37.776 276.93 37.824C276.83 37.868 276.726 37.89 276.618 37.89C276.51 37.89 276.406 37.868 276.306 37.824C276.21 37.776 276.124 37.714 276.048 37.638C275.976 37.558 275.916 37.466 275.868 37.362C275.824 37.258 275.802 37.148 275.802 37.032C275.802 36.916 275.824 36.806 275.868 36.702C275.916 36.594 275.978 36.502 276.054 36.426C276.13 36.346 276.218 36.284 276.318 36.24C276.418 36.192 276.52 36.168 276.624 36.168C276.732 36.168 276.836 36.192 276.936 36.24C277.04 36.284 277.13 36.346 277.206 36.426C277.286 36.502 277.348 36.592 277.392 36.696C277.44 36.8 277.464 36.912 277.464 37.032ZM279.173 43.608C279.317 43.788 279.485 43.914 279.677 43.986C279.873 44.058 280.067 44.094 280.259 44.094C280.451 44.094 280.631 44.054 280.799 43.974C280.967 43.894 281.121 43.784 281.261 43.644C281.401 43.504 281.527 43.34 281.639 43.152C281.751 42.96 281.845 42.756 281.921 42.54C281.997 42.324 282.055 42.1 282.095 41.868C282.135 41.632 282.155 41.4 282.155 41.172C282.155 40.72 282.077 40.382 281.921 40.158C281.769 39.93 281.551 39.816 281.267 39.816C281.091 39.816 280.913 39.874 280.733 39.99C280.553 40.102 280.379 40.26 280.211 40.464C280.043 40.668 279.885 40.908 279.737 41.184C279.589 41.46 279.463 41.76 279.359 42.084L279.173 43.608ZM279.509 40.356C279.657 40.116 279.817 39.9 279.989 39.708C280.165 39.516 280.347 39.352 280.535 39.216C280.727 39.076 280.925 38.97 281.129 38.898C281.337 38.822 281.549 38.784 281.765 38.784C282.021 38.784 282.251 38.832 282.455 38.928C282.663 39.02 282.839 39.162 282.983 39.354C283.127 39.542 283.237 39.778 283.313 40.062C283.393 40.342 283.433 40.67 283.433 41.046C283.433 41.386 283.397 41.722 283.325 42.054C283.257 42.386 283.159 42.702 283.031 43.002C282.903 43.298 282.747 43.574 282.563 43.83C282.383 44.086 282.183 44.308 281.963 44.496C281.743 44.68 281.505 44.826 281.249 44.934C280.993 45.038 280.727 45.09 280.451 45.09C280.163 45.09 279.901 45.036 279.665 44.928C279.433 44.82 279.233 44.67 279.065 44.478L278.753 47.034H277.499L278.495 38.868H279.143C279.283 38.868 279.389 38.904 279.461 38.976C279.537 39.044 279.575 39.152 279.575 39.3L279.509 40.356ZM284.185 45L285.259 36.12H286.531L285.451 45H284.185ZM290.1 39.708C289.876 39.708 289.668 39.754 289.476 39.846C289.288 39.938 289.118 40.066 288.966 40.23C288.818 40.39 288.688 40.582 288.576 40.806C288.468 41.03 288.384 41.274 288.324 41.538C288.876 41.466 289.32 41.386 289.656 41.298C289.992 41.21 290.25 41.114 290.43 41.01C290.61 40.906 290.73 40.796 290.79 40.68C290.85 40.56 290.88 40.434 290.88 40.302C290.88 40.238 290.866 40.17 290.838 40.098C290.81 40.026 290.764 39.962 290.7 39.906C290.64 39.85 290.56 39.804 290.46 39.768C290.36 39.728 290.24 39.708 290.1 39.708ZM291.894 43.866C291.686 44.078 291.482 44.262 291.282 44.418C291.082 44.57 290.878 44.696 290.67 44.796C290.462 44.896 290.244 44.97 290.016 45.018C289.788 45.066 289.54 45.09 289.272 45.09C288.916 45.09 288.596 45.03 288.312 44.91C288.028 44.79 287.784 44.622 287.58 44.406C287.38 44.186 287.226 43.922 287.118 43.614C287.01 43.302 286.956 42.954 286.956 42.57C286.956 42.25 286.99 41.936 287.058 41.628C287.126 41.316 287.224 41.02 287.352 40.74C287.484 40.46 287.642 40.202 287.826 39.966C288.014 39.726 288.226 39.52 288.462 39.348C288.702 39.176 288.964 39.042 289.248 38.946C289.536 38.846 289.844 38.796 290.172 38.796C290.488 38.796 290.762 38.842 290.994 38.934C291.226 39.022 291.418 39.138 291.57 39.282C291.726 39.422 291.842 39.578 291.918 39.75C291.994 39.922 292.032 40.09 292.032 40.254C292.032 40.522 291.976 40.768 291.864 40.992C291.756 41.216 291.56 41.418 291.276 41.598C290.992 41.778 290.602 41.934 290.106 42.066C289.614 42.198 288.982 42.304 288.21 42.384C288.206 42.408 288.204 42.434 288.204 42.462C288.204 42.486 288.204 42.512 288.204 42.54C288.204 43.048 288.314 43.432 288.534 43.692C288.754 43.948 289.084 44.076 289.524 44.076C289.8 44.076 290.03 44.038 290.214 43.962C290.398 43.886 290.554 43.804 290.682 43.716C290.814 43.624 290.928 43.54 291.024 43.464C291.124 43.388 291.228 43.35 291.336 43.35C291.42 43.35 291.498 43.39 291.57 43.47L291.894 43.866Z" fill="#3B438C"/>
    <defs>
        <filter id="filter0_d_45_1243" x="327" y="7" width="184" height="68" filterUnits="userSpaceOnUse" color-interpolation-filters="sRGB">
            <feFlood flood-opacity="0" result="BackgroundImageFix"/>
            <feColorMatrix in="SourceAlpha" type="matrix" values="0 0 0 0 0 0 0 0 0 0 0 0 0 0 0 0 0 0 127 0" result="hardAlpha"/>
            <feOffset dx="2" dy="2"/>
            <feGaussianBlur stdDeviation="7.5"/>
            <feComposite in2="hardAlpha" operator="out"/>
            <feColorMatrix type="matrix" values="0 0 0 0 0.780392 0 0 0 0 0.796078 0 0 0 0 0.831373 0 0 0 0.77 0"/>
            <feBlend mode="normal" in2="BackgroundImageFix" result="effect1_dropShadow_45_1243"/>
            <feBlend mode="normal" in="SourceGraphic" in2="effect1_dropShadow_45_1243" result="shape"/>
        </filter>
        <filter id="filter1_d_45_1243" x="7" y="7" width="184" height="68" filterUnits="userSpaceOnUse" color-interpolation-filters="sRGB">
            <feFlood flood-opacity="0" result="BackgroundImageFix"/>
            <feColorMatrix in="SourceAlpha" type="matrix" values="0 0 0 0 0 0 0 0 0 0 0 0 0 0 0 0 0 0 127 0" result="hardAlpha"/>
            <feOffset dx="2" dy="2"/>
            <feGaussianBlur stdDeviation="7.5"/>
            <feComposite in2="hardAlpha" operator="out"/>
            <feColorMatrix type="matrix" values="0 0 0 0 0.780392 0 0 0 0 0.796078 0 0 0 0 0.831373 0 0 0 0.77 0"/>
            <feBlend mode="normal" in2="BackgroundImageFix" result="effect1_dropShadow_45_1243"/>
            <feBlend mode="normal" in="SourceGraphic" in2="effect1_dropShadow_45_1243" result="shape"/>
        </filter>
    </defs>
</svg>
