<svg xmlns="http://www.w3.org/2000/svg" viewBox="0 0 176 124" xmlns:xlink="http://www.w3.org/1999/xlink">
    <g fill="none" fill-rule="evenodd">
        <path fill="#414d97" d="M70 88.17V35.83L116 62 70 88.17zm102.32-68.8c-2.02-7.63-8-13.63-15.56-15.67C143.04 0 88 0 88 0S32.96 0 19.24 3.7C11.67 5.74 5.7 11.74 3.68 19.36 0 33.18 0 62 0 62s0 28.82 3.68 42.64c2.02 7.62 8 13.62 15.56 15.66C32.96 124 88 124 88 124s55.04 0 68.76-3.7c7.57-2.04 13.54-8.04 15.56-15.66C176 90.82 176 62 176 62s0-28.82-3.68-42.64z"/>
    </g>
</svg>
