<svg xmlns="http://www.w3.org/2000/svg" viewBox="0 0 36 36">
    <path fill="#414d97" fill-rule="evenodd" d="M30.68 30.68h-5.34v-8.36c0-2-.04-4.55-2.78-4.55-2.77 0-3.2 2.17-3.2 4.4v8.5h-5.33V13.5h5.12v2.35h.07c.7-1.36 2.45-2.78 5.05-2.78 5.4 0 6.4 3.56 6.4 8.18v9.43zM8 11.15c-1.7 0-3.1-1.4-3.1-3.1 0-1.7 1.4-3.1 3.1-3.1 1.72 0 3.1 1.4 3.1 3.1 0 1.7-1.38 3.1-3.1 3.1zM5.34 30.68h5.35V13.5H5.33v17.18zM33.33 0H2.67C1.2 0 0 1.16 0 2.6v30.8C0 34.84 1.2 36 2.65 36h30.7C34.8 36 36 34.84 36 33.4V2.6C36 1.16 34.8 0 33.34 0z"/>
</svg>
