<svg id="Layer_1" data-name="Layer 1" xmlns="http://www.w3.org/2000/svg" viewBox="0 0 106.58 106.58"><defs><style>.cls-1{fill:#4CA8E0;stroke-miterlimit:10;}.cls-1,.cls-2{stroke:#4CA8E0;stroke-width:3px;}.cls-2{fill:none;stroke-linejoin:round;}</style></defs><title>rest</title><circle class="cls-1" cx="32.11" cy="54.3" r="6.54"/><circle class="cls-1" cx="53.29" cy="54.3" r="6.54"/><circle class="cls-1" cx="74.47" cy="54.31" r="6.54"/><path class="cls-2" d="M1.53,54.16a5.28,5.28,0,0,0,2,4,6.55,6.55,0,0,1,2.22,3.92,15.91,15.91,0,0,1-.41,6.16,46.24,46.24,0,0,0-1.2,7.94,12.92,12.92,0,0,0,9.28,13.2,24.12,24.12,0,0,0,8.42.69s2.1-.39,2-3.35.22-4.51-1.62-5.12-5.88-.82-6.4-4.52c-.39-2.72.15-6,.9-9.84,0,0,1.65-7.61-.92-10.24s-4.1-2.52-4.1-2.52h0s1.53-.19,4.1-2.82.92-10.25.92-10.25c-.75-3.86-1.29-7.12-.9-9.84.52-3.69,4.57-3.9,6.4-4.51s1.57-2.18,1.62-5.13-2-3.35-2-3.35a24.12,24.12,0,0,0-8.42.69A12.93,12.93,0,0,0,4.18,32.46a46.38,46.38,0,0,0,1.2,7.94,15.87,15.87,0,0,1,.41,6.15,6.55,6.55,0,0,1-2.22,3.92,5.3,5.3,0,0,0-2,4"/><path class="cls-2" d="M105.06,54.15a5.3,5.3,0,0,1-2,4,6.55,6.55,0,0,0-2.22,3.92,15.92,15.92,0,0,0,.41,6.16,45.1,45.1,0,0,1,1.19,7.94,12.91,12.91,0,0,1-9.27,13.2,24.12,24.12,0,0,1-8.42.69s-2.1-.39-2-3.35-.23-4.51,1.61-5.13,5.88-.81,6.41-4.51c.39-2.72-.15-6-.9-9.84,0,0-1.65-7.61.92-10.25s4.1-2.52,4.1-2.52h0s-1.53-.18-4.1-2.81-.92-10.25-.92-10.25c.75-3.86,1.29-7.12.9-9.84-.53-3.7-4.57-3.9-6.41-4.51s-1.56-2.18-1.61-5.13,2-3.35,2-3.35a24.12,24.12,0,0,1,8.42.69,12.91,12.91,0,0,1,9.27,13.2,45.1,45.1,0,0,1-1.19,7.94,15.92,15.92,0,0,0-.41,6.16A6.55,6.55,0,0,0,103,50.46a5.3,5.3,0,0,1,2,4"/></svg>