<?xml version="1.0" encoding="utf-8"?>
<svg viewBox="0 -25 259 256" xmlns="http://www.w3.org/2000/svg">
 <g id="Page-1" stroke="none" stroke-width="1" fill="none" fill-rule="evenodd">
  <g id="illus--translation-connection" transform="translate(2.000000, 1.000000)">
   <path d="M27,192.6 C27,135.4 73.4,89 130.6,89 C187.8,89 234.2,135.4 234.2,192.6 L27,192.6 Z" id="Path" fill="#E1F2FF" fill-rule="nonzero"/>
   <path d="M22,184 L58,184 M64,184 L240.9,184 M248,184 L255,184 M5,184 L14,184 M97,194 L164.2,194 M173,194 L182.1,194 M89,193 L84,193.1" id="Shape" stroke="#5E63B6" stroke-width="3" fill="#FFFFFF" fill-rule="nonzero" stroke-linecap="round" stroke-linejoin="round"/>
   <path d="M44.7,152.7 L44.7,156.6 M46.7,154.6 L42.8,154.6" id="Shape" stroke="#5E63B6" stroke-linecap="round"/>
   <path d="M219.7,92.7 L219.7,96.6 M221.7,94.6 L217.8,94.6" id="Shape" stroke="#5E63B6" stroke-linecap="round" stroke-linejoin="round"/>
   <path d="M28.4,91.3 L28.4,99.4 M32.5,95.3 L24.4,95.3" id="Shape" stroke="#5E63B6" stroke-width="2" fill="#FFFFFF" fill-rule="nonzero" stroke-linecap="round"/>
   <path d="M219,32.4 L219,39.4 M222.5,35.9 L215.5,35.9" id="Shape" stroke="#5E63B6" stroke-width="2" stroke-linecap="round" stroke-linejoin="round"/>
   <path d="M82.1,0.6 L82.1,7.6 M85.6,4.1 L78.6,4.1" id="Shape" stroke="#5E63B6" stroke-width="2" stroke-linecap="round" stroke-linejoin="round"/>
   <path d="M45.7,56.7 L45.7,60.6 M47.7,58.7 L43.8,58.7" id="Shape" stroke="#5E63B6" stroke-linecap="round"/>
   <path d="M176.4,88.7 L220.1,88.7 L244,60 L200.3,60 L176.4,88.7 Z M176.4,88.7 L89,88.7 L65,60 L152.4,60 L176.4,88.7 Z" id="Shape" stroke="#5563B6" stroke-width="2" fill="#FFFFFF" fill-rule="nonzero"/>
   <g id="Group" transform="translate(157.000676, 45.473838) rotate(3.000000) translate(-157.000676, -45.473838) translate(129.000676, 6.973838)" fill-rule="nonzero">
    <path d="M8.1,0.3 L54,3.9 C55.2,4 56.1,5.1 56,6.3 L50.7,74.7 C50.6,75.9 49.5,76.9 48.3,76.8 L2.5,73.2 C1.3,73.1 0.3,72 0.4,70.8 L5.7,2.4 C5.8,1.2 6.9,0.2 8.1,0.3 Z" id="Path" stroke="#9ACDED" stroke-width="2" fill="#FFFFFF"/>
    <polygon id="Path" fill="#E1F2FF" points="4.9 65 48 71.4 52.8 9.8 9.1 4.4"/>
    <polygon id="Path" fill="#9ACDED" points="19.6 16.9 18.5 15.6 15.1 18.5 13.3 16.4 12 17.5 14.9 20.9 14.9 20.9 14.9 20.9"/>
    <line x1="22.2" y1="18.6" x2="47.1" y2="20.5" id="Path" stroke="#9ACDED" stroke-width="2" fill="#FFFFFF" stroke-linecap="round" stroke-linejoin="round"/>
    <polygon id="Path" fill="#9ACDED" points="19 24.5 17.9 23.3 14.5 26.2 12.7 24.1 11.5 25.2 14.4 28.6 14.4 28.6 14.4 28.6"/>
    <line x1="21.6" y1="26.7" x2="46.5" y2="28.6" id="Path" stroke="#9ACDED" stroke-width="2" fill="#FFFFFF" stroke-linecap="round" stroke-linejoin="round"/>
    <polygon id="Path" fill="#9ACDED" points="18.4 32.2 17.3 31 13.9 33.9 12.1 31.8 10.9 32.9 13.8 36.3 13.8 36.3 13.8 36.3"/>
    <line x1="20.9" y1="35" x2="45.8" y2="36.9" id="Path" stroke="#9ACDED" stroke-width="2" fill="#FFFFFF" stroke-linecap="round" stroke-linejoin="round"/>
   </g>
   <g id="Group" transform="translate(115.039686, 71.695412) rotate(-23.000000) translate(-115.039686, -71.695412) translate(87.039686, 33.195412)" fill-rule="nonzero">
    <path d="M8.1,0.3 L54,3.9 C55.2,4 56.1,5.1 56,6.3 L50.7,74.7 C50.6,75.9 49.5,76.9 48.3,76.8 L2.5,73.2 C1.3,73.1 0.3,72 0.4,70.8 L5.7,2.4 C5.8,1.2 6.9,0.2 8.1,0.3 Z" id="Path" stroke="#9ACDED" stroke-width="2" fill="#FFFFFF"/>
    <polygon id="Path" fill="#E1F2FF" points="4.9 65 48 71.4 52.8 9.8 9.1 4.4"/>
    <polygon id="Path" fill="#9ACDED" points="19.6 16.9 18.5 15.6 15.1 18.5 13.3 16.4 12 17.5 14.9 20.9 14.9 20.9 14.9 20.9"/>
    <line x1="22.2" y1="18.6" x2="47.1" y2="20.5" id="Path" stroke="#9ACDED" stroke-width="2" fill="#FFFFFF" stroke-linecap="round" stroke-linejoin="round"/>
    <polygon id="Path" fill="#9ACDED" points="19 24.5 17.9 23.3 14.5 26.2 12.7 24.1 11.5 25.2 14.4 28.6 14.4 28.6 14.4 28.6"/>
    <line x1="21.6" y1="26.7" x2="46.5" y2="28.6" id="Path" stroke="#9ACDED" stroke-width="2" fill="#FFFFFF" stroke-linecap="round" stroke-linejoin="round"/>
    <polygon id="Path" fill="#9ACDED" points="18.4 32.2 17.3 30.9 13.9 33.8 12.1 31.7 10.9 32.8 13.8 36.2 13.8 36.2 13.8 36.2"/>
    <line x1="20.9" y1="35" x2="45.8" y2="36.9" id="Path" stroke="#9ACDED" stroke-width="2" fill="#FFFFFF" stroke-linecap="round" stroke-linejoin="round"/>
   </g>
   <g id="Group" transform="translate(193.012724, 86.387681) rotate(13.000000) translate(-193.012724, -86.387681) translate(165.012724, 47.887681)" fill-rule="nonzero">
    <path d="M8.1,0.3 L54,3.9 C55.2,4 56.1,5.1 56,6.3 L50.7,74.7 C50.6,75.9 49.5,76.9 48.3,76.8 L2.5,73.2 C1.3,73.1 0.3,72 0.4,70.8 L5.7,2.4 C5.8,1.2 6.9,0.2 8.1,0.3 Z" id="Path" stroke="#9ACDED" stroke-width="2" fill="#FFFFFF"/>
    <polygon id="Path" fill="#E1F2FF" points="4.9 65 48 71.4 52.8 9.8 9.1 4.4"/>
    <polygon id="Path" fill="#9ACDED" points="19.6 16.9 18.5 15.6 15.1 18.5 13.3 16.4 12 17.5 14.9 20.9 14.9 20.9 14.9 20.9"/>
    <line x1="22.2" y1="18.6" x2="47.1" y2="20.5" id="Path" stroke="#9ACDED" stroke-width="2" fill="#FFFFFF" stroke-linecap="round" stroke-linejoin="round"/>
    <polygon id="Path" fill="#9ACDED" points="19 24.5 17.9 23.3 14.5 26.2 12.7 24.1 11.5 25.2 14.4 28.6 14.4 28.6 14.4 28.6"/>
    <line x1="21.6" y1="26.7" x2="46.5" y2="28.6" id="Path" stroke="#9ACDED" stroke-width="2" fill="#FFFFFF" stroke-linecap="round" stroke-linejoin="round"/>
    <polygon id="Path" fill="#9ACDED" points="18.4 32.2 17.3 30.9 13.9 33.8 12.1 31.7 10.8 32.8 13.7 36.2 13.7 36.2 13.7 36.2"/>
    <line x1="20.9" y1="35" x2="45.8" y2="36.9" id="Path" stroke="#9ACDED" stroke-width="2" fill="#FFFFFF" stroke-linecap="round" stroke-linejoin="round"/>
   </g>
   <g id="Group" transform="translate(117.000000, 51.000000)" fill-rule="nonzero">
    <path d="M8.1,0.3 L54,3.9 C55.2,4 56.1,5.1 56,6.3 L50.7,74.7 C50.6,75.9 49.5,76.9 48.3,76.8 L2.5,73.2 C1.3,73.1 0.3,72 0.4,70.8 L5.7,2.4 C5.8,1.2 6.9,0.2 8.1,0.3 Z" id="Path" stroke="#9ACDED" stroke-width="2" fill="#FFFFFF"/>
    <polygon id="Path" fill="#E1F2FF" points="4.9 65 48 71.4 52.8 9.8 9.1 4.4"/>
    <polygon id="Path" fill="#9ACDED" points="19.6 16.9 18.5 15.6 15.1 18.5 13.3 16.4 12 17.5 14.9 20.9 14.9 20.9 14.9 20.9"/>
    <line x1="22.2" y1="18.6" x2="47.1" y2="20.5" id="Path" stroke="#9ACDED" stroke-width="2" fill="#FFFFFF" stroke-linecap="round" stroke-linejoin="round"/>
    <polygon id="Path" fill="#9ACDED" points="19 24.5 17.9 23.3 14.5 26.2 12.7 24.1 11.5 25.2 14.4 28.6 14.4 28.6 14.4 28.6"/>
    <line x1="21.6" y1="26.7" x2="46.5" y2="28.6" id="Path" stroke="#9ACDED" stroke-width="2" fill="#FFFFFF" stroke-linecap="round" stroke-linejoin="round"/>
    <polygon id="Path" fill="#9ACDED" points="18.4 32.2 17.3 31 13.9 33.9 12.1 31.8 10.9 32.9 13.8 36.3 13.8 36.3 13.8 36.3"/>
    <line x1="20.9" y1="35" x2="45.8" y2="36.9" id="Path" stroke="#9ACDED" stroke-width="2" fill="#FFFFFF" stroke-linecap="round" stroke-linejoin="round"/>
   </g>
   <polygon id="Path" stroke="#5563B6" stroke-width="2" fill="#FFFFFF" fill-rule="nonzero" points="132.7 88.6 220.1 88.6 220.1 182.8 132.7 182.8"/>
   <polygon id="Path" fill="#E1F2FF" fill-rule="nonzero" points="219.1 142.7 132.6 103 132.7 88.6 219.1 88.6"/>
   <polygon id="Path" stroke="#5563B6" stroke-width="2" fill="#FFFFFF" fill-rule="nonzero" points="88.9 88.7 132.6 88.7 132.6 182.9 88.9 182.9"/>
   <path d="M132.6,88.7 L88.9,88.7 L65,117.3 L108.7,117.3 L132.6,88.7 Z M132.6,88.7 L220,88.7 L244,117.4 L156.6,117.4 L132.6,88.7 Z" id="Shape" stroke="#5563B6" stroke-width="2" fill="#FFFFFF" fill-rule="nonzero"/>
   <path d="M231.1,112.1 L210.7,112.1 M88.8,112.1 L75.4,112.1" id="Shape" stroke="#E1F2FF" stroke-width="2" stroke-linecap="round"/>
   <g id="Group" transform="translate(68.500000, 108.000000) scale(-1, 1) translate(-68.500000, -108.000000) translate(0.000000, 21.000000)">
    <path d="M100.4,12.2 L96.1,12.2 C85.2,12.2 80.2,28 80.2,45.5 L80.2,101 C80.2,126.1 58.1,121.9 53.4,121.9" id="Path" stroke="#5E63B6" stroke-width="4"/>
    <g/>
    <path d="M124,9 L115.5,9 L115.5,6 L124,6 C124.6,6 125,6.5 125,7 L125,7.9 C125,8.5 124.5,9 124,9 Z M124,18 L115.5,18 L115.5,15 L124,15 C124.6,15 125,15.5 125,16 L125,16.9 C125,17.5 124.5,18 124,18 Z" id="Shape" stroke="#5E63B6" stroke-width="2" fill="#5E63B6"/>
   </g>
   <circle id="Oval" stroke="#5E63B6" stroke-width="3" fill="#FFFFFF" fill-rule="nonzero" cx="106.3" cy="143.9" r="22.7"/>
   <circle id="Oval" stroke="#5E63B6" stroke-width="1.5463" fill="#FFFFFF" fill-rule="nonzero" cx="106.3" cy="143.9" r="11.7"/>
   <path d="M109.7,149.1 C109.7,148.9 109.6,148.4 109.7,147.6 C109.7,147.2 109.9,146.8 109.9,146.4 C110.1,145.7 110.5,145 110.9,144.4 C111.2,143.7 111.6,143.1 111.7,142.4 C111.9,141.4 111.1,140.4 110.6,139.8 C109.8,138.8 108.8,138 107.8,137.3 C107.9,138.2 108,139.2 107.9,140.2 C107.8,141.1 107.7,142 107.3,142.8 C107.1,143.3 107,143.7 106.7,144.2 C106.6,144.4 106.6,144.4 106.5,144.4 C106.4,144.4 106.3,144.4 106.2,144.4 C106,144.4 105.7,144.3 105.5,144.3 C104.6,144.1 103.7,143.9 102.9,143.6 C101.9,143.2 101,142.6 100.2,142 C100.3,143 100.4,143.9 100.8,144.8 C101,145.6 101.4,146.5 101.9,147.2 C102.1,147.5 102.5,147.9 103,148 C103.4,148.2 103.8,148.2 104.1,148.2 C104.9,148.3 105.8,148.2 106.6,148.4 C107.7,148 108.8,148.4 109.7,149.1" id="Path" fill="#9452BA" fill-rule="nonzero"/>
   <path d="M33,44.9 L21.6,44.9 L21.6,20.9 L33,20.9 C35.1,20.9 36.7,22.6 36.7,24.6 L36.7,41.2 C36.7,43.2 35,44.9 33,44.9 Z" id="Path" fill="#5E63B6" fill-rule="nonzero"/>
  </g>
  <text id="Online-Translation" font-family="Lato-Bold, Lato" font-size="14" font-weight="bold" fill="#5563B6" style="white-space: pre;"><tspan x="0" dy="1em">​</tspan>            <tspan x="0" dy="1em">​</tspan>        </text>
 </g>
 <path d="M 163.897 154.049 L 162.087 154.049 L 162.087 158.629 L 159.667 158.629 L 159.667 145.619 L 163.897 145.619 C 164.77 145.619 165.524 145.719 166.157 145.919 C 166.797 146.126 167.324 146.412 167.737 146.779 C 168.15 147.146 168.457 147.582 168.657 148.089 C 168.85 148.602 168.947 149.159 168.947 149.759 C 168.947 150.392 168.844 150.972 168.637 151.499 C 168.424 152.019 168.107 152.469 167.687 152.849 C 167.267 153.229 166.744 153.522 166.117 153.729 C 165.484 153.942 164.744 154.049 163.897 154.049 Z M 162.087 147.489 L 162.087 152.159 L 163.897 152.159 C 164.344 152.159 164.734 152.102 165.067 151.989 C 165.394 151.882 165.664 151.726 165.877 151.519 C 166.097 151.306 166.26 151.052 166.367 150.759 C 166.474 150.459 166.527 150.126 166.527 149.759 C 166.527 149.412 166.474 149.099 166.367 148.819 C 166.26 148.539 166.097 148.299 165.877 148.099 C 165.664 147.899 165.394 147.749 165.067 147.649 C 164.734 147.542 164.344 147.489 163.897 147.489 L 162.087 147.489 ZM 172.927 158.629 L 170.707 158.629 L 170.707 149.399 L 172.007 149.399 C 172.24 149.399 172.4 149.439 172.487 149.519 C 172.58 149.606 172.64 149.749 172.667 149.949 L 172.807 151.069 C 173.134 150.496 173.52 150.046 173.967 149.719 C 174.407 149.386 174.904 149.219 175.457 149.219 C 175.91 149.219 176.287 149.326 176.587 149.539 L 176.307 151.199 C 176.287 151.312 176.247 151.389 176.187 151.429 C 176.127 151.476 176.047 151.499 175.947 151.499 C 175.854 151.499 175.73 151.479 175.577 151.439 C 175.417 151.399 175.21 151.379 174.957 151.379 C 174.49 151.379 174.094 151.506 173.767 151.759 C 173.434 152.012 173.154 152.386 172.927 152.879 L 172.927 158.629 ZM 178.2 149.399 L 180.43 149.399 L 180.43 158.629 L 178.2 158.629 L 178.2 149.399 Z M 180.76 146.699 C 180.76 146.892 180.72 147.072 180.64 147.239 C 180.56 147.412 180.457 147.562 180.33 147.689 C 180.203 147.809 180.053 147.909 179.88 147.989 C 179.707 148.062 179.52 148.099 179.32 148.099 C 179.127 148.099 178.943 148.062 178.77 147.989 C 178.603 147.909 178.457 147.809 178.33 147.689 C 178.203 147.562 178.103 147.412 178.03 147.239 C 177.95 147.072 177.91 146.892 177.91 146.699 C 177.91 146.506 177.95 146.322 178.03 146.149 C 178.103 145.976 178.203 145.826 178.33 145.699 C 178.457 145.572 178.603 145.472 178.77 145.399 C 178.943 145.319 179.127 145.279 179.32 145.279 C 179.52 145.279 179.707 145.319 179.88 145.399 C 180.053 145.472 180.203 145.572 180.33 145.699 C 180.457 145.826 180.56 145.976 180.64 146.149 C 180.72 146.322 180.76 146.506 180.76 146.699 ZM 185.158 158.629 L 182.938 158.629 L 182.938 149.399 L 184.298 149.399 C 184.585 149.399 184.771 149.532 184.858 149.799 L 185.018 150.529 C 185.205 150.336 185.401 150.162 185.608 150.009 C 185.815 149.849 186.031 149.712 186.258 149.599 C 186.491 149.486 186.741 149.399 187.008 149.339 C 187.268 149.279 187.555 149.249 187.868 149.249 C 188.375 149.249 188.821 149.336 189.208 149.509 C 189.601 149.676 189.928 149.916 190.188 150.229 C 190.448 150.536 190.645 150.906 190.778 151.339 C 190.911 151.766 190.978 152.236 190.978 152.749 L 190.978 158.629 L 188.758 158.629 L 188.758 152.749 C 188.758 152.189 188.628 151.752 188.368 151.439 C 188.108 151.132 187.718 150.979 187.198 150.979 C 186.811 150.979 186.451 151.066 186.118 151.239 C 185.778 151.412 185.458 151.649 185.158 151.949 L 185.158 158.629 ZM 196.201 158.769 C 195.401 158.769 194.788 158.542 194.361 158.089 C 193.928 157.636 193.711 157.012 193.711 156.219 L 193.711 151.059 L 192.771 151.059 C 192.651 151.059 192.548 151.019 192.461 150.939 C 192.374 150.866 192.331 150.749 192.331 150.589 L 192.331 149.709 L 193.821 149.469 L 194.281 146.949 C 194.308 146.829 194.364 146.736 194.451 146.669 C 194.538 146.602 194.648 146.569 194.781 146.569 L 195.931 146.569 L 195.931 149.479 L 198.361 149.479 L 198.361 151.059 L 195.931 151.059 L 195.931 156.059 C 195.931 156.352 196.004 156.579 196.151 156.739 C 196.291 156.899 196.481 156.979 196.721 156.979 C 196.861 156.979 196.978 156.962 197.071 156.929 C 197.164 156.896 197.244 156.862 197.311 156.829 C 197.384 156.796 197.448 156.762 197.501 156.729 C 197.554 156.696 197.608 156.679 197.661 156.679 C 197.728 156.679 197.781 156.696 197.821 156.729 C 197.861 156.762 197.908 156.809 197.961 156.869 L 198.621 157.949 C 198.301 158.222 197.931 158.429 197.511 158.569 C 197.091 158.702 196.654 158.769 196.201 158.769 Z" transform="matrix(1, 0, 0, 1, 0, 0)" style="fill: rgb(85, 99, 182); white-space: pre;"/>
</svg>