<svg width="256" height="256" xmlns="http://www.w3.org/2000/svg" xmlns:xlink="http://www.w3.org/1999/xlink">
  <defs>
    <path id="a" d="M0 236h251.191V.345H0z"/>
    <path id="c" d="M.042.119H55.22v33.258H.041z"/>
    <path id="e" d="M.042.119H55.22v33.258H.041z"/>
    <path id="g" d="M.622.595h39.11v23.782H.622z"/>
    <path id="i" d="M.622.595h39.11v23.782H.622z"/>
    <path id="k" d="M.54.613h11.185v11.764H.541z"/>
    <path id="m" d="M.18.485h25.018v37.892H.18z"/>
    <path id="o" d="M.188.363h33.593v25.014H.188z"/>
  </defs>
  <g fill="none" fill-rule="evenodd">
    <g>
      <path d="M187.753 138.889h37.416-37.416z" fill="#FFF"/>
      <path d="M225.168 138.89h-37.415" stroke="#5E63B6" stroke-width="2" stroke-linecap="round"/>
      <g transform="translate(2 9.655)">
        <path d="M21.36 209.248c0-57.193 46.365-103.558 103.559-103.558 57.193 0 103.557 46.365 103.557 103.558H21.36z" fill="#E1F2FF"/>
        <path d="M209.108 167.722v3.939M211.076 169.691h-3.938" stroke="#5E63B6" stroke-linecap="round"/>
        <path d="M243.218 200.418h6.973" fill="#FFF"/>
        <path d="M243.218 200.418h6.973" stroke="#5E63B6" stroke-width="2" stroke-linecap="round" stroke-linejoin="round"/>
        <path d="M1 200.418h8.973" fill="#FFF"/>
        <path d="M1 200.418h8.973" stroke="#5E63B6" stroke-width="2" stroke-linecap="round" stroke-linejoin="round"/>
        <path d="M92.23 209.532h67.188" fill="#FFF"/>
        <path d="M92.23 209.532h67.188" stroke="#5E63B6" stroke-width="2" stroke-linecap="round" stroke-linejoin="round"/>
        <path d="M168.035 209.532h9.142" fill="#FFF"/>
        <path d="M168.035 209.532h9.142" stroke="#5E63B6" stroke-width="2" stroke-linecap="round" stroke-linejoin="round"/>
        <path d="M84.349 209.457l-5 .075" fill="#FFF"/>
        <path d="M84.349 209.457l-5 .075M208.253 46.919v7M211.753 50.419h-7M33.653 25.563v7M37.153 29.063h-7" stroke="#5E63B6" stroke-width="2" stroke-linecap="round" stroke-linejoin="round"/>
        <path d="M172.796.845v3.938M174.765 2.813h-3.938M20.41 159.72v3.938M22.378 161.688H18.44" stroke="#5E63B6" stroke-linecap="round"/>
        <path d="M185.015 196.313v-14.25" stroke="#E1F2FF" stroke-width="2" stroke-linecap="round"/>
        <mask id="b" fill="#fff">
          <use xlink:href="#a"/>
        </mask>
        <path fill="#FFF" mask="url(#b)" d="M51.649 200.361h146.54v-94.067H51.649z"/>
        <path stroke="#5E63B6" stroke-width="2" mask="url(#b)" d="M51.649 200.361h146.54v-94.067H51.649z"/>
        <path d="M196.189 74.115H53.649c-1.105 0-2-.703-2-1.57v-5.66c0-.869.895-1.572 2-1.572h142.54c1.104 0 2 .703 2 1.571v5.661c0 .867-.896 1.57-2 1.57" fill="#FFF" mask="url(#b)"/>
        <path d="M196.189 74.115H53.649c-1.105 0-2-.703-2-1.57v-5.66c0-.869.895-1.572 2-1.572h142.54c1.104 0 2 .703 2 1.571v5.661c0 .867-.896 1.57-2 1.57z" stroke="#5E63B6" stroke-width="2" mask="url(#b)"/>
        <path d="M169.07 58.09H80.768c-.97 0-1.757-.895-1.757-2V34.383c0-1.104.786-2 1.756-2h88.305c.97 0 1.756.896 1.756 2V56.09c0 1.104-.786 2-1.756 2" fill="#FFF" mask="url(#b)"/>
        <path d="M169.07 58.09H80.768c-.97 0-1.757-.895-1.757-2V34.383c0-1.104.786-2 1.756-2h88.305c.97 0 1.756.896 1.756 2V56.09c0 1.104-.786 2-1.756 2z" stroke="#5E63B6" stroke-width="2" mask="url(#b)"/>
        <path fill="#E1F2FF" mask="url(#b)" d="M65.493 173.36h61.728v-46.239H65.493z"/>
        <path stroke="#5E63B6" stroke-width="2" mask="url(#b)" d="M65.493 173.36h61.728v-46.239H65.493z"/>
        <path fill="#E1F2FF" mask="url(#b)" d="M150.483 200.361h34.864v-73.24h-34.864z"/>
        <path stroke="#5E63B6" stroke-width="2" mask="url(#b)" d="M150.483 200.361h34.864v-73.24h-34.864z"/>
        <g mask="url(#b)">
          <path d="M85.593 200.435c-.318-5.696-4.711-10.303-10.319-10.933-1.813-8.796-9.602-15.41-18.936-15.41-6.349 0-11.982 3.06-15.508 7.785a15.712 15.712 0 0 0-3.826-.472c-8.658 0-15.678 7.02-15.678 15.677 0 1.152.128 2.273.366 3.353" fill="#FFF"/>
          <path d="M85.593 200.435c-.318-5.696-4.711-10.303-10.319-10.933-1.813-8.796-9.602-15.41-18.936-15.41-6.349 0-11.982 3.06-15.508 7.785a15.712 15.712 0 0 0-3.826-.472c-8.658 0-15.678 7.02-15.678 15.677 0 1.152.128 2.273.366 3.353" stroke="#ACD3EF" stroke-width="2" stroke-linecap="round"/>
        </g>
        <g mask="url(#b)">
          <path d="M231.728 199.934c.458-1.569.714-3.225.714-4.942 0-9.74-7.897-17.637-17.637-17.637-7.763 0-14.35 5.017-16.706 11.985a11.835 11.835 0 0 0-2.578-.286c-6.203 0-11.276 4.795-11.741 10.88" fill="#FFF"/>
          <path d="M231.728 199.934c.458-1.569.714-3.225.714-4.942 0-9.74-7.897-17.637-17.637-17.637-7.763 0-14.35 5.017-16.706 11.985a11.835 11.835 0 0 0-2.578-.286c-6.203 0-11.276 4.795-11.741 10.88" stroke="#ACD3EF" stroke-width="2" stroke-linecap="round"/>
        </g>
        <g mask="url(#b)">
          <path d="M18.275 200.457h217.894" fill="#FFF"/>
          <path d="M18.275 200.457h217.894" stroke="#5E63B6" stroke-width="2" stroke-linecap="round" stroke-linejoin="round"/>
        </g>
      </g>
      <g transform="translate(74 148.655)">
        <mask id="d" fill="#fff">
          <use xlink:href="#c"/>
        </mask>
        <path d="M3.885 46.913c4.378-.145 8.444-3.212 17.375-3.736.121-.586.272-1.116.467-1.551 1.572-3.522 3.727-13.641 2.179-20.251l-1.226-5.231a24.258 24.258 0 0 1-.638-5.233 10.61 10.61 0 0 1 4.165-8.576A10.588 10.588 0 0 1 32.544.142L34.288.12a10.602 10.602 0 0 1 8.255 3.768c.401.47.758.98 1.071 1.519a9.682 9.682 0 0 1 .555 1.086 10.62 10.62 0 0 1 .889 4.129 2.641 2.641 0 0 1-.754 1.885 2.642 2.642 0 0 1-1.864.8l-10.89.137 1.767 9.43c2.056 9.685 1.556 16.185.113 20.533-.322.969-2.182 4.413-2.182 4.413 5.554 8.524 13.95 12.174 22.893 13.153 7.601.83 23.901-6.297 15.352-14.198-8.548-7.901 1.722-3.05 3.238-2.056 1.515.995 10.299 8.393 1.007 19.528-3.929 4.708-8.393 8.999-19.221 12.383-1.736.542-11.238 1.353-16.34 2.887-15.189 4.567-27.643-.035-34.714-10.011-7.043-9.935-1.307-22.536.422-22.593" fill="#9452BA" mask="url(#d)"/>
      </g>
      <g transform="translate(74 148.655)">
        <mask id="f" fill="#fff">
          <use xlink:href="#e"/>
        </mask>
        <path d="M3.885 46.913c4.378-.145 8.444-3.212 17.375-3.736.121-.586.272-1.116.467-1.551 1.572-3.522 3.727-13.641 2.179-20.251l-1.226-5.231a24.258 24.258 0 0 1-.638-5.233 10.61 10.61 0 0 1 4.165-8.576A10.588 10.588 0 0 1 32.544.142L34.288.12a10.602 10.602 0 0 1 8.255 3.768c.401.47.758.98 1.071 1.519a9.682 9.682 0 0 1 .555 1.086 10.62 10.62 0 0 1 .889 4.129 2.641 2.641 0 0 1-.754 1.885 2.642 2.642 0 0 1-1.864.8l-10.89.137 1.767 9.43c2.056 9.685 1.556 16.185.113 20.533-.322.969-2.182 4.413-2.182 4.413 5.554 8.524 13.95 12.174 22.893 13.153 7.601.83 23.901-6.297 15.352-14.198-8.548-7.901 1.722-3.05 3.238-2.056 1.515.995 10.299 8.393 1.007 19.528-3.929 4.708-8.393 8.999-19.221 12.383-1.736.542-11.238 1.353-16.34 2.887-15.189 4.567-27.643-.035-34.714-10.011-7.043-9.935-1.307-22.536.422-22.593z" stroke="#52267D" stroke-width="2" mask="url(#f)"/>
      </g>
      <g transform="translate(50 157.655)">
        <mask id="h" fill="#fff">
          <use xlink:href="#g"/>
        </mask>
        <path d="M37.161 23.324C37.37 12.06 28.322 3.325 18.143 1.582 16.03 1.22 15.335.567 13.03.596l-1.766.023C5.311.693.548 5.578.623 11.529a2.686 2.686 0 0 0 2.72 2.652s18.117-.232 18.202-.241c0 0 1.475-.017 1.477-.016-.003.001-1.478.02-1.48.022 4.027 1.65 6.585 6.74 7.06 9.485.675 3.911.256 7.149-1.047 9.779-.869 1.753-.943 3.851-.785 5.549l.104.034c.074.907.234 1.938.52 3.113 1.691-1.21 4.322-3.033 4.803-3.295 1.04-.565 3.388-1.852 4.438-2.473 6.71-3.959.41-6.407.526-12.814" fill="#9452BA" mask="url(#h)"/>
      </g>
      <g transform="translate(50 157.655)">
        <mask id="j" fill="#fff">
          <use xlink:href="#i"/>
        </mask>
        <path d="M37.161 23.324C37.37 12.06 28.322 3.325 18.143 1.582 16.03 1.22 15.335.567 13.03.596l-1.766.023C5.311.693.548 5.578.623 11.529a2.686 2.686 0 0 0 2.72 2.652s18.117-.232 18.202-.241c0 0 1.475-.017 1.477-.016-.003.001-1.478.02-1.48.022 4.027 1.65 6.585 6.74 7.06 9.485.675 3.911.256 7.149-1.047 9.779-.869 1.753-.943 3.851-.785 5.549l.104.034c.074.907.234 1.938.52 3.113 1.691-1.21 4.322-3.033 4.803-3.295 1.04-.565 3.388-1.852 4.438-2.473 6.71-3.959.41-6.407.526-12.814z" stroke="#52267D" stroke-width="2" mask="url(#j)"/>
      </g>
      <g transform="translate(71 169.655)">
        <mask id="l" fill="#fff">
          <use xlink:href="#k"/>
        </mask>
        <path d="M10.555 24.406c-.11-1.737-.388-2.627-.201-3.337 1.07-4.087 1.42-5.378 1.366-9.689C11.666 7.094 9.13 2.891 5.437.685 5.234.563 2.594.411.54 1.946c4.029 1.65 6.586 6.74 7.06 9.485.677 3.911.258 7.15-1.046 9.78-.868 1.752-.943 3.85-.784 5.548 0 0 4.938 1.783 4.784-2.353" fill="#F3E3FF" mask="url(#l)"/>
        <path d="M10.555 24.406c-.11-1.737-.388-2.627-.201-3.337 1.07-4.087 1.42-5.378 1.366-9.689C11.666 7.094 9.13 2.891 5.437.685 5.234.563 2.594.411.54 1.946c4.029 1.65 6.586 6.74 7.06 9.485.677 3.911.258 7.15-1.046 9.78-.868 1.752-.943 3.85-.784 5.548 0 0 4.938 1.783 4.784-2.353" stroke="#52267D" mask="url(#l)"/>
      </g>
      <path d="M55.631 160.175s-.027-1.882 1.833-2.652l1.605-.673s1.143 2.341-.112 2.951c-1.805.877-3.326.374-3.326.374" fill="#FFF"/>
      <path d="M55.631 160.175s-.027-1.882 1.833-2.652l1.605-.673s1.143 2.341-.112 2.951c-1.805.877-3.326.374-3.326.374z" stroke="#52267D"/>
      <path d="M60.296 158.793s.021-2.564 2.9-2.975c.538-.077 1.942-.06 1.942-.06s.681 2.706-.836 2.984c-1.865.346-4.006.052-4.006.052" fill="#FFF"/>
      <path d="M60.296 158.793s.021-2.564 2.9-2.975c.538-.077 1.942-.06 1.942-.06s.681 2.706-.836 2.984c-1.865.346-4.006.052-4.006.052z" stroke="#52267D"/>
      <path d="M66.034 158.967s.345-2.849 2.91-2.1a3.573 3.573 0 0 1 1.711 1.142s-.48 2.172-1.5 1.941c-1.78-.402-3.12-.983-3.12-.983" fill="#FFF"/>
      <path d="M66.034 158.967s.345-2.849 2.91-2.1a3.573 3.573 0 0 1 1.711 1.142s-.48 2.172-1.5 1.941c-1.78-.402-3.12-.983-3.12-.983z" stroke="#52267D"/>
      <path d="M73.626 172.678s5.915-3.313 4.714-8.746c.8.642 2.937 2.601 3.717 3.608.013 1.066.262 5.3-5.55 8.21-1.042-1.054-1.926-2.374-2.88-3.072" fill="#FFF"/>
      <path d="M73.626 172.678s5.915-3.313 4.714-8.746c.8.642 2.937 2.601 3.717 3.608.013 1.066.262 5.3-5.55 8.21-1.042-1.054-1.926-2.374-2.88-3.072z" stroke="#52267D"/>
      <path d="M56.436 159.647s-.015-.974.948-1.373c.294-.121.83-.348.83-.348s.593 1.212-.056 1.528c-.935.454-1.722.193-1.722.193M61.52 158.198s.01-1.308 1.479-1.517c.274-.04.99-.031.99-.031s.347 1.38-.426 1.523c-.951.174-2.043.025-2.043.025M66.95 158.75s.183-1.512 1.544-1.113c.581.17.908.606.908.606s-.256 1.153-.797 1.03c-.943-.213-1.655-.523-1.655-.523M65.559 169.88l-5.445.067a4.966 4.966 0 0 1 4.904-5.028l.479-.006a2.483 2.483 0 1 1 .062 4.966" fill="#F3E3FF"/>
      <path d="M65.099 169.792l-4.893.061a3.904 3.904 0 0 1 3.853-3.95l.99-.012a1.951 1.951 0 1 1 .05 3.9" fill="#FFF"/>
      <path d="M65.099 169.792l-4.893.061a3.904 3.904 0 0 1 3.853-3.95l.99-.012a1.951 1.951 0 1 1 .05 3.9z" stroke="#52267D"/>
      <path d="M61.067 167.777a1.09 1.09 0 1 0 2.178-.028 1.09 1.09 0 0 0-2.178.028M53.083 171.021c.31-.069.584-.245.777-.495l.36-.464-.81.185-.478.108a.341.341 0 1 0 .151.666" fill="#52267D"/>
      <path d="M74.634 172.773s4.557-2.527 4.423-7.503c1.99 1.412 2.535 2.333 2.535 2.333s-.313 2.373-1.401 3.582c-1.671 1.857-3.429 2.443-5.557 1.588" fill="#E1F2FF"/>
      <path d="M78.966 171.844s-1.786 1.863-3.539 2.768" fill="#FFF"/>
      <path d="M78.966 171.844s-1.786 1.863-3.539 2.768" stroke="#52267D"/>
      <g transform="translate(72 143.655)">
        <mask id="n" fill="#fff">
          <use xlink:href="#m"/>
        </mask>
        <path d="M25.198 47.31l-1.047-2.004c-3.933-9.333-4.593-14.834-2.724-23.812l1.093-5.26c.36-1.726.529-3.485.506-5.247C22.953 5.113 18.131.411 12.258.485L10.54.506C4.747.58.109 5.334.18 11.128l.005.301a2.497 2.497 0 0 0 2.527 2.465l10.873-.137-1.53 9.472c-4.728 25.393-4.092 35.655 5.811 33.42" fill="#9452BA" mask="url(#n)"/>
        <path d="M25.198 47.31l-1.047-2.004c-3.933-9.333-4.593-14.834-2.724-23.812l1.093-5.26c.36-1.726.529-3.485.506-5.247C22.953 5.113 18.131.411 12.258.485L10.54.506C4.747.58.109 5.334.18 11.128l.005.301a2.497 2.497 0 0 0 2.527 2.465l10.873-.137-1.53 9.472c-4.728 25.393-4.092 35.655 5.811 33.42" stroke="#52267D" stroke-width="2" mask="url(#n)"/>
      </g>
      <path d="M77.307 145.486s.15-1.846 1.974-2.602c.556-.23 1.435-.002 1.435-.002s1.078 1.64-.15 2.237c-1.77.86-3.26.367-3.26.367" fill="#FFF"/>
      <path d="M77.307 145.486s.15-1.846 1.974-2.602c.556-.23 1.435-.002 1.435-.002s1.078 1.64-.15 2.237c-1.77.86-3.26.367-3.26.367z" stroke="#52267D"/>
      <path d="M81.66 144.823s.024-2.904 3.286-3.37c.61-.086 1.392-.035 1.392-.035s1.58 3.03-.14 3.348c-2.113.39-4.538.057-4.538.057" fill="#FFF"/>
      <path d="M81.66 144.823s.024-2.904 3.286-3.37c.61-.086 1.392-.035 1.392-.035s1.58 3.03-.14 3.348c-2.113.39-4.538.057-4.538.057z" stroke="#52267D"/>
      <path d="M87.514 145.41s.408-2.78 2.9-1.982c1.066.34 1.649 1.16 1.649 1.16s-.526 2.116-1.52 1.864c-1.731-.438-3.03-1.042-3.03-1.042" fill="#FFF"/>
      <path d="M87.514 145.41s.408-2.78 2.9-1.982c1.066.34 1.649 1.16 1.649 1.16s-.526 2.116-1.52 1.864c-1.731-.438-3.03-1.042-3.03-1.042z" stroke="#52267D"/>
      <path d="M78.11 195.229a4.912 4.912 0 0 1 1.775-.884" fill="#F3E3FF"/>
      <g transform="translate(75 156.655)">
        <mask id="p" fill="#fff">
          <use xlink:href="#o"/>
        </mask>
        <path d="M6.708 38.471c-1.867-7.198 1.165-21.045 1.712-24.45L10.583.375l1.023-.013c1.296-.016 2.295 1.38 2.127 2.668l-1.543 11.83c-.522 4.006-.885 22.527 6.113 26.418 1.492.828 3.895.242 4.797-.204 3.283-1.619 4.18-5.748 4.863-9.076 1.411-6.886.176-12.264-.223-17.645l-.432-6.732c-.079-1.216.874-2.521 2.091-2.537l1.241-.016 2.407 13.588c.721 3.867 2.62 17.29-5.222 23.692-.142.116 1.933.553 1.347 1.62-2.33 4.242-9.226 4.995-10.503 6.814-4.92 7.008-.044 21.743-.044 21.743S13.04 70.38 9.56 67.338C1.423 60.228.271 49.795.194 46.72c-.09-3.68.847-5.973 2.02-7.35" fill="#F3E3FF" mask="url(#p)"/>
        <path d="M6.708 38.471c-1.867-7.198 1.165-21.045 1.712-24.45L10.583.375l1.023-.013c1.296-.016 2.295 1.38 2.127 2.668l-1.543 11.83c-.522 4.006-.885 22.527 6.113 26.418 1.492.828 3.895.242 4.797-.204 3.283-1.619 4.18-5.748 4.863-9.076 1.411-6.886.176-12.264-.223-17.645l-.432-6.732c-.079-1.216.874-2.521 2.091-2.537l1.241-.016 2.407 13.588c.721 3.867 2.62 17.29-5.222 23.692-.142.116 1.933.553 1.347 1.62-2.33 4.242-9.226 4.995-10.503 6.814-4.92 7.008-.044 21.743-.044 21.743S13.04 70.38 9.56 67.338C1.423 60.228.271 49.795.194 46.72c-.09-3.68.847-5.973 2.02-7.35" stroke="#52267D" mask="url(#p)"/>
      </g>
      <path d="M147.094 200.33s1.127-1.28.463-2.973c-.203-.515-.915-.953-.915-.953s-1.777.333-1.388 1.53c.561 1.723 1.84 2.396 1.84 2.396M85.095 160.358s3.901 2.142 9.32.096c-.351 1.694-1.07 5.097-1.07 5.097s-5.025 1.61-8.947-.79c.371-2.244.697-4.403.697-4.403" fill="#FFF"/>
      <path d="M85.095 160.358s3.901 2.142 9.32.096c-.351 1.694-1.07 5.097-1.07 5.097s-5.025 1.61-8.947-.79c.371-2.244.697-4.403.697-4.403z" stroke="#52267D"/>
      <path d="M113.948 150.154s-.198-1.855-2.053-2.57c-.566-.22-2.087-.261-2.087-.261s-.404 1.974.85 2.544c1.803.82 3.29.287 3.29.287" fill="#FFF"/>
      <path d="M113.948 150.154s-.198-1.855-2.053-2.57c-.566-.22-2.087-.261-2.087-.261s-.404 1.974.85 2.544c1.803.82 3.29.287 3.29.287z" stroke="#52267D"/>
      <path d="M109.254 149.264s-.084-2.53-2.936-2.864c-.532-.062-1.213 0-1.213 0s-1.31 2.675.195 2.913c1.85.294 3.954-.049 3.954-.049" fill="#FFF"/>
      <path d="M109.254 149.264s-.084-2.53-2.936-2.864c-.532-.062-1.213 0-1.213 0s-1.31 2.675.195 2.913c1.85.294 3.954-.049 3.954-.049z" stroke="#52267D"/>
      <path d="M103.864 149.515s-.482-2.79-2.973-1.924a3.523 3.523 0 0 0-1.63 1.211s.583 2.117 1.577 1.84c1.734-.487 3.026-1.127 3.026-1.127" fill="#FFF"/>
      <path d="M103.864 149.515s-.482-2.79-2.973-1.924a3.523 3.523 0 0 0-1.63 1.211s.583 2.117 1.577 1.84c1.734-.487 3.026-1.127 3.026-1.127z" stroke="#52267D"/>
      <path d="M78.26 145.007s.081-.985 1.055-1.389c.297-.124.766-.002.766-.002s.576.876-.08 1.196c-.945.46-1.741.195-1.741.195M82.73 144.322s.015-1.821 2.06-2.112c.38-.055.873-.024.873-.024s.989 1.902-.088 2.1c-1.324.244-2.845.036-2.845.036M88.588 145.118s.235-1.605 1.675-1.145c.614.197.951.67.951.67s-.304 1.22-.877 1.076c-1-.253-1.749-.601-1.749-.601M113.027 149.69s-.105-.98-1.086-1.358c-.3-.116-1.103-.138-1.103-.138s-.213 1.043.449 1.345c.953.433 1.74.151 1.74.151M108.144 148.832s-.046-1.4-1.623-1.583c-.294-.035-.671-.001-.671-.001s-.724 1.48.108 1.61c1.023.163 2.186-.026 2.186-.026M102.865 149.337s-.262-1.526-1.625-1.053a1.93 1.93 0 0 0-.892.663s.319 1.16.862 1.006c.949-.265 1.656-.616 1.656-.616" fill="#F3E3FF"/>
      <path d="M96.729 165.008s4.806.687 9.353-.489c.475 2.472.784 4.341.784 4.341s-3.136 2.187-8.996 1.015c-.73-3.175-1.141-4.867-1.141-4.867" fill="#FFF"/>
      <path d="M96.729 165.008s4.806.687 9.353-.489c.475 2.472.784 4.341.784 4.341s-3.136 2.187-8.996 1.015c-.73-3.175-1.141-4.867-1.141-4.867z" stroke="#52267D"/>
      <path d="M104.6 160.091l5.446-.068a4.967 4.967 0 0 0-5.028-4.904l-.48.006a2.484 2.484 0 0 0 .063 4.966" fill="#F3E3FF"/>
      <path d="M105.197 159.99l4.754-.06a3.901 3.901 0 0 0-3.95-3.851l-1.13.015a1.811 1.811 0 0 0-1.79 1.834 2.088 2.088 0 0 0 2.115 2.063" fill="#FFF"/>
      <path d="M105.197 159.99l4.754-.06a3.901 3.901 0 0 0-3.95-3.851l-1.13.015a1.811 1.811 0 0 0-1.79 1.834 2.088 2.088 0 0 0 2.115 2.063z" stroke="#52267D"/>
      <path d="M107.187 159.052a1.09 1.09 0 1 1 1.948-.977 1.09 1.09 0 0 1-1.948.977" fill="#52267D"/>
      <path d="M85.7 155.62l-5.445.069a4.966 4.966 0 0 1 4.903-5.028l.48-.006a2.484 2.484 0 0 1 .062 4.966" fill="#F3E3FF"/>
      <path d="M85.24 155.533l-4.892.062a3.903 3.903 0 0 1 3.853-3.951l.99-.012a1.95 1.95 0 1 1 .05 3.9" fill="#FFF"/>
      <path d="M85.24 155.533l-4.892.062a3.903 3.903 0 0 1 3.853-3.951l.99-.012a1.95 1.95 0 1 1 .05 3.9z" stroke="#52267D"/>
      <path d="M81.712 154.463a1.09 1.09 0 1 0 1.373-1.69 1.09 1.09 0 0 0-1.373 1.69M116.62 161.074a1.361 1.361 0 0 1-.79-.477l-.37-.454.814.164.481.097a.342.342 0 0 1-.135.67M74.553 156.505c.31-.07.584-.245.778-.496l.36-.464-.812.185-.477.11a.341.341 0 1 0 .151.666" fill="#52267D"/>
      <path d="M85.569 161.06s4.08 1.677 8.153.046c-.398 2.406-.765 3.637-.765 3.637s-2.461.175-4.096-.125c-2.335-.43-3.266-1.477-3.292-3.559" fill="#E1F2FF"/>
      <path d="M91.254 164.067s-3.689.354-6.566-1.092" fill="#FFF"/>
      <path d="M91.254 164.067s-3.689.354-6.566-1.092" stroke="#52267D"/>
      <path d="M104.336 165.454s-3.587 1.069-6.77.474c.628 2.356.956 3.093.956 3.093s4.755-.695 5.814-3.567" fill="#E1F2FF"/>
      <path d="M102.825 199.054s-.215.16-.522.35" fill="#F3E3FF"/>
      <path d="M104.7 166.81s-3.615.732-7.468.322" fill="#FFF"/>
      <path d="M104.7 166.81s-3.615.732-7.468.322" stroke="#52267D"/>
      <g stroke="#F3E3FF" stroke-width=".25">
        <path d="M54.157 167.406a.537.537 0 0 0 1.073-.014M53.086 167.42a.535.535 0 0 0 1.071-.014M53.63 167.948a.535.535 0 1 0 1.07-.013M74.68 166.646a.79.79 0 0 0 .817-1.353M74.948 167.73a.79.79 0 0 0 .817-1.352M100.332 184.325a.719.719 0 1 0 1.437-.018M98.895 184.343a.719.719 0 0 0 1.437-.019M99.622 185.052a.72.72 0 0 0 1.437-.018M98.93 161.436a.79.79 0 0 0 1.579-.02M98.15 162.236a.79.79 0 0 0 1.58-.021M89.013 175.508a.959.959 0 1 0 1.919-.024M88.066 176.48a.959.959 0 1 0 1.919-.024M74.777 151.829a.642.642 0 1 0 1.283-.017M74.143 152.478a.642.642 0 1 0 1.283-.016M135.988 215.77a.738.738 0 1 0 1.117-.97M135.916 216.812a.738.738 0 1 0 1.115-.97M106.494 205.938a.866.866 0 0 0 1.568-.739M104.926 206.677a.866.866 0 0 0 1.568-.739M106.08 207.091a.867.867 0 1 0 1.567-.739M104.512 207.83a.866.866 0 0 0 1.567-.738M107.234 207.506a.866.866 0 0 0 1.567-.739M90.798 158.116a.876.876 0 0 0 .886.863.873.873 0 0 0 .863-.885M90.91 191.168a.873.873 0 1 0 1.749-.021M100.593 172.826a.663.663 0 0 0 1.326-.017M116.182 157.572a.497.497 0 0 0 .994-.013"/>
      </g>
      <g>
        <path d="M102.826 188.01h26.395" stroke="#ACD3EF" stroke-width="2" stroke-linecap="round"/>
        <path d="M94.349 67.468v7.5" fill="#FFF"/>
        <path d="M94.349 67.468v7.5" stroke="#5E63B6" stroke-width="2"/>
        <path d="M159.914 67.468v7.5" fill="#FFF"/>
        <path d="M159.914 67.468v7.5" stroke="#5E63B6" stroke-width="2"/>
        <path d="M182.826 170.016v20.285" fill="#FFF"/>
        <path d="M182.826 170.016v20.285" stroke="#5E63B6" stroke-width="2"/>
        <path d="M113.138 196.687v9.281" fill="#FFF"/>
        <path d="M113.138 196.687v9.281" stroke="#E1F2FF" stroke-width="2" stroke-linecap="round"/>
        <path d="M122.326 194.635v6.566" fill="#FFF"/>
        <path d="M122.326 194.635v6.566" stroke="#E1F2FF" stroke-width="2" stroke-linecap="round"/>
        <path d="M131.16 202.335v3.633" fill="#FFF"/>
        <path d="M131.16 202.335v3.633" stroke="#E1F2FF" stroke-width="2" stroke-linecap="round"/>
        <path d="M136.826 198.702v3.634" fill="#FFF"/>
        <path d="M136.826 198.702v3.634" stroke="#E1F2FF" stroke-width="2" stroke-linecap="round"/>
        <path d="M139.22 202.335h-25.15" fill="#FFF"/>
        <path d="M139.22 202.335h-25.15" stroke="#E1F2FF" stroke-width="2" stroke-linecap="round"/>
        <path d="M154.72 153.208v-6.567" fill="#FFF"/>
        <path d="M154.72 153.208v-6.567" stroke="#E1F2FF" stroke-width="2" stroke-linecap="round"/>
        <path d="M144.888 154.507v-3.634" fill="#FFF"/>
        <path d="M144.888 154.507v-3.634" stroke="#E1F2FF" stroke-width="2" stroke-linecap="round"/>
        <path d="M139.22 158.14v-3.633" fill="#FFF"/>
        <path d="M139.22 158.14v-3.633" stroke="#E1F2FF" stroke-width="2" stroke-linecap="round"/>
        <path d="M136.826 154.507h11.15" fill="#FFF"/>
        <path d="M136.826 154.507h11.15" stroke="#E1F2FF" stroke-width="2" stroke-linecap="round"/>
        <path d="M144.53 183.866V179.3" fill="#FFF"/>
        <path d="M144.53 183.866V179.3" stroke="#E1F2FF" stroke-width="2" stroke-linecap="round"/>
        <path d="M203.911 166.939v3.634" fill="#FFF"/>
        <path d="M203.911 166.939v3.634" stroke="#E1F2FF" stroke-width="2" stroke-linecap="round"/>
        <path d="M142.1 178.166h6.503" fill="#FFF"/>
        <path d="M142.1 178.166h6.503" stroke="#E1F2FF" stroke-width="2" stroke-linecap="round"/>
        <path fill="#E1F2FF" d="M54.746 133.489l144.345-4.91v-5.931H54.746z"/>
        <path d="M234.2 139.53c0 7.55-6.122 13.672-13.672 13.672-7.55 0-13.67-6.121-13.67-13.671 0-7.551 6.12-13.671 13.67-13.671s13.671 6.12 13.671 13.67" fill="#FFF"/>
        <path d="M234.2 139.53c0 7.55-6.122 13.672-13.672 13.672-7.55 0-13.67-6.121-13.67-13.671 0-7.551 6.12-13.671 13.67-13.671s13.671 6.12 13.671 13.67z" stroke="#5E63B6" stroke-width="2"/>
        <path d="M224.809 147.168c.065.194.123.326.14.37.006.005-.005-.002 0 0 0 0 0 .002 0 0 0 .001 0 0 0 0-.441-4.25 1.969-6.02 2.745-8.845a.903.903 0 0 1 .024-.139c.016-.062.029-.127.039-.193.115-.781-.205-1.69-.811-2.636l-.01-.016c-.05-.08-.103-.157-.156-.236 0 0-.002-.001-.002-.003-.1-.144-.206-.29-.318-.435l-.034-.045-.095-.12a12.99 12.99 0 0 0-.096-.121l-.1-.12-.103-.122-.075-.086c-.952-1.097-2.192-2.181-3.486-3.124 0 0-.01-.016 0 0 .17 1.6.193 3.198.042 4.477-.183 1.542-.735 3.337-1.501 4.964-1.792-.146-3.623-.56-5.052-1.17-1.194-.51-2.562-1.316-3.871-2.27l.046.396.016.12c.012.094.024.188.039.283l.018.13.043.283.019.115c.019.12.04.237.06.355l.007.037c.025.137.05.273.078.41 0 .01.004.02.007.03.025.123.049.243.075.364l.017.074.075.33c.007.02.012.042.017.064.03.126.06.252.095.376v.002c.106.398.222.784.348 1.153 0 .005.003.01.004.014.213.617.455 1.186.726 1.684l.12.212c.003.002.003.005.005.008.037.064.075.126.112.186v.001l.006.006c.04.065.082.13.125.19.006.008.01.016.017.024v.002c.055.08.112.155.166.228a.467.467 0 0 1 .03.035c.003.004.007.008.01.014.064.081.13.16.199.233.047.053.094.102.143.151.02.02.042.04.063.058.03.03.06.056.092.083.022.02.046.037.07.058.028.024.059.047.089.07.023.02.047.034.072.052l.092.063.072.044c.033.02.067.037.099.057.023.012.047.023.068.035.038.018.076.034.115.051.018.007.037.017.057.023.059.025.117.044.176.061.04.012.074.023.106.036 2.838.75 5.6-.438 9.067 2.04" fill="#9452BA"/>
        <path d="M191.66 158.14h5.166" fill="#FFF"/>
        <path d="M191.66 158.14h5.166" stroke="#E1F2FF" stroke-width="2" stroke-linecap="round"/>
        <path d="M135.243 136.776h5.166" fill="#FFF"/>
        <path d="M135.243 136.776h5.166" stroke="#E1F2FF" stroke-width="2" stroke-linecap="round"/>
        <g>
          <path d="M189.66 188.01h4" fill="#FFF"/>
          <path d="M189.66 188.01h4" stroke="#E1F2FF" stroke-width="2" stroke-linecap="round"/>
        </g>
        <g>
          <path d="M86.42 194.635h4" fill="#FFF"/>
          <path d="M86.42 194.635h4" stroke="#E1F2FF" stroke-width="2" stroke-linecap="round"/>
        </g>
        <path d="M173.035 152.125l-10.308 18.448M177.607 157.278l-6.97 12.097" stroke="#FFF" stroke-width="2" stroke-linecap="round"/>
        <path d="M202.667 121.7H51.17v-10.038c0-15.404 12.487-27.892 27.892-27.892h95.713c15.404 0 27.892 12.488 27.892 27.892V121.7z" fill="#E1F2FF"/>
        <path d="M202.667 121.7H51.17v-10.038c0-15.404 12.487-27.892 27.892-27.892h95.713c15.404 0 27.892 12.488 27.892 27.892V121.7z" stroke="#ACD3EF" stroke-width="2" stroke-linecap="round"/>
        <path d="M187.015 121.7H66.823v-10.038c0-15.404 12.487-27.892 27.89-27.892h64.41c15.405 0 27.892 12.488 27.892 27.892V121.7z" fill="#FFF"/>
        <path d="M187.015 121.7H66.823v-10.038c0-15.404 12.487-27.892 27.89-27.892h64.41c15.405 0 27.892 12.488 27.892 27.892V121.7z" stroke="#ACD3EF" stroke-width="2" stroke-linecap="round"/>
        <path d="M170.4 121.7H83.438v-10.038c0-15.404 12.487-27.892 27.892-27.892h31.179c15.405 0 27.893 12.488 27.893 27.892V121.7z" fill="#E1F2FF"/>
        <path d="M170.4 121.7H83.438v-10.038c0-15.404 12.487-27.892 27.892-27.892h31.179c15.405 0 27.893 12.488 27.893 27.892V121.7z" stroke="#ACD3EF" stroke-width="2" stroke-linecap="round"/>
        <path d="M154.81 121.7H99.027v-10.038c0-15.404 12.487-27.892 27.89-27.892 15.406 0 27.893 12.488 27.893 27.892V121.7z" fill="#FFF"/>
        <path d="M154.81 121.7H99.027v-10.038c0-15.404 12.487-27.892 27.89-27.892 15.406 0 27.893 12.488 27.893 27.892V121.7z" stroke="#ACD3EF" stroke-width="2" stroke-linecap="round"/>
        <g>
          <path d="M127.26 83.77l3.894 5.738c4.295 6.333 6.672 14.548 6.672 23.064v9.128h-21.815v-9.128c0-8.516 2.376-16.73 6.673-23.064l3.892-5.738" fill="#E1F2FF"/>
          <path d="M127.26 83.77l3.894 5.738c4.295 6.333 6.672 14.548 6.672 23.064v9.128h-21.815v-9.128c0-8.516 2.376-16.73 6.673-23.064l3.892-5.738" stroke="#ACD3EF" stroke-width="2" stroke-linecap="round"/>
        </g>
        <path d="M216.76 121.7H37.077v-10.038c0-15.404 12.488-27.892 27.892-27.892h123.898c15.405 0 27.893 12.488 27.893 27.892V121.7z" stroke="#5E63B6" stroke-width="2" stroke-linecap="round"/>
        <path d="M195.826 79.369h-75M57.826 79.369h18" stroke="#E1F2FF" stroke-width="2" stroke-linecap="round"/>
      </g>
      <text font-family="Lato-Bold, Lato" font-size="18" font-weight="bold" fill="#5E63B6" transform="translate(2 9)">
        <tspan x="101.391" y="52.178">SHOP</tspan>
      </text>
      <g stroke="#ACD3EF" stroke-dasharray="50,40" stroke-linecap="round" stroke-linejoin="round" stroke-width="2">
        <path d="M167.882 48.404v13.064M88.42 52.404v9.064"/>
      </g>
    </g>
  </g>
</svg>
