<?xml version="1.0" encoding="UTF-8" standalone="no"?>
<svg width="256px" height="256px" viewBox="0 0 256 256" version="1.1" xmlns="http://www.w3.org/2000/svg" xmlns:xlink="http://www.w3.org/1999/xlink">
    <!-- Generator: Sketch 50.2 (55047) - http://www.bohemiancoding.com/sketch -->
    <title>Common/Illustrations/MediaFiles</title>
    <desc>Created with Sketch.</desc>
    <defs></defs>
    <g id="Common/Illustrations/MediaFiles" stroke="none" stroke-width="1" fill="none" fill-rule="evenodd">
        <g id="Group" transform="translate(3.000000, 4.000000)">
            <path d="M20.2044,219.6545 C20.2044,162.4615 66.5684,116.0965 123.7624,116.0965 C180.9554,116.0965 227.3194,162.4615 227.3194,219.6545 L20.2044,219.6545 Z" id="Fill-1" fill="#E1F2FF"></path>
            <g id="Group-6" transform="translate(16.000000, 209.730000)">
                <path d="M0.9778,0.9245 L36.9778,0.9245" id="Fill-3" fill="#FFFFFF"></path>
                <path d="M0.9778,0.9245 L36.9778,0.9245" id="Stroke-5" stroke="#5E63B6" stroke-width="2" stroke-linecap="round" stroke-linejoin="round"></path>
            </g>
            <g id="Group-10" transform="translate(192.000000, 209.730000)">
                <path d="M0.3196,0.9245 L44.3196,0.9245" id="Fill-7" fill="#FFFFFF"></path>
                <path d="M0.3196,0.9245 L44.3196,0.9245" id="Stroke-9" stroke="#5E63B6" stroke-width="2" stroke-linecap="round" stroke-linejoin="round"></path>
            </g>
            <path d="M85.4309,210.2805 L80.4519,210.2805 C78.7399,210.2805 77.1859,209.2325 76.5659,207.6365 C74.7979,203.0865 75.2389,198.9055 75.0279,195.3295 C74.6369,188.7045 75.6709,185.3095 76.6589,179.7685 L84.1329,179.9415 C84.1329,179.9415 83.4969,182.6945 83.0749,190.9535 C82.9439,193.5085 87.1659,203.7715 86.9679,208.8065 C86.9359,209.6325 86.2569,210.2805 85.4309,210.2805" id="Fill-11" fill="#9452BA"></path>
            <path d="M85.4309,210.2805 L80.4519,210.2805 C78.7399,210.2805 77.1859,209.2325 76.5659,207.6365 C74.7979,203.0865 75.2389,198.9055 75.0279,195.3295 C74.6369,188.7045 75.6709,185.3095 76.6589,179.7685 L84.1329,179.9415 C84.1329,179.9415 83.4969,182.6945 83.0749,190.9535 C82.9439,193.5085 87.1659,203.7715 86.9679,208.8065 C86.9359,209.6325 86.2569,210.2805 85.4309,210.2805 Z" id="Stroke-13" stroke="#52267D"></path>
            <path d="M99.9251,186.6115 L105.9371,179.7945 L109.6491,179.9415 C109.6491,179.9415 110.1701,185.6125 110.3831,187.9875 C110.7591,192.1735 112.4941,200.3755 113.5601,203.9745 C113.9051,205.1455 114.1081,206.2395 114.1631,207.2315 C114.2571,208.9015 112.8641,210.2805 111.1931,210.2805 L106.7811,210.2805 C104.2121,210.2805 101.9281,208.5655 101.2971,206.0755 C99.3311,198.3215 99.9251,186.6115 99.9251,186.6115" id="Fill-15" fill="#9452BA"></path>
            <path d="M99.9251,186.6115 L105.9371,179.7945 L109.6491,179.9415 C109.6491,179.9415 110.1701,185.6125 110.3831,187.9875 C110.7591,192.1735 112.4941,200.3755 113.5601,203.9745 C113.9051,205.1455 114.1081,206.2395 114.1631,207.2315 C114.2571,208.9015 112.8641,210.2805 111.1931,210.2805 L106.7811,210.2805 C104.2121,210.2805 101.9281,208.5655 101.2971,206.0755 C99.3311,198.3215 99.9251,186.6115 99.9251,186.6115 Z" id="Stroke-17" stroke="#52267D"></path>
            <polyline id="Stroke-19" stroke="#52267D" stroke-width="0.25" points="108.3782 191.3117 109.3702 192.1827 108.4222 193.0387 106.8762 192.4447 107.1862 191.7667 108.4682 192.0707 108.4572 192.2997 108.1242 192.2847"></polyline>
            <path d="M108.343,161.2248 C103.963,161.1348 99.859,158.1198 90.922,157.7068 C90.793,157.1228 90.636,156.5958 90.436,156.1628 C88.82,152.6618 86.537,142.5708 88.003,135.9408 L89.162,130.6958 C89.543,128.9748 89.735,127.2168 89.735,125.4538 C89.735,124.7198 89.66,124.0028 89.519,123.3108 C89.484,123.1378 89.444,122.9658 89.401,122.7958 C89.269,122.2868 89.101,121.7908 88.9,121.3148 C88.832,121.1558 88.761,120.9978 88.686,120.8428 C88.536,120.5338 88.373,120.2318 88.196,119.9388 C88.018,119.6468 87.826,119.3638 87.622,119.0898 C87.009,118.2718 86.281,117.5428 85.462,116.9308 C85.19,116.7268 84.906,116.5358 84.614,116.3578 C83.006,115.3808 81.117,114.8178 79.098,114.8178 L77.355,114.8178 C74.417,114.8178 71.758,116.0078 69.833,117.9328 C69.592,118.1738 69.364,118.4258 69.147,118.6888 C68.752,119.1658 68.402,119.6798 68.095,120.2218 C67.98,120.4248 67.868,120.6318 67.767,120.8428 C67.692,120.9978 67.62,121.1558 67.554,121.3148 C67.352,121.7908 67.184,122.2868 67.053,122.7958 C66.921,123.3058 66.827,123.8298 66.773,124.3678 C66.737,124.7248 66.718,125.0868 66.718,125.4538 C66.718,126.1868 67.015,126.8498 67.494,127.3288 C67.974,127.8098 68.637,128.1068 69.369,128.1068 L80.259,128.1068 L78.612,137.5588 C76.677,147.2688 77.258,153.7618 78.756,158.0908 C79.091,159.0558 80.992,162.4758 80.992,162.4758 C75.547,171.0688 67.197,174.8248 58.268,175.9138 C50.677,176.8418 34.289,169.9188 42.739,161.9118 C51.187,153.9038 40.978,158.8828 39.475,159.8968 C37.972,160.9098 29.282,168.4178 38.713,179.4348 C42.701,184.0938 47.218,188.3288 58.088,191.5758 C59.83,192.0958 69.343,192.7878 74.463,194.2568 C89.709,198.6338 102.103,193.8748 109.049,183.8118 C115.966,173.7878 110.072,161.2598 108.343,161.2248" id="Fill-21" fill="#9452BA"></path>
            <path d="M108.343,161.2248 C103.963,161.1348 99.859,158.1198 90.922,157.7068 C90.793,157.1228 90.636,156.5958 90.436,156.1628 C88.82,152.6618 86.537,142.5708 88.003,135.9408 L89.162,130.6958 C89.543,128.9748 89.735,127.2168 89.735,125.4538 C89.735,124.7198 89.66,124.0028 89.519,123.3108 C89.484,123.1378 89.444,122.9658 89.401,122.7958 C89.269,122.2868 89.101,121.7908 88.9,121.3148 C88.832,121.1558 88.761,120.9978 88.686,120.8428 C88.536,120.5338 88.373,120.2318 88.196,119.9388 C88.018,119.6468 87.826,119.3638 87.622,119.0898 C87.009,118.2718 86.281,117.5428 85.462,116.9308 C85.19,116.7268 84.906,116.5358 84.614,116.3578 C83.006,115.3808 81.117,114.8178 79.098,114.8178 L77.355,114.8178 C74.417,114.8178 71.758,116.0078 69.833,117.9328 C69.592,118.1738 69.364,118.4258 69.147,118.6888 C68.752,119.1658 68.402,119.6798 68.095,120.2218 C67.98,120.4248 67.868,120.6318 67.767,120.8428 C67.692,120.9978 67.62,121.1558 67.554,121.3148 C67.352,121.7908 67.184,122.2868 67.053,122.7958 C66.921,123.3058 66.827,123.8298 66.773,124.3678 C66.737,124.7248 66.718,125.0868 66.718,125.4538 C66.718,126.1868 67.015,126.8498 67.494,127.3288 C67.974,127.8098 68.637,128.1068 69.369,128.1068 L80.259,128.1068 L78.612,137.5588 C76.677,147.2688 77.258,153.7618 78.756,158.0908 C79.091,159.0558 80.992,162.4758 80.992,162.4758 C75.547,171.0688 67.197,174.8248 58.268,175.9138 C50.677,176.8418 34.289,169.9188 42.739,161.9118 C51.187,153.9038 40.978,158.8828 39.475,159.8968 C37.972,160.9098 29.282,168.4178 38.713,179.4348 C42.701,184.0938 47.218,188.3288 58.088,191.5758 C59.83,192.0958 69.343,192.7878 74.463,194.2568 C89.709,198.6338 102.103,193.8748 109.049,183.8118 C115.966,173.7878 110.072,161.2598 108.343,161.2248 Z" id="Stroke-23" stroke="#52267D" stroke-width="2"></path>
            <path d="M98.8831,146.7541 C98.5341,135.4941 107.4711,126.6451 117.6271,124.7751 C119.7361,124.3871 120.4221,123.7251 122.7291,123.7251 L124.4951,123.7251 C130.4461,123.7251 135.2721,128.5501 135.2721,134.5011 C135.2721,135.9841 134.0691,137.1881 132.5851,137.1881 C132.5851,137.1881 114.4661,137.1831 114.3811,137.1751 C114.3801,137.1751 112.9041,137.1761 112.9041,137.1761 C112.9051,137.1781 114.3821,137.1791 114.3851,137.1811 C110.3771,138.8821 107.8841,144.0021 107.4451,146.7541 C106.8181,150.6721 107.2771,153.9041 108.6131,156.5191 C109.5041,158.2601 109.6051,160.3581 109.4681,162.0571 C109.4681,162.0571 109.4251,162.0711 109.3641,162.0921 C109.3011,163.0001 109.1541,164.0331 108.8841,165.2121 C107.1781,164.0231 104.5241,162.2341 104.0391,161.9781 C102.9921,161.4251 100.6291,160.1671 99.5711,159.5621 C92.8121,155.6871 99.0821,153.1581 98.8831,146.7541" id="Fill-25" fill="#9452BA"></path>
            <path d="M98.8831,146.7541 C98.5341,135.4941 107.4711,126.6451 117.6271,124.7751 C119.7361,124.3871 120.4221,123.7251 122.7291,123.7251 L124.4951,123.7251 C130.4461,123.7251 135.2721,128.5501 135.2721,134.5011 C135.2721,135.9841 134.0691,137.1881 132.5851,137.1881 C132.5851,137.1881 114.4661,137.1831 114.3811,137.1751 C114.3801,137.1751 112.9041,137.1761 112.9041,137.1761 C112.9051,137.1781 114.3821,137.1791 114.3851,137.1811 C110.3771,138.8821 107.8841,144.0021 107.4451,146.7541 C106.8181,150.6721 107.2771,153.9041 108.6131,156.5191 C109.5041,158.2601 109.6051,160.3581 109.4681,162.0571 C109.4681,162.0571 109.4251,162.0711 109.3641,162.0921 C109.3011,163.0001 109.1541,164.0331 108.8841,165.2121 C107.1781,164.0231 104.5241,162.2341 104.0391,161.9781 C102.9921,161.4251 100.6291,160.1671 99.5711,159.5621 C92.8121,155.6871 99.0821,153.1581 98.8831,146.7541 Z" id="Stroke-27" stroke="#52267D"></path>
            <g id="Group-32" transform="translate(103.000000, 135.730000)">
                <path d="M1.6536,24.0349 C1.7426,22.2959 2.0086,21.4029 1.8136,20.6949 C0.6906,16.6219 0.3256,15.3369 0.3256,11.0239 C0.3256,6.7389 2.8086,2.5039 6.4736,0.2509 C6.6746,0.1279 9.3136,-0.0591 11.3846,1.4509 C7.3776,3.1519 4.8836,8.2719 4.4446,11.0239 C3.8176,14.9419 4.2766,18.1749 5.6136,20.7889 C6.5046,22.5299 6.6046,24.6279 6.4676,26.3269 C6.4676,26.3269 1.5516,28.1729 1.6536,24.0349" id="Fill-29" fill="#F3E3FF"></path>
                <path d="M1.6536,24.0349 C1.7426,22.2959 2.0086,21.4029 1.8136,20.6949 C0.6906,16.6219 0.3256,15.3369 0.3256,11.0239 C0.3256,6.7389 2.8086,2.5039 6.4736,0.2509 C6.6746,0.1279 9.3136,-0.0591 11.3846,1.4509 C7.3776,3.1519 4.8836,8.2719 4.4446,11.0239 C3.8176,14.9419 4.2766,18.1749 5.6136,20.7889 C6.5046,22.5299 6.6046,24.6279 6.4676,26.3269 C6.4676,26.3269 1.5516,28.1729 1.6536,24.0349" id="Stroke-31" stroke="#52267D" stroke-width="0.5"></path>
            </g>
            <path d="M130.1497,125.5559 C130.1497,125.5559 130.1537,123.6739 128.2847,122.9259 C127.7127,122.6989 126.6717,122.2739 126.6717,122.2739 C126.6717,122.2739 125.5577,124.6289 126.8197,125.2239 C128.6357,126.0779 130.1497,125.5559 130.1497,125.5559" id="Fill-33" fill="#FFFFFF"></path>
            <path d="M130.1497,125.5559 C130.1497,125.5559 130.1537,123.6739 128.2847,122.9259 C127.7127,122.6989 126.6717,122.2739 126.6717,122.2739 C126.6717,122.2739 125.5577,124.6289 126.8197,125.2239 C128.6357,126.0779 130.1497,125.5559 130.1497,125.5559 Z" id="Stroke-35" stroke="#52267D" stroke-width="0.5"></path>
            <path d="M125.468,124.2326 C125.468,124.2326 125.415,121.6686 122.53,121.2946 C121.992,121.2246 120.589,121.2586 120.589,121.2586 C120.589,121.2586 119.941,123.9716 121.462,124.2326 C123.331,124.5526 125.468,124.2326 125.468,124.2326" id="Fill-37" fill="#FFFFFF"></path>
            <path d="M125.468,124.2326 C125.468,124.2326 125.415,121.6686 122.53,121.2946 C121.992,121.2246 120.589,121.2586 120.589,121.2586 C120.589,121.2586 119.941,123.9716 121.462,124.2326 C123.331,124.5526 125.468,124.2326 125.468,124.2326 Z" id="Stroke-39" stroke="#52267D" stroke-width="0.5"></path>
            <path d="M119.7327,124.4777 C119.7327,124.4777 119.3527,121.6337 116.7967,122.4157 C115.7067,122.7497 115.0997,123.5797 115.0997,123.5797 C115.0997,123.5797 115.6087,125.7457 116.6257,125.5007 C118.3997,125.0767 119.7327,124.4777 119.7327,124.4777" id="Fill-41" fill="#FFFFFF"></path>
            <path d="M119.7327,124.4777 C119.7327,124.4777 119.3527,121.6337 116.7967,122.4157 C115.7067,122.7497 115.0997,123.5797 115.0997,123.5797 C115.0997,123.5797 115.6087,125.7457 116.6257,125.5007 C118.3997,125.0767 119.7327,124.4777 119.7327,124.4777 Z" id="Stroke-43" stroke="#52267D" stroke-width="0.5"></path>
            <path d="M112.3137,138.2834 C112.3137,138.2834 106.3577,135.0464 107.4907,129.5974 C106.7007,130.2494 104.5857,132.2354 103.8197,133.2524 C103.8197,134.3184 103.6237,138.5544 109.4717,141.3904 C110.5007,140.3244 111.3677,138.9934 112.3137,138.2834" id="Fill-45" fill="#FFFFFF"></path>
            <path d="M112.3137,138.2834 C112.3137,138.2834 106.3577,135.0464 107.4907,129.5974 C106.7007,130.2494 104.5857,132.2354 103.8197,133.2524 C103.8197,134.3184 103.6237,138.5544 109.4717,141.3904 C110.5007,140.3244 111.3677,138.9934 112.3137,138.2834 Z" id="Stroke-47" stroke="#52267D" stroke-width="0.5"></path>
            <path d="M129.5989,125.2551 C129.5989,125.2551 129.6009,124.1561 128.5099,123.7201 C128.1769,123.5871 127.5689,123.3391 127.5689,123.3391 C127.5689,123.3391 126.9179,124.7141 127.6549,125.0611 C128.7149,125.5601 129.5989,125.2551 129.5989,125.2551" id="Fill-49" fill="#F3E3FF"></path>
            <path d="M124.6165,123.8781 C124.6165,123.8781 124.5855,122.3771 122.8965,122.1571 C122.5815,122.1171 121.7595,122.1371 121.7595,122.1371 C121.7595,122.1371 121.3805,123.7261 122.2705,123.8781 C123.3655,124.0651 124.6165,123.8781 124.6165,123.8781" id="Fill-51" fill="#F3E3FF"></path>
            <path d="M119.1018,124.3928 C119.1018,124.3928 118.8768,122.7098 117.3668,123.1728 C116.7198,123.3708 116.3618,123.8608 116.3618,123.8608 C116.3618,123.8608 116.6628,125.1418 117.2638,124.9978 C118.3138,124.7468 119.1018,124.3928 119.1018,124.3928" id="Fill-53" fill="#F3E3FF"></path>
            <path d="M119.1438,135.384 L125.7898,135.384 L125.7898,132.519 C125.7898,131.359 124.8498,130.417 123.6888,130.417 L119.1438,130.417 C118.4358,130.417 117.8618,130.991 117.8618,131.699 L117.8618,134.102 C117.8618,134.81 118.4358,135.384 119.1438,135.384" id="Fill-55" fill="#F3E3FF"></path>
            <path d="M119.8606,135.2902 L125.6966,135.2902 L125.6966,133.4032 C125.6966,132.2912 124.7956,131.3892 123.6816,131.3892 L119.8606,131.3892 C119.3036,131.3892 118.8526,131.8402 118.8526,132.3962 L118.8526,134.2832 C118.8526,134.8392 119.3036,135.2902 119.8606,135.2902" id="Fill-57" fill="#FFFFFF"></path>
            <path d="M119.8606,135.2902 L125.6966,135.2902 L125.6966,133.4032 C125.6966,132.2912 124.7956,131.3892 123.6816,131.3892 L119.8606,131.3892 C119.3036,131.3892 118.8526,131.8402 118.8526,132.3962 L118.8526,134.2832 C118.8526,134.8392 119.3036,135.2902 119.8606,135.2902 Z" id="Stroke-59" stroke="#52267D" stroke-width="0.5"></path>
            <path d="M124.8108,133.2873 C124.8108,133.8893 124.3228,134.3773 123.7208,134.3773 C123.1198,134.3773 122.6308,133.8893 122.6308,133.2873 C122.6308,132.6853 123.1198,132.1973 123.7208,132.1973 C124.3228,132.1973 124.8108,132.6853 124.8108,133.2873" id="Fill-61" fill="#52267D"></path>
            <path d="M132.8342,136.3693 C132.5242,136.3033 132.2472,136.1313 132.0502,135.8833 L131.6862,135.4243 L132.4982,135.5983 L132.9782,135.7003 C133.1622,135.7403 133.2792,135.9223 133.2402,136.1063 C133.2002,136.2913 133.0192,136.4083 132.8342,136.3693" id="Fill-63" fill="#52267D"></path>
            <path d="M111.3079,138.3908 C111.3079,138.3908 106.7199,135.9208 106.7899,130.9448 C104.8189,132.3808 104.2849,133.3098 104.2849,133.3098 C104.2849,133.3098 104.6279,135.6778 105.7319,136.8738 C107.4249,138.7088 109.1899,139.2738 111.3079,138.3908" id="Fill-65" fill="#E1F2FF"></path>
            <g id="Group-70" transform="translate(106.000000, 136.730000)">
                <path d="M0.9641,0.7878 C0.9641,0.7878 2.7731,2.6278 4.5371,3.5108" id="Fill-67" fill="#FFFFFF"></path>
                <path d="M0.9641,0.7878 C0.9641,0.7878 2.7731,2.6278 4.5371,3.5108" id="Stroke-69" stroke="#52267D" stroke-width="0.5"></path>
            </g>
            <g id="Group-74" transform="translate(88.000000, 109.730000)">
                <path d="M0.9729,47.1354 L1.9949,45.1184 C5.8119,35.7374 6.4009,30.2284 4.4209,21.2744 L3.2609,16.0294 C2.8799,14.3084 2.6889,12.5504 2.6889,10.7874 C2.6889,4.9134 7.4509,0.1514 13.3259,0.1514 L15.0429,0.1514 C20.8369,0.1514 25.5339,4.8484 25.5339,10.6424 L25.5339,10.9444 C25.5339,12.3224 24.4159,13.4404 23.0369,13.4404 L12.1639,13.4404 L13.8129,22.8924 C18.8599,48.2224 18.3529,58.4924 8.4219,56.3814" id="Fill-71" fill="#9452BA"></path>
                <path d="M0.9729,47.1354 L1.9949,45.1184 C5.8119,35.7374 6.4009,30.2284 4.4209,21.2744 L3.2609,16.0294 C2.8799,14.3084 2.6889,12.5504 2.6889,10.7874 C2.6889,4.9134 7.4509,0.1514 13.3259,0.1514 L15.0429,0.1514 C20.8369,0.1514 25.5339,4.8484 25.5339,10.6424 L25.5339,10.9444 C25.5339,12.3224 24.4159,13.4404 23.0369,13.4404 L12.1639,13.4404 L13.8129,22.8924 C18.8599,48.2224 18.3529,58.4924 8.4219,56.3814" id="Stroke-73" stroke="#52267D"></path>
            </g>
            <path d="M108.2913,111.1398 C108.2913,111.1398 108.1163,109.2958 106.2853,108.5638 C105.7263,108.3398 104.8513,108.5778 104.8513,108.5778 C104.8513,108.5778 103.7923,110.2328 105.0283,110.8138 C106.8093,111.6518 108.2913,111.1398 108.2913,111.1398" id="Fill-75" fill="#FFFFFF"></path>
            <path d="M108.2913,111.1398 C108.2913,111.1398 108.1163,109.2958 106.2853,108.5638 C105.7263,108.3398 104.8513,108.5778 104.8513,108.5778 C104.8513,108.5778 103.7923,110.2328 105.0283,110.8138 C106.8093,111.6518 108.2913,111.1398 108.2913,111.1398 Z" id="Stroke-77" stroke="#52267D" stroke-width="0.5"></path>
            <path d="M103.9299,110.5314 C103.9299,110.5314 103.8689,107.6284 100.6019,107.2044 C99.9919,107.1254 99.2099,107.1854 99.2099,107.1854 C99.2099,107.1854 97.6689,110.2364 99.3919,110.5314 C101.5099,110.8944 103.9299,110.5314 103.9299,110.5314" id="Fill-79" fill="#FFFFFF"></path>
            <path d="M103.9299,110.5314 C103.9299,110.5314 103.8689,107.6284 100.6019,107.2044 C99.9919,107.1254 99.2099,107.1854 99.2099,107.1854 C99.2099,107.1854 97.6689,110.2364 99.3919,110.5314 C101.5099,110.8944 103.9299,110.5314 103.9299,110.5314 Z" id="Stroke-81" stroke="#52267D" stroke-width="0.5"></path>
            <path d="M98.0842,111.1926 C98.0842,111.1926 97.6422,108.4176 95.1592,109.2466 C94.0982,109.5996 93.5252,110.4276 93.5252,110.4276 C93.5252,110.4276 94.0772,112.5366 95.0662,112.2716 C96.7942,111.8116 98.0842,111.1926 98.0842,111.1926" id="Fill-83" fill="#FFFFFF"></path>
            <path d="M98.0842,111.1926 C98.0842,111.1926 97.6422,108.4176 95.1592,109.2466 C94.0982,109.5996 93.5252,110.4276 93.5252,110.4276 C93.5252,110.4276 94.0772,112.5366 95.0662,112.2716 C96.7942,111.8116 98.0842,111.1926 98.0842,111.1926 Z" id="Stroke-85" stroke="#52267D" stroke-width="0.5"></path>
            <g id="Group-90" transform="translate(106.000000, 159.730000)">
                <path d="M2.1145,1.1589 C1.4945,0.6949 0.8665,0.4269 0.3275,0.2979" id="Fill-87" fill="#F3E3FF"></path>
                <path d="M2.1145,1.1589 C1.4945,0.6949 0.8665,0.4269 0.3275,0.2979" id="Stroke-89" stroke="#52267D" stroke-width="0.5"></path>
            </g>
            <g id="Group-94" transform="translate(77.000000, 122.730000)">
                <path d="M27.5139,38.1022 C29.2909,30.8792 26.0839,17.0722 25.4949,13.6732 L23.1609,0.0582 L22.1379,0.0582 C20.8409,0.0582 19.8599,1.4672 20.0439,2.7522 L21.7359,14.5622 C22.3089,18.5612 22.9049,37.0772 15.9559,41.0532 C14.4739,41.9022 12.0639,41.3452 11.1569,40.9122 C7.8539,39.3342 6.9039,35.2172 6.1799,31.8982 C4.6829,25.0282 5.8499,19.6352 6.1809,14.2502 L6.5289,7.5132 C6.5919,6.2952 5.6229,5.0032 4.4059,5.0032 L3.1639,5.0032 L0.9279,18.6192 C0.2559,22.4962 -1.4741,35.9412 6.4479,42.2442 C6.5909,42.3582 4.5219,42.8212 5.1209,43.8812 C7.5039,48.0932 14.4089,48.7592 15.7089,50.5632 C20.7159,57.5072 16.0269,72.3042 16.0269,72.3042 C16.0269,72.3042 21.5829,70.0862 25.0259,67.0012 C33.0729,59.7892 34.0939,49.3432 34.1309,46.2682 C34.1749,42.5892 33.2089,40.3072 32.0189,38.9452" id="Fill-91" fill="#F3E3FF"></path>
                <path d="M27.5139,38.1022 C29.2909,30.8792 26.0839,17.0722 25.4949,13.6732 L23.1609,0.0582 L22.1379,0.0582 C20.8409,0.0582 19.8599,1.4672 20.0439,2.7522 L21.7359,14.5622 C22.3089,18.5612 22.9049,37.0772 15.9559,41.0532 C14.4739,41.9022 12.0639,41.3452 11.1569,40.9122 C7.8539,39.3342 6.9039,35.2172 6.1799,31.8982 C4.6829,25.0282 5.8499,19.6352 6.1809,14.2502 L6.5289,7.5132 C6.5919,6.2952 5.6229,5.0032 4.4059,5.0032 L3.1639,5.0032 L0.9279,18.6192 C0.2559,22.4962 -1.4741,35.9412 6.4479,42.2442 C6.5909,42.3582 4.5219,42.8212 5.1209,43.8812 C7.5039,48.0932 14.4089,48.7592 15.7089,50.5632 C20.7159,57.5072 16.0269,72.3042 16.0269,72.3042 C16.0269,72.3042 21.5829,70.0862 25.0259,67.0012 C33.0729,59.7892 34.0939,49.3432 34.1309,46.2682 C34.1749,42.5892 33.2089,40.3072 32.0189,38.9452" id="Stroke-93" stroke="#52267D" stroke-width="0.5"></path>
            </g>
            <path d="M39.1995,166.8557 C39.1995,166.8557 38.0555,165.5897 38.6985,163.8897 C38.8945,163.3717 39.6015,162.9247 39.6015,162.9247 C39.6015,162.9247 41.3835,163.2357 41.0095,164.4377 C40.4705,166.1677 39.1995,166.8557 39.1995,166.8557" id="Fill-95" fill="#FFFFFF"></path>
            <path d="M39.1995,166.8557 C39.1995,166.8557 38.0555,165.5897 38.6985,163.8897 C38.8945,163.3717 39.6015,162.9247 39.6015,162.9247 C39.6015,162.9247 41.3835,163.2357 41.0095,164.4377 C40.4705,166.1677 39.1995,166.8557 39.1995,166.8557 Z" id="Stroke-97" stroke="#52267D"></path>
            <path d="M39.5774,165.0969 C39.5774,165.0969 39.1774,164.6529 39.4014,164.0569 C39.4714,163.8739 39.7194,163.7179 39.7194,163.7179 C39.7194,163.7179 40.3444,163.8269 40.2124,164.2479 C40.0234,164.8549 39.5774,165.0969 39.5774,165.0969" id="Fill-99" fill="#F3E3FF"></path>
            <path d="M48.5598,175.924 C48.5598,175.924 49.6458,173.447 47.0518,171.811 C46.5678,171.505 45.8828,171.25 45.8828,171.25 C45.8828,171.25 43.3878,173.224 44.7268,174.148 C46.3728,175.283 48.5598,175.924 48.5598,175.924" id="Fill-101" fill="#FFFFFF"></path>
            <path d="M48.5598,175.924 C48.5598,175.924 49.6458,173.447 47.0518,171.811 C46.5678,171.505 45.8828,171.25 45.8828,171.25 C45.8828,171.25 43.3878,173.224 44.7268,174.148 C46.3728,175.283 48.5598,175.924 48.5598,175.924 Z" id="Stroke-103" stroke="#52267D"></path>
            <path d="M47.6555,174.9924 C47.6555,174.9924 48.2585,173.6184 46.8195,172.7114 C46.5515,172.5424 46.1725,172.4004 46.1725,172.4004 C46.1725,172.4004 44.7875,173.4954 45.5305,174.0074 C46.4435,174.6374 47.6555,174.9924 47.6555,174.9924" id="Fill-105" fill="#F3E3FF"></path>
            <path d="M40.6419,167.8117 C40.6419,167.8117 38.7619,169.4627 40.5649,170.9397 C41.3349,171.5707 42.2309,171.6087 42.2309,171.6087 C42.2309,171.6087 43.5559,170.1917 42.8879,169.5727 C41.7209,168.4897 40.6419,167.8117 40.6419,167.8117" id="Fill-107" fill="#FFFFFF"></path>
            <path d="M40.6419,167.8117 C40.6419,167.8117 38.7619,169.4627 40.5649,170.9397 C41.3349,171.5707 42.2309,171.6087 42.2309,171.6087 C42.2309,171.6087 43.5559,170.1917 42.8879,169.5727 C41.7209,168.4897 40.6419,167.8117 40.6419,167.8117 Z" id="Stroke-109" stroke="#52267D"></path>
            <path d="M40.9153,168.9826 C40.9153,168.9826 40.0823,169.7136 40.8813,170.3676 C41.2233,170.6466 41.6193,170.6646 41.6193,170.6646 C41.6193,170.6646 42.2063,170.0366 41.9103,169.7616 C41.3943,169.2826 40.9153,168.9826 40.9153,168.9826" id="Fill-111" fill="#F3E3FF"></path>
            <path d="M57.5813,177.2268 C57.5813,177.2268 58.2013,175.0218 55.7743,174.1468 C53.3493,173.2718 52.6963,173.9988 52.6963,173.9988 C52.6963,173.9988 51.3543,176.2588 52.5543,176.9858 C53.7533,177.7128 57.5813,177.2268 57.5813,177.2268" id="Fill-113" fill="#FFFFFF"></path>
            <path d="M57.5813,177.2268 C57.5813,177.2268 58.2013,175.0218 55.7743,174.1468 C53.3493,173.2718 52.6963,173.9988 52.6963,173.9988 C52.6963,173.9988 51.3543,176.2588 52.5543,176.9858 C53.7533,177.7128 57.5813,177.2268 57.5813,177.2268 Z" id="Stroke-115" stroke="#52267D"></path>
            <path d="M56.4426,176.7258 C56.4426,176.7258 56.7646,175.5798 55.5036,175.1238 C54.2416,174.6688 53.9026,175.0478 53.9026,175.0478 C53.9026,175.0478 53.2046,176.2228 53.8286,176.6008 C54.4516,176.9788 56.4426,176.7258 56.4426,176.7258" id="Fill-117" fill="#F3E3FF"></path>
            <path d="M100.6907,126.1086 C100.6907,126.1086 96.8167,128.2986 91.3727,126.3216 C91.7457,128.0106 92.5067,131.4056 92.5067,131.4056 C92.5067,131.4056 97.5517,132.9526 101.4437,130.5046 C101.0447,128.2626 100.6907,126.1086 100.6907,126.1086" id="Fill-119" fill="#FFFFFF"></path>
            <path d="M100.6907,126.1086 C100.6907,126.1086 96.8167,128.2986 91.3727,126.3216 C91.7457,128.0106 92.5067,131.4056 92.5067,131.4056 C92.5067,131.4056 97.5517,132.9526 101.4437,130.5046 C101.0447,128.2626 100.6907,126.1086 100.6907,126.1086 Z" id="Stroke-121" stroke="#52267D" stroke-width="0.5"></path>
            <path d="M71.7112,116.2678 C71.7112,116.2678 71.8872,114.4108 73.7322,113.6718 C74.2962,113.4468 75.8162,113.3848 75.8162,113.3848 C75.8162,113.3848 76.2442,115.3528 74.9982,115.9388 C73.2052,116.7828 71.7112,116.2678 71.7112,116.2678" id="Fill-123" fill="#FFFFFF"></path>
            <path d="M71.7112,116.2678 C71.7112,116.2678 71.8872,114.4108 73.7322,113.6718 C74.2962,113.4468 75.8162,113.3848 75.8162,113.3848 C75.8162,113.3848 76.2442,115.3528 74.9982,115.9388 C73.2052,116.7828 71.7112,116.2678 71.7112,116.2678 Z" id="Stroke-125" stroke="#52267D" stroke-width="0.5"></path>
            <path d="M76.3938,115.3185 C76.3938,115.3185 76.4468,112.7875 79.2938,112.4185 C79.8258,112.3495 80.5068,112.4025 80.5068,112.4025 C80.5068,112.4025 81.8498,115.0615 80.3488,115.3185 C78.5028,115.6345 76.3938,115.3185 76.3938,115.3185" id="Fill-127" fill="#FFFFFF"></path>
            <path d="M76.3938,115.3185 C76.3938,115.3185 76.4468,112.7875 79.2938,112.4185 C79.8258,112.3495 80.5068,112.4025 80.5068,112.4025 C80.5068,112.4025 81.8498,115.0615 80.3488,115.3185 C78.5028,115.6345 76.3938,115.3185 76.3938,115.3185 Z" id="Stroke-129" stroke="#52267D" stroke-width="0.5"></path>
            <path d="M81.7874,115.5021 C81.7874,115.5021 82.2344,112.7051 84.7354,113.5411 C85.8044,113.8981 86.3814,114.7311 86.3814,114.7311 C86.3814,114.7311 85.8244,116.8561 84.8284,116.5901 C83.0884,116.1261 81.7874,115.5021 81.7874,115.5021" id="Fill-131" fill="#FFFFFF"></path>
            <path d="M81.7874,115.5021 C81.7874,115.5021 82.2344,112.7051 84.7354,113.5411 C85.8044,113.8981 86.3814,114.7311 86.3814,114.7311 C86.3814,114.7311 85.8244,116.8561 84.8284,116.5901 C83.0884,116.1261 81.7874,115.5021 81.7874,115.5021 Z" id="Stroke-133" stroke="#52267D" stroke-width="0.5"></path>
            <path d="M107.4514,110.756 C107.4514,110.756 107.3524,109.715 106.3174,109.301 C106.0024,109.174 105.5074,109.309 105.5074,109.309 C105.5074,109.309 104.9094,110.243 105.6074,110.572 C106.6134,111.045 107.4514,110.756 107.4514,110.756" id="Fill-135" fill="#F3E3FF"></path>
            <path d="M103.0149,110.1447 C103.0149,110.1447 102.9759,108.2367 100.8289,107.9577 C100.4289,107.9067 99.9149,107.9467 99.9149,107.9467 C99.9149,107.9467 98.9029,109.9507 100.0349,110.1447 C101.4249,110.3827 103.0149,110.1447 103.0149,110.1447" id="Fill-137" fill="#F3E3FF"></path>
            <path d="M97.2835,111.0197 C97.2835,111.0197 97.0025,109.2527 95.4225,109.7817 C94.7475,110.0067 94.3835,110.5337 94.3835,110.5337 C94.3835,110.5337 94.7345,111.8737 95.3635,111.7067 C96.4635,111.4137 97.2835,111.0197 97.2835,111.0197" id="Fill-139" fill="#F3E3FF"></path>
            <path d="M72.509,115.8752 C72.509,115.8752 72.607,114.8402 73.635,114.4292 C73.948,114.3032 74.796,114.2702 74.796,114.2702 C74.796,114.2702 75.034,115.3652 74.34,115.6922 C73.341,116.1622 72.509,115.8752 72.509,115.8752" id="Fill-141" fill="#F3E3FF"></path>
            <path d="M77.3753,114.9504 C77.3753,114.9504 77.4053,113.4834 79.0563,113.2694 C79.3633,113.2294 79.7583,113.2614 79.7583,113.2614 C79.7583,113.2614 80.5363,114.8014 79.6663,114.9504 C78.5973,115.1344 77.3753,114.9504 77.3753,114.9504" id="Fill-143" fill="#F3E3FF"></path>
            <path d="M82.5735,115.3928 C82.5735,115.3928 82.8375,113.7388 84.3165,114.2328 C84.9495,114.4438 85.2905,114.9368 85.2905,114.9368 C85.2905,114.9368 84.9615,116.1938 84.3725,116.0368 C83.3425,115.7618 82.5735,115.3928 82.5735,115.3928" id="Fill-145" fill="#F3E3FF"></path>
            <path d="M89.1165,130.9045 C89.1165,130.9045 84.3195,131.6525 79.7595,130.5335 C79.3135,133.0115 79.0285,134.8835 79.0285,134.8835 C79.0285,134.8835 82.1925,137.0315 88.0375,135.7855 C88.7265,132.6015 89.1165,130.9045 89.1165,130.9045" id="Fill-147" fill="#FFFFFF"></path>
            <path d="M89.1165,130.9045 C89.1165,130.9045 84.3195,131.6525 79.7595,130.5335 C79.3135,133.0115 79.0285,134.8835 79.0285,134.8835 C79.0285,134.8835 82.1925,137.0315 88.0375,135.7855 C88.7265,132.6015 89.1165,130.9045 89.1165,130.9045 Z" id="Stroke-149" stroke="#52267D" stroke-width="0.5"></path>
            <path d="M82.384,126.0871 L75.738,126.0871 L75.738,123.2221 C75.738,122.0621 76.679,121.1211 77.839,121.1211 L82.384,121.1211 C83.092,121.1211 83.666,121.6951 83.666,122.4031 L83.666,124.8051 C83.666,125.5131 83.092,126.0871 82.384,126.0871" id="Fill-151" fill="#F3E3FF"></path>
            <path d="M81.6682,125.9943 L75.8312,125.9943 L75.8312,124.1073 C75.8312,122.9943 76.7332,122.0923 77.8472,122.0923 L81.6682,122.0923 C82.2252,122.0923 82.6762,122.5433 82.6762,123.0993 L82.6762,124.9863 C82.6762,125.5433 82.2252,125.9943 81.6682,125.9943" id="Fill-153" fill="#FFFFFF"></path>
            <path d="M81.6682,125.9943 L75.8312,125.9943 L75.8312,124.1073 C75.8312,122.9943 76.7332,122.0923 77.8472,122.0923 L81.6682,122.0923 C82.2252,122.0923 82.6762,122.5433 82.6762,123.0993 L82.6762,124.9863 C82.6762,125.5433 82.2252,125.9943 81.6682,125.9943 Z" id="Stroke-155" stroke="#52267D" stroke-width="0.5"></path>
            <path d="M76.718,124.8381 C76.718,125.4401 77.205,125.9281 77.808,125.9281 C78.409,125.9281 78.897,125.4401 78.897,124.8381 C78.897,124.2351 78.409,123.7481 77.808,123.7481 C77.205,123.7481 76.718,124.2351 76.718,124.8381" id="Fill-157" fill="#52267D"></path>
            <path d="M98.8255,121.3791 L105.4715,121.3791 L105.4715,118.5141 C105.4715,117.3541 104.5305,116.4121 103.3705,116.4121 L98.8255,116.4121 C98.1175,116.4121 97.5435,116.9861 97.5435,117.6941 L97.5435,120.0971 C97.5435,120.8051 98.1175,121.3791 98.8255,121.3791" id="Fill-159" fill="#F3E3FF"></path>
            <path d="M99.5413,121.2853 L105.3783,121.2853 L105.3783,119.3983 C105.3783,118.2863 104.4763,117.3843 103.3633,117.3843 L99.5413,117.3843 C98.9843,117.3843 98.5343,117.8353 98.5343,118.3913 L98.5343,120.2783 C98.5343,120.8343 98.9843,121.2853 99.5413,121.2853" id="Fill-161" fill="#FFFFFF"></path>
            <path d="M99.5413,121.2853 L105.3783,121.2853 L105.3783,119.3983 C105.3783,118.2863 104.4763,117.3843 103.3633,117.3843 L99.5413,117.3843 C98.9843,117.3843 98.5343,117.8353 98.5343,118.3913 L98.5343,120.2783 C98.5343,120.8343 98.9843,121.2853 99.5413,121.2853 Z" id="Stroke-163" stroke="#52267D" stroke-width="0.5"></path>
            <path d="M104.4915,120.1291 C104.4915,120.7321 104.0045,121.2191 103.4025,121.2191 C102.8005,121.2191 102.3125,120.7321 102.3125,120.1291 C102.3125,119.5271 102.8005,119.0401 103.4025,119.0401 C104.0045,119.0401 104.4915,119.5271 104.4915,120.1291" id="Fill-165" fill="#52267D"></path>
            <path d="M69.178,127.2199 C69.488,127.1539 69.764,126.9819 69.961,126.7349 L70.326,126.2749 L69.513,126.4489 L69.034,126.5519 C68.85,126.5909 68.732,126.7739 68.772,126.9579 C68.811,127.1429 68.992,127.2599 69.178,127.2199" id="Fill-167" fill="#52267D"></path>
            <path d="M111.1839,122.1242 C110.8729,122.0582 110.5969,121.8862 110.3999,121.6382 L110.0349,121.1792 L110.8479,121.3532 L111.3269,121.4562 C111.5109,121.4952 111.6289,121.6772 111.5889,121.8612 C111.5499,122.0462 111.3689,122.1642 111.1839,122.1242" id="Fill-169" fill="#52267D"></path>
            <path d="M100.2258,126.8156 C100.2258,126.8156 96.1668,128.5446 92.0738,126.9646 C92.5028,129.3666 92.8848,130.5916 92.8848,130.5916 C92.8848,130.5916 95.3488,130.7366 96.9788,130.4156 C99.3078,129.9566 100.2258,128.8976 100.2258,126.8156" id="Fill-171" fill="#E1F2FF"></path>
            <g id="Group-176" transform="translate(94.000000, 127.730000)">
                <path d="M0.5794,2.1647 C0.5794,2.1647 4.2724,2.4727 7.1314,0.9897" id="Fill-173" fill="#FFFFFF"></path>
                <path d="M0.5794,2.1647 C0.5794,2.1647 4.2724,2.4727 7.1314,0.9897" id="Stroke-175" stroke="#52267D" stroke-width="0.5"></path>
            </g>
            <path d="M81.5159,131.4455 C81.5159,131.4455 85.1159,132.4685 88.2909,131.8345 C87.6919,134.1985 87.3739,134.9395 87.3739,134.9395 C87.3739,134.9395 82.6099,134.3045 81.5159,131.4455" id="Fill-177" fill="#E1F2FF"></path>
            <g id="Group-182" transform="translate(83.000000, 164.730000)">
                <path d="M0.4475,0.2946 C0.4475,0.2946 0.6655,0.4516 0.9745,0.6386" id="Fill-179" fill="#F3E3FF"></path>
                <path d="M0.4475,0.2946 C0.4475,0.2946 0.6655,0.4516 0.9745,0.6386" id="Stroke-181" stroke="#52267D" stroke-width="0.5"></path>
            </g>
            <g id="Group-186" transform="translate(81.000000, 132.730000)">
                <path d="M0.1682,0.0768 C0.1682,0.0768 3.7922,0.7638 7.6392,0.3058" id="Fill-183" fill="#FFFFFF"></path>
                <path d="M0.1682,0.0768 C0.1682,0.0768 3.7922,0.7638 7.6392,0.3058" id="Stroke-185" stroke="#52267D" stroke-width="0.5"></path>
            </g>
            <path d="M87.1067,207.3576 C87.1067,207.3576 88.0687,206.5746 89.3457,207.6236 C90.5127,208.5826 91.3907,210.0636 90.8677,210.2126 C90.3447,210.3616 89.4237,210.5056 88.4567,210.3296 C87.6157,210.1746 86.8717,210.3366 86.5347,208.5766 C86.3777,207.7556 87.1067,207.3576 87.1067,207.3576" id="Fill-187" fill="#FFFFFF"></path>
            <path d="M87.1067,207.3576 C87.1067,207.3576 88.0687,206.5746 89.3457,207.6236 C90.5127,208.5826 91.3907,210.0636 90.8677,210.2126 C90.3447,210.3616 89.4237,210.5056 88.4567,210.3296 C87.6157,210.1746 86.8717,210.3366 86.5347,208.5766 C86.3777,207.7556 87.1067,207.3576 87.1067,207.3576 Z" id="Stroke-189" stroke="#52267D" stroke-width="0.5"></path>
            <path d="M87.3264,207.6428 C87.3264,207.6428 87.9244,207.1558 88.7194,207.8088 C89.4454,208.4058 89.9914,209.3278 89.6664,209.4198 C89.3414,209.5118 88.7674,209.6028 88.1664,209.4928 C87.6414,209.3958 87.1804,209.4968 86.9694,208.4018 C86.8714,207.8908 87.3264,207.6428 87.3264,207.6428" id="Fill-191" fill="#E1F2FF"></path>
            <path d="M85.7424,207.34 C85.2344,207.272 84.5044,208.375 84.5874,208.711 C84.6714,209.047 84.7284,210.157 85.5504,210.278 C86.1554,210.367 88.3154,210.592 88.7864,210.123 C89.2214,209.691 88.3704,207.692 85.7424,207.34" id="Fill-193" fill="#FFFFFF"></path>
            <path d="M85.7424,207.34 C85.2344,207.272 84.5044,208.375 84.5874,208.711 C84.6714,209.047 84.7284,210.157 85.5504,210.278 C86.1554,210.367 88.3154,210.592 88.7864,210.123 C89.2214,209.691 88.3704,207.692 85.7424,207.34 Z" id="Stroke-195" stroke="#52267D" stroke-width="0.5"></path>
            <path d="M85.6008,207.6457 C85.3008,207.6057 84.8698,208.2557 84.9188,208.4547 C84.9678,208.6537 85.0018,209.3087 85.4868,209.3797 C85.8438,209.4317 87.1188,209.5647 87.3968,209.2887 C87.6538,209.0327 87.1508,207.8537 85.6008,207.6457" id="Fill-197" fill="#E1F2FF"></path>
            <path d="M83.594,207.5549 C83.594,207.5549 84.033,207.3259 84.902,207.8229 C85.669,208.2609 86.814,208.9629 86.513,209.8349 C86.211,210.7069 83.787,210.3829 83.248,210.1989 C82.709,210.0139 82.37,209.4269 82.466,208.9129 C82.673,207.7929 83.594,207.5549 83.594,207.5549" id="Fill-199" fill="#FFFFFF"></path>
            <path d="M83.594,207.5549 C83.594,207.5549 84.033,207.3259 84.902,207.8229 C85.669,208.2609 86.814,208.9629 86.513,209.8349 C86.211,210.7069 83.787,210.3829 83.248,210.1989 C82.709,210.0139 82.37,209.4269 82.466,208.9129 C82.673,207.7929 83.594,207.5549 83.594,207.5549 Z" id="Stroke-201" stroke="#52267D" stroke-width="0.5"></path>
            <path d="M83.4299,207.8635 C83.4299,207.8635 83.6899,207.7275 84.2029,208.0215 C84.6579,208.2825 85.3359,208.6975 85.1579,209.2145 C84.9789,209.7305 83.5429,209.5385 83.2249,209.4285 C82.9059,209.3195 82.7049,208.9715 82.7609,208.6685 C82.8839,208.0055 83.4299,207.8635 83.4299,207.8635" id="Fill-203" fill="#E1F2FF"></path>
            <g id="Group-208" transform="translate(83.000000, 179.730000)">
                <path d="M10.7327,0.0114 C10.7327,0.0114 10.2387,5.6284 11.6667,14.4584 C12.9967,22.6784 15.3527,25.2564 15.1797,27.3884 C15.0457,29.0384 14.3487,30.5504 12.6937,30.5504 L7.7537,30.5504 C5.4457,30.5504 3.4127,29.0774 2.6697,26.8934 C2.0737,25.1344 1.4517,22.7404 1.0817,19.7144 C0.7017,15.5984 0.7827,11.4704 0.8507,9.0454" id="Fill-205" fill="#9452BA"></path>
                <path d="M10.7327,0.0114 C10.7327,0.0114 10.2387,5.6284 11.6667,14.4584 C12.9967,22.6784 15.3527,25.2564 15.1797,27.3884 C15.0457,29.0384 14.3487,30.5504 12.6937,30.5504 L7.7537,30.5504 C5.4457,30.5504 3.4127,29.0774 2.6697,26.8934 C2.0737,25.1344 1.4517,22.7404 1.0817,19.7144 C0.7017,15.5984 0.7827,11.4704 0.8507,9.0454" id="Stroke-207" stroke="#52267D"></path>
            </g>
            <g id="Group-212" transform="translate(59.000000, 182.730000)">
                <path d="M9.4007,0.7272 C11.0367,2.1362 11.8857,4.4432 11.8727,6.5622 C11.8557,9.3922 10.2137,12.9952 11.2547,17.6972 C12.1817,21.8862 14.0267,22.6252 13.4707,26.3832 C13.3707,27.0622 12.7617,27.5502 12.0757,27.5502 L6.5707,27.5502 C4.0367,27.5502 1.8677,25.7122 1.4527,23.2132 C0.3457,16.5382 1.1917,10.2372 2.0817,5.4022" id="Fill-209" fill="#9452BA"></path>
                <path d="M9.4007,0.7272 C11.0367,2.1362 11.8857,4.4432 11.8727,6.5622 C11.8557,9.3922 10.2137,12.9952 11.2547,17.6972 C12.1817,21.8862 14.0267,22.6252 13.4707,26.3832 C13.3707,27.0622 12.7617,27.5502 12.0757,27.5502 L6.5707,27.5502 C4.0367,27.5502 1.8677,25.7122 1.4527,23.2132 C0.3457,16.5382 1.1917,10.2372 2.0817,5.4022" id="Stroke-211" stroke="#52267D"></path>
            </g>
            <polyline id="Stroke-213" stroke="#52267D" stroke-width="0.25" points="67.3186 189.6936 66.9956 189.4616 65.9486 189.6966 67.1116 190.4386 68.5096 189.7496 67.0566 188.5876 66.3956 188.8086"></polyline>
            <path d="M97.1008,207.3576 C97.1008,207.3576 98.0618,206.5746 99.3398,207.6236 C100.5068,208.5826 101.3848,210.0636 100.8618,210.2126 C100.3378,210.3616 99.4178,210.5056 98.4508,210.3296 C97.6098,210.1746 96.8658,210.3366 96.5278,208.5766 C96.3708,207.7556 97.1008,207.3576 97.1008,207.3576" id="Fill-215" fill="#FFFFFF"></path>
            <path d="M97.1008,207.3576 C97.1008,207.3576 98.0618,206.5746 99.3398,207.6236 C100.5068,208.5826 101.3848,210.0636 100.8618,210.2126 C100.3378,210.3616 99.4178,210.5056 98.4508,210.3296 C97.6098,210.1746 96.8658,210.3366 96.5278,208.5766 C96.3708,207.7556 97.1008,207.3576 97.1008,207.3576 Z" id="Stroke-217" stroke="#52267D" stroke-width="0.5"></path>
            <path d="M97.3196,207.6428 C97.3196,207.6428 97.9186,207.1558 98.7136,207.8088 C99.4396,208.4058 99.9856,209.3278 99.6606,209.4198 C99.3346,209.5118 98.7616,209.6028 98.1596,209.4928 C97.6356,209.3958 97.1736,209.4968 96.9636,208.4018 C96.8656,207.8908 97.3196,207.6428 97.3196,207.6428" id="Fill-219" fill="#E1F2FF"></path>
            <polyline id="Stroke-221" stroke="#52267D" stroke-width="0.25" points="89.5442 192.799 91.5122 193.412 91.2522 195.236 89.2352 195.382 88.2972 194.298 89.5042 193.628 90.5032 193.918 89.8682 194.624"></polyline>
            <g id="Group-285" transform="translate(49.000000, 116.730000)" stroke="#F3E3FF" stroke-width="0.25">
                <path d="M82.7141,16.0368 C82.7141,16.3328 82.4741,16.5728 82.1781,16.5728 C81.8821,16.5728 81.6431,16.3328 81.6431,16.0368" id="Stroke-223"></path>
                <path d="M83.7854,16.0368 C83.7854,16.3328 83.5464,16.5728 83.2504,16.5728 C82.9544,16.5728 82.7144,16.3328 82.7144,16.0368" id="Stroke-225"></path>
                <path d="M83.2502,16.5729 C83.2502,16.8689 83.0102,17.1089 82.7142,17.1089 C82.4182,17.1089 82.1782,16.8689 82.1782,16.5729" id="Stroke-227"></path>
                <path d="M62.1839,15.5348 C61.8139,15.7648 61.3269,15.6508 61.0959,15.2808 C60.8669,14.9108 60.9799,14.4238 61.3509,14.1938" id="Stroke-229"></path>
                <path d="M61.9299,16.6227 C61.5599,16.8517 61.0729,16.7387 60.8419,16.3687 C60.6129,15.9977 60.7259,15.5117 61.0959,15.2807" id="Stroke-231"></path>
                <path d="M36.7561,33.5348 C36.7561,33.9318 36.4351,34.2538 36.0371,34.2538 C35.6411,34.2538 35.3191,33.9318 35.3191,33.5348" id="Stroke-233"></path>
                <path d="M38.1936,33.5348 C38.1936,33.9318 37.8726,34.2538 37.4746,34.2538 C37.0786,34.2538 36.7566,33.9318 36.7566,33.5348" id="Stroke-235"></path>
                <path d="M37.4749,34.2536 C37.4749,34.6506 37.1539,34.9726 36.7559,34.9726 C36.3599,34.9726 36.0379,34.6506 36.0379,34.2536" id="Stroke-237"></path>
                <path d="M58.221,79.0661 C58.221,79.4631 57.899,79.7851 57.502,79.7851 C57.105,79.7851 56.784,79.4631 56.784,79.0661" id="Stroke-239"></path>
                <path d="M59.6585,79.0661 C59.6585,79.4631 59.3365,79.7851 58.9395,79.7851 C58.5425,79.7851 58.2215,79.4631 58.2215,79.0661" id="Stroke-241"></path>
                <path d="M58.9397,79.7849 C58.9397,80.1819 58.6177,80.5039 58.2207,80.5039 C57.8237,80.5039 57.5027,80.1819 57.5027,79.7849" id="Stroke-243"></path>
                <path d="M37.8704,10.6305 C37.8704,11.0675 37.5164,11.4205 37.0804,11.4205 C36.6434,11.4205 36.2904,11.0675 36.2904,10.6305" id="Stroke-245"></path>
                <path d="M38.6594,11.4206 C38.6594,11.8566 38.3054,12.2096 37.8704,12.2096 C37.4334,12.2096 37.0804,11.8566 37.0804,11.4206" id="Stroke-247"></path>
                <path d="M47.9641,24.5768 C47.9641,25.1068 47.5341,25.5368 47.0041,25.5368 C46.4741,25.5368 46.0451,25.1068 46.0451,24.5768" id="Stroke-249"></path>
                <path d="M48.9231,25.5368 C48.9231,26.0668 48.4931,26.4958 47.9641,26.4958 C47.4341,26.4958 47.0041,26.0668 47.0041,25.5368" id="Stroke-251"></path>
                <path d="M61.9016,0.7204 C61.9016,1.0744 61.6146,1.3624 61.2596,1.3624 C60.9056,1.3624 60.6176,1.0744 60.6176,0.7204" id="Stroke-253"></path>
                <path d="M62.5432,1.362 C62.5432,1.716 62.2562,2.004 61.9012,2.004 C61.5472,2.004 61.2602,1.716 61.2602,1.362" id="Stroke-255"></path>
                <path d="M1.4973,65.4255 C1.2333,65.7365 0.7673,65.7755 0.4563,65.5115 C0.1443,65.2475 0.1053,64.7805 0.3693,64.4695" id="Stroke-257"></path>
                <path d="M1.5833,66.4665 C1.3193,66.7785 0.8543,66.8165 0.5423,66.5525 C0.2303,66.2885 0.1913,65.8225 0.4563,65.5115" id="Stroke-259"></path>
                <path d="M30.8665,55.2233 C30.6675,55.6593 30.1535,55.8513 29.7185,55.6533 C29.2825,55.4533 29.0905,54.9403 29.2885,54.5043" id="Stroke-261"></path>
                <path d="M32.4436,55.9431 C32.2446,56.3791 31.7306,56.5711 31.2956,56.3721 C30.8596,56.1731 30.6676,55.6591 30.8666,55.2231" id="Stroke-263"></path>
                <path d="M31.2952,56.3718 C31.0962,56.8078 30.5822,56.9998 30.1472,56.8018 C29.7112,56.6018 29.5192,56.0888 29.7182,55.6528" id="Stroke-265"></path>
                <path d="M32.8723,57.0915 C32.6743,57.5275 32.1593,57.7195 31.7243,57.5205 C31.2883,57.3215 31.0963,56.8075 31.2953,56.3715" id="Stroke-267"></path>
                <path d="M30.1467,56.8015 C29.9487,57.2375 29.4337,57.4285 28.9987,57.2305 C28.5627,57.0305 28.3707,56.5175 28.5697,56.0815" id="Stroke-269"></path>
                <path d="M45.9602,7.2077 C45.9602,7.6907 45.5682,8.0827 45.0852,8.0827 C44.6022,8.0827 44.2102,7.6907 44.2102,7.2077" id="Stroke-271"></path>
                <path d="M46.263,40.2604 C46.263,40.7424 45.871,41.1344 45.388,41.1344 C44.906,41.1344 44.514,40.7424 44.514,40.2604" id="Stroke-273"></path>
                <path d="M36.3508,22.0407 C36.3508,22.4057 36.0538,22.7027 35.6878,22.7027 C35.3218,22.7027 35.0248,22.4057 35.0248,22.0407" id="Stroke-275"></path>
                <path d="M20.5715,6.9831 C20.5715,7.2571 20.3485,7.4801 20.0745,7.4801 C19.8005,7.4801 19.5775,7.2571 19.5775,6.9831" id="Stroke-277"></path>
                <path d="M16.4348,80.0847 C16.3518,80.5607 15.8998,80.8797 15.4228,80.7967 C14.9478,80.7137 14.6288,80.2617 14.7108,79.7847" id="Stroke-279"></path>
                <path d="M40.596,86.527 C40.596,87.056 40.166,87.486 39.637,87.486 C39.107,87.486 38.677,87.056 38.677,86.527" id="Stroke-281"></path>
                <path d="M41.5559,87.486 C41.5559,88.016 41.1259,88.446 40.5959,88.446 C40.0669,88.446 39.6369,88.016 39.6369,87.486" id="Stroke-283"></path>
            </g>
            <path d="M95.7366,207.34 C95.2286,207.272 94.4986,208.375 94.5816,208.711 C94.6656,209.047 94.7226,210.157 95.5446,210.278 C96.1496,210.367 98.3096,210.592 98.7806,210.123 C99.2156,209.691 98.3646,207.692 95.7366,207.34" id="Fill-286" fill="#FFFFFF"></path>
            <path d="M95.7366,207.34 C95.2286,207.272 94.4986,208.375 94.5816,208.711 C94.6656,209.047 94.7226,210.157 95.5446,210.278 C96.1496,210.367 98.3096,210.592 98.7806,210.123 C99.2156,209.691 98.3646,207.692 95.7366,207.34 Z" id="Stroke-288" stroke="#52267D" stroke-width="0.5"></path>
            <path d="M95.595,207.6457 C95.295,207.6057 94.864,208.2557 94.912,208.4547 C94.962,208.6537 94.996,209.3087 95.481,209.3797 C95.838,209.4317 97.113,209.5647 97.391,209.2887 C97.647,209.0327 97.145,207.8537 95.595,207.6457" id="Fill-290" fill="#E1F2FF"></path>
            <path d="M93.9329,207.883 C93.9329,207.883 94.3209,207.68 95.0889,208.119 C95.7679,208.508 96.7809,209.128 96.5139,209.9 C96.2469,210.671 94.1029,210.384 93.6259,210.221 C93.1499,210.058 92.8509,209.539 92.9349,209.084 C93.1189,208.094 93.9329,207.883 93.9329,207.883" id="Fill-292" fill="#FFFFFF"></path>
            <path d="M93.9329,207.883 C93.9329,207.883 94.3209,207.68 95.0889,208.119 C95.7679,208.508 96.7809,209.128 96.5139,209.9 C96.2469,210.671 94.1029,210.384 93.6259,210.221 C93.1499,210.058 92.8509,209.539 92.9349,209.084 C93.1189,208.094 93.9329,207.883 93.9329,207.883 Z" id="Stroke-294" stroke="#52267D" stroke-width="0.5"></path>
            <path d="M93.7874,208.1555 C93.7874,208.1555 94.0164,208.0365 94.4724,208.2965 C94.8734,208.5255 95.4734,208.8935 95.3154,209.3495 C95.1574,209.8065 93.8884,209.6365 93.6054,209.5405 C93.3234,209.4435 93.1464,209.1365 93.1964,208.8675 C93.3054,208.2805 93.7874,208.1555 93.7874,208.1555" id="Fill-296" fill="#E1F2FF"></path>
            <path d="M114.2112,208.0969 C114.2112,208.0969 114.5992,207.8939 115.3672,208.3329 C116.0462,208.7219 117.0592,209.3419 116.7922,210.1139 C116.5252,210.8849 114.3822,210.5979 113.9042,210.4349 C113.4282,210.2719 113.1292,209.7529 113.2132,209.2979 C113.3972,208.3079 114.2112,208.0969 114.2112,208.0969" id="Fill-298" fill="#FFFFFF"></path>
            <path d="M114.2112,208.0969 C114.2112,208.0969 114.5992,207.8939 115.3672,208.3329 C116.0462,208.7219 117.0592,209.3419 116.7922,210.1139 C116.5252,210.8849 114.3822,210.5979 113.9042,210.4349 C113.4282,210.2719 113.1292,209.7529 113.2132,209.2979 C113.3972,208.3079 114.2112,208.0969 114.2112,208.0969 Z" id="Stroke-300" stroke="#52267D" stroke-width="0.5"></path>
            <path d="M114.0657,208.3693 C114.0657,208.3693 114.2947,208.2503 114.7507,208.5103 C115.1517,208.7403 115.7517,209.1073 115.5937,209.5633 C115.4357,210.0203 114.1667,209.8503 113.8837,209.7543 C113.6017,209.6573 113.4247,209.3503 113.4747,209.0813 C113.5837,208.4943 114.0657,208.3693 114.0657,208.3693" id="Fill-302" fill="#E1F2FF"></path>
            <path d="M111.8655,207.5539 C111.3575,207.4859 110.6275,208.5889 110.7105,208.9249 C110.7945,209.2609 110.8515,210.3709 111.6735,210.4919 C112.2785,210.5809 114.4385,210.8059 114.9095,210.3369 C115.3445,209.9049 114.4935,207.9059 111.8655,207.5539" id="Fill-304" fill="#FFFFFF"></path>
            <path d="M111.8655,207.5539 C111.3575,207.4859 110.6275,208.5889 110.7105,208.9249 C110.7945,209.2609 110.8515,210.3709 111.6735,210.4919 C112.2785,210.5809 114.4385,210.8059 114.9095,210.3369 C115.3445,209.9049 114.4935,207.9059 111.8655,207.5539 Z" id="Stroke-306" stroke="#52267D" stroke-width="0.5"></path>
            <path d="M111.7239,207.8596 C111.4239,207.8196 110.9929,208.4696 111.0409,208.6686 C111.0909,208.8676 111.1249,209.5226 111.6099,209.5936 C111.9669,209.6456 113.2419,209.7786 113.5199,209.5026 C113.7759,209.2466 113.2739,208.0676 111.7239,207.8596" id="Fill-308" fill="#E1F2FF"></path>
            <path d="M70.3714,207.3576 C70.3714,207.3576 71.3324,206.5746 72.6104,207.6236 C73.7774,208.5826 74.6554,210.0636 74.1324,210.2126 C73.6084,210.3616 72.6874,210.5056 71.7214,210.3296 C70.8794,210.1746 70.1364,210.3366 69.7984,208.5766 C69.6414,207.7556 70.3714,207.3576 70.3714,207.3576" id="Fill-310" fill="#FFFFFF"></path>
            <path d="M70.3714,207.3576 C70.3714,207.3576 71.3324,206.5746 72.6104,207.6236 C73.7774,208.5826 74.6554,210.0636 74.1324,210.2126 C73.6084,210.3616 72.6874,210.5056 71.7214,210.3296 C70.8794,210.1746 70.1364,210.3366 69.7984,208.5766 C69.6414,207.7556 70.3714,207.3576 70.3714,207.3576 Z" id="Stroke-312" stroke="#52267D" stroke-width="0.5"></path>
            <path d="M70.5901,207.6428 C70.5901,207.6428 71.1891,207.1558 71.9841,207.8088 C72.7101,208.4058 73.2561,209.3278 72.9311,209.4198 C72.6051,209.5118 72.0321,209.6028 71.4301,209.4928 C70.9061,209.3958 70.4441,209.4968 70.2341,208.4018 C70.1361,207.8908 70.5901,207.6428 70.5901,207.6428" id="Fill-314" fill="#E1F2FF"></path>
            <path d="M69.0071,207.34 C68.4991,207.272 67.7681,208.375 67.8521,208.711 C67.9351,209.047 67.9931,210.157 68.8151,210.278 C69.4201,210.367 71.5791,210.592 72.0511,210.123 C72.4861,209.691 71.6351,207.692 69.0071,207.34" id="Fill-316" fill="#FFFFFF"></path>
            <path d="M69.0071,207.34 C68.4991,207.272 67.7681,208.375 67.8521,208.711 C67.9351,209.047 67.9931,210.157 68.8151,210.278 C69.4201,210.367 71.5791,210.592 72.0511,210.123 C72.4861,209.691 71.6351,207.692 69.0071,207.34 Z" id="Stroke-318" stroke="#52267D" stroke-width="0.5"></path>
            <path d="M68.8645,207.6457 C68.5645,207.6057 68.1345,208.2557 68.1825,208.4547 C68.2325,208.6537 68.2665,209.3087 68.7515,209.3797 C69.1085,209.4317 70.3835,209.5647 70.6615,209.2887 C70.9175,209.0327 70.4155,207.8537 68.8645,207.6457" id="Fill-320" fill="#E1F2FF"></path>
            <path d="M67.2034,207.883 C67.2034,207.883 67.5914,207.68 68.3584,208.119 C69.0374,208.508 70.0514,209.128 69.7844,209.9 C69.5174,210.671 67.3734,210.384 66.8964,210.221 C66.4204,210.058 66.1214,209.539 66.2054,209.084 C66.3894,208.094 67.2034,207.883 67.2034,207.883" id="Fill-322" fill="#FFFFFF"></path>
            <path d="M67.2034,207.883 C67.2034,207.883 67.5914,207.68 68.3584,208.119 C69.0374,208.508 70.0514,209.128 69.7844,209.9 C69.5174,210.671 67.3734,210.384 66.8964,210.221 C66.4204,210.058 66.1214,209.539 66.2054,209.084 C66.3894,208.094 67.2034,207.883 67.2034,207.883 Z" id="Stroke-324" stroke="#52267D" stroke-width="0.5"></path>
            <path d="M67.0569,208.1555 C67.0569,208.1555 67.2869,208.0365 67.7419,208.2965 C68.1439,208.5255 68.7439,208.8935 68.5849,209.3495 C68.4279,209.8065 67.1589,209.6365 66.8759,209.5405 C66.5939,209.4435 66.4159,209.1365 66.4659,208.8675 C66.5759,208.2805 67.0569,208.1555 67.0569,208.1555" id="Fill-326" fill="#E1F2FF"></path>
            <path d="M105.1965,208.0285 C105.0375,207.8945 104.8475,207.8575 104.6915,207.9305 C104.1075,208.2065 102.6335,208.9885 102.9385,210.0475 C103.1755,210.8725 103.6795,210.6245 104.6425,210.6415 L105.3685,210.6555 C105.5185,210.6585 105.6525,210.5805 105.7355,210.4425 C106.1535,209.7445 105.9265,208.6455 105.2465,208.0715 L105.1965,208.0285 Z" id="Fill-328" fill="#FFFFFF"></path>
            <path d="M105.1965,208.0285 C105.0375,207.8945 104.8475,207.8575 104.6915,207.9305 C104.1075,208.2065 102.6335,208.9885 102.9385,210.0475 C103.1755,210.8725 103.6795,210.6245 104.6425,210.6415 L105.3685,210.6555 C105.5185,210.6585 105.6525,210.5805 105.7355,210.4425 C106.1535,209.7445 105.9265,208.6455 105.2465,208.0715 L105.1965,208.0285 Z" id="Stroke-330" stroke="#52267D" stroke-width="0.5"></path>
            <path d="M105.1214,208.2658 C105.0064,208.1678 104.8684,208.1408 104.7544,208.1948 C104.3304,208.3948 103.2604,208.9628 103.4804,209.7328 C103.6534,210.3318 104.0194,210.1518 104.7194,210.1638 L105.2464,210.1738 C105.3554,210.1758 105.4524,210.1198 105.5134,210.0198 C105.8164,209.5118 105.6524,208.7138 105.1574,208.2968 L105.1214,208.2658 Z" id="Fill-332" fill="#E1F2FF"></path>
            <path d="M108.6057,207.7121 C108.6057,207.7121 109.4977,206.8511 110.8597,207.7871 C112.1037,208.6441 113.1047,210.0451 112.5957,210.2381 C112.0867,210.4311 111.1817,210.6531 110.2037,210.5591 C109.3517,210.4771 108.6247,210.7011 108.1387,208.9761 C107.9127,208.1721 108.6057,207.7121 108.6057,207.7121" id="Fill-334" fill="#FFFFFF"></path>
            <path d="M108.6057,207.7121 C108.6057,207.7121 109.4977,206.8511 110.8597,207.7871 C112.1037,208.6441 113.1047,210.0451 112.5957,210.2381 C112.0867,210.4311 111.1817,210.6531 110.2037,210.5591 C109.3517,210.4771 108.6247,210.7011 108.1387,208.9761 C107.9127,208.1721 108.6057,207.7121 108.6057,207.7121 Z" id="Stroke-336" stroke="#52267D" stroke-width="0.5"></path>
            <path d="M108.8489,207.9787 C108.8489,207.9787 109.4039,207.4417 110.2509,208.0257 C111.0249,208.5577 111.6479,209.4297 111.3309,209.5497 C111.0149,209.6697 110.4519,209.8087 109.8419,209.7497 C109.3129,209.6987 108.8599,209.8377 108.5579,208.7647 C108.4169,208.2637 108.8489,207.9787 108.8489,207.9787" id="Fill-338" fill="#E1F2FF"></path>
            <path d="M185.8284,210.6545 L61.6944,210.6545 C60.4494,210.6545 59.4394,209.6445 59.4394,208.3995 L59.4394,26.3775 C59.4394,25.1315 60.4494,24.1225 61.6944,24.1225 L185.8284,24.1225 C187.0734,24.1225 188.0834,25.1315 188.0834,26.3775 L188.0834,208.3995 C188.0834,209.6445 187.0734,210.6545 185.8284,210.6545" id="Fill-340" fill="#FFFFFF"></path>
            <path d="M185.8284,210.6545 L61.6944,210.6545 C60.4494,210.6545 59.4394,209.6445 59.4394,208.3995 L59.4394,26.3775 C59.4394,25.1315 60.4494,24.1225 61.6944,24.1225 L185.8284,24.1225 C187.0734,24.1225 188.0834,25.1315 188.0834,26.3775 L188.0834,208.3995 C188.0834,209.6445 187.0734,210.6545 185.8284,210.6545 Z" id="Stroke-342" stroke="#5E63B6" stroke-width="2"></path>
            <path d="M144.8508,82.9309 C144.8508,96.5899 133.7778,107.6629 120.1188,107.6629 C106.4588,107.6629 95.3858,96.5899 95.3858,82.9309 C95.3858,69.2719 106.4588,58.1989 120.1188,58.1989 C133.7778,58.1989 144.8508,69.2719 144.8508,82.9309" id="Fill-344" fill="#E1F2FF"></path>
            <path d="M147.8508,77.9309 C147.8508,91.5899 136.7778,102.6629 123.1188,102.6629 C109.4588,102.6629 98.3858,91.5899 98.3858,77.9309 C98.3858,64.2719 109.4588,53.1989 123.1188,53.1989 C136.7778,53.1989 147.8508,64.2719 147.8508,77.9309" id="Fill-346" fill="#FFFFFF"></path>
            <path d="M147.8508,77.9309 C147.8508,91.5899 136.7778,102.6629 123.1188,102.6629 C109.4588,102.6629 98.3858,91.5899 98.3858,77.9309 C98.3858,64.2719 109.4588,53.1989 123.1188,53.1989 C136.7778,53.1989 147.8508,64.2719 147.8508,77.9309 Z" id="Stroke-348" stroke="#5E63B6" stroke-width="2"></path>
            <path d="M129.2659,90.1291 C129.3699,90.4371 129.4619,90.6481 129.4889,90.7171 C129.4969,90.7241 129.4809,90.7131 129.4889,90.7171 C129.4889,90.7171 129.4889,90.7191 129.4889,90.7171 C129.4899,90.7181 129.4879,90.7171 129.4879,90.7171 C128.7889,83.9771 132.6119,81.1681 133.8399,76.6911 C133.8469,76.6241 133.8599,76.5521 133.8789,76.4701 C133.9049,76.3701 133.9259,76.2671 133.9409,76.1631 C134.1239,74.9251 133.6159,73.4831 132.6549,71.9821 C132.6509,71.9731 132.6439,71.9651 132.6399,71.9571 C132.5609,71.8321 132.4759,71.7071 132.3909,71.5821 C132.3909,71.5821 132.3879,71.5801 132.3879,71.5781 C132.2299,71.3501 132.0609,71.1191 131.8839,70.8891 C131.8669,70.8651 131.8499,70.8401 131.8299,70.8171 C131.7809,70.7541 131.7289,70.6921 131.6809,70.6291 C131.6289,70.5631 131.5789,70.4981 131.5279,70.4351 C131.4739,70.3711 131.4219,70.3091 131.3699,70.2461 C131.3159,70.1811 131.2609,70.1161 131.2059,70.0511 C131.1679,70.0071 131.1269,69.9611 131.0869,69.9151 C129.5779,68.1751 127.6109,66.4561 125.5599,64.9611 C125.5599,64.9611 125.5439,64.9381 125.5599,64.9611 C125.8309,67.4971 125.8659,70.0341 125.6249,72.0631 C125.3349,74.5081 124.4599,77.3541 123.2459,79.9351 C120.4049,79.7021 117.4989,79.0431 115.2349,78.0761 C113.3409,77.2681 111.1709,75.9911 109.0969,74.4781 C109.1199,74.6891 109.1449,74.8971 109.1689,75.1071 C109.1769,75.1691 109.1869,75.2321 109.1949,75.2951 C109.2139,75.4441 109.2319,75.5941 109.2549,75.7441 C109.2639,75.8131 109.2739,75.8821 109.2859,75.9501 C109.3069,76.1021 109.3289,76.2511 109.3539,76.4001 C109.3639,76.4601 109.3729,76.5221 109.3829,76.5821 C109.4139,76.7721 109.4469,76.9591 109.4809,77.1471 C109.4829,77.1661 109.4859,77.1851 109.4899,77.2021 C109.5289,77.4211 109.5709,77.6371 109.6139,77.8531 C109.6159,77.8691 109.6209,77.8851 109.6229,77.9021 C109.6629,78.0971 109.7029,78.2871 109.7449,78.4791 C109.7529,78.5191 109.7619,78.5571 109.7699,78.5961 C109.8089,78.7711 109.8489,78.9441 109.8899,79.1191 C109.8999,79.1521 109.9089,79.1861 109.9149,79.2211 C109.9649,79.4211 110.0139,79.6201 110.0659,79.8171 C110.0669,79.8181 110.0669,79.8201 110.0669,79.8201 C110.2349,80.4531 110.4189,81.0641 110.6189,81.6501 C110.6209,81.6571 110.6229,81.6641 110.6249,81.6711 C110.9619,82.6501 111.3459,83.5521 111.7749,84.3411 C111.8379,84.4551 111.9029,84.5681 111.9669,84.6781 C111.9699,84.6821 111.9699,84.6871 111.9729,84.6911 L111.9749,84.6921 C112.0329,84.7911 112.0929,84.8901 112.1519,84.9841 L112.1539,84.9861 C112.1539,84.9861 112.1589,84.9931 112.1619,84.9961 C112.2249,85.1001 112.2909,85.2001 112.3589,85.2961 L112.3589,85.2971 C112.3679,85.3111 112.3759,85.3221 112.3869,85.3351 C112.3879,85.3361 112.3859,85.3381 112.3869,85.3391 C112.4739,85.4641 112.5639,85.5851 112.6509,85.7001 C112.6679,85.7191 112.6829,85.7381 112.6969,85.7561 C112.7019,85.7631 112.7069,85.7691 112.7119,85.7771 C112.8149,85.9061 112.9189,86.0321 113.0289,86.1491 C113.1029,86.2321 113.1789,86.3101 113.2559,86.3861 C113.2879,86.4181 113.3229,86.4481 113.3549,86.4791 C113.4039,86.5251 113.4519,86.5671 113.4999,86.6111 C113.5369,86.6431 113.5739,86.6711 113.6129,86.7021 C113.6579,86.7401 113.7059,86.7771 113.7529,86.8151 C113.7899,86.8431 113.8279,86.8681 113.8669,86.8961 C113.9159,86.9311 113.9639,86.9631 114.0129,86.9961 C114.0499,87.0201 114.0889,87.0441 114.1269,87.0661 C114.1799,87.0981 114.2329,87.1261 114.2849,87.1551 C114.3209,87.1761 114.3579,87.1941 114.3929,87.2121 C114.4539,87.2401 114.5129,87.2661 114.5749,87.2931 C114.6029,87.3031 114.6349,87.3191 114.6649,87.3301 C114.7579,87.3681 114.8519,87.3991 114.9449,87.4251 C115.0079,87.4431 115.0609,87.4631 115.1129,87.4831 C119.6129,88.6721 123.9939,86.7881 129.4889,90.7171" id="Fill-350" fill="#9452BA"></path>
            <g id="Group-355" transform="translate(92.000000, 130.730000)">
                <path d="M0.3762,0.5651 L64.1442,0.5651" id="Fill-352" fill="#FFFFFF"></path>
                <path d="M0.3762,0.5651 L64.1442,0.5651" id="Stroke-354" stroke="#5E63B6" stroke-width="2" stroke-linecap="round" stroke-linejoin="round"></path>
            </g>
            <g id="Group-359" transform="translate(92.000000, 151.730000)">
                <path d="M0.3762,0.1237 L64.1442,0.1237" id="Fill-356" fill="#FFFFFF"></path>
                <path d="M0.3762,0.1237 L64.1442,0.1237" id="Stroke-358" stroke="#5E63B6" stroke-width="2" stroke-linecap="round" stroke-linejoin="round"></path>
            </g>
            <g id="Group-363" transform="translate(92.000000, 172.730000)">
                <path d="M0.3762,0.3757 L64.1442,0.3757" id="Fill-360" fill="#FFFFFF"></path>
                <path d="M0.3762,0.3757 L64.1442,0.3757" id="Stroke-362" stroke="#5E63B6" stroke-width="2" stroke-linecap="round" stroke-linejoin="round"></path>
            </g>
            <path d="M203.9778,57.6633 L203.9778,64.6633" id="Stroke-364" stroke="#5E63B6" stroke-width="2" stroke-linecap="round" stroke-linejoin="round"></path>
            <path d="M207.4778,61.1633 L200.4778,61.1633" id="Stroke-366" stroke="#5E63B6" stroke-width="2" stroke-linecap="round" stroke-linejoin="round"></path>
            <path d="M39.7278,177.9445 L39.7278,181.8825" id="Stroke-368" stroke="#5E63B6" stroke-linecap="round"></path>
            <path d="M41.6965,179.9133 L37.7585,179.9133" id="Stroke-370" stroke="#5E63B6" stroke-linecap="round"></path>
            <path d="M214.7278,117.9445 L214.7278,121.8825" id="Stroke-372" stroke="#5E63B6" stroke-linecap="round" stroke-linejoin="round"></path>
            <path d="M216.6965,119.9133 L212.7585,119.9133" id="Stroke-374" stroke="#5E63B6" stroke-linecap="round" stroke-linejoin="round"></path>
            <path d="M45.7278,77.9445 L45.7278,81.8825" id="Stroke-376" stroke="#5E63B6" stroke-linecap="round"></path>
            <path d="M47.6965,79.9133 L43.7585,79.9133" id="Stroke-378" stroke="#5E63B6" stroke-linecap="round"></path>
            <g id="Group-383" transform="translate(23.000000, 115.730000)">
                <path d="M0.4153,0.8083 L0.4153,8.9333" id="Fill-380" fill="#FFFFFF"></path>
                <path d="M0.4153,0.8083 L0.4153,8.9333" id="Stroke-382" stroke="#5E63B6" stroke-width="2" stroke-linecap="round"></path>
            </g>
            <g id="Group-387" transform="translate(19.000000, 119.730000)">
                <path d="M8.4778,0.8708 L0.3528,0.8708" id="Fill-384" fill="#FFFFFF"></path>
                <path d="M8.4778,0.8708 L0.3528,0.8708" id="Stroke-386" stroke="#5E63B6" stroke-width="2" stroke-linecap="round"></path>
            </g>
            <g id="Group-391" transform="translate(243.000000, 209.730000)">
                <path d="M0.1663,0.6833 L7.1403,0.6833" id="Fill-388" fill="#FFFFFF"></path>
                <path d="M0.1663,0.6833 L7.1403,0.6833" id="Stroke-390" stroke="#5E63B6" stroke-width="2" stroke-linecap="round" stroke-linejoin="round"></path>
            </g>
            <g id="Group-395" transform="translate(0.000000, 209.730000)">
                <path d="M0.0003,0.6833 L8.9733,0.6833" id="Fill-392" fill="#FFFFFF"></path>
                <path d="M0.0003,0.6833 L8.9733,0.6833" id="Stroke-394" stroke="#5E63B6" stroke-width="2" stroke-linecap="round" stroke-linejoin="round"></path>
            </g>
            <g id="Group-399" transform="translate(92.000000, 219.730000)">
                <path d="M0.3821,-0.0003 L67.5691,-0.0003" id="Fill-396" fill="#FFFFFF"></path>
                <path d="M0.3821,-0.0003 L67.5691,-0.0003" id="Stroke-398" stroke="#5E63B6" stroke-width="2" stroke-linecap="round" stroke-linejoin="round"></path>
            </g>
            <g id="Group-403" transform="translate(168.000000, 219.730000)">
                <path d="M0.1868,-0.0003 L9.3288,-0.0003" id="Fill-400" fill="#FFFFFF"></path>
                <path d="M0.1868,-0.0003 L9.3288,-0.0003" id="Stroke-402" stroke="#5E63B6" stroke-width="2" stroke-linecap="round" stroke-linejoin="round"></path>
            </g>
            <g id="Group-407" transform="translate(79.000000, 218.730000)">
                <path d="M5.5003,0.9245 L0.5003,0.9995" id="Fill-404" fill="#FFFFFF"></path>
                <path d="M5.5003,0.9245 L0.5003,0.9995" id="Stroke-406" stroke="#5E63B6" stroke-width="2" stroke-linecap="round" stroke-linejoin="round"></path>
            </g>
            <path d="M212.5569,190.3166 L153.8349,176.3396 C152.6229,176.0516 151.8749,174.8366 152.1629,173.6246 L172.8989,86.5036 C173.1869,85.2926 174.4029,84.5436 175.6149,84.8326 L234.3359,98.8076 C235.5479,99.0956 236.2959,100.3116 236.0079,101.5236 L215.2729,188.6446 C214.9849,189.8566 213.7689,190.6046 212.5569,190.3166" id="Fill-408" fill="#FFFFFF"></path>
            <path d="M212.5569,190.3166 L153.8349,176.3396 C152.6229,176.0516 151.8749,174.8366 152.1629,173.6246 L172.8989,86.5036 C173.1869,85.2926 174.4029,84.5436 175.6149,84.8326 L234.3359,98.8076 C235.5479,99.0956 236.2959,100.3116 236.0079,101.5236 L215.2729,188.6446 C214.9849,189.8566 213.7689,190.6046 212.5569,190.3166 Z" id="Stroke-410" stroke="#ACD3EF" stroke-width="2"></path>
            <polygon id="Fill-412" fill="#E1F2FF" points="212.9006 179.2863 157.5946 170.1243 175.9876 92.8473 231.6246 103.4213"></polygon>
            <path d="M200.6838,133.0363 L187.8518,130.0373 C183.2958,128.9733 180.4648,124.4163 181.5298,119.8593 L182.2648,116.7133 C183.3298,112.1563 187.8868,109.3253 192.4428,110.3903 L205.2748,113.3893 C209.8308,114.4533 212.6628,119.0103 211.5968,123.5663 L210.8618,126.7143 C209.7968,131.2693 205.2408,134.1003 200.6838,133.0363" id="Fill-414" fill="#FFFFFF"></path>
            <path d="M203.2297,131.05 L190.3977,128.052 C185.8417,126.988 183.0107,122.43 184.0757,117.874 L184.8107,114.727 C185.8757,110.17 190.4327,107.34 194.9897,108.404 L207.8217,111.403 C212.3767,112.468 215.2087,117.025 214.1437,121.581 L213.4087,124.728 C212.3427,129.284 207.7867,132.114 203.2297,131.05" id="Fill-416" fill="#FFFFFF"></path>
            <path d="M203.2297,131.05 L190.3977,128.052 C185.8417,126.988 183.0107,122.43 184.0757,117.874 L184.8107,114.727 C185.8757,110.17 190.4327,107.34 194.9897,108.404 L207.8217,111.403 C212.3767,112.468 215.2087,117.025 214.1437,121.581 L213.4087,124.728 C212.3427,129.284 207.7867,132.114 203.2297,131.05 Z" id="Stroke-418" stroke="#ACD3EF" stroke-width="2"></path>
            <path d="M193.2766,118.6359 C193.4946,118.6879 193.6906,118.7059 193.8656,118.6899 C194.0406,118.6739 194.1936,118.6279 194.3256,118.5519 C194.4576,118.4759 194.5666,118.3709 194.6546,118.2389 C194.7426,118.1049 194.8076,117.9489 194.8506,117.7699 C194.8906,117.5989 194.9006,117.4379 194.8806,117.2869 C194.8606,117.1359 194.8096,116.9989 194.7266,116.8769 C194.6436,116.7549 194.5276,116.6489 194.3786,116.5589 C194.2276,116.4679 194.0436,116.3979 193.8226,116.3449 L192.9346,116.1329 L192.3896,118.4249 L193.2766,118.6359 Z M194.0416,115.4259 C194.4676,115.5279 194.8256,115.6649 195.1136,115.8399 C195.4016,116.0149 195.6256,116.2149 195.7866,116.4439 C195.9466,116.6709 196.0466,116.9219 196.0856,117.1959 C196.1246,117.4689 196.1086,117.7549 196.0386,118.0519 C195.9646,118.3609 195.8446,118.6319 195.6806,118.8649 C195.5166,119.0979 195.3086,119.2819 195.0586,119.4189 C194.8086,119.5559 194.5156,119.6389 194.1816,119.6669 C193.8456,119.6979 193.4716,119.6619 193.0556,119.5629 L192.1696,119.3519 L191.6336,121.5989 L190.4466,121.3169 L191.9656,114.9329 L194.0416,115.4259 Z" id="Fill-420" fill="#ACD3EF"></path>
            <path d="M201.1223,120.4846 C201.2063,120.1336 201.2343,119.8086 201.2073,119.5086 C201.1813,119.2096 201.1023,118.9416 200.9743,118.7076 C200.8453,118.4716 200.6683,118.2746 200.4433,118.1116 C200.2203,117.9496 199.9513,117.8316 199.6403,117.7566 L198.3983,117.4626 L197.3293,121.9566 L198.5693,122.2526 C198.8823,122.3266 199.1743,122.3406 199.4473,122.2966 C199.7213,122.2536 199.9683,122.1556 200.1893,122.0056 C200.4103,121.8536 200.6003,121.6506 200.7593,121.3936 C200.9183,121.1376 201.0393,120.8356 201.1223,120.4846 M202.3413,120.7746 C202.2293,121.2426 202.0493,121.6536 201.8003,122.0076 C201.5513,122.3626 201.2513,122.6476 200.9013,122.8626 C200.5523,123.0786 200.1593,123.2156 199.7253,123.2776 C199.2903,123.3386 198.8303,123.3116 198.3453,123.1966 L195.9123,122.6176 L197.4323,116.2336 L199.8643,116.8126 C200.3503,116.9276 200.7723,117.1116 201.1333,117.3636 C201.4923,117.6156 201.7803,117.9166 201.9953,118.2636 C202.2113,118.6126 202.3513,119.0016 202.4143,119.4296 C202.4763,119.8586 202.4523,120.3066 202.3413,120.7746" id="Fill-422" fill="#ACD3EF"></path>
            <polygon id="Fill-424" fill="#ACD3EF" points="205.1145 119.0598 204.6655 120.9498 207.0575 121.5188 206.8325 122.4688 204.4385 121.8988 203.8195 124.4988 202.6285 124.2158 204.1475 117.8308 208.1745 118.7898 207.9495 119.7348"></polygon>
            <g id="Group-429" transform="translate(177.000000, 140.730000)">
                <path d="M0.5549,0.1188 L31.8379,7.5638" id="Fill-426" fill="#FFFFFF"></path>
                <path d="M0.5549,0.1188 L31.8379,7.5638" id="Stroke-428" stroke="#ACD3EF" stroke-width="2" stroke-linecap="round" stroke-linejoin="round"></path>
            </g>
            <g id="Group-433" transform="translate(175.000000, 150.730000)">
                <path d="M0.1545,0.2048 L31.4375,7.6498" id="Fill-430" fill="#FFFFFF"></path>
                <path d="M0.1545,0.2048 L31.4375,7.6498" id="Stroke-432" stroke="#ACD3EF" stroke-width="2" stroke-linecap="round" stroke-linejoin="round"></path>
            </g>
            <g id="Group-437" transform="translate(172.000000, 160.730000)">
                <path d="M0.6741,0.6296 L31.9561,8.0746" id="Fill-434" fill="#FFFFFF"></path>
                <path d="M0.6741,0.6296 L31.9561,8.0746" id="Stroke-436" stroke="#ACD3EF" stroke-width="2" stroke-linecap="round" stroke-linejoin="round"></path>
            </g>
            <path d="M230.4944,208.6193 L178.7174,198.2233 C177.4954,197.9783 176.7044,196.7903 176.9494,195.5693 L185.1534,154.7053 C185.3984,153.4833 186.5874,152.6923 187.8084,152.9373 L239.5864,163.3333 C240.8074,163.5783 241.5984,164.7663 241.3524,165.9873 L233.1494,206.8513 C232.9044,208.0733 231.7154,208.8643 230.4944,208.6193" id="Fill-438" fill="#FFFFFF"></path>
            <path d="M230.4944,208.6193 L178.7174,198.2233 C177.4954,197.9783 176.7044,196.7903 176.9494,195.5693 L185.1534,154.7053 C185.3984,153.4833 186.5874,152.6923 187.8084,152.9373 L239.5864,163.3333 C240.8074,163.5783 241.5984,164.7663 241.3524,165.9873 L233.1494,206.8513 C232.9044,208.0733 231.7154,208.8643 230.4944,208.6193 Z" id="Stroke-440" stroke="#ACD3EF" stroke-width="2"></path>
            <path d="M227.0364,199.7492 L185.3324,191.3762 C184.1114,191.1312 183.3204,189.9422 183.5654,188.7222 L188.8804,162.2472 C189.1254,161.0262 190.3134,160.2352 191.5354,160.4802 L233.2394,168.8532 C234.4604,169.0982 235.2514,170.2862 235.0064,171.5082 L229.6914,197.9822 C229.4464,199.2032 228.2584,199.9942 227.0364,199.7492" id="Fill-442" fill="#E1F2FF"></path>
            <path d="M227.0364,199.7492 L185.3324,191.3762 C184.1114,191.1312 183.3204,189.9422 183.5654,188.7222 L188.8804,162.2472 C189.1254,161.0262 190.3134,160.2352 191.5354,160.4802 L233.2394,168.8532 C234.4604,169.0982 235.2514,170.2862 235.0064,171.5082 L229.6914,197.9822 C229.4464,199.2032 228.2584,199.9942 227.0364,199.7492 Z" id="Stroke-444" stroke="#ACD3EF" stroke-width="2"></path>
            <path d="M188.387,164.7043 L188.975,161.7773 C189.167,160.8163 190.104,160.1933 191.066,160.3863 L233.709,168.9473 C234.67,169.1413 235.294,170.0763 235.101,171.0383 L234.527,173.8973 L188.387,164.7043 Z" id="Fill-446" fill="#ACD3EF"></path>
            <path d="M188.387,164.7043 L188.975,161.7773 C189.167,160.8163 190.104,160.1933 191.066,160.3863 L233.709,168.9473 C234.67,169.1413 235.294,170.0763 235.101,171.0383 L234.527,173.8973 L188.387,164.7043 Z" id="Stroke-448" stroke="#ACD3EF" stroke-width="2"></path>
            <path d="M230.1565,195.6477 L229.5965,198.4527 C229.4035,199.4137 228.4685,200.0367 227.5065,199.8437 L184.8625,191.2827 C183.9005,191.0887 183.2775,190.1537 183.4705,189.1917 L184.0725,186.1977 L230.1565,195.6477 Z" id="Fill-450" fill="#ACD3EF"></path>
            <path d="M230.1565,195.6477 L229.5965,198.4527 C229.4035,199.4137 228.4685,200.0367 227.5065,199.8437 L184.8625,191.2827 C183.9005,191.0887 183.2775,190.1537 183.4705,189.1917 L184.0725,186.1977 L230.1565,195.6477 Z" id="Stroke-452" stroke="#ACD3EF" stroke-width="2"></path>
            <path d="M215.7991,179.7297 L208.7981,173.5167 C208.0541,172.8567 206.8741,173.2497 206.6741,174.2237 L204.7941,183.3937 C204.5951,184.3687 205.5251,185.1937 206.4691,184.8787 L215.3501,181.9227 C216.2931,181.6087 216.5431,180.3897 215.7991,179.7297" id="Fill-454" fill="#FFFFFF"></path>
            <path d="M215.7991,179.7297 L208.7981,173.5167 C208.0541,172.8567 206.8741,173.2497 206.6741,174.2237 L204.7941,183.3937 C204.5951,184.3687 205.5251,185.1937 206.4691,184.8787 L215.3501,181.9227 C216.2931,181.6087 216.5431,180.3897 215.7991,179.7297 Z" id="Stroke-456" stroke="#ACD3EF" stroke-width="2"></path>
            <path d="M204.6643,194.6359 L153.9373,208.3789 C152.7353,208.7039 151.4973,207.9939 151.1713,206.7919 L139.3863,163.2909 C139.0603,162.0889 139.7703,160.8509 140.9733,160.5259 L191.6993,146.7819 C192.9013,146.4559 194.1403,147.1669 194.4663,148.3689 L206.2513,191.8689 C206.5763,193.0719 205.8663,194.3099 204.6643,194.6359" id="Fill-458" fill="#FFFFFF"></path>
            <path d="M204.6643,194.6359 L153.9373,208.3789 C152.7353,208.7039 151.4973,207.9939 151.1713,206.7919 L139.3863,163.2909 C139.0603,162.0889 139.7703,160.8509 140.9733,160.5259 L191.6993,146.7819 C192.9013,146.4559 194.1403,147.1669 194.4663,148.3689 L206.2513,191.8689 C206.5763,193.0719 205.8663,194.3099 204.6643,194.6359 Z" id="Stroke-460" stroke="#ACD3EF" stroke-width="2"></path>
            <path d="M196.7043,184.8 L155.8503,195.868 C154.6483,196.194 153.4093,195.484 153.0843,194.281 L146.0593,168.354 C145.7343,167.152 146.4443,165.913 147.6463,165.588 L188.5003,154.52 C189.7023,154.195 190.9403,154.904 191.2673,156.107 L198.2913,182.034 C198.6163,183.237 197.9063,184.475 196.7043,184.8" id="Fill-462" fill="#E1F2FF"></path>
            <path d="M196.7043,184.8 L155.8503,195.868 C154.6483,196.194 153.4093,195.484 153.0843,194.281 L146.0593,168.354 C145.7343,167.152 146.4443,165.913 147.6463,165.588 L188.5003,154.52 C189.7023,154.195 190.9403,154.904 191.2673,156.107 L198.2913,182.034 C198.6163,183.237 197.9063,184.475 196.7043,184.8 Z" id="Stroke-464" stroke="#ACD3EF" stroke-width="2"></path>
            <path d="M152.2795,191.3137 C152.2055,191.0387 156.4605,184.9237 158.7625,181.6417 C159.5935,180.4567 161.1525,180.0427 162.4655,180.6547 L169.8515,184.0937 C170.2475,184.2787 170.7185,184.1377 170.9505,183.7677 L178.2885,171.9977 C179.0245,170.8177 180.4775,170.3007 181.7935,170.7527 L196.6145,175.8457 L198.1235,181.4307 C198.4755,182.7347 197.7025,184.0767 196.3975,184.4237 L155.1475,195.4177 C154.0785,195.7037 152.9915,195.0207 152.7825,193.9337 L152.2795,191.3137 Z" id="Fill-466" fill="#ACD3EF"></path>
            <path d="M187.4602,162.1242 C187.9152,163.8322 186.8992,165.5872 185.1902,166.0422 C183.4822,166.4972 181.7282,165.4812 181.2732,163.7722 C180.8172,162.0642 181.8332,160.3102 183.5422,159.8542 C185.2502,159.3992 187.0052,160.4152 187.4602,162.1242" id="Fill-468" fill="#FFFFFF"></path>
            <path d="M187.4602,162.1242 C187.9152,163.8322 186.8992,165.5872 185.1902,166.0422 C183.4822,166.4972 181.7282,165.4812 181.2732,163.7722 C180.8172,162.0642 181.8332,160.3102 183.5422,159.8542 C185.2502,159.3992 187.0052,160.4152 187.4602,162.1242 Z" id="Stroke-470" stroke="#ACD3EF" stroke-width="2"></path>
            <g id="Group-475" transform="translate(136.000000, 209.730000)">
                <path d="M0.6624,0.9245 L100.3194,0.9245" id="Fill-472" fill="#FFFFFF"></path>
                <path d="M0.6624,0.9245 L100.3194,0.9245" id="Stroke-474" stroke="#5E63B6" stroke-width="2" stroke-linecap="round" stroke-linejoin="round"></path>
            </g>
            <path d="M95.3372,0.5002 L95.3372,4.4382" id="Stroke-476" stroke="#5E63B6" stroke-linecap="round"></path>
            <path d="M97.3059,2.469 L93.3679,2.469" id="Stroke-478" stroke="#5E63B6" stroke-linecap="round"></path>
        </g>
    </g>
</svg>