<?xml version="1.0" encoding="UTF-8"?>
<svg width="256px" height="282px" viewBox="0 0 256 282" version="1.1" xmlns="http://www.w3.org/2000/svg" xmlns:xlink="http://www.w3.org/1999/xlink">
    <!-- Generator: Sketch 61 (89581) - https://sketch.com -->
    <title>illus--first-request</title>
    <desc>Created with Sketch.</desc>
    <g id="illus--first-request" stroke="none" stroke-width="1" fill="none" fill-rule="evenodd">
        <circle id="Oval-3" fill="#E1F2FF" cx="126" cy="172" r="100"></circle>
        <g id="rocket" transform="translate(161.000000, 99.500000) rotate(-12.000000) translate(-161.000000, -99.500000) translate(88.000000, 26.000000)" fill-rule="nonzero">
            <path d="M46.1449717,103.856349 C52.6183428,110.326617 52.6183428,120.822558 46.1449717,127.292825 C39.6716007,133.767958 20.8071836,142.140386 14.3338125,135.665254 C7.86044147,129.190122 16.2324405,110.326617 22.7058116,103.856349 C29.1791826,97.3812169 39.6716007,97.3812169 46.1449717,103.856349 Z" id="Shape" fill="#FCCE76"></path>
            <path d="M26.0288423,100.885369 L26,101.436438 C26,113.344316 35.6861932,123 47.6316969,123 L48.0955767,122.97604 C51.376384,116.806466 50.4197823,108.976497 45.2137539,103.779679 C40.0173396,98.5924439 32.2010865,97.6268755 26.0288423,100.885369 Z" id="Shape" fill="#CE983A"></path>
            <path d="M79.079604,67.9202186 C98.6187459,87.4610759 102.529934,115.229536 83.9625899,133.798629 L75.1948109,142.568501 C56.6274672,161.132795 69.4863965,116.594805 49.9448551,97.0539476 C30.4057133,77.5130903 -14.1362357,90.3715695 4.43350752,71.8048757 L13.203686,63.0350042 C31.7710297,44.4707099 59.5356632,48.3817607 79.079604,67.9202186 Z" id="Shape" stroke="#5E63B6" stroke-width="3" fill="#FFFFFF"></path>
            <path d="M142.565048,2.48254045 C148.454574,8.47500637 145.865562,46.4684509 109.65985,83.309405 C86.0803292,107.298638 71.1863724,115.690512 71.1863724,115.690512 C55.4167204,126.464844 47.7900817,119.106823 37.8671228,109.010426 C27.8727757,98.8389713 20.5626246,91.1444029 31.3017886,75.1088062 C31.3017886,75.1088062 39.661346,59.8431506 63.1290249,35.9652925 C99.3038022,-0.846607289 136.651726,-3.53171626 142.565048,2.48254045 Z" id="Shape" stroke="#5E63B6" stroke-width="4" fill="#FFFFFF"></path>
            <path d="M100.996904,66 C97.5244583,66 94.2575853,64.648 91.8006194,62.191619 C86.7306504,57.1228571 86.735604,48.8746667 91.8006194,43.8059048 C94.2575853,41.352 97.5244583,40 100.996904,40 C104.46935,40 107.736223,41.352 110.193189,43.8059048 C112.650155,46.2622857 114,49.528381 114,53 C114,56.471619 112.650155,59.7377143 110.193189,62.191619 C107.736223,64.6455238 104.46935,66 100.996904,66 Z" id="Shape" fill="#F1F4F9"></path>
            <path d="M96.5,39.625 C99.4024167,39.625 102.135667,40.756 104.189833,42.80775 C106.248833,44.8643333 107.375,47.59275 107.375,50.5 C107.375,53.4048333 106.246417,56.1356667 104.189833,58.1898333 C102.135667,60.244 99.4048333,61.375 96.5,61.375 C93.59275,61.375 90.8643333,60.244 88.8101667,58.1898333 C84.5713333,53.951 84.5713333,47.049 88.8101667,42.80775 C90.8619167,40.756 93.5903333,39.625 96.5,39.625 L96.5,39.625 Z M96.5,36 C92.7904167,36 89.076,37.41375 86.2485,40.2460833 C80.5838333,45.91075 80.5838333,55.0916667 86.2485,60.7539167 C89.076,63.5838333 92.7904167,65 96.5,65 C100.209583,65 103.919167,63.5838333 106.7515,60.7539167 C112.416167,55.0916667 112.416167,45.91075 106.7515,40.2460833 C103.919167,37.4161667 100.209583,36 96.5,36 Z" id="Shape" fill="#5E63B6"></path>
            <path d="M111,4.54023123 C112.57915,11.8364337 116.596202,19.3813978 122.893719,25.7477632 C128.349182,31.2639918 134.675324,35.0437193 140.960914,37 C147.511285,19.308943 146.881534,5.83234256 143.561025,2.46802277 C140.328776,-0.804520878 127.697961,-1.4783509 111,4.54023123 Z" id="Shape" stroke="#5E63B6" stroke-width="2"></path>
            <path d="M72.5,111.5 C54.5,119.5 52.0758428,113.324978 43.7808798,102.622695 C35.421688,91.84489 30.4401765,84.9998927 39.4208765,68 C39.1676395,68.109376 39.694014,66.9427093 41,64.5 C35,73 32.5,76.5 32.5,76.5 C21.5,92 31.0658519,97.7679063 39,108 C46.8774756,118.159007 55.5,125 68,115.5 C68,115.5 72,113 76.5,109.70233 L72.5,111.5 Z" id="Shape" fill="#F1F4F9"></path>
            <path d="M67.2784847,82.7213462 C70.0690326,85.5095703 64.7704943,95.3314051 51.2871273,108.812492 C37.8060955,122.293579 29.6703056,125.910798 26.8774225,123.122574 C24.0892098,120.33435 27.7064137,112.193856 41.1874456,98.7127691 C54.6684774,85.231682 64.4926071,79.9307868 67.2784847,82.7213462 L67.2784847,82.7213462 Z" id="Shape" stroke="#5E63B6" stroke-width="3" fill="#FFFFFF"></path>
        </g>
        <g id="Group-4" transform="translate(39.000000, 38.000000)" stroke="#5E63B6" stroke-linecap="round">
            <g id="Group-2">
                <line x1="141" y1="178" x2="141" y2="185" id="Shape" stroke-width="2" stroke-linejoin="round"></line>
                <line x1="144" y1="182" x2="137" y2="182" id="Shape" stroke-width="2" stroke-linejoin="round"></line>
                <line x1="34" y1="0" x2="34" y2="7" id="Shape" stroke-width="2" stroke-linejoin="round"></line>
                <line x1="38" y1="4" x2="31" y2="4" id="Shape" stroke-width="2" stroke-linejoin="round"></line>
                <line x1="96" y1="7" x2="96" y2="10.94" id="Shape"></line>
                <line x1="97.94" y1="9" x2="94" y2="9" id="Shape"></line>
                <line x1="171.73" y1="104.68" x2="171.73" y2="108.62" id="Shape" stroke-linejoin="round"></line>
                <line x1="173.7" y1="106.65" x2="169.76" y2="106.65" id="Shape" stroke-linejoin="round"></line>
                <line x1="2.73" y1="64.68" x2="2.73" y2="68.62" id="Shape"></line>
                <line x1="4.7" y1="66.65" x2="0.76" y2="66.65" id="Shape"></line>
                <line x1="22" y1="107" x2="22" y2="115.12" id="Shape" stroke-width="2" fill="#FFFFFF" fill-rule="nonzero"></line>
                <line x1="26.13" y1="111" x2="18" y2="111" id="Shape" stroke-width="2" fill="#FFFFFF" fill-rule="nonzero"></line>
            </g>
            <g id="Group-2" transform="translate(36.000000, 122.000000)" fill="#FFFFFF" fill-rule="nonzero" stroke-linejoin="round" stroke-width="3">
                <line x1="4.5" y1="38.5" x2="28" y2="0" id="Shape"></line>
                <line x1="0.5" y1="64.5" x2="15.5" y2="40.5" id="Shape"></line>
                <line x1="18.5" y1="58.5" x2="31.5" y2="37.5" id="Shape"></line>
                <line x1="32.5" y1="59.5" x2="57.5" y2="17.5" id="Shape"></line>
                <line x1="55.5" y1="39.5" x2="45.5" y2="55.5" id="Shape"></line>
                <line x1="54.5" y1="59.5" x2="48.5" y2="70.5" id="Shape"></line>
            </g>
        </g>
    </g>
</svg>