<svg width="256" height="256" xmlns="http://www.w3.org/2000/svg">
  <g fill="none" fill-rule="evenodd">
    <path d="M8.33 232.37c0-66.13 53.61-119.74 119.74-119.74 66.131 0 119.74 53.61 119.74 119.74H8.33z" fill="#E1F2FF"/>
    <path d="M19.978 223.37h36" fill="#FFF"/>
    <path d="M19.978 223.37h36" stroke="#5E63B6" stroke-width="2" stroke-linecap="round" stroke-linejoin="round"/>
    <path d="M228.142 223.37h-110.52a2.255 2.255 0 0 1-2.254-2.255V58.833a2.255 2.255 0 0 1 2.254-2.255h110.52a2.256 2.256 0 0 1 2.255 2.255v162.282a2.256 2.256 0 0 1-2.255 2.255" fill="#FFF"/>
    <path d="M228.142 223.37h-110.52a2.255 2.255 0 0 1-2.254-2.255V58.833a2.255 2.255 0 0 1 2.254-2.255h110.52a2.256 2.256 0 0 1 2.255 2.255v162.282a2.256 2.256 0 0 1-2.255 2.255z" stroke="#ACD3EF" stroke-width="2"/>
    <path fill="#E1F2FF" d="M124.45 204.202l99.165 6.902V70.25L123.3 65.65z"/>
    <path d="M191.74 109.163c0 12.215-9.901 22.115-22.115 22.115-12.214 0-22.115-9.9-22.115-22.114s9.9-22.115 22.115-22.115c12.214 0 22.115 9.9 22.115 22.115" fill="#FFF"/>
    <path d="M194.422 104.693c0 12.214-9.9 22.114-22.115 22.114-12.214 0-22.115-9.9-22.115-22.114s9.901-22.115 22.115-22.115c12.214 0 22.115 9.9 22.115 22.115" fill="#FFF"/>
    <path d="M194.422 104.693c0 12.214-9.9 22.114-22.115 22.114-12.214 0-22.115-9.9-22.115-22.114s9.901-22.115 22.115-22.115c12.214 0 22.115 9.9 22.115 22.115z" stroke="#ACD3EF" stroke-width="2"/>
    <path d="M177.804 115.599c.094.276.175.464.2.526.007.007-.009-.004 0 0 0 0 0 .002 0 0h-.002c-.624-6.027 2.793-8.539 3.892-12.542.006-.059.017-.124.035-.197.023-.09.042-.182.055-.274.164-1.108-.29-2.397-1.15-3.74l-.013-.021a11.447 11.447 0 0 0-.223-.335s-.003-.002-.003-.004c-.14-.204-.292-.41-.45-.617-.016-.021-.03-.043-.048-.064l-.134-.169-.137-.172-.14-.169-.148-.175-.106-.121c-1.35-1.556-3.108-3.093-4.942-4.43 0 0-.014-.02 0 0 .243 2.268.273 4.536.058 6.35-.259 2.186-1.042 4.731-2.127 7.039-2.54-.208-5.138-.797-7.164-1.661-1.693-.724-3.633-1.865-5.487-3.218.02.188.042.374.064.562l.023.168a14.291 14.291 0 0 0 .081.586l.061.403.026.163c.028.169.056.337.088.505l.007.049c.035.195.073.388.111.581.002.015.006.029.01.044.035.174.07.345.107.516.008.036.016.07.022.105l.108.467c.01.031.016.06.023.092.044.179.088.357.134.533.002.001.001.002.001.002.151.567.315 1.113.493 1.637l.007.019c.301.875.645 1.681 1.027 2.387l.172.302c.003.003.003.008.006.011l.001.001c.053.089.106.177.16.261l.001.002.006.009a5.44 5.44 0 0 0 .201.303c.002.001 0 .003.001.004.077.111.157.22.237.322l.04.051c.003.006.01.011.014.019a5.44 5.44 0 0 0 .486.543c.03.03.06.056.088.083.043.041.087.079.13.118.033.029.067.054.101.083.04.034.084.067.126.1.033.025.066.048.101.072.044.032.087.061.131.09.034.021.07.042.102.064.047.027.095.052.141.079l.097.051.162.072c.026.009.054.023.081.033.083.034.166.062.25.085.057.017.104.034.15.052 4.024 1.062 7.941-.622 12.855 2.891" fill="#9452BA"/>
    <path d="M143.548 152.41h57.02" fill="#FFF"/>
    <path d="M143.548 152.41h57.02" stroke="#ACD3EF" stroke-width="2" stroke-linecap="round" stroke-linejoin="round"/>
    <path d="M143.548 170.792h57.02" fill="#FFF"/>
    <path d="M143.548 170.792h57.02" stroke="#ACD3EF" stroke-width="2" stroke-linecap="round" stroke-linejoin="round"/>
    <path d="M143.548 189.795h57.02" fill="#FFF"/>
    <path d="M143.548 189.795h57.02" stroke="#ACD3EF" stroke-width="2" stroke-linecap="round" stroke-linejoin="round"/>
    <path d="M208.077 223.37H90.94a2.256 2.256 0 0 1-2.255-2.255V49.238a2.256 2.256 0 0 1 2.255-2.255h117.136a2.255 2.255 0 0 1 2.255 2.256v171.877a2.255 2.255 0 0 1-2.255 2.254" fill="#FFF"/>
    <path d="M208.077 223.37H90.94a2.256 2.256 0 0 1-2.255-2.255V49.238a2.256 2.256 0 0 1 2.255-2.255h117.136a2.255 2.255 0 0 1 2.255 2.256v171.877a2.255 2.255 0 0 1-2.255 2.254z" stroke="#ACD3EF" stroke-width="2"/>
    <path fill="#E1F2FF" d="M98.291 203.099l104.868 7.299V61.444L97.076 56.578z"/>
    <path d="M169.45 102.594c0 12.916-10.47 23.387-23.386 23.387-12.917 0-23.387-10.47-23.387-23.387 0-12.916 10.47-23.388 23.387-23.388 12.916 0 23.387 10.472 23.387 23.388" fill="#FFF"/>
    <path d="M172.288 97.866c0 12.917-10.471 23.388-23.387 23.388-12.917 0-23.387-10.471-23.387-23.388 0-12.916 10.47-23.387 23.387-23.387 12.916 0 23.387 10.47 23.387 23.387" fill="#FFF"/>
    <path d="M172.288 97.866c0 12.917-10.471 23.388-23.387 23.388-12.917 0-23.387-10.471-23.387-23.388 0-12.916 10.47-23.387 23.387-23.387 12.916 0 23.387 10.47 23.387 23.387z" stroke="#ACD3EF" stroke-width="2"/>
    <path d="M154.713 109.4c.1.292.186.49.211.557.01.006-.008-.004 0 0 0 0 0 .002 0 0 .001 0 0 0 0 0-.66-6.374 2.953-9.03 4.115-13.263.006-.063.018-.132.037-.21.024-.094.043-.191.058-.29.173-1.171-.308-2.533-1.217-3.954-.003-.008-.01-.015-.014-.023a10.32 10.32 0 0 0-.235-.354s-.003-.002-.003-.004a16.223 16.223 0 0 0-.475-.652l-.052-.068c-.046-.06-.096-.118-.14-.177a17.073 17.073 0 0 0-.146-.184l-.15-.18c-.05-.061-.102-.121-.154-.183l-.112-.13c-1.428-1.644-3.287-3.27-5.228-4.683 0 0-.015-.022 0 0 .257 2.398.29 4.797.063 6.715-.275 2.313-1.102 5.004-2.25 7.443-2.687-.22-5.434-.842-7.576-1.756-1.79-.765-3.842-1.972-5.803-3.404.021.2.045.397.068.596l.024.178c.018.14.036.282.057.424.008.065.018.13.028.196.021.142.042.284.065.425l.028.17a42.524 42.524 0 0 0 .218 1.204c.001.015.006.029.01.046a40.221 40.221 0 0 0 .137.656l.114.495a.86.86 0 0 1 .024.097c.047.188.093.377.143.563l.001.003c.16.598.333 1.176.521 1.729l.006.02c.32.927.683 1.779 1.088 2.525.06.109.12.216.182.32.003.003.003.008.005.01h.001c.055.096.112.19.168.279l.002.002.007.009c.061.098.122.194.187.284a.634.634 0 0 0 .026.037l.001.004c.081.118.166.232.25.34.015.019.028.037.042.053l.015.022c.096.12.196.24.3.349.07.079.141.153.214.226l.094.087c.045.043.091.084.137.125.034.03.07.056.106.086.043.037.09.07.133.106.036.028.07.052.107.077.047.034.092.065.14.096.034.022.071.044.108.066.048.029.1.056.147.084a2.614 2.614 0 0 0 .275.129c.027.01.057.026.086.037.087.035.176.064.264.088.06.019.11.037.158.056 4.256 1.124 8.4-.657 13.595 3.058" fill="#9452BA"/>
    <path d="M119.178 148.327h60.299" fill="#FFF"/>
    <path d="M119.178 148.327h60.299" stroke="#ACD3EF" stroke-width="2" stroke-linecap="round" stroke-linejoin="round"/>
    <path d="M119.178 167.768h60.299" fill="#FFF"/>
    <path d="M119.178 167.768h60.299" stroke="#ACD3EF" stroke-width="2" stroke-linecap="round" stroke-linejoin="round"/>
    <path d="M119.178 187.864h60.299" fill="#FFF"/>
    <path d="M119.178 187.864h60.299" stroke="#ACD3EF" stroke-width="2" stroke-linecap="round" stroke-linejoin="round"/>
    <path d="M76.224 222.996h4.979a4.17 4.17 0 0 0 3.886-2.644c1.767-4.55 1.327-8.73 1.538-12.306.39-6.625-.644-10.02-1.631-15.561l-7.474.172s.635 2.754 1.058 11.012c.132 2.555-4.091 12.819-3.893 17.853a1.535 1.535 0 0 0 1.537 1.475" fill="#9452BA"/>
    <path d="M76.224 222.996h4.979a4.17 4.17 0 0 0 3.886-2.644c1.767-4.55 1.327-8.73 1.538-12.306.39-6.625-.644-10.02-1.631-15.561l-7.474.172s.635 2.754 1.058 11.012c.132 2.555-4.091 12.819-3.893 17.853a1.535 1.535 0 0 0 1.537 1.475z" stroke="#52267D" stroke-width="2"/>
    <path d="M61.73 199.327l-6.012-6.816-3.713.147s-.52 5.67-.733 8.046c-.377 4.185-2.111 12.387-3.176 15.986-.347 1.172-.55 2.266-.604 3.257-.095 1.67 1.297 3.05 2.97 3.05h4.41c2.57 0 4.855-1.716 5.486-4.206 1.966-7.754 1.372-19.464 1.372-19.464" fill="#9452BA"/>
    <path d="M61.73 199.327l-6.012-6.816-3.713.147s-.52 5.67-.733 8.046c-.377 4.185-2.111 12.387-3.176 15.986-.347 1.172-.55 2.266-.604 3.257-.095 1.67 1.297 3.05 2.97 3.05h4.41c2.57 0 4.855-1.716 5.486-4.206 1.966-7.754 1.372-19.464 1.372-19.464z" stroke="#52267D" stroke-width="2"/>
    <path stroke="#52267D" stroke-width=".5" d="M53.276 204.028l-.992.87.948.857 1.546-.594-.31-.678-1.282.304.011.229.332-.015"/>
    <path d="M53.312 173.94c4.38-.09 8.483-3.104 17.42-3.517.13-.584.287-1.111.487-1.544 1.617-3.501 3.899-13.592 2.433-20.222l-1.16-5.245a24.315 24.315 0 0 1-.573-5.242 10.655 10.655 0 0 1 .335-2.658 10.483 10.483 0 0 1 .715-1.953 10.657 10.657 0 0 1 4.072-4.485 10.588 10.588 0 0 1 5.516-1.54h1.742a10.603 10.603 0 0 1 8.208 3.87c.394.478.745.992 1.052 1.534a10.205 10.205 0 0 1 .543 1.093c.2.476.368.972.5 1.48a10.672 10.672 0 0 1 .334 2.659 2.64 2.64 0 0 1-.776 1.875 2.64 2.64 0 0 1-1.874.778H81.394l1.65 9.452c1.934 9.71 1.353 16.203-.147 20.532-.334.965-2.236 4.385-2.236 4.385 5.447 8.593 13.796 12.349 22.725 13.438 7.593.928 23.98-5.995 15.53-14.002-8.448-8.008 1.76-3.03 3.264-2.015 1.502 1.013 10.192 8.52.761 19.538-3.987 4.659-8.505 8.894-19.374 12.14-1.743.52-11.255 1.213-16.375 2.682-15.246 4.377-27.64-.382-34.586-10.445-6.918-10.024-1.023-22.552.706-22.587" fill="#9452BA"/>
    <path d="M53.312 173.94c4.38-.09 8.483-3.104 17.42-3.517.13-.584.287-1.111.487-1.544 1.617-3.501 3.899-13.592 2.433-20.222l-1.16-5.245a24.315 24.315 0 0 1-.573-5.242 10.655 10.655 0 0 1 .335-2.658 10.483 10.483 0 0 1 .715-1.953 10.657 10.657 0 0 1 4.072-4.485 10.588 10.588 0 0 1 5.516-1.54h1.742a10.603 10.603 0 0 1 8.208 3.87c.394.478.745.992 1.052 1.534a10.205 10.205 0 0 1 .543 1.093c.2.476.368.972.5 1.48a10.672 10.672 0 0 1 .334 2.659 2.64 2.64 0 0 1-.776 1.875 2.64 2.64 0 0 1-1.874.778H81.394l1.65 9.452c1.934 9.71 1.353 16.203-.147 20.532-.334.965-2.236 4.385-2.236 4.385 5.447 8.593 13.796 12.349 22.725 13.438 7.593.928 23.98-5.995 15.53-14.002-8.448-8.008 1.76-3.03 3.264-2.015 1.502 1.013 10.192 8.52.761 19.538-3.987 4.659-8.505 8.894-19.374 12.14-1.743.52-11.255 1.213-16.375 2.682-15.246 4.377-27.64-.382-34.586-10.445-6.918-10.024-1.023-22.552.706-22.587z" stroke="#52267D" stroke-width="2"/>
    <path d="M62.771 159.47c.35-11.26-8.587-20.109-18.744-21.979-2.108-.388-2.795-1.05-5.101-1.05h-1.767c-5.951 0-10.776 4.825-10.776 10.776a2.687 2.687 0 0 0 2.686 2.687s18.119-.005 18.204-.013l1.478.001c-.002.002-1.479.003-1.481.005 4.007 1.701 6.501 6.821 6.94 9.573.626 3.918.168 7.15-1.169 9.765-.891 1.741-.991 3.84-.854 5.538l.103.035c.063.908.21 1.941.481 3.12 1.706-1.189 4.359-2.978 4.844-3.234 1.047-.553 3.41-1.81 4.468-2.416 6.759-3.875.489-6.404.688-12.808" fill="#9452BA"/>
    <path d="M62.771 159.47c.35-11.26-8.587-20.109-18.744-21.979-2.108-.388-2.795-1.05-5.101-1.05h-1.767c-5.951 0-10.776 4.825-10.776 10.776a2.687 2.687 0 0 0 2.686 2.687s18.119-.005 18.204-.013l1.478.001c-.002.002-1.479.003-1.481.005 4.007 1.701 6.501 6.821 6.94 9.573.626 3.918.168 7.15-1.169 9.765-.891 1.741-.991 3.84-.854 5.538l.103.035c.063.908.21 1.941.481 3.12 1.706-1.189 4.359-2.978 4.844-3.234 1.047-.553 3.41-1.81 4.468-2.416 6.759-3.875.489-6.404.688-12.808z" stroke="#52267D" stroke-width="2"/>
    <path d="M57 172.48c-.088-1.738-.354-2.631-.16-3.34 1.124-4.072 1.489-5.357 1.489-9.67 0-4.285-2.483-8.52-6.148-10.773-.201-.123-2.84-.31-4.911 1.2 4.007 1.7 6.5 6.82 6.94 9.573.627 3.918.168 7.15-1.168 9.765-.891 1.74-.992 3.839-.855 5.538 0 0 4.916 1.846 4.814-2.292" fill="#F3E3FF"/>
    <path d="M57 172.48c-.088-1.738-.354-2.631-.16-3.34 1.124-4.072 1.489-5.357 1.489-9.67 0-4.285-2.483-8.52-6.148-10.773-.201-.123-2.84-.31-4.911 1.2 4.007 1.7 6.5 6.82 6.94 9.573.627 3.918.168 7.15-1.168 9.765-.891 1.74-.992 3.839-.855 5.538 0 0 4.916 1.846 4.814-2.292" stroke="#52267D"/>
    <path d="M31.504 138.272s-.004-1.882 1.866-2.63a265.79 265.79 0 0 0 1.613-.652s1.113 2.355-.148 2.95c-1.817.854-3.33.332-3.33.332" fill="#FFF"/>
    <path d="M31.504 138.272s-.004-1.882 1.866-2.63a265.79 265.79 0 0 0 1.613-.652s1.113 2.355-.148 2.95c-1.817.854-3.33.332-3.33.332z" stroke="#52267D"/>
    <path d="M36.186 136.949s.053-2.564 2.938-2.938c.538-.07 1.942-.036 1.942-.036s.648 2.713-.873 2.974c-1.87.32-4.007 0-4.007 0" fill="#FFF"/>
    <path d="M36.186 136.949s.053-2.564 2.938-2.938c.538-.07 1.942-.036 1.942-.036s.648 2.713-.873 2.974c-1.87.32-4.007 0-4.007 0z" stroke="#52267D"/>
    <path d="M41.922 137.194s.38-2.844 2.935-2.062c1.091.334 1.697 1.164 1.697 1.164s-.508 2.166-1.525 1.92c-1.774-.423-3.107-1.022-3.107-1.022" fill="#FFF"/>
    <path d="M41.922 137.194s.38-2.844 2.935-2.062c1.091.334 1.697 1.164 1.697 1.164s-.508 2.166-1.525 1.92c-1.774-.423-3.107-1.022-3.107-1.022z" stroke="#52267D"/>
    <path d="M49.34 151s5.957-3.238 4.824-8.687c.79.652 2.905 2.638 3.67 3.655 0 1.066.197 5.302-5.652 8.138-1.028-1.066-1.895-2.397-2.841-3.107" fill="#FFF"/>
    <path d="M49.34 151s5.957-3.238 4.824-8.687c.79.652 2.905 2.638 3.67 3.655 0 1.066.197 5.302-5.652 8.138-1.028-1.066-1.895-2.397-2.841-3.107z" stroke="#52267D"/>
    <path d="M32.056 137.971s-.002-1.099 1.089-1.535c.333-.133.94-.38.94-.38s.65 1.374-.085 1.721c-1.06.5-1.944.194-1.944.194M37.038 136.594s.03-1.5 1.72-1.72c.316-.04 1.137-.02 1.137-.02s.38 1.588-.511 1.74c-1.095.187-2.346 0-2.346 0M42.553 137.109s.225-1.683 1.736-1.22c.645.198 1.004.688 1.004.688s-.301 1.28-.902 1.137c-1.05-.251-1.838-.605-1.838-.605M41.31 148.1h-5.446a4.967 4.967 0 0 1 4.967-4.967h.479a2.484 2.484 0 0 1 0 4.967" fill="#F3E3FF"/>
    <path d="M40.85 148.006h-4.892a3.902 3.902 0 0 1 3.902-3.9h.99a1.95 1.95 0 1 1 0 3.9" fill="#FFF"/>
    <path d="M40.85 148.006h-4.892a3.902 3.902 0 0 1 3.902-3.9h.99a1.95 1.95 0 1 1 0 3.9z" stroke="#52267D"/>
    <path d="M36.844 146.003a1.09 1.09 0 1 0 2.18 0 1.09 1.09 0 0 0-2.18 0M28.82 149.085c.31-.066.586-.238.784-.486l.365-.459-.814.174-.479.102a.343.343 0 0 0 .144.67" fill="#52267D"/>
    <path d="M50.347 151.107s4.588-2.47 4.517-7.446c1.972 1.436 2.506 2.365 2.506 2.365s-.344 2.368-1.447 3.564c-1.694 1.835-3.459 2.4-5.576 1.517" fill="#E1F2FF"/>
    <path d="M54.69 150.234s-1.809 1.84-3.574 2.723" fill="#FFF"/>
    <path d="M54.69 150.234s-1.809 1.84-3.574 2.723" stroke="#52267D"/>
    <path d="M72.682 169.581l-1.022-2.017c-3.817-9.38-4.406-14.89-2.426-23.844l1.16-5.245c.38-1.72.572-3.479.572-5.242 0-5.874-4.762-10.636-10.637-10.636h-1.717c-5.794 0-10.491 4.697-10.491 10.491v.302a2.497 2.497 0 0 0 2.496 2.496H61.49l-1.65 9.452c-5.045 25.33-4.54 35.6 5.392 33.49" fill="#9452BA"/>
    <path d="M72.682 169.581l-1.022-2.017c-3.817-9.38-4.406-14.89-2.426-23.844l1.16-5.245c.38-1.72.572-3.479.572-5.242 0-5.874-4.762-10.636-10.637-10.636h-1.717c-5.794 0-10.491 4.697-10.491 10.491v.302a2.497 2.497 0 0 0 2.496 2.496H61.49l-1.65 9.452c-5.045 25.33-4.54 35.6 5.392 33.49" stroke="#52267D" stroke-width="2"/>
    <path d="M53.363 123.856s.175-1.844 2.007-2.576c.558-.224 1.434.014 1.434.014s1.058 1.655-.178 2.236c-1.78.838-3.263.326-3.263.326" fill="#FFF"/>
    <path d="M53.363 123.856s.175-1.844 2.007-2.576c.558-.224 1.434.014 1.434.014s1.058 1.655-.178 2.236c-1.78.838-3.263.326-3.263.326z" stroke="#52267D"/>
    <path d="M57.725 123.247s.06-2.903 3.328-3.327c.609-.079 1.39-.019 1.39-.019s1.542 3.051-.18 3.346c-2.118.363-4.538 0-4.538 0" fill="#FFF"/>
    <path d="M57.725 123.247s.06-2.903 3.328-3.327c.609-.079 1.39-.019 1.39-.019s1.542 3.051-.18 3.346c-2.118.363-4.538 0-4.538 0z" stroke="#52267D"/>
    <path d="M63.57 123.909s.443-2.775 2.926-1.946c1.06.353 1.633 1.18 1.633 1.18s-.552 2.11-1.541 1.845c-1.727-.46-3.018-1.08-3.018-1.08" fill="#FFF"/>
    <path d="M63.57 123.909s.443-2.775 2.926-1.946c1.06.353 1.633 1.18 1.633 1.18s-.552 2.11-1.541 1.845c-1.727-.46-3.018-1.08-3.018-1.08z" stroke="#52267D"/>
    <path d="M53.54 173.605a4.936 4.936 0 0 1 1.787-.861" fill="#F3E3FF"/>
    <path d="M53.54 173.605a4.936 4.936 0 0 1 1.787-.861" stroke="#52267D"/>
    <path d="M57.14 173.548c-1.776-7.223 1.43-21.03 2.02-24.429l2.334-13.615h1.023c1.296 0 2.278 1.41 2.094 2.694l-1.692 11.81c-.572 4-1.168 22.515 5.78 26.491 1.482.85 3.892.292 4.799-.14 3.303-1.579 4.253-5.696 4.976-9.015 1.499-6.87.332-12.263 0-17.648l-.348-6.737c-.063-1.218.906-2.51 2.123-2.51h1.24l2.237 13.616c.673 3.877 2.403 17.322-5.52 23.625-.142.114 1.927.577 1.328 1.637-2.383 4.212-9.288 4.878-10.588 6.682-5.007 6.944-.318 21.741-.318 21.741s-5.557-2.218-9-5.303c-8.046-7.212-9.067-17.658-9.104-20.733-.045-3.679.922-5.96 2.112-7.323" fill="#F3E3FF"/>
    <path d="M57.14 173.548c-1.776-7.223 1.43-21.03 2.02-24.429l2.334-13.615h1.023c1.296 0 2.278 1.41 2.094 2.694l-1.692 11.81c-.572 4-1.168 22.515 5.78 26.491 1.482.85 3.892.292 4.799-.14 3.303-1.579 4.253-5.696 4.976-9.015 1.499-6.87.332-12.263 0-17.648l-.348-6.737c-.063-1.218.906-2.51 2.123-2.51h1.24l2.237 13.616c.673 3.877 2.403 17.322-5.52 23.625-.142.114 1.927.577 1.328 1.637-2.383 4.212-9.288 4.878-10.588 6.682-5.007 6.944-.318 21.741-.318 21.741s-5.557-2.218-9-5.303c-8.046-7.212-9.067-17.658-9.104-20.733-.045-3.679.922-5.96 2.112-7.323" stroke="#52267D"/>
    <path d="M122.455 179.572s1.143-1.266.5-2.966c-.196-.518-.902-.965-.902-.965s-1.782.31-1.408 1.513c.54 1.73 1.81 2.418 1.81 2.418" fill="#FFF"/>
    <path d="M122.455 179.572s1.143-1.266.5-2.966c-.196-.518-.902-.965-.902-.965s-1.782.31-1.408 1.513c.54 1.73 1.81 2.418 1.81 2.418z" stroke="#52267D"/>
    <path d="M122.077 177.813s.4-.444.176-1.04c-.07-.183-.317-.34-.317-.34s-.625.11-.493.53c.189.608.634.85.634.85" fill="#F3E3FF"/>
    <path d="M113.095 188.64s-1.086-2.477 1.508-4.113c.484-.306 1.168-.561 1.168-.561s2.496 1.974 1.157 2.898c-1.647 1.135-3.833 1.776-3.833 1.776" fill="#FFF"/>
    <path d="M113.095 188.64s-1.086-2.477 1.508-4.113c.484-.306 1.168-.561 1.168-.561s2.496 1.974 1.157 2.898c-1.647 1.135-3.833 1.776-3.833 1.776z" stroke="#52267D"/>
    <path d="M113.999 187.708s-.602-1.374.836-2.28c.268-.17.648-.312.648-.312s1.384 1.095.64 1.607c-.912.63-2.124.985-2.124.985" fill="#F3E3FF"/>
    <path d="M121.013 180.528s1.88 1.65.077 3.128c-.771.63-1.666.669-1.666.669s-1.326-1.417-.657-2.036c1.167-1.083 2.246-1.761 2.246-1.761" fill="#FFF"/>
    <path d="M121.013 180.528s1.88 1.65.077 3.128c-.771.63-1.666.669-1.666.669s-1.326-1.417-.657-2.036c1.167-1.083 2.246-1.761 2.246-1.761z" stroke="#52267D"/>
    <path d="M120.74 181.699s.832.73.033 1.385c-.342.279-.738.297-.738.297s-.587-.628-.29-.903c.516-.48.994-.78.994-.78" fill="#F3E3FF"/>
    <path d="M104.073 189.943s-.62-2.205 1.807-3.08c2.426-.875 3.078-.148 3.078-.148s1.342 2.26.143 2.987c-1.2.727-5.028.24-5.028.24" fill="#FFF"/>
    <path d="M104.073 189.943s-.62-2.205 1.807-3.08c2.426-.875 3.078-.148 3.078-.148s1.342 2.26.143 2.987c-1.2.727-5.028.24-5.028.24z" stroke="#52267D"/>
    <path d="M105.211 189.442s-.322-1.146.94-1.602c1.262-.455 1.601-.076 1.601-.076s.698 1.175.074 1.553c-.624.378-2.615.125-2.615.125" fill="#F3E3FF"/>
    <path d="M60.964 138.825s3.874 2.19 9.318.213c-.373 1.689-1.135 5.084-1.135 5.084s-5.044 1.547-8.935-.901c.398-2.242.752-4.396.752-4.396" fill="#FFF"/>
    <path d="M60.964 138.825s3.874 2.19 9.318.213c-.373 1.689-1.135 5.084-1.135 5.084s-5.044 1.547-8.935-.901c.398-2.242.752-4.396.752-4.396z" stroke="#52267D"/>
    <path d="M89.943 128.984s-.176-1.857-2.022-2.596c-.563-.225-2.084-.287-2.084-.287s-.427 1.968.818 2.554c1.793.844 3.288.329 3.288.329" fill="#FFF"/>
    <path d="M89.943 128.984s-.176-1.857-2.022-2.596c-.563-.225-2.084-.287-2.084-.287s-.427 1.968.818 2.554c1.793.844 3.288.329 3.288.329z" stroke="#52267D"/>
    <path d="M85.26 128.034s-.053-2.53-2.9-2.9c-.53-.069-1.213-.016-1.213-.016s-1.343 2.66.158 2.916c1.846.316 3.955 0 3.955 0" fill="#FFF"/>
    <path d="M85.26 128.034s-.053-2.53-2.9-2.9c-.53-.069-1.213-.016-1.213-.016s-1.343 2.66.158 2.916c1.846.316 3.955 0 3.955 0z" stroke="#52267D"/>
    <path d="M79.867 128.218s-.446-2.797-2.948-1.96c-1.068.356-1.645 1.19-1.645 1.19s.556 2.124 1.552 1.858c1.74-.464 3.04-1.088 3.04-1.088" fill="#FFF"/>
    <path d="M79.867 128.218s-.446-2.797-2.948-1.96c-1.068.356-1.645 1.19-1.645 1.19s.556 2.124 1.552 1.858c1.74-.464 3.04-1.088 3.04-1.088z" stroke="#52267D"/>
    <path d="M54.203 123.472s.099-1.041 1.134-1.455c.316-.127.81.008.81.008s.598.934-.1 1.263c-1.006.473-1.844.184-1.844.184M58.64 122.86s.04-1.907 2.185-2.186c.4-.051.915-.011.915-.011s1.012 2.004-.12 2.198c-1.39.238-2.98 0-2.98 0M64.37 123.736s.283-1.767 1.863-1.238a2.219 2.219 0 0 1 1.039.752s-.351 1.34-.981 1.173c-1.1-.293-1.92-.687-1.92-.687M89.146 128.591s-.098-1.035-1.126-1.446c-.314-.126-1.162-.159-1.162-.159s-.238 1.095.456 1.422c.999.47 1.832.183 1.832.183M84.28 127.666s-.032-1.467-1.68-1.68c-.309-.04-.704-.009-.704-.009s-.778 1.54.091 1.69c1.07.183 2.292 0 2.292 0M79.081 128.109s-.264-1.654-1.744-1.16c-.632.21-.973.704-.973.704s.33 1.257.92 1.1c1.028-.275 1.797-.644 1.797-.644" fill="#F3E3FF"/>
    <path d="M72.538 143.62s4.796.748 9.358-.37c.444 2.477.73 4.35.73 4.35s-3.164 2.147-9.009.901c-.689-3.184-1.079-4.88-1.079-4.88" fill="#FFF"/>
    <path d="M72.538 143.62s4.796.748 9.358-.37c.444 2.477.73 4.35.73 4.35s-3.164 2.147-9.009.901c-.689-3.184-1.079-4.88-1.079-4.88z" stroke="#52267D"/>
    <path d="M79.27 138.803h6.646v-2.865a2.1 2.1 0 0 0-2.101-2.1H79.27c-.708 0-1.282.573-1.282 1.281v2.402c0 .708.574 1.282 1.282 1.282" fill="#F3E3FF"/>
    <path d="M79.986 138.71h5.836v-1.887a2.014 2.014 0 0 0-2.014-2.015h-3.822c-.557 0-1.007.451-1.007 1.007v1.887c0 .557.45 1.008 1.007 1.008" fill="#FFF"/>
    <path d="M79.986 138.71h5.836v-1.887a2.014 2.014 0 0 0-2.014-2.015h-3.822c-.557 0-1.007.451-1.007 1.007v1.887c0 .557.45 1.008 1.007 1.008z" stroke="#52267D"/>
    <path d="M84.936 137.554a1.09 1.09 0 1 1-2.179 0 1.09 1.09 0 0 1 2.18 0" fill="#52267D"/>
    <path d="M61.628 134.095h-5.446a4.967 4.967 0 0 1 4.967-4.967h.48a2.484 2.484 0 0 1 0 4.967" fill="#F3E3FF"/>
    <path d="M61.17 134.001h-4.894a3.902 3.902 0 0 1 3.902-3.9h.991a1.95 1.95 0 1 1 0 3.9" fill="#FFF"/>
    <path d="M61.17 134.001h-4.894a3.902 3.902 0 0 1 3.902-3.9h.991a1.95 1.95 0 1 1 0 3.9z" stroke="#52267D"/>
    <path d="M57.163 132.845a1.09 1.09 0 1 0 2.178.001 1.09 1.09 0 0 0-2.178 0M92.477 139.936a1.368 1.368 0 0 1-.784-.485l-.365-.46.813.174.48.103a.342.342 0 0 1-.144.668M50.471 134.84c.31-.066.586-.238.784-.486l.365-.459-.814.174-.479.103a.342.342 0 1 0 .144.668" fill="#52267D"/>
    <path d="M61.429 139.532s4.058 1.729 8.152.149c-.43 2.402-.812 3.627-.812 3.627s-2.463.145-4.093-.176c-2.33-.46-3.247-1.518-3.247-3.6" fill="#E1F2FF"/>
    <path d="M67.075 142.61s-3.693.309-6.552-1.174" fill="#FFF"/>
    <path d="M67.075 142.61s-3.693.309-6.552-1.174" stroke="#52267D"/>
    <path d="M80.139 144.161s-3.6 1.023-6.776.39c.6 2.364.918 3.105.918 3.105s4.764-.635 5.858-3.494" fill="#E1F2FF"/>
    <path d="M78.207 177.74s-.218.158-.527.345" fill="#F3E3FF"/>
    <path d="M78.207 177.74s-.218.158-.527.345" stroke="#52267D" stroke-width=".5"/>
    <path d="M80.486 145.523s-3.624.687-7.47.229" fill="#FFF"/>
    <path d="M80.486 145.523s-3.624.687-7.47.229" stroke="#52267D"/>
    <path d="M74.547 220.074s-.96-.783-2.239.266c-1.167.959-2.045 2.44-1.522 2.589a5.58 5.58 0 0 0 2.411.117c.842-.155 1.585.007 1.923-1.753.157-.821-.573-1.22-.573-1.22" fill="#FFF"/>
    <path d="M74.547 220.074s-.96-.783-2.239.266c-1.167.959-2.045 2.44-1.522 2.589a5.58 5.58 0 0 0 2.411.117c.842-.155 1.585.007 1.923-1.753.157-.821-.573-1.22-.573-1.22z" stroke="#52267D" stroke-width=".5"/>
    <path d="M74.329 220.359s-.598-.487-1.394.166c-.726.597-1.272 1.519-.946 1.61.325.093.898.184 1.5.074.524-.097.986.004 1.196-1.091.098-.511-.356-.76-.356-.76" fill="#E1F2FF"/>
    <path d="M75.912 220.056c.508-.068 1.239 1.035 1.155 1.371-.083.336-.141 1.446-.963 1.567-.605.089-2.765.314-3.236-.155-.435-.432.416-2.431 3.044-2.783" fill="#FFF"/>
    <path d="M75.912 220.056c.508-.068 1.239 1.035 1.155 1.371-.083.336-.141 1.446-.963 1.567-.605.089-2.765.314-3.236-.155-.435-.432.416-2.431 3.044-2.783z" stroke="#52267D" stroke-width=".5"/>
    <path d="M76.054 220.362c.3-.04.73.61.682.809-.05.199-.083.854-.568.925-.358.052-1.632.185-1.91-.091-.256-.256.246-1.435 1.796-1.643" fill="#E1F2FF"/>
    <path d="M78.06 220.27s-.438-.228-1.307.269c-.767.438-1.913 1.14-1.61 2.012.3.872 2.725.548 3.263.364.54-.185.878-.772.782-1.286-.207-1.12-1.128-1.358-1.128-1.358" fill="#FFF"/>
    <path d="M78.06 220.27s-.438-.228-1.307.269c-.767.438-1.913 1.14-1.61 2.012.3.872 2.725.548 3.263.364.54-.185.878-.772.782-1.286-.207-1.12-1.128-1.358-1.128-1.358z" stroke="#52267D" stroke-width=".5"/>
    <path d="M78.225 220.58s-.26-.137-.774.157c-.455.262-1.133.677-.955 1.194.18.515 1.615.323 1.934.213.32-.108.52-.457.463-.76-.123-.662-.668-.804-.668-.804" fill="#E1F2FF"/>
    <path d="M67.922 192.457s.494 5.617-.934 14.447c-1.33 8.22-3.687 10.798-3.513 12.93.134 1.65.83 3.162 2.486 3.162h4.94a5.367 5.367 0 0 0 5.083-3.657c.597-1.759 1.219-4.153 1.589-7.179.38-4.116.299-8.244.23-10.669" fill="#9452BA"/>
    <path d="M67.922 192.457s.494 5.617-.934 14.447c-1.33 8.22-3.687 10.798-3.513 12.93.134 1.65.83 3.162 2.486 3.162h4.94a5.367 5.367 0 0 0 5.083-3.657c.597-1.759 1.219-4.153 1.589-7.179.38-4.116.299-8.244.23-10.669" stroke="#52267D" stroke-width="2"/>
    <path d="M93.254 196.173c-1.636 1.41-2.485 3.716-2.472 5.835.017 2.83 1.659 6.433.618 11.135-.927 4.19-2.772 4.928-2.216 8.686.1.68.709 1.167 1.395 1.167h5.505a5.192 5.192 0 0 0 5.118-4.337c1.106-6.675.26-12.976-.63-17.81" fill="#9452BA"/>
    <path d="M93.254 196.173c-1.636 1.41-2.485 3.716-2.472 5.835.017 2.83 1.659 6.433.618 11.135-.927 4.19-2.772 4.928-2.216 8.686.1.68.709 1.167 1.395 1.167h5.505a5.192 5.192 0 0 0 5.118-4.337c1.106-6.675.26-12.976-.63-17.81" stroke="#52267D" stroke-width="2"/>
    <path stroke="#52267D" stroke-width=".5" d="M94.335 202.41l.325-.232 1.046.235-1.163.742-1.399-.69 1.453-1.161.662.22"/>
    <path d="M64.554 220.074s-.961-.783-2.24.266c-1.166.959-2.044 2.44-1.521 2.589a5.58 5.58 0 0 0 2.41.117c.843-.155 1.586.007 1.924-1.753.157-.821-.573-1.22-.573-1.22" fill="#FFF"/>
    <path d="M64.554 220.074s-.961-.783-2.24.266c-1.166.959-2.044 2.44-1.521 2.589a5.58 5.58 0 0 0 2.41.117c.843-.155 1.586.007 1.924-1.753.157-.821-.573-1.22-.573-1.22z" stroke="#52267D"/>
    <path d="M64.334 220.359s-.598-.487-1.393.166c-.727.597-1.273 1.519-.947 1.61.325.093.898.184 1.5.074.524-.097.986.004 1.196-1.091.1-.511-.356-.76-.356-.76" fill="#E1F2FF"/>
    <path stroke="#52267D" stroke-width=".5" d="M72.11 205.515l-1.968.613.26 1.824 2.016.146.94-1.084-1.208-.67-.999.29.635.706"/>
    <g stroke="#F3E3FF" stroke-width=".25">
      <path d="M29.94 145.483a.536.536 0 0 0 1.071 0M28.869 145.483a.536.536 0 0 0 1.072 0M29.404 146.019a.536.536 0 0 0 1.072 0M50.47 144.98a.79.79 0 0 0 .834-1.34M50.725 146.069a.79.79 0 0 0 .833-1.342M75.898 162.98a.72.72 0 0 0 1.437 0M74.46 162.98a.72.72 0 0 0 1.438 0M75.18 163.7a.72.72 0 0 0 1.436 0M54.434 208.512a.72.72 0 0 0 1.437 0M52.996 208.512a.72.72 0 0 0 1.437 0M53.715 209.23a.72.72 0 0 0 1.437 0M74.785 140.077a.79.79 0 1 0 1.579 0M73.995 140.867a.79.79 0 0 0 1.58 0M64.69 154.023a.96.96 0 1 0 1.92 0M63.731 154.983a.959.959 0 1 0 1.92 0M50.753 130.166a.643.643 0 0 0 1.284 0M50.11 130.808a.643.643 0 0 0 1.285 0M111.157 194.871a.74.74 0 0 0 1.127-.956M111.07 195.912a.739.739 0 1 0 1.129-.955M81.789 184.67a.867.867 0 1 0 1.577-.72M80.211 185.39a.866.866 0 1 0 1.578-.72M81.36 185.818a.867.867 0 1 0 1.576-.72M79.782 186.537a.866.866 0 1 0 1.577-.72M82.508 186.248a.867.867 0 1 0 1.577-.72M66.695 136.654a.875.875 0 0 0 1.749 0M66.392 169.706a.875.875 0 0 0 1.749 0M76.304 151.487a.663.663 0 0 0 1.326 0M92.083 136.43a.498.498 0 0 0 .994 0M96.22 209.53a.874.874 0 1 0 1.723-.3M72.058 215.973a.96.96 0 0 0 1.92 0M71.099 216.932a.96.96 0 0 0 1.919 0"/>
    </g>
    <path d="M65.917 220.056c.508-.068 1.24 1.035 1.156 1.371-.083.336-.141 1.446-.962 1.567-.607.089-2.766.314-3.238-.155-.434-.432.418-2.431 3.044-2.783" fill="#FFF"/>
    <path d="M65.917 220.056c.508-.068 1.24 1.035 1.156 1.371-.083.336-.141 1.446-.962 1.567-.607.089-2.766.314-3.238-.155-.434-.432.418-2.431 3.044-2.783z" stroke="#52267D"/>
    <path d="M66.06 220.362c.3-.04.731.61.682.809-.05.199-.084.854-.569.925-.357.052-1.63.185-1.909-.091-.257-.256.245-1.435 1.796-1.643" fill="#E1F2FF"/>
    <path d="M67.722 220.599s-.388-.203-1.156.236c-.678.389-1.692 1.009-1.425 1.781.267.771 2.41.484 2.887.321.477-.163.776-.682.692-1.137-.184-.99-.998-1.201-.998-1.201" fill="#FFF"/>
    <path d="M67.722 220.599s-.388-.203-1.156.236c-.678.389-1.692 1.009-1.425 1.781.267.771 2.41.484 2.887.321.477-.163.776-.682.692-1.137-.184-.99-.998-1.201-.998-1.201z" stroke="#52267D"/>
    <path d="M67.867 220.871s-.229-.119-.684.141c-.402.23-1.002.597-.844 1.053.158.458 1.427.287 1.71.191.282-.096.46-.404.41-.673-.11-.587-.592-.712-.592-.712" fill="#E1F2FF"/>
    <path d="M47.443 220.813s-.388-.203-1.156.236c-.678.389-1.691 1.009-1.425 1.78.267.772 2.41.485 2.888.322.476-.163.776-.682.69-1.137-.183-.99-.997-1.201-.997-1.201" fill="#FFF"/>
    <path d="M47.443 220.813s-.388-.203-1.156.236c-.678.389-1.691 1.009-1.425 1.78.267.772 2.41.485 2.888.322.476-.163.776-.682.69-1.137-.183-.99-.997-1.201-.997-1.201z" stroke="#52267D"/>
    <path d="M47.589 221.085s-.23-.119-.685.141c-.401.23-1.001.597-.843 1.053.157.457 1.427.287 1.709.191.282-.097.46-.404.41-.673-.11-.587-.591-.712-.591-.712" fill="#E1F2FF"/>
    <path d="M49.789 220.27c.508-.068 1.239 1.035 1.156 1.37-.084.337-.142 1.447-.963 1.568-.606.089-2.765.314-3.237-.155-.435-.432.417-2.431 3.044-2.783" fill="#FFF"/>
    <path d="M49.789 220.27c.508-.068 1.239 1.035 1.156 1.37-.084.337-.142 1.447-.963 1.568-.606.089-2.765.314-3.237-.155-.435-.432.417-2.431 3.044-2.783z" stroke="#52267D"/>
    <path d="M49.931 220.576c.3-.04.731.61.682.809-.05.199-.084.854-.569.925-.357.052-1.63.185-1.909-.091-.257-.256.245-1.435 1.796-1.643" fill="#E1F2FF"/>
    <path d="M91.283 220.074s-.96-.783-2.239.266c-1.167.959-2.045 2.44-1.522 2.589a5.58 5.58 0 0 0 2.411.117c.842-.155 1.585.007 1.923-1.753.157-.821-.573-1.22-.573-1.22" fill="#FFF"/>
    <path d="M91.283 220.074s-.96-.783-2.239.266c-1.167.959-2.045 2.44-1.522 2.589a5.58 5.58 0 0 0 2.411.117c.842-.155 1.585.007 1.923-1.753.157-.821-.573-1.22-.573-1.22z" stroke="#52267D" stroke-width=".5"/>
    <path d="M91.064 220.359s-.598-.487-1.393.166c-.726.597-1.273 1.519-.947 1.61.325.093.899.184 1.5.074.524-.097.986.004 1.197-1.091.098-.511-.357-.76-.357-.76" fill="#E1F2FF"/>
    <path d="M92.647 220.056c.508-.068 1.24 1.035 1.155 1.371-.083.336-.14 1.446-.963 1.567-.605.089-2.764.314-3.236-.155-.434-.432.416-2.431 3.044-2.783" fill="#FFF"/>
    <path d="M92.647 220.056c.508-.068 1.24 1.035 1.155 1.371-.083.336-.14 1.446-.963 1.567-.605.089-2.764.314-3.236-.155-.434-.432.416-2.431 3.044-2.783z" stroke="#52267D" stroke-width=".5"/>
    <path d="M92.79 220.362c.3-.04.73.61.682.809-.05.199-.084.854-.568.925-.358.052-1.632.185-1.91-.091-.257-.256.245-1.435 1.796-1.643" fill="#E1F2FF"/>
    <path d="M94.451 220.599s-.388-.203-1.156.236c-.678.389-1.69 1.009-1.425 1.781.267.771 2.411.484 2.888.321.476-.163.776-.682.691-1.137-.184-.99-.998-1.201-.998-1.201" fill="#FFF"/>
    <path d="M94.451 220.599s-.388-.203-1.156.236c-.678.389-1.69 1.009-1.425 1.781.267.771 2.411.484 2.888.321.476-.163.776-.682.691-1.137-.184-.99-.998-1.201-.998-1.201z" stroke="#52267D" stroke-width=".5"/>
    <path d="M94.597 220.871s-.23-.119-.685.141c-.4.23-1 .597-.843 1.053.157.458 1.427.287 1.71.191.281-.096.46-.404.41-.673-.11-.587-.592-.712-.592-.712" fill="#E1F2FF"/>
    <path d="M56.458 220.744c.159-.133.349-.17.505-.097.583.276 2.057 1.058 1.753 2.117-.237.825-.741.576-1.704.593l-.726.014a.414.414 0 0 1-.367-.213c-.418-.697-.191-1.796.489-2.37l.05-.044z" fill="#FFF"/>
    <path d="M56.458 220.744c.159-.133.349-.17.505-.097.583.276 2.057 1.058 1.753 2.117-.237.825-.741.576-1.704.593l-.726.014a.414.414 0 0 1-.367-.213c-.418-.697-.191-1.796.489-2.37l.05-.044z" stroke="#52267D"/>
    <path d="M56.533 220.982c.116-.098.253-.125.368-.071.424.2 1.494.768 1.273 1.538-.173.599-.538.419-1.238.43l-.528.01a.3.3 0 0 1-.266-.153c-.304-.508-.14-1.306.355-1.723l.036-.031z" fill="#E1F2FF"/>
    <path d="M53.048 220.428s-.89-.86-2.253.075c-1.245.857-2.245 2.258-1.737 2.451a5.57 5.57 0 0 0 2.393.321c.851-.082 1.578.142 2.064-1.583.227-.804-.467-1.264-.467-1.264" fill="#FFF"/>
    <path d="M53.048 220.428s-.89-.86-2.253.075c-1.245.857-2.245 2.258-1.737 2.451a5.57 5.57 0 0 0 2.393.321c.851-.082 1.578.142 2.064-1.583.227-.804-.467-1.264-.467-1.264z" stroke="#52267D"/>
    <path d="M52.806 220.695s-.555-.537-1.402.047c-.775.532-1.397 1.404-1.08 1.524.315.12.88.259 1.488.2.53-.051.982.088 1.285-.985.141-.501-.29-.786-.29-.786" fill="#E1F2FF"/>
    <path d="M186.829 223.37H62.695a2.256 2.256 0 0 1-2.255-2.255V39.094a2.255 2.255 0 0 1 2.255-2.255h124.134a2.255 2.255 0 0 1 2.255 2.255v182.022a2.256 2.256 0 0 1-2.255 2.255" fill="#FFF"/>
    <path d="M186.829 223.37H62.695a2.256 2.256 0 0 1-2.255-2.255V39.094a2.255 2.255 0 0 1 2.255-2.255h124.134a2.255 2.255 0 0 1 2.255 2.255v182.022a2.256 2.256 0 0 1-2.255 2.255z" stroke="#5E63B6" stroke-width="2"/>
    <path d="M145.851 95.647c0 13.659-11.073 24.732-24.732 24.732-13.66 0-24.733-11.073-24.733-24.732 0-13.66 11.073-24.732 24.733-24.732s24.732 11.073 24.732 24.732" fill="#E1F2FF"/>
    <path d="M148.851 90.647c0 13.659-11.073 24.732-24.732 24.732-13.66 0-24.733-11.073-24.733-24.732 0-13.66 11.073-24.732 24.733-24.732s24.732 11.073 24.732 24.732" fill="#FFF"/>
    <path d="M148.851 90.647c0 13.659-11.073 24.732-24.732 24.732-13.66 0-24.733-11.073-24.733-24.732 0-13.66 11.073-24.732 24.733-24.732s24.732 11.073 24.732 24.732z" stroke="#5E63B6" stroke-width="2"/>
    <path d="M130.266 102.845c.104.308.195.52.223.588.008.007-.009-.004 0 0 0 0 0 .002 0 0 .001.001 0 0 0 0-.7-6.74 3.123-9.549 4.351-14.026.006-.067.02-.139.04-.22.025-.1.045-.204.061-.308.182-1.238-.325-2.68-1.286-4.18-.004-.01-.01-.018-.016-.026-.078-.125-.163-.25-.248-.375l-.004-.004a16.2 16.2 0 0 0-.503-.689c-.018-.024-.035-.049-.054-.072l-.149-.188-.153-.194a22.65 22.65 0 0 1-.158-.189l-.165-.195-.118-.136c-1.51-1.74-3.476-3.459-5.528-4.954 0 0-.015-.023 0 0 .272 2.536.306 5.073.066 7.102-.29 2.445-1.165 5.291-2.379 7.872-2.842-.233-5.747-.892-8.012-1.859-1.893-.808-4.063-2.085-6.137-3.598.023.211.048.42.072.63l.025.187c.02.15.038.3.061.45l.03.205a20.201 20.201 0 0 0 .098.632 25.593 25.593 0 0 0 .107.62c.038.22.08.435.123.651.002.016.007.032.01.05l.121.576c.01.04.018.078.025.117l.121.523c.01.033.018.067.025.102l.15.596a28.163 28.163 0 0 0 .553 1.833l.007.021c.337.98.721 1.881 1.15 2.67.063.114.127.227.192.337.003.004.003.01.006.013l.001.001.178.292.002.002.007.01c.064.104.13.204.197.3v.001c.01.014.018.025.03.038 0 .001-.002.003 0 .004a9.936 9.936 0 0 0 .308.417l.016.021a6.062 6.062 0 0 0 .544.61c.032.031.067.061.1.092.047.046.096.088.144.132.037.032.074.06.112.091l.141.113c.037.028.075.053.114.081l.146.1c.037.024.076.048.114.07.053.032.106.06.157.09.037.02.073.038.11.056.06.028.12.054.181.081.028.01.06.026.09.037.093.038.186.07.28.095.063.018.116.038.167.058 4.5 1.19 8.882-.695 14.377 3.234" fill="#9452BA"/>
    <path d="M93.535 144.37h63.768" fill="#FFF"/>
    <path d="M93.535 144.37h63.768" stroke="#5E63B6" stroke-width="2" stroke-linecap="round" stroke-linejoin="round"/>
    <g>
      <path d="M93.001 164.57h63.767" fill="#FFF"/>
      <path d="M93.001 164.57h63.767" stroke="#5E63B6" stroke-width="2" stroke-linecap="round" stroke-linejoin="round"/>
    </g>
    <g>
      <path d="M93.001 185.822h63.767" fill="#FFF"/>
      <path d="M93.001 185.822h63.767" stroke="#5E63B6" stroke-width="2" stroke-linecap="round" stroke-linejoin="round"/>
    </g>
    <path d="M219.697 22v7M223.197 25.5h-7" stroke="#5E63B6" stroke-width="2" stroke-linecap="round" stroke-linejoin="round"/>
    <path d="M13.222 179.73v3.938M15.19 181.699h-3.938" stroke="#5E63B6" stroke-linecap="round"/>
    <path d="M241.289 161.012v3.938M243.257 162.98h-3.938" stroke="#5E63B6" stroke-linecap="round" stroke-linejoin="round"/>
    <path d="M42.8 45.015v3.938M44.768 46.984H40.83" stroke="#5E63B6" stroke-linecap="round"/>
    <g>
      <path d="M25.35 91.584v8.125" fill="#FFF"/>
      <path d="M25.35 91.584v8.125" stroke="#5E63B6" stroke-width="2" stroke-linecap="round"/>
    </g>
    <g>
      <path d="M29.413 95.647h-8.125" fill="#FFF"/>
      <path d="M29.413 95.647h-8.125" stroke="#5E63B6" stroke-width="2" stroke-linecap="round"/>
    </g>
    <g>
      <path d="M95.382 232.446h67.186" fill="#FFF"/>
      <path d="M95.382 232.446h67.186" stroke="#5E63B6" stroke-width="2" stroke-linecap="round" stroke-linejoin="round"/>
    </g>
    <g>
      <path d="M171.187 232.446h9.141" fill="#FFF"/>
      <path d="M171.187 232.446h9.141" stroke="#5E63B6" stroke-width="2" stroke-linecap="round" stroke-linejoin="round"/>
    </g>
    <g>
      <path d="M87.5 232.37l-5 .075" fill="#FFF"/>
      <path d="M87.5 232.37l-5 .075" stroke="#5E63B6" stroke-width="2" stroke-linecap="round" stroke-linejoin="round"/>
    </g>
    <g>
      <path d="M195.32 223.37h44" fill="#FFF"/>
      <path d="M195.32 223.37h44" stroke="#5E63B6" stroke-width="2" stroke-linecap="round" stroke-linejoin="round"/>
    </g>
    <g>
      <path d="M246.167 223.13h6.974" fill="#FFF"/>
      <path d="M246.167 223.13h6.974" stroke="#5E63B6" stroke-width="2" stroke-linecap="round" stroke-linejoin="round"/>
    </g>
    <g>
      <path d="M3 223.13h8.973" fill="#FFF"/>
      <path d="M3 223.13h8.973" stroke="#5E63B6" stroke-width="2" stroke-linecap="round" stroke-linejoin="round"/>
    </g>
  </g>
</svg>
