<svg xmlns="http://www.w3.org/2000/svg" width="256" height="256">
  <g fill="none" fill-rule="evenodd">
    <path fill="#E1F2FF" fill-rule="nonzero" d="M25 228.56C25 171.36 71.37 125 128.56 125c57.2 0 103.56 46.37 103.56 103.56H25z"/>
    <path fill="#FFF" fill-rule="nonzero" stroke="#375D81" stroke-width="4" d="M212.48 177.24c0-19.8-16.05-35.84-35.84-35.84H79.36c-19.8 0-35.84 16.05-35.84 35.84v41.88h168.96v-41.88z"/>
    <path fill="#9452BA" fill-rule="nonzero" stroke="#52267D" stroke-width="2" d="M165.5 188.5V187v20.97c.17-.15 1.48-1.3 11.13-10.1 3.16-3.17 3.15-8.3 0-11.48-4-4.07-7.95-2.3-11.13.6v1.5zM165.5 188.5V187v20.97c-.18-.15-1.5-1.3-11.14-10.1-3.16-3.17-3.14-8.3 0-11.48 4-4.07 7.96-2.3 11.13.6v1.5z"/>
    <path fill="#FFF" fill-rule="nonzero" stroke="#375D81" stroke-width="3" d="M106.24 105.56h43.52c17.67 0 32 14.33 32 32s-14.33 32-32 32h-43.52c-17.67 0-32-14.33-32-32s14.33-32 32-32z"/>
    <path fill="#FFF" fill-rule="nonzero" stroke="#375D81" stroke-width="3" d="M110.08 36.44h35.84c16.97 0 30.72 13.75 30.72 30.72v61.44c0 16.97-13.75 30.72-30.72 30.72h-35.84c-16.97 0-30.72-13.75-30.72-30.72V67.16c0-16.97 13.75-30.72 30.72-30.72z"/>
    <path fill="#375D81" fill-rule="nonzero" d="M160 87.1h-15.36c-2.12 0-3.84.7-3.84 1.56 0 .85 1.72 1.54 3.84 1.54H160c2.12 0 3.84-.7 3.84-1.54 0-.86-1.72-1.55-3.84-1.55z"/>
    <path fill="#9ACDED" fill-rule="nonzero" d="M135.2 121s-5.23 3.5-7.68 3.5c-2.67 0-7.68-3.5-7.68-3.5-2.12 0-3.84.86-3.84 1.92 0 1.05 1.72 1.9 3.84 1.9 0 0 5.17 3.18 7.68 3.18 2.6 0 7.68-3.17 7.68-3.17 2.12 0 3.84-.86 3.84-1.9 0-1.07-1.72-1.93-3.84-1.93z"/>
    <path fill="#375D81" d="M111.36 87.1H96c-2.12 0-3.84.7-3.84 1.56 0 .85 1.72 1.54 3.84 1.54h15.36c2.12 0 3.84-.7 3.84-1.54 0-.86-1.72-1.55-3.84-1.55z"/>
    <path fill="#9ACDED" fill-rule="nonzero" d="M103.68 97.88c-3.54 0-6.4 2.87-6.4 6.4 0 3.54 2.86 6.4 6.4 6.4 3.54 0 6.4-2.86 6.4-6.4 0-3.53-2.86-6.4-6.4-6.4z"/>
    <path fill="#9ACDED" d="M152.32 97.88c-3.54 0-6.4 2.87-6.4 6.4 0 3.54 2.86 6.4 6.4 6.4 3.54 0 6.4-2.86 6.4-6.4 0-3.53-2.86-6.4-6.4-6.4zM128.26 138c-1.8 0-3.26 1.43-3.26 3.2 0 1.77 1.46 3.2 3.26 3.2 1.8 0 3.26-1.43 3.26-3.2 0-1.77-1.46-3.2-3.26-3.2z"/>
    <path fill="#FFF" fill-rule="nonzero" stroke="#375D81" stroke-width="3" d="M79.36 67.16h97.28c5.95 0 20.48-11.03 20.48-33.28 0-4.37-2.23-7.68-7.68-7.68 0 0-71.97-2.83-107.52 10.24-9.82 3.72-12.8 12.6-12.8 17.92 0 .6.02 1.16.07 1.73l-.08.82v15.36c0 6.2 4.4 11.36 10.24 12.54V67.16z"/>
    <path fill="#FFF" fill-rule="nonzero" stroke="#E1F2FF" stroke-width="3" d="M102.5 58h75.47M52.5 171.5v39" stroke-linecap="round" stroke-linejoin="round"/>
    <g fill="#FFF" fill-rule="nonzero" stroke="#375D81" stroke-width="3" stroke-linecap="round" stroke-linejoin="round">
      <path d="M20 220h36M62 220h176.9M246 220h6.97M3 220h8.97M95 230h67.2M171 230h9.14M87 229l-5 .08"/>
    </g>
    <g stroke="#375D81" stroke-linecap="round">
      <path stroke-width="2" d="M206.98 68.4v7M210.48 71.9h-7M80 24v7M84 28h-7" stroke-linejoin="round"/>
      <path d="M42.73 188.68v3.94M44.7 190.65h-3.94"/>
      <path d="M217.73 128.68v3.94M219.7 130.65h-3.94" stroke-linejoin="round"/>
      <path d="M48.73 88.68v3.94M50.7 90.65h-3.94"/>
      <path fill="#FFF" fill-rule="nonzero" stroke-width="2" d="M26.42 127.28v8.12M30.48 131.34h-8.13"/>
    </g>
  </g>
</svg>