<svg width="256" height="256" xmlns="http://www.w3.org/2000/svg" xmlns:xlink="http://www.w3.org/1999/xlink">
  <defs>
    <path d="M15.667 6.295s-21 13.993-12.833 30.307 22.324 21.825 26.575 21.933c4.251.108 2.279 9.024 7.685 8.953 5.406-.071 9.995-1.253 10.867-2.663 2.555 1.947 6.2 4.931 11.539 4.094 5.339-.837 16.922-4.2 16.878-7.353-.044-3.153 10.868-18.284 10.868-18.284L90.5 30.705 82.175 4.582 27.726.416 15.667 6.295z" id="a"/>
  </defs>
  <g fill="none" fill-rule="evenodd">
    <path d="M27.885 223.1c.177-57.068 46.49-103.236 103.557-103.236 57.068 0 103.38 46.168 103.558 103.236H27.885z" fill="#E1F2FF"/>
    <g transform="translate(81 61)">
      <rect fill="#FFF" x="1.821" y="1.77" width="98.604" height="128.823" rx="1.641"/>
      <path d="M98.784 131.593H3.461a2.644 2.644 0 0 1-2.641-2.641V3.41A2.643 2.643 0 0 1 3.461.77h95.323a2.643 2.643 0 0 1 2.641 2.64v125.542a2.644 2.644 0 0 1-2.641 2.641zM3.461 2.77a.641.641 0 0 0-.641.64v125.542c0 .354.287.641.641.641h95.323a.641.641 0 0 0 .641-.641V3.41a.641.641 0 0 0-.641-.64H3.461z" fill="#5E63B6" fill-rule="nonzero"/>
    </g>
    <g transform="translate(108 81)">
      <circle fill="#E1F2FF" cx="21.094" cy="25.949" r="20.114"/>
      <g transform="translate(4)">
        <circle fill="#FFF" cx="21.534" cy="21.883" r="20.114"/>
        <path d="M21.534 43C9.874 43 .42 33.547.42 21.886.42 10.226 9.873.772 21.534.772c11.66 0 21.114 9.453 21.114 21.114-.013 11.655-9.459 21.1-21.114 21.114zm0-40.228C10.978 2.772 2.42 11.33 2.42 21.886 2.42 32.442 10.978 41 21.534 41c10.556 0 19.114-8.558 19.114-19.114-.01-10.553-8.561-19.105-19.114-19.117v.003z" fill="#5E63B6" fill-rule="nonzero"/>
      </g>
      <path d="M30.534 31.8c.084.251.159.422.181.478.007.006-.007 0 0 0-.568-5.482 2.54-7.766 3.54-11.407.006-.06.017-.12.032-.179.02-.082.037-.166.05-.25a5.217 5.217 0 0 0-1.059-3.419c-.064-.1-.133-.2-.2-.305a15.518 15.518 0 0 0-.409-.561c-.015-.019-.028-.039-.044-.058-.04-.051-.082-.1-.121-.153l-.125-.158-.129-.153a10.168 10.168 0 0 0-.133-.159 27.6 27.6 0 0 0-4.6-4.139c.225 1.918.243 3.854.054 5.775a21.793 21.793 0 0 1-1.935 6.4A21.793 21.793 0 0 1 19.122 22a26.491 26.491 0 0 1-4.991-2.927c.018.172.039.341.058.512l.021.153c.016.122.03.243.049.365l.024.168.056.366.024.148c.026.154.051.306.08.459a21.53 21.53 0 0 0 .107.574c0 .014.006.026.009.04.032.158.064.313.1.469.007.033.014.064.02.1a21.76 21.76 0 0 0 .121.508 23.41 23.41 0 0 0 .571 1.973l.005.018c.252.748.565 1.474.935 2.171.052.093.1.185.157.274v.011c.047.081.1.162.144.238v.008c.053.084.106.166.161.244l.023.032c.07.1.143.2.214.294l.037.046.013.018c.083.1.168.206.257.3.06.067.122.131.185.193.026.027.054.05.08.076.026.026.079.072.119.107.04.035.059.049.091.074l.114.091c.038.03.061.045.093.066.032.021.079.056.119.083l.093.057c.042.025.086.048.127.072l.089.046.147.066c.023.008.049.021.074.03.074.03.15.056.227.077.052.015.095.031.137.047 3.659.967 7.223-.565 11.692 2.63" fill="#9452BA"/>
    </g>
    <path d="M151.208 143.943H113.42a1 1 0 1 1 0-2h37.788a1 1 0 1 1 0 2zM151.208 154.967H113.42a1 1 0 1 1 0-2h37.788a1 1 0 1 1 0 2zM151.208 166.427H113.42a1 1 0 1 1 0-2h37.788a1 1 0 1 1 0 2z" fill="#5E63B6"/>
    <path d="M55.834 235.916H33.5a1 1 0 1 1 0-2h22.334a1 1 0 1 1 0 2zM248.109 224.953h-5a1 1 0 1 1 0-2h5a1 1 0 1 1 0 2zM13.224 224.953H7.891a1 1 0 1 1 0-2h5.333a1 1 0 1 1 0 2z" fill="#ACD3EF"/>
    <g fill="#ACD3EF">
      <path d="M154.964 235.916H99.237a1 1 0 0 1 0-2h55.727a1 1 0 0 1 0 2zM172.943 235.916h-11.334a1 1 0 0 1 0-2h11.334a1 1 0 0 1 0 2zM94.276 235.916h-4.333a1 1 0 1 1 0-2h4.333a1 1 0 1 1 0 2z"/>
    </g>
    <path d="M26.109 235.916h-3.666a1 1 0 1 1 0-2h3.666a1 1 0 1 1 0 2zM233.77 235.916H220.1a1 1 0 1 1 0-2h13.67a1 1 0 1 1 0 2z" fill="#ACD3EF"/>
    <path d="M238.938 223.953h-16.056c3.483-12.008-3.26-24.6-15.185-28.357-11.926-3.757-24.668 2.697-28.697 14.533a15.361 15.361 0 0 0-18.686 13.824l-13.717.036c-.534-9.564-7.883-17.352-17.4-18.44a32.614 32.614 0 0 0-58.097-12.86 26.433 26.433 0 0 0-32.28 31.3H22.557" fill="#FFF"/>
    <path d="M145.649 224.99l-.052-.946a18.593 18.593 0 0 0-16.518-17.5l-.722-.081-.146-.711c-3.076-14.654-15.984-25.16-30.957-25.195A31.358 31.358 0 0 0 71.9 193.286l-.4.534-.647-.162a25.437 25.437 0 0 0-31.061 30.117l.266 1.213h-17.5a1 1 0 0 1 0-2H37.6a27.448 27.448 0 0 1 33.1-31.423 33.324 33.324 0 0 1 26.557-13.009c15.653.039 29.222 10.844 32.764 26.092a20.58 20.58 0 0 1 17.5 18.338l11.892-.031a16.356 16.356 0 0 1 18.935-13.972c4.473-11.832 17.358-18.164 29.458-14.476 12.1 3.688 19.262 16.13 16.375 28.446h14.759a1 1 0 1 1 0 2h-17.39l.374-1.28c3.353-11.494-3.096-23.56-14.516-27.158-11.42-3.598-23.621 2.593-27.462 13.933l-.288.851-.877-.194a14.36 14.36 0 0 0-17.47 12.924l-.071.922-15.591.039z" fill="#ACD3EF"/>
    <path d="M62.427 207.356s-2.271.462-2.271-.362c0-12.1 34.6-14.926 37.777-2.169 1.049 4.211-23.1 5.305-24.638-.131l-10.868 2.662" fill="#E1F2FF"/>
    <g transform="translate(25 140)">
      <mask id="b" fill="#fff">
        <use xlink:href="#a"/>
      </mask>
      <g mask="url(#b)">
        <g transform="translate(13 17)">
          <path d="M50.974 104.388h4.979a4.169 4.169 0 0 0 3.886-2.644c1.767-4.55 1.327-8.731 1.538-12.307.391-6.626-.644-10.02-1.631-15.561l-7.474.173s.635 2.753 1.058 11.011c.131 2.556-4.091 12.819-3.893 17.854a1.534 1.534 0 0 0 1.537 1.474z" fill="#9452BA"/>
          <path d="M55.953 105.388h-4.979a2.531 2.531 0 0 1-2.537-2.434c-.121-3.082 1.241-7.727 2.443-11.825a31.844 31.844 0 0 0 1.451-6.017A77.3 77.3 0 0 0 51.3 74.273l-.271-1.194 9.554-.222.15.843c.181 1.015.364 1.957.539 2.861a45.84 45.84 0 0 1 1.106 12.934 58.078 58.078 0 0 0-.075 2.53 27.63 27.63 0 0 1-1.529 10.082 5.2 5.2 0 0 1-4.821 3.281zm-2.5-30.366c.228 1.51.6 4.584.872 9.988.061 1.183-.542 3.309-1.53 6.682-1.1 3.754-2.471 8.428-2.363 11.183.012.288.25.515.538.513h4.979a3.18 3.18 0 0 0 2.953-2.006 25.627 25.627 0 0 0 1.394-9.391c.014-.9.029-1.774.079-2.613a43.609 43.609 0 0 0-1.074-12.437c-.127-.658-.258-1.335-.39-2.045l-5.458.126z" fill="#52267D" fill-rule="nonzero"/>
          <path d="M36.48 80.719L30.468 73.9l-3.712.148s-.521 5.671-.735 8.046a112.064 112.064 0 0 1-3.176 15.987 14.494 14.494 0 0 0-.6 3.257 2.941 2.941 0 0 0 2.971 3.049h4.411a5.639 5.639 0 0 0 5.485-4.205c1.962-7.753 1.368-19.463 1.368-19.463z" fill="#9452BA"/>
          <path d="M29.623 105.388h-4.411a4.03 4.03 0 0 1-2.917-1.256 3.8 3.8 0 0 1-1.052-2.849c.08-1.183.296-2.352.644-3.485a112.035 112.035 0 0 0 3.138-15.793c.214-2.375.735-8.048.735-8.048l.08-.873 5.063-.2 6.558 7.436.018.349c.024.484.578 11.951-1.4 19.761a6.62 6.62 0 0 1-6.456 4.958zm-1.951-30.374c-.154 1.683-.492 5.372-.654 7.171a112.936 112.936 0 0 1-3.213 16.181 13.46 13.46 0 0 0-.566 3.029c-.027.505.158.999.509 1.363.381.401.91.629 1.464.63h4.411a4.622 4.622 0 0 0 4.515-3.45c1.72-6.787 1.434-16.841 1.357-18.823l-5.463-6.2-2.36.099z" fill="#52267D" fill-rule="nonzero"/>
          <path d="M27.929 87.434l-1.271-1.147 1.2-1.055.33.375-.395.347 1.565-.371.5 1.107-1.929.744zm-.108-.771l.215.195 1.154-.444-.114-.249-.8.189.014.288-.469.021zm-.411-.37l.294.265-.023-.5-.271.235z" fill="#52267D" fill-rule="nonzero"/>
          <path d="M28.062 55.332c4.379-.089 8.484-3.1 17.42-3.517.108-.53.27-1.048.486-1.544 1.617-3.5 3.9-13.593 2.434-20.223l-1.16-5.245a24.306 24.306 0 0 1-.572-5.241 10.672 10.672 0 0 1 .834-4.14 10.442 10.442 0 0 1 .704-1.371 10.7 10.7 0 0 1 3.582-3.582 10.587 10.587 0 0 1 5.515-1.54h1.745a10.606 10.606 0 0 1 8.208 3.871c.395.48.747.992 1.052 1.533a9.644 9.644 0 0 1 .541 1.093 10.575 10.575 0 0 1 .836 4.14 2.653 2.653 0 0 1-2.652 2.652h-10.89l1.648 9.452c1.935 9.71 1.354 16.2-.145 20.532-.334.965-2.236 4.386-2.236 4.386 5.445 8.592 13.8 12.348 22.725 13.438 7.591.927 23.978-6 15.53-14-8.448-8 1.76-3.029 3.263-2.015 1.503 1.014 10.192 8.522.762 19.539-3.988 4.658-8.506 8.893-19.375 12.14-1.743.52-11.255 1.212-16.376 2.682-15.245 4.376-27.64-.382-34.585-10.446-6.917-10.026-1.024-22.558.706-22.594z" fill="#9452BA"/>
          <path d="M51.048 90.97c-10.139 0-18.894-4.338-24.516-12.483-5.514-7.992-3.341-17.244-1.186-21.451 1.371-2.676 2.368-2.7 2.7-2.7a20.283 20.283 0 0 0 5.521-1.221 44.027 44.027 0 0 1 11.131-2.254c.098-.344.221-.68.369-1.006 1.536-3.326 3.763-13.256 2.364-19.587l-1.16-5.245a25.251 25.251 0 0 1-.6-5.457 11.7 11.7 0 0 1 .367-2.909 11.632 11.632 0 0 1 1.316-3.124 11.676 11.676 0 0 1 3.919-3.919 11.631 11.631 0 0 1 6.035-1.685h1.742a11.562 11.562 0 0 1 8.228 3.409 11.513 11.513 0 0 1 1.902 2.503 11.32 11.32 0 0 1 1.14 2.816 11.663 11.663 0 0 1 .367 2.909 3.653 3.653 0 0 1-3.652 3.652h-9.7l1.444 8.28c1.718 8.624 1.657 15.707-.185 21.032a43.7 43.7 0 0 1-2.017 4.016c4.7 7.1 12 11.305 21.681 12.488 5.2.624 14.429-2.705 16.386-6.861.842-1.789.3-3.563-1.665-5.425-3.344-3.17-4.185-4.6-3.332-5.663 1.488-1.847 7.781 2.053 7.842 2.094a13.687 13.687 0 0 1 5.426 8.844c.541 3.986-.961 8.082-4.464 12.174-3.793 4.431-8.449 9.042-19.848 12.448-1.581.33-3.18.573-4.787.727a89.61 89.61 0 0 0-11.6 1.958 40.509 40.509 0 0 1-11.168 1.64zM28.227 56.328c-.482.376-1.813 2.456-2.6 5.869-.738 3.211-1.389 9.45 2.549 15.154 7.2 10.43 19.405 14.094 33.486 10.053a90.651 90.651 0 0 1 11.9-2.02c2-.25 3.886-.487 4.463-.659 10.887-3.252 15.154-7.453 18.9-11.833 3.116-3.64 4.463-7.208 4-10.6a11.754 11.754 0 0 0-4.563-7.454 24.5 24.5 0 0 0-4.441-2.075 27.125 27.125 0 0 0 2.424 2.535c3.28 3.108 2.952 5.918 2.1 7.729-2.517 5.346-12.953 8.664-18.437 7.993-10.532-1.286-18.42-5.962-23.449-13.9l-.318-.5.289-.519c.72-1.293 1.943-3.583 2.165-4.226 1.725-4.983 1.762-11.716.11-20.01l-1.857-10.647h12.079c.912 0 1.652-.74 1.652-1.652 0-.33-.017-.66-.05-.987a9.48 9.48 0 0 0-1.2-3.755 9.569 9.569 0 0 0-1.573-2.07 9.573 9.573 0 0 0-6.815-2.825h-1.734a9.627 9.627 0 0 0-8.881 5.882 9.419 9.419 0 0 0-.564 1.81 9.722 9.722 0 0 0-.195 1.945c0 1.69.184 3.375.549 5.025l1.16 5.245c1.515 6.857-.824 17.223-2.5 20.858-.186.43-.326.88-.418 1.34l-.165.748-.766.036a41.8 41.8 0 0 0-11.371 2.207 22.671 22.671 0 0 1-5.929 1.303z" fill="#52267D" fill-rule="nonzero"/>
          <path d="M37.521 40.862c.35-11.26-8.587-20.109-18.744-21.979-2.108-.389-2.794-1.05-5.1-1.05h-1.768c-5.951 0-10.776 4.825-10.776 10.776A2.687 2.687 0 0 0 3.82 31.3s18.119 0 18.2-.013h1.477-1.481c4.007 1.7 6.5 6.822 6.94 9.574.672 3.296.262 6.72-1.169 9.764a10.561 10.561 0 0 0-.854 5.538l.1.036c.079 1.05.24 2.094.481 3.119 1.706-1.189 4.36-2.978 4.844-3.234 1.047-.552 3.411-1.81 4.468-2.416 6.766-3.874.497-6.402.695-12.806z" fill="#9452BA"/>
          <path d="M26.877 60.987l-.331-1.444c-.2-.86-.348-1.73-.444-2.607l-.11-.037-.053-.655a11.272 11.272 0 0 1 .961-6.073 14.714 14.714 0 0 0 1.073-9.151c-.361-2.254-2.535-7.073-6.173-8.736-.763 0-4.053.007-17.981.011a3.689 3.689 0 0 1-3.686-3.686c.007-6.5 5.275-11.769 11.776-11.776h1.767c1.173-.007 2.339.19 3.444.585.602.2 1.216.362 1.839.482 9.773 1.8 19.951 10.469 19.562 22.993a11.785 11.785 0 0 0 1.395 5.416c1.189 2.634 2.42 5.358-2.586 8.227-1.119.641-3.627 1.974-4.5 2.434-.385.2-2.821 1.833-4.738 3.17l-1.215.847zm1.018-5.553l.1.032.047.664c.033.481.091.982.172 1.5 1.464-1 3.233-2.187 3.688-2.428 1.248-.658 3.459-1.84 4.438-2.4 3.43-1.966 2.94-3.05 1.757-5.669a13.621 13.621 0 0 1-1.572-6.3c.355-11.407-8.97-19.315-17.924-20.964a16.264 16.264 0 0 1-2.077-.54 8.188 8.188 0 0 0-2.844-.493h-1.771c-5.397.006-9.77 4.38-9.776 9.776.002.93.756 1.684 1.686 1.686 6.136 0 17.832-.007 18.179-.013h3.916l-1.363 1.364a16.027 16.027 0 0 1 5.4 9.055c.703 3.505.26 7.144-1.265 10.378a9.1 9.1 0 0 0-.786 4.352h-.005z" fill="#52267D" fill-rule="nonzero"/>
          <path d="M31.751 53.872c-.089-1.739-.355-2.632-.16-3.339 1.123-4.074 1.488-5.359 1.488-9.671a13.022 13.022 0 0 0-6.148-10.773 6.92 6.92 0 0 0-4.911 1.2c4.007 1.7 6.5 6.822 6.94 9.574.672 3.296.262 6.72-1.169 9.764a10.561 10.561 0 0 0-.854 5.538s4.916 1.846 4.814-2.292" fill="#F3E3FF"/>
          <path d="M29.168 57.072a7.641 7.641 0 0 1-2.407-.44l-.3-.111-.026-.317c-.22-1.981.093-3.986.908-5.805a15.2 15.2 0 0 0 1.12-9.458c-.457-2.867-3.021-7.656-6.642-9.193l-.812-.345.713-.519a7.088 7.088 0 0 1 5.466-1.223 13.478 13.478 0 0 1 6.388 11.2 28.3 28.3 0 0 1-1.475 9.694l-.031.11a4.461 4.461 0 0 0 .031 1.5c.051.461.112 1.01.146 1.684v.013a2.966 2.966 0 0 1-1.1 2.671c-.588.38-1.28.568-1.979.539zM27.412 55.8c.8.239 2.32.518 3.158-.08a2.04 2.04 0 0 0 .681-1.824c-.033-.647-.092-1.175-.141-1.618a5.04 5.04 0 0 1 0-1.873l.031-.111a27.215 27.215 0 0 0 1.44-9.428 12.456 12.456 0 0 0-5.91-10.347 7.022 7.022 0 0 0-3.619.725c3.652 2.055 5.961 6.772 6.4 9.543a16.179 16.179 0 0 1-1.218 10.072 9.893 9.893 0 0 0-.822 4.941z" fill="#52267D" fill-rule="nonzero"/>
          <path d="M6.255 19.663a2.955 2.955 0 0 1 1.866-2.629c.57-.228 1.612-.653 1.612-.653s1.114 2.356-.148 2.95a4.745 4.745 0 0 1-3.33.332z" fill="#FFF"/>
          <path d="M7.429 20.321a4.42 4.42 0 0 1-1.337-.185l-.336-.116v-.356a3.438 3.438 0 0 1 2.181-3.095c.569-.227 1.608-.651 1.608-.651l.438-.179.2.428c.43.853.565 1.824.384 2.761-.13.378-.408.687-.771.855a5.541 5.541 0 0 1-2.367.538zm-.623-1.047a4.519 4.519 0 0 0 2.566-.4c.512-.241.3-1.22.082-1.845-.351.143-.825.335-1.147.464a2.4 2.4 0 0 0-1.501 1.781z" fill="#52267D" fill-rule="nonzero"/>
          <path d="M10.936 18.34a3.136 3.136 0 0 1 2.938-2.938c.538-.07 1.942-.036 1.942-.036s.648 2.713-.873 2.974c-1.33.183-2.678.183-4.007 0z" fill="#FFF"/>
          <path d="M13.067 18.983c-.736 0-1.47-.05-2.2-.149l-.434-.064.009-.441a3.623 3.623 0 0 1 3.373-3.424c.671-.047 1.344-.06 2.017-.039l.385.01.09.374c.26.964.178 1.989-.23 2.9a1.531 1.531 0 0 1-1.046.681c-.65.105-1.306.156-1.964.152zM11.5 17.9c1.116.124 2.244.105 3.355-.055a.528.528 0 0 0 .379-.245c.231-.55.288-1.159.161-1.742-.487-.013-.975 0-1.461.038A2.622 2.622 0 0 0 11.5 17.9z" fill="#52267D" fill-rule="nonzero"/>
          <path d="M16.672 18.586s.38-2.844 2.935-2.063c.669.212 1.26.617 1.7 1.164 0 0-.509 2.165-1.525 1.922a19.533 19.533 0 0 1-3.11-1.023z" fill="#FFF"/>
          <path d="M19.937 20.128c-.093 0-.185-.012-.275-.033a19.747 19.747 0 0 1-3.194-1.053l-.34-.152.05-.37a3.47 3.47 0 0 1 1.326-2.272 2.6 2.6 0 0 1 2.25-.2c.77.245 1.45.714 1.954 1.347l.136.185-.053.224a3.905 3.905 0 0 1-1.225 2.142 1.184 1.184 0 0 1-.629.182zm-2.682-1.842a19.9 19.9 0 0 0 2.64.836.164.164 0 0 0 .147-.03c.35-.352.597-.795.711-1.279A3.1 3.1 0 0 0 19.461 17a1.629 1.629 0 0 0-1.414.086 2.14 2.14 0 0 0-.792 1.2z" fill="#52267D" fill-rule="nonzero"/>
          <path d="M24.091 32.391s5.956-3.238 4.823-8.686a32.388 32.388 0 0 1 3.671 3.655c0 1.066.2 5.3-5.653 8.138a32.8 32.8 0 0 0-2.841-3.107z" fill="#FFF"/>
          <path d="M26.824 36.107l-.252-.262c-.415-.431-.8-.9-1.172-1.347a10.746 10.746 0 0 0-1.609-1.707l-.622-.467.683-.373c.056-.03 5.615-3.131 4.573-8.144l-.289-1.391 1.095.9a32.5 32.5 0 0 1 3.753 3.74l.1.134v.167c.019 3.813-1.979 6.669-5.935 8.588l-.325.162zm-1.9-3.652c.44.446.855.915 1.244 1.406.282.342.572.693.871 1.023 4.973-2.558 5.047-6.085 5.043-7.352a29.71 29.71 0 0 0-2.53-2.591c.073 3.928-3.237 6.578-4.624 7.514h-.004z" fill="#52267D" fill-rule="nonzero"/>
          <path d="M7.066 19.146c.024-.605.402-1.14.965-1.362.3-.118.835-.337.835-.337s.577 1.219-.077 1.526a2.456 2.456 0 0 1-1.723.173zM12.167 17.76a1.6 1.6 0 0 1 1.5-1.5c.274-.036.99-.018.99-.018s.33 1.383-.446 1.516a7.484 7.484 0 0 1-2.044.002zM17.591 18.381s.2-1.509 1.557-1.094a1.9 1.9 0 0 1 .9.617s-.27 1.149-.809 1.02a10.4 10.4 0 0 1-1.648-.543z" fill="#F3E3FF"/>
          <path d="M15.58 24.525h.479a2.483 2.483 0 0 1 0 4.966h-5.445a4.966 4.966 0 0 1 4.966-4.966z" fill="#ECDDF1" opacity=".3"/>
          <path d="M14.609 25.5h.991a1.951 1.951 0 1 1 0 3.9h-4.892a3.9 3.9 0 0 1 3.9-3.9h.001z" fill="#FFF"/>
          <path d="M15.6 29.9h-5.392v-.5a4.407 4.407 0 0 1 4.4-4.4h.992a2.451 2.451 0 1 1 0 4.9zm-4.356-1H15.6a1.451 1.451 0 1 0 0-2.9h-.992a3.405 3.405 0 0 0-3.363 2.9h-.001z" fill="#52267D" fill-rule="nonzero"/>
          <circle fill="#52267D" cx="12.684" cy="28.332" r="1.09"/>
          <path d="M3.57 30.477c.31-.067.587-.239.784-.487l.365-.459-.813.175-.479.1a.342.342 0 0 0-.262.406.341.341 0 0 0 .405.265z" fill="#52267D"/>
          <path d="M25.1 32.5s4.588-2.471 4.518-7.447a9.376 9.376 0 0 1 2.505 2.365 7.972 7.972 0 0 1-1.447 3.564c-1.697 1.834-3.461 2.399-5.576 1.518z" fill="#E1F2FF"/>
          <path d="M29.44 31.625a16.469 16.469 0 0 1-3.573 2.723" fill="#FFF"/>
          <path d="M26.091 34.8l-.447-.894c1.26-.717 2.417-1.6 3.44-2.626l.713.7a16.83 16.83 0 0 1-3.706 2.82z" fill="#52267D"/>
          <path d="M47.432 50.973l-1.022-2.017c-3.817-9.381-4.406-14.89-2.426-23.844l1.16-5.246c.38-1.721.572-3.478.572-5.241A10.636 10.636 0 0 0 35.079 3.989h-1.717c-5.794 0-10.491 4.697-10.491 10.491v.3a2.5 2.5 0 0 0 2.5 2.5H36.24l-1.648 9.452c-5.047 25.331-4.541 35.6 5.391 33.49" fill="#9452BA"/>
          <path d="M37.646 61.489a6.137 6.137 0 0 1-4.528-1.708c-3.686-3.638-3.548-12.961.493-33.247l1.44-8.257h-9.684a3.5 3.5 0 0 1-3.5-3.5v-.3c.007-6.343 5.148-11.484 11.491-11.492h1.717c6.424.007 11.63 5.213 11.637 11.637a25.251 25.251 0 0 1-.6 5.457l-1.16 5.245c-1.935 8.751-1.4 13.966 2.376 23.252l.987 1.942-1.783.9-1.022-2.017c-3.947-9.691-4.525-15.4-2.511-24.512l1.16-5.245a23.31 23.31 0 0 0 .549-5.026 9.648 9.648 0 0 0-9.637-9.637h-1.709a9.5 9.5 0 0 0-9.491 9.492v.3a1.5 1.5 0 0 0 1.5 1.5H37.43L35.577 26.9c-2.678 13.44-4.892 27.666-1.054 31.457 1.122 1.107 2.84 1.395 5.251.881l.416 1.957c-.835.187-1.688.285-2.544.294z" fill="#52267D"/>
          <path d="M28.113 5.247a3.276 3.276 0 0 1 2.007-2.576c.471-.12.965-.116 1.434.014 0 0 1.058 1.655-.178 2.237a4.653 4.653 0 0 1-3.263.325z" fill="#FFF"/>
          <path d="M29.264 5.9a4.333 4.333 0 0 1-1.314-.182l-.372-.128.037-.392a3.763 3.763 0 0 1 2.319-2.993 3.229 3.229 0 0 1 1.752 0l.186.051.1.162c.396.596.552 1.32.437 2.027a1.469 1.469 0 0 1-.824.931 5.439 5.439 0 0 1-2.321.524zm-.555-1.035a4.378 4.378 0 0 0 2.454-.4.469.469 0 0 0 .289-.305 1.678 1.678 0 0 0-.223-1.04 1.952 1.952 0 0 0-.924.01 2.709 2.709 0 0 0-1.596 1.737v-.002z" fill="#52267D" fill-rule="nonzero"/>
          <path d="M32.475 4.639a3.549 3.549 0 0 1 3.327-3.327 8.167 8.167 0 0 1 1.392-.019s1.541 3.051-.182 3.346a16.674 16.674 0 0 1-4.537 0z" fill="#FFF"/>
          <path d="M34.888 5.3a18.24 18.24 0 0 1-2.488-.168l-.434-.065.009-.44A4.038 4.038 0 0 1 35.738.815c.496-.05.996-.057 1.494-.022l.282.022.127.251c.111.221 1.075 2.193.5 3.323a1.372 1.372 0 0 1-1.049.742 13.3 13.3 0 0 1-2.204.169zm-1.849-1.1c1.294.145 2.6.126 3.889-.057a.382.382 0 0 0 .325-.206 3.393 3.393 0 0 0-.383-2.163 6.584 6.584 0 0 0-1 .03A3.052 3.052 0 0 0 33.039 4.2z" fill="#52267D" fill-rule="nonzero"/>
          <path d="M38.32 5.3s.443-2.776 2.926-1.947a3.5 3.5 0 0 1 1.633 1.182s-.552 2.108-1.541 1.845A19.135 19.135 0 0 1 38.32 5.3z" fill="#FFF"/>
          <path d="M41.508 6.9c-.101 0-.202-.013-.3-.039a19.4 19.4 0 0 1-3.105-1.112l-.336-.162.058-.368a3.424 3.424 0 0 1 1.361-2.2 2.551 2.551 0 0 1 2.216-.143 3.986 3.986 0 0 1 1.887 1.371l.131.189-.059.222a3.747 3.747 0 0 1-1.257 2.073c-.18.11-.386.167-.596.169zm-2.6-1.886c.831.352 1.685.646 2.557.881a.159.159 0 0 0 .136-.025c.35-.333.6-.757.72-1.225a3.014 3.014 0 0 0-1.236-.819 1.593 1.593 0 0 0-1.382.05c-.386.279-.666.68-.793 1.14l-.002-.002z" fill="#52267D" fill-rule="nonzero"/>
          <path d="M28.29 55a4.936 4.936 0 0 1 1.787-.861" fill="#F3E3FF"/>
          <path d="M28.59 55.4l-.6-.8a5.494 5.494 0 0 1 1.97-.947l.234.972a4.426 4.426 0 0 0-1.604.775z" fill="#52267D"/>
          <path d="M31.891 54.939c-1.777-7.222 1.429-21.029 2.018-24.428L36.243 16.9h1.024a2.348 2.348 0 0 1 2.093 2.694L37.669 31.4c-.573 4-1.169 22.514 5.78 26.491 1.482.849 3.892.292 4.8-.141 3.3-1.578 4.253-5.7 4.976-9.015 1.5-6.869.331-12.262 0-17.647l-.348-6.737A2.372 2.372 0 0 1 55 21.841h1.24l2.236 13.615c.672 3.878 2.4 17.322-5.519 23.626-.143.114 1.926.577 1.326 1.637C51.9 64.931 45 65.6 43.7 67.4c-5.007 6.944-.318 21.74-.318 21.74a35.912 35.912 0 0 1-9-5.3c-8.047-7.212-9.068-17.658-9.105-20.734-.045-3.678.921-5.961 2.111-7.323" fill="#F3E3FF"/>
          <path d="M44.174 90l-.982-.39a36.061 36.061 0 0 1-9.147-5.4c-8.676-7.775-9.245-18.94-9.272-21.1-.04-3.337.712-5.915 2.236-7.658l.754.658c-1.338 1.531-2.026 3.948-1.99 6.989.016 1.278.4 12.711 8.94 20.367a33.294 33.294 0 0 0 7.887 4.8c-.976-3.53-3.686-15.085.69-21.154.587-.816 1.938-1.348 3.647-2.022 2.466-.972 5.535-2.181 6.911-4.614.058-.1.045-.148.039-.164-.076-.236-.654-.5-.871-.6-.283-.129-.526-.241-.563-.552l-.032-.278.226-.187c7.623-6.066 6.012-19.251 5.337-23.149l-2.169-13.2H55a1.472 1.472 0 0 0-1.053.5c-.379.4-.584.934-.571 1.485l.348 6.739c.075 1.223.2 2.453.316 3.7.415 4.28.845 8.707-.326 14.079-.7 3.227-1.667 7.647-5.249 9.359-.937.447-3.564 1.1-5.263.123-7.456-4.265-6.511-23.613-6.027-27l1.691-11.809a2.031 2.031 0 0 0-.484-1.568 1.485 1.485 0 0 0-1.114-.555h-.6L34.4 30.6c-.08.462-.208 1.114-.365 1.915-.949 4.838-3.172 16.17-1.661 22.309l-.971.239c-1.564-6.354.608-17.422 1.651-22.741.155-.791.282-1.436.361-1.892l2.4-14.03h1.446c.725.011 1.409.34 1.87.9.566.65.828 1.51.718 2.365l-1.691 11.81c-.666 4.651-.971 22.264 5.533 25.986 1.275.727 3.487.248 4.335-.158 3.141-1.5 4.044-5.645 4.7-8.67 1.137-5.219.715-9.565.307-13.769-.122-1.26-.242-2.5-.318-3.742l-.348-6.742a3.066 3.066 0 0 1 .844-2.225 2.457 2.457 0 0 1 1.778-.81h1.666l2.3 14.034c.681 3.932 2.273 17.033-5.133 23.62.45.196.807.556 1 1.006.1.324.056.675-.12.964-1.551 2.742-4.8 4.023-7.415 5.053-1.433.564-2.787 1.1-3.2 1.675-4.8 6.661-.292 21.152-.247 21.3L44.174 90z" fill="#52267D"/>
          <path d="M97.205 60.963c.683-.83.873-1.959.5-2.966a2.575 2.575 0 0 0-.9-.965s-1.782.311-1.407 1.513a4.283 4.283 0 0 0 1.807 2.418z" fill="#FFF"/>
          <path d="M97.312 61.59l-.345-.188a4.77 4.77 0 0 1-2.049-2.709 1.39 1.39 0 0 1 .124-1.171 2.663 2.663 0 0 1 1.675-.982l.189-.033.163.1c.474.292.857.711 1.105 1.21a3.5 3.5 0 0 1-.6 3.478l-.262.295zm-.613-4.02c-.31.07-.59.236-.8.474a.392.392 0 0 0-.022.353c.218.723.637 1.37 1.208 1.864a2.45 2.45 0 0 0 .157-2.087 1.751 1.751 0 0 0-.542-.604h-.001z" fill="#52267D" fill-rule="nonzero"/>
          <path d="M96.827 59.2c.24-.29.307-.687.176-1.04a.906.906 0 0 0-.317-.339s-.625.109-.494.531a1.5 1.5 0 0 0 .635.848z" fill="#F3E3FF"/>
          <path d="M87.845 70.031a3.3 3.3 0 0 1 1.508-4.113c.373-.22.764-.407 1.168-.561 0 0 2.5 1.974 1.157 2.9-1.19.763-2.48 1.36-3.833 1.774z" fill="#FFF"/>
          <path d="M87.563 70.635l-.176-.4a3.794 3.794 0 0 1 1.7-4.738c.402-.238.824-.44 1.261-.606l.264-.1.221.174c.3.235 1.778 1.468 1.74 2.637a1.312 1.312 0 0 1-.61 1.064 15.823 15.823 0 0 1-3.977 1.845l-.423.124zm2.867-4.7c-.28.115-.552.25-.811.407a2.81 2.81 0 0 0-1.442 3.056 14.293 14.293 0 0 0 3.217-1.553.326.326 0 0 0 .178-.275c.015-.433-.611-1.165-1.142-1.636v.001z" fill="#52267D" fill-rule="nonzero"/>
          <path d="M88.749 69.1a1.833 1.833 0 0 1 .836-2.281c.207-.122.423-.226.648-.311 0 0 1.384 1.094.641 1.607a8.639 8.639 0 0 1-2.125.985z" fill="#F3E3FF"/>
          <path d="M95.763 61.919s1.88 1.652.077 3.128a3.111 3.111 0 0 1-1.666.669s-1.326-1.417-.657-2.036a17 17 0 0 1 2.246-1.761z" fill="#FFF"/>
          <path d="M93.966 66.226l-.157-.168a3.4 3.4 0 0 1-.98-1.972c.006-.294.132-.573.348-.773.72-.67 1.497-1.278 2.32-1.818l.315-.2.281.246c.606.542.975 1.3 1.028 2.112a2.33 2.33 0 0 1-.965 1.779 3.624 3.624 0 0 1-1.961.782l-.229.012zm1.721-3.654c-.642.45-1.254.943-1.831 1.474.046.426.229.825.52 1.139.42-.08.813-.26 1.147-.525.345-.232.566-.608.6-1.022a1.77 1.77 0 0 0-.436-1.066z" fill="#52267D" fill-rule="nonzero"/>
          <path d="M95.489 63.09s.833.731.034 1.385c-.21.17-.467.275-.737.3 0 0-.588-.628-.292-.9a7.5 7.5 0 0 1 .995-.785z" fill="#F3E3FF"/>
          <path d="M78.823 71.334a2.549 2.549 0 0 1 1.807-3.08c2.426-.875 3.078-.147 3.078-.147s1.342 2.259.143 2.986c-1.199.727-5.028.241-5.028.241z" fill="#FFF"/>
          <path d="M81.329 71.994a22.227 22.227 0 0 1-2.569-.164l-.328-.042-.09-.318a3.029 3.029 0 0 1 2.118-3.687c2.613-.942 3.474-.173 3.62-.01.65 1.076 1.311 2.971.029 3.748a6.051 6.051 0 0 1-2.78.473zm-2.076-1.114c1.447.152 3.637.212 4.338-.215.605-.366 0-1.736-.267-2.222-.154-.082-.825-.334-2.524.282a2.038 2.038 0 0 0-1.547 2.155z" fill="#52267D" fill-rule="nonzero"/>
          <path d="M79.962 70.833c-.175-.7.242-1.412.939-1.6 1.262-.456 1.6-.077 1.6-.077s.7 1.175.074 1.553a6.412 6.412 0 0 1-2.613.124z" fill="#F3E3FF"/>
          <path d="M35.714 20.216a11.752 11.752 0 0 0 9.318.213c-.373 1.689-1.135 5.084-1.135 5.084s-5.044 1.547-8.936-.9c.399-2.242.753-4.397.753-4.397z" fill="#FFF"/>
          <path d="M40.261 26.5a10.405 10.405 0 0 1-5.566-1.467l-.284-.178.059-.332c.4-2.238.751-4.388.751-4.389l.115-.7.623.348a11.386 11.386 0 0 0 8.9.179l.856-.31-.2.887c-.373 1.691-1.134 5.086-1.134 5.086l-.065.283-.277.086c-1.23.34-2.501.51-3.778.507zm-4.746-2.141c3.1 1.766 6.917 1 7.961.749l.878-3.929c-2.698.862-5.61.78-8.254-.234a429.33 429.33 0 0 1-.585 3.415v-.001z" fill="#52267D" fill-rule="nonzero"/>
          <path d="M64.693 10.375a3.3 3.3 0 0 0-2.021-2.6 9.671 9.671 0 0 0-2.084-.286s-.428 1.967.818 2.554a4.691 4.691 0 0 0 3.287.332z" fill="#FFF"/>
          <path d="M63.535 11.031a5.48 5.48 0 0 1-2.342-.532c-1.588-.748-1.115-3.016-1.093-3.113l.088-.41.42.016c.76.018 1.515.127 2.249.324a3.781 3.781 0 0 1 2.334 3.012l.038.392-.373.128a4.4 4.4 0 0 1-1.321.183zm-2.509-3.012c-.03.5.018 1.3.593 1.576a4.4 4.4 0 0 0 2.479.4 2.735 2.735 0 0 0-1.612-1.752 6.784 6.784 0 0 0-1.46-.224z" fill="#52267D" fill-rule="nonzero"/>
          <g>
            <path d="M60.011 9.426a3.1 3.1 0 0 0-2.9-2.9 7.072 7.072 0 0 0-1.213-.016s-1.343 2.659.159 2.916c1.312.18 2.642.18 3.954 0z" fill="#FFF"/>
            <path d="M57.907 10.068a11.688 11.688 0 0 1-1.936-.149 1.259 1.259 0 0 1-.96-.681c-.5-.992.279-2.634.44-2.954l.127-.251.281-.021a7.408 7.408 0 0 1 1.316.018 3.584 3.584 0 0 1 3.336 3.385l.009.441-.435.064c-.722.099-1.45.148-2.178.148zm-1.683-3.074a2.911 2.911 0 0 0-.32 1.794c.02.04.058.114.236.145 1.093.155 2.202.174 3.3.056a2.6 2.6 0 0 0-2.393-1.966 5.327 5.327 0 0 0-.823-.029z" fill="#52267D" fill-rule="nonzero"/>
          </g>
          <g>
            <path d="M54.617 9.61s-.447-2.8-2.948-1.961a3.53 3.53 0 0 0-1.646 1.19s.557 2.124 1.554 1.859a19.252 19.252 0 0 0 3.04-1.088z" fill="#FFF"/>
            <path d="M51.405 11.22a1.186 1.186 0 0 1-.6-.167 3.769 3.769 0 0 1-1.265-2.087l-.059-.223.131-.189a4.047 4.047 0 0 1 1.9-1.38 2.589 2.589 0 0 1 2.231.144 3.441 3.441 0 0 1 1.369 2.212l.059.369-.337.162c-1.01.46-2.056.835-3.128 1.12-.098.026-.2.039-.301.039zm-.826-2.269c.121.473.374.903.73 1.238.04.03.09.04.138.025.88-.237 1.742-.534 2.58-.89a2.107 2.107 0 0 0-.807-1.152 1.6 1.6 0 0 0-1.393-.049 3.047 3.047 0 0 0-1.248.828z" fill="#52267D" fill-rule="nonzero"/>
          </g>
          <path d="M29.072 4.781a1.75 1.75 0 0 1 1.072-1.376 1.5 1.5 0 0 1 .767.008s.565.883-.1 1.194a2.482 2.482 0 0 1-1.739.174zM33.55 4.151a2.226 2.226 0 0 1 2.086-2.086c.29-.03.582-.033.873-.012 0 0 .966 1.913-.114 2.1-.944.13-1.901.129-2.845-.002zM39.4 5.021s.256-1.6 1.689-1.124c.374.13.702.367.942.682 0 0-.318 1.217-.889 1.065a11.077 11.077 0 0 1-1.742-.623zM63.777 9.9a1.744 1.744 0 0 0-1.069-1.372c-.36-.09-.729-.14-1.1-.151 0 0-.226 1.04.433 1.35a2.477 2.477 0 0 0 1.736.173zM58.906 8.98a1.712 1.712 0 0 0-1.6-1.6 3.928 3.928 0 0 0-.67-.009s-.743 1.471.087 1.613a8.035 8.035 0 0 0 2.183-.004zM53.621 9.42s-.244-1.53-1.612-1.073c-.357.124-.67.35-.9.651 0 0 .3 1.162.85 1.017.57-.152 1.126-.35 1.662-.595z" fill="#F3E3FF"/>
          <g>
            <path d="M47.288 25.012c3.117.419 6.284.293 9.358-.371.445 2.478.73 4.35.73 4.35s-3.164 2.148-9.008.9c-.69-3.181-1.08-4.879-1.08-4.879z" fill="#FFF"/>
            <path d="M51.912 30.783a17.506 17.506 0 0 1-3.649-.4l-.316-.067-.068-.316c-.689-3.178-1.078-4.873-1.078-4.874l-.165-.72.729.114c3.052.404 6.15.28 9.161-.363l.518-.127.094.524c.446 2.486.732 4.363.732 4.363l.048.312-.261.177a10.72 10.72 0 0 1-5.745 1.377zm-3.125-1.315a12.4 12.4 0 0 0 8.042-.74c-.092-.584-.3-1.874-.584-3.482a27.574 27.574 0 0 1-8.311.351c.166.734.456 2.04.853 3.871z" fill="#52267D" fill-rule="nonzero"/>
          </g>
          <path d="M60.667 20.194h-5.445a2.483 2.483 0 0 1 0-4.966h.483a4.966 4.966 0 0 1 4.966 4.966h-.004z" fill="#F3E3FF" opacity=".3"/>
          <g>
            <path d="M60.573 20.101h-4.755a2.089 2.089 0 0 1-2.089-2.089c.001-1 .812-1.811 1.813-1.811h1.129a3.9 3.9 0 0 1 3.9 3.9h.002z" fill="#FFF"/>
            <path d="M61.073 20.6h-5.256a2.592 2.592 0 0 1-2.588-2.589 2.316 2.316 0 0 1 2.313-2.314h1.129a4.407 4.407 0 0 1 4.4 4.4l.002.503zm-5.531-3.9a1.315 1.315 0 0 0-1.313 1.314 1.59 1.59 0 0 0 1.588 1.589h4.219a3.407 3.407 0 0 0-3.365-2.9l-1.129-.003z" fill="#52267D" fill-rule="nonzero"/>
          </g>
          <circle fill="#52267D" cx="58.222" cy="17.856" r="1.09"/>
          <path d="M35.9 10.52h.479a2.483 2.483 0 0 1 1.755 4.236 2.483 2.483 0 0 1-1.756.727h-5.445A4.966 4.966 0 0 1 35.9 10.52z" fill="#F3E3FF" opacity=".3"/>
          <g>
            <path d="M34.928 11.491h.991a1.951 1.951 0 1 1 0 3.902h-4.892a3.9 3.9 0 0 1 3.901-3.902z" fill="#FFF"/>
            <path d="M35.92 15.893h-5.394v-.5a4.408 4.408 0 0 1 4.4-4.4h.991a2.451 2.451 0 0 1 0 4.9h.003zm-4.357-1h4.357a1.451 1.451 0 0 0 0-2.9h-.991a3.408 3.408 0 0 0-3.366 2.9z" fill="#52267D" fill-rule="nonzero"/>
          </g>
          <circle fill="#52267D" cx="35.689" cy="14.237" r="1.09"/>
          <path d="M67.227 21.328a1.374 1.374 0 0 1-.784-.486l-.365-.46.813.175.479.1a.342.342 0 0 1 .115.623.342.342 0 0 1-.258.048zM25.221 16.232c.31-.067.586-.238.784-.486l.365-.46-.813.175-.479.1a.343.343 0 0 0 .143.671z" fill="#52267D"/>
          <path d="M36.179 20.923a11.929 11.929 0 0 0 8.152.149 33 33 0 0 1-.812 3.627c-1.367.08-2.738.02-4.093-.176-2.326-.459-3.247-1.518-3.247-3.6z" fill="#E1F2FF"/>
          <g>
            <path d="M41.825 24a13.842 13.842 0 0 1-6.552-1.174" fill="#FFF"/>
            <path d="M40.966 24.53a13.481 13.481 0 0 1-5.923-1.258l.461-.889a13.447 13.447 0 0 0 6.28 1.121l.082 1c-.044-.004-.378.026-.9.026z" fill="#52267D"/>
          </g>
          <path d="M54.889 25.553c-2.208.59-4.514.723-6.776.389.24 1.052.546 2.087.917 3.1 0 0 4.77-.63 5.859-3.489z" fill="#E1F2FF"/>
          <g>
            <path d="M52.957 59.132s-.218.158-.527.344" fill="#F3E3FF"/>
            <path d="M52.559 59.69l-.258-.428c.3-.179.506-.33.51-.333l.293.406s-.225.165-.545.355z" fill="#52267D"/>
          </g>
          <g>
            <path d="M55.236 26.914c-2.468.413-4.981.49-7.47.228" fill="#FFF"/>
            <path d="M50.575 27.8a24.226 24.226 0 0 1-2.869-.163l.119-.992c2.439.253 4.9.178 7.319-.224l.185.982c-1.57.268-3.16.401-4.754.397z" fill="#52267D"/>
          </g>
          <g>
            <path d="M42.672 73.849a64.546 64.546 0 0 1-.934 14.447c-1.329 8.22-3.686 10.8-3.513 12.93.134 1.65.83 3.162 2.486 3.162h4.941a5.367 5.367 0 0 0 5.082-3.657 36 36 0 0 0 1.59-7.179c.285-3.549.362-7.111.23-10.669" fill="#9452BA"/>
            <path d="M45.652 105.388h-4.941c-1.974 0-3.276-1.526-3.483-4.081a8.878 8.878 0 0 1 .935-3.784 42.161 42.161 0 0 0 2.588-9.387 64.409 64.409 0 0 0 .925-14.2l1.992-.175a65.112 65.112 0 0 1-.942 14.694 44.535 44.535 0 0 1-2.7 9.789 7.847 7.847 0 0 0-.806 2.9c.083 1.023.408 2.243 1.489 2.243h4.941a4.372 4.372 0 0 0 4.135-2.979 35.062 35.062 0 0 0 1.544-6.977c.276-3.5.35-7.013.223-10.521l2-.056a92.487 92.487 0 0 1-.235 10.79c-.291 2.518-.84 5-1.637 7.407a6.375 6.375 0 0 1-6.028 4.337z" fill="#52267D"/>
          </g>
          <g>
            <path d="M68 77.565a7.79 7.79 0 0 0-2.472 5.835c.017 2.83 1.659 6.432.618 11.135-.927 4.189-2.772 4.928-2.216 8.686a1.4 1.4 0 0 0 1.395 1.167h5.505a5.192 5.192 0 0 0 5.118-4.337 51.536 51.536 0 0 0-.628-17.811" fill="#9452BA"/>
            <path d="M70.834 105.388h-5.505a2.407 2.407 0 0 1-2.385-2.021 8.392 8.392 0 0 1 .964-5.481 16.373 16.373 0 0 0 1.266-3.567 18.1 18.1 0 0 0-.215-7.576 19.655 19.655 0 0 1-.427-3.338 8.785 8.785 0 0 1 2.82-6.6l1.3 1.515a6.744 6.744 0 0 0-2.124 5.07c.048 1.006.18 2.005.394 2.989.656 2.744.724 5.596.2 8.369a18.375 18.375 0 0 1-1.4 3.969 6.51 6.51 0 0 0-.8 4.354.4.4 0 0 0 .406.314h5.505a4.173 4.173 0 0 0 4.132-3.5 50.622 50.622 0 0 0-.626-17.467l1.967-.361a52.49 52.49 0 0 1 .631 18.154 6.165 6.165 0 0 1-6.103 5.177z" fill="#52267D"/>
          </g>
          <path fill="#52267D" d="M69.309 84.832l-1.877-.925 1.866-1.493.79.265-.158.474-.533-.178-1.04.831.92.454.538-.344-.351-.079-.233.167-.291-.406.414-.298 1.743.392zM47.276 89.749l-2.342-.172-.319-2.233 2.171-.676.149.477-1.765.55.201 1.414 1.691.123.655-.757-.847-.47-.516.149.368.411-.371.334-.902-1.002 1.482-.431 1.567.87z"/>
          <g opacity=".3" fill="#F3E3FF">
            <path d="M5.227 27.535a.663.663 0 0 1-.662-.661h.25a.411.411 0 0 0 .822 0h.25c0 .364-.296.66-.66.661z"/>
            <path d="M4.154 27.535a.662.662 0 0 1-.66-.661h.25a.411.411 0 1 0 .821 0h.25c0 .365-.296.66-.661.661z"/>
            <path d="M4.69 28.071a.662.662 0 0 1-.661-.661h.25a.412.412 0 0 0 .823 0h.25a.662.662 0 0 1-.662.661zM25.636 26.616a.927.927 0 0 1-.482-.137l.133-.213a.664.664 0 0 0 .7-1.128l.131-.213a.915.915 0 0 1-.482 1.691z"/>
            <path d="M25.89 27.7a.922.922 0 0 1-.482-.136l.133-.213a.664.664 0 1 0 .7-1.129l.133-.213a.914.914 0 0 1-.485 1.691h.001zM51.367 45.216a.845.845 0 0 1-.844-.844h.25a.594.594 0 0 0 1.188 0h.25a.845.845 0 0 1-.844.844z"/>
            <path d="M49.93 45.216a.845.845 0 0 1-.844-.844h.25a.594.594 0 1 0 1.187 0h.25a.845.845 0 0 1-.843.844z"/>
            <path d="M50.648 45.935a.845.845 0 0 1-.843-.844h.25a.594.594 0 1 0 1.187 0h.25a.845.845 0 0 1-.844.844zM29.9 90.747a.845.845 0 0 1-.843-.844h.25a.594.594 0 1 0 1.187 0h.25a.845.845 0 0 1-.844.844z"/>
            <path d="M28.465 90.747a.845.845 0 0 1-.844-.844h.25a.594.594 0 0 0 1.188 0h.25a.845.845 0 0 1-.844.844z"/>
            <path d="M29.184 91.466a.845.845 0 0 1-.844-.844h.25a.594.594 0 1 0 1.187 0h.25a.845.845 0 0 1-.843.844zM50.324 22.383a.915.915 0 0 1-.914-.915h.25a.665.665 0 1 0 1.329 0h.25c0 .505-.41.915-.915.915z"/>
            <path d="M49.535 23.172a.915.915 0 0 1-.915-.914h.25a.665.665 0 0 0 1.329 0h.25c0 .505-.41.913-.914.914zM40.4 36.5a1.086 1.086 0 0 1-1.084-1.085h.25a.835.835 0 1 0 1.669 0h.25A1.085 1.085 0 0 1 40.4 36.5z"/>
            <path d="M39.441 37.459a1.086 1.086 0 0 1-1.085-1.085h.25a.835.835 0 1 0 1.669 0h.25c0 .599-.485 1.084-1.084 1.085z"/>
            <g>
              <path d="M26.145 12.324a.767.767 0 0 1-.767-.766h.25a.517.517 0 1 0 1.034 0h.25a.768.768 0 0 1-.767.766z"/>
              <path d="M25.5 12.966a.768.768 0 0 1-.767-.767h.25a.517.517 0 1 0 1.034 0h.25a.768.768 0 0 1-.767.767z"/>
            </g>
            <g>
              <path d="M86.472 76.649a.864.864 0 0 1-.66-.305l.191-.162a.614.614 0 0 0 .936-.794l.192-.162a.865.865 0 0 1-.659 1.423z"/>
              <path d="M86.386 77.69h-.073a.857.857 0 0 1-.587-.3l.191-.162a.614.614 0 0 0 .937-.793l.191-.162a.865.865 0 0 1-.659 1.422v-.005z"/>
            </g>
            <g>
              <path d="M57.329 66.693a.991.991 0 0 1-.9-.581l.226-.1A.742.742 0 1 0 58 65.394l.227-.1a.991.991 0 0 1-.9 1.4l.002-.001z"/>
              <path d="M55.751 67.412a.992.992 0 0 1-.9-.58l.226-.1a.743.743 0 0 0 1.351-.617l.226-.1a.99.99 0 0 1-.9 1.4l-.003-.003z"/>
              <path d="M56.9 67.842a.993.993 0 0 1-.9-.581l.227-.1a.742.742 0 1 0 1.35-.615l.227-.1a.991.991 0 0 1-.49 1.313.98.98 0 0 1-.414.083z"/>
              <path d="M55.321 68.562a1 1 0 0 1-.902-.581l.227-.1a.739.739 0 0 0 .983.367.743.743 0 0 0 .367-.983l.227-.1a.992.992 0 0 1-.491 1.315 1 1 0 0 1-.411.082zM58.049 68.271a.994.994 0 0 1-.9-.58l.226-.1a.742.742 0 1 0 1.351-.616l.226-.1a.992.992 0 0 1-.9 1.4l-.003-.004z"/>
            </g>
            <path d="M42.319 19.045a1 1 0 0 1-1-1h.25a.75.75 0 1 0 1.5 0h.25a1 1 0 0 1-1 1zM42.017 52.1a1 1 0 0 1-1-1h.25a.75.75 0 1 0 1.5 0h.25a1 1 0 0 1-1 1zM51.717 33.665a.788.788 0 0 1-.788-.787h.25a.538.538 0 1 0 1.076 0h.25a.789.789 0 0 1-.788.787zM67.33 18.443a.624.624 0 0 1-.622-.623h.25a.372.372 0 0 0 .744 0h.25a.624.624 0 0 1-.622.623zM71.831 91.772a1 1 0 0 1-.984-.829l.246-.042a.75.75 0 0 0 1.477-.257l.246-.043a1 1 0 0 1-.985 1.171z"/>
            <g>
              <path d="M47.768 98.448a1.085 1.085 0 0 1-1.084-1.084h.25a.835.835 0 0 0 1.669 0h.25a1.086 1.086 0 0 1-1.085 1.084z"/>
              <path d="M46.809 99.408c-.6 0-1.085-.486-1.085-1.085h.25a.835.835 0 1 0 1.669 0h.25c0 .599-.485 1.084-1.084 1.085z"/>
            </g>
          </g>
        </g>
      </g>
    </g>
    <path d="M83.54 209.938c-6.576 0-9.7-2.548-10.87-3.858-7.022 3.287-12.523 1.945-12.761 1.882a1 1 0 0 1 .491-1.938c.054.013 5.444 1.295 12.109-2.09l.842-.428.475.816c.092.152 2.472 3.9 10.637 3.6 8.46-.318 12.787-3.827 12.83-3.862a1 1 0 0 1 1.283 1.533c-.193.163-4.843 3.981-14.039 4.327-.34.012-.673.018-.997.018zM74.834 213.082c-.091 0-.182-.013-.27-.037a9.332 9.332 0 0 1-3.037-1.493 1 1 0 0 1 1.28-1.537 7.409 7.409 0 0 0 2.3 1.1 1 1 0 0 1-.27 1.963l-.003.004z" fill="#ACD3EF"/>
    <g fill="#5E63B6">
      <path d="M238.938 67.27a1 1 0 0 1-1-1v-7a1 1 0 1 1 2 0v7a1 1 0 0 1-1 1z"/>
      <path d="M242.438 63.77h-7a1 1 0 1 1 0-2h7a1 1 0 1 1 0 2z"/>
    </g>
    <g fill="#5E63B6">
      <path d="M74.834 35.869a1 1 0 0 1-1-1v-7a1 1 0 1 1 2 0v7a1 1 0 0 1-1 1z"/>
      <path d="M78.334 32.369h-7a1 1 0 1 1 0-2h7a1 1 0 1 1 0 2z"/>
    </g>
    <g fill="#5E63B6">
      <path d="M37.173 141.393a.5.5 0 0 1-.5-.5v-3.938a.5.5 0 0 1 1 0v3.938a.5.5 0 0 1-.5.5z"/>
      <path d="M39.142 139.424H35.2a.5.5 0 0 1 0-1h3.938a.5.5 0 0 1 0 1h.004z"/>
    </g>
    <g fill="#5E63B6">
      <path d="M211.173 185.393a.5.5 0 0 1-.5-.5v-3.938a.5.5 0 0 1 1 0v3.938a.5.5 0 0 1-.5.5z"/>
      <path d="M213.142 183.424H209.2a.5.5 0 0 1 0-1h3.938a.5.5 0 0 1 0 1h.004z"/>
    </g>
    <path d="M91.757 139.188c-.319 0-.637-.003-.956-.009a1 1 0 1 1 .037-2 50.5 50.5 0 0 0 1.959 0 .984.984 0 0 1 1.022.978 1 1 0 0 1-.977 1.022c-.363.005-.724.009-1.085.009zm-5.92-.364c-.041 0-.083-.003-.124-.008a46.61 46.61 0 0 1-2.02-.292 1 1 0 0 1 .328-1.973c.643.107 1.29.2 1.938.281a1 1 0 0 1-.122 1.992zm11.966-.013a1 1 0 0 1-.123-1.993c.645-.08 1.292-.174 1.94-.281a1 1 0 1 1 .326 1.973c-.674.112-1.347.21-2.018.293a1.063 1.063 0 0 1-.128.008h.003zm-18.825-1.343c-.09 0-.18-.012-.266-.036a50.202 50.202 0 0 1-1.954-.579 1 1 0 1 1 .609-1.906c.619.2 1.243.385 1.874.556a1 1 0 0 1-.263 1.965zm-6.59-2.328a1.01 1.01 0 0 1-.4-.084 48.501 48.501 0 0 1-1.852-.854 1 1 0 0 1 .875-1.8c.586.286 1.178.56 1.776.82a1 1 0 0 1-.4 1.917l.001.001zm-6.188-3.248a1 1 0 0 1-.525-.15 50.045 50.045 0 0 1-1.713-1.11 1 1 0 0 1 1.123-1.655c.54.366 1.088.721 1.643 1.065a1 1 0 0 1-.528 1.85zm-5.664-4.1a1 1 0 0 1-.64-.233 45.385 45.385 0 0 1-1.539-1.344 1 1 0 1 1 1.347-1.479c.483.44.974.87 1.475 1.289a1 1 0 0 1-.643 1.767zm-5.023-4.866a1 1 0 0 1-.745-.334 49.785 49.785 0 0 1-1.33-1.549 1 1 0 1 1 1.543-1.272c.417.505.843 1 1.277 1.488a1 1 0 0 1-.745 1.667zm-4.277-5.538a1 1 0 0 1-.835-.447 51.405 51.405 0 0 1-1.093-1.727 1 1 0 0 1 1.711-1.036c.339.56.689 1.113 1.05 1.658a1 1 0 0 1-.833 1.552zm-3.432-6.1a1 1 0 0 1-.906-.573 47.318 47.318 0 0 1-.832-1.865 1 1 0 1 1 1.842-.777c.255.6.521 1.196.8 1.787a1 1 0 0 1-.9 1.428h-.004zm-2.519-6.524a1 1 0 0 1-.957-.709c-.2-.648-.385-1.302-.555-1.963a1 1 0 0 1 1.936-.5c.165.634.343 1.263.533 1.886a1 1 0 0 1-.96 1.291l.003-.005zm-1.557-6.818a1 1 0 0 1-.988-.848 53.454 53.454 0 0 1-.27-2.02 1 1 0 1 1 1.986-.227c.074.647.161 1.295.261 1.943a1 1 0 0 1-.837 1.141 1.133 1.133 0 0 1-.155.016l.003-.005zm-.575-6.969a1 1 0 0 1-1-.989v-.531c0-.504.008-1.007.023-1.51.032-.545.483-.97 1.029-.969a1 1 0 0 1 .971 1.029 45.6 45.6 0 0 0-.023 1.45v.508a1 1 0 0 1-.988 1.012h-.012zM43.581 84c-.045.003-.09.003-.136 0a1 1 0 0 1-.856-1.125c.092-.676.197-1.348.315-2.016a1 1 0 0 1 1.969.349 49.25 49.25 0 0 0-.3 1.935 1 1 0 0 1-.992.857zm1.432-6.841a1 1 0 0 1-.961-1.276c.186-.653.386-1.302.6-1.946a1 1 0 0 1 1.9.629c-.205.618-.398 1.24-.577 1.868a1 1 0 0 1-.962.729v-.004zm2.4-6.562a1 1 0 0 1-.913-1.407c.279-.62.57-1.235.874-1.842a1 1 0 0 1 1.789.894 46.546 46.546 0 0 0-.839 1.768 1 1 0 0 1-.911.59v-.003zm3.316-6.154a1 1 0 0 1-.843-1.536c.364-.574.74-1.14 1.129-1.7a1 1 0 1 1 1.642 1.141 43.776 43.776 0 0 0-1.084 1.631 1 1 0 0 1-.844.468v-.004zm79.377-3.971a1 1 0 0 1-.787-.382c-.4-.514-.814-1.019-1.242-1.514a1 1 0 0 1 1.52-1.3c.442.517.874 1.043 1.295 1.58a1 1 0 0 1-.786 1.617v-.001zM54.89 58.826a1 1 0 0 1-.759-1.652c.443-.516.896-1.023 1.361-1.522a1 1 0 1 1 1.463 1.364 47.74 47.74 0 0 0-1.307 1.462 1 1 0 0 1-.758.348zM125.4 55.3a1 1 0 0 1-.689-.275 48.215 48.215 0 0 0-1.446-1.322 1 1 0 1 1 1.318-1.5c.512.449 1.014.908 1.507 1.377a1 1 0 0 1-.69 1.724V55.3zm-65.589-1.444a1 1 0 0 1-.659-1.753 50.027 50.027 0 0 1 1.566-1.313 1 1 0 0 1 1.254 1.559c-.51.41-1.01.83-1.5 1.26a1 1 0 0 1-.661.247zm60.19-3a1 1 0 0 1-.579-.185 50.06 50.06 0 0 0-1.618-1.1 1 1 0 0 1 1.09-1.678c.57.37 1.133.754 1.688 1.149a1 1 0 0 1-.582 1.812l.001.002zM65.4 49.641a1 1 0 0 1-.543-1.84c.57-.369 1.15-.727 1.739-1.074a1 1 0 1 1 1.015 1.722c-.564.333-1.12.677-1.669 1.032a1 1 0 0 1-.542.16zm48.628-2.421a1 1 0 0 1-.456-.11 48.11 48.11 0 0 0-1.759-.859 1 1 0 0 1 .839-1.816c.619.286 1.23.586 1.834.9a1 1 0 0 1-.458 1.889v-.004zm-42.493-.945a1 1 0 0 1-.417-1.91 50.324 50.324 0 0 1 1.873-.81 1 1 0 1 1 .756 1.851c-.606.248-1.206.507-1.8.778a.991.991 0 0 1-.415.091h.003zm36.062-1.8a1 1 0 0 1-.325-.055 49.729 49.729 0 0 0-1.864-.6 1 1 0 0 1 .571-1.917c.653.195 1.301.403 1.943.623a1 1 0 0 1-.325 1.947v.002zm-29.512-.646a1 1 0 0 1-.28-1.96 51.15 51.15 0 0 1 1.969-.533 1 1 0 1 1 .483 1.94c-.636.159-1.267.33-1.892.513a1 1 0 0 1-.283.044l.003-.004zm22.754-1.144a1 1 0 0 1-.187-.017 44.92 44.92 0 0 0-1.929-.323 1 1 0 1 1 .289-1.979c.674.1 1.344.211 2.011.336a1 1 0 0 1-.184 1.983zm-15.924-.335a1 1 0 0 1-.141-1.99 54.635 54.635 0 0 1 2.025-.249A1 1 0 0 1 87 42.1c-.648.067-1.297.146-1.946.239a.992.992 0 0 1-.139.011zm8.978-.457h-.043a46.646 46.646 0 0 0-1.958-.041 1 1 0 0 1 0-2c.682 0 1.364.015 2.042.043a1 1 0 1 1-.041 2v-.002z" fill="#ACD3EF" fill-rule="nonzero"/>
    <path d="M101.5 142.714a1 1 0 0 1-.989-1.152c.873-5.66-2.239-7.506-2.372-7.582a1 1 0 0 1 .964-1.752c.183.1 4.482 2.528 3.384 9.639a1 1 0 0 1-.987.847zM162.842 88.787a1 1 0 0 1-.977-.793 7.847 7.847 0 0 1 5.043-9.076 1 1 0 0 1 .69 1.877c-4.742 1.743-3.817 6.585-3.775 6.791a1 1 0 0 1-.981 1.201zM164.445 155.987a1 1 0 0 1-.951-1.3c.049-.155 1.285-3.821 7.733-6.245a1 1 0 0 1 .7 1.872c-5.452 2.05-6.525 4.964-6.535 4.994-.14.404-.52.676-.947.679z" fill="#ACD3EF"/>
    <path d="M180.27 88.887h-.033a29.299 29.299 0 0 1-2.065-.14 1 1 0 1 1 .205-1.989c.64.066 1.287.109 1.925.13a1 1 0 0 1-.032 2v-.001zm4.983-.278a1 1 0 0 1-.143-1.99c.632-.092 1.27-.208 1.9-.345a1 1 0 1 1 .429 1.953c-.672.148-1.359.273-2.038.371a1 1 0 0 1-.148.011zm-11.881-.809a.994.994 0 0 1-.278-.04 28.826 28.826 0 0 1-1.968-.648 1 1 0 1 1 .693-1.876c.6.222 1.218.425 1.831.6a1 1 0 0 1-.278 1.961v.003zm18.608-1.05a1 1 0 0 1-.384-1.924 28.836 28.836 0 0 0 1.747-.8 1 1 0 1 1 .9 1.785c-.617.311-1.25.6-1.88.865a.989.989 0 0 1-.383.072v.002zm-25.017-1.72a.99.99 0 0 1-.508-.139c-.572-.338-1.144-.7-1.7-1.086a1 1 0 1 1 1.133-1.648c.518.356 1.052.7 1.586 1.012a1 1 0 0 1-.51 1.861h-.001zm31.07-1.753a1 1 0 0 1-.6-1.8c.51-.386 1.014-.794 1.5-1.215a1 1 0 1 1 1.314 1.508c-.518.452-1.058.89-1.606 1.3a.994.994 0 0 1-.608.205v.002zm5.009-4.859a1 1 0 0 1-.779-1.626c.4-.5.792-1.023 1.154-1.547a1 1 0 1 1 1.645 1.139c-.389.562-.806 1.12-1.239 1.66a1 1 0 0 1-.781.372v.002zm3.658-5.948a1 1 0 0 1-.909-1.414c.267-.587.514-1.187.735-1.783a1 1 0 1 1 1.875.694c-.237.642-.5 1.287-.79 1.917a1 1 0 0 1-.911.586zm2.072-6.668a1 1 0 0 1-.985-1.175c.111-.624.2-1.266.268-1.907a.988.988 0 0 1 1.1-.891 1 1 0 0 1 .892 1.1 28.666 28.666 0 0 1-.289 2.051 1 1 0 0 1-.983.82l-.003.002zm-55.602-4.917a1 1 0 0 1-1-1c0-.692.024-1.387.073-2.067a1 1 0 1 1 1.994.141 27.283 27.283 0 0 0-.067 1.926 1 1 0 0 1-1 1zm55.959-2.053a1 1 0 0 1-1-.929 27.241 27.241 0 0 0-.207-1.915 1 1 0 1 1 1.978-.288c.1.684.174 1.377.223 2.058a1 1 0 0 1-.994 1.074zm-55.095-4.872a1 1 0 0 1-.97-1.246c.17-.671.367-1.34.583-1.988a1.001 1.001 0 0 1 1.9.633c-.2.6-.383 1.224-.542 1.848a1 1 0 0 1-.971.753zm53.728-1.972a1 1 0 0 1-.949-.683c-.2-.6-.428-1.209-.675-1.8a1 1 0 1 1 1.845-.768c.266.637.51 1.288.727 1.936a1 1 0 0 1-.948 1.317v-.002zm-51.175-4.524a1 1 0 0 1-.877-1.48c.333-.608.689-1.208 1.06-1.783a1 1 0 0 1 1.68 1.085 25.994 25.994 0 0 0-.984 1.657 1 1 0 0 1-.879.521zm48.15-1.762a1 1 0 0 1-.842-.458 26.154 26.154 0 0 0-1.1-1.579 1 1 0 0 1 1.6-1.2 28 28 0 0 1 1.185 1.7 1 1 0 0 1-.3 1.382.988.988 0 0 1-.543.153v.002zm-44.062-3.9a1 1 0 0 1-.732-1.681 30.6 30.6 0 0 1 1.462-1.465 1 1 0 0 1 1.365 1.463c-.47.439-.929.9-1.364 1.364a.994.994 0 0 1-.731.317v.002zm39.575-1.447a1 1 0 0 1-.682-.268 26.456 26.456 0 0 0-1.457-1.261 1 1 0 1 1 1.254-1.558c.539.433 1.066.889 1.567 1.355a1 1 0 0 1-.682 1.732zm-34.223-3.034a1 1 0 0 1-.543-1.84 28.736 28.736 0 0 1 1.779-1.059 1 1 0 0 1 .961 1.754 27.34 27.34 0 0 0-1.656.985 1 1 0 0 1-.541.16zm28.557-1.046a1 1 0 0 1-.479-.123c-.56-.306-1.14-.6-1.724-.862a1 1 0 1 1 .83-1.82c.627.286 1.251.6 1.853.927a1 1 0 0 1-.48 1.878zM172.316 34.3a1 1 0 0 1-.316-1.946 28.57 28.57 0 0 1 1.987-.584 1 1 0 1 1 .494 1.938c-.615.156-1.237.34-1.848.543-.102.033-.21.05-.317.049zm15.769-.579a.993.993 0 0 1-.246-.031 27.443 27.443 0 0 0-1.884-.405 1 1 0 1 1 .352-1.969c.675.121 1.356.267 2.022.436a1 1 0 0 1-.244 1.969zm-8.925-.783a1 1 0 1 1-.07-2 29.693 29.693 0 0 1 2.067-.075 1 1 0 1 1 0 2c-.64 0-1.288.024-1.927.07a.228.228 0 0 1-.07.008v-.003zM197.961 171.329c-.246 0-.489 0-.732-.008a1 1 0 0 1-.98-1.02 1.02 1.02 0 0 1 1.021-.98c.646.014 1.294.007 1.942-.015.55-.015 1.01.414 1.035.963a1 1 0 0 1-.963 1.035 38.87 38.87 0 0 1-1.323.025zm-5.684-.476a.982.982 0 0 1-.169-.015 35.831 35.831 0 0 1-2.017-.4 1 1 0 1 1 .451-1.95c.627.146 1.26.273 1.9.382a1 1 0 0 1-.167 1.986l.002-.003zm11.934-.1a1 1 0 0 1-.182-1.983 31.168 31.168 0 0 0 1.892-.412 1 1 0 1 1 .486 1.939c-.664.166-1.335.314-2.012.439a.969.969 0 0 1-.184.016v.001zm-18.663-1.776a.994.994 0 0 1-.368-.071c-.64-.253-1.27-.524-1.891-.813a1 1 0 0 1 .844-1.813c.585.272 1.179.528 1.783.767a1 1 0 0 1-.368 1.93zm25.358-.216a1 1 0 0 1-.384-1.924c.6-.248 1.188-.515 1.765-.8a1.001 1.001 0 0 1 .877 1.8c-.615.3-1.24.582-1.874.846-.122.05-.252.076-.384.077v.001zm-31.556-3.015a.99.99 0 0 1-.551-.166 36.66 36.66 0 0 1-1.683-1.184 1 1 0 1 1 1.2-1.6c.518.388 1.047.76 1.587 1.118a1 1 0 0 1-.552 1.834l-.001-.002zm37.692-.318a1 1 0 0 1-.566-1.825 32.962 32.962 0 0 0 1.565-1.143 1 1 0 1 1 1.227 1.58c-.54.42-1.095.824-1.662 1.213a1 1 0 0 1-.564.174v.001zm-43.091-4.115a1 1 0 0 1-.711-.3c-.482-.488-.949-.99-1.4-1.506a1 1 0 0 1 1.5-1.319c.426.486.867.959 1.322 1.418a1 1 0 0 1-.711 1.7v.007zm48.412-.406a1 1 0 0 1-.722-1.691c.446-.467.88-.947 1.3-1.441a1 1 0 0 1 1.524 1.295 33.992 33.992 0 0 1-1.378 1.528 1 1 0 0 1-.724.308v.001zm-52.79-5.039a1 1 0 0 1-.841-.457 34.218 34.218 0 0 1-1.066-1.761 1 1 0 0 1 1.742-.984c.32.564.653 1.117 1 1.659a1 1 0 0 1-.839 1.543h.004zm57.076-.479a1 1 0 0 1-.848-1.528c.342-.55.668-1.109.978-1.679a1 1 0 0 1 1.756.956 34.914 34.914 0 0 1-1.035 1.779 1 1 0 0 1-.851.471v.001zm3.063-6.283a1 1 0 0 1-.943-1.343c.221-.605.424-1.218.608-1.84a1 1 0 0 1 1.918.569c-.196.66-.412 1.313-.647 1.956a1 1 0 0 1-.936.652v.006zm1.693-6.778a1 1 0 0 1-.991-1.14c.09-.636.162-1.279.215-1.928a1 1 0 1 1 1.994.164 35.603 35.603 0 0 1-.228 2.044 1 1 0 0 1-.99.859v.001zm.261-6.98a1 1 0 0 1-1-.936 33.385 33.385 0 0 0-.181-1.931 1 1 0 1 1 1.985-.245c.084.677.148 1.36.192 2.048a1 1 0 0 1-.996 1.063v.001zm-1.164-6.886a1 1 0 0 1-.962-.732 33.482 33.482 0 0 0-.576-1.852 1 1 0 1 1 1.89-.651c.223.647.427 1.303.612 1.966a1 1 0 0 1-.964 1.269zm-2.565-6.5a1 1 0 0 1-.888-.539 31.182 31.182 0 0 0-.945-1.69 1 1 0 1 1 1.715-1.029c.353.588.688 1.188 1.005 1.8a1 1 0 0 1-.887 1.462v-.004zm-3.848-5.826a1 1 0 0 1-.775-.366c-.41-.5-.834-.988-1.273-1.463a1 1 0 1 1 1.469-1.357c.467.504.917 1.021 1.351 1.552a1 1 0 0 1-.772 1.634zm-4.965-4.917a.994.994 0 0 1-.624-.219 32.135 32.135 0 0 0-1.547-1.172 1 1 0 0 1 1.16-1.629c.56.4 1.107.814 1.641 1.243a1 1 0 0 1-.628 1.779l-.002-.002zm-5.867-3.8a.993.993 0 0 1-.453-.108c-.575-.293-1.16-.57-1.757-.83a1 1 0 1 1 .8-1.833c.632.275 1.254.568 1.865.88a1 1 0 0 1-.455 1.891zm-29.013-.754a1 1 0 0 1-.407-1.914 35.177 35.177 0 0 1 1.9-.781 1 1 0 1 1 .7 1.872c-.606.228-1.204.473-1.795.736a.985.985 0 0 1-.398.092v-.005zm22.488-1.75c-.088 0-.175-.012-.26-.035a31.187 31.187 0 0 0-1.887-.447 1 1 0 0 1 .4-1.959c.675.14 1.342.297 2 .474a1 1 0 0 1-.259 1.967h.006zm-15.845-.41a1 1 0 0 1-.207-1.978 35.058 35.058 0 0 1 2.024-.369 1 1 0 1 1 .3 1.977c-.642.098-1.278.214-1.909.348a1 1 0 0 1-.208.027v-.005zm8.948-.69h-.056c-.6-.033-1.207-.05-1.82-.049h-.124a1 1 0 1 1 0-2h.124c.647 0 1.29.017 1.93.052a1 1 0 1 1-.054 2v-.003z" fill="#ACD3EF" fill-rule="nonzero"/>
    <g>
      <g transform="translate(175 19)">
        <rect fill="#FFF" x="1.435" y="1.203" width="35.032" height="35.032" rx="17.516"/>
        <path d="M18.951 37.235C8.725 37.235.435 28.945.435 18.719.435 8.493 8.725.203 18.951.203c10.226 0 18.516 8.29 18.516 18.516-.012 10.221-8.295 18.504-18.516 18.516zm0-35.032c-9.122 0-16.516 7.394-16.516 16.516 0 9.122 7.394 16.516 16.516 16.516 9.122 0 16.516-7.394 16.516-16.516 0-9.122-7.394-16.516-16.516-16.516z" fill="#5E63B6" fill-rule="nonzero"/>
      </g>
      <path d="M199.449 32.278s-3.988 3.76-4.3 6.847c-.311 3.053 1.111 5.737 4.3 5.737s5-2.822 4.395-5.968c-.605-3.146-4.395-6.616-4.395-6.616z" fill="#F74B64"/>
      <path d="M193.9 28.577s-3.988 3.76-4.3 6.847c-.311 3.053 1.111 5.737 4.3 5.737s5-2.823 4.4-5.969c-.6-3.146-4.4-6.615-4.4-6.615z" fill="#4CA8E0"/>
      <path d="M188.345 32.278s-3.988 3.76-4.3 6.847c-.312 3.053 1.11 5.737 4.3 5.737 3.19 0 5-2.822 4.4-5.968-.6-3.146-4.4-6.616-4.4-6.616z" fill="#FCCE76"/>
    </g>
    <g transform="translate(208 115)">
      <rect fill="#FFF" x="1.473" y="1.997" width="35.032" height="35.032" rx="17.516"/>
      <path d="M18.989 38.029C8.763 38.029.474 29.739.474 19.512.474 9.286 8.764.997 18.99.997c10.226 0 18.516 8.29 18.516 18.516-.011 10.222-8.295 18.506-18.517 18.516zm0-35.032c-9.121 0-16.515 7.395-16.515 16.517 0 9.121 7.395 16.515 16.516 16.515 9.122 0 16.516-7.395 16.516-16.516-.012-9.117-7.4-16.504-16.517-16.513v-.003z" fill="#5E63B6" fill-rule="nonzero"/>
    </g>
    <g fill-rule="nonzero">
      <path d="M231.607 128.139a4.117 4.117 0 0 0-4.113 4.112c0 .914.584 2.4 1.783 4.553.849 1.52 1.684 2.788 1.719 2.842l.611.926.612-.926c.035-.054.869-1.322 1.718-2.842 1.2-2.15 1.783-3.639 1.783-4.553a4.117 4.117 0 0 0-4.113-4.112zm0 6.216a2.132 2.132 0 1 1 0-4.264 2.132 2.132 0 0 1 0 4.264z" fill="#B0B0DB"/>
      <path d="M224.49 124.736a6.238 6.238 0 0 0-6.231 6.231c0 1.383.883 3.639 2.7 6.9 1.286 2.3 2.55 4.225 2.6 4.305l.927 1.4.926-1.4c.053-.08 1.317-2 2.6-4.305 1.817-3.257 2.7-5.513 2.7-6.9a6.238 6.238 0 0 0-6.23-6.231h.008zm0 9.418a3.23 3.23 0 1 1-.002-6.46 3.23 3.23 0 0 1 .002 6.46z" fill="#9093CC"/>
    </g>
    <g>
      <g transform="translate(29 68)">
        <rect fill="#FFF" x="1.151" y="1.579" width="35.032" height="35.032" rx="17.516"/>
        <path d="M18.667 37.611A18.516 18.516 0 1 1 37.183 19.1c-.014 10.22-8.297 18.5-18.516 18.511zm0-35.032c-9.12 0-16.515 7.393-16.516 16.514 0 9.121 7.392 16.516 16.513 16.518 9.12.002 16.516-7.39 16.519-16.511-.008-9.12-7.397-16.51-16.516-16.521z" fill="#5E63B6" fill-rule="nonzero"/>
      </g>
      <g transform="translate(50 81)" fill="#ACD3EF">
        <circle cx="4.194" cy="3.168" r="2.621"/>
        <path d="M4.294 6.488a3.553 3.553 0 0 0-3.653 3.551v3.027a.55.55 0 0 0 .551.551h6a.551.551 0 0 0 .551-.551v-2.953a3.6 3.6 0 0 0-3.449-3.625z"/>
      </g>
      <g transform="translate(37 81)" fill="#ACD3EF">
        <circle cx="3.662" cy="3.168" r="2.621"/>
        <path d="M3.762 6.488a3.553 3.553 0 0 0-3.653 3.551v3.027a.551.551 0 0 0 .552.551h6a.551.551 0 0 0 .551-.551v-2.953a3.6 3.6 0 0 0-3.45-3.625z"/>
      </g>
      <g transform="translate(43 78)" fill="#89C3EA">
        <circle cx="4.469" cy="3.931" r="3.181"/>
        <path d="M4.59 7.963a4.312 4.312 0 0 0-4.434 4.311v3.674a.668.668 0 0 0 .669.669h7.286a.668.668 0 0 0 .669-.669v-3.585a4.37 4.37 0 0 0-4.19-4.4z"/>
      </g>
    </g>
  </g>
</svg>
