<svg width="256" height="256" xmlns="http://www.w3.org/2000/svg">
  <g fill="none" fill-rule="evenodd">
    <path d="M226.526 216.291h6.973-6.973z" fill="#FFF"/>
    <path d="M226.526 216.291h6.974" stroke="#5E63B6" stroke-width="2" stroke-linecap="round" stroke-linejoin="round"/>
    <path d="M23.204 225.532c0-57.192 46.364-103.558 103.558-103.558 57.193 0 103.557 46.366 103.557 103.558H23.204z" fill="#E1F2FF"/>
    <path d="M165.224 216.159h4.979a4.168 4.168 0 0 0 3.885-2.644c1.768-4.55 1.327-8.731 1.538-12.307.392-6.625-.643-10.02-1.631-15.561l-7.473.173s.635 2.752 1.058 11.012c.13 2.555-4.091 12.818-3.893 17.853a1.534 1.534 0 0 0 1.537 1.474" fill="#9452BA"/>
    <path d="M165.224 216.159h4.979a4.168 4.168 0 0 0 3.885-2.644c1.768-4.55 1.327-8.731 1.538-12.307.392-6.625-.643-10.02-1.631-15.561l-7.473.173s.635 2.752 1.058 11.012c.13 2.555-4.091 12.818-3.893 17.853a1.534 1.534 0 0 0 1.537 1.474z" stroke="#52267D"/>
    <path d="M150.73 192.49l-6.012-6.817-3.712.147s-.521 5.67-.734 8.046c-.376 4.185-2.111 12.387-3.177 15.986-.346 1.172-.548 2.266-.603 3.257-.095 1.67 1.298 3.05 2.97 3.05h4.41c2.57 0 4.854-1.715 5.486-4.206 1.966-7.754 1.372-19.464 1.372-19.464" fill="#9452BA"/>
    <path d="M150.73 192.49l-6.012-6.817-3.712.147s-.521 5.67-.734 8.046c-.376 4.185-2.111 12.387-3.177 15.986-.346 1.172-.548 2.266-.603 3.257-.095 1.67 1.298 3.05 2.97 3.05h4.41c2.57 0 4.854-1.715 5.486-4.206 1.966-7.754 1.372-19.464 1.372-19.464z" stroke="#52267D"/>
    <path stroke="#52267D" stroke-width=".25" d="M142.277 197.19l-.992.87.948.857 1.546-.594-.31-.678-1.283.304.012.229.332-.015"/>
    <path d="M142.312 167.103c4.38-.09 8.483-3.105 17.42-3.518.13-.584.287-1.111.486-1.544 1.617-3.501 3.9-13.592 2.434-20.222l-1.16-5.245a24.316 24.316 0 0 1-.573-5.242 10.728 10.728 0 0 1 .335-2.658 10.483 10.483 0 0 1 .714-1.953c.15-.31.314-.611.49-.904a10.7 10.7 0 0 1 3.582-3.581 10.587 10.587 0 0 1 5.516-1.54h1.744a10.607 10.607 0 0 1 8.208 3.87c.394.478.744.992 1.052 1.534a10.205 10.205 0 0 1 1.042 2.574 10.544 10.544 0 0 1 .335 2.658c0 .733-.297 1.396-.776 1.875a2.644 2.644 0 0 1-1.875.778h-10.891l1.648 9.452c1.935 9.71 1.354 16.203-.145 20.532-.334.965-2.236 4.385-2.236 4.385 5.446 8.593 13.796 12.349 22.725 13.438 7.59.928 23.979-5.995 15.529-14.002-8.45-8.008 1.76-3.03 3.264-2.015 1.503 1.013 10.193 8.52.762 19.538-3.988 4.659-8.506 8.894-19.375 12.14-1.743.52-11.255 1.213-16.375 2.682-15.246 4.377-27.641-.382-34.586-10.445-6.917-10.024-1.023-22.552.706-22.587" fill="#9452BA"/>
    <path d="M142.312 167.103c4.38-.09 8.483-3.105 17.42-3.518.13-.584.287-1.111.486-1.544 1.617-3.501 3.9-13.592 2.434-20.222l-1.16-5.245a24.316 24.316 0 0 1-.573-5.242 10.728 10.728 0 0 1 .335-2.658 10.483 10.483 0 0 1 .714-1.953c.15-.31.314-.611.49-.904a10.7 10.7 0 0 1 3.582-3.581 10.587 10.587 0 0 1 5.516-1.54h1.744a10.607 10.607 0 0 1 8.208 3.87c.394.478.744.992 1.052 1.534a10.205 10.205 0 0 1 1.042 2.574 10.544 10.544 0 0 1 .335 2.658c0 .733-.297 1.396-.776 1.875a2.644 2.644 0 0 1-1.875.778h-10.891l1.648 9.452c1.935 9.71 1.354 16.203-.145 20.532-.334.965-2.236 4.385-2.236 4.385 5.446 8.593 13.796 12.349 22.725 13.438 7.59.928 23.979-5.995 15.529-14.002-8.45-8.008 1.76-3.03 3.264-2.015 1.503 1.013 10.193 8.52.762 19.538-3.988 4.659-8.506 8.894-19.375 12.14-1.743.52-11.255 1.213-16.375 2.682-15.246 4.377-27.641-.382-34.586-10.445-6.917-10.024-1.023-22.552.706-22.587z" stroke="#52267D" stroke-width="2"/>
    <path d="M151.77 152.632c.35-11.26-8.586-20.109-18.742-21.979-2.11-.388-2.795-1.05-5.102-1.05h-1.766c-5.952 0-10.777 4.825-10.777 10.776a2.688 2.688 0 0 0 2.687 2.687s18.119-.005 18.204-.013l1.477.001c-.002.002-1.48.003-1.481.005 4.007 1.701 6.5 6.821 6.94 9.573.626 3.918.168 7.15-1.168 9.765-.891 1.741-.992 3.84-.855 5.538l.104.035c.062.908.209 1.941.48 3.12 1.706-1.189 4.359-2.978 4.845-3.234 1.046-.553 3.41-1.81 4.468-2.416 6.758-3.875.489-6.404.687-12.808" fill="#9452BA"/>
    <path d="M151.77 152.632c.35-11.26-8.586-20.109-18.742-21.979-2.11-.388-2.795-1.05-5.102-1.05h-1.766c-5.952 0-10.777 4.825-10.777 10.776a2.688 2.688 0 0 0 2.687 2.687s18.119-.005 18.204-.013l1.477.001c-.002.002-1.48.003-1.481.005 4.007 1.701 6.5 6.821 6.94 9.573.626 3.918.168 7.15-1.168 9.765-.891 1.741-.992 3.84-.855 5.538l.104.035c.062.908.209 1.941.48 3.12 1.706-1.189 4.359-2.978 4.845-3.234 1.046-.553 3.41-1.81 4.468-2.416 6.758-3.875.489-6.404.687-12.808z" stroke="#52267D"/>
    <path d="M146 165.643c-.089-1.74-.354-2.632-.159-3.34 1.122-4.073 1.487-5.358 1.487-9.671 0-4.285-2.482-8.52-6.147-10.773-.202-.123-2.84-.31-4.91 1.2 4.005 1.7 6.5 6.82 6.94 9.573.625 3.918.166 7.15-1.17 9.765-.89 1.74-.992 3.839-.854 5.538 0 0 4.916 1.846 4.813-2.292" fill="#F3E3FF"/>
    <path d="M146 165.643c-.089-1.74-.354-2.632-.159-3.34 1.122-4.073 1.487-5.358 1.487-9.671 0-4.285-2.482-8.52-6.147-10.773-.202-.123-2.84-.31-4.91 1.2 4.005 1.7 6.5 6.82 6.94 9.573.625 3.918.166 7.15-1.17 9.765-.89 1.74-.992 3.839-.854 5.538 0 0 4.916 1.846 4.813-2.292" stroke="#52267D" stroke-width=".5"/>
    <path d="M120.504 131.434s-.004-1.882 1.866-2.63c.571-.227 1.613-.652 1.613-.652s1.114 2.355-.148 2.95c-1.816.854-3.33.332-3.33.332" fill="#FFF"/>
    <path d="M120.504 131.434s-.004-1.882 1.866-2.63c.571-.227 1.613-.652 1.613-.652s1.114 2.355-.148 2.95c-1.816.854-3.33.332-3.33.332z" stroke="#52267D" stroke-width=".5"/>
    <path d="M125.186 130.11s.054-2.563 2.938-2.937c.539-.07 1.942-.036 1.942-.036s.648 2.713-.873 2.974c-1.87.32-4.007 0-4.007 0" fill="#FFF"/>
    <path d="M125.186 130.11s.054-2.563 2.938-2.937c.539-.07 1.942-.036 1.942-.036s.648 2.713-.873 2.974c-1.87.32-4.007 0-4.007 0z" stroke="#52267D" stroke-width=".5"/>
    <path d="M130.922 130.356s.38-2.844 2.935-2.062c1.091.334 1.697 1.164 1.697 1.164s-.508 2.166-1.525 1.92c-1.774-.423-3.107-1.022-3.107-1.022" fill="#FFF"/>
    <path d="M130.922 130.356s.38-2.844 2.935-2.062c1.091.334 1.697 1.164 1.697 1.164s-.508 2.166-1.525 1.92c-1.774-.423-3.107-1.022-3.107-1.022z" stroke="#52267D" stroke-width=".5"/>
    <path d="M138.341 144.161s5.955-3.237 4.822-8.686c.791.652 2.906 2.638 3.672 3.655 0 1.066.195 5.302-5.653 8.138-1.029-1.066-1.895-2.397-2.84-3.107" fill="#FFF"/>
    <path d="M138.341 144.161s5.955-3.237 4.822-8.686c.791.652 2.906 2.638 3.672 3.655 0 1.066.195 5.302-5.653 8.138-1.029-1.066-1.895-2.397-2.84-3.107z" stroke="#52267D" stroke-width=".5"/>
    <path d="M121.056 131.133s-.002-1.099 1.089-1.535c.333-.133.94-.38.94-.38s.65 1.374-.086 1.721c-1.06.5-1.943.194-1.943.194M126.037 129.756s.031-1.5 1.721-1.72c.315-.04 1.136-.02 1.136-.02s.38 1.588-.51 1.74c-1.095.187-2.347 0-2.347 0M131.553 130.27s.225-1.682 1.735-1.22a2.112 2.112 0 0 1 1.004.689s-.301 1.28-.901 1.137c-1.05-.251-1.838-.605-1.838-.605M131.51 141.262h-6.646v-2.865c0-1.16.941-2.102 2.101-2.102h4.545c.708 0 1.282.574 1.282 1.282v2.403c0 .708-.574 1.282-1.282 1.282" fill="#F3E3FF"/>
    <path d="M130.794 141.168h-5.837v-1.887c0-1.112.902-2.014 2.015-2.014h3.822c.557 0 1.008.451 1.008 1.007v1.887c0 .556-.45 1.007-1.008 1.007" fill="#FFF"/>
    <path d="M130.794 141.168h-5.837v-1.887c0-1.112.902-2.014 2.015-2.014h3.822c.557 0 1.008.451 1.008 1.007v1.887c0 .556-.45 1.007-1.008 1.007z" stroke="#52267D" stroke-width=".5"/>
    <path d="M125.844 139.165a1.09 1.09 0 1 0 2.179.002 1.09 1.09 0 0 0-2.179-.002M117.82 142.247c.31-.066.587-.238.784-.486l.365-.459-.813.174-.48.102a.343.343 0 0 0 .145.67" fill="#52267D"/>
    <path d="M139.347 144.269s4.588-2.47 4.518-7.446c1.97 1.436 2.505 2.365 2.505 2.365s-.343 2.368-1.447 3.564c-1.694 1.835-3.46 2.4-5.576 1.517" fill="#E1F2FF"/>
    <path d="M143.69 143.396s-1.81 1.84-3.573 2.723" fill="#FFF"/>
    <path d="M143.69 143.396s-1.81 1.84-3.573 2.723" stroke="#52267D" stroke-width=".5"/>
    <path d="M161.682 162.743l-1.022-2.017c-3.818-9.38-4.406-14.89-2.426-23.844l1.16-5.245c.38-1.72.572-3.479.572-5.242 0-5.874-4.763-10.636-10.637-10.636h-1.717c-5.794 0-10.492 4.697-10.492 10.491v.302a2.497 2.497 0 0 0 2.497 2.496h10.874l-1.65 9.452c-5.046 25.33-4.54 35.6 5.392 33.49" fill="#9452BA"/>
    <path d="M161.682 162.743l-1.022-2.017c-3.818-9.38-4.406-14.89-2.426-23.844l1.16-5.245c.38-1.72.572-3.479.572-5.242 0-5.874-4.763-10.636-10.637-10.636h-1.717c-5.794 0-10.492 4.697-10.492 10.491v.302a2.497 2.497 0 0 0 2.497 2.496h10.874l-1.65 9.452c-5.046 25.33-4.54 35.6 5.392 33.49" stroke="#52267D"/>
    <path d="M142.363 117.018s.174-1.844 2.006-2.576c.559-.224 1.435.014 1.435.014s1.058 1.654-.179 2.236c-1.78.838-3.262.326-3.262.326" fill="#FFF"/>
    <path d="M142.363 117.018s.174-1.844 2.006-2.576c.559-.224 1.435.014 1.435.014s1.058 1.654-.179 2.236c-1.78.838-3.262.326-3.262.326z" stroke="#52267D" stroke-width=".5"/>
    <path d="M146.725 116.41s.06-2.904 3.327-3.328c.61-.08 1.392-.02 1.392-.02s1.54 3.053-.182 3.348c-2.117.363-4.537 0-4.537 0" fill="#FFF"/>
    <path d="M146.725 116.41s.06-2.904 3.327-3.328c.61-.08 1.392-.02 1.392-.02s1.54 3.053-.182 3.348c-2.117.363-4.537 0-4.537 0z" stroke="#52267D" stroke-width=".5"/>
    <path d="M152.57 117.07s.443-2.775 2.926-1.946a3.51 3.51 0 0 1 1.634 1.182s-.553 2.108-1.542 1.845c-1.727-.461-3.018-1.08-3.018-1.08" fill="#FFF"/>
    <path d="M152.57 117.07s.443-2.775 2.926-1.946a3.51 3.51 0 0 1 1.634 1.182s-.553 2.108-1.542 1.845c-1.727-.461-3.018-1.08-3.018-1.08z" stroke="#52267D" stroke-width=".5"/>
    <path d="M142.54 166.767a4.928 4.928 0 0 1 1.787-.861" fill="#F3E3FF"/>
    <path d="M142.54 166.767a4.928 4.928 0 0 1 1.787-.861" stroke="#52267D" stroke-width=".5"/>
    <path d="M146.14 166.71c-1.776-7.223 1.43-21.03 2.02-24.429l2.334-13.615h1.023c1.296 0 2.277 1.41 2.094 2.694l-1.693 11.81c-.572 4-1.168 22.515 5.78 26.491 1.483.85 3.892.292 4.8-.14 3.303-1.579 4.252-5.696 4.976-9.015 1.498-6.87.33-12.263 0-17.648l-.35-6.737c-.061-1.218.908-2.51 2.124-2.51h1.242l2.236 13.616c.673 3.877 2.403 17.322-5.52 23.625-.142.114 1.927.577 1.328 1.637-2.383 4.212-9.29 4.878-10.588 6.682-5.007 6.944-.318 21.741-.318 21.741s-5.557-2.218-9-5.303c-8.046-7.212-9.067-17.658-9.104-20.733-.045-3.679.922-5.96 2.11-7.323" fill="#F3E3FF"/>
    <path d="M146.14 166.71c-1.776-7.223 1.43-21.03 2.02-24.429l2.334-13.615h1.023c1.296 0 2.277 1.41 2.094 2.694l-1.693 11.81c-.572 4-1.168 22.515 5.78 26.491 1.483.85 3.892.292 4.8-.14 3.303-1.579 4.252-5.696 4.976-9.015 1.498-6.87.33-12.263 0-17.648l-.35-6.737c-.061-1.218.908-2.51 2.124-2.51h1.242l2.236 13.616c.673 3.877 2.403 17.322-5.52 23.625-.142.114 1.927.577 1.328 1.637-2.383 4.212-9.29 4.878-10.588 6.682-5.007 6.944-.318 21.741-.318 21.741s-5.557-2.218-9-5.303c-8.046-7.212-9.067-17.658-9.104-20.733-.045-3.679.922-5.96 2.11-7.323" stroke="#52267D" stroke-width=".5"/>
    <path d="M211.455 172.734s1.143-1.266.5-2.966c-.196-.518-.902-.965-.902-.965s-1.783.31-1.408 1.513c.54 1.73 1.81 2.418 1.81 2.418" fill="#FFF"/>
    <path d="M211.455 172.734s1.143-1.266.5-2.966c-.196-.518-.902-.965-.902-.965s-1.783.31-1.408 1.513c.54 1.73 1.81 2.418 1.81 2.418z" stroke="#52267D"/>
    <path d="M211.076 170.975s.401-.444.176-1.04c-.069-.183-.317-.34-.317-.34s-.625.11-.493.53c.19.608.634.85.634.85" fill="#F3E3FF"/>
    <path d="M202.095 181.802s-1.086-2.477 1.508-4.113c.483-.306 1.168-.561 1.168-.561s2.496 1.974 1.156 2.898c-1.646 1.135-3.832 1.776-3.832 1.776" fill="#FFF"/>
    <path d="M202.095 181.802s-1.086-2.477 1.508-4.113c.483-.306 1.168-.561 1.168-.561s2.496 1.974 1.156 2.898c-1.646 1.135-3.832 1.776-3.832 1.776z" stroke="#52267D"/>
    <path d="M202.998 180.87s-.602-1.374.837-2.28c.267-.17.647-.312.647-.312s1.384 1.095.642 1.607c-.913.63-2.126.985-2.126.985" fill="#F3E3FF"/>
    <path d="M210.013 173.69s1.88 1.65.076 3.128c-.77.63-1.665.669-1.665.669s-1.326-1.417-.657-2.036c1.167-1.083 2.246-1.761 2.246-1.761" fill="#FFF"/>
    <path d="M210.013 173.69s1.88 1.65.076 3.128c-.77.63-1.665.669-1.665.669s-1.326-1.417-.657-2.036c1.167-1.083 2.246-1.761 2.246-1.761z" stroke="#52267D"/>
    <path d="M209.74 174.86s.831.732.032 1.386c-.34.279-.736.297-.736.297s-.588-.628-.292-.903c.517-.48.995-.78.995-.78" fill="#F3E3FF"/>
    <path d="M193.072 183.105s-.619-2.205 1.808-3.08c2.425-.875 3.078-.148 3.078-.148s1.343 2.26.143 2.987c-1.2.727-5.029.24-5.029.24" fill="#FFF"/>
    <path d="M193.072 183.105s-.619-2.205 1.808-3.08c2.425-.875 3.078-.148 3.078-.148s1.343 2.26.143 2.987c-1.2.727-5.029.24-5.029.24z" stroke="#52267D"/>
    <path d="M194.211 182.604s-.322-1.146.94-1.602c1.262-.455 1.601-.076 1.601-.076s.698 1.175.074 1.553c-.624.378-2.615.125-2.615.125" fill="#F3E3FF"/>
    <path d="M149.964 131.987s3.873 2.19 9.318.213c-.374 1.689-1.135 5.084-1.135 5.084s-5.044 1.547-8.936-.901c.4-2.242.753-4.396.753-4.396" fill="#FFF"/>
    <path d="M149.964 131.987s3.873 2.19 9.318.213c-.374 1.689-1.135 5.084-1.135 5.084s-5.044 1.547-8.936-.901c.4-2.242.753-4.396.753-4.396z" stroke="#52267D" stroke-width=".5"/>
    <path d="M178.944 122.145s-.177-1.857-2.022-2.596c-.563-.225-2.084-.286-2.084-.286s-.427 1.967.818 2.554c1.793.844 3.288.328 3.288.328" fill="#FFF"/>
    <path d="M178.944 122.145s-.177-1.857-2.022-2.596c-.563-.225-2.084-.286-2.084-.286s-.427 1.967.818 2.554c1.793.844 3.288.328 3.288.328z" stroke="#52267D" stroke-width=".5"/>
    <path d="M174.26 121.197s-.053-2.531-2.899-2.9c-.532-.069-1.214-.017-1.214-.017s-1.343 2.659.159 2.917c1.846.316 3.954 0 3.954 0" fill="#FFF"/>
    <path d="M174.26 121.197s-.053-2.531-2.899-2.9c-.532-.069-1.214-.017-1.214-.017s-1.343 2.659.159 2.917c1.846.316 3.954 0 3.954 0z" stroke="#52267D" stroke-width=".5"/>
    <path d="M168.867 121.38s-.446-2.796-2.947-1.96c-1.07.356-1.646 1.19-1.646 1.19s.555 2.124 1.553 1.858c1.74-.464 3.04-1.088 3.04-1.088" fill="#FFF"/>
    <path d="M168.867 121.38s-.446-2.796-2.947-1.96c-1.07.356-1.646 1.19-1.646 1.19s.555 2.124 1.553 1.858c1.74-.464 3.04-1.088 3.04-1.088z" stroke="#52267D" stroke-width=".5"/>
    <path d="M143.202 116.635s.1-1.043 1.135-1.457c.315-.126.81.009.81.009s.598.934-.1 1.264c-1.006.473-1.845.184-1.845.184M147.639 116.023s.04-1.908 2.187-2.186c.4-.052.914-.012.914-.012s1.012 2.004-.12 2.198c-1.391.239-2.981 0-2.981 0M153.37 116.898s.282-1.766 1.862-1.24a2.226 2.226 0 0 1 1.04.753s-.352 1.342-.982 1.174c-1.099-.293-1.92-.687-1.92-.687M178.146 121.753s-.098-1.035-1.126-1.446c-.314-.126-1.161-.16-1.161-.16s-.238 1.096.455 1.423c.999.47 1.832.183 1.832.183M173.28 120.828s-.031-1.467-1.681-1.68c-.307-.04-.703-.01-.703-.01s-.777 1.541.092 1.69c1.069.183 2.292 0 2.292 0M168.081 121.27s-.265-1.653-1.744-1.16c-.632.212-.974.705-.974.705s.33 1.257.92 1.1a11.466 11.466 0 0 0 1.798-.644" fill="#F3E3FF"/>
    <path d="M161.538 136.782s4.796.748 9.357-.37c.445 2.477.731 4.35.731 4.35s-3.164 2.147-9.009.901c-.689-3.184-1.079-4.88-1.079-4.88" fill="#FFF"/>
    <path d="M161.538 136.782s4.796.748 9.357-.37c.445 2.477.731 4.35.731 4.35s-3.164 2.147-9.009.901c-.689-3.184-1.079-4.88-1.079-4.88z" stroke="#52267D" stroke-width=".5"/>
    <path d="M168.27 131.965h6.646V129.1a2.1 2.1 0 0 0-2.101-2.1h-4.545c-.708 0-1.282.573-1.282 1.281v2.402c0 .708.574 1.282 1.282 1.282" fill="#F3E3FF"/>
    <path d="M168.987 131.872h5.836v-1.887a2.014 2.014 0 0 0-2.015-2.015h-3.821c-.557 0-1.008.451-1.008 1.007v1.887c0 .557.45 1.008 1.008 1.008" fill="#FFF"/>
    <path d="M168.987 131.872h5.836v-1.887a2.014 2.014 0 0 0-2.015-2.015h-3.821c-.557 0-1.008.451-1.008 1.007v1.887c0 .557.45 1.008 1.008 1.008z" stroke="#52267D" stroke-width=".5"/>
    <path d="M173.937 130.716a1.09 1.09 0 1 1-2.18 0 1.09 1.09 0 0 1 2.18 0" fill="#52267D"/>
    <path d="M151.83 127.257h-6.647v-2.865a2.1 2.1 0 0 1 2.101-2.1h4.545c.708 0 1.282.573 1.282 1.281v2.402c0 .708-.574 1.282-1.282 1.282" fill="#F3E3FF"/>
    <path d="M151.113 127.163h-5.837v-1.887c0-1.113.903-2.014 2.016-2.014h3.82c.558 0 1.008.451 1.008 1.007v1.887c0 .556-.45 1.007-1.007 1.007" fill="#FFF"/>
    <path d="M151.113 127.163h-5.837v-1.887c0-1.113.903-2.014 2.016-2.014h3.82c.558 0 1.008.451 1.008 1.007v1.887c0 .556-.45 1.007-1.007 1.007z" stroke="#52267D" stroke-width=".5"/>
    <path d="M146.162 126.007a1.09 1.09 0 1 0 2.18.001 1.09 1.09 0 0 0-2.18 0M181.477 133.098a1.368 1.368 0 0 1-.784-.485l-.364-.46.812.174.48.103a.342.342 0 0 1-.144.668M139.47 128.002c.31-.066.588-.238.785-.486l.365-.459-.813.174-.48.103a.341.341 0 1 0 .144.668" fill="#52267D"/>
    <path d="M150.429 132.694s4.058 1.729 8.151.149c-.428 2.402-.811 3.627-.811 3.627s-2.463.145-4.094-.176c-2.329-.46-3.246-1.518-3.246-3.6" fill="#E1F2FF"/>
    <path d="M156.075 135.773s-3.693.308-6.552-1.175" fill="#FFF"/>
    <path d="M156.075 135.773s-3.693.308-6.552-1.175" stroke="#52267D" stroke-width=".5"/>
    <path d="M169.139 137.323s-3.6 1.023-6.776.39c.6 2.363.918 3.104.918 3.104s4.763-.635 5.858-3.494" fill="#E1F2FF"/>
    <path d="M167.207 170.903s-.218.157-.527.344" fill="#F3E3FF"/>
    <path d="M167.207 170.903s-.218.157-.527.344" stroke="#52267D" stroke-width=".5"/>
    <path d="M169.486 138.685s-3.623.687-7.47.229" fill="#FFF"/>
    <path d="M169.486 138.685s-3.623.687-7.47.229" stroke="#52267D" stroke-width=".5"/>
    <path d="M163.547 213.236s-.96-.783-2.238.266c-1.167.959-2.045 2.44-1.523 2.589a5.582 5.582 0 0 0 2.411.117c.842-.155 1.585.007 1.923-1.753.157-.821-.573-1.22-.573-1.22" fill="#FFF"/>
    <path d="M163.547 213.236s-.96-.783-2.238.266c-1.167.959-2.045 2.44-1.523 2.589a5.582 5.582 0 0 0 2.411.117c.842-.155 1.585.007 1.923-1.753.157-.821-.573-1.22-.573-1.22z" stroke="#52267D" stroke-width=".5"/>
    <path d="M163.328 213.52s-.598-.486-1.394.167c-.725.597-1.272 1.519-.946 1.61.325.093.9.184 1.5.074.524-.097.986.004 1.196-1.091.098-.511-.356-.76-.356-.76" fill="#E1F2FF"/>
    <path d="M164.911 213.218c.508-.068 1.24 1.035 1.155 1.371-.083.336-.14 1.446-.963 1.567-.605.089-2.764.314-3.236-.155-.435-.432.416-2.431 3.044-2.783" fill="#FFF"/>
    <path d="M164.911 213.218c.508-.068 1.24 1.035 1.155 1.371-.083.336-.14 1.446-.963 1.567-.605.089-2.764.314-3.236-.155-.435-.432.416-2.431 3.044-2.783z" stroke="#52267D" stroke-width=".5"/>
    <path d="M165.054 213.524c.3-.04.731.61.682.809-.049.199-.083.854-.569.925-.357.052-1.632.185-1.909-.091-.257-.256.245-1.435 1.796-1.643" fill="#E1F2FF"/>
    <path d="M167.06 213.433s-.438-.23-1.307.268c-.767.438-1.913 1.14-1.611 2.012.3.872 2.726.548 3.265.364.539-.185.877-.772.782-1.286-.208-1.12-1.13-1.358-1.13-1.358" fill="#FFF"/>
    <path d="M167.06 213.433s-.438-.23-1.307.268c-.767.438-1.913 1.14-1.611 2.012.3.872 2.726.548 3.265.364.539-.185.877-.772.782-1.286-.208-1.12-1.13-1.358-1.13-1.358z" stroke="#52267D" stroke-width=".5"/>
    <path d="M167.225 213.742s-.26-.136-.774.158c-.455.26-1.132.675-.955 1.192.179.516 1.615.325 1.934.214.319-.109.52-.457.463-.76-.123-.662-.668-.804-.668-.804" fill="#E1F2FF"/>
    <path d="M156.922 185.62s.494 5.616-.935 14.446c-1.329 8.22-3.686 10.798-3.512 12.93.134 1.65.83 3.162 2.486 3.162h4.94a5.368 5.368 0 0 0 5.083-3.657c.597-1.759 1.218-4.153 1.59-7.179.38-4.116.297-8.244.23-10.669" fill="#9452BA"/>
    <path d="M156.922 185.62s.494 5.616-.935 14.446c-1.329 8.22-3.686 10.798-3.512 12.93.134 1.65.83 3.162 2.486 3.162h4.94a5.368 5.368 0 0 0 5.083-3.657c.597-1.759 1.218-4.153 1.59-7.179.38-4.116.297-8.244.23-10.669" stroke="#52267D"/>
    <path d="M182.254 189.335c-1.637 1.41-2.485 3.716-2.473 5.835.018 2.83 1.66 6.433.62 11.135-.928 4.19-2.774 4.928-2.217 8.686.1.68.71 1.167 1.394 1.167h5.506a5.191 5.191 0 0 0 5.117-4.337c1.107-6.675.262-12.976-.628-17.81" fill="#9452BA"/>
    <path d="M182.254 189.335c-1.637 1.41-2.485 3.716-2.473 5.835.018 2.83 1.66 6.433.62 11.135-.928 4.19-2.774 4.928-2.217 8.686.1.68.71 1.167 1.394 1.167h5.506a5.191 5.191 0 0 0 5.117-4.337c1.107-6.675.262-12.976-.628-17.81" stroke="#52267D"/>
    <path stroke="#52267D" stroke-width=".25" d="M183.335 195.572l.324-.232 1.046.235-1.162.742-1.399-.69 1.454-1.161.661.22"/>
    <path d="M153.554 213.236s-.962-.783-2.239.266c-1.167.959-2.045 2.44-1.523 2.589a5.585 5.585 0 0 0 2.412.117c.841-.155 1.585.007 1.922-1.753.157-.821-.572-1.22-.572-1.22" fill="#FFF"/>
    <path d="M153.554 213.236s-.962-.783-2.239.266c-1.167.959-2.045 2.44-1.523 2.589a5.585 5.585 0 0 0 2.412.117c.841-.155 1.585.007 1.922-1.753.157-.821-.572-1.22-.572-1.22z" stroke="#52267D" stroke-width=".5"/>
    <path d="M153.334 213.52s-.598-.486-1.393.167c-.726.597-1.272 1.519-.947 1.61.325.093.9.184 1.5.074.524-.097.986.004 1.196-1.091.1-.511-.356-.76-.356-.76" fill="#E1F2FF"/>
    <path stroke="#52267D" stroke-width=".25" d="M161.11 198.677l-1.968.613.26 1.824 2.017.146.939-1.084-1.208-.67-.998.29.635.706"/>
    <g stroke="#F3E3FF" stroke-width=".25">
      <path d="M118.94 138.645a.535.535 0 1 0 1.072 0M117.868 138.645a.536.536 0 0 0 1.072 0M118.405 139.18a.536.536 0 0 0 1.07 0M139.47 138.143a.79.79 0 0 0 .834-1.341M139.725 139.23a.79.79 0 0 0 .833-1.341M164.898 156.143a.72.72 0 0 0 1.437 0M163.46 156.143a.72.72 0 0 0 1.437 0M164.179 156.862a.72.72 0 0 0 1.437 0M143.434 201.674a.718.718 0 1 0 1.437 0M141.996 201.674a.718.718 0 1 0 1.437 0M142.715 202.393a.718.718 0 1 0 1.437 0M163.784 133.239a.79.79 0 1 0 1.58 0M162.994 134.029a.79.79 0 0 0 1.58 0M153.69 147.185a.96.96 0 0 0 1.92 0M152.732 148.145a.959.959 0 1 0 1.919 0M139.753 123.328a.642.642 0 0 0 1.283 0M139.11 123.97a.643.643 0 0 0 1.285 0M200.157 188.034a.739.739 0 1 0 1.127-.956M200.07 189.075a.739.739 0 1 0 1.129-.955M170.788 177.831a.867.867 0 1 0 1.577-.719M169.211 178.551a.866.866 0 1 0 1.577-.72M170.36 178.98a.867.867 0 1 0 1.577-.72M168.782 179.7a.866.866 0 1 0 1.577-.72M171.508 179.41a.867.867 0 1 0 1.577-.72M155.695 129.816a.875.875 0 0 0 1.749 0M155.392 162.868a.875.875 0 0 0 1.749 0M165.304 144.649a.663.663 0 0 0 1.325 0M181.083 129.591a.498.498 0 0 0 .994 0M185.22 202.693a.874.874 0 1 0 1.723-.3M161.058 209.135a.96.96 0 0 0 1.92 0M160.099 210.094a.96.96 0 0 0 1.919 0"/>
    </g>
    <path d="M154.917 213.218c.508-.068 1.24 1.035 1.156 1.371-.084.336-.14 1.446-.963 1.567-.606.089-2.765.314-3.237-.155-.435-.432.417-2.431 3.044-2.783" fill="#FFF"/>
    <path d="M154.917 213.218c.508-.068 1.24 1.035 1.156 1.371-.084.336-.14 1.446-.963 1.567-.606.089-2.765.314-3.237-.155-.435-.432.417-2.431 3.044-2.783z" stroke="#52267D" stroke-width=".5"/>
    <path d="M155.06 213.524c.3-.04.73.61.682.809-.05.199-.083.854-.57.925-.355.052-1.63.185-1.908-.091-.257-.256.245-1.435 1.796-1.643" fill="#E1F2FF"/>
    <path d="M156.722 213.761s-.388-.203-1.156.236c-.68.389-1.692 1.009-1.425 1.781.267.771 2.41.484 2.887.321.476-.163.776-.682.692-1.137-.184-.99-.998-1.201-.998-1.201" fill="#FFF"/>
    <path d="M156.722 213.761s-.388-.203-1.156.236c-.68.389-1.692 1.009-1.425 1.781.267.771 2.41.484 2.887.321.476-.163.776-.682.692-1.137-.184-.99-.998-1.201-.998-1.201z" stroke="#52267D" stroke-width=".5"/>
    <path d="M156.867 214.034s-.229-.12-.685.14c-.4.23-1.002.597-.843 1.053.158.458 1.427.287 1.71.191.282-.096.46-.404.41-.673-.11-.587-.592-.712-.592-.712" fill="#E1F2FF"/>
    <path d="M136.443 213.975s-.388-.203-1.155.236c-.68.389-1.692 1.009-1.425 1.78.267.772 2.41.485 2.887.322.476-.163.776-.682.69-1.137-.183-.99-.997-1.201-.997-1.201" fill="#FFF"/>
    <path d="M136.443 213.975s-.388-.203-1.155.236c-.68.389-1.692 1.009-1.425 1.78.267.772 2.41.485 2.887.322.476-.163.776-.682.69-1.137-.183-.99-.997-1.201-.997-1.201z" stroke="#52267D" stroke-width=".5"/>
    <path d="M136.59 214.247s-.23-.119-.686.141c-.402.23-1.002.597-.843 1.053.157.457 1.426.287 1.71.191.281-.097.46-.404.41-.673-.11-.587-.592-.712-.592-.712" fill="#E1F2FF"/>
    <path d="M138.788 213.432c.508-.068 1.24 1.035 1.156 1.37-.084.337-.14 1.447-.963 1.568-.606.089-2.765.314-3.237-.155-.435-.432.417-2.431 3.044-2.783" fill="#FFF"/>
    <path d="M138.788 213.432c.508-.068 1.24 1.035 1.156 1.37-.084.337-.14 1.447-.963 1.568-.606.089-2.765.314-3.237-.155-.435-.432.417-2.431 3.044-2.783z" stroke="#52267D" stroke-width=".5"/>
    <path d="M138.93 213.738c.3-.04.732.61.683.809-.05.199-.083.854-.57.925-.355.052-1.63.185-1.908-.091-.257-.256.245-1.435 1.796-1.643" fill="#E1F2FF"/>
    <path d="M180.283 213.236s-.962-.783-2.239.266c-1.167.959-2.045 2.44-1.522 2.589a5.58 5.58 0 0 0 2.411.117c.841-.155 1.585.007 1.922-1.753.157-.821-.572-1.22-.572-1.22" fill="#FFF"/>
    <path d="M180.283 213.236s-.962-.783-2.239.266c-1.167.959-2.045 2.44-1.522 2.589a5.58 5.58 0 0 0 2.411.117c.841-.155 1.585.007 1.922-1.753.157-.821-.572-1.22-.572-1.22z" stroke="#52267D" stroke-width=".5"/>
    <path d="M180.064 213.52s-.598-.486-1.393.167c-.726.597-1.272 1.519-.947 1.61.325.093.899.184 1.5.074.525-.097.986.004 1.197-1.091.098-.511-.357-.76-.357-.76" fill="#E1F2FF"/>
    <path d="M181.648 213.218c.508-.068 1.238 1.035 1.155 1.371-.084.336-.141 1.446-.963 1.567-.605.089-2.765.314-3.236-.155-.435-.432.416-2.431 3.044-2.783" fill="#FFF"/>
    <path d="M181.648 213.218c.508-.068 1.238 1.035 1.155 1.371-.084.336-.141 1.446-.963 1.567-.605.089-2.765.314-3.236-.155-.435-.432.416-2.431 3.044-2.783z" stroke="#52267D" stroke-width=".5"/>
    <path d="M181.79 213.524c.3-.04.73.61.681.809-.049.199-.083.854-.568.925-.357.052-1.632.185-1.91-.091-.257-.256.245-1.435 1.796-1.643" fill="#E1F2FF"/>
    <path d="M183.451 213.761s-.388-.203-1.156.236c-.679.389-1.692 1.009-1.425 1.781.267.771 2.41.484 2.888.321.476-.163.775-.682.691-1.137-.184-.99-.998-1.201-.998-1.201" fill="#FFF"/>
    <path d="M183.451 213.761s-.388-.203-1.156.236c-.679.389-1.692 1.009-1.425 1.781.267.771 2.41.484 2.888.321.476-.163.775-.682.691-1.137-.184-.99-.998-1.201-.998-1.201z" stroke="#52267D" stroke-width=".5"/>
    <path d="M183.597 214.034s-.23-.12-.685.14c-.401.23-1.001.597-.843 1.053.158.458 1.427.287 1.71.191.282-.096.459-.404.409-.673-.11-.587-.591-.712-.591-.712" fill="#E1F2FF"/>
    <path d="M145.458 213.906c.158-.133.35-.17.505-.097.583.275 2.057 1.058 1.753 2.117-.237.825-.74.577-1.704.594l-.727.013a.413.413 0 0 1-.366-.212c-.418-.698-.19-1.797.488-2.371l.051-.043z" fill="#FFF"/>
    <path d="M145.458 213.906c.158-.133.35-.17.505-.097.583.275 2.057 1.058 1.753 2.117-.237.825-.74.577-1.704.594l-.727.013a.413.413 0 0 1-.366-.212c-.418-.698-.19-1.797.488-2.371l.051-.043z" stroke="#52267D" stroke-width=".5"/>
    <path d="M145.532 214.144c.117-.098.254-.125.368-.071.424.2 1.494.768 1.273 1.538-.172.599-.537.419-1.238.43l-.528.01a.3.3 0 0 1-.266-.153c-.302-.508-.138-1.306.356-1.723l.035-.031z" fill="#E1F2FF"/>
    <path d="M142.048 213.59s-.89-.86-2.253.075c-1.244.857-2.245 2.258-1.736 2.451a5.567 5.567 0 0 0 2.392.321c.852-.082 1.578.142 2.065-1.583.226-.804-.468-1.264-.468-1.264" fill="#FFF"/>
    <path d="M142.048 213.59s-.89-.86-2.253.075c-1.244.857-2.245 2.258-1.736 2.451a5.567 5.567 0 0 0 2.392.321c.852-.082 1.578.142 2.065-1.583.226-.804-.468-1.264-.468-1.264z" stroke="#52267D" stroke-width=".5"/>
    <path d="M141.806 213.857s-.555-.537-1.402.047c-.775.532-1.397 1.404-1.08 1.524.316.12.879.259 1.488.2.53-.051.982.088 1.285-.985.14-.501-.291-.786-.291-.786" fill="#E1F2FF"/>
    <path d="M19.978 216.532h36" fill="#FFF"/>
    <path d="M19.978 216.532h36" stroke="#5E63B6" stroke-width="2" stroke-linecap="round" stroke-linejoin="round"/>
    <path d="M195.32 216.532h44" fill="#FFF"/>
    <path d="M195.32 216.532h44" stroke="#5E63B6" stroke-width="2" stroke-linecap="round" stroke-linejoin="round"/>
    <path d="M188.828 217.532H64.694a2.256 2.256 0 0 1-2.255-2.255V33.256A2.256 2.256 0 0 1 64.694 31h124.134a2.256 2.256 0 0 1 2.255 2.255v182.023a2.256 2.256 0 0 1-2.255 2.255" fill="#FFF"/>
    <path d="M188.828 217.532H64.694a2.256 2.256 0 0 1-2.255-2.255V33.256A2.256 2.256 0 0 1 64.694 31h124.134a2.256 2.256 0 0 1 2.255 2.255v182.023a2.256 2.256 0 0 1-2.255 2.255z" stroke="#5E63B6" stroke-width="2"/>
    <path d="M206.978 63.541v7M210.478 67.041h-7" stroke="#5E63B6" stroke-width="2" stroke-linecap="round" stroke-linejoin="round"/>
    <path d="M42.728 183.822v3.939M44.697 185.791h-3.939" stroke="#5E63B6" stroke-linecap="round"/>
    <path d="M217.728 123.823v3.938M219.696 125.791h-3.938" stroke="#5E63B6" stroke-linecap="round" stroke-linejoin="round"/>
    <path d="M48.728 83.823v3.938M50.697 85.791h-3.939" stroke="#5E63B6" stroke-linecap="round"/>
    <path d="M26.415 122.416v8.125" fill="#FFF"/>
    <path d="M26.415 122.416v8.125" stroke="#5E63B6" stroke-width="2" stroke-linecap="round"/>
    <path d="M30.478 126.479h-8.125" fill="#FFF"/>
    <path d="M30.478 126.479h-8.125" stroke="#5E63B6" stroke-width="2" stroke-linecap="round"/>
    <path d="M246.166 216.291h6.974" fill="#FFF"/>
    <path d="M246.166 216.291h6.974" stroke="#5E63B6" stroke-width="2" stroke-linecap="round" stroke-linejoin="round"/>
    <path d="M3 216.291h8.973" fill="#FFF"/>
    <path d="M3 216.291h8.973" stroke="#5E63B6" stroke-width="2" stroke-linecap="round" stroke-linejoin="round"/>
    <path d="M95.382 225.608h67.187" fill="#FFF"/>
    <path d="M95.382 225.608h67.187" stroke="#5E63B6" stroke-width="2" stroke-linecap="round" stroke-linejoin="round"/>
    <path d="M171.187 225.608h9.142" fill="#FFF"/>
    <path d="M171.187 225.608h9.142" stroke="#5E63B6" stroke-width="2" stroke-linecap="round" stroke-linejoin="round"/>
    <path d="M87.5 225.532l-5 .075" fill="#FFF"/>
    <path d="M87.5 225.532l-5 .075" stroke="#5E63B6" stroke-width="2" stroke-linecap="round" stroke-linejoin="round"/>
    <path d="M157.164 113.87c0 18.463-14.967 33.43-33.43 33.43s-33.43-14.967-33.43-33.43 14.967-33.43 33.43-33.43 33.43 14.967 33.43 33.43" fill="#E1F2FF"/>
    <path d="M161.219 107.112c0 18.463-14.967 33.43-33.43 33.43s-33.429-14.967-33.429-33.43 14.966-33.43 33.429-33.43 33.43 14.967 33.43 33.43" fill="#FFF"/>
    <path d="M161.219 107.112c0 18.463-14.967 33.43-33.43 33.43s-33.429-14.967-33.429-33.43 14.966-33.43 33.429-33.43 33.43 14.967 33.43 33.43z" stroke="#5E63B6" stroke-width="2" stroke-dasharray="50,5,70,2"/>
    <path d="M136.516 122.069c.142.417.265.7.302.795.01.01-.012-.005 0 0 0 0 0 .003 0 0 0 .002-.002 0-.002 0-.944-9.111 4.222-12.907 5.884-18.96.007-.09.025-.187.052-.297.035-.135.063-.275.083-.414.247-1.675-.44-3.624-1.74-5.653-.004-.012-.013-.022-.018-.033-.107-.17-.222-.337-.336-.506 0 0-.005-.003-.005-.007a23.814 23.814 0 0 0-.681-.931c-.024-.032-.047-.066-.072-.098-.068-.084-.137-.168-.202-.254l-.208-.262c-.073-.086-.142-.171-.213-.254-.073-.09-.147-.176-.222-.265-.05-.06-.105-.121-.16-.184-2.041-2.351-4.698-4.675-7.472-6.696 0 0-.021-.031 0 0 .367 3.429.414 6.858.089 9.599-.391 3.305-1.575 7.153-3.216 10.64-3.841-.314-7.766-1.204-10.83-2.511-2.558-1.093-5.491-2.818-8.295-4.864.032.285.066.566.099.85.01.085.022.169.033.254.026.203.05.404.082.607a28.515 28.515 0 0 0 .134.887l.039.246c.042.256.086.51.133.764a31.696 31.696 0 0 0 .179.954c0 .022.008.043.013.067.054.262.107.52.163.779.012.054.024.106.034.159.053.236.108.47.163.706.013.045.025.09.035.138.067.27.133.54.203.806a37.473 37.473 0 0 0 .747 2.477c.004.01.008.019.009.029.456 1.323.975 2.542 1.554 3.609.086.154.172.307.26.455.004.006.004.013.009.018.08.136.16.269.24.396l.004.003.009.014c.087.139.176.276.267.405l.038.053c.002 0 0 .003.002.004.116.17.237.333.355.489.023.026.043.05.062.075.006.01.014.018.02.03a8.4 8.4 0 0 0 .429.5c.099.113.203.218.307.322.044.044.09.084.134.125.066.062.13.12.196.179.049.043.1.08.152.123.06.052.127.102.19.152.05.038.1.073.154.109.066.048.13.093.198.138l.154.094.212.12c.049.027.1.052.147.077.082.038.163.073.246.109.038.014.08.036.123.05.125.052.25.093.377.128.085.026.157.052.226.079 6.083 1.606 12.005-.94 19.433 4.37" fill="#9452BA"/>
    <path d="M76.868 148.42s-.47-14.455 13.581-21.327" stroke="#E1F2FF" stroke-width="2" stroke-linecap="round" stroke-linejoin="round"/>
    <path fill="#E1F2FF" d="M88.841 137.676l-1.91-.598 2.953-9.408-9.6-2.259.46-1.948 11.691 2.753z"/>
    <path d="M98.156 56.334s14.441.765 20.09 15.35" stroke="#E1F2FF" stroke-width="2" stroke-linecap="round" stroke-linejoin="round"/>
    <path fill="#E1F2FF" d="M107.84 69.179l.758-1.853 9.122 3.746 3.07-9.373 1.901.624-3.74 11.415z"/>
    <path d="M79.288 48.746L89.511 58.97M89.511 48.746L79.288 58.97" stroke="#ACD3EF" stroke-width="2" stroke-linecap="round" stroke-linejoin="round"/>
    <path d="M170.077 60.157a1.421 1.421 0 0 1 .42-1.01 1.456 1.456 0 0 1 1.034-.416c.201 0 .392.038.57.112.178.074.332.175.464.303.13.128.232.28.308.454.073.176.11.361.11.557 0 .202-.037.39-.11.562a1.387 1.387 0 0 1-.773.748 1.52 1.52 0 0 1-.569.107c-.209 0-.4-.036-.575-.107a1.388 1.388 0 0 1-.879-1.31zm-1.665-10.462c.213-.184.444-.357.69-.516.247-.163.514-.302.802-.42.288-.12.6-.213.937-.282a5.367 5.367 0 0 1 1.082-.102c.535 0 1.02.073 1.453.218.433.146.805.354 1.114.624.31.271.548.596.717.976.17.38.254.805.254 1.275 0 .451-.065.841-.192 1.172a3.32 3.32 0 0 1-.48.86 3.676 3.676 0 0 1-.639.633c-.23.178-.45.343-.658.5a4.64 4.64 0 0 0-.54.457.966.966 0 0 0-.28.504l-.223 1.274h-1.685l-.168-1.443c-.043-.286-.006-.534.106-.744.112-.212.265-.405.454-.58.191-.174.402-.344.638-.508.234-.164.453-.338.66-.525.204-.187.377-.399.516-.634.14-.234.211-.512.211-.833 0-.39-.137-.703-.407-.935-.27-.233-.629-.348-1.074-.348a2.75 2.75 0 0 0-.825.107 3.374 3.374 0 0 0-.574.236 5.646 5.646 0 0 0-.41.237.602.602 0 0 1-.322.106.55.55 0 0 1-.508-.295l-.649-1.015zM78.909 155.016a1.726 1.726 0 1 1-3.452 0 1.726 1.726 0 0 1 3.452 0M84.167 155.016a1.726 1.726 0 1 1-3.451 0 1.726 1.726 0 0 1 3.451 0M89.426 155.016a1.726 1.726 0 1 1-3.451 0 1.726 1.726 0 0 1 3.451 0" fill="#ACD3EF"/>
    <path d="M164.272 75.44c0 6.716-5.444 12.161-12.16 12.161s-12.16-5.445-12.16-12.16c0-6.717 5.444-12.16 12.16-12.16s12.16 5.443 12.16 12.16z" stroke="#E1F2FF" stroke-width="2"/>
    <path d="M153.073 122.364s20.6 10.927 10.064 33.354" stroke="#E1F2FF" stroke-width="2" stroke-linecap="round" stroke-linejoin="round"/>
    <path fill="#E1F2FF" d="M158.004 146.389l1.878-.694 3.411 9.253 8.98-4.08.826 1.825-10.938 4.965z"/>
    <g>
      <path d="M168.899 96.424h10.724" fill="#FFF"/>
      <path d="M168.899 96.424h10.724" stroke="#E1F2FF" stroke-width="2" stroke-linecap="round" stroke-linejoin="round"/>
    </g>
    <g>
      <path d="M168.899 100.452h10.724" fill="#FFF"/>
      <path d="M168.899 100.452h10.724" stroke="#E1F2FF" stroke-width="2" stroke-linecap="round" stroke-linejoin="round"/>
    </g>
    <g>
      <path d="M168.899 104.482h5.82" fill="#FFF"/>
      <path d="M168.899 104.482h5.82" stroke="#E1F2FF" stroke-width="2" stroke-linecap="round" stroke-linejoin="round"/>
    </g>
    <g>
      <path d="M168.899 108.45h8.27" fill="#FFF"/>
      <path d="M168.899 108.45h8.27" stroke="#E1F2FF" stroke-width="2" stroke-linecap="round" stroke-linejoin="round"/>
    </g>
    <g>
      <path d="M168.899 112.48h10.724" fill="#FFF"/>
      <path d="M168.899 112.48h10.724" stroke="#E1F2FF" stroke-width="2" stroke-linecap="round" stroke-linejoin="round"/>
    </g>
    <g>
      <path d="M76.607 70.44h13.12" fill="#FFF"/>
      <path d="M76.607 70.44h13.12" stroke="#E1F2FF" stroke-width="2" stroke-linecap="round" stroke-linejoin="round"/>
    </g>
    <g>
      <path d="M76.607 74.47h10.12" fill="#FFF"/>
      <path d="M76.607 74.47h10.12" stroke="#E1F2FF" stroke-width="2" stroke-linecap="round" stroke-linejoin="round"/>
    </g>
    <g>
      <path d="M76.607 78.499h7.12" fill="#FFF"/>
      <path d="M76.607 78.499h7.12" stroke="#E1F2FF" stroke-width="2" stroke-linecap="round" stroke-linejoin="round"/>
    </g>
    <g>
      <path d="M76.607 82.762h13.12" fill="#FFF"/>
      <path d="M76.607 82.762h13.12" stroke="#E1F2FF" stroke-width="2" stroke-linecap="round" stroke-linejoin="round"/>
    </g>
    <g>
      <path d="M76.607 86.791h13.12" fill="#FFF"/>
      <path d="M76.607 86.791h13.12" stroke="#E1F2FF" stroke-width="2" stroke-linecap="round" stroke-linejoin="round"/>
    </g>
    <g>
      <path d="M76.607 90.82h7.12" fill="#FFF"/>
      <path d="M76.607 90.82h7.12" stroke="#E1F2FF" stroke-width="2" stroke-linecap="round" stroke-linejoin="round"/>
    </g>
    <path d="M101.031 174.876h-4.327a2 2 0 0 1-2-2v-4.327a2 2 0 0 1 2-2h4.328a2 2 0 0 1 2 2v4.327a2 2 0 0 1-2 2M101.031 188.465h-4.327a2 2 0 0 1-2-2v-4.326c0-1.106.896-2 2-2h4.328a2 2 0 0 1 2 2v4.326a2 2 0 0 1-2 2M101.031 202.054h-4.327a2 2 0 0 1-2-2v-4.326a2 2 0 0 1 2-2h4.328a2 2 0 0 1 2 2v4.326a2 2 0 0 1-2 2" fill="#E1F2FF"/>
    <path d="M112.497 172.157c1.608-1.117 3.203-2.33 4.858-3.375a7.255 7.255 0 0 1 2.986-1.654c1.117-.925 1.942-.675 2.475.752 1.362 1.047 1.684 3.755 3.348 4.353.941.34 1.871-.085 2.638-.567.62-.39.906-1.225 1.487-1.594 1.618-1.03 3.05-.344 4.522.207 1.458.543 1.647.96 3.25.864.564-.035.992-.738 1.495-.887 1.8-.536 2.43.113 3.815.62 4.354 1.596 7.605.405 12.232-.654 1.412-.322.814-2.493-.597-2.168-1.518.346-3.087.862-4.634 1.06-2.65.34-4.825-.52-7.135-1.36-1.188-.433-1.583-.881-2.955-.774-.546.042-1.027.66-1.505.862-3.14 1.313-2.033.66-4.156-.54-1.229-.696-2.374-1.127-3.768-.617-1.178.433-2.096 2.625-3.024 2.841-1.842.427-3.66-4.242-5.063-5.004-3.51-1.903-8.82 3.899-11.404 5.693-1.18.82-.057 2.77 1.135 1.942M112.765 199.82c5.296-2.746 8.378-3.521 13.965-1.207 2.817 1.167 3.917-.31 7.197-.153 2.719.129 4.835.996 7.538.033 3.158-1.125 2.644-2.114 7.299-1.717 2.463.21 5.094 1.175 7.506 1.732 1.409.325 2.01-1.844.599-2.17-3.76-.868-8.608-2.963-12.503-1.778-3.195.97-4.921 2.464-8.597 1.917-1.582-.235-2.905-.468-4.535-.357-1.884.127-2.2.539-4.347-.211-1.301-.454-2.318-.994-3.73-1.175-4.16-.53-7.935 1.28-11.528 3.145-1.285.667-.15 2.609 1.136 1.942M119.057 184.499c2.364-.53 3.93-.948 6.292.02 1.036.425 1.678.917 2.57 1.286 2.036.843 2.385.584 4.1-.558 1.563-1.042 1.176-1.455 3.166-.365 1.039.57 1.804 1.627 3.058 1.79 2.55.332 2.902-1.92 4.594-3.227 2.772 2.723 4.166 1.09 7.747 1.024 1.519-.028 2.69.138 4.193-.212 1.087-.253 1.422-1.476 2.373-.672 1.1.929 2.699-.655 1.592-1.591-.995-.84-1.116-.91-2.386-1.296-.51-.155-.984.114-1.27.517-1.175 1.656-10.728 1.344-11.791.3-.474-.466-1.106-.375-1.591 0-1.361 1.052-1.938 2.739-4.147 2.354-1.285-.224-2.162-2.142-3.57-2.397-1.447-.262-1.611.438-2.76.9-1.202.485-1.124 1.04-3.36.427-1.198-.33-1.515-.911-2.85-1.183-3.844-.787-7.745 1.368-11.531 1.614-1.437.093-1.448 2.344 0 2.25 1.952-.127 3.662-.553 5.57-.981z" fill="#ACD3EF"/>
  </g>
</svg>
