<svg width="256" height="256" xmlns="http://www.w3.org/2000/svg">
  <g fill="none" fill-rule="evenodd">
    <path d="M23.204 223.392c0-57.193 46.364-103.558 103.558-103.558 57.193 0 103.557 46.365 103.557 103.558H23.204z" fill="#E1F2FF"/>
    <path d="M19.978 214.392h36" fill="#FFF"/>
    <path d="M19.978 214.392h36" stroke="#5E63B6" stroke-width="2" stroke-linecap="round" stroke-linejoin="round"/>
    <path d="M62.426 214.392H239.32" fill="#FFF"/>
    <path d="M62.426 214.392H239.32" stroke="#5E63B6" stroke-width="2" stroke-linecap="round" stroke-linejoin="round"/>
    <path d="M135.946 21.13v3.939M137.915 23.1h-3.938M210.478 189.688v3.938M212.446 191.656h-3.938" stroke="#5E63B6" stroke-linecap="round"/>
    <path d="M217.728 121.682v3.938M219.696 123.65h-3.938" stroke="#5E63B6" stroke-linecap="round" stroke-linejoin="round"/>
    <path d="M16.197 164.837v3.938M18.166 166.806h-3.938" stroke="#5E63B6" stroke-linecap="round"/>
    <path d="M36.916 70.256v8.125" fill="#FFF"/>
    <path d="M36.916 70.256v8.125" stroke="#5E63B6" stroke-width="2" stroke-linecap="round"/>
    <path d="M40.979 74.318h-8.125" fill="#FFF"/>
    <path d="M40.979 74.318h-8.125" stroke="#5E63B6" stroke-width="2" stroke-linecap="round"/>
    <path d="M217.728 27.872v8.125" fill="#FFF"/>
    <path d="M217.728 27.872v8.125" stroke="#5E63B6" stroke-width="2" stroke-linecap="round"/>
    <path d="M221.79 31.935h-8.125" fill="#FFF"/>
    <path d="M221.79 31.935h-8.125" stroke="#5E63B6" stroke-width="2" stroke-linecap="round"/>
    <path d="M246.166 214.15h6.974" fill="#FFF"/>
    <path d="M246.166 214.15h6.974" stroke="#5E63B6" stroke-width="2" stroke-linecap="round" stroke-linejoin="round"/>
    <path d="M3 214.15h8.973" fill="#FFF"/>
    <path d="M3 214.15h8.973" stroke="#5E63B6" stroke-width="2" stroke-linecap="round" stroke-linejoin="round"/>
    <path d="M95.382 223.467h67.187" fill="#FFF"/>
    <path d="M95.382 223.467h67.187" stroke="#5E63B6" stroke-width="2" stroke-linecap="round" stroke-linejoin="round"/>
    <path d="M171.188 223.467h9.14" fill="#FFF"/>
    <path d="M171.188 223.467h9.14" stroke="#5E63B6" stroke-width="2" stroke-linecap="round" stroke-linejoin="round"/>
    <path d="M87.5 223.392l-5 .075" fill="#FFF"/>
    <path d="M87.5 223.392l-5 .075" stroke="#5E63B6" stroke-width="2" stroke-linecap="round" stroke-linejoin="round"/>
    <path d="M230.988 73.976l-26.593 66.93a1.483 1.483 0 0 1-1.925.83l-73.394-29.158a7.41 7.41 0 0 1-4.085-3.993l-17.605-41.486a4.604 4.604 0 0 1 2.39-6.015l41.275-18.092a7.412 7.412 0 0 1 5.71-.1l73.397 29.159a1.483 1.483 0 0 1 .83 1.925" fill="#FFF"/>
    <path d="M230.988 73.976l-26.593 66.93a1.483 1.483 0 0 1-1.925.83l-73.394-29.158a7.41 7.41 0 0 1-4.085-3.993l-17.605-41.486a4.604 4.604 0 0 1 2.39-6.015l41.275-18.092a7.412 7.412 0 0 1 5.71-.1l73.397 29.159a1.483 1.483 0 0 1 .83 1.925z" stroke="#ACD3EF" stroke-width="2"/>
    <path fill="#E1F2FF" d="M129.858 57.766l26.064-7.412 65.139 28.05-22.965 55.05-87.866-41.62z"/>
    <path d="M170.46 70.758c9.406 3.737 14.002 14.393 10.265 23.8-3.738 9.407-14.394 14.004-23.8 10.266-9.407-3.738-14.004-14.393-10.267-23.8 3.738-9.408 14.394-14.003 23.801-10.266" fill="#E1F2FF"/>
    <path d="M167.836 67.323c9.407 3.737 14.004 14.394 10.266 23.801-3.738 9.407-14.393 14.003-23.8 10.265-9.407-3.737-14.004-14.393-10.266-23.8 3.738-9.407 14.393-14.003 23.8-10.266" fill="#FFF"/>
    <path d="M167.836 67.323c9.407 3.737 14.004 14.394 10.266 23.801-3.738 9.407-14.393 14.003-23.8 10.265-9.407-3.737-14.004-14.393-10.266-23.8 3.738-9.407 14.393-14.003 23.8-10.266z" stroke="#ACD3EF" stroke-width="2"/>
    <path d="M171.151 83.46c.242.013.411.008.466.008.008-.004-.004.005 0 0 0 0 .002.001 0 0 .002 0 0 .001 0 .001-4.832-1.364-5.721-4.765-8.468-6.835a1.425 1.425 0 0 1-.143-.088 1.844 1.844 0 0 0-.194-.126c-.803-.465-1.934-.51-3.23-.259-.008 0-.016.003-.022.004-.108.02-.218.044-.327.068 0 0-.001.002-.004.001-.2.047-.404.1-.612.159-.02.005-.042.01-.064.017l-.17.052c-.06.018-.119.034-.175.053l-.173.056-.18.06-.126.044c-1.612.564-3.334 1.448-4.925 2.452 0 0-.02.004 0 0 1.821.507 3.577 1.177 4.91 1.897 1.603.87 3.326 2.25 4.77 3.792-.938 1.894-2.186 3.714-3.472 5.01-1.076 1.083-2.548 2.228-4.157 3.242.15.042.302.081.453.122l.136.035c.108.027.216.055.326.081l.15.036c.11.026.219.052.329.075l.132.03a15.378 15.378 0 0 0 .458.096c.16.033.32.063.48.093.014.004.025.005.038.007.144.026.286.05.43.074l.088.015a26.647 26.647 0 0 0 .47.071c.151.02.302.041.452.059h.001a21.036 21.036 0 0 0 1.428.122c.768.036 1.493.018 2.155-.061.095-.013.19-.025.284-.04l.01-.001v-.001c.085-.013.17-.026.25-.042l.002-.001.01-.002a4.15 4.15 0 0 0 .26-.054l.035-.009.002.001a6.514 6.514 0 0 0 .373-.099l.02-.005c.115-.035.23-.073.34-.116.078-.029.152-.06.226-.091l.091-.043.132-.064c.031-.017.06-.035.093-.052a2.68 2.68 0 0 0 .116-.067c.03-.018.056-.036.087-.056.038-.024.073-.048.11-.074l.078-.058c.035-.028.07-.057.106-.084l.067-.06a3.39 3.39 0 0 0 .106-.103c.014-.017.035-.033.05-.052a2.19 2.19 0 0 0 .142-.166c.03-.039.058-.07.087-.1 2.048-2.774 1.95-6.307 6.16-9.016" fill="#ACD3EF"/>
    <path d="M185.556 116.875l15.236-38.35M195.684 120.898l15.235-38.35" stroke="#ACD3EF" stroke-width="2" stroke-linecap="round"/>
    <path d="M127.695 65.306a5.929 5.929 0 0 1 3.32 7.699 5.928 5.928 0 1 1-11.018-4.378 5.928 5.928 0 0 1 7.698-3.321" fill="#FFF"/>
    <path d="M127.695 65.306a5.929 5.929 0 0 1 3.32 7.699 5.928 5.928 0 1 1-11.018-4.378 5.928 5.928 0 0 1 7.698-3.321z" stroke="#5E63B6" stroke-width="2"/>
    <path d="M237.736 137.327l-62.897 61.76a1.816 1.816 0 0 1-2.566-.025l-67.724-68.972a9.072 9.072 0 0 1-2.597-6.492l.83-55.153a5.635 5.635 0 0 1 5.653-5.55l55.159.178a9.07 9.07 0 0 1 6.442 2.716l67.722 68.973a1.812 1.812 0 0 1-.023 2.565" fill="#FFF"/>
    <path d="M237.736 137.327l-62.897 61.76a1.816 1.816 0 0 1-2.566-.025l-67.724-68.972a9.072 9.072 0 0 1-2.597-6.492l.83-55.153a5.635 5.635 0 0 1 5.653-5.55l55.159.178a9.07 9.07 0 0 1 6.442 2.716l67.722 68.973a1.812 1.812 0 0 1-.023 2.565z" stroke="#ACD3EF" stroke-width="2"/>
    <path fill="#E1F2FF" d="M131.015 73.005l32.134 3.629 59.203 60.484-50.3 50.37-78.145-85.764z"/>
    <path d="M171.574 103.763c8.68 8.84 8.55 23.043-.29 31.724-8.84 8.679-23.044 8.549-31.724-.29-8.68-8.841-8.55-23.044.29-31.724s23.043-8.551 31.724.29" fill="#E1F2FF"/>
    <path d="M170.338 98.62c8.681 8.841 8.551 23.044-.29 31.724-8.84 8.68-23.043 8.55-31.724-.29-8.679-8.84-8.549-23.043.29-31.724 8.841-8.68 23.044-8.55 31.724.29" fill="#FFF"/>
    <path d="M170.338 98.62c8.681 8.841 8.551 23.044-.29 31.724-8.84 8.68-23.043 8.55-31.724-.29-8.679-8.84-8.549-23.043.29-31.724 8.841-8.68 23.044-8.55 31.724.29z" stroke="#ACD3EF" stroke-width="2"/>
    <path d="M166.062 118.325c.264.133.456.211.518.238.01 0-.008.003 0 0 0 0 .002.002 0 0 .002.001-.001.001-.001.001-4.735-3.919-4.046-8.165-6.096-11.843a1.457 1.457 0 0 1-.115-.167 2.447 2.447 0 0 0-.156-.239c-.668-.918-1.913-1.528-3.49-1.888l-.024-.006a8.07 8.07 0 0 0-.4-.085h-.005a16.41 16.41 0 0 0-.763-.127c-.027-.004-.054-.01-.08-.013l-.217-.026-.223-.029-.221-.02c-.078-.009-.153-.017-.231-.024l-.163-.012c-2.083-.166-4.447-.03-6.726.306 0 0-.024-.004 0 0 1.788 1.47 3.422 3.09 4.556 4.555 1.366 1.767 2.608 4.165 3.463 6.607-1.987 1.655-4.286 3.074-6.366 3.888-1.74.68-3.955 1.233-6.26 1.572.149.122.298.24.447.361l.136.105c.107.085.214.17.324.252.05.04.1.077.152.115.11.083.219.166.33.247l.134.1a37.042 37.042 0 0 0 .956.675c.012.01.025.017.039.025.149.102.295.2.444.297l.09.06a25.736 25.736 0 0 0 .493.312c.159.098.317.197.476.29l.002.001c.51.303 1.019.581 1.52.834.007.004.013.006.018.01.84.42 1.662.76 2.44.997.114.033.228.067.339.096l.013.005.3.076h.004l.01.002a4.9 4.9 0 0 0 .319.068v.001a.95.95 0 0 0 .043.007l.003.002a9.28 9.28 0 0 0 .465.073l.024.004c.149.02.296.033.44.04.1.006.2.008.299.01.042 0 .082-.004.123-.005.06 0 .119-.004.178-.007.043-.002.085-.008.13-.012.054-.003.109-.01.163-.016l.125-.02c.054-.008.106-.018.159-.028l.118-.027c.054-.013.106-.029.158-.042.036-.01.072-.022.107-.033.057-.019.112-.04.168-.063.026-.01.056-.02.083-.033.083-.034.164-.074.24-.116.053-.029.1-.049.146-.07 3.668-2.09 5.307-6.094 11.36-7.043" fill="#ACD3EF"/>
    <path d="M165.646 162.86l36.038-35.387M174.99 172.376l36.038-35.386" stroke="#ACD3EF" stroke-width="2" stroke-linecap="round"/>
    <path d="M126.403 76.491a7.256 7.256 0 1 1-10.355 10.168 7.256 7.256 0 0 1 10.355-10.168" fill="#FFF"/>
    <path d="M126.403 76.491a7.256 7.256 0 1 1-10.355 10.168 7.256 7.256 0 0 1 10.355-10.168z" stroke="#5E63B6" stroke-width="2"/>
    <path d="M81.757 214.304l4.977.146a4.172 4.172 0 0 0 3.961-2.53c1.899-4.497 1.581-8.69 1.897-12.258.584-6.61-.352-10.033-1.177-15.6l-7.475-.045s.554 2.769.736 11.037c.057 2.558-4.464 12.693-4.413 17.732a1.535 1.535 0 0 0 1.494 1.518" fill="#9452BA"/>
    <path d="M81.757 214.304l4.977.146a4.172 4.172 0 0 0 3.961-2.53c1.899-4.497 1.581-8.69 1.897-12.258.584-6.61-.352-10.033-1.177-15.6l-7.475-.045s.554 2.769.736 11.037c.057 2.558-4.464 12.693-4.413 17.732a1.535 1.535 0 0 0 1.494 1.518z" stroke="#52267D" stroke-width="2"/>
    <path d="M67.96 190.222l-5.81-6.99-3.715.039s-.687 5.654-.97 8.02c-.497 4.174-2.47 12.322-3.64 15.889-.382 1.16-.615 2.248-.7 3.238-.143 1.666 1.21 3.085 2.881 3.134l4.41.129c2.566.075 4.9-1.572 5.604-4.043 2.191-7.692 1.94-19.416 1.94-19.416" fill="#9452BA"/>
    <path d="M67.96 190.222l-5.81-6.99-3.715.039s-.687 5.654-.97 8.02c-.497 4.174-2.47 12.322-3.64 15.889-.382 1.16-.615 2.248-.7 3.238-.143 1.666 1.21 3.085 2.881 3.134l4.41.129c2.566.075 4.9-1.572 5.604-4.043 2.191-7.692 1.94-19.416 1.94-19.416z" stroke="#52267D" stroke-width="2"/>
    <path stroke="#52267D" stroke-width=".5" d="M59.372 194.674l-1.017.842.923.882 1.563-.548-.289-.687-1.292.266.005.23.333-.006"/>
    <path d="M60.286 164.6c4.38.039 8.57-2.855 17.516-3.007.145-.58.318-1.102.531-1.53 1.718-3.452 4.294-13.473 3.022-20.142l-1.007-5.277c-.33-1.73-.47-3.493-.418-5.255a10.656 10.656 0 0 1 .412-2.647 10.55 10.55 0 0 1 1.885-3.653 10.695 10.695 0 0 1 3.087-2.643 10.584 10.584 0 0 1 5.558-1.38l1.743.053a10.597 10.597 0 0 1 8.092 4.108c.38.488.715 1.013 1.006 1.563a10.502 10.502 0 0 1 .51 1.108 10.66 10.66 0 0 1 .714 4.163 2.648 2.648 0 0 1-2.728 2.573l-10.885-.318 1.371 9.496c1.651 9.763.88 16.236-.744 20.519-.362.956-2.363 4.319-2.363 4.319 5.192 8.748 13.43 12.746 22.323 14.097 7.561 1.147 24.143-5.294 15.932-13.545-8.212-8.251 1.847-2.976 3.32-1.92 1.473 1.058 9.94 8.817.191 19.553-4.122 4.54-8.76 8.642-19.72 11.57-1.758.469-11.286.884-16.448 2.204-15.366 3.929-27.616-1.19-34.265-11.451-6.62-10.221-.364-22.573 1.365-22.557" fill="#9452BA"/>
    <path d="M60.286 164.6c4.38.039 8.57-2.855 17.516-3.007.145-.58.318-1.102.531-1.53 1.718-3.452 4.294-13.473 3.022-20.142l-1.007-5.277c-.33-1.73-.47-3.493-.418-5.255a10.656 10.656 0 0 1 .412-2.647 10.55 10.55 0 0 1 1.885-3.653 10.695 10.695 0 0 1 3.087-2.643 10.584 10.584 0 0 1 5.558-1.38l1.743.053a10.597 10.597 0 0 1 8.092 4.108c.38.488.715 1.013 1.006 1.563a10.502 10.502 0 0 1 .51 1.108 10.66 10.66 0 0 1 .714 4.163 2.648 2.648 0 0 1-2.728 2.573l-10.885-.318 1.371 9.496c1.651 9.763.88 16.236-.744 20.519-.362.956-2.363 4.319-2.363 4.319 5.192 8.748 13.43 12.746 22.323 14.097 7.561 1.147 24.143-5.294 15.932-13.545-8.212-8.251 1.847-2.976 3.32-1.92 1.473 1.058 9.94 8.817.191 19.553-4.122 4.54-8.76 8.642-19.72 11.57-1.758.469-11.286.884-16.448 2.204-15.366 3.929-27.616-1.19-34.265-11.451-6.62-10.221-.364-22.573 1.365-22.557z" stroke="#52267D" stroke-width="2"/>
    <path d="M70.164 150.412c.678-11.245-7.997-20.35-18.095-22.517-2.096-.449-2.762-1.13-5.068-1.198l-1.767-.052c-5.948-.173-10.912 4.508-11.086 10.457a2.686 2.686 0 0 0 2.608 2.764s18.111.524 18.196.52l1.477.043c-.002.002-1.478-.04-1.48-.038 3.955 1.817 6.298 7.008 6.657 9.771.512 3.936-.04 7.152-1.454 9.727-.94 1.714-1.102 3.808-1.015 5.51l.102.038c.036.91.154 1.947.39 3.133 1.74-1.138 4.444-2.849 4.936-3.092 1.063-.52 3.462-1.71 4.537-2.285 6.87-3.676.676-6.385 1.062-12.78" fill="#9452BA"/>
    <path d="M70.164 150.412c.678-11.245-7.997-20.35-18.095-22.517-2.096-.449-2.762-1.13-5.068-1.198l-1.767-.052c-5.948-.173-10.912 4.508-11.086 10.457a2.686 2.686 0 0 0 2.608 2.764s18.111.524 18.196.52l1.477.043c-.002.002-1.478-.04-1.48-.038 3.955 1.817 6.298 7.008 6.657 9.771.512 3.936-.04 7.152-1.454 9.727-.94 1.714-1.102 3.808-1.015 5.51l.102.038c.036.91.154 1.947.39 3.133 1.74-1.138 4.444-2.849 4.936-3.092 1.063-.52 3.462-1.71 4.537-2.285 6.87-3.676.676-6.385 1.062-12.78z" stroke="#52267D" stroke-width="2"/>
    <path d="M64.016 163.248c-.038-1.74-.277-2.64-.062-3.342 1.24-4.039 1.644-5.313 1.769-9.624.125-4.283-2.232-8.589-5.831-10.947-.197-.13-2.83-.393-4.943 1.056 3.956 1.817 6.298 7.008 6.658 9.771.512 3.936-.041 7.152-1.454 9.727-.941 1.714-1.103 3.808-1.016 5.51 0 0 4.86 1.99 4.879-2.15" fill="#F3E3FF"/>
    <path d="M64.016 163.248c-.038-1.74-.277-2.64-.062-3.342 1.24-4.039 1.644-5.313 1.769-9.624.125-4.283-2.232-8.589-5.831-10.947-.197-.13-2.83-.393-4.943 1.056 3.956 1.817 6.298 7.008 6.658 9.771.512 3.936-.041 7.152-1.454 9.727-.941 1.714-1.103 3.808-1.016 5.51 0 0 4.86 1.99 4.879-2.15" stroke="#52267D"/>
    <path d="M39.53 128.31s.05-1.88 1.94-2.573c.578-.212 1.632-.605 1.632-.605s1.045 2.387-.234 2.944c-1.84.8-3.339.235-3.339.235" fill="#FFF"/>
    <path d="M39.53 128.31s.05-1.88 1.94-2.573c.578-.212 1.632-.605 1.632-.605s1.045 2.387-.234 2.944c-1.84.8-3.339.235-3.339.235z" stroke="#52267D"/>
    <path d="M44.247 127.124s.128-2.562 3.022-2.85c.541-.055 1.943.02 1.943.02s.568 2.731-.96 2.947c-1.878.266-4.005-.117-4.005-.117" fill="#FFF"/>
    <path d="M44.247 127.124s.128-2.562 3.022-2.85c.541-.055 1.943.02 1.943.02s.568 2.731-.96 2.947c-1.878.266-4.005-.117-4.005-.117z" stroke="#52267D"/>
    <path d="M49.974 127.537s.463-2.83 2.994-1.976a3.57 3.57 0 0 1 1.662 1.212s-.571 2.151-1.58 1.877c-1.762-.476-3.076-1.113-3.076-1.113" fill="#FFF"/>
    <path d="M49.974 127.537s.463-2.83 2.994-1.976a3.57 3.57 0 0 1 1.662 1.212s-.571 2.151-1.58 1.877c-1.762-.476-3.076-1.113-3.076-1.113z" stroke="#52267D"/>
    <path d="M56.986 141.553s6.049-3.062 5.075-8.541c.772.674 2.825 2.722 3.563 3.76-.031 1.066.042 5.306-5.888 7.97-.996-1.096-1.825-2.451-2.75-3.19" fill="#FFF"/>
    <path d="M56.986 141.553s6.049-3.062 5.075-8.541c.772.674 2.825 2.722 3.563 3.76-.031 1.066.042 5.306-5.888 7.97-.996-1.096-1.825-2.451-2.75-3.19z" stroke="#52267D"/>
    <path d="M40.355 127.816s.026-.974 1.005-1.332c.299-.109.845-.314.845-.314s.54 1.236-.121 1.524c-.954.415-1.73.122-1.73.122M45.495 126.58s.065-1.306 1.541-1.453c.275-.027.99.011.99.011s.29 1.392-.489 1.502c-.958.135-2.042-.06-2.042-.06M50.899 127.36s.245-1.503 1.588-1.049c.574.194.883.643.883.643s-.304 1.14-.84.996c-.934-.253-1.631-.59-1.631-.59M49.043 138.42l-5.443-.159a4.966 4.966 0 0 1 5.11-4.819l.478.014a2.484 2.484 0 0 1-.145 4.964" fill="#F3E3FF"/>
    <path d="M48.587 138.314l-4.89-.143a3.902 3.902 0 0 1 4.013-3.786l.991.029a1.95 1.95 0 1 1-.114 3.9" fill="#FFF"/>
    <path d="M48.587 138.314l-4.89-.143a3.902 3.902 0 0 1 4.013-3.786l.991.029a1.95 1.95 0 1 1-.114 3.9z" stroke="#52267D"/>
    <path d="M44.613 137.132a1.088 1.088 0 1 0 2.18.064 1.088 1.088 0 0 0-2.18-.064M36.53 139.041c.312-.058.594-.222.798-.464l.378-.448-.818.15-.482.09a.341.341 0 1 0 .124.672" fill="#52267D"/>
    <path d="M57.99 141.69s4.657-2.336 4.731-7.312c1.93 1.494 2.436 2.437 2.436 2.437s-.412 2.358-1.55 3.521c-1.747 1.785-3.527 2.297-5.618 1.354" fill="#E1F2FF"/>
    <path d="M62.356 140.943s-1.861 1.787-3.651 2.617" fill="#FFF"/>
    <path d="M62.356 140.943s-1.861 1.787-3.651 2.617" stroke="#52267D"/>
    <path d="M79.775 160.809l-.963-2.046c-3.541-9.49-3.97-15.013-1.728-23.905l1.312-5.21c.43-1.708.674-3.46.726-5.221.17-5.872-4.451-10.771-10.323-10.943l-1.716-.05c-5.791-.17-10.623 4.389-10.793 10.18l-.01.3a2.498 2.498 0 0 0 2.424 2.57l10.868.316-1.923 9.4c-5.784 25.173-5.578 35.454 4.41 33.633" fill="#9452BA"/>
    <path d="M79.775 160.809l-.963-2.046c-3.541-9.49-3.97-15.013-1.728-23.905l1.312-5.21c.43-1.708.674-3.46.726-5.221.17-5.872-4.451-10.771-10.323-10.943l-1.716-.05c-5.791-.17-10.623 4.389-10.793 10.18l-.01.3a2.498 2.498 0 0 0 2.424 2.57l10.868.316-1.923 9.4c-5.784 25.173-5.578 35.454 4.41 33.633" stroke="#52267D" stroke-width="2"/>
    <path d="M61.799 114.538s.229-1.837 2.081-2.517c.565-.207 1.434.057 1.434.057s1.008 1.685-.244 2.23c-1.803.785-3.271.23-3.271.23" fill="#FFF"/>
    <path d="M61.799 114.538s.229-1.837 2.081-2.517c.565-.207 1.434.057 1.434.057s1.008 1.685-.244 2.23c-1.803.785-3.271.23-3.271.23z" stroke="#52267D"/>
    <path d="M66.177 114.058s.145-2.9 3.423-3.23c.61-.06 1.39.023 1.39.023s1.453 3.095-.278 3.34c-2.127.3-4.535-.133-4.535-.133" fill="#FFF"/>
    <path d="M66.177 114.058s.145-2.9 3.423-3.23c.61-.06 1.39.023 1.39.023s1.453 3.095-.278 3.34c-2.127.3-4.535-.133-4.535-.133z" stroke="#52267D"/>
    <path d="M72 114.889s.523-2.762 2.981-1.86a3.493 3.493 0 0 1 1.598 1.229s-.613 2.09-1.595 1.798c-1.713-.511-2.984-1.167-2.984-1.167" fill="#FFF"/>
    <path d="M72 114.889s.523-2.762 2.981-1.86a3.493 3.493 0 0 1 1.598 1.229s-.613 2.09-1.595 1.798c-1.713-.511-2.984-1.167-2.984-1.167z" stroke="#52267D"/>
    <path d="M60.525 164.272a4.936 4.936 0 0 1 1.812-.81" fill="#F3E3FF"/>
    <path d="M60.525 164.272a4.936 4.936 0 0 1 1.812-.81" stroke="#52267D"/>
    <path d="M64.125 164.32c-1.565-7.272 2.042-20.98 2.73-24.359l2.731-13.542 1.022.03c1.296.038 2.237 1.474 2.015 2.754l-2.036 11.756c-.689 3.98-1.824 22.47 5.005 26.648 1.457.892 3.882.405 4.802 0 3.346-1.48 4.417-5.57 5.236-8.867 1.698-6.822.688-12.247.515-17.64l-.152-6.744c-.027-1.219.98-2.482 2.195-2.447l1.242.036 1.838 13.675c.558 3.895 1.896 17.386-6.207 23.455-.147.11 1.91.633 1.278 1.675-2.505 4.141-9.426 4.605-10.778 6.37-5.207 6.796-.952 21.721-.952 21.721s-5.49-2.378-8.84-5.562c-7.833-7.443-8.549-17.915-8.497-20.99.063-3.679 1.095-5.932 2.325-7.259" fill="#F3E3FF"/>
    <path d="M64.125 164.32c-1.565-7.272 2.042-20.98 2.73-24.359l2.731-13.542 1.022.03c1.296.038 2.237 1.474 2.015 2.754l-2.036 11.756c-.689 3.98-1.824 22.47 5.005 26.648 1.457.892 3.882.405 4.802 0 3.346-1.48 4.417-5.57 5.236-8.867 1.698-6.822.688-12.247.515-17.64l-.152-6.744c-.027-1.219.98-2.482 2.195-2.447l1.242.036 1.838 13.675c.558 3.895 1.896 17.386-6.207 23.455-.147.11 1.91.633 1.278 1.675-2.505 4.141-9.426 4.605-10.778 6.37-5.207 6.796-.952 21.721-.952 21.721s-5.49-2.378-8.84-5.562c-7.833-7.443-8.549-17.915-8.497-20.99.063-3.679 1.095-5.932 2.325-7.259" stroke="#52267D"/>
    <path d="M129.236 172.247s1.18-1.232.587-2.95c-.182-.525-.875-.99-.875-.99s-1.79.258-1.45 1.47c.487 1.744 1.737 2.47 1.737 2.47" fill="#FFF"/>
    <path d="M129.236 172.247s1.18-1.232.587-2.95c-.182-.525-.875-.99-.875-.99s-1.79.258-1.45 1.47c.487 1.744 1.737 2.47 1.737 2.47z" stroke="#52267D"/>
    <path d="M128.91 170.478s.412-.432.204-1.034c-.063-.185-.307-.348-.307-.348s-.627.09-.508.516c.172.612.61.866.61.866" fill="#F3E3FF"/>
    <path d="M119.614 181.038s-1.013-2.507 1.628-4.067c.492-.29 1.184-.527 1.184-.527s2.437 2.046 1.071 2.931c-1.679 1.087-3.883 1.663-3.883 1.663" fill="#FFF"/>
    <path d="M119.614 181.038s-1.013-2.507 1.628-4.067c.492-.29 1.184-.527 1.184-.527s2.437 2.046 1.071 2.931c-1.679 1.087-3.883 1.663-3.883 1.663z" stroke="#52267D"/>
    <path d="M120.545 180.133s-.562-1.39.902-2.255c.274-.162.658-.292.658-.292s1.351 1.135.593 1.625c-.93.603-2.153.922-2.153.922" fill="#F3E3FF"/>
    <path d="M127.766 173.161s1.83 1.705-.015 3.128c-.788.608-1.683.621-1.683.621s-1.284-1.455-.598-2.056a16.98 16.98 0 0 1 2.296-1.693" fill="#FFF"/>
    <path d="M127.766 173.161s1.83 1.705-.015 3.128c-.788.608-1.683.621-1.683.621s-1.284-1.455-.598-2.056a16.98 16.98 0 0 1 2.296-1.693z" stroke="#52267D"/>
    <path d="M127.458 174.323s.812.755-.006 1.386c-.349.268-.746.274-.746.274s-.569-.644-.265-.91c.531-.464 1.017-.75 1.017-.75" fill="#F3E3FF"/>
    <path d="M110.559 182.077s-.556-2.222 1.896-3.026c2.45-.804 3.08-.057 3.08-.057s1.277 2.297.056 2.99c-1.22.691-5.032.093-5.032.093" fill="#FFF"/>
    <path d="M110.559 182.077s-.556-2.222 1.896-3.026c2.45-.804 3.08-.057 3.08-.057s1.277 2.297.056 2.99c-1.22.691-5.032.093-5.032.093z" stroke="#52267D"/>
    <path d="M111.711 181.61s-.288-1.156.986-1.574c1.275-.418 1.603-.03 1.603-.03s.663 1.195.028 1.554c-.634.361-2.617.05-2.617.05" fill="#F3E3FF"/>
    <path d="M68.96 129.723s3.808 2.302 9.308.485c-.422 1.678-1.283 5.048-1.283 5.048s-5.087 1.4-8.906-1.162c.464-2.227.881-4.371.881-4.371" fill="#FFF"/>
    <path d="M68.96 129.723s3.808 2.302 9.308.485c-.422 1.678-1.283 5.048-1.283 5.048s-5.087 1.4-8.906-1.162c.464-2.227.881-4.371.881-4.371z" stroke="#52267D"/>
    <path d="M98.214 120.731s-.122-1.861-1.945-2.652c-.556-.243-2.075-.348-2.075-.348s-.484 1.954.744 2.577c1.767.895 3.276.423 3.276.423" fill="#FFF"/>
    <path d="M98.214 120.731s-.122-1.861-1.945-2.652c-.556-.243-2.075-.348-2.075-.348s-.484 1.954.744 2.577c1.767.895 3.276.423 3.276.423z" stroke="#52267D"/>
    <path d="M93.56 119.647s.022-2.532-2.813-2.984c-.53-.084-1.212-.051-1.212-.051s-1.42 2.619.073 2.92c1.836.37 3.953.115 3.953.115" fill="#FFF"/>
    <path d="M93.56 119.647s.022-2.532-2.813-2.984c-.53-.084-1.212-.051-1.212-.051s-1.42 2.619.073 2.92c1.836.37 3.953.115 3.953.115z" stroke="#52267D"/>
    <path d="M88.164 119.673s-.364-2.81-2.89-2.047c-1.078.326-1.679 1.143-1.679 1.143s.494 2.138 1.498 1.902c1.754-.413 3.071-.998 3.071-.998" fill="#FFF"/>
    <path d="M88.164 119.673s-.364-2.81-2.89-2.047c-1.078.326-1.679 1.143-1.679 1.143s.494 2.138 1.498 1.902c1.754-.413 3.071-.998 3.071-.998z" stroke="#52267D"/>
    <path d="M62.772 114.1s.122-.98 1.11-1.344c.303-.11.767.03.767.03s.539.9-.13 1.192c-.963.419-1.747.123-1.747.123M67.266 113.602s.09-1.82 2.146-2.024c.383-.04.873.013.873.013s.91 1.94-.175 2.094c-1.334.188-2.844-.083-2.844-.083M73.086 114.642s.302-1.594 1.721-1.074c.605.222.922.709.922.709s-.354 1.207-.92 1.038c-.99-.294-1.723-.673-1.723-.673M97.312 120.23s-.064-.984-1.028-1.403c-.294-.127-1.097-.183-1.097-.183s-.256 1.032.393 1.361c.934.475 1.732.226 1.732.226M92.47 119.168s.012-1.399-1.557-1.649c-.292-.047-.67-.029-.67-.029s-.785 1.448.04 1.615c1.016.204 2.187.063 2.187.063M87.175 119.453s-.199-1.536-1.581-1.119c-.59.178-.919.625-.919.625s.271 1.17.819 1.041c.96-.226 1.681-.547 1.681-.547" fill="#F3E3FF"/>
    <path d="M80.389 134.855s4.773.888 9.365-.1c.372 2.492.603 4.37.603 4.37s-3.226 2.055-9.031.64c-.596-3.202-.937-4.91-.937-4.91" fill="#FFF"/>
    <path d="M80.389 134.855s4.773.888 9.365-.1c.372 2.492.603 4.37.603 4.37s-3.226 2.055-9.031.64c-.596-3.202-.937-4.91-.937-4.91z" stroke="#52267D"/>
    <path d="M88.46 130.27l5.442.16a4.966 4.966 0 0 0-4.819-5.11l-.478-.013a2.483 2.483 0 1 0-.146 4.964" fill="#F3E3FF"/>
    <path d="M89.059 130.194l4.753.14a3.903 3.903 0 0 0-3.786-4.015l-1.13-.032a1.812 1.812 0 0 0-1.864 1.76 2.088 2.088 0 0 0 2.027 2.147" fill="#FFF"/>
    <path d="M89.059 130.194l4.753.14a3.903 3.903 0 0 0-3.786-4.015l-1.13-.032a1.812 1.812 0 0 0-1.864 1.76 2.088 2.088 0 0 0 2.027 2.147z" stroke="#52267D"/>
    <path d="M92.616 128.052a1.09 1.09 0 1 1-2.18-.065 1.09 1.09 0 0 1 2.18.065" fill="#52267D"/>
    <path d="M69.762 125.015l-5.443-.16a4.968 4.968 0 0 1 5.109-4.82l.479.016a2.483 2.483 0 1 1-.145 4.964" fill="#F3E3FF"/>
    <path d="M69.306 124.908l-4.891-.144a3.903 3.903 0 0 1 4.014-3.786l.99.03a1.95 1.95 0 1 1-.113 3.9" fill="#FFF"/>
    <path d="M69.306 124.908l-4.891-.144a3.903 3.903 0 0 1 4.014-3.786l.99.03a1.95 1.95 0 1 1-.113 3.9z" stroke="#52267D"/>
    <path d="M68.02 123.714a1.089 1.089 0 1 0 2.177.065 1.089 1.089 0 0 0-2.177-.065M100.427 131.754a1.378 1.378 0 0 1-.77-.51l-.351-.47.809.199.475.117a.34.34 0 0 1 .25.413.34.34 0 0 1-.413.25M58.588 125.434c.312-.058.593-.221.798-.463l.378-.448-.819.15-.48.089a.342.342 0 0 0 .124.672" fill="#52267D"/>
    <path d="M69.403 130.443s4.007 1.847 8.145.387c-.499 2.387-.916 3.601-.916 3.601s-2.468.074-4.088-.296c-2.314-.526-3.201-1.61-3.14-3.692" fill="#E1F2FF"/>
    <path d="M74.958 133.686s-3.7.199-6.515-1.365" fill="#FFF"/>
    <path d="M74.958 133.686s-3.7.199-6.515-1.365" stroke="#52267D"/>
    <path d="M87.97 135.617s-3.627.918-6.783.19c.53 2.381.826 3.131.826 3.131s4.78-.496 5.958-3.32" fill="#E1F2FF"/>
    <path d="M85.06 169.126s-.223.15-.537.327" fill="#F3E3FF"/>
    <path d="M85.06 169.126s-.223.15-.537.327" stroke="#52267D" stroke-width=".5"/>
    <path d="M88.278 136.988s-3.643.58-7.475.01" fill="#FFF"/>
    <path d="M88.278 136.988s-3.643.58-7.475.01" stroke="#52267D"/>
    <path d="M80.166 211.333s-.937-.811-2.245.201c-1.195.924-2.116 2.379-1.597 2.543a5.56 5.56 0 0 0 2.406.188c.846-.13 1.584.053 1.973-1.697.182-.815-.537-1.235-.537-1.235" fill="#FFF"/>
    <path d="M80.166 211.333s-.937-.811-2.245.201c-1.195.924-2.116 2.379-1.597 2.543a5.56 5.56 0 0 0 2.406.188c.846-.13 1.584.053 1.973-1.697.182-.815-.537-1.235-.537-1.235z" stroke="#52267D" stroke-width=".5"/>
    <path d="M79.94 211.612s-.584-.505-1.397.125c-.745.575-1.317 1.48-.995 1.583.324.102.893.21 1.498.116.526-.08.986.033 1.228-1.055.112-.508-.334-.769-.334-.769" fill="#E1F2FF"/>
    <path d="M81.53 211.356c.51-.053 1.208 1.07 1.115 1.404-.094.334-.183 1.442-1.009 1.538-.607.072-2.772.233-3.23-.25-.422-.445.487-2.417 3.124-2.692" fill="#FFF"/>
    <path d="M81.53 211.356c.51-.053 1.208 1.07 1.115 1.404-.094.334-.183 1.442-1.009 1.538-.607.072-2.772.233-3.23-.25-.422-.445.487-2.417 3.124-2.692z" stroke="#52267D" stroke-width=".5"/>
    <path d="M81.664 211.665c.301-.03.713.632.657.83-.054.196-.108.85-.595.907-.358.042-1.636.137-1.906-.147-.249-.263.287-1.427 1.844-1.59" fill="#E1F2FF"/>
    <path d="M83.672 211.633s-.432-.241-1.314.229c-.781.417-1.946 1.084-1.67 1.965.276.88 2.709.627 3.253.459.543-.17.899-.746.819-1.261-.175-1.126-1.088-1.392-1.088-1.392" fill="#FFF"/>
    <path d="M83.672 211.633s-.432-.241-1.314.229c-.781.417-1.946 1.084-1.67 1.965.276.88 2.709.627 3.253.459.543-.17.899-.746.819-1.261-.175-1.126-1.088-1.392-1.088-1.392z" stroke="#52267D" stroke-width=".5"/>
    <path d="M83.827 211.946s-.256-.143-.778.136c-.462.247-1.152.642-.989 1.164.163.521 1.604.371 1.926.271.322-.1.533-.44.486-.747-.104-.667-.645-.824-.645-.824" fill="#E1F2FF"/>
    <path d="M74.35 183.535s.33 5.63-1.355 14.415c-1.57 8.177-4 10.686-3.89 12.82.086 1.655.738 3.186 2.393 3.234l4.939.144a5.362 5.362 0 0 0 5.186-3.507c.649-1.74 1.34-4.115 1.799-7.128.5-4.104.539-8.234.54-10.659" fill="#9452BA"/>
    <path d="M74.35 183.535s.33 5.63-1.355 14.415c-1.57 8.177-4 10.686-3.89 12.82.086 1.655.738 3.186 2.393 3.234l4.939.144a5.362 5.362 0 0 0 5.186-3.507c.649-1.74 1.34-4.115 1.799-7.128.5-4.104.539-8.234.54-10.659" stroke="#52267D" stroke-width="2"/>
    <path d="M99.563 187.99c-1.677 1.36-2.593 3.641-2.642 5.76-.065 2.83 1.47 6.477.293 11.148-1.048 4.16-2.915 4.845-2.468 8.617.08.682.674 1.187 1.36 1.207l5.503.162a5.193 5.193 0 0 0 5.242-4.187c1.3-6.64.64-12.962-.108-17.82" fill="#9452BA"/>
    <path d="M99.563 187.99c-1.677 1.36-2.593 3.641-2.642 5.76-.065 2.83 1.47 6.477.293 11.148-1.048 4.16-2.915 4.845-2.468 8.617.08.682.674 1.187 1.36 1.207l5.503.162a5.193 5.193 0 0 0 5.242-4.187c1.3-6.64.64-12.962-.108-17.82" stroke="#52267D" stroke-width="2"/>
    <path stroke="#52267D" stroke-width=".5" d="M100.462 194.255l.33-.224 1.04.266-1.184.708-1.379-.73 1.487-1.12.654.242"/>
    <path d="M70.177 211.041s-.938-.81-2.246.201c-1.194.924-2.115 2.38-1.597 2.544a5.565 5.565 0 0 0 2.407.187c.845-.13 1.584.054 1.973-1.697.18-.815-.537-1.235-.537-1.235" fill="#FFF"/>
    <path d="M70.177 211.041s-.938-.81-2.246.201c-1.194.924-2.115 2.38-1.597 2.544a5.565 5.565 0 0 0 2.407.187c.845-.13 1.584.054 1.973-1.697.18-.815-.537-1.235-.537-1.235z" stroke="#52267D"/>
    <path d="M69.95 211.32s-.585-.505-1.398.125c-.744.575-1.317 1.48-.994 1.583.323.103.893.21 1.497.116.527-.08.987.034 1.228-1.055.113-.507-.334-.769-.334-.769" fill="#E1F2FF"/>
    <path stroke="#52267D" stroke-width=".5" d="M78.155 196.71l-1.985.556.207 1.83 2.01.206.97-1.058-1.186-.704-1.007.261.614.723"/>
    <g stroke="#F3E3FF" stroke-width=".25">
      <path d="M37.755 135.473a.537.537 0 0 0 .521.552.537.537 0 0 0 .55-.521M36.684 135.441a.537.537 0 0 0 1.071.031M37.204 135.993a.536.536 0 0 0 1.071.031M58.291 135.57a.79.79 0 1 0 .872-1.316M58.514 136.665a.79.79 0 0 0 .872-1.317M83.183 154.305a.718.718 0 0 0 1.437.042M81.746 154.263a.718.718 0 1 0 1.437.042M82.444 155.002a.718.718 0 1 0 1.436.042M60.399 199.19a.718.718 0 0 0 1.437.042M58.962 199.149a.718.718 0 0 0 1.437.042M59.66 199.888a.718.718 0 0 0 1.436.042M82.738 131.377a.789.789 0 1 0 1.578.047M81.926 132.144a.788.788 0 1 0 1.578.046M72.241 145.024a.958.958 0 1 0 1.918.055M71.254 145.955a.96.96 0 0 0 1.92.056M59.006 120.77a.643.643 0 0 0 1.283.038M58.346 121.393a.641.641 0 0 0 1.283.038M117.496 187.21a.738.738 0 1 0 1.154-.922M117.38 188.248a.74.74 0 0 0 1.154-.922M88.438 176.156a.868.868 0 0 0 1.598-.673M86.84 176.83a.866.866 0 0 0 1.598-.674M87.975 177.291a.868.868 0 0 0 1.598-.673M86.377 177.965a.867.867 0 0 0 1.598-.674"/>
      <path d="M89.11 177.754a.869.869 0 0 0 1.136.462.869.869 0 0 0 .463-1.136M74.751 127.72a.875.875 0 0 0 1.75.052M73.484 160.75a.875.875 0 0 0 1.749.051M83.924 142.827a.663.663 0 1 0 1.325.038M100.136 128.236a.497.497 0 1 0 .993.03M102.137 201.428a.874.874 0 1 0 1.73-.25M77.798 207.162a.959.959 0 1 0 1.918.056M76.81 208.093a.96.96 0 1 0 1.919.056"/>
    </g>
    <path d="M71.54 211.065c.51-.054 1.21 1.07 1.115 1.403-.093.334-.183 1.443-1.008 1.538-.608.072-2.773.233-3.23-.25-.422-.445.486-2.417 3.123-2.691" fill="#FFF"/>
    <path d="M71.54 211.065c.51-.054 1.21 1.07 1.115 1.403-.093.334-.183 1.443-1.008 1.538-.608.072-2.773.233-3.23-.25-.422-.445.486-2.417 3.123-2.691z" stroke="#52267D"/>
    <path d="M71.674 211.374c.301-.03.713.631.658.828-.055.197-.108.851-.595.908-.359.042-1.636.138-1.907-.147-.248-.263.288-1.427 1.844-1.589" fill="#E1F2FF"/>
    <path d="M73.328 211.66s-.382-.215-1.162.202c-.69.368-1.72.96-1.477 1.737.244.78 2.396.555 2.877.406.481-.149.795-.659.724-1.116-.154-.996-.962-1.23-.962-1.23" fill="#FFF"/>
    <path d="M73.328 211.66s-.382-.215-1.162.202c-.69.368-1.72.96-1.477 1.737.244.78 2.396.555 2.877.406.481-.149.795-.659.724-1.116-.154-.996-.962-1.23-.962-1.23z" stroke="#52267D"/>
    <path d="M73.466 211.937s-.227-.127-.688.12c-.409.218-1.019.567-.874 1.029.144.46 1.417.329 1.703.24.285-.088.47-.39.428-.66-.09-.59-.569-.73-.569-.73" fill="#E1F2FF"/>
    <path d="M53.052 211.281s-.382-.214-1.162.203c-.69.368-1.721.96-1.477 1.737.244.78 2.396.555 2.877.406.48-.149.795-.659.725-1.116-.155-.996-.963-1.23-.963-1.23" fill="#FFF"/>
    <path d="M53.052 211.281s-.382-.214-1.162.203c-.69.368-1.721.96-1.477 1.737.244.78 2.396.555 2.877.406.48-.149.795-.659.725-1.116-.155-.996-.963-1.23-.963-1.23z" stroke="#52267D"/>
    <path d="M53.19 211.559s-.226-.127-.688.12c-.41.218-1.02.567-.874 1.029.144.46 1.418.329 1.703.24.285-.088.47-.39.429-.66-.091-.59-.57-.73-.57-.73" fill="#E1F2FF"/>
    <path d="M55.412 210.807c.51-.053 1.208 1.07 1.115 1.404-.094.334-.183 1.443-1.009 1.539-.607.072-2.772.233-3.23-.25-.422-.445.487-2.418 3.124-2.693" fill="#FFF"/>
    <path d="M55.412 210.807c.51-.053 1.208 1.07 1.115 1.404-.094.334-.183 1.443-1.009 1.539-.607.072-2.772.233-3.23-.25-.422-.445.487-2.418 3.124-2.693z" stroke="#52267D"/>
    <path d="M55.546 211.117c.301-.032.713.631.657.828-.054.197-.108.851-.595.908-.358.042-1.635.137-1.906-.147-.249-.263.287-1.427 1.844-1.589" fill="#E1F2FF"/>
    <path d="M96.895 211.821s-.937-.81-2.245.201c-1.195.924-2.116 2.38-1.597 2.544a5.578 5.578 0 0 0 2.406.187c.846-.13 1.584.053 1.973-1.697.182-.815-.537-1.235-.537-1.235" fill="#FFF"/>
    <path d="M96.895 211.821s-.937-.81-2.245.201c-1.195.924-2.116 2.38-1.597 2.544a5.578 5.578 0 0 0 2.406.187c.846-.13 1.584.053 1.973-1.697.182-.815-.537-1.235-.537-1.235z" stroke="#52267D" stroke-width=".5"/>
    <path d="M96.668 212.1s-.584-.504-1.397.126c-.745.575-1.317 1.48-.995 1.583.324.102.893.209 1.498.116.526-.081.986.033 1.228-1.055.112-.508-.334-.77-.334-.77" fill="#E1F2FF"/>
    <path d="M98.259 211.844c.51-.053 1.208 1.07 1.115 1.404-.094.334-.183 1.443-1.009 1.539-.607.072-2.772.233-3.23-.25-.422-.445.487-2.418 3.124-2.693" fill="#FFF"/>
    <path d="M98.259 211.844c.51-.053 1.208 1.07 1.115 1.404-.094.334-.183 1.443-1.009 1.539-.607.072-2.772.233-3.23-.25-.422-.445.487-2.418 3.124-2.693z" stroke="#52267D" stroke-width=".5"/>
    <path d="M98.393 212.154c.3-.032.713.631.657.828-.054.197-.108.851-.595.908-.358.042-1.636.137-1.906-.147-.25-.263.287-1.427 1.844-1.589" fill="#E1F2FF"/>
    <path d="M100.046 212.44s-.382-.214-1.162.203c-.69.368-1.72.958-1.477 1.737.244.78 2.396.555 2.877.406.482-.15.796-.66.725-1.117-.154-.996-.963-1.23-.963-1.23" fill="#FFF"/>
    <path d="M100.046 212.44s-.382-.214-1.162.203c-.69.368-1.72.958-1.477 1.737.244.78 2.396.555 2.877.406.482-.15.796-.66.725-1.117-.154-.996-.963-1.23-.963-1.23z" stroke="#52267D" stroke-width=".5"/>
    <path d="M100.184 212.717s-.226-.127-.687.12c-.41.218-1.02.567-.875 1.029.144.46 1.418.329 1.704.24.284-.088.47-.39.428-.66-.091-.59-.57-.73-.57-.73" fill="#E1F2FF"/>
    <path d="M62.065 211.477c.163-.13.354-.161.509-.083.574.292 2.024 1.117 1.689 2.166-.261.817-.758.555-1.72.545l-.727-.008a.413.413 0 0 1-.36-.224c-.397-.71-.14-1.8.558-2.355l.05-.041z" fill="#FFF"/>
    <path d="M62.065 211.477c.163-.13.354-.161.509-.083.574.292 2.024 1.117 1.689 2.166-.261.817-.758.555-1.72.545l-.727-.008a.413.413 0 0 1-.36-.224c-.397-.71-.14-1.8.558-2.355l.05-.041z" stroke="#52267D"/>
    <path d="M62.133 211.716c.118-.095.257-.117.369-.061.418.212 1.472.812 1.229 1.575-.191.593-.551.403-1.251.395l-.528-.006a.297.297 0 0 1-.261-.162c-.289-.515-.102-1.308.405-1.712l.037-.03z" fill="#E1F2FF"/>
    <path d="M58.666 211.06s-.866-.887-2.255.01c-1.268.82-2.309 2.192-1.807 2.399a5.553 5.553 0 0 0 2.382.39c.854-.057 1.575.189 2.111-1.522.25-.797-.43-1.276-.43-1.276" fill="#FFF"/>
    <path d="M58.666 211.06s-.866-.887-2.255.01c-1.268.82-2.309 2.192-1.807 2.399a5.553 5.553 0 0 0 2.382.39c.854-.057 1.575.189 2.111-1.522.25-.797-.43-1.276-.43-1.276z" stroke="#52267D"/>
    <path d="M58.416 211.32s-.539-.554-1.403.005c-.789.51-1.438 1.363-1.124 1.493a3.46 3.46 0 0 0 1.482.242c.53-.035.98.118 1.313-.947.155-.496-.268-.794-.268-.794" fill="#E1F2FF"/>
    <path d="M113.58 73.765C103.87 56.715 52.425 23.1 52.425 23.1" stroke="#ACD3EF" stroke-width="2"/>
    <path d="M166.662 214.238H69.477a2 2 0 0 1-2-2v-106.57c0-2.673 1.07-5.235 2.971-7.114l43.254-42.748a6.214 6.214 0 0 1 8.734 0l43.255 42.748a9.999 9.999 0 0 1 2.971 7.114v106.57a2 2 0 0 1-2 2" fill="#FFF"/>
    <path d="M166.662 214.238H69.477a2 2 0 0 1-2-2v-106.57c0-2.673 1.07-5.235 2.971-7.114l43.254-42.748a6.214 6.214 0 0 1 8.734 0l43.255 42.748a9.999 9.999 0 0 1 2.971 7.114v106.57a2 2 0 0 1-2 2z" stroke="#5E63B6" stroke-width="2"/>
    <path d="M140.54 136.729c0 13.659-11.073 24.732-24.732 24.732-13.66 0-24.733-11.073-24.733-24.732 0-13.66 11.073-24.732 24.733-24.732s24.732 11.073 24.732 24.732" fill="#E1F2FF"/>
    <path d="M143.54 131.729c0 13.659-11.073 24.732-24.732 24.732-13.66 0-24.733-11.073-24.733-24.732 0-13.66 11.073-24.732 24.733-24.732s24.732 11.073 24.732 24.732" fill="#FFF"/>
    <path d="M143.54 131.729c0 13.659-11.073 24.732-24.732 24.732-13.66 0-24.733-11.073-24.733-24.732 0-13.66 11.073-24.732 24.733-24.732s24.732 11.073 24.732 24.732z" stroke="#5E63B6" stroke-width="2"/>
    <path d="M124.955 143.926c.104.309.195.519.223.589.008.007-.008-.004 0 0 0 0 0 .002 0 0 .001 0 0 0 0 0-.7-6.741 3.123-9.55 4.351-14.027a1.51 1.51 0 0 1 .04-.22c.025-.1.045-.203.061-.307.182-1.24-.325-2.681-1.286-4.182-.004-.01-.01-.016-.016-.024-.078-.125-.163-.25-.248-.375 0 0-.003-.002-.004-.005a17.584 17.584 0 0 0-.503-.69l-.054-.071-.149-.188c-.052-.065-.102-.131-.153-.193l-.158-.19c-.055-.065-.109-.13-.165-.194-.037-.045-.078-.09-.118-.137-1.51-1.74-3.476-3.458-5.528-4.953 0 0-.016-.023 0 0 .271 2.536.307 5.072.066 7.1-.29 2.446-1.165 5.293-2.379 7.873-2.84-.233-5.747-.891-8.01-1.858-1.896-.81-4.065-2.085-6.139-3.598.023.21.048.419.072.629l.025.187a17.268 17.268 0 0 0 .091.656c.022.152.044.3.07.449l.028.183a25.593 25.593 0 0 0 .107.62c.04.218.08.435.124.65.001.017.006.032.01.049.038.195.08.385.121.578.007.04.016.078.024.117l.121.522c.01.033.018.067.025.103.05.2.098.399.151.595l.001.003c.168.633.352 1.245.552 1.83l.005.022c.338.978.722 1.88 1.151 2.67.063.114.128.227.192.337.003.004.003.009.006.013h.001c.06.1.118.199.178.293h.002l.007.012c.064.104.13.204.198.3l.027.039c.002 0 0 .003.001.004a10.894 10.894 0 0 0 .31.417l.015.02c.103.13.207.255.316.372.074.084.151.16.227.238.033.032.068.06.1.093.048.045.097.087.145.13.037.034.074.06.112.092.046.039.094.075.141.113.037.028.075.054.114.08a3.776 3.776 0 0 0 .26.172l.157.089.11.057c.06.028.12.054.181.08.028.01.06.027.09.038.093.037.186.069.28.095.062.018.116.038.167.057 4.501 1.189 8.882-.695 14.377 3.235" fill="#9452BA"/>
    <path d="M90.228 178.639h55.684M90.228 193.344h55.684" stroke="#5E63B6" stroke-width="2" stroke-linecap="round"/>
    <path d="M126.07 80.383a8 8 0 1 1-16 0 8 8 0 0 1 16 0" fill="#FFF"/>
    <path d="M126.07 80.383a8 8 0 1 1-16 0 8 8 0 0 1 16 0z" stroke="#5E63B6" stroke-width="2"/>
    <path d="M58.009 18.224s2.086 9.116 4.929 12.239c5.662 6.22 13.132 12.62 20.064 23.55 12.293 19.38 19.523 38.126 30.424 27.76 1.461-1.39 2.382-5.174.693-6.98" stroke="#ACD3EF" stroke-width="2"/>
    <path d="M67.248 33.813s-4.815 1.74-6.315 0c-1.5-1.742 8.131-9.26 6.315 0z" stroke="#ACD3EF" stroke-width="2"/>
  </g>
</svg>
