<svg width="256" height="256" xmlns="http://www.w3.org/2000/svg" xmlns:xlink="http://www.w3.org/1999/xlink">
  <defs>
    <path id="a" d="M90.965 136.392h67.186v1H90.965z"/>
    <path id="b" d="M166.77 136.392h9.14v1h-9.14z"/>
    <path id="d" d="M-1 137.392h251.191V-66H-1z"/>
  </defs>
  <g transform="translate(3 83)" fill="none" fill-rule="evenodd">
    <path d="M20.36 135.472c0-57.193 46.365-103.558 103.559-103.558 57.193 0 103.557 46.365 103.557 103.558H20.36z" fill="#E1F2FF"/>
    <path d="M15.826 126.681h36" fill="#FFF"/>
    <path d="M15.826 126.681h36" stroke="#5E63B6" stroke-width="2" stroke-linecap="round" stroke-linejoin="round"/>
    <path d="M79.706 66.725v3.938M81.675 68.694h-3.938M233.2 64.965v3.938M235.168 66.933h-3.938" stroke="#5E63B6" stroke-linecap="round"/>
    <path d="M222.867 1.142V5.08" fill="#FFF"/>
    <path d="M222.867 1.142V5.08" stroke="#5E63B6" stroke-linecap="round" stroke-linejoin="round"/>
    <path d="M224.836 3.111h-3.938" fill="#FFF"/>
    <path d="M224.836 3.111h-3.938" stroke="#5E63B6" stroke-linecap="round" stroke-linejoin="round"/>
    <path d="M242.218 126.642h6.973" fill="#FFF"/>
    <path d="M242.218 126.642h6.973" stroke="#5E63B6" stroke-width="2" stroke-linecap="round" stroke-linejoin="round"/>
    <path d="M0 126.642h8.973" fill="#FFF"/>
    <path d="M0 126.642h8.973" stroke="#5E63B6" stroke-width="2" stroke-linecap="round" stroke-linejoin="round"/>
    <path d="M90.965 136.392h67.186" fill="#FFF"/>
    <path d="M90.965 136.392h67.186" stroke="#5E63B6" stroke-width="2" stroke-linecap="round" stroke-linejoin="round"/>
    <path d="M166.77 136.392h9.14" fill="#FFF"/>
    <path d="M166.77 136.392h9.14" stroke="#5E63B6" stroke-width="2" stroke-linecap="round" stroke-linejoin="round"/>
    <path d="M83.082 136.316l-5 .076" fill="#FFF"/>
    <path d="M83.082 136.316l-5 .076" stroke="#5E63B6" stroke-width="2" stroke-linecap="round" stroke-linejoin="round"/>
    <path d="M58.275 126.681h176.894" fill="#FFF"/>
    <path d="M58.275 126.681h176.894" stroke="#5E63B6" stroke-width="2" stroke-linecap="round" stroke-linejoin="round"/>
    <mask id="c" fill="#fff">
      <use xlink:href="#b"/>
    </mask>
    <path d="M170.613 109.444h-28.916a2.136 2.136 0 0 1-2.136-2.136v-.904c0-1.179.957-2.135 2.136-2.135h28.916c1.18 0 2.137.956 2.137 2.135v.904c0 1.18-.957 2.136-2.137 2.136z" stroke="#5E63B6" stroke-width="2" mask="url(#c)"/>
    <path d="M162.092 125.504l4.978.11a4.168 4.168 0 0 0 3.944-2.555c1.868-4.51 1.521-8.701 1.811-12.271.539-6.614-.42-10.031-1.283-15.593l-7.476.007s.574 2.766.813 11.03c.074 2.559-4.377 12.726-4.291 17.764a1.535 1.535 0 0 0 1.504 1.508" fill="#9452BA" mask="url(#c)"/>
    <path d="M162.092 125.504l4.978.11a4.168 4.168 0 0 0 3.944-2.555c1.868-4.51 1.521-8.701 1.811-12.271.539-6.614-.42-10.031-1.283-15.593l-7.476.007s.574 2.766.813 11.03c.074 2.559-4.377 12.726-4.291 17.764a1.535 1.535 0 0 0 1.504 1.508z" stroke="#52267D" stroke-width="2" mask="url(#c)"/>
    <path d="M148.13 101.517l-5.859-6.95-3.714.064s-.648 5.658-.914 8.03c-.469 4.174-2.387 12.335-3.532 15.911-.373 1.163-.598 2.252-.676 3.242-.132 1.667 1.23 3.077 2.901 3.114l4.41.1c2.57.056 4.891-1.607 5.577-4.082 2.14-7.708 1.806-19.429 1.806-19.429" fill="#9452BA" mask="url(#c)"/>
    <path d="M148.13 101.517l-5.859-6.95-3.714.064s-.648 5.658-.914 8.03c-.469 4.174-2.387 12.335-3.532 15.911-.373 1.163-.598 2.252-.676 3.242-.132 1.667 1.23 3.077 2.901 3.114l4.41.1c2.57.056 4.891-1.607 5.577-4.082 2.14-7.708 1.806-19.429 1.806-19.429z" stroke="#52267D" stroke-width="2" mask="url(#c)"/>
    <path stroke="#52267D" stroke-width=".5" mask="url(#c)" d="M139.573 106.027l-1.012.85.93.876 1.56-.56-.294-.685-1.29.276.004.23.333-.008"/>
    <path d="M140.28 75.949c4.38.009 8.552-2.915 17.494-3.128.143-.581.311-1.104.522-1.533 1.694-3.465 4.2-13.502 2.883-20.162l-1.043-5.271a24.358 24.358 0 0 1-.456-5.252 10.734 10.734 0 0 1 .395-2.65 10.557 10.557 0 0 1 1.86-3.665 10.672 10.672 0 0 1 3.07-2.665 10.574 10.574 0 0 1 5.547-1.417l1.745.039a10.6 10.6 0 0 1 8.119 4.053 11.151 11.151 0 0 1 1.332 2.184 10.555 10.555 0 0 1 .945 4.634 2.645 2.645 0 0 1-.818 1.857 2.647 2.647 0 0 1-1.893.735l-10.887-.242 1.438 9.486c1.717 9.751.99 16.229-.604 20.523-.356.958-2.334 4.335-2.334 4.335 5.252 8.712 13.518 12.654 22.42 13.943 7.569 1.095 24.107-5.459 15.838-13.654-8.268-8.195 1.827-2.989 3.308-1.942 1.48 1.047 10 8.748.326 19.551-4.091 4.568-8.702 8.702-19.642 11.705-1.754.481-11.28.961-16.43 2.316-15.34 4.035-27.625-.999-34.344-11.215-6.692-10.174-.52-22.568 1.209-22.565" fill="#9452BA" mask="url(#c)"/>
    <path d="M140.28 75.949c4.38.009 8.552-2.915 17.494-3.128.143-.581.311-1.104.522-1.533 1.694-3.465 4.2-13.502 2.883-20.162l-1.043-5.271a24.358 24.358 0 0 1-.456-5.252 10.734 10.734 0 0 1 .395-2.65 10.557 10.557 0 0 1 1.86-3.665 10.672 10.672 0 0 1 3.07-2.665 10.574 10.574 0 0 1 5.547-1.417l1.745.039a10.6 10.6 0 0 1 8.119 4.053 11.151 11.151 0 0 1 1.332 2.184 10.555 10.555 0 0 1 .945 4.634 2.645 2.645 0 0 1-.818 1.857 2.647 2.647 0 0 1-1.893.735l-10.887-.242 1.438 9.486c1.717 9.751.99 16.229-.604 20.523-.356.958-2.334 4.335-2.334 4.335 5.252 8.712 13.518 12.654 22.42 13.943 7.569 1.095 24.107-5.459 15.838-13.654-8.268-8.195 1.827-2.989 3.308-1.942 1.48 1.047 10 8.748.326 19.551-4.091 4.568-8.702 8.702-19.642 11.705-1.754.481-11.28.961-16.43 2.316-15.34 4.035-27.625-.999-34.344-11.215-6.692-10.174-.52-22.568 1.209-22.565z" stroke="#52267D" stroke-width="2" mask="url(#c)"/>
    <path d="M150.06 61.693c.6-11.249-8.137-20.296-18.25-22.392-2.098-.435-2.77-1.112-5.075-1.163l-1.767-.04c-5.95-.133-10.881 4.583-11.013 10.533a2.685 2.685 0 0 0 2.626 2.746s18.114.4 18.199.393l1.475.034c-.001.002-1.476-.03-1.48-.028 3.97 1.79 6.347 6.965 6.726 9.726.539 3.931.008 7.153-1.386 9.736-.93 1.722-1.077 3.816-.978 5.518l.103.038c.042.91.166 1.945.41 3.13 1.732-1.152 4.426-2.88 4.916-3.126 1.058-.529 3.45-1.734 4.52-2.317 6.844-3.723.632-6.39.974-12.788" fill="#9452BA" mask="url(#c)"/>
    <path d="M150.06 61.693c.6-11.249-8.137-20.296-18.25-22.392-2.098-.435-2.77-1.112-5.075-1.163l-1.767-.04c-5.95-.133-10.881 4.583-11.013 10.533a2.685 2.685 0 0 0 2.626 2.746s18.114.4 18.199.393l1.475.034c-.001.002-1.476-.03-1.48-.028 3.97 1.79 6.347 6.965 6.726 9.726.539 3.931.008 7.153-1.386 9.736-.93 1.722-1.077 3.816-.978 5.518l.103.038c.042.91.166 1.945.41 3.13 1.732-1.152 4.426-2.88 4.916-3.126 1.058-.529 3.45-1.734 4.52-2.317 6.844-3.723.632-6.39.974-12.788z" stroke="#52267D" stroke-width="2" mask="url(#c)"/>
    <g mask="url(#c)">
      <path d="M144 74.571c-.05-1.74-.296-2.639-.085-3.342 1.213-4.047 1.607-5.324 1.703-9.635.096-4.285-2.292-8.574-5.906-10.908-.198-.128-2.832-.373-4.937 1.09 3.97 1.79 6.347 6.965 6.726 9.726.54 3.931.008 7.153-1.387 9.736-.929 1.722-1.077 3.816-.977 5.518 0 0 4.873 1.955 4.863-2.185" fill="#F3E3FF"/>
      <path d="M144 74.571c-.05-1.74-.296-2.639-.085-3.342 1.213-4.047 1.607-5.324 1.703-9.635.096-4.285-2.292-8.574-5.906-10.908-.198-.128-2.832-.373-4.937 1.09 3.97 1.79 6.347 6.965 6.726 9.726.54 3.931.008 7.153-1.387 9.736-.929 1.722-1.077 3.816-.977 5.518 0 0 4.873 1.955 4.863-2.185" stroke="#52267D"/>
    </g>
    <path d="M119.274 39.803s.038-1.881 1.925-2.587c.575-.217 1.626-.617 1.626-.617s1.06 2.38-.214 2.946c-1.835.813-3.337.258-3.337.258" fill="#FFF" mask="url(#c)"/>
    <path d="M119.274 39.803s.038-1.881 1.925-2.587c.575-.217 1.626-.617 1.626-.617s1.06 2.38-.214 2.946c-1.835.813-3.337.258-3.337.258z" stroke="#52267D" mask="url(#c)"/>
    <path d="M123.984 38.584s.11-2.562 3.003-2.871c.54-.058 1.942.007 1.942.007s.587 2.727-.94 2.954c-1.876.278-4.005-.09-4.005-.09" fill="#FFF" mask="url(#c)"/>
    <path d="M123.984 38.584s.11-2.562 3.003-2.871c.54-.058 1.942.007 1.942.007s.587 2.727-.94 2.954c-1.876.278-4.005-.09-4.005-.09z" stroke="#52267D" mask="url(#c)"/>
    <path d="M129.713 38.958s.443-2.835 2.98-1.996c1.083.357 1.671 1.2 1.671 1.2s-.556 2.154-1.567 1.888c-1.765-.464-3.084-1.092-3.084-1.092" fill="#FFF" mask="url(#c)"/>
    <path d="M129.713 38.958s.443-2.835 2.98-1.996c1.083.357 1.671 1.2 1.671 1.2s-.556 2.154-1.567 1.888c-1.765-.464-3.084-1.092-3.084-1.092z" stroke="#52267D" mask="url(#c)"/>
    <path d="M136.822 52.925s6.025-3.104 5.016-8.576c.775.669 2.845 2.703 3.589 3.736-.024 1.066.078 5.306-5.833 8.01-1.005-1.09-1.841-2.44-2.772-3.17" fill="#FFF" mask="url(#c)"/>
    <path d="M136.822 52.925s6.025-3.104 5.016-8.576c.775.669 2.845 2.703 3.589 3.736-.024 1.066.078 5.306-5.833 8.01-1.005-1.09-1.841-2.44-2.772-3.17z" stroke="#52267D" mask="url(#c)"/>
    <path d="M120.096 39.303s.02-.974.996-1.34c.298-.11.842-.318.842-.318s.55 1.231-.11 1.524c-.951.422-1.728.135-1.728.135M125.228 38.032s.057-1.307 1.53-1.465c.277-.029.99.004.99.004s.3 1.391-.478 1.506c-.956.142-2.042-.045-2.042-.045M130.636 38.773s.235-1.504 1.581-1.059c.575.19.887.637.887.637s-.295 1.143-.831 1.002a10.39 10.39 0 0 1-1.637-.58M128.857 49.846l-5.443-.12a4.966 4.966 0 0 1 5.075-4.855l.479.01a2.483 2.483 0 1 1-.111 4.965" fill="#F3E3FF" mask="url(#c)"/>
    <path d="M128.4 49.743l-4.891-.108a3.902 3.902 0 0 1 3.988-3.815l.99.023a1.951 1.951 0 0 1-.086 3.9" fill="#FFF" mask="url(#c)"/>
    <path d="M128.4 49.743l-4.891-.108a3.902 3.902 0 0 1 3.988-3.815l.99.023a1.951 1.951 0 0 1-.086 3.9z" stroke="#52267D" mask="url(#c)"/>
    <path d="M124.44 47.589a1.09 1.09 0 1 0 1.114-1.065 1.09 1.09 0 0 0-1.113 1.065M116.349 50.553c.312-.06.592-.225.795-.468l.375-.452-.816.156-.482.093a.342.342 0 0 0 .128.672" fill="#52267D" mask="url(#c)"/>
    <path d="M137.825 53.055s4.642-2.368 4.683-7.344c1.938 1.48 2.452 2.42 2.452 2.42s-.397 2.361-1.527 3.531c-1.734 1.797-3.51 2.322-5.608 1.393" fill="#E1F2FF" mask="url(#c)"/>
    <g mask="url(#c)">
      <path d="M142.187 52.278s-1.85 1.8-3.633 2.643" fill="#FFF"/>
      <path d="M142.187 52.278s-1.85 1.8-3.633 2.643" stroke="#52267D"/>
    </g>
    <g mask="url(#c)">
      <path d="M159.742 72.023l-.977-2.04c-3.607-9.464-4.073-14.984-1.893-23.892l1.276-5.218a24.31 24.31 0 0 0 .69-5.227c.131-5.873-4.525-10.74-10.398-10.87l-1.717-.04c-5.792-.129-10.592 4.462-10.722 10.255l-.006.302a2.495 2.495 0 0 0 2.44 2.55l10.87.242-1.859 9.414c-5.61 25.211-5.334 35.49 4.643 33.601" fill="#9452BA"/>
      <path d="M159.742 72.023l-.977-2.04c-3.607-9.464-4.073-14.984-1.893-23.892l1.276-5.218a24.31 24.31 0 0 0 .69-5.227c.131-5.873-4.525-10.74-10.398-10.87l-1.717-.04c-5.792-.129-10.592 4.462-10.722 10.255l-.006.302a2.495 2.495 0 0 0 2.44 2.55l10.87.242-1.859 9.414c-5.61 25.211-5.334 35.49 4.643 33.601" stroke="#52267D" stroke-width="2"/>
    </g>
    <path d="M141.448 25.878s.216-1.84 2.064-2.531c.564-.211 1.434.047 1.434.047s1.022 1.677-.227 2.23c-1.798.799-3.27.254-3.27.254" fill="#FFF" mask="url(#c)"/>
    <path d="M141.448 25.878s.216-1.84 2.064-2.531c.564-.211 1.434.047 1.434.047s1.022 1.677-.227 2.23c-1.798.799-3.27.254-3.27.254z" stroke="#52267D" mask="url(#c)"/>
    <path d="M145.822 25.367s.125-2.901 3.401-3.252c.611-.065 1.392.012 1.392.012s1.474 3.085-.256 3.342c-2.126.315-4.537-.102-4.537-.102" fill="#FFF" mask="url(#c)"/>
    <path d="M145.822 25.367s.125-2.901 3.401-3.252c.611-.065 1.392.012 1.392.012s1.474 3.085-.256 3.342c-2.126.315-4.537-.102-4.537-.102z" stroke="#52267D" mask="url(#c)"/>
    <path d="M151.652 26.158s.505-2.765 2.969-1.881c1.052.378 1.606 1.218 1.606 1.218s-.6 2.096-1.582 1.809c-1.717-.499-2.993-1.146-2.993-1.146" fill="#FFF" mask="url(#c)"/>
    <path d="M151.652 26.158s.505-2.765 2.969-1.881c1.052.378 1.606 1.218 1.606 1.218s-.6 2.096-1.582 1.809c-1.717-.499-2.993-1.146-2.993-1.146z" stroke="#52267D" mask="url(#c)"/>
    <g mask="url(#c)">
      <path d="M140.516 75.619a4.92 4.92 0 0 1 1.806-.821" fill="#F3E3FF"/>
      <path d="M140.516 75.619a4.92 4.92 0 0 1 1.806-.821" stroke="#52267D"/>
    </g>
    <g mask="url(#c)">
      <path d="M144.116 75.641c-1.615-7.26 1.898-20.992 2.563-24.377l2.637-13.56 1.024.023c1.296.03 2.246 1.46 2.033 2.74l-1.955 11.77c-.66 3.985-1.67 22.482 5.187 26.613 1.463.882 3.885.38 4.802-.034 3.337-1.504 4.38-5.599 5.176-8.902 1.65-6.834.604-12.252.393-17.642l-.198-6.743c-.035-1.219.962-2.49 2.18-2.462l1.24.027 1.932 13.662c.586 3.892 2.015 17.371-6.045 23.496-.146.112 1.913.62 1.29 1.667-2.477 4.16-9.395 4.67-10.735 6.444-5.16 6.831-.802 21.728-.802 21.728s-5.506-2.34-8.879-5.502c-7.883-7.389-8.672-17.856-8.64-20.93.037-3.68 1.054-5.94 2.275-7.276" fill="#F3E3FF"/>
      <path d="M144.116 75.641c-1.615-7.26 1.898-20.992 2.563-24.377l2.637-13.56 1.024.023c1.296.03 2.246 1.46 2.033 2.74l-1.955 11.77c-.66 3.985-1.67 22.482 5.187 26.613 1.463.882 3.885.38 4.802-.034 3.337-1.504 4.38-5.599 5.176-8.902 1.65-6.834.604-12.252.393-17.642l-.198-6.743c-.035-1.219.962-2.49 2.18-2.462l1.24.027 1.932 13.662c.586 3.892 2.015 17.371-6.045 23.496-.146.112 1.913.62 1.29 1.667-2.477 4.16-9.395 4.67-10.735 6.444-5.16 6.831-.802 21.728-.802 21.728s-5.506-2.34-8.879-5.502c-7.883-7.389-8.672-17.856-8.64-20.93.037-3.68 1.054-5.94 2.275-7.276" stroke="#52267D"/>
    </g>
    <path d="M209.28 83.12s1.172-1.24.566-2.953c-.184-.523-.88-.984-.88-.984s-1.788.27-1.44 1.48c.5 1.74 1.754 2.458 1.754 2.458" fill="#FFF" mask="url(#c)"/>
    <path d="M209.28 83.12s1.172-1.24.566-2.953c-.184-.523-.88-.984-.88-.984s-1.788.27-1.44 1.48c.5 1.74 1.754 2.458 1.754 2.458z" stroke="#52267D" mask="url(#c)"/>
    <path d="M208.942 81.354s.41-.436.199-1.036c-.065-.184-.31-.346-.31-.346s-.626.095-.504.52c.175.61.615.862.615.862" fill="#F3E3FF" mask="url(#c)"/>
    <path d="M199.72 91.978s-1.03-2.5 1.6-4.079c.49-.294 1.18-.534 1.18-.534s2.451 2.03 1.092 2.923c-1.672 1.098-3.872 1.69-3.872 1.69" fill="#FFF" mask="url(#c)"/>
    <path d="M199.72 91.978s-1.03-2.5 1.6-4.079c.49-.294 1.18-.534 1.18-.534s2.451 2.03 1.092 2.923c-1.672 1.098-3.872 1.69-3.872 1.69z" stroke="#52267D" mask="url(#c)"/>
    <path d="M200.645 91.067s-.571-1.387.887-2.262c.272-.164.654-.297.654-.297s1.359 1.125.605 1.622c-.926.61-2.146.937-2.146.937" fill="#F3E3FF" mask="url(#c)"/>
    <path d="M207.818 84.045s1.843 1.693.007 3.129a3.118 3.118 0 0 1-1.681.632s-1.293-1.447-.611-2.051a16.87 16.87 0 0 1 2.285-1.71" fill="#FFF" mask="url(#c)"/>
    <path d="M207.818 84.045s1.843 1.693.007 3.129a3.118 3.118 0 0 1-1.681.632s-1.293-1.447-.611-2.051a16.87 16.87 0 0 1 2.285-1.71z" stroke="#52267D" mask="url(#c)"/>
    <path d="M207.518 85.209s.816.75.003 1.386c-.348.27-.744.28-.744.28s-.573-.641-.272-.908c.529-.468 1.013-.758 1.013-.758" fill="#F3E3FF" mask="url(#c)"/>
    <path d="M190.671 93.079s-.57-2.218 1.875-3.038c2.445-.821 3.081-.08 3.081-.08s1.292 2.29.076 2.99c-1.215.7-5.032.128-5.032.128" fill="#FFF" mask="url(#c)"/>
    <path d="M190.671 93.079s-.57-2.218 1.875-3.038c2.445-.821 3.081-.08 3.081-.08s1.292 2.29.076 2.99c-1.215.7-5.032.128-5.032.128z" stroke="#52267D" mask="url(#c)"/>
    <path d="M191.821 92.604s-.297-1.153.976-1.58c1.27-.428 1.602-.04 1.602-.04s.672 1.19.038 1.553c-.632.364-2.616.067-2.616.067" fill="#F3E3FF" mask="url(#c)"/>
    <path d="M148.713 41.013s3.824 2.275 9.312.42c-.412 1.681-1.249 5.059-1.249 5.059s-5.078 1.433-8.913-1.102c.45-2.232.85-4.377.85-4.377" fill="#FFF" mask="url(#c)"/>
    <path d="M148.713 41.013s3.824 2.275 9.312.42c-.412 1.681-1.249 5.059-1.249 5.059s-5.078 1.433-8.913-1.102c.45-2.232.85-4.377.85-4.377z" stroke="#52267D" mask="url(#c)"/>
    <path d="M177.905 31.82s-.135-1.86-1.964-2.64c-.556-.238-2.076-.333-2.076-.333s-.472 1.957.761 2.572c1.773.883 3.28.401 3.28.401" fill="#FFF" mask="url(#c)"/>
    <path d="M177.905 31.82s-.135-1.86-1.964-2.64c-.556-.238-2.076-.333-2.076-.333s-.472 1.957.761 2.572c1.773.883 3.28.401 3.28.401z" stroke="#52267D" mask="url(#c)"/>
    <path d="M173.245 30.767s.003-2.532-2.835-2.964c-.529-.08-1.213-.044-1.213-.044s-1.4 2.63.094 2.92c1.838.358 3.954.088 3.954.088" fill="#FFF" mask="url(#c)"/>
    <path d="M173.245 30.767s.003-2.532-2.835-2.964c-.529-.08-1.213-.044-1.213-.044s-1.4 2.63.094 2.92c1.838.358 3.954.088 3.954.088z" stroke="#52267D" mask="url(#c)"/>
    <path d="M167.848 30.83s-.384-2.806-2.902-2.026a3.526 3.526 0 0 0-1.672 1.154s.509 2.136 1.51 1.893c1.75-.426 3.064-1.021 3.064-1.021" fill="#FFF" mask="url(#c)"/>
    <path d="M167.848 30.83s-.384-2.806-2.902-2.026a3.526 3.526 0 0 0-1.672 1.154s.509 2.136 1.51 1.893c1.75-.426 3.064-1.021 3.064-1.021z" stroke="#52267D" mask="url(#c)"/>
    <path d="M142.418 25.433s.115-.982 1.102-1.353c.301-.112.766.026.766.026s.545.895-.122 1.192c-.96.426-1.746.135-1.746.135M146.908 24.903s.08-1.819 2.133-2.039c.383-.04.872.008.872.008s.923 1.933-.16 2.094c-1.333.2-2.845-.063-2.845-.063M152.736 25.903s.292-1.596 1.713-1.086c.607.22.928.703.928.703s-.346 1.21-.913 1.044c-.992-.287-1.728-.66-1.728-.66M177 31.325s-.072-.983-1.039-1.396c-.295-.125-1.098-.175-1.098-.175s-.249 1.034.403 1.359c.937.467 1.733.212 1.733.212M172.15 30.297s.003-1.4-1.566-1.64c-.293-.044-.671-.023-.671-.023s-.775 1.453.05 1.614c1.018.197 2.188.049 2.188.049M166.858 30.618s-.21-1.535-1.59-1.108c-.588.182-.913.63-.913.63s.278 1.169.826 1.037c.958-.234 1.677-.56 1.677-.56" fill="#F3E3FF" mask="url(#c)"/>
    <path d="M160.178 46.065s4.778.854 9.363-.162c.39 2.487.633 4.365.633 4.365s-3.211 2.077-9.026.701a444.03 444.03 0 0 0-.97-4.904" fill="#FFF" mask="url(#c)"/>
    <path d="M160.178 46.065s4.778.854 9.363-.162c.39 2.487.633 4.365.633 4.365s-3.211 2.077-9.026.701a444.03 444.03 0 0 0-.97-4.904z" stroke="#52267D" mask="url(#c)"/>
    <path d="M168.216 41.426l5.444.121a4.966 4.966 0 0 0-4.854-5.075l-.479-.01a2.483 2.483 0 0 0-.111 4.964" fill="#F3E3FF" mask="url(#c)"/>
    <path d="M168.815 41.346l4.754.106a3.9 3.9 0 0 0-3.814-3.987l-1.128-.026a1.812 1.812 0 0 0-1.853 1.773 2.088 2.088 0 0 0 2.04 2.134" fill="#FFF" mask="url(#c)"/>
    <path d="M168.815 41.346l4.754.106a3.9 3.9 0 0 0-3.814-3.987l-1.128-.026a1.812 1.812 0 0 0-1.853 1.773 2.088 2.088 0 0 0 2.04 2.134z" stroke="#52267D" mask="url(#c)"/>
    <path d="M170.837 40.477a1.089 1.089 0 1 1 1.979-.908 1.089 1.089 0 0 1-1.979.908" fill="#52267D" mask="url(#c)"/>
    <path d="M149.484 36.299l-5.444-.121a4.967 4.967 0 0 1 5.076-4.855l.478.01a2.483 2.483 0 1 1-.11 4.966" fill="#F3E3FF" mask="url(#c)"/>
    <path d="M149.027 36.195l-4.892-.109a3.901 3.901 0 0 1 3.988-3.814l.99.023a1.95 1.95 0 1 1-.086 3.9" fill="#FFF" mask="url(#c)"/>
    <path d="M149.027 36.195l-4.892-.109a3.901 3.901 0 0 1 3.988-3.814l.99.023a1.95 1.95 0 1 1-.086 3.9z" stroke="#52267D" mask="url(#c)"/>
    <path d="M145.537 35.004a1.09 1.09 0 1 0 1.433-1.644 1.09 1.09 0 0 0-1.433 1.644M180.194 42.827a1.36 1.36 0 0 1-.772-.504l-.355-.467.809.193.476.113a.342.342 0 1 1-.158.665M138.313 36.795c.31-.06.592-.225.794-.47l.375-.45-.816.157-.482.092a.34.34 0 1 0 .129.67" fill="#52267D" mask="url(#c)"/>
    <path d="M149.162 41.73s4.02 1.818 8.146.33c-.482 2.392-.89 3.608-.89 3.608s-2.467.09-4.09-.267c-2.318-.51-3.212-1.59-3.166-3.672" fill="#E1F2FF" mask="url(#c)"/>
    <g mask="url(#c)">
      <path d="M154.738 44.933s-3.699.226-6.523-1.32" fill="#FFF"/>
      <path d="M154.738 44.933s-3.699.226-6.523-1.32" stroke="#52267D"/>
    </g>
    <path d="M167.765 46.776s-3.622.943-6.783.237c.547 2.377.847 3.125.847 3.125s4.778-.529 5.936-3.362" fill="#E1F2FF" mask="url(#c)"/>
    <g mask="url(#c)">
      <path d="M165.084 80.303s-.22.153-.534.332" fill="#F3E3FF"/>
      <path d="M165.084 80.303s-.22.153-.534.332" stroke="#52267D" stroke-width=".5"/>
    </g>
    <g mask="url(#c)">
      <path d="M168.081 48.144s-3.638.606-7.474.062" fill="#FFF"/>
      <path d="M168.081 48.144s-3.638.606-7.474.062" stroke="#52267D"/>
    </g>
    <path d="M160.482 122.544s-.943-.805-2.244.217c-1.19.93-2.1 2.393-1.58 2.554.52.16 1.437.326 2.408.17.845-.135 1.585.043 1.96-1.71.177-.816-.544-1.231-.544-1.231" fill="#FFF" mask="url(#c)"/>
    <path d="M160.482 122.544s-.943-.805-2.244.217c-1.19.93-2.1 2.393-1.58 2.554.52.16 1.437.326 2.408.17.845-.135 1.585.043 1.96-1.71.177-.816-.544-1.231-.544-1.231z" stroke="#52267D" stroke-width=".5" mask="url(#c)"/>
    <path d="M160.256 122.824s-.587-.5-1.396.135c-.74.58-1.307 1.49-.983 1.59.323.099.894.203 1.498.105.526-.084.986.027 1.221-1.063.11-.508-.34-.767-.34-.767" fill="#E1F2FF" mask="url(#c)"/>
    <path d="M161.846 122.557c.509-.057 1.215 1.062 1.124 1.396-.091.334-.174 1.443-.997 1.545-.607.076-2.772.252-3.232-.227-.425-.443.47-2.42 3.105-2.714" fill="#FFF" mask="url(#c)"/>
    <path d="M161.846 122.557c.509-.057 1.215 1.062 1.124 1.396-.091.334-.174 1.443-.997 1.545-.607.076-2.772.252-3.232-.227-.425-.443.47-2.42 3.105-2.714z" stroke="#52267D" stroke-width=".5" mask="url(#c)"/>
    <path d="M161.98 122.866c.302-.034.719.627.665.824-.054.197-.102.852-.59.911-.357.045-1.635.15-1.906-.133-.251-.261.277-1.429 1.832-1.602" fill="#E1F2FF" mask="url(#c)"/>
    <path d="M163.988 122.82s-.434-.239-1.311.238c-.778.422-1.939 1.098-1.657 1.976.281.88 2.712.608 3.255.436.543-.172.895-.752.811-1.267-.183-1.124-1.098-1.384-1.098-1.384" fill="#FFF" mask="url(#c)"/>
    <path d="M163.988 122.82s-.434-.239-1.311.238c-.778.422-1.939 1.098-1.657 1.976.281.88 2.712.608 3.255.436.543-.172.895-.752.811-1.267-.183-1.124-1.098-1.384-1.098-1.384z" stroke="#52267D" stroke-width=".5" mask="url(#c)"/>
    <path d="M164.147 123.132s-.257-.141-.777.142c-.46.25-1.148.649-.981 1.17.167.52 1.607.36 1.928.258.32-.102.529-.445.48-.751-.108-.666-.65-.82-.65-.82" fill="#E1F2FF" mask="url(#c)"/>
    <g mask="url(#c)">
      <path d="M154.474 94.787s.368 5.627-1.257 14.423c-1.512 8.188-3.926 10.714-3.801 12.848.098 1.653.76 3.179 2.416 3.216l4.94.11a5.366 5.366 0 0 0 5.162-3.541c.637-1.746 1.31-4.125 1.749-7.142.472-4.106.482-8.236.469-10.661" fill="#9452BA"/>
      <path d="M154.474 94.787s.368 5.627-1.257 14.423c-1.512 8.188-3.926 10.714-3.801 12.848.098 1.653.76 3.179 2.416 3.216l4.94.11a5.366 5.366 0 0 0 5.162-3.541c.637-1.746 1.31-4.125 1.749-7.142.472-4.106.482-8.236.469-10.661" stroke="#52267D" stroke-width="2"/>
    </g>
    <g mask="url(#c)">
      <path d="M179.716 99.067c-1.667 1.372-2.567 3.66-2.602 5.778-.045 2.83 1.515 6.468.371 11.147-1.021 4.167-2.882 4.864-2.411 8.635.085.68.683 1.181 1.37 1.197l5.503.122a5.19 5.19 0 0 0 5.213-4.222c1.255-6.648.551-12.967-.23-17.82" fill="#9452BA"/>
      <path d="M179.716 99.067c-1.667 1.372-2.567 3.66-2.602 5.778-.045 2.83 1.515 6.468.371 11.147-1.021 4.167-2.882 4.864-2.411 8.635.085.68.683 1.181 1.37 1.197l5.503.122a5.19 5.19 0 0 0 5.213-4.222c1.255-6.648.551-12.967-.23-17.82" stroke="#52267D" stroke-width="2"/>
    </g>
    <path stroke="#52267D" stroke-width=".5" mask="url(#c)" d="M180.658 105.326l.33-.226 1.04.259-1.179.716-1.383-.72 1.48-1.13.654.237"/>
    <path d="M150.49 122.321s-.944-.805-2.245.216c-1.188.932-2.099 2.394-1.578 2.555a5.537 5.537 0 0 0 2.407.17c.845-.136 1.584.043 1.962-1.71.175-.816-.547-1.23-.547-1.23" fill="#FFF" mask="url(#c)"/>
    <path d="M150.49 122.321s-.944-.805-2.245.216c-1.188.932-2.099 2.394-1.578 2.555a5.537 5.537 0 0 0 2.407.17c.845-.136 1.584.043 1.962-1.71.175-.816-.547-1.23-.547-1.23z" stroke="#52267D" mask="url(#c)"/>
    <path d="M150.265 122.601s-.588-.5-1.396.135c-.741.58-1.307 1.49-.984 1.59a3.48 3.48 0 0 0 1.499.105c.526-.084.985.027 1.22-1.063.109-.509-.34-.767-.34-.767" fill="#E1F2FF" mask="url(#c)"/>
    <path stroke="#52267D" stroke-width=".5" mask="url(#c)" d="M158.37 107.934l-1.982.57.22 1.828 2.012.192.963-1.064-1.193-.696-1.004.27.62.717"/>
    <g mask="url(#c)" stroke="#F3E3FF" stroke-width=".25">
      <path d="M117.55 46.977a.537.537 0 1 0 1.07.023M116.478 46.953a.536.536 0 1 0 1.07.024M117.001 47.5a.535.535 0 1 0 1.071.024M138.085 46.933a.79.79 0 0 0 .863-1.322M138.316 48.026a.79.79 0 0 0 .863-1.322M163.105 65.496a.718.718 0 1 0 1.437.032M161.668 65.464a.72.72 0 1 0 1.437.032M162.37 66.199a.718.718 0 1 0 1.437.031M140.63 110.537a.72.72 0 0 0 1.437.032M139.194 110.506a.718.718 0 1 0 1.437.03M139.896 111.24a.718.718 0 0 0 1.437.032M162.503 42.572a.79.79 0 1 0 1.58.035M161.696 43.344a.79.79 0 0 0 1.578.035M152.1 56.29a.959.959 0 1 0 1.919.043M151.12 57.228a.96.96 0 0 0 1.918.043M138.698 32.129a.64.64 0 1 0 1.284.028M138.042 32.756a.642.642 0 0 0 1.283.028M197.644 98.165a.74.74 0 0 0 1.04.109.741.741 0 0 0 .109-1.04M197.534 99.204a.74.74 0 0 0 1.15-.93M168.51 87.31a.867.867 0 1 0 1.593-.684M166.917 87.995a.867.867 0 1 0 1.593-.685M168.056 88.449a.867.867 0 0 0 1.593-.684M166.463 89.134a.867.867 0 0 0 1.593-.685M169.195 88.903a.867.867 0 1 0 1.593-.684M154.491 38.97a.875.875 0 0 0 1.75.04M153.451 72.008a.875.875 0 1 0 1.748.038M163.768 54.013a.662.662 0 1 0 1.325.03M179.878 39.311a.497.497 0 0 0 .994.022M182.383 112.487a.873.873 0 1 0 1.729-.26M158.084 118.388a.96.96 0 1 0 1.92.043M157.104 119.327a.959.959 0 1 0 1.918.043"/>
    </g>
    <path d="M151.854 122.334c.51-.057 1.216 1.062 1.125 1.396-.091.335-.174 1.444-.998 1.546-.607.076-2.772.252-3.231-.227-.425-.443.469-2.421 3.104-2.715" fill="#FFF" mask="url(#c)"/>
    <path d="M151.854 122.334c.51-.057 1.216 1.062 1.125 1.396-.091.335-.174 1.444-.998 1.546-.607.076-2.772.252-3.231-.227-.425-.443.469-2.421 3.104-2.715z" stroke="#52267D" mask="url(#c)"/>
    <path d="M151.99 122.642c.3-.033.718.627.663.824-.053.197-.101.852-.588.912-.358.045-1.636.15-1.907-.133-.251-.262.277-1.429 1.832-1.603" fill="#E1F2FF" mask="url(#c)"/>
    <path d="M153.646 122.917s-.384-.211-1.161.21c-.688.374-1.714.972-1.464 1.749.249.777 2.398.538 2.879.386.48-.153.79-.665.717-1.121-.161-.995-.971-1.224-.971-1.224" fill="#FFF" mask="url(#c)"/>
    <path d="M153.646 122.917s-.384-.211-1.161.21c-.688.374-1.714.972-1.464 1.749.249.777 2.398.538 2.879.386.48-.153.79-.665.717-1.121-.161-.995-.971-1.224-.971-1.224z" stroke="#52267D" mask="url(#c)"/>
    <path d="M153.785 123.193s-.228-.125-.687.125c-.408.221-1.015.575-.868 1.035.148.46 1.421.32 1.705.23.285-.092.468-.395.424-.665-.095-.589-.574-.725-.574-.725" fill="#E1F2FF" mask="url(#c)"/>
    <path d="M133.367 122.678s-.384-.21-1.16.212c-.689.373-1.715.97-1.465 1.748.25.775 2.398.537 2.88.385.48-.153.79-.664.716-1.12-.16-.996-.97-1.225-.97-1.225" fill="#FFF" mask="url(#c)"/>
    <path d="M133.367 122.678s-.384-.21-1.16.212c-.689.373-1.715.97-1.465 1.748.25.775 2.398.537 2.88.385.48-.153.79-.664.716-1.12-.16-.996-.97-1.225-.97-1.225z" stroke="#52267D" mask="url(#c)"/>
    <path d="M133.507 122.955s-.228-.125-.687.125c-.408.22-1.015.574-.868 1.035.148.46 1.421.319 1.705.228a.624.624 0 0 0 .425-.663c-.096-.59-.575-.725-.575-.725" fill="#E1F2FF" mask="url(#c)"/>
    <path d="M135.725 122.188c.509-.057 1.215 1.062 1.124 1.396-.091.334-.174 1.444-.997 1.545-.607.077-2.772.252-3.232-.227-.425-.442.469-2.42 3.105-2.714" fill="#FFF" mask="url(#c)"/>
    <path d="M135.725 122.188c.509-.057 1.215 1.062 1.124 1.396-.091.334-.174 1.444-.997 1.545-.607.077-2.772.252-3.232-.227-.425-.442.469-2.42 3.105-2.714z" stroke="#52267D" mask="url(#c)"/>
    <path d="M135.86 122.497c.3-.033.718.627.664.824-.054.197-.102.852-.59.912-.357.044-1.635.149-1.906-.134-.251-.261.277-1.43 1.832-1.602" fill="#E1F2FF" mask="url(#c)"/>
    <path d="M177.213 122.917s-.943-.804-2.244.217c-1.189.932-2.1 2.393-1.579 2.554a5.545 5.545 0 0 0 2.407.17c.845-.135 1.585.043 1.962-1.71.175-.816-.546-1.231-.546-1.231" fill="#FFF" mask="url(#c)"/>
    <path d="M177.213 122.917s-.943-.804-2.244.217c-1.189.932-2.1 2.393-1.579 2.554a5.545 5.545 0 0 0 2.407.17c.845-.135 1.585.043 1.962-1.71.175-.816-.546-1.231-.546-1.231z" stroke="#52267D" stroke-width=".5" mask="url(#c)"/>
    <path d="M176.988 123.198s-.588-.501-1.397.135c-.74.58-1.305 1.489-.983 1.589.323.1.894.203 1.499.106.525-.085.986.026 1.22-1.064.11-.508-.34-.766-.34-.766" fill="#E1F2FF" mask="url(#c)"/>
    <path d="M178.577 122.93c.51-.056 1.215 1.063 1.124 1.396-.09.335-.174 1.445-.997 1.547-.607.075-2.772.251-3.232-.229-.425-.442.47-2.42 3.105-2.714" fill="#FFF" mask="url(#c)"/>
    <path d="M178.577 122.93c.51-.056 1.215 1.063 1.124 1.396-.09.335-.174 1.445-.997 1.547-.607.075-2.772.251-3.232-.229-.425-.442.47-2.42 3.105-2.714z" stroke="#52267D" stroke-width=".5" mask="url(#c)"/>
    <path d="M178.712 123.239c.301-.033.718.627.664.824-.054.197-.102.852-.589.912-.358.044-1.636.149-1.907-.134-.25-.261.277-1.429 1.832-1.602" fill="#E1F2FF" mask="url(#c)"/>
    <path d="M180.368 123.513s-.383-.21-1.16.212c-.688.373-1.714.97-1.465 1.748.25.776 2.4.537 2.88.385.48-.154.79-.665.716-1.12-.16-.995-.97-1.225-.97-1.225" fill="#FFF" mask="url(#c)"/>
    <path d="M180.368 123.513s-.383-.21-1.16.212c-.688.373-1.714.97-1.465 1.748.25.776 2.4.537 2.88.385.48-.154.79-.665.716-1.12-.16-.995-.97-1.225-.97-1.225z" stroke="#52267D" stroke-width=".5" mask="url(#c)"/>
    <path d="M180.508 123.79s-.227-.125-.687.125c-.407.22-1.015.574-.868 1.034.148.46 1.421.32 1.705.229.285-.09.469-.394.425-.663-.096-.59-.575-.725-.575-.725" fill="#E1F2FF" mask="url(#c)"/>
    <path d="M142.381 122.811c.162-.13.353-.163.508-.086.577.288 2.032 1.104 1.705 2.154-.256.82-.754.561-1.717.557l-.726-.003a.411.411 0 0 1-.362-.22c-.402-.709-.152-1.8.541-2.36l.051-.042z" fill="#FFF" mask="url(#c)"/>
    <path d="M142.381 122.811c.162-.13.353-.163.508-.086.577.288 2.032 1.104 1.705 2.154-.256.82-.754.561-1.717.557l-.726-.003a.411.411 0 0 1-.362-.22c-.402-.709-.152-1.8.541-2.36l.051-.042z" stroke="#52267D" mask="url(#c)"/>
    <path d="M142.451 123.05c.117-.094.256-.118.368-.062.42.209 1.478.8 1.24 1.566-.186.595-.548.406-1.248.404l-.528-.002a.302.302 0 0 1-.263-.161c-.292-.514-.11-1.307.394-1.714l.037-.03z" fill="#E1F2FF" mask="url(#c)"/>
    <path d="M138.98 122.42s-.872-.882-2.255.024c-1.263.829-2.294 2.207-1.79 2.412a5.558 5.558 0 0 0 2.385.374c.852-.064 1.575.177 2.099-1.538.245-.797-.44-1.272-.44-1.272" fill="#FFF" mask="url(#c)"/>
    <path d="M138.98 122.42s-.872-.882-2.255.024c-1.263.829-2.294 2.207-1.79 2.412a5.558 5.558 0 0 0 2.385.374c.852-.064 1.575.177 2.099-1.538.245-.797-.44-1.272-.44-1.272z" stroke="#52267D" mask="url(#c)"/>
    <path d="M138.732 122.68s-.543-.55-1.403.015c-.786.516-1.428 1.374-1.115 1.502.315.126.874.276 1.485.231.53-.038.979.11 1.306-.956.152-.496-.273-.792-.273-.792" fill="#E1F2FF" mask="url(#c)"/>
    <mask id="e" fill="#fff">
      <use xlink:href="#d"/>
    </mask>
    <path fill="#FFF" mask="url(#e)" d="M81.15 126.586h87.404V32.423H81.15z"/>
    <path stroke="#5E63B6" stroke-width="2" mask="url(#e)" d="M81.15 126.586h87.404V32.423H81.15z"/>
    <path fill="#5E63B6" mask="url(#e)" d="M89.453 126.586h79.432V41.012H89.453z"/>
    <path stroke="#5E63B6" stroke-width="2" mask="url(#e)" d="M89.453 126.586h79.432V41.012H89.453z"/>
    <path d="M138.47 113.43H93.307V52.715a3.285 3.285 0 0 1 3.285-3.285h26.194c1.563 0 2.91 1.1 3.22 2.632l12.466 61.368z" fill="#E1F2FF" mask="url(#e)"/>
    <path d="M138.47 113.43H93.307V52.715a3.285 3.285 0 0 1 3.285-3.285h26.194c1.563 0 2.91 1.1 3.22 2.632l12.466 61.368z" stroke="#ACD3EF" stroke-width="2" stroke-linecap="round" mask="url(#e)"/>
    <path d="M166.028 121.43H99.37a6.065 6.065 0 0 1-6.065-6.064V63.494a6.064 6.064 0 0 1 6.065-6.063h66.657a6.064 6.064 0 0 1 6.064 6.063v51.873a6.065 6.065 0 0 1-6.064 6.064" fill="#E1F2FF" mask="url(#e)"/>
    <path d="M166.028 121.43H99.37a6.065 6.065 0 0 1-6.065-6.064V63.494a6.064 6.064 0 0 1 6.065-6.063h66.657a6.064 6.064 0 0 1 6.064 6.063v51.873a6.065 6.065 0 0 1-6.064 6.064z" stroke="#ACD3EF" stroke-width="2" stroke-linecap="round" mask="url(#e)"/>
    <path d="M143.348 113.687H98.183V52.973a3.286 3.286 0 0 1 3.285-3.286h26.194a3.285 3.285 0 0 1 3.22 2.632l12.466 61.368z" fill="#E1F2FF" mask="url(#e)"/>
    <path d="M143.348 113.687H98.183V52.973a3.286 3.286 0 0 1 3.285-3.286h26.194a3.285 3.285 0 0 1 3.22 2.632l12.466 61.368z" stroke="#ACD3EF" stroke-width="2" stroke-linecap="round" mask="url(#e)"/>
    <path d="M170.904 121.687h-66.657a6.064 6.064 0 0 1-6.064-6.064V63.751a6.064 6.064 0 0 1 6.063-6.064h66.658a6.063 6.063 0 0 1 6.064 6.064v51.872a6.063 6.063 0 0 1-6.064 6.064" fill="#E1F2FF" mask="url(#e)"/>
    <path d="M170.904 121.687h-66.657a6.064 6.064 0 0 1-6.064-6.064V63.751a6.064 6.064 0 0 1 6.063-6.064h66.658a6.063 6.063 0 0 1 6.064 6.064v51.872a6.063 6.063 0 0 1-6.064 6.064z" stroke="#ACD3EF" stroke-width="2" stroke-linecap="round" mask="url(#e)"/>
    <path d="M149.157 58.62h-45.165V-2.093a3.286 3.286 0 0 1 3.286-3.285h26.194a3.286 3.286 0 0 1 3.22 2.632l12.465 61.368z" fill="#E1F2FF" mask="url(#e)"/>
    <path d="M149.157 58.62h-45.165V-2.093a3.286 3.286 0 0 1 3.286-3.285h26.194a3.286 3.286 0 0 1 3.22 2.632l12.465 61.368z" stroke="#ACD3EF" stroke-width="2" stroke-linecap="round" mask="url(#e)"/>
    <path d="M176.714 66.62h-66.657a6.065 6.065 0 0 1-6.065-6.063V8.685a6.065 6.065 0 0 1 6.065-6.064h66.657a6.063 6.063 0 0 1 6.064 6.064v51.872a6.063 6.063 0 0 1-6.064 6.064" fill="#E1F2FF" mask="url(#e)"/>
    <path d="M176.714 66.62h-66.657a6.065 6.065 0 0 1-6.065-6.063V8.685a6.065 6.065 0 0 1 6.065-6.064h66.657a6.063 6.063 0 0 1 6.064 6.064v51.872a6.063 6.063 0 0 1-6.064 6.064z" stroke="#ACD3EF" stroke-width="2" stroke-linecap="round" mask="url(#e)"/>
    <path d="M156.198 35.666c-.356 6.786-6.145 11.999-12.933 11.643-6.785-.357-11.997-6.147-11.641-12.933.356-6.786 6.145-11.998 12.931-11.642 6.787.356 11.999 6.146 11.643 12.932" fill="#FFF" mask="url(#e)"/>
    <path d="M157.819 33.26c-.356 6.787-6.146 11.998-12.932 11.643-6.786-.358-12-6.148-11.642-12.932.356-6.787 6.146-12 12.932-11.643 6.787.357 11.998 6.146 11.642 12.933" fill="#FFF" mask="url(#e)"/>
    <path d="M157.819 33.26c-.356 6.787-6.146 11.998-12.932 11.643-6.786-.358-12-6.148-11.642-12.932.356-6.787 6.146-12 12.932-11.643 6.787.357 11.998 6.146 11.642 12.933z" stroke="#ACD3EF" stroke-width="2" mask="url(#e)"/>
    <path d="M148.268 38.836c.044.155.084.263.095.298.005.004-.004-.002 0 0-.171-3.367 1.8-4.663 2.528-6.855a.791.791 0 0 1 .025-.11c.015-.048.029-.1.039-.15.123-.61-.092-1.34-.531-2.111a.03.03 0 0 0-.007-.011c-.035-.065-.074-.13-.113-.194l-.002-.002a9.267 9.267 0 0 0-.231-.355c-.01-.013-.017-.026-.026-.037-.022-.034-.047-.066-.07-.098-.022-.034-.047-.067-.07-.101l-.074-.097-.076-.102-.055-.07c-.705-.903-1.637-1.81-2.618-2.606 0 0-.006-.011 0 0 .07 1.268.02 2.529-.152 3.53-.208 1.208-.717 2.599-1.387 3.849-1.406-.19-2.832-.592-3.932-1.132-.92-.452-1.964-1.142-2.955-1.948l.019.315.008.093c.006.076.01.15.019.225l.009.104c.007.076.014.15.023.225l.01.09c.009.096.02.19.033.284 0 .01.002.019.003.029.013.109.029.217.045.326 0 .007.002.015.004.024.013.098.028.193.044.29l.009.059.047.262a14.486 14.486 0 0 0 .296 1.277l.002.01c.143.496.31.954.502 1.357.028.059.058.116.087.173a4.335 4.335 0 0 0 .084.157l.004.006a2.596 2.596 0 0 0 .103.174v.002a6.019 6.019 0 0 0 .15.226 2.635 2.635 0 0 0 .255.317l.046.048.069.07.054.048a1.85 1.85 0 0 0 .12.103l.07.054.056.038.075.048.053.03c.029.017.058.03.088.046.014.006.029.015.044.02.045.022.09.04.136.055a.994.994 0 0 1 .082.033c2.205.708 4.43-.114 7.058 1.982" fill="#ACD3EF" mask="url(#e)"/>
    <path fill="#FFF" mask="url(#e)" d="M111.556 126.299h85v-85h-85z"/>
    <path stroke="#5E63B6" stroke-width="2" mask="url(#e)" d="M111.556 126.299h85v-85h-85z"/>
    <path fill="#E1F2FF" mask="url(#e)" d="M89.453 126.252h21.934V93.946H89.453z"/>
    <path stroke="#5E63B6" stroke-width="2" mask="url(#e)" d="M89.453 126.252h21.934V93.946H89.453z"/>
    <path fill="#FFF" mask="url(#e)" d="M37.365 126.681h43.703V32.518H37.365z"/>
    <path stroke="#5E63B6" stroke-width="2" mask="url(#e)" d="M37.365 126.681h43.703V32.518H37.365z"/>
    <path d="M187.847-65v7M191.347-61.5h-7M51.826-24.868v7M55.326-21.368h-7" stroke="#5E63B6" stroke-width="2" stroke-linecap="round" stroke-linejoin="round" mask="url(#e)"/>
    <path d="M132.527-26.837v3.938M134.495-24.868h-3.938M19.41 85.943v3.938M21.378 87.912H17.44" stroke="#5E63B6" stroke-linecap="round" mask="url(#e)"/>
    <path d="M48.046 75.741h20.221M48.046 83.007h20.221M48.046 90.272h20.221" stroke="#ACD3EF" stroke-width="2" stroke-linecap="round" mask="url(#e)"/>
    <path d="M185.578 122.538v-14.25" stroke="#E1F2FF" stroke-width="2" stroke-linecap="round" mask="url(#e)"/>
    <path fill="#E1F2FF" mask="url(#e)" d="M138.643 118.117l33.098-8.846.238-1.995h-33.336z"/>
    <path d="M170.613 109.444h-28.916a2.136 2.136 0 0 1-2.136-2.136v-.904c0-1.179.957-2.135 2.136-2.135h28.916c1.18 0 2.137.956 2.137 2.135v.904c0 1.18-.957 2.136-2.137 2.136" fill="#FFF" mask="url(#e)"/>
    <g mask="url(#e)">
      <path d="M104.663 99.478H89.547" fill="#E1F2FF"/>
      <path d="M104.663 99.478H89.547" stroke="#5E63B6" stroke-width="2" stroke-linecap="round"/>
    </g>
    <g mask="url(#e)">
      <path d="M96.734 120.307h-7.187" fill="#E1F2FF"/>
      <path d="M96.734 120.307h-7.187" stroke="#5E63B6" stroke-width="2" stroke-linecap="round"/>
    </g>
    <path d="M116.61 122.538v-24.25" stroke="#5E63B6" stroke-width="2" stroke-linecap="round" mask="url(#e)"/>
    <path d="M169.322 77.119c0 9.735-7.893 17.629-17.629 17.629s-17.629-7.894-17.629-17.63c0-9.735 7.894-17.628 17.63-17.628 9.736 0 17.629 7.893 17.629 17.629" fill="#E1F2FF" mask="url(#e)"/>
    <path d="M173.475 73.797c0 9.735-7.893 17.629-17.63 17.629-9.734 0-17.627-7.894-17.627-17.63 0-9.735 7.893-17.628 17.628-17.628 9.736 0 17.629 7.893 17.629 17.629" fill="#FFF" mask="url(#e)"/>
    <path d="M173.475 73.797c0 9.735-7.893 17.629-17.63 17.629-9.734 0-17.627-7.894-17.627-17.63 0-9.735 7.893-17.628 17.628-17.628 9.736 0 17.629 7.893 17.629 17.629z" stroke="#5E63B6" stroke-width="2" mask="url(#e)"/>
    <path d="M161.492 82.694c.078.23.146.386.166.437.007.006-.006-.002 0 0 0 0 0 .002 0 0 .001.001 0 0 0 0-.52-5.013 2.323-7.102 3.236-10.432.005-.05.015-.104.03-.164a2.21 2.21 0 0 0 .046-.229c.136-.922-.242-1.994-.957-3.11-.003-.007-.008-.013-.01-.019a13.39 13.39 0 0 0-.186-.278s-.003-.002-.003-.004a14.074 14.074 0 0 0-.374-.513c-.013-.017-.026-.036-.04-.052-.037-.047-.076-.094-.11-.14-.04-.05-.077-.099-.115-.145l-.118-.14-.122-.146a6.553 6.553 0 0 0-.089-.1c-1.123-1.294-2.584-2.573-4.11-3.686 0 0-.013-.016 0 0 .201 1.887.227 3.774.048 5.283-.216 1.82-.866 3.936-1.77 5.855-2.113-.173-4.274-.663-5.959-1.382-1.409-.6-3.022-1.55-4.565-2.677.017.157.035.312.054.468l.018.14.045.334.023.154c.016.112.033.224.051.334l.022.136.072.42.007.041c.03.163.06.323.092.484l.008.036c.03.145.058.286.09.43.005.03.012.058.018.087l.09.39a.564.564 0 0 1 .018.075c.038.148.074.297.113.443a20.188 20.188 0 0 0 .411 1.363l.005.016c.251.73.536 1.4.855 1.986.047.085.095.17.143.25.002.003.002.007.005.01h.001c.043.075.088.15.132.22l.006.008c.048.077.097.151.147.222v.001l.021.03v.001c.065.093.131.183.197.27l.034.04c.003.006.008.01.011.017a5.367 5.367 0 0 0 .405.452l.073.07.108.098.083.067c.035.03.071.056.105.084.028.021.056.04.085.06a2.635 2.635 0 0 0 .194.128l.116.066.081.041c.045.022.09.041.135.061.022.007.045.02.068.028.07.027.138.051.208.07.047.014.087.03.125.043 3.346.884 6.606-.517 10.693 2.405" fill="#9452BA" mask="url(#e)"/>
  </g>
</svg>
