<svg xmlns="http://www.w3.org/2000/svg" width="256" height="256" xmlns:xlink="http://www.w3.org/1999/xlink">
    <defs>
        <path id="a" d="M74 22h43v45H74z"/>
    </defs>
    <g fill="none" fill-rule="evenodd">
        <path fill="#E1F2FF" fill-rule="nonzero" d="M24.5 231.7c0-57.2 46.38-103.56 103.57-103.56 57.2 0 103.56 46.37 103.56 103.56H24.5z"/>
        <path fill="#E1F2FF" fill-rule="nonzero" stroke="#9ACDED" stroke-width="2" d="M198.55 199.3h18.57c1.4 0 2.54 1.14 2.54 2.54v21.08H196v-21.08c0-.68.27-1.32.75-1.8s1.12-.74 1.8-.74zM195.76 207.52h23.45M195.76 215.18h23.45M44.13 199H62.7c1.4 0 2.54 1.14 2.54 2.54v21.08H41.6v-21.06c-.02-.68.25-1.33.73-1.8.47-.5 1.12-.76 1.8-.76zM41.35 207.25H64.8M41.35 214.9H64.8"/>
        <path fill="#FFF" fill-rule="nonzero" stroke="#375D81" stroke-width="2" d="M29.44 207.1H48c1.4 0 2.54 1.15 2.54 2.55v13.25H26.9v-13.26c.02-1.4 1.14-2.52 2.54-2.53zM26.66 215.33H50.1"/>
        <path fill="#FFF" fill-rule="nonzero" stroke="#375D81" stroke-width="2" d="M19.98 222.9h36" stroke-linecap="round" stroke-linejoin="round"/>
        <path stroke="#375D81" d="M75.86 162.95v3.94M77.83 164.92H73.9M212.26 190.18v3.93M214.23 192.15h-3.94" stroke-linecap="round"/>
        <path fill="#FFF" fill-rule="nonzero" stroke="#375D81" d="M123.82 126.68v3.94M125.8 128.65h-3.94" stroke-linecap="round" stroke-linejoin="round"/>
        <path fill="#FFF" fill-rule="nonzero" stroke="#375D81" stroke-width="2" d="M246.17 222.67h6.97M3 222.67h8.97M95.38 232h67.2M171.2 232h9.13M87.5 231.9l-5 .1" stroke-linecap="round" stroke-linejoin="round"/>
        <path fill="#E1F2FF" fill-rule="nonzero" stroke="#9ACDED" stroke-width="2" d="M115.86 137.35h18.57c.68 0 1.33.26 1.82.73.48.48.75 1.13.75 1.8v82.33h-23.68v-82.3c0-1.4 1.14-2.55 2.54-2.55zM113.08 145.58h23.44M113.08 153.23h23.44M113.08 160.88h23.44M113.08 168.53h23.44M113.08 176.18h23.44M113.08 183.83h23.44M113.08 191.48h23.44M113.08 199.13h23.44M113.08 206.78h23.44M113.08 214.43h23.44M113.08 222.08h23.44M139.75 130.35h18.57c1.4 0 2.54 1.14 2.54 2.54v89.3H137.2v-89.3c0-1.4 1.15-2.55 2.55-2.55zM136.97 138.58h23.44M136.97 146.23h23.44M136.97 153.88h23.44M136.97 161.53h23.44M136.97 169.18h23.44M136.97 176.83h23.44M136.97 184.48h23.44M136.97 192.13h23.44M136.97 199.78h23.44M136.97 207.43h23.44M136.97 215.08h23.44M136.97 222.73h23.44"/>
        <g transform="translate(99 136)">
            <mask id="b" fill="#fff">
                <use xlink:href="#a"/>
            </mask>
            <g mask="url(#b)">
                <path fill="#9452BA" fill-rule="nonzero" stroke="#52267D" stroke-width="2" d="M72 95.6l4.73-1.55c1.63-.54 2.76-2.02 2.86-3.73.24-4.88-1.5-8.7-2.4-12.17-1.72-6.4-3.77-9.3-6.44-14.26l-7 2.5s1.47 2.4 4.46 10.12c.93 2.4.14 13.46 1.9 18.17.3.74 1.1 1.14 1.88.9zM50.86 77.7L43 73.1l-3.48 1.3 1.83 7.87c1.06 5.34 1.73 10.75 2 16.18.02 1.1.17 2.2.45 3.28.22.78.74 1.44 1.46 1.82.7.37 1.55.44 2.32.18l4.2-1.38c2.44-.8 4.04-3.14 3.88-5.7-.56-8.03-4.8-18.96-4.8-18.96z"/>
                <path stroke="#52267D" stroke-width=".5" d="M44.3 84.8l-.66 1.14 1.17.52 1.3-1.05-.52-.54-1.12.7.08.2.3-.1"/>
                <path fill="#9452BA" fill-rule="nonzero" stroke="#52267D" stroke-width="2" d="M34.9 56.23c4.13-1.46 7.08-5.6 15.44-8.8-.06-.55-.06-1.1 0-1.63.44-3.83-.56-14.13-4-20l-2.75-4.62c-.9-1.52-1.65-3.13-2.2-4.8-.23-.68-.38-1.4-.47-2.1v-.53c-.04-.52-.04-1.04 0-1.56 0-.18.02-.35.05-.52.05-.34.1-.67.18-1 .07-.33.17-.66.28-1 .32-.97.8-1.9 1.37-2.73.2-.28.4-.55.64-.8C44.68 4.68 46.3 3.6 48.1 3l1.66-.55c2.68-.9 5.6-.67 8.12.6.3.15.6.32.9.5.52.33 1 .7 1.47 1.13.17.16.34.32.5.5l.36.37c.7.8 1.28 1.7 1.7 2.65.16.33.3.66.4 1 .22.67.17 1.4-.15 2.03-.32.62-.87 1.1-1.54 1.32L51.18 16l4.53 8.46c4.88 8.6 6.37 15 6.3 19.54 0 1-.74 4.87-.74 4.87 7.87 6.45 17 7.4 25.8 5.63 7.5-1.5 20.88-13.22 10.34-18.17-10.54-4.95.72-3.43 2.47-2.94 1.75.48 12.35 4.88 6.86 18.3-2.32 5.67-5.28 11.1-14.6 17.6-1.48 1-10.3 4.7-14.7 7.7-13.1 8.94-26.36 8.3-36.12.94-9.75-7.37-8.03-21.14-6.4-21.7z"/>
                <path fill="#9452BA" fill-rule="nonzero" stroke="#52267D" stroke-width="2" d="M39.34 39.52c-3.2-10.8-14.46-16.4-24.7-15-2.12.3-3-.12-5.17.6l-1.68.55C2.13 27.54-.93 33.63.93 39.27c.47 1.42 1.98 2.18 3.4 1.72l17.27-5.74 1.4-.46-1.4.47c4.35.36 8.32 4.44 9.6 6.9 1.7 2.92 2.4 6.3 2 9.65-.2 1.9.13 3.8.93 5.53h.1c.42.97.9 1.9 1.45 2.8 1.25-1.65 3.2-4.2 3.58-4.58.82-.85 2.67-2.8 3.48-3.7 5.17-5.78-1.58-6.2-3.4-12.35z"/>
                <path fill="#F3E3FF" fill-rule="nonzero" stroke="#52267D" d="M37.94 53.68c-.63-1.62-1.16-2.4-1.2-3.12-.2-4.22-.27-5.56-1.62-9.65-1.47-4.14-4.94-7.26-9.22-8.3-1.72.33-3.25 1.3-4.3 2.7 4.35.35 8.32 4.43 9.6 6.9 1.7 2.9 2.4 6.3 2 9.64-.2 1.9.13 3.8.93 5.53 0 0 5.25.2 3.85-3.7"/>
                <path fill="#FFF" fill-rule="nonzero" stroke="#52267D" d="M3 29.2c-.3-1.1.06-2.32.95-3.07L5.28 25s1.8 1.9.8 2.85c-.83.8-1.93 1.3-3.08 1.36zM7 26.48c-.4-1.53.4-3.12 1.87-3.7.5-.25 1.83-.65 1.83-.65s1.47 2.37.1 3.1c-1.2.6-2.48 1-3.8 1.25zM12.55 24.9s-.53-2.8 2.14-2.87c.7 0 1.4.2 2 .57 0 0 .2 2.22-.85 2.3-1.1.1-2.2.1-3.3 0zM23.93 35.7s4.64-4.95 1.85-9.77c1.6.65 3.15 1.42 4.63 2.32.34 1 1.86 5-2.8 9.5-1.18-.76-2.4-1.45-3.67-2.06z"/>
                <path fill="#F3E3FF" fill-rule="nonzero" d="M3.6 28.46c-.16-.58.03-1.2.5-1.6l.7-.58s.92 1 .4 1.47c-.43.42-1 .68-1.6.7zM8 25.54c-.2-.8.23-1.6 1-1.9.25-.1.93-.32.93-.32s.75 1.2.05 1.58c-.63.3-1.3.52-1.98.64zM13.36 24.43s-.28-1.5 1.14-1.53c.35 0 .7.1 1 .3 0 0 .1 1.18-.45 1.22-.56.05-1.13.05-1.7 0z"/>
                <path fill="#F3E3FF" fill-rule="nonzero" d="M13.37 30.9l.46-.15c1.3-.43 2.7.27 3.13 1.58.43 1.3-.27 2.7-1.57 3.13l-5.2 1.7c-.86-2.6.57-5.44 3.2-6.3l-.03.04z" opacity=".3"/>
                <path fill="#FFF" fill-rule="nonzero" stroke="#52267D" d="M12.76 32.12l.95-.32c1.05-.34 2.2.23 2.53 1.28.35 1.04-.22 2.18-1.27 2.52l-4.65 1.54c-.67-2.04.44-4.25 2.5-4.93l-.04-.08z"/>
                <circle cx="11.82" cy="35.43" r="1.09" fill="#52267D" fill-rule="nonzero" transform="rotate(-18.29 11.816 35.43)"/>
                <path fill="#52267D" fill-rule="nonzero" d="M3.84 40.3c.27-.15.48-.4.6-.7l.2-.55-.73.42-.4.25c-.1.05-.15.12-.17.2-.02.1 0 .2.04.27.05.07.12.13.2.15.1.02.2 0 .27-.04z"/>
                <path fill="#EAF3FB" fill-rule="nonzero" d="M24.92 35.48s3.58-3.8 2-8.5c1.12.3 2.18.8 3.12 1.47.23 1.28.14 2.6-.26 3.84-1.08 2.26-2.58 3.35-4.86 3.18z"/>
                <path fill="#FFF" fill-rule="nonzero" stroke="#52267D" d="M28.77 33.3c-.67 1.34-1.53 2.6-2.54 3.7"/>
                <path fill="#9452BA" fill-rule="nonzero" stroke="#52267D" stroke-width="2" d="M51.92 46l-1.6-1.6c-6.57-7.7-8.86-12.74-9.8-21.87L40 17.2c-.18-1.76-.55-3.5-1.1-5.17-1.85-5.58-7.86-8.6-13.44-6.76l-1.63.54c-5.5 1.83-8.48 7.76-6.66 13.26l.1.3c.42 1.3 1.83 2 3.14 1.58l10.32-3.4L32.1 27c3.16 25.63 6.86 35.23 15.63 30.1"/>
                <path fill="#FFF" fill-rule="nonzero" stroke="#52267D" d="M19.23 8.66c-.2-1.15.2-2.32 1.1-3.08.4-.26.88-.42 1.37-.44 0 0 1.52 1.24.53 2.18-.8.8-1.87 1.27-3 1.34zM23.18 6.7c-.46-1.72.45-3.53 2.12-4.2.43-.18.87-.33 1.32-.44 0 0 2.42 2.4.88 3.23-1.37.66-2.82 1.14-4.32 1.4zM28.93 5.5s-.45-2.77 2.17-2.77c.7 0 1.35.22 1.92.6 0 0 .14 2.2-.88 2.25-1.07.06-2.14.04-3.2-.08z"/>
                <path fill="#F3E3FF" fill-rule="nonzero" stroke="#52267D" d="M35 55.84c.38-.55.86-1.02 1.43-1.38M38.4 54.65c-4-6.3-5.23-20.42-5.74-23.83L30.6 17.16l1-.32c.63-.14 1.3-.02 1.82.34.54.36.9.92 1 1.56l2.1 11.74c.72 4 6 21.74 13.8 23.34 1.68.34 3.8-.94 4.52-1.64 2.64-2.53 2.25-6.74 1.9-10.12-.73-7-3.53-11.75-5.54-16.76L48.73 19c-.45-1.17.1-2.48 1.23-3l1.18-.4 6.4 12.24C59.4 31.3 65.26 43.54 59.7 52c-.1.15 2-.06 1.78 1.14-.94 4.75-7.3 7.55-8 9.67C50.9 71 60 83.56 60 83.56c-3.5-.24-6.93-.98-10.2-2.2C39.9 77 35.63 67.4 34.63 64.5c-1.2-3.47-1-5.94-.3-7.6"/>
                <path fill="#FFF" fill-rule="nonzero" stroke="#52267D" d="M102.32 39.87c.4-1 .23-2.16-.46-3-.33-.3-.73-.52-1.16-.63 0 0-1.6.85-.86 1.88.6.87 1.47 1.5 2.48 1.75z"/>
                <path fill="#F3E3FF" fill-rule="nonzero" d="M101.4 38.32c.12-.34.06-.72-.16-1-.12-.1-.26-.18-.4-.22 0 0-.57.3-.3.66.2.28.5.48.86.56z"/>
                <path fill="#FFF" fill-rule="nonzero" stroke="#52267D" d="M96.27 51.42c-1.06-1.3-1-3.16.14-4.38.3-.33.6-.63.94-.9 0 0 3 1.1 2 2.4-.9 1.1-1.92 2.06-3.07 2.88z"/>
                <path fill="#F3E3FF" fill-rule="nonzero" d="M96.84 50.25c-.6-.7-.56-1.76.08-2.43.16-.18.33-.35.52-.5 0 0 1.66.6 1.1 1.32-.48.6-1.06 1.15-1.7 1.6z"/>
                <path fill="#FFF" fill-rule="nonzero" stroke="#52267D" d="M101.25 41.23s2.3 1 1.05 2.95c-.33.5-.8.92-1.37 1.16 0 0-1.7-.93-1.26-1.73.46-.83 1-1.62 1.58-2.37z"/>
                <path fill="#F3E3FF" fill-rule="nonzero" d="M101.35 42.43s1 .43.47 1.3c-.15.23-.36.4-.6.5 0 0-.76-.4-.57-.76.2-.37.44-.7.7-1.04z"/>
                <path fill="#FFF" fill-rule="nonzero" stroke="#52267D" d="M88.12 55.5c-.74-1.18-.4-2.73.75-3.5 2-1.6 2.88-1.1 2.88-1.1s2 1.7 1.07 2.78c-.93 1.07-4.7 1.8-4.7 1.8z"/>
                <path fill="#F3E3FF" fill-rule="nonzero" d="M89 54.66c-.4-.6-.2-1.42.4-1.82 1.05-.83 1.5-.58 1.5-.58s1 .9.55 1.45c-.74.5-1.58.82-2.45.96z"/>
                <path fill="#FFF" fill-rule="nonzero" stroke="#52267D" d="M31.14 20.48c3.22.36 6.44-.62 8.9-2.72.2 1.72.53 5.18.53 5.18S36.27 26 31.8 24.9c-.32-2.26-.66-4.42-.66-4.42zM55.57 2C55.05.95 54 .25 52.84.17c-.7.05-1.4.18-2.07.38 0 0 .2 2 1.58 2.17 1.13.16 2.27-.1 3.22-.72zM50.82 2.6C50.24 1.17 48.67.38 47.16.78c-.4.1-.78.2-1.16.37 0 0-.44 2.95 1.07 2.72 1.3-.24 2.56-.66 3.75-1.25zM45.76 4.48s-1.3-2.52-3.4-.94c-.56.42-.97 1-1.2 1.65 0 0 1.2 1.83 2.06 1.27.9-.6 1.75-1.26 2.54-2z"/>
                <path fill="#F3E3FF" fill-rule="nonzero" d="M20 7.9c-.1-.6.12-1.23.6-1.63.2-.14.46-.22.72-.23 0 0 .8.66.28 1.16-.43.42-1 .67-1.6.7zM24 5.9c-.3-1.08.28-2.2 1.33-2.63.26-.12.54-.22.82-.3 0 0 1.52 1.52.55 2-.85.44-1.76.75-2.7.94zM29.87 4.9s-.26-1.6 1.25-1.6c.4 0 .78.13 1.1.35 0 0 .1 1.26-.5 1.3-.62.03-1.24.02-1.85-.05zM54.55 1.88c-.27-.57-.82-.95-1.45-1-.37.03-.74.1-1.1.2 0 0 .12 1.06.84 1.15.6.1 1.2-.03 1.7-.35zM49.64 2.54c-.33-.78-1.18-1.2-2-1-.22.05-.43.12-.64.2 0 0-.24 1.63.6 1.5.7-.14 1.4-.37 2.04-.7zM44.76 4.6s-.7-1.37-1.87-.5c-.3.23-.54.54-.66.9 0 0 .65 1 1.13.7.5-.32.96-.7 1.4-1.1z"/>
                <path fill="#FFF" fill-rule="nonzero" stroke="#52267D" d="M43.64 21.4c3.1-.58 6.06-1.7 8.77-3.3 1.2 2.22 2.07 3.9 2.07 3.9s-2.33 3-8.27 3.7l-2.56-4.3z"/>
                <path fill="#F3E3FF" fill-rule="nonzero" d="M54.84 12.66l-5.18 1.7c-1.3.44-2.7-.26-3.13-1.56-.43-1.3.28-2.7 1.58-3.14l.46-.15c2.63-.85 5.45.57 6.32 3.2l-.04-.04z" opacity=".3"/>
                <path fill="#FFF" fill-rule="nonzero" stroke="#52267D" d="M54.7 12.57l-4.5 1.5c-.53.17-1.1.13-1.6-.12s-.87-.7-1.05-1.2c-.3-.96.2-1.98 1.15-2.3l1.07-.35c1-.33 2.06-.25 2.98.22.93.46 1.63 1.27 1.95 2.26z"/>
                <circle cx="51.77" cy="11.19" r="1.09" fill="#52267D" fill-rule="nonzero" transform="rotate(-18.29 51.77 11.187)"/>
                <path fill="#F3E3FF" fill-rule="nonzero" d="M28.27 11.23l.45-.15c1.3-.43 2.7.28 3.14 1.58.43 1.3-.28 2.7-1.58 3.13l-5.17 1.7c-.83-2.6.58-5.4 3.17-6.27z" opacity=".3"/>
                <path fill="#FFF" fill-rule="nonzero" stroke="#52267D" d="M27.65 12.46l.95-.3c.5-.18 1.05-.14 1.53.1.47.24.83.65 1 1.16.34 1.05-.23 2.18-1.27 2.52l-4.65 1.54c-.34-1-.28-2.08.17-3.02.46-.95 1.28-1.67 2.28-2z"/>
                <circle cx="29.24" cy="14.81" r="1.09" fill="#52267D" fill-rule="nonzero" transform="rotate(-18.29 29.238 14.814)"/>
                <path fill="#52267D" fill-rule="nonzero" d="M61.4 11.65c-.3.03-.62-.04-.9-.22l-.48-.32.83-.08.5-.05c.08 0 .17 0 .24.07.06.06.1.14.12.23 0 .1-.02.18-.07.26-.06.07-.15.1-.24.12zM19.93 20c.27-.16.48-.4.6-.7l.2-.56-.73.42-.42.25c-.08.06-.14.13-.16.22-.02.1 0 .18.04.26.05.08.12.14.2.16.1.02.2 0 .27-.04z"/>
                <path fill="#EAF3FB" fill-rule="nonzero" d="M31.8 21c2.8.13 5.57-.72 7.8-2.42.2 1.23.32 2.46.37 3.7-1.27.5-2.6.88-3.94 1.12-2.37.3-3.57-.4-4.22-2.4z"/>
                <path fill="#FFF" fill-rule="nonzero" stroke="#52267D" d="M38.13 22.16c-2.1.84-4.35 1.17-6.6.94"/>
                <path fill="#EAF3FB" fill-rule="nonzero" d="M51 19.53c-1.9 1.25-4.06 2.1-6.3 2.5.55.93 1.17 1.8 1.84 2.66 0 0 4.34-2.1 4.46-5.17z"/>
                <path fill="#F3E3FF" fill-rule="nonzero" stroke="#52267D" stroke-width=".5" d="M59.73 52s-.16.22-.4.5"/>
                <path fill="#FFF" fill-rule="nonzero" stroke="#52267D" d="M51.78 20.72c-2.2 1.16-4.56 2.03-7 2.56"/>
                <path fill="#FFF" fill-rule="nonzero" stroke="#52267D" stroke-width=".5" d="M69.54 93.36c-.82-.2-1.66.23-2 1-.8 1.28-1.18 3-.63 2.94.82-.04 1.62-.26 2.34-.65.75-.4 1.5-.5 1.28-2.27-.06-.52-.46-.94-.98-1.02z"/>
                <path fill="#EAF3FB" fill-rule="nonzero" d="M69.42 93.7c-.5-.14-1.05.1-1.27.6-.5.78-.73 1.83-.4 1.82.52-.03 1-.16 1.46-.4.48-.26.95-.3.8-1.4-.04-.32-.28-.56-.58-.62z"/>
                <path fill="#FFF" fill-rule="nonzero" stroke="#52267D" stroke-width=".5" d="M70.83 92.92c.46-.22 1.5.6 1.53.94.03.35.32 1.42-.42 1.8-.55.26-2.53 1.16-3.12.86-.6-.3-.37-2.44 2-3.6z"/>
                <path fill="#EAF3FB" fill-rule="nonzero" d="M71.06 93.16c.27-.13.9.35.9.55 0 .2.2.85-.25 1.07-.43.22-1.48.7-1.83.5-.35-.17-.22-1.42 1.2-2.1z"/>
                <path fill="#FFF" fill-rule="nonzero" stroke="#52267D" stroke-width=".5" d="M72.94 92.45s-.5-.08-1.16.66c-.67.75-1.46 1.7-.9 2.43.56.74 2.76-.34 3.2-.68.46-.35.6-.96.35-1.47-.28-.57-.86-.92-1.5-.93z"/>
                <path fill="#EAF3FB" fill-rule="nonzero" d="M73.2 92.7s-.3 0-.7.38c-.4.4-.86 1-.53 1.43.33.44 1.63-.2 1.9-.4.26-.2.35-.56.2-.86-.17-.33-.5-.55-.88-.55z"/>
                <path fill="#9452BA" fill-rule="nonzero" stroke="#52267D" stroke-width="2" d="M54.58 69.22c1.74 4.52 2.96 9.2 3.65 14 1.32 8.22-.1 11.4.72 13.38.65 1.52 1.78 2.74 3.35 2.22l4.7-1.55c2.18-.73 3.66-2.77 3.67-5.07 0-2.46-.24-4.9-.74-7.3-.84-3.47-1.9-6.87-3.13-10.2M79.8 64.8c-1.06 1.94-1.25 4.23-.52 6.32.9 2.68 3.6 5.6 4.08 10.38.43 4.27-1.1 5.55.62 8.94.32.6 1.04.9 1.7.67l5.22-1.72c2.4-.8 3.9-3.2 3.5-5.72-1.08-5.9-3.17-11.54-6.2-16.7"/>
                <path stroke="#52267D" stroke-width=".5" d="M82.78 70.38l.24-.32 1.07-.1L83.2 71l-1.55-.2 1.02-1.57h.68"/>
                <path fill="#FFF" fill-rule="nonzero" stroke="#52267D" d="M60.05 96.5c-.82-.2-1.66.23-2 1-.8 1.28-1.18 3-.63 2.94.8-.04 1.6-.26 2.33-.65.75-.42 1.5-.5 1.28-2.28-.06-.52-.46-.94-.98-1.02z"/>
                <path fill="#EAF3FB" fill-rule="nonzero" d="M59.93 96.84c-.5-.14-1.05.1-1.27.6-.5.78-.73 1.83-.4 1.82.52-.03 1-.16 1.46-.4.47-.26.94-.3.8-1.4-.05-.32-.3-.56-.6-.62z"/>
                <path stroke="#52267D" stroke-width=".5" d="M62.66 80.3l-1.68 1.2.82 1.66 1.96-.5.55-1.32-1.34-.26-.86.6.82.46"/>
                <g stroke="#F3E3FF" stroke-width=".25" opacity=".3">
                    <path d="M3.78 36.54c.13.22.4.32.64.23.24-.08.4-.32.36-.57M2.76 36.88c.13.22.4.32.64.23.24-.07.4-.3.36-.56M3.44 37.22c.03.22.18.4.4.46.2.06.43-.02.57-.2.14-.17.15-.4.04-.6M23.1 29.62c.44.1.86-.16.96-.6.1-.4-.15-.84-.58-.94M23.7 30.58c.42.1.84-.16.94-.58.1-.43-.15-.86-.58-.96M52.9 38.73c.06.27.27.48.53.54.27.07.55-.02.73-.24.17-.2.2-.5.1-.75"/>
                    <path d="M51.54 39.18c.06.27.27.48.53.54.27.07.55-.02.73-.24.17-.2.2-.5.1-.75"/>
                    <path d="M52.45 39.64c.15.34.53.5.88.4.35-.13.56-.5.48-.85M46.8 88.7c.07.27.28.48.54.54.27.07.55-.02.73-.24.17-.2.2-.5.1-.75"/>
                    <path d="M45.45 89.15c.06.27.27.48.53.54.27.06.55-.03.73-.25.18-.2.22-.5.1-.75"/>
                    <path d="M46.36 89.6c.06.28.27.5.53.55.26.07.54-.02.72-.24.17-.2.2-.5.1-.74M44.66 17.33c.14.4.6.64 1 .5s.64-.6.5-1"/>
                    <path d="M44.16 18.33c.1.27.3.47.6.52.27.06.55-.03.74-.25.2-.2.25-.5.16-.77M39.45 33.74c.25.36.7.52 1.13.38.42-.14.7-.54.7-.98M38.84 35c.25.36.7.52 1.13.38.42-.14.7-.54.7-.98M18.73 15.47c.07.22.25.38.48.43.23.05.47-.03.62-.2.15-.17.2-.4.13-.63"/>
                    <path d="M18.32 16.28c.1.34.47.52.8.4.35-.1.53-.46.42-.8M96.4 57.94c.22.16.5.18.76.05.24-.13.4-.4.4-.66 0-.28-.16-.53-.4-.66"/>
                    <path d="M96.64 59c.35.18.77.06.97-.27.22-.33.13-.77-.2-1M65.3 57.48c.2.26.53.38.86.32.32-.07.58-.3.66-.62.1-.32 0-.66-.25-.88M64 58.65c.33.3.85.3 1.18 0 .33-.3.37-.82.1-1.18"/>
                    <path d="M65.26 58.7c.2.26.53.38.86.32.32-.07.58-.3.66-.62.1-.32 0-.66-.25-.88"/>
                    <path d="M64 59.88c.2.26.53.38.86.32.32-.07.58-.3.66-.62.1-.32 0-.66-.25-.88M66.48 58.75c.2.26.53.38.86.32.32-.07.58-.3.66-.62.1-.32 0-.66-.25-.88M35.9 16.62c.15.46.65.7 1.1.55.46-.15.7-.64.56-1.1M46 48.1c.1.3.35.52.65.58.3.06.63-.04.83-.27.2-.23.28-.55.18-.85M49.68 27.7c.12.34.5.53.84.4.35-.1.54-.48.42-.83M59.94 8.44c.1.22.37.33.6.25.24-.1.38-.33.34-.57M86.8 76.55c.16.28.44.45.75.46.32.02.6-.14.77-.4.17-.27.18-.6.03-.88M65.9 90.25c.24.36.7.52 1.12.38.42-.14.7-.54.7-.98M65.28 91.46c0 .43.3.8.7.93.4.1.85-.03 1.1-.38.26-.34.26-.8.02-1.16"/>
                </g>
                <path fill="#FFF" fill-rule="nonzero" stroke="#52267D" d="M61.34 96.06c.46-.22 1.5.6 1.53.94.03.35.32 1.42-.42 1.8-.55.26-2.53 1.16-3.12.86-.6-.3-.33-2.45 2-3.6z"/>
                <path fill="#EAF3FB" fill-rule="nonzero" d="M61.57 96.3c.27-.13.9.35.9.55 0 .2.2.84-.25 1.06-.44.23-1.5.7-1.84.52-.35-.18-.2-1.42 1.2-2.12z"/>
                <path fill="#FFF" fill-rule="nonzero" stroke="#52267D" d="M63.22 96s-.43-.07-1 .6c-.57.65-1.3 1.48-.8 2.13.5.65 2.45-.3 2.85-.6.4-.3.52-.85.3-1.3-.25-.5-.78-.84-1.35-.83z"/>
                <path fill="#EAF3FB" fill-rule="nonzero" d="M63.45 96.22s-.26 0-.6.35c-.36.35-.77.88-.48 1.27.3.4 1.45-.18 1.68-.36.24-.18.3-.5.18-.77-.15-.3-.45-.48-.78-.48z"/>
                <path fill="#FFF" fill-rule="nonzero" stroke="#52267D" d="M44 102.57s-.43-.07-1 .6c-.57.65-1.3 1.48-.8 2.13.5.65 2.45-.3 2.85-.6.4-.3.52-.85.3-1.3-.25-.5-.78-.84-1.35-.83z"/>
                <path fill="#EAF3FB" fill-rule="nonzero" d="M44.26 102.8s-.26 0-.6.34c-.36.35-.77.88-.48 1.27.3.4 1.45-.17 1.68-.35.24-.18.3-.5.18-.77-.15-.3-.45-.5-.78-.5z"/>
                <path fill="#FFF" fill-rule="nonzero" stroke="#52267D" d="M46.1 101.32c.45-.22 1.5.6 1.52.94.03.35.32 1.42-.42 1.8-.55.26-2.53 1.16-3.12.86-.6-.3-.37-2.44 2-3.6z"/>
                <path fill="#EAF3FB" fill-rule="nonzero" d="M46.33 101.57c.27-.13.9.35.9.55 0 .2.2.84-.25 1.06-.44.22-1.5.7-1.84.5-.35-.17-.22-1.43 1.2-2.1z"/>
                <path fill="#FFF" fill-rule="nonzero" stroke="#52267D" stroke-width=".5" d="M85.43 88.1c-.82-.2-1.66.24-2 1-.8 1.3-1.18 3-.63 2.95.8-.04 1.6-.26 2.33-.65.75-.4 1.5-.5 1.28-2.27-.05-.52-.45-.94-.97-1.02z"/>
                <path fill="#EAF3FB" fill-rule="nonzero" d="M85.3 88.45c-.5-.17-1.06.06-1.3.55-.5.8-.73 1.84-.4 1.83.52-.03 1-.16 1.46-.4.47-.26.94-.3.8-1.4-.06-.3-.27-.5-.55-.58z"/>
                <path fill="#FFF" fill-rule="nonzero" stroke="#52267D" stroke-width=".5" d="M86.72 87.67c.46-.22 1.5.6 1.53.94.03.36.32 1.43-.42 1.8-.55.27-2.53 1.17-3.12.87-.58-.3-.36-2.44 2.02-3.6z"/>
                <path fill="#EAF3FB" fill-rule="nonzero" d="M87 87.9c.27-.12.9.36.9.56 0 .2.2.84-.25 1.06-.44.22-1.5.7-1.84.5-.34-.17-.26-1.42 1.2-2.1z"/>
                <path fill="#FFF" fill-rule="nonzero" stroke="#52267D" stroke-width=".5" d="M88.6 87.62s-.43-.07-1 .6c-.57.65-1.3 1.48-.8 2.13.5.65 2.45-.3 2.85-.6.4-.3.52-.85.3-1.3-.25-.5-.78-.84-1.35-.83z"/>
                <path fill="#EAF3FB" fill-rule="nonzero" d="M88.83 87.83s-.26 0-.6.35c-.36.35-.77.88-.48 1.27.3.4 1.45-.18 1.68-.36.24-.2.3-.5.18-.78-.14-.3-.44-.5-.77-.5z"/>
                <path fill="#FFF" fill-rule="nonzero" stroke="#52267D" d="M52.58 99.68c.1-.17.26-.26.45-.25.64.08 2.28.36 2.33 1.46 0 .85-.52.77-1.43 1.1l-.7.23c-.13.05-.3 0-.4-.1-.62-.64-.74-1.62-.28-2.4l.03-.05z"/>
                <path fill="#EAF3FB" fill-rule="nonzero" d="M52.72 99.88c.06-.12.2-.2.33-.18.47.06 1.66.26 1.7 1.06 0 .62-.4.57-1 .8l-.5.17c-.1.04-.23 0-.3-.06-.47-.47-.55-1.2-.2-1.75l-.03-.04z"/>
                <path fill="#FFF" fill-rule="nonzero" stroke="#52267D" d="M49.24 100.45c-.8-.3-1.7.03-2.12.78-.9 1.2-1.42 2.85-.88 2.87.8.03 1.62-.13 2.37-.45.8-.35 1.55-.36 1.47-2.15-.03-.5-.36-.9-.83-1.05z"/>
                <path fill="#EAF3FB" fill-rule="nonzero" d="M49.1 100.78c-.5-.2-1.07.02-1.33.48-.57.75-.9 1.77-.55 1.8.5 0 1-.1 1.48-.3.5-.2 1-.2.9-1.33 0-.3-.22-.56-.5-.65z"/>
            </g>
        </g>
        <path fill="#E1F2FF" fill-rule="nonzero" stroke="#9ACDED" stroke-width="2" d="M184.75 222.2H161.1v-66.64c0-1.18.96-2.14 2.14-2.14h19.36c1.18 0 2.14.96 2.14 2.14v66.65zM160.86 161.64h23.44M160.86 169.3h23.44M160.86 176.94h23.44M160.86 184.6h23.44M160.86 192.24h23.44M160.86 199.9h23.44M160.86 207.54h23.44M160.86 215.2h23.44M160.86 222.85h23.44M68 183.8h18.6c.66 0 1.3.28 1.8.75.46.48.73 1.13.73 1.8v36.44H65.48v-36.45c0-1.4 1.13-2.53 2.52-2.54zM65.24 192.04h23.44M65.24 199.7h23.44M65.24 207.34h23.44M65.24 215h23.44M65.24 222.64h23.44"/>
        <path fill="#FFF" fill-rule="nonzero" stroke="#375D81" stroke-width="2" d="M126.87 222.9h-23.64v-74.64c0-1.18.96-2.14 2.14-2.14h19.36c1.18 0 2.14.96 2.14 2.14v74.65zM102.98 154.35h23.45M102.98 162h23.45M102.98 169.65h23.45M102.98 177.3h23.45M102.98 184.95h23.45M102.98 192.6h23.45M102.98 200.25h23.45M102.98 207.9h23.45M102.98 215.55h23.45M175.1 191.47h18.57c1.4 0 2.54 1.14 2.54 2.54v28.9h-23.64V194c0-1.4 1.14-2.53 2.54-2.53zM172.32 199.7h23.44M172.32 207.35h23.44M172.32 215h23.44"/>
        <path fill="#FFF" fill-rule="nonzero" stroke="#375D81" stroke-width="2" d="M128.43 175.94H147c1.4 0 2.54 1.14 2.54 2.54v44.44H125.9v-44.45c0-1.4 1.14-2.54 2.54-2.54zM125.65 184.16h23.44M125.65 191.8h23.44M125.65 199.46h23.44M125.65 207.1h23.44M125.65 214.76h23.44"/>
        <path fill="#FFF" fill-rule="nonzero" stroke="#375D81" stroke-width="2" d="M151.66 161.87h18.57c1.4 0 2.54 1.14 2.54 2.54v58.5h-23.65v-58.5c0-1.4 1.14-2.53 2.54-2.53zM148.87 170.1h23.45M148.87 177.75h23.45M148.87 185.4h23.45M148.87 193.05h23.45M148.87 200.7h23.45M148.87 208.35h23.45M148.87 216h23.45M82.32 175.94h18.57c1.4 0 2.53 1.14 2.53 2.54v44.44H79.8v-44.45c0-.67.26-1.32.73-1.8.48-.47 1.13-.74 1.8-.74zM79.54 184.16h23.44M79.54 191.8h23.44M79.54 199.46h23.44M79.54 207.1h23.44M79.54 214.76h23.44"/>
        <path fill="#E1F2FF" fill-rule="nonzero" d="M59.23 69c-8.75 0-16.64 5.27-19.98 13.35-3.35 8.1-1.5 17.4 4.7 23.58 6.18 6.18 15.48 8.03 23.56 4.68 8.1-3.34 13.36-11.23 13.36-19.98 0-11.94-9.7-21.62-21.63-21.62z"/>
        <path fill="#FFF" fill-rule="nonzero" d="M54.5 111.25c-8.33 0-15.86-5.02-19.06-12.73-3.2-7.7-1.43-16.58 4.47-22.48 5.9-5.9 14.78-7.67 22.5-4.48 7.7 3.2 12.73 10.72 12.73 19.06 0 11.4-9.23 20.6-20.62 20.63z"/>
        <path fill="#375D81" fill-rule="nonzero" d="M54.5 71c7.95 0 15.1 4.78 18.15 12.12 3.03 7.34 1.35 15.78-4.26 21.4-5.63 5.6-14.07 7.28-21.4 4.24-7.34-3.04-12.12-10.2-12.12-18.14.02-10.83 8.8-19.6 19.63-19.62zm0-2c-8.74 0-16.63 5.26-19.98 13.35-3.35 8.08-1.5 17.4 4.7 23.57 6.17 6.2 15.48 8.04 23.56 4.7 8.1-3.36 13.35-11.25 13.35-20 0-11.94-9.68-21.6-21.62-21.62z"/>
        <path fill="#375D81" fill-rule="nonzero" d="M61.2 96.1c-.1.43-.17.88-.24 1.35-.07.47-.14.88-.22 1.24-.43.14-.87.26-1.32.35-.37.06-.75.1-1.13.1-.68 0-1.35-.07-2-.2-.68-.13-1.36-.3-2.07-.48-.7-.2-1.22-.32-1.55-.38-.35-.07-.7-.1-1.05-.1-.37 0-.74.02-1.1.08-.35.05-.68.12-1 .22-.25.07-.48.16-.7.26l-.7.4.07-.9c0-.32.02-.7.06-1.13l.06-1.5c.28-.07.55-.18.8-.32.23-.12.4-.3.56-.5.18-.26.32-.54.4-.84.1-.32.17-.66.17-1v-.46c-1 0-1.9.04-2.75.1l.3-1.84c.1-.65.2-1.2.28-1.63h1.14l-.17-.48-.2-.57c0-.17-.07-.3-.1-.4l-.05-.35v-.38c0-.7.2-1.4.54-2 .4-.66.94-1.2 1.6-1.6.68-.43 1.44-.72 2.24-.85.84-.13 1.7-.2 2.55-.2.62 0 1.24.04 1.85.1.6.04 1.4.16 2.38.33 0 .57.08 1.92.25 4.05-.68-.27-1.38-.5-2.1-.7-.5-.13-1.04-.2-1.58-.2-.65-.03-1.3.14-1.85.48-.44.27-.7.75-.7 1.27 0 .15 0 .3.04.44l.17.55c.05.16.1.32.13.48h.58c.96 0 1.82-.03 2.58-.1l2-.05c-.1.43-.2.96-.3 1.6-.1.62-.23 1.27-.36 1.94H54.73v1.3l-.07.33-.13.33-.3.66c.42.1.75.16 1 .2l.6.08 1 .12.65.08h.65c.62 0 1.25-.07 1.85-.22.54-.14 1.06-.33 1.56-.57-.15.57-.26 1.07-.35 1.5z"/>
        <path fill="#E1F2FF" fill-rule="nonzero" d="M130.72 40c-11.95 0-21.63 9.68-21.63 21.63s9.67 21.63 21.62 21.63c11.95 0 21.63-9.68 21.63-21.63 0-5.74-2.28-11.24-6.34-15.3-4.04-4.05-9.54-6.33-15.28-6.33z"/>
        <path fill="#FFF" fill-rule="nonzero" d="M125.43 82.25c-8.34 0-15.87-5.03-19.06-12.74-3.2-7.7-1.43-16.57 4.48-22.47 5.9-5.9 14.77-7.66 22.48-4.47 7.7 3.2 12.73 10.73 12.73 19.07-.02 11.4-9.24 20.6-20.63 20.62z"/>
        <path fill="#375D81" fill-rule="nonzero" d="M125.43 42c10.84 0 19.63 8.8 19.63 19.63 0 10.84-8.8 19.63-19.63 19.63-10.84 0-19.63-8.8-19.63-19.63 0-10.84 8.8-19.62 19.63-19.63zm0-2c-11.95 0-21.63 9.68-21.63 21.63s9.68 21.63 21.63 21.63 21.63-9.68 21.63-21.63c0-5.74-2.28-11.24-6.34-15.3-4.05-4.05-9.55-6.33-15.3-6.33z"/>
        <path fill="#375D81" fill-rule="nonzero" d="M125.83 59c.2.25.4.5.63.7.76.7 1.5 1.43 2.17 2.2.42.47.76 1 1 1.58.18.47.28.97.28 1.47 0 .38-.04.76-.14 1.13-.1.36-.25.7-.45 1-.18.3-.4.56-.67.8-.24.2-.5.42-.8.6-.38.2-.78.4-1.2.57v2.81h-4.13c.04-.53.06-1.2.06-2v-.46c-.6-.07-1.12-.16-1.53-.25-.4-.1-.9-.24-1.5-.43-.06-1.9-.12-3.2-.2-3.9.65.3 1.32.54 2 .72.53.14 1.07.22 1.6.23.37 0 .7-.1 1-.3.28-.16.44-.47.43-.8v-.24c-.02-.08-.05-.16-.1-.24-.04-.1-.1-.2-.17-.3-.08-.1-.15-.2-.23-.27l-.72-.7c-1.2-1.17-2-2-2.4-2.48-.32-.38-.56-.8-.73-1.26-.16-.45-.25-.9-.25-1.37 0-.34.05-.68.15-1 .1-.35.25-.7.45-1 .2-.3.44-.57.7-.8.28-.25.6-.45.92-.6.46-.2.96-.36 1.46-.48v-2.43h4L127.4 53v1c.75.1 1.48.25 2.2.45.06 1.22.14 2.48.23 3.8-.54-.27-1.1-.47-1.7-.6-.4-.12-.84-.18-1.27-.2-.35 0-.7.08-1 .28-.23.15-.38.4-.38.68.06.24.18.44.35.6z"/>
        <path fill="#E1F2FF" fill-rule="nonzero" d="M201.63 69C189.68 69 180 78.68 180 90.63s9.68 21.63 21.63 21.63 21.63-9.68 21.63-21.63c0-5.74-2.28-11.24-6.34-15.3-4.05-4.05-9.55-6.33-15.3-6.33z"/>
        <path fill="#FFF" fill-rule="nonzero" d="M196.92 111.25c-11.4 0-20.63-9.24-20.63-20.63 0-11.4 9.23-20.63 20.62-20.63 11.4 0 20.63 9.23 20.63 20.62 0 11.4-9.24 20.62-20.63 20.63z"/>
        <path fill="#375D81" fill-rule="nonzero" d="M196.92 71c10.84 0 19.63 8.8 19.63 19.63 0 10.84-8.8 19.63-19.63 19.63-10.84 0-19.63-8.8-19.63-19.63C177.3 79.8 186.07 71 196.9 71zm0-2c-11.95 0-21.63 9.68-21.63 21.63s9.67 21.63 21.62 21.63c11.95 0 21.63-9.68 21.63-21.63 0-5.74-2.28-11.24-6.34-15.3-4.04-4.05-9.54-6.33-15.28-6.33z"/>
        <path fill="#375D81" fill-rule="nonzero" d="M186.2 88.26h2.1c.27-.88.68-1.7 1.24-2.42.55-.73 1.23-1.36 2-1.86.84-.53 1.75-.93 2.7-1.18 1.08-.28 2.18-.42 3.28-.4 1.36-.04 2.7.17 4 .6 1.02.35 1.96.9 2.76 1.63l-1.62 1.16-.38.23c-.4.16-.84.14-1.2-.07l-.7-.4c-.32-.17-.65-.3-1-.4-.54-.14-1.1-.2-1.64-.18-1.06-.03-2.1.25-3 .82-.85.6-1.47 1.46-1.74 2.46h8v.92c-.02.22-.15.4-.34.5-.27.18-.6.27-.92.25h-7.05v1.16h6.73v.9c-.02.22-.15.4-.34.5-.28.18-.6.26-.9.25h-5.26c.22 1.05.8 2 1.66 2.64.88.6 1.93.9 3 .86.43 0 .86-.03 1.28-.1.32-.05.63-.13.93-.24.24-.08.46-.2.66-.32l.5-.32c.13-.1.27-.17.42-.24.15-.07.3-.1.47-.1.12-.02.24-.02.36 0 .12.03.23.1.32.16l2 1.2c-.83.86-1.86 1.5-3 1.87-1.35.45-2.77.67-4.2.65-1.17.02-2.35-.13-3.5-.44-.95-.26-1.86-.68-2.68-1.24-.74-.52-1.38-1.17-1.87-1.93-.48-.76-.82-1.6-1-2.5h-2v-1.6H188v-.48-.34-.34h-1.82v-1.68zM126.4 98.42h-.92l-3.83-7.33h1.63c.12 0 .24.02.34.08.12.07.2.18.26.3l1.73 3.37c.16.32.27.65.34 1 .07-.35.18-.68.33-1L128 91.5c.06-.14.15-.24.26-.32.1-.06.22-.1.34-.1h1.63l-3.83 7.34zM197.38 128h-.92l-3.83-7.33h1.63c.12 0 .24.03.34.1.12.06.2.17.26.3l1.73 3.36c.14.32.25.65.32 1 .07-.35.18-.68.33-1L199 121c.06-.13.15-.23.26-.3.1-.07.22-.1.34-.1h1.63l-3.85 7.4zM55 128h-1l-3.83-7.33h1.63c.12 0 .24.03.34.1.12.06.2.17.26.3l1.73 3.36c.15.32.26.65.33 1 .07-.35.18-.68.33-1l1.76-3.43c.06-.13.15-.23.26-.3.1-.07.22-.1.34-.1h1.63L55 128z"/>
        <path fill="#FFF" fill-rule="nonzero" stroke="#375D81" stroke-width="2" d="M62.43 222.9h176.9" stroke-linecap="round" stroke-linejoin="round"/>
        <path stroke="#375D81" stroke-width="2" d="M35.65 47.22v7M39.15 50.72h-7" stroke-linecap="round" stroke-linejoin="round"/>
        <path stroke="#375D81" d="M174.8 22.5v3.94M176.76 24.47h-3.93" stroke-linecap="round"/>
        <path stroke="#375D81" stroke-width="2" d="M230 128v7M234 132h-7" stroke-linecap="round" stroke-linejoin="round"/>
    </g>
</svg>