<svg xmlns="http://www.w3.org/2000/svg" width="256" height="256" xmlns:xlink="http://www.w3.org/1999/xlink">
    <defs>
        <path id="a" d="M0 0h81v44H0z"/>
    </defs>
    <g fill="none" fill-rule="evenodd" transform="translate(3 22)">
        <path fill="#FFF" fill-rule="nonzero" stroke="#375D81" stroke-width="2" d="M222.17 128.9h-37.42" stroke-linecap="round"/>
        <path fill="#E1F2FF" fill-rule="nonzero" d="M20.36 208.9c0-57.2 46.37-103.56 103.56-103.56 57.2 0 103.56 46.37 103.56 103.56H20.36z"/>
        <path stroke="#375D81" d="M208.1 167.38v3.93M210.08 169.35h-3.94" stroke-linecap="round"/>
        <path fill="#FFF" fill-rule="nonzero" stroke="#375D81" stroke-width="2" d="M242.22 200.07h6.97M0 200.07h8.97M91.23 209.2h67.2M167.04 209.2h9.14M83.35 209.1l-5 .1" stroke-linecap="round" stroke-linejoin="round"/>
        <path stroke="#375D81" stroke-width="2" d="M207.25 46.57v7M210.75 50.07h-7M32.65 25.22v7M36.15 28.72h-7" stroke-linecap="round" stroke-linejoin="round"/>
        <path stroke="#375D81" d="M171.8.5v3.94M173.76 2.47h-3.93M19.4 159.37v3.94M21.38 161.34h-3.94" stroke-linecap="round"/>
        <path stroke="#E1F2FF" stroke-width="2" d="M184 195.97v-14.25" stroke-linecap="round"/>
        <path fill="#FFF" fill-rule="nonzero" stroke="#375D81" stroke-width="2" d="M50.65 105.95H197.2v94.07H50.64zM195.2 73.77H52.64c-.98.1-1.87-.6-2-1.57v-5.66c.13-.98 1.02-1.68 2-1.57H195.2c.97-.1 1.86.6 2 1.57v5.66c-.14.98-1.03 1.68-2 1.57zM168.07 57.75h-88.3c-1.04-.07-1.82-.96-1.76-2V34c-.05-1.04.73-1.93 1.77-2h88.3c1.04.07 1.82.96 1.76 2v21.75c.06 1.04-.72 1.93-1.76 2z"/>
        <path fill="#E1F2FF" fill-rule="nonzero" stroke="#375D81" stroke-width="2" d="M64.5 126.78h61.72v46.24H64.5zM149.48 126.78h34.86v73.24h-34.86z"/>
        <path fill="#FFF" fill-rule="nonzero" stroke="#9ACDED" stroke-width="2" d="M84.6 200.1c-.33-5.68-4.7-10.3-10.33-10.94-1.55-7.45-7.33-13.3-14.76-14.94-7.42-1.65-15.12 1.22-19.67 7.32-5.27-1.33-10.85.16-14.74 3.94-3.9 3.78-5.58 9.32-4.4 14.62M230.73 199.6c2.8-9.26-2.36-19.04-11.58-21.94-9.2-2.9-19.05 2.15-22.05 11.34-3.34-.75-6.83 0-9.58 2.02-2.75 2.03-4.48 5.16-4.74 8.57" stroke-linecap="round"/>
        <path fill="#FFF" fill-rule="nonzero" stroke="#375D81" stroke-width="2" d="M17.27 200.1h217.9" stroke-linecap="round" stroke-linejoin="round"/>
        <g transform="translate(44 128)">
            <mask id="b" fill="#fff">
                <use xlink:href="#a"/>
            </mask>
            <g transform="translate(3 3)" mask="url(#b)">
                <path fill="#9452BA" fill-rule="nonzero" stroke="#52267D" stroke-width="2" d="M51.4 103.33l5-.06c1.72-.02 3.25-1.1 3.86-2.7 1.7-4.56 1.22-8.74 1.38-12.32.3-6.63-.77-10-1.83-15.54l-7.46.28s.67 2.74 1.2 11c.16 2.55-3.93 12.87-3.67 17.9.04.82.72 1.46 1.54 1.45zM36.62 79.85l-6.1-6.74-3.7.2-.64 8.05c-.6 5.4-1.6 10.75-3 16-.3 1.06-.5 2.16-.56 3.26-.02.8.3 1.58.86 2.15.57.57 1.34.88 2.14.86l4.4-.05c2.58-.02 4.82-1.78 5.44-4.27 1.9-7.73 1.16-19.43 1.16-19.43z"/>
                <path stroke="#52267D" stroke-width=".5" d="M28.23 84.65l-.98.9.95.83 1.54-.6-.3-.7-1.3.33.02.24.33-.02"/>
                <path fill="#9452BA" fill-rule="nonzero" stroke="#52267D" stroke-width="2" d="M27.88 54.57c4.38-.14 8.44-3.2 17.38-3.74.1-.53.26-1.05.47-1.55 1.57-3.52 3.73-13.64 2.18-20.25L46.7 23.8c-.4-1.7-.62-3.47-.64-5.23 0-.72.05-1.44.2-2.15 0-.17.03-.35.1-.52.12-.5.28-1 .48-1.5l.2-.46c.16-.3.32-.62.5-.9.16-.3.35-.6.55-.87.6-.82 1.33-1.55 2.14-2.17.28-.2.56-.4.85-.58 1.65-1.03 3.55-1.6 5.5-1.6h1.74c2.8-.06 5.53 1.02 7.55 3 .25.23.48.48.7.74.4.47.76.98 1.07 1.52l.34.62.22.47c.42.95.7 1.97.82 3 .04.36.07.73.07 1.1 0 .7-.26 1.37-.75 1.87-.5.5-1.17.8-1.87.8l-10.9.14 1.78 9.43c2.06 9.7 1.56 16.2.1 20.54-.3 1-2.17 4.4-2.17 4.4 5.55 8.53 13.95 12.18 22.9 13.16 7.6.83 23.9-6.3 15.34-14.2-8.55-7.9 1.72-3.05 3.24-2.06 1.52 1 10.3 8.4 1 19.53-3.93 4.7-8.4 9-19.22 12.38-1.74.54-11.24 1.35-16.34 2.9-15.2 4.56-27.64 0-34.7-10-7.08-10-1.32-22.53.4-22.58z"/>
                <path fill="#9452BA" fill-rule="nonzero" stroke="#52267D" stroke-width="2" d="M37.16 40c.2-11.26-8.84-20-19-21.74-2.1-.36-2.8-1-5.1-1h-1.78C5.33 17.34.58 22.22.64 28.16c.02 1.5 1.24 2.68 2.72 2.66l18.2-.24h1.48-1.48c4 1.65 6.6 6.74 7.06 9.5.73 3.27.38 6.7-1 9.77-.76 1.75-1.03 3.66-.78 5.55h.1c.1 1.05.27 2.1.52 3.1 1.7-1.2 4.32-3 4.8-3.28 1-.57 3.4-1.85 4.44-2.47 6.64-3.92.3-6.36.46-12.75z"/>
                <path fill="#F3E3FF" fill-rule="nonzero" stroke="#52267D" d="M31.56 53.06c-.1-1.74-.4-2.63-.2-3.34 1.07-4.1 1.42-5.38 1.37-9.7-.15-4.4-2.5-8.42-6.28-10.7-1.73-.2-3.48.25-4.9 1.27 4 1.64 6.6 6.73 7.06 9.48.74 3.28.4 6.7-1 9.78-.75 1.75-1.02 3.66-.77 5.55 0 0 4.94 1.8 4.78-2.34"/>
                <path fill="#FFF" fill-rule="nonzero" stroke="#52267D" d="M5.63 19.18c.04-1.16.76-2.2 1.83-2.65l1.6-.67s1.14 2.34-.1 3c-1.04.5-2.22.62-3.33.32zM10.3 17.8c.07-1.6 1.3-2.9 2.9-3 .54-.1 1.94-.07 1.94-.07s.68 2.7-.84 3c-1.32.2-2.67.22-4 .06zM16 18s.34-2.85 2.9-2.1c.7.2 1.3.57 1.76 1.1 0 0-.48 2.17-1.5 1.94-1.08-.22-2.14-.54-3.16-.94zM23.63 31.68s5.9-3.3 4.7-8.75c1.34 1.1 2.6 2.3 3.73 3.6 0 1.08.26 5.3-5.55 8.22-.88-1.08-1.85-2.1-2.87-3.07z"/>
                <path fill="#F3E3FF" fill-rule="nonzero" d="M6.44 18.65c.02-.6.4-1.14.95-1.37l.82-.35s.6 1.2-.06 1.53c-.53.27-1.14.34-1.72.2zM11.52 17.2c.04-.8.67-1.46 1.48-1.52h1s.35 1.38-.43 1.52c-.68.1-1.37.1-2.05 0zM17 17.75s.18-1.5 1.54-1.1c.36.1.67.3.9.6 0 0-.25 1.15-.8 1-.55-.12-1.1-.3-1.64-.5z"/>
                <path fill="#F3E3FF" fill-rule="nonzero" d="M14.97 23.92h.48c.67-.03 1.3.22 1.8.68.47.47.75 1.1.75 1.77.02 1.37-1.08 2.5-2.45 2.5l-5.44.08c0-2.72 2.15-4.96 4.87-5.03z" opacity=".3"/>
                <path fill="#FFF" fill-rule="nonzero" stroke="#52267D" d="M14.05 24.9h1c1.1-.02 2.02.87 2.03 1.97 0 1.1-.87 2-1.98 2.02l-4.9.06c-.02-2.16 1.7-3.93 3.86-3.95v-.1z"/>
                <circle cx="12.16" cy="26.76" r="1.09" fill="#52267D" fill-rule="nonzero" transform="rotate(-.72 12.158 26.762)"/>
                <path fill="#52267D" fill-rule="nonzero" d="M3.08 30c.3-.07.6-.25.78-.5l.36-.46-.8.18-.5.1c-.08.03-.16.08-.2.16-.05.08-.07.17-.05.26.02.1.07.17.15.22.08.04.17.06.26.04z"/>
                <path fill="#EAF3FB" fill-rule="nonzero" d="M24.63 31.77s4.56-2.53 4.42-7.5c.98.6 1.84 1.4 2.54 2.33-.18 1.3-.66 2.52-1.4 3.58-1.68 1.82-3.44 2.45-5.57 1.6z"/>
                <path fill="#FFF" fill-rule="nonzero" stroke="#52267D" d="M29 30.85c-1.05 1.08-2.24 2-3.54 2.77"/>
                <path fill="#9452BA" fill-rule="nonzero" stroke="#52267D" stroke-width="2" d="M47.2 50l-1-2c-3.93-9.33-4.6-14.83-2.73-23.8l1.1-5.27c.35-1.73.52-3.5.5-5.25C45 7.8 40.17 3.1 34.3 3.18h-1.72c-2.78.03-5.44 1.17-7.38 3.16-1.94 2-3 4.68-2.98 7.46v.3c.02 1.38 1.15 2.48 2.53 2.46l10.87-.14-1.53 9.47c-4.74 25.38-4.1 35.64 5.8 33.4"/>
                <path fill="#FFF" fill-rule="nonzero" stroke="#52267D" d="M27.3 4.5c.16-1.17.93-2.16 2-2.6.48-.13.97-.13 1.44 0 0 0 1.08 1.63-.15 2.23-1.02.52-2.2.64-3.3.36zM31.66 3.82c.1-1.8 1.5-3.24 3.3-3.37.45-.04.92-.04 1.38 0 0 0 1.58 3-.14 3.35-1.5.2-3.03.22-4.54.02zM37.5 4.4s.42-2.77 2.9-2c.66.23 1.24.63 1.66 1.17 0 0-.53 2.12-1.52 1.86-1.04-.25-2.05-.6-3.03-1.02z"/>
                <path fill="#F3E3FF" fill-rule="nonzero" stroke="#52267D" d="M28.1 54.23c.54-.4 1.14-.7 1.8-.88M31.7 54.13c-1.86-7.2 1.18-21 1.72-24.45L35.58 16h1c.64.05 1.24.37 1.64.88.4.5.58 1.15.5 1.8L37.16 30.5c-.52 4-.9 22.53 6.1 26.42 1.5.83 3.9.24 4.8-.2 3.3-1.62 4.2-5.75 4.87-9.08 1.4-6.9.18-12.27-.22-17.65l-.43-6.74c-.1-1.27.8-2.4 2.08-2.54h1.24L58 34.32c.72 3.86 2.62 17.28-5.22 23.68-.14.12 1.93.55 1.35 1.62-2.33 4.24-9.23 5-10.5 6.8-4.92 7 0 21.75 0 21.75-3.26-1.27-6.3-3-9.07-5.17-8.14-7.1-9.3-17.54-9.36-20.62-.1-3.68.85-6 2-7.35"/>
                <path fill="#FFF" fill-rule="nonzero" stroke="#52267D" d="M97.1 59.33c.68-.84.85-2 .45-3-.2-.4-.52-.75-.9-1 0 0-1.8.33-1.4 1.53.3 1.02.94 1.9 1.84 2.47z"/>
                <path fill="#F3E3FF" fill-rule="nonzero" d="M96.7 57.58c.2-.28.27-.66.15-1-.08-.14-.2-.25-.32-.33 0 0-.62.12-.5.54.13.32.36.6.66.78z"/>
                <path fill="#FFF" fill-rule="nonzero" stroke="#52267D" d="M87.85 68.5c-.62-1.54 0-3.3 1.46-4.12.38-.23.77-.42 1.17-.58 0 0 2.52 1.94 1.2 2.88-1.2.78-2.47 1.4-3.82 1.83z"/>
                <path fill="#F3E3FF" fill-rule="nonzero" d="M88.74 67.57c-.35-.86 0-1.84.8-2.3.2-.1.43-.22.65-.3 0 0 1.4 1.07.65 1.6-.65.42-1.36.76-2.1 1z"/>
                <path fill="#FFF" fill-rule="nonzero" stroke="#52267D" d="M95.66 60.3s1.9 1.63.12 3.13c-.47.4-1.05.63-1.66.7 0 0-1.34-1.4-.68-2 .7-.68 1.43-1.3 2.22-1.83z"/>
                <path fill="#F3E3FF" fill-rule="nonzero" d="M95.4 61.48s.84.72.05 1.38c-.2.17-.46.28-.73.3 0 0-.6-.6-.3-.9.3-.28.63-.54.98-.78z"/>
                <path fill="#FFF" fill-rule="nonzero" stroke="#52267D" d="M78.84 69.93c-.35-1.34.43-2.72 1.77-3.1 2.43-.9 3.1-.2 3.1-.2s1.36 2.25.17 3c-1.2.77-5.03.3-5.03.3z"/>
                <path fill="#F3E3FF" fill-rule="nonzero" d="M80 69.42c-.18-.7.23-1.4.92-1.6 1.26-.48 1.6-.1 1.6-.1s.7 1.16.1 1.54c-.86.23-1.75.3-2.62.16z"/>
                <path fill="#FFF" fill-rule="nonzero" stroke="#52267D" d="M35.1 19.36c2.96 1.32 6.33 1.35 9.32.1l-1.07 5.1s-5 1.6-8.95-.8c.37-2.24.7-4.4.7-4.4zM63.95 9.15C63.77 8 63 7 61.9 6.58c-.7-.16-1.4-.25-2.1-.26 0 0-.4 2 .86 2.54 1.03.5 2.2.6 3.3.3zM59.25 8.26c-.1-1.56-1.38-2.8-2.94-2.86-.4-.03-.8-.03-1.2 0 0 0-1.3 2.68.2 2.9 1.3.17 2.64.16 3.95-.04zM53.86 8.52s-.48-2.8-3-1.92c-.65.23-1.22.66-1.63 1.2 0 0 .58 2.13 1.58 1.85 1.06-.3 2.08-.67 3.06-1.13z"/>
                <path fill="#F3E3FF" fill-rule="nonzero" d="M28.26 4c.08-.62.48-1.15 1.05-1.4.26-.06.53-.06.78 0 0 0 .58.9-.08 1.2-.54.28-1.16.35-1.74.2zM32.73 3.32c.06-1.12.94-2.03 2.06-2.1.28-.03.57-.03.86 0 0 0 1 1.9-.1 2.1-.93.12-1.9.13-2.83 0zM38.6 4.12s.23-1.6 1.66-1.14c.4.12.74.35 1 .67 0 0-.3 1.22-.88 1.08-.6-.15-1.2-.36-1.8-.6zM63 8.7c-.1-.63-.5-1.14-1.1-1.37-.35-.1-.72-.13-1.1-.14 0 0-.2 1 .46 1.33.54.26 1.16.32 1.74.16zM58.14 7.83c-.06-.86-.76-1.54-1.62-1.58-.22-.02-.45-.02-.67 0 0 0-.72 1.48.1 1.6.73.1 1.47.1 2.2-.02zM52.87 8.34S52.6 6.8 51.24 7.3c-.35.12-.66.35-.9.65 0 0 .33 1.16.87 1 .58-.16 1.13-.36 1.67-.6z"/>
                <path fill="#FFF" fill-rule="nonzero" stroke="#52267D" d="M46.73 24c3.12.38 6.3.2 9.35-.5.48 2.48.78 4.35.78 4.35s-3.14 2.2-9 1C47.14 25.7 46.73 24 46.73 24z"/>
                <path fill="#F3E3FF" fill-rule="nonzero" d="M60.04 19.02l-5.45.07c-1.37 0-2.5-1.1-2.52-2.46 0-1.37 1.08-2.5 2.45-2.5l.48-.02c2.77-.03 5.04 2.18 5.07 4.94l-.03-.04z" opacity=".3"/>
                <path fill="#FFF" fill-rule="nonzero" stroke="#52267D" d="M59.95 18.93L55.2 19c-1.16 0-2.1-.92-2.12-2.07-.02-1 .78-1.82 1.78-1.83l1.12-.02c2.16-.03 3.93 1.7 3.95 3.85h.02z"/>
                <circle cx="58.17" cy="17.55" r="1.09" fill="#52267D" fill-rule="nonzero" transform="rotate(-26.65 58.167 17.55)"/>
                <path fill="#F3E3FF" fill-rule="nonzero" d="M35.16 9.65h.48c1.37-.02 2.5 1.08 2.5 2.45.03 1.37-1.07 2.5-2.44 2.5l-5.45.08c0-2.74 2.18-4.98 4.9-5.03z" opacity=".3"/>
                <path fill="#FFF" fill-rule="nonzero" stroke="#52267D" d="M34.2 10.65l1-.02c1.1 0 2 .87 2.02 1.98 0 1.1-.87 2.02-1.98 2.03l-4.9.06c-.04-1.06.35-2.08 1.07-2.84.74-.76 1.74-1.2 2.8-1.2z"/>
                <circle cx="32.4" cy="12.63" r="1.09" fill="#52267D" fill-rule="nonzero" transform="rotate(-50.93 32.397 12.63)"/>
                <path fill="#52267D" fill-rule="nonzero" d="M66.62 20.07c-.3-.06-.6-.23-.8-.48l-.36-.46.82.16.48.1c.1.02.17.07.22.14.05.08.07.17.05.26-.02.1-.07.17-.15.22-.07.05-.17.07-.26.05zM24.55 15.5c.3-.06.6-.24.78-.5l.36-.45-.82.18-.48.1c-.1.03-.17.08-.22.16-.04.07-.06.16-.04.25.02.1.07.17.15.22.07.04.16.06.25.04z"/>
                <path fill="#EAF3FB" fill-rule="nonzero" d="M35.57 20.06c2.63.96 5.52.96 8.15 0-.2 1.23-.45 2.44-.77 3.64-1.37.1-2.74.05-4.1-.13-2.32-.38-3.25-1.43-3.28-3.5z"/>
                <path fill="#FFF" fill-rule="nonzero" stroke="#52267D" d="M41.25 23.07c-2.24.18-4.5-.2-6.56-1.07"/>
                <path fill="#EAF3FB" fill-rule="nonzero" d="M54.34 24.45c-2.2.62-4.5.78-6.77.47.27 1.05.6 2.08 1 3.1 0 0 4.7-.7 5.77-3.57z"/>
                <path fill="#F3E3FF" fill-rule="nonzero" stroke="#52267D" stroke-width=".5" d="M52.83 58.05l-.52.35"/>
                <path fill="#FFF" fill-rule="nonzero" stroke="#52267D" d="M54.7 25.8c-2.46.45-4.98.56-7.47.33"/>
                <path fill="#FFF" fill-rule="nonzero" stroke="#52267D" stroke-width=".5" d="M49.7 100.43c-.72-.47-1.67-.34-2.24.3-1.15 1-2 2.46-1.5 2.6.8.2 1.62.24 2.42.1.84-.17 1.58 0 1.9-1.8.08-.47-.15-.96-.58-1.2z"/>
                <path fill="#EAF3FB" fill-rule="nonzero" d="M49.48 100.72c-.44-.3-1.03-.2-1.4.18-.7.6-1.24 1.53-.92 1.62.5.13 1 .14 1.5.05.52-.1 1 0 1.18-1.1.04-.3-.1-.6-.36-.75z"/>
                <path fill="#FFF" fill-rule="nonzero" stroke="#52267D" stroke-width=".5" d="M51.06 100.4c.5-.07 1.25 1 1.17 1.36-.08.36-.12 1.45-.94 1.58-.6.1-2.77.35-3.25-.1-.48-.47.4-2.46 3-2.84z"/>
                <path fill="#EAF3FB" fill-rule="nonzero" d="M51.2 100.7c.3 0 .75.6.7.8-.05.2-.07.85-.56.93-.5.08-1.63.2-1.9-.07-.3-.28.22-1.43 1.77-1.66z"/>
                <path fill="#FFF" fill-rule="nonzero" stroke="#52267D" stroke-width=".5" d="M53.2 100.58s-.43-.22-1.3.28c-.85.5-1.9 1.16-1.58 2 .3.84 2.73.5 3.27.32.52-.2.84-.73.76-1.3-.1-.6-.55-1.1-1.15-1.3z"/>
                <path fill="#EAF3FB" fill-rule="nonzero" d="M53.38 100.9s-.26-.14-.77.16c-.5.3-1.1.7-.93 1.2.18.5 1.62.3 1.94.2.32-.13.5-.45.46-.78-.06-.37-.32-.67-.68-.8z"/>
                <path fill="#9452BA" fill-rule="nonzero" stroke="#52267D" stroke-width="2" d="M42.73 72.9c.3 4.83.05 9.68-.73 14.46-1.23 8.24-3.55 10.84-3.35 13 .15 1.65.87 3.15 2.53 3.13l4.94-.07c2.3-.05 4.3-1.54 5-3.72.74-2.33 1.25-4.75 1.5-7.2.24-3.54.28-7.1.1-10.66M68.1 76.3c-1.6 1.53-2.47 3.66-2.4 5.87.05 2.83 1.74 6.4.76 11.13-.87 4.2-2.7 5-2.1 8.7.1.7.7 1.18 1.4 1.16l5.5-.07c2.54-.04 4.68-1.9 5.07-4.4.75-5.95.47-11.97-.85-17.8"/>
                <path stroke="#52267D" stroke-width=".5" d="M69.26 82.52l.32-.24 1.05.22-1.15.76-1.4-.67 1.43-1.2.67.22"/>
                <path fill="#FFF" fill-rule="nonzero" stroke="#52267D" d="M39.7 100.56c-.7-.47-1.66-.34-2.23.3-1.15 1-2 2.46-1.5 2.6.8.2 1.62.24 2.42.1.83-.17 1.57 0 1.9-1.8.07-.47-.16-.96-.6-1.2z"/>
                <path fill="#EAF3FB" fill-rule="nonzero" d="M39.5 100.84c-.45-.3-1.04-.2-1.4.18-.72.6-1.25 1.53-.93 1.62.5.13 1 .14 1.5.05.52-.1 1 0 1.18-1.12.04-.3-.1-.6-.36-.74z"/>
                <path stroke="#52267D" stroke-width=".5" d="M47.08 85.9l-1.96.64.28 1.82 2.02.12.92-1.1-1.2-.65-1 .3.64.7"/>
                <g stroke="#F3E3FF" stroke-width=".25" opacity=".3">
                    <path d="M4.16 26.4c-.03.22.07.42.24.54.18.1.4.1.6 0 .16-.12.26-.32.23-.53"/>
                    <path d="M3.1 26.42c-.04.2.06.4.23.53.18.1.4.1.6 0 .16-.12.26-.32.23-.53"/>
                    <path d="M3.63 26.95c-.03.2.07.4.24.53.18.1.4.1.6 0 .16-.12.26-.32.23-.53M24.68 25.65c.37.2.85.1 1.07-.27.22-.37.1-.85-.25-1.08M24.95 26.73c.37.2.85.1 1.07-.27.22-.37.1-.85-.25-1.08M50.33 43.33c0 .4.32.72.72.72.4 0 .72-.32.72-.72M48.9 43.34c0 .4.3.72.7.72.4 0 .73-.32.73-.72"/>
                    <path d="M49.62 44.05c0 .4.32.72.72.72.4 0 .72-.32.72-.72M29.44 89.12c0 .4.32.72.72.72.4 0 .72-.32.72-.72M28 89.14c0 .26.14.5.36.62.22.13.5.13.72 0 .22-.13.36-.36.36-.62"/>
                    <path d="M28.73 89.85c0 .4.32.72.72.72.4 0 .72-.32.72-.72M48.93 20.44c0 .44.35.8.8.8.43 0 .78-.36.78-.8"/>
                    <path d="M48.15 21.24c0 .44.35.8.8.8.43 0 .78-.36.78-.8M39 34.5c-.12.42.03.86.38 1.1.35.25.8.25 1.16 0 .35-.24.5-.68.38-1.1"/>
                    <path d="M38.07 35.48c-.12.4.03.85.38 1.1.35.24.8.24 1.16 0 .36-.25.5-.7.4-1.1M24.78 10.83c0 .35.3.64.64.64.35 0 .64-.3.64-.64M24.14 11.48c0 .35.3.64.64.64.35 0 .64-.3.64-.64M86 74.77c.28.3.75.34 1.06.06.3-.28.34-.75.06-1.06"/>
                    <path d="M85.92 75.8c.28.32.75.35 1.06.07.3-.28.34-.75.06-1.06M56.5 64.94c.2.4.7.56 1.12.36.4-.2.6-.67.44-1.1"/>
                    <path d="M54.93 65.68c.12.3.4.52.72.55.32.04.64-.1.82-.4.18-.26.2-.6.03-.9"/>
                    <path d="M56.08 66.1c.12.3.4.5.72.54.32.04.64-.1.82-.4.18-.26.2-.6.03-.9"/>
                    <path d="M54.5 66.83c.13.3.4.52.73.55.32.04.64-.1.82-.4.18-.26.2-.6.03-.9M57.23 66.5c.22.4.72.57 1.13.37.4-.2.6-.67.44-1.1M40.8 17.12c0 .48.4.88.88.88s.87-.4.87-.88M40.9 50.17c0 .48.4.88.88.88.5 0 .88-.4.88-.88M50.6 31.83c0 .37.3.67.66.67.36 0 .66-.3.66-.67M66.18 16.57c0 .28.22.5.5.5s.5-.22.5-.5M71.24 89.62c.1.47.55.8 1.02.7.47-.1.8-.55.7-1.02M47.16 96.36c-.12.4.03.85.38 1.1.35.24.8.24 1.16 0 .35-.25.5-.7.38-1.1"/>
                    <path d="M46.2 97.33c-.1.4.04.85.4 1.1.34.24.8.24 1.15 0 .35-.25.5-.7.38-1.1"/>
                </g>
                <path fill="#FFF" fill-rule="nonzero" stroke="#52267D" d="M41.07 100.52c.5-.07 1.25 1 1.17 1.36-.08.36-.12 1.45-.94 1.58-.6.1-2.76.35-3.24-.1-.48-.47.4-2.45 3-2.84z"/>
                <path fill="#EAF3FB" fill-rule="nonzero" d="M41.22 100.82c.3 0 .74.6.7.8-.06.2-.08.85-.57.93-.5.08-1.63.2-1.9-.07-.3-.28.22-1.43 1.77-1.66z"/>
                <path fill="#FFF" fill-rule="nonzero" stroke="#52267D" d="M42.88 101s-.4-.2-1.15.25c-.76.45-1.68 1-1.4 1.8s2.42.45 2.9.28c.46-.17.75-.65.67-1.15-.1-.55-.48-1-1.02-1.18z"/>
                <path fill="#EAF3FB" fill-rule="nonzero" d="M43 101.3s-.23-.1-.68.16c-.45.27-1 .6-.83 1.06.16.45 1.42.27 1.7.17s.45-.4.4-.7c-.05-.32-.28-.6-.6-.7z"/>
                <path fill="#FFF" fill-rule="nonzero" stroke="#52267D" d="M22.6 101.5s-.38-.2-1.14.26c-.76.45-1.68 1-1.4 1.8s2.42.45 2.9.28c.46-.17.75-.65.67-1.15-.1-.56-.48-1.02-1.02-1.2z"/>
                <path fill="#EAF3FB" fill-rule="nonzero" d="M22.75 101.78s-.23-.12-.68.15c-.45.27-1 .6-.83 1.06.17.44 1.43.26 1.7.16.3-.1.46-.4.4-.68-.04-.33-.27-.6-.6-.7z"/>
                <path fill="#FFF" fill-rule="nonzero" stroke="#52267D" d="M24.94 100.94c.5-.07 1.25 1 1.17 1.36-.07.36-.1 1.45-.93 1.58-.6.1-2.76.35-3.24-.1-.48-.47.4-2.46 3-2.84z"/>
                <path fill="#EAF3FB" fill-rule="nonzero" d="M25.1 101.24c.3 0 .73.6.68.8-.05.2-.07.85-.56.93-.5.08-1.63.2-1.9-.07-.3-.28.22-1.43 1.77-1.66z"/>
                <path fill="#FFF" fill-rule="nonzero" stroke="#52267D" stroke-width=".5" d="M66.43 100.22c-.72-.47-1.67-.34-2.24.3-1.16 1-2 2.46-1.5 2.6.8.2 1.6.24 2.4.1.85-.17 1.6 0 1.9-1.8.1-.47-.14-.96-.57-1.2z"/>
                <path fill="#EAF3FB" fill-rule="nonzero" d="M66.22 100.5c-.44-.28-1.03-.2-1.4.2-.7.6-1.24 1.52-.92 1.6.5.14 1 .15 1.5.06.52-.1 1 0 1.18-1.1.04-.3-.1-.6-.36-.75z"/>
                <path fill="#FFF" fill-rule="nonzero" stroke="#52267D" stroke-width=".5" d="M67.8 100.2c.5-.08 1.25 1 1.17 1.35-.08.36-.12 1.45-.94 1.58-.6.1-2.76.35-3.24-.1-.5-.47.37-2.46 3-2.84z"/>
                <path fill="#EAF3FB" fill-rule="nonzero" d="M67.94 100.5c.3 0 .74.6.7.8-.06.2-.08.84-.57.92-.5.08-1.63.2-1.9-.07-.3-.28.23-1.43 1.77-1.66z"/>
                <path fill="#FFF" fill-rule="nonzero" stroke="#52267D" stroke-width=".5" d="M69.6 100.7s-.38-.2-1.14.26c-.76.45-1.68 1-1.4 1.8s2.42.45 2.9.28c.46-.17.75-.65.67-1.15-.1-.56-.48-1.02-1.02-1.2z"/>
                <path fill="#EAF3FB" fill-rule="nonzero" d="M69.76 101s-.23-.12-.68.15c-.45.27-1 .6-.83 1.06.17.46 1.43.28 1.7.18.3-.1.46-.4.4-.68-.04-.33-.27-.6-.6-.7z"/>
                <path fill="#FFF" fill-rule="nonzero" stroke="#52267D" d="M31.62 101.33c.13-.13.33-.17.5-.1.6.27 2.07 1 1.78 2.1-.23.82-.73.58-1.7.6h-.73c-.15 0-.3-.07-.37-.2-.4-.8-.2-1.78.46-2.38l.06-.02z"/>
                <path fill="#EAF3FB" fill-rule="nonzero" d="M31.7 101.56c.1-.1.24-.13.37-.08.43.2 1.5.75 1.3 1.52-.17.6-.54.43-1.24.45h-.53c-.1 0-.2-.05-.27-.15-.3-.58-.16-1.3.33-1.73h.04z"/>
                <path fill="#FFF" fill-rule="nonzero" stroke="#52267D" d="M28.2 101.06c-.66-.52-1.62-.48-2.24.1-1.23.87-2.22 2.3-1.7 2.47.76.27 1.58.37 2.4.3.84-.1 1.57.1 2-1.62.1-.46-.06-.95-.45-1.24z"/>
                <path fill="#EAF3FB" fill-rule="nonzero" d="M28 101.32c-.42-.33-1-.3-1.4.06-.77.54-1.38 1.42-1.06 1.54.48.17 1 .23 1.5.18.52-.06 1 .08 1.26-1 .07-.3-.05-.6-.3-.78z"/>
            </g>
        </g>
        <path stroke="#9ACDED" stroke-width="2" d="M99.83 178h26.4" stroke-linecap="round"/>
        <path fill="#FFF" fill-rule="nonzero" stroke="#375D81" stroke-width="2" d="M91.35 57.47v7.5M156.9 57.47v7.5M179.83 160.02v20.28"/>
        <path fill="#FFF" fill-rule="nonzero" stroke="#E1F2FF" stroke-width="2" d="M110.14 186.7v9.27M119.33 184.64v6.56M128.16 192.34v3.63M133.83 188.7v3.64M136.22 192.34h-25.15M151.72 143.2v-6.56M141.9 144.5v-3.63M136.22 148.14v-3.63M133.83 144.5h11.15M141.53 173.87v-4.57M200.9 156.94v3.63M139.1 168.17h6.5" stroke-linecap="round"/>
        <path fill="#E1F2FF" fill-rule="nonzero" d="M51.75 123.5l144.34-4.92v-5.93H51.74"/>
        <circle cx="217.53" cy="129.53" r="13.67" fill="#FFF" fill-rule="nonzero" stroke="#375D81" stroke-width="2"/>
        <path fill="#9452BA" fill-rule="nonzero" d="M221.8 137.17l.15.37c-.44-4.25 2-6 2.74-8.85v-.15-.2c.04-.94-.25-1.87-.82-2.63l-.16-.24-.32-.43-.1-.12-.1-.12-.1-.1-.1-.13-.06-.1c-1.05-1.15-2.22-2.2-3.5-3.1.17 1.48.17 2.98 0 4.47-.23 1.73-.73 3.42-1.5 5-1.72-.13-3.43-.52-5.04-1.17-1.37-.6-2.67-1.37-3.87-2.27v1.33l.06.36.07.4.08.37v.07l.08.33v.06l.1.4c.1.4.2.77.34 1.14.2.58.44 1.14.73 1.68l.12.2.1.2.13.18.17.23.2.23.14.15.06.07.1.08.06.06.1.08.06.05.1.06h.06l.1.05h.07l.1.05h.07l.18.06h.1c2.85.75 5.6-.44 9.08 2"/>
        <path fill="#FFF" fill-rule="nonzero" stroke="#E1F2FF" stroke-width="2" d="M188.66 148.14h5.17M132.24 126.78h5.17M186.66 178h4M83.42 184.64h4" stroke-linecap="round"/>
        <path stroke="#FFF" stroke-width="2" d="M170.04 142.12l-10.3 18.45M174.6 147.28l-6.96 12.1" stroke-linecap="round"/>
        <path fill="#E1F2FF" fill-rule="nonzero" stroke="#9ACDED" stroke-width="2" d="M76.06 73.77h95.7c15.4 0 27.9 12.5 27.9 27.9v10H48.16v-10c0-7.4 2.95-14.5 8.18-19.73 5.23-5.23 12.32-8.17 19.72-8.17z" stroke-linecap="round"/>
        <path fill="#FFF" fill-rule="nonzero" stroke="#9ACDED" stroke-width="2" d="M91.7 73.77h64.42c15.4 0 27.88 12.5 27.88 27.9v10H63.82v-10c0-7.4 2.94-14.5 8.17-19.73 5.22-5.23 12.3-8.17 19.7-8.17z" stroke-linecap="round"/>
        <path fill="#E1F2FF" fill-rule="nonzero" stroke="#9ACDED" stroke-width="2" d="M108.33 73.77h31.18c7.4 0 14.5 2.94 19.73 8.17s8.17 12.32 8.17 19.72v10h-87v-10c0-7.4 2.94-14.5 8.18-19.74 5.24-5.23 12.35-8.16 19.75-8.15z" stroke-linecap="round"/>
        <path fill="#FFF" fill-rule="nonzero" stroke="#9ACDED" stroke-width="2" d="M123.92 73.77c7.4 0 14.5 2.94 19.72 8.17 5.23 5.23 8.17 12.32 8.17 19.72v10H96v-10c0-7.4 2.94-14.5 8.18-19.73s12.34-8.17 19.74-8.16z" stroke-linecap="round"/>
        <path fill="#E1F2FF" fill-rule="nonzero" stroke="#9ACDED" stroke-width="2" d="M124.26 73.77l3.9 5.74c4.44 6.87 6.76 14.9 6.66 23.07v9.13H113v-9.13c-.1-8.18 2.22-16.2 6.67-23.06l3.9-5.73" stroke-linecap="round"/>
        <path stroke="#375D81" stroke-width="2" d="M62 73.77h123.9c7.4 0 14.5 2.94 19.72 8.17 5.23 5.23 8.17 12.32 8.17 19.72v10H34.07v-10c0-7.4 2.94-14.5 8.18-19.73S54.6 73.76 62 73.77z" stroke-linecap="round"/>
        <path stroke="#E1F2FF" stroke-width="2" d="M192.83 69.37h-75M54.83 69.37h18" stroke-linecap="round"/>
        <text fill="#375D81" font-family="Lato-Black, Lato" font-size="18" font-weight="700">
          <tspan x="100.39" y="51.78">SHOP</tspan>
      </text>
      <path stroke="#9ACDED" stroke-width="2" d="M164.88 38.4v13.07M85.42 42.4v9.07" stroke-linecap="round" stroke-linejoin="round" stroke-dasharray="50"/>
  </g>
</svg>