<svg xmlns="http://www.w3.org/2000/svg" width="1470" height="693">
  <g fill="none" fill-rule="evenodd">
    <path fill="#E1F2FF" fill-rule="nonzero" d="M357 635c0-225.88 186.03-409 415.5-409S1188 409.12 1188 635H357z"/>
    <g stroke-width="2">
      <path stroke="#4992C7" d="M988 107.67L696.7 253.94l-16.16-32.18L971.84 75.5z"/>
      <path stroke="#9ACDED" d="M688.46 218.78l7.3 14.54M695.58 215.2l4.97 9.9M701.66 212.16l4.97 9.9M707.75 209.1l4.97 9.9M713.83 206.05l4.97 9.9M720.63 202.63l7.3 14.54M727.75 199.06l4.97 9.9M733.83 196l4.98 9.9M739.92 192.95l4.97 9.9M746 189.9l4.97 9.9M752.8 186.47l7.3 14.54M759.92 182.9l4.97 9.9M766 179.85l4.98 9.9M772.1 176.8l4.96 9.9M778.17 173.74l4.97 9.9M784.98 170.32l7.3 14.54M792.1 166.75l4.97 9.9M798.18 163.7l4.97 9.9M804.26 160.64l4.97 9.9M810.35 157.58l4.97 9.9M817.15 154.17l7.3 14.54M824.27 150.6l4.97 9.9M830.35 147.54l4.97 9.9M836.43 144.48l4.98 9.9M842.52 141.43l4.97 9.9M849.32 138l7.3 14.55M856.44 134.44l4.97 9.9M862.52 131.4l4.97 9.88M868.6 128.33l4.98 9.9M874.7 125.28l4.96 9.9M881.5 121.86l7.3 14.54M888.6 118.3l4.98 9.9M894.7 115.23l4.97 9.9M900.78 112.18l4.97 9.9M906.86 109.12l4.97 9.9M913.67 105.7l7.3 14.54M920.78 102.13l4.97 9.9M926.87 99.08l4.97 9.9M932.95 96.02l4.97 9.9M939.04 92.97l4.97 9.9M945.84 89.55l7.3 14.54M952.96 85.98l4.97 9.9M959.04 82.92l4.97 9.9M965.12 79.87l4.97 9.9"/>
      <path stroke="#4992C7" d="M977.75 101.2c.77 1.53.15 3.4-1.4 4.17-1.52.78-3.4.16-4.17-1.38-.77-1.55-.15-3.42 1.4-4.2 1.53-.77 3.4-.15 4.17 1.4z"/>
    </g>
    <path fill="#FFF" stroke="#375D81" stroke-width="3" d="M609 137.82v-20.64l-15.85-1.24c-1.5-7.38-4.4-14.25-8.43-20.32l10.34-12.1-14.6-14.58-12.08 10.34c-6.07-4.02-12.94-6.93-20.32-8.43L546.82 55h-20.64l-1.24 15.85c-7.38 1.5-14.25 4.4-20.32 8.43l-12.1-10.34-14.58 14.6 10.34 12.08c-4.02 6.07-6.93 12.94-8.43 20.32L464 117.18v20.64l15.85 1.24c1.5 7.38 4.4 14.25 8.43 20.32l-10.34 12.1 14.6 14.58 12.08-10.34c6.07 4.02 12.94 6.93 20.32 8.43l1.24 15.85h20.64l1.24-15.85c7.38-1.5 14.25-4.4 20.32-8.43l12.1 10.34 14.58-14.6-10.34-12.08c4.02-6.07 6.93-12.94 8.43-20.32l15.85-1.24z"/>
    <path fill="#F1F4F9" d="M556 130c0 13.25-10.75 24-24 24s-24-10.75-24-24c0-13.26 10.75-24 24-24s24 10.74 24 24z"/>
    <path fill="#FFF" stroke="#375D81" stroke-width="3" d="M561 128c0 13.25-10.75 24-24 24s-24-10.75-24-24c0-13.26 10.75-24 24-24s24 10.74 24 24z"/>
    <path stroke="#9ACDED" stroke-width="3" d="M504 116.27C509 102.7 522.08 93 537.4 93c19.66 0 35.6 15.93 35.6 35.58 0 11.03-5.02 20.9-12.9 27.42"/>
    <path stroke="#9ACDED" stroke-width="3" d="M584 143.97c-6.68 18.1-24.1 31.03-44.54 31.03-26.2 0-47.46-21.24-47.46-47.44 0-14.7 6.7-27.86 17.2-36.56"/>
    <path fill="#FFF" d="M504 84.12V72.88l-8.64-.68c-.8-4.02-2.4-7.76-4.6-11.07l5.65-6.6-7.94-7.94-6.6 5.63c-3.3-2.2-7.04-3.78-11.06-4.6l-.68-8.63h-11.24l-.68 8.64c-4.02.8-7.76 2.4-11.07 4.6l-6.6-5.65-7.94 7.94 5.63 6.6c-2.2 3.3-3.78 7.04-4.6 11.06l-8.63.68v11.24l8.64.68c.8 4.02 2.4 7.76 4.6 11.07l-5.65 6.6 7.94 7.94 6.6-5.63c3.3 2.2 7.04 3.78 11.06 4.6l.68 8.63h11.24l.68-8.64c4.02-.8 7.76-2.4 11.07-4.6l6.6 5.65 7.94-7.94-5.63-6.6c2.2-3.3 3.78-7.04 4.6-11.06l8.63-.68z"/>
    <path stroke="#375D81" stroke-width="3" d="M504 84.12V72.88l-8.64-.68c-.8-4.02-2.4-7.76-4.6-11.07l5.65-6.6-7.94-7.94-6.6 5.63c-3.3-2.2-7.04-3.78-11.06-4.6l-.68-8.63h-11.24l-.68 8.64c-4.02.8-7.76 2.4-11.07 4.6l-6.6-5.65-7.94 7.94 5.63 6.6c-2.2 3.3-3.78 7.04-4.6 11.06l-8.63.68v11.24l8.64.68c.8 4.02 2.4 7.76 4.6 11.07l-5.65 6.6 7.94 7.94 6.6-5.63c3.3 2.2 7.04 3.78 11.06 4.6l.68 8.63h11.24l.68-8.64c4.02-.8 7.76-2.4 11.07-4.6l6.6 5.65 7.94-7.94-5.63-6.6c2.2-3.3 3.78-7.04 4.6-11.06l8.63-.68z"/>
    <path fill="#F1F4F9" d="M474 84c0 7.18-5.82 13-13 13s-13-5.82-13-13 5.82-13 13-13 13 5.82 13 13z"/>
    <path fill="#FFF" stroke="#375D81" stroke-width="3" d="M477 79c0 7.18-5.82 13-13 13s-13-5.82-13-13 5.82-13 13-13 13 5.82 13 13z"/>
    <path stroke="#9ACDED" stroke-width="3" d="M446 72.56c2.76-7.33 9.96-12.56 18.4-12.56 10.82 0 19.6 8.6 19.6 19.2 0 5.96-2.77 11.28-7.1 14.8"/>
    <g fill="#9ACDED">
      <path d="M1028.86 465.26l-18.17 10.9v-3.57l14.56-8.68-14.57-8.9v-3.48l18.16 10.8M1058.7 465.26l-18.16 10.9v-3.57l14.57-8.68-14.56-8.9v-3.48l18.16 10.8M1088.54 465.26l-18.16 10.9v-3.57l14.57-8.68-14.57-8.9v-3.48l18.16 10.8M1118.4 465.26l-18.18 10.9v-3.57l14.57-8.68-14.58-8.9v-3.48l18.17 10.8M1148.23 465.26l-18.16 10.9v-3.57l14.57-8.68-14.57-8.9v-3.48l18.16 10.8"/>
    </g>
    <g fill="#9ACDED">
      <path d="M611 532.86l15-8.86v2.9l-12.03 7.04 12.03 7.22V544l-15-8.78M586 532.86l15-8.86v2.9l-12.03 7.04 12.03 7.22V544l-15-8.78M562 532.86l15-8.86v2.9l-12.03 7.04 12.03 7.22V544l-15-8.78M538 532.86l15-8.86v2.9l-12.03 7.04 12.03 7.22V544l-15-8.78M513 532.86l15-8.86v2.9l-12.03 7.04 12.03 7.22V544l-15-8.78"/>
    </g>
    <path fill="#FFF" d="M980.46 497H518.54c-5.82 0-10.54-4.72-10.54-10.54V189.54c0-5.82 4.72-10.54 10.54-10.54h461.92c5.82 0 10.54 4.72 10.54 10.54v296.92c0 5.82-4.72 10.54-10.54 10.54"/>
    <path stroke="#F1F4F9" stroke-width="3" d="M783.1 51.32c-6.2-15.2-18.18-28.06-34.52-34.95-16.33-6.88-33.9-6.5-49.12-.3M764.44 58.9c-4.24-10.42-12.47-19.24-23.68-23.97-11.2-4.72-23.26-4.45-33.7-.2M746.63 66.16c-2.4-5.87-7.03-10.84-13.34-13.5-6.32-2.66-13.1-2.5-19-.12"/>
    <path stroke="#FFF" stroke-width="3" d="M697.46 14.07c15.22-6.2 32.8-6.58 49.12.3 16.34 6.9 28.33 19.74 34.52 34.95"/>
    <path stroke="#375D81" stroke-width="3" d="M781.1 49.32c-6.2-15.2-18.18-28.06-34.52-34.95-16.33-6.88-33.9-6.5-49.12-.3"/>
    <path stroke="#FFF" stroke-width="3" d="M705.06 32.72c10.43-4.24 22.5-4.5 33.7.2 11.2 4.74 19.44 13.56 23.68 24"/>
    <path stroke="#375D81" stroke-width="3" d="M762.44 56.9c-4.24-10.42-12.47-19.24-23.68-23.97-11.2-4.72-23.26-4.45-33.7-.2"/>
    <path stroke="#375D81" stroke-width="5" d="M715.5 113v66"/>
    <path stroke="#375D81" stroke-width="3" d="M744.63 64.16c-2.4-5.87-7.03-10.84-13.34-13.5-6.32-2.66-13.1-2.5-19-.12"/>
    <path fill="#FFF" stroke="#375D81" stroke-width="5" d="M714.6 112.17c-12.9 0-23.37-10.47-23.37-23.38 0-12.92 10.47-23.4 23.38-23.4 12.92 0 23.4 10.48 23.4 23.4 0 12.9-10.48 23.37-23.4 23.37z"/>
    <path fill="#F1F4F9" d="M712.6 103.1c-6.23 0-11.3-5.06-11.3-11.3 0-6.26 5.07-11.32 11.3-11.32 6.26 0 11.32 5.06 11.32 11.3 0 6.26-5.06 11.32-11.3 11.32"/>
    <path fill="#FFF" stroke="#375D81" stroke-width="2" d="M714.6 100.1c-6.23 0-11.3-5.06-11.3-11.3 0-6.26 5.07-11.32 11.3-11.32 6.26 0 11.32 5.06 11.32 11.3 0 6.26-5.06 11.32-11.3 11.32"/>
    <path stroke="#375D81" stroke-width="3" d="M980.46 497H518.54c-5.82 0-10.54-4.72-10.54-10.54V189.54c0-5.82 4.72-10.54 10.54-10.54h461.92c5.82 0 10.54 4.72 10.54 10.54v296.92c0 5.82-4.72 10.54-10.54 10.54z"/>
    <path fill="#FFF" d="M539 448h423V209H539"/>
    <path stroke="#375D81" stroke-width="2" d="M956 473.5c0 3.04-2.46 5.5-5.5 5.5s-5.5-2.46-5.5-5.5 2.46-5.5 5.5-5.5 5.5 2.46 5.5 5.5z"/>
    <path fill="#FFF" stroke="#375D81" stroke-width="3" d="M824 561H680l15.57-63h112.86z"/>
    <path fill="#FFF" stroke="#375D81" stroke-width="3" d="M834.34 571H665.67c-1.48 0-2.67-1.25-2.67-2.8v-5.4c0-1.55 1.2-2.8 2.67-2.8h168.67c1.47 0 2.66 1.25 2.66 2.8v5.4c0 1.55-1.2 2.8-2.66 2.8z"/>
    <g stroke-width="2">
      <path fill="#9ACDED" stroke="#ADD2E9" d="M906.7 393.63h54.17V366.7H906.7zM539.66 366.7h59.28v-26.95h-59.28zM599.43 393.63h42.07V366.7h-42.07zM952.55 366.7h7v-4.13h-7zM913.13 366.7h7v-4.13h-7zM599.43 366.7h42.07v-26.95h-42.07zM658.66 420.7h59.28v-26.95h-59.28zM718.43 420.7h42.07v-26.95h-42.07zM625.58 339.75h7v-4.12h-7zM605.87 339.75h7v-4.12h-7zM686.24 393.4h7v-4.1h-7zM704.62 393.4h7v-4.1h-7zM666.53 393.4h7v-4.1h-7zM646.52 393.4h7v-4.1h-7zM745.87 393.4h7v-4.1h-7zM726.16 393.4h7v-4.1h-7zM806.08 420.02h7v-4.12h-7zM824.46 420.02h7v-4.12h-7zM786.38 420.02h7v-4.12h-7zM766.36 420.02h7v-4.12h-7zM846 420.02h7v-4.12h-7zM539.6 339.75h39.96V312.8H539.6zM565.74 312.8h7v-4.1h-7zM546.03 312.8h7v-4.1h-7zM558.98 393.63h39.96V366.7h-39.96zM539 393.63h19.98V366.7H539zM858.5 419.44h20.37v-25.76H858.5zM878.87 420.62h59.28v-26.94h-59.28zM938.64 420.62h22.66v-26.94h-22.66zM581.5 420.62h77.15v-26.94H581.5zM538.7 420.62h42.8v-26.94h-42.8z"/>
      <path fill="#9ACDED" stroke="#ADD2E9" d="M896.8 447.24h52.27V420.3H896.8zM960.93 447.24h-11.86V420.3h11.86z"/>
      <path fill="#9ACDED" stroke="#ADD2E9" d="M837.72 447.24H897V420.3h-59.28z"/>
      <path fill="#9ACDED" stroke="#ADD2E9" d="M778.72 447.24H838V420.3h-59.28zM737.98 447.24h39.96V420.3h-39.96zM718 447.24h19.98V420.3H718zM658.72 447.24H718V420.3h-59.28z"/>
      <path fill="#9ACDED" stroke="#ADD2E9" d="M599.43 447.24h59.3V420.3h-59.3zM558.98 447.24h39.96V420.3h-39.96zM539 447.24h19.98V420.3H539zM926.34 366.7h19.98v-26.95h-19.98zM932.5 339.75h7v-4.12h-7zM864.9 393.65h41.53V366.7H864.9zM892.62 366.7h7v-4.1h-7zM871.73 366.7h7v-4.1h-7z"/>
      <path stroke="#9ACDED" d="M538.7 447.68h422.6V208.93H538.7zM570.3 268.7l36.47-36.48M570.3 298.27l53.7-53.73"/>
    </g>
    <path fill="#FFF" d="M1173.87 244.1h-59.07c-2.86 0-5.2-2.3-5.2-5.18V132.68c0-2.87 2.34-5.2 5.2-5.2h59.07c2.87 0 5.2 2.33 5.2 5.2v106.24c0 2.87-2.33 5.2-5.2 5.2"/>
    <path stroke="#375D81" stroke-width="3" d="M1173.87 244.1h-59.07c-2.86 0-5.2-2.3-5.2-5.18V132.68c0-2.87 2.34-5.2 5.2-5.2h59.07c2.87 0 5.2 2.33 5.2 5.2v106.24c0 2.87-2.33 5.2-5.2 5.2z"/>
    <path d="M1118.3 224.62h52.07V137.2h-52.06"/>
    <path stroke="#9ACDED" stroke-width="2" d="M1118.3 224.62h52.07V137.2h-52.06z"/>
    <path stroke="#9ACDED" stroke-width="2" d="M1128.3 174.14h32.08v-3.76h-32.1zM1128.3 188.62h32.08v-14.48h-32.1z"/>
    <path stroke="#9452BA" d="M1131.45 178.9h18.03M1131.45 181.38h18.03M1131.45 183.85h18.03M1152.02 184.55h5.47v-6.4H1152z"/>
    <path stroke="#FFF" d="M1150.4 133.8h-12.13c-.37 0-.67-.3-.67-.66v-.5c0-.36.3-.66.67-.66h12.13c.37 0 .67.3.67.67v.5c0 .36-.3.66-.67.66z"/>
    <path stroke="#375D81" stroke-width="2" d="M1148.84 235.45c0 2.5-2.02 4.5-4.5 4.5-2.5 0-4.5-2-4.5-4.5s2-4.5 4.5-4.5c2.48 0 4.5 2 4.5 4.5z"/>
    <g>
      <path fill="#FFF" d="M1387.4 422.3h-193.5c-4.63 0-8.4-3.76-8.4-8.4v-114c0-4.63 3.77-8.4 8.4-8.4h193.5c4.63 0 8.4 3.77 8.4 8.4v114c0 4.64-3.77 8.4-8.4 8.4"/>
      <path stroke="#375D81" stroke-width="3" d="M1387.4 422.3h-193.5c-4.63 0-8.4-3.76-8.4-8.4v-114c0-4.63 3.77-8.4 8.4-8.4h193.5c4.63 0 8.4 3.77 8.4 8.4v114c0 4.64-3.77 8.4-8.4 8.4z"/>
      <path fill="#FFF" d="M1198.7 408.25h183.9v-103.9h-183.9"/>
      <path stroke="#9ACDED" stroke-width="2" d="M1198.7 408.25h183.9v-103.9h-183.9z"/>
      <path fill="#FFF" d="M1410.4 434.5h-239.5c-6.75 0-12.22-5.46-12.22-12.2h263.94c0 6.74-5.47 12.2-12.2 12.2"/>
      <path stroke="#375D81" stroke-width="3" d="M1410.4 434.5h-239.5c-6.75 0-12.22-5.46-12.22-12.2h263.94c0 6.74-5.47 12.2-12.2 12.2z"/>
      <path fill="#11324D" d="M1306.6 425.66h-34.5c-1.84 0-3.35-1.5-3.35-3.37h41.2c0 1.85-1.5 3.36-3.36 3.36"/>
      <path stroke="#375D81" stroke-width="3" d="M1306.6 425.66h-34.5c-1.84 0-3.35-1.5-3.35-3.37h41.2c0 1.85-1.5 3.36-3.36 3.36z"/>
      <path fill="#9452BA" d="M1275.43 367.1c-.2.1-.4.2-.6.26-.22.08-.45.14-.7.2.25.04.48.1.7.18.2.07.4.16.6.26l6.37 3.22c.2.1.32.2.4.33.08.12.1.26.1.4v1.83l-10.96-5.7V367l10.97-5.7v1.8c0 .17-.02.3-.1.43-.08.12-.2.22-.4.32l-6.37 3.24zM1288.9 377.4c-.12.33-.3.58-.57.74-.26.16-.53.24-.8.24h-1.07l8.53-21.26c.1-.3.28-.53.5-.7.25-.15.5-.23.82-.23h1.07l-8.5 21.2zM1312.52 367.02v1.05l-10.98 5.7v-1.8c0-.16.04-.3.1-.42.1-.12.22-.23.4-.33l6.4-3.22c.18-.1.38-.2.6-.26.2-.07.43-.14.67-.2-.48-.1-.9-.24-1.27-.43l-6.38-3.23c-.2-.1-.32-.2-.4-.32-.07-.12-.1-.26-.1-.42v-1.8l10.97 5.7z"/>
      <path stroke="#9ACDED" stroke-width="2" d="M1248.06 392.07h87.73v-49.03h-87.74zM1248.06 343.03h87.73v-9.08h-87.74z"/>
    </g>
    <path d="M827.97 377.85c-.23-1.72-1.7-3.05-3.5-3.05-1.77 0-3.24 1.33-3.47 3.05h-.04v-.78c0-1.94-1.5-3.6-3.45-3.63-1.96-.04-3.57 1.55-3.57 3.5v-.98c0-1.93-1.52-3.6-3.45-3.63-1.98-.03-3.6 1.55-3.6 3.5v-13.2c0-1.94-1.5-3.6-3.44-3.63-1.97-.04-3.58 1.55-3.58 3.5V388.64l-5.97-5.95c-1.53-1.52-4-1.66-5.6-.2-1.7 1.53-1.74 4.15-.13 5.75L798.85 399c.65.64 1.52 1 2.43 1h23.3c1.9 0 3.42-1.53 3.42-3.4v-.98l-.03-17.77z"/>
    <path stroke="#9452BA" stroke-width="2" d="M827.97 377.85c-.23-1.72-1.7-3.05-3.5-3.05-1.77 0-3.24 1.33-3.47 3.05h-.04v-.78c0-1.94-1.5-3.6-3.45-3.63-1.96-.04-3.57 1.55-3.57 3.5v-.98c0-1.93-1.52-3.6-3.45-3.63-1.98-.03-3.6 1.55-3.6 3.5v-13.2c0-1.94-1.5-3.6-3.44-3.63-1.97-.04-3.58 1.55-3.58 3.5V388.64l-5.97-5.95c-1.53-1.52-4-1.66-5.6-.2-1.7 1.53-1.74 4.15-.13 5.75L798.85 399c.65.64 1.52 1 2.43 1h23.3c1.9 0 3.42-1.53 3.42-3.4v-.98l-.03-17.77z"/>
    <g>
      <path fill="#FFF" d="M221.22 510H104.78C98.83 510 94 505.17 94 499.2v-74.4c0-5.97 4.83-10.8 10.78-10.8h116.44c5.95 0 10.78 4.83 10.78 10.8v74.4c0 5.97-4.83 10.8-10.78 10.8"/>
      <path stroke="#375D81" stroke-width="3" d="M221.22 510H104.78C98.83 510 94 505.17 94 499.2v-74.4c0-5.97 4.83-10.8 10.78-10.8h116.44c5.95 0 10.78 4.83 10.78 10.8v74.4c0 5.97-4.83 10.8-10.78 10.8z"/>
      <path fill="#FFF" d="M103 502h114v-80H103"/>
      <path stroke="#9ACDED" stroke-width="2" d="M103 502h114v-80H103z"/>
      <path stroke="#375D81" stroke-width="2" d="M228 462.5c0 1.93-1.57 3.5-3.5 3.5s-3.5-1.57-3.5-3.5 1.57-3.5 3.5-3.5 3.5 1.57 3.5 3.5z"/>
      <g fill="#9452BA">
        <path d="M126.67 474.97c0-1.35-.03-2.48-.07-3.4-.05-.94-.2-1.74-.42-2.4-.23-.66-.6-1.22-1.06-1.7-.48-.45-1.15-.9-2-1.34v-.46c.62-.32 1.16-.66 1.6-1.02.47-.36.83-.78 1.1-1.24.3-.45.5-.98.62-1.57.13-.6.2-1.3.2-2.08 0-1.64.04-3.1.15-4.35.1-1.25.37-2.3.82-3.15.46-.85 1.13-1.48 2.04-1.9.9-.44 2.15-.66 3.73-.66h.47c.05.22.08.45.1.67.03.22.04.46.04.7 0 .27 0 .5-.02.73-.02.22-.06.43-.1.64-.9 0-1.58.1-2.1.28-.5.2-.9.5-1.16.92-.27.43-.44.98-.52 1.66-.1.67-.13 1.5-.13 2.47v.2c0 1.3-.04 2.36-.14 3.25-.1.88-.25 1.62-.48 2.2-.23.6-.54 1.1-.93 1.47-.38.37-.85.7-1.4.98.55.3 1.02.65 1.4 1.03.4.4.7.88.93 1.47.23.6.4 1.33.48 2.2.1.9.14 1.97.14 3.25v.25c0 .95.04 1.76.13 2.43.08.68.25 1.22.52 1.64.27.42.65.73 1.17.92.5.2 1.2.3 2.07.3.05.2.1.42.1.64.03.22.04.46.04.72 0 .23 0 .46-.02.7-.02.22-.06.46-.1.7-1.4 0-2.55-.15-3.47-.43-.9-.3-1.64-.72-2.2-1.3-.56-.58-.95-1.32-1.2-2.23-.22-.9-.33-1.97-.33-3.2M194.83 456.83c0 1.35.02 2.48.07 3.4.05.94.2 1.74.42 2.4.23.66.58 1.22 1.06 1.7.48.45 1.14.9 2 1.34v.46c-.62.32-1.16.66-1.62 1.02-.45.36-.82.78-1.1 1.24-.27.45-.48.98-.6 1.58-.13.6-.2 1.28-.2 2.07 0 1.64-.05 3.1-.15 4.35-.1 1.25-.37 2.3-.83 3.15-.45.85-1.13 1.5-2.03 1.92-.9.42-2.15.64-3.73.64h-.48c-.04-.22-.08-.45-.1-.67-.02-.22-.04-.46-.04-.7 0-.27.02-.5.04-.73.02-.22.06-.43.1-.64.9 0 1.58-.1 2.1-.28.5-.2.9-.5 1.16-.92.27-.43.44-.98.52-1.66.08-.67.12-1.5.12-2.47v-.2c0-1.28.05-2.36.14-3.25.1-.88.26-1.6.5-2.2.22-.6.53-1.1.9-1.47.4-.37.87-.7 1.42-.98-.55-.3-1.02-.65-1.4-1.03-.4-.4-.7-.88-.93-1.47-.23-.6-.4-1.33-.5-2.2-.08-.9-.13-1.97-.13-3.25v-.24c0-.96-.04-1.77-.12-2.44-.08-.68-.25-1.22-.52-1.64-.27-.42-.66-.72-1.17-.92-.5-.2-1.2-.3-2.08-.3-.04-.2-.08-.42-.1-.64-.02-.22-.04-.46-.04-.72 0-.23.02-.46.04-.7.02-.22.06-.46.1-.7 1.4 0 2.55.15 3.47.43.9.3 1.64.72 2.2 1.3.56.58.95 1.32 1.18 2.23.23.9.35 1.97.35 3.2M141 468.35l-.15-1.2c-.04-.4-.07-.8-.07-1.2 0-.4.03-.83.07-1.25.04-.43.1-.84.15-1.25.4-.06.8-.1 1.2-.13.4-.03.8-.05 1.2-.05.42 0 .83.02 1.24.05.4.03.8.07 1.22.13.06.4.1.82.15 1.22.06.4.08.82.08 1.23 0 .4-.02.82-.07 1.23-.03.4-.08.8-.14 1.22-.4.06-.8.1-1.2.13-.4.03-.8.05-1.2.05-.42 0-.82-.02-1.23-.05-.4-.03-.82-.07-1.23-.13M158.4 468.35c-.07-.4-.12-.8-.16-1.2-.04-.4-.07-.8-.07-1.2 0-.4.03-.83.07-1.25.04-.43.1-.84.15-1.25.4-.06.8-.1 1.2-.13.4-.03.8-.05 1.2-.05.4 0 .82.02 1.23.05.4.03.8.07 1.22.13l.16 1.22c.05.4.07.82.07 1.23 0 .4-.02.82-.06 1.23l-.15 1.22c-.4.06-.8.1-1.2.13-.4.03-.8.05-1.2.05-.4 0-.82-.02-1.23-.05-.4-.03-.82-.07-1.23-.13M175.78 468.35l-.15-1.2c-.04-.4-.06-.8-.06-1.2 0-.4.02-.83.06-1.25.04-.43.1-.84.15-1.25.4-.06.8-.1 1.2-.13.4-.03.8-.05 1.2-.05.42 0 .83.02 1.24.05.4.03.8.07 1.22.13l.16 1.22c.04.4.06.82.06 1.23 0 .4-.02.82-.06 1.23l-.16 1.22c-.4.06-.8.1-1.2.13-.4.03-.8.05-1.2.05-.4 0-.82-.02-1.23-.05-.4-.03-.8-.07-1.22-.13"/>
      </g>
    </g>
    <path fill="#9452BA" d="M760.74 486.53c.26.23.43.4.5.47-6.48-3.48-10.9-.83-15.9-1.46l-.24-.05-.33-.08c-1.32-.32-2.56-1.43-3.67-3v-.03l-.3-.4-.47-.8-.05-.08c-.04-.08-.1-.15-.13-.23-.04-.1-.1-.16-.13-.24l-.12-.24c-.05-.08-.1-.16-.13-.24l-.1-.17c-1.1-2.2-2-4.88-2.66-7.54 0 0 0-.03 0 0 2.44 1.32 4.97 2.4 7.1 3 2.58.72 5.8 1.02 8.9.87.95-2.92 1.5-6.08 1.47-8.74-.02-2.23-.4-4.9-1.06-7.6l.6.33.2.1c.13.1.28.16.42.25.06.04.13.08.2.1l.4.27.2.1.5.33c.03 0 .05.02.06.04.2.12.4.25.6.4.02 0 .03 0 .05.02l.53.35.1.07c.17.1.32.22.48.33l.1.07.53.4c.57.43 1.1.86 1.6 1.3.02 0 .02 0 .03.02.84.73 1.6 1.48 2.2 2.23.1.1.18.23.26.33v.02c.1.1.16.2.23.3l.22.33c0 .02 0 .04.02.05.1.14.18.28.26.42 0 .02.03.04.04.06v.03c.1.16.18.3.25.47.05.1.1.2.14.32l.05.14.06.2.05.14.06.18c0 .05.03.1.04.15 0 .06.02.12.04.2 0 .03 0 .08.02.13 0 .06 0 .13.02.2v.12c.02.08.02.15.02.22v.1c0 .1 0 .22-.02.32v.2c-.7 4.96-4.4 8.55-2.75 15.64"/>
    <g transform="translate(874 418)">
      <path stroke="#375D81" stroke-width="5" d="M30 61c0 21.54 17.57 39 39.25 39H235"/>
      <path fill="#FFF" d="M61 30.5C61 47.34 47.34 61 30.5 61 13.65 61 0 47.34 0 30.5S13.65 0 30.5 0C47.34 0 61 13.66 61 30.5"/>
      <path stroke="#375D81" stroke-width="5" d="M61 30.5C61 47.34 47.34 61 30.5 61 13.65 61 0 47.34 0 30.5S13.65 0 30.5 0C47.34 0 61 13.66 61 30.5z"/>
      <ellipse cx="24.68" cy="36.5" fill="#EFEFF6" fill-rule="nonzero" rx="12.68" ry="13.5"/>
      <path fill="#FFF" stroke="#375D81" stroke-width="2" d="M46 31c0 8.84-7.16 16-16 16s-16-7.16-16-16 7.16-16 16-16 16 7.16 16 16z"/>
      <path fill="#375D81" stroke="#375D81" stroke-width="5" d="M255 94v12h-18.86c-.63 0-1.14-.5-1.14-1.1v-9.8c0-.6.5-1.1 1.14-1.1H255z"/>
      <path fill="#375D81" stroke="#375D81" stroke-width="3" d="M272 98.92v2.16c0 .5-1.04.92-2.33.92H255v-4h14.67c1.3 0 2.33.4 2.33.92z"/>
    </g>
    <g transform="translate(990 311)">
      <path fill="#11324D" d="M.1 24.54h219.58"/>
      <path stroke="#375D81" stroke-width="5" d="M.1 23.3h219.58"/>
      <path fill="#FFF" stroke="#375D81" stroke-width="4" d="M266.76 23.68c0 12.9-10.47 23.38-23.38 23.38-12.9 0-23.38-10.47-23.38-23.38C220 10.78 230.47.3 243.38.3c12.9 0 23.38 10.47 23.38 23.38z"/>
      <ellipse cx="241.68" cy="24.5" fill="#EFEFF6" fill-rule="nonzero" rx="12.68" ry="13.5"/>
      <path fill="#FFF" stroke="#375D81" stroke-width="2" d="M254.62 23.6c0 6.26-5.07 11.32-11.3 11.32-6.26 0-11.32-5.06-11.32-11.3 0-6.25 5.06-11.32 11.3-11.32 6.25 0 11.3 5.07 11.3 11.3"/>
    </g>
    <g>
      <path fill="#FFF" d="M389.5 219h-84c-2.5 0-4.5 2.02-4.5 4.52v46.6c0 2.48 2 4.5 4.5 4.5h64.84l13.3 13.38v-13.37h5.86c2.5 0 4.5-2.03 4.5-4.52v-46.58c0-2.5-2-4.52-4.5-4.52"/>
      <path stroke="#4992C7" stroke-width="2" d="M389.5 219h-84c-2.5 0-4.5 2.02-4.5 4.52v46.6c0 2.48 2 4.5 4.5 4.5h64.84l13.3 13.38v-13.37h5.86c2.5 0 4.5-2.03 4.5-4.52v-46.58c0-2.5-2-4.52-4.5-4.52zM319 235h3"/>
      <path stroke="#4992C7" stroke-width="2" d="M328 235h43" stroke-dasharray="5.71 5.71"/>
      <path stroke="#4992C7" stroke-width="2" d="M374 235h3M319 241h2"/>
      <path stroke="#4992C7" stroke-width="2" d="M324 241h49" stroke-dasharray="4.11 3.08"/>
      <path stroke="#4992C7" stroke-width="2" d="M375 241h2M319 247h6"/>
      <path stroke="#4992C7" stroke-width="2" d="M328 247h41" stroke-dasharray="11.34 2.84"/>
      <path stroke="#4992C7" stroke-width="2" d="M371 247h6M319 253h3"/>
      <path stroke="#4992C7" stroke-width="2" d="M328 253h43" stroke-dasharray="5.71 5.71"/>
      <path stroke="#4992C7" stroke-width="2" d="M374 253h3"/>
      <path stroke="#4992C7" stroke-width="2" d="M319 258h57" stroke-dasharray="12 5"/>
      <g>
        <path fill="#FFF" d="M421.8 358h-59.6c-1.77 0-3.2-1.44-3.2-3.2v-33.1c0-1.77 1.43-3.2 3.2-3.2h46l9.45-9.5v9.5h4.16c1.77 0 3.2 1.43 3.2 3.2v33.1c0 1.76-1.43 3.2-3.2 3.2"/>
        <path stroke="#4992C7" stroke-width="2" d="M421.8 358h-59.6c-1.77 0-3.2-1.44-3.2-3.2v-33.1c0-1.77 1.43-3.2 3.2-3.2h46l9.45-9.5v9.5h4.16c1.77 0 3.2 1.43 3.2 3.2v33.1c0 1.76-1.43 3.2-3.2 3.2zM371 346h3"/>
        <path stroke="#4992C7" stroke-width="2" d="M381 346h24" stroke-dasharray="6.9 6.9"/>
        <path stroke="#4992C7" stroke-width="2" d="M409 346h3M371 342h2"/>
        <path stroke="#4992C7" stroke-width="2" d="M376 342h32" stroke-dasharray="3.84 2.88"/>
        <path stroke="#4992C7" stroke-width="2" d="M410 342h2M371 338h6"/>
        <path stroke="#4992C7" stroke-width="2" d="M380 338h25" stroke-dasharray="10.37 2.59"/>
        <path stroke="#4992C7" stroke-width="2" d="M406 338h6M371 334h3"/>
        <path stroke="#4992C7" stroke-width="2" d="M381 334h24" stroke-dasharray="6.9 6.9"/>
        <path stroke="#4992C7" stroke-width="2" d="M409 334h3"/>
        <path stroke="#4992C7" stroke-width="2" d="M371 330h41" stroke-dasharray="12 5"/>
      </g>
    </g>
    <g>
      <path fill="#FFF" d="M208 417.5c0-12.98 10.52-23.5 23.5-23.5s23.5 10.52 23.5 23.5-10.52 23.5-23.5 23.5-23.5-10.52-23.5-23.5"/>
      <g transform="translate(208 393)">
        <ellipse cx="21.68" cy="24.5" fill="#EFEFF6" fill-rule="nonzero" rx="12.68" ry="13.5"/>
        <path stroke="#375D81" stroke-width="5" d="M0 23.5C0 10.52 10.52 0 23.5 0S47 10.52 47 23.5 36.48 47 23.5 47 0 36.48 0 23.5z"/>
        <path fill="#FFF" stroke="#375D81" stroke-width="2" d="M12 23.5C12 17.15 17.15 12 23.5 12S35 17.15 35 23.5 29.85 35 23.5 35 12 29.85 12 23.5"/>
        <path fill="#11324D" d="M335.5 23.53H33.84"/>
        <path stroke="#375D81" stroke-width="5" d="M298 24.5H45.5"/>
      </g>
    </g>
    <g>
      <path fill="#FFF" stroke="#375D81" stroke-width="5" d="M697 366.5c0 16.84-13.66 30.5-30.5 30.5S636 383.34 636 366.5s13.66-30.5 30.5-30.5 30.5 13.66 30.5 30.5z"/>
      <path fill="#F1F4F9" d="M683 368.5c0 10.22-8.28 18.5-18.5 18.5s-18.5-8.28-18.5-18.5 8.28-18.5 18.5-18.5 18.5 8.28 18.5 18.5"/>
      <path fill="#FFF" d="M683 366c0 8.84-7.16 16-16 16s-16-7.16-16-16 7.16-16 16-16 16 7.16 16 16"/>
      <path stroke="#375D81" stroke-width="2" d="M683 366c0 8.84-7.16 16-16 16s-16-7.16-16-16 7.16-16 16-16 16 7.16 16 16z"/>
      <path fill="#375D81" stroke="#375D81" stroke-width="2" d="M312 307v-12h18.86c.63 0 1.14.5 1.14 1.1v9.8c0 .6-.5 1.1-1.14 1.1H312zM303 301.85v-2.7c0-.63.55-1.15 1.23-1.15H312v5h-7.77c-.68 0-1.23-.52-1.23-1.15z"/>
      <path stroke="#375D81" stroke-width="5" d="M635 366h-64.13c-18.07 0-32.72-14.55-32.72-32.5S523.5 301 505.42 301H332"/>
    </g>
    <g transform="translate(719 159)">
      <path fill="#FFF" d="M62.06 87.15c0 16.93-13.72 30.65-30.65 30.65C14.5 117.8.77 104.08.77 87.15S14.48 56.5 31.4 56.5c16.94 0 30.66 13.72 30.66 30.65"/>
      <path stroke="#375D81" stroke-width="4" d="M62.06 87.15c0 16.93-13.72 30.65-30.65 30.65C14.5 117.8.77 104.08.77 87.15S14.48 56.5 31.4 56.5c16.94 0 30.66 13.72 30.66 30.65z"/>
      <ellipse cx="28.01" cy="89.99" fill="#EFEFF6" fill-rule="nonzero" rx="16.01" ry="16.01"/>
      <path fill="#FFF" d="M47.42 87.15c0 8.84-7.17 16-16 16-8.85 0-16.02-7.16-16.02-16 0-8.85 7.17-16 16-16 8.85 0 16.02 7.15 16.02 16"/>
      <path stroke="#375D81" stroke-width="2" d="M47.42 87.15c0 8.84-7.17 16-16 16-8.85 0-16.02-7.16-16.02-16 0-8.85 7.17-16 16-16 8.85 0 16.02 7.15 16.02 16z"/>
      <path fill="#375D81" d="M365.35.46h9.53c.93 0 1.7.75 1.7 1.7v20.12c0 .93-.77 1.7-1.7 1.7h-9.53c-2.25 0-4.07-1.84-4.07-4.1V4.54c0-2.25 1.82-4.07 4.07-4.07"/>
      <path stroke="#375D81" stroke-width="2" d="M365.35.46h9.53c.93 0 1.7.75 1.7 1.7v20.12c0 .93-.77 1.7-1.7 1.7h-9.53c-2.25 0-4.07-1.84-4.07-4.1V4.54c0-2.25 1.82-4.07 4.07-4.07z"/>
      <path fill="#375D81" stroke="#375D81" stroke-width="2" d="M385.08 9.76h-8.5v-3h8.5c.58 0 1.05.48 1.05 1.06v.9c0 .58-.47 1.04-1.05 1.04zM385.08 18.13h-8.5v-3h8.5c.58 0 1.05.47 1.05 1.05v.9c0 .58-.47 1.05-1.05 1.05z"/>
      <path stroke="#375D81" stroke-width="5" d="M62.06 87.15h253.08c12.4 0 22.43-10.05 22.43-22.44V34.94c0-12.1 9.82-21.93 21.93-21.93"/>
    </g>
    <g fill="#FFF" fill-rule="nonzero" stroke="#375D81" stroke-width="2" stroke-linecap="round">
      <path d="M362 445v10.12M367.08 450H357"/>
    </g>
    <g fill="#FFF" fill-rule="nonzero" stroke="#375D81" stroke-width="2" stroke-linecap="round">
      <path d="M626 45v10.12M631.08 50H621"/>
    </g>
    <g fill="#FFF" fill-rule="nonzero" stroke="#375D81" stroke-width="2" stroke-linecap="round">
      <path d="M1085 277v10.12M1090.08 282H1080"/>
    </g>
    <g fill="#FFF" fill-rule="nonzero" stroke="#375D81" stroke-width="2" stroke-linecap="round">
      <path d="M344 144v10.12M349.08 149H339"/>
    </g>
    <g fill="#FFF" fill-rule="nonzero" stroke="#375D81" stroke-width="2" stroke-linecap="round">
      <path d="M1015 63v10.12M1020.08 68H1010"/>
    </g>
    <g fill="#FFF" fill-rule="nonzero" stroke="#375D81" stroke-width="2" stroke-linecap="round">
      <path d="M1296 203v10.12M1301.08 208H1291"/>
    </g>
    <g fill="#FFF" fill-rule="nonzero" stroke="#375D81" stroke-width="2" stroke-linecap="round">
      <path d="M1120.5 385.6v6.76M1124 389h-7"/>
    </g>
    <g fill="#FFF" fill-rule="nonzero" stroke="#375D81" stroke-width="2" stroke-linecap="round">
      <path d="M453.5 235.6v6.76M457 239h-7"/>
    </g>
    <g fill="#FFF" fill-rule="nonzero" stroke="#375D81" stroke-width="2" stroke-linecap="round">
      <path d="M131 278v10.12M136.08 283H126"/>
    </g>
    <g stroke="#9ACDED" stroke-width="5" stroke-linecap="round">
      <path fill="#FFF" fill-rule="nonzero" d="M286 674h75"/>
      <path d="M1271.5 635h-23M993 635h234.5"/>
      <path fill="#FFF" fill-rule="nonzero" d="M508 674h187M717 674h38M493 674h-15M249 674h12M916 674h46"/>
    </g>
    <path fill="#FFF" fill-rule="nonzero" stroke="#9ACDED" stroke-width="5" d="M913 635h-53.84c12.84-43.9-9.8-90.7-50.58-104.52-40.78-13.83-84.25 10.55-97.1 54.45-14.64-3.55-30-.07-42.08 9.54-12.07 9.62-19.67 24.4-20.8 40.53H602.4c-1.8-34.65-26.52-62.87-58.55-66.8-8.77-45.57-41.55-81.35-83.74-91.4-42.2-10.06-85.94 7.48-111.75 44.8-29.88-8.12-61.54 1-83.67 24.1-22.12 23.1-31.56 56.9-24.95 89.3H185" stroke-linecap="round"/>
    <g transform="rotate(60 204.193 1371.98)">
      <path stroke="#9ACDED" stroke-width="2" d="M32.63 30.58C27.45 21.28 0 2.93 0 2.93"/>
      <path fill="#FFF" fill-rule="nonzero" stroke="#375D81" stroke-width="2" d="M60.92 107.28H9.07c-.6 0-1.07-.5-1.07-1.1V48.05c0-1.46.58-2.86 1.6-3.88l23.06-23.33c1.3-1.3 3.37-1.3 4.66 0L60.4 44.16c1.02 1.02 1.6 2.42 1.6 3.88v58.15c0 .28-.1.56-.32.77-.2.2-.47.32-.76.3z"/>
      <ellipse cx="34" cy="65" fill="#EFEFF6" fill-rule="nonzero" rx="13.2" ry="13.49"/>
      <ellipse cx="35.6" cy="62.27" fill="#FFF" fill-rule="nonzero" stroke="#375D81" stroke-width="2" rx="13.2" ry="13.49"/>
      <path stroke="#9ACDED" stroke-width="2" d="M20.28 87.7h29.7M20.28 95.08h29.7" stroke-linecap="round"/>
      <ellipse cx="35.22" cy="34.04" fill="#FFF" fill-rule="nonzero" stroke="#375D81" stroke-width="2" rx="4.27" ry="4.37"/>
      <path stroke="#9ACDED" stroke-width="2" d="M3.2.2S4.32 5.2 5.83 6.9c3.03 3.38 7 6.87 10.7 12.83 6.57 10.58 10.43 20.8 16.24 15.15.78-.76 1.27-2.82.37-3.82"/>
    </g>
    <g transform="rotate(15 -1217.672 4771.697)">
      <path stroke="#9ACDED" stroke-width="2" d="M32.63 29.45C27.45 20.5 0 2.83 0 2.83"/>
      <path fill="#FFF" fill-rule="nonzero" stroke="#375D81" stroke-width="2" d="M60.92 103.3H9.07c-.6 0-1.07-.46-1.07-1.04v-56c0-1.4.58-2.75 1.6-3.74l23.06-22.46c1.3-1.26 3.37-1.26 4.66 0L60.4 42.52c1.02 1 1.6 2.33 1.6 3.74v56c0 .28-.1.55-.32.75-.2.2-.47.3-.76.3z"/>
      <ellipse cx="34" cy="62.59" fill="#EFEFF6" fill-rule="nonzero" rx="13.2" ry="13"/>
      <ellipse cx="35.6" cy="59.96" fill="#FFF" fill-rule="nonzero" stroke="#375D81" stroke-width="2" rx="13.2" ry="13"/>
      <path stroke="#9ACDED" stroke-width="2" d="M20.28 84.44h29.7M20.28 91.56h29.7" stroke-linecap="round"/>
      <ellipse cx="35.22" cy="32.78" fill="#FFF" fill-rule="nonzero" stroke="#375D81" stroke-width="2" rx="4.27" ry="4.2"/>
      <path stroke="#9ACDED" stroke-width="2" d="M3.2.2S4.32 5 5.83 6.63c3.03 3.27 7 6.63 10.7 12.37 6.57 10.18 10.43 20.04 16.24 14.6.78-.74 1.27-2.73.37-3.7"/>
    </g>
    <g transform="rotate(-60 1041.235 -661.78)">
      <path stroke="#9ACDED" stroke-width="2" d="M32.63 30.58C27.45 21.28 0 2.93 0 2.93"/>
      <path fill="#FFF" fill-rule="nonzero" stroke="#375D81" stroke-width="2" d="M60.92 107.28H9.07c-.6 0-1.07-.5-1.07-1.1V48.05c0-1.46.58-2.86 1.6-3.88l23.06-23.33c1.3-1.3 3.37-1.3 4.66 0L60.4 44.16c1.02 1.02 1.6 2.42 1.6 3.88v58.15c0 .28-.1.56-.32.77-.2.2-.47.32-.76.3z"/>
      <ellipse cx="34" cy="65" fill="#EFEFF6" fill-rule="nonzero" rx="13.2" ry="13.49"/>
      <ellipse cx="35.6" cy="62.27" fill="#FFF" fill-rule="nonzero" stroke="#375D81" stroke-width="2" rx="13.2" ry="13.49"/>
      <path stroke="#9ACDED" stroke-width="2" d="M20.28 87.7h29.7M20.28 95.08h29.7" stroke-linecap="round"/>
      <ellipse cx="35.22" cy="34.04" fill="#FFF" fill-rule="nonzero" stroke="#375D81" stroke-width="2" rx="4.27" ry="4.37"/>
      <path stroke="#9ACDED" stroke-width="2" d="M3.2.2S4.32 5.2 5.83 6.9c3.03 3.38 7 6.87 10.7 12.83 6.57 10.58 10.43 20.8 16.24 15.15.78-.76 1.27-2.82.37-3.82"/>
    </g>
    <g fill="#FFF" fill-rule="nonzero" stroke="#375D81" stroke-width="2" stroke-linecap="round">
      <path d="M778 131v10.12M783.08 136H773"/>
    </g>
  </g>
</svg>