<svg xmlns="http://www.w3.org/2000/svg" width="256" height="256">
  <g fill="none" fill-rule="evenodd" transform="translate(3 30)">
    <path fill="#E1F2FF" fill-rule="nonzero" d="M20.2 195.53c0-57.2 46.37-103.56 103.56-103.56 57.2 0 103.56 46.37 103.56 103.56H20.2z"/>
    <path fill="#FFF" fill-rule="nonzero" stroke="#375D81" stroke-width="2" d="M16.98 186.53h36M192.32 186.53h44" stroke-linecap="round" stroke-linejoin="round"/>
    <path fill="#9452BA" fill-rule="nonzero" stroke="#52267D" d="M162.22 186.16h5c1.72 0 3.26-1.04 3.9-2.64 1.76-4.55 1.32-8.73 1.53-12.3.4-6.64-.64-10-1.63-15.57l-7.47.17s.64 2.75 1.06 11c.14 2.56-4.08 12.82-3.88 17.85.02.82.68 1.47 1.5 1.5zM147.73 162.5l-6-6.83-3.7.15-.74 8c-.68 5.4-1.74 10.75-3.2 16-.3 1.06-.52 2.15-.6 3.26 0 .8.3 1.57.87 2.14.57.57 1.34.88 2.14.86h4.42c2.57 0 4.82-1.7 5.48-4.2 1.92-7.68 1.33-19.4 1.33-19.4z"/>
    <path stroke="#52267D" stroke-width=".25" d="M139.28 167.2l-1 .86.95.86 1.55-.6-.3-.68-1.3.3.02.24.33-.02"/>
    <path fill="#9452BA" fill-rule="nonzero" stroke="#52267D" stroke-width="2" d="M139.3 137.1c4.4-.1 8.5-3.1 17.43-3.52.1-.53.27-1.05.5-1.54 1.6-3.5 3.9-13.6 2.42-20.22l-1.16-5.25c-.4-1.72-.58-3.48-.58-5.24 0-.72.07-1.44.22-2.14.03-.18.07-.35.12-.52.13-.5.3-1 .5-1.48l.2-.47c.16-.3.32-.6.5-.9.18-.3.36-.57.54-.83.6-.82 1.34-1.55 2.16-2.16.27-.2.56-.4.85-.57 1.67-1 3.58-1.54 5.53-1.54h1.74c2.82 0 5.53 1.12 7.52 3.12.23.24.46.5.68.76.4.5.75 1 1.05 1.54.12.2.23.4.33.62.1.2.15.3.2.47.42.97.68 2 .8 3.05.03.36.04.73.04 1.1 0 1.45-1.2 2.64-2.65 2.64H167.4l1.64 9.45c1.93 9.7 1.35 16.2-.15 20.53-.34 1-2.25 4.4-2.25 4.4 5.45 8.58 13.8 12.34 22.73 13.43 7.6.93 24-6 15.53-14-8.46-8 1.77-3 3.27-2s10.2 8.52.76 19.54c-4 4.66-8.5 8.9-19.37 12.14-1.74.53-11.25 1.22-16.38 2.7-15.25 4.37-27.64-.4-34.6-10.46-6.94-10.07-1-22.6.73-22.64z"/>
    <path fill="#9452BA" fill-rule="nonzero" stroke="#52267D" d="M148.77 122.63c.35-11.26-8.6-20.1-18.74-22-2.1-.4-2.8-1-5.1-1h-1.77c-5.95 0-10.78 4.83-10.78 10.78 0 1.5 1.2 2.7 2.7 2.7h18.2c4 1.7 6.5 6.82 6.93 9.57.66 3.3.24 6.7-1.2 9.73-.78 1.74-1.07 3.65-.85 5.54h.1c.08 1.05.24 2.1.48 3.12 1.7-1.2 4.36-3 4.84-3.23 1-.55 3.4-1.8 4.47-2.42 6.8-3.84.53-6.4.73-12.77z"/>
    <path fill="#F3E3FF" fill-rule="nonzero" stroke="#52267D" stroke-width=".5" d="M143 135.64c-.1-1.74-.35-2.63-.16-3.34 1.12-4.07 1.5-5.36 1.5-9.67-.1-4.4-2.42-8.45-6.16-10.77-1.73-.23-3.48.2-4.9 1.2 4 1.7 6.5 6.82 6.93 9.57.67 3.3.25 6.73-1.2 9.77-.78 1.74-1.07 3.65-.85 5.54 0 0 4.92 1.85 4.8-2.3"/>
    <path fill="#FFF" fill-rule="nonzero" stroke="#52267D" stroke-width=".5" d="M117.5 101.43c.06-1.17.8-2.2 1.87-2.63l1.6-.65s1.12 2.36-.14 2.95c-1.03.5-2.22.63-3.33.33zM122.2 100.1c.1-1.57 1.35-2.83 2.93-2.93.54-.07 1.94 0 1.94 0s.65 2.7-.87 3c-1.33.16-2.68.14-4-.06zM127.92 100.36s.38-2.84 2.93-2.06c.67.2 1.26.6 1.7 1.16 0 0-.5 2.17-1.52 1.92-1.06-.25-2.1-.6-3.1-1.02zM135.34 114.16s6-3.24 4.82-8.7c1.32 1.13 2.55 2.35 3.67 3.66 0 1.07.2 5.3-5.65 8.14-.88-1.1-1.83-2.13-2.84-3.1z"/>
    <path fill="#F3E3FF" fill-rule="nonzero" d="M118.06 101.13c.03-.68.46-1.28 1.1-1.53l.93-.38s.64 1.37-.1 1.72c-.6.3-1.3.36-1.94.2zM123 99.76c.04-.95.8-1.72 1.76-1.76h1.14s.38 1.6-.5 1.74c-.8.12-1.6.12-2.4.02zM128.55 100.27s.22-1.68 1.74-1.22c.38.13.73.37 1 .7 0 0-.3 1.27-.9 1.13-.64-.15-1.25-.36-1.85-.6z"/>
    <path fill="#F3E3FF" fill-rule="nonzero" d="M124 106.3h4.54c.7 0 1.28.57 1.28 1.28V110c0 .7-.57 1.28-1.28 1.28h-6.65v-2.88c0-1.16.93-2.1 2.1-2.1z" opacity=".3"/>
    <path fill="#FFF" fill-rule="nonzero" stroke="#52267D" stroke-width=".5" d="M124 107.27h3.82c.55 0 1 .45 1 1v1.9c0 .54-.45 1-1 1H122v-1.9c0-1.1.9-2 2-2z"/>
    <circle cx="123.93" cy="109.17" r="1.09" fill="#52267D" fill-rule="nonzero"/>
    <path fill="#52267D" fill-rule="nonzero" d="M114.82 112.25c.3-.07.58-.24.78-.5l.37-.45-.8.17-.5.1c-.08.02-.16.07-.2.15-.05.08-.07.17-.05.26.02.1.07.17.14.22.08.05.17.07.26.05z"/>
    <path fill="#EAF3FB" fill-rule="nonzero" d="M136.35 114.27s4.6-2.47 4.52-7.45c.98.62 1.83 1.42 2.5 2.36-.18 1.3-.67 2.5-1.44 3.56-1.7 1.85-3.47 2.4-5.58 1.53z"/>
    <path fill="#FFF" fill-rule="nonzero" stroke="#52267D" stroke-width=".5" d="M140.7 113.4c-1.07 1.07-2.27 1.98-3.58 2.72"/>
    <path fill="#9452BA" fill-rule="nonzero" stroke="#52267D" d="M158.68 132.74l-1-2c-3.82-9.38-4.4-14.9-2.43-23.84l1.16-5.25c.4-1.72.6-3.48.6-5.25 0-5.88-4.76-10.64-10.64-10.64h-1.72c-2.78 0-5.45 1.1-7.42 3.07-1.96 1.97-3.07 4.64-3.07 7.42v.3c0 1.38 1.12 2.5 2.5 2.5h10.87l-1.65 9.45c-5 25.33-4.54 35.6 5.4 33.5"/>
    <path fill="#FFF" fill-rule="nonzero" stroke="#52267D" stroke-width=".5" d="M139.36 87c.16-1.15.92-2.14 2-2.58.47-.12.96-.12 1.43 0 0 0 1.05 1.65-.2 2.24-1 .5-2.15.62-3.24.34zM143.72 86.4c.1-1.78 1.54-3.2 3.33-3.32.46-.04.93-.04 1.4 0 0 0 1.53 3.05-.2 3.35-1.5.2-3.02.2-4.53-.02zM149.57 87.07s.44-2.78 2.93-1.95c.65.23 1.2.64 1.63 1.18 0 0-.55 2.1-1.54 1.84-1.04-.27-2.06-.63-3.03-1.07z"/>
    <path fill="#F3E3FF" fill-rule="nonzero" stroke="#52267D" stroke-width=".5" d="M139.54 136.77c.53-.4 1.14-.7 1.8-.86M143.14 136.7c-1.78-7.2 1.43-21 2-24.42l2.33-13.62h1c.64.06 1.23.4 1.62.9.4.5.56 1.15.46 1.8l-1.7 11.8c-.56 4-1.16 22.5 5.8 26.5 1.47.84 3.88.28 4.8-.15 3.3-1.57 4.24-5.7 5-9 1.5-6.86.32-12.25 0-17.64l-.36-6.74c-.08-1.27.85-2.38 2.12-2.5h1.24l2.24 13.6c.67 3.9 2.4 17.33-5.52 23.64-.14.1 1.93.58 1.33 1.64-2.37 4.2-9.28 4.88-10.58 6.68-5 6.94-.32 21.74-.32 21.74-3.24-1.32-6.27-3.1-9-5.3-8-7.2-9.07-17.66-9.1-20.73 0-3.7.9-6 2.1-7.33"/>
    <path fill="#FFF" fill-rule="nonzero" stroke="#52267D" d="M208.45 142.73c.7-.84.9-1.98.5-3-.2-.4-.52-.75-.9-1 0 0-1.78.3-1.4 1.5.26 1.04.9 1.92 1.8 2.5z"/>
    <path fill="#F3E3FF" fill-rule="nonzero" d="M208.08 141c.23-.28.3-.66.18-1-.07-.14-.2-.26-.32-.34 0 0-.62.1-.5.53.12.33.34.6.64.8z"/>
    <path fill="#FFF" fill-rule="nonzero" stroke="#52267D" d="M199.1 151.8c-.6-1.55.03-3.32 1.5-4.1.37-.23.76-.42 1.17-.57 0 0 2.5 2 1.16 2.9-1.2.76-2.5 1.36-3.84 1.77z"/>
    <path fill="#F3E3FF" fill-rule="nonzero" d="M200 150.87c-.34-.86.02-1.84.84-2.28.2-.13.42-.24.65-.32 0 0 1.37 1.1.63 1.6-.66.43-1.38.76-2.13 1z"/>
    <path fill="#FFF" fill-rule="nonzero" stroke="#52267D" d="M207 143.7s1.88 1.64.08 3.12c-.48.38-1.06.62-1.67.67 0 0-1.32-1.43-.65-2 .7-.67 1.45-1.27 2.25-1.8z"/>
    <path fill="#F3E3FF" fill-rule="nonzero" d="M206.74 144.86s.83.73 0 1.4c-.2.16-.47.27-.74.3 0 0-.6-.64-.3-.9.33-.3.67-.57 1.04-.8z"/>
    <path fill="#FFF" fill-rule="nonzero" stroke="#52267D" d="M190.07 153.1c-.34-1.35.47-2.72 1.8-3.08 2.44-.88 3.1-.15 3.1-.15s1.33 2.26.13 3c-1.2.74-5.03.23-5.03.23z"/>
    <path fill="#F3E3FF" fill-rule="nonzero" d="M191.2 152.6c-.16-.7.25-1.4.95-1.6 1.26-.46 1.6-.08 1.6-.08s.7 1.17.07 1.55c-.85.22-1.74.27-2.6.13z"/>
    <path fill="#FFF" fill-rule="nonzero" stroke="#52267D" stroke-width=".5" d="M147 102c2.94 1.35 6.32 1.43 9.32.2l-1.14 5.1s-5 1.54-8.94-.9c.37-2.26.76-4.4.76-4.4zM175.94 92.15c-.16-1.16-.92-2.15-2-2.6-.68-.17-1.38-.27-2.08-.3 0 0-.43 2 .82 2.56 1 .5 2.17.63 3.26.35zM171.26 91.2c-.1-1.56-1.34-2.8-2.9-2.9-.4-.03-.8-.03-1.2 0 0 0-1.35 2.66.15 2.92 1.32.17 2.65.17 3.96-.02zM165.87 91.38s-.45-2.8-2.95-2c-.66.23-1.23.64-1.65 1.2 0 0 .56 2.1 1.55 1.85 1.04-.26 2.06-.62 3.05-1.05z"/>
    <path fill="#F3E3FF" fill-rule="nonzero" d="M140.2 86.63c.1-.65.52-1.2 1.13-1.46.27-.07.54-.07.8 0 0 0 .6.93-.1 1.26-.56.3-1.2.36-1.83.2zM144.64 86c.07-1.18 1-2.12 2.2-2.2.3-.02.6-.02.9 0 0 0 1 2-.12 2.2-1 .14-2 .14-2.98 0zM150.37 86.9s.28-1.77 1.86-1.24c.4.15.75.4 1 .75 0 0-.35 1.35-1 1.18-.64-.18-1.26-.4-1.86-.68zM175.15 91.75c-.1-.65-.54-1.2-1.15-1.44-.38-.1-.77-.14-1.16-.15 0 0-.24 1.1.46 1.42.57.28 1.23.35 1.85.18zM170.28 90.83c-.05-.9-.78-1.63-1.68-1.68-.23-.02-.47-.02-.7 0 0 0-.78 1.54.1 1.7.75.1 1.52.1 2.28-.02zM165.08 91.27s-.26-1.65-1.74-1.16c-.4.14-.74.38-1 .7 0 0 .33 1.27.92 1.1.62-.15 1.23-.37 1.82-.63z"/>
    <path fill="#FFF" fill-rule="nonzero" stroke="#52267D" stroke-width=".5" d="M158.54 106.78c3.12.42 6.28.3 9.36-.37.44 2.5.73 4.36.73 4.36s-3.16 2.15-9 .9c-.7-3.18-1.1-4.88-1.1-4.88z"/>
    <path fill="#F3E3FF" fill-rule="nonzero" d="M171.9 101.96h-6.65c-.7 0-1.28-.57-1.28-1.28v-2.4c0-.7.57-1.28 1.28-1.28h4.54c1.15 0 2.1.94 2.1 2.1v2.86z" opacity=".3"/>
    <path fill="#FFF" fill-rule="nonzero" stroke="#52267D" stroke-width=".5" d="M171.8 101.84h-5.84c-.55 0-1-.45-1-1v-1.9c0-.54.45-1 1-1h3.84c1.1 0 2 .9 2 2v1.9z"/>
    <circle cx="169.85" cy="100.72" r="1.09" fill="#52267D" fill-rule="nonzero"/>
    <path fill="#F3E3FF" fill-rule="nonzero" d="M144.28 92.3h4.54c.7 0 1.28.56 1.28 1.27V96c0 .7-.57 1.28-1.28 1.28h-6.65v-2.9c0-.55.22-1.08.62-1.48.38-.4.92-.6 1.48-.6z" opacity=".3"/>
    <path fill="#FFF" fill-rule="nonzero" stroke="#52267D" stroke-width=".5" d="M144.3 93.26h3.8c.56 0 1 .45 1 1v1.9c0 .54-.44 1-1 1h-5.83v-1.88c0-.54.2-1.05.6-1.43.37-.38.88-.6 1.42-.6z"/>
    <circle cx="144.25" cy="96.01" r="1.09" fill="#52267D" fill-rule="nonzero"/>
    <path fill="#52267D" fill-rule="nonzero" d="M178.48 103.1c-.3-.07-.58-.24-.78-.5l-.37-.45.8.17.5.1c.08.02.16.07.2.15.05.08.07.17.05.26-.02.1-.07.17-.14.22-.08.05-.17.07-.26.05zM136.47 98c.3-.07.58-.24.78-.5l.37-.45-.8.17-.5.1c-.08.02-.16.07-.2.15-.05.08-.07.17-.05.26.02.1.07.17.14.22.1.05.18.07.27.05z"/>
    <path fill="#EAF3FB" fill-rule="nonzero" d="M147.43 102.7c2.6 1 5.5 1.05 8.15.14-.2 1.22-.47 2.44-.8 3.63-1.38.08-2.75.02-4.1-.18-2.33-.47-3.25-1.52-3.25-3.6z"/>
    <path fill="#FFF" fill-rule="nonzero" stroke="#52267D" stroke-width=".5" d="M153.08 105.77c-2.25.15-4.5-.25-6.55-1.17"/>
    <path fill="#EAF3FB" fill-rule="nonzero" d="M166.14 107.32c-2.2.6-4.52.72-6.78.4.24 1.05.55 2.08.92 3.1 0 0 4.72-.64 5.86-3.5z"/>
    <path fill="#F3E3FF" fill-rule="nonzero" stroke="#52267D" stroke-width=".5" d="M164.2 140.9s-.2.16-.52.34"/>
    <path fill="#FFF" fill-rule="nonzero" stroke="#52267D" stroke-width=".5" d="M166.5 108.68c-2.48.4-5 .5-7.48.23M160.55 183.24c-.7-.47-1.66-.36-2.24.27-1.16 1-2 2.45-1.5 2.6.77.22 1.6.26 2.4.12.84-.15 1.58 0 1.92-1.75.1-.5-.14-.98-.57-1.23z"/>
    <path fill="#EAF3FB" fill-rule="nonzero" d="M160.33 183.52c-.44-.3-1.03-.22-1.4.17-.72.6-1.26 1.5-.94 1.6.48.13 1 .16 1.5.07.5-.1 1 0 1.2-1.1.04-.3-.1-.6-.37-.75z"/>
    <path fill="#FFF" fill-rule="nonzero" stroke="#52267D" stroke-width=".5" d="M161.9 183.22c.52-.07 1.25 1 1.17 1.37-.08.36-.14 1.44-1 1.56-.6.1-2.77.3-3.24-.16-.47-.47.45-2.43 3.08-2.78z"/>
    <path fill="#EAF3FB" fill-rule="nonzero" d="M162.05 183.52c.3 0 .73.6.68.8-.05.2-.08.86-.57.93-.5.07-1.63.2-1.9-.1-.3-.27.24-1.42 1.8-1.63z"/>
    <path fill="#FFF" fill-rule="nonzero" stroke="#52267D" stroke-width=".5" d="M164.06 183.43s-.44-.23-1.3.27c-.88.5-1.92 1.14-1.62 2 .3.86 2.73.55 3.26.36.53-.2.86-.73.78-1.3-.1-.6-.53-1.13-1.12-1.33z"/>
    <path fill="#EAF3FB" fill-rule="nonzero" d="M164.22 183.74s-.26-.14-.77.16c-.5.3-1.13.68-1 1.2.13.5 1.6.3 1.93.2.3-.1.5-.42.46-.75-.04-.36-.28-.67-.62-.8z"/>
    <path fill="#9452BA" fill-rule="nonzero" stroke="#52267D" d="M153.92 155.62c.23 4.84-.08 9.68-.93 14.45-1.34 8.22-3.7 10.8-3.52 12.93.13 1.65.83 3.16 2.5 3.16h4.93c2.32 0 4.37-1.47 5.1-3.66.77-2.33 1.3-4.74 1.6-7.18.28-3.55.35-7.1.22-10.67M179.25 159.34c-1.6 1.5-2.5 3.62-2.47 5.83 0 2.83 1.66 6.43.62 11.13-.93 4.2-2.77 4.93-2.22 8.7.1.67.7 1.17 1.4 1.16h5.5c2.55 0 4.7-1.84 5.13-4.34.84-5.93.62-11.96-.62-17.8"/>
    <path stroke="#52267D" stroke-width=".25" d="M180.34 165.57l.32-.23 1.05.23-1.16.75-1.4-.7 1.46-1.15.66.22"/>
    <path fill="#FFF" fill-rule="nonzero" stroke="#52267D" stroke-width=".5" d="M150.55 183.24c-.7-.47-1.66-.36-2.24.27-1.16 1-2 2.45-1.5 2.6.77.22 1.6.26 2.4.12.84-.15 1.58 0 1.92-1.75.1-.5-.14-.98-.57-1.23z"/>
    <path fill="#EAF3FB" fill-rule="nonzero" d="M150.33 183.52c-.44-.3-1.03-.22-1.4.17-.72.6-1.26 1.5-.94 1.6.48.13 1 .16 1.5.07.5-.1 1 0 1.2-1.1.04-.3-.1-.6-.37-.75z"/>
    <path stroke="#52267D" stroke-width=".25" d="M158.1 168.68l-1.96.6.26 1.83 2.02.16.94-1.08-1.2-.67-1 .3.63.7"/>
    <g stroke="#F3E3FF" stroke-width=".25" opacity=".3">
      <path d="M115.94 108.65c-.03.2.07.4.24.53.18.1.4.1.6 0 .16-.12.26-.32.23-.53"/>
      <path d="M114.87 108.65c.04.27.27.47.54.47s.5-.2.54-.47M115.4 109.18c-.03.2.07.4.24.53.18.12.4.12.6 0 .16-.1.26-.3.23-.52M136.47 108.14c.24.17.56.2.82.06.25-.13.42-.4.42-.7 0-.3-.16-.56-.42-.7"/>
      <path d="M136.72 109.23c.37.2.82.07 1.04-.28.22-.36.13-.82-.2-1.06M161.9 126.14c0 .4.32.72.72.72.4 0 .72-.32.72-.72M160.46 126.14c0 .4.32.72.72.72.4 0 .72-.32.72-.72M161.18 126.86c0 .4.32.72.72.72.4 0 .72-.32.72-.72M140.43 171.67c0 .4.32.72.72.72.4 0 .72-.33.72-.73"/>
      <path d="M139 171.67c0 .4.32.72.72.72.4 0 .72-.33.72-.73M139.7 172.4c0 .4.33.7.73.7.4 0 .72-.3.72-.7M160.78 103.24c0 .44.35.8.8.8.43 0 .78-.36.78-.8"/>
      <path d="M160 104c0 .44.35.8.8.8.43 0 .78-.36.78-.8M150.7 117.2c-.13.4.02.84.37 1.08.35.25.8.25 1.16 0 .35-.24.5-.68.38-1.1"/>
      <path d="M149.73 118.14c.12.43.52.72.96.72.43 0 .83-.3.95-.72M136.75 93.33c0 .35.3.64.64.64s.63-.3.63-.64M136.1 94c0 .35.3.64.65.64.35 0 .64-.3.64-.64M197.16 158c.28.3.75.34 1.06.06.32-.27.35-.75.07-1.06"/>
      <path d="M197.07 159.07c.28.3.75.34 1.07.07.3-.28.34-.76.06-1.07M167.8 147.83c.1.3.38.52.7.56.32.02.64-.12.82-.4.2-.26.2-.6.05-.9M166.2 148.55c.23.4.72.57 1.14.38.4-.2.6-.67.45-1.1"/>
      <path d="M167.36 149c.12.3.4.52.7.56.33.03.65-.1.83-.38.18-.27.2-.6.04-.9"/>
      <path d="M165.78 149.7c.22.4.7.57 1.13.38.42-.2.62-.67.46-1.1M168.5 149.4c.23.4.72.58 1.14.4.4-.2.6-.68.45-1.1M152.7 99.82c0 .48.38.88.87.88.48 0 .87-.4.87-.88M152.4 132.87c0 .48.38.88.86.88.5 0 .88-.4.88-.88M162.3 114.65c0 .37.3.67.67.67.36 0 .66-.3.66-.67M178.08 99.6c0 .27.22.5.5.5s.5-.23.5-.5M182.22 172.7c.05.3.27.55.56.66.3.1.62.05.86-.15s.35-.5.3-.8M158.06 179.13c-.12.4.03.85.38 1.1.35.24.8.24 1.16 0 .35-.25.5-.7.38-1.1"/>
      <path d="M157.1 180.1c.12.42.52.7.96.7.44 0 .84-.28.96-.7"/>
    </g>
    <path fill="#FFF" fill-rule="nonzero" stroke="#52267D" stroke-width=".5" d="M151.92 183.22c.5-.07 1.24 1 1.16 1.37-.08.36-.14 1.44-1 1.56-.6.1-2.77.3-3.24-.16-.47-.47.45-2.43 3.08-2.78z"/>
    <path fill="#EAF3FB" fill-rule="nonzero" d="M152.06 183.52c.3 0 .73.6.68.8-.05.2-.08.86-.57.93-.5.07-1.63.2-1.9-.1-.3-.27.24-1.42 1.8-1.63z"/>
    <path fill="#FFF" fill-rule="nonzero" stroke="#52267D" stroke-width=".5" d="M153.72 183.76s-.4-.2-1.16.24c-.77.44-1.7 1-1.42 1.78.27.78 2.4.48 2.9.32.46-.17.75-.64.68-1.14-.08-.56-.47-1.02-1-1.2z"/>
    <path fill="#EAF3FB" fill-rule="nonzero" d="M153.87 184s-.23-.12-.68.14c-.46.26-1 .6-.85 1.05.16.44 1.43.28 1.7.18.3-.1.46-.38.42-.67-.05-.32-.28-.6-.6-.7z"/>
    <path fill="#FFF" fill-rule="nonzero" stroke="#52267D" stroke-width=".5" d="M133.44 184s-.4-.2-1.16.24c-.77.44-1.7 1-1.42 1.78.27.78 2.4.48 2.9.32.46-.17.75-.64.68-1.14-.08-.56-.47-1.02-1-1.2z"/>
    <path fill="#EAF3FB" fill-rule="nonzero" d="M133.6 184.25s-.24-.12-.7.14c-.44.25-1 .6-.83 1.04.16.45 1.43.3 1.7.2.3-.1.46-.4.42-.68-.06-.33-.3-.6-.6-.7z"/>
    <path fill="#FFF" fill-rule="nonzero" stroke="#52267D" stroke-width=".5" d="M135.8 183.43c.5-.07 1.23 1 1.15 1.37-.08.37-.14 1.45-1 1.57-.6.1-2.77.3-3.24-.16-.46-.46.46-2.42 3.1-2.77z"/>
    <path fill="#EAF3FB" fill-rule="nonzero" d="M135.93 183.74c.3 0 .73.6.68.8-.04.2-.07.86-.56.93-.5.07-1.63.2-1.9-.1-.3-.27.24-1.42 1.8-1.63z"/>
    <path fill="#FFF" fill-rule="nonzero" stroke="#52267D" stroke-width=".5" d="M177.28 183.24c-.7-.47-1.66-.36-2.24.27-1.17 1-2 2.45-1.52 2.6.78.22 1.6.26 2.4.12.85-.15 1.6 0 1.93-1.75.1-.5-.14-.98-.57-1.23z"/>
    <path fill="#EAF3FB" fill-rule="nonzero" d="M177.06 183.52c-.44-.3-1.03-.22-1.4.17-.72.6-1.26 1.5-.94 1.6.5.13 1 .16 1.5.07.52-.1 1 0 1.2-1.1.05-.3-.1-.6-.36-.75z"/>
    <path fill="#FFF" fill-rule="nonzero" stroke="#52267D" stroke-width=".5" d="M178.65 183.22c.5-.07 1.24 1 1.16 1.37-.07.36-.13 1.44-1 1.56-.6.1-2.76.3-3.23-.16-.47-.47.43-2.43 3.08-2.78z"/>
    <path fill="#EAF3FB" fill-rule="nonzero" d="M178.8 183.52c.3 0 .72.6.67.8-.05.2-.08.86-.57.93-.5.07-1.63.2-1.9-.1-.3-.27.24-1.42 1.8-1.63z"/>
    <path fill="#FFF" fill-rule="nonzero" stroke="#52267D" stroke-width=".5" d="M180.45 183.76s-.4-.2-1.16.24c-.78.44-1.7 1-1.43 1.78s2.4.48 2.9.32c.46-.17.75-.64.68-1.14-.08-.56-.47-1.02-1-1.2z"/>
    <path fill="#EAF3FB" fill-rule="nonzero" d="M180.6 184s-.23-.12-.68.14c-.45.26-1 .6-.84 1.05.16.44 1.43.28 1.7.18.3-.1.46-.38.42-.67-.05-.32-.28-.6-.6-.7z"/>
    <path fill="#FFF" fill-rule="nonzero" stroke="#52267D" stroke-width=".5" d="M142.46 183.9c.13-.12.34-.16.5-.1.6.3 2.07 1.07 1.76 2.13-.24.82-.74.58-1.7.6h-.73c-.16 0-.3-.1-.38-.22-.4-.8-.2-1.77.5-2.36l.04-.03z"/>
    <path fill="#EAF3FB" fill-rule="nonzero" d="M142.53 184.14c.1-.1.24-.12.37-.07.42.2 1.5.77 1.27 1.54-.17.6-.54.43-1.24.44h-.53c-.1 0-.2-.05-.27-.15-.3-.6-.14-1.3.35-1.73l.05-.03z"/>
    <path fill="#FFF" fill-rule="nonzero" stroke="#52267D" stroke-width=".5" d="M139 183.6c-.67-.54-1.62-.5-2.25.07-1.24.86-2.24 2.26-1.74 2.45.77.28 1.6.4 2.4.32.85-.08 1.58.14 2.06-1.58.13-.48-.06-.98-.46-1.27z"/>
    <path fill="#EAF3FB" fill-rule="nonzero" d="M138.8 183.86c-.4-.34-1-.34-1.4 0-.76.53-1.4 1.4-1.07 1.52.48.18.98.24 1.5.2.52-.05 1 .1 1.27-1 .05-.28-.06-.56-.3-.72z"/>
    <rect width="128.64" height="186.53" x="59.44" fill="#FFF" fill-rule="nonzero" stroke="#375D81" stroke-width="2" rx="2.25"/>
    <rect width="112.08" height="171.82" x="67.72" y="7.32" fill="#FFF" fill-rule="nonzero" stroke="#E1F2FF" stroke-width="2" stroke-dasharray="70" rx="2.25"/>
    <circle cx="120.12" cy="58.81" r="24.73" fill="#EFEFF6" fill-rule="nonzero"/>
    <circle cx="123.12" cy="53.81" r="24.73" fill="#FFF" fill-rule="nonzero" stroke="#9ACDED" stroke-width="2" stroke-dasharray="30"/>
    <path fill="#9ACDED" fill-rule="nonzero" d="M129.27 66l.22.6c-.7-6.75 3.1-9.56 4.34-14v-.23l.06-.3c.07-1.5-.38-3-1.3-4.2l-.24-.36-.5-.68-.05-.07-.14-.2-.15-.18-.15-.2-.16-.2-.13-.13c-1.65-1.86-3.5-3.54-5.53-5 .28 2.36.3 4.74.07 7.1-.37 2.73-1.18 5.38-2.37 7.87-2.75-.2-5.44-.82-8-1.85-2.17-.97-4.23-2.18-6.14-3.6 0 .2 0 .42.06.63v.2c0 .14 0 .3.06.44.06.15 0 .14 0 .2l.07.46v.18c0 .2.05.38.1.56v.06c0 .22.07.43.1.65l.13.58v.13l.12.52v.1c0 .2.1.4.15.6.17.63.35 1.24.55 1.83.3.92.7 1.8 1.15 2.67l.2.34.17.28.2.3.26.36v.06c.1.13.2.25.32.37l.23.24.1.1.15.13.1.1.15.1.1.08.16.1.1.08.17.1.12.05.18.08h.1l.27.1.17.06c4.5 1.2 8.88-.7 14.38 3.23"/>
    <path fill="#FFF" fill-rule="nonzero" stroke="#9ACDED" stroke-width="2" d="M92.05 107.17h63.77M92.05 127.73h63.77M92.05 148.98h63.77" stroke-linecap="round" stroke-linejoin="round" stroke-dasharray="2"/>
    <path stroke="#375D81" stroke-width="2" d="M203.98 33.54v7M207.48 37.04h-7" stroke-linecap="round" stroke-linejoin="round"/>
    <path stroke="#375D81" d="M39.73 153.82v3.94M41.7 155.8h-3.94" stroke-linecap="round"/>
    <path stroke="#375D81" d="M214.73 93.82v3.94M216.7 95.8h-3.94" stroke-linecap="round" stroke-linejoin="round"/>
    <path stroke="#375D81" d="M45.73 53.82v3.94M47.7 55.8h-3.94" stroke-linecap="round"/>
    <path fill="#FFF" fill-rule="nonzero" stroke="#375D81" stroke-width="2" d="M23.42 92.42v8.12M27.48 96.48h-8.13" stroke-linecap="round"/>
    <path fill="#FFF" fill-rule="nonzero" stroke="#375D81" stroke-width="2" d="M243.17 186.3h6.97M0 186.3h8.97M92.38 195.6h67.2M168.2 195.6h9.13M84.5 195.53l-5 .08" stroke-linecap="round" stroke-linejoin="round"/>
  </g>
</svg>