<svg xmlns="http://www.w3.org/2000/svg" width="256" height="256">
  <g fill="none" fill-rule="evenodd" transform="translate(3 25)">
    <path fill="#E1F2FF" fill-rule="nonzero" d="M20.2 205.4c0-57.2 46.37-103.57 103.56-103.57 57.2 0 103.56 46.37 103.56 103.56H20.2z"/>
    <path fill="#FFF" fill-rule="nonzero" stroke="#375D81" stroke-width="2" d="M16.98 196.4h36M59.43 196.4h176.9" stroke-linecap="round" stroke-linejoin="round"/>
    <path stroke="#375D81" stroke-width="2" d="M203.98 43.4v7M207.48 46.9h-7" stroke-linecap="round" stroke-linejoin="round"/>
    <path stroke="#375D81" d="M39.73 163.68v3.94M41.7 165.65h-3.94" stroke-linecap="round"/>
    <path stroke="#375D81" d="M214.73 103.68v3.94M216.7 105.65h-3.94" stroke-linecap="round" stroke-linejoin="round"/>
    <path stroke="#375D81" d="M45.73 63.68v3.94M47.7 65.65h-3.94" stroke-linecap="round"/>
    <path fill="#FFF" fill-rule="nonzero" stroke="#375D81" stroke-width="2" d="M23.42 102.28v8.12M27.48 106.34h-8.13" stroke-linecap="round"/>
    <path fill="#FFF" fill-rule="nonzero" stroke="#375D81" stroke-width="2" d="M243.17 196.15h6.97M0 196.15h8.97M92.38 205.47h67.2M168.2 205.47h9.13M84.5 205.4l-5 .07" stroke-linecap="round" stroke-linejoin="round"/>
    <path fill="#9452BA" fill-rule="nonzero" stroke="#52267D" stroke-width="2" d="M145.26 194.8l5 .15c1.73.07 3.32-.94 4-2.53 1.9-4.5 1.58-8.7 1.9-12.26.58-6.6-.35-10-1.18-15.6h-7.48s.55 2.77.74 11c.06 2.56-4.46 12.7-4.4 17.73 0 .8.62 1.45 1.42 1.5zM131.46 170.72l-5.8-7h-3.72l-1 8c-.83 5.38-2.04 10.7-3.64 15.9-.36 1.04-.6 2.13-.7 3.23-.05.8.23 1.6.77 2.18.54.6 1.3.94 2.1.95l4.42.13c2.55.1 4.86-1.54 5.6-4 2.2-7.66 1.96-19.38 1.96-19.38z"/>
    <path stroke="#52267D" stroke-width=".5" d="M122.87 175.17l-1 .84.9.9 1.57-.55-.3-.7-1.28.28v.23h.34"/>
    <path fill="#9452BA" fill-rule="nonzero" stroke="#52267D" stroke-width="2" d="M123.8 145.1c4.37 0 8.56-2.86 17.5-3 .13-.53.3-1.04.54-1.53 1.72-3.45 4.3-13.47 3-20.14l-1-5.28c-.33-1.73-.47-3.5-.42-5.26.02-.73.1-1.45.28-2.15l.13-.5c.14-.5.32-1 .54-1.48l.23-.46c.16-.3.33-.6.52-.88.2-.3.4-.56.6-.83.64-.8 1.38-1.52 2.22-2.1.28-.2.57-.4.86-.56 1.7-.96 3.62-1.44 5.56-1.38l1.74.05c2.82.1 5.5 1.3 7.43 3.34.23.25.45.5.66.78.37.5.7 1 1 1.56l.3.63c.1.22.14.33.2.5.38.97.6 2 .7 3.06v1.1c-.03.7-.33 1.36-.84 1.84-.5.48-1.2.74-1.9.72l-10.9-.32 1.38 9.5c1.65 9.76.88 16.24-.74 20.52-.36 1-2.36 4.32-2.36 4.32 5.2 8.75 13.43 12.75 22.32 14.1 7.56 1.15 24.14-5.3 15.93-13.54-8.22-8.25 1.84-3 3.3-1.92 1.48 1.08 9.95 8.82.2 19.55-4.12 4.54-8.76 8.64-19.72 11.57-1.76.47-11.3.88-16.45 2.2-15.37 3.93-27.62-1.2-34.27-11.45-6.65-10.26-.3-22.56 1.43-22.55z"/>
    <path fill="#9452BA" fill-rule="nonzero" stroke="#52267D" stroke-width="2" d="M133.66 130.9c.68-11.23-8-20.34-18.1-22.5-2.1-.46-2.75-1.14-5.06-1.2l-1.77-.06c-5.95-.17-10.9 4.5-11.08 10.46-.04 1.48 1.13 2.72 2.6 2.76l18.2.52h1.5-1.5c4 1.82 6.3 7 6.67 9.77.58 3.3.07 6.73-1.45 9.73-.82 1.7-1.17 3.62-1 5.5h.1c.05 1.06.18 2.1.4 3.14 1.73-1.14 4.44-2.85 4.93-3.1 1.06-.5 3.46-1.7 4.54-2.28 6.83-3.64.64-6.33 1.02-12.73z"/>
    <path fill="#F3E3FF" fill-rule="nonzero" stroke="#52267D" d="M127.52 143.75c0-1.74-.28-2.64-.06-3.34 1.24-4 1.64-5.3 1.77-9.6.04-4.4-2.16-8.53-5.83-10.96-1.72-.28-3.5.1-4.94 1.06 4 1.82 6.3 7 6.66 9.77.58 3.3.07 6.73-1.45 9.73-.82 1.7-1.17 3.62-1 5.5 0 0 4.86 2 4.88-2.14"/>
    <path fill="#FFF" fill-rule="nonzero" stroke="#52267D" d="M103 108.8c.1-1.15.85-2.15 1.94-2.56l1.63-.6s1 2.4-.23 2.94c-1.05.48-2.24.56-3.34.23zM107.75 107.62c.14-1.57 1.43-2.8 3-2.85.54-.05 1.94 0 1.94 0s.56 2.73-1 2.95c-1.32.14-2.65.1-3.95-.1zM113.47 108s.46-2.83 3-2c.66.23 1.24.65 1.66 1.2 0 0-.57 2.16-1.58 1.9-1.06-.3-2.1-.65-3.08-1.1zM120.5 122.05s6-3.06 5.06-8.54c1.28 1.17 2.48 2.42 3.56 3.77 0 1.07 0 5.3-5.9 8-.83-1.13-1.75-2.2-2.73-3.22z"/>
    <path fill="#F3E3FF" fill-rule="nonzero" d="M103.85 108.32c.04-.6.43-1.12 1-1.33l.84-.32s.53 1.24-.13 1.52c-.54.25-1.15.3-1.72.12zM109 107.08c.08-.8.73-1.42 1.54-1.45h1s.3 1.4-.5 1.5c-.67.08-1.36.06-2.04-.05zM114.4 107.86s.25-1.5 1.6-1c.34.12.65.35.87.64 0 0-.3 1.14-.84 1-.56-.17-1.1-.38-1.63-.64z"/>
    <path fill="#F3E3FF" fill-rule="nonzero" d="M112.2 113.94h.5c1.36.05 2.44 1.2 2.4 2.56-.04 1.37-1.18 2.45-2.55 2.4l-5.45-.15c.08-2.76 2.38-4.93 5.14-4.85l-.03.04z" opacity=".3"/>
    <path fill="#FFF" fill-rule="nonzero" stroke="#52267D" d="M111.2 114.88l1 .03c1.12.04 2 .96 1.96 2.07-.04 1.1-.96 1.97-2.06 1.94l-4.9-.14c.04-1.03.48-2 1.23-2.72.75-.7 1.76-1.1 2.8-1.06l-.02-.1z"/>
    <circle cx="109.19" cy="117.66" r="1.09" fill="#52267D" fill-rule="nonzero" transform="rotate(-88.33 109.192 117.656)"/>
    <path fill="#52267D" fill-rule="nonzero" d="M100 119.54c.3-.06.6-.22.8-.46l.38-.45-.82.15-.48.1c-.1 0-.17.06-.22.13-.05.1-.07.18-.05.27.05.18.22.3.4.27z"/>
    <path fill="#EAF3FB" fill-rule="nonzero" d="M121.5 122.2s4.65-2.35 4.72-7.32c.96.66 1.78 1.48 2.44 2.44-.22 1.28-.75 2.5-1.55 3.52-1.74 1.78-3.52 2.3-5.6 1.35z"/>
    <path fill="#FFF" fill-rule="nonzero" stroke="#52267D" d="M125.86 121.44c-1.1 1.04-2.32 1.92-3.65 2.62"/>
    <path fill="#9452BA" fill-rule="nonzero" stroke="#52267D" stroke-width="2" d="M143.27 141.3l-1-2c-3.54-9.48-4-15-1.73-23.9l1.3-5.2c.44-1.7.7-3.46.74-5.22.2-5.87-4.4-10.78-10.28-10.98l-1.72-.05c-5.8-.17-10.62 4.4-10.8 10.18v.3c-.03 1.37 1.05 2.52 2.42 2.57l10.87.32-1.92 9.4c-5.78 25.17-5.58 35.45 4.4 33.63"/>
    <path fill="#FFF" fill-rule="nonzero" stroke="#52267D" d="M125.3 95c.2-1.15 1-2.1 2.08-2.52.47-.1.97-.08 1.43.06 0 0 1 1.68-.23 2.23-1.03.47-2.2.55-3.27.23zM129.68 94.56c.16-1.8 1.63-3.17 3.42-3.23.46-.04.93-.04 1.4 0 0 0 1.44 3.1-.3 3.34-1.5.17-3.02.13-4.52-.1zM135.5 95.4s.52-2.77 3-1.87c.64.24 1.2.67 1.6 1.23 0 0-.6 2.1-1.6 1.8-1.02-.3-2.03-.7-3-1.17z"/>
    <path fill="#F3E3FF" fill-rule="nonzero" stroke="#52267D" d="M124 144.77c.54-.4 1.16-.67 1.8-.8M127.62 144.82c-1.57-7.27 2-21 2.73-24.36l2.73-13.54h1c.64.1 1.2.43 1.6.95.37.52.52 1.17.4 1.8l-2 11.76c-.7 4-1.82 22.47 5 26.65 1.46.9 3.88.4 4.8 0 3.35-1.48 4.42-5.57 5.24-8.87 1.7-6.8.7-12.24.5-17.63l-.14-6.74c-.05-1.28.93-2.36 2.2-2.45h1.24l1.84 13.68c.56 3.9 1.9 17.38-6.2 23.45-.16.12 1.9.64 1.27 1.7-2.5 4.13-9.43 4.6-10.78 6.36-5.2 6.8-1 21.72-1 21.72-3.2-1.4-6.18-3.3-8.84-5.56-7.82-7.44-8.54-17.92-8.5-21 .07-3.68 1.1-5.93 2.33-7.26"/>
    <path fill="#FFF" fill-rule="nonzero" stroke="#52267D" d="M192.74 152.75c.73-.82.96-1.97.6-3-.2-.4-.5-.75-.88-1 0 0-1.8.26-1.45 1.47.26 1.03.87 1.93 1.74 2.53z"/>
    <path fill="#F3E3FF" fill-rule="nonzero" d="M192.4 151c.25-.28.33-.65.22-1-.07-.14-.18-.26-.3-.35 0 0-.64.1-.52.52.1.34.32.63.6.83z"/>
    <path fill="#FFF" fill-rule="nonzero" stroke="#52267D" d="M183.1 161.54c-.55-1.57.15-3.32 1.64-4.07.38-.2.77-.4 1.18-.53 0 0 2.44 2 1.07 2.93-1.22.73-2.53 1.3-3.9 1.67z"/>
    <path fill="#F3E3FF" fill-rule="nonzero" d="M184 160.63c-.32-.87.07-1.84.9-2.26.2-.12.43-.2.66-.3 0 0 1.35 1.14.6 1.63-.68.4-1.4.72-2.16.93z"/>
    <path fill="#FFF" fill-rule="nonzero" stroke="#52267D" d="M191.27 153.66s1.83 1.7 0 3.13c-.5.36-1.07.57-1.68.6 0 0-1.3-1.45-.6-2.05.7-.63 1.46-1.2 2.27-1.7z"/>
    <path fill="#F3E3FF" fill-rule="nonzero" d="M191 154.82s.8.76 0 1.4c-.22.15-.48.25-.75.26 0 0-.57-.64-.26-.9.3-.3.64-.54 1-.76z"/>
    <path fill="#FFF" fill-rule="nonzero" stroke="#52267D" d="M174.06 162.58c-.28-1.35.56-2.68 1.9-3 2.45-.8 3.08-.06 3.08-.06s1.28 2.3.06 3c-1.22.7-5.04.06-5.04.06z"/>
    <path fill="#F3E3FF" fill-rule="nonzero" d="M175.2 162.1c-.14-.7.3-1.4 1-1.56 1.28-.42 1.6 0 1.6 0s.67 1.2 0 1.55c-.85.17-1.73.18-2.6 0z"/>
    <path fill="#FFF" fill-rule="nonzero" stroke="#52267D" d="M132.46 110.22c2.9 1.44 6.27 1.6 9.3.48-.4 1.68-1.27 5-1.27 5s-5.1 1.4-8.92-1.16c.42-2.17.88-4.32.88-4.32zM161.7 101.23c-.12-1.17-.86-2.18-1.94-2.65-.68-.2-1.37-.3-2.07-.35 0 0-.5 2 .73 2.58 1 .54 2.17.7 3.28.43zM157.06 100.15c-.04-1.57-1.25-2.86-2.8-3-.4-.05-.82-.07-1.22-.05 0 0-1.42 2.62.07 2.92 1.3.22 2.64.27 3.96.13zM151.66 100.17s-.36-2.8-2.9-2c-.65.2-1.23.6-1.67 1.14 0 0 .48 2.15 1.5 1.9 1.04-.25 2.07-.6 3.06-1.03z"/>
    <path fill="#F3E3FF" fill-rule="nonzero" d="M126.27 94.6c.1-.6.53-1.12 1.1-1.34.26-.07.53-.07.78 0 0 0 .54.9-.13 1.2-.55.25-1.17.3-1.75.14zM130.77 94.1c.1-1.1 1.03-1.97 2.15-2 .3-.02.58-.02.87 0 0 0 .9 1.94-.2 2.1-.94.1-1.9.06-2.83-.1zM136.6 95.14s.3-1.6 1.7-1.07c.38.14.7.4.93.7 0 0-.35 1.22-.92 1-.58-.16-1.16-.37-1.7-.63zM160.8 100.73c-.05-.6-.43-1.14-1-1.4-.35-.1-.72-.16-1.1-.18 0 0-.25 1 .4 1.36.53.3 1.13.36 1.7.23zM156 99.67c-.02-.88-.7-1.6-1.6-1.67-.2-.02-.44-.02-.66 0 0 0-.8 1.45 0 1.6.75.14 1.5.16 2.26.07zM150.67 100s-.2-1.54-1.58-1.12c-.37.1-.7.33-.93.62 0 0 .27 1.17.82 1 .56-.12 1.12-.3 1.67-.5z"/>
    <path fill="#FFF" fill-rule="nonzero" stroke="#52267D" d="M143.9 115.35c3.1.5 6.26.47 9.35-.1.37 2.5.6 4.37.6 4.37s-3.23 2.06-9 .64l-.96-4.9z"/>
    <path fill="#F3E3FF" fill-rule="nonzero" d="M157.4 110.94l-5.45-.16c-1.37-.04-2.45-1.18-2.4-2.55.03-1.37 1.18-2.45 2.55-2.4h.48c2.76.1 4.93 2.4 4.85 5.15l-.03-.04z" opacity=".3"/>
    <path fill="#FFF" fill-rule="nonzero" stroke="#52267D" d="M157.3 110.84l-4.75-.14c-1.15-.03-2.06-1-2.03-2.15.03-1 .86-1.78 1.86-1.76l1.13.03c1.05.03 2.03.47 2.74 1.22.7.75 1.1 1.76 1.06 2.8z"/>
    <circle cx="155.02" cy="108.51" r="1.09" fill="#52267D" fill-rule="nonzero" transform="rotate(-88.33 155.02 108.51)"/>
    <path fill="#F3E3FF" fill-rule="nonzero" d="M132.93 100.54h.48c.67.03 1.3.3 1.75.8.45.47.7 1.1.67 1.76-.02.66-.3 1.28-.78 1.74-.48.45-1.1.7-1.77.67l-5.45-.15c.08-2.76 2.38-4.93 5.15-4.85l-.04.04z" opacity=".3"/>
    <path fill="#FFF" fill-rule="nonzero" stroke="#52267D" d="M131.93 101.47l1 .03c1.1.03 1.97.95 1.94 2.06-.04 1.1-.96 1.97-2.06 1.94l-4.86-.15c0-1.04.43-2.04 1.18-2.77s1.76-1.13 2.8-1.1z"/>
    <circle cx="132.61" cy="104.23" r="1.09" fill="#52267D" fill-rule="nonzero" transform="rotate(-88.33 132.61 104.235)"/>
    <path fill="#52267D" fill-rule="nonzero" d="M163.93 112.25c-.3-.08-.58-.26-.77-.5l-.35-.48.82.2.48.12c.18.03.3.22.25.4-.02.1-.08.17-.16.2-.1.06-.18.07-.27.05zM122.1 105.93c.3-.06.58-.22.8-.46l.37-.45-.82.15-.48.1c-.1 0-.17.06-.22.13-.05.08-.07.17-.05.26.04.18.2.3.4.27z"/>
    <path fill="#EAF3FB" fill-rule="nonzero" d="M132.9 110.94c2.58 1.08 5.47 1.22 8.14.4-.24 1.2-.55 2.4-.92 3.6-1.37.03-2.74-.07-4.1-.3-2.3-.53-3.18-1.64-3.12-3.7z"/>
    <path fill="#FFF" fill-rule="nonzero" stroke="#52267D" d="M138.46 114.2c-2.25.07-4.48-.4-6.5-1.38"/>
    <path fill="#EAF3FB" fill-rule="nonzero" d="M151.47 116.12c-2.22.52-4.53.6-6.78.2.2 1.05.48 2.1.82 3.12 0 0 4.77-.5 5.95-3.32z"/>
    <path fill="#F3E3FF" fill-rule="nonzero" stroke="#52267D" stroke-width=".5" d="M148.56 149.63s-.22.15-.54.33"/>
    <path fill="#FFF" fill-rule="nonzero" stroke="#52267D" d="M151.78 117.5c-2.48.33-5 .33-7.47 0"/>
    <path fill="#FFF" fill-rule="nonzero" stroke="#52267D" stroke-width=".5" d="M143.67 191.83c-.7-.5-1.65-.4-2.25.2-1.2.92-2.12 2.38-1.6 2.54.78.24 1.6.3 2.4.2.86-.14 1.6.04 2-1.7.1-.5-.12-1-.55-1.24z"/>
    <path fill="#EAF3FB" fill-rule="nonzero" d="M143.44 192.1c-.43-.3-1.03-.25-1.4.13-.74.58-1.32 1.48-1 1.58.5.16 1 .2 1.5.13.53-.08 1 0 1.23-1.06.06-.3-.07-.6-.33-.76z"/>
    <path fill="#FFF" fill-rule="nonzero" stroke="#52267D" stroke-width=".5" d="M145 191.86c.5-.05 1.2 1.07 1.1 1.4-.1.33-.17 1.44-1 1.54-.6.07-2.76.23-3.22-.25-.46-.48.5-2.42 3.12-2.7z"/>
    <path fill="#EAF3FB" fill-rule="nonzero" d="M145.16 192.17c.3 0 .7.63.66.83-.05.2-.1.85-.6.9-.47.07-1.63.15-1.9-.14-.27-.3.3-1.43 1.84-1.6z"/>
    <path fill="#FFF" fill-rule="nonzero" stroke="#52267D" stroke-width=".5" d="M147.17 192.13s-.43-.24-1.3.23c-.9.47-1.96 1.08-1.68 2 .27.92 2.7.63 3.24.46.54-.17.88-.7.82-1.26-.06-.65-.48-1.2-1.1-1.43z"/>
    <path fill="#EAF3FB" fill-rule="nonzero" d="M147.33 192.45s-.26-.14-.78.14c-.52.27-1.15.63-1 1.15.15.52 1.6.37 1.93.27.32-.1.52-.42.5-.75-.05-.37-.3-.7-.65-.82z"/>
    <path fill="#9452BA" fill-rule="nonzero" stroke="#52267D" stroke-width="2" d="M137.85 164c.1 4.84-.37 9.67-1.36 14.4-1.58 8.2-4 10.7-3.9 12.83.1 1.65.74 3.18 2.4 3.23l4.93.14c2.3.07 4.4-1.35 5.2-3.5.83-2.32 1.44-4.7 1.8-7.14.38-3.54.56-7.1.53-10.66M163.06 168.5c-1.66 1.45-2.62 3.54-2.64 5.75-.07 2.83 1.47 6.48.3 11.15-1 4.16-2.92 4.84-2.48 8.62.1.68.67 1.2 1.36 1.2l5.5.17c2.54.06 4.75-1.7 5.24-4.2 1-5.9.96-11.93-.1-17.82"/>
    <path stroke="#52267D" stroke-width=".5" d="M163.96 174.75l.33-.22 1.03.27-1.18.7-1.38-.72 1.5-1.12.64.24"/>
    <path fill="#FFF" fill-rule="nonzero" stroke="#52267D" d="M133.68 191.54c-.7-.5-1.65-.4-2.25.2-1.2.92-2.12 2.38-1.6 2.54.78.24 1.6.3 2.4.2.86-.14 1.6.04 2-1.7.1-.5-.12-1-.55-1.24z"/>
    <path fill="#EAF3FB" fill-rule="nonzero" d="M133.45 191.82c-.43-.3-1.03-.26-1.4.12-.74.58-1.32 1.48-1 1.58.5.15 1 .2 1.5.12.53-.08 1 0 1.23-1.06.06-.3-.07-.6-.33-.76z"/>
    <path stroke="#52267D" stroke-width=".5" d="M141.66 177.2l-2 .57.22 1.83 2 .2.98-1.06-1.2-.7-1 .26.62.72"/>
    <g stroke="#F3E3FF" stroke-width=".25" opacity=".3">
      <path d="M101.26 116c-.03.2.07.4.24.53.18.1.4.1.6 0 .16-.12.26-.32.23-.53"/>
      <path d="M100.18 115.94c-.03.2.07.4.24.53.18.1.4.1.6 0 .16-.12.26-.32.23-.53"/>
      <path d="M100.7 116.5c-.03.2.07.4.24.52.18.1.4.1.6 0 .16-.12.26-.32.23-.53M121.8 116.07c.35.24.84.14 1.08-.22.25-.37.14-.86-.22-1.1"/>
      <path d="M122 117.16c.24.16.54.17.8.05.24-.12.4-.37.42-.65.02-.3-.1-.55-.35-.7M146.68 134.8c0 .4.32.72.72.72.4 0 .72-.32.72-.72"/>
      <path d="M145.25 134.76c0 .4.32.72.72.72.4 0 .72-.32.72-.72M145.94 135.5c0 .4.32.72.72.72.4 0 .72-.32.72-.72M123.9 179.7c0 .4.32.7.72.7.4 0 .72-.3.72-.7M122.46 179.65c0 .4.32.72.72.72.4 0 .72-.32.72-.72M123.16 180.4c0 .4.32.7.72.7.4 0 .72-.3.72-.7M146.24 111.88c0 .44.35.8.8.8.43 0 .78-.36.78-.8"/>
      <path d="M145.43 112.64c0 .44.35.8.8.8.43 0 .78-.36.78-.8M135.74 125.52c-.13.4 0 .85.35 1.1.33.26.8.28 1.14.04.36-.23.53-.67.42-1.08"/>
      <path d="M134.75 126.45c-.13.4 0 .85.35 1.1.34.26.8.28 1.15.04.36-.24.53-.68.42-1.1M122.5 101.27c0 .35.3.64.65.64.35 0 .64-.28.64-.63"/>
      <path d="M121.85 101.9c0 .34.3.63.64.63s.63-.3.63-.64M181 167.7c.27.28.7.3 1 .07.3-.24.36-.66.15-.98M180.88 168.75c.15.24.43.37.7.33.3-.03.52-.22.62-.5.1-.25.03-.55-.17-.75M151.94 156.66c.2.4.7.58 1.1.4.43-.17.64-.64.5-1.07M150.34 157.33c.2.4.7.58 1.1.4.43-.17.64-.64.5-1.07M151.48 157.8c.1.3.37.53.7.58.32.05.64-.1.83-.35.2-.27.23-.62.08-.9"/>
      <path d="M149.88 158.46c.2.4.7.58 1.1.4.43-.17.64-.64.5-1.07M152.6 158.25c.1.3.38.54.7.6.33.04.65-.1.84-.36.2-.28.22-.63.07-.92M138.25 108.22c0 .3.15.6.42.77.26.15.6.16.87.02.28-.15.45-.44.46-.75M137 141.25c0 .3.15.6.42.77.26.16.6.17.87.03.27-.15.44-.44.45-.75M147.42 123.33c0 .37.3.67.67.67.35 0 .65-.3.65-.67M163.64 108.74c0 .28.22.5.5.5s.5-.22.5-.5M165.64 181.93c.04.3.25.57.54.7.3.1.62.05.87-.14.24-.2.36-.5.32-.82M141.3 187.66c-.13.4 0 .85.35 1.1.34.26.8.28 1.15.04.36-.23.53-.67.42-1.08"/>
      <path d="M140.3 188.6c.12.42.5.73.95.74.44.02.84-.27.98-.7"/>
    </g>
    <path fill="#FFF" fill-rule="nonzero" stroke="#52267D" d="M135 191.56c.5-.05 1.2 1.07 1.1 1.4-.1.33-.17 1.44-1 1.54-.6.07-2.76.23-3.22-.25-.46-.48.52-2.4 3.12-2.7z"/>
    <path fill="#EAF3FB" fill-rule="nonzero" d="M135.17 191.87c.3 0 .7.63.66.83-.05.2-.1.85-.6.9-.47.07-1.63.15-1.9-.14-.27-.3.3-1.46 1.84-1.6z"/>
    <path fill="#FFF" fill-rule="nonzero" stroke="#52267D" d="M136.83 192.16s-.38-.2-1.16.2c-.78.4-1.72 1-1.48 1.74.23.74 2.4.55 2.87.4.48-.14.78-.6.72-1.1-.07-.57-.44-1.04-.97-1.24z"/>
    <path fill="#EAF3FB" fill-rule="nonzero" d="M137 192.44s-.23-.13-.7.12c-.45.25-1 .57-.86 1 .13.43 1.42.33 1.7.24.28-.1.46-.37.43-.66-.05-.32-.27-.6-.57-.7z"/>
    <path fill="#FFF" fill-rule="nonzero" stroke="#52267D" d="M116.55 191.78s-.38-.2-1.16.2c-.8.4-1.73 1-1.5 1.74.25.74 2.4.55 2.9.4.47-.14.77-.6.7-1.1-.05-.57-.42-1.04-.95-1.24z"/>
    <path fill="#EAF3FB" fill-rule="nonzero" d="M116.7 192.06s-.24-.13-.7.12c-.46.25-1 .57-.87 1 .13.43 1.42.33 1.7.24.28-.1.46-.37.43-.66-.05-.32-.27-.6-.57-.7z"/>
    <path fill="#FFF" fill-rule="nonzero" stroke="#52267D" d="M118.9 191.3c.52-.04 1.22 1.08 1.12 1.4-.1.34-.18 1.45-1 1.55-.6.07-2.77.23-3.23-.25-.47-.48.48-2.42 3.1-2.7z"/>
    <path fill="#EAF3FB" fill-rule="nonzero" d="M119 191.62c.3 0 .7.63.66.83-.05.2-.1.85-.6.9-.47.07-1.63.15-1.9-.14-.27-.28.33-1.42 1.84-1.58z"/>
    <path fill="#FFF" fill-rule="nonzero" stroke="#52267D" stroke-width=".5" d="M160.4 192.32c-.7-.5-1.66-.4-2.26.2-1.2.92-2.12 2.38-1.6 2.54.78.24 1.6.3 2.4.2.86-.14 1.6.04 2-1.7.1-.5-.12-1-.55-1.24z"/>
    <path fill="#EAF3FB" fill-rule="nonzero" d="M160.17 192.6c-.43-.3-1.03-.26-1.4.12-.74.58-1.32 1.48-1 1.58.5.15 1 .2 1.5.12.53-.08 1 0 1.23-1.06.06-.3-.07-.6-.33-.76z"/>
    <path fill="#FFF" fill-rule="nonzero" stroke="#52267D" stroke-width=".5" d="M161.76 192.34c.5-.05 1.2 1.07 1.1 1.4-.1.33-.17 1.44-1 1.54-.6.07-2.76.23-3.22-.25-.46-.48.48-2.4 3.12-2.7z"/>
    <path fill="#EAF3FB" fill-rule="nonzero" d="M161.9 192.65c.3 0 .7.63.65.83-.05.2-.1.85-.6.9-.47.07-1.63.15-1.9-.14-.27-.3.3-1.42 1.84-1.6z"/>
    <path fill="#FFF" fill-rule="nonzero" stroke="#52267D" stroke-width=".5" d="M163.55 192.94s-.38-.2-1.16.2c-.8.4-1.73 1-1.5 1.74.25.74 2.4.55 2.9.4.47-.14.77-.6.7-1.1-.05-.57-.42-1.04-.95-1.24z"/>
    <path fill="#EAF3FB" fill-rule="nonzero" d="M163.68 193.22s-.23-.13-.7.12c-.45.25-1 .57-.86 1 .13.43 1.42.33 1.7.24.28-.1.46-.37.43-.66-.05-.32-.27-.6-.57-.7z"/>
    <path fill="#FFF" fill-rule="nonzero" stroke="#52267D" d="M125.56 192c.14-.13.34-.16.5-.08.6.3 2 1.12 1.7 2.17-.26.8-.76.54-1.72.53h-.73c-.14 0-.28-.1-.35-.22-.37-.8-.14-1.78.56-2.35l.06-.05z"/>
    <path fill="#EAF3FB" fill-rule="nonzero" d="M125.63 192.22c.1-.1.25-.12.37-.06.42.2 1.47.8 1.23 1.57-.2.6-.55.4-1.25.4h-.53c-.1 0-.2-.06-.26-.16-.28-.6-.12-1.3.4-1.7l.03-.05z"/>
    <path fill="#FFF" fill-rule="nonzero" stroke="#52267D" d="M122.17 191.56c-.65-.55-1.6-.55-2.25 0-1.27.82-2.3 2.2-1.8 2.4.75.3 1.56.44 2.37.4.84-.07 1.56.18 2.1-1.53.13-.47-.04-.98-.43-1.27z"/>
    <path fill="#EAF3FB" fill-rule="nonzero" d="M121.92 191.82c-.4-.34-1-.34-1.4 0-.8.5-1.44 1.36-1.12 1.5.47.18.98.26 1.48.23.53 0 1 .12 1.3-.95.1-.3-.02-.6-.26-.78z"/>
    <path stroke="#9ACDED" stroke-width="2" d="M120.58 55.76C110.88 38.72 59.43 5.1 59.43 5.1"/>
    <path fill="#FFF" fill-rule="nonzero" stroke="#375D81" stroke-width="2" d="M173.66 196.24H76.48c-1.1 0-2-.9-2-2V87.67c0-2.68 1.1-5.24 3-7.1L120.7 37.8c2.42-2.38 6.3-2.38 8.73 0l43.25 42.76c1.9 1.87 3 4.43 3 7.1v106.58c0 .53-.2 1.05-.6 1.42-.37.38-.9.6-1.42.58z"/>
    <circle cx="122.81" cy="118.73" r="24.73" fill="#EFEFF6" fill-rule="nonzero"/>
    <circle cx="125.81" cy="113.73" r="24.73" fill="#FFF" fill-rule="nonzero" stroke="#375D81" stroke-width="2"/>
    <path fill="#9452BA" fill-rule="nonzero" d="M132 125.93l.22.6c-.7-6.75 3.12-9.56 4.35-14v-.23l.06-.3c.07-1.5-.38-3-1.3-4.2l-.24-.36-.5-.7-.06-.06-.15-.2-.16-.18-.16-.2-.16-.2-.12-.13c-1.65-1.86-3.5-3.54-5.53-5 .28 2.36.3 4.74.07 7.1-.38 2.73-1.2 5.38-2.38 7.87-2.75-.2-5.44-.83-8-1.86-2.17-.97-4.23-2.18-6.14-3.6 0 .2 0 .42.07.63v.2c0 .15 0 .3.05.45.06.15 0 .14 0 .2l.07.46v.2c0 .18.06.37.1.55v.05c0 .22.08.43.12.65l.12.58v.12l.12.52v.1c0 .2.1.4.15.6.17.63.35 1.24.55 1.83.3.92.7 1.8 1.15 2.67l.2.34.17.3.2.3.26.36v.06c.1.13.2.25.32.37l.23.23.1.1.16.12.1.1.15.1.12.08.15.1.1.07.17.1.1.05.2.08h.08l.28.1.17.05c4.5 1.2 8.88-.7 14.38 3.23"/>
    <path stroke="#9ACDED" stroke-width="2" d="M97.23 160.64h55.68M97.23 175.34h55.68" stroke-linecap="round"/>
    <circle cx="125.07" cy="62.38" r="8" fill="#FFF" fill-rule="nonzero" stroke="#375D81" stroke-width="2"/>
    <path stroke="#9ACDED" stroke-width="2" d="M65 .22s2.1 9.12 4.93 12.24C75.6 18.68 83.07 25.08 90 36c12.3 19.38 19.52 38.13 30.42 27.76 1.46-1.4 2.38-5.17.7-7"/>
    <path stroke="#9ACDED" stroke-width="2" d="M74.25 15.8s-4.82 1.75-6.32 0c-1.5-1.73 8.13-9.25 6.32 0z"/>
  </g>
</svg>