<svg xmlns="http://www.w3.org/2000/svg" width="256" height="256">
  <g fill="none" fill-rule="evenodd">
    <path fill="#E1F2FF" fill-rule="nonzero" d="M25 228.56C25 171.36 71.37 125 128.56 125c57.2 0 103.56 46.37 103.56 103.56H25z"/>
    <g fill="#FFF" fill-rule="nonzero" stroke="#375D81" stroke-width="3" stroke-linecap="round" stroke-linejoin="round">
      <path d="M20 220h36M62 220h176.9M246 220h6.97M3 220h8.97M95 230h67.2M171 230h9.14M87 229l-5 .08"/>
    </g>
    <g stroke="#375D81" stroke-linecap="round">
      <path stroke-width="2" d="M206.98 68.4v7M210.48 71.9h-7M80 24v7M84 28h-7" stroke-linejoin="round"/>
      <path d="M42.73 188.68v3.94M44.7 190.65h-3.94"/>
      <path d="M217.73 128.68v3.94M219.7 130.65h-3.94" stroke-linejoin="round"/>
      <path d="M48.73 88.68v3.94M50.7 90.65h-3.94"/>
      <path fill="#FFF" fill-rule="nonzero" stroke-width="2" d="M26.42 127.28v8.12M30.48 131.34h-8.13"/>
    </g>
    <g transform="translate(44 26)">
      <rect width="116.18" height="116.18" fill="#FFF" fill-rule="nonzero" stroke="#375D81" stroke-width="2" rx="2"/>
      <rect width="91.97" height="91.97" x="12" y="12" fill="#FFF" fill-rule="nonzero" stroke="#E1F2FF" stroke-width="2" stroke-linejoin="round" rx="2" stroke-linecap="round" stroke-dasharray="50"/>
      <text fill="#375D81" font-family="Lato-Black, Lato" font-size="18" font-weight="700">
        <tspan x="51" y="96">O</tspan>
      </text>
      <text fill="#375D81" font-family="Lato-Black, Lato" font-size="18" font-weight="700">
        <tspan x="56" y="33">I</tspan>
      </text>
      <path fill="#FFF" fill-rule="nonzero" stroke="#375D81" stroke-width="2" d="M47 43h22v24H47z"/>
      <path fill="#E1F2FF" fill-rule="nonzero" stroke="#375D81" stroke-width="2" d="M47 67h22v9.38H47z"/>
      <path fill="#FFF" fill-rule="nonzero" stroke="#E1F2FF" stroke-width="2" d="M55 47h7.72" stroke-linecap="round" stroke-linejoin="round" stroke-dasharray="50"/>
    </g>
    <ellipse cx="96.5" cy="188.5" fill="#FFF" stroke="#375D81" stroke-width="4" rx="31.5" ry="30.5"/>
    <ellipse cx="97" cy="188.5" fill="#FFF" stroke="#375D81" stroke-width="3" rx="16" ry="15.5"/>
    <path fill="#9452BA" fill-rule="nonzero" d="M101.13 196.37c.06.2.13.33.14.38-.46-4.38 2.03-6.2 2.83-9.1v-.15l.04-.2c.05-.98-.25-1.94-.84-2.72l-.16-.24-.33-.45-.02-.06-.1-.12-.1-.12-.1-.13-.1-.13-.08-.1c-1.08-1.2-2.28-2.3-3.6-3.24.18 1.53.2 3.08.05 4.62-.25 1.77-.78 3.5-1.55 5.12-1.8-.14-3.54-.54-5.2-1.2-1.42-.64-2.76-1.43-4-2.35 0 .12 0 .26.05.4v.12c0 .1 0 .2.03.3.04.1 0 .08 0 .13l.05.3v.1c0 .13.04.26.07.37v.04c0 .14.05.28.07.42l.08.38v.07l.08.34v.07c0 .13.06.26.1.4.1.4.22.8.35 1.18.2.6.46 1.18.75 1.73l.13.23.1.18.14.2.17.23v.03c.07.1.14.17.2.24l.16.16.07.06.1.07.06.06.1.07.07.05.1.07.07.05.1.05.07.04.12.05h.05l.18.07.1.04c2.94.8 5.8-.44 9.36 2.1"/>
    <path stroke="#375D81" stroke-width="5" d="M180.5 95.97h-20.73c-9.27 0-13.5 11.26-13.5 23.65v39.5C146.27 177 127.5 174 123.5 174"/>
    <path fill="#375D81" stroke="#375D81" stroke-width="2" d="M202.52 93H194v-3h8.52c.57 0 1.04.47 1.04 1.04v.9c0 .58-.47 1.05-1.04 1.05zM202.52 102H194v-3h8.52c.57 0 1.04.47 1.04 1.04v.9c0 .58-.47 1.05-1.04 1.05z"/>
    <path fill="#375D81" stroke="#375D81" stroke-width="2" d="M183.07 84h9.53c.94 0 1.7.76 1.7 1.7v20.12c0 .94-.76 1.7-1.7 1.7h-9.53c-2.25 0-4.07-1.83-4.07-4.08V88.08c0-2.25 1.82-4.08 4.07-4.08z"/>
    <path fill="#375D81" d="M161.05 159.88l1.63-.18c.63-.07 1.3-.12 1.98-.16.7-.05 1.38-.1 2.07-.12.7-.03 1.36-.05 2-.05 1.7 0 3.3.17 4.8.5 1.53.35 2.86.93 4 1.76 1.16.83 2.07 1.92 2.75 3.3.67 1.35 1 3.06 1 5.12 0 2.14-.35 3.93-1.07 5.35-.7 1.43-1.66 2.57-2.84 3.43-1.2.86-2.53 1.47-4.03 1.82-1.5.35-3.04.53-4.6.53-.58 0-1.1 0-1.54-.03-.46 0-.94-.05-1.46-.1V193c-.74.1-1.52.14-2.35.14-.37 0-.76 0-1.18-.02-.4-.02-.8-.06-1.17-.12v-33.12zm4.7 17.07c.48.06.9.1 1.28.13.37.03.9.05 1.6.05.96 0 1.9-.1 2.84-.3.93-.2 1.77-.56 2.5-1.08.74-.52 1.33-1.23 1.78-2.14.44-.9.66-2.07.66-3.5 0-1.27-.18-2.32-.56-3.18-.4-.86-.92-1.55-1.6-2.07-.66-.52-1.48-.9-2.43-1.1-.94-.22-1.97-.33-3.07-.33-1.13 0-2.13.05-3 .14v13.4zm21.33-17.02c.37-.07.76-.1 1.15-.14.4-.04.8-.06 1.2-.06.4 0 .8.02 1.2.05.4.02.78.06 1.15.13v13.6h14.07v-13.6c.34-.07.7-.1 1.1-.14.4-.04.8-.06 1.2-.06.4 0 .8.02 1.22.05.42.02.8.06 1.17.13V193c-.33.06-.7.1-1.1.14-.4.03-.8.04-1.24.04-.4 0-.8 0-1.22-.04-.42-.03-.8-.08-1.13-.14v-15.32h-14.07V193c-.37.06-.75.1-1.13.14-.38.03-.8.04-1.22.04-.4 0-.8 0-1.22-.04-.4-.03-.78-.08-1.12-.14v-33.07zm31.56-.05l1.63-.18c.63-.07 1.3-.12 1.98-.16.7-.05 1.38-.1 2.07-.12.7-.03 1.36-.05 2-.05 1.7 0 3.3.17 4.8.5 1.53.35 2.86.93 4 1.76 1.16.83 2.07 1.92 2.75 3.3.67 1.35 1 3.06 1 5.12 0 2.14-.35 3.93-1.07 5.35-.72 1.43-1.67 2.57-2.85 3.43-1.18.86-2.53 1.47-4.03 1.82-1.5.35-3.03.53-4.6.53-.58 0-1.1 0-1.54-.03-.44 0-.93-.05-1.45-.1V193c-.73.1-1.52.14-2.34.14-.38 0-.77 0-1.2-.02-.4-.02-.8-.06-1.16-.12v-33.12zm4.7 17.07c.48.06.9.1 1.28.13.37.03.9.05 1.6.05.96 0 1.9-.1 2.84-.3.93-.2 1.77-.56 2.5-1.08.74-.52 1.33-1.23 1.78-2.14.44-.9.66-2.07.66-3.5 0-1.27-.2-2.32-.57-3.18-.38-.86-.9-1.55-1.6-2.07-.66-.52-1.48-.9-2.43-1.1-.95-.22-1.97-.33-3.08-.33-1.13 0-2.13.05-3 .14v13.4z"/>
  </g>
</svg>