<svg width="256" height="256" xmlns="http://www.w3.org/2000/svg">
  <g fill="none" fill-rule="evenodd">
    <path d="M23.204 223.392c0-57.193 46.364-103.558 103.558-103.558 57.193 0 103.557 46.365 103.557 103.558H23.204z" fill="#E1F2FF"/>
    <path d="M19.978 214.392h36" fill="#FFF"/>
    <path d="M19.978 214.392h36" stroke="#5E63B6" stroke-width="2" stroke-linecap="round" stroke-linejoin="round"/>
    <path d="M62.426 214.392H239.32" fill="#FFF"/>
    <path d="M62.426 214.392H239.32M206.978 61.4v7M210.478 64.9h-7" stroke="#5E63B6" stroke-width="2" stroke-linecap="round" stroke-linejoin="round"/>
    <path d="M42.728 181.682v3.938M44.697 183.65h-3.939" stroke="#5E63B6" stroke-linecap="round"/>
    <path d="M217.728 121.682v3.938M219.696 123.65h-3.938" stroke="#5E63B6" stroke-linecap="round" stroke-linejoin="round"/>
    <path d="M48.728 81.682v3.938M50.697 83.65h-3.939" stroke="#5E63B6" stroke-linecap="round"/>
    <path d="M26.415 120.275v8.125" fill="#FFF"/>
    <path d="M26.415 120.275v8.125" stroke="#5E63B6" stroke-width="2" stroke-linecap="round"/>
    <path d="M30.478 124.338h-8.125" fill="#FFF"/>
    <path d="M30.478 124.338h-8.125" stroke="#5E63B6" stroke-width="2" stroke-linecap="round"/>
    <path d="M246.166 214.15h6.974" fill="#FFF"/>
    <path d="M246.166 214.15h6.974" stroke="#5E63B6" stroke-width="2" stroke-linecap="round" stroke-linejoin="round"/>
    <path d="M3 214.15h8.973" fill="#FFF"/>
    <path d="M3 214.15h8.973" stroke="#5E63B6" stroke-width="2" stroke-linecap="round" stroke-linejoin="round"/>
    <path d="M95.382 223.467h67.187" fill="#FFF"/>
    <path d="M95.382 223.467h67.187" stroke="#5E63B6" stroke-width="2" stroke-linecap="round" stroke-linejoin="round"/>
    <path d="M171.187 223.467h9.142" fill="#FFF"/>
    <path d="M171.187 223.467h9.142" stroke="#5E63B6" stroke-width="2" stroke-linecap="round" stroke-linejoin="round"/>
    <path d="M87.5 223.392l-5 .075" fill="#FFF"/>
    <path d="M87.5 223.392l-5 .075" stroke="#5E63B6" stroke-width="2" stroke-linecap="round" stroke-linejoin="round"/>
    <path d="M148.257 212.804l4.977.146a4.172 4.172 0 0 0 3.961-2.53c1.9-4.497 1.581-8.69 1.896-12.257.585-6.611-.35-10.034-1.176-15.601l-7.476-.045s.554 2.769.737 11.037c.057 2.558-4.464 12.693-4.413 17.732a1.535 1.535 0 0 0 1.494 1.518" fill="#9452BA"/>
    <path d="M148.257 212.804l4.977.146a4.172 4.172 0 0 0 3.961-2.53c1.9-4.497 1.581-8.69 1.896-12.257.585-6.611-.35-10.034-1.176-15.601l-7.476-.045s.554 2.769.737 11.037c.057 2.558-4.464 12.693-4.413 17.732a1.535 1.535 0 0 0 1.494 1.518z" stroke="#52267D" stroke-width="2"/>
    <path d="M134.46 188.722l-5.812-6.99-3.713.039s-.687 5.654-.97 8.02c-.498 4.174-2.47 12.322-3.64 15.889-.382 1.16-.615 2.248-.7 3.238-.143 1.666 1.21 3.085 2.881 3.134l4.41.129c2.566.075 4.9-1.572 5.604-4.043 2.191-7.692 1.94-19.416 1.94-19.416" fill="#9452BA"/>
    <path d="M134.46 188.722l-5.812-6.99-3.713.039s-.687 5.654-.97 8.02c-.498 4.174-2.47 12.322-3.64 15.889-.382 1.16-.615 2.248-.7 3.238-.143 1.666 1.21 3.085 2.881 3.134l4.41.129c2.566.075 4.9-1.572 5.604-4.043 2.191-7.692 1.94-19.416 1.94-19.416z" stroke="#52267D" stroke-width="2"/>
    <path stroke="#52267D" stroke-width=".5" d="M125.872 193.174l-1.017.842.923.882 1.563-.548-.29-.687-1.29.266.004.23.333-.006"/>
    <path d="M126.786 163.1c4.38.039 8.57-2.855 17.516-3.007.145-.58.318-1.102.53-1.53 1.72-3.452 4.295-13.473 3.023-20.142l-1.007-5.277c-.33-1.73-.47-3.493-.418-5.255a10.656 10.656 0 0 1 .412-2.647 10.55 10.55 0 0 1 1.885-3.653 10.67 10.67 0 0 1 3.087-2.643 10.574 10.574 0 0 1 5.558-1.378l1.743.05a10.597 10.597 0 0 1 8.092 4.109c.38.488.715 1.013 1.006 1.563a10.502 10.502 0 0 1 .51 1.108 10.66 10.66 0 0 1 .714 4.163 2.648 2.648 0 0 1-2.728 2.573l-10.885-.318 1.371 9.496c1.651 9.763.88 16.236-.744 20.519-.362.956-2.363 4.319-2.363 4.319 5.192 8.748 13.43 12.746 22.323 14.097 7.561 1.147 24.143-5.293 15.932-13.545-8.212-8.251 1.847-2.976 3.32-1.92 1.473 1.058 9.94 8.817.191 19.553-4.122 4.54-8.76 8.642-19.72 11.57-1.758.469-11.286.884-16.448 2.204-15.367 3.929-27.617-1.19-34.265-11.451-6.622-10.221-.365-22.573 1.365-22.557" fill="#9452BA"/>
    <path d="M126.786 163.1c4.38.039 8.57-2.855 17.516-3.007.145-.58.318-1.102.53-1.53 1.72-3.452 4.295-13.473 3.023-20.142l-1.007-5.277c-.33-1.73-.47-3.493-.418-5.255a10.656 10.656 0 0 1 .412-2.647 10.55 10.55 0 0 1 1.885-3.653 10.67 10.67 0 0 1 3.087-2.643 10.574 10.574 0 0 1 5.558-1.378l1.743.05a10.597 10.597 0 0 1 8.092 4.109c.38.488.715 1.013 1.006 1.563a10.502 10.502 0 0 1 .51 1.108 10.66 10.66 0 0 1 .714 4.163 2.648 2.648 0 0 1-2.728 2.573l-10.885-.318 1.371 9.496c1.651 9.763.88 16.236-.744 20.519-.362.956-2.363 4.319-2.363 4.319 5.192 8.748 13.43 12.746 22.323 14.097 7.561 1.147 24.143-5.293 15.932-13.545-8.212-8.251 1.847-2.976 3.32-1.92 1.473 1.058 9.94 8.817.191 19.553-4.122 4.54-8.76 8.642-19.72 11.57-1.758.469-11.286.884-16.448 2.204-15.367 3.929-27.617-1.19-34.265-11.451-6.622-10.221-.365-22.573 1.365-22.557z" stroke="#52267D" stroke-width="2"/>
    <path d="M136.663 148.912c.68-11.245-7.996-20.35-18.094-22.517-2.096-.449-2.762-1.13-5.068-1.198l-1.767-.052c-5.949-.173-10.912 4.508-11.086 10.457a2.686 2.686 0 0 0 2.608 2.764s18.111.524 18.196.52l1.477.043c-.002.002-1.479-.04-1.48-.038 3.955 1.817 6.298 7.008 6.657 9.771.512 3.936-.04 7.152-1.454 9.727-.94 1.714-1.102 3.808-1.015 5.51l.102.038c.036.91.153 1.947.39 3.133 1.74-1.138 4.444-2.849 4.936-3.092 1.063-.52 3.462-1.71 4.536-2.285 6.871-3.676.677-6.385 1.062-12.78" fill="#9452BA"/>
    <path d="M136.663 148.912c.68-11.245-7.996-20.35-18.094-22.517-2.096-.449-2.762-1.13-5.068-1.198l-1.767-.052c-5.949-.173-10.912 4.508-11.086 10.457a2.686 2.686 0 0 0 2.608 2.764s18.111.524 18.196.52l1.477.043c-.002.002-1.479-.04-1.48-.038 3.955 1.817 6.298 7.008 6.657 9.771.512 3.936-.04 7.152-1.454 9.727-.94 1.714-1.102 3.808-1.015 5.51l.102.038c.036.91.153 1.947.39 3.133 1.74-1.138 4.444-2.849 4.936-3.092 1.063-.52 3.462-1.71 4.536-2.285 6.871-3.676.677-6.385 1.062-12.78z" stroke="#52267D" stroke-width="2"/>
    <path d="M130.516 161.748c-.038-1.74-.278-2.64-.062-3.342 1.24-4.039 1.643-5.313 1.769-9.624.125-4.283-2.232-8.589-5.831-10.947-.197-.13-2.83-.393-4.943 1.056 3.956 1.817 6.298 7.008 6.658 9.771.512 3.936-.042 7.153-1.454 9.727-.941 1.714-1.103 3.808-1.016 5.51 0 0 4.86 1.99 4.879-2.15" fill="#F3E3FF"/>
    <path d="M130.516 161.748c-.038-1.74-.278-2.64-.062-3.342 1.24-4.039 1.643-5.313 1.769-9.624.125-4.283-2.232-8.589-5.831-10.947-.197-.13-2.83-.393-4.943 1.056 3.956 1.817 6.298 7.008 6.658 9.771.512 3.936-.042 7.153-1.454 9.727-.941 1.714-1.103 3.808-1.016 5.51 0 0 4.86 1.99 4.879-2.15" stroke="#52267D"/>
    <path d="M106.03 126.81s.05-1.88 1.94-2.573c.579-.212 1.632-.605 1.632-.605s1.044 2.387-.234 2.944c-1.84.8-3.338.235-3.338.235" fill="#FFF"/>
    <path d="M106.03 126.81s.05-1.88 1.94-2.573c.579-.212 1.632-.605 1.632-.605s1.044 2.387-.234 2.944c-1.84.8-3.338.235-3.338.235z" stroke="#52267D"/>
    <path d="M110.747 125.624s.128-2.562 3.022-2.85c.541-.055 1.943.02 1.943.02s.568 2.731-.96 2.947c-1.878.266-4.005-.117-4.005-.117" fill="#FFF"/>
    <path d="M110.747 125.624s.128-2.562 3.022-2.85c.541-.055 1.943.02 1.943.02s.568 2.731-.96 2.947c-1.878.266-4.005-.117-4.005-.117z" stroke="#52267D"/>
    <path d="M116.474 126.037s.463-2.83 2.993-1.976a3.569 3.569 0 0 1 1.663 1.212s-.571 2.151-1.58 1.877c-1.762-.476-3.076-1.113-3.076-1.113" fill="#FFF"/>
    <path d="M116.474 126.037s.463-2.83 2.993-1.976a3.569 3.569 0 0 1 1.663 1.212s-.571 2.151-1.58 1.877c-1.762-.476-3.076-1.113-3.076-1.113z" stroke="#52267D"/>
    <path d="M123.487 140.053s6.048-3.062 5.074-8.541c.772.674 2.826 2.722 3.564 3.76-.032 1.066.04 5.306-5.89 7.97-.995-1.096-1.823-2.451-2.748-3.19" fill="#FFF"/>
    <path d="M123.487 140.053s6.048-3.062 5.074-8.541c.772.674 2.826 2.722 3.564 3.76-.032 1.066.04 5.306-5.89 7.97-.995-1.096-1.823-2.451-2.748-3.19z" stroke="#52267D"/>
    <path d="M106.855 126.316s.026-.974 1.005-1.332c.299-.109.845-.314.845-.314s.54 1.236-.121 1.524c-.954.415-1.73.122-1.73.122M111.995 125.08s.065-1.306 1.541-1.453c.275-.027.99.011.99.011s.29 1.392-.489 1.502c-.958.135-2.042-.06-2.042-.06M117.398 125.86s.246-1.503 1.589-1.049c.573.194.882.643.882.643s-.303 1.14-.838.996c-.935-.253-1.633-.59-1.633-.59M115.543 136.92l-5.443-.158a4.966 4.966 0 0 1 5.11-4.82l.478.014a2.484 2.484 0 0 1-.145 4.964" fill="#F3E3FF"/>
    <path d="M115.087 136.814l-4.89-.143a3.902 3.902 0 0 1 4.013-3.786l.991.029a1.951 1.951 0 0 1-.114 3.9" fill="#FFF"/>
    <path d="M115.087 136.814l-4.89-.143a3.902 3.902 0 0 1 4.013-3.786l.991.029a1.951 1.951 0 0 1-.114 3.9z" stroke="#52267D"/>
    <path d="M111.114 135.632a1.09 1.09 0 1 0 2.178.062 1.09 1.09 0 0 0-2.178-.062M103.03 137.541c.313-.058.594-.222.799-.464l.378-.448-.819.15-.482.09a.341.341 0 1 0 .124.672" fill="#52267D"/>
    <path d="M124.49 140.19s4.657-2.336 4.732-7.312c1.928 1.494 2.435 2.437 2.435 2.437s-.412 2.358-1.55 3.521c-1.747 1.785-3.527 2.297-5.618 1.354" fill="#E1F2FF"/>
    <path d="M128.856 139.443s-1.861 1.787-3.651 2.617" fill="#FFF"/>
    <path d="M128.856 139.443s-1.861 1.787-3.651 2.617" stroke="#52267D"/>
    <path d="M146.275 159.309l-.963-2.046c-3.541-9.49-3.97-15.013-1.728-23.905l1.312-5.21a24.22 24.22 0 0 0 .725-5.221c.172-5.872-4.45-10.771-10.322-10.943l-1.716-.05c-5.792-.17-10.624 4.389-10.793 10.18l-.01.3a2.498 2.498 0 0 0 2.423 2.57l10.869.317-1.923 9.4c-5.784 25.172-5.578 35.453 4.41 33.632" fill="#9452BA"/>
    <path d="M146.275 159.309l-.963-2.046c-3.541-9.49-3.97-15.013-1.728-23.905l1.312-5.21a24.22 24.22 0 0 0 .725-5.221c.172-5.872-4.45-10.771-10.322-10.943l-1.716-.05c-5.792-.17-10.624 4.389-10.793 10.18l-.01.3a2.498 2.498 0 0 0 2.423 2.57l10.869.317-1.923 9.4c-5.784 25.172-5.578 35.453 4.41 33.632" stroke="#52267D" stroke-width="2"/>
    <path d="M128.3 113.038s.228-1.837 2.08-2.517c.565-.207 1.434.057 1.434.057s1.008 1.685-.244 2.23c-1.803.785-3.27.23-3.27.23" fill="#FFF"/>
    <path d="M128.3 113.038s.228-1.837 2.08-2.517c.565-.207 1.434.057 1.434.057s1.008 1.685-.244 2.23c-1.803.785-3.27.23-3.27.23z" stroke="#52267D"/>
    <path d="M132.677 112.558s.145-2.9 3.423-3.23c.611-.06 1.391.023 1.391.023s1.452 3.095-.279 3.34c-2.127.3-4.535-.133-4.535-.133" fill="#FFF"/>
    <path d="M132.677 112.558s.145-2.9 3.423-3.23c.611-.06 1.391.023 1.391.023s1.452 3.095-.279 3.34c-2.127.3-4.535-.133-4.535-.133z" stroke="#52267D"/>
    <path d="M138.5 113.389s.523-2.762 2.981-1.86c1.05.385 1.598 1.229 1.598 1.229s-.613 2.09-1.595 1.799c-1.713-.511-2.984-1.168-2.984-1.168" fill="#FFF"/>
    <path d="M138.5 113.389s.523-2.762 2.981-1.86c1.05.385 1.598 1.229 1.598 1.229s-.613 2.09-1.595 1.799c-1.713-.511-2.984-1.168-2.984-1.168z" stroke="#52267D"/>
    <path d="M127.024 162.772a4.95 4.95 0 0 1 1.812-.81" fill="#F3E3FF"/>
    <path d="M127.024 162.772a4.95 4.95 0 0 1 1.812-.81" stroke="#52267D"/>
    <path d="M130.625 162.82c-1.566-7.272 2.042-20.98 2.73-24.359l2.731-13.542 1.022.03c1.296.038 2.237 1.474 2.015 2.754l-2.036 11.756c-.689 3.98-1.824 22.47 5.005 26.648 1.456.892 3.882.405 4.802 0 3.346-1.48 4.416-5.57 5.236-8.866 1.698-6.823.688-12.248.515-17.64l-.152-6.745c-.027-1.219.98-2.482 2.195-2.447l1.242.036 1.838 13.675c.558 3.895 1.896 17.386-6.207 23.455-.147.11 1.91.633 1.278 1.676-2.505 4.14-9.426 4.604-10.778 6.37-5.207 6.795-.953 21.72-.953 21.72s-5.489-2.378-8.839-5.562c-7.833-7.443-8.549-17.915-8.497-20.99.063-3.679 1.095-5.932 2.325-7.259" fill="#F3E3FF"/>
    <path d="M130.625 162.82c-1.566-7.272 2.042-20.98 2.73-24.359l2.731-13.542 1.022.03c1.296.038 2.237 1.474 2.015 2.754l-2.036 11.756c-.689 3.98-1.824 22.47 5.005 26.648 1.456.892 3.882.405 4.802 0 3.346-1.48 4.416-5.57 5.236-8.866 1.698-6.823.688-12.248.515-17.64l-.152-6.745c-.027-1.219.98-2.482 2.195-2.447l1.242.036 1.838 13.675c.558 3.895 1.896 17.386-6.207 23.455-.147.11 1.91.633 1.278 1.676-2.505 4.14-9.426 4.604-10.778 6.37-5.207 6.795-.953 21.72-.953 21.72s-5.489-2.378-8.839-5.562c-7.833-7.443-8.549-17.915-8.497-20.99.063-3.679 1.095-5.932 2.325-7.259" stroke="#52267D"/>
    <path d="M195.736 170.747s1.18-1.232.587-2.95c-.181-.525-.874-.99-.874-.99s-1.79.258-1.451 1.47c.488 1.744 1.738 2.47 1.738 2.47" fill="#FFF"/>
    <path d="M195.736 170.747s1.18-1.232.587-2.95c-.181-.525-.874-.99-.874-.99s-1.79.258-1.451 1.47c.488 1.744 1.738 2.47 1.738 2.47z" stroke="#52267D"/>
    <path d="M195.41 168.978s.412-.432.204-1.034c-.063-.185-.307-.348-.307-.348s-.627.09-.508.516c.172.612.61.866.61.866" fill="#F3E3FF"/>
    <path d="M186.114 179.538s-1.013-2.507 1.629-4.067c.492-.29 1.184-.527 1.184-.527s2.436 2.046 1.07 2.931c-1.679 1.087-3.883 1.663-3.883 1.663" fill="#FFF"/>
    <path d="M186.114 179.538s-1.013-2.507 1.629-4.067c.492-.29 1.184-.527 1.184-.527s2.436 2.046 1.07 2.931c-1.679 1.087-3.883 1.663-3.883 1.663z" stroke="#52267D"/>
    <path d="M187.045 178.633s-.562-1.39.902-2.255c.274-.162.658-.292.658-.292s1.351 1.135.593 1.625c-.93.603-2.153.922-2.153.922" fill="#F3E3FF"/>
    <path d="M194.266 171.661s1.83 1.705-.015 3.128c-.788.608-1.683.621-1.683.621s-1.284-1.455-.6-2.056a17.022 17.022 0 0 1 2.298-1.693" fill="#FFF"/>
    <path d="M194.266 171.661s1.83 1.705-.015 3.128c-.788.608-1.683.621-1.683.621s-1.284-1.455-.6-2.056a17.022 17.022 0 0 1 2.298-1.693z" stroke="#52267D"/>
    <path d="M193.958 172.823s.812.755-.006 1.386c-.349.268-.746.274-.746.274s-.569-.644-.266-.91c.532-.464 1.018-.75 1.018-.75" fill="#F3E3FF"/>
    <path d="M177.059 180.577s-.556-2.222 1.896-3.026c2.45-.804 3.08-.057 3.08-.057s1.277 2.297.056 2.99c-1.22.691-5.032.093-5.032.093" fill="#FFF"/>
    <path d="M177.059 180.577s-.556-2.222 1.896-3.026c2.45-.804 3.08-.057 3.08-.057s1.277 2.297.056 2.99c-1.22.691-5.032.093-5.032.093z" stroke="#52267D"/>
    <path d="M178.211 180.11s-.288-1.156.986-1.574c1.275-.418 1.603-.03 1.603-.03s.663 1.195.028 1.554c-.634.361-2.617.05-2.617.05" fill="#F3E3FF"/>
    <path d="M135.46 128.223s3.808 2.302 9.308.485c-.423 1.678-1.283 5.048-1.283 5.048s-5.088 1.4-8.906-1.162c.464-2.227.88-4.371.88-4.371" fill="#FFF"/>
    <path d="M135.46 128.223s3.808 2.302 9.308.485c-.423 1.678-1.283 5.048-1.283 5.048s-5.088 1.4-8.906-1.162c.464-2.227.88-4.371.88-4.371z" stroke="#52267D"/>
    <path d="M164.714 119.231s-.122-1.861-1.945-2.652c-.557-.243-2.075-.348-2.075-.348s-.484 1.954.744 2.577c1.767.895 3.276.423 3.276.423" fill="#FFF"/>
    <path d="M164.714 119.231s-.122-1.861-1.945-2.652c-.557-.243-2.075-.348-2.075-.348s-.484 1.954.744 2.577c1.767.895 3.276.423 3.276.423z" stroke="#52267D"/>
    <path d="M160.06 118.147s.022-2.532-2.813-2.984c-.53-.084-1.212-.051-1.212-.051s-1.42 2.619.073 2.92c1.836.37 3.953.115 3.953.115" fill="#FFF"/>
    <path d="M160.06 118.147s.022-2.532-2.813-2.984c-.53-.084-1.212-.051-1.212-.051s-1.42 2.619.073 2.92c1.836.37 3.953.115 3.953.115z" stroke="#52267D"/>
    <path d="M154.664 118.173s-.364-2.81-2.89-2.047c-1.078.326-1.679 1.143-1.679 1.143s.494 2.138 1.498 1.902c1.753-.413 3.071-.998 3.071-.998" fill="#FFF"/>
    <path d="M154.664 118.173s-.364-2.81-2.89-2.047c-1.078.326-1.679 1.143-1.679 1.143s.494 2.138 1.498 1.902c1.753-.413 3.071-.998 3.071-.998z" stroke="#52267D"/>
    <path d="M129.272 112.6s.122-.98 1.11-1.344c.303-.11.767.03.767.03s.539.9-.13 1.192c-.963.419-1.747.123-1.747.123M133.766 112.102s.09-1.82 2.146-2.024c.383-.04.873.013.873.013s.91 1.94-.175 2.094c-1.334.188-2.844-.083-2.844-.083M139.586 113.142s.302-1.594 1.721-1.074c.605.222.922.709.922.709s-.355 1.207-.92 1.038c-.99-.294-1.723-.673-1.723-.673M163.812 118.73s-.064-.984-1.028-1.403c-.294-.126-1.097-.183-1.097-.183s-.256 1.032.393 1.361c.934.475 1.732.226 1.732.226M158.97 117.668s.012-1.399-1.557-1.649c-.292-.047-.67-.029-.67-.029s-.785 1.448.041 1.615c1.015.204 2.186.063 2.186.063M153.675 117.953s-.2-1.536-1.581-1.119c-.59.178-.919.625-.919.625s.271 1.17.819 1.041a10.541 10.541 0 0 0 1.681-.547" fill="#F3E3FF"/>
    <path d="M146.889 133.355s4.772.888 9.365-.1c.372 2.492.603 4.37.603 4.37s-3.226 2.055-9.031.64c-.597-3.202-.937-4.91-.937-4.91" fill="#FFF"/>
    <path d="M146.889 133.355s4.772.888 9.365-.1c.372 2.492.603 4.37.603 4.37s-3.226 2.055-9.031.64c-.597-3.202-.937-4.91-.937-4.91z" stroke="#52267D"/>
    <path d="M154.96 128.77l5.442.16a4.966 4.966 0 0 0-4.819-5.11l-.478-.013a2.483 2.483 0 1 0-.146 4.964" fill="#F3E3FF"/>
    <path d="M155.558 128.694l4.754.14a3.903 3.903 0 0 0-3.786-4.015l-1.13-.032a1.812 1.812 0 0 0-1.864 1.76 2.087 2.087 0 0 0 2.026 2.147" fill="#FFF"/>
    <path d="M155.558 128.694l4.754.14a3.903 3.903 0 0 0-3.786-4.015l-1.13-.032a1.812 1.812 0 0 0-1.864 1.76 2.087 2.087 0 0 0 2.026 2.147z" stroke="#52267D"/>
    <path d="M159.116 126.552a1.09 1.09 0 1 1-2.18-.065 1.09 1.09 0 0 1 2.18.065" fill="#52267D"/>
    <path d="M136.262 123.515l-5.443-.16a4.968 4.968 0 0 1 5.109-4.82l.479.016a2.483 2.483 0 1 1-.145 4.964" fill="#F3E3FF"/>
    <path d="M135.806 123.408l-4.891-.144a3.903 3.903 0 0 1 4.014-3.786l.99.03a1.951 1.951 0 0 1-.114 3.9" fill="#FFF"/>
    <path d="M135.806 123.408l-4.891-.144a3.903 3.903 0 0 1 4.014-3.786l.99.03a1.951 1.951 0 0 1-.114 3.9z" stroke="#52267D"/>
    <path d="M134.52 122.214a1.089 1.089 0 1 0 2.177.065 1.089 1.089 0 0 0-2.177-.065M166.927 130.254a1.378 1.378 0 0 1-.77-.51l-.351-.47.809.199.475.117a.34.34 0 0 1 .25.413.34.34 0 0 1-.413.25M125.088 123.934c.312-.058.593-.221.798-.463l.378-.448-.819.15-.48.089a.342.342 0 0 0 .124.672" fill="#52267D"/>
    <path d="M135.904 128.943s4.007 1.847 8.144.387c-.499 2.387-.917 3.601-.917 3.601s-2.466.074-4.087-.296c-2.316-.526-3.202-1.61-3.14-3.692" fill="#E1F2FF"/>
    <path d="M141.458 132.186s-3.7.199-6.515-1.365" fill="#FFF"/>
    <path d="M141.458 132.186s-3.7.199-6.515-1.365" stroke="#52267D"/>
    <path d="M154.47 134.117s-3.627.918-6.783.19c.53 2.381.826 3.131.826 3.131s4.78-.496 5.958-3.32" fill="#E1F2FF"/>
    <path d="M151.56 167.626s-.223.15-.537.327" fill="#F3E3FF"/>
    <path d="M151.56 167.626s-.223.15-.537.327" stroke="#52267D" stroke-width=".5"/>
    <path d="M154.779 135.488s-3.643.58-7.475.01" fill="#FFF"/>
    <path d="M154.779 135.488s-3.643.58-7.475.01" stroke="#52267D"/>
    <path d="M146.666 209.833s-.937-.811-2.245.201c-1.195.924-2.116 2.379-1.598 2.543a5.565 5.565 0 0 0 2.407.188c.846-.13 1.584.053 1.973-1.697.182-.815-.537-1.235-.537-1.235" fill="#FFF"/>
    <path d="M146.666 209.833s-.937-.811-2.245.201c-1.195.924-2.116 2.379-1.598 2.543a5.565 5.565 0 0 0 2.407.188c.846-.13 1.584.053 1.973-1.697.182-.815-.537-1.235-.537-1.235z" stroke="#52267D" stroke-width=".5"/>
    <path d="M146.439 210.112s-.583-.505-1.397.125c-.744.575-1.316 1.48-.994 1.583.323.102.893.21 1.498.116.526-.08.986.033 1.228-1.055.112-.508-.335-.769-.335-.769" fill="#E1F2FF"/>
    <path d="M148.03 209.856c.51-.053 1.208 1.07 1.115 1.404-.094.334-.183 1.442-1.008 1.538-.607.072-2.773.233-3.23-.25-.423-.445.486-2.417 3.123-2.692" fill="#FFF"/>
    <path d="M148.03 209.856c.51-.053 1.208 1.07 1.115 1.404-.094.334-.183 1.442-1.008 1.538-.607.072-2.773.233-3.23-.25-.423-.445.486-2.417 3.123-2.692z" stroke="#52267D" stroke-width=".5"/>
    <path d="M148.163 210.165c.301-.03.714.632.658.83-.054.196-.108.85-.595.907-.358.042-1.636.137-1.906-.147-.249-.263.287-1.427 1.843-1.59" fill="#E1F2FF"/>
    <path d="M150.172 210.133s-.432-.241-1.314.229c-.78.417-1.946 1.084-1.67 1.965.276.88 2.71.627 3.253.459.543-.17.9-.746.82-1.261-.176-1.126-1.089-1.392-1.089-1.392" fill="#FFF"/>
    <path d="M150.172 210.133s-.432-.241-1.314.229c-.78.417-1.946 1.084-1.67 1.965.276.88 2.71.627 3.253.459.543-.17.9-.746.82-1.261-.176-1.126-1.089-1.392-1.089-1.392z" stroke="#52267D" stroke-width=".5"/>
    <path d="M150.327 210.446s-.256-.143-.778.136c-.462.247-1.152.642-.989 1.164.163.521 1.604.371 1.926.271.322-.1.533-.44.486-.747-.104-.667-.645-.824-.645-.824" fill="#E1F2FF"/>
    <path d="M140.85 182.035s.33 5.63-1.355 14.415c-1.57 8.177-4 10.686-3.89 12.82.086 1.655.738 3.186 2.393 3.234l4.939.144a5.362 5.362 0 0 0 5.186-3.507c.649-1.74 1.34-4.115 1.799-7.128.5-4.104.539-8.234.54-10.659" fill="#9452BA"/>
    <path d="M140.85 182.035s.33 5.63-1.355 14.415c-1.57 8.177-4 10.686-3.89 12.82.086 1.655.738 3.186 2.393 3.234l4.939.144a5.362 5.362 0 0 0 5.186-3.507c.649-1.74 1.34-4.115 1.799-7.128.5-4.104.539-8.234.54-10.659" stroke="#52267D" stroke-width="2"/>
    <path d="M166.063 186.49c-1.677 1.36-2.593 3.641-2.642 5.76-.065 2.83 1.47 6.477.293 11.148-1.048 4.16-2.915 4.845-2.47 8.617.082.682.676 1.187 1.362 1.207l5.503.162a5.193 5.193 0 0 0 5.242-4.187c1.3-6.64.64-12.962-.108-17.82" fill="#9452BA"/>
    <path d="M166.063 186.49c-1.677 1.36-2.593 3.641-2.642 5.76-.065 2.83 1.47 6.477.293 11.148-1.048 4.16-2.915 4.845-2.47 8.617.082.682.676 1.187 1.362 1.207l5.503.162a5.193 5.193 0 0 0 5.242-4.187c1.3-6.64.64-12.962-.108-17.82" stroke="#52267D" stroke-width="2"/>
    <path stroke="#52267D" stroke-width=".5" d="M166.961 192.755l.331-.224 1.04.267-1.185.707-1.378-.73 1.487-1.12.654.242"/>
    <path d="M136.677 209.542s-.938-.812-2.246.2c-1.194.924-2.115 2.38-1.597 2.544a5.562 5.562 0 0 0 2.406.187c.846-.13 1.585.054 1.974-1.697.181-.815-.537-1.234-.537-1.234" fill="#FFF"/>
    <path d="M136.677 209.542s-.938-.812-2.246.2c-1.194.924-2.115 2.38-1.597 2.544a5.562 5.562 0 0 0 2.406.187c.846-.13 1.585.054 1.974-1.697.181-.815-.537-1.234-.537-1.234z" stroke="#52267D"/>
    <path d="M136.45 209.82s-.585-.505-1.398.125c-.744.575-1.317 1.48-.994 1.583.323.103.893.21 1.497.116.527-.08.986.034 1.228-1.055.113-.507-.334-.769-.334-.769" fill="#E1F2FF"/>
    <path stroke="#52267D" stroke-width=".5" d="M144.655 195.21l-1.984.556.207 1.83 2.01.206.97-1.058-1.188-.704-1.005.261.614.723"/>
    <g stroke="#F3E3FF" stroke-width=".25">
      <path d="M104.255 133.973a.537.537 0 0 0 1.071.03M103.184 133.941a.537.537 0 0 0 .52.552.537.537 0 0 0 .55-.52M103.704 134.493a.535.535 0 1 0 1.07.031M124.791 134.07a.79.79 0 1 0 .872-1.316M125.014 135.165a.79.79 0 0 0 .872-1.317M149.683 152.805a.718.718 0 0 0 1.437.042M148.246 152.763a.718.718 0 1 0 1.437.042M148.944 153.502a.718.718 0 1 0 1.437.042M126.899 197.69a.718.718 0 0 0 1.437.042M125.462 197.649a.718.718 0 0 0 1.437.042M126.16 198.388a.718.718 0 0 0 1.436.042M149.238 129.877a.789.789 0 1 0 1.578.047M148.426 130.644a.788.788 0 1 0 1.578.046M138.741 143.524a.958.958 0 1 0 1.918.055M137.754 144.455a.959.959 0 0 0 1.92.056M125.506 119.27a.643.643 0 0 0 1.283.038M124.846 119.893a.641.641 0 0 0 1.283.038M183.996 185.71a.738.738 0 1 0 1.154-.922M183.88 186.75a.74.74 0 0 0 1.154-.924M154.938 174.656a.867.867 0 0 0 1.598-.673M153.34 175.33a.866.866 0 0 0 1.598-.674M154.475 175.791a.868.868 0 0 0 1.598-.673M152.877 176.465a.867.867 0 0 0 1.598-.674M155.61 176.254a.868.868 0 0 0 1.598-.673M141.251 126.22a.875.875 0 0 0 1.75.052M139.984 159.25a.875.875 0 0 0 1.749.051M150.424 141.327a.663.663 0 1 0 1.325.038M166.636 126.736a.497.497 0 1 0 .993.03M168.637 199.928a.874.874 0 1 0 1.73-.25M144.298 205.662a.959.959 0 1 0 1.918.056M143.31 206.593a.96.96 0 1 0 1.919.056"/>
    </g>
    <path d="M138.04 209.565c.51-.054 1.21 1.07 1.115 1.404-.093.333-.183 1.442-1.008 1.537-.608.072-2.773.233-3.23-.25-.422-.445.486-2.417 3.123-2.691" fill="#FFF"/>
    <path d="M138.04 209.565c.51-.054 1.21 1.07 1.115 1.404-.093.333-.183 1.442-1.008 1.537-.608.072-2.773.233-3.23-.25-.422-.445.486-2.417 3.123-2.691z" stroke="#52267D"/>
    <path d="M138.174 209.874c.301-.03.713.632.658.828-.055.197-.108.852-.596.908-.358.042-1.635.138-1.906-.147-.248-.263.288-1.427 1.844-1.589" fill="#E1F2FF"/>
    <path d="M139.828 210.16s-.382-.215-1.163.202c-.69.368-1.72.96-1.476 1.737.244.78 2.396.555 2.876.406.482-.149.796-.659.725-1.116-.154-.996-.962-1.23-.962-1.23" fill="#FFF"/>
    <path d="M139.828 210.16s-.382-.215-1.163.202c-.69.368-1.72.96-1.476 1.737.244.78 2.396.555 2.876.406.482-.149.796-.659.725-1.116-.154-.996-.962-1.23-.962-1.23z" stroke="#52267D"/>
    <path d="M139.966 210.437s-.227-.127-.688.12c-.409.218-1.019.567-.874 1.029.144.46 1.417.329 1.703.24.285-.088.47-.39.428-.66-.09-.59-.569-.73-.569-.73" fill="#E1F2FF"/>
    <path d="M119.552 209.781s-.382-.214-1.162.203c-.69.368-1.721.96-1.477 1.737.244.78 2.396.555 2.877.406.481-.149.795-.659.725-1.116-.155-.996-.963-1.23-.963-1.23" fill="#FFF"/>
    <path d="M119.552 209.781s-.382-.214-1.162.203c-.69.368-1.721.96-1.477 1.737.244.78 2.396.555 2.877.406.481-.149.795-.659.725-1.116-.155-.996-.963-1.23-.963-1.23z" stroke="#52267D"/>
    <path d="M119.69 210.059s-.227-.127-.688.12c-.41.218-1.02.567-.874 1.029.144.46 1.418.329 1.703.24.285-.088.47-.39.429-.66-.091-.59-.57-.73-.57-.73" fill="#E1F2FF"/>
    <path d="M121.912 209.307c.51-.053 1.208 1.07 1.115 1.404-.094.334-.183 1.443-1.009 1.539-.607.072-2.772.233-3.23-.25-.422-.445.487-2.418 3.124-2.693" fill="#FFF"/>
    <path d="M121.912 209.307c.51-.053 1.208 1.07 1.115 1.404-.094.334-.183 1.443-1.009 1.539-.607.072-2.772.233-3.23-.25-.422-.445.487-2.418 3.124-2.693z" stroke="#52267D"/>
    <path d="M122.046 209.617c.301-.032.713.631.657.828-.054.197-.108.851-.595.908-.358.042-1.636.137-1.906-.147-.249-.263.287-1.427 1.844-1.589" fill="#E1F2FF"/>
    <path d="M163.395 210.321s-.937-.81-2.245.201c-1.195.924-2.116 2.38-1.598 2.544.52.164 1.436.335 2.407.187.846-.13 1.584.053 1.973-1.697.182-.815-.537-1.235-.537-1.235" fill="#FFF"/>
    <path d="M163.395 210.321s-.937-.81-2.245.201c-1.195.924-2.116 2.38-1.598 2.544.52.164 1.436.335 2.407.187.846-.13 1.584.053 1.973-1.697.182-.815-.537-1.235-.537-1.235z" stroke="#52267D" stroke-width=".5"/>
    <path d="M163.167 210.6s-.583-.504-1.397.126c-.744.575-1.316 1.48-.994 1.583.323.102.893.209 1.498.116.526-.081.986.033 1.228-1.055.112-.508-.335-.77-.335-.77" fill="#E1F2FF"/>
    <path d="M164.759 210.344c.51-.053 1.208 1.07 1.115 1.404-.094.334-.183 1.443-1.009 1.539-.607.072-2.772.233-3.23-.25-.422-.445.487-2.418 3.124-2.693" fill="#FFF"/>
    <path d="M164.759 210.344c.51-.053 1.208 1.07 1.115 1.404-.094.334-.183 1.443-1.009 1.539-.607.072-2.772.233-3.23-.25-.422-.445.487-2.418 3.124-2.693z" stroke="#52267D" stroke-width=".5"/>
    <path d="M164.892 210.654c.3-.032.714.631.658.828-.054.197-.108.851-.595.908-.358.042-1.636.137-1.906-.147-.25-.263.287-1.427 1.843-1.589" fill="#E1F2FF"/>
    <path d="M166.546 210.94s-.382-.214-1.162.203c-.69.368-1.72.958-1.477 1.737.244.78 2.396.555 2.877.406.482-.15.795-.66.725-1.117-.154-.996-.963-1.23-.963-1.23" fill="#FFF"/>
    <path d="M166.546 210.94s-.382-.214-1.162.203c-.69.368-1.72.958-1.477 1.737.244.78 2.396.555 2.877.406.482-.15.795-.66.725-1.117-.154-.996-.963-1.23-.963-1.23z" stroke="#52267D" stroke-width=".5"/>
    <path d="M166.684 211.217s-.226-.127-.688.12c-.41.218-1.02.567-.874 1.029.144.46 1.418.329 1.704.24.284-.088.47-.39.428-.66-.091-.59-.57-.73-.57-.73" fill="#E1F2FF"/>
    <path d="M128.565 209.977c.163-.13.354-.161.508-.083.575.292 2.025 1.117 1.69 2.166-.261.817-.758.555-1.72.545l-.727-.008a.412.412 0 0 1-.36-.224c-.397-.71-.14-1.8.558-2.355l.05-.041z" fill="#FFF"/>
    <path d="M128.565 209.977c.163-.13.354-.161.508-.083.575.292 2.025 1.117 1.69 2.166-.261.817-.758.555-1.72.545l-.727-.008a.412.412 0 0 1-.36-.224c-.397-.71-.14-1.8.558-2.355l.05-.041z" stroke="#52267D"/>
    <path d="M128.633 210.216c.118-.095.257-.117.369-.061.418.212 1.472.812 1.228 1.575-.19.593-.55.403-1.25.395l-.528-.006a.297.297 0 0 1-.261-.162c-.289-.515-.102-1.308.405-1.712l.037-.03z" fill="#E1F2FF"/>
    <path d="M125.166 209.56s-.866-.887-2.255.01c-1.268.82-2.309 2.192-1.807 2.399a5.553 5.553 0 0 0 2.382.39c.854-.057 1.575.189 2.111-1.522.25-.797-.43-1.276-.43-1.276" fill="#FFF"/>
    <path d="M125.166 209.56s-.866-.887-2.255.01c-1.268.82-2.309 2.192-1.807 2.399a5.553 5.553 0 0 0 2.382.39c.854-.057 1.575.189 2.111-1.522.25-.797-.43-1.276-.43-1.276z" stroke="#52267D"/>
    <path d="M124.916 209.82s-.539-.554-1.403.005c-.789.51-1.438 1.363-1.124 1.493a3.46 3.46 0 0 0 1.482.242c.53-.035.98.118 1.313-.947.155-.495-.268-.794-.268-.794" fill="#E1F2FF"/>
    <path d="M123.58 73.765C113.87 56.715 62.425 23.1 62.425 23.1" stroke="#ACD3EF" stroke-width="2"/>
    <path d="M176.662 214.238H79.477a2 2 0 0 1-2-2v-106.57c0-2.673 1.07-5.235 2.971-7.114l43.254-42.748a6.214 6.214 0 0 1 8.734 0l43.255 42.748a9.999 9.999 0 0 1 2.971 7.114v106.57a2 2 0 0 1-2 2" fill="#FFF"/>
    <path d="M176.662 214.238H79.477a2 2 0 0 1-2-2v-106.57c0-2.673 1.07-5.235 2.971-7.114l43.254-42.748a6.214 6.214 0 0 1 8.734 0l43.255 42.748a9.999 9.999 0 0 1 2.971 7.114v106.57a2 2 0 0 1-2 2z" stroke="#5E63B6" stroke-width="2"/>
    <path d="M150.54 136.729c0 13.659-11.073 24.732-24.732 24.732-13.66 0-24.733-11.073-24.733-24.732 0-13.66 11.073-24.732 24.733-24.732s24.732 11.073 24.732 24.732" fill="#E1F2FF"/>
    <path d="M153.54 131.729c0 13.659-11.073 24.732-24.732 24.732-13.66 0-24.733-11.073-24.733-24.732 0-13.66 11.073-24.732 24.733-24.732s24.732 11.073 24.732 24.732" fill="#FFF"/>
    <path d="M153.54 131.729c0 13.659-11.073 24.732-24.732 24.732-13.66 0-24.733-11.073-24.733-24.732 0-13.66 11.073-24.732 24.733-24.732s24.732 11.073 24.732 24.732z" stroke="#5E63B6" stroke-width="2"/>
    <path d="M134.955 143.926c.104.309.195.519.223.589.008.007-.009-.004 0 0 0 0 0 .002 0 0 .001 0 0 0 0 0-.7-6.741 3.123-9.55 4.351-14.027a1.51 1.51 0 0 1 .04-.22c.025-.1.045-.203.061-.307.182-1.24-.325-2.681-1.286-4.182-.004-.01-.01-.016-.016-.024-.078-.125-.163-.25-.248-.375 0 0-.003-.002-.004-.005a17.584 17.584 0 0 0-.503-.69c-.018-.022-.035-.047-.054-.071l-.149-.188c-.052-.065-.102-.131-.153-.193l-.158-.19c-.055-.065-.109-.13-.165-.194-.037-.045-.078-.09-.118-.137-1.51-1.74-3.476-3.458-5.528-4.953 0 0-.016-.023 0 0 .271 2.536.307 5.072.066 7.1-.29 2.446-1.165 5.293-2.379 7.873-2.842-.233-5.747-.891-8.01-1.858-1.896-.81-4.065-2.085-6.139-3.598.023.21.048.419.072.629l.025.187a17.268 17.268 0 0 0 .091.656c.022.152.044.3.07.449l.028.183a25.593 25.593 0 0 0 .107.62c.04.218.08.435.123.65.002.017.007.032.01.049.04.195.08.385.122.578.007.04.016.078.024.117l.12.522a.816.816 0 0 1 .026.103c.05.2.098.399.151.595l.001.003c.168.633.352 1.245.552 1.83l.005.022c.338.978.722 1.88 1.151 2.67.063.114.128.227.192.337.003.004.003.009.006.013h.001c.06.1.118.199.178.293h.002l.007.012c.064.104.13.204.198.3l.027.039.001.004a10.894 10.894 0 0 0 .31.417l.015.02c.103.13.207.255.316.372.074.084.151.16.227.238.033.032.068.06.1.093.048.045.097.087.145.13.037.034.074.06.112.092.046.039.093.075.141.113.037.028.075.054.114.08a3.776 3.776 0 0 0 .26.172l.157.089.11.057c.06.028.12.054.181.08.028.01.06.027.09.038.093.037.186.069.28.095.062.018.116.038.167.057 4.501 1.189 8.882-.695 14.377 3.235" fill="#9452BA"/>
    <path d="M100.228 178.639h55.684M100.228 193.344h55.684" stroke="#ACD3EF" stroke-width="2" stroke-linecap="round"/>
    <path d="M136.07 80.383a8 8 0 1 1-16 0 8 8 0 0 1 16 0" fill="#FFF"/>
    <path d="M136.07 80.383a8 8 0 1 1-16 0 8 8 0 0 1 16 0z" stroke="#5E63B6" stroke-width="2"/>
    <path d="M68.009 18.224s2.086 9.116 4.929 12.239c5.662 6.22 13.132 12.62 20.064 23.55 12.293 19.38 19.523 38.126 30.424 27.76 1.461-1.39 2.382-5.174.693-6.98" stroke="#ACD3EF" stroke-width="2"/>
    <path d="M77.248 33.813s-4.815 1.74-6.315 0c-1.5-1.742 8.131-9.26 6.315 0z" stroke="#ACD3EF" stroke-width="2"/>
  </g>
</svg>
