<svg width="256" height="256" xmlns="http://www.w3.org/2000/svg">
  <g fill="none" fill-rule="evenodd">
    <path d="M25 228.56C25 171.365 71.365 125 128.56 125s103.56 46.365 103.56 103.56H25z" fill="#E1F2FF" fill-rule="nonzero"/>
    <g fill="#FFF" fill-rule="nonzero" stroke="#5E63B6" stroke-linecap="round" stroke-linejoin="round" stroke-width="3">
      <path d="M20 220h36M62 220h176.89M246 220h6.97M3 220h8.97M95 230h67.19M171 230h9.14M87 229l-5 .08"/>
    </g>
    <g stroke="#5E63B6" stroke-linecap="round">
      <path d="M206.98 68.4v7M210.48 71.9h-7M80 24v7M84 28h-7" stroke-width="2" stroke-linejoin="round"/>
      <path d="M42.73 188.68v3.94M44.7 190.65h-3.94"/>
      <path d="M217.73 128.68v3.94M219.7 130.65h-3.94" stroke-linejoin="round"/>
      <path d="M48.73 88.68v3.94M50.7 90.65h-3.94"/>
      <path d="M26.42 127.28v8.12M30.48 131.34h-8.13" stroke-width="2" fill="#FFF" fill-rule="nonzero"/>
    </g>
    <g transform="translate(30 115)">
      <path d="M50.08 103.51h5a4.17 4.17 0 0 0 3.89-2.64c1.77-4.55 1.33-8.73 1.54-12.31.39-6.63-.64-10-1.63-15.56l-7.47.17s.64 2.75 1.06 11c.13 2.56-4.09 12.82-3.89 17.85a1.53 1.53 0 0 0 1.5 1.49zM35.59 79.85l-6-6.82-3.71.15s-.52 5.67-.73 8a112.15 112.15 0 0 1-3.18 16 14.45 14.45 0 0 0-.6 3.26 2.94 2.94 0 0 0 3 3h4.41a5.64 5.64 0 0 0 5.48-4.2c1.92-7.68 1.33-19.39 1.33-19.39z" stroke="#52267D" stroke-width="2" fill="#9452BA" fill-rule="nonzero"/>
      <path stroke="#52267D" stroke-width=".5" d="M27.14 84.54l-1 .88.95.85 1.55-.59-.31-.68-1.28.3.01.23.33-.01"/>
      <path d="M27.17 54.46c4.38-.09 8.48-3.11 17.42-3.52a7.73 7.73 0 0 1 .49-1.54c1.62-3.5 3.9-13.59 2.43-20.22l-1.16-5.25a24.27 24.27 0 0 1-.57-5.24 10.68 10.68 0 0 1 1.05-4.6c.147-.307.31-.607.49-.9.18-.293.37-.577.57-.85a10.7 10.7 0 0 1 2.16-2.16 9 9 0 0 1 .85-.57 10.59 10.59 0 0 1 5.52-1.54h1.74a10.6 10.6 0 0 1 8.21 3.88c.394.479.745.99 1.05 1.53.12.2.23.41.33.62.1.21.15.31.21.47.41.972.674 2 .78 3.05.035.362.052.726.05 1.09a2.65 2.65 0 0 1-2.65 2.65H55.25l1.65 9.45c1.93 9.71 1.35 16.2-.15 20.53-.33 1-2.24 4.39-2.24 4.39 5.45 8.59 13.8 12.35 22.73 13.44 7.59.93 24-6 15.53-14s1.76-3 3.26-2c1.5 1 10.19 8.52.76 19.54-4 4.66-8.51 8.89-19.37 12.14-1.74.52-11.25 1.21-16.38 2.68-15.25 4.38-27.64-.38-34.59-10.45-6.95-10.07-1.01-22.59.72-22.62z" stroke="#52267D" stroke-width="2" fill="#9452BA" fill-rule="nonzero"/>
      <path d="M36.63 40C37 28.73 28 19.88 17.89 18c-2.11-.39-2.79-1-5.1-1H11C5.046 17 .22 21.826.22 27.78a2.69 2.69 0 0 0 2.69 2.69h18.2c4 1.7 6.5 6.82 6.94 9.57a15.62 15.62 0 0 1-1.17 9.76 10.55 10.55 0 0 0-.85 5.54h.1a20.23 20.23 0 0 0 .48 3.12c1.71-1.19 4.36-3 4.84-3.23 1-.55 3.41-1.81 4.47-2.42 6.78-3.89.51-6.42.71-12.81z" stroke="#52267D" stroke-width="2" fill="#9452BA" fill-rule="nonzero"/>
      <path d="M30.86 53c-.09-1.74-.35-2.63-.16-3.34 1.12-4.07 1.49-5.36 1.49-9.67A13 13 0 0 0 26 29.21a6.92 6.92 0 0 0-4.91 1.2c4 1.7 6.5 6.82 6.94 9.57a15.62 15.62 0 0 1-1.17 9.76 10.55 10.55 0 0 0-.85 5.54S31 57.14 30.86 53" stroke="#52267D" fill="#F3E3FF" fill-rule="nonzero"/>
      <path d="M5.36 18.79a3 3 0 0 1 1.87-2.63l1.61-.65s1.11 2.36-.15 2.95a4.75 4.75 0 0 1-3.33.33zM10 17.47a3.14 3.14 0 0 1 3-2.94c.54-.07 1.94 0 1.94 0s.65 2.71-.87 3a14.73 14.73 0 0 1-4.07-.06zM15.78 17.71s.38-2.84 2.93-2.06a3.57 3.57 0 0 1 1.7 1.16s-.51 2.17-1.52 1.92a19.51 19.51 0 0 1-3.11-1.02zM23.2 31.52s6-3.24 4.82-8.69a32.46 32.46 0 0 1 3.67 3.65c0 1.07.2 5.3-5.65 8.14a32.79 32.79 0 0 0-2.84-3.1z" stroke="#52267D" fill="#FFF" fill-rule="nonzero"/>
      <path d="M6.18 18.27a1.53 1.53 0 0 1 1-1.36l.83-.34s.58 1.22-.08 1.53a2.46 2.46 0 0 1-1.75.17zM11.28 16.89a1.6 1.6 0 0 1 1.5-1.5h1s.33 1.38-.45 1.52a7.51 7.51 0 0 1-2.05-.02zM16.7 17.51s.2-1.51 1.56-1.09c.355.114.668.33.9.62 0 0-.27 1.15-.81 1a10.35 10.35 0 0 1-1.65-.53z" fill="#F3E3FF" fill-rule="nonzero"/>
      <path d="M14.69 23.65h.48a2.48 2.48 0 1 1 0 4.96H9.72a5 5 0 0 1 5-5l-.03.04z" fill="#F3E3FF" fill-rule="nonzero" opacity=".3"/>
      <path d="M13.72 24.62h1a2 2 0 1 1 0 4h-4.9a3.9 3.9 0 0 1 3.9-4z" stroke="#52267D" fill="#FFF" fill-rule="nonzero"/>
      <circle fill="#52267D" fill-rule="nonzero" cx="11.79" cy="27.46" r="1.09"/>
      <path d="M2.68 29.6a1.37 1.37 0 0 0 .78-.49l.37-.46-.81.17-.48.1a.34.34 0 0 0-.26.41.34.34 0 0 0 .4.27z" fill="#52267D" fill-rule="nonzero"/>
      <path d="M24.21 31.63s4.59-2.47 4.52-7.45a9.37 9.37 0 0 1 2.51 2.36 8 8 0 0 1-1.45 3.56c-1.7 1.84-3.47 2.41-5.58 1.53z" fill="#EAF3FB" fill-rule="nonzero"/>
      <path d="M28.55 30.75A16.47 16.47 0 0 1 25 33.47" stroke="#52267D" fill="#FFF" fill-rule="nonzero"/>
      <path d="M46.54 50.1l-1-2c-3.82-9.38-4.41-14.89-2.43-23.84L44.25 19c.38-1.72.57-3.478.57-5.24 0-5.876-4.764-10.64-10.64-10.64h-1.71C26.684 3.131 22 7.824 22 13.61v.3a2.5 2.5 0 0 0 2.5 2.5h10.85l-1.65 9.45c-5 25.33-4.54 35.6 5.39 33.49" stroke="#52267D" stroke-width="2" fill="#9452BA" fill-rule="nonzero"/>
      <path d="M27.22 4.37a3.28 3.28 0 0 1 2-2.58 2.79 2.79 0 0 1 1.43 0s1.06 1.65-.18 2.24a4.65 4.65 0 0 1-3.25.34zM31.58 3.77A3.55 3.55 0 0 1 34.91.44a8.16 8.16 0 0 1 1.39 0s1.54 3.05-.18 3.35a16.68 16.68 0 0 1-4.54-.02zM37.43 4.43s.44-2.78 2.93-1.95A3.5 3.5 0 0 1 42 3.66s-.55 2.11-1.54 1.84a19.12 19.12 0 0 1-3.03-1.07z" stroke="#52267D" fill="#FFF" fill-rule="nonzero"/>
      <path d="M27.4 54.12a4.93 4.93 0 0 1 1.79-.86M31 54.07c-1.78-7.22 1.43-21 2-24.43L35.35 16h1a2.35 2.35 0 0 1 2.09 2.69L36.75 30.5c-.57 4-1.17 22.51 5.78 26.49 1.48.85 3.89.29 4.8-.14 3.3-1.58 4.25-5.7 5-9 1.5-6.87.33-12.26 0-17.65L52 23.48A2.37 2.37 0 0 1 54.11 21h1.24l2.24 13.62c.67 3.88 2.4 17.32-5.52 23.63-.14.11 1.93.58 1.33 1.64-2.38 4.21-9.29 4.88-10.59 6.68-5 6.94-.32 21.74-.32 21.74a35.93 35.93 0 0 1-9-5.3c-8-7.21-9.07-17.66-9.11-20.73 0-3.68.92-6 2.11-7.32" stroke="#52267D" fill="#F3E3FF" fill-rule="nonzero"/>
      <path d="M96.31 60.09a3 3 0 0 0 .5-3 2.57 2.57 0 0 0-.9-1s-1.78.31-1.41 1.51a4.29 4.29 0 0 0 1.81 2.49z" stroke="#52267D" fill="#FFF" fill-rule="nonzero"/>
      <path d="M95.94 58.33a1.06 1.06 0 0 0 .18-1 .9.9 0 0 0-.32-.34s-.62.11-.49.53a1.5 1.5 0 0 0 .63.81z" fill="#F3E3FF" fill-rule="nonzero"/>
      <path d="M87 69.16a3.31 3.31 0 0 1 1.51-4.11 7.59 7.59 0 0 1 1.17-.56s2.5 2 1.16 2.9A15.53 15.53 0 0 1 87 69.16z" stroke="#52267D" fill="#FFF" fill-rule="nonzero"/>
      <path d="M87.86 68.23a1.83 1.83 0 0 1 .84-2.28 4.21 4.21 0 0 1 .65-.31s1.38 1.09.64 1.61a8.61 8.61 0 0 1-2.13.98z" fill="#F3E3FF" fill-rule="nonzero"/>
      <path d="M94.87 61s1.88 1.65.08 3.13a3.11 3.11 0 0 1-1.67.67s-1.33-1.42-.66-2a17 17 0 0 1 2.25-1.8z" stroke="#52267D" fill="#FFF" fill-rule="nonzero"/>
      <path d="M94.6 62.22s.83.73 0 1.39a1.38 1.38 0 0 1-.74.3s-.59-.63-.29-.9a7.54 7.54 0 0 1 1.03-.79z" fill="#F3E3FF" fill-rule="nonzero"/>
      <path d="M77.93 70.46a2.55 2.55 0 0 1 1.81-3.08c2.43-.88 3.08-.15 3.08-.15s1.34 2.26.14 3c-1.2.74-5.03.23-5.03.23z" stroke="#52267D" fill="#FFF" fill-rule="nonzero"/>
      <path d="M79.07 70a1.33 1.33 0 0 1 .94-1.6c1.26-.46 1.6-.08 1.6-.08s.7 1.17.07 1.55a6.41 6.41 0 0 1-2.61.13z" fill="#F3E3FF" fill-rule="nonzero"/>
      <path d="M34.82 19.34a11.75 11.75 0 0 0 9.32.21c-.37 1.69-1.14 5.08-1.14 5.08s-5 1.55-8.94-.9c.41-2.23.76-4.39.76-4.39zM63.8 9.5a3.3 3.3 0 0 0-2-2.6 9.65 9.65 0 0 0-2.08-.29s-.43 2 .82 2.55a4.69 4.69 0 0 0 3.26.34zM59.12 8.55a3.09 3.09 0 0 0-2.9-2.9 7.11 7.11 0 0 0-1.21 0s-1.34 2.66.16 2.92a14.54 14.54 0 0 0 3.95-.02zM53.73 8.74s-.45-2.8-2.95-2A3.52 3.52 0 0 0 49.13 8s.56 2.12 1.55 1.86a19.26 19.26 0 0 0 3.05-1.12z" stroke="#52267D" fill="#FFF" fill-rule="nonzero"/>
      <path d="M28.18 3.91a1.75 1.75 0 0 1 1.07-1.38 1.49 1.49 0 0 1 .77 0s.57.88-.1 1.19a2.49 2.49 0 0 1-1.74.19zM32.66 3.28a2.23 2.23 0 0 1 2.09-2.09c.29-.025.58-.025.87 0 0 0 1 1.91-.11 2.1a10.46 10.46 0 0 1-2.85-.01zM38.51 4.15s.26-1.6 1.69-1.12a2 2 0 0 1 .94.68s-.32 1.22-.89 1.06a11 11 0 0 1-1.74-.62zM62.89 9a1.74 1.74 0 0 0-1.07-1.37 5.1 5.1 0 0 0-1.1-.15s-.23 1 .43 1.35a2.48 2.48 0 0 0 1.74.17zM58 8.11a1.71 1.71 0 0 0-1.6-1.6 3.93 3.93 0 0 0-.67 0s-.74 1.47.09 1.61A8 8 0 0 0 58 8.11zM52.73 8.55s-.24-1.53-1.61-1.07a1.93 1.93 0 0 0-.9.65s.3 1.16.85 1a10.54 10.54 0 0 0 1.66-.58z" fill="#F3E3FF" fill-rule="nonzero"/>
      <path d="M46.4 24.14a27.18 27.18 0 0 0 9.36-.37c.44 2.48.73 4.35.73 4.35s-3.16 2.15-9 .9c-.7-3.18-1.09-4.88-1.09-4.88z" stroke="#52267D" fill="#FFF" fill-rule="nonzero"/>
      <path d="M59.77 19.33h-5.45a2.48 2.48 0 1 1 0-4.96h.48a5 5 0 0 1 5 5l-.03-.04z" fill="#F3E3FF" fill-rule="nonzero" opacity=".3"/>
      <path d="M59.68 19.22h-4.76a2.09 2.09 0 0 1-2.09-2.09c0-1 .81-1.81 1.81-1.81h1.14a3.9 3.9 0 0 1 3.9 3.9z" stroke="#52267D" fill="#FFF" fill-rule="nonzero"/>
      <circle fill="#52267D" fill-rule="nonzero" cx="57.33" cy="16.98" r="1.09"/>
      <path d="M35 9.65h.48a2.48 2.48 0 1 1 .04 4.96H30a5 5 0 0 1 5-5v.04z" fill="#F3E3FF" fill-rule="nonzero" opacity=".3"/>
      <path d="M34 10.62h1a2 2 0 1 1 0 4h-4.86a3.9 3.9 0 0 1 3.86-4z" stroke="#52267D" fill="#FFF" fill-rule="nonzero"/>
      <circle fill="#52267D" fill-rule="nonzero" cx="34.8" cy="13.36" r="1.09"/>
      <path d="M66.34 20.45a1.37 1.37 0 0 1-.78-.49l-.37-.46.81.17.48.1a.34.34 0 0 1 .26.41.34.34 0 0 1-.4.27zM24.33 15.36a1.37 1.37 0 0 0 .78-.49l.37-.46-.81.17-.48.1a.34.34 0 0 0-.26.41.34.34 0 0 0 .4.27z" fill="#52267D" fill-rule="nonzero"/>
      <path d="M35.29 20a11.93 11.93 0 0 0 8.15.15 33.07 33.07 0 0 1-.81 3.63 20.37 20.37 0 0 1-4.09-.18c-2.33-.41-3.25-1.47-3.25-3.6z" fill="#EAF3FB" fill-rule="nonzero"/>
      <path d="M40.93 23.13A13.84 13.84 0 0 1 34.38 22" stroke="#52267D" fill="#FFF" fill-rule="nonzero"/>
      <path d="M54 24.68a16.76 16.76 0 0 1-6.78.39 25.21 25.21 0 0 0 .92 3.11s4.76-.64 5.86-3.5z" fill="#EAF3FB" fill-rule="nonzero"/>
      <path d="M52.07 58.26s-.22.16-.53.34" stroke="#52267D" stroke-width=".5" fill="#F3E3FF" fill-rule="nonzero"/>
      <path d="M54.35 26a27.69 27.69 0 0 1-7.47.23" stroke="#52267D" fill="#FFF" fill-rule="nonzero"/>
      <path d="M48.41 100.59a1.74 1.74 0 0 0-2.24.27c-1.17 1-2 2.44-1.52 2.59a5.56 5.56 0 0 0 2.41.12c.84-.15 1.58 0 1.92-1.75a1.18 1.18 0 0 0-.57-1.23z" stroke="#52267D" stroke-width=".5" fill="#FFF" fill-rule="nonzero"/>
      <path d="M48.19 100.88a1.08 1.08 0 0 0-1.39.17c-.73.6-1.27 1.52-.95 1.61.489.133 1 .157 1.5.07.52-.1 1 0 1.2-1.09a.73.73 0 0 0-.36-.76z" fill="#EAF3FB" fill-rule="nonzero"/>
      <path d="M49.77 100.57c.51-.07 1.24 1 1.16 1.37-.08.37-.14 1.45-1 1.57-.61.09-2.77.31-3.24-.16-.47-.47.45-2.42 3.08-2.78z" stroke="#52267D" stroke-width=".5" fill="#FFF" fill-rule="nonzero"/>
      <path d="M49.91 100.88c.3 0 .73.61.68.81-.05.2-.08.85-.57.92-.49.07-1.63.19-1.91-.09s.25-1.43 1.8-1.64z" fill="#EAF3FB" fill-rule="nonzero"/>
      <path d="M51.92 100.79s-.44-.23-1.31.27c-.87.5-1.91 1.14-1.61 2 .3.86 2.73.55 3.26.36.534-.19.86-.73.78-1.29a1.68 1.68 0 0 0-1.12-1.34z" stroke="#52267D" stroke-width=".5" fill="#FFF" fill-rule="nonzero"/>
      <path d="M52.08 101.1s-.26-.14-.77.16c-.51.3-1.13.68-1 1.19.13.51 1.61.32 1.93.22a.71.71 0 0 0 .46-.76 1 1 0 0 0-.62-.81z" fill="#EAF3FB" fill-rule="nonzero"/>
      <path d="M41.78 73a64.54 64.54 0 0 1-.93 14.45c-1.33 8.22-3.69 10.8-3.51 12.93.13 1.65.83 3.16 2.49 3.16h4.94a5.37 5.37 0 0 0 5.08-3.66 35.94 35.94 0 0 0 1.59-7.18 91.08 91.08 0 0 0 .22-10.7M67.11 76.69a7.79 7.79 0 0 0-2.47 5.83c0 2.83 1.66 6.43.62 11.13-.93 4.19-2.77 4.93-2.22 8.69a1.4 1.4 0 0 0 1.4 1.17h5.51a5.19 5.19 0 0 0 5.12-4.34 51.51 51.51 0 0 0-.63-17.81" stroke="#52267D" stroke-width="2" fill="#9452BA" fill-rule="nonzero"/>
      <path stroke="#52267D" stroke-width=".5" d="M68.19 82.93l.33-.24 1.04.24-1.16.74-1.4-.69 1.46-1.16.66.22"/>
      <path d="M38.41 100.59a1.74 1.74 0 0 0-2.24.27c-1.17 1-2 2.44-1.52 2.59a5.56 5.56 0 0 0 2.41.12c.84-.15 1.58 0 1.92-1.75a1.18 1.18 0 0 0-.57-1.23z" stroke="#52267D" fill="#FFF" fill-rule="nonzero"/>
      <path d="M38.19 100.88a1.08 1.08 0 0 0-1.39.17c-.73.6-1.27 1.52-.95 1.61.489.133 1 .157 1.5.07.52-.1 1 0 1.2-1.09a.73.73 0 0 0-.36-.76z" fill="#EAF3FB" fill-rule="nonzero"/>
      <path stroke="#52267D" stroke-width=".5" d="M45.97 86.03l-1.97.62.26 1.82 2.02.15.94-1.09-1.21-.67-1 .29.64.71"/>
      <g opacity=".3" stroke="#F3E3FF" stroke-width=".25">
        <path d="M3.8 26a.54.54 0 1 0 1.07 0M2.73 26a.54.54 0 1 0 1.07 0M3.26 26.54a.54.54 0 0 0 1.07 0M24.33 25.5a.79.79 0 1 0 .83-1.34M24.58 26.59a.79.79 0 1 0 .83-1.34M49.76 43.5a.72.72 0 0 0 1.44 0M48.32 43.5a.72.72 0 0 0 1.44 0M49 44.22a.72.72 0 0 0 1.44 0M28.29 89a.72.72 0 0 0 1.44 0M26.86 89a.72.72 0 0 0 1.44 0M27.57 89.75a.72.72 0 0 0 1.44 0M48.64 20.59a.79.79 0 1 0 1.58 0M47.85 21.38a.79.79 0 1 0 1.58 0M38.55 34.54a1 1 0 1 0 1.92 0M37.59 35.5a1 1 0 0 0 1.92 0M24.61 10.68a.64.64 0 0 0 1.28 0M24 11.33a.64.64 0 0 0 1.28 0M85 75.39a.754.754 0 0 0 1.13-1M84.93 76.43a.754.754 0 0 0 1.13-1M55.65 65.19a.87.87 0 0 0 1.58-.72M54.07 65.91a.87.87 0 0 0 1.58-.72M55.22 66.34a.87.87 0 0 0 1.58-.72M53.64 67.06a.87.87 0 0 0 1.58-.72M56.37 66.76a.87.87 0 1 0 1.58-.72M40.55 17.17a.875.875 0 1 0 1.75 0M40.25 50.22a.875.875 0 1 0 1.75 0M50.16 32a.665.665 0 1 0 1.33 0M65.94 16.95a.5.5 0 1 0 1 0M70.08 90a.873.873 0 1 0 1.72-.3M45.92 96.49a1 1 0 0 0 1.92 0M45 97.45a1 1 0 0 0 1.92 0"/>
      </g>
      <path d="M39.78 100.57c.51-.07 1.24 1 1.16 1.37-.08.37-.14 1.45-1 1.57-.61.09-2.77.31-3.24-.16-.47-.47.45-2.42 3.08-2.78z" stroke="#52267D" fill="#FFF" fill-rule="nonzero"/>
      <path d="M39.92 100.88c.3 0 .73.61.68.81-.05.2-.08.85-.57.92-.49.07-1.63.19-1.91-.09s.25-1.43 1.8-1.64z" fill="#EAF3FB" fill-rule="nonzero"/>
      <path d="M41.58 101.12s-.39-.2-1.16.24c-.77.44-1.69 1-1.42 1.78s2.41.48 2.89.32a1.05 1.05 0 0 0 .69-1.14 1.49 1.49 0 0 0-1-1.2z" stroke="#52267D" fill="#FFF" fill-rule="nonzero"/>
      <path d="M41.73 101.39s-.23-.12-.68.14c-.45.26-1 .6-.84 1.05.16.45 1.43.29 1.71.19a.62.62 0 0 0 .41-.67.88.88 0 0 0-.6-.71z" fill="#EAF3FB" fill-rule="nonzero"/>
      <path d="M21.3 101.33s-.39-.2-1.16.24c-.77.44-1.69 1-1.42 1.78s2.41.48 2.89.32a1.05 1.05 0 0 0 .69-1.14 1.49 1.49 0 0 0-1-1.2z" stroke="#52267D" fill="#FFF" fill-rule="nonzero"/>
      <path d="M21.45 101.6s-.23-.12-.68.14c-.45.26-1 .6-.84 1.05.16.45 1.43.29 1.71.19a.62.62 0 0 0 .41-.67.88.88 0 0 0-.6-.71z" fill="#EAF3FB" fill-rule="nonzero"/>
      <path d="M23.65 100.79c.51-.07 1.24 1 1.16 1.37-.08.37-.14 1.45-1 1.57-.61.09-2.77.31-3.24-.16-.47-.47.43-2.43 3.08-2.78z" stroke="#52267D" fill="#FFF" fill-rule="nonzero"/>
      <path d="M23.79 101.09c.3 0 .73.61.68.81-.05.2-.08.85-.57.92-.49.07-1.63.19-1.91-.09s.25-1.43 1.8-1.64z" fill="#EAF3FB" fill-rule="nonzero"/>
      <path d="M65.14 100.59a1.74 1.74 0 0 0-2.24.27c-1.17 1-2 2.44-1.52 2.59a5.56 5.56 0 0 0 2.41.12c.84-.15 1.58 0 1.92-1.75a1.18 1.18 0 0 0-.57-1.23z" stroke="#52267D" stroke-width=".5" fill="#FFF" fill-rule="nonzero"/>
      <path d="M64.92 100.88a1.08 1.08 0 0 0-1.39.17c-.73.6-1.27 1.52-.95 1.61.489.133 1 .157 1.5.07.52-.1 1 0 1.2-1.09a.73.73 0 0 0-.36-.76z" fill="#EAF3FB" fill-rule="nonzero"/>
      <path d="M66.51 100.57c.51-.07 1.24 1 1.16 1.37-.08.37-.14 1.45-1 1.57-.61.09-2.77.31-3.24-.16-.47-.47.45-2.42 3.08-2.78z" stroke="#52267D" stroke-width=".5" fill="#FFF" fill-rule="nonzero"/>
      <path d="M66.65 100.88c.3 0 .73.61.68.81-.05.2-.08.85-.57.92-.49.07-1.63.19-1.91-.09s.25-1.43 1.8-1.64z" fill="#EAF3FB" fill-rule="nonzero"/>
      <path d="M68.31 101.12s-.39-.2-1.16.24c-.77.44-1.69 1-1.42 1.78s2.41.48 2.89.32a1.05 1.05 0 0 0 .69-1.14 1.49 1.49 0 0 0-1-1.2z" stroke="#52267D" stroke-width=".5" fill="#FFF" fill-rule="nonzero"/>
      <path d="M68.46 101.39s-.23-.12-.68.14c-.45.26-1 .6-.84 1.05.16.45 1.43.29 1.71.19a.62.62 0 0 0 .41-.67.88.88 0 0 0-.6-.71z" fill="#EAF3FB" fill-rule="nonzero"/>
      <path d="M30.32 101.26a.47.47 0 0 1 .51-.1c.58.28 2.06 1.06 1.75 2.12-.24.82-.74.58-1.7.59h-.73a.41.41 0 0 1-.37-.21 2 2 0 0 1 .49-2.37l.05-.03z" stroke="#52267D" fill="#FFF" fill-rule="nonzero"/>
      <path d="M30.39 101.5a.34.34 0 0 1 .37-.07c.42.2 1.49.77 1.27 1.54-.17.6-.54.42-1.24.43h-.53a.3.3 0 0 1-.27-.15 1.44 1.44 0 0 1 .35-1.72l.05-.03z" fill="#EAF3FB" fill-rule="nonzero"/>
      <path d="M26.91 100.95a1.74 1.74 0 0 0-2.25.08c-1.24.86-2.24 2.26-1.74 2.45.764.28 1.58.39 2.39.32.85-.08 1.58.14 2.06-1.58a1.18 1.18 0 0 0-.46-1.27z" stroke="#52267D" fill="#FFF" fill-rule="nonzero"/>
      <path d="M26.67 101.21a1.08 1.08 0 0 0-1.4 0c-.77.53-1.4 1.4-1.08 1.52a3.46 3.46 0 0 0 1.49.2c.53-.05 1 .09 1.28-1a.73.73 0 0 0-.29-.72z" fill="#EAF3FB" fill-rule="nonzero"/>
    </g>
    <g>
      <path d="M197.217 176H80.783C74.827 176 70 171.168 70 165.207V90.793C70 84.83 74.827 80 80.783 80h116.434C203.172 80 208 84.831 208 90.793v74.414c0 5.96-4.828 10.793-10.783 10.793" fill="#FFF"/>
      <path d="M197.217 176H80.783C74.827 176 70 171.168 70 165.207V90.793C70 84.83 74.827 80 80.783 80h116.434C203.172 80 208 84.831 208 90.793v74.414c0 5.96-4.828 10.793-10.783 10.793z" stroke="#5E63B6" stroke-width="3"/>
      <path fill="#FFF" d="M79 168h114V88H79z"/>
      <path fill="#E1F2FF" d="M79 92h114v-4H79z"/>
      <path fill="#E1F2FF" d="M79 167h4V89h-4z"/>
      <path stroke="#5E63B6" stroke-width="2" d="M79 168h114V88H79zM204 128.5a3.5 3.5 0 1 1-7.001 0 3.5 3.5 0 0 1 7.001 0z"/>
      <g fill="#9452BA">
        <path d="M102.666 140.97c0-1.345-.023-2.482-.07-3.411-.047-.93-.186-1.724-.417-2.385a4.341 4.341 0 0 0-1.062-1.69c-.476-.463-1.144-.916-2.003-1.357v-.453a9.869 9.869 0 0 0 1.619-1.027 4.6 4.6 0 0 0 1.098-1.237c.278-.463.481-.992.609-1.584.127-.591.191-1.282.191-2.071 0-1.648.053-3.1.157-4.352.105-1.254.383-2.304.836-3.152.452-.847 1.131-1.485 2.037-1.915.905-.43 2.147-.644 3.725-.644h.488a6.925 6.925 0 0 1 .139 1.392c0 .256-.012.494-.035.714a5.784 5.784 0 0 1-.104.645c-.883 0-1.579.092-2.089.278-.512.187-.9.493-1.167.923-.267.43-.441.98-.522 1.654-.082.673-.122 1.497-.122 2.472v.209c0 1.277-.047 2.356-.14 3.238-.092.883-.255 1.619-.487 2.21-.232.593-.539 1.08-.923 1.464a5.355 5.355 0 0 1-1.41.992 6.091 6.091 0 0 1 1.41 1.027c.384.383.691.87.923 1.462.232.592.395 1.33.487 2.212.093.882.14 1.96.14 3.238v.244c0 .952.04 1.764.122 2.437.081.673.255 1.219.522 1.637.267.418.655.726 1.167.923.51.196 1.206.296 2.089.296.046.209.081.423.104.643a6.91 6.91 0 0 1 0 1.41 7.329 7.329 0 0 1-.104.698c-1.393 0-2.548-.14-3.465-.418-.917-.28-1.654-.71-2.211-1.29-.557-.58-.952-1.323-1.184-2.228-.232-.904-.348-1.973-.348-3.203M170.83 122.83c0 1.346.024 2.483.07 3.412.048.928.187 1.724.418 2.385a4.33 4.33 0 0 0 1.062 1.688c.476.465 1.144.917 2.003 1.36v.452a9.935 9.935 0 0 0-1.62 1.026 4.609 4.609 0 0 0-1.096 1.237 5.165 5.165 0 0 0-.61 1.585c-.127.591-.191 1.282-.191 2.071 0 1.648-.052 3.098-.157 4.352-.105 1.254-.383 2.304-.836 3.152-.452.846-1.131 1.485-2.037 1.915-.905.43-2.147.644-3.725.644h-.488a6.925 6.925 0 0 1-.139-1.392c0-.256.012-.494.035-.714.023-.222.058-.436.104-.645.883 0 1.579-.092 2.089-.278.512-.187.9-.494 1.167-.923.267-.43.44-.98.522-1.654.082-.674.122-1.497.122-2.472v-.209c0-1.277.047-2.356.14-3.238.092-.883.255-1.619.487-2.21.232-.594.54-1.08.923-1.464a5.355 5.355 0 0 1 1.41-.992 6.091 6.091 0 0 1-1.41-1.027c-.383-.383-.691-.87-.923-1.463-.232-.592-.395-1.329-.487-2.21-.093-.883-.14-1.963-.14-3.24v-.243c0-.952-.04-1.764-.122-2.437-.081-.674-.255-1.219-.522-1.637-.267-.418-.655-.726-1.167-.923-.51-.197-1.206-.296-2.09-.296a5.766 5.766 0 0 1-.103-.644 6.882 6.882 0 0 1 0-1.41c.023-.232.058-.464.104-.697 1.393 0 2.548.14 3.465.418.917.28 1.654.708 2.21 1.288.558.581.953 1.324 1.185 2.23.232.904.348 1.972.348 3.203M117.002 134.352c-.059-.408-.109-.81-.153-1.204a10.82 10.82 0 0 1-.065-1.203c0-.408.021-.824.065-1.248.044-.422.094-.838.153-1.247a16.39 16.39 0 0 1 3.633-.131c.409.029.817.072 1.225.13.059.41.11.818.154 1.226a11.459 11.459 0 0 1 0 2.45c-.044.41-.095.819-.154 1.227-.408.058-.809.102-1.203.13a16.383 16.383 0 0 1-2.429 0 17.579 17.579 0 0 1-1.226-.13M134.393 134.352c-.059-.408-.109-.81-.153-1.204a10.819 10.819 0 0 1-.066-1.203c0-.408.022-.824.066-1.248.044-.422.094-.838.153-1.247a16.383 16.383 0 0 1 3.633-.131c.41.029.817.072 1.225.13.06.41.11.818.154 1.226a11.723 11.723 0 0 1 0 2.45c-.044.41-.095.819-.154 1.227-.408.058-.809.102-1.203.13a16.41 16.41 0 0 1-2.429 0 17.579 17.579 0 0 1-1.226-.13M151.784 134.352c-.06-.408-.11-.81-.153-1.204a10.82 10.82 0 0 1-.065-1.203c0-.408.02-.824.065-1.248.044-.422.094-.838.153-1.247a16.39 16.39 0 0 1 3.633-.131c.409.029.817.072 1.226.13.058.41.109.818.153 1.226a11.459 11.459 0 0 1 0 2.45c-.044.41-.095.819-.153 1.227-.41.058-.81.102-1.204.13a16.383 16.383 0 0 1-2.43 0 17.579 17.579 0 0 1-1.225-.13"/>
      </g>
    </g>
    <g fill="#FFF" fill-rule="nonzero" stroke="#5E63B6" stroke-linecap="round" stroke-linejoin="round" stroke-width="3">
      <path d="M169.5 153.5l6 7M186.5 145.5l-11 15"/>
    </g>
  </g>
</svg>
