<?xml version="1.0" encoding="UTF-8"?>
<svg width="253px" height="198px" viewBox="0 0 253 198" version="1.1" xmlns="http://www.w3.org/2000/svg" xmlns:xlink="http://www.w3.org/1999/xlink">
    <title>illus--Translatedproduct 2</title>
    <g id="Page-1" stroke="none" stroke-width="1" fill="none" fill-rule="evenodd">
        <g id="illus--Translatedproduct" transform="translate(1.000000, 0.000000)">
            <path d="M20,196.558 C20,139.365 66.364,93 123.558,93 C180.75,93 227.116,139.365 227.116,196.558 L20,196.558 Z" id="Path" fill="#E1F2FF" fill-rule="nonzero"></path>
            <line x1="16.978" y1="187.924" x2="52.978" y2="187.924" id="Path" fill="#FFFFFF" fill-rule="nonzero"></line>
            <line x1="16.978" y1="187.924" x2="52.978" y2="187.924" id="Path" stroke="#5E63B6" stroke-width="2" stroke-linecap="round" stroke-linejoin="round"></line>
            <line x1="192.32" y1="187.924" x2="236.32" y2="187.924" id="Path" fill="#FFFFFF" fill-rule="nonzero"></line>
            <line x1="192.32" y1="187.924" x2="236.32" y2="187.924" id="Path" stroke="#5E63B6" stroke-width="2" stroke-linecap="round" stroke-linejoin="round"></line>
            <path d="M162.544,187.512002 L167.523,187.512002 C169.238592,187.513748 170.780184,186.464592 171.408,184.868 C173.176,180.318 172.735,176.137 172.946,172.561 C173.338,165.936 172.303,162.541 171.315,157 L163.841,157.173 C163.841,157.173 164.477,159.926 164.9,168.185 C165.03,170.74 160.809,181.003 161.007,186.038 C161.039,186.864 161.717,187.512002 162.544,187.512002" id="Path" fill="#9452BA" fill-rule="nonzero"></path>
            <path d="M162.544,187.512002 L167.523,187.512002 C169.238592,187.513748 170.780184,186.464592 171.408,184.868 C173.176,180.318 172.735,176.137 172.946,172.561 C173.338,165.936 172.303,162.541 171.315,157 L163.841,157.173 C163.841,157.173 164.477,159.926 164.9,168.185 C165.03,170.74 160.809,181.003 161.007,186.038 C161.039,186.864 161.717,187.512002 162.544,187.512002 L162.544,187.512002 Z" id="Path" stroke="#52267D"></path>
            <path d="M147.242,163.817 L141.23,157 L137.518,157.147 C137.518,157.147 136.998,162.818 136.784,165.193 C136.408,169.379 134.674,177.581 133.608,181.18 C133.262,182.351 133.06,183.445 133.004,184.437 C132.91,186.107 134.304,187.486 135.974,187.486 L140.386,187.486 C142.956,187.486 145.239,185.771 145.871,183.281 C147.837,175.527 147.242,163.817 147.242,163.817" id="Path" fill="#9452BA" fill-rule="nonzero"></path>
            <path d="M147.242,163.817 L141.23,157 L137.518,157.147 C137.518,157.147 136.998,162.818 136.784,165.193 C136.408,169.379 134.674,177.581 133.608,181.18 C133.262,182.351 133.06,183.445 133.004,184.437 C132.91,186.107 134.304,187.486 135.974,187.486 L140.386,187.486 C142.956,187.486 145.239,185.771 145.871,183.281 C147.837,175.527 147.242,163.817 147.242,163.817 L147.242,163.817 Z" id="Path" stroke="#52267D"></path>
            <polyline id="Path" stroke="#52267D" stroke-width="0.25" points="138.992 168 138 168.871 138.949 169.727 140.495 169.133 140.185 168.455 138.902 168.759 138.913 168.988 139.246 168.973"></polyline>
            <path d="M138.989,138.407 C143.368,138.317 147.472,135.302 156.409,134.889 C156.538,134.305 156.695,133.778 156.895,133.345 C158.512,129.844 160.795,119.753 159.329,113.123 L158.169,107.878 C157.788046,106.156686 157.59591,104.398966 157.596,102.636 C157.596166,101.739483 157.70871,100.846522 157.931,99.978 C158.103686,99.3049455 158.342862,98.6507278 158.645,98.025 C158.795,97.716 158.959,97.414 159.135,97.121 C160.024428,95.657256 161.253008,94.4290189 162.717,93.54 C164.379273,92.529666 166.287771,91.9968366 168.233,91.999986 L169.977,91.999986 C173.813519,91.9942972 177.354093,94.0607473 179.236,97.404 C179.351,97.607 179.463,97.814 179.565,98.025 C180.257026,99.4635371 180.615595,101.039664 180.614,102.636 C180.615194,103.339567 180.335499,104.014506 179.837,104.511 C179.34067,105.009866 178.665711,105.289929 177.962,105.289 L167.072,105.289 L168.72,114.741 C170.655,124.451 170.073,130.944 168.575,135.273 C168.241,136.238 166.339,139.658 166.339,139.658 C171.784,148.251 180.135,152.007 189.063,153.096 C196.655,154.024 213.042,147.101 204.593,139.094 C196.143,131.086 206.353,136.065 207.857,137.079 C209.36,138.092 218.05,145.6 208.617,156.617 C204.631,161.276 200.113,165.511 189.244,168.758 C187.501,169.278 177.988,169.97 172.868,171.439 C157.623,175.816 145.228,171.057 138.283,160.994 C131.366,150.97 137.26,138.442 138.989,138.407" id="Path" fill="#9452BA" fill-rule="nonzero"></path>
            <path d="M138.989,138.407 C143.368,138.317 147.472,135.302 156.409,134.889 C156.538,134.305 156.695,133.778 156.895,133.345 C158.512,129.844 160.795,119.753 159.329,113.123 L158.169,107.878 C157.788046,106.156686 157.59591,104.398966 157.596,102.636 C157.596166,101.739483 157.70871,100.846522 157.931,99.978 C158.103686,99.3049455 158.342862,98.6507278 158.645,98.025 C158.795,97.716 158.959,97.414 159.135,97.121 C160.024428,95.657256 161.253008,94.4290189 162.717,93.54 C164.379273,92.529666 166.287771,91.9968366 168.233,91.999986 L169.977,91.999986 C173.813519,91.9942972 177.354093,94.0607473 179.236,97.404 C179.351,97.607 179.463,97.814 179.565,98.025 C180.257026,99.4635371 180.615595,101.039664 180.614,102.636 C180.615194,103.339567 180.335499,104.014506 179.837,104.511 C179.34067,105.009866 178.665711,105.289929 177.962,105.289 L167.072,105.289 L168.72,114.741 C170.655,124.451 170.073,130.944 168.575,135.273 C168.241,136.238 166.339,139.658 166.339,139.658 C171.784,148.251 180.135,152.007 189.063,153.096 C196.655,154.024 213.042,147.101 204.593,139.094 C196.143,131.086 206.353,136.065 207.857,137.079 C209.36,138.092 218.05,145.6 208.617,156.617 C204.631,161.276 200.113,165.511 189.244,168.758 C187.501,169.278 177.988,169.97 172.868,171.439 C157.623,175.816 145.228,171.057 138.283,160.994 C131.366,150.97 137.26,138.442 138.989,138.407 L138.989,138.407 Z" id="Path" stroke="#52267D" stroke-width="2"></path>
            <path d="M148.388,124.029 C148.738,112.769 139.801,103.92 129.644,102.05 C127.535,101.662 126.85,101 124.543,101 L122.776,101 C116.825,101 112,105.825 112,111.776 C112,113.259599 113.202401,114.462448 114.686,114.463 C114.686,114.463 132.806,114.458 132.891,114.45 L134.367,114.451 C134.366,114.453 132.889,114.454 132.887,114.456 C136.894,116.157 139.387,121.277 139.827,124.029 C140.453,127.947 139.994,131.179 138.658,133.794 C137.767,135.535 137.666,137.633 137.804,139.332 L137.907,139.367 C137.97,140.275 138.117,141.308 138.387,142.487 C140.094,141.298 142.747,139.509 143.232,139.253 C144.279,138.7 146.643,137.442 147.701,136.837 C154.459,132.962 148.19,130.433 148.388,124.029" id="Path" fill="#9452BA" fill-rule="nonzero"></path>
            <path d="M148.388,124.029 C148.738,112.769 139.801,103.92 129.644,102.05 C127.535,101.662 126.85,101 124.543,101 L122.776,101 C116.825,101 112,105.825 112,111.776 C112,113.259599 113.202401,114.462448 114.686,114.463 C114.686,114.463 132.806,114.458 132.891,114.45 L134.367,114.451 C134.366,114.453 132.889,114.454 132.887,114.456 C136.894,116.157 139.387,121.277 139.827,124.029 C140.453,127.947 139.994,131.179 138.658,133.794 C137.767,135.535 137.666,137.633 137.804,139.332 L137.907,139.367 C137.97,140.275 138.117,141.308 138.387,142.487 C140.094,141.298 142.747,139.509 143.232,139.253 C144.279,138.7 146.643,137.442 147.701,136.837 C154.459,132.962 148.19,130.433 148.388,124.029 L148.388,124.029 Z" id="Path" stroke="#52267D"></path>
            <path d="M143,137.035 C142.911,135.295 142.646,134.403 142.84,133.695 C143.963,129.622 144.328,128.337 144.328,124.024 C144.328,119.739 141.846,115.504 138.18,113.251 C137.98,113.128 135.341,112.941 133.27,114.451 C137.276,116.151 139.77,121.271 140.21,124.024 C140.836,127.942 140.377,131.174 139.041,133.789 C138.151,135.529 138.049,137.628 138.187,139.327 C138.187,139.327 143.103,141.173 143,137.035" id="Path" fill="#F3E3FF" fill-rule="nonzero"></path>
            <path d="M143,137.035 C142.911,135.295 142.646,134.403 142.84,133.695 C143.963,129.622 144.328,128.337 144.328,124.024 C144.328,119.739 141.846,115.504 138.18,113.251 C137.98,113.128 135.341,112.941 133.27,114.451 C137.276,116.151 139.77,121.271 140.21,124.024 C140.836,127.942 140.377,131.174 139.041,133.789 C138.151,135.529 138.049,137.628 138.187,139.327 C138.187,139.327 143.103,141.173 143,137.035" id="Path" stroke="#52267D" stroke-width="0.5"></path>
            <path d="M117,102.282 C117,102.282 116.996,100.4 118.866,99.652 C119.404377,99.436427 119.942046,99.2190925 120.479,99 C120.479,99 121.592,101.355 120.331,101.95 C118.514,102.804 117,102.282 117,102.282" id="Path" fill="#FFFFFF" fill-rule="nonzero"></path>
            <path d="M117,102.282 C117,102.282 116.996,100.4 118.866,99.652 C119.404377,99.436427 119.942046,99.2190925 120.479,99 C120.479,99 121.592,101.355 120.331,101.95 C118.514,102.804 117,102.282 117,102.282 L117,102.282 Z" id="Path" stroke="#52267D" stroke-width="0.5"></path>
            <path d="M122,100.982 C122,100.982 122.053,98.418 124.938,98.044 C125.476,97.974 126.88,98.008 126.88,98.008 C126.88,98.008 127.527,100.721 126.007,100.982 C124.137,101.302 122,100.982 122,100.982" id="Path" fill="#FFFFFF" fill-rule="nonzero"></path>
            <path d="M122,100.982 C122,100.982 122.053,98.418 124.938,98.044 C125.476,97.974 126.88,98.008 126.88,98.008 C126.88,98.008 127.527,100.721 126.007,100.982 C124.137,101.302 122,100.982 122,100.982 Z" id="Path" stroke="#52267D" stroke-width="0.5"></path>
            <path d="M128,101.198 C128,101.198 128.38,98.354 130.935,99.136 C132.026,99.47 132.632,100.3 132.632,100.3 C132.632,100.3 132.123,102.466 131.107,102.221 C129.333,101.797 128,101.198 128,101.198" id="Path" fill="#FFFFFF" fill-rule="nonzero"></path>
            <path d="M128,101.198 C128,101.198 128.38,98.354 130.935,99.136 C132.026,99.47 132.632,100.3 132.632,100.3 C132.632,100.3 132.123,102.466 131.107,102.221 C129.333,101.797 128,101.198 128,101.198 L128,101.198 Z" id="Path" stroke="#52267D" stroke-width="0.5"></path>
            <path d="M135,115.686 C135,115.686 140.955,112.449 139.822,107 C140.613,107.652 142.728,109.638 143.494,110.655 C143.494,111.721 143.689,115.957 137.841,118.793 C136.812,117.727 135.946,116.396 135,115.686" id="Path" fill="#FFFFFF" fill-rule="nonzero"></path>
            <path d="M135,115.686 C135,115.686 140.955,112.449 139.822,107 C140.613,107.652 142.728,109.638 143.494,110.655 C143.494,111.721 143.689,115.957 137.841,118.793 C136.812,117.727 135.946,116.396 135,115.686 Z" id="Path" stroke="#52267D" stroke-width="0.5"></path>
            <path d="M118,101.916 C118,101.916 117.998,100.817 119.089,100.381 C119.422,100.248 120.03,100 120.03,100 C120.03,100 120.68,101.375 119.944,101.722 C118.884,102.221 118,101.916 118,101.916 M123,100.746 C123,100.746 123.031,99.245 124.721,99.025 C125.036,98.985 125.857,99.005 125.857,99.005 C125.857,99.005 126.237,100.594 125.346,100.746 C124.251,100.933 123,100.746 123,100.746 M128,101.3 C128,101.3 128.225,99.618 129.736,100.08 C130.131052,100.206117 130.480234,100.445745 130.74,100.769 C130.74,100.769 130.439,102.049 129.838,101.906 C128.789,101.655 128,101.301 128,101.301 M128.646,111.967 L122,111.967 L122,109.102 C122,107.942 122.94,107 124.101,107 L128.646,107 C129.354,107 129.928,107.574 129.928,108.282 L129.928,110.685 C129.928,111.393 129.354,111.967 128.646,111.967" id="Shape" fill="#F3E3FF" fill-rule="nonzero"></path>
            <path d="M127.837,111.901 L122,111.901 L122,110.014 C122,108.902 122.902,108 124.015,108 L127.837,108 C128.393,108 128.844,108.451 128.844,109.007 L128.844,110.894 C128.844,111.45 128.393,111.901 127.837,111.901" id="Path" fill="#FFFFFF" fill-rule="nonzero"></path>
            <path d="M127.837,111.901 L122,111.901 L122,110.014 C122,108.902 122.902,108 124.015,108 L127.837,108 C128.393,108 128.844,108.451 128.844,109.007 L128.844,110.894 C128.844,111.45 128.393,111.901 127.837,111.901 Z" id="Path" stroke="#52267D" stroke-width="0.5"></path>
            <path d="M123,110.09 C123,110.69199 123.48801,111.18 124.09,111.18 C124.69199,111.18 125.18,110.69199 125.18,110.09 C125.18,109.48801 124.69199,109 124.09,109 C123.48801,109 123,109.48801 123,110.09 M114.413,112.945 C114.723,112.879 114.999,112.707 115.197,112.459 L115.562,112 L114.748,112.174 L114.269,112.276 C114.095983,112.32612 113.991213,112.501535 114.029117,112.677632 C114.067021,112.853729 114.234684,112.970503 114.413,112.945" id="Shape" fill="#52267D" fill-rule="nonzero"></path>
            <path d="M136,115.446 C136,115.446 140.588,112.976 140.518,108 C142.489,109.436 143.022,110.365 143.022,110.365 C143.022,110.365 142.68,112.733 141.576,113.929 C139.882,115.764 138.117,116.329 136,115.446" id="Path" fill="#E1F2FF" fill-rule="nonzero"></path>
            <path d="M140.69,114.788 C140.69,114.788 138.881,116.628 137.117,117.511" id="Path" fill="#FFFFFF" fill-rule="nonzero"></path>
            <path d="M140.69,114.788 C140.69,114.788 138.881,116.628 137.117,117.511" id="Path" stroke="#52267D" stroke-width="0.5"></path>
            <path d="M158.681,134.135 L157.661,132.118 C153.842,122.738 153.253,117.228 155.234,108.274 L156.394,103.029 C156.774,101.309 156.966,99.55 156.966,97.787 C156.966,91.913 152.203,87.151 146.329,87.151 L144.612,87.151 C138.818,87.151 134.12,91.848 134.12,97.642 L134.12,97.944 C134.120552,99.3226645 135.238335,100.44 136.617,100.44 L147.49,100.44 L145.842,109.892 C140.795,135.222 141.302,145.492 151.232,143.382" id="Path" fill="#9452BA" fill-rule="nonzero"></path>
            <path d="M158.681,134.135 L157.661,132.118 C153.842,122.738 153.253,117.228 155.234,108.274 L156.394,103.029 C156.774,101.309 156.966,99.55 156.966,97.787 C156.966,91.913 152.203,87.151 146.329,87.151 L144.612,87.151 C138.818,87.151 134.12,91.848 134.12,97.642 L134.12,97.944 C134.120552,99.3226645 135.238335,100.44 136.617,100.44 L147.49,100.44 L145.842,109.892 C140.795,135.222 141.302,145.492 151.232,143.382" id="Path" stroke="#52267D"></path>
            <path d="M139,87.672 C139,87.672 139.175,85.828 141.007,85.096 C141.565,84.872 142.441,85.11 142.441,85.11 C142.441,85.11 143.499,86.764 142.263,87.346 C140.483,88.184 139,87.672 139,87.672" id="Path" fill="#FFFFFF" fill-rule="nonzero"></path>
            <path d="M139,87.672 C139,87.672 139.175,85.828 141.007,85.096 C141.565,84.872 142.441,85.11 142.441,85.11 C142.441,85.11 143.499,86.764 142.263,87.346 C140.483,88.184 139,87.672 139,87.672 Z" id="Path" stroke="#52267D" stroke-width="0.5"></path>
            <path d="M144,87.369 C144,87.369 144.061,84.465 147.328,84.041 C147.938,83.961 148.72,84.021 148.72,84.021 C148.72,84.021 150.261,87.074 148.538,87.369 C146.421,87.732 144,87.369 144,87.369" id="Path" fill="#FFFFFF" fill-rule="nonzero"></path>
            <path d="M144,87.369 C144,87.369 144.061,84.465 147.328,84.041 C147.938,83.961 148.72,84.021 148.72,84.021 C148.72,84.021 150.261,87.074 148.538,87.369 C146.421,87.732 144,87.369 144,87.369 Z" id="Path" stroke="#52267D" stroke-width="0.5"></path>
            <path d="M149,88.102 C149,88.102 149.443,85.326 151.926,86.155 C152.574392,86.3804801 153.142243,86.7915026 153.559,87.337 C153.559,87.337 153.007,89.445 152.018,89.182 C150.983565,88.9070425 149.974023,88.5457753 149,88.102" id="Path" fill="#FFFFFF" fill-rule="nonzero"></path>
            <path d="M149,88.102 C149,88.102 149.443,85.326 151.926,86.155 C152.574392,86.3804801 153.142243,86.7915026 153.559,87.337 C153.559,87.337 153.007,89.445 152.018,89.182 C150.983565,88.9070425 149.974023,88.5457753 149,88.102 L149,88.102 Z" id="Path" stroke="#52267D" stroke-width="0.5"></path>
            <path d="M139.54,138.159 C140.071331,137.753532 140.679705,137.460573 141.328,137.298" id="Path" fill="#F3E3FF" fill-rule="nonzero"></path>
            <path d="M139.54,138.159 C140.071331,137.753532 140.679705,137.460573 141.328,137.298" id="Path" stroke="#52267D" stroke-width="0.5"></path>
            <path d="M143.141,138.102 C141.364,130.879 144.571,117.072 145.159,113.673 L147.493,100.058 L148.517,100.058 C149.813,100.058 150.794,101.468 150.61,102.752 L148.918,114.562 C148.346,118.562 147.75,137.077 154.699,141.053 C156.181,141.903 158.59,141.345 159.499,140.913 C162.801,139.334 163.75,135.217 164.474,131.898 C165.972,125.028 164.805,119.635 164.474,114.25 L164.125,107.513 C164.063,106.295 165.031,105.003 166.248,105.003 L167.49,105.003 L169.726,118.619 C170.398,122.496 172.129,135.941 164.206,142.244 C164.063,142.358 166.133,142.821 165.533,143.881 C163.15,148.093 156.245,148.759 154.946,150.563 C149.938,157.507 154.628,172.304 154.628,172.304 C154.628,172.304 149.071,170.086 145.628,167.001 C137.582,159.789 136.561,149.343 136.524,146.268 C136.479,142.589 137.445,140.308 138.635,138.945" id="Path" fill="#F3E3FF" fill-rule="nonzero"></path>
            <path d="M143.141,138.102 C141.364,130.879 144.571,117.072 145.159,113.673 L147.493,100.058 L148.517,100.058 C149.813,100.058 150.794,101.468 150.61,102.752 L148.918,114.562 C148.346,118.562 147.75,137.077 154.699,141.053 C156.181,141.903 158.59,141.345 159.499,140.913 C162.801,139.334 163.75,135.217 164.474,131.898 C165.972,125.028 164.805,119.635 164.474,114.25 L164.125,107.513 C164.063,106.295 165.031,105.003 166.248,105.003 L167.49,105.003 L169.726,118.619 C170.398,122.496 172.129,135.941 164.206,142.244 C164.063,142.358 166.133,142.821 165.533,143.881 C163.15,148.093 156.245,148.759 154.946,150.563 C149.938,157.507 154.628,172.304 154.628,172.304 C154.628,172.304 149.071,170.086 145.628,167.001 C137.582,159.789 136.561,149.343 136.524,146.268 C136.479,142.589 137.445,140.308 138.635,138.945" id="Path" stroke="#52267D" stroke-width="0.5"></path>
            <path d="M208.862,143.931 C208.862,143.931 210.006,142.665 209.362,140.965 C209.167,140.447 208.461,140 208.461,140 C208.461,140 206.678,140.311 207.051,141.513 C207.591,143.243 208.861,143.931 208.861,143.931" id="Path" fill="#FFFFFF" fill-rule="nonzero"></path>
            <path d="M208.862,143.931 C208.862,143.931 210.006,142.665 209.362,140.965 C209.167,140.447 208.461,140 208.461,140 C208.461,140 206.678,140.311 207.051,141.513 C207.591,143.243 208.861,143.931 208.861,143.931 L208.862,143.931 Z" id="Path" stroke="#52267D"></path>
            <path d="M207.653,142.379 C207.653,142.379 208.054,141.935 207.829,141.339 C207.76,141.156 207.512,141 207.512,141 C207.512,141 206.887,141.109 207.018,141.53 C207.208,142.137 207.653,142.379 207.653,142.379" id="Path" fill="#F3E3FF" fill-rule="nonzero"></path>
            <path d="M199.225,152.674 C199.225,152.674 198.14,150.197 200.735,148.561 C201.217,148.255 201.902,148 201.902,148 C201.902,148 204.398,149.974 203.058,150.898 C201.412,152.033 199.225,152.674 199.225,152.674" id="Path" fill="#FFFFFF" fill-rule="nonzero"></path>
            <path d="M199.225,152.674 C199.225,152.674 198.14,150.197 200.735,148.561 C201.217,148.255 201.902,148 201.902,148 C201.902,148 204.398,149.974 203.058,150.898 C201.412,152.033 199.225,152.674 199.225,152.674 Z" id="Path" stroke="#52267D"></path>
            <path d="M200.125,151.592 C200.125,151.592 199.522,150.218 200.961,149.311 C201.167785,149.189136 201.384568,149.085094 201.609,149 C201.609,149 202.993,150.095 202.25,150.607 C201.337,151.237 200.125,151.592 200.125,151.592" id="Path" fill="#F3E3FF" fill-rule="nonzero"></path>
            <path d="M206.435,145 C206.435,145 208.315,146.651 206.511,148.128 C205.741,148.759 204.846,148.797 204.846,148.797 C204.846,148.797 203.52,147.38 204.188,146.761 C204.886441,146.112202 205.638076,145.523136 206.435,145" id="Path" fill="#FFFFFF" fill-rule="nonzero"></path>
            <path d="M206.435,145 C206.435,145 208.315,146.651 206.511,148.128 C205.741,148.759 204.846,148.797 204.846,148.797 C204.846,148.797 203.52,147.38 204.188,146.761 C204.886441,146.112202 205.638076,145.523136 206.435,145 L206.435,145 Z" id="Path" stroke="#52267D"></path>
            <path d="M207.078,146 C207.078,146 207.911,146.731 207.112,147.385 C206.771,147.664 206.375,147.682 206.375,147.682 C206.375,147.682 205.787,147.054 206.084,146.779 C206.6,146.3 207.078,146 207.078,146" id="Path" fill="#F3E3FF" fill-rule="nonzero"></path>
            <path d="M190.07,154.511 C190.07,154.511 189.45,152.306 191.878,151.431 C194.304,150.556 194.956,151.283 194.956,151.283 C194.956,151.283 196.299,153.543 195.099,154.27 C193.899,154.997 190.071,154.511 190.071,154.511" id="Path" fill="#FFFFFF" fill-rule="nonzero"></path>
            <path d="M190.07,154.511 C190.07,154.511 189.45,152.306 191.878,151.431 C194.304,150.556 194.956,151.283 194.956,151.283 C194.956,151.283 196.299,153.543 195.099,154.27 C193.899,154.997 190.071,154.511 190.071,154.511 L190.07,154.511 Z" id="Path" stroke="#52267D"></path>
            <path d="M191.037,153.826 C191.037,153.826 190.715,152.68 191.976,152.224 C193.238,151.769 193.578,152.148 193.578,152.148 C193.578,152.148 194.275,153.323 193.652,153.701 C193.028,154.079 191.037,153.826 191.037,153.826" id="Path" fill="#F3E3FF" fill-rule="nonzero"></path>
            <path d="M146.752,103 C146.752,103 150.626,105.19 156.071,103.213 C155.697,104.902 154.936,108.297 154.936,108.297 C154.936,108.297 149.891,109.844 146,107.396 C146.398,105.154 146.752,103 146.752,103" id="Path" fill="#FFFFFF" fill-rule="nonzero"></path>
            <path d="M146.752,103 C146.752,103 150.626,105.19 156.071,103.213 C155.697,104.902 154.936,108.297 154.936,108.297 C154.936,108.297 149.891,109.844 146,107.396 C146.398,105.154 146.752,103 146.752,103 Z" id="Path" stroke="#52267D" stroke-width="0.5"></path>
            <path d="M176.176,92.882 C176.176,92.882 176,91.025 174.155,90.286 C173.591,90.061 172.071,90 172.071,90 C172.071,90 171.644,91.967 172.889,92.554 C174.682,93.398 176.176,92.882 176.176,92.882" id="Path" fill="#FFFFFF" fill-rule="nonzero"></path>
            <path d="M176.176,92.882 C176.176,92.882 176,91.025 174.155,90.286 C173.591,90.061 172.071,90 172.071,90 C172.071,90 171.644,91.967 172.889,92.554 C174.682,93.398 176.176,92.882 176.176,92.882 L176.176,92.882 Z" id="Path" stroke="#52267D" stroke-width="0.5"></path>
            <path d="M171.666,91.936 C171.666,91.936 171.613,89.405 168.766,89.036 C168.235,88.966 167.553,89.019 167.553,89.019 C167.553,89.019 166.21,91.678 167.711,91.936 C169.557,92.252 171.666,91.936 171.666,91.936" id="Path" fill="#FFFFFF" fill-rule="nonzero"></path>
            <path d="M171.666,91.936 C171.666,91.936 171.613,89.405 168.766,89.036 C168.235,88.966 167.553,89.019 167.553,89.019 C167.553,89.019 166.21,91.678 167.711,91.936 C169.557,92.252 171.666,91.936 171.666,91.936 Z" id="Path" stroke="#52267D" stroke-width="0.5"></path>
            <path d="M165.594,92.117 C165.594,92.117 165.148,89.321 162.647,90.156 C161.577,90.513 161,91.346 161,91.346 C161,91.346 161.557,93.471 162.554,93.205 C164.294,92.741 165.594,92.117 165.594,92.117" id="Path" fill="#FFFFFF" fill-rule="nonzero"></path>
            <path d="M165.594,92.117 C165.594,92.117 165.148,89.321 162.647,90.156 C161.577,90.513 161,91.346 161,91.346 C161,91.346 161.557,93.471 162.554,93.205 C164.294,92.741 165.594,92.117 165.594,92.117 Z" id="Path" stroke="#52267D" stroke-width="0.5"></path>
            <path d="M140,87.51 C140,87.51 140.099,86.468 141.134,86.054 C141.45,85.927 141.944,86.062 141.944,86.062 C141.944,86.062 142.543,86.997 141.844,87.326 C140.838,87.799 140,87.51 140,87.51 M145,87.213 C145,87.213 145.04,85.305 147.187,85.027 C147.587,84.975 148.101,85.015 148.101,85.015 C148.101,85.015 149.112,87.019 147.981,87.213 C146.59,87.452 145,87.213 145,87.213 M150,88.337 C150,88.337 150.282,86.571 151.861,87.098 C152.536,87.324 152.901,87.85 152.901,87.85 C152.901,87.85 152.55,89.192 151.92,89.024 C151.261894,88.8491619 150.619636,88.6193541 150,88.337 M175.327,92.606 C175.327,92.606 175.228,91.571 174.2,91.16 C173.887,91.034 173.04,91 173.04,91 C173.04,91 172.801,92.096 173.495,92.423 C174.495,92.893 175.327,92.606 175.327,92.606 M169.703,91.701 C169.703,91.701 169.673,90.234 168.023,90.02 C167.716,89.981 167.32,90.011 167.32,90.011 C167.32,90.011 166.542,91.552 167.412,91.701 C168.482,91.884 169.703,91.701 169.703,91.701 M164.717,92.252 C164.717,92.252 164.453,90.598 162.974,91.092 C162.587329,91.2260898 162.248617,91.4709087 162,91.796 C162,91.796 162.329,93.053 162.919,92.896 C163.948,92.621 164.717,92.252 164.717,92.252" id="Shape" fill="#F3E3FF" fill-rule="nonzero"></path>
            <path d="M158,108.371 C158,108.371 162.797,109.119 167.358,108 C167.803,110.478 168.088,112.35 168.088,112.35 C168.088,112.35 164.925,114.498 159.08,113.252 C158.391,110.068 158,108.371 158,108.371" id="Path" fill="#FFFFFF" fill-rule="nonzero"></path>
            <path d="M158,108.371 C158,108.371 162.797,109.119 167.358,108 C167.803,110.478 168.088,112.35 168.088,112.35 C168.088,112.35 164.925,114.498 159.08,113.252 C158.391,110.068 158,108.371 158,108.371 L158,108.371 Z" id="Path" stroke="#52267D" stroke-width="0.5"></path>
            <path d="M165.282,102.966 L171.928,102.966 L171.928,100.101 C171.928265,99.5436988 171.706996,99.009147 171.312924,98.6150755 C170.918853,98.221004 170.384301,97.9997346 169.827,97.9999998 L165.282,97.9999998 C164.574,97.9999998 164,98.574 164,99.282 L164,101.684 C164,102.392 164.574,102.966 165.282,102.966" id="Path" fill="#F3E3FF" fill-rule="nonzero"></path>
            <path d="M166.007,102.902 L171.844,102.902 L171.844,101.015 C171.844,99.9021462 170.941854,99 169.829,99 L166.007,99 C165.451,99 165,99.451 165,100.007 L165,101.894 C165,102.451 165.451,102.902 166.007,102.902" id="Path" fill="#FFFFFF" fill-rule="nonzero"></path>
            <path d="M166.007,102.902 L171.844,102.902 L171.844,101.015 C171.844,99.9021462 170.941854,99 169.829,99 L166.007,99 C165.451,99 165,99.451 165,100.007 L165,101.894 C165,102.451 165.451,102.902 166.007,102.902 Z" id="Path" stroke="#52267D" stroke-width="0.5"></path>
            <path d="M171.18,102.09 C171.18,102.69199 170.69199,103.18 170.09,103.18 C169.48801,103.18 169,102.69199 169,102.09 C169,101.48801 169.48801,101 170.09,101 C170.69199,101 171.18,101.48801 171.18,102.09" id="Path" fill="#52267D" fill-rule="nonzero"></path>
            <path d="M148.646,97.966 L142,97.966 L142,95.101 C142,93.941 142.941,93 144.101,93 L148.646,93 C149.355,93 149.928,93.574 149.928,94.282 L149.928,96.684 C149.928,97.392 149.355,97.966 148.646,97.966" id="Path" fill="#F3E3FF" fill-rule="nonzero"></path>
            <path d="M147.836,97.901 L142,97.901 L142,96.014 C142,94.901 142.901,94 144.015,94 L147.836,94 C148.393,94 148.844,94.451 148.844,95.007 L148.844,96.894 C148.844,97.45 148.393,97.901 147.836,97.901" id="Path" fill="#FFFFFF" fill-rule="nonzero"></path>
            <path d="M147.836,97.901 L142,97.901 L142,96.014 C142,94.901 142.901,94 144.015,94 L147.836,94 C148.393,94 148.844,94.451 148.844,95.007 L148.844,96.894 C148.844,97.45 148.393,97.901 147.836,97.901 L147.836,97.901 Z" id="Path" stroke="#52267D" stroke-width="0.5"></path>
            <path d="M143,97.089 C142.987787,97.4861053 143.192602,97.8584037 143.534552,98.0606706 C143.876502,98.2629374 144.30142,98.2631324 144.643556,98.0611795 C144.985692,97.8592266 145.190849,97.4871163 145.179,97.09 C145.16143,96.5011239 144.679123,96.0327781 144.089985,96.0325076 C143.500847,96.0322373 143.018111,96.5001402 143,97.089 M178.149,103.945 C177.839424,103.87891 177.562348,103.707505 177.365,103.46 L177,103 L177.813,103.174 L178.293,103.277 C178.477463,103.316765 178.594764,103.498537 178.555,103.683 C178.515235,103.867463 178.333463,103.984764 178.149,103.945 M136.413,98.945 C136.723,98.879 137,98.707 137.197,98.459 L137.561,98 L136.749,98.174 L136.269,98.277 C136.149673,98.3027231 136.053134,98.3901523 136.015748,98.5063538 C135.978361,98.6225553 136.005807,98.7498754 136.087748,98.8403538 C136.169688,98.9308322 136.293673,98.9707231 136.413,98.945" id="Shape" fill="#52267D" fill-rule="nonzero"></path>
            <path d="M147,104 C147,104 151.059,105.729 155.152,104.149 C154.724,106.551 154.341,107.776 154.341,107.776 C154.341,107.776 151.878,107.921 150.247,107.6 C147.918,107.141 147,106.082 147,104" id="Path" fill="#E1F2FF" fill-rule="nonzero"></path>
            <path d="M153.075,107.165 C153.075,107.165 149.383,107.473 146.523,105.99" id="Path" fill="#FFFFFF" fill-rule="nonzero"></path>
            <path d="M153.075,107.165 C153.075,107.165 149.383,107.473 146.523,105.99" id="Path" stroke="#52267D" stroke-width="0.5"></path>
            <path d="M165.775,108 C165.775,108 162.175,109.023 159,108.389 C159.599,110.753 159.918,111.494 159.918,111.494 C159.918,111.494 164.681,110.859 165.775,108" id="Path" fill="#E1F2FF" fill-rule="nonzero"></path>
            <path d="M164.207,142.295 C164.207,142.295 163.989,142.452 163.681,142.639" id="Path" fill="#F3E3FF" fill-rule="nonzero"></path>
            <path d="M164.207,142.295 C164.207,142.295 163.989,142.452 163.681,142.639" id="Path" stroke="#52267D" stroke-width="0.5"></path>
            <path d="M166.486,110.077 C166.486,110.077 162.862,110.764 159.015,110.306" id="Path" fill="#FFFFFF" fill-rule="nonzero"></path>
            <path d="M166.486,110.077 C166.486,110.077 162.862,110.764 159.015,110.306" id="Path" stroke="#52267D" stroke-width="0.5"></path>
            <path d="M160.916,184.28 C160.916,184.28 159.955,183.498 158.676,184.547 C157.51,185.506 156.632,186.987 157.155,187.136 C157.940197,187.350232 158.762744,187.390164 159.565,187.253 C160.408,187.098 161.151,187.26 161.489,185.5 C161.646,184.679 160.916,184.28 160.916,184.28" id="Path" fill="#FFFFFF" fill-rule="nonzero"></path>
            <path d="M160.916,184.28 C160.916,184.28 159.955,183.498 158.676,184.547 C157.51,185.506 156.632,186.987 157.155,187.136 C157.940197,187.350232 158.762744,187.390164 159.565,187.253 C160.408,187.098 161.151,187.26 161.489,185.5 C161.646,184.679 160.916,184.28 160.916,184.28 L160.916,184.28 Z" id="Path" stroke="#52267D" stroke-width="0.5"></path>
            <path d="M160.437,184.175 C160.437,184.175 159.837,183.688 159.043,184.341 C158.318,184.938 157.771,185.86 158.096,185.951 C158.422,186.044 158.996,186.135 159.596,186.025 C160.121,185.928 160.583,186.029 160.793,184.934 C160.891,184.423 160.437,184.174 160.437,184.174" id="Path" fill="#E1F2FF" fill-rule="nonzero"></path>
            <path d="M162.152,184.003 C162.66,183.935 163.392,185.038 163.307,185.374 C163.224,185.71 163.167,186.82 162.344,186.941 C161.739,187.03 159.58,187.255 159.108,186.786 C158.673,186.354 159.524,184.355 162.152,184.003" id="Path" fill="#FFFFFF" fill-rule="nonzero"></path>
            <path d="M162.152,184.003 C162.66,183.935 163.392,185.038 163.307,185.374 C163.224,185.71 163.167,186.82 162.344,186.941 C161.739,187.03 159.58,187.255 159.108,186.786 C158.673,186.354 159.524,184.355 162.152,184.003 L162.152,184.003 Z" id="Path" stroke="#52267D" stroke-width="0.5"></path>
            <path d="M161.86,185.002 C162.16,184.962 162.59,185.612 162.543,185.811 C162.493,186.01 162.459,186.665 161.973,186.736 C161.617,186.788 160.342,186.921 160.063,186.645 C159.808,186.389 160.31,185.21 161.861,185.002" id="Path" fill="#E1F2FF" fill-rule="nonzero"></path>
            <path d="M163.968,185.053 C163.968,185.053 163.53,184.823 162.66,185.321 C161.894,185.759 160.748,186.461 161.05,187.333 C161.35,188.205 163.776,187.881 164.315,187.697 C164.854,187.512 165.192,186.925 165.095,186.411 C164.889,185.291 163.968,185.053 163.968,185.053" id="Path" fill="#FFFFFF" fill-rule="nonzero"></path>
            <path d="M163.968,185.053 C163.968,185.053 163.53,184.823 162.66,185.321 C161.894,185.759 160.748,186.461 161.05,187.333 C161.35,188.205 163.776,187.881 164.315,187.697 C164.854,187.512 165.192,186.925 165.095,186.411 C164.889,185.291 163.968,185.053 163.968,185.053 L163.968,185.053 Z" id="Path" stroke="#52267D" stroke-width="0.5"></path>
            <path d="M163.758,185.031 C163.758,185.031 163.498,184.895 162.984,185.189 C162.529,185.45 161.851,185.865 162.029,186.382 C162.209,186.898 163.644,186.706 163.963,186.596 C164.283,186.487 164.483,186.139 164.426,185.836 C164.303,185.173 163.758,185.031 163.758,185.031" id="Path" fill="#E1F2FF" fill-rule="nonzero"></path>
            <path d="M153.922,157.011 C153.922,157.011 154.416,162.628 152.987,171.458 C151.658,179.678 149.301,182.256 149.474,184.388 C149.609,186.038 150.305,187.55 151.961,187.55 L156.901,187.55 C159.20447,187.547847 161.249791,186.076327 161.984,183.893 C162.581,182.134 163.202,179.74 163.574,176.714 C163.954,172.598 163.871,168.47 163.804,166.045" id="Path" fill="#9452BA" fill-rule="nonzero"></path>
            <path d="M153.922,157.011 C153.922,157.011 154.416,162.628 152.987,171.458 C151.658,179.678 149.301,182.256 149.474,184.388 C149.609,186.038 150.305,187.55 151.961,187.55 L156.901,187.55 C159.20447,187.547847 161.249791,186.076327 161.984,183.893 C162.581,182.134 163.202,179.74 163.574,176.714 C163.954,172.598 163.871,168.47 163.804,166.045" id="Path" stroke="#52267D"></path>
            <path d="M179.254,160.727 C177.617,162.137 176.769,164.443 176.781,166.562 C176.799,169.392 178.441,172.995 177.401,177.697 C176.473,181.887 174.627,182.625 175.183,186.383 C175.283,187.063 175.893,187.55 176.578,187.55 L182.084,187.55 C184.619944,187.547989 186.783391,185.714323 187.201,183.213 C188.308,176.538 187.463,170.237 186.573,165.403" id="Path" fill="#9452BA" fill-rule="nonzero"></path>
            <path d="M179.254,160.727 C177.617,162.137 176.769,164.443 176.781,166.562 C176.799,169.392 178.441,172.995 177.401,177.697 C176.473,181.887 174.627,182.625 175.183,186.383 C175.283,187.063 175.893,187.55 176.578,187.55 L182.084,187.55 C184.619944,187.547989 186.783391,185.714323 187.201,183.213 C188.308,176.538 187.463,170.237 186.573,165.403" id="Path" stroke="#52267D"></path>
            <polyline id="Path" stroke="#52267D" stroke-width="0.25" points="180.191 167.106 180.514 166.874 181.561 167.109 180.399 167.851 179 167.162 180.453 166 181.114 166.221"></polyline>
            <path d="M150.916,184.28 C150.916,184.28 149.955,183.498 148.678,184.547 C147.51,185.506 146.632,186.987 147.155,187.136 C147.940197,187.350232 148.762744,187.390164 149.565,187.253 C150.408,187.098 151.151,187.26 151.489,185.5 C151.646,184.679 150.916,184.28 150.916,184.28" id="Path" fill="#FFFFFF" fill-rule="nonzero"></path>
            <path d="M150.916,184.28 C150.916,184.28 149.955,183.498 148.678,184.547 C147.51,185.506 146.632,186.987 147.155,187.136 C147.940197,187.350232 148.762744,187.390164 149.565,187.253 C150.408,187.098 151.151,187.26 151.489,185.5 C151.646,184.679 150.916,184.28 150.916,184.28 L150.916,184.28 Z" id="Path" stroke="#52267D" stroke-width="0.5"></path>
            <path d="M150.436,184.175 C150.436,184.175 149.837,183.688 149.042,184.341 C148.317,184.938 147.77,185.86 148.096,185.951 C148.421,186.044 148.996,186.135 149.596,186.025 C150.12,185.928 150.582,186.029 150.792,184.934 C150.89,184.423 150.436,184.174 150.436,184.174" id="Path" fill="#E1F2FF" fill-rule="nonzero"></path>
            <polyline id="Path" stroke="#52267D" stroke-width="0.25" points="157.968 170 156 170.613 156.261 172.437 158.277 172.583 159.215 171.499 158.008 170.829 157.01 171.119 157.645 171.825"></polyline>
            <g id="Group" transform="translate(114.000000, 94.000000)" stroke="#F3E3FF" stroke-width="0.25">
                <path d="M1.94,16.037 C1.95239459,16.3237548 2.18847745,16.5498537 2.4755,16.5498537 C2.76252255,16.5498537 2.99860541,16.3237548 3.011,16.037 M0.869,16.037 C0.869,16.3330246 1.10897537,16.573 1.405,16.573 C1.70102463,16.573 1.941,16.3330246 1.941,16.037 M1.404,16.573 C1.404,16.8690246 1.64397537,17.109 1.94,17.109 C2.23602463,17.109 2.476,16.8690246 2.476,16.573 M22.47,15.535 C22.8391594,15.7484978 23.3111327,15.6304749 23.5363494,15.2683459 C23.7615661,14.906217 23.6587267,14.4307043 23.304,14.194 M22.724,16.623 C23.0945831,16.8533027 23.5816973,16.7395831 23.812,16.369 C24.0423027,15.9984169 23.9285831,15.5113027 23.558,15.281 M47.898,33.535 C47.922491,33.9138201 48.2368891,34.2085484 48.6165,34.2085484 C48.9961109,34.2085484 49.310509,33.9138201 49.335,33.535 M46.46,33.535 C46.484491,33.9138201 46.7988891,34.2085484 47.1785,34.2085484 C47.5581109,34.2085484 47.872509,33.9138201 47.897,33.535 M47.18,34.254 C47.2080685,34.6297939 47.5211594,34.9203716 47.898,34.9203716 C48.2748406,34.9203716 48.5879315,34.6297939 48.616,34.254 M26.434,79.066 C26.434,79.4628166 26.7556834,79.7845 27.1525,79.7845 C27.5493166,79.7845 27.871,79.4628166 27.871,79.066 M24.997,79.066 C24.997,79.4628166 25.3186834,79.7845 25.7155,79.7845 C26.1123166,79.7845 26.434,79.4628166 26.434,79.066 M25.715,79.785 C25.715,80.1818166 26.0366834,80.5035 26.4335,80.5035 C26.8303166,80.5035 27.152,80.1818166 27.152,79.785 M46.785,10.63 C46.7747214,10.9187625 46.9229108,11.1900996 47.1714138,11.3375298 C47.4199167,11.48496 47.7290833,11.48496 47.9775862,11.3375298 C48.2260892,11.1900996 48.3742786,10.9187625 48.364,10.63 M45.995,11.42 C46.0101315,11.8450987 46.3591321,12.1818975 46.7845,12.1818975 C47.2098679,12.1818975 47.5588685,11.8450987 47.574,11.42 M36.69,24.577 C36.69,25.1071934 37.1198066,25.537 37.65,25.537 C38.1801934,25.537 38.61,25.1071934 38.61,24.577 M35.731,25.537 C35.7477205,26.0548631 36.1723671,26.4660202 36.6905,26.4660202 C37.2086329,26.4660202 37.6332795,26.0548631 37.65,25.537 M22.753,0.72 C22.766602,1.06444267 23.0497889,1.33666721 23.3945,1.33666721 C23.7392111,1.33666721 24.022398,1.06444267 24.036,0.72 M22.11,1.362 C22.1236129,1.70698724 22.4072443,1.97964749 22.7525,1.97964749 C23.0977557,1.97964749 23.3813871,1.70698724 23.395,1.362 M83.157,65.425 C83.4260157,65.7159641 83.8764934,65.7433692 84.1787967,65.4871618 C84.4811,65.2309544 84.5279217,64.7820792 84.285,64.469 M83.07,66.466 C83.2404157,66.6676765 83.5054794,66.7631175 83.7653441,66.7163714 C84.0252089,66.6696253 84.2403951,66.4877939 84.3298442,66.2393714 C84.4192932,65.9909488 84.3694157,65.7136764 84.199,65.512 M53.789,55.223 C53.9112039,55.5145601 54.1824163,55.7164938 54.4967726,55.7499785 C54.8111288,55.7834631 55.1187925,55.6431903 55.2996705,55.383914 C55.4805485,55.1246377 55.5059654,54.7874621 55.366,54.504 M52.211,55.943 C52.3396156,56.2247039 52.6087486,56.4163935 52.9170191,56.4458611 C53.2252897,56.4753286 53.5258642,56.3380974 53.7055192,56.0858611 C53.8851741,55.8336247 53.9166156,55.5047039 53.788,55.223 M53.36,56.372 C53.5588225,56.8074765 54.0730235,56.9993225 54.5085,56.8005 C54.9439765,56.6016775 55.1358225,56.0874765 54.937,55.652 M51.782,57.091 C51.9808225,57.5267527 52.4952473,57.7188225 52.931,57.52 C53.3667527,57.3211775 53.5588225,56.8067527 53.36,56.371 M54.507,56.802 C54.7058225,57.2377527 55.2202473,57.4298225 55.656,57.231 C56.0917527,57.0321775 56.2838225,56.5177527 56.085,56.082 M38.695,7.208 C38.7109453,7.67946721 39.0977632,8.05342383 39.5695,8.05342383 C40.0412368,8.05342383 40.4280547,7.67946721 40.444,7.208 M38.391,40.26 C38.391,40.7432492 38.7827508,41.135 39.266,41.135 C39.7492492,41.135 40.141,40.7432492 40.141,40.26 M48.304,22.04 C48.3178291,22.39588 48.6103514,22.6772561 48.9665,22.6772561 C49.3226486,22.6772561 49.6151709,22.39588 49.629,22.04 M64.082,6.983 C64.093933,7.24909464 64.3131379,7.45868969 64.5795,7.45868969 C64.8458621,7.45868969 65.065067,7.24909464 65.077,6.983 M68.22,80.085 C68.3170871,80.5461907 68.7620121,80.8476257 69.2263256,80.7667818 C69.6906392,80.6859378 70.0075011,80.2518645 69.943,79.785 M44.058,86.527 C44.058,87.0571933 44.4878067,87.4869998 45.018,87.4869998 C45.5481933,87.4869998 45.978,87.0571933 45.978,86.527 M43.1,87.486 C43.1234163,87.9986252 43.5458403,88.4021936 44.059,88.4021936 C44.5721597,88.4021936 44.9945837,87.9986252 45.018,87.486" id="Shape"></path>
            </g>
            <path d="M152.152,184.003 C152.66,183.935 153.392,185.038 153.307,185.374 C153.224,185.71 153.167,186.82 152.344,186.941 C151.739,187.03 149.58,187.255 149.108,186.786 C148.673,186.354 149.524,184.355 152.152,184.003" id="Path" fill="#FFFFFF" fill-rule="nonzero"></path>
            <path d="M152.152,184.003 C152.66,183.935 153.392,185.038 153.307,185.374 C153.224,185.71 153.167,186.82 152.344,186.941 C151.739,187.03 149.58,187.255 149.108,186.786 C148.673,186.354 149.524,184.355 152.152,184.003 L152.152,184.003 Z" id="Path" stroke="#52267D" stroke-width="0.5"></path>
            <path d="M151.86,185.002 C152.16,184.962 152.59,185.612 152.542,185.811 C152.492,186.01 152.458,186.665 151.972,186.736 C151.616,186.788 150.341,186.921 150.064,186.645 C149.807,186.389 150.309,185.21 151.86,185.002" id="Path" fill="#E1F2FF" fill-rule="nonzero"></path>
            <path d="M153.624,185.047 C153.624,185.047 153.236,184.844 152.469,185.283 C151.789,185.672 150.777,186.292 151.044,187.063 C151.311,187.835 153.454,187.548 153.931,187.385 C154.407,187.222 154.707,186.703 154.621,186.248 C154.438,185.258 153.624,185.047 153.624,185.047" id="Path" fill="#FFFFFF" fill-rule="nonzero"></path>
            <path d="M153.624,185.047 C153.624,185.047 153.236,184.844 152.469,185.283 C151.789,185.672 150.777,186.292 151.044,187.063 C151.311,187.835 153.454,187.548 153.931,187.385 C154.407,187.222 154.707,186.703 154.621,186.248 C154.438,185.258 153.624,185.047 153.624,185.047 L153.624,185.047 Z" id="Path" stroke="#52267D" stroke-width="0.5"></path>
            <path d="M153.554,185.027 C153.554,185.027 153.325,184.908 152.869,185.168 C152.467,185.398 151.867,185.765 152.026,186.221 C152.183,186.678 153.452,186.508 153.736,186.412 C154.017,186.315 154.196,186.008 154.146,185.739 C154.036,185.152 153.554,185.027 153.554,185.027" id="Path" fill="#E1F2FF" fill-rule="nonzero"></path>
            <path d="M133.625,185.047 C133.625,185.047 133.237,184.844 132.469,185.283 C131.791,185.672 130.777,186.292 131.044,187.063 C131.311,187.835 133.454,187.548 133.932,187.385 C134.408,187.222 134.707,186.703 134.622,186.248 C134.439,185.258 133.625,185.047 133.625,185.047" id="Path" fill="#FFFFFF" fill-rule="nonzero"></path>
            <path d="M133.625,185.047 C133.625,185.047 133.237,184.844 132.469,185.283 C131.791,185.672 130.777,186.292 131.044,187.063 C131.311,187.835 133.454,187.548 133.932,187.385 C134.408,187.222 134.707,186.703 134.622,186.248 C134.439,185.258 133.625,185.047 133.625,185.047 L133.625,185.047 Z" id="Path" stroke="#52267D" stroke-width="0.5"></path>
            <path d="M133.553,185.027 C133.553,185.027 133.324,184.908 132.869,185.168 C132.467,185.398 131.867,185.765 132.026,186.221 C132.183,186.678 133.452,186.508 133.736,186.412 C134.017,186.315 134.196,186.008 134.146,185.739 C134.036,185.152 133.553,185.027 133.553,185.027" id="Path" fill="#E1F2FF" fill-rule="nonzero"></path>
            <path d="M136.152,185.003 C136.66,184.935 137.392,186.038 137.307,186.374 C137.224,186.71 137.167,187.82 136.344,187.941 C135.739,188.03 133.58,188.255 133.108,187.786 C132.673,187.354 133.524,185.355 136.152,185.003" id="Path" fill="#FFFFFF" fill-rule="nonzero"></path>
            <path d="M136.152,185.003 C136.66,184.935 137.392,186.038 137.307,186.374 C137.224,186.71 137.167,187.82 136.344,187.941 C135.739,188.03 133.58,188.255 133.108,187.786 C132.673,187.354 133.524,185.355 136.152,185.003 L136.152,185.003 Z" id="Path" stroke="#52267D" stroke-width="0.5"></path>
            <path d="M135.86,185.002 C136.16,184.962 136.59,185.612 136.542,185.811 C136.492,186.01 136.458,186.665 135.972,186.736 C135.616,186.788 134.341,186.921 134.064,186.645 C133.807,186.389 134.309,185.21 135.86,185.002" id="Path" fill="#E1F2FF" fill-rule="nonzero"></path>
            <path d="M176.915,184.28 C176.915,184.28 175.955,183.498 174.677,184.547 C173.51,185.506 172.632,186.987 173.154,187.136 C173.939514,187.350379 174.762419,187.390312 175.565,187.253 C176.407,187.098 177.15,187.26 177.488,185.5 C177.645,184.679 176.915,184.28 176.915,184.28" id="Path" fill="#FFFFFF" fill-rule="nonzero"></path>
            <path d="M176.915,184.28 C176.915,184.28 175.955,183.498 174.677,184.547 C173.51,185.506 172.632,186.987 173.154,187.136 C173.939514,187.350379 174.762419,187.390312 175.565,187.253 C176.407,187.098 177.15,187.26 177.488,185.5 C177.645,184.679 176.915,184.28 176.915,184.28 L176.915,184.28 Z" id="Path" stroke="#52267D" stroke-width="0.5"></path>
            <path d="M177.436,184.175 C177.436,184.175 176.838,183.688 176.043,184.341 C175.317,184.938 174.77,185.86 175.096,185.951 C175.421,186.044 175.996,186.135 176.596,186.025 C177.12,185.928 177.582,186.029 177.792,184.934 C177.89,184.423 177.436,184.174 177.436,184.174" id="Path" fill="#E1F2FF" fill-rule="nonzero"></path>
            <path d="M178.152,184.003 C178.66,183.935 179.391,185.038 179.307,185.374 C179.224,185.71 179.167,186.82 178.344,186.941 C177.739,187.03 175.58,187.255 175.108,186.786 C174.673,186.354 175.525,184.355 178.152,184.003" id="Path" fill="#FFFFFF" fill-rule="nonzero"></path>
            <path d="M178.152,184.003 C178.66,183.935 179.391,185.038 179.307,185.374 C179.224,185.71 179.167,186.82 178.344,186.941 C177.739,187.03 175.58,187.255 175.108,186.786 C174.673,186.354 175.525,184.355 178.152,184.003 L178.152,184.003 Z" id="Path" stroke="#52267D" stroke-width="0.5"></path>
            <path d="M178.86,185.002 C179.16,184.962 179.59,185.612 179.542,185.811 C179.492,186.01 179.459,186.665 178.972,186.736 C178.616,186.788 177.342,186.921 177.064,186.645 C176.807,186.389 177.309,185.21 178.86,185.002" id="Path" fill="#E1F2FF" fill-rule="nonzero"></path>
            <path d="M180.625,185.047 C180.625,185.047 180.235,184.844 179.469,185.283 C178.789,185.672 177.777,186.292 178.044,187.063 C178.311,187.835 180.454,187.548 180.931,187.385 C181.407,187.222 181.707,186.703 181.623,186.248 C181.439,185.258 180.625,185.047 180.625,185.047" id="Path" fill="#FFFFFF" fill-rule="nonzero"></path>
            <path d="M180.625,185.047 C180.625,185.047 180.235,184.844 179.469,185.283 C178.789,185.672 177.777,186.292 178.044,187.063 C178.311,187.835 180.454,187.548 180.931,187.385 C181.407,187.222 181.707,186.703 181.623,186.248 C181.439,185.258 180.625,185.047 180.625,185.047 Z" id="Path" stroke="#52267D" stroke-width="0.5"></path>
            <path d="M180.554,185.027 C180.554,185.027 180.325,184.908 179.869,185.168 C179.469,185.398 178.867,185.765 179.026,186.221 C179.184,186.678 180.453,186.508 180.736,186.412 C181.018,186.315 181.196,186.008 181.146,185.739 C181.036,185.152 180.554,185.027 180.554,185.027" id="Path" fill="#E1F2FF" fill-rule="nonzero"></path>
            <path d="M142.748,185.135 C142.908,185.001 143.098,184.964 143.254,185.037 C143.837,185.313 145.311,186.095 145.006,187.154 C144.769,187.979 144.266,187.731 143.303,187.748 L142.576,187.762 C142.424113,187.763707 142.283548,187.681903 142.21,187.549 C141.792,186.851 142.018,185.752 142.698,185.178 L142.748,185.135 L142.748,185.135 Z" id="Path" fill="#FFFFFF" fill-rule="nonzero"></path>
            <path d="M142.748,185.135 C142.908,185.001 143.098,184.964 143.254,185.037 C143.837,185.313 145.311,186.095 145.006,187.154 C144.769,187.979 144.266,187.731 143.303,187.748 L142.576,187.762 C142.424113,187.763707 142.283548,187.681903 142.21,187.549 C141.792,186.851 142.018,185.752 142.698,185.178 L142.748,185.135 L142.748,185.135 Z" id="Path" stroke="#52267D" stroke-width="0.5"></path>
            <path d="M142.544,185.098 C142.659,185 142.798,184.973 142.911,185.028 C143.335,185.228 144.406,185.795 144.185,186.565 C144.013,187.165 143.647,186.985 142.947,186.996 L142.419,187.006 C142.308774,187.007437 142.206639,186.948306 142.153,186.852 C141.849,186.344 142.013,185.546 142.508,185.129 L142.544,185.099 L142.544,185.098 Z" id="Path" fill="#E1F2FF" fill-rule="nonzero"></path>
            <path d="M139.125,184.361 C139.125,184.361 138.233,183.501 136.872,184.436 C135.627,185.293 134.627,186.694 135.136,186.887 C135.900229,187.167783 136.716783,187.277363 137.528,187.208 C138.378,187.126 139.106,187.35 139.593,185.625 C139.818,184.821 139.125,184.361 139.125,184.361" id="Path" fill="#FFFFFF" fill-rule="nonzero"></path>
            <path d="M139.125,184.361 C139.125,184.361 138.233,183.501 136.872,184.436 C135.627,185.293 134.627,186.694 135.136,186.887 C135.900229,187.167783 136.716783,187.277363 137.528,187.208 C138.378,187.126 139.106,187.35 139.593,185.625 C139.818,184.821 139.125,184.361 139.125,184.361 L139.125,184.361 Z" id="Path" stroke="#52267D" stroke-width="0.5"></path>
            <path d="M138.567,185.225 C138.567,185.225 138.012,184.688 137.165,185.272 C136.39,185.804 135.767,186.676 136.085,186.796 C136.401,186.916 136.963,187.056 137.573,186.996 C138.103,186.946 138.555,187.084 138.858,186.011 C138.998,185.511 138.567,185.225 138.567,185.225" id="Path" fill="#E1F2FF" fill-rule="nonzero"></path>
            <path d="M185.389,186.533 L61.255,186.533 C60.0098265,186.533 59,185.523173 59,184.278 L59,2.255 C59,1.00982653 60.0098265,0 61.255,0 L185.389,0 C186.634173,0 187.644,1.00982653 187.644,2.255 L187.644,184.278 C187.644,185.523173 186.634173,186.533 185.389,186.533" id="Path" fill="#FFFFFF" fill-rule="nonzero"></path>
            <path d="M185.389,187.533 L61.255,187.533 C60.0098265,187.533 59,186.523173 59,185.278 L59,3.255 C59,2.00982653 60.0098265,1 61.255,1 L185.389,1 C186.634173,1 187.644,2.00982653 187.644,3.255 L187.644,185.278 C187.644,186.523173 186.634173,187.533 185.389,187.533 Z" id="Path" stroke="#5E63B6" stroke-width="2"></path>
            <path d="M144.465,38.732 C144.465,52.392 133.392,63.464 119.733,63.464 C106.073,63.464 95,52.392 95,38.732 C95,25.073 106.073,14 119.733,14 C133.392,14 144.465,25.073 144.465,38.732" id="Path" fill="#E1F2FF" fill-rule="nonzero"></path>
            <path d="M147.465,33.732 C147.465,47.392 136.392,58.464 122.733,58.464 C109.073,58.464 98,47.392 98,33.732 C98,20.073 109.073,9 122.733,9 C136.392,9 147.465,20.073 147.465,33.732" id="Path" fill="#FFFFFF" fill-rule="nonzero"></path>
            <path d="M147.465,33.732 C147.465,47.392 136.392,58.464 122.733,58.464 C109.073,58.464 98,47.392 98,33.732 C98,20.073 109.073,9 122.733,9 C136.392,9 147.465,20.073 147.465,33.732 Z" id="Path" stroke="#5E63B6" stroke-width="2"></path>
            <path d="M129.169,47.178 C129.273,47.486 129.364,47.696 129.392,47.766 C129.4,47.773 129.383,47.762 129.392,47.766 C129.392,47.766 129.392,47.768 129.392,47.766 L129.391,47.766 C128.692,41.026 132.515,38.217 133.743,33.74 C133.749,33.673 133.762,33.601 133.782,33.52 C133.808,33.42 133.828,33.316 133.844,33.212 C134.026,31.974 133.519,30.532 132.558,29.032 C132.554,29.022 132.547,29.014 132.542,29.007 C132.464,28.881 132.379,28.757 132.294,28.632 C132.294,28.632 132.291,28.63 132.29,28.627 C132.12817,28.3931287 131.96045,28.1633885 131.787,27.938 C131.769,27.914 131.752,27.889 131.733,27.866 C131.684,27.803 131.632,27.741 131.584,27.678 L131.431,27.484 L131.273,27.295 L131.108,27.1 L130.99,26.964 C129.48,25.224 127.514,23.505 125.462,22.01 C125.462,22.01 125.447,21.987 125.462,22.01 C125.734,24.546 125.768,27.083 125.528,29.111 C125.238,31.556 124.363,34.403 123.149,36.983 C120.307,36.751 117.402,36.093 115.137,35.125 C113.244,34.317 111.074,33.04 109,31.527 C109.023,31.738 109.048,31.947 109.072,32.157 L109.097,32.344 C109.117,32.494 109.135,32.642 109.158,32.794 L109.188,33 C109.217473,33.2108169 109.250144,33.4211744 109.286,33.631 C109.319125,33.8380973 109.354794,34.0447796 109.393,34.251 C109.431,34.471 109.473,34.686 109.516,34.902 C109.518,34.918 109.523,34.933 109.526,34.952 C109.566,35.145 109.605,35.336 109.647,35.528 C109.656,35.568 109.665,35.606 109.672,35.645 C109.719153,35.853684 109.767821,36.0620229 109.818,36.27 C109.868,36.47 109.917,36.67 109.968,36.866 C109.97,36.867 109.97,36.869 109.97,36.869 C110.138,37.502 110.322,38.113 110.521,38.699 L110.528,38.72 C110.865,39.7 111.249,40.601 111.678,41.39 C111.741,41.504 111.805,41.617 111.87,41.727 C111.873,41.731 111.873,41.737 111.876,41.74 L111.877,41.74 C111.936,41.84 111.996,41.94 112.055,42.033 L112.057,42.035 L112.064,42.046 C112.128,42.149 112.194,42.25 112.261,42.346 L112.29,42.386 L112.29,42.388 C112.389351,42.5296669 112.492387,42.6687143 112.599,42.805 C112.604,42.812 112.61,42.818 112.615,42.827 C112.782423,43.0416957 112.964171,43.2448256 113.159,43.435 C113.191,43.468 113.226,43.497 113.258,43.528 C113.306,43.574 113.355,43.616 113.403,43.66 C113.44,43.692 113.477,43.72 113.515,43.751 C113.561,43.791 113.609,43.826 113.656,43.864 L113.77,43.945 L113.916,44.046 L114.03,44.116 L114.187,44.206 L114.296,44.261 C114.356,44.289 114.416,44.315 114.478,44.342 C114.506,44.352 114.538,44.368 114.568,44.379 C114.661,44.417 114.754,44.449 114.847,44.474 C114.911,44.494 114.964,44.512 115.015,44.532 C119.515,45.72 123.897,43.837 129.392,47.766" id="Path" fill="#9452BA" fill-rule="nonzero"></path>
            <line x1="92.376" y1="108.067" x2="156.144" y2="108.067" id="Path" fill="#FFFFFF" fill-rule="nonzero"></line>
            <line x1="92.376" y1="122.067" x2="156.144" y2="122.067" id="Path" stroke="#5E63B6" stroke-width="2" stroke-linecap="round" stroke-linejoin="round"></line>
            <line x1="92.376" y1="128.627" x2="156.144" y2="128.627" id="Path" fill="#FFFFFF" fill-rule="nonzero"></line>
            <line x1="92.376" y1="142.627" x2="156.144" y2="142.627" id="Path" stroke="#5E63B6" stroke-width="2" stroke-linecap="round" stroke-linejoin="round"></line>
            <line x1="92.376" y1="162.878" x2="156.144" y2="162.878" id="Path" fill="#FFFFFF" fill-rule="nonzero"></line>
            <path d="M92.376,163.878 L156.144,163.878 M204,49 L204,56 M207,52 L200,52" id="Shape" stroke="#5E63B6" stroke-width="2" stroke-linecap="round" stroke-linejoin="round"></path>
            <path d="M40,155 L40,158.938 M41.938,157 L38,157" id="Shape" stroke="#5E63B6" stroke-linecap="round"></path>
            <path d="M215,95 L215,98.938 M216.938,97 L213,97" id="Shape" stroke="#5E63B6" stroke-linecap="round" stroke-linejoin="round"></path>
            <path d="M46,55 L46,58.938 M47.938,57 L44,57" id="Shape" stroke="#5E63B6" stroke-linecap="round"></path>
            <g id="Group" transform="translate(22.000000, 93.000000)">
                <line x1="1.415" y1="0.808" x2="1.415" y2="8.933" id="Path" fill="#FFFFFF" fill-rule="nonzero"></line>
                <line x1="1.415" y1="0.808" x2="1.415" y2="8.933" id="Path" stroke="#5E63B6" stroke-width="2" stroke-linecap="round"></line>
            </g>
            <g id="Group" transform="translate(19.000000, 97.000000)">
                <line x1="8.478" y1="0.87" x2="0.353" y2="0.87" id="Path" fill="#FFFFFF" fill-rule="nonzero"></line>
                <line x1="8.478" y1="0.87" x2="0.353" y2="0.87" id="Path" stroke="#5E63B6" stroke-width="2" stroke-linecap="round"></line>
            </g>
            <g id="Group" transform="translate(243.000000, 187.000000)">
                <line x1="0.167" y1="0.683" x2="7.141" y2="0.683" id="Path" fill="#FFFFFF" fill-rule="nonzero"></line>
                <line x1="0.167" y1="0.683" x2="7.141" y2="0.683" id="Path" stroke="#5E63B6" stroke-width="2" stroke-linecap="round" stroke-linejoin="round"></line>
            </g>
            <g id="Group" transform="translate(0.000000, 187.000000)">
                <line x1="0" y1="0.683" x2="8.973" y2="0.683" id="Path" fill="#FFFFFF" fill-rule="nonzero"></line>
                <line x1="0" y1="0.683" x2="8.973" y2="0.683" id="Path" stroke="#5E63B6" stroke-width="2" stroke-linecap="round" stroke-linejoin="round"></line>
            </g>
            <g id="Group" transform="translate(92.000000, 196.000000)">
                <line x1="0.382" y1="1" x2="67.568" y2="1" id="Path" fill="#FFFFFF" fill-rule="nonzero"></line>
                <line x1="0.382" y1="1" x2="67.568" y2="1" id="Path" stroke="#5E63B6" stroke-width="2" stroke-linecap="round" stroke-linejoin="round"></line>
            </g>
            <g id="Group" transform="translate(168.000000, 196.000000)">
                <line x1="0.187" y1="1" x2="9.328" y2="1" id="Path" fill="#FFFFFF" fill-rule="nonzero"></line>
                <line x1="0.187" y1="1" x2="9.328" y2="1" id="Path" stroke="#5E63B6" stroke-width="2" stroke-linecap="round" stroke-linejoin="round"></line>
            </g>
            <g id="Group" transform="translate(79.000000, 196.000000)">
                <line x1="5.5" y1="0.924" x2="0.5" y2="0.999" id="Path" fill="#FFFFFF" fill-rule="nonzero"></line>
                <line x1="5.5" y1="0.924" x2="0.5" y2="0.999" id="Path" stroke="#5E63B6" stroke-width="2" stroke-linecap="round" stroke-linejoin="round"></line>
            </g>
            <rect id="Rectangle" stroke="#5E63B6" fill="#FFFFFF" x="66.5" y="76.5" width="33" height="22"></rect>
            <line x1="122.5" y1="78.5" x2="122.5" y2="96.5" id="Line" stroke="#9452BA" stroke-width="3" stroke-linecap="square"></line>
            <line x1="108.5" y1="87.5" x2="137.5" y2="87.5" id="Line" stroke="#9452BA" stroke-width="3" stroke-linecap="square"></line>
            <line x1="108.5" y1="98.5" x2="118.5" y2="91.5" id="Line" stroke="#9452BA" stroke-linecap="round"></line>
            <line x1="106.5" y1="78.5" x2="117.5" y2="83.5" id="Line" stroke="#9452BA" stroke-linecap="round"></line>
            <line x1="126" y1="91" x2="139.5" y2="97.5" id="Line" stroke="#9452BA" stroke-linecap="round"></line>
            <polygon id="Triangle" fill="#5E63B6" points="125.5 76.5 135.000255 76.5 125.5 82.612659"></polygon>
            <polygon id="Triangle" fill="#5E63B6" points="125.5 97.9997446 125.5 91.999986 138.036 97.9997446"></polygon>
            <polygon id="Triangle" fill="#5E63B6" points="110.62769 98.4763402 119.5 91.999986 119.60069 98.2125076"></polygon>
            <polygon id="Triangle" fill="#5E63B6" points="106.5 98.2125076 106.5 90.5 116.427608 90.5"></polygon>
            <polygon id="Triangle" fill="#5E63B6" points="129.37 90.5 139 90.5 139 95.0283336"></polygon>
            <polygon id="Triangle" fill="#5E63B6" points="129.37 84.5 139 78.5 139 84.5"></polygon>
            <polygon id="Triangle" fill="#5E63B6" points="107.795306 77 119.5 77 119.5 82.612659"></polygon>
            <polygon id="Triangle" fill="#5E63B6" points="106.5 80 116.427608 84.5 106.5 84.5"></polygon>
            <line x1="137.5" y1="76.5" x2="126.5" y2="83.5" id="Line" stroke="#9452BA" stroke-linecap="round"></line>
            <rect id="Rectangle" stroke="#5E63B6" fill="#FFFFFF" x="146.5" y="76.5" width="33" height="22"></rect>
            <rect id="Rectangle" stroke="#5E63B6" x="106.5" y="76.5" width="33" height="22"></rect>
            <rect id="Rectangle" stroke="#5E63B6" fill="#5E63B6" x="66.5" y="76.5" width="11.5" height="22"></rect>
            <rect id="Rectangle" stroke="#5E63B6" fill="#5E63B6" x="146.5" y="76.5" width="33" height="7"></rect>
            <rect id="Rectangle" stroke="#9452BA" fill="#9452BA" x="88.5" y="77.5" width="10" height="20"></rect>
            <rect id="Rectangle" stroke="#9452BA" fill="#9452BA" x="147.5" y="84.5" width="31" height="6"></rect>
        </g>
    </g>
</svg>