<?xml version="1.0" encoding="UTF-8" standalone="no"?>
<svg width="256px" height="256px" viewBox="0 0 256 256" version="1.1" xmlns="http://www.w3.org/2000/svg" xmlns:xlink="http://www.w3.org/1999/xlink">
    <!-- Generator: Sketch 46.2 (44496) - http://www.bohemiancoding.com/sketch -->
    <title>icon--postman</title>
    <desc>Created with Sketch.</desc>
    <defs></defs>
    <g id="Page-1" stroke="none" stroke-width="1" fill="none" fill-rule="evenodd">
        <g id="icon--postman">
            <path d="M95,230 L162.19,230" id="Shape" stroke="#9ACDED" stroke-width="3" fill="#FFFFFF" fill-rule="nonzero" stroke-linecap="round" stroke-linejoin="round"></path>
            <path d="M171,230 L180.14,230" id="Shape" stroke="#9ACDED" stroke-width="3" fill="#FFFFFF" fill-rule="nonzero" stroke-linecap="round" stroke-linejoin="round"></path>
            <g id="Group-4" transform="translate(21.000000, 23.000000)">
                <path d="M0,195.559998 C1.20528625e-06,138.36539 46.3653922,92 103.56,92 C160.754608,92 207.119999,138.36539 207.12,195.559998 L0,195.559998 Z" id="Shape" fill="#E1F2FF" fill-rule="nonzero"></path>
                <g id="Group-2" transform="translate(1.000000, 0.000000)" stroke="#375D81" stroke-linecap="round">
                    <path d="M184.98,44.4 L184.98,51.4" id="Shape" stroke-width="2" stroke-linejoin="round"></path>
                    <path d="M188.48,47.9 L181.48,47.9" id="Shape" stroke-width="2" stroke-linejoin="round"></path>
                    <path d="M58,0 L58,7" id="Shape" stroke-width="2" stroke-linejoin="round"></path>
                    <path d="M62,4 L55,4" id="Shape" stroke-width="2" stroke-linejoin="round"></path>
                    <path d="M20.73,164.68 L20.73,168.62" id="Shape"></path>
                    <path d="M22.7,166.65 L18.76,166.65" id="Shape"></path>
                    <path d="M195.73,104.68 L195.73,108.62" id="Shape" stroke-linejoin="round"></path>
                    <path d="M197.7,106.65 L193.76,106.65" id="Shape" stroke-linejoin="round"></path>
                    <path d="M26.73,64.68 L26.73,68.62" id="Shape"></path>
                    <path d="M28.7,66.65 L24.76,66.65" id="Shape"></path>
                    <path d="M4.42,103.28 L4.42,111.4" id="Shape" stroke-width="2" fill="#FFFFFF" fill-rule="nonzero"></path>
                    <path d="M8.48,107.34 L0.35,107.34" id="Shape" stroke-width="2" fill="#FFFFFF" fill-rule="nonzero"></path>
                </g>
            </g>
            <path d="M89,230 L84,230.08" id="Shape" stroke="#9ACDED" stroke-width="3" fill="#FFFFFF" fill-rule="nonzero" stroke-linecap="round" stroke-linejoin="round"></path>
            <g id="Group" transform="translate(69.000000, 41.000000)">
                <path d="M132.68,74.945 C128.026,111.232 94.834,136.869 58.553,132.21 C22.266,127.555 -3.371,94.364 1.283,58.08 C5.94,21.794 39.125,-3.846 75.415,0.814 C111.7,5.467 137.343,38.661 132.68,74.944" id="Shape" fill="#F15A24" fill-rule="nonzero"></path>
                <path d="M83.872,47.682 C88.225,52.309 83.929,63.249 83.929,63.249 C83.929,63.249 79.683,78.716 55.373,98.773 L50.835,94.319 L81.695,62.779 L82.291,61.974 C83.112,60.636 83.792,47.592 83.872,47.682" id="Shape" fill="#999999" fill-rule="nonzero"></path>
                <path d="M83.872,47.682 C88.225,52.309 83.929,63.249 83.929,63.249 C83.929,63.249 79.683,78.716 55.373,98.773 L50.835,94.319 L81.695,62.779 L82.291,61.974 C83.112,60.636 83.792,47.592 83.872,47.682 L83.872,47.682 Z" id="Shape" stroke="#FFFFFF" stroke-width="1.918" stroke-linecap="round" stroke-linejoin="round"></path>
                <path d="M44.17,87.762 L83.807,47.568 C85.819,49.957 86.247,52.531 85.663,56.198 C85.27,58.738 80.883,63.814 80.883,63.814 L50.835,94.319" id="Shape" fill="#666666" fill-rule="nonzero"></path>
                <path d="M44.17,87.762 L83.807,47.568 C85.819,49.957 86.247,52.531 85.663,56.198 C85.27,58.738 80.883,63.814 80.883,63.814 L50.835,94.319" id="Shape" stroke="#FFFFFF" stroke-width="1.201" stroke-linecap="round" stroke-linejoin="round"></path>
                <path d="M83.872,47.71 L44.17,87.763 L44.25,87.685 L44.235,87.691 L34.385,77.985 C54.926,52.434 68.207,47.67 68.207,47.67 C68.207,47.67 76.853,44.295 83.021,46.914 C83.495,47.168 83.701,47.314 83.871,47.711" id="Shape" fill="#FF931E" fill-rule="nonzero"></path>
                <path d="M83.872,47.71 L44.17,87.763 L44.25,87.685 L44.235,87.691 L34.385,77.985 C54.926,52.434 68.207,47.67 68.207,47.67 C68.207,47.67 76.853,44.295 83.021,46.914 C83.495,47.168 83.701,47.314 83.871,47.711 L83.872,47.71 Z" id="Shape" stroke="#FFFFFF" stroke-width="1.918" stroke-linecap="round" stroke-linejoin="round"></path>
                <path d="M55.373,98.772 C45.901,106.573 33.779,118.827 17.302,127.374 L20.967,143.042 L5.433,127.742 L44.169,87.762" id="Shape" fill="#999999" fill-rule="nonzero"></path>
                <path d="M55.373,98.772 C45.901,106.573 33.779,118.827 17.302,127.374 L20.967,143.042 L5.433,127.742 L44.169,87.762" id="Shape" stroke="#FFFFFF" stroke-width="1.918" stroke-linecap="round" stroke-linejoin="round"></path>
                <polygon id="Shape" fill="#F15A24" fill-rule="nonzero" points="34.65 78.116 44.273 87.701 22.042 92.516 34.437 77.943 34.651 78.116"></polygon>
                <polygon id="Shape" stroke="#FFFFFF" stroke-width="1.918" stroke-linecap="round" stroke-linejoin="round" points="34.65 78.116 44.273 87.701 22.042 92.516 34.437 77.943 34.651 78.116"></polygon>
                <path d="M80.082,36.087 C79.138,44.607 85.272,52.277 93.792,53.227 C102.305,54.173 109.982,48.034 110.932,39.517 C111.879,31 105.735,23.322 97.219,22.375 C88.698,21.434 81.027,27.565 80.082,36.087" id="Shape" fill="#999999" fill-rule="nonzero"></path>
                <path d="M80.082,36.087 C79.138,44.607 85.272,52.277 93.792,53.227 C102.305,54.173 109.982,48.034 110.932,39.517 C111.879,31 105.735,23.322 97.219,22.375 C88.698,21.434 81.027,27.565 80.082,36.087 L80.082,36.087 Z" id="Shape" stroke="#FFFFFF" stroke-width="1.918" stroke-linecap="round" stroke-linejoin="round"></path>
                <path d="M108.703,46.378 C111.566,42.195 111.418,35.937 110.843,34.083 C110.138,31.813 108.56,28.121 105.808,26.202 L91.256,39.606 C91.256,39.606 102.44,51.622 102.731,51.662 C102.852,51.676 106.092,50.192 108.703,46.378" id="Shape" fill="#666666" fill-rule="nonzero"></path>
                <path d="M108.703,46.378 C111.566,42.195 111.418,35.937 110.843,34.083 C110.138,31.813 108.56,28.121 105.808,26.202 L91.256,39.606 C91.256,39.606 102.44,51.622 102.731,51.662 C102.852,51.676 106.092,50.192 108.703,46.378 L108.703,46.378 Z M105.767,35.878 C105.767,35.878 107.166,39.314 105.391,41.987 L105.767,35.878 Z" id="Shape" stroke="#FFFFFF" stroke-width="1.918" stroke-linecap="round" stroke-linejoin="round"></path>
                <polyline id="Shape" fill="#666666" fill-rule="nonzero" points="51.178 94.325 35.118 97.183 44.812 87.111"></polyline>
                <polyline id="Shape" stroke="#FFFFFF" stroke-width="1.918" stroke-linecap="round" stroke-linejoin="round" points="51.178 94.325 35.118 97.183 44.812 87.111"></polyline>
                <path d="M35.023,78.186 L55.44,97.401" id="Shape" stroke="#FFFFFF" stroke-width="1.918" stroke-linecap="round" stroke-linejoin="round"></path>
            </g>
            <path d="M182.649882,205 C181.845614,187.995855 170.749136,174.149825 156.378105,172.218446 C152.446202,149.863678 137.737489,132.307226 118.806618,127.372777 C99.8757466,122.438329 80.2478151,131.044723 68.6696268,149.356689 C55.2605052,145.373119 41.0556011,149.847678 31.1272122,161.182586 C21.1988233,172.517495 16.9624997,189.096667 19.9309509,205" id="Shape" stroke="#9ACDED" stroke-width="3" fill="#FFFFFF" fill-rule="nonzero" stroke-linecap="round"></path>
            <rect id="Rectangle" fill="#FFFFFF" x="21" y="204" width="55" height="25"></rect>
            <path d="M14,206 L19.33,206" id="Shape" stroke="#9ACDED" stroke-width="3" fill="#FFFFFF" fill-rule="nonzero" stroke-linecap="round"></path>
            <rect id="Rectangle" fill="#FFFFFF" x="118" y="199" width="55" height="25"></rect>
            <path d="M240.33,219.438405 L223.762719,219.438405 C227.714313,207.321278 220.74657,194.404693 208.199829,190.588405 C195.653087,186.772118 182.278544,193.501278 178.326949,205.618405 C173.819004,204.638078 169.092455,205.599614 165.37704,208.252844 C161.661624,210.906073 159.324705,214.988658 158.974293,219.438405 L144.76785,219.438405 C144.21629,209.873379 136.606438,202.084829 126.750931,200.998405 C124.054471,188.423592 113.967385,178.547887 100.984785,175.772203 C88.0021856,172.996519 74.541549,177.837715 66.6013447,188.138405 C57.4055049,185.897602 47.6639256,188.414592 40.855137,194.790608 C34.0463484,201.166624 31.1411206,210.492598 33.1768543,219.438405 L16.33,219.438405" id="Shape" stroke="#9ACDED" stroke-width="3" fill="#FFFFFF" fill-rule="nonzero" stroke-linecap="round"></path>
        </g>
    </g>
</svg>