<svg xmlns="http://www.w3.org/2000/svg" width="500" height="250">
    <g fill="none" fill-rule="evenodd" transform="translate(1 8)">
        <path fill="#F0F9FF" fill-rule="nonzero" d="M31 240.17C31 116.92 130.92 17 254.17 17c123.25 0 223.17 99.9 223.17 223.17H31z"/>
        <path stroke="#375D81" d="M414.82 28.57v3.06M416.35 30.1h-3.06" stroke-linecap="round"/>
        <path fill="#FFF" fill-rule="nonzero" stroke="#375D81" stroke-width="2" d="M491.86 233.83h5.42M0 233.8h6.97M374.58 240.9h52.2M433.46 240.9h7.1M368.45 240.86l-3.88.05" stroke-linecap="round" stroke-linejoin="round"/>
        <path fill="#E1F2FF" fill-rule="nonzero" stroke="#9ACDED" stroke-width="2" d="M422.46 176.7l6.73 6.06 7.2-3.6 4.08.9 3.34-10.42-9.16-4.46-14.3 5.36z"/>
        <path fill="#E1F2FF" fill-rule="nonzero" stroke="#9ACDED" stroke-width="2" d="M432.6 181.05l2.08 2.84 4.6-4.12-2.9-.63zM436.6 170.5l-.9-7.6 8.12 6.74-3.34 10.4M424.08 172.88l-.5-5.85 7.05.23 2.52.85M428.63 178.13l2.2-6.08 2.43 1.42M388.86 170.07l5.85-12.55 12.3.77 5.23-3.74 10.94 12.65L412.95 179l-23.36 1.04z"/>
        <path fill="#E1F2FF" fill-rule="nonzero" stroke="#9ACDED" stroke-width="2" d="M400.53 157.88l1.22-5.24 8.95 3-3.7 2.65zM410.12 162.22l5.65 19.35 7.4-14.36-10.94-12.64M393.44 174.48l2.8 8.53 9.8-4.53 3.02-2.7M396.7 164.37l6.73 7.25 2.58-3.47"/>
        <path fill="#FFF" fill-rule="nonzero" stroke="#375D81" stroke-width="2" d="M191.8 240.9h52.18M250.67 240.9h38.18M185.67 240.86l-19.42.05M67.65 240.9h5.6M61.53 240.86l-19.42.05" stroke-linecap="round" stroke-linejoin="round"/>
        <path fill="#E1F2FF" fill-rule="nonzero" stroke="#9ACDED" stroke-width="2" d="M470.76 195c4.25 1.35 8.08 3.76 11.15 7 6.83 7.36 12.48 30.8-13.77 30.92-21.76.1-22.3-.68-24.33-7.67-1.4-4.75-1-20.83 8.9-27.25 6.3-3.88 11.15-3 11.15-3s-4.12-6.18-1-9.2c3.4 0 4.24 4.6 4.24 4.6s1.57-4.73 3.14-4.6c1.57.1 3.07 2.08.52 9.2z"/>
        <path fill="#9ACDED" fill-rule="nonzero" d="M443.37 221.8c-1-4.84-.6-17.32 9.33-23.75 6.3-3.88 11.15-3 11.15-3s-4.12-6.18-1-9.2c.48 4.72 4.3 10.6 4.3 10.6s-21.84 11.55-14.33 33.73c-6.06-.37-9.2-7.1-9.45-8.37z"/>
        <path stroke="#9ACDED" stroke-width="2" d="M479 206.94c2.2 3 3.1 6.74 2.52 10.4M474.8 225s-.6 1.94-2.2 2.06" stroke-linecap="round"/>
        <rect width="17.41" height="25.24" x="450.25" y="206.71" fill="#FFF" fill-rule="nonzero" stroke="#9ACDED" stroke-width="2" transform="rotate(167.22 458.958 219.333)" rx="2.25"/>
        <path fill="#E1F2FF" fill-rule="nonzero" d="M468.26 227.15l-14.4 4.34-4.72-20.8 14.65-4.03"/>
        <circle cx="458.42" cy="214.6" r="3.35" fill="#FFF" fill-rule="nonzero" transform="rotate(-12.78 458.422 214.605)"/>
        <circle cx="457.88" cy="214.03" r="3.35" fill="#FFF" fill-rule="nonzero" stroke="#9ACDED" stroke-width="2" transform="rotate(-12.78 457.88 214.03)"/>
        <path fill="#9452BA" fill-rule="nonzero" d="M457.42 215.86v.08c-.1-.9-.7-1.17-1-1.72-.07-.2-.07-.4 0-.6V213.4c.16-.3.36-.57.58-.82.03.32.1.63.2.94-.13.43.1.88.54 1 .42.15.88-.1 1-.52.27-.2.5-.42.7-.66V214.28c0 .13-.03.26-.06.4v.16c-.56.3-1.2.17-1.8.86"/>
        <path fill="#9ACDED" fill-rule="nonzero" d="M462.73 219.8l.3-.47 1.32.83.5-.82.5.3-.82 1.3"/>
        <path fill="#FFF" fill-rule="nonzero" stroke="#9ACDED" stroke-width="2" d="M461.94 220.55l-8.42 1.9" stroke-linecap="round" stroke-linejoin="round"/>
        <path fill="#9ACDED" fill-rule="nonzero" d="M463.3 222.4l.32-.5 1.32.85.5-.82.5.3-.82 1.3"/>
        <path fill="#FFF" fill-rule="nonzero" stroke="#9ACDED" stroke-width="2" d="M462.55 223.26l-8.4 1.9" stroke-linecap="round" stroke-linejoin="round"/>
        <path fill="#9ACDED" fill-rule="nonzero" d="M463.9 225l.3-.5 1.32.83.52-.8.48.3-.82 1.28v.02"/>
        <path fill="#FFF" fill-rule="nonzero" stroke="#9ACDED" stroke-width="2" d="M463.2 226.07l-8.42 1.9" stroke-linecap="round" stroke-linejoin="round"/>
        <rect width="18.41" height="26.69" x="453.03" y="204.49" fill="#FFF" fill-rule="nonzero" stroke="#9ACDED" stroke-width="2" transform="rotate(167.22 462.238 217.84)" rx="2.25"/>
        <path fill="#E1F2FF" fill-rule="nonzero" d="M471.2 224.72l-13.35 4.08-4.63-20.44 13.58-3.78"/>
        <path fill="#FFF" fill-rule="nonzero" stroke="#9ACDED" stroke-width="2" d="M466.95 216.42l-8.9 2.02M467.6 219.3l-8.9 2M468.28 222.26l-8.9 2" stroke-linecap="round" stroke-linejoin="round"/>
        <path fill="#E1F2FF" fill-rule="nonzero" stroke="#9ACDED" stroke-width="2" d="M57.7 196c-4.26 1.35-8.1 3.76-11.16 7-6.82 7.36-12.47 30.8 13.78 30.92 21.76.1 22.3-.68 24.33-7.67 1.4-4.75 1-20.83-8.9-27.25-6.3-3.88-11.15-3-11.15-3s4.12-6.18 1-9.2c-3.4 0-4.24 4.6-4.24 4.6s-1.58-4.73-3.15-4.6c-1.56.1-3.05 2-.5 9.2z"/>
        <path fill="#9ACDED" fill-rule="nonzero" d="M85.1 222.74c1-4.85.6-17.33-9.34-23.76-6.3-3.88-11.15-3-11.15-3s4.13-6.18 1-9.2c-.47 4.72-4.3 10.6-4.3 10.6s21.88 11.57 14.37 33.75c6.02-.4 9.16-7.13 9.42-8.4z"/>
        <path stroke="#9ACDED" stroke-width="2" d="M49.47 207.87c-2.18 3-3.07 6.75-2.47 10.4M53.65 225.9s.6 1.93 2.2 2.05" stroke-linecap="round"/>
        <rect width="17.49" height="25.35" x="61.34" y="208.57" fill="#FFF" fill-rule="nonzero" stroke="#9ACDED" stroke-width="2.01" transform="rotate(12.653 70.087 221.244)" rx="2.25"/>
        <path fill="#E1F2FF" fill-rule="nonzero" d="M60.2 228.08l14.4 4.33 4.7-20.77-14.64-4.04"/>
        <circle cx="70.04" cy="215.59" r="3.35" fill="#FFF" fill-rule="nonzero" transform="rotate(-77.22 70.042 215.587)"/>
        <circle cx="70.59" cy="215" r="3.35" fill="#FFF" fill-rule="nonzero" stroke="#9ACDED" stroke-width="2" transform="rotate(-77.22 70.588 215.004)"/>
        <path fill="#9452BA" fill-rule="nonzero" d="M71 216.8v.07c.1-.9.7-1.17 1-1.72.07-.2.07-.4 0-.6V214.34c-.16-.3-.36-.57-.58-.82-.03.33-.1.64-.2.95-.13.36-.32.7-.55 1-.36-.1-.7-.27-1-.48-.26-.2-.5-.42-.7-.66V215.27c0 .13.04.26.07.4v.15c.56.3 1.2.18 1.8.87"/>
        <path fill="#9ACDED" fill-rule="nonzero" d="M65.73 220.73l-.3-.48-1.32.83-.5-.82-.5.3.83 1.3"/>
        <path fill="#FFF" fill-rule="nonzero" stroke="#9ACDED" stroke-width="2" d="M66.52 221.48l8.4 1.9" stroke-linecap="round" stroke-linejoin="round"/>
        <path fill="#9ACDED" fill-rule="nonzero" d="M65.14 223.32l-.3-.48-1.32.83-.52-.82-.48.3.82 1.3"/>
        <path fill="#FFF" fill-rule="nonzero" stroke="#9ACDED" stroke-width="2" d="M65.9 224.2l8.42 1.9" stroke-linecap="round" stroke-linejoin="round"/>
        <path fill="#9ACDED" fill-rule="nonzero" d="M64.55 225.9l-.3-.47-1.32.83-.5-.82-.5.3.82 1.3"/>
        <path fill="#FFF" fill-rule="nonzero" stroke="#9ACDED" stroke-width="2" d="M65.27 227l8.4 1.9" stroke-linecap="round" stroke-linejoin="round"/>
        <rect width="18.41" height="26.69" x="56.98" y="205.39" fill="#FFF" fill-rule="nonzero" stroke="#9ACDED" stroke-width="2" transform="rotate(12.78 66.18 218.74)" rx="2.25"/>
        <path fill="#E1F2FF" fill-rule="nonzero" d="M57.26 225.65l13.34 4.07 4.64-20.43-13.58-3.8"/>
        <path fill="#FFF" fill-rule="nonzero" stroke="#9ACDED" stroke-width="2" d="M61.5 217.35l8.9 2.02M60.85 220.22l8.9 2M60.18 223.18l8.9 2.02" stroke-linecap="round" stroke-linejoin="round"/>
        <path fill="#FFF" fill-rule="nonzero" stroke="#375D81" stroke-width="2" d="M407.47 180.48h49.5v53.33h-49.5zM382.67 180.53h24.75v53.33h-24.75z"/>
        <path stroke="#9ACDED" stroke-width="2" d="M388.72 211.8h11.45M388.72 215.92h11.45M388.72 220.04h11.45" stroke-linecap="round"/>
        <text fill="#375D81" font-family="Lato-Regular, Lato" font-size="10.2">
            <tspan x="415.75" y="212.91">ERROR</tspan>
        </text>
        <path fill="#FFF" fill-rule="nonzero" stroke="#375D81" stroke-width="2" d="M178.8 233.86h307.6" stroke-linecap="round" stroke-linejoin="round"/>
        <path stroke="#375D81" stroke-width="2" d="M492.28 163.02v5.44M495 165.74h-5.44" stroke-linecap="round" stroke-linejoin="round"/>
        <path fill="#FFF" fill-rule="nonzero" stroke="#375D81" stroke-width="2" d="M304.26 160.72H270.3l-18.6-22.26h33.95zM304.26 160.72h67.9l18.6-22.26h-67.9z"/>
        <path stroke="#375D81" d="M280.67 187.3v3.05M282.2 188.82h-3.06" stroke-linecap="round"/>
        <rect width="49.71" height="72.09" x="278.69" y="109.7" fill="#FFF" fill-rule="nonzero" stroke="#9ACDED" stroke-width="2" transform="rotate(-16.96 303.55 145.74)" rx="2.25"/>
        <path fill="#E1F2FF" fill-rule="nonzero" d="M291.62 178.42l41.87-9.64-17.77-58.23-42.05 10.74"/>
        <circle cx="298.33" cy="133.42" r="9.56" fill="#FFF" fill-rule="nonzero" transform="rotate(-16.96 298.326 133.415)"/>
        <circle cx="298.86" cy="131.22" r="9.56" fill="#FFF" fill-rule="nonzero" stroke="#9ACDED" stroke-width="2" transform="rotate(-16.96 298.864 131.223)"/>
        <path fill="#9ACDED" fill-rule="nonzero" d="M302.5 135.07l.16.2c-1-2.42.08-3.9 0-5.7v-.08-.13c-.14-.56-.48-1.06-.95-1.4l-.12-.1-.26-.2-.08-.06-.08-.04-.08-.05-.08-.04h-.06c-.82-.5-1.7-.9-2.6-1.2.37.83.64 1.7.82 2.6.16 1.06.16 2.14 0 3.2-1.04.23-2.1.3-3.17.2-.92-.1-1.82-.32-2.68-.63l.1.22v.07l.07.16v.07l.07.16v.07l.1.2.12.23.1.2.1.18.12.2.4.6c.23.32.47.6.74.87l.1.1.1.1.12.08.14.1.16.1.1.06h1.03c1.8-.08 3.2-1.27 5.68-.43M294.94 152.37l-1.43-.76-2.08 3.93-2.44-1.3-.76 1.43 3.85 2.06h.02"/>
        <path fill="#FFF" fill-rule="nonzero" stroke="#9ACDED" stroke-width="2" d="M297.95 153.1l23.57-7.2" stroke-linecap="round" stroke-linejoin="round"/>
        <path fill="#9ACDED" fill-rule="nonzero" d="M297.15 159.62l-1.43-.76-2.1 3.92-2.43-1.3-.77 1.43 3.86 2.07"/>
        <path fill="#FFF" fill-rule="nonzero" stroke="#9ACDED" stroke-width="2" d="M300.27 160.7l23.57-7.2" stroke-linecap="round" stroke-linejoin="round"/>
        <path fill="#9ACDED" fill-rule="nonzero" d="M299.36 166.87l-1.43-.76-2.1 3.93-2.43-1.3-.76 1.44 3.86 2.05"/>
        <path fill="#FFF" fill-rule="nonzero" stroke="#9ACDED" stroke-width="2" d="M302.66 168.54l23.57-7.18" stroke-linecap="round" stroke-linejoin="round"/>
        <path fill="#FFF" fill-rule="nonzero" stroke="#375D81" d="M359.25 159.65v3.06M360.78 161.18h-3.05" stroke-linecap="round" stroke-linejoin="round"/>
        <rect width="50.55" height="73.3" x="319.34" y="121.83" fill="#FFF" fill-rule="nonzero" stroke="#9ACDED" stroke-width="2" transform="rotate(19.54 344.618 158.48)" rx="2.25"/>
        <path fill="#E1F2FF" fill-rule="nonzero" d="M315.13 177.95l40.05 17.43 20.7-58.33L335 120.4"/>
        <circle cx="347.82" cy="145.23" r="9.72" fill="#FFF" fill-rule="nonzero" transform="rotate(-70.46 347.817 145.232)"/>
        <circle cx="349.58" cy="143.78" r="9.72" fill="#FFF" fill-rule="nonzero" stroke="#9ACDED" stroke-width="2" transform="rotate(-70.46 349.58 143.775)"/>
        <path fill="#9452BA" fill-rule="nonzero" d="M350.25 149.1v.25c.63-2.6 2.4-3.13 3.46-4.62v-.08l.07-.1c.22-.56.25-1.17.07-1.73v-.17l-.1-.32V141.9c-.37-.9-.84-1.76-1.4-2.56-.2.9-.5 1.8-.9 2.64-.5.96-1.16 1.84-1.93 2.6-.98-.44-1.9-1.02-2.7-1.74-.7-.65-1.3-1.36-1.8-2.14l-.07.24v2.49c0 .38.02.76.07 1.14V145l.05.17.07.18.05.12v.24l.06.04.1.07h.04c1.5 1 3.38.92 4.9 3.1"/>
        <path fill="#9ACDED" fill-rule="nonzero" d="M333.6 158.66l-.72-1.5-4.08 1.95-1.2-2.52-1.5.7 1.92 4.02h.02"/>
        <path fill="#FFF" fill-rule="nonzero" stroke="#9ACDED" stroke-width="2" d="M335.62 161.07l23.6 8.38" stroke-linecap="round" stroke-linejoin="round"/>
        <path fill="#9ACDED" fill-rule="nonzero" d="M331.02 165.93l-.7-1.5-4.1 1.95-1.2-2.54-1.5.7 1.92 4.03h.02"/>
        <path fill="#FFF" fill-rule="nonzero" stroke="#9ACDED" stroke-width="2" d="M332.92 168.68l23.6 8.38" stroke-linecap="round" stroke-linejoin="round"/>
        <path fill="#9ACDED" fill-rule="nonzero" d="M328.44 173.2l-.7-1.5-4.1 1.95-1.2-2.54-1.5.72 1.92 4 .02.02"/>
        <path fill="#FFF" fill-rule="nonzero" stroke="#9ACDED" stroke-width="2" d="M330.12 176.55l23.62 8.38" stroke-linecap="round" stroke-linejoin="round"/>
        <rect width="50.39" height="73.07" x="310.71" y="106.94" fill="#FFF" fill-rule="nonzero" stroke="#9ACDED" stroke-width="2" transform="rotate(16.06 335.91 143.48)" rx="2.25"/>
        <path fill="#E1F2FF" fill-rule="nonzero" d="M349 176.54l-42.58-9.1 17.07-59.3 42.77 10.2"/>
        <rect width="23.4" height="15.67" x="326.69" y="123.46" fill="#FFF" fill-rule="nonzero" transform="rotate(15.83 338.39 131.295)" rx="7.66"/>
        <rect width="23.4" height="15.67" x="328.73" y="122.01" fill="#FFF" fill-rule="nonzero" stroke="#9ACDED" stroke-width="2" transform="rotate(15.83 340.426 129.846)" rx="7.66"/>
        <path fill="#9ACDED" fill-rule="nonzero" d="M336.68 126.3c.3.08.57.2.82.36.2.13.37.3.5.5.12.17.2.37.2.58.03.22 0 .45-.06.66-.06.22-.17.44-.3.62-.14.17-.3.3-.5.4-.23.1-.46.17-.7.17-.3 0-.6-.04-.87-.13l-.68-.2-.5 1.72-.92-.27 1.4-4.9 1.6.47zm-.7 2.46c.14.05.3.07.45.06.13 0 .25-.03.36-.1.1-.04.2-.12.26-.22.08-.1.13-.23.17-.36.02-.12.02-.25 0-.37 0-.1-.04-.22-.1-.32-.07-.1-.16-.2-.26-.26-.13-.1-.27-.16-.42-.2l-.68-.2-.5 1.76.7.2zM342.92 130.75c-.1.34-.25.66-.46.94-.4.52-1 .85-1.66.9-.36.03-.72 0-1.07-.1l-1.87-.55 1.4-4.9 1.88.54c.36.08.7.24 1 .46.26.2.48.45.64.73.16.27.25.6.28.9.02.36-.03.72-.14 1.05zm-.93-.27c.06-.24.1-.5.1-.75-.02-.22-.07-.43-.16-.63-.1-.2-.23-.35-.4-.48-.17-.14-.38-.24-.6-.3l-1-.27-1 3.45 1 .27c.22.07.45.1.68.07.2-.02.4-.1.6-.2.17-.12.33-.27.45-.45.15-.23.26-.47.33-.72zM345.14 129.52l-.42 1.45 1.84.53-.2.73-1.85-.53-.56 2-.9-.26 1.4-4.9 3.1.9-.22.7"/>
        <path fill="#FFF" fill-rule="nonzero" stroke="#9ACDED" stroke-width="2" d="M322.96 145.43l24 6.9M320.74 153.17l24 6.9M318.43 161.17l24 6.9" stroke-linecap="round" stroke-linejoin="round"/>
        <path fill="#9452BA" fill-rule="nonzero" stroke="#52267D" stroke-width="2" d="M353.92 122l3.85.33c1.33.1 2.45 1.02 2.83 2.3 1.07 3.64.46 6.85.38 9.63-.13 5.15-1.15 7.7-2.28 11.94l-5.77-.62c.72-2.78 1.23-5.6 1.54-8.45.27-2-2.33-10.2-1.85-14.07.07-.65.65-1.12 1.3-1.06zM341.16 139.4l-5.1 4.87-2.86-.36v-6.27c-.16-4.22-.64-8.43-1.4-12.58-.2-.84-.27-1.7-.26-2.56.03-.64.3-1.22.78-1.63.48-.4 1.1-.6 1.72-.55l3.4.3c2 .13 3.66 1.62 4 3.6.94 6.15-.28 15.17-.28 15.17z"/>
        <path stroke="#52267D" stroke-width=".5" d="M334.92 135.2l-.7-.74.78-.6 1.16.56-.3.5-.96-.3.02-.2.26.04"/>
        <path fill="#9452BA" fill-rule="nonzero" stroke="#52267D" stroke-width="2" d="M333 158.5c3.38.35 6.36 3 13.25 3.85.05.42.14.83.28 1.23 1 2.82 2.13 10.78.56 15.8l-1.25 4c-.4 1.3-.67 2.65-.8 4-.05.57-.05 1.12 0 1.68 0 .13.03.27.07.4.07.4.16.8.3 1.2l.12.37c.1.25.2.5.32.73.12.24.25.47.4.7.4.66.93 1.27 1.52 1.8.2.17.4.34.62.5 1.22.9 2.66 1.43 4.17 1.55l1.35.12c2.18.18 4.33-.5 6-1.92.2-.17.4-.35.58-.54.34-.35.64-.72.9-1.12l.3-.46.2-.35c.38-.73.65-1.5.8-2.3.05-.3.1-.57.1-.85.06-.55-.1-1.1-.47-1.5-.35-.42-.85-.68-1.4-.73l-8.43-.7 1.9-7.22c2.12-7.4 2.1-12.45 1.22-15.9-.2-.77-1.44-3.54-1.44-3.54 4.78-6.3 11.5-8.67 18.47-8.92 5.94-.22 18.17 6.2 11.1 11.86-7.07 5.65 1.16 2.46 2.4 1.77 1.22-.68 8.44-5.92 1.86-15.06-2.77-3.87-6-7.44-14.2-10.67-1.3-.52-8.62-1.68-12.5-3.15-11.5-4.4-21.4-1.5-27.44 5.82-6.03 7.33-2.22 17.4-.86 17.55z"/>
        <path fill="#9452BA" fill-rule="nonzero" stroke="#52267D" stroke-width="2" d="M339.35 170.3c-.47 8.75-8 15-15.95 15.8-1.66.16-2.23.63-4 .48l-1.37-.12c-4.6-.4-8-4.4-7.64-9 .1-1.15 1.1-2 2.25-1.9l14.1 1.2 1.13.1-1.15-.1c3.2-1.05 5.48-4.85 6-7 .73-2.5.64-5.18-.27-7.63-.5-1.4-.6-2.9-.3-4.34h.08c.13-.82.33-1.6.58-2.4 1.24 1 3.18 2.6 3.54 2.83.77.5 2.52 1.62 3.3 2.16 4.98 3.4-.04 4.94-.3 9.9z"/>
        <path fill="#F3E3FF" fill-rule="nonzero" stroke="#52267D" d="M335.74 159.86c-.2.84-.32 1.7-.34 2.57.62 2.48.8 5.04.52 7.58-.36 3.4-2.42 6.4-5.46 7.95-1.35.07-2.68-.38-3.72-1.25 3.2-1.05 5.48-4.85 6-7 .73-2.5.64-5.18-.27-7.63-.5-1.4-.6-2.9-.3-4.34 0 0 3.93-1.1 3.58 2.1"/>
        <path fill="#FFF" fill-rule="nonzero" stroke="#52267D" d="M313.76 184.67c-.04.9.46 1.75 1.27 2.16l1.2.6s1-1.74.1-2.28c-.78-.47-1.7-.64-2.57-.48zM317.3 186c-.03 1.23.86 2.3 2.08 2.47.4.1 1.5.15 1.5.15s.68-2.06-.48-2.36c-1.02-.23-2.06-.3-3.1-.26zM321.76 186.2s.1 2.22 2.14 1.78c.53-.12 1-.4 1.4-.8 0 0-.26-1.7-1.06-1.58-.84.13-1.67.32-2.48.6zM328.4 176s4.4 2.9 3.16 7c1.1-.78 2.12-1.65 3.08-2.6.07-.82.5-4.08-3.84-6.66-.75.8-1.55 1.56-2.4 2.26z"/>
        <path fill="#F3E3FF" fill-rule="nonzero" d="M314.36 185.13c-.02.47.24.9.66 1.12l.62.32s.53-.9 0-1.2c-.38-.22-.84-.3-1.28-.24zM318.22 186.53c-.02.63.44 1.17 1.06 1.26.2 0 .77.07.77.07s.35-1-.25-1.2c-.52-.12-1.05-.17-1.58-.14zM322.45 186.4s.06 1.2 1.13.96c.28-.06.54-.2.74-.42 0 0-.13-.9-.56-.84-.44.07-.88.17-1.3.3z"/>
        <path fill="#F3E3FF" fill-rule="nonzero" d="M317.8 177.33l4.25.36c1.04.07 1.82 1 1.73 2.03v.08c-.1 1.05-1 1.82-2.05 1.73l-.5-.04c-2.07-.18-3.6-2-3.44-4.08v-.08z" opacity=".3"/>
        <path fill="#FFF" fill-rule="nonzero" stroke="#52267D" d="M317.86 177.42l3.82.32c.8.07 1.42.78 1.35 1.6v.07c-.07.82-.8 1.43-1.6 1.36l-.87-.08c-1.65-.14-2.88-1.6-2.74-3.24v-.07l.04.05z"/>
        <circle cx="319.23" cy="179.15" r="1" fill="#52267D" fill-rule="nonzero" transform="rotate(-85.17 319.23 179.15)"/>
        <path fill="#52267D" fill-rule="nonzero" d="M312.4 176.13c.22.07.43.23.56.43l.25.38-.6-.2-.37-.1c-.14-.04-.22-.2-.18-.33.02-.06.07-.12.13-.15.07-.04.14-.04.2-.02z"/>
        <path fill="#EAF3FB" fill-rule="nonzero" d="M329.2 176s3.38 2.2 3 6.06c.78-.42 1.5-1 2.08-1.67-.06-1.02-.37-2-.9-2.86-1.17-1.54-2.5-2.1-4.2-1.54z"/>
        <path fill="#FFF" fill-rule="nonzero" stroke="#52267D" d="M332.5 176.93c-.76-.9-1.63-1.68-2.6-2.34"/>
        <path fill="#9452BA" fill-rule="nonzero" stroke="#52267D" stroke-width="2" d="M347.7 163.13l-.93 1.5c-3.57 7-4.38 11.23-3.44 18.3l.55 4.13c.18 1.36.22 2.73.1 4.1-.18 2.17-1.23 4.2-2.9 5.6-1.68 1.43-3.85 2.12-6.03 1.93l-1.33-.12c-4.48-.38-7.8-4.33-7.43-8.8v-.24c.03-.5.28-1 .67-1.32.4-.33.9-.5 1.42-.45l8.4.7-.65-7.4c-2.25-19.95-1.18-27.86 6.36-25.58"/>
        <path fill="#FFF" fill-rule="nonzero" stroke="#52267D" d="M329.74 197.26c.05.9.57 1.72 1.38 2.13.36.1.74.14 1.1.07 0 0 .94-1.2 0-1.74-.74-.45-1.62-.62-2.48-.47zM333.08 198c-.03 1.4.98 2.6 2.36 2.8.36.06.72.1 1.08.1 0 0 1.4-2.26.08-2.6-1.15-.26-2.34-.36-3.52-.3zM337.64 197.9s.16 2.17 2.14 1.7c.52-.14.98-.42 1.34-.82 0 0-.3-1.67-1.07-1.53-.82.15-1.63.36-2.4.64z"/>
        <path fill="#F3E3FF" fill-rule="nonzero" stroke="#52267D" d="M333.13 158.77c.4.35.84.6 1.33.78M335.92 159c-1.85 5.47-.27 16.37 0 19l.92 10.7.8.06c.5 0 .97-.22 1.3-.6.35-.35.53-.85.5-1.35l-.55-9.24c-.2-3.13.56-17.5 6.2-20.13 1.24-.37 2.58-.22 3.7.42 2.46 1.44 2.93 4.7 3.27 7.3.7 5.42-.55 9.5-1.16 13.66l-.7 5.2c-.15.98.5 1.9 1.48 2.08l1 .08 2.62-10.4c.77-3 3-13.24-2.73-18.64-.1-.1 1.53-.32 1.13-1.18-1.57-3.42-6.87-4.38-7.76-5.86-3.42-5.7 1.18-16.85 1.18-16.85-2.6.8-5.06 2-7.3 3.52-6.7 5.06-8.18 13.07-8.4 15.45-.3 2.84.3 4.67 1.15 5.8"/>
        <path fill="#FFF" fill-rule="nonzero" stroke="#52267D" d="M386.87 158.66c.47.7.55 1.58.2 2.33-.2.28-.46.52-.77.68 0 0-1.36-.36-1-1.26.3-.76.85-1.38 1.57-1.76z"/>
        <path fill="#F3E3FF" fill-rule="nonzero" d="M386.46 160c.17.24.2.55.07.82-.07.1-.16.2-.27.24 0 0-.48-.13-.35-.44.1-.27.3-.5.56-.62z"/>
        <path fill="#FFF" fill-rule="nonzero" stroke="#52267D" d="M380.22 151c-.57 1.16-.18 2.57.9 3.28.27.2.57.37.87.5 0 0 2.05-1.35 1.07-2.16-.87-.67-1.83-1.2-2.85-1.62z"/>
        <path fill="#F3E3FF" fill-rule="nonzero" d="M380.85 151.8c-.32.66-.1 1.44.5 1.83.15.1.3.2.48.28 0 0 1.14-.75.6-1.2-.48-.36-1-.66-1.58-.9z"/>
        <path fill="#FFF" fill-rule="nonzero" stroke="#52267D" d="M385.8 157.82s1.57-1.16.27-2.42c-.35-.33-.78-.55-1.25-.63 0 0-1.12 1-.64 1.53.5.55 1.04 1.06 1.63 1.52z"/>
        <path fill="#F3E3FF" fill-rule="nonzero" d="M385.68 156.9s.7-.5.12-1.07c-.15-.15-.34-.24-.55-.28 0 0-.5.45-.28.68.22.24.46.47.7.67z"/>
        <path fill="#FFF" fill-rule="nonzero" stroke="#52267D" d="M373.32 149.43c-.34 1.02.2 2.12 1.2 2.5 1.82.84 2.37.32 2.37.32s1.18-1.66.3-2.3c-.88-.64-3.88-.52-3.88-.52z"/>
        <path fill="#F3E3FF" fill-rule="nonzero" d="M374.17 149.9c-.1.24-.08.53.03.77.12.25.33.43.6.52.94.42 1.22.15 1.22.15s.62-.86.16-1.2c-.65-.22-1.33-.3-2-.26z"/>
        <path fill="#FFF" fill-rule="nonzero" stroke="#52267D" d="M336.6 186.17c2.37-.85 5-.7 7.23.45l-.55-4s-3.8-1.53-7 .1c.2 1.76.32 3.45.32 3.45zM358.4 195.7c-.2.88-.87 1.6-1.74 1.87-.54.1-1.1.12-1.63.1 0 0-.2-1.56.8-1.93.82-.33 1.73-.34 2.56-.05zM354.7 196.1c-.17 1.2-1.22 2.1-2.43 2.07-.3 0-.63-.02-.94-.07 0 0-.87-2.15.3-2.25 1.04-.05 2.07.03 3.07.26zM350.54 195.62s-.53 2.14-2.4 1.32c-.5-.2-.92-.56-1.2-1 0 0 .56-1.6 1.3-1.34.8.28 1.57.62 2.3 1.02z"/>
        <path fill="#F3E3FF" fill-rule="nonzero" d="M330.45 197.7c.03.47.3.9.74 1.13.18.05.4.05.58 0 0 0 .5-.65 0-.93-.4-.23-.88-.3-1.33-.2zM333.88 198.47c-.02.87.62 1.62 1.48 1.75.22.04.45.07.67.07 0 0 .87-1.43 0-1.64-.7-.16-1.43-.22-2.15-.2zM338.46 198.18s.1 1.26 1.23 1c.3-.08.55-.24.76-.47 0 0-.17-1-.62-.87-.47.08-.93.2-1.38.35zM357.65 196c-.1.47-.46.86-.92 1-.3.03-.57.03-.86 0 0 0-.1-.82.42-1 .43-.17.9-.17 1.35 0zM353.82 196.4c-.1.66-.68 1.15-1.35 1.13h-.52s-.48-1.2.17-1.24c.57-.05 1.14-.02 1.7.1zM349.76 195.7s-.3 1.17-1.32.72c-.27-.12-.5-.3-.65-.56 0 0 .3-.88.7-.73.44.15.86.35 1.26.57z"/>
        <path fill="#FFF" fill-rule="nonzero" stroke="#52267D" d="M345.88 183.22c2.44-.12 4.88.18 7.22.9.5-1.9.85-3.32.85-3.32s-2.3-1.87-6.9-1.3l-1.17 3.72z"/>
        <path fill="#F3E3FF" fill-rule="nonzero" d="M351.82 191.37l-.5-.05c-1.04-.08-1.8-1-1.73-2.04v-.08c.1-1.04 1-1.8 2.04-1.72l4.26.36v.08c-.1 1-.57 1.92-1.33 2.57-.76.63-1.75.95-2.75.87z" opacity=".3"/>
        <path fill="#FFF" fill-rule="nonzero" stroke="#52267D" d="M352.62 190.68l-1-.1c-.76-.05-1.32-.72-1.26-1.48v-.07c.08-.87.85-1.52 1.72-1.45l3.75.32v.07c-.14 1.65-1.6 2.87-3.25 2.74l.04-.02z"/>
        <circle cx="353.54" cy="189.56" r="1" fill="#52267D" fill-rule="nonzero" transform="rotate(-59.24 353.537 189.56)"/>
        <path fill="#F3E3FF" fill-rule="nonzero" d="M332.6 189.5l4.27.36c1.04.1 1.8 1 1.72 2.04l-.02.08c-.08 1.04-1 1.8-2.04 1.73l-.5-.04c-2.07-.17-3.6-2-3.44-4.07v-.1z" opacity=".3"/>
        <path fill="#FFF" fill-rule="nonzero" stroke="#52267D" d="M332.67 189.58l3.8.32c.83.07 1.43.8 1.36 1.6v.07c-.07.82-.8 1.42-1.6 1.35l-.87-.07c-1.65-.14-2.88-1.6-2.74-3.24v-.06l.05.04z"/>
        <circle cx="334.68" cy="191.65" r="1" fill="#52267D" fill-rule="nonzero" transform="rotate(-85.17 334.676 191.646)"/>
        <path fill="#52267D" fill-rule="nonzero" d="M361.07 187.37c-.25.03-.47.15-.64.33l-.3.33.63-.08h.38c.15-.02.25-.15.23-.3 0-.08-.03-.16-.1-.2-.04-.06-.12-.1-.2-.08zM328.22 188.57c.23.07.44.23.57.43l.24.38-.62-.2-.36-.1c-.14-.04-.22-.2-.18-.33.02-.07.07-.13.13-.16.08-.05.15-.05.22-.03z"/>
        <path fill="#EAF3FB" fill-rule="nonzero" d="M337 185.66c2.1-.6 4.33-.46 6.32.42-.08-.96-.2-1.9-.4-2.86-1.04-.15-2.1-.2-3.17-.13-1.83.18-2.6.9-2.75 2.56z"/>
        <path fill="#FFF" fill-rule="nonzero" stroke="#52267D" d="M341.58 183.64c-1.73-.26-3.5-.1-5.15.48"/>
        <path fill="#EAF3FB" fill-rule="nonzero" d="M351.8 183.3c-1.68-.6-3.46-.85-5.23-.74.25-.8.56-1.58.9-2.34 0 0 3.66.78 4.32 3.08z"/>
        <path fill="#F3E3FF" fill-rule="nonzero" stroke="#52267D" stroke-width=".5" d="M352.5 157.18s-.16-.14-.4-.3"/>
        <path fill="#FFF" fill-rule="nonzero" stroke="#52267D" d="M352.15 182.27c-1.88-.48-3.83-.7-5.77-.67"/>
        <path fill="#FFF" fill-rule="nonzero" stroke="#52267D" stroke-width=".5" d="M352.44 124.17c-.58.32-1.3.17-1.72-.35-.84-.82-1.42-2-1-2.1.62-.1 1.26-.1 1.87.07.63.16 1.22.1 1.36 1.47.03.38-.18.74-.52.9z"/>
        <path fill="#EAF3FB" fill-rule="nonzero" d="M352.28 123.94c-.36.2-.82.1-1.07-.22-.5-.5-.88-1.26-.62-1.3.4-.1.78-.1 1.17 0 .4.1.76.05.85.9.04.26-.1.5-.32.62z"/>
        <path fill="#FFF" fill-rule="nonzero" stroke="#52267D" stroke-width=".5" d="M353.5 124.27c.38.1 1-.72 1-1s0-1.13-.65-1.28c-.46-.12-2.12-.43-2.52-.1-.4.33.15 1.93 2.16 2.37z"/>
        <path fill="#EAF3FB" fill-rule="nonzero" d="M353.62 124c.23.05.6-.42.58-.58-.03-.16 0-.67-.38-.75-.38-.08-1.25-.25-1.48-.05-.23.2.1 1.16 1.28 1.38z"/>
        <path fill="#FFF" fill-rule="nonzero" stroke="#52267D" stroke-width=".5" d="M355.17 124.25s-.35.15-1-.3c-.65-.43-1.4-1-1.12-1.65.3-.66 2.15-.25 2.55-.07.38.18.6.6.52 1-.1.5-.46.9-.95 1.02z"/>
        <path fill="#EAF3FB" fill-rule="nonzero" d="M355.3 124s-.2.1-.58-.17c-.38-.26-.83-.6-.66-1 .17-.4 1.27-.15 1.5 0 .25.1.38.37.32.62-.07.27-.3.5-.57.55z"/>
        <path fill="#9452BA" fill-rule="nonzero" stroke="#52267D" stroke-width="2" d="M345.5 145.1c.5-3.72.57-7.5.22-11.23-.5-6.45-2.15-8.6-1.87-10.24.2-1.27.85-2.4 2.13-2.28l3.82.32c1.78.15 3.26 1.42 3.7 3.16.44 1.86.7 3.75.75 5.66 0 2.75-.2 5.52-.52 8.26M365.35 143.9c-1.15-1.27-1.7-2.97-1.53-4.68.2-2.2 1.7-4.87 1.2-8.58-.43-3.3-1.8-4-1.14-6.87.15-.5.6-.8 1.12-.77l4.26.36c1.98.12 3.57 1.67 3.74 3.64.25 4.64-.3 9.3-1.65 13.75"/>
        <path stroke="#52267D" stroke-width=".5" d="M366.6 139.14l.23.2.83-.1-.85-.66-1.12.44 1.05 1 .52-.14"/>
        <path fill="#FFF" fill-rule="nonzero" stroke="#52267D" d="M344.7 123.52c-.58.32-1.3.17-1.72-.35-.84-.82-1.42-2-1-2.1.62-.1 1.26-.1 1.87.07.64.17 1.23.1 1.37 1.48.03.38-.18.74-.52.9z"/>
        <path fill="#EAF3FB" fill-rule="nonzero" d="M344.55 123.28c-.36.2-.82.1-1.07-.22-.52-.5-.9-1.26-.63-1.3.4-.1.78-.1 1.17 0 .4.1.76.05.85.9.04.26-.1.5-.32.62z"/>
        <path stroke="#52267D" stroke-width=".5" d="M349.6 135.28l-1.5-.6.33-1.4 1.57.02.66.9-.98.44-.75-.3.53-.5"/>
        <g stroke="#F3E3FF" stroke-width=".25" opacity=".3">
            <path d="M313 179c.04-.2.24-.35.45-.33.2.02.37.2.38.4"/>
            <path d="M312.2 178.92c.04-.2.24-.35.45-.33.2 0 .37.18.38.4M312.65 178.54c0-.16.08-.32.22-.4.15-.07.32-.05.45.05s.2.25.16.4M328.88 180.72c.3-.15.67-.04.82.27.16.3.04.66-.26.8M329.15 179.9c.2-.1.43-.1.6.03.2.12.3.33.3.55-.02.2-.15.4-.34.5M349.74 168.45c.05-.28.3-.48.6-.45.28.02.5.25.5.54M348.63 168.36c0-.2.1-.4.3-.5.2-.1.42-.1.6.04.17.12.25.34.2.55"/>
            <path d="M349.23 167.85c.05-.28.3-.48.6-.45.28.02.5.25.5.54M336.1 131.8c0-.2.12-.4.3-.5.2-.1.43-.1.6.04.18.12.26.34.22.55"/>
            <path d="M335 131.7c0-.2.1-.4.3-.5.2-.1.42-.08.6.05.17.12.25.34.2.55"/>
            <path d="M335.6 131.2c0-.2.1-.4.3-.5.2-.1.42-.1.6.04.17.12.25.34.2.55M347.38 186.1c.03-.33.32-.58.66-.55.34.03.6.32.56.66"/>
            <path d="M346.82 185.45c.02-.22.15-.4.35-.5.2-.1.43-.08.6.05.2.12.3.33.27.55M340.48 174.65c.06-.4.4-.66.8-.63.4.04.7.37.7.76M339.8 173.85c.06-.4.4-.66.8-.63.4.04.7.37.7.76M328.13 192.2c0-.17.12-.33.28-.4.18-.08.37-.06.5.04.16.1.24.27.23.45"/>
            <path d="M327.68 191.67c.02-.28.26-.48.54-.46.28.03.48.27.46.55M379.12 146.08c.14-.14.36-.2.55-.15.2.05.36.2.4.4.06.2 0 .42-.14.56"/>
            <path d="M379.12 145.26c.22-.22.6-.22.8 0 .23.22.23.6 0 .8M355.72 152c.12-.2.34-.34.58-.34.24 0 .46.12.58.33.13.2.13.45 0 .66"/>
            <path d="M354.55 151.4c.12-.22.34-.35.58-.35.24 0 .46.12.58.33.14.2.14.46.02.67"/>
            <path d="M355.47 151.13c.12-.2.34-.34.58-.34.24 0 .46.1.58.32.13.2.13.46 0 .67M354.3 150.47c.1-.2.33-.34.57-.34.24 0 .46.12.58.33.13.2.13.46 0 .67"/>
            <path d="M356.38 150.88c.18-.32.6-.44.9-.25.34.18.45.6.27.9M340.9 188.23c.06-.35.37-.6.73-.56.35.03.62.32.62.67M342.83 162.62c0-.26.14-.5.37-.6.23-.13.5-.1.7.05.22.15.32.4.28.66M349.3 177.38c.08-.24.3-.4.55-.37.24.03.44.22.46.47M360.53 190.06c.04-.2.22-.32.42-.3.2.02.34.17.35.37M368.52 133.75c.04-.26.22-.47.47-.54.24-.07.5 0 .68.2.18.17.24.45.15.7M350.24 127.18c.06-.4.4-.66.8-.63.4.04.7.37.7.76M349.56 126.38c.06-.4.4-.66.8-.63.4.04.7.37.7.76"/>
        </g>
        <path fill="#FFF" fill-rule="nonzero" stroke="#52267D" d="M345.75 123.62c.4.1 1-.72 1-1s0-1.13-.64-1.28c-.45-.1-2.1-.42-2.5-.1-.4.34.14 1.94 2.15 2.38z"/>
        <path fill="#EAF3FB" fill-rule="nonzero" d="M345.88 123.4c.23.04.6-.43.58-.6-.03-.15 0-.66-.38-.74-.38-.08-1.25-.25-1.48-.05-.23.2.1 1.13 1.28 1.4z"/>
        <path fill="#FFF" fill-rule="nonzero" stroke="#52267D" d="M347.2 123.32s-.32.13-.9-.26c-.56-.4-1.23-.9-1-1.47.25-.6 1.9-.23 2.27-.07.35.16.54.54.46.92-.1.42-.42.76-.84.87z"/>
        <path fill="#EAF3FB" fill-rule="nonzero" d="M347.32 123.12s-.2.08-.52-.15c-.33-.23-.74-.53-.58-.87.16-.34 1.12-.13 1.34 0 .2.1.32.33.27.55-.07.24-.27.42-.5.47z"/>
        <path fill="#FFF" fill-rule="nonzero" stroke="#52267D" d="M331.5 121.83s-.3.13-.88-.26c-.57-.4-1.24-.9-1-1.47.24-.58 1.9-.22 2.26-.06.35.16.54.54.46.92-.1.42-.42.76-.84.87z"/>
        <path fill="#EAF3FB" fill-rule="nonzero" d="M331.63 121.62s-.2.08-.52-.15c-.32-.23-.73-.53-.57-.87.16-.34 1.12-.13 1.34 0 .2.1.32.33.27.55-.07.24-.27.42-.5.47z"/>
        <path fill="#FFF" fill-rule="nonzero" stroke="#52267D" d="M333.28 122.4c.4.1 1-.72 1-1s0-1.13-.64-1.28c-.46-.1-2.12-.42-2.52-.1-.4.34.15 1.98 2.16 2.38z"/>
        <path fill="#EAF3FB" fill-rule="nonzero" d="M333.4 122.17c.24.05.62-.42.6-.58-.04-.17 0-.68-.4-.76-.37-.08-1.24-.25-1.47-.05-.23.2.1 1.1 1.28 1.37z"/>
        <path fill="#FFF" fill-rule="nonzero" stroke="#52267D" stroke-width=".5" d="M365.4 125.27c-.6.32-1.32.17-1.73-.35-.84-.82-1.42-2-1-2.1.62-.1 1.26-.1 1.87.07.64.16 1.23.1 1.37 1.47.04.38-.17.74-.5.9z"/>
        <path fill="#EAF3FB" fill-rule="nonzero" d="M365.24 125c-.36.2-.82.1-1.07-.22-.52-.5-.9-1.26-.63-1.3.4-.1.78-.1 1.17 0 .4.1.77.05.86.9.04.26-.1.5-.32.62z"/>
        <path fill="#FFF" fill-rule="nonzero" stroke="#52267D" stroke-width=".5" d="M366.44 125.37c.4.1 1-.72 1-1s0-1.13-.64-1.28c-.46-.12-2.12-.43-2.52-.1-.4.33.15 1.93 2.16 2.37z"/>
        <path fill="#EAF3FB" fill-rule="nonzero" d="M366.57 125.14c.23.05.6-.42.58-.58-.03-.16 0-.67-.38-.75-.38-.07-1.25-.24-1.48-.04-.24.2.1 1.12 1.27 1.38z"/>
        <path fill="#FFF" fill-rule="nonzero" stroke="#52267D" stroke-width=".5" d="M367.88 125.07s-.3.13-.88-.26c-.57-.38-1.24-.88-1-1.46s1.9-.22 2.26-.06c.35.16.54.54.46.92-.1.42-.42.76-.84.87z"/>
        <path fill="#EAF3FB" fill-rule="nonzero" d="M368 124.87s-.2.08-.52-.15c-.33-.23-.74-.53-.58-.87.16-.34 1.12-.13 1.34 0 .2.1.32.33.27.55-.06.24-.26.42-.5.47z"/>
        <path fill="#FFF" fill-rule="nonzero" stroke="#52267D" d="M338.48 122.47c.1.1.24.15.38.1.47-.16 1.66-.67 1.5-1.5-.14-.66-.55-.5-1.3-.58l-.55-.07c-.1 0-.22.04-.3.14-.35.6-.26 1.37.23 1.87l.05.03z"/>
        <path fill="#EAF3FB" fill-rule="nonzero" d="M338.55 122.3c.07.07.18.1.28.07.34-.13 1.2-.5 1.1-1.1-.13-.62-.4-.37-.94-.43h-.42c-.1 0-.17.03-.22.1-.26.44-.2 1 .16 1.36h.03z"/>
        <path fill="#FFF" fill-rule="nonzero" stroke="#52267D" d="M335.82 122.5c-.55.36-1.3.27-1.74-.22-.9-.74-1.6-1.9-1.18-2 .6-.17 1.25-.2 1.87-.1.65.13 1.23 0 1.5 1.37.05.37-.12.75-.45.94z"/>
        <path fill="#EAF3FB" fill-rule="nonzero" d="M335.65 122.27c-.34.23-.8.17-1.08-.13-.56-.46-1-1.18-.74-1.25.38-.12.78-.14 1.17-.07.4.07.77 0 .93.85.04.24-.07.47-.28.6z"/>
        <rect width="56.53" height="68.69" x="288.24" y="154.35" fill="#FFF" fill-rule="nonzero" stroke="#9ACDED" stroke-width="2" transform="rotate(27.8 316.51 188.693)" rx="2.25"/>
        <path fill="#E1F2FF" fill-rule="nonzero" d="M325.76 223.44l-44.44-20.22 27.05-51.3 44.5 21.3"/>
        <ellipse cx="321.05" cy="176.72" fill="#FFF" fill-rule="nonzero" transform="rotate(-62.2 321.05 176.72)" rx="9.11" ry="10.87"/>
        <ellipse cx="323.08" cy="175.71" fill="#FFF" fill-rule="nonzero" stroke="#9ACDED" stroke-width="2" transform="rotate(-62.2 323.08 175.712)" rx="9.11" ry="10.87"/>
        <path fill="#9ACDED" fill-rule="nonzero" d="M323.36 180.92v.24c.9-2.34 2.85-2.47 4.1-3.68l.05-.06.1-.1c.28-.48.36-1.07.2-1.62v-.17c0-.1 0-.22-.07-.33v-.44c-.33-.96-.77-1.88-1.3-2.75-.3.83-.7 1.62-1.2 2.34-.62.82-1.4 1.53-2.27 2.08-1.03-.62-1.97-1.38-2.8-2.25-.67-.75-1.26-1.56-1.77-2.43l-.1.22v.07l-.04.16v.06l-.05.16v.07l-.05.2-.06.23-.06.2V173.57l-.1.7c-.03.38-.03.75 0 1.12V175.97l.06.2V176.63l.06.06.1.1.05.04c1.56 1.3 3.58 1.6 5 4M304.62 186.5l-.64-1.58-4.56.98-1.1-2.68-1.66.36 1.73 4.24"/>
        <path fill="#FFF" fill-rule="nonzero" stroke="#9ACDED" stroke-width="2" d="M306.76 189.46l24.8 13.07" stroke-linecap="round" stroke-linejoin="round"/>
        <path fill="#9ACDED" fill-rule="nonzero" d="M301.25 192.9l-.64-1.6-4.55 1-1.1-2.7-1.66.37 1.72 4.24h.02v.02"/>
        <path fill="#FFF" fill-rule="nonzero" stroke="#9ACDED" stroke-width="2" d="M303.08 195.93l24.8 13.07" stroke-linecap="round" stroke-linejoin="round"/>
        <path fill="#9ACDED" fill-rule="nonzero" d="M297.88 199.28l-.64-1.58-4.56.98-1.1-2.68-1.66.36 1.74 4.24.02.02"/>
        <path fill="#FFF" fill-rule="nonzero" stroke="#9ACDED" stroke-width="2" d="M299.43 202.85l24.8 13.07" stroke-linecap="round" stroke-linejoin="round"/>
        <rect width="44.53" height="35.88" x="272.32" y="137.16" fill="#FFF" fill-rule="nonzero" stroke="#9ACDED" stroke-width="2" transform="rotate(-18.03 294.584 155.095)" rx="2.25"/>
        <rect width="36.55" height="24.48" x="276.15" y="142.35" fill="#E1F2FF" fill-rule="nonzero" stroke="#9ACDED" stroke-width="2" transform="rotate(-18.03 294.427 154.59)" rx="2.25"/>
        <path fill="#9ACDED" fill-rule="nonzero" stroke="#9ACDED" stroke-width="2" d="M274.4 152.14l-.72-2.2c-.24-.72.16-1.5.88-1.74l32.13-10.46c.7-.24 1.5.16 1.73.88l.7 2.15-34.73 11.37zM314.47 157.17l.7 2.1c.23.73-.17 1.5-.9 1.75l-32.12 10.46c-.72.24-1.5-.16-1.74-.88l-.72-2.26 34.8-11.17z"/>
        <path fill="#FFF" fill-rule="nonzero" stroke="#9ACDED" stroke-width="2" d="M298.2 151.76l-6.14-1.33c-.45-.1-.92.05-1.23.4-.3.34-.4.82-.27 1.26l1.92 6c.14.43.5.76.96.86.45.1.92-.06 1.23-.4l4.2-4.65c.33-.33.44-.82.3-1.27-.14-.45-.52-.78-.98-.87z"/>
        <rect width="44.33" height="38.51" x="321.39" y="137.84" fill="#FFF" fill-rule="nonzero" stroke="#9ACDED" stroke-width="2" transform="rotate(7.25 343.554 157.09)" rx="2.25"/>
        <rect width="36.38" height="24.37" x="325.61" y="142.99" fill="#E1F2FF" fill-rule="nonzero" stroke="#9ACDED" stroke-width="2" transform="rotate(7.25 343.8 155.177)" rx="2.25"/>
        <path fill="#9ACDED" fill-rule="nonzero" d="M324.72 160.9c0-.23 4.9-3.36 7.52-5 .96-.64 2.24-.48 3 .38l4.3 4.66c.22.25.6.3.88.1l8.76-6.3c.88-.62 2.08-.57 2.9.15l9.13 8-.56 4.45c-.06.5-.32.96-.72 1.26-.4.32-.9.46-1.4.4l-32.9-4.33c-.4-.05-.77-.27-1-.6-.25-.35-.33-.77-.25-1.17l.35-2z"/>
        <circle cx="356.17" cy="150.03" r="2.49" fill="#FFF" fill-rule="nonzero" stroke="#9ACDED" stroke-width="2" transform="rotate(-82.51 356.173 150.028)"/>
        <path fill="#FFF" fill-rule="nonzero" stroke="#375D81" stroke-width="2" d="M338.15 233.8h-67.9v-73.16h67.9z"/>
        <path fill="#E1F2FF" fill-rule="nonzero" d="M271.05 194.95l67.15.2-.06-34.5h-67.1"/>
        <path fill="#FFF" fill-rule="nonzero" stroke="#375D81" stroke-width="2" d="M372.15 233.86H338.2V160.7h33.95z"/>
        <path fill="#E1F2FF" fill-rule="nonzero" d="M371.4 186.77l-32.46 8.38.06-34.5h33.15"/>
        <path fill="#FFF" fill-rule="nonzero" stroke="#375D81" stroke-width="2" d="M338.2 160.72h33.95l18.6 22.26H356.8zM338.2 160.72h-67.9l-18.6 22.26h67.9z"/>
        <path stroke="#9ACDED" stroke-width="2" d="M363.86 203.62h-15.7M363.86 209.26h-15.7M363.86 214.9h-15.7" stroke-linecap="round"/>
        <path stroke="#E1F2FF" stroke-width="2" d="M261.73 178.94h15.84M372.27 178.94h10.4M274.55 230.65v-11.07" stroke-linecap="round"/>
        <path fill="#E1F2FF" fill-rule="nonzero" d="M270.73 161.64l28.96.02-26.02 20.37h-20.12"/>
        <rect width="43.44" height="35" x="236.53" y="197.2" fill="#FFF" fill-rule="nonzero" stroke="#9ACDED" stroke-width="2" transform="rotate(-.29 258.25 214.705)" rx="2.25"/>
        <rect width="35.65" height="23.88" x="240.42" y="202.24" fill="#E1F2FF" fill-rule="nonzero" stroke="#9ACDED" stroke-width="2" transform="rotate(-.29 258.24 214.185)" rx="2.25"/>
        <path fill="#9ACDED" fill-rule="nonzero" stroke="#9ACDED" stroke-width="2" d="M240.38 205.94v-2.26c0-.74.6-1.34 1.34-1.35l33-.17c.7.04 1.28.62 1.28 1.34v2.2l-35.62.24zM276.12 222.52v2.17c0 .73-.6 1.33-1.34 1.34l-33 .17c-.74 0-1.34-.6-1.35-1.33v-2.3l35.7-.05z"/>
        <path fill="#FFF" fill-rule="nonzero" stroke="#9ACDED" stroke-width="2" d="M262.56 212.63l-5.2-3c-.4-.23-.9-.23-1.3 0s-.65.66-.65 1.12v6c0 .46.25.9.66 1.12.4.23.9.23 1.3 0l5.2-3c.4-.23.64-.65.64-1.12 0-.46-.24-.9-.64-1.12z"/>
        <path stroke="#375D81" d="M328.1 202.22v3.06M329.64 203.75h-3.06" stroke-linecap="round"/>
        <path stroke="#E1F2FF" stroke-width="2" d="M273.6 155.56V144.5M164.83 229.7v-11.06" stroke-linecap="round"/>
        <path stroke="#375D81" stroke-width="2" d="M32.65 53.47v5.43M35.37 56.18h-5.44M332.92 62.72v5.43M335.64 65.44h-5.44" stroke-linecap="round" stroke-linejoin="round"/>
        <path stroke="#375D81" d="M435.24 130.42v3.06M436.77 131.95h-3.06" stroke-linecap="round"/>
        <path stroke="#375D81" stroke-width="2" d="M192.75 0v5.44M195.47 2.72h-5.44" stroke-linecap="round" stroke-linejoin="round"/>
        <path fill="#FFF" fill-rule="nonzero" stroke="#375D81" stroke-width="2" d="M116.36 107.22h49.5v53.33h-49.5zM91.56 107.27h24.75v53.33H91.57z"/>
        <path stroke="#9ACDED" stroke-width="2" d="M97.6 138.55h11.46M97.6 142.67h11.46M97.6 146.78h11.46" stroke-linecap="round"/>
        <text fill="#375D81" font-family="Lato-Black, Lato" font-size="10.2" font-weight="700">
            <tspan x="124.74" y="139.62">ER</tspan>
        </text>
        <path stroke="#375D81" d="M133.8 79.36v3.06M135.33 80.9h-3.05" stroke-linecap="round"/>
        <path fill="#FFF" fill-rule="nonzero" stroke="#375D81" stroke-width="2" d="M228.18 233.8h-67.9v-73.16h67.9zM262.2 233.86h-33.96V160.7h33.95z"/>
        <path stroke="#9ACDED" stroke-width="2" d="M253.9 203.62h-15.7M253.9 209.26h-15.7M253.9 214.9h-15.7" stroke-linecap="round"/>
        <circle cx="194.82" cy="196.7" r="13.69" fill="#FFF" fill-rule="nonzero" stroke="#375D81" stroke-width="2"/>
        <text fill="#375D81" font-family="Lato-Black, Lato" font-size="18.64" font-weight="700">
            <tspan x="190.06" y="203.88">?</tspan>
        </text>
        <path fill="#E1F2FF" fill-rule="nonzero" d="M227.22 180.7l-66.2-7.9.07-11.38h66.12M229.2 180.7l32.03-.12-.03-19.16h-32"/>
        <path fill="#FFF" fill-rule="nonzero" stroke="#375D81" stroke-width="2" d="M119.14 160.72h33.95l18.6-22.26h-33.95zM119.14 160.72h-67.9l-18.6-22.26h67.9z"/>
        <path stroke="#375D81" d="M61.6 187.3v3.05M63.14 188.82h-3.06" stroke-linecap="round"/>
        <rect width="49.71" height="72.09" x="96.15" y="109.71" fill="#FFF" fill-rule="nonzero" stroke="#9ACDED" stroke-width="2" transform="rotate(-16.96 121.008 145.75)" rx="2.25"/>
        <path fill="#E1F2FF" fill-rule="nonzero" d="M109.07 178.42l41.87-9.64-17.76-58.23-42.05 10.74"/>
        <circle cx="115.78" cy="133.43" r="9.56" fill="#FFF" fill-rule="nonzero" transform="rotate(-16.96 115.775 133.426)"/>
        <circle cx="116.32" cy="131.23" r="9.56" fill="#FFF" fill-rule="nonzero" stroke="#9ACDED" stroke-width="2" transform="rotate(-16.96 116.323 131.234)"/>
        <path fill="#9ACDED" fill-rule="nonzero" d="M120 135.07l.15.2c-1-2.42.08-3.9 0-5.7v-.08-.13c-.14-.56-.48-1.06-.95-1.4l-.13-.1-.26-.2-.07-.06-.08-.04-.08-.05-.08-.04h-.07c-.82-.5-1.7-.9-2.6-1.2.37.83.64 1.7.82 2.6.16 1.06.16 2.14 0 3.2-1.04.23-2.1.3-3.17.2-.9-.1-1.8-.32-2.67-.63l.1.22v.07l.08.16v.07l.08.16v.07l.1.2.12.23.1.2.1.18.13.2c.14.2.28.42.42.6.22.32.46.6.73.87l.1.1.1.1.12.08.14.1.17.1.1.06H114.43c1.8-.08 3.2-1.27 5.7-.43M112.4 152.37l-1.44-.76-2.1 3.93-2.43-1.3-.76 1.43 3.85 2.06h.02"/>
        <path fill="#FFF" fill-rule="nonzero" stroke="#9ACDED" stroke-width="2" d="M115.4 153.1l23.57-7.2" stroke-linecap="round" stroke-linejoin="round"/>
        <path fill="#9ACDED" fill-rule="nonzero" d="M114.6 159.62l-1.43-.76-2.1 3.92-2.43-1.3-.76 1.43 3.85 2.07h.02"/>
        <path fill="#FFF" fill-rule="nonzero" stroke="#9ACDED" stroke-width="2" d="M117.72 160.7l23.57-7.2" stroke-linecap="round" stroke-linejoin="round"/>
        <path fill="#9ACDED" fill-rule="nonzero" d="M116.8 166.87l-1.42-.76-2.1 3.93-2.43-1.3-.76 1.44 3.85 2.05h.02"/>
        <path fill="#FFF" fill-rule="nonzero" stroke="#9ACDED" stroke-width="2" d="M120.1 168.54l23.58-7.18" stroke-linecap="round" stroke-linejoin="round"/>
        <path fill="#FFF" fill-rule="nonzero" stroke="#375D81" d="M140.2 159.65v3.06M141.72 161.18h-3.05" stroke-linecap="round" stroke-linejoin="round"/>
        <rect width="50.55" height="73.3" x="101.06" y="111.72" fill="#FFF" fill-rule="nonzero" stroke="#9ACDED" stroke-width="2" transform="rotate(19.54 126.337 148.374)" rx="2.25"/>
        <path fill="#E1F2FF" fill-rule="nonzero" d="M96.84 167.85l40.06 17.43 20.7-58.33-40.87-16.65"/>
        <circle cx="129.53" cy="135.13" r="9.72" fill="#FFF" fill-rule="nonzero" transform="rotate(-70.46 129.528 135.132)"/>
        <circle cx="131.29" cy="133.68" r="9.72" fill="#FFF" fill-rule="nonzero" stroke="#9ACDED" stroke-width="2" transform="rotate(-70.46 131.295 133.676)"/>
        <path fill="#9ACDED" fill-rule="nonzero" d="M132 139v.25c.63-2.6 2.4-3.13 3.46-4.62v-.08l.06-.1c.22-.56.25-1.17.07-1.73v-.17l-.1-.32V131.8c-.38-.9-.85-1.76-1.4-2.56-.22.9-.52 1.8-.92 2.64-.5.96-1.15 1.84-1.92 2.6-1-.44-1.9-1.02-2.72-1.74-.68-.65-1.28-1.36-1.8-2.14l-.06.24v2.49c0 .38.02.76.07 1.14V134.9l.05.17.07.18.05.12v.24l.06.04.1.07h.04c1.5 1 3.38.92 4.9 3.1M115.3 148.56l-.7-1.5-4.08 1.95-1.2-2.52-1.5.7 1.9 4.02h.03"/>
        <path fill="#FFF" fill-rule="nonzero" stroke="#9ACDED" stroke-width="2" d="M117.34 150.97l23.6 8.38" stroke-linecap="round" stroke-linejoin="round"/>
        <path fill="#9ACDED" fill-rule="nonzero" d="M112.73 155.83l-.7-1.5-4.1 1.95-1.2-2.53-1.48.7 1.9 4.02h.02"/>
        <path fill="#FFF" fill-rule="nonzero" stroke="#9ACDED" stroke-width="2" d="M114.63 158.58l23.62 8.4" stroke-linecap="round" stroke-linejoin="round"/>
        <path fill="#9ACDED" fill-rule="nonzero" d="M110.15 163.1l-.7-1.5-4.1 1.95-1.2-2.54-1.48.72 1.9 4h.02v.02"/>
        <path fill="#FFF" fill-rule="nonzero" stroke="#9ACDED" stroke-width="2" d="M111.84 166.45l23.62 8.4" stroke-linecap="round" stroke-linejoin="round"/>
        <rect width="50.39" height="73.07" x="52.04" y="113.16" fill="#FFF" fill-rule="nonzero" stroke="#9ACDED" stroke-width="2" transform="rotate(-19.51 77.234 149.7)" rx="2.25"/>
        <path fill="#E1F2FF" fill-rule="nonzero" d="M107.1 168.97l-39.94 17.36-20.6-58.16L87.3 111.6"/>
        <rect width="23.4" height="15.67" x="60.45" y="130.49" fill="#FFF" fill-rule="nonzero" transform="rotate(-19.74 72.152 138.32)" rx="7.66"/>
        <rect width="23.4" height="15.67" x="61.27" y="128.12" fill="#FFF" fill-rule="nonzero" stroke="#9ACDED" stroke-width="2" transform="rotate(-19.74 72.974 135.953)" rx="7.66"/>
        <path fill="#9ACDED" fill-rule="nonzero" d="M67.86 135.28c.28-.1.57-.16.87-.18.24 0 .47.03.7.1.2.1.36.2.5.37.15.17.26.37.33.58.08.22.12.45.1.68 0 .22-.06.43-.16.62-.12.2-.28.4-.47.53-.24.18-.5.32-.78.4l-.67.25.6 1.7-.9.3-1.7-4.8 1.58-.55zm.86 2.42c.15-.05.3-.12.4-.2.1-.08.2-.18.25-.3.05-.1.08-.2.08-.33s-.02-.27-.07-.4c-.04-.1-.1-.22-.18-.32-.07-.1-.17-.15-.27-.2-.1-.05-.24-.07-.36-.06-.15 0-.3.03-.45.08l-.67.24.6 1.72.67-.24zM75.53 135.26c.12.32.18.66.17 1-.02.66-.32 1.28-.82 1.7-.27.23-.6.4-.93.53l-1.83.64-1.7-4.8 1.83-.66c.34-.13.7-.2 1.06-.18.34 0 .65.08.95.22.3.14.55.34.76.58.25.28.42.6.53.96zm-.92.32c-.07-.24-.2-.47-.35-.67-.13-.16-.3-.3-.5-.4-.18-.1-.38-.16-.6-.17-.22 0-.45.03-.66.1l-.94.34 1.2 3.38.93-.33c.2-.07.4-.2.58-.34.16-.14.28-.3.36-.5.08-.2.12-.42.1-.64 0-.26-.04-.5-.13-.75v-.02zM76.6 133l.5 1.42 1.8-.64.26.7-1.8.65.7 2-.9.32-1.7-4.8 3-1.08.24.7"/>
        <path fill="#FFF" fill-rule="nonzero" stroke="#9ACDED" stroke-width="2" d="M67.83 158.8l23.55-8.33M70.52 166.4l23.55-8.34M73.3 174.25l23.55-8.34" stroke-linecap="round" stroke-linejoin="round"/>
        <path stroke="#9ACDED" stroke-width="2" d="M92.7 121.2C89.73 111.1 67 87.3 67 87.3"/>
        <path fill="#FFF" fill-rule="nonzero" stroke="#9ACDED" stroke-width="2" d="M116.9 140.47L99.52 112.9c-.97-1.52-2.97-2-4.52-1.07L67.2 128.9c-1.23.74-2.1 1.94-2.43 3.34l-13 55.62c-.07.28-.02.57.13.8.15.25.4.43.67.5L103.34 201c.28.07.57.02.8-.13.25-.15.43-.4.5-.67l13-55.62c.3-1.4.05-2.9-.74-4.1zm-23.62-11.1c-1.7-.4-2.98-1.77-3.26-3.48-.28-1.72.5-3.44 1.97-4.35 1.46-.92 3.34-.86 4.75.16 1.4 1.02 2.08 2.78 1.68 4.47-.54 2.3-2.84 3.74-5.15 3.2z"/>
        <path fill="#E1F2FF" fill-rule="nonzero" d="M69.15 135l-10.73 50 40.9 10.35 13.1-52.22-10.83-17.7-1.38 4.88c-.7 2.5-3.1 4.12-5.68 3.84-5-.57-9.37-3.68-11.54-8.23L69.15 135z"/>
        <circle cx="86.22" cy="154.31" r="13.25" fill="#EFEFF6" fill-rule="nonzero" transform="rotate(-76.89 86.224 154.314)"/>
        <circle cx="88.39" cy="152.07" r="13.25" fill="#FFF" fill-rule="nonzero" stroke="#9ACDED" stroke-width="2" transform="rotate(-76.89 88.385 152.07)"/>
        <path fill="#9ACDED" fill-rule="nonzero" d="M90.12 159.2v.32c.46-3.6 2.8-4.6 4-6.8v-.1l.07-.15c.2-.77.16-1.6-.17-2.34l-.08-.23-.18-.42-.06-.12-.05-.12-.06-.12-.07-.12v-.1c-.64-1.16-1.4-2.25-2.28-3.25-.14 1.26-.42 2.5-.83 3.7-.53 1.4-1.27 2.68-2.2 3.83-1.43-.44-2.78-1.1-4-1.94-1.02-.77-1.94-1.65-2.77-2.62v2.85c0 .35.02.7.07 1 .05.52.15 1.03.28 1.53l.06.2.06.17.07.18.08.22.12.23.1.15v.06l.05.1v.06l.06.08v.06l.07.07.05.05.07.07.08.05.32.25.08.05c2.2 1.17 4.72.72 7.1 3.44"/>
        <path stroke="#9ACDED" stroke-width="2" d="M67.77 173.1l29.07 6.76M65.98 180.77l29.07 6.77" stroke-linecap="round"/>
        <path stroke="#9ACDED" stroke-width="2" d="M70.46 85.44s0 5 1.08 7c2.2 3.94 5.32 8.18 7.6 14.73 4.07 11.6 5.56 22.27 12.5 18.2.94-.56 1.88-2.42 1.22-3.57"/>
        <path stroke="#9ACDED" stroke-width="2" d="M73.4 94.7s-2.74.32-3.3-.77c-.58-1.1 5.36-3.84 3.3.77z"/>
        <rect width="56.53" height="68.69" x="69.2" y="154.33" fill="#FFF" fill-rule="nonzero" stroke="#9ACDED" stroke-width="2" transform="rotate(27.8 97.463 188.676)" rx="2.25"/>
        <path fill="#E1F2FF" fill-rule="nonzero" d="M106.7 223.44l-44.44-20.22 27.05-51.3 44.5 21.3"/>
        <ellipse cx="101.97" cy="176.72" fill="#FFF" fill-rule="nonzero" transform="rotate(-62.2 101.974 176.717)" rx="9.11" ry="10.87"/>
        <ellipse cx="104" cy="175.71" fill="#FFF" fill-rule="nonzero" stroke="#9ACDED" stroke-width="2" transform="rotate(-62.2 104.003 175.71)" rx="9.11" ry="10.87"/>
        <path fill="#9ACDED" fill-rule="nonzero" d="M104.3 180.92v.24c.9-2.34 2.85-2.47 4.1-3.68l.05-.06.08-.1c.3-.48.37-1.07.22-1.62v-.17c0-.1 0-.22-.08-.33v-.44c-.33-.96-.77-1.88-1.3-2.75-.3.83-.7 1.62-1.2 2.34-.62.82-1.4 1.53-2.27 2.08-1.03-.62-1.97-1.38-2.8-2.25-.67-.75-1.26-1.56-1.77-2.43l-.08.22v.07l-.05.16v.06l-.05.16v.07l-.06.2-.07.23-.05.2V173.57l-.1.7c-.03.38-.03.75 0 1.12V175.97l.06.2V176.63l.06.06.1.1.05.04c1.55 1.3 3.57 1.6 5 4M85.56 186.5l-.64-1.58-4.56.98-1.1-2.68-1.66.36 1.73 4.24h.02"/>
        <path fill="#FFF" fill-rule="nonzero" stroke="#9ACDED" stroke-width="2" d="M87.7 189.46l24.8 13.07" stroke-linecap="round" stroke-linejoin="round"/>
        <path fill="#9ACDED" fill-rule="nonzero" d="M82.2 192.9l-.65-1.6-4.56 1-1.1-2.7-1.67.37 1.74 4.24v.02"/>
        <path fill="#FFF" fill-rule="nonzero" stroke="#9ACDED" stroke-width="2" d="M84.02 195.93l24.8 13.07" stroke-linecap="round" stroke-linejoin="round"/>
        <path fill="#9ACDED" fill-rule="nonzero" d="M78.83 199.28l-.65-1.58-4.56.98-1.1-2.68-1.66.36 1.74 4.24.02.02"/>
        <path fill="#FFF" fill-rule="nonzero" stroke="#9ACDED" stroke-width="2" d="M80.37 202.85l24.8 13.07" stroke-linecap="round" stroke-linejoin="round"/>
        <rect width="44.53" height="35.88" x="108.4" y="139.51" fill="#FFF" fill-rule="nonzero" stroke="#9ACDED" stroke-width="2" transform="rotate(10.97 130.666 157.45)" rx="2.25"/>
        <rect width="36.55" height="24.48" x="112.49" y="144.7" fill="#E1F2FF" fill-rule="nonzero" stroke="#9ACDED" stroke-width="2" transform="rotate(10.97 130.76 156.938)" rx="2.25"/>
        <path fill="#9ACDED" fill-rule="nonzero" stroke="#9ACDED" stroke-width="2" d="M114.46 145.07l.44-2.28c.07-.37.28-.7.58-.9.3-.2.68-.27 1.04-.2l33.17 6.43c.35.07.67.28.87.58.2.32.28.7.2 1.05l-.42 2.22-35.9-6.9zM147.07 168.88l-.42 2.18c-.07.36-.28.68-.58.88-.3.2-.68.28-1.04.2l-33.17-6.42c-.36-.07-.68-.28-.88-.58-.2-.3-.28-.68-.2-1.04l.44-2.33 35.85 7.1z"/>
        <path fill="#FFF" fill-rule="nonzero" stroke="#9ACDED" stroke-width="2" d="M135.46 156.26l-4.72-4.13c-.35-.3-.83-.4-1.27-.25-.44.14-.76.52-.85.97L127.4 159c-.1.45.07.92.42 1.22.34.3.82.4 1.26.25l5.94-2c.45-.14.78-.52.87-.98.08-.46-.08-.94-.44-1.24z"/>
        <rect width="44.33" height="38.51" x="74.35" y="140.18" fill="#FFF" fill-rule="nonzero" stroke="#9ACDED" stroke-width="2" transform="rotate(-5.22 96.518 159.436)" rx="2.25"/>
        <rect width="36.53" height="24.47" x="78.32" y="146.09" fill="#E1F2FF" fill-rule="nonzero" stroke="#9ACDED" stroke-width="2.01" transform="rotate(-5.143 96.588 158.324)" rx="2.25"/>
        <path fill="#9ACDED" fill-rule="nonzero" d="M79 167.2c0-.22 4.06-4.33 6.26-6.53.8-.82 2.07-.93 3-.26l5.1 3.6c.3.2.66.15.9-.1l7.18-8c.72-.8 1.9-1 2.85-.48l10.7 5.9.4 4.47c.06.5-.1 1-.42 1.38-.32.4-.8.63-1.3.67l-33 2.88c-.4.06-.84-.07-1.17-.35-.3-.28-.5-.68-.5-1.1v-2.08z"/>
        <circle cx="107.31" cy="149.8" r="2.49" fill="#FFF" fill-rule="nonzero" stroke="#9ACDED" stroke-width="2" transform="rotate(-4.98 107.31 149.8)"/>
        <path fill="#FFF" fill-rule="nonzero" stroke="#375D81" stroke-width="2" d="M85.26 160.64h67.9v73.15h-67.9z"/>
        <path fill="#E1F2FF" fill-rule="nonzero" d="M152.35 202.72L85.2 171.85l.06-11.2h67.1"/>
        <rect width="32.35" height="26.07" x="140.89" y="205.85" fill="#FFF" fill-rule="nonzero" stroke="#9ACDED" stroke-width="2" transform="rotate(-.28 157.067 218.89)" rx="2.25"/>
        <rect width="26.55" height="17.78" x="143.79" y="209.61" fill="#E1F2FF" fill-rule="nonzero" stroke="#9ACDED" stroke-width="2" transform="rotate(-.28 157.065 218.505)" rx="2.25"/>
        <path fill="#9ACDED" fill-rule="nonzero" stroke="#9ACDED" stroke-width="2" d="M143.77 212.36v-1.68c0-.55.45-1 1-1l24.55-.12c.55 0 1 .45 1 1v1.65l-26.55.16zM170.38 224.7v1.62c0 .55-.45 1-1 1l-24.55.12c-.55 0-1-.45-1-1v-1.72h26.55z"/>
        <path fill="#FFF" fill-rule="nonzero" stroke="#9ACDED" stroke-width="2" d="M159.8 217.06l-2.9-1.66c-.4-.23-.9-.23-1.3 0s-.64.66-.64 1.12v3.33c0 .46.24.9.65 1.12.4.23.9.23 1.3 0l2.88-1.67c.4-.23.65-.65.65-1.12 0-.46-.24-.9-.64-1.12z"/>
        <rect width="36.22" height="31.47" x="104.89" y="197.08" fill="#FFF" fill-rule="nonzero" stroke="#9ACDED" stroke-width="2" transform="rotate(-15.16 122.998 212.818)" rx="2.25"/>
        <rect width="29.73" height="19.91" x="107.74" y="201.35" fill="#E1F2FF" fill-rule="nonzero" stroke="#9ACDED" stroke-width="2" transform="rotate(-15.16 122.603 211.306)" rx="2.25"/>
        <path fill="#9ACDED" fill-rule="nonzero" d="M110 221.55c0-.17 2.65-4.06 4.12-6.14.53-.74 1.52-1 2.35-.62l4.7 2.18c.24.12.54.03.7-.2l4.65-7.48c.47-.75 1.4-1.07 2.22-.8l9.4 3.24 1 3.55c.12.4.06.82-.15 1.18-.2.35-.55.6-.95.72l-26.18 7c-.32.1-.67.03-.95-.14-.3-.18-.5-.47-.55-.8l-.37-1.68z"/>
        <circle cx="131.35" cy="204.02" r="2.04" fill="#FFF" fill-rule="nonzero" stroke="#9ACDED" stroke-width="2.01" transform="rotate(-15.005 131.35 204.018)"/>
        <path fill="#FFF" fill-rule="nonzero" stroke="#375D81" stroke-width="2" d="M51.25 160.72H85.2v73.15H51.25z"/>
        <path fill="#E1F2FF" fill-rule="nonzero" d="M52 186.77l32.46-14.92-.06-11.2H51.25"/>
        <path fill="#FFF" fill-rule="nonzero" stroke="#375D81" stroke-width="2" d="M85.2 160.72H51.25l-18.6 22.26H66.6zM85.2 160.72h67.9l18.6 22.26h-67.9z"/>
        <path stroke="#9ACDED" stroke-width="2" d="M59.55 203.62h15.7M59.55 209.26h15.7M59.55 214.9h15.7" stroke-linecap="round"/>
        <path stroke="#E1F2FF" stroke-width="2" d="M161.67 178.94h-15.83M51.13 178.94h-10.4" stroke-linecap="round"/>
        <path fill="#FFF" fill-rule="nonzero" stroke="#375D81" stroke-width="2" d="M245.27 87.7h33.95l18.6-22.26h-33.95zM245.27 87.7h-67.9l-18.6-22.26h67.9z"/>
        <path stroke="#375D81" d="M187.74 114.27v3.06M189.26 115.8h-3.05" stroke-linecap="round"/>
        <rect width="49.71" height="72.09" x="184.98" y="46.01" fill="#FFF" fill-rule="nonzero" stroke="#9ACDED" stroke-width="2" transform="rotate(-24.42 209.84 82.055)" rx="2.25"/>
        <path fill="#E1F2FF" fill-rule="nonzero" d="M202.25 116l40.26-15-25.16-55.44-40.3 16.1"/>
        <circle cx="203.05" cy="70.52" r="9.56" fill="#FFF" fill-rule="nonzero" transform="rotate(-24.42 203.048 70.518)"/>
        <circle cx="203.3" cy="68.28" r="9.56" fill="#FFF" fill-rule="nonzero" stroke="#9ACDED" stroke-width="2" transform="rotate(-24.42 203.3 68.275)"/>
        <path fill="#9ACDED" fill-rule="nonzero" d="M207.42 71.6l.17.16c-1.33-2.26-.44-3.86-.72-5.63v-.2c-.2-.54-.6-1-1.12-1.27l-.15-.1-.28-.15h-.41c-.87-.38-1.8-.66-2.73-.85.47.8.86 1.62 1.16 2.5.3 1 .44 2.07.42 3.14-1 .36-2.05.57-3.12.62-.92 0-1.83-.1-2.73-.3l.13.22v.06l.1.15v.07l.1.15v.06l.1.18.16.22.12.18.13.16.25.04c.16.2.32.38.5.56.25.28.52.53.82.76l.12.1.1.06.13.07.15.1.17.07h1c1.77-.3 3-1.66 5.58-1.16M202.16 89.73l-1.52-.57-1.57 4.16-2.58-.97-.58 1.52 4.1 1.54"/>
        <path fill="#FFF" fill-rule="nonzero" stroke="#9ACDED" stroke-width="2" d="M205.23 90.06l22.44-10.2" stroke-linecap="round" stroke-linejoin="round"/>
        <path fill="#9ACDED" fill-rule="nonzero" d="M205.3 96.64l-1.53-.57-1.56 4.16-2.58-.97-.57 1.52 4.1 1.53"/>
        <path fill="#FFF" fill-rule="nonzero" stroke="#9ACDED" stroke-width="2" d="M208.52 97.3l22.44-10.2" stroke-linecap="round" stroke-linejoin="round"/>
        <path fill="#9ACDED" fill-rule="nonzero" d="M208.43 103.54l-1.52-.57-1.56 4.16-2.58-.97-.57 1.52 4.08 1.54v-.02h.02"/>
        <path fill="#FFF" fill-rule="nonzero" stroke="#9ACDED" stroke-width="2" d="M211.9 104.77l22.45-10.2" stroke-linecap="round" stroke-linejoin="round"/>
        <path fill="#FFF" fill-rule="nonzero" stroke="#375D81" d="M266.32 86.63v3.06M267.85 88.16h-3.06" stroke-linecap="round" stroke-linejoin="round"/>
        <rect width="50.55" height="73.3" x="227.18" y="48.8" fill="#FFF" fill-rule="nonzero" stroke="#9ACDED" stroke-width="2" transform="rotate(19.54 252.458 85.45)" rx="2.25"/>
        <path fill="#E1F2FF" fill-rule="nonzero" d="M222.97 104.93l40.05 17.43 20.7-58.33-40.87-16.65"/>
        <circle cx="254.31" cy="72.46" r="9.68" fill="#FFF" fill-rule="nonzero" transform="rotate(-70.656 254.312 72.458)"/>
        <circle cx="257.42" cy="70.75" r="9.72" fill="#FFF" fill-rule="nonzero" stroke="#9ACDED" stroke-width="2" transform="rotate(-70.46 257.42 70.755)"/>
        <path fill="#9452BA" fill-rule="nonzero" d="M258.1 76.08v.25c.62-2.6 2.4-3.13 3.45-4.62v-.07l.06-.1c.23-.56.26-1.17.08-1.73v-.17l-.1-.32v-.42c-.37-.9-.84-1.76-1.4-2.56-.2.9-.5 1.8-.9 2.64-.5.96-1.16 1.84-1.93 2.6-1-.44-1.9-1.02-2.72-1.74-.68-.65-1.28-1.36-1.8-2.14l-.06.24v2.46c0 .38.02.76.07 1.14V71.95l.05.17.06.18.05.13v.24l.07.05.1.07h.04c1.52 1 3.4.9 4.9 3.08"/>
        <path fill="#9ACDED" fill-rule="nonzero" d="M241.43 85.64l-.7-1.5-4.1 1.95-1.2-2.54-1.48.7 1.9 4.02h.02"/>
        <path fill="#FFF" fill-rule="nonzero" stroke="#9ACDED" stroke-width="2" d="M243.46 88.05l23.6 8.38" stroke-linecap="round" stroke-linejoin="round"/>
        <path fill="#9ACDED" fill-rule="nonzero" d="M238.85 92.9l-.7-1.48-4.1 1.94-1.2-2.54-1.48.7 1.9 4.03h.02"/>
        <path fill="#FFF" fill-rule="nonzero" stroke="#9ACDED" stroke-width="2" d="M240.76 95.66l23.6 8.38" stroke-linecap="round" stroke-linejoin="round"/>
        <path fill="#9ACDED" fill-rule="nonzero" d="M236.28 100.17l-.7-1.5-4.1 1.96-1.2-2.54-1.5.7 1.92 4 .02.02"/>
        <path fill="#FFF" fill-rule="nonzero" stroke="#9ACDED" stroke-width="2" d="M237.96 103.53l23.62 8.38" stroke-linecap="round" stroke-linejoin="round"/>
        <rect width="53.46" height="77.52" x="213.93" y="54.64" fill="#FFF" fill-rule="nonzero" stroke="#9ACDED" stroke-width="2" transform="rotate(19.84 240.658 93.403)" rx="2.25"/>
        <path fill="#E1F2FF" fill-rule="nonzero" d="M209.34 113.86l42.26 18.66 22.22-61.57L230.7 53.1"/>
        <circle cx="244.06" cy="79.42" r="10.28" fill="#FFF" fill-rule="nonzero" transform="rotate(-70.16 244.06 79.422)"/>
        <circle cx="245.94" cy="77.89" r="10.28" fill="#FFF" fill-rule="nonzero" stroke="#9ACDED" stroke-width="2" transform="rotate(-70.16 245.94 77.894)"/>
        <path fill="#9452BA" fill-rule="nonzero" d="M246.64 83.54v.26c.68-2.73 2.57-3.3 3.68-4.87v-.08l.07-.1c.23-.6.27-1.23.08-1.83v-.18c0-.1-.06-.23-.1-.34v-.46c-.4-.96-.88-1.87-1.46-2.72-.23.96-.57 1.9-1 2.8-.52 1-1.2 1.92-2 2.73-1.05-.47-2-1.1-2.87-1.86-.77-.7-1.46-1.47-2.05-2.32l-.06.26v2.62c0 .4 0 .8.07 1.2V79.1l.06.2.07.18.06.13v.36l.05.06.1.08h.06c1.6 1.1 3.58 1 5.17 3.3"/>
        <path fill="#9ACDED" fill-rule="nonzero" d="M228.97 93.57l-.74-1.58L223.9 94l-1.26-2.7-1.58.75 2 4.26h.02"/>
        <path fill="#FFF" fill-rule="nonzero" stroke="#9ACDED" stroke-width="2" d="M231.1 96.12l24.93 9" stroke-linecap="round" stroke-linejoin="round"/>
        <path fill="#9ACDED" fill-rule="nonzero" d="M226.2 101.23l-.73-1.57-4.33 2.03-1.26-2.7-1.58.74 2 4.25"/>
        <path fill="#FFF" fill-rule="nonzero" stroke="#9ACDED" stroke-width="2" d="M228.2 104.16l24.93 9" stroke-linecap="round" stroke-linejoin="round"/>
        <path fill="#9ACDED" fill-rule="nonzero" d="M223.44 108.9l-.74-1.58-4.33 2.04-1.26-2.7-1.57.75 2 4.26h.02"/>
        <path fill="#FFF" fill-rule="nonzero" stroke="#9ACDED" stroke-width="2" d="M225.2 112.47l24.93 9" stroke-linecap="round" stroke-linejoin="round"/>
        <path stroke="#9ACDED" stroke-width="2" d="M245.35 52.06c3-10.08 25.76-33.88 25.76-33.88"/>
        <path fill="#FFF" fill-rule="nonzero" stroke="#9ACDED" stroke-width="2" d="M265.27 71.33L247.9 43.76c-.98-1.54-3.02-2.02-4.57-1.06l-27.77 17.05c-1.22.75-2.1 1.95-2.42 3.35l-13 55.62c-.06.28 0 .58.16.82s.4.4.7.46l50.73 11.82c.58.12 1.15-.24 1.27-.82l13-55.6c.3-1.4.05-2.87-.73-4.07zm-23.62-11.1c-2.3-.53-3.74-2.83-3.2-5.14.52-2.32 2.8-3.76 5.12-3.23 2.3.53 3.75 2.82 3.23 5.13-.25 1.1-.94 2.08-1.9 2.68-.97.6-2.14.8-3.25.55z"/>
        <path fill="#E1F2FF" fill-rule="nonzero" d="M217.52 65.84l-10.73 50 40.9 10.35 13.1-52.27-10.8-17.7-1.37 4.88c-.7 2.5-3.1 4.12-5.68 3.84-5-.55-9.36-3.64-11.54-8.17l-13.88 9.07z"/>
        <circle cx="234.57" cy="85.18" r="13.25" fill="#EFEFF6" fill-rule="nonzero" transform="rotate(-76.89 234.57 85.178)"/>
        <circle cx="236.74" cy="82.93" r="13.25" fill="#FFF" fill-rule="nonzero" stroke="#9ACDED" stroke-width="2" transform="rotate(-76.89 236.74 82.934)"/>
        <path fill="#9ACDED" fill-rule="nonzero" d="M238.5 90.06v.33c.45-3.6 2.78-4.6 4-6.8v-.1l.06-.16c.22-.77.17-1.6-.16-2.34l-.08-.23-.18-.42-.06-.12-.06-.12-.06-.1-.06-.13v-.1c-.64-1.16-1.4-2.25-2.28-3.25-.14 1.26-.42 2.5-.83 3.7-.54 1.4-1.28 2.68-2.2 3.83-1.44-.44-2.8-1.1-4-1.94-1.03-.76-1.95-1.64-2.78-2.6V82.34c0 .35.02.7.07 1 .04.52.14 1.03.27 1.53l.06.2.06.17.06.18.1.22.1.23.1.15v.06l.06.1v.05l.06.08v.07l.06.07.05.05.06.06.1.06.12.08.08.05c2.2 1.17 4.72.72 7.1 3.44"/>
        <path stroke="#9ACDED" stroke-width="2" d="M216.14 103.95l29.07 6.78M214.35 111.63l29.07 6.77" stroke-linecap="round"/>
        <path stroke="#9ACDED" stroke-width="2" d="M267.6 16.3s0 5-1.08 7c-2.2 3.95-5.32 8.2-7.6 14.74-4.07 11.6-5.56 22.27-12.5 18.2-.94-.56-1.88-2.42-1.22-3.57"/>
        <path stroke="#9ACDED" stroke-width="2" d="M264.67 25.57s2.73.32 3.3-.77c.57-1.1-5.37-3.8-3.3.77z"/>
        <rect width="45.15" height="54.86" x="186.77" y="83.34" fill="#FFF" fill-rule="nonzero" stroke="#9ACDED" stroke-width="2" transform="rotate(21.58 209.343 110.773)" rx="2.25"/>
        <path fill="#E1F2FF" fill-rule="nonzero" d="M219.7 137.57l-37.04-12.2L199.7 82.3l37.17 13.06"/>
        <ellipse cx="211.91" cy="100.88" fill="#FFF" fill-rule="nonzero" transform="rotate(-68.42 211.912 100.883)" rx="7.27" ry="8.68"/>
        <ellipse cx="213.42" cy="99.9" fill="#FFF" fill-rule="nonzero" stroke="#9ACDED" stroke-width="2" transform="rotate(-68.42 213.42 99.895)" rx="7.27" ry="8.68"/>
        <path fill="#9ACDED" fill-rule="nonzero" d="M214.1 104v.2c.5-1.94 2.05-2.22 2.94-3.28v-.06l.05-.08c.17-.42.17-.9 0-1.3v-.14l-.1-.25v-.33c-.35-.73-.77-1.43-1.27-2.07-.16.7-.4 1.36-.75 2-.43.7-.98 1.32-1.63 1.84-.87-.4-1.68-.92-2.4-1.54-.6-.54-1.14-1.13-1.62-1.78v2.04c0 .3.03.6.1.88v.46l.05.14v.14h.05l.08.06c1.35.9 3 1 4.35 2.74M199.7 110.07l-.64-1.2-3.53 1.18-1.1-2.04-1.3.44 1.75 3.22h.02"/>
        <path fill="#FFF" fill-rule="nonzero" stroke="#9ACDED" stroke-width="2" d="M201.66 112.24l20.82 8.23" stroke-linecap="round" stroke-linejoin="round"/>
        <path fill="#9ACDED" fill-rule="nonzero" d="M197.6 115.44l-.66-1.2-3.53 1.18-1.1-2.04-1.3.43 1.76 3.23h.02"/>
        <path fill="#FFF" fill-rule="nonzero" stroke="#9ACDED" stroke-width="2" d="M199.3 117.7l20.82 8.22" stroke-linecap="round" stroke-linejoin="round"/>
        <path fill="#9ACDED" fill-rule="nonzero" d="M195.47 120.8l-.65-1.2-3.53 1.18-1.12-2.03-1.3.42 1.76 3.22h.02"/>
        <path fill="#FFF" fill-rule="nonzero" stroke="#9ACDED" stroke-width="2" d="M197 123.5l20.82 8.24" stroke-linecap="round" stroke-linejoin="round"/>
        <path fill="#FFF" fill-rule="nonzero" stroke="#375D81" stroke-width="2" d="M211.38 87.62h67.9v73.15h-67.9z"/>
        <path fill="#E1F2FF" fill-rule="nonzero" d="M278.47 129.7l-67.15-20.77.06-21.3h67.1"/>
        <path fill="#FFF" fill-rule="nonzero" stroke="#375D81" stroke-width="2" d="M177.37 87.7h33.95v73.15h-33.95z"/>
        <path fill="#E1F2FF" fill-rule="nonzero" d="M178.13 113.75l32.46-4.82-.08-21.3h-33.15"/>
        <circle cx="244.77" cy="131.69" r="13.69" fill="#EFEFF6" fill-rule="nonzero"/>
        <circle cx="248" cy="129.11" r="13.69" fill="#FFF" fill-rule="nonzero" stroke="#375D81" stroke-width="2"/>
        <path fill="#9452BA" fill-rule="nonzero" d="M252.4 136c.05.18.1.3.12.34-.4-3.9 1.8-5.52 2.52-8.1v-.13-.17c.05-.87-.22-1.73-.74-2.42l-.14-.2-.3-.4-.08-.12-.1-.1-.08-.12-.1-.1-.06-.1c-.96-1.06-2.03-2.02-3.2-2.85.16 1.37.16 2.75 0 4.1-.2 1.6-.67 3.12-1.36 4.56-1.6-.12-3.15-.48-4.63-1.07-1.26-.57-2.45-1.27-3.55-2.1V128.23l.06.34.07.38.07.33v.07l.07.3v.06l.1.34.3 1.06c.2.53.4 1.05.67 1.54l.1.2.1.16.12.17.15.2.2.22.12.13.06.05.08.08.06.05.08.07h.07l.08.06h.07l.1.05H243.62l.16.05h.1c2.6.7 5.12-.4 8.3 1.87"/>
        <path stroke="#9ACDED" stroke-width="2" d="M185.67 130.6h15.7M185.67 136.24h15.7M185.67 141.88h15.7" stroke-linecap="round"/>
        <path fill="#FFF" fill-rule="nonzero" stroke="#375D81" stroke-width="2" d="M211.32 87.7h-33.95l-18.6 22.26h33.95zM211.32 87.7h67.9l18.6 22.26h-67.9z"/>
        <path stroke="#E1F2FF" stroke-width="2" d="M287.8 105.92h-15.84M177.26 105.92h-10.4" stroke-linecap="round"/>
        <path stroke="#375D81" d="M7 162.83v3.06M8.54 164.36H5.5" stroke-linecap="round"/>
        <path fill="#FFF" fill-rule="nonzero" stroke="#375D81" stroke-width="2" d="M379.87 112l11.38-13.04" stroke-linecap="round" stroke-linejoin="round" stroke-dasharray="10"/>
        <path fill="#FFF" fill-rule="nonzero" stroke="#375D81" stroke-width="2" d="M385.68 119.72l12.7-6.9" stroke-linecap="round" stroke-linejoin="round" stroke-dasharray="5"/>
        <path fill="#FFF" fill-rule="nonzero" stroke="#375D81" stroke-width="2" d="M370 105.87l6.12-13.9" stroke-linecap="round" stroke-linejoin="round" stroke-dasharray="10"/>
        <path fill="#FFF" fill-rule="nonzero" stroke="#375D81" stroke-width="2" d="M17.23 233.8H425.7" stroke-linecap="round" stroke-linejoin="round"/>
    </g>
</svg>