<svg xmlns="http://www.w3.org/2000/svg" width="256" height="256" xmlns:xlink="http://www.w3.org/1999/xlink">
    <defs>
        <path id="a" d="M20 0h87v47H20z"/>
    </defs>
    <g fill="none" fill-rule="evenodd" transform="translate(8 31)">
        <path fill="#E1F2FF" fill-rule="nonzero" d="M20 190.2C20 133 66.37 86.62 123.56 86.62c57.2 0 103.56 46.37 103.56 103.56H20z"/>
        <path fill="#FFF" fill-rule="nonzero" stroke="#9ACDED" stroke-width="2" d="M25.6 202h22.34" stroke-linecap="round"/>
        <path stroke="#9ACDED" stroke-width="2" d="M235.22 191.04h5" stroke-linecap="round"/>
        <path fill="#FFF" fill-rule="nonzero" stroke="#9ACDED" stroke-width="2" d="M0 191.04h5.33M91.35 202h55.72M153.72 202h11.33M86.4 202h-4.35M14.55 202h3.67M212.2 202h13.68" stroke-linecap="round"/>
        <g transform="translate(128 135)">
            <mask id="b" fill="#fff">
                <use xlink:href="#a"/>
            </mask>
            <g transform="translate(0 10)" mask="url(#b)">
                <path fill="#9452BA" fill-rule="nonzero" stroke="#52267D" stroke-width="2" d="M51.58 103.48h-5c-1.72 0-3.26-1.04-3.9-2.64-1.76-4.55-1.32-8.73-1.53-12.3-.4-6.64.64-10 1.63-15.57l7.47.17s-.64 2.75-1.06 11c-.14 2.56 4.08 12.82 3.88 17.85-.02.8-.68 1.46-1.5 1.48zM66.08 79.8l6-6.8 3.7.14.74 8c.67 5.4 1.73 10.75 3.18 16 .32 1.06.53 2.15.6 3.26.02.8-.3 1.57-.86 2.14-.57.57-1.34.88-2.14.86h-4.4c-2.58 0-4.83-1.7-5.5-4.2-1.92-7.68-1.32-19.4-1.32-19.4z"/>
                <path fill="#9452BA" fill-rule="nonzero" stroke="#52267D" stroke-width="2" d="M74.5 54.42c-4.38-.1-8.48-3.1-17.42-3.52-.1-.53-.27-1.05-.5-1.54-1.6-3.5-3.9-13.6-2.42-20.22l1.16-5.25c.38-1.73.57-3.5.57-5.25 0-.72-.08-1.44-.23-2.14l-.12-.5c-.13-.5-.3-1-.5-1.48l-.2-.47c-.16-.3-.32-.6-.5-.9-.18-.3-.37-.58-.57-.85-.6-.82-1.34-1.55-2.16-2.16-.27-.2-.56-.4-.85-.57-1.66-1-3.57-1.54-5.52-1.54H43.5c-2.8 0-5.52 1.12-7.5 3.12-.25.24-.48.5-.7.76-.4.5-.75 1-1.05 1.54-.12.2-.23.4-.33.62-.1.2-.15.3-.2.47-.42.97-.68 2-.8 3.05-.03.36-.04.73-.04 1.1 0 1.45 1.2 2.64 2.65 2.64h10.9l-1.66 9.45c-1.93 9.7-1.35 16.2.15 20.53.33 1 2.24 4.4 2.24 4.4-5.45 8.58-13.8 12.34-22.73 13.43-7.6.93-24-6-15.53-14s-1.76-3-3.26-2c-1.5 1-10.2 8.52-.76 19.54 4 4.66 8.5 8.9 19.37 12.14 1.74.53 11.25 1.22 16.38 2.7 15.25 4.37 27.64-.4 34.6-10.46 6.94-10.07 1-22.58-.73-22.62z"/>
                <path fill="#9452BA" fill-rule="nonzero" stroke="#52267D" stroke-width="2" d="M65 40c-.35-11.26 8.6-20.1 18.74-22 2.1-.4 2.8-1 5.1-1h1.77c5.96 0 10.8 4.83 10.8 10.78 0 1.5-1.2 2.7-2.7 2.7H80.5c-4 1.7-6.5 6.8-6.94 9.56-.67 3.3-.26 6.72 1.17 9.76.78 1.74 1.07 3.65.85 5.54h-.1c-.08 1.05-.24 2.1-.48 3.12-1.7-1.2-4.36-3-4.84-3.23-1-.55-3.4-1.8-4.47-2.42-6.7-3.92-.47-6.45-.7-12.8z"/>
                <path fill="#F3E3FF" fill-rule="nonzero" stroke="#52267D" d="M70.8 53c.1-1.74.36-2.63.17-3.34-1.12-4.07-1.5-5.36-1.5-9.67.1-4.4 2.42-8.46 6.16-10.78 1.73-.23 3.48.2 4.9 1.2-4 1.7-6.5 6.82-6.93 9.57-.67 3.28-.26 6.7 1.17 9.75.78 1.74 1.07 3.65.85 5.54 0 0-4.92 1.84-4.8-2.3"/>
                <path fill="#FFF" fill-rule="nonzero" stroke="#52267D" d="M96.3 18.75c-.06-1.17-.8-2.2-1.87-2.63l-1.6-.65s-1.12 2.36.14 2.95c1.03.5 2.22.63 3.33.33zM91.62 17.43c-.1-1.58-1.36-2.84-2.94-2.94-.54-.08-1.94 0-1.94 0s-.65 2.7.87 3c1.34.15 2.7.13 4.02-.07zM85.9 17.67s-.4-2.84-2.94-2.06c-.67.22-1.26.62-1.7 1.17 0 0 .5 2.17 1.52 1.92 1.06-.26 2.1-.6 3.1-1.03zM78.47 31.48s-6-3.24-4.82-8.7c-1.32 1.13-2.55 2.35-3.67 3.66 0 1.07-.2 5.3 5.65 8.14.88-1.1 1.83-2.13 2.84-3.1z"/>
                <path fill="#F3E3FF" fill-rule="nonzero" d="M95.5 18.23c-.04-.6-.43-1.15-1-1.36l-.84-.34s-.58 1.22.08 1.53c.54.27 1.17.33 1.75.17zM90.4 16.85c-.06-.8-.7-1.45-1.5-1.5h-1s-.34 1.38.44 1.52c.68.1 1.37.08 2.05-.02zM85 17.47s-.2-1.5-1.56-1.1c-.35.12-.67.34-.9.63 0 0 .27 1.15.8 1 .57-.13 1.13-.3 1.66-.53z"/>
                <path fill="#F3E3FF" fill-rule="nonzero" d="M91.96 28.58H86.5c-1.36 0-2.47-1.1-2.47-2.48 0-1.37 1.1-2.48 2.48-2.48h.46c2.76 0 5 2.24 5 5v-.04z" opacity=".3"/>
                <path fill="#FFF" fill-rule="nonzero" stroke="#52267D" d="M91.86 28.5h-4.9c-1.1 0-2-.9-2-2s.9-2 2-2h1c1.04 0 2.04.4 2.77 1.13.73.73 1.14 1.73 1.14 2.76v.1z"/>
                <circle cx="89.87" cy="26.42" r="1.09" fill="#52267D" fill-rule="nonzero"/>
                <path fill="#52267D" fill-rule="nonzero" d="M99 29.57c-.3-.07-.58-.24-.78-.5l-.37-.45.8.17.5.1c.08 0 .16.06.2.14.05.08.07.17.05.26-.02.1-.07.17-.14.22-.08.05-.17.07-.26.05z"/>
                <path fill="#EAF3FB" fill-rule="nonzero" d="M77.46 31.6s-4.6-2.48-4.52-7.46c-.98.62-1.83 1.42-2.5 2.36.18 1.3.67 2.5 1.44 3.56 1.7 1.84 3.46 2.4 5.58 1.53z"/>
                <path fill="#FFF" fill-rule="nonzero" stroke="#52267D" d="M73.12 30.7c1.06 1.08 2.26 2 3.57 2.73"/>
                <path fill="#9452BA" fill-rule="nonzero" stroke="#52267D" stroke-width="2" d="M55.13 50.06l1-2c3.82-9.38 4.4-14.9 2.43-23.84L57.4 19c-.37-1.72-.56-3.48-.56-5.24 0-5.88 4.76-10.64 10.64-10.64h1.72c5.8 0 10.5 4.7 10.5 10.5v.3c0 .65-.27 1.3-.74 1.76-.47.47-1.1.73-1.77.73H66.3l1.65 9.46c5 25.33 4.54 35.6-5.4 33.5"/>
                <path fill="#FFF" fill-rule="nonzero" stroke="#52267D" d="M74.44 4.34c-.16-1.15-.92-2.14-2-2.58-.47-.12-.96-.12-1.43 0 0 0-1.05 1.65.2 2.24 1 .5 2.15.62 3.24.34zM70.08 3.73C69.98 1.93 68.54.5 66.75.4c-.46-.04-.93-.04-1.4 0 0 0-1.53 3.05.2 3.35 1.5.2 3.02.2 4.53-.02zM64.24 4.4s-.44-2.8-2.93-1.96c-.64.23-1.2.64-1.62 1.18 0 0 .55 2.1 1.54 1.84 1.03-.27 2.05-.63 3.02-1.07z"/>
                <path fill="#F3E3FF" fill-rule="nonzero" stroke="#52267D" d="M74.27 54.08c-.53-.4-1.14-.7-1.8-.86M70.67 54c1.78-7.22-1.43-21-2-24.43L66.3 16h-1c-.63.06-1.22.4-1.6.9-.4.5-.58 1.15-.48 1.8l1.7 11.8c.56 4 1.16 22.5-5.8 26.5-1.47.84-3.88.28-4.8-.15-3.3-1.58-4.24-5.7-5-9-1.5-6.87-.32-12.26 0-17.65l.36-6.74c.08-1.27-.85-2.38-2.12-2.5h-1.24l-2.24 13.6c-.67 3.9-2.4 17.33 5.52 23.64.14.1-1.93.58-1.33 1.64 2.38 4.2 9.3 4.88 10.6 6.68 5 6.94.3 21.74.3 21.74 3.25-1.32 6.28-3.1 9-5.3 8-7.2 9.08-17.66 9.12-20.73 0-3.68-.93-6-2.12-7.32"/>
                <path fill="#FFF" fill-rule="nonzero" stroke="#52267D" d="M5.35 60.05c-.7-.84-.9-1.98-.5-3 .2-.4.52-.75.9-1 0 0 1.78.3 1.4 1.5-.26 1.04-.9 1.92-1.8 2.5z"/>
                <path fill="#F3E3FF" fill-rule="nonzero" d="M5.73 58.3c-.23-.3-.3-.67-.18-1 .07-.15.2-.27.32-.35 0 0 .62.1.5.53-.12.34-.34.62-.64.8z"/>
                <path fill="#FFF" fill-rule="nonzero" stroke="#52267D" d="M14.7 69.12c.62-1.56-.03-3.33-1.5-4.12-.37-.22-.76-.4-1.17-.56 0 0-2.5 2-1.16 2.9 1.2.77 2.48 1.36 3.84 1.78z"/>
                <path fill="#F3E3FF" fill-rule="nonzero" d="M13.8 68.2c.35-.87 0-1.85-.83-2.3-.2-.1-.42-.22-.65-.3 0 0-1.38 1.1-.64 1.6.66.43 1.38.76 2.13 1z"/>
                <path fill="#FFF" fill-rule="nonzero" stroke="#52267D" d="M6.8 61s-1.9 1.65-.1 3.13c.5.38 1.07.62 1.68.67 0 0 1.33-1.42.66-2-.7-.66-1.45-1.26-2.25-1.8z"/>
                <path fill="#F3E3FF" fill-rule="nonzero" d="M7.07 62.18s-.83.73 0 1.4c.2.16.47.27.74.3 0 0 .6-.64.3-.9-.32-.3-.66-.57-1.03-.8z"/>
                <path fill="#FFF" fill-rule="nonzero" stroke="#52267D" d="M23.73 70.42c.34-1.35-.47-2.72-1.8-3.08-2.44-.88-3.1-.15-3.1-.15s-1.33 2.25-.13 3c1.2.73 5.03.22 5.03.22z"/>
                <path fill="#F3E3FF" fill-rule="nonzero" d="M22.6 69.92c.17-.7-.24-1.4-.94-1.6-1.26-.46-1.6-.08-1.6-.08s-.7 1.17-.07 1.55c.84.2 1.73.26 2.6.12z"/>
                <path fill="#FFF" fill-rule="nonzero" stroke="#52267D" d="M66.84 19.3c-2.94 1.35-6.32 1.43-9.32.2l1.14 5.1s5 1.54 8.94-.9c-.4-2.24-.76-4.4-.76-4.4zM37.86 9.46c.16-1.16.92-2.15 2-2.6.68-.17 1.38-.27 2.08-.3 0 0 .43 2-.82 2.56-1 .5-2.17.62-3.26.34zM42.55 8.5c.1-1.55 1.34-2.8 2.9-2.9.4-.02.8-.02 1.2 0 0 0 1.35 2.67-.15 2.93-1.3.17-2.64.17-3.95-.02zM47.94 8.7s.45-2.8 2.95-2c.65.23 1.22.64 1.64 1.2 0 0-.56 2.1-1.55 1.85-1.05-.26-2.07-.62-3.06-1.05z"/>
                <path fill="#F3E3FF" fill-rule="nonzero" d="M73.5 3.87c-.1-.62-.5-1.14-1.08-1.38-.25-.08-.52-.08-.77 0 0 0-.57.87.1 1.18.54.27 1.16.34 1.74.2zM69 3.24c-.07-1.12-.97-2.02-2.1-2.1h-.86s-1 1.92.1 2.1c.96.14 1.9.13 2.86 0zM63.16 4.1s-.26-1.6-1.7-1.1c-.36.12-.7.36-.93.67 0 0 .32 1.22.9 1.06.6-.16 1.17-.36 1.73-.62zM38.78 9c.1-.6.5-1.14 1.07-1.37.36-.1.73-.14 1.1-.15 0 0 .23 1-.43 1.35-.54.27-1.16.33-1.74.17zM43.65 8.07c.05-.86.74-1.55 1.6-1.6.22-.02.45-.02.67 0 0 0 .74 1.47-.1 1.6-.7.1-1.45.1-2.17 0zM48.94 8.5s.24-1.52 1.6-1.06c.37.12.68.35.9.65 0 0-.3 1.15-.84 1-.57-.16-1.12-.35-1.66-.6z"/>
                <path fill="#FFF" fill-rule="nonzero" stroke="#52267D" d="M55.27 24.1c-3.12.42-6.28.3-9.36-.37-.43 2.48-.72 4.35-.72 4.35s3.16 2.15 9 .9c.7-3.18 1.1-4.88 1.1-4.88z"/>
                <path fill="#F3E3FF" fill-rule="nonzero" d="M46.86 14.32h.48c1.37 0 2.48 1.1 2.48 2.48 0 1.37-1.1 2.48-2.48 2.48H41.9c0-2.73 2.23-4.94 4.96-4.96z" opacity=".3"/>
                <path fill="#FFF" fill-rule="nonzero" stroke="#52267D" d="M45.9 15.3H47c1 0 1.8.8 1.8 1.8 0 1.15-.93 2.1-2.08 2.1H42c0-2.16 1.74-3.9 3.9-3.9z"/>
                <circle cx="44.76" cy="16.81" r="1.09" fill="#52267D" fill-rule="nonzero" transform="rotate(-64.07 44.762 16.813)"/>
                <path fill="#F3E3FF" fill-rule="nonzero" d="M71.62 14.57h-5.45c-1.37 0-2.48-1.1-2.48-2.48s1.1-2.5 2.47-2.5h.48c2.76 0 5 2.25 5 5l-.03-.03z" opacity=".3"/>
                <path fill="#FFF" fill-rule="nonzero" stroke="#52267D" d="M71.53 14.48h-4.9c-1.1 0-2-.9-2-2s.9-2 2-2h1c2.16 0 3.9 1.75 3.9 3.9v.1z"/>
                <circle cx="68.69" cy="12.06" r="1.09" fill="#52267D" fill-rule="nonzero"/>
                <path fill="#52267D" fill-rule="nonzero" d="M35.33 20.42c.3-.07.58-.24.78-.5l.38-.45-.8.17-.5.1c-.08.02-.16.07-.2.15-.05.07-.07.16-.05.25.02.1.07.17.14.22.08.05.17.07.26.05zM77.34 15.32c-.3-.07-.58-.24-.78-.5l-.37-.45.8.17.48.1c.1.02.17.07.22.15.04.07.06.16.04.25-.02.1-.07.17-.14.22-.08.05-.17.07-.26.05z"/>
                <path fill="#EAF3FB" fill-rule="nonzero" d="M66.38 20c-2.6 1-5.5 1.06-8.15.15.2 1.22.47 2.44.8 3.63 1.38.08 2.75.02 4.1-.18 2.33-.45 3.25-1.5 3.25-3.6z"/>
                <path fill="#FFF" fill-rule="nonzero" stroke="#52267D" d="M60.73 23.1c2.25.14 4.5-.26 6.55-1.18"/>
                <path fill="#EAF3FB" fill-rule="nonzero" d="M47.67 24.64c2.2.6 4.52.72 6.78.4-.24 1.05-.55 2.08-.92 3.1 0 0-4.77-.64-5.86-3.5z"/>
                <path fill="#F3E3FF" fill-rule="nonzero" stroke="#52267D" stroke-width=".5" d="M49.6 58.22s.22.16.53.34"/>
                <path fill="#FFF" fill-rule="nonzero" stroke="#52267D" d="M47.32 26c2.47.4 4.98.5 7.47.23"/>
                <path fill="#9452BA" fill-rule="nonzero" stroke="#52267D" stroke-width="2" d="M59.9 72.94c-.24 4.84.07 9.68.92 14.45 1.33 8.2 3.7 10.8 3.5 12.92-.12 1.65-.82 3.16-2.48 3.16H56.9c-2.3 0-4.35-1.48-5.08-3.66-.77-2.33-1.3-4.74-1.6-7.18-.27-3.54-.35-7.1-.22-10.64M34.55 76.65c1.6 1.5 2.5 3.62 2.47 5.83 0 2.83-1.66 6.43-.62 11.13.93 4.2 2.77 4.94 2.22 8.7-.1.68-.7 1.18-1.4 1.17h-5.5c-2.55 0-4.7-1.84-5.13-4.34-.84-5.93-.62-11.96.62-17.8"/>
                <g stroke="#F3E3FF" stroke-width=".25" opacity=".3">
                    <path d="M97.87 26c-.04.27-.27.47-.54.47-.26 0-.5-.2-.53-.47M98.94 26c.03.2-.07.4-.24.53-.18.1-.4.1-.6 0-.16-.12-.26-.32-.23-.53"/>
                    <path d="M98.4 26.5c.03.2-.07.4-.24.53-.18.1-.4.1-.6 0-.16-.12-.26-.32-.23-.53M77.34 25.46c-.24.17-.56.2-.82.06-.26-.13-.43-.4-.43-.7 0-.3.15-.56.4-.7"/>
                    <path d="M77.08 26.55c-.24.17-.56.2-.82.06-.26-.12-.43-.4-.43-.7 0-.28.16-.55.42-.7M51.9 43.46c0 .4-.3.72-.7.72-.4 0-.73-.32-.73-.72M53.35 43.46c0 .4-.32.72-.72.72-.4 0-.72-.32-.72-.72M52.63 44.18c0 .4-.32.72-.72.72-.4 0-.7-.32-.7-.72M53 20.56c0 .44-.35.8-.8.8-.43 0-.78-.36-.78-.8"/>
                    <path d="M53.8 21.35c0 .44-.34.8-.78.8s-.8-.36-.8-.8M63.12 34.5c-.12.43-.52.72-.96.72-.44 0-.84-.3-.96-.72M64.08 35.46c.12.4-.03.85-.38 1.1-.35.24-.8.24-1.16 0-.35-.25-.5-.7-.38-1.1M77.05 10.65c0 .35-.3.64-.64.64s-.63-.3-.63-.65M77.7 11.3c0 .34-.3.63-.64.63-.35 0-.64-.3-.64-.64M16.65 75.35c-.28.3-.75.34-1.06.06-.33-.26-.36-.74-.08-1.05"/>
                    <path d="M16.74 76.4c-.28.3-.75.33-1.06.05-.32-.27-.35-.75-.07-1.06M46 65.15c-.12.3-.4.52-.7.56-.33.04-.65-.1-.83-.37-.2-.27-.2-.6-.05-.9M47.6 65.87c-.12.3-.4.52-.7.56-.33.03-.65-.1-.83-.38-.2-.27-.2-.6-.05-.9"/>
                    <path d="M46.45 66.3c-.12.3-.4.52-.7.56-.33.03-.65-.1-.83-.38-.2-.27-.2-.6-.05-.9"/>
                    <path d="M48 67c-.12.3-.4.52-.7.56-.33.03-.65-.1-.83-.38-.2-.27-.2-.6-.05-.9M45.3 66.73c-.22.4-.7.57-1.13.38-.4-.18-.6-.66-.45-1.1M61.1 17.13c0 .48-.38.88-.87.88-.48 0-.87-.4-.87-.87M61.42 50.2c0 .47-.4.86-.88.86s-.87-.4-.87-.87M51.5 32c0 .37-.3.66-.66.66-.37 0-.67-.3-.67-.66M35.72 16.9c0 .3-.22.5-.5.5s-.5-.2-.5-.5"/>
                </g>
            </g>
        </g>
        <path stroke="#9ACDED" stroke-width="2" d="M100.72 188.17c.96-.27 1.86-.7 2.67-1.3" stroke-linecap="round"/>
        <path fill="#FFF" fill-rule="nonzero" stroke="#9ACDED" stroke-width="2" d="M231 191h-16c3.82-12.12-2.9-25.03-15.03-28.85-12.12-3.82-25.03 2.9-28.85 15.03-4.36-.98-8.92-.02-12.5 2.63-3.6 2.66-5.86 6.75-6.2 11.2H138.7c-.53-9.57-7.88-17.35-17.4-18.44-2.6-12.57-12.35-22.45-24.88-25.23-12.54-2.77-25.54 2.07-33.2 12.37-8.9-2.24-18.3.28-24.87 6.65-6.58 6.38-9.4 15.7-7.42 24.65H14.67" stroke-linecap="round"/>
        <path stroke="#375D81" stroke-width="2" d="M219.05 85.03v7M222.55 88.53h-7M33.28 42.7v7M36.78 46.2h-7" stroke-linecap="round" stroke-linejoin="round"/>
        <path stroke="#375D81" d="M156.9.5v3.94M158.87 2.47h-3.94M20 129.54v3.94M21.96 131.5h-3.93M196.32 130v3.95M198.3 131.98h-3.95" stroke-linecap="round"/>
        <path fill="#FFF" fill-rule="nonzero" d="M142.72 140.73c4.02 0 7.74 2.14 9.75 5.62 2 3.48 2 7.77 0 11.25l.7 2.6.8 3-3-.8-2.6-.7c-4.1 2.35-9.23 1.9-12.85-1.15-3.62-3.04-4.95-8.02-3.33-12.46 1.6-4.46 5.83-7.4 10.56-7.4l-.04.03z"/>
        <circle cx="147.68" cy="152.55" r="1.3" fill="#E1F2FF" fill-rule="nonzero"/>
        <circle cx="142.72" cy="152.55" r="1.3" fill="#E1F2FF" fill-rule="nonzero"/>
        <circle cx="137.75" cy="152.55" r="1.3" fill="#E1F2FF" fill-rule="nonzero"/>
        <path fill="#FFF" fill-rule="nonzero" stroke="#375D81" stroke-width="2" d="M178.64 121.7c-13.94 3.06-28.37 3.1-42.32.1l-21.66-4.62c-14.62-3.13-29.73-3.27-44.4-.43l-1.7.33v-67c15.07-3.05 30.6-2.95 45.64.3l21 4.55c13.47 2.9 27.4 3 40.9.3l2.53-.52v67z" stroke-linecap="round" stroke-linejoin="round"/>
        <path fill="#E1F2FF" fill-rule="nonzero" d="M74.62 114.86c-1.62.27-3.24.6-4.85 1l-1.3.32V51.36c2.07-.53 4.14-.96 6.23-1.3-.08 2.73-.08 54-.08 64.8z"/>
        <circle cx="120.77" cy="89.59" r="17.63" fill="#EFEFF6" fill-rule="nonzero"/>
        <circle cx="124.92" cy="86.27" r="17.63" fill="#FFF" fill-rule="nonzero" stroke="#375D81" stroke-width="2"/>
        <path fill="#9452BA" fill-rule="nonzero" d="M130.57 95.16l.17.44c-.52-5 2.32-7.1 3.24-10.43V85v-.22c.04-1.12-.3-2.22-1-3.1l-.18-.3-.37-.5v-.05l-.1-.14-.12-.15-.1-.14-.13-.14-.1-.1c-1.22-1.37-2.6-2.6-4.1-3.68.2 1.75.2 3.53 0 5.28-.28 2.03-.88 4-1.77 5.86-2.06-.15-4.08-.6-6-1.38-1.62-.72-3.15-1.62-4.57-2.68 0 .16 0 .3.05.47v.62l.05.33v.14l.07.42c0 .16.06.32.1.48l.08.43v.1l.1.38V87l.1.45c.13.47.26.93.4 1.36.24.7.53 1.37.87 2l.14.26.12.22.15.22.2.27.24.28.18.18.07.07.1.1.1.07.1.08.07.06.1.1.1.04.1.07h.1l.13.07h.07l.2.07h.13c3.35.88 6.6-.52 10.7 2.4"/>
        <path fill="#FFF" fill-rule="nonzero" stroke="#E1F2FF" stroke-width="2" d="M147.3 101.5v14.82M92.62 69.28V92.8" stroke-linecap="round" stroke-linejoin="round"/>
        <path fill="#E1F2FF" fill-rule="nonzero" d="M72.94 177.48c1.83 3.37-15-.25-15-.25s1.64-4.3 5.8-4.68c3.82-.55 7.55 1.45 9.2 4.93z"/>
        <rect width="4" height="150.29" x="63.31" y="39.59" fill="#FFF" fill-rule="nonzero" stroke="#375D81" stroke-width="2" stroke-linecap="round" rx="1.81" stroke-linejoin="round"/>
        <path stroke="#9ACDED" stroke-width="2" d="M58.52 177.07c4.45 2.5 9.84 2.65 14.42.4M73.75 181.23c.52-.2 1.03-.43 1.52-.7" stroke-linecap="round"/>
    </g>
</svg>