<svg xmlns="http://www.w3.org/2000/svg" width="256" height="256">
  <g fill="none" fill-rule="evenodd">
    <path fill="#E1F2FF" fill-rule="nonzero" d="M25 228.56C25 171.36 71.37 125 128.56 125c57.2 0 103.56 46.37 103.56 103.56H25z"/>
    <g fill-rule="nonzero">
      <path fill="#9452BA" stroke="#52267D" stroke-width="2" d="M133.4 166.54c4.38 0 8.57-2.86 17.52-3 .12-.52.3-1.04.53-1.53 1.72-3.44 4.3-13.46 3-20.13l-1-5.28c-.33-1.74-.47-3.5-.42-5.27.02-.72.1-1.43.28-2.14l.14-.52c.14-.5.32-1 .54-1.47l.23-.45c.17-.3.34-.6.53-.9l.6-.82c.64-.8 1.38-1.5 2.22-2.1.28-.2.57-.37.86-.55 1.7-.96 3.62-1.43 5.57-1.38l1.74.05c2.83.08 5.5 1.28 7.44 3.33.23.25.45.5.66.78.38.5.7 1.02 1 1.56l.3.63c.1.2.15.32.2.48.4 1 .62 2.02.7 3.07.02.37.02.73 0 1.1-.02.7-.32 1.36-.83 1.85-.5.48-1.2.74-1.9.7l-10.9-.3 1.38 9.5c1.65 9.75.88 16.23-.74 20.5-.35 1-2.35 4.33-2.35 4.33 5.2 8.75 13.43 12.75 22.32 14.1 7.56 1.15 24.14-5.3 15.93-13.54-8.2-8.25 1.85-3 3.32-1.92 1.47 1.08 9.94 8.82.2 19.55-4.13 4.54-8.77 8.64-19.73 11.57-1.77.47-11.3.88-16.46 2.2-15.37 3.93-27.62-1.2-34.27-11.45-6.65-10.27-.3-22.57 1.43-22.56z"/>
      <path fill="#FFF" stroke="#52267D" d="M201.74 173.75c.73-.82.96-1.97.6-3-.2-.4-.5-.75-.88-1 0 0-1.8.26-1.45 1.47.26 1.03.87 1.93 1.74 2.53z"/>
      <path fill="#F3E3FF" d="M201.4 172c.25-.28.33-.65.22-1-.07-.14-.18-.26-.3-.35 0 0-.64.1-.52.52.1.34.32.63.6.83z"/>
      <path fill="#FFF" stroke="#52267D" d="M192.1 182.54c-.55-1.57.15-3.32 1.64-4.07.38-.2.77-.4 1.18-.53 0 0 2.44 2 1.07 2.93-1.22.73-2.53 1.3-3.9 1.67z"/>
      <path fill="#F3E3FF" d="M193 181.63c-.32-.87.07-1.84.9-2.26.2-.12.43-.2.66-.3 0 0 1.35 1.14.6 1.63-.68.4-1.4.72-2.16.93z"/>
      <path fill="#FFF" stroke="#52267D" d="M200.27 174.66s1.83 1.7 0 3.13c-.5.36-1.07.57-1.68.6 0 0-1.3-1.45-.6-2.05.7-.63 1.46-1.2 2.27-1.7z"/>
      <path fill="#F3E3FF" d="M200 175.82s.8.76 0 1.4c-.22.15-.48.25-.75.26 0 0-.57-.64-.26-.9.3-.3.64-.54 1-.76z"/>
      <path fill="#FFF" stroke="#52267D" d="M183.06 183.58c-.28-1.35.56-2.68 1.9-3 2.45-.8 3.08-.06 3.08-.06s1.28 2.3.06 3c-1.22.7-5.04.06-5.04.06z"/>
      <path fill="#F3E3FF" d="M184.2 183.1c-.14-.7.3-1.4 1-1.56 1.28-.42 1.6 0 1.6 0s.67 1.2 0 1.55c-.85.17-1.73.18-2.6 0z"/>
      <path fill="#FFF" stroke="#375D81" stroke-width="3" d="M69.27 123h107.46c4.57 0 8.27 3.74 8.27 8.35v79.3c0 4.6-3.7 8.35-8.27 8.35H69.27c-4.57 0-8.27-3.74-8.27-8.35v-79.3c0-4.6 3.7-8.35 8.27-8.35z"/>
      <path fill="#EEF4F9" d="M69.87 124h102.26c4.35 0 7.87 3.73 7.87 8.33v8.33c0 4.6-3.52 8.34-7.87 8.34H69.87c-4.35 0-7.87-3.73-7.87-8.34v-8.33c0-4.6 3.52-8.33 7.87-8.33z"/>
      <path fill="#FFF" stroke="#375D81" stroke-width="3" d="M69.27 118h107.46c4.57 0 8.27 3.73 8.27 8.33v8.33c0 4.6-3.7 8.34-8.27 8.34H69.27c-4.57 0-8.27-3.73-8.27-8.34v-8.33c0-4.6 3.7-8.33 8.27-8.33z"/>
      <path fill="#9ACDED" d="M86.3 127c-5.13 0-9.3 1.8-9.3 4s4.17 4 9.3 4c5.15 0 9.3-1.8 9.3-4s-4.15-4-9.3-4zm72.4 0c-5.15 0-9.3 1.8-9.3 4s4.15 4 9.3 4c5.13 0 9.3-1.8 9.3-4s-4.17-4-9.3-4z"/>
      <path fill="#375D81" d="M122.5 160c10.22 0 18.5 8.28 18.5 18.5s-8.28 18.5-18.5 18.5-18.5-8.28-18.5-18.5 8.28-18.5 18.5-18.5z"/>
      <path fill="#FFF" d="M122.5 164c8 0 14.5 6.5 14.5 14.5s-6.5 14.5-14.5 14.5-14.5-6.5-14.5-14.5 6.5-14.5 14.5-14.5z"/>
      <path fill="#BDD3E9" d="M123 173c1.1 0 2 .9 2 2v8c0 1.1-.9 2-2 2s-2-.9-2-2v-8c0-1.1.9-2 2-2z"/>
      <path fill="#FFF" stroke="#375D81" stroke-width="3" d="M122.5 60C98.48 60 79 79.6 79 103.8v25.03c0 2.3 3.25 4.17 7.25 4.17s7.25-1.87 7.25-4.17V103.8c0-16.12 12.98-29.2 29-29.2s29 13.08 29 29.2v25.03c0 2.3 3.25 4.17 7.25 4.17s7.25-1.87 7.25-4.17V103.8c0-24.2-19.48-43.8-43.5-43.8z"/>
      <path fill="#EEF4F9" d="M122 67c-20.43 0-37 15.73-37 35.13V131c3.7-.3 6.53-2 6.53-4.08v-24.8c0-15.97 13.64-28.92 30.47-28.92s30.47 12.95 30.47 28.93v24.8c0 2.08 2.85 3.78 6.53 4.07v-28.87C159 82.73 142.43 67 122 67z"/>
    </g>
    <g fill="#FFF" fill-rule="nonzero" stroke="#375D81" stroke-width="3" stroke-linecap="round" stroke-linejoin="round">
      <path d="M20 220h36M62 220h176.9M246 220h6.97M3 220h8.97M95 230h67.2M171 230h9.14M87 229l-5 .08"/>
    </g>
    <g stroke="#375D81" stroke-linecap="round">
      <path stroke-width="2" d="M206.98 68.4v7M210.48 71.9h-7M80 24v7M84 28h-7" stroke-linejoin="round"/>
      <path d="M42.73 188.68v3.94M44.7 190.65h-3.94"/>
      <path d="M217.73 128.68v3.94M219.7 130.65h-3.94" stroke-linejoin="round"/>
      <path d="M48.73 88.68v3.94M50.7 90.65h-3.94"/>
      <path fill="#FFF" fill-rule="nonzero" stroke-width="2" d="M26.42 127.28v8.12M30.48 131.34h-8.13"/>
    </g>
  </g>
</svg>