<?xml version="1.0" encoding="UTF-8" standalone="no"?>
<svg width="256px" height="256px" viewBox="0 0 256 256" version="1.1" xmlns="http://www.w3.org/2000/svg" xmlns:xlink="http://www.w3.org/1999/xlink">
    <defs>
        <rect id="path-1" x="23.33" y="0.71" width="87.56" height="79.58" rx="2"></rect>
    </defs>
    <g id="256x256" stroke="none" stroke-width="1" fill="none" fill-rule="evenodd">
        <g id="illustration-published-product">
            <g id="Published_Product" transform="translate(8.000000, 35.000000)">
                <path d="M20,174 C20,116.805391 66.3653913,70.44 123.56,70.44 C180.754609,70.44 227.12,116.805391 227.12,174 L20,174 Z" id="Shape" fill="#E1F2FF" fill-rule="nonzero"></path>
                <path d="M25.61,185.79 L47.94,185.79" id="Shape" stroke="#9ACDED" stroke-width="2" fill="#FFFFFF" fill-rule="nonzero" stroke-linecap="round"></path>
                <path d="M235.22,174.83 L240.22,174.83" id="Shape" stroke="#9ACDED" stroke-width="2" stroke-linecap="round"></path>
                <path d="M0,174.83 L5.33,174.83" id="Shape" stroke="#9ACDED" stroke-width="2" fill="#FFFFFF" fill-rule="nonzero" stroke-linecap="round"></path>
                <rect id="Rectangle-path" stroke="#375D81" stroke-width="2" fill="#FFFFFF" fill-rule="nonzero" x="69.86" y="23.78" width="108.5" height="123.64" rx="2"></rect>
                <rect id="Rectangle-path" stroke="#375D81" stroke-width="2" fill="#E1F2FF" fill-rule="nonzero" x="80.33" y="35.71" width="87.56" height="79.58" rx="2"></rect>
                <path d="M91.35,185.79 L147.07,185.79" id="Shape" stroke="#9ACDED" stroke-width="2" fill="#FFFFFF" fill-rule="nonzero" stroke-linecap="round"></path>
                <path d="M153.72,185.79 L165.05,185.79" id="Shape" stroke="#9ACDED" stroke-width="2" fill="#FFFFFF" fill-rule="nonzero" stroke-linecap="round"></path>
                <path d="M86.39,185.79 L82.05,185.79" id="Shape" stroke="#9ACDED" stroke-width="2" fill="#FFFFFF" fill-rule="nonzero" stroke-linecap="round"></path>
                <path d="M14.55,185.79 L18.22,185.79" id="Shape" stroke="#9ACDED" stroke-width="2" fill="#FFFFFF" fill-rule="nonzero" stroke-linecap="round"></path>
                <path d="M212.21,185.79 L225.88,185.79" id="Shape" stroke="#9ACDED" stroke-width="2" fill="#FFFFFF" fill-rule="nonzero" stroke-linecap="round"></path>
                <path d="M100.72,172 C101.679165,171.726115 102.582857,171.286116 103.39,170.7" id="Shape" stroke="#9ACDED" stroke-width="2" stroke-linecap="round"></path>
                <path d="M231,174.83 L215,174.83 C218.819049,162.710111 212.089888,149.78905 199.97,145.970001 C187.850111,142.150952 174.929049,148.880111 171.11,161 C166.756411,160.019673 162.191705,160.981209 158.603509,163.634438 C155.015314,166.287668 152.758413,170.370253 152.42,174.82 L138.7,174.82 C138.167327,165.254973 130.818044,157.466423 121.3,156.38 C118.69587,143.805187 108.954177,133.929481 96.4161149,131.153797 C83.8780532,128.378114 70.8783232,133.219309 63.21,143.52 C54.3290356,141.279196 44.9210184,143.796187 38.34537,150.172203 C31.7697217,156.548219 28.963972,165.874193 30.93,174.82 L14.67,174.82" id="Shape" stroke="#9ACDED" stroke-width="2" fill="#FFFFFF" fill-rule="nonzero" stroke-linecap="round"></path>
                <path d="M219.05,68.81 L219.05,75.81" id="Shape" stroke="#375D81" stroke-width="2" stroke-linecap="round" stroke-linejoin="round"></path>
                <path d="M222.55,72.31 L215.55,72.31" id="Shape" stroke="#375D81" stroke-width="2" stroke-linecap="round" stroke-linejoin="round"></path>
                <path d="M103.39,54.15 L103.39,61.15" id="Shape" stroke="#FFFFFF" stroke-width="2" stroke-linecap="round" stroke-linejoin="round"></path>
                <path d="M106.89,57.65 L99.89,57.65" id="Shape" stroke="#FFFFFF" stroke-width="2" stroke-linecap="round" stroke-linejoin="round"></path>
                <path d="M33.28,26.48 L33.28,33.48" id="Shape" stroke="#375D81" stroke-width="2" stroke-linecap="round" stroke-linejoin="round"></path>
                <path d="M36.78,29.98 L29.78,29.98" id="Shape" stroke="#375D81" stroke-width="2" stroke-linecap="round" stroke-linejoin="round"></path>
                <path d="M175.2,5.28 L175.2,9.22" id="Shape" stroke="#375D81" stroke-linecap="round"></path>
                <path d="M177.17,7.25 L173.23,7.25" id="Shape" stroke="#375D81" stroke-linecap="round"></path>
                <path d="M151.75,64.88 L151.75,68.81" id="Shape" stroke="#FFFFFF" stroke-linecap="round"></path>
                <path d="M153.72,66.85 L149.78,66.85" id="Shape" stroke="#FFFFFF" stroke-linecap="round"></path>
                <path d="M19.99,113.33 L19.99,117.26" id="Shape" stroke="#375D81" stroke-linecap="round"></path>
                <path d="M21.96,115.3 L18.03,115.3" id="Shape" stroke="#375D81" stroke-linecap="round"></path>
                <path d="M196.32,113.8 L196.32,117.73" id="Shape" stroke="#375D81" stroke-linecap="round"></path>
                <path d="M198.29,115.77 L194.35,115.77" id="Shape" stroke="#375D81" stroke-linecap="round"></path>
                <g id="Group-2" transform="translate(57.000000, 35.000000)">
                    <mask id="mask-2" fill="white">
                        <use xlink:href="#path-1"></use>
                    </mask>
                    <use id="Rectangle-path" stroke="#375D81" stroke-width="2" fill-rule="nonzero" xlink:href="#path-1"></use>
                    <g id="Group" mask="url(#mask-2)">
                        <g transform="translate(0.000000, 39.000000)">
                            <path d="M51.58,103.26 L46.58,103.26 C44.8635785,103.264453 43.3197625,102.216722 42.69,100.62 C40.92,96.07 41.36,91.89 41.15,88.31 C40.76,81.68 41.79,78.31 42.78,72.75 L50.25,72.92 C50.25,72.92 49.61,75.67 49.19,83.92 C49.06,86.48 53.28,96.74 53.08,101.77 C53.0587639,102.587818 52.3979418,103.244235 51.58,103.26 L51.58,103.26 Z" id="Shape" stroke="#52267D" stroke-width="2" fill="#9452BA" fill-rule="nonzero"></path>
                            <path d="M66.08,79.59 L72.08,72.77 L75.79,72.92 C75.79,72.92 76.31,78.59 76.52,80.92 C77.1901962,86.3234563 78.253007,91.6709321 79.7,96.92 C80.0243883,97.9800536 80.2257126,99.0739155 80.3,100.18 C80.3165125,100.980597 80.0057473,101.753291 79.4395191,102.319519 C78.8732908,102.885747 78.1005974,103.196512 77.3,103.18 L72.89,103.18 C70.3196989,103.192264 68.0662253,101.465149 67.41,98.98 C65.48,91.3 66.08,79.59 66.08,79.59 Z" id="Shape" stroke="#52267D" stroke-width="2" fill="#9452BA" fill-rule="nonzero"></path>
                            <polyline id="Shape" stroke="#52267D" stroke-width="0.5" fill="none" points="74.53 84.29 75.52 85.16 74.57 86.02 73.03 85.43 73.34 84.75 74.62 85.05 74.61 85.28 74.28 85.26"></polyline>
                            <path d="M74.5,54.21 C70.12,54.12 66.02,51.1 57.08,50.69 C56.9709228,50.1609561 56.8066922,49.6448027 56.59,49.15 C54.97,45.65 52.69,35.56 54.16,28.93 L55.32,23.68 C55.6996678,21.959206 55.8907947,20.2021802 55.89,18.44 L55.89,18.44 C55.8888803,17.7210802 55.8151731,17.0041106 55.67,16.3 C55.6366667,16.1266667 55.5966667,15.9566667 55.55,15.79 C55.4201022,15.2849986 55.2529784,14.790312 55.05,14.31 C54.9833333,14.15 54.9133333,13.9933333 54.84,13.84 C54.6933333,13.5333333 54.53,13.2333333 54.35,12.94 C54.17,12.6466667 53.98,12.3633333 53.78,12.09 C53.1670094,11.2704015 52.4395985,10.5429906 51.62,9.93 C51.3466667,9.72333333 51.0633333,9.53333333 50.77,9.36 C49.1065047,8.3491014 47.1965659,7.81625616 45.25,7.82 L43.51,7.82 C40.6957297,7.81221446 37.9938808,8.92389394 36,10.91 C35.76,11.15 35.53,11.4033333 35.31,11.67 C34.9161919,12.1485094 34.5648611,12.6604485 34.26,13.2 C34.14,13.4 34.03,13.61 33.93,13.82 C33.83,14.03 33.78,14.13 33.72,14.29 C33.3092074,15.2620305 33.0462919,16.2900972 32.94,17.34 C32.9049098,17.7022539 32.8882217,18.0660549 32.89,18.43 L32.89,18.43 C32.89,19.1328237 33.1691956,19.8068616 33.666167,20.303833 C34.1631384,20.8008044 34.8371763,21.08 35.54,21.08 L46.43,21.08 L44.78,30.53 C42.85,40.24 43.43,46.73 44.93,51.06 C45.26,52.06 47.17,55.45 47.17,55.45 C41.7,64 33.35,67.81 24.42,68.9 C16.83,69.83 0.42,62.9 8.89,54.9 C17.36,46.9 7.13,51.9 5.63,52.9 C4.13,53.9 -4.56,61.42 4.87,72.44 C8.87,77.1 13.38,81.33 24.24,84.58 C25.98,85.1 35.49,85.79 40.62,87.26 C55.87,91.64 68.26,86.88 75.21,76.81 C82.16,66.74 76.23,54.24 74.5,54.21 Z" id="Shape" stroke="#52267D" stroke-width="2" fill="#9452BA" fill-rule="nonzero"></path>
                            <path d="M65,39.73 C64.65,28.47 73.59,19.62 83.74,17.73 C85.85,17.34 86.53,16.73 88.84,16.73 L90.61,16.73 C96.5636296,16.73 101.39,21.5563704 101.39,27.51 C101.39,28.995646 100.185646,30.2 98.7,30.2 L80.5,30.2 C76.5,31.9 74,37.02 73.56,39.77 C72.8894773,43.0644685 73.2998034,46.4873595 74.73,49.53 C75.5076564,51.2662498 75.8013548,53.1804723 75.58,55.07 L75.48,55.07 C75.4015094,56.1209148 75.2410209,57.1640898 75,58.19 C73.29,57 70.64,55.19 70.16,54.96 C69.16,54.41 66.75,53.15 65.69,52.54 C59,48.67 65.23,46.14 65,39.73 Z" id="Shape" stroke="#52267D" stroke-width="2" fill="#9452BA" fill-rule="nonzero"></path>
                            <path d="M70.81,52.74 C70.9,51 71.16,50.11 70.97,49.4 C69.85,45.33 69.48,44.04 69.48,39.73 C69.5884249,35.3448147 71.9010045,31.3100213 75.63,29 C77.3594282,28.7665805 79.1131919,29.1951989 80.54,30.2 C76.54,31.9 74.04,37.02 73.6,39.77 C72.9294773,43.0644685 73.3398034,46.4873595 74.77,49.53 C75.5476564,51.2662498 75.8413548,53.1804723 75.62,55.07 C75.62,55.07 70.7,56.92 70.81,52.78" id="Shape" stroke="#52267D" stroke-width="1" fill="#F3E3FF" fill-rule="nonzero"></path>
                            <path d="M96.3,18.54 C96.2414096,17.3741861 95.5119105,16.3482061 94.43,15.91 L92.82,15.26 C92.82,15.26 91.71,17.62 92.97,18.21 C94.003222,18.7202927 95.1867189,18.8375762 96.3,18.54 L96.3,18.54 Z" id="Shape" stroke="#52267D" stroke-width="1" fill="#FFFFFF" fill-rule="nonzero"></path>
                            <path d="M91.62,17.21 C91.5221083,15.6286041 90.2613959,14.3678917 88.68,14.27 C88.14,14.2 86.74,14.27 86.74,14.27 C86.74,14.27 86.09,16.98 87.61,17.27 C88.9431512,17.4329076 90.2923195,17.4127205 91.62,17.21 Z" id="Shape" stroke="#52267D" stroke-width="1" fill="#FFFFFF" fill-rule="nonzero"></path>
                            <path d="M85.89,17.46 C85.89,17.46 85.51,14.62 82.96,15.4 C82.2917489,15.6114039 81.7005099,16.0148376 81.26,16.56 C81.26,16.56 81.77,18.73 82.78,18.48 C83.8434063,18.2277092 84.8837328,17.8865089 85.89,17.46 Z" id="Shape" stroke="#52267D" stroke-width="1" fill="#FFFFFF" fill-rule="nonzero"></path>
                            <path d="M78.47,31.26 C78.47,31.26 72.47,28.02 73.65,22.57 C72.3314581,23.6870357 71.1042241,24.9075817 69.98,26.22 C69.98,27.29 69.78,31.52 75.63,34.36 C76.5093783,33.2669787 77.4579943,32.2315175 78.47,31.26 L78.47,31.26 Z" id="Shape" stroke="#52267D" stroke-width="1" fill="#FFFFFF" fill-rule="nonzero"></path>
                            <path d="M95.49,18 C95.4595344,17.3871576 95.0658871,16.8517972 94.49,16.64 L93.66,16.3 C93.66,16.3 93.08,17.52 93.74,17.83 C94.2824732,18.1003129 94.9056425,18.1608494 95.49,18 Z" id="Shape" stroke="none" fill="#F3E3FF" fill-rule="nonzero"></path>
                            <path d="M90.39,16.63 C90.3409439,15.8227649 89.6972351,15.1790561 88.89,15.13 C88.62,15.13 87.89,15.13 87.89,15.13 C87.89,15.13 87.56,16.51 88.34,16.65 C89.021035,16.7370721 89.7107935,16.7303428 90.39,16.63 Z" id="Shape" stroke="none" fill="#F3E3FF" fill-rule="nonzero"></path>
                            <path d="M85,17.25 C85,17.25 84.8,15.74 83.44,16.16 C83.0854901,16.2735276 82.7723981,16.4892132 82.54,16.78 C82.54,16.78 82.81,17.93 83.35,17.78 C83.9138496,17.6497717 84.4657839,17.4724837 85,17.25 L85,17.25 Z" id="Shape" stroke="none" fill="#F3E3FF" fill-rule="nonzero"></path>
                            <path d="M84.03,23.44 L89.48,23.44 C90.8496662,23.44 91.96,24.5503338 91.96,25.92 L91.96,25.92 C91.96,27.2896662 90.8496662,28.4 89.48,28.4 L89.03,28.4 C86.2685763,28.4 84.03,26.1614237 84.03,23.4 L84.03,23.4 L84.03,23.44 Z" id="Shape" stroke="none" fill="#F3E3FF" fill-rule="nonzero" opacity="0.3" transform="translate(87.995000, 25.900000) rotate(-180.000000) translate(-87.995000, -25.900000) "></path>
                            <path d="M84.98,24.27 L89.87,24.27 C90.9745695,24.27 91.87,25.1654305 91.87,26.27 L91.87,26.27 C91.87,27.3745695 90.9745695,28.27 89.87,28.27 L88.87,28.27 C86.7160895,28.27 84.97,26.5239105 84.97,24.37 L84.97,24.37 L84.98,24.27 Z" id="Shape" stroke="#52267D" stroke-width="1" fill="#FFFFFF" fill-rule="nonzero" transform="translate(88.420000, 26.270000) rotate(180.000000) translate(-88.420000, -26.270000) "></path>
                            <circle id="Oval" stroke="none" fill="#52267D" fill-rule="nonzero" cx="89.87" cy="26.21" r="1.09"></circle>
                            <path d="M99,29.35 L99,29.35 C98.6912375,29.2815898 98.4156511,29.108465 98.22,28.86 L97.85,28.4 L98.66,28.57 L99.14,28.67 C99.2293047,28.6890828 99.3071787,28.7432884 99.3560849,28.8204096 C99.404991,28.8975308 99.4208174,28.9910836 99.4,29.08 L99.4,29.08 C99.3830686,29.1690108 99.3313092,29.2475817 99.2562098,29.2982738 C99.1811104,29.3489658 99.0888839,29.3675855 99,29.35 L99,29.35 Z" id="Shape" stroke="none" fill="#52267D" fill-rule="nonzero"></path>
                            <path d="M77.46,31.37 C77.46,31.37 72.87,28.9 72.94,23.92 C71.9646576,24.5447662 71.1136077,25.3449566 70.43,26.28 C70.6168187,27.5668762 71.1145185,28.7888151 71.88,29.84 C73.58,31.69 75.34,32.25 77.46,31.37 Z" id="Shape" stroke="none" fill="#EAF3FB" fill-rule="nonzero"></path>
                            <path d="M73.12,30.5 C74.1803117,31.5653182 75.3814613,32.4804798 76.69,33.22" id="Shape" stroke="#52267D" stroke-width="1" fill="#FFFFFF" fill-rule="nonzero"></path>
                            <path d="M55.13,49.85 L56.13,47.85 C59.95,38.47 60.54,32.96 58.56,24.01 L57.4,18.76 C57.0203322,17.039206 56.8292053,15.2821802 56.83,13.52 L56.83,13.52 C56.83,7.64369026 61.5936903,2.88 67.47,2.88 L69.19,2.88 C74.983467,2.88 79.68,7.57653297 79.68,13.37 L79.68,13.67 C79.68,15.0507119 78.5607119,16.17 77.18,16.17 L66.32,16.17 L68,25.6 C73,50.93 72.54,61.2 62.61,59.09" id="Shape" stroke="#52267D" stroke-width="2" fill="#9452BA" fill-rule="nonzero"></path>
                            <path d="M74.44,4.12 C74.2790214,2.9657627 73.5176721,1.98362213 72.44,1.54 C71.9714277,1.41576912 71.4785723,1.41576912 71.01,1.54 C71.01,1.54 69.95,3.19 71.19,3.78 C72.1965243,4.28278675 73.3512092,4.40358455 74.44,4.12 Z" id="Shape" stroke="#52267D" stroke-width="1" fill="#FFFFFF" fill-rule="nonzero"></path>
                            <path d="M70.08,3.51 C69.9719692,1.71754488 68.5424551,0.288030752 66.75,0.18 C66.28751,0.140465345 65.82249,0.140465345 65.36,0.18 C65.36,0.18 63.82,3.23 65.54,3.53 C67.047172,3.73028029 68.574651,3.7235513 70.08,3.51 Z" id="Shape" stroke="#52267D" stroke-width="1" fill="#FFFFFF" fill-rule="nonzero"></path>
                            <path d="M64.24,4.17 C64.24,4.17 63.8,1.39 61.31,2.22 C60.6628718,2.44529367 60.0961098,2.85558765 59.68,3.4 C59.68,3.4 60.23,5.51 61.22,5.24 C62.2548298,4.96845392 63.2650423,4.61053095 64.24,4.17 L64.24,4.17 Z" id="Shape" stroke="#52267D" stroke-width="1" fill="#FFFFFF" fill-rule="nonzero"></path>
                            <path d="M74.27,53.87 C73.7378446,53.464884 73.1288243,53.172282 72.48,53.01" id="Shape" stroke="#52267D" stroke-width="1" fill="#F3E3FF" fill-rule="nonzero"></path>
                            <path d="M70.67,53.81 C72.45,46.59 69.24,32.81 68.67,29.38 L66.34,15.76 L65.34,15.76 C64.6992794,15.8239917 64.1128826,16.1480875 63.717823,16.6565614 C63.3227634,17.1650352 63.1536512,17.813341 63.25,18.45 L64.94,30.26 C65.51,34.26 66.11,52.77 59.16,56.75 C57.68,57.6 55.27,57.04 54.36,56.61 C51.06,55.03 50.11,50.91 49.36,47.61 C47.86,40.74 49.03,35.35 49.36,29.96 L49.71,23.22 C49.7920135,21.9497879 48.8560333,20.8416227 47.59,20.71 L46.35,20.71 L44.11,34.33 C43.44,38.21 41.71,51.65 49.63,57.96 C49.77,58.07 47.7,58.54 48.3,59.6 C50.68,63.81 57.59,64.48 58.89,66.28 C63.89,73.22 59.21,88.02 59.21,88.02 C62.452136,86.7011315 65.4841638,84.915604 68.21,82.72 C76.21,75.51 77.28,65.06 77.32,61.99 C77.32,58.31 76.4,55.99 75.21,54.67" id="Shape" stroke="#52267D" stroke-width="1" fill="#F3E3FF" fill-rule="nonzero"></path>
                            <path d="M5.35,59.84 C4.651222,59.0048538 4.459852,57.8566338 4.85,56.84 C5.05588213,56.432664 5.36652645,56.0875037 5.75,55.84 C5.75,55.84 7.53,56.15 7.16,57.35 C6.88548575,58.3753373 6.24060024,59.2625003 5.35,59.84 L5.35,59.84 Z" id="Shape" stroke="#52267D" stroke-width="1" fill="#FFFFFF" fill-rule="nonzero"></path>
                            <path d="M5.73,58.08 C5.5037407,57.799015 5.43592222,57.4222457 5.55,57.08 C5.62489983,56.9404898 5.73528103,56.8232098 5.87,56.74 C5.87,56.74 6.49,56.85 6.36,57.27 C6.25175667,57.6056685 6.02869572,57.8924611 5.73,58.08 L5.73,58.08 Z" id="Shape" stroke="none" fill="#F3E3FF" fill-rule="nonzero"></path>
                            <path d="M14.71,68.9 C15.3141541,67.3452297 14.667021,65.5838276 13.2,64.79 C12.8266942,64.5702892 12.4352652,64.3829386 12.03,64.23 C12.03,64.23 9.53,66.23 10.87,67.13 C12.0633199,67.8923063 13.3552917,68.4878245 14.71,68.9 L14.71,68.9 Z" id="Shape" stroke="#52267D" stroke-width="1" fill="#FFFFFF" fill-rule="nonzero"></path>
                            <path d="M13.81,68 C14.1477408,67.1369411 13.7869483,66.1576472 12.97,65.72 C12.762585,65.5982914 12.545123,65.4945788 12.32,65.41 C12.32,65.41 10.94,66.5 11.68,67.02 C12.3419923,67.4422625 13.0586353,67.7719856 13.81,68 Z" id="Shape" stroke="none" fill="#F3E3FF" fill-rule="nonzero"></path>
                            <path d="M6.79,60.79 C6.79,60.79 4.91,62.44 6.71,63.92 C7.18848575,64.303011 7.76947477,64.5361024 8.38,64.59 C8.38,64.59 9.71,63.17 9.04,62.59 C8.34229147,61.9274062 7.58958847,61.3252438 6.79,60.79 Z" id="Shape" stroke="#52267D" stroke-width="1" fill="#FFFFFF" fill-rule="nonzero"></path>
                            <path d="M7.07,62 C7.07,62 6.24,62.73 7.07,63.39 C7.28171385,63.5607377 7.53915967,63.6651076 7.81,63.69 C7.81,63.69 8.4,63.06 8.1,62.79 C7.78001472,62.4975474 7.43540466,62.2332349 7.07,62 L7.07,62 Z" id="Shape" stroke="none" fill="#F3E3FF" fill-rule="nonzero"></path>
                            <path d="M23.73,70.21 C24.0668007,68.8616358 23.2618496,67.4918847 21.92,67.13 C19.49,66.25 18.84,66.98 18.84,66.98 C18.84,66.98 17.5,69.24 18.7,69.98 C19.9,70.72 23.73,70.21 23.73,70.21 Z" id="Shape" stroke="#52267D" stroke-width="1" fill="#FFFFFF" fill-rule="nonzero"></path>
                            <path d="M22.6,69.71 C22.7719569,69.0100684 22.3551048,68.3005328 21.66,68.11 C20.4,67.65 20.06,68.03 20.06,68.03 C20.06,68.03 19.36,69.2 19.99,69.58 C20.8418431,69.8020963 21.7303033,69.8463491 22.6,69.71 Z" id="Shape" stroke="none" fill="#F3E3FF" fill-rule="nonzero"></path>
                            <path d="M66.84,19.09 C63.8951936,20.4421313 60.5227198,20.5181205 57.52,19.3 C57.89,20.99 58.66,24.38 58.66,24.38 C58.66,24.38 63.66,25.93 67.6,23.48 C67.2,21.24 66.84,19.09 66.84,19.09 Z" id="Shape" stroke="#52267D" stroke-width="1" fill="#FFFFFF" fill-rule="nonzero"></path>
                            <path d="M37.86,9.25 C38.0182214,8.08990167 38.7793,7.10049941 39.86,6.65 C40.5407187,6.47795184 41.2381812,6.38070946 41.94,6.36 C41.94,6.36 42.37,8.36 41.12,8.91 C40.1095903,9.41172009 38.9521922,9.53243032 37.86,9.25 L37.86,9.25 Z" id="Shape" stroke="#52267D" stroke-width="1" fill="#FFFFFF" fill-rule="nonzero"></path>
                            <path d="M42.55,8.3 C42.6433842,6.73868972 43.8886897,5.49338423 45.45,5.4 C45.8526006,5.36561744 46.2573994,5.36561744 46.66,5.4 C46.66,5.4 48,8 46.5,8.3 C45.1894633,8.47967836 43.8605367,8.47967836 42.55,8.3 L42.55,8.3 Z" id="Shape" stroke="#52267D" stroke-width="1" fill="#FFFFFF" fill-rule="nonzero"></path>
                            <path d="M47.94,8.48 C47.94,8.48 48.39,5.68 50.89,6.48 C51.5451357,6.70562282 52.1191113,7.11958097 52.54,7.67 C52.54,7.67 52,9.84 51,9.57 C49.9511258,9.29348357 48.9274861,8.92885373 47.94,8.48 Z" id="Shape" stroke="#52267D" stroke-width="1" fill="#FFFFFF" fill-rule="nonzero"></path>
                            <path d="M73.49,3.65 C73.404713,3.03220107 72.997086,2.50647656 72.42,2.27 C72.1677667,2.20253456 71.9022333,2.20253456 71.65,2.27 C71.65,2.27 71.08,3.15 71.75,3.46 C72.287894,3.73181907 72.9061189,3.79932638 73.49,3.65 L73.49,3.65 Z" id="Shape" stroke="none" fill="#F3E3FF" fill-rule="nonzero"></path>
                            <path d="M69,3 C68.9313578,1.8753834 68.0346166,0.978642243 66.91,0.91 C66.6205273,0.885268225 66.3294727,0.885268225 66.04,0.91 C66.04,0.91 65.04,2.82 66.15,3.01 C67.0960069,3.13671083 68.0549056,3.13334627 69,3 L69,3 Z" id="Shape" stroke="none" fill="#F3E3FF" fill-rule="nonzero"></path>
                            <path d="M63.16,3.89 C63.16,3.89 62.9,2.29 61.47,2.77 C61.096362,2.89881148 60.7692637,3.13543575 60.53,3.45 C60.53,3.45 60.85,4.67 61.42,4.51 C62.016357,4.35248283 62.5984086,4.14508513 63.16,3.89 Z" id="Shape" stroke="none" fill="#F3E3FF" fill-rule="nonzero"></path>
                            <path d="M38.78,8.77 C38.8666596,8.15512239 39.274428,7.63302635 39.85,7.4 C40.210116,7.31012163 40.5789675,7.2598237 40.95,7.25 C40.95,7.25 41.18,8.25 40.52,8.6 C39.979865,8.86600231 39.3614068,8.92642639 38.78,8.77 L38.78,8.77 Z" id="Shape" stroke="none" fill="#F3E3FF" fill-rule="nonzero"></path>
                            <path d="M43.65,7.85 C43.7037763,6.98960275 44.3896027,6.30377628 45.25,6.25 C45.4729262,6.23092797 45.6970738,6.23092797 45.92,6.25 C45.92,6.25 46.66,7.72 45.83,7.86 C45.1062812,7.95615549 44.3728062,7.95279092 43.65,7.85 Z" id="Shape" stroke="none" fill="#F3E3FF" fill-rule="nonzero"></path>
                            <path d="M48.94,8.29 C48.94,8.29 49.18,6.76 50.55,7.22 C50.907186,7.34384485 51.2201354,7.56986388 51.45,7.87 C51.45,7.87 51.15,9.03 50.6,8.87 C50.0314773,8.72324156 49.4762122,8.52923325 48.94,8.29 L48.94,8.29 Z" id="Shape" stroke="none" fill="#F3E3FF" fill-rule="nonzero"></path>
                            <path d="M55.27,23.88 C52.1520989,24.2992858 48.9850752,24.1740936 45.91,23.51 C45.47,25.99 45.18,27.86 45.18,27.86 C45.18,27.86 48.34,30.01 54.18,28.76 C54.88,25.58 55.27,23.88 55.27,23.88 Z" id="Shape" stroke="#52267D" stroke-width="1" fill="#FFFFFF" fill-rule="nonzero"></path>
                            <path d="M46.86,14.1 L47.34,14.1 C48.7096662,14.1 49.82,15.2103338 49.82,16.58 L49.82,16.58 C49.82,17.9496662 48.7096662,19.06 47.34,19.06 L41.89,19.06 L41.89,19.06 C41.9118251,16.3258641 44.1258257,14.1163182 46.86,14.1 L46.86,14.1 Z" id="Shape" stroke="none" fill="#F3E3FF" fill-rule="nonzero" opacity="0.3"></path>
                            <path d="M45.89,15.07 L47,15.07 C47.9996354,15.07 48.81,15.8803646 48.81,16.88 L48.81,16.88 C48.8180071,17.4360315 48.6040933,17.972329 48.2155989,18.3702074 C47.8271044,18.7680858 47.2960643,18.9947362 46.74,19 L42,19 L42,19 C42,16.8460895 43.7460895,15.1 45.9,15.1 L45.89,15.07 Z" id="Shape" stroke="#52267D" stroke-width="1" fill="#FFFFFF" fill-rule="nonzero"></path>
                            <circle id="Oval" stroke="none" fill="#52267D" fill-rule="nonzero" transform="translate(43.756747, 17.586996) rotate(-64.070000) translate(-43.756747, -17.586996) " cx="43.7567475" cy="17.5869963" r="1.09"></circle>
                            <path d="M63.72,9.44 L69.17,9.44 C70.5396662,9.44 71.65,10.5503338 71.65,11.92 L71.65,11.92 C71.65,13.2896662 70.5396662,14.4 69.17,14.4 L68.69,14.4 C65.9285763,14.4 63.69,12.1614237 63.69,9.4 L63.69,9.4 L63.72,9.44 Z" id="Shape" stroke="none" fill="#F3E3FF" fill-rule="nonzero" opacity="0.3" transform="translate(67.670000, 11.900000) rotate(180.000000) translate(-67.670000, -11.900000) "></path>
                            <path d="M64.65,10.27 L69.54,10.27 C70.6445695,10.27 71.54,11.1654305 71.54,12.27 L71.54,12.27 C71.54,13.3745695 70.6445695,14.27 69.54,14.27 L68.54,14.27 C67.5056557,14.27 66.5136754,13.8591083 65.7822836,13.1277164 C65.0508917,12.3963246 64.64,11.4043443 64.64,10.37 L64.64,10.37 L64.65,10.27 Z" id="Shape" stroke="#52267D" stroke-width="1" fill="#FFFFFF" fill-rule="nonzero" transform="translate(68.090000, 12.270000) rotate(-180.000000) translate(-68.090000, -12.270000) "></path>
                            <circle id="Oval" stroke="none" fill="#52267D" fill-rule="nonzero" transform="translate(69.462326, 12.304982) rotate(-39.790000) translate(-69.462326, -12.304982) " cx="69.4623256" cy="12.3049818" r="1.09"></circle>
                            <path d="M35.33,20.2 L35.33,20.2 C35.6387625,20.1315898 35.9143489,19.958465 36.11,19.71 L36.48,19.25 L35.67,19.42 L35.19,19.52 C35.1006953,19.5390828 35.0228213,19.5932884 34.9739151,19.6704096 C34.925009,19.7475308 34.9091826,19.8410836 34.93,19.93 L34.93,19.93 C34.9469314,20.0190108 34.9986908,20.0975817 35.0737902,20.1482738 C35.1488896,20.1989658 35.2411161,20.2175855 35.33,20.2 L35.33,20.2 Z" id="Shape" stroke="none" fill="#52267D" fill-rule="nonzero"></path>
                            <path d="M77.34,15.1 L77.34,15.1 C77.0312375,15.0315898 76.7556511,14.858465 76.56,14.61 L76.19,14.15 L77,14.32 L77.48,14.42 C77.5693047,14.4390828 77.6471787,14.4932884 77.6960849,14.5704096 C77.744991,14.6475308 77.7608174,14.7410836 77.74,14.83 L77.74,14.83 C77.7230686,14.9190108 77.6713092,14.9975817 77.5962098,15.0482738 C77.5211104,15.0989658 77.4288839,15.1175855 77.34,15.1 L77.34,15.1 Z" id="Shape" stroke="none" fill="#52267D" fill-rule="nonzero"></path>
                            <path d="M66.38,19.8 C63.7652063,20.8053406 60.8800167,20.8584423 58.23,19.95 C58.43169,21.1742369 58.7021176,22.3861531 59.04,23.58 C60.4059187,23.6575011 61.7761707,23.5971966 63.13,23.4 C65.46,22.94 66.38,21.88 66.38,19.8 Z" id="Shape" stroke="none" fill="#EAF3FB" fill-rule="nonzero"></path>
                            <path d="M60.73,22.87 C62.975991,23.0184375 65.2242938,22.6168323 67.28,21.7" id="Shape" stroke="#52267D" stroke-width="1" fill="#FFFFFF" fill-rule="nonzero"></path>
                            <path d="M47.67,24.43 C49.8797055,25.0213153 52.1870662,25.1540396 54.45,24.82 C54.210403,25.8753386 53.9031006,26.9141544 53.53,27.93 C53.53,27.93 48.76,27.29 47.67,24.43 Z" id="Shape" stroke="none" fill="#EAF3FB" fill-rule="nonzero"></path>
                            <path d="M49.6,58 C49.6,58 49.82,58.16 50.13,58.34" id="Shape" stroke="#52267D" stroke-width="0.5" fill="#F3E3FF" fill-rule="nonzero"></path>
                            <path d="M47.32,25.79 C49.7881652,26.2038843 52.3010474,26.2812555 54.79,26.02" id="Shape" stroke="#52267D" stroke-width="1" fill="#FFFFFF" fill-rule="nonzero"></path>
                            <path d="M53.26,100.34 C53.9717567,99.8681242 54.9207559,99.9825125 55.5,100.61 C56.67,101.61 57.5,103.05 57.02,103.2 C56.2351372,103.415939 55.4124318,103.456904 54.61,103.32 C53.77,103.17 53.03,103.32 52.69,101.57 C52.6020278,101.080876 52.8299423,100.589061 53.26,100.34 Z" id="Shape" stroke="#52267D" stroke-width="0.5" fill="#FFFFFF" fill-rule="nonzero"></path>
                            <path d="M53.48,100.62 C53.922277,100.327909 54.5111528,100.39993 54.87,100.79 C55.6,101.39 56.14,102.31 55.82,102.4 C55.3311532,102.53286 54.8190955,102.556756 54.32,102.47 C53.8,102.37 53.32,102.47 53.12,101.38 C53.0673724,101.07605 53.2114781,100.771827 53.48,100.62 L53.48,100.62 Z" id="Shape" stroke="none" fill="#EAF3FB" fill-rule="nonzero"></path>
                            <path d="M51.9,100.32 C51.39,100.25 50.66,101.32 50.74,101.69 C50.82,102.06 50.88,103.14 51.74,103.26 C52.35,103.35 54.51,103.57 54.98,103.1 C55.45,102.63 54.52,100.67 51.9,100.32 Z" id="Shape" stroke="#52267D" stroke-width="0.5" fill="#FFFFFF" fill-rule="nonzero"></path>
                            <path d="M51.75,100.63 C51.45,100.63 51.02,101.24 51.07,101.44 C51.12,101.64 51.15,102.29 51.64,102.36 C52.13,102.43 53.27,102.55 53.55,102.27 C53.83,101.99 53.3,100.83 51.75,100.63 Z" id="Shape" stroke="none" fill="#EAF3FB" fill-rule="nonzero"></path>
                            <path d="M49.75,100.53 C49.75,100.53 50.19,100.3 51.06,100.8 C51.93,101.3 52.97,101.94 52.67,102.8 C52.37,103.66 49.94,103.35 49.41,103.16 C48.876064,102.970508 48.5497614,102.430854 48.63,101.87 C48.7235957,101.249134 49.1555948,100.732278 49.75,100.53 L49.75,100.53 Z" id="Shape" stroke="#52267D" stroke-width="0.5" fill="#FFFFFF" fill-rule="nonzero"></path>
                            <path d="M49.58,100.84 C49.58,100.84 49.84,100.7 50.35,101 C50.86,101.3 51.48,101.68 51.35,102.19 C51.22,102.7 49.74,102.51 49.42,102.41 C49.1075415,102.295731 48.9163316,101.979819 48.96,101.65 C49.0030713,101.286969 49.2408109,100.976373 49.58,100.84 Z" id="Shape" stroke="none" fill="#EAF3FB" fill-rule="nonzero"></path>
                            <path d="M59.89,72.72 C59.6569854,77.5563027 59.9689483,82.4034676 60.82,87.17 C62.15,95.39 64.51,97.97 64.33,100.1 C64.2,101.75 63.5,103.26 61.84,103.26 L56.9,103.26 C54.5970402,103.255512 52.5533418,101.783084 51.82,99.6 C51.0458914,97.2673287 50.513103,94.8614038 50.23,92.42 C49.9448404,88.8708864 49.8680419,85.3081049 50,81.75" id="Shape" stroke="#52267D" stroke-width="2" fill="#9452BA" fill-rule="nonzero"></path>
                            <path d="M34.55,76.44 C36.1542062,77.9495378 37.0443343,80.0676794 37,82.27 C37,85.1 35.34,88.7 36.38,93.4 C37.31,97.59 39.15,98.33 38.6,102.09 C38.4864307,102.772292 37.8916157,103.269387 37.2,103.26 L31.72,103.26 C29.1816567,103.260038 27.015721,101.424069 26.6,98.92 C25.7736378,92.9918204 25.9868277,86.9649732 27.23,81.11" id="Shape" stroke="#52267D" stroke-width="2" fill="#9452BA" fill-rule="nonzero"></path>
                            <polyline id="Shape" stroke="#52267D" stroke-width="0.5" fill="none" points="33.47 82.67 33.15 82.44 32.1 82.68 33.26 83.42 34.66 82.73 33.21 81.57 32.55 81.79"></polyline>
                            <path d="M63.25,100.34 C63.9617567,99.8681242 64.9107559,99.9825125 65.49,100.61 C66.66,101.61 67.49,103.05 67.01,103.2 C66.2251372,103.415939 65.4024318,103.456904 64.6,103.32 C63.76,103.17 63.02,103.32 62.68,101.57 C62.5920278,101.080876 62.8199423,100.589061 63.25,100.34 Z" id="Shape" stroke="#52267D" stroke-width="1" fill="#FFFFFF" fill-rule="nonzero"></path>
                            <path d="M63.47,100.62 C63.912277,100.327909 64.5011528,100.39993 64.86,100.79 C65.59,101.39 66.13,102.31 65.81,102.4 C65.3211532,102.53286 64.8090955,102.556756 64.31,102.47 C63.79,102.37 63.31,102.47 63.11,101.38 C63.0573724,101.07605 63.2014781,100.771827 63.47,100.62 L63.47,100.62 Z" id="Shape" stroke="none" fill="#EAF3FB" fill-rule="nonzero"></path>
                            <polyline id="Shape" stroke="#52267D" stroke-width="0.5" fill="none" points="55.7 85.78 57.67 86.39 57.41 88.22 55.39 88.36 54.45 87.28 55.66 86.61 56.66 86.9 56.02 87.6"></polyline>
                            <g id="Group" opacity="0.3" stroke="none" stroke-width="1" fill="none" fill-rule="evenodd" transform="translate(15.000000, 10.000000)">
                                <path d="M82.87,15.75 C82.833356,16.0174035 82.6049026,16.2166856 82.335,16.2166856 C82.0650974,16.2166856 81.836644,16.0174035 81.8,15.75" id="Shape" stroke="#F3E3FF" stroke-width="0.25"></path>
                                <path d="M83.94,15.75 C83.9685858,15.9586 83.8733201,16.1647926 83.6959442,16.2782336 C83.5185682,16.3916747 83.2914318,16.3916747 83.1140558,16.2782336 C82.9366799,16.1647926 82.8414142,15.9586 82.87,15.75" id="Shape" stroke="#F3E3FF" stroke-width="0.25"></path>
                                <path d="M83.4,16.28 C83.4285858,16.4886 83.3333201,16.6947926 83.1559442,16.8082336 C82.9785682,16.9216747 82.7514318,16.9216747 82.5740558,16.8082336 C82.3966799,16.6947926 82.3014142,16.4886 82.33,16.28" id="Shape" stroke="#F3E3FF" stroke-width="0.25"></path>
                                <path d="M62.34,15.25 C61.9728293,15.4437117 61.5183663,15.3201917 61.2997665,14.9672715 C61.0811667,14.6143513 61.1730147,14.1524447 61.51,13.91" id="Shape" stroke="#F3E3FF" stroke-width="0.25"></path>
                                <path d="M62.08,16.33 C61.8403062,16.5024481 61.5244494,16.526827 61.261132,16.3932029 C60.9978145,16.2595789 60.8309982,15.990261 60.8286557,15.6949883 C60.8263133,15.3997155 60.9888357,15.1277849 61.25,14.99" id="Shape" stroke="#F3E3FF" stroke-width="0.25"></path>
                                <path d="M36.91,33.25 C36.91,33.647645 36.587645,33.97 36.19,33.97 C35.792355,33.97 35.47,33.647645 35.47,33.25" id="Shape" stroke="#F3E3FF" stroke-width="0.25"></path>
                                <path d="M38.35,33.25 C38.35,33.647645 38.027645,33.97 37.63,33.97 C37.232355,33.97 36.91,33.647645 36.91,33.25" id="Shape" stroke="#F3E3FF" stroke-width="0.25"></path>
                                <path d="M37.63,34 C37.63,34.397645 37.307645,34.72 36.91,34.72 C36.512355,34.72 36.19,34.397645 36.19,34" id="Shape" stroke="#F3E3FF" stroke-width="0.25"></path>
                                <path d="M58.37,78.78 C58.37,79.177645 58.047645,79.5 57.65,79.5 C57.252355,79.5 56.93,79.177645 56.93,78.78" id="Shape" stroke="#F3E3FF" stroke-width="0.25"></path>
                                <path d="M59.81,78.78 C59.81,79.177645 59.487645,79.5 59.09,79.5 C58.692355,79.5 58.37,79.177645 58.37,78.78" id="Shape" stroke="#F3E3FF" stroke-width="0.25"></path>
                                <path d="M59.09,79.5 C59.09,79.897645 58.767645,80.22 58.37,80.22 C57.972355,80.22 57.65,79.897645 57.65,79.5" id="Shape" stroke="#F3E3FF" stroke-width="0.25"></path>
                                <path d="M38,10.34 C38,10.776305 37.646305,11.13 37.21,11.13 C36.773695,11.13 36.42,10.776305 36.42,10.34" id="Shape" stroke="#F3E3FF" stroke-width="0.25"></path>
                                <path d="M38.81,11.13 C38.81,11.566305 38.456305,11.92 38.02,11.92 C37.583695,11.92 37.23,11.566305 37.23,11.13" id="Shape" stroke="#F3E3FF" stroke-width="0.25"></path>
                                <path d="M48.12,24.29 C47.9955556,24.7166667 47.6044444,25.01 47.16,25.01 C46.7155556,25.01 46.3244444,24.7166667 46.2,24.29" id="Shape" stroke="#F3E3FF" stroke-width="0.25"></path>
                                <path d="M49.08,25.25 C49.1992179,25.6587471 49.0465439,26.098158 48.6995666,26.3449248 C48.3525894,26.5916917 47.8874106,26.5916917 47.5404334,26.3449248 C47.1934561,26.098158 47.0407821,25.6587471 47.16,25.25" id="Shape" stroke="#F3E3FF" stroke-width="0.25"></path>
                                <path d="M62.05,0.43 C62.05,0.78346224 61.7634622,1.07 61.41,1.07 C61.0565378,1.07 60.77,0.78346224 60.77,0.43" id="Shape" stroke="#F3E3FF" stroke-width="0.25"></path>
                                <path d="M62.7,1.07 C62.7,1.42346224 62.4134622,1.71 62.06,1.71 C61.7065378,1.71 61.42,1.42346224 61.42,1.07" id="Shape" stroke="#F3E3FF" stroke-width="0.25"></path>
                                <path d="M1.65,65.14 C1.37385762,65.4520409 0.8970409,65.4811423 0.585000029,65.205 C0.272959158,64.9288576 0.243857654,64.4520409 0.52,64.14" id="Shape" stroke="#F3E3FF" stroke-width="0.25"></path>
                                <path d="M1.74,66.18 C1.46385761,66.4920408 0.987040916,66.5211423 0.675000059,66.2449999 C0.362959201,65.9688576 0.333857685,65.4920409 0.61,65.18" id="Shape" stroke="#F3E3FF" stroke-width="0.25"></path>
                                <path d="M31,54.93 C30.8849794,55.2332641 30.610811,55.4473664 30.2887115,55.4854558 C29.9666121,55.5235453 29.6500674,55.379297 29.4674843,55.1112257 C29.2849011,54.8431543 29.2665982,54.4957739 29.42,54.21" id="Shape" stroke="#F3E3FF" stroke-width="0.25"></path>
                                <path d="M32.6,55.65 C32.3831349,56.0540004 31.8899402,56.2203371 31.4726939,56.0301995 C31.0554475,55.8400619 30.8573947,55.3587264 31.02,54.93" id="Shape" stroke="#F3E3FF" stroke-width="0.25"></path>
                                <path d="M31.45,56.08 C31.3349794,56.3832641 31.060811,56.5973664 30.7387115,56.6354558 C30.4166121,56.6735453 30.1000674,56.529297 29.9174843,56.2612257 C29.7349011,55.9931543 29.7165982,55.6457739 29.87,55.36" id="Shape" stroke="#F3E3FF" stroke-width="0.25"></path>
                                <path d="M33,56.8 C32.8849794,57.1032641 32.610811,57.3173664 32.2887115,57.3554558 C31.9666121,57.3935453 31.6500674,57.249297 31.4674843,56.9812257 C31.2849011,56.7131543 31.2665982,56.3657739 31.42,56.08" id="Shape" stroke="#F3E3FF" stroke-width="0.25"></path>
                                <path d="M30.3,56.51 C30.1849794,56.8132641 29.910811,57.0273664 29.5887115,57.0654558 C29.2666121,57.1035453 28.9500674,56.959297 28.7674843,56.6912257 C28.5849011,56.4231543 28.5665982,56.0757739 28.72,55.79" id="Shape" stroke="#F3E3FF" stroke-width="0.25"></path>
                                <path d="M46.11,6.92 C46.11,7.40324916 45.7182492,7.795 45.235,7.795 C44.7517508,7.795 44.36,7.40324916 44.36,6.92" id="Shape" stroke="#F3E3FF" stroke-width="0.25"></path>
                                <path d="M46.42,40 C46.42,40.4832492 46.0282492,40.875 45.545,40.875 C45.0617508,40.875 44.67,40.4832492 44.67,40" id="Shape" stroke="#F3E3FF" stroke-width="0.25"></path>
                                <path d="M36.5,21.75 C36.5,22.1172694 36.2022694,22.415 35.835,22.415 C35.4677306,22.415 35.17,22.1172694 35.17,21.75" id="Shape" stroke="#F3E3FF" stroke-width="0.25"></path>
                                <path d="M20.72,6.69 C20.72,6.96614237 20.4961424,7.19 20.22,7.19 C19.9438576,7.19 19.72,6.96614237 19.72,6.69" id="Shape" stroke="#F3E3FF" stroke-width="0.25"></path>
                                <path d="M16.59,79.79 C16.5071573,80.2649649 16.0549649,80.5828427 15.58,80.5 C15.1050351,80.4171573 14.7871573,79.9649649 14.87,79.49" id="Shape" stroke="#F3E3FF" stroke-width="0.25"></path>
                                <path d="M40.75,86.24 C40.8692179,86.6487471 40.7165439,87.088158 40.3695666,87.3349248 C40.0225894,87.5816917 39.5574106,87.5816917 39.2104334,87.3349248 C38.8634561,87.088158 38.7107821,86.6487471 38.83,86.24" id="Shape" stroke="#F3E3FF" stroke-width="0.25"></path>
                                <path d="M41.71,87.2 C41.5855556,87.6266667 41.1944444,87.92 40.75,87.92 C40.3055556,87.92 39.9144444,87.6266667 39.79,87.2" id="Shape" stroke="#F3E3FF" stroke-width="0.25"></path>
                            </g>
                            <path d="M61.89,100.32 C61.38,100.25 60.65,101.32 60.73,101.69 C60.81,102.06 60.87,103.14 61.73,103.26 C62.34,103.35 64.5,103.57 64.97,103.1 C65.44,102.63 64.52,100.67 61.89,100.32 Z" id="Shape" stroke="#52267D" stroke-width="1" fill="#FFFFFF" fill-rule="nonzero"></path>
                            <path d="M61.75,100.63 C61.45,100.63 61.02,101.24 61.07,101.44 C61.12,101.64 61.15,102.29 61.64,102.36 C62.13,102.43 63.27,102.55 63.55,102.27 C63.83,101.99 63.3,100.83 61.75,100.63 Z" id="Shape" stroke="none" fill="#EAF3FB" fill-rule="nonzero"></path>
                            <path d="M60.09,100.86 C60.09,100.86 60.48,100.66 61.25,101.1 C62.02,101.54 62.94,102.1 62.67,102.88 C62.4,103.66 60.26,103.36 59.78,103.2 C59.3074455,103.033324 59.0185165,102.555963 59.09,102.06 C59.1701449,101.503328 59.556906,101.039215 60.09,100.86 Z" id="Shape" stroke="#52267D" stroke-width="1" fill="#FFFFFF" fill-rule="nonzero"></path>
                            <path d="M59.94,101.14 C59.94,101.14 60.17,101.02 60.62,101.28 C61.07,101.54 61.62,101.88 61.46,102.33 C61.3,102.78 60.03,102.62 59.75,102.52 C59.471247,102.422765 59.2997195,102.142464 59.34,101.85 C59.3884867,101.51839 59.6211198,101.243108 59.94,101.14 L59.94,101.14 Z" id="Shape" stroke="none" fill="#EAF3FB" fill-rule="nonzero"></path>
                            <path d="M80.36,101.08 C80.36,101.08 80.75,100.88 81.52,101.32 C82.29,101.76 83.21,102.32 82.94,103.1 C82.67,103.88 80.53,103.58 80.05,103.42 C79.5774455,103.253324 79.2885165,102.775963 79.36,102.28 C79.4401449,101.723328 79.826906,101.259215 80.36,101.08 Z" id="Shape" stroke="#52267D" stroke-width="1" fill="#FFFFFF" fill-rule="nonzero"></path>
                            <path d="M80.22,101.35 C80.22,101.35 80.45,101.23 80.9,101.49 C81.35,101.75 81.9,102.09 81.74,102.54 C81.58,102.99 80.31,102.83 80.03,102.73 C79.751247,102.632765 79.5797195,102.352464 79.62,102.06 C79.6684867,101.72839 79.9011198,101.453108 80.22,101.35 L80.22,101.35 Z" id="Shape" stroke="none" fill="#EAF3FB" fill-rule="nonzero"></path>
                            <path d="M78,100.53 C77.49,100.46 76.76,101.53 76.84,101.9 C76.92,102.27 76.98,103.35 77.84,103.47 C78.45,103.56 80.61,103.78 81.08,103.31 C81.55,102.84 80.65,100.89 78,100.53 Z" id="Shape" stroke="#52267D" stroke-width="1" fill="#FFFFFF" fill-rule="nonzero"></path>
                            <path d="M77.88,100.84 C77.58,100.84 77.15,101.45 77.2,101.65 C77.25,101.85 77.28,102.5 77.77,102.57 C78.26,102.64 79.4,102.76 79.68,102.48 C79.96,102.2 79.43,101 77.88,100.84 Z" id="Shape" stroke="none" fill="#EAF3FB" fill-rule="nonzero"></path>
                            <path d="M36.52,100.34 C37.2317567,99.8681242 38.1807559,99.9825125 38.76,100.61 C39.93,101.61 40.76,103.05 40.28,103.2 C39.4951372,103.415939 38.6724318,103.456904 37.87,103.32 C37.03,103.17 36.29,103.32 35.95,101.57 C35.8620278,101.080876 36.0899423,100.589061 36.52,100.34 Z" id="Shape" stroke="#52267D" stroke-width="0.5" fill="#FFFFFF" fill-rule="nonzero"></path>
                            <path d="M36.74,100.62 C37.182277,100.327909 37.7711528,100.39993 38.13,100.79 C38.86,101.39 39.4,102.31 39.08,102.4 C38.5911532,102.53286 38.0790955,102.556756 37.58,102.47 C37.06,102.37 36.58,102.47 36.38,101.38 C36.3273724,101.07605 36.4714781,100.771827 36.74,100.62 L36.74,100.62 Z" id="Shape" stroke="none" fill="#EAF3FB" fill-rule="nonzero"></path>
                            <path d="M35.16,100.32 C34.65,100.25 33.92,101.32 34,101.69 C34.08,102.06 34.14,103.14 35,103.26 C35.61,103.35 37.77,103.57 38.24,103.1 C38.71,102.63 37.79,100.67 35.16,100.32 Z" id="Shape" stroke="#52267D" stroke-width="0.5" fill="#FFFFFF" fill-rule="nonzero"></path>
                            <path d="M35,100.63 C34.7,100.63 34.27,101.24 34.32,101.44 C34.37,101.64 34.4,102.29 34.89,102.36 C35.38,102.43 36.52,102.55 36.8,102.27 C37.08,101.99 36.57,100.83 35,100.63 Z" id="Shape" stroke="none" fill="#EAF3FB" fill-rule="nonzero"></path>
                            <path d="M33.36,100.86 C33.36,100.86 33.75,100.66 34.52,101.1 C35.29,101.54 36.21,102.1 35.94,102.88 C35.67,103.66 33.53,103.36 33.05,103.2 C32.5774455,103.033324 32.2885165,102.555963 32.36,102.06 C32.4401449,101.503328 32.826906,101.039215 33.36,100.86 Z" id="Shape" stroke="#52267D" stroke-width="0.5" fill="#FFFFFF" fill-rule="nonzero"></path>
                            <path d="M33.21,101.14 C33.21,101.14 33.44,101.02 33.89,101.28 C34.34,101.54 34.89,101.88 34.73,102.33 C34.57,102.78 33.3,102.62 33.02,102.52 C32.741247,102.422765 32.5697195,102.142464 32.61,101.85 C32.6584867,101.51839 32.8911198,101.243108 33.21,101.14 L33.21,101.14 Z" id="Shape" stroke="none" fill="#EAF3FB" fill-rule="nonzero"></path>
                            <path d="M71.35,101 C71.2155679,100.867159 71.0146435,100.827762 70.84,100.9 C70.26,101.18 68.78,101.96 69.09,103.02 C69.33,103.84 69.83,103.6 70.79,103.61 L71.52,103.61 C71.6728435,103.614472 71.8154757,103.533519 71.89,103.4 L71.89,103.4 C72.2774043,102.5896 72.0770072,101.620332 71.4,101.03 L71.35,101 Z" id="Shape" stroke="#52267D" stroke-width="1" fill="#FFFFFF" fill-rule="nonzero"></path>
                            <path d="M71.27,101.25 C71.1720286,101.154263 71.0261736,101.126669 70.9,101.18 C70.48,101.38 69.41,101.95 69.63,102.72 C69.8,103.32 70.17,103.14 70.87,103.15 L71.4,103.15 C71.5108026,103.15373 71.6146301,103.096048 71.67,103 L71.67,103 C71.9566212,102.413602 71.8129897,101.707756 71.32,101.28 L71.27,101.25 Z" id="Shape" stroke="none" fill="#EAF3FB" fill-rule="nonzero"></path>
                            <path d="M74.76,100.69 C75.4285244,100.162477 76.3806292,100.196329 77.01,100.77 C78.25,101.63 79.25,103.03 78.75,103.22 C77.9863342,103.500216 77.1704833,103.609452 76.36,103.54 C75.51,103.46 74.78,103.68 74.3,101.96 C74.1719142,101.482093 74.3555751,100.975029 74.76,100.69 Z" id="Shape" stroke="#52267D" stroke-width="1" fill="#FFFFFF" fill-rule="nonzero"></path>
                            <path d="M75,101 C75.4034862,100.656581 75.9965138,100.656581 76.4,101 C77.17,101.53 77.8,102.4 77.48,102.52 C77.0039945,102.695065 76.4953222,102.763344 75.99,102.72 C75.46,102.67 74.99,102.81 74.71,101.72 C74.6604888,101.444235 74.7731746,101.164463 75,101 Z" id="Shape" stroke="none" fill="#EAF3FB" fill-rule="nonzero"></path>
                        </g>
                    </g>
                </g>
                <path d="M167.89,129.97 L155.92,129.97" id="Shape" stroke="#9ACDED" stroke-width="2" fill="#FFFFFF" fill-rule="nonzero" stroke-linecap="round"></path>
                <path d="M167.89,125.22 L145.92,125.22" id="Shape" stroke="#9ACDED" stroke-width="2" fill="#FFFFFF" fill-rule="nonzero" stroke-linecap="round"></path>
                <path d="M136,29.98 L164.67,29.98" id="Shape" stroke="#E1F2FF" stroke-width="2" fill="#FFFFFF" fill-rule="nonzero" stroke-linecap="round"></path>
                <path d="M90.56,29.98 L109.22,29.98" id="Shape" stroke="#E1F2FF" stroke-width="2" fill="#FFFFFF" fill-rule="nonzero" stroke-linecap="round"></path>
                <polygon id="Shape" stroke="#9ACDED" stroke-width="2" fill="#FFFFFF" fill-rule="nonzero" points="128.7 28.98 118.4 28.98 118.4 0.1 128.7 1.1"></polygon>
            </g>
        </g>
    </g>
</svg>