<?xml version="1.0" encoding="UTF-8" standalone="no"?>
<svg width="256px" height="256px" viewBox="0 0 256 256" version="1.1" xmlns="http://www.w3.org/2000/svg" xmlns:xlink="http://www.w3.org/1999/xlink">
    <!-- Generator: Sketch 50.2 (55047) - http://www.bohemiancoding.com/sketch -->
    <title>illus--bulb</title>
    <desc>Created with Sketch.</desc>
    <defs></defs>
    <g id="illus--bulb" stroke="none" stroke-width="1" fill="none" fill-rule="evenodd">
        <g id="Group-4" transform="translate(3.000000, 24.000000)">
            <path d="M22,204.559998 C22.0000012,147.36539 68.3653922,101 125.56,101 C182.754608,101 229.119999,147.36539 229.12,204.559998 L22,204.559998 Z" id="Shape" fill="#E1F2FF" fill-rule="nonzero"></path>
            <g id="Group-2" transform="translate(0.000000, 196.000000)" fill="#FFFFFF" fill-rule="nonzero" stroke="#5E63B6" stroke-linecap="round" stroke-linejoin="round" stroke-width="3">
                <path d="M17,0 L53,0" id="Shape"></path>
                <path d="M59,0 L235.89,0" id="Shape"></path>
                <path d="M243,0 L249.97,0" id="Shape"></path>
                <path d="M0,0 L8.97,0" id="Shape"></path>
                <path d="M92,10 L159.19,10" id="Shape"></path>
                <path d="M168,10 L177.14,10" id="Shape"></path>
                <path d="M84,9 L79,9.08" id="Shape"></path>
            </g>
            <g id="Group-2" transform="translate(19.000000, 0.000000)" stroke="#5E63B6" stroke-linecap="round">
                <path d="M184.98,44.4 L184.98,51.4" id="Shape" stroke-width="2" stroke-linejoin="round"></path>
                <path d="M188.48,47.9 L181.48,47.9" id="Shape" stroke-width="2" stroke-linejoin="round"></path>
                <path d="M58,0 L58,7" id="Shape" stroke-width="2" stroke-linejoin="round"></path>
                <path d="M62,4 L55,4" id="Shape" stroke-width="2" stroke-linejoin="round"></path>
                <path d="M20.73,164.68 L20.73,168.62" id="Shape"></path>
                <path d="M22.7,166.65 L18.76,166.65" id="Shape"></path>
                <path d="M195.73,104.68 L195.73,108.62" id="Shape" stroke-linejoin="round"></path>
                <path d="M197.7,106.65 L193.76,106.65" id="Shape" stroke-linejoin="round"></path>
                <path d="M26.73,64.68 L26.73,68.62" id="Shape"></path>
                <path d="M28.7,66.65 L24.76,66.65" id="Shape"></path>
                <path d="M4.42,103.28 L4.42,111.4" id="Shape" stroke-width="2" fill="#FFFFFF" fill-rule="nonzero"></path>
                <path d="M8.48,107.34 L0.35,107.34" id="Shape" stroke-width="2" fill="#FFFFFF" fill-rule="nonzero"></path>
            </g>
        </g>
        <g id="bulb" transform="translate(47.000000, 28.000000)" fill-rule="nonzero">
            <g id="Group">
                <path d="M104.079208,144.07744 L58.4529109,144.07744 L58.4529109,177.35744 L63.5222178,177.35744 L63.5222178,179.91744 C63.5222178,185.57248 68.0617822,190.15744 73.6608317,190.15744 L88.8712871,190.15744 C94.4703366,190.15744 99.009901,185.57248 99.009901,179.91744 L99.009901,177.35744 L104.079208,177.35744 L104.079208,144.07744 L104.079208,144.07744 Z" id="Shape" stroke="#5E63B6" stroke-width="3" fill="#E1F2FF"></path>
                <path d="M124.87097,60.2027575 C114.795723,38.3972959 94.211802,31 81.3180198,31 C68.421703,31 47.7870891,38.3972959 37.7194455,60.2001288 C27.651802,82.0029617 35.7601584,102.22066 45.5870099,115.698249 C55.4138614,129.175838 57.8040396,135.127323 58.4174257,138.426401 C58.5745743,141.812228 58.437703,140.476824 58.437703,144.041406 C58.437703,145.863128 61.0407921,146.580776 61.0407921,146.580776 L101.592713,146.59392 C101.592713,146.59392 104.064,146.002452 104.064,144.041406 L104.058931,138.34491 C104.776238,135.064233 107.128396,129.175838 116.955248,115.698249 C126.782099,102.22066 134.941149,82.0055905 124.87097,60.2027575 L124.87097,60.2027575 Z" id="Shape" stroke="#5E63B6" stroke-width="3" fill="#FFFFFF"></path>
                <path d="M82.5346535,0.71744 C80.4334257,0.71744 78.7301386,2.43776 78.7301386,4.55744 L78.7301386,17.35744 C78.7301386,19.47712 80.4334257,21.19744 82.5346535,21.19744 C84.6333465,21.19744 86.3366337,19.47712 86.3366337,17.35744 L86.3366337,4.55744 C86.3366337,2.43776 84.6333465,0.71744 82.5346535,0.71744 L82.5346535,0.71744 Z M20.4331089,83.91744 C20.4331089,81.79776 18.7298218,80.07744 16.6311287,80.07744 L3.95786139,80.07744 C1.85916832,80.07744 0.155881188,81.79776 0.155881188,83.91744 C0.155881188,86.03712 1.85916832,87.75744 3.95786139,87.75744 L16.6311287,87.75744 C18.7298218,87.75744 20.4331089,86.03712 20.4331089,83.91744 Z M158.579327,80.07744 L145.895921,80.07744 C143.797228,80.07744 142.09901,81.7952 142.09901,83.91488 L142.09901,83.92256 C142.09901,86.03968 143.797228,87.75744 145.895921,87.75744 L158.579327,87.75744 C160.67295,87.75744 162.376238,86.03968 162.376238,83.92256 L162.376238,83.91488 C162.376238,81.7952 160.67295,80.07744 158.579327,80.07744 Z M125.162455,13.98848 C123.509861,12.97472 121.39596,13.57632 120.440396,15.33504 L114.679129,25.94624 C113.728634,27.70496 114.293861,29.95264 115.946455,30.96896 C117.59905,31.98528 119.71295,31.38112 120.668515,29.6224 L126.424713,19.0112 C127.380277,17.25248 126.817584,15.00224 125.162455,13.98848 Z M142.365149,53.95264 L152.88903,48.0416 C154.632871,47.06112 155.269069,44.96192 154.313505,43.34656 C153.36301,41.73376 151.175604,41.22176 149.426693,42.19968 L138.907881,48.11328 C137.161505,49.09376 136.522772,51.19296 137.478337,52.80832 C138.436436,54.42112 140.623842,54.93312 142.365149,53.95264 Z M42.0917228,15.33504 C41.1361584,13.57376 39.0222574,12.97216 37.3696634,13.98848 C35.7170693,15.0048 35.1518416,17.25248 36.1074059,19.0112 L41.863604,29.6224 C42.8191683,31.38368 44.9330693,31.98528 46.5856634,30.96896 C48.2382574,29.95264 48.8085545,27.70496 47.8529901,25.94624 L42.0917228,15.33504 Z M9.64308911,48.0416 L20.1669703,53.95264 C21.9108119,54.93312 24.0982178,54.42112 25.0537822,52.80832 C26.0093465,51.19296 25.3706139,49.09376 23.6242376,48.11328 L13.1003564,42.19968 C11.3590495,41.22176 9.17164356,41.73376 8.21861386,43.34656 C7.2579802,44.96192 7.89671287,47.06368 9.64308911,48.0416 L9.64308911,48.0416 Z M150.356911,119.79328 L139.83303,113.87968 C138.089188,112.90176 135.901782,113.41376 134.946218,115.02656 C133.990653,116.64192 134.629386,118.74112 136.375762,119.7216 L146.894574,125.6352 C148.64095,126.61312 150.830891,126.10112 151.781386,124.48832 C152.73695,122.87296 152.098218,120.77376 150.356911,119.79328 Z M22.7016238,113.87968 L12.1777426,119.79328 C10.433901,120.77376 9.79516832,122.87296 10.7507327,124.48832 C11.7037624,126.10112 13.8911683,126.61312 15.6324752,125.6352 L26.1563564,119.7216 C27.9027327,118.74112 28.5414653,116.64192 27.585901,115.02656 C26.6303366,113.41376 24.4429307,112.90176 22.7016238,113.87968 Z" id="Shape" fill="#ACD3EF"></path>
                <polygon id="Shape" fill="#9452BA" points="104.079208 85.17952 88.6178218 85.17952 97.9554851 67.27744 74.236198 67.27744 63.5222178 98.05632 78.2992475 98.05632 71.1743366 121.03744 104.079208 85.17952"></polygon>
                <path d="M72.5,140.669322 C72.5,137.308869 72.6110323,138.566249 72.5,135.371959 C72.0734951,132.257029 67.8311287,128.21268 61,115.5 C54.1688713,102.78732 44.4996793,82.5694443 51.5,62 C57.8517512,43.3451459 73.2316063,36.4384227 82.1723483,35.2083233 C81.2558914,35.0818413 80.3641083,35 79.5287226,35 C70.5615444,35 48.5003207,44.9305557 41.5,65.5 C34.4996793,86.0694443 44.6671089,101.21438 51.5,113.92954 C58.3328911,126.644701 63.1787792,132.259509 63.6052841,135.371959 C63.714554,138.566249 63.6193835,137.306389 63.6193835,140.669322 C63.6193835,142.387989 65.4293858,143.06504 65.4293858,143.06504 L93.626297,143.07744 L72.5,143.07744 C72.5,143.07744 72.5,142.390469 72.5,140.669322 Z" id="Shape" fill="#E1F2FF"></path>
                <path d="M59.7202376,154.31744 L102.811881,154.31744 C104.910574,154.31744 106.613861,152.59712 106.613861,150.47744 C106.613861,148.35776 104.910574,146.63744 102.811881,146.63744 L59.7202376,146.63744 C57.6215446,146.63744 55.9182574,148.35776 55.9182574,150.47744 C55.9182574,152.59712 57.6215446,154.31744 59.7202376,154.31744 L59.7202376,154.31744 Z M102.811881,159.43744 L59.7202376,159.43744 C57.6215446,159.43744 55.9182574,161.15776 55.9182574,163.27744 C55.9182574,165.39712 57.6215446,167.11744 59.7202376,167.11744 L102.811881,167.11744 C104.910574,167.11744 106.613861,165.39712 106.613861,163.27744 C106.613861,161.15776 104.910574,159.43744 102.811881,159.43744 Z M102.811881,172.23744 L59.7202376,172.23744 C57.6215446,172.23744 55.9182574,173.95776 55.9182574,176.07744 C55.9182574,178.19712 57.6215446,179.91744 59.7202376,179.91744 L102.811881,179.91744 C104.910574,179.91744 106.613861,178.19712 106.613861,176.07744 C106.613861,173.95776 104.910574,172.23744 102.811881,172.23744 Z" id="Shape" stroke="#5E63B6" stroke-width="2" fill="#5E63B6"></path>
            </g>
        </g>
    </g>
</svg>