<svg xmlns="http://www.w3.org/2000/svg" width="256" height="256">
  <g fill="none" fill-rule="evenodd">
    <path fill="#F1F4F9" fill-rule="nonzero" d="M25 228.56C25 171.36 71.37 125 128.56 125c57.2 0 103.56 46.37 103.56 103.56H25z"/>
    <g fill="#FFF" fill-rule="nonzero" stroke="#A1A9B7" stroke-width="3" stroke-linecap="round" stroke-linejoin="round">
      <path d="M20 220h36M62 220h176.9M246 220h6.97M3 220h8.97M95 230h67.2M171 230h9.14M87 229l-5 .08"/>
    </g>
    <g stroke="#67768A" stroke-linecap="round">
      <path stroke-width="2" d="M206.98 68.4v7M210.48 71.9h-7M80 24v7M84 28h-7" stroke-linejoin="round"/>
      <path d="M42.73 188.68v3.94M44.7 190.65h-3.94"/>
      <path d="M217.73 128.68v3.94M219.7 130.65h-3.94" stroke-linejoin="round"/>
      <path d="M48.73 88.68v3.94M50.7 90.65h-3.94"/>
      <path fill="#FFF" fill-rule="nonzero" stroke-width="2" d="M26.42 127.28v8.12M30.48 131.34h-8.13"/>
    </g>
    <g fill-rule="nonzero">
      <path fill="#F1F4F9" stroke="#A1A9B7" stroke-width="3" d="M151.08 172.08h-45.63v33.28h5.07v2.56c0 5.65 4.54 10.24 10.14 10.24h15.2c5.6 0 10.15-4.6 10.15-10.24v-2.56h5.08v-33.28z"/>
      <path fill="#FFF" stroke="#A1A9B7" stroke-width="3" d="M171.87 88.2C161.8 66.4 141.2 59 128.32 59c-12.9 0-33.53 7.4-43.6 29.2-10.07 21.8-1.96 42.02 7.87 55.5 9.8 13.48 12.2 19.43 12.82 22.73.15 3.38.02 2.05.02 5.6 0 1.83 2.6 2.55 2.6 2.55h40.55s2.46-.58 2.46-2.54v-5.7c.72-3.28 3.07-9.16 12.9-22.64 9.82-13.48 17.98-33.7 7.9-55.5z"/>
      <path fill="#D9DDE2" d="M129.53 28.72c-2.1 0-3.8 1.72-3.8 3.84v12.8c0 2.12 1.7 3.84 3.8 3.84 2.1 0 3.8-1.72 3.8-3.84v-12.8c0-2.12-1.7-3.84-3.8-3.84zm-62.1 83.2c0-2.12-1.7-3.84-3.8-3.84H50.96c-2.1 0-3.8 1.72-3.8 3.84s1.7 3.84 3.8 3.84h12.67c2.1 0 3.8-1.72 3.8-3.84zm138.15-3.84H192.9c-2.1 0-3.8 1.72-3.8 3.83v.02c0 2.12 1.7 3.84 3.8 3.84h12.68c2.1 0 3.8-1.72 3.8-3.84s-1.7-3.84-3.8-3.84zm-33.42-66.1c-1.65-1-3.76-.4-4.72 1.36l-5.76 10.6c-.95 1.76-.4 4 1.27 5.03 1.65 1.02 3.76.4 4.72-1.35l5.75-10.6c.96-1.77.4-4.02-1.26-5.03zm17.2 39.97l10.53-5.9c1.73-1 2.37-3.1 1.4-4.7-.94-1.62-3.12-2.13-4.87-1.15l-10.52 5.9c-1.74 1-2.38 3.1-1.42 4.7.96 1.62 3.14 2.13 4.9 1.15zM89.1 43.35c-.96-1.78-3.08-2.38-4.73-1.36-1.65 1-2.22 3.25-1.26 5l5.76 10.62c.96 1.76 3.07 2.37 4.73 1.35 1.64-1.02 2.2-3.27 1.25-5.02l-5.76-10.6zm-32.46 32.7l10.53 5.9c1.74.98 3.93.47 4.88-1.14.96-1.6.32-3.7-1.43-4.7L60.1 70.2c-1.74-.98-3.93-.47-4.88 1.15-.96 1.6-.32 3.7 1.42 4.7zm140.72 71.74l-10.53-5.92c-1.74-.98-3.93-.47-4.88 1.15-.96 1.6-.32 3.7 1.43 4.7l10.5 5.9c1.76.98 3.95.47 4.9-1.14.96-1.63.32-3.73-1.42-4.7zM69.7 141.87l-10.52 5.9c-1.75 1-2.38 3.1-1.43 4.7.95 1.62 3.14 2.13 4.88 1.16l10.53-5.92c1.74-.98 2.38-3.08 1.43-4.7-.97-1.6-3.16-2.12-4.9-1.14z"/>
      <path fill="#67768A" d="M151.08 113.18h-15.46l9.34-17.9h-23.72l-10.72 30.78h14.78l-7.13 22.98 32.9-35.86"/>
      <path fill="#F1F4F9" d="M119.5 168.67c0-3.36.1-2.1 0-5.3-.43-3.1-4.67-7.16-11.5-19.87-6.83-12.7-16.5-32.93-9.5-53.5 6.35-18.65 21.73-25.56 30.67-26.8-.9-.12-1.8-.2-2.64-.2-8.97 0-31.03 9.93-38.03 30.5s3.17 35.7 10 48.43c6.83 12.7 11.68 18.33 12.1 21.44.1 3.2.02 1.94.02 5.3 0 1.72 1.8 2.4 1.8 2.4h28.2-21.12v-2.4z"/>
      <path fill="#A1A9B7" stroke="#A1A9B7" stroke-width="2" d="M106.72 182.32h43.1c2.1 0 3.8-1.72 3.8-3.84s-1.7-3.84-3.8-3.84h-43.1c-2.1 0-3.8 1.72-3.8 3.84s1.7 3.84 3.8 3.84zm43.1 5.12h-43.1c-2.1 0-3.8 1.72-3.8 3.84s1.7 3.84 3.8 3.84h43.1c2.1 0 3.8-1.72 3.8-3.84s-1.7-3.84-3.8-3.84zm0 12.8h-43.1c-2.1 0-3.8 1.72-3.8 3.84s1.7 3.84 3.8 3.84h43.1c2.1 0 3.8-1.72 3.8-3.84s-1.7-3.84-3.8-3.84z"/>
    </g>
  </g>
</svg>