<svg xmlns="http://www.w3.org/2000/svg" width="256" height="256">
    <g fill="none" fill-rule="evenodd" transform="translate(3 23)">
        <path fill="#FFF" fill-rule="nonzero" stroke="#375D81" stroke-width="2" d="M145.77 105.95h43.7l23.95-28.66h-43.7zM145.77 105.95h-87.4L34.42 77.3h87.4z"/>
        <path fill="#E1F2FF" fill-rule="nonzero" d="M20.36 208.9c0-57.2 46.37-103.56 103.56-103.56 57.2 0 103.56 46.37 103.56 103.56H20.36z"/>
        <path fill="#FFF" fill-rule="nonzero" stroke="#375D81" stroke-width="2" d="M15.83 200.1h36" stroke-linecap="round" stroke-linejoin="round"/>
        <path stroke="#375D81" d="M71.7 140.16v3.93M73.68 142.12h-3.94M208.1 167.38v3.93M210.08 169.35h-3.94" stroke-linecap="round"/>
        <rect width="64" height="92.8" x="69.17" y="40.29" fill="#FFF" fill-rule="nonzero" stroke="#9ACDED" stroke-width="2" transform="rotate(-16.96 101.168 86.69)" rx="2.25"/>
        <path fill="#E1F2FF" fill-rule="nonzero" d="M85.8 128.74l53.9-12.42-22.86-74.96L62.7 55.2"/>
        <circle cx="94.42" cy="70.83" r="12.3" fill="#FFF" fill-rule="nonzero" transform="rotate(-16.96 94.42 70.825)"/>
        <circle cx="95.12" cy="68.01" r="12.3" fill="#FFF" fill-rule="nonzero" stroke="#9ACDED" stroke-width="2" transform="rotate(-16.96 95.12 68.013)"/>
        <path fill="#9ACDED" fill-rule="nonzero" d="M99.82 72.93l.2.25c-1.32-3.1.1-5 0-7.3v-.12-.15c-.2-.7-.63-1.35-1.23-1.8l-.18-.13-.34-.25-.1-.07-.1-.07-.1-.07-.1-.06h-.1c-1.05-.64-2.17-1.16-3.34-1.56.47 1.08.83 2.2 1.06 3.37.2 1.36.2 2.73 0 4.1-1.34.3-2.7.4-4.08.27-1.17-.18-2.32-.48-3.42-.9l.13.28v.1l.1.2v.08l.1.2v.08l.12.25.15.3.14.26v.05l.13.24.16.26.53.8c.28.38.6.75.93 1.1l.13.12.13.1.14.12.18.13.2.13.14.08h1.03c2.3-.1 4.13-1.62 7.3-.55M90.07 95.2l-1.84-.98-2.7 5.05-3.13-1.67-.98 1.84 4.96 2.65v-.03h.03"/>
        <path fill="#FFF" fill-rule="nonzero" stroke="#9ACDED" stroke-width="2" d="M93.95 96.13l30.34-9.25" stroke-linecap="round" stroke-linejoin="round"/>
        <path fill="#9ACDED" fill-rule="nonzero" d="M92.92 104.54l-1.84-.98-2.7 5.05-3.13-1.67-1 1.85 4.98 2.64h.02"/>
        <path fill="#FFF" fill-rule="nonzero" stroke="#9ACDED" stroke-width="2" d="M96.93 105.9l30.34-9.24" stroke-linecap="round" stroke-linejoin="round"/>
        <path fill="#9ACDED" fill-rule="nonzero" d="M95.77 113.87l-1.85-.98-2.7 5.04-3.13-1.67-1 1.84 4.98 2.66v-.02h.02"/>
        <path fill="#FFF" fill-rule="nonzero" stroke="#9ACDED" stroke-width="2" d="M100 116.03l30.36-9.26" stroke-linecap="round" stroke-linejoin="round"/>
        <path fill="#FFF" fill-rule="nonzero" stroke="#375D81" d="M172.87 104.57v3.94M174.84 106.54h-3.94" stroke-linecap="round" stroke-linejoin="round"/>
        <path fill="#FFF" fill-rule="nonzero" stroke="#375D81" stroke-width="2" d="M242.22 200.07h6.97M0 200.07h8.97M91.23 209.2h67.2M167.04 209.2h9.14M83.35 209.1l-5 .1M58.27 200.1h176.9" stroke-linecap="round" stroke-linejoin="round"/>
        <rect width="65.08" height="94.36" x="121.49" y="55.87" fill="#FFF" fill-rule="nonzero" stroke="#9ACDED" stroke-width="2" transform="rotate(19.54 154.034 103.05)" rx="2.25"/>
        <path fill="#E1F2FF" fill-rule="nonzero" d="M116.06 128.13l51.57 22.44 26.65-75.1-52.62-21.43"/>
        <circle cx="158.13" cy="86.01" r="12.51" fill="#FFF" fill-rule="nonzero" transform="rotate(-70.46 158.13 86.012)"/>
        <circle cx="160.41" cy="84.13" r="12.51" fill="#FFF" fill-rule="nonzero" stroke="#9ACDED" stroke-width="2" transform="rotate(-70.46 160.407 84.134)"/>
        <path fill="#9452BA" fill-rule="nonzero" d="M161.27 91v.32c.8-3.33 3.1-4 4.45-6l.06-.1.08-.14c.3-.7.32-1.5.1-2.2l-.07-.23c0-.14-.1-.27-.13-.4V81.7c-.48-1.17-1.08-2.28-1.8-3.3-.27 1.16-.66 2.3-1.17 3.4-.65 1.23-1.48 2.36-2.47 3.34-1.28-.56-2.46-1.32-3.5-2.24-.88-.83-1.66-1.75-2.33-2.75l-.07.3v1.03l-.05.33v1.99c0 .5.03.98.1 1.47v.54l.06.23.1.23.06.15V86.77l.05.07v.05l.06.07.08.07.12.1.07.05c1.94 1.33 4.35 1.17 6.3 4"/>
        <path fill="#9ACDED" fill-rule="nonzero" d="M139.83 103.3l-.9-1.92-5.26 2.5-1.56-3.26-1.9.9 2.45 5.18h.02"/>
        <path fill="#FFF" fill-rule="nonzero" stroke="#9ACDED" stroke-width="2" d="M142.44 106.4l30.4 10.8" stroke-linecap="round" stroke-linejoin="round"/>
        <path fill="#9ACDED" fill-rule="nonzero" d="M136.5 112.65l-.9-1.9-5.25 2.5-1.56-3.28-1.92.92 2.46 5.15h.02"/>
        <path fill="#FFF" fill-rule="nonzero" stroke="#9ACDED" stroke-width="2" d="M138.96 116.2l30.4 10.8" stroke-linecap="round" stroke-linejoin="round"/>
        <path fill="#9ACDED" fill-rule="nonzero" d="M133.2 122l-.92-1.9-5.25 2.5-1.56-3.27-1.9.9 2.45 5.18h.02"/>
        <path fill="#FFF" fill-rule="nonzero" stroke="#9ACDED" stroke-width="2" d="M135.37 126.33l30.4 10.8" stroke-linecap="round" stroke-linejoin="round"/>
        <rect width="64.87" height="94.06" x="110.38" y="36.74" fill="#FFF" fill-rule="nonzero" stroke="#9ACDED" stroke-width="2" transform="rotate(16.06 142.818 83.766)" rx="2.25"/>
        <path fill="#E1F2FF" fill-rule="nonzero" d="M159.66 126.3l-54.8-11.72 21.96-76.33L181.9 51.4"/>
        <rect width="30.12" height="20.18" x="130.96" y="57.96" fill="#FFF" fill-rule="nonzero" transform="rotate(15.83 146.024 68.047)" rx="8.47"/>
        <rect width="30.12" height="20.18" x="133.59" y="56.1" fill="#FFF" fill-rule="nonzero" stroke="#9ACDED" stroke-width="2" transform="rotate(15.83 148.65 66.185)" rx="8.47"/>
        <path fill="#9ACDED" fill-rule="nonzero" d="M143.8 61.64c.37.1.73.25 1.05.46.25.16.47.38.64.63.14.23.23.5.25.77.02.3 0 .57-.1.85-.07.3-.2.56-.38.8-.17.22-.4.4-.65.52-.28.13-.58.2-.9.2-.37.02-.75-.04-1.1-.15l-.9-.25-.63 2.22-1.18-.35 1.82-6.3 2.06.6zm-.9 3.17c.18.07.38.1.58.1.16 0 .32-.06.47-.13.13-.07.25-.18.34-.3.1-.14.16-.3.2-.46.06-.15.07-.3.06-.47 0-.15-.06-.3-.14-.42-.08-.12-.2-.24-.33-.32-.18-.1-.37-.2-.56-.24l-.88-.25-.66 2.26.9.25zM151.84 67.37c-.12.44-.32.85-.6 1.2-.5.68-1.3 1.1-2.13 1.18-.45.04-.92 0-1.36-.15l-2.4-.7 1.82-6.3 2.4.7c.45.1.87.32 1.24.6.33.25.6.57.82.94.2.36.33.75.38 1.16.04.46-.02.93-.16 1.37zm-1.2-.35c.1-.32.14-.66.13-1 0-.28-.08-.56-.2-.8-.12-.25-.3-.46-.5-.63-.23-.2-.5-.32-.8-.4l-1.22-.35-1.28 4.44 1.23.34c.28.1.58.12.87.1.27-.04.52-.13.75-.27.24-.15.44-.35.6-.58.2-.28.33-.58.42-.9v.02zM154.7 65.8l-.55 1.86 2.36.68-.26.94-2.36-.68-.74 2.57-1.14-.34 1.82-6.3 4 1.14-.27.93"/>
        <path fill="#FFF" fill-rule="nonzero" stroke="#9ACDED" stroke-width="2" d="M126.15 86.27l30.9 8.9M123.28 96.23l30.9 8.9M120.32 106.53l30.9 8.9" stroke-linecap="round" stroke-linejoin="round"/>
        <rect width="72.78" height="88.42" x="81.47" y="97.73" fill="#FFF" fill-rule="nonzero" stroke="#9ACDED" stroke-width="2" transform="rotate(27.8 117.86 141.937)" rx="2.25"/>
        <path fill="#E1F2FF" fill-rule="nonzero" d="M129.75 186.7l-57.2-26.03 34.8-66.06 57.3 27.45"/>
        <ellipse cx="123.67" cy="126.54" fill="#FFF" fill-rule="nonzero" transform="rotate(-62.2 123.67 126.54)" rx="11.72" ry="13.99"/>
        <ellipse cx="126.27" cy="125.24" fill="#FFF" fill-rule="nonzero" stroke="#9ACDED" stroke-width="2" transform="rotate(-62.2 126.274 125.24)" rx="11.72" ry="13.99"/>
        <path fill="#9ACDED" fill-rule="nonzero" d="M126.65 132v.3c1.14-3 3.67-3.17 5.28-4.72l.07-.08.1-.1c.37-.64.47-1.4.28-2.1v-.22c0-.14-.06-.28-.1-.42v-.59c-.43-1.23-1-2.4-1.67-3.53-.37 1.06-.9 2.07-1.53 3-.8 1.06-1.8 1.96-2.93 2.67-1.32-.8-2.53-1.76-3.6-2.88-.86-.97-1.63-2-2.28-3.13l-.1.27v.1l-.07.2v.08l-.07.2v.1l-.08.25-.08.3-.07.28v.02l-.06.25-.06.3c-.05.3-.1.6-.13.9-.04.47-.04.95 0 1.42v.54l.05.23c0 .08 0 .16.08.24l.06.16v.37l.05.08v.06l.05.08v.05l.07.08.12.1.07.08c2 1.7 4.6 2.05 6.5 5.15M102.54 139.13l-.83-2.03-5.86 1.27-1.4-3.45-2.16.46 2.24 5.46h.02v.02"/>
        <path fill="#FFF" fill-rule="nonzero" stroke="#9ACDED" stroke-width="2" d="M105.3 142.95l31.9 16.82" stroke-linecap="round" stroke-linejoin="round"/>
        <path fill="#9ACDED" fill-rule="nonzero" d="M98.2 147.36l-.83-2.03-5.87 1.27-1.4-3.46-2.15.46 2.23 5.47h.02"/>
        <path fill="#FFF" fill-rule="nonzero" stroke="#9ACDED" stroke-width="2" d="M100.55 151.28l31.92 16.82" stroke-linecap="round" stroke-linejoin="round"/>
        <path fill="#9ACDED" fill-rule="nonzero" d="M93.86 155.6l-.83-2.04-5.86 1.26-1.42-3.45-2.14.46 2.25 5.47h.02"/>
        <path fill="#FFF" fill-rule="nonzero" stroke="#9ACDED" stroke-width="2" d="M95.86 160.2l31.9 16.8" stroke-linecap="round" stroke-linejoin="round"/>
        <rect width="57.32" height="46.19" x="60.95" y="75.64" fill="#FFF" fill-rule="nonzero" stroke="#9ACDED" stroke-width="2" transform="rotate(-18.03 89.61 98.73)" rx="2.25"/>
        <rect width="47.05" height="31.51" x="65.88" y="82.32" fill="#E1F2FF" fill-rule="nonzero" stroke="#9ACDED" stroke-width="2" transform="rotate(-18.03 89.404 98.077)" rx="2.25"/>
        <path fill="#9ACDED" fill-rule="nonzero" stroke="#9ACDED" stroke-width="2" d="M63.63 94.9l-.92-2.83c-.3-.93.22-1.93 1.15-2.24l41.36-13.46c.94-.3 1.94.2 2.25 1.14l.9 2.78L63.63 94.9zM115.2 101.4l.9 2.7c.3.94-.2 1.94-1.14 2.25L73.6 119.8c-.93.3-1.93-.2-2.24-1.14l-.95-2.9 44.8-14.37z"/>
        <path fill="#FFF" fill-rule="nonzero" stroke="#9ACDED" stroke-width="2" d="M94.9 94.56l-9.16-2c-.45-.1-.92.05-1.23.4-.3.34-.4.82-.26 1.26l2.86 8.9c.14.45.5.78.96.88.45.1.92-.06 1.23-.4l6.28-6.93c.3-.34.4-.82.26-1.25-.15-.43-.5-.76-.95-.86z"/>
        <path fill="#9452BA" fill-rule="nonzero" stroke="#52267D" stroke-width="2" d="M144.27 172.67l5-.4c1.7-.14 3.16-1.3 3.66-2.95 1.4-4.68.62-8.8.55-12.4-.14-6.63-1.44-9.93-2.87-15.37l-7.43.77s.85 2.7 1.94 10.9c.35 2.53-3.04 13.1-2.44 18.1.1.8.8 1.4 1.6 1.35zM127.92 150.24l-6.54-6.3-3.7.43-.08 8.08c-.24 5.44-.87 10.85-1.9 16.2-.23 1.07-.34 2.17-.33 3.28.03.8.4 1.56 1 2.1.6.52 1.4.77 2.2.7l4.4-.35c2.58-.2 4.7-2.1 5.14-4.63 1.35-7.88-.18-19.5-.18-19.5z"/>
        <path stroke="#52267D" stroke-width=".5" d="M119.87 155.6l-.92.95 1.02.78 1.5-.72-.37-.64-1.26.4.03.23.33-.05"/>
        <path fill="#9452BA" fill-rule="nonzero" stroke="#52267D" stroke-width="2" d="M117.5 125.6c4.36-.43 8.2-3.76 17.08-4.9.06-.53.18-1.06.36-1.57 1.33-3.62 2.8-13.86.8-20.35l-1.57-5.14c-.52-1.7-.86-3.42-1-5.18-.07-.7-.07-1.44 0-2.15 0-.16.03-.34.08-.5.1-.53.22-1.03.38-1.53.05-.17.1-.33.17-.5l.42-.93c.15-.3.32-.6.5-.9.55-.86 1.22-1.64 2-2.32.25-.23.52-.44.8-.64 1.57-1.15 3.43-1.84 5.37-2l1.73-.14c2.8-.23 5.6.67 7.75 2.5.26.22.5.45.74.7.43.45.82.93 1.17 1.44l.37.6.25.44c.48.94.82 1.96 1 3 .06.36.1.72.14 1.08.06.7-.17 1.4-.62 1.93-.46.54-1.1.87-1.8.93l-10.87.87 2.4 9.3c2.7 9.5 2.65 16 1.5 20.47-.26 1-1.88 4.55-1.88 4.55 6.1 8.13 14.73 11.2 23.72 11.58 7.64.32 23.42-7.9 14.36-15.2-9.06-7.3 1.5-3.16 3.1-2.27 1.57.9 10.83 7.68 2.3 19.42-3.6 5-7.76 9.55-18.33 13.65-1.7.66-11.12 2.1-16.1 4-14.86 5.58-27.6 1.83-35.32-7.64-7.73-9.48-2.75-22.42-1.03-22.6z"/>
        <path fill="#9452BA" fill-rule="nonzero" stroke="#52267D" stroke-width="2" d="M125.77 110.43c-.55-11.25-10.17-19.36-20.45-20.43-2.13-.22-2.87-.82-5.17-.64l-1.76.14c-5.94.48-10.36 5.67-9.9 11.6.13 1.48 1.42 2.58 2.9 2.46l18.14-1.47 1.46-.1-1.48.12c4.13 1.37 7 6.28 7.68 9 .94 3.23.8 6.68-.38 9.83-.64 1.8-.78 3.72-.4 5.6h.1c.16 1.03.4 2.06.73 3.06 1.6-1.3 4.1-3.3 4.57-3.6 1-.63 3.25-2.08 4.26-2.77 6.46-4.38 0-6.4-.3-12.8z"/>
        <path fill="#F3E3FF" fill-rule="nonzero" stroke="#52267D" d="M121.06 123.86c-.23-1.73-.56-2.6-.43-3.32.8-4.15 1.05-5.46.7-9.76-.44-4.38-3.07-8.24-7-10.25-1.73-.1-3.45.47-4.8 1.6 4.14 1.36 7 6.27 7.7 9 .93 3.22.8 6.67-.4 9.82-.63 1.8-.77 3.72-.4 5.6 0 0 5 1.44 4.6-2.68"/>
        <path fill="#FFF" fill-rule="nonzero" stroke="#52267D" d="M92.9 91.8c-.05-1.18.6-2.27 1.65-2.8l1.55-.78s1.3 2.26.1 3c-1 .6-2.17.8-3.3.58zM97.47 90.1c-.03-1.57 1.13-2.92 2.7-3.15.52-.1 1.92-.2 1.92-.2s.85 2.66-.64 3c-1.3.3-2.65.43-4 .36zM103.2 89.9s.15-2.9 2.8-2.3c.68.15 1.3.5 1.8 1 0 0-.34 2.2-1.38 2-1.1-.15-2.17-.38-3.22-.7zM111.7 103.06s5.68-3.7 4.1-9c1.43 1 2.77 2.13 4 3.35.1 1.07.63 5.28-5 8.58-.96-1.04-2-2.02-3.1-2.92z"/>
        <path fill="#F3E3FF" fill-rule="nonzero" d="M93.67 91.22c-.02-.6.3-1.16.85-1.43l.8-.4s.67 1.16 0 1.52c-.5.3-1.08.4-1.65.3zM98.65 89.43c0-.8.56-1.5 1.35-1.6.27-.07 1-.1 1-.1s.44 1.34-.32 1.54c-.67.15-1.35.2-2.03.16zM104.1 89.62s.08-1.52 1.46-1.22c.36.08.7.27.95.54 0 0-.17 1.17-.7 1.08-.58-.1-1.15-.22-1.7-.4z"/>
        <path fill="#F3E3FF" fill-rule="nonzero" d="M102.6 95.94l.47-.04c1.36-.1 2.56.9 2.67 2.27.05.66-.16 1.3-.6 1.8-.4.5-1.02.82-1.68.87l-5.42.44c-.22-2.76 1.83-5.17 4.6-5.4l-.05.06z" opacity=".3"/>
        <path fill="#FFF" fill-rule="nonzero" stroke="#52267D" d="M101.7 96.98l1-.08c1.1-.1 2.06.73 2.15 1.83.1 1.1-.73 2.07-1.83 2.15l-4.84.4c-.1-1.04.24-2.06.9-2.85.68-.78 1.64-1.27 2.67-1.36l-.05-.1z"/>
        <circle cx="99.92" cy="98.94" r="1.09" fill="#52267D" fill-rule="nonzero" transform="rotate(-4.59 99.923 98.936)"/>
        <path fill="#52267D" fill-rule="nonzero" d="M91.1 102.8c.3-.1.56-.3.74-.55l.33-.5-.8.25-.47.14c-.1.03-.16.1-.2.17-.05.1-.06.18-.03.27.03.1.1.16.17.2.08.05.17.06.26.03z"/>
        <path fill="#EAF3FB" fill-rule="nonzero" d="M112.7 103.1s4.4-2.84 3.92-7.8c1.02.56 1.93 1.3 2.7 2.17-.1 1.3-.5 2.56-1.17 3.67-1.54 1.95-3.25 2.66-5.44 1.95z"/>
        <path fill="#FFF" fill-rule="nonzero" stroke="#52267D" d="M117 101.87c-.97 1.15-2.1 2.16-3.34 3"/>
        <path fill="#9452BA" fill-rule="nonzero" stroke="#52267D" stroke-width="2" d="M136.46 119.7l-1.18-1.92c-4.56-9-5.58-14.5-4.33-23.57l.74-5.3c.23-1.76.28-3.52.14-5.28-.47-5.85-5.6-10.22-11.45-9.75l-1.72.14c-2.77.23-5.35 1.55-7.15 3.67-1.8 2.12-2.7 4.87-2.47 7.64v.3c.1 1.38 1.32 2.4 2.7 2.3l10.84-.9-.9 9.55c-3 25.65-1.67 35.85 8.07 33"/>
        <path fill="#FFF" fill-rule="nonzero" stroke="#52267D" d="M113.54 75.68c.1-1.15.77-2.16 1.8-2.68.45-.16.94-.2 1.42-.1 0 0 1.2 1.56 0 2.24-.97.56-2.12.76-3.22.54zM117.84 74.73c-.03-1.8 1.28-3.33 3.05-3.58.45-.08.9-.13 1.38-.13 0 0 1.78 2.92.1 3.35-1.5.33-3.02.45-4.54.36zM123.72 74.92s.22-2.8 2.76-2.17c.66.16 1.26.5 1.72 1 0 0-.38 2.15-1.4 2-1.04-.2-2.07-.47-3.08-.83z"/>
        <path fill="#F3E3FF" fill-rule="nonzero" stroke="#52267D" d="M117.7 125.26c.5-.45 1.08-.8 1.7-1M121.28 124.9c-2.35-7.05-.26-21.07.06-24.5l1.24-13.76 1-.08c.65 0 1.26.3 1.7.77.43.47.65 1.1.6 1.75l-.72 11.92c-.25 4 .64 22.54 7.88 25.94 1.55.73 3.9 0 4.77-.53 3.18-1.83 3.8-6 4.25-9.37.94-7-.65-12.25-1.4-17.6l-.9-6.68c-.18-1.26.67-2.44 1.92-2.67l1.24-.1 3.33 13.4c1 3.8 3.78 17.06-3.6 24-.14.12 2 .4 1.44 1.52-2 4.4-8.87 5.6-10 7.5-4.43 7.33 1.42 21.7 1.42 21.7-3.35-1.04-6.52-2.58-9.4-4.55-8.6-6.54-10.46-16.88-10.75-19.94-.34-3.65.44-6 1.52-7.46"/>
        <path fill="#FFF" fill-rule="nonzero" stroke="#52267D" d="M186.87 125.7c.62-.9.72-2.04.26-3-.25-.4-.6-.7-1-.9 0 0-1.75.45-1.28 1.62.37.98 1.1 1.8 2.02 2.27z"/>
        <path fill="#F3E3FF" fill-rule="nonzero" d="M186.35 124c.2-.3.25-.7.1-1.05-.1-.13-.2-.24-.35-.3 0 0-.6.15-.45.56.13.35.38.63.7.8z"/>
        <path fill="#FFF" fill-rule="nonzero" stroke="#52267D" d="M178.27 135.48c-.73-1.5-.23-3.3 1.17-4.22.35-.25.73-.47 1.12-.65 0 0 2.65 1.78 1.38 2.8-1.12.86-2.36 1.56-3.67 2.08z"/>
        <path fill="#F3E3FF" fill-rule="nonzero" d="M179.1 134.47c-.42-.83-.14-1.84.64-2.34.2-.14.4-.26.62-.36 0 0 1.47 1 .77 1.55-.62.47-1.3.86-2.04 1.15z"/>
        <path fill="#FFF" fill-rule="nonzero" stroke="#52267D" d="M185.5 126.76s2 1.5.34 3.1c-.45.43-1 .7-1.6.8 0 0-1.45-1.3-.83-2 .66-.68 1.36-1.32 2.1-1.9z"/>
        <path fill="#F3E3FF" fill-rule="nonzero" d="M185.33 127.94s.9.66.14 1.38c-.2.18-.44.3-.7.35 0 0-.65-.58-.37-.88.3-.32.6-.6.93-.86z"/>
        <path fill="#FFF" fill-rule="nonzero" stroke="#52267D" d="M169.38 137.5c-.44-1.3.25-2.74 1.55-3.2 2.35-1.08 3.06-.4 3.06-.4s1.5 2.14.37 3c-1.14.86-5 .6-5 .6z"/>
        <path fill="#F3E3FF" fill-rule="nonzero" d="M170.47 136.9c-.23-.67.13-1.4.8-1.66 1.23-.55 1.6-.2 1.6-.2s.8 1.12.2 1.54c-.83.3-1.72.4-2.6.33z"/>
        <path fill="#FFF" fill-rule="nonzero" stroke="#52267D" d="M122.3 90c3.05 1.12 6.42.92 9.32-.53l-.72 5.16s-4.9 1.95-9-.18c.23-2.28.4-4.45.4-4.45zM150.4 77.86c-.24-1.15-1.1-2.07-2.2-2.43-.7-.12-1.4-.16-2.1-.12 0 0-.28 2 1 2.5 1.05.42 2.23.44 3.3.06zM145.67 77.3c-.22-1.56-1.56-2.7-3.12-2.67-.4 0-.8.02-1.2.08 0 0-1.14 2.77.38 2.9 1.32.08 2.65-.03 3.94-.3zM140.3 77.9s-.66-2.74-3.1-1.7c-.63.27-1.16.73-1.54 1.3 0 0 .72 2.08 1.7 1.74 1.02-.36 2-.8 2.95-1.33z"/>
        <path fill="#F3E3FF" fill-rule="nonzero" d="M114.46 75.14c.04-.63.43-1.2 1-1.46.24-.08.5-.1.76-.05 0 0 .63.84 0 1.2-.53.32-1.16.43-1.76.3zM118.87 74.15c-.02-1.12.8-2.1 1.9-2.25.3-.05.6-.08.88-.08 0 0 1.12 1.83.05 2.1-.93.2-1.88.28-2.83.23zM124.77 74.55s.13-1.62 1.6-1.25c.38.1.72.3 1 .6 0 0-.23 1.24-.8 1.13-.62-.1-1.22-.27-1.8-.48zM149.46 77.46c-.14-.6-.6-1.1-1.18-1.28-.37-.06-.74-.08-1.1-.06 0 0-.15 1.05.53 1.3.57.23 1.2.24 1.76.04zM144.53 76.94c-.12-.86-.86-1.5-1.73-1.47-.22-.02-.45-.02-.67 0 0 0-.62 1.52.22 1.6.73.06 1.46 0 2.18-.13zM139.3 77.8s-.37-1.5-1.7-.94c-.34.15-.63.4-.84.72 0 0 .4 1.13.93.95.55-.2 1.08-.44 1.6-.73z"/>
        <path fill="#FFF" fill-rule="nonzero" stroke="#52267D" d="M134.23 93.85c3.14.17 6.3-.2 9.3-1.12.64 2.44 1.08 4.28 1.08 4.28s-3 2.4-8.9 1.63c-.94-3.12-1.47-4.78-1.47-4.78z"/>
        <path fill="#F3E3FF" fill-rule="nonzero" d="M147.2 87.97l-5.44.43c-.66.06-1.3-.16-1.8-.58-.5-.43-.82-1.04-.87-1.7-.07-.66.14-1.3.57-1.8.43-.5 1.03-.82 1.7-.87l.5-.04c2.76-.2 5.17 1.84 5.4 4.6l-.08-.03z" opacity=".3"/>
        <path fill="#FFF" fill-rule="nonzero" stroke="#52267D" d="M147.1 87.88l-4.76.38c-1.15.1-2.15-.76-2.25-1.9-.1-1 .66-1.88 1.65-1.96l1.13-.1c2.15-.17 4.03 1.43 4.2 3.58z"/>
        <circle cx="145.21" cy="86.64" r="1.09" fill="#52267D" fill-rule="nonzero" transform="rotate(-30.52 145.207 86.644)"/>
        <path fill="#F3E3FF" fill-rule="nonzero" d="M121.7 80.33l.5-.04c1.35-.12 2.55.9 2.66 2.26.1 1.37-.9 2.56-2.28 2.67l-5.38.43c-.2-2.7 1.8-5.07 4.5-5.33z" opacity=".3"/>
        <path fill="#FFF" fill-rule="nonzero" stroke="#52267D" d="M120.84 81.37l1-.08c1.1-.1 2.06.72 2.15 1.82.08 1.1-.74 2.06-1.84 2.15l-4.88.4c-.1-1.05.2-2.1.88-2.9.67-.8 1.64-1.32 2.68-1.4z"/>
        <circle cx="119.16" cy="83.44" r="1.09" fill="#52267D" fill-rule="nonzero" transform="rotate(-54.81 119.162 83.443)"/>
        <path fill="#52267D" fill-rule="nonzero" d="M153.8 88.58c-.3-.04-.6-.2-.8-.42l-.4-.43.8.1.5.07c.18.03.3.2.3.38-.02.1-.07.17-.14.23-.07.07-.16.1-.25.08zM111.54 86.86c.3-.1.56-.3.74-.55l.33-.48-.8.24-.46.14c-.1.03-.16.1-.2.17-.05.08-.06.17-.03.26.04.1.1.16.18.2.08.05.17.06.26.03z"/>
        <path fill="#EAF3FB" fill-rule="nonzero" d="M122.83 90.66c2.7.8 5.57.62 8.14-.5-.1 1.24-.28 2.46-.52 3.68-1.35.2-2.73.24-4.1.15-2.35-.28-3.35-1.26-3.52-3.34z"/>
        <path fill="#FFF" fill-rule="nonzero" stroke="#52267D" d="M128.7 93.28c-2.22.32-4.5.1-6.6-.65"/>
        <path fill="#EAF3FB" fill-rule="nonzero" d="M141.85 93.78c-2.15.76-4.44 1.08-6.72.93.32 1.03.7 2.04 1.16 3 0 0 4.7-.98 5.55-3.92z"/>
        <path fill="#F3E3FF" fill-rule="nonzero" stroke="#52267D" stroke-width=".5" d="M142.62 127.4s-.2.18-.5.4"/>
        <path fill="#FFF" fill-rule="nonzero" stroke="#52267D" d="M142.3 95.1c-2.42.62-4.92.9-7.42.84"/>
        <path fill="#FFF" fill-rule="nonzero" stroke="#52267D" stroke-width=".5" d="M142.36 169.9c-.74-.42-1.68-.24-2.2.43-1.1 1-1.85 2.6-1.32 2.7.8.15 1.62.12 2.4-.08.84-.22 1.6-.12 1.8-1.9.03-.5-.24-.95-.68-1.16z"/>
        <path fill="#EAF3FB" fill-rule="nonzero" d="M142.17 170.2c-.47-.26-1.05-.14-1.38.28-.7.65-1.16 1.62-.82 1.68.5.1 1 .1 1.5 0 .5-.14 1-.07 1.1-1.18.06-.32-.1-.64-.4-.78z"/>
        <path fill="#FFF" fill-rule="nonzero" stroke="#52267D" stroke-width=".5" d="M143.72 169.77c.5-.1 1.32.93 1.26 1.27-.06.34 0 1.45-.83 1.64-.6.14-2.73.53-3.24.1-.5-.43.23-2.45 2.82-3z"/>
        <path fill="#EAF3FB" fill-rule="nonzero" d="M143.9 170.06c.3-.06.77.55.73.75-.04.2 0 .87-.5 1-.48.15-1.6.33-1.9.07-.3-.26.13-1.48 1.66-1.8z"/>
        <path fill="#FFF" fill-rule="nonzero" stroke="#52267D" stroke-width=".5" d="M145.88 169.8s-.46-.18-1.28.38c-.82.56-1.82 1.3-1.44 2.14.38.85 2.76.33 3.28.1s.8-.8.68-1.34c-.14-.62-.62-1.12-1.24-1.27z"/>
        <path fill="#EAF3FB" fill-rule="nonzero" d="M146.07 170.1s-.27-.1-.76.22c-.48.33-1.06.76-.85 1.26.2.5 1.63.2 1.94.06.3-.14.46-.47.4-.8-.1-.36-.37-.65-.73-.74z"/>
        <path fill="#9452BA" fill-rule="nonzero" stroke="#52267D" stroke-width="2" d="M133.54 142.9c.62 4.8.7 9.66.23 14.48-.67 8.3-2.8 11.06-2.47 13.17.27 1.63 1.08 3.1 2.73 3l4.92-.4c2.3-.2 4.2-1.82 4.77-4.05.58-2.4.92-4.83 1-7.28 0-3.56-.2-7.12-.62-10.65M159.1 144.57c-1.5 1.63-2.22 3.8-2 6 .23 2.82 2.16 6.28 1.5 11-.6 4.25-2.37 5.13-1.5 8.84.16.68.8 1.12 1.47 1.06l5.5-.44c2.52-.2 4.52-2.2 4.74-4.73.36-5.98-.33-11.97-2.04-17.7"/>
        <path stroke="#52267D" stroke-width=".5" d="M160.67 150.7l.3-.26 1.07.16-1.1.83-1.45-.58 1.34-1.27.68.17"/>
        <path fill="#FFF" fill-rule="nonzero" stroke="#52267D" d="M132.4 170.7c-.74-.4-1.68-.23-2.2.44-1.1 1-1.85 2.6-1.32 2.7.8.15 1.62.12 2.4-.08.84-.22 1.6-.12 1.8-1.9.03-.5-.24-.95-.68-1.16z"/>
        <path fill="#EAF3FB" fill-rule="nonzero" d="M132.2 171c-.47-.26-1.05-.14-1.38.28-.68.65-1.15 1.62-.8 1.68.48.1 1 .1 1.5 0 .5-.14 1-.07 1.1-1.18.05-.32-.12-.64-.42-.78z"/>
        <path stroke="#52267D" stroke-width=".5" d="M138.76 155.58l-1.9.77.4 1.8 2.02-.02.85-1.16-1.26-.57-.97.37.7.65"/>
        <g stroke="#F3E3FF" stroke-width=".25" opacity=".3">
            <path d="M91.92 99.12c.03.3.3.5.6.48.3-.03.5-.3.48-.6"/>
            <path d="M90.85 99.2c0 .2.1.4.3.5.18.1.4.07.56-.06.18-.12.26-.33.22-.53"/>
            <path d="M91.43 99.7c0 .2.1.4.3.48.18.1.4.08.56-.05.16-.12.24-.33.2-.53M112.35 97c.25.16.57.16.83 0 .25-.15.4-.43.38-.73-.03-.3-.2-.56-.5-.67"/>
            <path d="M112.7 98c.37.16.8 0 1-.37.18-.36.06-.8-.3-1.03M139.13 112.88c.06.37.4.63.77.6.37-.03.66-.35.66-.72M137.7 113c.06.37.4.63.77.6.37-.03.66-.35.66-.72M138.48 113.65c0 .27.15.52.4.64.24.1.53.1.75-.07.22-.16.33-.43.28-.7M121.4 160c.05.37.4.63.76.6.37-.03.66-.35.66-.72"/>
            <path d="M120 160.1c0 .27.15.52.4.64.24.12.53.1.75-.06.22-.16.33-.43.28-.7"/>
            <path d="M120.73 160.76c.06.37.4.63.77.6.37-.03.66-.35.66-.72M136.2 90.14c.06.4.42.7.84.66.4-.03.72-.38.72-.8M135.47 91c.07.4.43.7.85.66.4-.03.72-.38.72-.8M127.25 104.85c.16.4.57.67 1 .64.45-.05.82-.37.9-.8M126.37 105.88c-.1.42.1.85.46 1.07.37.22.83.18 1.16-.1.32-.27.43-.72.28-1.12M111.44 82.18c.02.23.16.43.36.53.2.1.45.1.64-.04.2-.13.3-.35.28-.58"/>
            <path d="M110.85 82.87c.02.23.16.43.36.53.22.1.46.08.65-.05.2-.13.3-.35.28-.58M176.83 141.84c.3.15.64.1.87-.13.23-.22.28-.57.13-.86M176.83 142.9c.3.14.64.1.87-.14.23-.23.28-.58.13-.87M146.74 134c.13.3.42.52.76.54.33.02.65-.16.8-.45.17-.3.15-.67-.05-.94"/>
            <path d="M145.23 134.87c.13.3.42.52.76.54.32.03.64-.15.8-.44.16-.3.14-.66-.06-.93"/>
            <path d="M146.4 135.2c.27.36.75.47 1.14.25.38-.2.55-.68.38-1.1"/>
            <path d="M144.9 136c.12.3.4.52.75.54.33.02.65-.16.8-.45.17-.3.15-.67-.05-.94M147.6 135.54c.25.36.73.47 1.12.25.38-.22.55-.7.38-1.1M127.85 87.37c.04.48.46.84.94.8.47-.04.83-.46.8-.94M130.2 120.34c.04.48.46.84.94.8.48-.04.84-.46.8-.94M138.62 101.4c.02.23.16.43.38.53.2.1.46.08.66-.05.2-.14.3-.36.28-.6M153.14 85.1c.02.3.26.5.54.47.28-.02.48-.26.46-.54M163.12 157.65c.08.3.3.54.6.62.3.08.64 0 .86-.22.22-.22.3-.54.23-.84M139.55 166c.16.4.57.67 1 .64.45-.04.82-.36.9-.8M138.67 167c.16.4.57.67 1 .64.45-.04.82-.36.9-.8"/>
        </g>
        <path fill="#FFF" fill-rule="nonzero" stroke="#52267D" d="M133.76 170.57c.5-.1 1.32.93 1.26 1.27-.06.34 0 1.45-.83 1.64-.6.14-2.74.53-3.25.1-.5-.43.22-2.45 2.8-3z"/>
        <path fill="#EAF3FB" fill-rule="nonzero" d="M133.92 170.86c.3-.06.78.55.74.75-.04.2 0 .87-.5 1-.48.15-1.6.33-1.9.07-.3-.26.13-1.48 1.66-1.8z"/>
        <path fill="#FFF" fill-rule="nonzero" stroke="#52267D" d="M135.6 171s-.4-.17-1.13.33c-.73.5-1.6 1.14-1.28 1.9.32.74 2.43.28 2.9.08.45-.2.7-.7.6-1.18-.13-.55-.55-.98-1.1-1.12z"/>
        <path fill="#EAF3FB" fill-rule="nonzero" d="M135.77 171.23s-.24-.1-.67.2c-.43.28-1 .67-.76 1.1.24.45 1.45.18 1.72.06.27-.13.4-.42.35-.7-.06-.33-.3-.6-.63-.67z"/>
        <path fill="#FFF" fill-rule="nonzero" stroke="#52267D" d="M115.4 172.8s-.4-.17-1.13.33c-.73.5-1.6 1.14-1.28 1.9.32.74 2.43.28 2.9.08.45-.2.7-.7.6-1.18-.13-.55-.55-.98-1.1-1.12z"/>
        <path fill="#EAF3FB" fill-rule="nonzero" d="M115.57 173.06s-.24-.1-.67.2c-.43.28-1 .67-.76 1.1.24.45 1.45.18 1.72.06s.4-.4.35-.7c-.06-.32-.3-.58-.63-.66z"/>
        <path fill="#FFF" fill-rule="nonzero" stroke="#52267D" d="M117.7 172.07c.5-.1 1.32.93 1.26 1.27-.06.34 0 1.45-.83 1.64-.6.14-2.73.53-3.24.1-.52-.43.2-2.45 2.8-3z"/>
        <path fill="#EAF3FB" fill-rule="nonzero" d="M117.86 172.37c.3-.06.78.55.74.75-.04.2 0 .86-.5 1-.48.14-1.6.32-1.9.06-.3-.26.13-1.48 1.66-1.8z"/>
        <path fill="#FFF" fill-rule="nonzero" stroke="#52267D" stroke-width=".5" d="M159 168.55c-.74-.4-1.68-.23-2.2.44-1.1 1-1.85 2.6-1.32 2.7.8.14 1.62.1 2.4-.1.84-.2 1.6-.1 1.8-1.9.03-.48-.24-.94-.68-1.15z"/>
        <path fill="#EAF3FB" fill-rule="nonzero" d="M158.85 168.86c-.47-.26-1.05-.14-1.38.28-.68.65-1.15 1.62-.8 1.68.48.1 1 .1 1.5 0 .5-.14 1-.07 1.1-1.18.05-.32-.12-.64-.42-.78z"/>
        <path fill="#FFF" fill-rule="nonzero" stroke="#52267D" stroke-width=".5" d="M160.4 168.43c.5-.1 1.32.93 1.26 1.27-.06.34 0 1.45-.83 1.64-.6.14-2.73.53-3.24.1-.52-.43.2-2.44 2.8-3z"/>
        <path fill="#EAF3FB" fill-rule="nonzero" d="M160.57 168.72c.3-.06.78.55.74.75-.03.2 0 .86-.48 1-.5.14-1.6.32-1.9.06-.3-.26.08-1.48 1.65-1.8z"/>
        <path fill="#FFF" fill-rule="nonzero" stroke="#52267D" stroke-width=".5" d="M162.24 168.82s-.4-.17-1.13.33c-.72.5-1.6 1.14-1.27 1.9.33.74 2.44.28 2.9.08.46-.2.7-.7.6-1.2-.12-.54-.54-.97-1.1-1.1z"/>
        <path fill="#EAF3FB" fill-rule="nonzero" d="M162.4 169.1s-.23-.1-.66.18c-.43.3-1 .68-.76 1.12.24.44 1.45.17 1.72.05.27-.12.4-.4.35-.7-.07-.32-.32-.58-.64-.66z"/>
        <path fill="#FFF" fill-rule="nonzero" stroke="#52267D" d="M124.38 172c.12-.14.32-.2.5-.14.6.23 2.14.9 1.92 2-.17.84-.7.63-1.65.73l-.72.06c-.15 0-.3-.05-.38-.18-.45-.78-.33-1.76.3-2.4l.03-.08z"/>
        <path fill="#EAF3FB" fill-rule="nonzero" d="M124.48 172.24c.1-.1.23-.14.36-.1.44.17 1.55.65 1.4 1.43-.13.6-.5.46-1.2.53l-.54.05c-.1 0-.22-.04-.28-.13-.33-.57-.24-1.3.22-1.75l.04-.03z"/>
        <path fill="#FFF" fill-rule="nonzero" stroke="#52267D" d="M121 172c-.7-.47-1.66-.36-2.24.26-1.17 1-2.06 2.43-1.53 2.58.78.22 1.6.26 2.4.13.85-.15 1.6 0 1.94-1.74.1-.5-.14-.98-.57-1.23z"/>
        <path fill="#EAF3FB" fill-rule="nonzero" d="M120.74 172.26c-.44-.3-1.03-.23-1.4.16-.72.6-1.27 1.5-1 1.6.5.15 1 .17 1.5.1.53-.1 1 0 1.2-1.1.08-.3-.05-.6-.3-.76z"/>
        <rect width="57.07" height="49.58" x="124.11" y="76.51" fill="#FFF" fill-rule="nonzero" stroke="#9ACDED" stroke-width="2" transform="rotate(7.25 152.64 101.3)" rx="2.25"/>
        <rect width="46.84" height="31.37" x="129.54" y="83.16" fill="#E1F2FF" fill-rule="nonzero" stroke="#9ACDED" stroke-width="2" transform="rotate(7.25 152.964 98.843)" rx="2.25"/>
        <path fill="#9ACDED" fill-rule="nonzero" d="M128.4 106.17c0-.28 6.3-4.3 9.7-6.47 1.2-.77 2.8-.56 3.8.5l5.5 6c.3.32.8.38 1.15.12l11.27-8.08c1.13-.8 2.67-.72 3.7.2l11.77 10.35-.74 5.73c-.08.64-.42 1.23-.93 1.62-.52.4-1.17.58-1.8.5l-42.34-5.57c-.53-.07-1-.35-1.3-.78-.32-.43-.43-.97-.33-1.5l.54-2.63z"/>
        <circle cx="168.69" cy="92.4" r="3.2" fill="#FFF" fill-rule="nonzero" stroke="#9ACDED" stroke-width="2" transform="rotate(-82.52 168.694 92.404)"/>
        <path fill="#FFF" fill-rule="nonzero" stroke="#375D81" stroke-width="2" d="M102.15 105.85h87.4V200h-87.4z"/>
        <path fill="#E1F2FF" fill-rule="nonzero" d="M188.5 160.02l-86.43-39.74.08-14.43h86.36"/>
        <path fill="#FFF" fill-rule="nonzero" stroke="#375D81" stroke-width="2" d="M58.36 105.95h43.7v94.16h-43.7z"/>
        <path fill="#E1F2FF" fill-rule="nonzero" d="M59.35 139.48l41.77-19.2-.08-14.43H58.37"/>
        <path fill="#FFF" fill-rule="nonzero" stroke="#375D81" stroke-width="2" d="M102.07 105.95h-43.7L34.42 134.6h43.7zM102.07 105.95h87.4l23.95 28.66h-87.4z"/>
        <path stroke="#375D81" stroke-width="2" d="M207.25 46.57v7M210.75 50.07h-7M51.12 36.08v7M54.62 39.58h-7" stroke-linecap="round" stroke-linejoin="round"/>
        <path stroke="#375D81" d="M171.8.5v3.94M173.76 2.47h-3.93M19.4 159.37v3.94M21.38 161.34h-3.94" stroke-linecap="round"/>
        <path stroke="#9ACDED" stroke-width="2" d="M69.05 161.17h20.22M69.05 168.44h20.22M69.05 175.7h20.22" stroke-linecap="round"/>
        <path stroke="#E1F2FF" stroke-width="2" d="M200.5 129.4h-20.37M58.22 129.4h-13.4M184 195.97v-14.25" stroke-linecap="round"/>
        <text fill="#375D81" font-family="Lato-Black, Lato" font-size="18" font-weight="700">
            <tspan x="121.84" y="165.05">ASSET</tspan>
        </text>
    </g>
</svg>