<svg xmlns="http://www.w3.org/2000/svg" width="256" height="256">
  <g fill="none" fill-rule="evenodd" transform="translate(3 22)">
    <path fill="#E1F2FF" fill-rule="nonzero" d="M5.33 210.37c0-66.13 53.6-119.74 119.74-119.74 66.13 0 119.74 53.6 119.74 119.74H5.34z"/>
    <path fill="#FFF" fill-rule="nonzero" stroke="#375D81" stroke-width="2" d="M16.98 201.37h36" stroke-linecap="round" stroke-linejoin="round"/>
    <rect width="115.03" height="166.79" x="112.37" y="34.58" fill="#FFF" fill-rule="nonzero" stroke="#9ACDED" stroke-width="2" rx="2.25"/>
    <path fill="#E1F2FF" fill-rule="nonzero" d="M121.45 182.2l99.16 6.9V48.25l-100.3-4.6"/>
    <circle cx="166.62" cy="87.16" r="22.12" fill="#FFF" fill-rule="nonzero"/>
    <circle cx="169.31" cy="82.69" r="22.12" fill="#FFF" fill-rule="nonzero" stroke="#9ACDED" stroke-width="2"/>
    <path fill="#9452BA" fill-rule="nonzero" d="M174.8 93.6l.2.53c-.62-6 2.8-8.54 3.9-12.54v-.2c0-.1.03-.2.04-.28.07-1.34-.34-2.67-1.15-3.74l-.2-.38-.45-.62v-.06l-.13-.17-.14-.17-.14-.17-.15-.16-.12-.12c-1.48-1.65-3.14-3.14-4.94-4.43.25 2.1.27 4.23.06 6.34-.35 2.43-1.07 4.8-2.13 7-2.46-.18-4.87-.74-7.16-1.66-1.93-.87-3.77-1.95-5.48-3.22 0 .2 0 .37.06.56v.17c0 .12 0 .26.05.4v.17l.06.4v.16c0 .17.05.34.08.5 0 .2.07.4.1.58l.12.53v.1l.1.47v.1l.14.52c.15.57.32 1.1.5 1.64.26.82.6 1.62 1 2.4l.16.3.16.25.18.28.24.32.28.33.2.2.1.1.12.1.1.1.13.1.1.06.14.08.1.06.14.08.1.05.16.07h.08l.25.08.15.05c4 1.06 7.94-.62 12.86 2.9"/>
    <path fill="#FFF" fill-rule="nonzero" stroke="#9ACDED" stroke-width="2" d="M140.55 130.4h57.02M140.55 148.8h57.02M140.55 167.8h57.02" stroke-linecap="round" stroke-linejoin="round"/>
    <rect width="121.65" height="176.39" x="85.69" y="24.98" fill="#FFF" fill-rule="nonzero" stroke="#9ACDED" stroke-width="2" rx="2.25"/>
    <path fill="#E1F2FF" fill-rule="nonzero" d="M95.3 181.1l104.86 7.3V39.44L94.08 34.58"/>
    <circle cx="143.06" cy="80.59" r="23.39" fill="#FFF" fill-rule="nonzero"/>
    <circle cx="145.9" cy="75.87" r="23.39" fill="#FFF" fill-rule="nonzero" stroke="#9ACDED" stroke-width="2"/>
    <path fill="#9452BA" fill-rule="nonzero" d="M151.7 87.4c.1.3.2.5.22.56-.66-6.37 3-9 4.12-13.26v-.2l.06-.3c.08-1.44-.35-2.85-1.22-4l-.24-.35c-.15-.22-.3-.43-.48-.65l-.05-.07-.1-.13-.15-.18-.15-.18-.15-.18-.1-.13c-1.58-1.75-3.33-3.32-5.24-4.68.27 2.23.3 4.48.07 6.7-.37 2.58-1.14 5.07-2.27 7.4-2.6-.2-5.14-.78-7.55-1.75-2.05-.92-4-2.06-5.8-3.4 0 .2 0 .4.07.6v.18c0 .14 0 .28.06.42v.2l.07.42v.17c0 .17.06.35.1.52v.05c0 .2.07.4.1.6l.12.56v.1l.1.5v.1l.15.56c.16.6.33 1.17.52 1.72.3.87.66 1.7 1.1 2.52l.17.32.18.28.2.28.24.34v.05l.3.36.22.22.1.1.13.1.1.1.14.1.12.1.14.1.1.06.16.08.1.05.17.08h.08l.26.1.16.04c4.26 1.1 8.4-.67 13.6 3.05"/>
    <path fill="#FFF" fill-rule="nonzero" stroke="#9ACDED" stroke-width="2" d="M116.18 126.33h60.3M116.18 145.77h60.3M116.18 165.86h60.3" stroke-linecap="round" stroke-linejoin="round"/>
    <path fill="#9452BA" fill-rule="nonzero" stroke="#52267D" stroke-width="2" d="M73.22 201h5c1.72 0 3.26-1.04 3.9-2.64 1.76-4.55 1.32-8.73 1.53-12.3C84 179.4 83 176 82 170.47l-7.47.17s.64 2.75 1.06 11c.12 2.56-4.1 12.82-3.9 17.85.02.83.7 1.5 1.52 1.5zM58.73 177.33l-6-6.82-3.7.16-.74 8c-.68 5.4-1.74 10.75-3.2 16-.3 1.06-.52 2.15-.6 3.26 0 .8.3 1.57.87 2.14.57.57 1.34.88 2.14.86h4.42c2.57 0 4.82-1.7 5.48-4.2 1.92-7.72 1.33-19.4 1.33-19.4z"/>
    <path stroke="#52267D" stroke-width=".5" d="M50.28 182.03l-1 .87.95.85 1.55-.6-.3-.67-1.3.3.02.24.33-.02"/>
    <path fill="#9452BA" fill-rule="nonzero" stroke="#52267D" stroke-width="2" d="M50.3 151.94c4.4-.1 8.5-3.1 17.43-3.52.1-.53.27-1.05.5-1.54 1.6-3.5 3.9-13.6 2.42-20.22l-1.16-5.25c-.4-1.7-.58-3.47-.58-5.23 0-.72.07-1.44.22-2.14.03-.17.07-.34.12-.5.13-.52.3-1 .5-1.5l.2-.46c.16-.3.32-.6.5-.9.18-.3.37-.58.57-.85.6-.82 1.34-1.55 2.16-2.16.26-.2.55-.4.84-.57 1.66-1.02 3.57-1.55 5.52-1.55h1.74c2.82 0 5.53 1.12 7.52 3.12.24.24.47.5.7.76.38.48.74 1 1.04 1.53.12.2.23.4.33.62.1.2.14.3.2.47.4.97.67 2 .78 3.05.04.36.05.73.05 1.1 0 1.45-1.2 2.64-2.65 2.64h-10.9l1.62 9.43c1.93 9.7 1.35 16.2-.15 20.53-.33 1-2.24 4.4-2.24 4.4 5.46 8.58 13.8 12.34 22.74 13.43 7.6.93 24-6 15.53-14s1.76-3 3.26-2c1.5 1 10.2 8.52.76 19.54-4 4.66-8.52 8.9-19.38 12.14-1.74.53-11.25 1.22-16.38 2.7-15.25 4.37-27.64-.4-34.6-10.46-6.94-10.07-.96-22.54.77-22.6z"/>
    <path fill="#9452BA" fill-rule="nonzero" stroke="#52267D" stroke-width="2" d="M59.77 137.47c.35-11.26-8.6-20.1-18.74-22-2.1-.4-2.8-1-5.1-1h-1.77c-5.95 0-10.78 4.83-10.78 10.78 0 1.5 1.2 2.7 2.7 2.7h18.2c4 1.7 6.5 6.8 6.93 9.56.66 3.3.24 6.7-1.2 9.73-.78 1.74-1.07 3.65-.85 5.54h.1c.08 1.05.24 2.1.48 3.12 1.7-1.2 4.36-3 4.84-3.24 1-.55 3.4-1.8 4.47-2.42 6.8-3.84.53-6.37.73-12.77z"/>
    <path fill="#F3E3FF" fill-rule="nonzero" stroke="#52267D" d="M54 150.48c-.1-1.74-.35-2.63-.16-3.34 1.12-4.07 1.5-5.36 1.5-9.67-.1-4.4-2.42-8.45-6.16-10.77-1.73-.23-3.48.2-4.9 1.2 4 1.7 6.5 6.82 6.93 9.57.67 3.3.24 6.72-1.2 9.76-.78 1.74-1.07 3.65-.85 5.54 0 0 4.92 1.85 4.8-2.3"/>
    <path fill="#FFF" fill-rule="nonzero" stroke="#52267D" d="M28.5 116.27c.06-1.17.8-2.2 1.87-2.63L32 113s1.1 2.36-.15 2.95c-1.04.5-2.23.63-3.35.32zM33.2 114.95c.08-1.58 1.34-2.85 2.92-2.95.54-.07 1.94 0 1.94 0s.65 2.7-.87 3c-1.34.17-2.7.15-4-.05zM38.92 115.2s.38-2.85 2.93-2.07c.67.2 1.26.6 1.7 1.16 0 0-.55 2.16-1.55 1.92-1.05-.26-2.08-.6-3.08-1.03zM46.34 129s6-3.24 4.82-8.7c1.32 1.14 2.55 2.37 3.68 3.7 0 1.07.2 5.3-5.65 8.14-.9-1.1-1.84-2.16-2.86-3.14z"/>
    <path fill="#F3E3FF" fill-rule="nonzero" d="M29.06 116c.03-.68.46-1.28 1.1-1.53l.93-.38s.64 1.36-.1 1.7c-.6.3-1.3.37-1.94.2zM34 114.6c.06-.93.8-1.67 1.72-1.73h1.14s.38 1.6-.5 1.74c-.8.1-1.58.1-2.36 0zM39.55 115.1s.22-1.67 1.74-1.2c.38.12.73.36 1 .68 0 0-.3 1.28-.9 1.14-.64-.15-1.25-.36-1.85-.6z"/>
    <path fill="#F3E3FF" fill-rule="nonzero" d="M37.83 121.13h.48c1.38 0 2.5 1.1 2.5 2.48s-1.12 2.5-2.5 2.5h-5.44c.02-2.74 2.24-4.95 4.97-4.97z" opacity=".3"/>
    <path fill="#FFF" fill-rule="nonzero" stroke="#52267D" d="M36.86 122.1h1c1.1 0 2 .9 2 2s-.9 2-2 2H33c-.03-1.04.37-2.06 1.1-2.8.72-.76 1.72-1.2 2.76-1.2z"/>
    <circle cx="34.93" cy="124" r="1.09" fill="#52267D" fill-rule="nonzero"/>
    <path fill="#52267D" fill-rule="nonzero" d="M25.82 127.08c.3-.07.58-.24.78-.5l.37-.45-.8.17-.5.1c-.08.02-.16.07-.2.15-.05.08-.07.17-.05.26.02.1.07.18.14.23.08.05.17.07.26.05z"/>
    <path fill="#EAF3FB" fill-rule="nonzero" d="M47.35 129.1s4.6-2.46 4.52-7.44c.97.62 1.82 1.4 2.5 2.34-.2 1.3-.68 2.5-1.45 3.56-1.7 1.86-3.46 2.44-5.57 1.55z"/>
    <path fill="#FFF" fill-rule="nonzero" stroke="#52267D" d="M51.7 128.23c-1.07 1.08-2.27 2.02-3.58 2.77"/>
    <path fill="#9452BA" fill-rule="nonzero" stroke="#52267D" stroke-width="2" d="M69.68 147.58l-1-2c-3.82-9.38-4.4-14.9-2.43-23.84l1.16-5.25c.4-1.73.58-3.5.58-5.25 0-2.83-1.12-5.54-3.12-7.53-2-2-4.7-3.12-7.53-3.12H55.6c-5.78 0-10.48 4.7-10.48 10.5v.3c0 1.37 1.12 2.5 2.5 2.5H58.5l-1.66 9.44c-5 25.33-4.54 35.6 5.4 33.5"/>
    <path fill="#FFF" fill-rule="nonzero" stroke="#52267D" d="M50.36 101.86c.16-1.15.92-2.14 2-2.58.47-.12.96-.12 1.43 0 0 0 1.05 1.65-.2 2.24-1 .5-2.15.62-3.24.34zM54.72 101.25c.1-1.8 1.54-3.22 3.33-3.33.46-.04.93-.04 1.4 0 0 0 1.53 3.05-.2 3.35-1.5.2-3.02.2-4.53-.02zM60.57 101.9s.43-2.77 2.93-1.9c.65.23 1.2.64 1.63 1.18 0 0-.55 2.1-1.54 1.84-1.05-.28-2.06-.66-3.03-1.1z"/>
    <path fill="#F3E3FF" fill-rule="nonzero" stroke="#52267D" d="M50.54 151.6c.53-.4 1.14-.7 1.8-.86M54.14 151.55c-1.78-7.22 1.43-21 2-24.43l2.33-13.62h1c.64.06 1.23.4 1.62.9.4.5.56 1.15.46 1.8L59.92 128c-.57 4-1.17 22.5 5.78 26.5 1.48.84 3.9.28 4.8-.15 3.3-1.58 4.25-5.7 5-9 1.5-6.87.33-12.26 0-17.65l-.37-6.7c-.08-1.27.85-2.38 2.12-2.5h1.24l2.23 13.6c.67 3.9 2.4 17.33-5.52 23.64-.13.1 1.94.58 1.34 1.64-2.38 4.2-9.3 4.88-10.6 6.68-5 6.94-.3 21.74-.3 21.74-3.25-1.32-6.28-3.1-9-5.3-8-7.2-9.08-17.66-9.12-20.73 0-3.68.92-6 2.1-7.32"/>
    <path fill="#FFF" fill-rule="nonzero" stroke="#52267D" d="M119.45 157.57c.7-.84.9-1.98.5-3-.2-.4-.52-.75-.9-1 0 0-1.78.3-1.4 1.5.26 1.04.9 1.92 1.8 2.5z"/>
    <path fill="#F3E3FF" fill-rule="nonzero" d="M119.08 155.8c.23-.27.3-.65.18-1-.07-.13-.2-.25-.32-.33 0 0-.62.1-.5.53.12.34.34.62.64.8z"/>
    <path fill="#FFF" fill-rule="nonzero" stroke="#52267D" d="M110.1 166.64c-.6-1.55.03-3.32 1.5-4.1.37-.23.76-.42 1.17-.57 0 0 2.5 2 1.16 2.9-1.2.76-2.5 1.36-3.84 1.77z"/>
    <path fill="#F3E3FF" fill-rule="nonzero" d="M111 165.7c-.34-.85.02-1.83.84-2.27.2-.12.42-.23.65-.3 0 0 1.37 1.08.63 1.6-.66.42-1.38.75-2.13.98z"/>
    <path fill="#FFF" fill-rule="nonzero" stroke="#52267D" d="M118 158.53s1.88 1.65.08 3.13c-.48.38-1.06.62-1.67.67 0 0-1.32-1.42-.65-2 .7-.66 1.45-1.26 2.25-1.8z"/>
    <path fill="#F3E3FF" fill-rule="nonzero" d="M117.74 159.7s.83.73 0 1.4c-.2.16-.47.27-.74.3 0 0-.6-.64-.3-.9.33-.3.67-.57 1.04-.8z"/>
    <path fill="#FFF" fill-rule="nonzero" stroke="#52267D" d="M101.07 167.94c-.34-1.35.47-2.72 1.8-3.08 2.44-.88 3.1-.15 3.1-.15s1.33 2.27.13 3c-1.2.75-5.03.24-5.03.24z"/>
    <path fill="#F3E3FF" fill-rule="nonzero" d="M102.2 167.44c-.16-.7.25-1.4.95-1.6 1.26-.46 1.6-.08 1.6-.08s.7 1.17.07 1.55c-.85.23-1.74.28-2.6.14z"/>
    <path fill="#FFF" fill-rule="nonzero" stroke="#52267D" d="M58 116.82c2.94 1.35 6.32 1.43 9.32.2l-1.14 5.1s-5 1.54-8.94-.9c.37-2.22.76-4.4.76-4.4zM86.94 107c-.16-1.16-.92-2.15-2-2.6-.68-.17-1.38-.27-2.08-.3 0 0-.43 2 .82 2.56 1 .5 2.17.62 3.26.34zM82.26 106c-.1-1.56-1.34-2.8-2.9-2.9-.4-.03-.8-.03-1.2 0 0 0-1.35 2.66.15 2.92 1.32.17 2.65.17 3.96-.02zM76.87 106.22s-.45-2.8-2.95-2c-.66.23-1.23.64-1.65 1.2 0 0 .56 2.1 1.55 1.85 1.04-.26 2.06-.62 3.05-1.05z"/>
    <path fill="#F3E3FF" fill-rule="nonzero" d="M51.2 101.47c.1-.66.52-1.22 1.14-1.47.27-.07.54-.07.8 0 0 0 .6.93-.1 1.26-.56.3-1.22.37-1.84.2zM55.64 100.86c.07-1.18 1-2.12 2.2-2.2.3-.02.6-.02.9 0 0 0 1 2-.12 2.2-1 .14-2 .14-2.98 0zM61.37 101.74s.28-1.77 1.86-1.24c.4.15.75.4 1 .75 0 0-.35 1.34-1 1.17-.64-.18-1.26-.4-1.86-.68zM86.15 106.6c-.1-.66-.53-1.22-1.15-1.46-.38-.1-.77-.15-1.16-.16 0 0-.24 1.1.46 1.42.57.3 1.23.36 1.85.2zM81.28 105.67c-.06-.9-.78-1.62-1.68-1.67-.23-.02-.47-.02-.7 0 0 0-.78 1.54.1 1.7.75.1 1.52.08 2.28-.03zM76.08 106.1s-.26-1.64-1.74-1.15c-.4.13-.74.37-1 .7 0 0 .33 1.26.92 1.1.62-.16 1.23-.38 1.82-.64z"/>
    <path fill="#FFF" fill-rule="nonzero" stroke="#52267D" d="M69.54 121.62c3.12.42 6.28.3 9.36-.37.44 2.48.73 4.35.73 4.35s-3.16 2.15-9 .9c-.7-3.18-1.1-4.88-1.1-4.88z"/>
    <path fill="#F3E3FF" fill-rule="nonzero" d="M82.9 116.8h-6.65c-.7 0-1.28-.57-1.28-1.28v-2.4c0-.7.57-1.28 1.28-1.28h4.56c1.17 0 2.1.94 2.1 2.1v2.86z" opacity=".3"/>
    <path fill="#FFF" fill-rule="nonzero" stroke="#52267D" d="M82.8 116.7h-5.84c-.55 0-1-.44-1-1v-1.88c0-.55.45-1 1-1h3.84c1.1 0 2 .9 2 2v1.9z"/>
    <circle cx="80.85" cy="115.55" r="1.09" fill="#52267D" fill-rule="nonzero"/>
    <path fill="#F3E3FF" fill-rule="nonzero" d="M58.15 107.13h.48c1.37 0 2.48 1.1 2.48 2.48 0 .67-.25 1.3-.72 1.76-.46.47-1.1.73-1.75.73h-5.45c.02-2.74 2.24-4.95 4.97-4.97z" opacity=".3"/>
    <path fill="#FFF" fill-rule="nonzero" stroke="#52267D" d="M57.18 108.1h1c1.1 0 2 .9 2 2s-.9 2-2 2h-4.9c0-1.03.4-2.03 1.14-2.76.73-.73 1.73-1.14 2.76-1.14v-.1z"/>
    <circle cx="55.25" cy="110.85" r="1.09" fill="#52267D" fill-rule="nonzero"/>
    <path fill="#52267D" fill-rule="nonzero" d="M89.48 117.94c-.3-.07-.58-.24-.78-.5l-.37-.45.8.16.5.1c.08.02.16.07.2.15.05.1.07.18.05.27-.02.1-.07.17-.14.22-.08.04-.17.06-.26.04zM47.47 112.84c.3-.07.58-.24.78-.5l.37-.45-.8.16-.5.1c-.08.02-.16.07-.2.15-.05.1-.07.18-.05.27.02.1.07.17.14.22.1.04.18.06.27.04z"/>
    <path fill="#EAF3FB" fill-rule="nonzero" d="M58.43 117.53c2.6 1 5.5 1.06 8.15.15-.2 1.22-.47 2.44-.8 3.63-1.38.1-2.75.03-4.1-.17-2.33-.46-3.25-1.52-3.25-3.6z"/>
    <path fill="#FFF" fill-rule="nonzero" stroke="#52267D" d="M64.08 120.6c-2.25.16-4.5-.24-6.55-1.16"/>
    <path fill="#EAF3FB" fill-rule="nonzero" d="M77.14 122.16c-2.2.6-4.52.72-6.78.4.24 1.05.55 2.08.92 3.1 0 0 4.72-.66 5.86-3.5z"/>
    <path fill="#F3E3FF" fill-rule="nonzero" stroke="#52267D" stroke-width=".5" d="M75.2 155.74s-.2.16-.52.34"/>
    <path fill="#FFF" fill-rule="nonzero" stroke="#52267D" d="M77.5 123.52c-2.48.4-5 .5-7.48.23"/>
    <path fill="#FFF" fill-rule="nonzero" stroke="#52267D" stroke-width=".5" d="M71.55 198.07c-.7-.47-1.66-.36-2.24.27-1.16 1-2 2.44-1.5 2.6.77.2 1.6.25 2.4.1.84-.14 1.58 0 1.92-1.74.1-.5-.14-.98-.57-1.23z"/>
    <path fill="#EAF3FB" fill-rule="nonzero" d="M71.33 198.36c-.44-.3-1.03-.22-1.4.17-.72.6-1.26 1.52-.94 1.6.48.14 1 .17 1.5.08.5-.1 1 0 1.2-1.08.04-.3-.1-.6-.37-.76z"/>
    <path fill="#FFF" fill-rule="nonzero" stroke="#52267D" stroke-width=".5" d="M72.9 198.06c.52-.07 1.25 1 1.17 1.37-.08.37-.14 1.45-1 1.57-.6.1-2.77.3-3.24-.16-.47-.47.45-2.43 3.08-2.78z"/>
    <path fill="#EAF3FB" fill-rule="nonzero" d="M73.05 198.36c.3 0 .73.6.68.8-.05.2-.08.86-.57.93-.5.06-1.63.18-1.9-.1-.3-.28.24-1.43 1.8-1.64z"/>
    <path fill="#FFF" fill-rule="nonzero" stroke="#52267D" stroke-width=".5" d="M75.06 198.27s-.44-.23-1.3.27c-.88.5-1.92 1.14-1.62 2 .3.86 2.73.55 3.26.36.53-.2.86-.73.78-1.3-.1-.6-.53-1.13-1.12-1.33z"/>
    <path fill="#EAF3FB" fill-rule="nonzero" d="M75.22 198.58s-.26-.14-.77.16c-.5.3-1.13.68-1 1.2.13.5 1.6.3 1.93.2.3-.1.5-.42.46-.75-.04-.37-.28-.68-.62-.82z"/>
    <path fill="#9452BA" fill-rule="nonzero" stroke="#52267D" stroke-width="2" d="M64.92 170.46c.24 4.83-.07 9.68-.92 14.44-1.33 8.22-3.7 10.8-3.5 12.93.12 1.65.82 3.16 2.48 3.16h4.92c2.3 0 4.36-1.47 5.1-3.66.77-2.33 1.3-4.74 1.6-7.18.28-3.55.35-7.1.22-10.67M90.25 174.17c-1.6 1.5-2.5 3.62-2.47 5.83 0 2.83 1.66 6.43.62 11.13-.93 4.2-2.77 4.93-2.22 8.7.1.67.7 1.17 1.4 1.16h5.5c2.55 0 4.7-1.85 5.13-4.35.84-5.93.62-11.96-.62-17.8"/>
    <path stroke="#52267D" stroke-width=".5" d="M91.34 180.4l.32-.22 1.05.23-1.16.75-1.4-.68 1.46-1.17.66.22"/>
    <path fill="#FFF" fill-rule="nonzero" stroke="#52267D" d="M61.55 198.07c-.7-.47-1.66-.36-2.24.27-1.16 1-2 2.44-1.5 2.6.77.2 1.6.25 2.4.1.84-.14 1.58 0 1.92-1.74.1-.5-.14-.98-.57-1.23z"/>
    <path fill="#EAF3FB" fill-rule="nonzero" d="M61.33 198.36c-.44-.3-1.03-.22-1.4.17-.72.6-1.26 1.52-.94 1.6.48.14 1 .17 1.5.08.5-.1 1 0 1.2-1.08.04-.3-.1-.6-.37-.76z"/>
    <path stroke="#52267D" stroke-width=".5" d="M69.1 183.5l-1.96.63.26 1.82 2.02.15.94-1.1-1.2-.66-1 .3.63.7"/>
    <g stroke="#F3E3FF" stroke-width=".25" opacity=".3">
      <path d="M26.94 123.48c-.03.2.07.4.24.53.18.12.4.12.6 0 .16-.1.26-.3.23-.52"/>
      <path d="M25.87 123.48c-.03.2.07.4.24.53.2.12.42.12.6 0 .17-.1.27-.3.24-.52"/>
      <path d="M26.4 124c-.03.2.07.4.24.53.18.1.4.1.6 0 .16-.12.26-.32.23-.53M47.47 123c.24.17.56.2.82.06.25-.13.42-.4.42-.7 0-.3-.16-.56-.42-.7"/>
      <path d="M47.72 124.07c.24.17.56.2.82.06.26-.13.43-.4.43-.7 0-.3-.16-.56-.42-.7M72.9 141c0 .4.32.72.72.72.4 0 .72-.32.72-.72M71.46 141c0 .4.32.72.72.72.4 0 .72-.32.72-.72"/>
      <path d="M72.18 141.7c0 .26.14.5.36.62.22.13.5.13.72 0 .22-.13.36-.36.36-.62M51.43 186.5c0 .4.32.73.72.73.4 0 .72-.32.72-.72"/>
      <path d="M50 186.5c0 .4.32.73.72.73.4 0 .72-.32.72-.72M50.7 187.23c0 .4.33.72.73.72.4 0 .72-.32.72-.72M71.78 118.08c0 .44.35.8.8.8.43 0 .78-.36.78-.8"/>
      <path d="M71 118.87c0 .44.35.8.8.8.43 0 .78-.36.78-.8M61.7 132c.1.43.5.72.95.72.44 0 .84-.3.96-.72M60.73 133c.12.43.52.72.96.72.43 0 .83-.3.95-.72M47.75 108.17c0 .35.3.64.64.64s.63-.28.63-.63"/>
      <path d="M47.1 108.8c0 .36.3.65.65.65.35 0 .64-.3.64-.64M108.16 172.87c.28.3.75.34 1.06.06.32-.27.35-.75.07-1.06"/>
      <path d="M108.07 173.9c.18.2.45.3.72.25.25-.05.47-.25.55-.5.1-.26.03-.54-.15-.74M78.8 162.67c.2.4.7.57 1.12.38.4-.2.6-.67.45-1.1M77.2 163.4c.23.4.72.56 1.14.37.4-.2.6-.67.45-1.1M78.36 163.82c.12.3.4.52.7.56.33.03.65-.1.83-.38.18-.27.2-.6.04-.9"/>
      <path d="M76.78 164.54c.22.4.7.57 1.13.38.42-.2.62-.67.46-1.1M79.5 164.25c.23.4.72.57 1.14.38.4-.2.6-.67.45-1.1M63.7 114.65c0 .48.38.88.86.88.5 0 .88-.4.88-.88M63.4 147.7c0 .5.38.9.87.9.48 0 .87-.4.87-.9M73.3 129.5c0 .36.3.66.67.66.36 0 .66-.3.66-.67M89.08 114.43c0 .28.22.5.5.5s.5-.22.5-.5M93.22 187.53c.05.3.27.56.56.67.3.1.62.05.86-.15s.35-.5.3-.82M69.06 194c.1.44.5.76.97.76.46 0 .86-.32.97-.76M68.1 194.93c-.12.4.03.85.38 1.1.35.24.8.24 1.16 0 .35-.25.5-.7.38-1.1"/>
    </g>
    <path fill="#FFF" fill-rule="nonzero" stroke="#52267D" d="M62.92 198.06c.5-.07 1.24 1 1.16 1.37-.08.37-.14 1.45-1 1.57-.6.1-2.77.3-3.24-.16-.47-.47.45-2.43 3.08-2.78z"/>
    <path fill="#EAF3FB" fill-rule="nonzero" d="M63.06 198.36c.3 0 .73.6.68.8-.05.2-.08.86-.57.93-.5.06-1.63.18-1.9-.1-.3-.28.24-1.43 1.8-1.64z"/>
    <path fill="#FFF" fill-rule="nonzero" stroke="#52267D" d="M64.72 198.6s-.4-.2-1.16.24c-.77.44-1.7 1-1.42 1.78.27.78 2.4.48 2.9.32.46-.17.75-.64.68-1.14-.08-.56-.47-1.02-1-1.2z"/>
    <path fill="#EAF3FB" fill-rule="nonzero" d="M64.87 198.87s-.23-.12-.68.14c-.46.27-1 .6-.85 1.06.16.45 1.43.3 1.7.2.3-.1.46-.4.42-.68-.05-.33-.28-.6-.6-.7z"/>
    <path fill="#FFF" fill-rule="nonzero" stroke="#52267D" d="M44.44 198.8s-.4-.2-1.16.25c-.77.44-1.7 1-1.42 1.78.27.78 2.4.48 2.9.32.46-.17.75-.64.68-1.14-.08-.55-.47-1-1-1.2z"/>
    <path fill="#EAF3FB" fill-rule="nonzero" d="M44.6 199.1s-.24-.13-.7.13c-.44.26-1 .6-.83 1.05.16.45 1.43.3 1.7.2.3-.1.46-.4.42-.68-.06-.33-.3-.6-.6-.7z"/>
    <path fill="#FFF" fill-rule="nonzero" stroke="#52267D" d="M46.8 198.27c.5-.07 1.23 1 1.15 1.37-.08.37-.14 1.45-1 1.57-.6.1-2.77.32-3.24-.15-.46-.47.46-2.43 3.1-2.78z"/>
    <path fill="#EAF3FB" fill-rule="nonzero" d="M46.93 198.58c.3 0 .73.6.68.8-.04.2-.07.86-.56.93-.5.08-1.63.2-1.9-.08-.3-.28.24-1.44 1.8-1.64z"/>
    <path fill="#FFF" fill-rule="nonzero" stroke="#52267D" stroke-width=".5" d="M88.28 198.07c-.7-.47-1.66-.36-2.24.27-1.17 1-2 2.44-1.52 2.6.78.2 1.6.25 2.4.1.85-.14 1.6 0 1.93-1.74.1-.5-.14-.98-.57-1.23z"/>
    <path fill="#EAF3FB" fill-rule="nonzero" d="M88.06 198.36c-.44-.3-1.03-.22-1.4.17-.72.6-1.26 1.52-.94 1.6.5.14 1 .17 1.5.08.52-.1 1 0 1.2-1.08.05-.3-.1-.6-.36-.76z"/>
    <path fill="#FFF" fill-rule="nonzero" stroke="#52267D" stroke-width=".5" d="M89.65 198.06c.5-.07 1.24 1 1.16 1.37-.07.37-.13 1.45-1 1.57-.6.1-2.76.3-3.23-.16-.47-.47.43-2.43 3.08-2.78z"/>
    <path fill="#EAF3FB" fill-rule="nonzero" d="M89.8 198.36c.3 0 .72.6.67.8-.05.2-.08.86-.57.93-.5.06-1.63.18-1.9-.1-.3-.28.24-1.43 1.8-1.64z"/>
    <path fill="#FFF" fill-rule="nonzero" stroke="#52267D" stroke-width=".5" d="M91.45 198.6s-.4-.2-1.16.24c-.78.44-1.7 1-1.43 1.78s2.4.48 2.9.32c.46-.17.75-.64.68-1.14-.08-.56-.47-1.02-1-1.2z"/>
    <path fill="#EAF3FB" fill-rule="nonzero" d="M91.6 198.87s-.23-.12-.68.14c-.45.27-1 .6-.84 1.06.16.45 1.43.3 1.7.2.3-.1.46-.4.42-.68-.05-.33-.28-.6-.6-.7z"/>
    <path fill="#FFF" fill-rule="nonzero" stroke="#52267D" d="M53.46 198.74c.13-.13.34-.17.5-.1.6.28 2.07 1.06 1.76 2.12-.24.82-.74.58-1.7.6h-.73c-.16 0-.3-.1-.38-.22-.4-.8-.2-1.78.5-2.37l.04-.03z"/>
    <path fill="#EAF3FB" fill-rule="nonzero" d="M53.53 199c.1-.1.24-.12.37-.07.42.2 1.5.77 1.27 1.54-.17.6-.54.42-1.24.43h-.53c-.1 0-.2-.05-.27-.15-.3-.6-.14-1.32.37-1.75h.03z"/>
    <path fill="#FFF" fill-rule="nonzero" stroke="#52267D" d="M50 198.43c-.67-.53-1.62-.5-2.25.08-1.24.87-2.24 2.27-1.74 2.46.77.28 1.6.4 2.4.32.85-.08 1.58.14 2.06-1.58.13-.48-.06-.98-.46-1.27z"/>
    <path fill="#EAF3FB" fill-rule="nonzero" d="M49.8 198.7c-.4-.35-1-.35-1.4 0-.76.52-1.4 1.4-1.07 1.5.48.2.98.25 1.5.2.52-.04 1 .1 1.27-1 .05-.27-.06-.55-.3-.7z"/>
    <rect width="128.64" height="186.53" x="57.44" y="14.84" fill="#FFF" fill-rule="nonzero" stroke="#375D81" stroke-width="2" rx="2.25"/>
    <path fill="#EFEFF6" fill-rule="nonzero" d="M177.2 179.93l-110.9 7.72V30.13l112.2-5.15"/>
    <circle cx="118.12" cy="73.65" r="24.73" fill="#FFF" fill-rule="nonzero"/>
    <circle cx="121.12" cy="68.65" r="24.73" fill="#FFF" fill-rule="nonzero" stroke="#375D81" stroke-width="2"/>
    <path fill="#9452BA" fill-rule="nonzero" d="M127.27 80.84l.22.6c-.7-6.75 3.1-9.56 4.34-14v-.23l.06-.3c.07-1.5-.38-2.98-1.3-4.18l-.24-.37-.5-.7-.05-.06-.14-.2-.15-.2-.15-.18-.16-.2-.13-.14c-1.65-1.86-3.5-3.54-5.53-5 .28 2.36.3 4.74.07 7.1-.37 2.73-1.18 5.38-2.37 7.87-2.75-.2-5.44-.83-8-1.86-2.17-.98-4.23-2.2-6.14-3.6 0 .2 0 .4.06.62v.2c0 .14 0 .3.06.44.06.15 0 .14 0 .2l.07.46v.18c0 .2.05.38.1.56v.06c0 .22.07.43.1.65l.13.58v.12l.12.52v.1c0 .2.1.4.15.6.17.62.35 1.23.55 1.82.3.92.7 1.8 1.15 2.67l.2.33.17.3.2.3.26.35v.06c.1.13.2.25.32.37l.23.25.1.1.15.12.1.1.15.1.1.08.16.1.1.07.17.1.12.05.18.08h.1l.27.1.17.05c4.5 1.2 8.88-.7 14.38 3.23"/>
    <path fill="#FFF" fill-rule="nonzero" stroke="#375D81" stroke-width="2" d="M90.53 122.37h63.77M90 142.57h63.77M90 163.82h63.77" stroke-linecap="round" stroke-linejoin="round"/>
    <path stroke="#375D81" stroke-width="2" d="M216.7 0v7M220.2 3.5h-7" stroke-linecap="round" stroke-linejoin="round"/>
    <path stroke="#375D81" d="M10.22 157.73v3.94M12.2 159.7H8.24" stroke-linecap="round"/>
    <path stroke="#375D81" d="M238.3 139v3.95M240.26 140.98h-3.94" stroke-linecap="round" stroke-linejoin="round"/>
    <path stroke="#375D81" d="M39.8 23v3.95M41.77 24.98h-3.94" stroke-linecap="round"/>
    <path fill="#FFF" fill-rule="nonzero" stroke="#375D81" stroke-width="2" d="M22.35 69.58v8.13M26.4 73.65h-8.1" stroke-linecap="round"/>
    <path fill="#FFF" fill-rule="nonzero" stroke="#375D81" stroke-width="2" d="M92.38 210.45h67.2M168.2 210.45h9.13M84.5 210.37l-5 .08M192.32 201.37h44M243.17 201.13h6.97M0 201.13h8.97" stroke-linecap="round" stroke-linejoin="round"/>
  </g>
</svg>