<svg xmlns="http://www.w3.org/2000/svg" width="256" height="256">
  <g fill="none" fill-rule="evenodd" transform="translate(3 18)">
    <path fill="#E1F2FF" fill-rule="nonzero" d="M20.2 219.65c0-37 19.74-71.2 51.78-89.7 32.04-18.48 71.52-18.48 103.56 0 32.04 18.5 51.78 52.7 51.78 89.7H20.2z"/>
    <path fill="#FFF" fill-rule="nonzero" stroke="#375D81" stroke-width="2" d="M16.98 210.65h36M192.32 210.65h44" stroke-linecap="round" stroke-linejoin="round"/>
    <path fill="#9452BA" fill-rule="nonzero" stroke="#52267D" d="M85.43 210.28h-5c-1.72 0-3.26-1.04-3.9-2.64-1.76-4.55-1.32-8.73-1.53-12.3-.4-6.64.64-10 1.63-15.57l7.47.17s-.64 2.75-1.06 11c-.13 2.56 4.1 12.82 3.9 17.85-.03.8-.7 1.46-1.5 1.48zM99.93 186.6l6-6.8 3.7.14.74 8c.67 5.4 1.73 10.75 3.18 16 .32 1.06.53 2.15.6 3.26.02.8-.3 1.57-.86 2.14-.58.57-1.35.88-2.15.86h-4.4c-2.58 0-4.83-1.7-5.5-4.2-1.92-7.68-1.32-19.4-1.32-19.4z"/>
    <path stroke="#52267D" stroke-width=".25" d="M108.38 191.3l1 .88-.96.86-1.54-.6.3-.67 1.3.3-.02.23-.33-.02"/>
    <path fill="#9452BA" fill-rule="nonzero" stroke="#52267D" stroke-width="2" d="M108.34 161.22c-4.38-.1-8.48-3.1-17.42-3.52-.1-.53-.27-1.05-.5-1.54-1.6-3.5-3.9-13.6-2.42-20.22l1.16-5.25c.38-1.73.57-3.5.57-5.25 0-.72-.07-1.44-.22-2.14-.02-.16-.06-.33-.1-.5-.14-.5-.3-1-.5-1.48l-.22-.47c-.15-.3-.3-.6-.5-.9-.17-.3-.36-.58-.56-.85-.6-.82-1.34-1.55-2.16-2.16-.27-.2-.56-.4-.85-.57-1.65-1-3.56-1.54-5.5-1.54h-1.75c-2.82 0-5.53 1.12-7.52 3.12-.24.24-.47.5-.7.76-.38.5-.74 1-1.04 1.54-.13.2-.24.4-.34.62-.1.2-.15.3-.2.47-.42.97-.68 2-.8 3.05-.03.36-.04.73-.04 1.1 0 1.45 1.2 2.64 2.65 2.64h10.9l-1.66 9.45c-1.92 9.7-1.34 16.2.16 20.53.33 1 2.24 4.4 2.24 4.4-5.45 8.58-13.8 12.34-22.73 13.43-7.6.93-24-6-15.53-14s-1.76-3-3.26-2c-1.5 1-10.2 8.52-.76 19.54 4 4.66 8.5 8.9 19.37 12.14 1.73.53 11.24 1.22 16.37 2.7 15.25 4.37 27.64-.4 34.6-10.46 6.94-10.07 1-22.58-.73-22.62z"/>
    <path fill="#9452BA" fill-rule="nonzero" stroke="#52267D" d="M98.88 146.75c-.35-11.26 8.6-20.1 18.74-22 2.1-.4 2.8-1 5.1-1h1.77c5.94 0 10.77 4.83 10.77 10.78 0 1.5-1.2 2.7-2.7 2.7h-18.2c-4 1.7-6.5 6.8-6.93 9.56-.67 3.28-.26 6.7 1.17 9.75.8 1.74 1.08 3.65.86 5.54h-.1c-.08 1.04-.24 2.08-.48 3.1-1.7-1.18-4.36-3-4.84-3.22-1-.55-3.4-1.8-4.47-2.42-6.76-3.87-.5-6.4-.7-12.8z"/>
    <path fill="#F3E3FF" fill-rule="nonzero" stroke="#52267D" stroke-width=".5" d="M104.65 159.76c.1-1.74.35-2.63.16-3.34-1.1-4.07-1.48-5.36-1.48-9.67.1-4.4 2.42-8.44 6.15-10.75 1.73-.23 3.48.2 4.9 1.2-4 1.7-6.5 6.82-6.93 9.57-.67 3.3-.26 6.72 1.17 9.76.8 1.74 1.08 3.65.86 5.54 0 0-4.92 1.85-4.8-2.3"/>
    <path fill="#FFF" fill-rule="nonzero" stroke="#52267D" stroke-width=".5" d="M130.15 125.56c-.06-1.17-.8-2.2-1.87-2.63l-1.6-.65s-1.12 2.36.14 2.95c1.03.5 2.22.63 3.33.33zM125.47 124.23c-.1-1.58-1.36-2.84-2.94-2.94-.54-.08-1.94 0-1.94 0s-.66 2.7.86 3c1.33.15 2.68.13 4-.07zM119.73 124.48s-.38-2.84-2.93-2.06c-.67.2-1.26.6-1.7 1.16 0 0 .5 2.17 1.52 1.92 1.06-.25 2.1-.6 3.1-1.02zM112.3 138.28s-6-3.24-4.8-8.7c-1.33 1.13-2.56 2.35-3.68 3.66 0 1.07-.2 5.3 5.65 8.14.88-1.1 1.83-2.13 2.84-3.1z"/>
    <path fill="#F3E3FF" fill-rule="nonzero" d="M129.6 125.25c-.03-.68-.46-1.28-1.1-1.53l-.93-.38s-.65 1.37.1 1.72c.6.3 1.28.36 1.93.2zM124.62 123.88c-.06-.92-.8-1.66-1.72-1.72h-1.14s-.38 1.6.5 1.74c.8.1 1.58.1 2.36-.02zM119.1 124.4s-.22-1.7-1.74-1.23c-.4.13-.74.37-1 .7 0 0 .3 1.27.9 1.13.63-.15 1.24-.36 1.84-.6z"/>
    <path fill="#F3E3FF" fill-rule="nonzero" d="M125.8 135.38h-6.66c-.7 0-1.28-.57-1.28-1.28v-2.4c0-.7.57-1.28 1.28-1.28h4.5c1.17 0 2.1.94 2.1 2.1v2.86h.05z" opacity=".3"/>
    <path fill="#FFF" fill-rule="nonzero" stroke="#52267D" stroke-width=".5" d="M125.7 135.3h-5.84c-.55 0-1-.46-1-1v-1.9c0-.55.45-1 1-1h3.82c1.1 0 2 .9 2 2v1.9h.02z"/>
    <circle cx="123.72" cy="133.29" r="1.09" fill="#52267D" fill-rule="nonzero"/>
    <path fill="#52267D" fill-rule="nonzero" d="M132.83 136.37c-.3-.07-.58-.24-.78-.5l-.37-.45.8.17.5.1c.08 0 .16.06.2.14.05.08.07.17.05.26-.02.1-.07.17-.14.22-.1.05-.18.07-.27.05z"/>
    <path fill="#EAF3FB" fill-rule="nonzero" d="M111.3 138.4s-4.58-2.48-4.5-7.46c-1 .62-1.84 1.42-2.52 2.36.2 1.3.68 2.5 1.45 3.56 1.7 1.85 3.46 2.4 5.58 1.53z"/>
    <path fill="#FFF" fill-rule="nonzero" stroke="#52267D" stroke-width=".5" d="M107 137.52c1.06 1.07 2.26 1.98 3.57 2.72"/>
    <path fill="#9452BA" fill-rule="nonzero" stroke="#52267D" d="M89 156.86l1-2c3.8-9.4 4.4-14.86 2.42-23.86l-1.16-5.25c-.38-1.72-.57-3.48-.57-5.24 0-5.87 4.75-10.63 10.63-10.63H103c5.8 0 10.5 4.7 10.5 10.5v.3c0 1.37-1.13 2.5-2.5 2.5h-10.84l1.65 9.44c5 25.34 4.55 35.6-5.38 33.5"/>
    <path fill="#FFF" fill-rule="nonzero" stroke="#52267D" stroke-width=".5" d="M108.3 111.14c-.17-1.15-.93-2.14-2-2.58-.48-.12-.97-.12-1.44 0 0 0-1.06 1.65.18 2.24 1 .5 2.16.62 3.25.34zM103.93 110.53c-.1-1.8-1.54-3.22-3.33-3.33-.46-.04-.93-.04-1.4 0 0 0-1.53 3.05.2 3.35 1.5.2 3.02.2 4.53-.02zM98.08 111.2s-.44-2.8-2.93-1.96c-.65.23-1.2.64-1.63 1.18 0 0 .55 2.1 1.54 1.84 1.03-.27 2.05-.63 3.02-1.07z"/>
    <path fill="#F3E3FF" fill-rule="nonzero" stroke="#52267D" stroke-width=".5" d="M108.1 160.9c-.52-.42-1.13-.7-1.78-.87M104.5 160.83c1.8-7.22-1.42-21-2-24.43l-2.32-13.62h-1c-.66.04-1.27.36-1.7.87-.4.5-.58 1.18-.48 1.83l1.7 11.8c.56 4 1.16 22.52-5.8 26.5-1.47.85-3.88.3-4.8-.14-3.3-1.58-4.24-5.7-5-9-1.5-6.87-.32-12.26 0-17.65l.36-6.75c.08-1.27-.85-2.38-2.12-2.5h-1.18l-2.24 13.6c-.67 3.9-2.4 17.33 5.52 23.64.14.1-1.93.57-1.33 1.63 2.4 4.2 9.3 4.88 10.6 6.68 5 6.95.32 21.75.32 21.75 3.24-1.32 6.27-3.1 9-5.3 8-7.2 9.07-17.66 9.1-20.73 0-3.68-.9-6-2.1-7.32"/>
    <path fill="#FFF" fill-rule="nonzero" stroke="#52267D" d="M39.2 166.86c-.7-.84-.9-1.98-.5-3 .2-.4.52-.75.9-1 0 0 1.78.3 1.4 1.5-.26 1.04-.9 1.92-1.8 2.5z"/>
    <path fill="#F3E3FF" fill-rule="nonzero" d="M39.58 165.1c-.23-.28-.3-.66-.18-1 .07-.14.2-.26.32-.34 0 0 .62.1.5.53-.12.33-.34.6-.64.8z"/>
    <path fill="#FFF" fill-rule="nonzero" stroke="#52267D" d="M48.56 175.92c.6-1.55-.04-3.32-1.5-4.1-.38-.23-.77-.42-1.18-.57 0 0-2.5 2-1.16 2.9 1.2.76 2.5 1.36 3.84 1.77z"/>
    <path fill="#F3E3FF" fill-rule="nonzero" d="M47.66 175c.34-.86-.02-1.84-.84-2.28-.2-.12-.42-.23-.65-.3 0 0-1.38 1.08-.64 1.6.66.42 1.38.75 2.13.98z"/>
    <path fill="#FFF" fill-rule="nonzero" stroke="#52267D" d="M40.64 167.8s-1.88 1.66-.08 3.14c.48.38 1.06.62 1.67.67 0 0 1.33-1.4.66-2-.7-.65-1.46-1.25-2.26-1.8z"/>
    <path fill="#F3E3FF" fill-rule="nonzero" d="M40.92 169s-.83.73 0 1.4c.2.16.47.27.74.3 0 0 .6-.64.3-.9-.33-.3-.67-.57-1.04-.8z"/>
    <path fill="#FFF" fill-rule="nonzero" stroke="#52267D" d="M57.58 177.23c.34-1.35-.47-2.72-1.8-3.08-2.44-.88-3.1-.15-3.1-.15s-1.33 2.26-.13 3c1.2.74 5.03.23 5.03.23z"/>
    <path fill="#F3E3FF" fill-rule="nonzero" d="M56.44 176.73c.17-.7-.24-1.4-.94-1.6-1.26-.46-1.6-.08-1.6-.08s-.7 1.17-.07 1.55c.85.22 1.74.27 2.6.13z"/>
    <path fill="#FFF" fill-rule="nonzero" stroke="#52267D" stroke-width=".5" d="M100.7 126.1c-2.95 1.36-6.33 1.44-9.33.22.37 1.7 1.14 5.08 1.14 5.08s5 1.55 8.95-.9c-.45-2.24-.76-4.4-.76-4.4zM71.7 116.27c.17-1.16.93-2.15 2-2.6.7-.17 1.4-.27 2.1-.3 0 0 .42 2-.83 2.56-1 .5-2.17.62-3.26.34zM76.4 115.32c.08-1.56 1.33-2.8 2.9-2.9.4-.03.8-.03 1.2 0 0 0 1.34 2.66-.16 2.92-1.3.17-2.64.17-3.95-.02zM81.8 115.5s.44-2.8 2.94-2c.66.23 1.23.64 1.65 1.2 0 0-.57 2.1-1.56 1.85-1.04-.26-2.06-.62-3.05-1.05z"/>
    <path fill="#F3E3FF" fill-rule="nonzero" d="M107.45 110.76c-.1-.65-.52-1.2-1.13-1.46-.27-.07-.54-.07-.8 0 0 0-.6.93.1 1.26.56.3 1.2.36 1.83.2zM103 110.14c-.07-1.18-1-2.12-2.2-2.2-.3-.02-.6-.02-.9 0 0 0-1 2 .12 2.2 1 .14 2 .14 2.98 0zM97.28 111s-.28-1.77-1.86-1.24c-.4.15-.75.4-1 .75 0 0 .35 1.35 1 1.18.64-.18 1.26-.4 1.86-.68zM72.5 115.87c.1-.65.53-1.2 1.14-1.45.38-.1.77-.15 1.16-.16 0 0 .24 1.1-.46 1.42-.57.28-1.22.35-1.83.2zM77.38 114.95c.05-.9.78-1.63 1.68-1.68.23-.02.47-.02.7 0 0 0 .78 1.54-.1 1.7-.75.1-1.52.1-2.28-.02zM82.57 115.4s.26-1.66 1.74-1.17c.4.13.75.37 1 .7 0 0-.32 1.26-.9 1.1-.63-.16-1.24-.38-1.83-.64z"/>
    <path fill="#FFF" fill-rule="nonzero" stroke="#52267D" stroke-width=".5" d="M89.12 130.9c-3.12.42-6.28.3-9.36-.37-.44 2.48-.73 4.35-.73 4.35s3.16 2.15 9 .9c.7-3.18 1.1-4.88 1.1-4.88z"/>
    <path fill="#F3E3FF" fill-rule="nonzero" d="M77.84 121.12h4.54c.7 0 1.28.57 1.28 1.28v2.4c0 .7-.57 1.28-1.28 1.28h-6.64v-2.86c0-1.16.94-2.1 2.1-2.1z" opacity=".3"/>
    <path fill="#FFF" fill-rule="nonzero" stroke="#52267D" stroke-width=".5" d="M77.85 122.1h3.82c.55 0 1 .44 1 1v1.9c0 .55-.45 1-1 1h-5.84v-1.9c0-.53.2-1.04.6-1.42.37-.38.88-.6 1.42-.6z"/>
    <circle cx="77.81" cy="124.84" r="1.09" fill="#52267D" fill-rule="nonzero"/>
    <path fill="#F3E3FF" fill-rule="nonzero" d="M105.47 121.38h-6.65c-.7 0-1.28-.57-1.28-1.28v-2.4c0-.34.13-.67.37-.9.25-.25.58-.38.92-.38h4.54c1.16 0 2.1.94 2.1 2.1v2.86z" opacity=".3"/>
    <path fill="#FFF" fill-rule="nonzero" stroke="#52267D" stroke-width=".5" d="M105.38 121.3h-5.84c-.55 0-1-.46-1-1v-1.9c0-.55.45-1 1-1h3.82c1.1 0 2 .9 2 2v1.9h.02z"/>
    <circle cx="103.4" cy="120.13" r="1.09" fill="#52267D" fill-rule="nonzero"/>
    <path fill="#52267D" fill-rule="nonzero" d="M69.18 127.22c.3-.07.58-.24.78-.5l.37-.45-.8.17-.5.1c-.08.02-.16.07-.2.15-.05.07-.07.16-.05.25.02.1.07.17.14.22.08.05.17.07.26.05zM111.18 122.12c-.3-.07-.58-.24-.78-.5l-.37-.45.8.17.5.1c.08.02.16.07.2.15.05.07.07.16.05.25-.02.1-.07.17-.14.22-.08.05-.17.07-.26.05z"/>
    <path fill="#EAF3FB" fill-rule="nonzero" d="M100.23 126.82c-2.6 1-5.5 1.06-8.15.15.2 1.22.47 2.44.8 3.63 1.38.08 2.75.02 4.1-.18 2.33-.42 3.25-1.52 3.25-3.6z"/>
    <path fill="#FFF" fill-rule="nonzero" stroke="#52267D" stroke-width=".5" d="M94.58 129.9c2.25.14 4.5-.26 6.55-1.18"/>
    <path fill="#EAF3FB" fill-rule="nonzero" d="M81.52 131.45c2.2.6 4.52.72 6.78.4-.24 1.05-.55 2.08-.92 3.1 0 0-4.77-.65-5.86-3.5z"/>
    <path fill="#F3E3FF" fill-rule="nonzero" stroke="#52267D" stroke-width=".5" d="M83.45 165s.22.16.53.34"/>
    <path fill="#FFF" fill-rule="nonzero" stroke="#52267D" stroke-width=".5" d="M81.17 132.8c2.47.42 4.98.5 7.47.24M87.1 207.36c.72-.47 1.67-.36 2.25.27 1.17 1 2 2.44 1.52 2.6-.78.2-1.6.25-2.4.1-.85-.14-1.6 0-1.93-1.74-.1-.5.14-1 .57-1.24z"/>
    <path fill="#EAF3FB" fill-rule="nonzero" d="M87.33 207.64c.44-.3 1.03-.22 1.4.17.72.6 1.26 1.53.94 1.62-.5.13-1 .16-1.5.07-.52-.1-1 0-1.2-1.1-.05-.3.1-.6.36-.76z"/>
    <path fill="#FFF" fill-rule="nonzero" stroke="#52267D" stroke-width=".5" d="M85.74 207.34c-.5-.07-1.24 1-1.16 1.37.08.38.14 1.46 1 1.58.6.1 2.77.3 3.24-.16.47-.47-.45-2.43-3.08-2.78z"/>
    <path fill="#EAF3FB" fill-rule="nonzero" d="M85.6 207.65c-.3 0-.73.6-.68.8.05.2.08.86.57.93.48.07 1.62.2 1.9-.1.28-.27-.25-1.43-1.8-1.63z"/>
    <path fill="#FFF" fill-rule="nonzero" stroke="#52267D" stroke-width=".5" d="M83.6 207.55s.43-.23 1.3.27c.87.5 1.9 1.14 1.6 2-.3.86-2.72.55-3.25.36-.53-.2-.86-.73-.78-1.3.1-.6.53-1.13 1.12-1.33z"/>
    <path fill="#EAF3FB" fill-rule="nonzero" d="M83.43 207.86s.26-.14.77.16c.5.3 1.13.68 1 1.2-.13.5-1.6.3-1.93.2-.3-.1-.5-.42-.46-.75.05-.36.3-.67.63-.8z"/>
    <path fill="#9452BA" fill-rule="nonzero" stroke="#52267D" d="M93.73 179.74c-.23 4.84.08 9.68.93 14.45 1.33 8.2 3.7 10.8 3.5 12.92-.12 1.65-.82 3.16-2.48 3.16h-4.93c-2.3 0-4.35-1.48-5.08-3.66-.77-2.33-1.3-4.74-1.6-7.18-.28-3.55-.35-7.1-.22-10.67M68.4 183.46c1.6 1.5 2.5 3.62 2.47 5.83 0 2.82-1.66 6.42-.62 11.12.93 4.2 2.77 4.93 2.22 8.7-.1.67-.7 1.17-1.4 1.16h-5.5c-2.54 0-4.7-1.84-5.12-4.34-.83-5.93-.6-11.96.63-17.8"/>
    <path stroke="#52267D" stroke-width=".25" d="M67.32 189.7l-.32-.24-1.05.24 1.16.74 1.4-.7-1.44-1.15-.66.2"/>
    <path fill="#FFF" fill-rule="nonzero" stroke="#52267D" stroke-width=".5" d="M97.1 207.36c.7-.47 1.66-.36 2.24.27 1.17 1 2 2.44 1.52 2.6-.78.2-1.6.25-2.4.1-.85-.14-1.6 0-1.93-1.74-.1-.5.14-1 .57-1.24z"/>
    <path fill="#EAF3FB" fill-rule="nonzero" d="M97.32 207.64c.44-.3 1.03-.22 1.4.17.72.6 1.26 1.53.94 1.62-.5.13-1 .16-1.5.07-.52-.1-1 0-1.2-1.1-.05-.3.1-.6.36-.76z"/>
    <path stroke="#52267D" stroke-width=".25" d="M89.54 192.8l1.97.6-.25 1.84-2 .14-.95-1.08 1.2-.67 1 .3-.63.7"/>
    <g stroke="#F3E3FF" stroke-width=".25" opacity=".3">
      <path d="M131.7 132.77c.04.2-.06.4-.23.53-.18.1-.4.1-.6 0-.16-.12-.26-.32-.23-.53"/>
      <path d="M132.8 132.77c.02.2-.08.4-.25.53-.18.1-.4.1-.6 0-.16-.12-.26-.32-.23-.53"/>
      <path d="M132.25 133.3c-.04.27-.27.47-.53.47-.27 0-.5-.2-.54-.47M111.18 132.26c-.37.2-.82.07-1.04-.28-.22-.36-.13-.82.2-1.06M110.93 133.35c-.24.17-.56.2-.82.06-.25-.12-.42-.4-.42-.7 0-.28.16-.55.42-.7M85.76 150.26c0 .4-.32.72-.72.72-.4 0-.72-.32-.72-.72"/>
      <path d="M87.2 150.26c0 .4-.33.72-.73.72-.4 0-.72-.32-.72-.72M86.48 151c0 .4-.33.74-.74.74-.4 0-.74-.33-.74-.74M107.22 195.8c0 .4-.32.72-.72.72-.4 0-.72-.32-.72-.72M108.66 195.8c0 .4-.32.72-.72.72-.4 0-.72-.32-.72-.72"/>
      <path d="M107.94 196.5c0 .4-.32.73-.72.73-.4 0-.72-.32-.72-.72M86.87 127.36c0 .44-.35.8-.8.8-.43 0-.78-.36-.78-.8"/>
      <path d="M87.66 128.15c0 .44-.35.8-.8.8-.43 0-.78-.36-.78-.8M97 141.3c.12.42-.03.86-.38 1.1-.35.25-.8.25-1.16 0-.35-.24-.5-.68-.38-1.1"/>
      <path d="M97.92 142.27c-.12.43-.52.72-.96.72-.44 0-.84-.3-.96-.73M110.9 117.45c0 .35-.3.64-.64.64-.35 0-.64-.3-.64-.65"/>
      <path d="M111.54 118.1c0 .34-.3.63-.64.63-.35 0-.64-.3-.64-.64M50.5 182.15c-.28.3-.75.34-1.06.06-.32-.26-.35-.74-.07-1.05"/>
      <path d="M50.58 183.2c-.28.3-.75.34-1.06.06-.32-.27-.35-.75-.07-1.06M79.87 172c-.22.4-.7.57-1.13.38-.4-.2-.6-.67-.45-1.1"/>
      <path d="M81.44 172.67c-.22.4-.7.57-1.13.38-.4-.2-.6-.67-.44-1.1M80.3 173.1c-.22.4-.7.57-1.13.38-.4-.2-.6-.67-.45-1.1"/>
      <path d="M81.87 173.82c-.12.3-.4.52-.7.56-.33.03-.65-.1-.83-.38-.2-.27-.2-.6-.05-.9M79.15 173.53c-.12.3-.4.52-.7.56-.33.02-.65-.12-.83-.4-.2-.26-.2-.6-.05-.9M95 123.94c0 .48-.4.88-.88.88s-.87-.4-.87-.88M95.26 157c0 .48-.4.88-.88.88s-.87-.4-.87-.88M85.35 138.77c0 .37-.3.66-.66.66-.38 0-.68-.3-.68-.66M69.57 123.7c0 .3-.22.5-.5.5s-.5-.2-.5-.5M65.43 196.8c-.08.48-.54.8-1 .72-.48-.08-.8-.54-.72-1M89.6 203.26c.12.4-.03.85-.38 1.1-.35.24-.8.24-1.16 0-.35-.25-.5-.7-.38-1.1"/>
      <path d="M90.56 204.22c.12.4-.03.85-.38 1.1-.35.24-.8.24-1.16 0-.35-.25-.5-.7-.38-1.1"/>
    </g>
    <path fill="#FFF" fill-rule="nonzero" stroke="#52267D" stroke-width=".5" d="M95.74 207.34c-.5-.07-1.24 1-1.16 1.37.08.38.14 1.46 1 1.58.6.1 2.77.3 3.24-.16.47-.47-.46-2.43-3.08-2.78z"/>
    <path fill="#EAF3FB" fill-rule="nonzero" d="M95.6 207.65c-.3 0-.74.6-.7.8.06.2.1.86.58.93.5.07 1.63.2 1.9-.1.3-.27-.23-1.43-1.8-1.63z"/>
    <path fill="#FFF" fill-rule="nonzero" stroke="#52267D" stroke-width=".5" d="M93.93 207.88s.4-.2 1.16.24c.76.44 1.68 1 1.4 1.78-.26.78-2.4.48-2.88.32-.47-.17-.76-.64-.7-1.14.1-.56.48-1.02 1-1.2z"/>
    <path fill="#EAF3FB" fill-rule="nonzero" d="M93.8 208.16s.22-.12.67.14c.45.26 1 .6.84 1.05-.15.45-1.42.3-1.7.2-.28-.1-.45-.4-.4-.68.04-.33.27-.6.6-.7z"/>
    <path fill="#FFF" fill-rule="nonzero" stroke="#52267D" stroke-width=".5" d="M114.2 208.1s.4-.2 1.17.24c.77.44 1.7 1 1.42 1.78s-2.42.48-2.9.32c-.47-.17-.76-.64-.7-1.14.1-.56.48-1.02 1-1.2z"/>
    <path fill="#EAF3FB" fill-rule="nonzero" d="M114.07 208.37s.23-.12.68.14c.45.27 1 .6.84 1.06-.17.45-1.44.3-1.72.2-.28-.1-.45-.4-.4-.68.04-.33.27-.6.6-.7z"/>
    <path fill="#FFF" fill-rule="nonzero" stroke="#52267D" stroke-width=".5" d="M111.87 207.55c-.5-.07-1.24 1-1.16 1.37.1.37.15 1.45 1 1.57.62.08 2.78.3 3.25-.17.47-.47-.46-2.42-3.08-2.78z"/>
    <path fill="#EAF3FB" fill-rule="nonzero" d="M111.72 207.86c-.3 0-.73.6-.68.8.05.2.08.86.57.93.5.06 1.64.18 1.92-.1s-.25-1.43-1.8-1.64z"/>
    <path fill="#FFF" fill-rule="nonzero" stroke="#52267D" stroke-width=".5" d="M70.37 207.36c.7-.47 1.66-.36 2.24.27 1.18 1 2 2.44 1.53 2.6-.78.2-1.6.25-2.4.1-.85-.14-1.6 0-1.93-1.74-.1-.5.14-1 .57-1.24z"/>
    <path fill="#EAF3FB" fill-rule="nonzero" d="M70.6 207.64c.43-.3 1.02-.22 1.38.17.73.6 1.27 1.53.95 1.62-.5.13-1 .16-1.5.07-.52-.1-1 0-1.2-1.1-.05-.3.1-.6.36-.76z"/>
    <path fill="#FFF" fill-rule="nonzero" stroke="#52267D" stroke-width=".5" d="M69 207.34c-.5-.07-1.24 1-1.16 1.37.08.38.14 1.46 1 1.58.6.1 2.77.3 3.24-.16.47-.47-.45-2.43-3.08-2.78z"/>
    <path fill="#EAF3FB" fill-rule="nonzero" d="M68.86 207.65c-.3 0-.73.6-.68.8.05.2.08.86.57.93.5.07 1.63.2 1.9-.1.3-.27-.23-1.43-1.8-1.63z"/>
    <path fill="#FFF" fill-rule="nonzero" stroke="#52267D" stroke-width=".5" d="M67.2 207.88s.4-.2 1.16.24c.77.44 1.7 1 1.42 1.78-.27.78-2.4.48-2.9.32-.46-.17-.75-.64-.68-1.14.08-.56.47-1.02 1-1.2z"/>
    <path fill="#EAF3FB" fill-rule="nonzero" d="M67.06 208.16s.23-.12.68.14c.45.26 1 .6.84 1.05-.16.45-1.43.3-1.7.2-.3-.1-.46-.4-.42-.68.05-.33.28-.6.6-.7z"/>
    <path fill="#FFF" fill-rule="nonzero" stroke="#52267D" stroke-width=".5" d="M105.2 208c-.13-.13-.34-.17-.5-.1-.6.28-2.07 1.06-1.76 2.12.24.82.74.58 1.7.6h.73c.15 0 .3-.1.37-.22.4-.8.2-1.78-.5-2.37l-.04-.03z"/>
    <path fill="#EAF3FB" fill-rule="nonzero" d="M105.12 208.27c-.1-.1-.24-.12-.37-.07-.42.2-1.5.77-1.27 1.54.17.6.54.42 1.24.43h.53c.1 0 .2-.05.27-.15.3-.6.14-1.3-.35-1.72l-.05-.03z"/>
    <path fill="#FFF" fill-rule="nonzero" stroke="#52267D" stroke-width=".5" d="M108.6 207.7c.68-.52 1.63-.48 2.26.1 1.24.85 2.24 2.25 1.74 2.44-.76.28-1.58.4-2.4.32-.84-.08-1.57.14-2.05-1.58-.13-.48.06-.98.46-1.27z"/>
    <path fill="#EAF3FB" fill-rule="nonzero" d="M108.85 208c.4-.34 1-.34 1.4 0 .77.53 1.4 1.4 1.08 1.52-.48.18-.98.24-1.5.2-.52-.05-1 .1-1.27-1-.05-.28.06-.56.3-.72z"/>
    <rect width="128.64" height="186.53" x="59.44" y="24.12" fill="#FFF" fill-rule="nonzero" stroke="#375D81" stroke-width="2" rx="2.25"/>
    <path fill="#EFEFF6" fill-rule="nonzero" d="M179.2 189.22l-110.9 7.72V39.4l112.2-5.13"/>
    <circle cx="120.12" cy="82.93" r="24.73" fill="#FFF" fill-rule="nonzero"/>
    <circle cx="123.12" cy="77.93" r="24.73" fill="#FFF" fill-rule="nonzero" stroke="#375D81" stroke-width="2"/>
    <path fill="#9452BA" fill-rule="nonzero" d="M129.27 90.13l.22.6c-.7-6.75 3.1-9.56 4.34-14v-.23l.06-.3c.1-1.5-.36-3-1.25-4.2l-.25-.37-.5-.7-.05-.06-.15-.2-.15-.18-.16-.2-.17-.2-.12-.14c-1.64-1.86-3.5-3.54-5.52-5 .28 2.36.3 4.74.07 7.1-.38 2.73-1.2 5.38-2.38 7.87-2.75-.2-5.44-.83-8-1.86-2.17-.97-4.23-2.18-6.14-3.6 0 .2 0 .42.07.63v.2c0 .14 0 .3.06.44.06.15 0 .14 0 .2l.07.46v.18c0 .2.06.38.1.56v.06c0 .22.08.43.12.65l.12.58v.12l.12.52v.1c0 .2.1.4.14.6.17.63.35 1.24.55 1.83.3.92.68 1.8 1.14 2.67l.2.34.17.3.2.3.27.36v.06c.1.13.2.25.32.37l.22.23.1.1.15.12.1.1.15.1.1.08.16.1.1.07.17.1.1.05.2.08h.08l.28.1.18.05c4.5 1.2 8.88-.7 14.38 3.23"/>
    <path fill="#FFF" fill-rule="nonzero" stroke="#375D81" stroke-width="2" d="M92.38 131.3h63.76M92.38 151.85h63.76M92.38 173.1h63.76" stroke-linecap="round" stroke-linejoin="round"/>
    <path stroke="#375D81" stroke-width="2" d="M203.98 57.66v7M207.48 61.16h-7" stroke-linecap="round" stroke-linejoin="round"/>
    <path stroke="#375D81" d="M39.73 177.94v3.94M41.7 179.9h-3.94" stroke-linecap="round"/>
    <path stroke="#375D81" d="M214.73 117.94v3.94M216.7 119.9h-3.94" stroke-linecap="round" stroke-linejoin="round"/>
    <path stroke="#375D81" d="M45.73 77.94v3.94M47.7 79.9h-3.94" stroke-linecap="round"/>
    <path fill="#FFF" fill-rule="nonzero" stroke="#375D81" stroke-width="2" d="M23.42 116.54v8.12M27.48 120.6h-8.13" stroke-linecap="round"/>
    <path fill="#FFF" fill-rule="nonzero" stroke="#375D81" stroke-width="2" d="M243.17 210.4h6.97M0 210.4h8.97M92.38 219.73h67.2M168.2 219.73h9.13M84.5 219.65l-5 .08" stroke-linecap="round" stroke-linejoin="round"/>
    <rect width="64.87" height="94.06" x="161.64" y="90.55" fill="#FFF" fill-rule="nonzero" stroke="#9ACDED" stroke-width="2" transform="rotate(13.39 194.074 137.578)" rx="2.25"/>
    <path fill="#E1F2FF" fill-rule="nonzero" d="M212.9 179.28l-55.3-9.16L176 92.85l55.62 10.57"/>
    <rect width="30.12" height="20.18" x="181.51" y="111.61" fill="#FFF" fill-rule="nonzero" transform="rotate(13.15 196.57 121.704)" rx="8.47"/>
    <rect width="30.12" height="20.18" x="184.05" y="109.64" fill="#FFF" fill-rule="nonzero" stroke="#9ACDED" stroke-width="2" transform="rotate(13.15 199.114 119.726)" rx="8.47"/>
    <path fill="#9ACDED" fill-rule="nonzero" d="M194 115.43c.38.08.74.22 1.07.4.26.16.5.37.67.6.16.23.26.5.3.76.05.27.05.57 0 .85-.07.3-.2.57-.36.8-.16.24-.37.43-.62.56-.27.15-.57.24-.88.26-.38.03-.76 0-1.13-.1l-.9-.2-.52 2.24-1.2-.28 1.53-6.38 2.04.5zm-.76 3.2c.2.06.4.08.6.06.15-.02.3-.07.45-.15.12-.08.24-.18.32-.3.1-.15.16-.3.2-.48.03-.16.03-.32 0-.48-.02-.16-.07-.3-.15-.42-.1-.13-.2-.24-.35-.32-.18-.1-.36-.17-.56-.2l-.9-.22-.54 2.3.92.2zM202.34 120.77c-.1.44-.28.86-.54 1.23-.48.7-1.23 1.16-2.07 1.27-.46.06-.93.03-1.38-.08l-2.43-.6 1.52-6.37 2.43.58c.45.1.9.3 1.27.56.35.24.64.54.86.9.22.36.36.75.42 1.17.06.45.03.9-.08 1.34zm-1.22-.3c.08-.32.1-.65.08-1-.02-.27-.1-.54-.23-.8-.13-.23-.3-.43-.53-.6-.24-.16-.5-.28-.8-.34l-1.24-.3-1.07 4.57 1.24.3c.3.06.6.06.88 0 .27-.04.52-.14.74-.3.22-.15.42-.36.56-.6.17-.28.3-.6.36-.92zM205.1 119.06l-.44 1.9 2.4.56-.24.95-2.4-.57-.6 2.6-1.2-.28 1.52-6.38 4 1-.22.94"/>
    <path fill="#FFF" fill-rule="nonzero" stroke="#9ACDED" stroke-width="2" d="M177.56 140.85l31.28 7.44M175.15 150.93l31.3 7.45M172.67 161.36l31.3 7.44" stroke-linecap="round" stroke-linejoin="round"/>
    <rect width="57.32" height="46.19" x="180.49" y="157.67" fill="#FFF" fill-rule="nonzero" stroke="#9ACDED" stroke-width="2" transform="rotate(11.35 209.153 180.768)" rx="2.25"/>
    <rect width="47.05" height="31.51" x="185.77" y="164.35" fill="#E1F2FF" fill-rule="nonzero" stroke="#9ACDED" stroke-width="2" transform="rotate(11.35 209.296 180.107)" rx="2.25"/>
    <path fill="#9ACDED" fill-rule="nonzero" stroke="#9ACDED" stroke-width="2" d="M188.4 164.7l.58-2.93c.2-.96 1.13-1.58 2.1-1.4l42.63 8.57c.96.2 1.57 1.1 1.4 2.06l-.57 2.86-46.14-9.16zM230.16 195.65l-.56 2.8c-.2.96-1.13 1.58-2.1 1.4l-42.63-8.57c-.96-.2-1.58-1.13-1.4-2.1l.6-3 46.1 9.47z"/>
    <path fill="#FFF" fill-rule="nonzero" stroke="#9ACDED" stroke-width="2" d="M215.8 179.73l-7-6.2c-.35-.32-.83-.4-1.27-.27-.43.15-.76.52-.85.97l-1.88 9.17c-.1.45.06.92.4 1.23.35.3.83.4 1.27.26l8.88-3c.43-.16.74-.52.83-.96.1-.44-.05-.9-.38-1.2z"/>
    <rect width="57.07" height="49.58" x="144.29" y="152.78" fill="#FFF" fill-rule="nonzero" stroke="#9ACDED" stroke-width="2" transform="rotate(-15.16 172.826 177.572)" rx="2.25"/>
    <rect width="46.84" height="31.37" x="148.76" y="159.5" fill="#E1F2FF" fill-rule="nonzero" stroke="#9ACDED" stroke-width="2" transform="rotate(-15.16 172.18 175.19)" rx="2.25"/>
    <path fill="#9ACDED" fill-rule="nonzero" d="M152.28 191.3c-.07-.27 4.18-6.38 6.48-9.66.83-1.18 2.4-1.6 3.7-1l7.4 3.44c.4.2.86.04 1.1-.33l7.33-11.75c.73-1.17 2.18-1.7 3.5-1.24l14.8 5.1 1.52 5.58c.17.63.08 1.3-.24 1.86-.33.56-.86.97-1.5 1.14l-41.24 11c-.5.13-1.05.05-1.5-.23-.45-.27-.76-.72-.86-1.24l-.5-2.65z"/>
    <circle cx="184.37" cy="162.96" r="3.2" fill="#FFF" fill-rule="nonzero" stroke="#9ACDED" stroke-width="2" transform="rotate(-14.92 184.365 162.96)"/>
    <path fill="#FFF" fill-rule="nonzero" stroke="#375D81" stroke-width="2" d="M136.66 210.65h99.66" stroke-linecap="round" stroke-linejoin="round"/>
    <path stroke="#375D81" d="M95.34.5v3.94M97.3 2.47h-3.93" stroke-linecap="round"/>
  </g>
</svg>