<svg width="256" height="256" xmlns="http://www.w3.org/2000/svg">
  <g fill="none" fill-rule="evenodd">
    <path d="M23.134 233.729c0-57.194 46.364-103.558 103.558-103.558 57.194 0 103.558 46.364 103.558 103.558H23.134z" fill="#E1F2FF"/>
    <g transform="translate(133 119)">
      <path d="M51.809 104.241h4.979a4.17 4.17 0 0 0 3.886-2.643c1.767-4.551 1.327-8.732 1.538-12.308.391-6.625-.644-10.019-1.631-15.56l-7.474.173s.635 2.753 1.058 11.011c.131 2.555-4.091 12.819-3.893 17.854a1.534 1.534 0 0 0 1.537 1.473z" fill="#9452BA"/>
      <path d="M56.788 105.241h-4.979a2.528 2.528 0 0 1-2.536-2.434c-.121-3.082 1.24-7.729 2.442-11.828a31.713 31.713 0 0 0 1.451-6.014 77.544 77.544 0 0 0-1.034-10.839l-.27-1.192 9.552-.224.151.844c.181 1.016.364 1.96.539 2.864a45.747 45.747 0 0 1 1.106 12.931c-.047.813-.061 1.659-.076 2.532a27.625 27.625 0 0 1-1.528 10.079 5.193 5.193 0 0 1-4.818 3.281zm-2.5-30.365c.228 1.51.595 4.583.872 9.987.061 1.184-.541 3.309-1.53 6.679-1.1 3.756-2.471 8.431-2.363 11.187.012.288.25.514.538.512h4.979a3.178 3.178 0 0 0 2.953-2.005 25.634 25.634 0 0 0 1.394-9.387c.015-.9.029-1.778.079-2.618A43.58 43.58 0 0 0 60.14 76.8c-.127-.658-.259-1.337-.391-2.049l-5.461.125z" fill="#52267D" fill-rule="nonzero"/>
      <path d="M37.315 80.572l-6.012-6.817-3.712.147s-.521 5.672-.734 8.047a112.23 112.23 0 0 1-3.177 15.987 14.494 14.494 0 0 0-.6 3.257 2.941 2.941 0 0 0 2.971 3.048h4.411a5.638 5.638 0 0 0 5.485-4.2c1.962-7.758 1.368-19.469 1.368-19.469z" fill="#9452BA"/>
      <path d="M30.458 105.241h-4.411a4.035 4.035 0 0 1-2.919-1.256 3.8 3.8 0 0 1-1.049-2.849c.08-1.182.295-2.351.642-3.484a112.152 112.152 0 0 0 3.14-15.793c.213-2.375.734-8.048.734-8.048l.08-.873 5.064-.2 6.557 7.437.018.349c.024.484.578 11.951-1.4 19.76a6.624 6.624 0 0 1-6.456 4.957zm-1.951-30.374c-.155 1.684-.493 5.372-.654 7.17a112.663 112.663 0 0 1-3.214 16.183c-.303.984-.493 2-.564 3.028a1.82 1.82 0 0 0 .507 1.363c.381.402.911.63 1.465.63h4.411a4.622 4.622 0 0 0 4.515-3.451c1.721-6.786 1.435-16.84 1.358-18.821l-5.463-6.195-2.361.093z" fill="#52267D" fill-rule="nonzero"/>
      <path d="M28.764 87.287l-1.27-1.146 1.2-1.056.33.375-.4.348 1.566-.371.5 1.106-1.926.744zm-.107-.77l.215.194 1.154-.443-.114-.249-.8.188.013.288-.468.022zm-.411-.37l.294.265-.026-.5-.268.235z" fill="#52267D" fill-rule="nonzero"/>
      <path d="M28.9 55.186c4.379-.089 8.484-3.106 17.42-3.517.108-.53.27-1.048.486-1.545 1.617-3.5 3.9-13.593 2.434-20.222l-1.16-5.245a24.313 24.313 0 0 1-.572-5.241 10.657 10.657 0 0 1 1.047-4.612c.15-.31.314-.61.491-.9a10.675 10.675 0 0 1 3.582-3.581 10.587 10.587 0 0 1 5.515-1.54h1.744a10.607 10.607 0 0 1 8.208 3.871c.395.48.747.992 1.052 1.533a9.888 9.888 0 0 1 .541 1.092 10.571 10.571 0 0 1 .836 4.141 2.651 2.651 0 0 1-2.652 2.651H56.98l1.648 9.453c1.935 9.709 1.354 16.2-.145 20.532-.334.965-2.236 4.385-2.236 4.385 5.445 8.593 13.8 12.349 22.725 13.439 7.591.927 23.978-6 15.53-14-8.448-8 1.76-3.028 3.263-2.015s10.192 8.523.762 19.539c-3.988 4.659-8.506 8.894-19.375 12.14-1.743.521-11.255 1.213-16.376 2.683-15.245 4.376-27.64-.383-34.585-10.447-6.917-10.03-1.024-22.559.709-22.594z" fill="#9452BA"/>
      <path d="M51.882 90.823c-10.139 0-18.892-4.338-24.514-12.482-5.515-7.992-3.341-17.244-1.187-21.451 1.371-2.677 2.368-2.7 2.695-2.7a20.328 20.328 0 0 0 5.521-1.221 44.07 44.07 0 0 1 11.132-2.254c.096-.344.218-.68.366-1.005 1.537-3.329 3.765-13.259 2.365-19.588l-1.16-5.246a25.373 25.373 0 0 1-.6-5.456 11.62 11.62 0 0 1 2.313-6.963 11.718 11.718 0 0 1 3.289-2.988 11.612 11.612 0 0 1 6.035-1.686h1.744a11.56 11.56 0 0 1 8.229 3.408c.263.267.514.542.751.826a11.833 11.833 0 0 1 1.742 2.873c.223.526.407 1.069.549 1.623a11.691 11.691 0 0 1 .366 2.907 3.653 3.653 0 0 1-3.651 3.652h-9.7l1.445 8.28c1.718 8.624 1.657 15.708-.186 21.031a43.688 43.688 0 0 1-2.016 4.018c4.706 7.1 12 11.3 21.681 12.487 5.2.628 14.428-2.7 16.386-6.861.843-1.789.3-3.564-1.665-5.425-3.345-3.17-4.186-4.6-3.332-5.662 1.489-1.857 7.781 2.051 7.843 2.092a13.7 13.7 0 0 1 5.425 8.847c.541 3.985-.961 8.08-4.463 12.172-3.794 4.432-8.453 9.043-19.849 12.447-1.58.331-3.178.574-4.786.728a89.313 89.313 0 0 0-11.6 1.958 40.552 40.552 0 0 1-11.168 1.639zm-22.82-34.641c-.481.376-1.813 2.456-2.6 5.869-.738 3.211-1.388 9.449 2.549 15.153 7.2 10.433 19.407 14.1 33.486 10.054a90.5 90.5 0 0 1 11.9-2.021c2-.25 3.886-.487 4.463-.659 10.884-3.252 15.151-7.452 18.9-11.832 3.116-3.639 4.462-7.207 4-10.6a11.755 11.755 0 0 0-4.563-7.457 24.378 24.378 0 0 0-4.442-2.076 27.279 27.279 0 0 0 2.425 2.536c3.279 3.107 2.952 5.918 2.1 7.728-2.519 5.348-12.97 8.662-18.438 7.993-10.53-1.286-18.42-5.961-23.449-13.895l-.319-.5.29-.52c.718-1.293 1.943-3.584 2.165-4.226 1.725-4.983 1.762-11.715.11-20.01l-1.858-10.647h12.081c.912 0 1.651-.74 1.651-1.652a9.663 9.663 0 0 0-.3-2.41 9.428 9.428 0 0 0-.946-2.331 9.9 9.9 0 0 0-.953-1.389c-.2-.238-.406-.467-.623-.685a9.573 9.573 0 0 0-6.814-2.822h-1.744a9.616 9.616 0 0 0-7.727 3.871c-.184.248-.358.5-.519.77-.161.27-.31.538-.445.818a9.662 9.662 0 0 0-.952 4.178c0 1.69.185 3.375.549 5.025l1.16 5.245c1.516 6.854-.823 17.222-2.5 20.857a6.8 6.8 0 0 0-.417 1.341l-.165.749-.765.035a41.81 41.81 0 0 0-11.372 2.207 22.7 22.7 0 0 1-5.918 1.303z" fill="#52267D" fill-rule="nonzero"/>
      <path d="M38.356 40.715c.35-11.26-8.587-20.109-18.744-21.979-2.108-.388-2.794-1.05-5.1-1.05h-1.767c-5.951 0-10.775 4.825-10.776 10.776a2.687 2.687 0 0 0 2.687 2.687s18.119 0 18.2-.013h1.477-1.481c4.007 1.7 6.5 6.822 6.94 9.573.672 3.296.262 6.72-1.169 9.765a10.559 10.559 0 0 0-.854 5.538l.1.035a20.15 20.15 0 0 0 .481 3.12c1.706-1.189 4.36-2.978 4.844-3.234 1.047-.552 3.411-1.81 4.468-2.417 6.765-3.869.496-6.396.694-12.801z" fill="#9452BA"/>
      <path d="M27.712 60.841l-.331-1.444c-.2-.86-.348-1.73-.444-2.608l-.109-.037-.053-.654a11.265 11.265 0 0 1 .961-6.073 14.736 14.736 0 0 0 1.072-9.152c-.36-2.254-2.535-7.074-6.177-8.737-.879 0-4.3.009-17.976.013a3.691 3.691 0 0 1-3.687-3.686c.007-6.501 5.276-11.77 11.777-11.777h1.766c1.173-.007 2.339.19 3.444.585.601.201 1.215.362 1.838.482 9.774 1.8 19.952 10.469 19.563 22.993.024 1.89.502 3.748 1.394 5.416 1.191 2.635 2.42 5.359-2.585 8.228-1.057.606-3.405 1.857-4.5 2.433-.382.2-2.818 1.831-4.738 3.17l-1.215.848zm1.019-5.554l.1.032.045.666c.033.479.09.98.172 1.5 1.465-1 3.237-2.191 3.689-2.429 1.083-.57 3.4-1.807 4.437-2.4 3.429-1.966 2.94-3.05 1.757-5.67a13.641 13.641 0 0 1-1.572-6.3c.354-11.408-8.971-19.316-17.924-20.965a16.1 16.1 0 0 1-2.077-.54 8.169 8.169 0 0 0-2.844-.493h-1.766c-5.397.006-9.77 4.38-9.777 9.777.002.93.756 1.685 1.687 1.686 6.135 0 17.832-.007 18.178-.013h1.48c.09-.004.18.005.266.027l2.193.548-1.291.861a16.068 16.068 0 0 1 5.3 8.981 16.661 16.661 0 0 1-1.266 10.378 9.1 9.1 0 0 0-.787 4.354z" fill="#52267D" fill-rule="nonzero"/>
      <path d="M32.586 53.726c-.089-1.739-.355-2.632-.16-3.34 1.123-4.073 1.488-5.359 1.488-9.671a13.025 13.025 0 0 0-6.148-10.773 6.917 6.917 0 0 0-4.911 1.2c4.007 1.7 6.5 6.822 6.94 9.573.672 3.296.262 6.72-1.169 9.765a10.559 10.559 0 0 0-.854 5.538s4.916 1.845 4.814-2.292" fill="#F3E3FF"/>
      <path d="M30 56.926a7.6 7.6 0 0 1-2.407-.441l-.3-.111-.025-.316a11.15 11.15 0 0 1 .907-5.806 15.215 15.215 0 0 0 1.12-9.458c-.457-2.866-3.02-7.654-6.641-9.192l-.813-.345.713-.52a7.071 7.071 0 0 1 5.467-1.222 13.477 13.477 0 0 1 6.387 11.2 28.292 28.292 0 0 1-1.474 9.69l-.031.114a4.419 4.419 0 0 0 .031 1.5c.051.461.11 1.008.144 1.681v.013a2.967 2.967 0 0 1-1.1 2.672 3.4 3.4 0 0 1-1.978.541zm-1.755-1.277c.8.239 2.323.517 3.157-.081.521-.453.777-1.14.68-1.823a26.124 26.124 0 0 0-.139-1.617 5.03 5.03 0 0 1 0-1.875l.031-.113a27.2 27.2 0 0 0 1.439-9.425 12.455 12.455 0 0 0-5.91-10.347 7.069 7.069 0 0 0-3.619.725c3.653 2.055 5.961 6.771 6.4 9.543a16.19 16.19 0 0 1-1.217 10.071 9.872 9.872 0 0 0-.819 4.942h-.003z" fill="#52267D" fill-rule="nonzero"/>
      <path d="M7.09 19.517a2.956 2.956 0 0 1 1.866-2.63c.57-.228 1.612-.652 1.612-.652s1.114 2.356-.148 2.95a4.752 4.752 0 0 1-3.33.332z" fill="#FFF"/>
      <path d="M8.263 20.175a4.427 4.427 0 0 1-1.337-.185l-.336-.116v-.356a3.44 3.44 0 0 1 2.181-3.095c.569-.228 1.609-.651 1.609-.651l.439-.179.2.428c.43.852.565 1.822.386 2.759-.13.379-.41.688-.773.857-.74.352-1.55.536-2.369.538zm-.623-1.047a4.5 4.5 0 0 0 2.567-.4c.512-.241.3-1.22.082-1.844l-1.148.464a2.4 2.4 0 0 0-1.501 1.78z" fill="#52267D" fill-rule="nonzero"/>
      <path d="M11.771 18.194a3.136 3.136 0 0 1 2.938-2.938c.538-.07 1.942-.036 1.942-.036s.648 2.713-.873 2.974c-1.33.182-2.678.182-4.007 0z" fill="#FFF"/>
      <path d="M13.9 18.837c-.736 0-1.47-.05-2.2-.148l-.435-.066.009-.439a3.625 3.625 0 0 1 3.374-3.425 19.8 19.8 0 0 1 2.018-.039l.384.01.09.374c.26.964.179 1.988-.229 2.9a1.538 1.538 0 0 1-1.046.68c-.65.105-1.307.157-1.965.153zm-1.565-1.08c1.117.12 2.245.102 3.357-.056a.525.525 0 0 0 .378-.244c.23-.551.286-1.16.161-1.744a13.9 13.9 0 0 0-1.459.038 2.626 2.626 0 0 0-2.435 2.006h-.002z" fill="#52267D" fill-rule="nonzero"/>
      <path d="M17.507 18.439s.38-2.843 2.935-2.062a3.57 3.57 0 0 1 1.7 1.163s-.509 2.166-1.525 1.923a19.47 19.47 0 0 1-3.11-1.024z" fill="#FFF"/>
      <path d="M20.772 19.982c-.092 0-.184-.011-.274-.033a19.8 19.8 0 0 1-3.2-1.054l-.34-.153.05-.369a3.473 3.473 0 0 1 1.326-2.271 2.6 2.6 0 0 1 2.25-.2c.77.244 1.451.713 1.954 1.346l.136.186-.053.223A3.9 3.9 0 0 1 21.4 19.8a1.185 1.185 0 0 1-.628.182zm-2.683-1.843c.86.34 1.743.62 2.642.837.05.012.104.001.145-.03.353-.35.6-.795.711-1.28a3.109 3.109 0 0 0-1.292-.811 1.639 1.639 0 0 0-1.414.086c-.394.297-.673.72-.792 1.198z" fill="#52267D" fill-rule="nonzero"/>
      <path d="M24.926 32.245s5.956-3.238 4.823-8.686a32.375 32.375 0 0 1 3.671 3.654c0 1.066.2 5.3-5.653 8.139a32.681 32.681 0 0 0-2.841-3.107z" fill="#FFF"/>
      <path d="M27.659 35.96l-.252-.262c-.415-.43-.8-.9-1.172-1.347a10.7 10.7 0 0 0-1.61-1.707l-.62-.466.682-.373c.057-.03 5.614-3.131 4.572-8.145l-.289-1.39 1.1.9a32.575 32.575 0 0 1 3.754 3.739l.1.134v.168c.019 3.813-1.978 6.669-5.935 8.588l-.33.161zm-1.9-3.651c.44.446.854.915 1.243 1.405.283.342.573.693.871 1.023 4.973-2.557 5.048-6.084 5.044-7.351a29.585 29.585 0 0 0-2.531-2.592c.073 3.928-3.236 6.578-4.623 7.515h-.004z" fill="#52267D" fill-rule="nonzero"/>
      <path d="M7.9 19a1.53 1.53 0 0 1 .965-1.361c.3-.118.835-.338.835-.338s.577 1.22-.077 1.527A2.452 2.452 0 0 1 7.9 19zM13 17.614a1.6 1.6 0 0 1 1.5-1.5c.274-.036.99-.019.99-.019s.33 1.384-.446 1.517a7.521 7.521 0 0 1-2.044.002zM18.426 18.235s.2-1.509 1.557-1.1a1.9 1.9 0 0 1 .9.618s-.27 1.149-.809 1.02a10.4 10.4 0 0 1-1.648-.538z" fill="#F3E3FF"/>
      <path d="M16.415 24.379h.479a2.483 2.483 0 1 1 0 4.966h-5.445a4.966 4.966 0 0 1 4.966-4.966z" fill="#F3E3FF" opacity=".3"/>
      <path d="M15.444 25.35h.991a1.951 1.951 0 1 1 0 3.902h-4.893a3.9 3.9 0 0 1 3.902-3.902z" fill="#FFF"/>
      <path d="M16.436 29.752h-5.394v-.5a4.407 4.407 0 0 1 4.4-4.4h.991a2.451 2.451 0 0 1 0 4.9h.003zm-4.356-1h4.356a1.451 1.451 0 0 0 0-2.9h-.991a3.406 3.406 0 0 0-3.365 2.9z" fill="#52267D" fill-rule="nonzero"/>
      <circle fill="#52267D" cx="13.519" cy="28.186" r="1.09"/>
      <path d="M4.405 30.33c.31-.066.587-.238.784-.486l.365-.459-.813.174-.479.1a.341.341 0 0 0-.262.406.341.341 0 0 0 .405.265z" fill="#52267D"/>
      <path d="M25.932 32.352s4.588-2.47 4.518-7.446a9.367 9.367 0 0 1 2.505 2.364 7.978 7.978 0 0 1-1.447 3.565c-1.694 1.835-3.458 2.4-5.576 1.517z" fill="#E1F2FF"/>
      <path d="M30.275 31.479A16.446 16.446 0 0 1 26.7 34.2" fill="#FFF"/>
      <path d="M26.925 34.649l-.447-.9c1.26-.716 2.418-1.6 3.441-2.626l.713.7a16.811 16.811 0 0 1-3.707 2.826z" fill="#52267D"/>
      <path d="M48.267 50.826l-1.022-2.016c-3.817-9.382-4.406-14.891-2.426-23.845l1.16-5.245c.38-1.721.572-3.478.572-5.241 0-5.875-4.762-10.637-10.637-10.637H34.2c-5.794 0-10.491 4.697-10.491 10.491v.3a2.5 2.5 0 0 0 2.5 2.5h10.873l-1.648 9.452c-5.047 25.331-4.541 35.6 5.391 33.49" fill="#9452BA"/>
      <path d="M38.483 61.344a6.146 6.146 0 0 1-4.53-1.708c-3.687-3.641-3.548-12.962.494-33.249l1.439-8.256H26.2a3.5 3.5 0 0 1-3.5-3.5v-.3c.006-6.347 5.153-11.489 11.5-11.489h1.717c6.424.007 11.63 5.213 11.637 11.637 0 1.835-.2 3.664-.595 5.456l-1.161 5.246c-1.934 8.751-1.4 13.966 2.376 23.252l.988 1.941-1.784.9-1.022-2.016c-3.946-9.692-4.525-15.4-2.511-24.512L45 19.5c.365-1.65.549-3.335.549-5.025a9.648 9.648 0 0 0-9.637-9.637H34.2a9.5 9.5 0 0 0-9.491 9.491v.3a1.5 1.5 0 0 0 1.5 1.5h12.063L36.42 26.753c-2.678 13.44-4.893 27.667-1.055 31.457 1.12 1.106 2.838 1.4 5.252.883l.416 1.957c-.837.186-1.692.285-2.55.294z" fill="#52267D"/>
      <path d="M28.948 5.1a3.274 3.274 0 0 1 2.007-2.576c.471-.12.965-.116 1.434.014 0 0 1.058 1.654-.178 2.236a4.651 4.651 0 0 1-3.263.326z" fill="#FFF"/>
      <path d="M30.1 5.756a4.327 4.327 0 0 1-1.312-.182l-.372-.128.037-.392a3.759 3.759 0 0 1 2.319-2.994 3.2 3.2 0 0 1 1.752 0l.185.051.1.162c.396.596.552 1.32.438 2.026a1.477 1.477 0 0 1-.825.932 5.458 5.458 0 0 1-2.322.525zm-.554-1.035a4.37 4.37 0 0 0 2.455-.4.467.467 0 0 0 .289-.3 1.683 1.683 0 0 0-.224-1.041 1.922 1.922 0 0 0-.923.01c-.77.303-1.358.94-1.6 1.731h.003z" fill="#52267D" fill-rule="nonzero"/>
      <path d="M33.31 4.493a3.551 3.551 0 0 1 3.327-3.328 8.167 8.167 0 0 1 1.392-.019s1.541 3.052-.182 3.347a16.674 16.674 0 0 1-4.537 0z" fill="#FFF"/>
      <path d="M35.723 5.155c-.832 0-1.663-.056-2.487-.168l-.435-.065.009-.439A4.039 4.039 0 0 1 36.573.67c.498-.05 1-.058 1.5-.022l.28.022.127.251c.111.221 1.074 2.193.506 3.323a1.375 1.375 0 0 1-1.049.741c-.732.119-1.473.176-2.214.17zm-1.852-1.1c1.294.146 2.602.127 3.891-.056a.384.384 0 0 0 .325-.206 3.4 3.4 0 0 0-.383-2.163 6.438 6.438 0 0 0-1 .03 3.031 3.031 0 0 0-2.833 2.396v-.001z" fill="#52267D" fill-rule="nonzero"/>
      <path d="M39.155 5.153s.443-2.775 2.926-1.946a3.5 3.5 0 0 1 1.633 1.182s-.552 2.108-1.541 1.844a19.016 19.016 0 0 1-3.018-1.08z" fill="#FFF"/>
      <path d="M42.342 6.756c-.101 0-.202-.013-.3-.04a19.3 19.3 0 0 1-3.1-1.112l-.337-.161.059-.369a3.414 3.414 0 0 1 1.361-2.2 2.561 2.561 0 0 1 2.217-.143 4 4 0 0 1 1.886 1.371l.131.189-.058.223a3.753 3.753 0 0 1-1.258 2.073c-.182.11-.39.168-.601.169zm-2.6-1.887a19.7 19.7 0 0 0 2.556.881.166.166 0 0 0 .136-.025c.35-.332.6-.756.722-1.224a3.028 3.028 0 0 0-1.237-.82 1.6 1.6 0 0 0-1.382.05 2.1 2.1 0 0 0-.792 1.138h-.003z" fill="#52267D" fill-rule="nonzero"/>
      <path d="M29.125 54.85a4.936 4.936 0 0 1 1.787-.861" fill="#F3E3FF"/>
      <path d="M29.425 55.25l-.6-.8a5.481 5.481 0 0 1 1.969-.947l.235.973a4.44 4.44 0 0 0-1.604.774z" fill="#52267D"/>
      <path d="M32.726 54.793c-1.777-7.222 1.429-21.03 2.018-24.428l2.334-13.615H38.1a2.347 2.347 0 0 1 2.093 2.694L38.5 31.253c-.573 4-1.169 22.515 5.78 26.492 1.482.848 3.892.292 4.8-.142 3.3-1.577 4.253-5.7 4.976-9.014 1.5-6.87.331-12.263 0-17.647l-.348-6.737a2.372 2.372 0 0 1 2.123-2.511h1.241l2.236 13.616c.673 3.877 2.4 17.322-5.519 23.625-.143.114 1.926.577 1.326 1.638-2.383 4.212-9.287 4.878-10.587 6.681-5.007 6.945-.318 21.741-.318 21.741a35.93 35.93 0 0 1-9-5.3c-8.047-7.211-9.068-17.658-9.1-20.733-.045-3.679.921-5.961 2.112-7.323" fill="#F3E3FF"/>
      <path d="M45.009 89.851l-.981-.391a36.008 36.008 0 0 1-9.148-5.4c-8.675-7.776-9.245-18.941-9.271-21.1-.041-3.336.711-5.913 2.234-7.658l.754.658c-1.338 1.532-2.025 3.948-1.988 6.988.015 1.279.4 12.711 8.939 20.367a33.185 33.185 0 0 0 7.887 4.8c-.976-3.529-3.687-15.084.69-21.154.587-.814 1.937-1.347 3.647-2.02 2.466-.972 5.535-2.182 6.911-4.616.059-.1.045-.147.039-.164-.075-.234-.652-.5-.87-.6-.282-.13-.525-.242-.563-.552l-.034-.277.226-.189c7.627-6.068 6.014-19.253 5.338-23.148l-2.169-13.2h-.816a1.467 1.467 0 0 0-1.051.5c-.38.4-.587.935-.574 1.487l.349 6.737c.075 1.224.195 2.452.315 3.7.416 4.282.846 8.708-.326 14.08-.7 3.228-1.667 7.649-5.248 9.36-.935.447-3.556 1.1-5.263.124-7.456-4.268-6.511-23.614-6.028-27l1.693-11.81a2.032 2.032 0 0 0-.487-1.569 1.479 1.479 0 0 0-1.112-.554h-.6l-2.262 13.2c-.08.461-.207 1.109-.364 1.906-.95 4.839-3.174 16.174-1.663 22.319l-.97.238c-1.566-6.358.607-17.429 1.652-22.751.154-.786.28-1.427.359-1.882l2.405-14.029H38.1c.725.011 1.408.34 1.868.9.567.65.83 1.51.721 2.366L39 31.324c-.666 4.652-.969 22.264 5.534 25.988 1.275.726 3.488.246 4.336-.16 3.139-1.5 4.043-5.644 4.7-8.669 1.137-5.219.716-9.567.307-13.771-.122-1.259-.242-2.5-.318-3.74l-.349-6.741a3.075 3.075 0 0 1 .846-2.227 2.458 2.458 0 0 1 1.777-.81H57.5l2.305 14.035c.683 3.931 2.277 17.031-5.132 23.62.45.196.808.556 1 1.007.101.323.057.674-.12.962-1.552 2.743-4.8 4.024-7.416 5.054-1.432.565-2.786 1.1-3.2 1.674-4.8 6.661-.292 21.152-.246 21.3l.318 1.005z" fill="#52267D"/>
      <path d="M98.04 60.817c.683-.83.873-1.959.5-2.966a2.566 2.566 0 0 0-.9-.965s-1.782.311-1.407 1.513c.29.998.932 1.858 1.807 2.418z" fill="#FFF"/>
      <path d="M98.148 61.444l-.346-.187a4.788 4.788 0 0 1-2.049-2.71 1.394 1.394 0 0 1 .124-1.171 2.649 2.649 0 0 1 1.675-.982l.191-.034.163.1a3 3 0 0 1 1.1 1.211 3.508 3.508 0 0 1-.6 3.478l-.258.295zm-.613-4.02a1.5 1.5 0 0 0-.805.474.4.4 0 0 0-.022.351 4 4 0 0 0 1.208 1.866 2.455 2.455 0 0 0 .157-2.088 1.746 1.746 0 0 0-.538-.603z" fill="#52267D" fill-rule="nonzero"/>
      <path d="M97.662 59.058a1.06 1.06 0 0 0 .176-1.041.908.908 0 0 0-.317-.338s-.625.109-.494.531a1.5 1.5 0 0 0 .635.848z" fill="#F3E3FF"/>
      <path d="M88.68 69.885a3.3 3.3 0 0 1 1.508-4.113c.373-.22.764-.407 1.168-.561 0 0 2.5 1.974 1.157 2.9a15.551 15.551 0 0 1-3.833 1.774z" fill="#FFF"/>
      <path d="M88.4 70.488l-.177-.4a3.794 3.794 0 0 1 1.7-4.737c.402-.238.824-.44 1.26-.607l.264-.1.221.174c.3.236 1.779 1.468 1.741 2.637a1.314 1.314 0 0 1-.611 1.066 15.823 15.823 0 0 1-3.975 1.843l-.423.124zm2.865-4.7c-.28.116-.55.252-.809.407a2.809 2.809 0 0 0-1.443 3.056 14.269 14.269 0 0 0 3.216-1.553.326.326 0 0 0 .18-.274c.012-.434-.609-1.165-1.145-1.637l.001.001z" fill="#52267D" fill-rule="nonzero"/>
      <path d="M89.584 68.953a1.833 1.833 0 0 1 .836-2.281c.207-.122.424-.226.648-.311 0 0 1.384 1.095.641 1.607a8.6 8.6 0 0 1-2.125.985z" fill="#F3E3FF"/>
      <path d="M96.6 61.773s1.88 1.652.077 3.128a3.12 3.12 0 0 1-1.666.669s-1.326-1.417-.657-2.037a17.041 17.041 0 0 1 2.246-1.76z" fill="#FFF"/>
      <path d="M94.8 66.08l-.157-.168a3.391 3.391 0 0 1-.98-1.971c.006-.295.131-.574.348-.774.72-.67 1.496-1.277 2.319-1.817l.317-.2.28.246a3.1 3.1 0 0 1 1.028 2.111 2.324 2.324 0 0 1-.965 1.779c-.56.45-1.243.723-1.96.783l-.23.011zm1.721-3.654c-.642.45-1.254.942-1.83 1.474.044.426.226.826.518 1.139.42-.08.813-.26 1.147-.525.344-.231.565-.607.6-1.02a1.764 1.764 0 0 0-.434-1.068h-.001z" fill="#52267D" fill-rule="nonzero"/>
      <path d="M96.324 62.944s.833.731.034 1.385c-.21.17-.467.275-.737.3 0 0-.588-.627-.292-.9a7.54 7.54 0 0 1 .995-.785z" fill="#F3E3FF"/>
      <path d="M79.658 71.187a2.548 2.548 0 0 1 1.807-3.079c2.426-.876 3.078-.147 3.078-.147s1.342 2.259.143 2.986c-1.199.727-5.028.24-5.028.24z" fill="#FFF"/>
      <path d="M82.166 71.848c-.86-.006-1.718-.06-2.572-.164l-.328-.042-.09-.32a3.029 3.029 0 0 1 2.118-3.685c2.613-.943 3.475-.175 3.621-.011.651 1.076 1.311 2.972.031 3.749a6.069 6.069 0 0 1-2.78.473zm-2.079-1.114c1.448.151 3.637.209 4.34-.214.6-.366 0-1.737-.267-2.223-.158-.084-.825-.334-2.526.281a2.04 2.04 0 0 0-1.547 2.156z" fill="#52267D" fill-rule="nonzero"/>
      <path d="M80.8 70.687c-.174-.7.243-1.41.939-1.6 1.262-.455 1.6-.076 1.6-.076s.7 1.175.075 1.553a6.417 6.417 0 0 1-2.614.123z" fill="#F3E3FF"/>
      <path d="M36.549 20.07a11.753 11.753 0 0 0 9.318.213c-.373 1.689-1.135 5.084-1.135 5.084s-5.044 1.546-8.936-.9c.404-2.243.753-4.397.753-4.397z" fill="#FFF"/>
      <path d="M41.1 26.355a10.406 10.406 0 0 1-5.567-1.467l-.285-.179.059-.332c.4-2.236.752-4.387.752-4.388l.115-.7.623.348a11.392 11.392 0 0 0 8.9.179l.855-.311-.2.889c-.374 1.69-1.135 5.085-1.135 5.085l-.063.284-.279.085c-1.23.34-2.5.51-3.775.507zm-4.748-2.142c3.1 1.765 6.917 1.008 7.962.749.158-.7.566-2.528.878-3.929a12.459 12.459 0 0 1-8.254-.232c-.128.746-.347 2.043-.589 3.412h.003z" fill="#52267D" fill-rule="nonzero"/>
      <path d="M65.528 10.228a3.3 3.3 0 0 0-2.021-2.595 9.626 9.626 0 0 0-2.084-.287s-.428 1.968.818 2.554a4.684 4.684 0 0 0 3.287.328z" fill="#FFF"/>
      <path d="M64.371 10.884a5.48 5.48 0 0 1-2.342-.532c-1.588-.746-1.115-3.015-1.094-3.112l.089-.41.42.017c.76.017 1.515.125 2.249.322a3.79 3.79 0 0 1 2.334 3.012l.037.392-.372.128c-.428.128-.874.19-1.321.183zm-2.509-3.011c-.031.5.017 1.3.593 1.574.77.372 1.63.511 2.478.4a2.736 2.736 0 0 0-1.612-1.751 6.671 6.671 0 0 0-1.459-.223z" fill="#52267D" fill-rule="nonzero"/>
      <path d="M60.846 9.28a3.1 3.1 0 0 0-2.9-2.9 7.122 7.122 0 0 0-1.213-.017s-1.343 2.66.159 2.917c1.312.18 2.642.18 3.954 0z" fill="#FFF"/>
      <path d="M58.743 9.921a11.688 11.688 0 0 1-1.937-.148 1.261 1.261 0 0 1-.961-.682c-.5-.991.28-2.634.442-2.953l.127-.251.281-.022a7.438 7.438 0 0 1 1.315.019 3.583 3.583 0 0 1 3.336 3.386l.009.439-.435.066c-.722.097-1.449.146-2.177.146zm-1.684-3.073a2.9 2.9 0 0 0-.32 1.794c.02.04.057.114.236.145 1.093.156 2.202.175 3.3.056a2.6 2.6 0 0 0-2.394-1.967 5.073 5.073 0 0 0-.822-.028z" fill="#52267D" fill-rule="nonzero"/>
      <path d="M55.452 9.463s-.447-2.8-2.948-1.961a3.528 3.528 0 0 0-1.646 1.191s.557 2.124 1.554 1.858a19.252 19.252 0 0 0 3.04-1.088z" fill="#FFF"/>
      <path d="M52.241 11.074a1.189 1.189 0 0 1-.6-.167 3.774 3.774 0 0 1-1.265-2.088l-.058-.222.131-.189a4.021 4.021 0 0 1 1.9-1.38 2.569 2.569 0 0 1 2.231.144 3.447 3.447 0 0 1 1.369 2.213l.058.368-.337.161a19.409 19.409 0 0 1-3.127 1.12c-.098.027-.2.04-.302.04zm-.827-2.27c.122.473.375.902.729 1.239.04.03.092.038.14.025.88-.236 1.741-.533 2.579-.889a2.106 2.106 0 0 0-.808-1.154 1.6 1.6 0 0 0-1.391-.049c-.478.167-.907.45-1.249.824v.004z" fill="#52267D" fill-rule="nonzero"/>
      <path d="M29.907 4.635a1.75 1.75 0 0 1 1.072-1.376 1.49 1.49 0 0 1 .767.007s.565.884-.1 1.195a2.488 2.488 0 0 1-1.739.174zM34.385 4.005a2.226 2.226 0 0 1 2.086-2.086c.29-.03.582-.033.873-.012 0 0 .966 1.913-.114 2.1-.944.129-1.901.128-2.845-.002zM40.233 4.874s.256-1.6 1.689-1.123c.374.13.702.367.942.682 0 0-.318 1.217-.889 1.064a10.958 10.958 0 0 1-1.742-.623zM64.612 9.754a1.744 1.744 0 0 0-1.069-1.372 5.126 5.126 0 0 0-1.1-.152s-.226 1.04.433 1.35a2.481 2.481 0 0 0 1.736.174zM59.741 8.834a1.711 1.711 0 0 0-1.6-1.6 3.928 3.928 0 0 0-.67-.009s-.743 1.47.087 1.613a8.081 8.081 0 0 0 2.183-.004zM54.456 9.273s-.244-1.53-1.612-1.073c-.357.125-.67.351-.9.652 0 0 .3 1.162.85 1.017.57-.152 1.126-.351 1.662-.596z" fill="#F3E3FF"/>
      <path d="M48.123 24.866c3.117.419 6.284.293 9.358-.372.445 2.479.73 4.35.73 4.35s-3.164 2.149-9.008.9c-.69-3.181-1.08-4.878-1.08-4.878z" fill="#FFF"/>
      <path d="M52.748 30.638a17.454 17.454 0 0 1-3.65-.4l-.315-.066-.069-.316c-.688-3.179-1.078-4.874-1.078-4.876l-.165-.719.73.113a26.8 26.8 0 0 0 9.161-.363l.517-.126.094.524c.446 2.486.733 4.363.733 4.363l.047.312-.26.177a10.73 10.73 0 0 1-5.745 1.377zm-3.125-1.316c2.688.657 5.518.396 8.041-.74-.091-.584-.3-1.875-.583-3.483-2.737.538-5.54.657-8.312.352.165.734.456 2.039.854 3.871z" fill="#52267D" fill-rule="nonzero"/>
      <path d="M61.502 20.049h-5.445a2.483 2.483 0 0 1 0-4.966h.479a4.966 4.966 0 0 1 4.966 4.966z" fill="#F3E3FF" opacity=".3"/>
      <g>
        <path d="M61.408 19.956h-4.755a2.089 2.089 0 0 1-2.089-2.089c0-1.001.812-1.813 1.813-1.813h1.129a3.9 3.9 0 0 1 3.9 3.9l.002.002z" fill="#FFF"/>
        <path d="M61.908 20.455h-5.255a2.591 2.591 0 0 1-2.589-2.589 2.316 2.316 0 0 1 2.313-2.313h1.129a4.407 4.407 0 0 1 4.4 4.4l.002.502zm-5.531-3.9c-.725 0-1.312.588-1.313 1.313a1.591 1.591 0 0 0 1.589 1.589h4.218a3.408 3.408 0 0 0-3.365-2.9l-1.129-.002z" fill="#52267D" fill-rule="nonzero"/>
      </g>
      <circle fill="#52267D" cx="59.057" cy="17.709" r="1.09"/>
      <path d="M36.734 10.374h.479a2.483 2.483 0 0 1 0 4.966h-5.445a4.966 4.966 0 0 1 4.966-4.966z" fill="#F3E3FF" opacity=".3"/>
      <g>
        <path d="M35.763 11.345h.991a1.951 1.951 0 1 1 0 3.902h-4.893a3.9 3.9 0 0 1 3.902-3.902z" fill="#FFF"/>
        <path d="M36.754 15.747h-5.392v-.5a4.406 4.406 0 0 1 4.4-4.4h.991a2.451 2.451 0 1 1 0 4.9h.001zm-4.355-1h4.355a1.451 1.451 0 1 0 0-2.9h-.991a3.406 3.406 0 0 0-3.363 2.9h-.001z" fill="#52267D" fill-rule="nonzero"/>
      </g>
      <circle fill="#52267D" cx="36.524" cy="14.091" r="1.09"/>
      <path d="M68.062 21.181a1.364 1.364 0 0 1-.784-.486l-.365-.459.813.174.479.1a.342.342 0 0 1 .115.623.342.342 0 0 1-.258.048zM26.056 16.085c.31-.066.587-.238.784-.486l.365-.459-.813.174-.479.1a.342.342 0 0 0-.115.623c.076.05.169.067.258.048z" fill="#52267D"/>
      <path d="M37.014 20.777a11.929 11.929 0 0 0 8.152.149 33 33 0 0 1-.812 3.627c-1.367.08-2.738.02-4.093-.176-2.33-.459-3.247-1.518-3.247-3.6z" fill="#E1F2FF"/>
      <g>
        <path d="M42.66 23.856a13.849 13.849 0 0 1-6.552-1.175" fill="#FFF"/>
        <path d="M41.8 24.384a13.486 13.486 0 0 1-5.922-1.259l.461-.888a13.408 13.408 0 0 0 6.281 1.121l.082 1c-.044 0-.378.026-.902.026z" fill="#52267D"/>
      </g>
      <path d="M55.724 25.407c-2.208.59-4.515.723-6.776.388.239 1.054.546 2.091.918 3.106 0 0 4.764-.635 5.858-3.494z" fill="#E1F2FF"/>
      <g>
        <path d="M53.792 58.986s-.218.157-.527.343" fill="#F3E3FF"/>
        <path d="M53.394 59.544l-.258-.43c.3-.177.506-.328.51-.331l.293.407s-.226.162-.545.354z" fill="#52267D"/>
      </g>
      <g>
        <path d="M56.071 26.768c-2.468.413-4.981.49-7.47.228" fill="#FFF"/>
        <path d="M51.41 27.655a24.432 24.432 0 0 1-2.869-.162l.12-.993c2.438.252 4.899.177 7.317-.223l.186.982c-1.57.267-3.161.4-4.754.396z" fill="#52267D"/>
      </g>
      <g>
        <path d="M50.133 101.318a1.741 1.741 0 0 0-2.239.267c-1.167.958-2.045 2.44-1.522 2.589a5.55 5.55 0 0 0 2.411.116c.841-.154 1.585.008 1.923-1.753a1.177 1.177 0 0 0-.573-1.219z" fill="#FFF"/>
        <path d="M47.865 104.621a5.936 5.936 0 0 1-1.562-.207.448.448 0 0 1-.323-.352c-.129-.619.822-1.9 1.756-2.67a2.009 2.009 0 0 1 2.531-.284c.517.298.79.889.684 1.476-.327 1.7-1.078 1.806-1.805 1.9-.1.015-.21.03-.318.049-.318.058-.64.088-.963.088zm1.377-3.333a1.873 1.873 0 0 0-1.189.49 4.183 4.183 0 0 0-1.583 2.185 5.815 5.815 0 0 0 2.268.081c.115-.021.229-.036.341-.052.675-.091 1.122-.152 1.381-1.5a.921.921 0 0 0-.449-.953l-.035-.023a1.238 1.238 0 0 0-.734-.228z" fill="#52267D" fill-rule="nonzero"/>
        <path d="M49.914 101.6a1.084 1.084 0 0 0-1.394.166c-.726.6-1.272 1.518-.947 1.611.489.133 1 .158 1.5.072.523-.1.986 0 1.2-1.091a.731.731 0 0 0-.359-.758z" fill="#E1F2FF"/>
      </g>
      <g>
        <path d="M51.5 101.3c.508-.068 1.239 1.035 1.155 1.371-.084.336-.141 1.447-.963 1.568-.6.089-2.765.313-3.236-.156-.438-.431.413-2.43 3.044-2.783z" fill="#FFF"/>
        <path d="M49.928 104.624a2.649 2.649 0 0 1-1.651-.362.921.921 0 0 1-.1-.961 3.886 3.886 0 0 1 3.286-2.248c.355.014.686.186.9.47.261.293.62.857.531 1.21-.011.044-.021.1-.033.175-.083.471-.256 1.451-1.136 1.578-.595.086-1.196.132-1.797.138zm1.614-3.076h-.012a3.352 3.352 0 0 0-2.878 1.911c-.09.266-.054.416-.023.447.3.3 1.949.242 3.024.085.482-.07.622-.641.716-1.171.014-.084.027-.155.04-.209a1.714 1.714 0 0 0-.5-.845.638.638 0 0 0-.367-.218z" fill="#52267D" fill-rule="nonzero"/>
        <path d="M51.639 101.607c.3-.04.731.61.682.809-.049.199-.084.854-.568.925-.358.052-1.632.185-1.91-.092-.257-.255.246-1.434 1.796-1.642z" fill="#E1F2FF"/>
      </g>
      <g>
        <path d="M53.645 101.516s-.438-.229-1.307.268c-.767.438-1.913 1.14-1.611 2.012.302.872 2.726.548 3.265.364.532-.19.859-.726.782-1.286a1.682 1.682 0 0 0-1.129-1.358z" fill="#FFF"/>
        <path d="M52.306 104.629c-.807 0-1.613-.167-1.815-.752-.383-1.105 1.04-1.919 1.723-2.31a1.74 1.74 0 0 1 1.517-.287 1.935 1.935 0 0 1 1.289 1.548 1.45 1.45 0 0 1-.947 1.568 6.706 6.706 0 0 1-1.767.233zm1.037-2.915a1.818 1.818 0 0 0-.881.286c-.863.494-1.716 1.085-1.5 1.714.206.6 2.318.425 2.948.209a.946.946 0 0 0 .617-1 1.434 1.434 0 0 0-.947-1.162l-.045-.017a.582.582 0 0 0-.192-.03z" fill="#52267D" fill-rule="nonzero"/>
        <path d="M53.81 101.824s-.26-.135-.774.159c-.454.26-1.132.675-.954 1.192.178.517 1.614.324 1.933.215a.7.7 0 0 0 .463-.761 1 1 0 0 0-.668-.805z" fill="#E1F2FF"/>
      </g>
      <g>
        <path d="M43.507 73.7a64.554 64.554 0 0 1-.934 14.448c-1.329 8.22-3.686 10.8-3.513 12.929.134 1.65.83 3.162 2.486 3.162h4.941a5.366 5.366 0 0 0 5.082-3.656 36.012 36.012 0 0 0 1.59-7.179c.285-3.549.362-7.111.23-10.669" fill="#9452BA"/>
        <path d="M46.487 105.241h-4.941c-1.973 0-3.276-1.525-3.483-4.081a8.9 8.9 0 0 1 .935-3.784 42.07 42.07 0 0 0 2.587-9.385 64.4 64.4 0 0 0 .926-14.2l1.992-.175a64.965 64.965 0 0 1-.943 14.7 44.46 44.46 0 0 1-2.7 9.787 7.8 7.8 0 0 0-.806 2.9c.083 1.024.408 2.243 1.489 2.243h4.941a4.372 4.372 0 0 0 4.135-2.977 34.966 34.966 0 0 0 1.544-6.979c.281-3.5.356-7.012.223-10.52l2-.055c.135 3.597.057 7.2-.234 10.788a37.079 37.079 0 0 1-1.639 7.408 6.373 6.373 0 0 1-6.026 4.33z" fill="#52267D"/>
      </g>
      <g>
        <path d="M68.839 77.419a7.79 7.79 0 0 0-2.472 5.835c.017 2.829 1.659 6.432.618 11.134-.927 4.19-2.772 4.928-2.216 8.687a1.4 1.4 0 0 0 1.395 1.166h5.505a5.191 5.191 0 0 0 5.118-4.337 51.53 51.53 0 0 0-.628-17.81" fill="#9452BA"/>
        <path d="M71.669 105.241h-5.505a2.4 2.4 0 0 1-2.384-2.02 8.389 8.389 0 0 1 .964-5.482 16.4 16.4 0 0 0 1.264-3.566 18.038 18.038 0 0 0-.215-7.578 19.717 19.717 0 0 1-.426-3.335 8.785 8.785 0 0 1 2.82-6.6l1.3 1.516a6.742 6.742 0 0 0-2.125 5.071c.048 1.004.18 2.003.394 2.985.656 2.745.725 5.598.2 8.372a18.316 18.316 0 0 1-1.4 3.968 6.516 6.516 0 0 0-.8 4.356.4.4 0 0 0 .406.312h5.505a4.171 4.171 0 0 0 4.131-3.5 50.589 50.589 0 0 0-.625-17.466l1.967-.362a52.442 52.442 0 0 1 .631 18.155 6.165 6.165 0 0 1-6.102 5.174z" fill="#52267D"/>
      </g>
      <path fill="#52267D" d="M70.144 84.686l-1.879-.925 1.868-1.493.79.264-.158.475-.532-.179-1.04.831.92.454.537-.343-.351-.079-.232.168-.293-.407.416-.299 1.741.392z"/>
      <g>
        <path d="M40.139 101.318a1.741 1.741 0 0 0-2.239.267c-1.167.958-2.045 2.44-1.522 2.589a5.55 5.55 0 0 0 2.411.116c.841-.154 1.585.008 1.923-1.753a1.177 1.177 0 0 0-.573-1.219z" fill="#FFF"/>
        <path d="M37.861 104.873a6.055 6.055 0 0 1-1.619-.218.7.7 0 0 1-.5-.543c-.17-.817 1-2.221 1.84-2.914a2.272 2.272 0 0 1 2.836-.3c.601.352.915 1.045.785 1.729-.333 1.738-1.111 1.981-2.017 2.1-.1.014-.2.028-.307.047a5.613 5.613 0 0 1-1.018.099zm-1.09-1.117c.634.138 1.29.152 1.929.042a9.75 9.75 0 0 1 .352-.054c.628-.085.944-.128 1.168-1.3a.666.666 0 0 0-.32-.686l-.072-.047c-.078-.058-.707-.482-1.611.262a5.364 5.364 0 0 0-1.446 1.783z" fill="#52267D" fill-rule="nonzero"/>
        <path d="M39.92 101.6a1.084 1.084 0 0 0-1.394.166c-.726.6-1.272 1.518-.947 1.611.489.133 1 .158 1.5.072.523-.1.986 0 1.2-1.091a.731.731 0 0 0-.359-.758z" fill="#E1F2FF"/>
      </g>
      <path fill="#52267D" d="M48.11 89.603l-2.341-.171-.319-2.235 2.172-.675.148.476-1.766.551.202 1.414 1.691.122.655-.757-.847-.469-.516.149.368.41-.371.334-.901-1.002 1.48-.431 1.568.871z"/>
      <g opacity=".3" fill="#F3E3FF">
        <path d="M6.061 27.389a.662.662 0 0 1-.66-.661h.25a.411.411 0 1 0 .821 0h.25c0 .365-.296.66-.661.661z"/>
        <path d="M4.99 27.389a.662.662 0 0 1-.661-.661h.25a.411.411 0 0 0 .822 0h.25c0 .365-.296.66-.661.661z"/>
        <path d="M5.526 27.925a.662.662 0 0 1-.661-.661h.25a.411.411 0 1 0 .821 0h.25c0 .365-.295.66-.66.661zM26.471 26.47a.91.91 0 0 1-.481-.138l.133-.212a.664.664 0 1 0 .7-1.129l.131-.213a.915.915 0 0 1-.483 1.692z"/>
        <path d="M26.725 27.558a.91.91 0 0 1-.481-.138l.132-.212a.665.665 0 0 0 .7-1.129l.13-.213a.914.914 0 0 1-.481 1.692zM52.2 45.069a.844.844 0 0 1-.844-.842h.25a.594.594 0 0 0 1.187 0h.25a.844.844 0 0 1-.843.842z"/>
        <path d="M50.764 45.069a.843.843 0 0 1-.843-.842h.25a.594.594 0 0 0 1.187 0h.25a.844.844 0 0 1-.844.842z"/>
        <path d="M51.483 45.788a.845.845 0 0 1-.844-.844h.25a.594.594 0 0 0 1.188 0h.25a.845.845 0 0 1-.844.844zM30.738 90.6a.845.845 0 0 1-.844-.844h.25a.594.594 0 1 0 1.187 0h.25a.845.845 0 0 1-.843.844z"/>
        <path d="M29.3 90.6a.845.845 0 0 1-.844-.844h.25a.594.594 0 0 0 1.188 0h.25a.845.845 0 0 1-.844.844z"/>
        <path d="M30.019 91.319a.844.844 0 0 1-.844-.842h.25a.594.594 0 0 0 1.188 0h.25a.844.844 0 0 1-.844.842zM51.16 22.236a.915.915 0 0 1-.915-.915h.25a.665.665 0 1 0 1.329 0h.25c0 .505-.41.914-.914.915z"/>
        <path d="M50.37 23.026a.915.915 0 0 1-.914-.915h.25a.665.665 0 1 0 1.329 0h.25c0 .505-.41.914-.915.915zM41.236 36.353a1.086 1.086 0 0 1-1.085-1.084h.25a.835.835 0 0 0 1.669 0h.25a1.086 1.086 0 0 1-1.084 1.084z"/>
        <path d="M40.276 37.313a1.086 1.086 0 0 1-1.084-1.085h.25a.835.835 0 1 0 1.669 0h.25a1.087 1.087 0 0 1-1.085 1.085z"/>
        <g>
          <path d="M26.98 12.178a.768.768 0 0 1-.767-.767h.25a.517.517 0 1 0 1.034 0h.25a.768.768 0 0 1-.767.767z"/>
          <path d="M26.338 12.82a.767.767 0 0 1-.766-.767h.25a.517.517 0 1 0 1.033 0h.25a.768.768 0 0 1-.767.767z"/>
        </g>
        <g>
          <path d="M87.307 76.5h-.072a.854.854 0 0 1-.588-.3l.191-.162a.613.613 0 0 0 .936-.793l.191-.162a.867.867 0 0 1-.1 1.218.865.865 0 0 1-.558.199z"/>
          <path d="M87.22 77.543a.862.862 0 0 1-.66-.305l.191-.162c.22.258.607.29.866.072a.6.6 0 0 0 .214-.417.609.609 0 0 0-.143-.448l.191-.162a.863.863 0 0 1-.659 1.422z"/>
        </g>
        <g>
          <path d="M58.164 66.547a1 1 0 0 1-.9-.58l.227-.1a.742.742 0 1 0 1.35-.616l.227-.1a.992.992 0 0 1-.9 1.4l-.004-.004z"/>
          <path d="M56.586 67.267a1 1 0 0 1-.9-.581l.228-.1a.741.741 0 0 0 1.349-.613l.227-.1a.992.992 0 0 1-.9 1.4l-.004-.006z"/>
          <path d="M57.734 67.7a.984.984 0 0 1-.903-.58l.227-.1a.742.742 0 0 0 1.35-.616l.227-.1a.99.99 0 0 1-.9 1.4l-.001-.004z"/>
          <path d="M56.157 68.415a.992.992 0 0 1-.9-.581l.227-.1a.737.737 0 0 0 .416.386.742.742 0 0 0 .934-1.002l.227-.1a.99.99 0 0 1-.49 1.312.975.975 0 0 1-.414.085zM58.882 68.124a.987.987 0 0 1-.9-.58l.226-.1a.742.742 0 1 0 1.35-.617l.228-.1a.993.993 0 0 1-.491 1.314.982.982 0 0 1-.413.083z"/>
        </g>
        <path d="M43.155 18.9a1 1 0 0 1-1-1h.25a.75.75 0 1 0 1.5 0h.25a1 1 0 0 1-1 1zM42.851 51.95a1 1 0 0 1-1-1h.25a.75.75 0 1 0 1.5 0h.25a1 1 0 0 1-1 1zM52.552 33.52a.79.79 0 0 1-.788-.788h.25a.538.538 0 1 0 1.075 0h.25a.789.789 0 0 1-.787.788zM68.165 18.3a.624.624 0 0 1-.622-.623h.25a.373.373 0 1 0 .745 0h.25c0 .344-.28.622-.623.623zM72.664 91.626a1 1 0 0 1-.982-.829l.246-.043a.75.75 0 0 0 1.477-.256l.246-.043a1 1 0 0 1-.987 1.171z"/>
        <g>
          <path d="M48.6 98.3a1.085 1.085 0 0 1-1.084-1.084h.25a.835.835 0 0 0 1.669 0h.25c0 .599-.486 1.084-1.085 1.084z"/>
          <path d="M47.644 99.262c-.6 0-1.085-.486-1.085-1.085h.25a.835.835 0 1 0 1.669 0h.25c0 .599-.485 1.084-1.084 1.085z"/>
        </g>
      </g>
      <g>
        <path d="M41.5 101.3c.508-.068 1.239 1.035 1.155 1.371-.084.336-.141 1.447-.963 1.568-.6.089-2.765.313-3.236-.156-.432-.431.419-2.43 3.044-2.783z" fill="#FFF"/>
        <path d="M39.96 104.877a2.88 2.88 0 0 1-1.854-.438 1.151 1.151 0 0 1-.159-1.218 4.061 4.061 0 0 1 3.489-2.415c.441-.018.861.188 1.117.548.388.376.602.897.591 1.438-.011.042-.02.1-.031.162-.086.487-.288 1.625-1.345 1.781-.599.088-1.203.136-1.808.142zm1.582-3.077a3.4 3.4 0 0 0-2.444 1.342 1.1 1.1 0 0 0-.245.651c.92.135 1.855.118 2.77-.049.317-.046.426-.521.5-.965.016-.091.031-.169.045-.228a1.845 1.845 0 0 0-.626-.751z" fill="#52267D" fill-rule="nonzero"/>
        <path d="M41.645 101.607c.3-.04.731.61.682.809-.049.199-.084.854-.568.925-.358.052-1.632.185-1.91-.092-.257-.255.251-1.434 1.796-1.642z" fill="#E1F2FF"/>
      </g>
      <g>
        <path d="M43.307 101.844s-.388-.2-1.156.237c-.679.388-1.692 1.008-1.425 1.78.267.772 2.411.484 2.887.321.47-.167.76-.641.692-1.136a1.489 1.489 0 0 0-.998-1.202z" fill="#FFF"/>
        <path d="M42.124 104.87c-.8 0-1.64-.178-1.871-.846-.414-1.2 1.033-2.024 1.65-2.377a1.838 1.838 0 0 1 1.568-.277 2 2 0 0 1 1.325 1.585 1.546 1.546 0 0 1-1.022 1.7 6.5 6.5 0 0 1-1.65.215zm.917-2.572c-.229.016-.45.091-.642.217-.332.19-1.344.767-1.2 1.182.186.26 1.7.2 2.252.012a.558.558 0 0 0 .363-.572.993.993 0 0 0-.641-.812l-.063-.021a.339.339 0 0 0-.069-.004v-.002z" fill="#52267D" fill-rule="nonzero"/>
        <path d="M43.453 102.117s-.23-.12-.685.14c-.4.23-1 .6-.844 1.054.156.454 1.428.287 1.71.191.278-.1.45-.38.41-.673a.882.882 0 0 0-.591-.712z" fill="#E1F2FF"/>
      </g>
      <g>
        <path d="M23.028 102.058s-.388-.2-1.156.237c-.678.388-1.691 1.008-1.425 1.78s2.411.484 2.888.321c.47-.167.76-.642.691-1.137a1.487 1.487 0 0 0-.998-1.201z" fill="#FFF"/>
        <path d="M21.846 105.084c-.8 0-1.64-.179-1.871-.847-.414-1.2 1.032-2.023 1.649-2.377a1.835 1.835 0 0 1 1.569-.276 2 2 0 0 1 1.324 1.585 1.542 1.542 0 0 1-1.02 1.7 6.456 6.456 0 0 1-1.651.215zm.917-2.572c-.229.016-.45.091-.642.217-.332.19-1.344.767-1.2 1.182.186.261 1.7.2 2.252.012a.558.558 0 0 0 .363-.571 1 1 0 0 0-.632-.81l-.075-.025a.392.392 0 0 0-.066-.005z" fill="#52267D" fill-rule="nonzero"/>
        <path d="M23.174 102.331s-.23-.12-.684.14c-.4.23-1 .6-.844 1.054.156.454 1.427.287 1.709.19a.622.622 0 0 0 .41-.673.882.882 0 0 0-.591-.711z" fill="#E1F2FF"/>
      </g>
      <g>
        <path d="M25.374 101.515c.508-.068 1.239 1.035 1.155 1.371-.084.336-.141 1.447-.963 1.567-.6.089-2.765.314-3.236-.155-.43-.433.416-2.431 3.044-2.783z" fill="#FFF"/>
        <path d="M23.831 105.091a2.876 2.876 0 0 1-1.854-.439 1.151 1.151 0 0 1-.159-1.217 4.061 4.061 0 0 1 3.489-2.415 1.3 1.3 0 0 1 1.117.548c.388.376.602.897.591 1.438-.011.042-.019.1-.031.162-.086.486-.288 1.625-1.345 1.78-.599.09-1.203.137-1.808.143zm1.583-3.077a3.4 3.4 0 0 0-2.445 1.342c-.15.185-.235.413-.245.651.92.135 1.856.118 2.771-.049.316-.046.425-.521.5-.965.016-.091.031-.17.045-.228a1.85 1.85 0 0 0-.626-.751z" fill="#52267D" fill-rule="nonzero"/>
        <path d="M25.516 101.821c.3-.041.731.61.682.809-.049.199-.084.853-.568.925-.358.052-1.632.185-1.91-.092-.256-.255.246-1.435 1.796-1.642z" fill="#E1F2FF"/>
      </g>
      <g>
        <path d="M66.868 101.318a1.741 1.741 0 0 0-2.239.267c-1.167.958-2.045 2.44-1.521 2.589a5.55 5.55 0 0 0 2.411.116c.841-.154 1.585.008 1.922-1.753a1.176 1.176 0 0 0-.573-1.219z" fill="#FFF"/>
        <path d="M64.6 104.621a5.926 5.926 0 0 1-1.561-.207.451.451 0 0 1-.324-.352c-.128-.619.823-1.9 1.756-2.67a2.01 2.01 0 0 1 2.532-.284c.516.299.79.89.683 1.476-.325 1.7-1.077 1.806-1.8 1.9-.1.015-.21.03-.318.049-.32.059-.643.088-.968.088zm1.378-3.333a1.869 1.869 0 0 0-1.189.49 4.164 4.164 0 0 0-1.583 2.185 5.828 5.828 0 0 0 2.268.081c.115-.021.23-.036.341-.052.676-.091 1.122-.152 1.381-1.5a.925.925 0 0 0-.448-.952l-.037-.025a1.237 1.237 0 0 0-.733-.227z" fill="#52267D" fill-rule="nonzero"/>
        <path d="M66.649 101.6a1.083 1.083 0 0 0-1.393.166c-.726.6-1.272 1.518-.947 1.611.489.133 1 .158 1.5.072.523-.1.986 0 1.2-1.091a.731.731 0 0 0-.36-.758z" fill="#E1F2FF"/>
      </g>
      <g>
        <path d="M68.232 101.3c.508-.068 1.239 1.035 1.156 1.371-.083.336-.142 1.447-.963 1.568-.606.089-2.765.313-3.236-.156-.435-.431.416-2.43 3.043-2.783z" fill="#FFF"/>
        <path d="M66.664 104.624a2.645 2.645 0 0 1-1.652-.363.923.923 0 0 1-.1-.961 3.884 3.884 0 0 1 3.286-2.247c.355.01.687.182.9.467.263.293.622.858.535 1.212-.011.046-.022.107-.035.179-.083.47-.257 1.448-1.135 1.575-.596.086-1.197.132-1.799.138zm1.615-3.076h-.013a3.35 3.35 0 0 0-2.878 1.911c-.09.266-.054.416-.022.447.3.3 1.949.243 3.023.085.481-.07.621-.64.715-1.169.015-.085.028-.157.042-.212a1.727 1.727 0 0 0-.507-.845.638.638 0 0 0-.36-.217z" fill="#52267D" fill-rule="nonzero"/>
        <path d="M68.375 101.607c.3-.04.731.61.682.809-.049.199-.084.854-.569.925-.357.052-1.631.185-1.909-.092-.257-.255.245-1.434 1.796-1.642z" fill="#E1F2FF"/>
      </g>
      <g>
        <path d="M70.037 101.844s-.388-.2-1.156.237c-.679.388-1.692 1.008-1.425 1.78.267.772 2.41.484 2.887.321.471-.166.76-.641.691-1.136a1.487 1.487 0 0 0-.997-1.202z" fill="#FFF"/>
        <path d="M68.861 104.624c-.727 0-1.458-.151-1.642-.681-.346-1 .926-1.73 1.537-2.079a1.583 1.583 0 0 1 1.367-.255c.616.21 1.063.747 1.158 1.391.088.616-.27 1.21-.857 1.418a5.923 5.923 0 0 1-1.563.206zm.91-2.576a1.587 1.587 0 0 0-.767.25c-.753.431-1.5.943-1.312 1.48.174.506 2.036.35 2.57.167a.8.8 0 0 0 .527-.853 1.242 1.242 0 0 0-.817-1.007l-.044-.016a.5.5 0 0 0-.157-.021z" fill="#52267D" fill-rule="nonzero"/>
        <path d="M70.182 102.117s-.229-.12-.684.14c-.4.23-1 .6-.844 1.054.156.454 1.427.287 1.71.191.279-.1.45-.38.409-.673a.882.882 0 0 0-.591-.712z" fill="#E1F2FF"/>
      </g>
      <g>
        <path d="M32.043 101.99a.47.47 0 0 1 .5-.1c.584.275 2.057 1.058 1.753 2.116-.237.825-.741.577-1.7.595l-.726.013a.409.409 0 0 1-.366-.213 1.979 1.979 0 0 1 .488-2.371l.051-.04z" fill="#FFF"/>
        <path d="M33.439 105.123c-.106 0-.21 0-.311-.009-.156-.007-.333-.019-.522-.011l-.726.013a.937.937 0 0 1-.8-.456 2.486 2.486 0 0 1 .594-3.009l.373.339-.324-.38a.97.97 0 0 1 1.041-.171c1.59.75 2.308 1.712 2.022 2.708a1.216 1.216 0 0 1-1.347.976zm-1.1-2.779l.03.029-.051.042a1.482 1.482 0 0 0-.378 1.729l.654-.044c.214 0 .411 0 .586.012.565.025.57.027.648-.245.186-.667-1.095-1.336-1.493-1.523h.004z" fill="#52267D" fill-rule="nonzero"/>
        <path d="M32.118 102.227a.342.342 0 0 1 .367-.071c.424.2 1.495.769 1.274 1.538-.173.6-.539.419-1.238.432l-.528.009a.3.3 0 0 1-.266-.154 1.437 1.437 0 0 1 .355-1.723l.036-.031z" fill="#E1F2FF"/>
      </g>
      <g>
        <path d="M28.634 101.674a1.74 1.74 0 0 0-2.254.075c-1.244.856-2.245 2.257-1.736 2.45.764.281 1.581.39 2.393.321.851-.082 1.578.143 2.064-1.583a1.177 1.177 0 0 0-.467-1.263z" fill="#FFF"/>
        <path d="M26.556 105.042a6.1 6.1 0 0 1-2.089-.375.7.7 0 0 1-.453-.583c-.1-.829 1.185-2.129 2.083-2.747a2.275 2.275 0 0 1 2.85-.055c.57.401.825 1.119.635 1.79-.48 1.7-1.275 1.88-2.188 1.925-.1 0-.2.01-.31.021a5.682 5.682 0 0 1-.528.024zm-1.485-1.225c.62.19 1.272.259 1.918.2.121-.012.239-.018.355-.024.634-.031.951-.047 1.276-1.2a.657.657 0 0 0-.268-.714l-.061-.049c-.064-.057-.654-.546-1.627.122a5.38 5.38 0 0 0-1.593 1.665z" fill="#52267D" fill-rule="nonzero"/>
        <path d="M28.391 101.94a1.082 1.082 0 0 0-1.4.046c-.774.533-1.4 1.405-1.081 1.525a3.46 3.46 0 0 0 1.489.2c.53-.052.983.089 1.285-.985a.731.731 0 0 0-.293-.786z" fill="#E1F2FF"/>
      </g>
    </g>
    <path d="M55.909 225.729h-36a1 1 0 1 1 0-2h36a1 1 0 1 1 0 2zM239.249 225.729h-44a1 1 0 1 1 0-2h44a1 1 0 1 1 0 2z" fill="#5E63B6"/>
    <path d="M67.067 224.729H44.144a2.262 2.262 0 0 1-2.262-2.262V88.232a2.262 2.262 0 0 1 2.262-2.262h22.923c2.225 0 5.029 1.8 5.029 4.029l-1 130.7a4.029 4.029 0 0 1-4.029 4.03z" fill="#EFEFF8"/>
    <path d="M67.067 225.729H44.144a3.265 3.265 0 0 1-3.262-3.262V88.232a3.265 3.265 0 0 1 3.262-3.262h22.923c2.788 0 6.029 2.2 6.029 5.029l-1 130.708a5.033 5.033 0 0 1-5.029 5.022zM44.144 86.97a1.264 1.264 0 0 0-1.262 1.262v134.235c.002.696.566 1.26 1.262 1.262h22.923A3.034 3.034 0 0 0 70.1 220.7l1-130.708c0-1.552-2.269-3.021-4.029-3.021l-22.927-.001z" fill="#5E63B6" fill-rule="nonzero"/>
    <path d="M92.2 224.729H66.612a2.375 2.375 0 0 1-2.375-2.375V88.344a2.374 2.374 0 0 1 2.375-2.374H92.2a4.229 4.229 0 0 1 4.23 4.23v130.3a4.229 4.229 0 0 1-4.23 4.229z" fill="#FFF"/>
    <path d="M92.2 225.729H66.612a3.378 3.378 0 0 1-3.374-3.374V88.344a3.378 3.378 0 0 1 3.374-3.374H92.2a5.235 5.235 0 0 1 5.23 5.23v130.3a5.235 5.235 0 0 1-5.23 5.229zM66.612 86.97a1.376 1.376 0 0 0-1.374 1.374v134.011a1.376 1.376 0 0 0 1.374 1.374H92.2a3.234 3.234 0 0 0 3.229-3.23V90.2a3.233 3.233 0 0 0-3.229-3.23H66.612z" fill="#5E63B6" fill-rule="nonzero"/>
    <path d="M133.259 223.72H74.272a1.374 1.374 0 0 1-1.374-1.375l1-134.027c0-.759.615-1.374 1.374-1.374h57.987a4.2 4.2 0 0 1 4.2 4.2v128.377a4.2 4.2 0 0 1-4.2 4.199z" fill="#E1F2FF"/>
    <path d="M81.714 56.648H110.5a4.959 4.959 0 0 1 4.959 4.959V219.77a4.959 4.959 0 0 1-4.959 4.959H81.714a2.784 2.784 0 0 1-2.784-2.784V59.432a2.784 2.784 0 0 1 2.784-2.784z" fill="#EFEFF8"/>
    <path d="M110.5 225.729H81.714a3.789 3.789 0 0 1-3.784-3.785V59.432a3.788 3.788 0 0 1 3.784-3.784H110.5a5.966 5.966 0 0 1 5.96 5.959V219.77a5.966 5.966 0 0 1-5.96 5.959zM81.714 57.648c-.985.001-1.783.8-1.784 1.784v162.512a1.787 1.787 0 0 0 1.784 1.785H110.5a3.964 3.964 0 0 0 3.96-3.959V61.607a3.964 3.964 0 0 0-3.96-3.959H81.714z" fill="#5E63B6" fill-rule="nonzero"/>
    <path d="M108.218 56.648h85.362a5.58 5.58 0 0 1 5.58 5.58v156.921a5.58 5.58 0 0 1-5.58 5.58h-85.362a1.827 1.827 0 0 1-1.827-1.827V58.474c0-1.009.818-1.826 1.827-1.826z" fill="#FFF"/>
    <path d="M193.58 225.729h-85.362a2.831 2.831 0 0 1-2.827-2.827V58.474a2.83 2.83 0 0 1 2.827-2.826h85.362a6.588 6.588 0 0 1 6.58 6.58v156.921a6.588 6.588 0 0 1-6.58 6.58zM108.218 57.648a.828.828 0 0 0-.827.826V222.9c0 .457.37.826.827.827h85.362a4.586 4.586 0 0 0 4.58-4.58V62.228a4.585 4.585 0 0 0-4.58-4.58h-85.362z" fill="#5E63B6" fill-rule="nonzero"/>
    <g fill="#5E63B6">
      <path d="M213.2 45.47a1 1 0 0 1-1-1v-7a1 1 0 1 1 2 0v7a1 1 0 0 1-1 1z"/>
      <path d="M216.7 41.97h-7a1 1 0 1 1 0-2h7a1 1 0 1 1 0 2z"/>
    </g>
    <g fill="#5E63B6">
      <path d="M16.727 180.106a.5.5 0 0 1-.5-.5v-3.938a.5.5 0 0 1 1 0v3.938a.5.5 0 0 1-.5.5z"/>
      <path d="M18.7 178.137h-3.942a.5.5 0 0 1 0-1H18.7a.5.5 0 0 1 0 1z"/>
    </g>
    <g fill="#5E63B6">
      <path d="M230.061 124.105a.5.5 0 0 1-.5-.5v-3.937a.5.5 0 0 1 1 0v3.937a.5.5 0 0 1-.5.5z"/>
      <path d="M232.03 122.136h-3.938a.5.5 0 0 1 0-1h3.938a.5.5 0 0 1 0 1z"/>
    </g>
    <g fill="#5E63B6">
      <path d="M104.331 33.157a.5.5 0 0 1-.5-.5v-3.938a.5.5 0 0 1 1 0v3.938a.5.5 0 0 1-.5.5z"/>
      <path d="M106.3 31.188h-3.937a.5.5 0 0 1 0-1h3.937a.5.5 0 0 1 0 1z"/>
    </g>
    <g fill="#5E63B6">
      <path d="M25.679 59.084a1 1 0 0 1-1-1v-8.125a1 1 0 1 1 2 0v8.125a1 1 0 0 1-1 1z"/>
      <path d="M29.742 55.022h-8.125a1 1 0 1 1 0-2h8.125a1 1 0 0 1 0 2z"/>
    </g>
    <path d="M253.07 225.487h-6.97a1 1 0 1 1 0-2h6.973a1 1 0 1 1 0 2h-.003zM11.9 225.487H2.93a1 1 0 1 1 0-2h8.97a1 1 0 1 1 0 2zM162.5 234.8H95.313a1 1 0 0 1 0-2H162.5a1 1 0 0 1 0 2zM180.258 234.8h-9.14a1 1 0 0 1 0-2h9.14a1 1 0 0 1 0 2z" fill="#5E63B6"/>
    <path d="M87.43 233.729l-5 .075" fill="#FFF"/>
    <path d="M82.43 234.8a1 1 0 0 1-.015-2l5-.075a.983.983 0 0 1 1.015.985 1 1 0 0 1-.985 1.015l-5 .075h-.015z" fill="#5E63B6"/>
    <g transform="translate(134 79)">
      <rect fill="#E1F2FF" x=".517" y="5.095" width="35.032" height="35.032" rx="17.516"/>
      <g transform="translate(3)">
        <rect fill="#FFF" x="1.517" y="1.095" width="35.032" height="35.032" rx="17.516"/>
        <path d="M19.034 37.128a18.517 18.517 0 1 1 18.515-18.517c-.012 10.221-8.294 18.504-18.515 18.517zm0-35.033C9.962 2.165 2.646 9.54 2.646 18.612c0 9.071 7.316 16.445 16.388 16.516 9.072-.07 16.388-7.445 16.388-16.517 0-9.071-7.316-16.445-16.388-16.516z" fill="#5E63B6" fill-rule="nonzero"/>
      </g>
      <g transform="translate(25 12)" fill="#ACD3EF">
        <circle cx="3.761" cy="3.539" r="2.621"/>
        <path d="M3.861 6.859A3.553 3.553 0 0 0 .209 10.41v3.027c0 .304.247.551.551.551h6a.551.551 0 0 0 .551-.551v-2.953a3.6 3.6 0 0 0-3.45-3.625z"/>
      </g>
      <g transform="translate(11 12)" fill="#ACD3EF">
        <circle cx="4.229" cy="3.539" r="2.621"/>
        <path d="M4.329 6.859A3.553 3.553 0 0 0 .677 10.41v3.027c0 .304.247.551.551.551h6a.551.551 0 0 0 .552-.551v-2.953a3.6 3.6 0 0 0-3.451-3.625z"/>
      </g>
      <g transform="translate(17 10)" fill="#89C3EA">
        <circle cx="5.037" cy="3.302" r="3.181"/>
        <path d="M5.158 7.334a4.312 4.312 0 0 0-4.434 4.31v3.675c0 .37.3.669.669.669H8.68a.668.668 0 0 0 .669-.669v-3.585a4.37 4.37 0 0 0-4.191-4.4z"/>
      </g>
    </g>
    <path fill="#FFF" d="M105.398 183.946l-25.494.043v-36.315l25.494-.042zM79.98 67.802h25.398v7.654H79.98z"/>
    <path fill="#DFE1F0" d="M63.239 107.815H42.894l-.018-10.423h20.36zM42.869 187.618H63.24v11.126H42.869z"/>
    <path d="M126.564 123.268h59.128a3.6 3.6 0 0 1 3.6 3.6v93.275a3.6 3.6 0 0 1-3.6 3.6h-59.783c-.65 0-1.178-.527-1.178-1.178V125.1c0-1.012.821-1.832 1.833-1.832z" fill="#E1F2FF"/>
    <path d="M138.884 124.154h17.226a2.967 2.967 0 0 1 2.967 2.967v94.64a2.967 2.967 0 0 1-2.967 2.967h-17.226c-.92 0-1.666-.746-1.666-1.666V125.82c0-.92.746-1.666 1.666-1.666z" fill="#EFEFF8"/>
    <path d="M156.11 225.729h-17.227a2.669 2.669 0 0 1-2.665-2.666V125.82a2.669 2.669 0 0 1 2.665-2.666h17.227a3.973 3.973 0 0 1 3.968 3.968v94.639a3.974 3.974 0 0 1-3.968 3.968zm-17.227-100.575a.666.666 0 0 0-.665.666v97.243c0 .367.298.665.665.666h17.227a1.97 1.97 0 0 0 1.968-1.968v-94.639a1.97 1.97 0 0 0-1.968-1.968h-17.227z" fill="#5E63B6" fill-rule="nonzero"/>
    <path d="M154.759 124.154h52.691a3.389 3.389 0 0 1 3.389 3.389v93.8a3.389 3.389 0 0 1-3.389 3.389h-52.691a1.109 1.109 0 0 1-1.109-1.109v-98.359a1.109 1.109 0 0 1 1.109-1.11z" fill="#FFF"/>
    <path d="M207.451 225.729h-52.692a2.112 2.112 0 0 1-2.109-2.11v-98.355a2.112 2.112 0 0 1 2.109-2.11h52.692a4.393 4.393 0 0 1 4.388 4.389v93.8a4.393 4.393 0 0 1-4.388 4.386zm-52.692-100.575a.109.109 0 0 0-.109.11v98.355a.109.109 0 0 0 .109.11h52.692a2.391 2.391 0 0 0 2.388-2.389v-93.8a2.391 2.391 0 0 0-2.388-2.389l-52.692.003z" fill="#5E63B6" fill-rule="nonzero"/>
    <path fill="#DFE1F0" d="M138.226 195.944h14.415v6.528h-14.415zM138.216 133.559h14.434v6.612h-14.434z"/>
    <g transform="translate(165 141)">
      <rect fill="#E1F2FF" x=".861" y="4.033" width="26.389" height="26.389" rx="13.194"/>
      <g transform="translate(2)">
        <rect fill="#FFF" x="1.861" y="1.033" width="26.389" height="26.389" rx="13.194"/>
        <path d="M15.055 28.422a14.195 14.195 0 1 1 14.194-14.194c-.009 7.835-6.359 14.185-14.194 14.194zm0-26.389C8.32 2.033 2.86 7.491 2.859 14.226 2.858 20.96 8.316 26.42 15.05 26.423c6.735.002 12.196-5.455 12.199-12.19-.004-6.734-5.46-12.192-12.194-12.2z" fill="#5E63B6" fill-rule="nonzero"/>
      </g>
      <path d="M21.2 10.129s-3 2.833-3.241 5.158c-.234 2.3.837 4.321 3.241 4.321s3.764-2.126 3.311-4.5c-.453-2.374-3.311-4.979-3.311-4.979z" fill="#F74B64"/>
      <path d="M17.015 7.341s-3 2.832-3.241 5.158c-.235 2.3.836 4.321 3.241 4.321 2.405 0 3.764-2.126 3.311-4.5-.453-2.374-3.311-4.979-3.311-4.979z" fill="#4CA8E0"/>
      <path d="M12.833 10.129s-3 2.833-3.241 5.158c-.235 2.3.836 4.321 3.241 4.321 2.405 0 3.764-2.126 3.311-4.5-.453-2.374-3.311-4.979-3.311-4.979z" fill="#FCCE76"/>
    </g>
    <path d="M101.03 111.045H84.292a1 1 0 0 1 0-2h16.738a1 1 0 1 1 0 2zM97.2 117.694h-9.075a1 1 0 0 1 0-2H97.2a1 1 0 0 1 0 2z" fill="#5E63B6"/>
    <path d="M145 186.862a1 1 0 0 1-1-1V154.04a1 1 0 1 1 2 0v31.822a1 1 0 0 1-1 1z" fill="#B0B0DB"/>
    <path d="M52.521 180.138a1 1 0 0 1-1-1V117.7a1 1 0 0 1 2 0v61.443a1 1 0 0 1-1 .995z" fill="#5E63B6"/>
    <g fill="#5E63B6">
      <path d="M117.696 54.648v28.005l7.605-3.953 7.605 3.953V54.648z"/>
      <path d="M117.7 83.653a1 1 0 0 1-1-1V54.648a1 1 0 0 1 1-1h15.21a1 1 0 0 1 1 1v28.005a1 1 0 0 1-1.461.888l-7.149-3.714-7.144 3.714a1 1 0 0 1-.456.112zm1-28.005v25.358l6.144-3.193a1 1 0 0 1 .922 0l6.144 3.193V55.648H118.7z" fill-rule="nonzero"/>
    </g>
    <path d="M147.713 218.778c.035.105.066.177.075.2-.238-2.294 1.063-3.25 1.482-4.774a.473.473 0 0 1 .013-.075.887.887 0 0 0 .021-.1 2.184 2.184 0 0 0-.438-1.423l-.005-.008c-.027-.043-.056-.085-.085-.128a6.604 6.604 0 0 0-.171-.235l-.019-.024-.05-.064a1.532 1.532 0 0 0-.053-.066l-.053-.065-.056-.066-.041-.046a11.507 11.507 0 0 0-1.881-1.687 11.3 11.3 0 0 1 .022 2.417 9.069 9.069 0 0 1-.81 2.68 9.118 9.118 0 0 1-2.727-.632 11.183 11.183 0 0 1-2.089-1.225l.025.214.008.064.021.153c0 .023.007.047.01.07l.024.153.01.062c.01.065.021.128.033.192v.019c.013.074.027.148.042.221v.017l.041.2.008.039.041.179.009.034c.017.068.033.136.051.2.058.216.12.424.188.623v.007c.106.313.237.617.392.909l.065.115.06.1c.022.035.044.07.067.1l.01.014.09.123.016.019v.007c.035.044.07.087.107.126l.078.081.034.032.049.045.038.031.048.038.039.028.05.034.039.024.053.03.037.019.062.028.031.013c.031.012.063.023.095.032.032.009.039.013.057.02 1.532.4 3.023-.237 4.893 1.1M95.047 218.71c.048.14.089.236.1.268-.318-3.075 1.425-4.356 1.985-6.4a.777.777 0 0 1 .018-.1c.012-.046.021-.092.028-.139a2.919 2.919 0 0 0-.587-1.908l-.006-.011c-.036-.057-.075-.114-.114-.171-.072-.1-.149-.209-.23-.315l-.024-.032-.069-.086a2.719 2.719 0 0 0-.07-.089l-.072-.086-.074-.089-.054-.062a15.478 15.478 0 0 0-2.522-2.259c.126 1.075.136 2.161.03 3.239a12.208 12.208 0 0 1-1.086 3.59 12.214 12.214 0 0 1-3.654-.848c-.99-.443-1.93-.994-2.8-1.641.01.1.022.191.033.287 0 .028.008.057.011.085.009.069.018.137.028.2 0 .032.009.063.014.095.01.068.02.136.031.2l.013.084c.015.086.029.172.045.257v.025l.056.3.005.023.055.263.012.053.055.239c0 .015.008.03.011.046.023.091.045.183.069.272.077.288.161.567.252.834v.01c.141.42.317.827.524 1.218.029.052.059.1.088.153v.006a3.388 3.388 0 0 0 .17.27l.012.017c.039.057.08.112.12.165l.021.025.007.01c.047.059.095.116.144.169l.1.109.045.042.067.06.05.042.065.051.052.037.067.046.052.032.071.041.05.025.083.037.041.017c.042.017.084.03.127.043.029.009.053.018.077.027 2.052.542 4.051-.317 6.558 1.475M56.047 218.71c.047.14.089.236.1.268-.319-3.075 1.425-4.356 1.985-6.4a.777.777 0 0 1 .018-.1c.012-.046.021-.092.028-.139a2.919 2.919 0 0 0-.587-1.908l-.007-.011c-.035-.057-.074-.114-.113-.171-.072-.1-.149-.209-.23-.315l-.025-.032-.068-.086-.07-.089-.072-.086-.074-.089-.055-.062c-.755-.843-1.6-1.6-2.521-2.259.126 1.075.136 2.161.03 3.239a12.238 12.238 0 0 1-1.086 3.59 12.221 12.221 0 0 1-3.655-.848c-.99-.443-1.93-.994-2.8-1.641.01.1.022.191.033.287 0 .028.008.057.011.085.009.069.017.137.028.2 0 .032.008.063.013.095l.032.2.013.084c.014.086.029.172.045.257v.025l.056.3.005.023.055.263.011.053.055.239c.005.015.01.03.012.046.023.091.045.183.069.272.077.288.161.567.252.834v.01c.141.42.317.827.524 1.218l.088.153v.006a5.265 5.265 0 0 0 .171.27l.013.017c.039.057.08.112.12.165l.021.025.007.01c.046.059.094.116.144.169l.1.109.045.042.066.06c.022.02.034.027.051.042l.065.051a.948.948 0 0 0 .051.037l.067.046.052.032.072.041.049.025.083.037.042.017c.042.017.084.03.127.043.029.009.053.018.077.027 2.052.542 4.051-.317 6.557 1.475M198.363 186.47h-31a1 1 0 1 1 0-2h31a1 1 0 1 1 0 2z" fill="#5E63B6"/>
    <path d="M198.363 186.47h-31a1 1 0 1 1 0-2h31a1 1 0 1 1 0 2zM198.363 195.3h-31a1 1 0 1 1 0-2h31a1 1 0 1 1 0 2zM198.363 204.137h-31a1 1 0 1 1 0-2h31a1 1 0 1 1 0 2z" fill="#5E63B6"/>
  </g>
</svg>
