<svg width="256" height="256" xmlns="http://www.w3.org/2000/svg">
  <g fill="none" fill-rule="evenodd">
    <path d="M23.36 218.435c0-57.193 46.365-103.558 103.558-103.558 57.194 0 103.558 46.365 103.558 103.558H23.361z" fill="#E1F2FF"/>
    <path d="M243.25 32.781v3.938M245.218 34.75h-3.938M63.585 11.5v3.938M65.554 13.469h-3.938" stroke="#5E63B6" stroke-linecap="round"/>
    <path d="M245.218 209.605h6.973" fill="#FFF"/>
    <path d="M245.218 209.605h6.973" stroke="#5E63B6" stroke-width="2" stroke-linecap="round" stroke-linejoin="round"/>
    <path d="M3 209.605h8.973" fill="#FFF"/>
    <path d="M3 209.605h8.973" stroke="#5E63B6" stroke-width="2" stroke-linecap="round" stroke-linejoin="round"/>
    <path d="M94.23 218.719h67.188" fill="#FFF"/>
    <path d="M94.23 218.719h67.188" stroke="#5E63B6" stroke-width="2" stroke-linecap="round" stroke-linejoin="round"/>
    <path d="M170.036 218.719h9.141" fill="#FFF"/>
    <path d="M170.036 218.719h9.141" stroke="#5E63B6" stroke-width="2" stroke-linecap="round" stroke-linejoin="round"/>
    <path d="M86.349 218.644l-5 .075" fill="#FFF"/>
    <path d="M86.349 218.644l-5 .075M25.91 84.03v7M29.41 87.53h-7M233.977 157.348v7M237.477 160.848h-7" stroke="#5E63B6" stroke-width="2" stroke-linecap="round" stroke-linejoin="round"/>
    <path d="M22.41 168.906v3.938M24.378 170.875H20.44" stroke="#5E63B6" stroke-linecap="round"/>
    <path d="M20.275 209.644h217.894" fill="#FFF"/>
    <path d="M20.275 209.644h217.894" stroke="#5E63B6" stroke-width="2" stroke-linecap="round" stroke-linejoin="round"/>
    <path d="M206.519 189.115h-68.691a2 2 0 0 1-2-2v-68.692a2 2 0 0 1 2-2h68.69a2 2 0 0 1 2 2v68.692a2 2 0 0 1-2 2" fill="#FFF"/>
    <path d="M206.519 189.115h-68.691a2 2 0 0 1-2-2v-68.692a2 2 0 0 1 2-2h68.69a2 2 0 0 1 2 2v68.692a2 2 0 0 1-2 2z" stroke="#5E63B6" stroke-width="2"/>
    <path d="M206.519 116.478h-68.691a2 2 0 0 1-2-2V45.787a2 2 0 0 1 2-2h68.69a2 2 0 0 1 2 2v68.69a2 2 0 0 1-2 2" fill="#FFF"/>
    <path d="M206.519 116.478h-68.691a2 2 0 0 1-2-2V45.787a2 2 0 0 1 2-2h68.69a2 2 0 0 1 2 2v68.69a2 2 0 0 1-2 2z" stroke="#5E63B6" stroke-width="2"/>
    <path d="M134.276 116.478h-68.69a2 2 0 0 1-2-2V45.787a2 2 0 0 1 2-2h68.69a2 2 0 0 1 2 2v68.69a2 2 0 0 1-2 2" fill="#FFF"/>
    <path d="M134.276 116.478h-68.69a2 2 0 0 1-2-2V45.787a2 2 0 0 1 2-2h68.69a2 2 0 0 1 2 2v68.69a2 2 0 0 1-2 2z" stroke="#5E63B6" stroke-width="2"/>
    <path d="M81.581 208.775l4.98-.061a4.171 4.171 0 0 0 3.851-2.694c1.71-4.572 1.217-8.746 1.383-12.326.307-6.629-.77-10.01-1.826-15.537l-7.472.266s.67 2.745 1.197 10.998c.163 2.553-3.93 12.869-3.669 17.9.043.826.73 1.465 1.556 1.454" fill="#9452BA"/>
    <path d="M81.581 208.775l4.98-.061a4.171 4.171 0 0 0 3.851-2.694c1.71-4.572 1.217-8.746 1.383-12.326.307-6.629-.77-10.01-1.826-15.537l-7.472.266s.67 2.745 1.197 10.998c.163 2.553-3.93 12.869-3.669 17.9.043.826.73 1.465 1.556 1.454z" stroke="#52267D" stroke-width="2"/>
    <path d="M66.79 185.29l-6.097-6.74-3.71.193s-.449 5.678-.632 8.055c-.324 4.19-1.956 12.413-2.976 16.025-.332 1.176-.52 2.273-.563 3.265-.073 1.671 1.336 3.032 3.01 3.011l4.41-.055c2.57-.032 4.83-1.775 5.431-4.274 1.868-7.778 1.127-19.48 1.127-19.48" fill="#9452BA"/>
    <path d="M66.79 185.29l-6.097-6.74-3.71.193s-.449 5.678-.632 8.055c-.324 4.19-1.956 12.413-2.976 16.025-.332 1.176-.52 2.273-.563 3.265-.073 1.671 1.336 3.032 3.01 3.011l4.41-.055c2.57-.032 4.83-1.775 5.431-4.274 1.868-7.778 1.127-19.48 1.127-19.48z" stroke="#52267D" stroke-width="2"/>
    <path stroke="#52267D" stroke-width=".5" d="M58.397 190.097l-.98.883.959.844 1.538-.614-.32-.674-1.277.32.014.23.333-.02"/>
    <path d="M58.054 160.012c4.379-.145 8.444-3.212 17.375-3.736.122-.585.272-1.116.467-1.55 1.573-3.523 3.728-13.642 2.179-20.251l-1.225-5.231a24.337 24.337 0 0 1-.64-5.233 10.698 10.698 0 0 1 .785-4.15 10.637 10.637 0 0 1 1.249-2.241 10.774 10.774 0 0 1 2.974-2.77 10.597 10.597 0 0 1 5.495-1.61l1.744-.021a10.6 10.6 0 0 1 7.56 3.022 10.445 10.445 0 0 1 1.767 2.265 10.209 10.209 0 0 1 1.075 2.562 10.607 10.607 0 0 1 .368 2.654 2.64 2.64 0 0 1-.753 1.884 2.647 2.647 0 0 1-1.865.8l-10.89.137 1.768 9.43c2.056 9.685 1.556 16.186.112 20.533-.322.97-2.181 4.413-2.181 4.413 5.553 8.524 13.95 12.175 22.892 13.153 7.602.83 23.9-6.296 15.352-14.198-8.548-7.901 1.723-3.05 3.239-2.055 1.515.994 10.299 8.393 1.007 19.527-3.93 4.708-8.393 9-19.221 12.383-1.737.542-11.24 1.353-16.341 2.888-15.19 4.567-27.643-.036-34.714-10.011-7.042-9.936-1.307-22.537.422-22.594" fill="#9452BA"/>
    <path d="M58.054 160.012c4.379-.145 8.444-3.212 17.375-3.736.122-.585.272-1.116.467-1.55 1.573-3.523 3.728-13.642 2.179-20.251l-1.225-5.231a24.337 24.337 0 0 1-.64-5.233 10.698 10.698 0 0 1 .785-4.15 10.637 10.637 0 0 1 1.249-2.241 10.774 10.774 0 0 1 2.974-2.77 10.597 10.597 0 0 1 5.495-1.61l1.744-.021a10.6 10.6 0 0 1 7.56 3.022 10.445 10.445 0 0 1 1.767 2.265 10.209 10.209 0 0 1 1.075 2.562 10.607 10.607 0 0 1 .368 2.654 2.64 2.64 0 0 1-.753 1.884 2.647 2.647 0 0 1-1.865.8l-10.89.137 1.768 9.43c2.056 9.685 1.556 16.186.112 20.533-.322.97-2.181 4.413-2.181 4.413 5.553 8.524 13.95 12.175 22.892 13.153 7.602.83 23.9-6.296 15.352-14.198-8.548-7.901 1.723-3.05 3.239-2.055 1.515.994 10.299 8.393 1.007 19.527-3.93 4.708-8.393 9-19.221 12.383-1.737.542-11.24 1.353-16.341 2.888-15.19 4.567-27.643-.036-34.714-10.011-7.042-9.936-1.307-22.537.422-22.594z" stroke="#52267D" stroke-width="2"/>
    <path d="M67.331 145.424c.208-11.264-8.839-20-19.019-21.742-2.113-.362-2.807-1.015-5.114-.987l-1.766.023c-5.952.075-10.715 4.96-10.64 10.91a2.686 2.686 0 0 0 2.72 2.653s18.118-.233 18.203-.242c.001 0 1.475-.017 1.476-.016-.002.002-1.478.02-1.48.023 4.028 1.65 6.586 6.739 7.06 9.485.675 3.91.257 7.148-1.046 9.779-.87 1.752-.944 3.85-.786 5.548l.105.034c.074.907.234 1.938.52 3.113 1.69-1.21 4.322-3.032 4.803-3.294 1.04-.565 3.387-1.853 4.437-2.473 6.71-3.96.41-6.408.527-12.814" fill="#9452BA"/>
    <path d="M67.331 145.424c.208-11.264-8.839-20-19.019-21.742-2.113-.362-2.807-1.015-5.114-.987l-1.766.023c-5.952.075-10.715 4.96-10.64 10.91a2.686 2.686 0 0 0 2.72 2.653s18.118-.233 18.203-.242c.001 0 1.475-.017 1.476-.016-.002.002-1.478.02-1.48.023 4.028 1.65 6.586 6.739 7.06 9.485.675 3.91.257 7.148-1.046 9.779-.87 1.752-.944 3.85-.786 5.548l.105.034c.074.907.234 1.938.52 3.113 1.69-1.21 4.322-3.032 4.803-3.294 1.04-.565 3.387-1.853 4.437-2.473 6.71-3.96.41-6.408.527-12.814z" stroke="#52267D" stroke-width="2"/>
    <path d="M61.725 158.505c-.11-1.737-.388-2.627-.202-3.337 1.07-4.087 1.42-5.377 1.366-9.688-.054-4.286-2.59-8.49-6.282-10.696-.203-.121-2.844-.274-4.896 1.262 4.029 1.65 6.586 6.739 7.06 9.485.676 3.91.258 7.148-1.046 9.779-.87 1.752-.943 3.85-.785 5.548 0 0 4.939 1.784 4.785-2.353" fill="#F3E3FF"/>
    <path d="M61.725 158.505c-.11-1.737-.388-2.627-.202-3.337 1.07-4.087 1.42-5.377 1.366-9.688-.054-4.286-2.59-8.49-6.282-10.696-.203-.121-2.844-.274-4.896 1.262 4.029 1.65 6.586 6.739 7.06 9.485.676 3.91.258 7.148-1.046 9.779-.87 1.752-.943 3.85-.785 5.548 0 0 4.939 1.784 4.785-2.353" stroke="#52267D"/>
    <path d="M35.8 124.62s-.026-1.882 1.834-2.653c.567-.236 1.604-.673 1.604-.673s1.143 2.342-.111 2.951c-1.805.878-3.326.375-3.326.375" fill="#FFF"/>
    <path d="M35.8 124.62s-.026-1.882 1.834-2.653c.567-.236 1.604-.673 1.604-.673s1.143 2.342-.111 2.951c-1.805.878-3.326.375-3.326.375z" stroke="#52267D"/>
    <path d="M40.465 123.237s.021-2.564 2.901-2.975c.537-.076 1.942-.06 1.942-.06s.681 2.705-.836 2.985c-1.866.344-4.007.05-4.007.05" fill="#FFF"/>
    <path d="M40.465 123.237s.021-2.564 2.901-2.975c.537-.076 1.942-.06 1.942-.06s.681 2.705-.836 2.985c-1.866.344-4.007.05-4.007.05z" stroke="#52267D"/>
    <path d="M46.204 123.411s.344-2.849 2.908-2.099a3.565 3.565 0 0 1 1.712 1.142s-.48 2.172-1.5 1.941a19.552 19.552 0 0 1-3.12-.984" fill="#FFF"/>
    <path d="M46.204 123.411s.344-2.849 2.908-2.099a3.565 3.565 0 0 1 1.712 1.142s-.48 2.172-1.5 1.941a19.552 19.552 0 0 1-3.12-.984z" stroke="#52267D"/>
    <path d="M53.796 137.122s5.914-3.313 4.713-8.746c.799.642 2.937 2.601 3.717 3.608.013 1.067.262 5.3-5.55 8.21-1.042-1.054-1.925-2.374-2.88-3.072" fill="#FFF"/>
    <path d="M53.796 137.122s5.914-3.313 4.713-8.746c.799.642 2.937 2.601 3.717 3.608.013 1.067.262 5.3-5.55 8.21-1.042-1.054-1.925-2.374-2.88-3.072z" stroke="#52267D"/>
    <path d="M36.605 124.092s-.014-.974.949-1.373c.294-.122.83-.35.83-.35s.592 1.213-.057 1.529c-.935.455-1.722.194-1.722.194M41.69 122.643s.01-1.31 1.479-1.518c.274-.04.99-.03.99-.03s.347 1.379-.427 1.522c-.951.175-2.042.026-2.042.026M47.12 123.194s.183-1.51 1.543-1.113c.582.17.908.605.908.605s-.255 1.153-.796 1.03c-.944-.213-1.655-.522-1.655-.522M45.729 134.323l-5.445.068a4.967 4.967 0 0 1 4.903-5.028l.48-.006a2.483 2.483 0 0 1 .062 4.966" fill="#F3E3FF"/>
    <path d="M45.269 134.236l-4.893.061a3.903 3.903 0 0 1 3.853-3.95l.99-.012a1.95 1.95 0 1 1 .05 3.901" fill="#FFF"/>
    <path d="M45.269 134.236l-4.893.061a3.903 3.903 0 0 1 3.853-3.95l.99-.012a1.95 1.95 0 1 1 .05 3.901z" stroke="#52267D"/>
    <path d="M41.236 132.22a1.09 1.09 0 1 0 2.179-.025 1.09 1.09 0 0 0-2.178.026M33.253 135.466c.31-.07.583-.246.777-.496l.36-.464-.812.185-.477.108a.342.342 0 0 0 .152.667" fill="#52267D"/>
    <path d="M54.803 137.217s4.557-2.527 4.424-7.502c1.989 1.41 2.535 2.333 2.535 2.333s-.313 2.373-1.402 3.582c-1.671 1.857-3.428 2.443-5.557 1.587" fill="#E1F2FF"/>
    <path d="M59.135 136.29s-1.785 1.861-3.54 2.767" fill="#FFF"/>
    <path d="M59.135 136.29s-1.785 1.861-3.54 2.767" stroke="#52267D"/>
    <path d="M77.368 155.41l-1.048-2.005c-3.934-9.333-4.593-14.834-2.724-23.81l1.093-5.26c.36-1.727.53-3.487.506-5.249-.073-5.874-4.895-10.576-10.769-10.502l-1.717.021c-5.794.074-10.432 4.828-10.359 10.622l.004.302a2.496 2.496 0 0 0 2.528 2.464l10.872-.137-1.53 9.473c-4.727 25.392-4.092 35.654 5.811 33.42" fill="#9452BA"/>
    <path d="M77.368 155.41l-1.048-2.005c-3.934-9.333-4.593-14.834-2.724-23.81l1.093-5.26c.36-1.727.53-3.487.506-5.249-.073-5.874-4.895-10.576-10.769-10.502l-1.717.021c-5.794.074-10.432 4.828-10.359 10.622l.004.302a2.496 2.496 0 0 0 2.528 2.464l10.872-.137-1.53 9.473c-4.727 25.392-4.092 35.654 5.811 33.42" stroke="#52267D" stroke-width="2"/>
    <path d="M57.477 109.93s.15-1.846 1.974-2.601c.556-.231 1.434-.003 1.434-.003s1.079 1.64-.15 2.238c-1.77.859-3.258.366-3.258.366" fill="#FFF"/>
    <path d="M57.477 109.93s.15-1.846 1.974-2.601c.556-.231 1.434-.003 1.434-.003s1.079 1.64-.15 2.238c-1.77.859-3.258.366-3.258.366z" stroke="#52267D"/>
    <path d="M61.83 109.268s.023-2.905 3.285-3.37c.61-.086 1.392-.036 1.392-.036s1.58 3.032-.14 3.348c-2.112.39-4.537.058-4.537.058" fill="#FFF"/>
    <path d="M61.83 109.268s.023-2.905 3.285-3.37c.61-.086 1.392-.036 1.392-.036s1.58 3.032-.14 3.348c-2.112.39-4.537.058-4.537.058z" stroke="#52267D"/>
    <path d="M67.683 109.855s.408-2.781 2.9-1.983c1.067.34 1.65 1.16 1.65 1.16s-.527 2.116-1.52 1.865c-1.731-.44-3.03-1.042-3.03-1.042" fill="#FFF"/>
    <path d="M67.683 109.855s.408-2.781 2.9-1.983c1.067.34 1.65 1.16 1.65 1.16s-.527 2.116-1.52 1.865c-1.731-.44-3.03-1.042-3.03-1.042z" stroke="#52267D"/>
    <path d="M58.279 159.673a4.932 4.932 0 0 1 1.775-.884" fill="#F3E3FF"/>
    <path d="M58.279 159.673a4.932 4.932 0 0 1 1.775-.884" stroke="#52267D"/>
    <path d="M61.878 159.57c-1.867-7.198 1.165-21.046 1.711-24.45l2.163-13.645 1.023-.012c1.297-.017 2.296 1.38 2.128 2.668l-1.544 11.83c-.52 4.005-.884 22.526 6.113 26.416 1.493.83 3.895.243 4.798-.202 3.282-1.619 4.18-5.749 4.862-9.077 1.411-6.887.177-12.265-.223-17.645l-.432-6.733c-.078-1.216.874-2.52 2.091-2.536l1.242-.015 2.407 13.586c.721 3.87 2.62 17.291-5.223 23.693-.14.116 1.934.553 1.347 1.62-2.329 4.242-9.225 4.995-10.502 6.815-4.92 7.006-.045 21.743-.045 21.743s-5.585-2.149-9.065-5.19c-8.136-7.11-9.289-17.543-9.365-20.617-.09-3.678.847-5.972 2.02-7.349" fill="#F3E3FF"/>
    <path d="M61.878 159.57c-1.867-7.198 1.165-21.046 1.711-24.45l2.163-13.645 1.023-.012c1.297-.017 2.296 1.38 2.128 2.668l-1.544 11.83c-.52 4.005-.884 22.526 6.113 26.416 1.493.83 3.895.243 4.798-.202 3.282-1.619 4.18-5.749 4.862-9.077 1.411-6.887.177-12.265-.223-17.645l-.432-6.733c-.078-1.216.874-2.52 2.091-2.536l1.242-.015 2.407 13.586c.721 3.87 2.62 17.291-5.223 23.693-.14.116 1.934.553 1.347 1.62-2.329 4.242-9.225 4.995-10.502 6.815-4.92 7.006-.045 21.743-.045 21.743s-5.585-2.149-9.065-5.19c-8.136-7.11-9.289-17.543-9.365-20.617-.09-3.678.847-5.972 2.02-7.349" stroke="#52267D"/>
    <path d="M127.263 164.774s1.127-1.28.464-2.972c-.203-.516-.915-.954-.915-.954s-1.778.333-1.39 1.53c.562 1.723 1.84 2.396 1.84 2.396" fill="#FFF"/>
    <path d="M127.263 164.774s1.127-1.28.464-2.972c-.203-.516-.915-.954-.915-.954s-1.778.333-1.39 1.53c.562 1.723 1.84 2.396 1.84 2.396z" stroke="#52267D"/>
    <path d="M126.862 163.02s.396-.45.163-1.043c-.07-.181-.32-.334-.32-.334s-.624.117-.488.536c.197.605.645.84.645.84" fill="#F3E3FF"/>
    <path d="M118.018 173.96s-1.117-2.464 1.456-4.133c.48-.31 1.16-.576 1.16-.576s2.522 1.943 1.194 2.884c-1.632 1.155-3.81 1.824-3.81 1.824" fill="#FFF"/>
    <path d="M118.018 173.96s-1.117-2.464 1.456-4.133c.48-.31 1.16-.576 1.16-.576s2.522 1.943 1.194 2.884c-1.632 1.155-3.81 1.824-3.81 1.824z" stroke="#52267D"/>
    <path d="M118.91 173.016s-.62-1.366.807-2.291c.266-.173.643-.32.643-.32s1.4 1.078.662 1.599c-.905.64-2.113 1.012-2.113 1.012" fill="#F3E3FF"/>
    <path d="M125.833 165.748s1.9 1.628.116 3.126a3.104 3.104 0 0 1-1.657.69s-1.344-1.4-.683-2.028a17.036 17.036 0 0 1 2.224-1.788" fill="#FFF"/>
    <path d="M125.833 165.748s1.9 1.628.116 3.126a3.104 3.104 0 0 1-1.657.69s-1.344-1.4-.683-2.028a17.036 17.036 0 0 1 2.224-1.788z" stroke="#52267D"/>
    <path d="M125.574 166.922s.842.72.051 1.385c-.338.283-.734.305-.734.305s-.595-.62-.302-.898c.51-.486.985-.792.985-.792" fill="#F3E3FF"/>
    <path d="M109.013 175.374s-.647-2.196 1.768-3.102c2.415-.906 3.076-.186 3.076-.186s1.37 2.242.18 2.984c-1.19.742-5.024.304-5.024.304" fill="#FFF"/>
    <path d="M109.013 175.374s-.647-2.196 1.768-3.102c2.415-.906 3.076-.186 3.076-.186s1.37 2.242.18 2.984c-1.19.742-5.024.304-5.024.304z" stroke="#52267D"/>
    <path d="M110.145 174.86s-.336-1.144.92-1.614c1.256-.47 1.6-.097 1.6-.097s.712 1.166.093 1.552c-.62.386-2.613.158-2.613.158" fill="#F3E3FF"/>
    <path d="M65.265 124.802s3.9 2.142 9.32.097c-.352 1.693-1.071 5.097-1.071 5.097s-5.024 1.61-8.946-.79c.37-2.245.697-4.404.697-4.404" fill="#FFF"/>
    <path d="M65.265 124.802s3.9 2.142 9.32.097c-.352 1.693-1.071 5.097-1.071 5.097s-5.024 1.61-8.946-.79c.37-2.245.697-4.404.697-4.404z" stroke="#52267D"/>
    <path d="M94.118 114.598s-.199-1.855-2.054-2.57c-.566-.218-2.088-.26-2.088-.26s-.402 1.973.851 2.543c1.803.82 3.291.287 3.291.287" fill="#FFF"/>
    <path d="M94.118 114.598s-.199-1.855-2.054-2.57c-.566-.218-2.088-.26-2.088-.26s-.402 1.973.851 2.543c1.803.82 3.291.287 3.291.287z" stroke="#52267D"/>
    <path d="M89.424 113.708s-.085-2.53-2.937-2.863c-.532-.063-1.212-.002-1.212-.002s-1.31 2.677.195 2.915c1.849.293 3.954-.05 3.954-.05" fill="#FFF"/>
    <path d="M89.424 113.708s-.085-2.53-2.937-2.863c-.532-.063-1.212-.002-1.212-.002s-1.31 2.677.195 2.915c1.849.293 3.954-.05 3.954-.05z" stroke="#52267D"/>
    <path d="M84.033 113.96s-.48-2.792-2.973-1.925c-1.063.37-1.63 1.211-1.63 1.211s.582 2.117 1.576 1.84c1.734-.486 3.027-1.127 3.027-1.127" fill="#FFF"/>
    <path d="M84.033 113.96s-.48-2.792-2.973-1.925c-1.063.37-1.63 1.211-1.63 1.211s.582 2.117 1.576 1.84c1.734-.486 3.027-1.127 3.027-1.127z" stroke="#52267D"/>
    <path d="M58.43 109.452s.08-.986 1.055-1.39c.297-.123.766-.002.766-.002s.576.876-.081 1.196c-.944.46-1.74.196-1.74.196M62.9 108.766s.015-1.821 2.06-2.112c.38-.055.872-.023.872-.023s.99 1.9-.088 2.099c-1.324.244-2.844.036-2.844.036M68.758 109.562s.235-1.604 1.674-1.145c.615.198.95.67.95.67s-.302 1.22-.875 1.077c-1-.254-1.75-.602-1.75-.602M93.195 114.135s-.105-.98-1.086-1.36c-.299-.115-1.103-.136-1.103-.136s-.213 1.043.45 1.344c.953.434 1.74.152 1.74.152M88.314 113.275s-.047-1.398-1.623-1.583c-.295-.033-.671 0-.671 0s-.725 1.48.107 1.61c1.023.162 2.187-.027 2.187-.027M83.035 113.781s-.264-1.526-1.626-1.052c-.582.202-.893.662-.893.662s.32 1.16.863 1.006c.95-.265 1.656-.616 1.656-.616" fill="#F3E3FF"/>
    <path d="M76.899 129.452s4.806.687 9.353-.489c.475 2.473.784 4.341.784 4.341s-3.137 2.188-8.996 1.015c-.73-3.175-1.141-4.867-1.141-4.867" fill="#FFF"/>
    <path d="M76.899 129.452s4.806.687 9.353-.489c.475 2.473.784 4.341.784 4.341s-3.137 2.188-8.996 1.015c-.73-3.175-1.141-4.867-1.141-4.867z" stroke="#52267D"/>
    <path d="M84.77 124.536l5.445-.069a4.966 4.966 0 0 0-5.028-4.904l-.478.007a2.484 2.484 0 0 0-2.453 2.514 2.484 2.484 0 0 0 2.515 2.452" fill="#F3E3FF"/>
    <path d="M85.365 124.435l4.755-.06a3.903 3.903 0 0 0-3.95-3.852l-1.129.015a1.811 1.811 0 0 0-1.79 1.835 2.086 2.086 0 0 0 2.114 2.062" fill="#FFF"/>
    <path d="M85.365 124.435l4.755-.06a3.903 3.903 0 0 0-3.95-3.852l-1.129.015a1.811 1.811 0 0 0-1.79 1.835 2.086 2.086 0 0 0 2.114 2.062z" stroke="#52267D"/>
    <path d="M87.357 123.496a1.089 1.089 0 1 1 1.947-.978 1.088 1.088 0 1 1-1.947.978" fill="#52267D"/>
    <path d="M65.87 120.064l-5.445.069a4.966 4.966 0 0 1 4.903-5.028l.48-.007a2.482 2.482 0 1 1 .061 4.966" fill="#F3E3FF"/>
    <path d="M65.41 119.977l-4.894.062a3.904 3.904 0 0 1 3.853-3.951l.992-.012a1.952 1.952 0 0 1 .05 3.9" fill="#FFF"/>
    <path d="M65.41 119.977l-4.894.062a3.904 3.904 0 0 1 3.853-3.951l.992-.012a1.952 1.952 0 0 1 .05 3.9z" stroke="#52267D"/>
    <path d="M61.881 118.907a1.089 1.089 0 1 0 1.374-1.69 1.089 1.089 0 1 0-1.374 1.69M96.79 125.518a1.356 1.356 0 0 1-.79-.477l-.37-.454.814.164.48.097a.34.34 0 0 1 .267.402.34.34 0 0 1-.402.268M54.723 120.95c.309-.07.584-.246.777-.496l.36-.464-.811.185-.477.108a.342.342 0 1 0 .15.667" fill="#52267D"/>
    <path d="M65.738 125.503s4.08 1.679 8.153.047c-.398 2.406-.765 3.637-.765 3.637s-2.462.175-4.096-.125c-2.335-.429-3.266-1.477-3.292-3.559" fill="#E1F2FF"/>
    <path d="M71.423 128.51s-3.688.355-6.565-1.091" fill="#FFF"/>
    <path d="M71.423 128.51s-3.688.355-6.565-1.091" stroke="#52267D"/>
    <path d="M84.505 129.899s-3.587 1.068-6.771.473c.63 2.357.958 3.093.958 3.093s4.755-.694 5.813-3.566" fill="#E1F2FF"/>
    <path d="M82.995 163.5s-.216.158-.522.35" fill="#F3E3FF"/>
    <path d="M82.995 163.5s-.216.158-.522.35" stroke="#52267D" stroke-width=".5"/>
    <path d="M84.87 131.255s-3.615.732-7.468.32" fill="#FFF"/>
    <path d="M84.87 131.255s-3.615.732-7.468.32" stroke="#52267D"/>
    <path d="M79.868 205.874s-.972-.77-2.235.294c-1.156.974-2.015 2.466-1.49 2.608a5.546 5.546 0 0 0 2.413.086c.84-.165 1.584-.01 1.9-1.777.147-.822-.588-1.21-.588-1.21" fill="#FFF"/>
    <path d="M79.868 205.874s-.972-.77-2.235.294c-1.156.974-2.015 2.466-1.49 2.608a5.546 5.546 0 0 0 2.413.086c.84-.165 1.584-.01 1.9-1.777.147-.822-.588-1.21-.588-1.21z" stroke="#52267D" stroke-width=".5"/>
    <path d="M79.653 206.162s-.605-.48-1.392.183c-.718.606-1.254 1.535-.925 1.623.326.09.9.172 1.5.053.523-.102.987-.006 1.183-1.105.091-.512-.367-.754-.367-.754" fill="#E1F2FF"/>
    <path d="M81.232 205.839c.508-.074 1.252 1.02 1.173 1.356-.08.338-.123 1.45-.944 1.58-.604.097-2.76.349-3.238-.115-.44-.426.386-2.435 3.009-2.821" fill="#FFF"/>
    <path d="M81.232 205.839c.508-.074 1.252 1.02 1.173 1.356-.08.338-.123 1.45-.944 1.58-.604.097-2.76.349-3.238-.115-.44-.426.386-2.435 3.009-2.821z" stroke="#52267D" stroke-width=".5"/>
    <path d="M81.378 206.144c.3-.044.738.6.691.8-.045.199-.072.854-.555.932-.358.057-1.63.205-1.91-.068-.26-.252.226-1.437 1.774-1.664" fill="#E1F2FF"/>
    <path d="M83.383 206.026s-.441-.223-1.304.285c-.761.448-1.898 1.164-1.586 2.032.313.87 2.733.514 3.27.323.536-.192.867-.783.766-1.295-.222-1.117-1.146-1.345-1.146-1.345" fill="#FFF"/>
    <path d="M83.383 206.026s-.441-.223-1.304.285c-.761.448-1.898 1.164-1.586 2.032.313.87 2.733.514 3.27.323.536-.192.867-.783.766-1.295-.222-1.117-1.146-1.345-1.146-1.345z" stroke="#52267D" stroke-width=".5"/>
    <path d="M83.552 206.334s-.262-.133-.772.168c-.452.266-1.124.69-.94 1.204.186.514 1.618.304 1.937.19.317-.113.513-.462.453-.766-.131-.662-.678-.796-.678-.796" fill="#E1F2FF"/>
    <path d="M72.897 178.343s.564 5.61-.753 14.459c-1.226 8.235-3.551 10.843-3.351 12.972.155 1.648.87 3.15 2.526 3.13l4.94-.062a5.363 5.363 0 0 0 5.036-3.72c.576-1.766 1.167-4.168 1.499-7.198.329-4.12.196-8.248.097-10.671" fill="#9452BA"/>
    <path d="M72.897 178.343s.564 5.61-.753 14.459c-1.226 8.235-3.551 10.843-3.351 12.972.155 1.648.87 3.15 2.526 3.13l4.94-.062a5.363 5.363 0 0 0 5.036-3.72c.576-1.766 1.167-4.168 1.499-7.198.329-4.12.196-8.248.097-10.671" stroke="#52267D" stroke-width="2"/>
    <path d="M98.273 181.741c-1.618 1.43-2.438 3.746-2.398 5.865.052 2.83 1.739 6.411.757 11.126-.874 4.2-2.71 4.963-2.107 8.714.109.677.725 1.157 1.41 1.15l5.505-.07a5.188 5.188 0 0 0 5.062-4.4c1.023-6.69.099-12.98-.851-17.803" fill="#9452BA"/>
    <path d="M98.273 181.741c-1.618 1.43-2.438 3.746-2.398 5.865.052 2.83 1.739 6.411.757 11.126-.874 4.2-2.71 4.963-2.107 8.714.109.677.725 1.157 1.41 1.15l5.505-.07a5.188 5.188 0 0 0 5.062-4.4c1.023-6.69.099-12.98-.851-17.803" stroke="#52267D" stroke-width="2"/>
    <path stroke="#52267D" stroke-width=".5" d="M99.433 187.963l.32-.236 1.05.221-1.153.757-1.407-.672 1.438-1.179.664.213"/>
    <path d="M69.875 206s-.972-.772-2.235.294c-1.156.973-2.015 2.465-1.49 2.607a5.53 5.53 0 0 0 2.413.086c.84-.164 1.584-.01 1.9-1.776.147-.822-.588-1.212-.588-1.212" fill="#FFF"/>
    <path d="M69.875 206s-.972-.772-2.235.294c-1.156.973-2.015 2.465-1.49 2.607a5.53 5.53 0 0 0 2.413.086c.84-.164 1.584-.01 1.9-1.776.147-.822-.588-1.212-.588-1.212z" stroke="#52267D"/>
    <path d="M69.66 206.287s-.605-.479-1.392.184c-.718.605-1.254 1.534-.926 1.623.326.09.9.171 1.501.053.522-.102.986-.007 1.182-1.106.092-.51-.366-.754-.366-.754" fill="#E1F2FF"/>
    <path stroke="#52267D" stroke-width=".5" d="M77.248 191.347l-1.96.639.283 1.82 2.018.12.925-1.096-1.216-.654-.994.303.643.697"/>
    <g stroke="#F3E3FF" stroke-width=".25">
      <path d="M34.327 131.85a.536.536 0 0 0 1.071-.014M33.256 131.863a.535.535 0 1 0 1.071-.014M33.798 132.393a.535.535 0 0 0 1.072-.014M54.85 131.09a.79.79 0 1 0 .816-1.352M55.117 132.174a.79.79 0 1 0 .816-1.352M80.501 148.77a.719.719 0 0 0 1.437-.02M79.064 148.787a.718.718 0 1 0 1.437-.018M79.792 149.497a.718.718 0 1 0 1.437-.019M59.61 194.566a.72.72 0 0 0 1.438-.018M58.173 194.585a.72.72 0 0 0 1.437-.019M58.901 195.294a.719.719 0 1 0 1.437-.018M79.1 125.88a.79.79 0 0 0 1.579-.02M78.32 126.68a.788.788 0 1 0 1.58-.02M69.183 139.953a.96.96 0 0 0 1.919-.024M68.236 140.924a.958.958 0 1 0 1.918-.023M54.945 116.272a.643.643 0 0 0 1.284-.016M54.313 116.923a.642.642 0 1 0 1.283-.017M116.158 180.214a.737.737 0 0 0 1.042.072.737.737 0 0 0 .073-1.042M116.085 181.256a.74.74 0 1 0 1.115-.97M86.663 170.382a.867.867 0 1 0 1.568-.74M85.096 171.121a.866.866 0 0 0 1.567-.739M86.25 171.535a.866.866 0 1 0 1.567-.738M84.68 172.274a.867.867 0 1 0 1.569-.739M87.403 171.95a.867.867 0 0 0 1.567-.739M70.968 122.56a.874.874 0 0 0 1.749-.021M71.08 155.613a.875.875 0 0 0 1.75-.022M80.763 137.27a.664.664 0 0 0 1.325-.016M96.352 122.016a.498.498 0 0 0 .994-.012M101.406 195.06a.873.873 0 1 0 1.72-.321M77.327 201.805a.96.96 0 0 0 1.92-.024M76.38 202.776a.96.96 0 0 0 1.919-.024"/>
    </g>
    <path d="M71.238 205.965c.507-.074 1.252 1.02 1.173 1.356-.079.338-.123 1.449-.944 1.58-.604.096-2.76.348-3.238-.115-.439-.427.386-2.436 3.01-2.821" fill="#FFF"/>
    <path d="M71.238 205.965c.507-.074 1.252 1.02 1.173 1.356-.079.338-.123 1.449-.944 1.58-.604.096-2.76.348-3.238-.115-.439-.427.386-2.436 3.01-2.821z" stroke="#52267D"/>
    <path d="M71.385 206.269c.299-.044.738.602.69.8-.045.2-.071.855-.554.932-.358.057-1.63.206-1.911-.067-.26-.252.227-1.437 1.775-1.665" fill="#E1F2FF"/>
    <path d="M73.049 206.484s-.39-.197-1.152.252c-.674.397-1.679 1.03-1.403 1.799.277.767 2.416.453 2.891.285.475-.17.768-.692.678-1.147-.197-.988-1.014-1.189-1.014-1.189" fill="#FFF"/>
    <path d="M73.049 206.484s-.39-.197-1.152.252c-.674.397-1.679 1.03-1.403 1.799.277.767 2.416.453 2.891.285.475-.17.768-.692.678-1.147-.197-.988-1.014-1.189-1.014-1.189z" stroke="#52267D"/>
    <path d="M73.198 206.756s-.23-.116-.683.149c-.398.235-.994.61-.83 1.065.163.455 1.431.268 1.712.169.28-.101.454-.41.401-.68-.116-.584-.6-.703-.6-.703" fill="#E1F2FF"/>
    <path d="M52.776 206.953s-.392-.197-1.154.252c-.673.396-1.678 1.03-1.403 1.798.277.767 2.416.454 2.892.285.475-.17.768-.692.678-1.146-.197-.988-1.014-1.189-1.014-1.189" fill="#FFF"/>
    <path d="M52.776 206.953s-.392-.197-1.154.252c-.673.396-1.678 1.03-1.403 1.798.277.767 2.416.454 2.892.285.475-.17.768-.692.678-1.146-.197-.988-1.014-1.189-1.014-1.189z" stroke="#52267D"/>
    <path d="M52.924 207.225s-.23-.117-.683.149c-.398.235-.994.61-.83 1.065.163.454 1.431.268 1.712.168a.625.625 0 0 0 .402-.678c-.117-.585-.601-.704-.601-.704" fill="#E1F2FF"/>
    <path d="M55.113 206.38c.508-.073 1.252 1.02 1.173 1.358-.079.337-.123 1.449-.944 1.58-.604.096-2.76.348-3.238-.116-.439-.426.386-2.435 3.01-2.821" fill="#FFF"/>
    <path d="M55.113 206.38c.508-.073 1.252 1.02 1.173 1.358-.079.337-.123 1.449-.944 1.58-.604.096-2.76.348-3.238-.116-.439-.426.386-2.435 3.01-2.821z" stroke="#52267D"/>
    <path d="M55.26 206.686c.299-.044.738.6.69.8-.044.199-.071.854-.554.932-.358.057-1.63.205-1.911-.068-.26-.252.227-1.437 1.775-1.664" fill="#E1F2FF"/>
    <path d="M96.603 205.663s-.972-.77-2.235.295c-1.156.973-2.015 2.466-1.49 2.607a5.544 5.544 0 0 0 2.413.087c.839-.165 1.584-.012 1.9-1.777.147-.822-.588-1.212-.588-1.212" fill="#FFF"/>
    <path d="M96.603 205.663s-.972-.77-2.235.295c-1.156.973-2.015 2.466-1.49 2.607a5.544 5.544 0 0 0 2.413.087c.839-.165 1.584-.012 1.9-1.777.147-.822-.588-1.212-.588-1.212z" stroke="#52267D" stroke-width=".5"/>
    <path d="M96.387 205.952s-.604-.48-1.391.183c-.718.605-1.254 1.534-.926 1.623.326.09.9.172 1.5.053.523-.102.987-.007 1.183-1.105.092-.512-.366-.754-.366-.754" fill="#E1F2FF"/>
    <path d="M97.966 205.629c.507-.074 1.252 1.02 1.173 1.356-.079.338-.123 1.449-.944 1.58-.604.096-2.76.348-3.238-.115-.439-.426.386-2.436 3.009-2.821" fill="#FFF"/>
    <path d="M97.966 205.629c.507-.074 1.252 1.02 1.173 1.356-.079.338-.123 1.449-.944 1.58-.604.096-2.76.348-3.238-.115-.439-.426.386-2.436 3.009-2.821z" stroke="#52267D" stroke-width=".5"/>
    <path d="M98.112 205.933c.3-.044.738.602.691.8-.045.2-.072.855-.555.932-.358.058-1.63.206-1.91-.067-.26-.252.226-1.437 1.774-1.665" fill="#E1F2FF"/>
    <path d="M99.776 206.15s-.39-.198-1.151.25c-.674.397-1.68 1.03-1.403 1.798.277.767 2.416.454 2.89.285.476-.168.769-.69.678-1.145-.197-.988-1.014-1.189-1.014-1.189" fill="#FFF"/>
    <path d="M99.776 206.15s-.39-.198-1.151.25c-.674.397-1.68 1.03-1.403 1.798.277.767 2.416.454 2.89.285.476-.168.769-.69.678-1.145-.197-.988-1.014-1.189-1.014-1.189z" stroke="#52267D" stroke-width=".5"/>
    <path d="M99.926 206.42s-.231-.116-.683.149c-.398.235-.994.61-.83 1.065.163.455 1.43.268 1.712.169.28-.101.454-.41.4-.679-.115-.585-.6-.704-.6-.704" fill="#E1F2FF"/>
    <path d="M61.788 206.773c.157-.136.347-.177.504-.105.587.268 2.07 1.032 1.78 2.094-.227.827-.734.587-1.697.615l-.726.023a.41.41 0 0 1-.369-.208c-.427-.692-.215-1.793.458-2.377l.05-.042z" fill="#FFF"/>
    <path d="M61.788 206.773c.157-.136.347-.177.504-.105.587.268 2.07 1.032 1.78 2.094-.227.827-.734.587-1.697.615l-.726.023a.41.41 0 0 1-.369-.208c-.427-.692-.215-1.793.458-2.377l.05-.042z" stroke="#52267D"/>
    <path d="M61.866 207.009c.114-.1.252-.128.366-.076.427.195 1.504.75 1.293 1.52-.165.603-.533.427-1.232.45l-.529.015a.298.298 0 0 1-.267-.15c-.31-.504-.156-1.304.333-1.728l.036-.031z" fill="#E1F2FF"/>
    <path d="M58.375 206.5s-.902-.852-2.252.103c-1.233.871-2.217 2.285-1.706 2.471a5.55 5.55 0 0 0 2.396.291c.851-.093 1.581.123 2.045-1.609.216-.807-.483-1.257-.483-1.257" fill="#FFF"/>
    <path d="M58.375 206.5s-.902-.852-2.252.103c-1.233.871-2.217 2.285-1.706 2.471a5.55 5.55 0 0 0 2.396.291c.851-.093 1.581.123 2.045-1.609.216-.807-.483-1.257-.483-1.257z" stroke="#52267D"/>
    <path d="M58.136 206.768s-.562-.53-1.401.064c-.768.543-1.38 1.423-1.062 1.54a3.47 3.47 0 0 0 1.49.18c.53-.058.985.076 1.274-1.002.135-.502-.301-.782-.301-.782" fill="#E1F2FF"/>
    <path d="M146.69 118.167c0 7.392-5.991 13.383-13.382 13.383-7.39 0-13.382-5.99-13.382-13.383 0-7.39 5.992-13.382 13.382-13.382s13.382 5.991 13.382 13.382" fill="#FFF"/>
    <path d="M149.842 115.646c0 7.39-5.991 13.382-13.382 13.382-7.39 0-13.382-5.991-13.382-13.382s5.992-13.382 13.382-13.382 13.382 5.99 13.382 13.382" fill="#FFF"/>
    <path d="M149.842 115.646c0 7.39-5.991 13.382-13.382 13.382-7.39 0-13.382-5.991-13.382-13.382s5.992-13.382 13.382-13.382 13.382 5.99 13.382 13.382z" stroke="#5E63B6" stroke-width="2"/>
    <path d="M136.881 110.685v10.62M142.191 115.995h-10.62" stroke="#5E63B6" stroke-width="2" stroke-linecap="round" stroke-linejoin="round"/>
    <path d="M199.625 77.333c0 12.426-10.074 22.5-22.5 22.5-12.427 0-22.5-10.074-22.5-22.5 0-12.427 10.073-22.5 22.5-22.5 12.426 0 22.5 10.073 22.5 22.5M113.96 80.558c0 10.093-8.182 18.275-18.274 18.275-10.094 0-18.276-8.182-18.276-18.275 0-10.093 8.182-18.274 18.276-18.274 10.092 0 18.274 8.18 18.274 18.274M199.625 159.254c0 10.466-8.485 18.951-18.952 18.951-10.466 0-18.95-8.485-18.95-18.951 0-10.467 8.484-18.952 18.95-18.952 10.467 0 18.952 8.485 18.952 18.952" fill="#E1F2FF"/>
    <path d="M125.07 52.187v3.938M127.038 54.155H123.1M147.61 176.188v3.938M149.58 178.156h-3.939" stroke="#5E63B6" stroke-linecap="round"/>
    <path d="M184.918 168.46l-12.188 9.177-12.188-9.177a17.744 17.744 0 0 1-7.069-14.174v-17.068l1.056-.289a98.662 98.662 0 0 0 18.201-6.961l.157.078a98.701 98.701 0 0 0 18.185 6.924l.916.248v17.068a17.745 17.745 0 0 1-7.07 14.174" fill="#FFF"/>
    <path d="M184.918 168.46l-12.188 9.177-12.188-9.177a17.744 17.744 0 0 1-7.069-14.174v-17.068l1.056-.289a98.662 98.662 0 0 0 18.201-6.961l.157.078a98.701 98.701 0 0 0 18.185 6.924l.916.248v17.068a17.745 17.745 0 0 1-7.07 14.174z" stroke="#ACD3EF" stroke-width="2"/>
    <path d="M181.508 164.36l-8.777 6.608-8.78-6.609a12.776 12.776 0 0 1-5.091-10.209v-12.293l.76-.208a71.036 71.036 0 0 0 13.11-5.014l.113.056a71.076 71.076 0 0 0 13.099 4.987l.659.18v12.292c0 4.015-1.886 7.795-5.093 10.21" fill="#E1F2FF"/>
    <path d="M181.508 164.36l-8.777 6.608-8.78-6.609a12.776 12.776 0 0 1-5.091-10.209v-12.293l.76-.208a71.036 71.036 0 0 0 13.11-5.014l.113.056a71.076 71.076 0 0 0 13.099 4.987l.659.18v12.292c0 4.015-1.886 7.795-5.093 10.21z" stroke="#ACD3EF" stroke-width="2"/>
    <path d="M180.915 152.802a8.185 8.185 0 1 1-16.37 0 8.185 8.185 0 1 1 16.37 0" fill="#FFF"/>
    <path d="M175.258 157.401c.04.118.075.198.086.226.003.002-.004-.002 0 0h-.001c-.268-2.583 1.197-3.66 1.668-5.375a.482.482 0 0 1 .015-.084 1.19 1.19 0 0 0 .023-.119c.07-.474-.124-1.026-.492-1.602l-.006-.009a3.245 3.245 0 0 0-.096-.143l-.001-.002a7.002 7.002 0 0 0-.192-.264c-.008-.01-.014-.019-.022-.027l-.056-.073-.06-.074-.06-.072-.063-.075a1.042 1.042 0 0 0-.045-.052c-.58-.667-1.332-1.325-2.118-1.899 0 0-.006-.008 0 0 .104.972.117 1.944.025 2.721-.111.938-.447 2.028-.912 3.017-1.09-.089-2.201-.342-3.07-.712-.725-.31-1.557-.799-2.351-1.379.008.081.018.16.028.241l.01.071c.006.058.014.116.023.173l.01.08.027.171.012.071a13.734 13.734 0 0 0 .088.486c0 .007.003.013.004.02a7.173 7.173 0 0 0 .055.265l.047.2.01.04c.018.075.037.153.058.228v.001c.064.242.134.476.21.701 0 .003.003.006.003.008.129.376.277.72.44 1.023l.075.13c0 .001 0 .003.002.004.022.04.046.076.068.112v.001l.004.004.075.115.01.015.002.001c.032.05.068.095.1.14a.262.262 0 0 1 .018.02l.006.01c.039.048.079.096.12.141l.088.09.038.037.056.05.043.035a.988.988 0 0 0 .098.074l.056.04.043.025c.02.012.04.024.06.034l.043.022c.022.012.046.021.069.031l.034.015c.036.014.072.026.108.036.024.007.045.015.064.022 1.724.455 3.403-.266 5.509 1.24" fill="#9452BA"/>
    <path d="M173.607 133.274a.876.876 0 1 1-1.753-.001.876.876 0 0 1 1.753 0M189.894 139.695a.877.877 0 1 1-1.754-.002.877.877 0 0 1 1.754.002M157.81 139.695a.877.877 0 1 1-1.753-.002.877.877 0 0 1 1.754.002M157.81 158.741a.877.877 0 1 1-1.753-.002.877.877 0 0 1 1.754.002M189.49 158.741a.877.877 0 1 1-1.754-.002.877.877 0 0 1 1.754.002M173.607 174.002a.877.877 0 1 1-1.754-.002.877.877 0 0 1 1.754.002" fill="#ACD3EF"/>
    <path fill="#E1F2FF" d="M91.8 70.345l-2.493 2.628-11.705-11.898 1.702-1.793z"/>
    <path stroke="#ACD3EF" stroke-width="2" d="M91.8 70.345l-2.493 2.628-11.705-11.898 1.702-1.793z"/>
    <path d="M90.566 76.772l5.1-5.377 22.975 23.858a13.337 13.337 0 0 1 3.644 6.529l.148.653-.66-.114a13.335 13.335 0 0 1-6.711-3.295L90.566 76.772z" fill="#FFF"/>
    <path d="M90.566 76.772l5.1-5.377 22.975 23.858a13.337 13.337 0 0 1 3.644 6.529l.148.653-.66-.114a13.335 13.335 0 0 1-6.711-3.295L90.566 76.772z" stroke="#ACD3EF" stroke-width="2"/>
    <path d="M79.067 56.895a2.805 2.805 0 1 1-3.861 4.07 2.806 2.806 0 1 1 3.861-4.07" fill="#E1F2FF"/>
    <path d="M79.067 56.895a2.805 2.805 0 1 1-3.861 4.07 2.806 2.806 0 1 1 3.861-4.07z" stroke="#ACD3EF" stroke-width="2"/>
    <path d="M101.944 64.777l-17.657 18.61-.71-.673a2.47 2.47 0 0 1-.091-3.492L97.74 64.195a2.471 2.471 0 0 1 3.493-.092l.71.674z" fill="#FFF"/>
    <path d="M101.944 64.777l-17.657 18.61-.71-.673a2.47 2.47 0 0 1-.091-3.492L97.74 64.195a2.471 2.471 0 0 1 3.493-.092l.71.674z" stroke="#ACD3EF" stroke-width="2"/>
    <path d="M93.116 74.083l11.791 11.188" fill="#FFF"/>
    <path d="M93.116 74.083l11.791 11.188" stroke="#ACD3EF" stroke-width="2" stroke-linecap="round"/>
    <path d="M93.116 74.083l12.886 12.226" fill="#FFF"/>
    <path d="M93.116 74.083l12.886 12.226" stroke="#ACD3EF" stroke-width="2" stroke-linecap="round"/>
    <path d="M81.02 64.461l1.843-1.941M84.933 68.174l1.843-1.942" stroke="#ACD3EF" stroke-width="2"/>
    <path d="M185.055 95.895H147.45a4.477 4.477 0 0 1-4.477-4.477h46.559a4.476 4.476 0 0 1-4.477 4.477" fill="#FFF"/>
    <path d="M185.055 95.895H147.45a4.477 4.477 0 0 1-4.477-4.477h46.559a4.476 4.476 0 0 1-4.477 4.477z" stroke="#ACD3EF" stroke-width="2"/>
    <path d="M156.92 91.418c.155-.657 2.426-4.753 4.121-7.757a6.39 6.39 0 0 1 5.567-3.247h10.97v11.004H156.92z" fill="#FFF"/>
    <path d="M156.92 91.418c.155-.657 2.426-4.753 4.121-7.757a6.39 6.39 0 0 1 5.567-3.247h10.97v11.004H156.92z" stroke="#ACD3EF" stroke-width="2"/>
    <path d="M176.65 80.29s9.486-16.227 17.954-13.942c8.47 2.285 9.595 6.917 5.552 5.784-4.042-1.133-4.43-.179-1.924.877 2.506 1.054 3.962 3.642-1.357 2.218-3.534-.945-5.613 1.041-3.151 1.064 1.934.02 6.41 2.397 3.424 2.637-2.155.172-4.595-.41-7.547-.942-1.571-.283 3.072 2.398 1.346 2.945-2.71.86-7.51-1.94-9.004-.205-3.593 4.17-5.293-.437-5.293-.437" fill="#FFF"/>
    <path d="M176.65 80.29s9.486-16.227 17.954-13.942c8.47 2.285 9.595 6.917 5.552 5.784-4.042-1.133-4.43-.179-1.924.877 2.506 1.054 3.962 3.642-1.357 2.218-3.534-.945-5.613 1.041-3.151 1.064 1.934.02 6.41 2.397 3.424 2.637-2.155.172-4.595-.41-7.547-.942-1.571-.283 3.072 2.398 1.346 2.945-2.71.86-7.51-1.94-9.004-.205-3.593 4.17-5.293-.437-5.293-.437z" stroke="#E1F2FF" stroke-width="2"/>
    <path fill="#E1F2FF" d="M158.676 87.917h7.848l-2 3.501h-7.604z"/>
    <path stroke="#ACD3EF" stroke-width="2" d="M158.676 87.917h7.848l-2 3.501h-7.604z"/>
    <path d="M186.004 95.895h-26.348c3.129-1.85 5.482-4.722 6.868-8.083 1.791-4.342 6.066-7.397 11.054-7.397 6.602 0 11.953 5.35 11.953 11.953a3.527 3.527 0 0 1-3.527 3.527" fill="#E1F2FF"/>
    <path d="M186.004 95.895h-26.348c3.129-1.85 5.482-4.722 6.868-8.083 1.791-4.342 6.066-7.397 11.054-7.397 6.602 0 11.953 5.35 11.953 11.953a3.527 3.527 0 0 1-3.527 3.527z" stroke="#ACD3EF" stroke-width="2"/>
    <path d="M179.627 84.43a3.098 3.098 0 1 1-6.196.002 3.098 3.098 0 0 1 6.196-.001" fill="#FFF"/>
    <path d="M179.398 82.939a1.977 1.977 0 1 1-3.954 0 1.977 1.977 0 0 1 3.954 0" fill="#FFF"/>
    <path d="M179.398 82.939a1.977 1.977 0 1 1-3.954 0 1.977 1.977 0 0 1 3.954 0z" stroke="#ACD3EF" stroke-width="2"/>
    <path d="M182.23 77.37s6.334-7.25 9.834-7.75" stroke="#E1F2FF" stroke-width="2" stroke-linecap="round"/>
    <path d="M198.608 93.926v3.938M200.576 95.895h-3.938" stroke="#5E63B6" stroke-linecap="round"/>
  </g>
</svg>
