<svg width="256" height="256" xmlns="http://www.w3.org/2000/svg">
  <g fill="none" fill-rule="evenodd">
    <path d="M23 225.558C23 168.365 69.364 122 126.558 122c57.192 0 103.558 46.365 103.558 103.558H23z" fill="#E1F2FF"/>
    <path d="M19.978 216.924h36" fill="#FFF"/>
    <path d="M19.978 216.924h36" stroke="#5E63B6" stroke-width="2" stroke-linecap="round" stroke-linejoin="round"/>
    <path d="M195.32 216.924h44" fill="#FFF"/>
    <path d="M195.32 216.924h44" stroke="#5E63B6" stroke-width="2" stroke-linecap="round" stroke-linejoin="round"/>
    <path d="M165.544 216.512h4.979a4.17 4.17 0 0 0 3.885-2.644c1.768-4.55 1.327-8.731 1.538-12.307.392-6.625-.643-10.02-1.631-15.561l-7.474.173s.636 2.753 1.059 11.012c.13 2.555-4.091 12.818-3.893 17.853.032.826.71 1.474 1.537 1.474" fill="#9452BA"/>
    <path d="M165.544 216.512h4.979a4.17 4.17 0 0 0 3.885-2.644c1.768-4.55 1.327-8.731 1.538-12.307.392-6.625-.643-10.02-1.631-15.561l-7.474.173s.636 2.753 1.059 11.012c.13 2.555-4.091 12.818-3.893 17.853.032.826.71 1.474 1.537 1.474z" stroke="#52267D"/>
    <path d="M150.242 192.817L144.23 186l-3.712.147s-.52 5.671-.734 8.046c-.376 4.186-2.11 12.388-3.176 15.987-.346 1.171-.548 2.265-.604 3.257-.094 1.67 1.3 3.049 2.97 3.049h4.412c2.57 0 4.853-1.715 5.485-4.205 1.966-7.754 1.371-19.464 1.371-19.464" fill="#9452BA"/>
    <path d="M150.242 192.817L144.23 186l-3.712.147s-.52 5.671-.734 8.046c-.376 4.186-2.11 12.388-3.176 15.987-.346 1.171-.548 2.265-.604 3.257-.094 1.67 1.3 3.049 2.97 3.049h4.412c2.57 0 4.853-1.715 5.485-4.205 1.966-7.754 1.371-19.464 1.371-19.464z" stroke="#52267D"/>
    <path stroke="#52267D" stroke-width=".25" d="M141.992 197l-.992.871.949.856 1.546-.594-.31-.678-1.283.304.011.229.333-.015"/>
    <path d="M141.989 167.407c4.379-.09 8.483-3.105 17.42-3.518.129-.584.286-1.111.486-1.544 1.617-3.501 3.9-13.592 2.434-20.222l-1.16-5.245a24.253 24.253 0 0 1-.573-5.242 10.728 10.728 0 0 1 .335-2.658 10.483 10.483 0 0 1 .714-1.953c.15-.309.314-.611.49-.904a10.675 10.675 0 0 1 3.582-3.581 10.587 10.587 0 0 1 5.516-1.54h1.744a10.607 10.607 0 0 1 9.259 5.404c.115.203.227.41.329.621a10.612 10.612 0 0 1 1.049 4.611 2.64 2.64 0 0 1-.777 1.875 2.64 2.64 0 0 1-1.875.778h-10.89l1.648 9.452c1.935 9.71 1.353 16.203-.145 20.532-.334.965-2.236 4.385-2.236 4.385 5.445 8.593 13.796 12.349 22.724 13.438 7.592.928 23.979-5.995 15.53-14.002-8.45-8.008 1.76-3.029 3.264-2.015 1.503 1.013 10.193 8.521.76 19.538-3.986 4.659-8.504 8.894-19.373 12.141-1.743.52-11.256 1.212-16.376 2.681-15.245 4.377-27.64-.382-34.585-10.445-6.917-10.024-1.023-22.552.706-22.587" fill="#9452BA"/>
    <path d="M141.989 167.407c4.379-.09 8.483-3.105 17.42-3.518.129-.584.286-1.111.486-1.544 1.617-3.501 3.9-13.592 2.434-20.222l-1.16-5.245a24.253 24.253 0 0 1-.573-5.242 10.728 10.728 0 0 1 .335-2.658 10.483 10.483 0 0 1 .714-1.953c.15-.309.314-.611.49-.904a10.675 10.675 0 0 1 3.582-3.581 10.587 10.587 0 0 1 5.516-1.54h1.744a10.607 10.607 0 0 1 9.259 5.404c.115.203.227.41.329.621a10.612 10.612 0 0 1 1.049 4.611 2.64 2.64 0 0 1-.777 1.875 2.64 2.64 0 0 1-1.875.778h-10.89l1.648 9.452c1.935 9.71 1.353 16.203-.145 20.532-.334.965-2.236 4.385-2.236 4.385 5.445 8.593 13.796 12.349 22.724 13.438 7.592.928 23.979-5.995 15.53-14.002-8.45-8.008 1.76-3.029 3.264-2.015 1.503 1.013 10.193 8.521.76 19.538-3.986 4.659-8.504 8.894-19.373 12.141-1.743.52-11.256 1.212-16.376 2.681-15.245 4.377-27.64-.382-34.585-10.445-6.917-10.024-1.023-22.552.706-22.587z" stroke="#52267D" stroke-width="2"/>
    <path d="M151.388 153.029c.35-11.26-8.587-20.109-18.744-21.979-2.109-.388-2.794-1.05-5.101-1.05h-1.767c-5.951 0-10.776 4.825-10.776 10.776a2.687 2.687 0 0 0 2.686 2.687s18.12-.005 18.205-.013l1.476.001c-.001.002-1.478.003-1.48.005 4.007 1.701 6.5 6.821 6.94 9.573.626 3.918.167 7.15-1.169 9.765-.891 1.741-.992 3.839-.854 5.538l.103.035c.063.908.21 1.941.48 3.12 1.707-1.189 4.36-2.978 4.845-3.234 1.047-.553 3.411-1.811 4.469-2.416 6.758-3.875.489-6.404.687-12.808" fill="#9452BA"/>
    <path d="M151.388 153.029c.35-11.26-8.587-20.109-18.744-21.979-2.109-.388-2.794-1.05-5.101-1.05h-1.767c-5.951 0-10.776 4.825-10.776 10.776a2.687 2.687 0 0 0 2.686 2.687s18.12-.005 18.205-.013l1.476.001c-.001.002-1.478.003-1.48.005 4.007 1.701 6.5 6.821 6.94 9.573.626 3.918.167 7.15-1.169 9.765-.891 1.741-.992 3.839-.854 5.538l.103.035c.063.908.21 1.941.48 3.12 1.707-1.189 4.36-2.978 4.845-3.234 1.047-.553 3.411-1.811 4.469-2.416 6.758-3.875.489-6.404.687-12.808z" stroke="#52267D"/>
    <path d="M146 166.035c-.089-1.74-.354-2.632-.16-3.34 1.123-4.073 1.488-5.358 1.488-9.671 0-4.285-2.482-8.52-6.148-10.773-.2-.123-2.839-.31-4.91 1.2 4.006 1.7 6.5 6.82 6.94 9.573.626 3.918.167 7.15-1.169 9.765-.89 1.74-.992 3.839-.854 5.538 0 0 4.916 1.846 4.813-2.292" fill="#F3E3FF"/>
    <path d="M146 166.035c-.089-1.74-.354-2.632-.16-3.34 1.123-4.073 1.488-5.358 1.488-9.671 0-4.285-2.482-8.52-6.148-10.773-.2-.123-2.839-.31-4.91 1.2 4.006 1.7 6.5 6.82 6.94 9.573.626 3.918.167 7.15-1.169 9.765-.89 1.74-.992 3.839-.854 5.538 0 0 4.916 1.846 4.813-2.292" stroke="#52267D" stroke-width=".5"/>
    <path d="M120 131.282s-.004-1.882 1.866-2.63a265.79 265.79 0 0 0 1.613-.652s1.113 2.355-.148 2.95c-1.817.854-3.331.332-3.331.332" fill="#FFF"/>
    <path d="M120 131.282s-.004-1.882 1.866-2.63a265.79 265.79 0 0 0 1.613-.652s1.113 2.355-.148 2.95c-1.817.854-3.331.332-3.331.332z" stroke="#52267D" stroke-width=".5"/>
    <path d="M125 129.982s.053-2.564 2.938-2.938c.538-.07 1.942-.036 1.942-.036s.647 2.713-.873 2.974c-1.87.32-4.007 0-4.007 0" fill="#FFF"/>
    <path d="M125 129.982s.053-2.564 2.938-2.938c.538-.07 1.942-.036 1.942-.036s.647 2.713-.873 2.974c-1.87.32-4.007 0-4.007 0z" stroke="#52267D" stroke-width=".5"/>
    <path d="M131 130.198s.38-2.844 2.935-2.062c1.091.334 1.697 1.164 1.697 1.164s-.509 2.166-1.525 1.921c-1.774-.424-3.107-1.023-3.107-1.023" fill="#FFF"/>
    <path d="M131 130.198s.38-2.844 2.935-2.062c1.091.334 1.697 1.164 1.697 1.164s-.509 2.166-1.525 1.921c-1.774-.424-3.107-1.023-3.107-1.023z" stroke="#52267D" stroke-width=".5"/>
    <path d="M138 144.686s5.955-3.237 4.822-8.686c.791.652 2.906 2.638 3.672 3.655 0 1.066.195 5.302-5.653 8.138-1.029-1.066-1.895-2.397-2.841-3.107" fill="#FFF"/>
    <path d="M138 144.686s5.955-3.237 4.822-8.686c.791.652 2.906 2.638 3.672 3.655 0 1.066.195 5.302-5.653 8.138-1.029-1.066-1.895-2.397-2.841-3.107z" stroke="#52267D" stroke-width=".5"/>
    <path d="M121 130.916s-.002-1.099 1.089-1.535c.333-.133.941-.381.941-.381s.65 1.375-.086 1.722c-1.06.499-1.944.194-1.944.194M126 129.746s.031-1.501 1.721-1.721c.315-.04 1.136-.02 1.136-.02s.38 1.589-.511 1.741c-1.095.187-2.346 0-2.346 0M131 130.3s.225-1.682 1.736-1.22a2.112 2.112 0 0 1 1.004.689s-.301 1.28-.902 1.137c-1.049-.251-1.838-.605-1.838-.605M131.646 140.967H125v-2.865c0-1.16.94-2.102 2.101-2.102h4.545c.708 0 1.282.574 1.282 1.282v2.403c0 .708-.574 1.282-1.282 1.282" fill="#F3E3FF"/>
    <path d="M130.837 140.901H125v-1.887c0-1.112.902-2.014 2.015-2.014h3.822c.556 0 1.007.451 1.007 1.007v1.887c0 .556-.451 1.007-1.007 1.007" fill="#FFF"/>
    <path d="M130.837 140.901H125v-1.887c0-1.112.902-2.014 2.015-2.014h3.822c.556 0 1.007.451 1.007 1.007v1.887c0 .556-.451 1.007-1.007 1.007z" stroke="#52267D" stroke-width=".5"/>
    <path d="M126 139.09a1.09 1.09 0 1 0 2.18 0 1.09 1.09 0 0 0-2.18 0M117.413 141.945c.31-.066.586-.238.784-.486l.365-.459-.814.174-.479.102a.343.343 0 0 0 .144.669" fill="#52267D"/>
    <path d="M139 144.446s4.588-2.47 4.518-7.446c1.971 1.436 2.504 2.365 2.504 2.365s-.342 2.368-1.446 3.564c-1.694 1.835-3.459 2.4-5.576 1.517" fill="#E1F2FF"/>
    <path d="M143.69 143.788s-1.809 1.84-3.573 2.723" fill="#FFF"/>
    <path d="M143.69 143.788s-1.809 1.84-3.573 2.723" stroke="#52267D" stroke-width=".5"/>
    <path d="M161.681 163.135l-1.02-2.017c-3.819-9.38-4.408-14.89-2.427-23.844l1.16-5.245c.38-1.72.572-3.479.572-5.242 0-5.874-4.763-10.636-10.637-10.636h-1.717c-5.794 0-10.492 4.697-10.492 10.491v.302a2.497 2.497 0 0 0 2.497 2.496h10.873l-1.648 9.452c-5.047 25.33-4.54 35.6 5.39 33.49" fill="#9452BA"/>
    <path d="M161.681 163.135l-1.02-2.017c-3.819-9.38-4.408-14.89-2.427-23.844l1.16-5.245c.38-1.72.572-3.479.572-5.242 0-5.874-4.763-10.636-10.637-10.636h-1.717c-5.794 0-10.492 4.697-10.492 10.491v.302a2.497 2.497 0 0 0 2.497 2.496h10.873l-1.648 9.452c-5.047 25.33-4.54 35.6 5.39 33.49" stroke="#52267D"/>
    <path d="M142 116.672s.175-1.844 2.007-2.576c.558-.224 1.434.014 1.434.014s1.058 1.654-.178 2.236c-1.78.838-3.263.326-3.263.326" fill="#FFF"/>
    <path d="M142 116.672s.175-1.844 2.007-2.576c.558-.224 1.434.014 1.434.014s1.058 1.654-.178 2.236c-1.78.838-3.263.326-3.263.326z" stroke="#52267D" stroke-width=".5"/>
    <path d="M147 116.369s.061-2.904 3.328-3.328c.61-.08 1.392-.02 1.392-.02s1.541 3.053-.182 3.348c-2.117.363-4.538 0-4.538 0" fill="#FFF"/>
    <path d="M147 116.369s.061-2.904 3.328-3.328c.61-.08 1.392-.02 1.392-.02s1.541 3.053-.182 3.348c-2.117.363-4.538 0-4.538 0z" stroke="#52267D" stroke-width=".5"/>
    <path d="M152 117.102s.443-2.776 2.926-1.947a3.503 3.503 0 0 1 1.633 1.182s-.552 2.108-1.541 1.845a19.135 19.135 0 0 1-3.018-1.08" fill="#FFF"/>
    <path d="M152 117.102s.443-2.776 2.926-1.947a3.503 3.503 0 0 1 1.633 1.182s-.552 2.108-1.541 1.845a19.135 19.135 0 0 1-3.018-1.08z" stroke="#52267D" stroke-width=".5"/>
    <path d="M142.54 167.159a4.92 4.92 0 0 1 1.788-.861" fill="#F3E3FF"/>
    <path d="M142.54 167.159a4.92 4.92 0 0 1 1.788-.861" stroke="#52267D" stroke-width=".5"/>
    <path d="M146.141 167.102c-1.777-7.223 1.43-21.03 2.018-24.429l2.334-13.615h1.024c1.296 0 2.277 1.41 2.093 2.694l-1.692 11.81c-.572 4-1.168 22.515 5.781 26.491 1.482.85 3.891.292 4.8-.14 3.302-1.579 4.251-5.696 4.975-9.015 1.498-6.87.331-12.263 0-17.648l-.349-6.737c-.062-1.218.906-2.51 2.123-2.51h1.242l2.236 13.616c.672 3.877 2.403 17.322-5.52 23.625-.143.114 1.927.577 1.327 1.637-2.383 4.212-9.288 4.878-10.587 6.682-5.008 6.944-.318 21.741-.318 21.741s-5.557-2.218-9-5.303c-8.046-7.212-9.067-17.658-9.104-20.733-.045-3.679.921-5.96 2.111-7.323" fill="#F3E3FF"/>
    <path d="M146.141 167.102c-1.777-7.223 1.43-21.03 2.018-24.429l2.334-13.615h1.024c1.296 0 2.277 1.41 2.093 2.694l-1.692 11.81c-.572 4-1.168 22.515 5.781 26.491 1.482.85 3.891.292 4.8-.14 3.302-1.579 4.251-5.696 4.975-9.015 1.498-6.87.331-12.263 0-17.648l-.349-6.737c-.062-1.218.906-2.51 2.123-2.51h1.242l2.236 13.616c.672 3.877 2.403 17.322-5.52 23.625-.143.114 1.927.577 1.327 1.637-2.383 4.212-9.288 4.878-10.587 6.682-5.008 6.944-.318 21.741-.318 21.741s-5.557-2.218-9-5.303c-8.046-7.212-9.067-17.658-9.104-20.733-.045-3.679.921-5.96 2.111-7.323" stroke="#52267D" stroke-width=".5"/>
    <path d="M211.862 172.931s1.144-1.266.5-2.966c-.195-.518-.901-.965-.901-.965s-1.783.311-1.41 1.513c.54 1.73 1.81 2.418 1.81 2.418" fill="#FFF"/>
    <path d="M211.862 172.931s1.144-1.266.5-2.966c-.195-.518-.901-.965-.901-.965s-1.783.311-1.41 1.513c.54 1.73 1.81 2.418 1.81 2.418z" stroke="#52267D"/>
    <path d="M210.653 171.379s.401-.444.176-1.04c-.069-.183-.317-.339-.317-.339s-.625.109-.494.53c.19.607.635.849.635.849" fill="#F3E3FF"/>
    <path d="M202.225 181.674s-1.085-2.477 1.51-4.113c.482-.306 1.167-.561 1.167-.561s2.496 1.974 1.156 2.898c-1.646 1.135-3.833 1.776-3.833 1.776" fill="#FFF"/>
    <path d="M202.225 181.674s-1.085-2.477 1.51-4.113c.482-.306 1.167-.561 1.167-.561s2.496 1.974 1.156 2.898c-1.646 1.135-3.833 1.776-3.833 1.776z" stroke="#52267D"/>
    <path d="M203.125 180.592s-.603-1.374.836-2.281a4.23 4.23 0 0 1 .648-.311s1.384 1.095.641 1.607c-.913.63-2.125.985-2.125.985" fill="#F3E3FF"/>
    <path d="M209.435 174s1.88 1.651.076 3.128c-.77.631-1.665.669-1.665.669s-1.326-1.417-.658-2.036a17.046 17.046 0 0 1 2.247-1.761" fill="#FFF"/>
    <path d="M209.435 174s1.88 1.651.076 3.128c-.77.631-1.665.669-1.665.669s-1.326-1.417-.658-2.036a17.046 17.046 0 0 1 2.247-1.761z" stroke="#52267D"/>
    <path d="M210.078 175s.833.731.034 1.385c-.341.279-.737.297-.737.297s-.588-.628-.291-.903c.516-.479.994-.779.994-.779" fill="#F3E3FF"/>
    <path d="M193.07 183.511s-.62-2.205 1.808-3.08c2.426-.875 3.078-.148 3.078-.148s1.343 2.26.143 2.987c-1.2.727-5.028.241-5.028.241" fill="#FFF"/>
    <path d="M193.07 183.511s-.62-2.205 1.808-3.08c2.426-.875 3.078-.148 3.078-.148s1.343 2.26.143 2.987c-1.2.727-5.028.241-5.028.241z" stroke="#52267D"/>
    <path d="M194.037 182.826s-.322-1.146.939-1.602c1.262-.455 1.602-.076 1.602-.076s.697 1.175.074 1.553c-.624.378-2.615.125-2.615.125" fill="#F3E3FF"/>
    <path d="M149.752 132s3.874 2.19 9.319.213c-.374 1.689-1.135 5.084-1.135 5.084s-5.045 1.547-8.936-.901c.398-2.242.752-4.396.752-4.396" fill="#FFF"/>
    <path d="M149.752 132s3.874 2.19 9.319.213c-.374 1.689-1.135 5.084-1.135 5.084s-5.045 1.547-8.936-.901c.398-2.242.752-4.396.752-4.396z" stroke="#52267D" stroke-width=".5"/>
    <path d="M179.176 121.882s-.176-1.857-2.021-2.596c-.564-.225-2.084-.286-2.084-.286s-.427 1.967.818 2.554c1.793.844 3.287.328 3.287.328" fill="#FFF"/>
    <path d="M179.176 121.882s-.176-1.857-2.021-2.596c-.564-.225-2.084-.286-2.084-.286s-.427 1.967.818 2.554c1.793.844 3.287.328 3.287.328z" stroke="#52267D" stroke-width=".5"/>
    <path d="M174.666 120.936s-.053-2.531-2.9-2.9c-.531-.07-1.213-.017-1.213-.017s-1.343 2.659.158 2.917c1.846.316 3.955 0 3.955 0" fill="#FFF"/>
    <path d="M174.666 120.936s-.053-2.531-2.9-2.9c-.531-.07-1.213-.017-1.213-.017s-1.343 2.659.158 2.917c1.846.316 3.955 0 3.955 0z" stroke="#52267D" stroke-width=".5"/>
    <path d="M168.594 121.117s-.446-2.796-2.947-1.961c-1.07.357-1.647 1.19-1.647 1.19s.557 2.125 1.554 1.859c1.74-.464 3.04-1.088 3.04-1.088" fill="#FFF"/>
    <path d="M168.594 121.117s-.446-2.796-2.947-1.961c-1.07.357-1.647 1.19-1.647 1.19s.557 2.125 1.554 1.859c1.74-.464 3.04-1.088 3.04-1.088z" stroke="#52267D" stroke-width=".5"/>
    <path d="M143 116.51s.099-1.042 1.134-1.456c.316-.127.81.008.81.008s.599.935-.1 1.264c-1.006.473-1.844.184-1.844.184M148 116.213s.04-1.908 2.187-2.186c.4-.052.914-.012.914-.012s1.011 2.004-.12 2.198c-1.391.239-2.981 0-2.981 0M153 117.337s.282-1.766 1.861-1.239c.675.226 1.04.752 1.04.752s-.351 1.342-.981 1.174a12.16 12.16 0 0 1-1.92-.687M178.327 121.606s-.099-1.035-1.127-1.446c-.313-.126-1.16-.16-1.16-.16s-.239 1.096.455 1.423c1 .47 1.832.183 1.832.183M172.703 120.701s-.03-1.467-1.68-1.681c-.307-.039-.703-.009-.703-.009s-.778 1.541.092 1.69c1.07.183 2.291 0 2.291 0M167.717 121.252s-.264-1.654-1.743-1.16a2.087 2.087 0 0 0-.974.704s.329 1.257.919 1.1c1.029-.275 1.798-.644 1.798-.644" fill="#F3E3FF"/>
    <path d="M161 137.371s4.797.748 9.358-.371c.445 2.478.73 4.35.73 4.35s-3.163 2.148-9.008.902c-.689-3.184-1.08-4.881-1.08-4.881" fill="#FFF"/>
    <path d="M161 137.371s4.797.748 9.358-.371c.445 2.478.73 4.35.73 4.35s-3.163 2.148-9.008.902c-.689-3.184-1.08-4.881-1.08-4.881z" stroke="#52267D" stroke-width=".5"/>
    <path d="M168.282 131.966h6.646v-2.865a2.1 2.1 0 0 0-2.101-2.101h-4.545c-.708 0-1.282.574-1.282 1.282v2.402c0 .708.574 1.282 1.282 1.282" fill="#F3E3FF"/>
    <path d="M169.007 131.902h5.837v-1.887a2.015 2.015 0 0 0-2.015-2.015h-3.822c-.556 0-1.007.451-1.007 1.007v1.887c0 .557.451 1.008 1.007 1.008" fill="#FFF"/>
    <path d="M169.007 131.902h5.837v-1.887a2.015 2.015 0 0 0-2.015-2.015h-3.822c-.556 0-1.007.451-1.007 1.007v1.887c0 .557.451 1.008 1.007 1.008z" stroke="#52267D" stroke-width=".5"/>
    <path d="M174.18 131.09a1.09 1.09 0 1 1-2.18 0 1.09 1.09 0 0 1 2.18 0" fill="#52267D"/>
    <path d="M151.646 126.966H145v-2.865c0-1.16.941-2.101 2.101-2.101h4.545c.709 0 1.282.574 1.282 1.282v2.402c0 .708-.573 1.282-1.282 1.282" fill="#F3E3FF"/>
    <path d="M150.836 126.901H145v-1.887c0-1.113.901-2.014 2.015-2.014h3.821c.557 0 1.008.451 1.008 1.007v1.887c0 .556-.451 1.007-1.008 1.007" fill="#FFF"/>
    <path d="M150.836 126.901H145v-1.887c0-1.113.901-2.014 2.015-2.014h3.821c.557 0 1.008.451 1.008 1.007v1.887c0 .556-.451 1.007-1.008 1.007z" stroke="#52267D" stroke-width=".5"/>
    <path d="M146 126.089a1.09 1.09 0 1 0 2.179.001 1.09 1.09 0 0 0-2.179-.001M181.149 132.945a1.368 1.368 0 0 1-.784-.485L180 132l.813.174.48.103a.341.341 0 0 1-.144.668M139.413 127.945c.31-.066.587-.238.784-.486l.364-.459-.812.174-.48.103a.341.341 0 1 0 .144.668" fill="#52267D"/>
    <path d="M150 133s4.059 1.729 8.152.149c-.428 2.402-.811 3.627-.811 3.627s-2.463.145-4.094-.176c-2.329-.459-3.247-1.518-3.247-3.6" fill="#E1F2FF"/>
    <path d="M156.075 136.165s-3.692.308-6.552-1.175" fill="#FFF"/>
    <path d="M156.075 136.165s-3.692.308-6.552-1.175" stroke="#52267D" stroke-width=".5"/>
    <path d="M168.775 137s-3.6 1.023-6.775.389c.599 2.364.918 3.105.918 3.105s4.763-.635 5.857-3.494" fill="#E1F2FF"/>
    <path d="M167.207 171.295s-.218.157-.526.344" fill="#F3E3FF"/>
    <path d="M167.207 171.295s-.218.157-.526.344" stroke="#52267D" stroke-width=".5"/>
    <path d="M169.486 139.077s-3.624.687-7.471.229" fill="#FFF"/>
    <path d="M169.486 139.077s-3.624.687-7.471.229" stroke="#52267D" stroke-width=".5"/>
    <path d="M163.916 213.28s-.961-.782-2.24.267c-1.166.959-2.044 2.44-1.521 2.589a5.582 5.582 0 0 0 2.41.117c.843-.155 1.586.007 1.924-1.753.157-.821-.573-1.22-.573-1.22" fill="#FFF"/>
    <path d="M163.916 213.28s-.961-.782-2.24.267c-1.166.959-2.044 2.44-1.521 2.589a5.582 5.582 0 0 0 2.41.117c.843-.155 1.586.007 1.924-1.753.157-.821-.573-1.22-.573-1.22z" stroke="#52267D" stroke-width=".5"/>
    <path d="M163.437 213.175s-.6-.487-1.394.166c-.725.597-1.272 1.519-.947 1.61.326.093.9.184 1.5.074.525-.097.987.004 1.197-1.091.098-.511-.356-.76-.356-.76" fill="#E1F2FF"/>
    <path d="M165.152 213.003c.508-.068 1.24 1.035 1.155 1.371-.083.336-.14 1.446-.963 1.567-.605.089-2.764.314-3.236-.155-.435-.432.416-2.431 3.044-2.783" fill="#FFF"/>
    <path d="M165.152 213.003c.508-.068 1.24 1.035 1.155 1.371-.083.336-.14 1.446-.963 1.567-.605.089-2.764.314-3.236-.155-.435-.432.416-2.431 3.044-2.783z" stroke="#52267D" stroke-width=".5"/>
    <path d="M164.86 214.002c.3-.04.73.61.683.809-.05.199-.084.854-.57.925-.356.052-1.631.185-1.91-.091-.255-.256.247-1.435 1.798-1.643" fill="#E1F2FF"/>
    <path d="M166.968 214.053s-.438-.23-1.308.268c-.766.438-1.912 1.14-1.61 2.012.3.872 2.726.548 3.265.364.539-.185.877-.772.78-1.286-.206-1.12-1.127-1.358-1.127-1.358" fill="#FFF"/>
    <path d="M166.968 214.053s-.438-.23-1.308.268c-.766.438-1.912 1.14-1.61 2.012.3.872 2.726.548 3.265.364.539-.185.877-.772.78-1.286-.206-1.12-1.127-1.358-1.127-1.358z" stroke="#52267D" stroke-width=".5"/>
    <path d="M166.758 214.031s-.26-.136-.774.158c-.455.261-1.133.676-.955 1.193.18.516 1.615.324 1.934.214.32-.109.52-.457.463-.76-.123-.663-.668-.805-.668-.805" fill="#E1F2FF"/>
    <path d="M156.922 186.011s.494 5.617-.935 14.447c-1.329 8.22-3.686 10.798-3.513 12.93.135 1.65.831 3.162 2.487 3.162h4.94a5.368 5.368 0 0 0 5.083-3.657c.597-1.759 1.218-4.153 1.59-7.179.38-4.116.297-8.244.23-10.669" fill="#9452BA"/>
    <path d="M156.922 186.011s.494 5.617-.935 14.447c-1.329 8.22-3.686 10.798-3.513 12.93.135 1.65.831 3.162 2.487 3.162h4.94a5.368 5.368 0 0 0 5.083-3.657c.597-1.759 1.218-4.153 1.59-7.179.38-4.116.297-8.244.23-10.669" stroke="#52267D"/>
    <path d="M182.254 189.727c-1.637 1.41-2.485 3.716-2.473 5.835.018 2.83 1.66 6.433.62 11.135-.928 4.19-2.774 4.928-2.218 8.686.1.68.71 1.167 1.395 1.167h5.506a5.192 5.192 0 0 0 5.117-4.337c1.107-6.675.262-12.976-.628-17.81" fill="#9452BA"/>
    <path d="M182.254 189.727c-1.637 1.41-2.485 3.716-2.473 5.835.018 2.83 1.66 6.433.62 11.135-.928 4.19-2.774 4.928-2.218 8.686.1.68.71 1.167 1.395 1.167h5.506a5.192 5.192 0 0 0 5.117-4.337c1.107-6.675.262-12.976-.628-17.81" stroke="#52267D"/>
    <path stroke="#52267D" stroke-width=".25" d="M183.191 196.106l.323-.232 1.047.235-1.162.742-1.399-.689 1.453-1.162.661.221"/>
    <path d="M153.916 213.28s-.961-.782-2.238.267c-1.168.959-2.046 2.44-1.523 2.589a5.582 5.582 0 0 0 2.41.117c.843-.155 1.586.007 1.924-1.753.157-.821-.573-1.22-.573-1.22" fill="#FFF"/>
    <path d="M153.916 213.28s-.961-.782-2.238.267c-1.168.959-2.046 2.44-1.523 2.589a5.582 5.582 0 0 0 2.41.117c.843-.155 1.586.007 1.924-1.753.157-.821-.573-1.22-.573-1.22z" stroke="#52267D" stroke-width=".5"/>
    <path d="M153.436 213.175s-.599-.487-1.394.166c-.725.597-1.272 1.519-.946 1.61.325.093.9.184 1.5.074.524-.097.986.004 1.196-1.091.098-.511-.356-.76-.356-.76" fill="#E1F2FF"/>
    <path stroke="#52267D" stroke-width=".25" d="M160.968 199l-1.968.613.261 1.824 2.016.146.938-1.084-1.207-.67-.998.29.635.706"/>
    <g stroke="#F3E3FF" stroke-width=".25">
      <path d="M118.94 139.037a.536.536 0 0 0 1.071 0M117.869 139.037a.536.536 0 0 0 1.072 0M118.404 139.573a.536.536 0 0 0 1.072 0M139.47 138.535a.79.79 0 0 0 .834-1.341M139.724 139.623a.79.79 0 0 0 .834-1.342M164.898 156.535a.72.72 0 0 0 1.437 0M163.46 156.535a.72.72 0 0 0 1.437 0M164.18 157.254a.72.72 0 0 0 1.436 0M143.434 202.066a.718.718 0 1 0 1.437 0M141.997 202.066a.718.718 0 1 0 1.437 0M142.715 202.785a.718.718 0 1 0 1.437 0M163.785 133.63a.79.79 0 1 0 1.579 0M162.995 134.42a.79.79 0 0 0 1.579 0M153.69 147.577a.96.96 0 0 0 1.92 0M152.731 148.537a.96.96 0 0 0 1.919 0M139.753 123.72a.642.642 0 0 0 1.283 0M139.11 124.362a.643.643 0 0 0 1.285 0M200.157 188.425a.74.74 0 0 0 1.128-.956M200.07 189.466a.739.739 0 1 0 1.129-.954M170.789 178.223a.867.867 0 1 0 1.577-.719M169.211 178.943a.866.866 0 1 0 1.577-.72M170.36 179.372a.866.866 0 1 0 1.577-.72M168.782 180.091a.866.866 0 1 0 1.578-.72M171.507 179.802a.867.867 0 0 0 1.578-.72M155.695 130.208a.875.875 0 0 0 1.749 0M155.391 163.26a.875.875 0 0 0 1.75 0M165.304 145.04a.663.663 0 0 0 1.325 0M181.082 129.983a.498.498 0 0 0 .995 0M185.22 203.085a.875.875 0 0 0 1.723-.3M161.058 209.527a.96.96 0 0 0 1.92 0M160.1 210.486a.96.96 0 0 0 1.918 0"/>
    </g>
    <path d="M155.152 213.003c.508-.068 1.24 1.035 1.155 1.371-.083.336-.14 1.446-.963 1.567-.605.089-2.764.314-3.236-.155-.435-.432.416-2.431 3.044-2.783" fill="#FFF"/>
    <path d="M155.152 213.003c.508-.068 1.24 1.035 1.155 1.371-.083.336-.14 1.446-.963 1.567-.605.089-2.764.314-3.236-.155-.435-.432.416-2.431 3.044-2.783z" stroke="#52267D" stroke-width=".5"/>
    <path d="M154.86 214.002c.3-.04.73.61.682.809-.05.199-.084.854-.57.925-.356.052-1.631.185-1.908-.091-.257-.256.245-1.435 1.796-1.643" fill="#E1F2FF"/>
    <path d="M156.624 214.047s-.388-.203-1.155.236c-.68.389-1.692 1.009-1.425 1.78.267.772 2.41.485 2.887.322.476-.163.776-.682.69-1.137-.183-.99-.997-1.201-.997-1.201" fill="#FFF"/>
    <path d="M156.624 214.047s-.388-.203-1.155.236c-.68.389-1.692 1.009-1.425 1.78.267.772 2.41.485 2.887.322.476-.163.776-.682.69-1.137-.183-.99-.997-1.201-.997-1.201z" stroke="#52267D" stroke-width=".5"/>
    <path d="M156.554 214.027s-.229-.119-.685.141c-.402.23-1.002.597-.843 1.053.157.457 1.426.287 1.71.191.281-.097.46-.404.41-.673-.11-.587-.592-.712-.592-.712" fill="#E1F2FF"/>
    <path d="M136.625 214.047s-.388-.203-1.156.236c-.678.389-1.692 1.009-1.425 1.78.267.772 2.41.485 2.888.322.476-.163.775-.682.69-1.137-.183-.99-.997-1.201-.997-1.201" fill="#FFF"/>
    <path d="M136.625 214.047s-.388-.203-1.156.236c-.678.389-1.692 1.009-1.425 1.78.267.772 2.41.485 2.888.322.476-.163.775-.682.69-1.137-.183-.99-.997-1.201-.997-1.201z" stroke="#52267D" stroke-width=".5"/>
    <path d="M136.553 214.027s-.229-.119-.684.141c-.402.23-1.002.597-.843 1.053.157.457 1.426.287 1.71.191.281-.097.46-.404.41-.673-.11-.587-.593-.712-.593-.712" fill="#E1F2FF"/>
    <path d="M139.152 214.003c.508-.068 1.24 1.035 1.155 1.371-.083.336-.14 1.446-.963 1.567-.605.089-2.764.314-3.236-.155-.435-.432.416-2.431 3.044-2.783" fill="#FFF"/>
    <path d="M139.152 214.003c.508-.068 1.24 1.035 1.155 1.371-.083.336-.14 1.446-.963 1.567-.605.089-2.764.314-3.236-.155-.435-.432.416-2.431 3.044-2.783z" stroke="#52267D" stroke-width=".5"/>
    <path d="M138.86 214.002c.3-.04.73.61.682.809-.05.199-.084.854-.57.925-.356.052-1.631.185-1.908-.091-.257-.256.245-1.435 1.796-1.643" fill="#E1F2FF"/>
    <path d="M179.915 213.28s-.96-.782-2.238.267c-1.167.959-2.045 2.44-1.523 2.589a5.582 5.582 0 0 0 2.411.117c.842-.155 1.585.007 1.923-1.753.157-.821-.573-1.22-.573-1.22" fill="#FFF"/>
    <path d="M179.915 213.28s-.96-.782-2.238.267c-1.167.959-2.045 2.44-1.523 2.589a5.582 5.582 0 0 0 2.411.117c.842-.155 1.585.007 1.923-1.753.157-.821-.573-1.22-.573-1.22z" stroke="#52267D" stroke-width=".5"/>
    <path d="M180.436 213.175s-.598-.487-1.393.166c-.726.597-1.273 1.519-.947 1.61.325.093.9.184 1.5.074.524-.097.986.004 1.196-1.091.098-.511-.356-.76-.356-.76" fill="#E1F2FF"/>
    <path d="M181.152 213.003c.508-.068 1.239 1.035 1.155 1.371-.083.336-.14 1.446-.963 1.567-.605.089-2.764.314-3.236-.155-.435-.432.417-2.431 3.044-2.783" fill="#FFF"/>
    <path d="M181.152 213.003c.508-.068 1.239 1.035 1.155 1.371-.083.336-.14 1.446-.963 1.567-.605.089-2.764.314-3.236-.155-.435-.432.417-2.431 3.044-2.783z" stroke="#52267D" stroke-width=".5"/>
    <path d="M181.86 214.002c.3-.04.73.61.682.809-.05.199-.083.854-.57.925-.356.052-1.63.185-1.908-.091-.257-.256.245-1.435 1.796-1.643" fill="#E1F2FF"/>
    <path d="M183.625 214.047s-.39-.203-1.156.236c-.68.389-1.692 1.009-1.425 1.78.267.772 2.41.485 2.887.322.476-.163.776-.682.692-1.137-.184-.99-.998-1.201-.998-1.201" fill="#FFF"/>
    <path d="M183.625 214.047s-.39-.203-1.156.236c-.68.389-1.692 1.009-1.425 1.78.267.772 2.41.485 2.887.322.476-.163.776-.682.692-1.137-.184-.99-.998-1.201-.998-1.201z" stroke="#52267D" stroke-width=".5"/>
    <path d="M183.554 214.027s-.229-.119-.685.141c-.4.23-1.002.597-.843 1.053.158.457 1.427.287 1.71.191.282-.097.46-.404.41-.673-.11-.587-.592-.712-.592-.712" fill="#E1F2FF"/>
    <path d="M145.748 214.135c.16-.134.35-.171.506-.098.583.276 2.057 1.058 1.752 2.117-.237.825-.74.577-1.703.594l-.727.014a.413.413 0 0 1-.366-.213c-.418-.698-.192-1.797.488-2.371l.05-.043z" fill="#FFF"/>
    <path d="M145.748 214.135c.16-.134.35-.171.506-.098.583.276 2.057 1.058 1.752 2.117-.237.825-.74.577-1.703.594l-.727.014a.413.413 0 0 1-.366-.213c-.418-.698-.192-1.797.488-2.371l.05-.043z" stroke="#52267D" stroke-width=".5"/>
    <path d="M145.544 214.098c.115-.098.254-.125.367-.07.424.2 1.495.767 1.274 1.537-.172.6-.538.42-1.238.431l-.528.01a.3.3 0 0 1-.266-.154c-.304-.508-.14-1.306.355-1.723l.036-.03z" fill="#E1F2FF"/>
    <path d="M142.125 213.361s-.892-.86-2.253.075c-1.245.857-2.245 2.258-1.736 2.451a5.562 5.562 0 0 0 2.392.321c.85-.082 1.578.142 2.065-1.583.225-.804-.468-1.264-.468-1.264" fill="#FFF"/>
    <path d="M142.125 213.361s-.892-.86-2.253.075c-1.245.857-2.245 2.258-1.736 2.451a5.562 5.562 0 0 0 2.392.321c.85-.082 1.578.142 2.065-1.583.225-.804-.468-1.264-.468-1.264z" stroke="#52267D" stroke-width=".5"/>
    <path d="M141.567 214.225s-.555-.537-1.402.047c-.775.532-1.398 1.404-1.08 1.524.316.12.878.26 1.488.2.53-.05.982.088 1.285-.985.14-.5-.291-.786-.291-.786" fill="#E1F2FF"/>
    <path d="M188.389 216.533H64.255A2.256 2.256 0 0 1 62 214.278V32.255A2.256 2.256 0 0 1 64.255 30h124.134a2.256 2.256 0 0 1 2.255 2.255v182.023a2.256 2.256 0 0 1-2.255 2.255" fill="#FFF"/>
    <path d="M188.389 216.533H64.255A2.256 2.256 0 0 1 62 214.278V32.255A2.256 2.256 0 0 1 64.255 30h124.134a2.256 2.256 0 0 1 2.255 2.255v182.023a2.256 2.256 0 0 1-2.255 2.255z" stroke="#5E63B6" stroke-width="2"/>
    <path d="M147.465 88.732c0 13.66-11.073 24.732-24.732 24.732-13.66 0-24.733-11.072-24.733-24.732C98 75.073 109.073 64 122.733 64c13.659 0 24.732 11.073 24.732 24.732" fill="#E1F2FF"/>
    <path d="M150.465 83.732c0 13.66-11.073 24.732-24.732 24.732-13.66 0-24.733-11.072-24.733-24.732C101 70.073 112.073 59 125.733 59c13.659 0 24.732 11.073 24.732 24.732" fill="#FFF"/>
    <path d="M150.465 83.732c0 13.66-11.073 24.732-24.732 24.732-13.66 0-24.733-11.072-24.733-24.732C101 70.073 112.073 59 125.733 59c13.659 0 24.732 11.073 24.732 24.732z" stroke="#5E63B6" stroke-width="2"/>
    <path d="M132.169 96.178c.104.308.195.518.223.588.008.007-.009-.004 0 0 0 0 0 .002 0 0h-.001c-.699-6.74 3.124-9.549 4.352-14.026.006-.067.019-.139.039-.22.026-.1.046-.204.062-.308.182-1.238-.325-2.68-1.286-4.18-.004-.01-.011-.018-.016-.025-.078-.126-.163-.25-.248-.375 0 0-.003-.002-.004-.005a16.864 16.864 0 0 0-.503-.689c-.018-.024-.035-.049-.054-.072-.049-.063-.101-.125-.149-.188l-.153-.194-.158-.189-.165-.195-.118-.136c-1.51-1.74-3.476-3.459-5.528-4.954 0 0-.015-.023 0 0 .272 2.536.306 5.073.066 7.101-.29 2.445-1.165 5.292-2.379 7.872-2.842-.232-5.747-.89-8.012-1.858-1.893-.808-4.063-2.085-6.137-3.598.023.211.048.42.072.63l.025.187c.02.15.038.298.061.45l.03.206a21.043 21.043 0 0 0 .098.631 25.593 25.593 0 0 0 .107.62c.038.22.08.435.123.651.002.016.007.031.01.05.04.193.079.384.121.576.009.04.018.078.025.117a44.186 44.186 0 0 0 .146.625c.05.2.099.4.15.596.002.001.002.003.002.003.168.633.352 1.244.551 1.83l.007.021c.337.98.721 1.881 1.15 2.67.063.114.127.227.192.337.003.004.003.01.006.013h.001c.059.1.119.2.178.293l.002.002.007.011c.064.103.13.204.197.3l.029.04v.002a9.936 9.936 0 0 0 .309.417c.005.007.011.013.016.022a6.04 6.04 0 0 0 .544.608c.032.033.067.062.099.093.048.046.097.088.145.132.037.032.074.06.112.091.046.04.094.075.141.113l.114.081.146.101.114.07.157.09.109.055c.06.028.12.054.182.081.028.01.06.026.09.037.093.038.186.07.279.095.064.02.117.038.168.058 4.5 1.188 8.882-.695 14.377 3.234" fill="#9452BA"/>
    <path d="M95.376 137.067h63.768" fill="#FFF"/>
    <path d="M95.376 137.067h63.768" stroke="#5E63B6" stroke-width="2" stroke-linecap="round" stroke-linejoin="round"/>
    <path d="M95.376 157.627h63.768" fill="#FFF"/>
    <path d="M95.376 157.627h63.768" stroke="#5E63B6" stroke-width="2" stroke-linecap="round" stroke-linejoin="round"/>
    <path d="M95.376 178.878h63.768" fill="#FFF"/>
    <path d="M95.376 178.878h63.768M207 64v7M210 67h-7" stroke="#5E63B6" stroke-width="2" stroke-linecap="round" stroke-linejoin="round"/>
    <path d="M43 184v3.938M44.938 186H41" stroke="#5E63B6" stroke-linecap="round"/>
    <path d="M218 124v3.938M219.938 126H216" stroke="#5E63B6" stroke-linecap="round" stroke-linejoin="round"/>
    <path d="M49 84v3.938M50.938 86H47" stroke="#5E63B6" stroke-linecap="round"/>
    <g>
      <path d="M26.415 122.808v8.125" fill="#FFF"/>
      <path d="M26.415 122.808v8.125" stroke="#5E63B6" stroke-width="2" stroke-linecap="round"/>
    </g>
    <g>
      <path d="M30.478 126.87h-8.125" fill="#FFF"/>
      <path d="M30.478 126.87h-8.125" stroke="#5E63B6" stroke-width="2" stroke-linecap="round"/>
    </g>
    <g>
      <path d="M246.167 216.683h6.974" fill="#FFF"/>
      <path d="M246.167 216.683h6.974" stroke="#5E63B6" stroke-width="2" stroke-linecap="round" stroke-linejoin="round"/>
    </g>
    <g>
      <path d="M3 216.683h8.973" fill="#FFF"/>
      <path d="M3 216.683h8.973" stroke="#5E63B6" stroke-width="2" stroke-linecap="round" stroke-linejoin="round"/>
    </g>
    <g>
      <path d="M95.382 226h67.186" fill="#FFF"/>
      <path d="M95.382 226h67.186" stroke="#5E63B6" stroke-width="2" stroke-linecap="round" stroke-linejoin="round"/>
    </g>
    <g>
      <path d="M171.187 226h9.141" fill="#FFF"/>
      <path d="M171.187 226h9.141" stroke="#5E63B6" stroke-width="2" stroke-linecap="round" stroke-linejoin="round"/>
    </g>
    <g>
      <path d="M87.5 225.924l-5 .075" fill="#FFF"/>
      <path d="M87.5 225.924l-5 .075" stroke="#5E63B6" stroke-width="2" stroke-linecap="round" stroke-linejoin="round"/>
    </g>
  </g>
</svg>
