<svg width="256" height="256" xmlns="http://www.w3.org/2000/svg" xmlns:xlink="http://www.w3.org/1999/xlink">
  <defs>
    <path d="M2.326.924a2 2 0 0 0-2 2.001v75.582a2 2 0 0 0 2 2h83.56a2 2 0 0 0 2-2V2.925a2 2 0 0 0-2-2.001" id="a"/>
    <path d="M2.326.924a2 2 0 0 0-2 2.001v75.582a2 2 0 0 0 2 2h83.56a2 2 0 0 0 2-2V2.925a2 2 0 0 0-2-2.001H2.326z" id="c"/>
    <path d="M2.326.924a2 2 0 0 0-2 2.001v75.582a2 2 0 0 0 2 2h83.56a2 2 0 0 0 2-2V2.925a2 2 0 0 0-2-2.001" id="e"/>
    <path d="M2.326.924a2 2 0 0 0-2 2.001v75.582a2 2 0 0 0 2 2h83.56a2 2 0 0 0 2-2V2.925a2 2 0 0 0-2-2.001H2.326z" id="g"/>
    <path d="M2.326.924a2 2 0 0 0-2 2.001v75.582a2 2 0 0 0 2 2h83.56a2 2 0 0 0 2-2V2.925a2 2 0 0 0-2-2.001" id="i"/>
    <path d="M2.326.924a2 2 0 0 0-2 2.001v75.582a2 2 0 0 0 2 2h83.56a2 2 0 0 0 2-2V2.925a2 2 0 0 0-2-2.001" id="k"/>
    <path d="M2.326.924a2 2 0 0 0-2 2.001v75.582a2 2 0 0 0 2 2h83.56a2 2 0 0 0 2-2V2.925a2 2 0 0 0-2-2.001H2.326z" id="m"/>
    <path d="M2.326.924a2 2 0 0 0-2 2.001v75.582a2 2 0 0 0 2 2h83.56a2 2 0 0 0 2-2V2.925a2 2 0 0 0-2-2.001" id="o"/>
    <path d="M2.326.924a2 2 0 0 0-2 2.001v75.582a2 2 0 0 0 2 2h83.56a2 2 0 0 0 2-2V2.925a2 2 0 0 0-2-2.001H2.326z" id="q"/>
    <path d="M2.326.924a2 2 0 0 0-2 2.001v75.582a2 2 0 0 0 2 2h83.56a2 2 0 0 0 2-2V2.925a2 2 0 0 0-2-2.001" id="s"/>
    <path d="M2.326.924a2 2 0 0 0-2 2.001v75.582a2 2 0 0 0 2 2h83.56a2 2 0 0 0 2-2V2.925a2 2 0 0 0-2-2.001" id="u"/>
    <path d="M2.326.924a2 2 0 0 0-2 2.001v75.582a2 2 0 0 0 2 2h83.56a2 2 0 0 0 2-2V2.925a2 2 0 0 0-2-2.001H2.326z" id="w"/>
    <path d="M2.326.924a2 2 0 0 0-2 2.001v75.582a2 2 0 0 0 2 2h83.56a2 2 0 0 0 2-2V2.925a2 2 0 0 0-2-2.001" id="y"/>
    <path d="M2.326.924a2 2 0 0 0-2 2.001v75.582a2 2 0 0 0 2 2h83.56a2 2 0 0 0 2-2V2.925a2 2 0 0 0-2-2.001H2.326z" id="A"/>
    <path d="M2.326.924a2 2 0 0 0-2 2.001v75.582a2 2 0 0 0 2 2h83.56a2 2 0 0 0 2-2V2.925a2 2 0 0 0-2-2.001" id="C"/>
    <path d="M2.326.924a2 2 0 0 0-2 2.001v75.582a2 2 0 0 0 2 2h83.56a2 2 0 0 0 2-2V2.925a2 2 0 0 0-2-2.001H2.326z" id="E"/>
    <path d="M2.326.924a2 2 0 0 0-2 2.001v75.582a2 2 0 0 0 2 2h83.56a2 2 0 0 0 2-2V2.925a2 2 0 0 0-2-2.001" id="G"/>
    <path d="M2.326.924a2 2 0 0 0-2 2.001v75.582a2 2 0 0 0 2 2h83.56a2 2 0 0 0 2-2V2.925a2 2 0 0 0-2-2.001H2.326z" id="I"/>
    <path d="M2.326.924a2 2 0 0 0-2 2.001v75.582a2 2 0 0 0 2 2h83.56a2 2 0 0 0 2-2V2.925a2 2 0 0 0-2-2.001" id="K"/>
    <path d="M2.326.924a2 2 0 0 0-2 2.001v75.582a2 2 0 0 0 2 2h83.56a2 2 0 0 0 2-2V2.925a2 2 0 0 0-2-2.001" id="M"/>
    <path d="M2.326.924a2 2 0 0 0-2 2.001v75.582a2 2 0 0 0 2 2h83.56a2 2 0 0 0 2-2V2.925a2 2 0 0 0-2-2.001" id="O"/>
    <path d="M2.326.924a2 2 0 0 0-2 2.001v75.582a2 2 0 0 0 2 2h83.56a2 2 0 0 0 2-2V2.925a2 2 0 0 0-2-2.001" id="Q"/>
    <path d="M2.326.924a2 2 0 0 0-2 2.001v75.582a2 2 0 0 0 2 2h83.56a2 2 0 0 0 2-2V2.925a2 2 0 0 0-2-2.001" id="S"/>
    <path d="M2.326.924a2 2 0 0 0-2 2.001v75.582a2 2 0 0 0 2 2h83.56a2 2 0 0 0 2-2V2.925a2 2 0 0 0-2-2.001H2.326z" id="U"/>
    <path d="M2.326.924a2 2 0 0 0-2 2.001v75.582a2 2 0 0 0 2 2h83.56a2 2 0 0 0 2-2V2.925a2 2 0 0 0-2-2.001" id="W"/>
    <path d="M2.326.924a2 2 0 0 0-2 2.001v75.582a2 2 0 0 0 2 2h83.56a2 2 0 0 0 2-2V2.925a2 2 0 0 0-2-2.001" id="Y"/>
    <path d="M2.326.924a2 2 0 0 0-2 2.001v75.582a2 2 0 0 0 2 2h83.56a2 2 0 0 0 2-2V2.925a2 2 0 0 0-2-2.001" id="aa"/>
    <path d="M2.326.924a2 2 0 0 0-2 2.001v75.582a2 2 0 0 0 2 2h83.56a2 2 0 0 0 2-2V2.925a2 2 0 0 0-2-2.001" id="ac"/>
    <path d="M2.326.924a2 2 0 0 0-2 2.001v75.582a2 2 0 0 0 2 2h83.56a2 2 0 0 0 2-2V2.925a2 2 0 0 0-2-2.001" id="ae"/>
    <path d="M2.326.924a2 2 0 0 0-2 2.001v75.582a2 2 0 0 0 2 2h83.56a2 2 0 0 0 2-2V2.925a2 2 0 0 0-2-2.001" id="ag"/>
    <path d="M2.326.924a2 2 0 0 0-2 2.001v75.582a2 2 0 0 0 2 2h83.56a2 2 0 0 0 2-2V2.925a2 2 0 0 0-2-2.001H2.326z" id="ai"/>
    <path d="M2.326.924a2 2 0 0 0-2 2.001v75.582a2 2 0 0 0 2 2h83.56a2 2 0 0 0 2-2V2.925a2 2 0 0 0-2-2.001" id="ak"/>
    <path d="M2.326.924a2 2 0 0 0-2 2.001v75.582a2 2 0 0 0 2 2h83.56a2 2 0 0 0 2-2V2.925a2 2 0 0 0-2-2.001H2.326z" id="am"/>
    <path d="M2.326.924a2 2 0 0 0-2 2.001v75.582a2 2 0 0 0 2 2h83.56a2 2 0 0 0 2-2V2.925a2 2 0 0 0-2-2.001" id="ao"/>
    <path d="M2.326.924a2 2 0 0 0-2 2.001v75.582a2 2 0 0 0 2 2h83.56a2 2 0 0 0 2-2V2.925a2 2 0 0 0-2-2.001H2.326z" id="aq"/>
    <path d="M2.326.924a2 2 0 0 0-2 2.001v75.582a2 2 0 0 0 2 2h83.56a2 2 0 0 0 2-2V2.925a2 2 0 0 0-2-2.001" id="as"/>
    <path d="M2.326.924a2 2 0 0 0-2 2.001v75.582a2 2 0 0 0 2 2h83.56a2 2 0 0 0 2-2V2.925a2 2 0 0 0-2-2.001" id="au"/>
    <path d="M2.326.924a2 2 0 0 0-2 2.001v75.582a2 2 0 0 0 2 2h83.56a2 2 0 0 0 2-2V2.925a2 2 0 0 0-2-2.001" id="aw"/>
    <path d="M2.326.924a2 2 0 0 0-2 2.001v75.582a2 2 0 0 0 2 2h83.56a2 2 0 0 0 2-2V2.925a2 2 0 0 0-2-2.001H2.326z" id="ay"/>
    <path d="M2.326.924a2 2 0 0 0-2 2.001v75.582a2 2 0 0 0 2 2h83.56a2 2 0 0 0 2-2V2.925a2 2 0 0 0-2-2.001" id="aA"/>
    <path d="M2.326.924a2 2 0 0 0-2 2.001v75.582a2 2 0 0 0 2 2h83.56a2 2 0 0 0 2-2V2.925a2 2 0 0 0-2-2.001" id="aC"/>
    <path d="M2.326.924a2 2 0 0 0-2 2.001v75.582a2 2 0 0 0 2 2h83.56a2 2 0 0 0 2-2V2.925a2 2 0 0 0-2-2.001H2.326z" id="aE"/>
    <path d="M2.326.924a2 2 0 0 0-2 2.001v75.582a2 2 0 0 0 2 2h83.56a2 2 0 0 0 2-2V2.925a2 2 0 0 0-2-2.001" id="aG"/>
    <path d="M2.326.924a2 2 0 0 0-2 2.001v75.582a2 2 0 0 0 2 2h83.56a2 2 0 0 0 2-2V2.925a2 2 0 0 0-2-2.001" id="aI"/>
    <path d="M2.326.924a2 2 0 0 0-2 2.001v75.582a2 2 0 0 0 2 2h83.56a2 2 0 0 0 2-2V2.925a2 2 0 0 0-2-2.001H2.326z" id="aK"/>
    <path d="M2.326.924a2 2 0 0 0-2 2.001v75.582a2 2 0 0 0 2 2h83.56a2 2 0 0 0 2-2V2.925a2 2 0 0 0-2-2.001" id="aM"/>
    <path d="M2.326.924a2 2 0 0 0-2 2.001v75.582a2 2 0 0 0 2 2h83.56a2 2 0 0 0 2-2V2.925a2 2 0 0 0-2-2.001" id="aO"/>
    <path d="M2.326.924a2 2 0 0 0-2 2.001v75.582a2 2 0 0 0 2 2h83.56a2 2 0 0 0 2-2V2.925a2 2 0 0 0-2-2.001H2.326z" id="aQ"/>
    <path d="M2.326.924a2 2 0 0 0-2 2.001v75.582a2 2 0 0 0 2 2h83.56a2 2 0 0 0 2-2V2.925a2 2 0 0 0-2-2.001" id="aS"/>
    <path d="M2.326.924a2 2 0 0 0-2 2.001v75.582a2 2 0 0 0 2 2h83.56a2 2 0 0 0 2-2V2.925a2 2 0 0 0-2-2.001" id="aU"/>
    <path d="M2.326.924a2 2 0 0 0-2 2.001v75.582a2 2 0 0 0 2 2h83.56a2 2 0 0 0 2-2V2.925a2 2 0 0 0-2-2.001H2.326z" id="aW"/>
    <path d="M2.326.924a2 2 0 0 0-2 2.001v75.582a2 2 0 0 0 2 2h83.56a2 2 0 0 0 2-2V2.925a2 2 0 0 0-2-2.001" id="aY"/>
    <path d="M2.326.924a2 2 0 0 0-2 2.001v75.582a2 2 0 0 0 2 2h83.56a2 2 0 0 0 2-2V2.925a2 2 0 0 0-2-2.001H2.326z" id="ba"/>
    <path d="M2.326.924a2 2 0 0 0-2 2.001v75.582a2 2 0 0 0 2 2h83.56a2 2 0 0 0 2-2V2.925a2 2 0 0 0-2-2.001" id="bc"/>
    <path d="M2.326.924a2 2 0 0 0-2 2.001v75.582a2 2 0 0 0 2 2h83.56a2 2 0 0 0 2-2V2.925a2 2 0 0 0-2-2.001H2.326z" id="be"/>
    <path d="M2.326.924a2 2 0 0 0-2 2.001v75.582a2 2 0 0 0 2 2h83.56a2 2 0 0 0 2-2V2.925a2 2 0 0 0-2-2.001" id="bg"/>
    <path d="M2.326.924a2 2 0 0 0-2 2.001v75.582a2 2 0 0 0 2 2h83.56a2 2 0 0 0 2-2V2.925a2 2 0 0 0-2-2.001H2.326z" id="bi"/>
    <path d="M2.326.924a2 2 0 0 0-2 2.001v75.582a2 2 0 0 0 2 2h83.56a2 2 0 0 0 2-2V2.925a2 2 0 0 0-2-2.001" id="bk"/>
    <path d="M2.326.924a2 2 0 0 0-2 2.001v75.582a2 2 0 0 0 2 2h83.56a2 2 0 0 0 2-2V2.925a2 2 0 0 0-2-2.001" id="bm"/>
    <path d="M2.326.924a2 2 0 0 0-2 2.001v75.582a2 2 0 0 0 2 2h83.56a2 2 0 0 0 2-2V2.925a2 2 0 0 0-2-2.001" id="bo"/>
    <path d="M2.326.924a2 2 0 0 0-2 2.001v75.582a2 2 0 0 0 2 2h83.56a2 2 0 0 0 2-2V2.925a2 2 0 0 0-2-2.001" id="bq"/>
    <path d="M2.326.924a2 2 0 0 0-2 2.001v75.582a2 2 0 0 0 2 2h83.56a2 2 0 0 0 2-2V2.925a2 2 0 0 0-2-2.001" id="bs"/>
    <path d="M2.326.924a2 2 0 0 0-2 2.001v75.582a2 2 0 0 0 2 2h83.56a2 2 0 0 0 2-2V2.925a2 2 0 0 0-2-2.001" id="bu"/>
    <path d="M2.326.924a2 2 0 0 0-2 2.001v75.582a2 2 0 0 0 2 2h83.56a2 2 0 0 0 2-2V2.925a2 2 0 0 0-2-2.001" id="bw"/>
    <path d="M2.326.924a2 2 0 0 0-2 2.001v75.582a2 2 0 0 0 2 2h83.56a2 2 0 0 0 2-2V2.925a2 2 0 0 0-2-2.001H2.326z" id="by"/>
    <path d="M2.326.924a2 2 0 0 0-2 2.001v75.582a2 2 0 0 0 2 2h83.56a2 2 0 0 0 2-2V2.925a2 2 0 0 0-2-2.001" id="bA"/>
    <path d="M2.326.924a2 2 0 0 0-2 2.001v75.582a2 2 0 0 0 2 2h83.56a2 2 0 0 0 2-2V2.925a2 2 0 0 0-2-2.001" id="bC"/>
    <path d="M2.326.924a2 2 0 0 0-2 2.001v75.582a2 2 0 0 0 2 2h83.56a2 2 0 0 0 2-2V2.925a2 2 0 0 0-2-2.001H2.326z" id="bE"/>
    <path d="M2.326.924a2 2 0 0 0-2 2.001v75.582a2 2 0 0 0 2 2h83.56a2 2 0 0 0 2-2V2.925a2 2 0 0 0-2-2.001" id="bG"/>
    <path d="M2.326.924a2 2 0 0 0-2 2.001v75.582a2 2 0 0 0 2 2h83.56a2 2 0 0 0 2-2V2.925a2 2 0 0 0-2-2.001" id="bI"/>
    <path d="M2.326.924a2 2 0 0 0-2 2.001v75.582a2 2 0 0 0 2 2h83.56a2 2 0 0 0 2-2V2.925a2 2 0 0 0-2-2.001" id="bK"/>
    <path d="M2.326.924a2 2 0 0 0-2 2.001v75.582a2 2 0 0 0 2 2h83.56a2 2 0 0 0 2-2V2.925a2 2 0 0 0-2-2.001H2.326z" id="bM"/>
    <path d="M2.326.924a2 2 0 0 0-2 2.001v75.582a2 2 0 0 0 2 2h83.56a2 2 0 0 0 2-2V2.925a2 2 0 0 0-2-2.001" id="bO"/>
    <path d="M2.326.924a2 2 0 0 0-2 2.001v75.582a2 2 0 0 0 2 2h83.56a2 2 0 0 0 2-2V2.925a2 2 0 0 0-2-2.001" id="bQ"/>
    <path d="M2.326.924a2 2 0 0 0-2 2.001v75.582a2 2 0 0 0 2 2h83.56a2 2 0 0 0 2-2V2.925a2 2 0 0 0-2-2.001" id="bS"/>
    <path d="M2.326.924a2 2 0 0 0-2 2.001v75.582a2 2 0 0 0 2 2h83.56a2 2 0 0 0 2-2V2.925a2 2 0 0 0-2-2.001" id="bU"/>
    <path d="M2.326.924a2 2 0 0 0-2 2.001v75.582a2 2 0 0 0 2 2h83.56a2 2 0 0 0 2-2V2.925a2 2 0 0 0-2-2.001" id="bW"/>
    <path d="M2.326.924a2 2 0 0 0-2 2.001v75.582a2 2 0 0 0 2 2h83.56a2 2 0 0 0 2-2V2.925a2 2 0 0 0-2-2.001" id="bY"/>
    <path d="M2.326.924a2 2 0 0 0-2 2.001v75.582a2 2 0 0 0 2 2h83.56a2 2 0 0 0 2-2V2.925a2 2 0 0 0-2-2.001" id="ca"/>
    <path d="M2.326.924a2 2 0 0 0-2 2.001v75.582a2 2 0 0 0 2 2h83.56a2 2 0 0 0 2-2V2.925a2 2 0 0 0-2-2.001" id="cc"/>
    <path d="M2.326.924a2 2 0 0 0-2 2.001v75.582a2 2 0 0 0 2 2h83.56a2 2 0 0 0 2-2V2.925a2 2 0 0 0-2-2.001" id="ce"/>
    <path d="M2.326.924a2 2 0 0 0-2 2.001v75.582a2 2 0 0 0 2 2h83.56a2 2 0 0 0 2-2V2.925a2 2 0 0 0-2-2.001H2.326z" id="cg"/>
    <path d="M2.326.924a2 2 0 0 0-2 2.001v75.582a2 2 0 0 0 2 2h83.56a2 2 0 0 0 2-2V2.925a2 2 0 0 0-2-2.001" id="ci"/>
    <path d="M2.326.924a2 2 0 0 0-2 2.001v75.582a2 2 0 0 0 2 2h83.56a2 2 0 0 0 2-2V2.925a2 2 0 0 0-2-2.001" id="ck"/>
    <path d="M2.326.924a2 2 0 0 0-2 2.001v75.582a2 2 0 0 0 2 2h83.56a2 2 0 0 0 2-2V2.925a2 2 0 0 0-2-2.001H2.326z" id="cm"/>
    <path d="M2.326.924a2 2 0 0 0-2 2.001v75.582a2 2 0 0 0 2 2h83.56a2 2 0 0 0 2-2V2.925a2 2 0 0 0-2-2.001" id="co"/>
    <path d="M2.326.924a2 2 0 0 0-2 2.001v75.582a2 2 0 0 0 2 2h83.56a2 2 0 0 0 2-2V2.925a2 2 0 0 0-2-2.001" id="cq"/>
    <path d="M2.326.924a2 2 0 0 0-2 2.001v75.582a2 2 0 0 0 2 2h83.56a2 2 0 0 0 2-2V2.925a2 2 0 0 0-2-2.001H2.326z" id="cs"/>
    <path d="M2.326.924a2 2 0 0 0-2 2.001v75.582a2 2 0 0 0 2 2h83.56a2 2 0 0 0 2-2V2.925a2 2 0 0 0-2-2.001" id="cu"/>
    <path d="M2.326.924a2 2 0 0 0-2 2.001v75.582a2 2 0 0 0 2 2h83.56a2 2 0 0 0 2-2V2.925a2 2 0 0 0-2-2.001" id="cw"/>
    <path d="M2.326.924a2 2 0 0 0-2 2.001v75.582a2 2 0 0 0 2 2h83.56a2 2 0 0 0 2-2V2.925a2 2 0 0 0-2-2.001" id="cy"/>
    <path d="M2.326.924a2 2 0 0 0-2 2.001v75.582a2 2 0 0 0 2 2h83.56a2 2 0 0 0 2-2V2.925a2 2 0 0 0-2-2.001" id="cA"/>
    <path d="M2.326.924a2 2 0 0 0-2 2.001v75.582a2 2 0 0 0 2 2h83.56a2 2 0 0 0 2-2V2.925a2 2 0 0 0-2-2.001" id="cC"/>
    <path d="M2.326.924a2 2 0 0 0-2 2.001v75.582a2 2 0 0 0 2 2h83.56a2 2 0 0 0 2-2V2.925a2 2 0 0 0-2-2.001H2.326z" id="cE"/>
    <path d="M2.326.924a2 2 0 0 0-2 2.001v75.582a2 2 0 0 0 2 2h83.56a2 2 0 0 0 2-2V2.925a2 2 0 0 0-2-2.001" id="cG"/>
    <path d="M2.326.924a2 2 0 0 0-2 2.001v75.582a2 2 0 0 0 2 2h83.56a2 2 0 0 0 2-2V2.925a2 2 0 0 0-2-2.001" id="cI"/>
    <path d="M2.326.924a2 2 0 0 0-2 2.001v75.582a2 2 0 0 0 2 2h83.56a2 2 0 0 0 2-2V2.925a2 2 0 0 0-2-2.001" id="cK"/>
    <path d="M2.326.924a2 2 0 0 0-2 2.001v75.582a2 2 0 0 0 2 2h83.56a2 2 0 0 0 2-2V2.925a2 2 0 0 0-2-2.001" id="cM"/>
    <path d="M2.326.924a2 2 0 0 0-2 2.001v75.582a2 2 0 0 0 2 2h83.56a2 2 0 0 0 2-2V2.925a2 2 0 0 0-2-2.001" id="cO"/>
    <path d="M2.326.924a2 2 0 0 0-2 2.001v75.582a2 2 0 0 0 2 2h83.56a2 2 0 0 0 2-2V2.925a2 2 0 0 0-2-2.001" id="cQ"/>
    <path d="M2.326.924a2 2 0 0 0-2 2.001v75.582a2 2 0 0 0 2 2h83.56a2 2 0 0 0 2-2V2.925a2 2 0 0 0-2-2.001" id="cS"/>
    <path d="M2.326.924a2 2 0 0 0-2 2.001v75.582a2 2 0 0 0 2 2h83.56a2 2 0 0 0 2-2V2.925a2 2 0 0 0-2-2.001" id="cU"/>
    <path d="M2.326.924a2 2 0 0 0-2 2.001v75.582a2 2 0 0 0 2 2h83.56a2 2 0 0 0 2-2V2.925a2 2 0 0 0-2-2.001" id="cW"/>
    <path d="M2.326.924a2 2 0 0 0-2 2.001v75.582a2 2 0 0 0 2 2h83.56a2 2 0 0 0 2-2V2.925a2 2 0 0 0-2-2.001" id="cY"/>
    <path d="M2.326.924a2 2 0 0 0-2 2.001v75.582a2 2 0 0 0 2 2h83.56a2 2 0 0 0 2-2V2.925a2 2 0 0 0-2-2.001" id="da"/>
    <path d="M2.326.924a2 2 0 0 0-2 2.001v75.582a2 2 0 0 0 2 2h83.56a2 2 0 0 0 2-2V2.925a2 2 0 0 0-2-2.001" id="dc"/>
    <path d="M2.326.924a2 2 0 0 0-2 2.001v75.582a2 2 0 0 0 2 2h83.56a2 2 0 0 0 2-2V2.925a2 2 0 0 0-2-2.001" id="de"/>
    <path d="M2.326.924a2 2 0 0 0-2 2.001v75.582a2 2 0 0 0 2 2h83.56a2 2 0 0 0 2-2V2.925a2 2 0 0 0-2-2.001" id="dg"/>
    <path d="M2.326.924a2 2 0 0 0-2 2.001v75.582a2 2 0 0 0 2 2h83.56a2 2 0 0 0 2-2V2.925a2 2 0 0 0-2-2.001" id="di"/>
    <path d="M2.326.924a2 2 0 0 0-2 2.001v75.582a2 2 0 0 0 2 2h83.56a2 2 0 0 0 2-2V2.925a2 2 0 0 0-2-2.001" id="dk"/>
    <path d="M2.326.924a2 2 0 0 0-2 2.001v75.582a2 2 0 0 0 2 2h83.56a2 2 0 0 0 2-2V2.925a2 2 0 0 0-2-2.001" id="dm"/>
    <path d="M2.326.924a2 2 0 0 0-2 2.001v75.582a2 2 0 0 0 2 2h83.56a2 2 0 0 0 2-2V2.925a2 2 0 0 0-2-2.001" id="do"/>
    <path d="M2.326.924a2 2 0 0 0-2 2.001v75.582a2 2 0 0 0 2 2h83.56a2 2 0 0 0 2-2V2.925a2 2 0 0 0-2-2.001" id="dq"/>
    <path d="M2.326.924a2 2 0 0 0-2 2.001v75.582a2 2 0 0 0 2 2h83.56a2 2 0 0 0 2-2V2.925a2 2 0 0 0-2-2.001" id="ds"/>
    <path d="M2.326.924a2 2 0 0 0-2 2.001v75.582a2 2 0 0 0 2 2h83.56a2 2 0 0 0 2-2V2.925a2 2 0 0 0-2-2.001" id="du"/>
    <path d="M2.326.924a2 2 0 0 0-2 2.001v75.582a2 2 0 0 0 2 2h83.56a2 2 0 0 0 2-2V2.925a2 2 0 0 0-2-2.001" id="dw"/>
    <path d="M2.326.924a2 2 0 0 0-2 2.001v75.582a2 2 0 0 0 2 2h83.56a2 2 0 0 0 2-2V2.925a2 2 0 0 0-2-2.001" id="dy"/>
    <path d="M2.326.924a2 2 0 0 0-2 2.001v75.582a2 2 0 0 0 2 2h83.56a2 2 0 0 0 2-2V2.925a2 2 0 0 0-2-2.001" id="dA"/>
    <path d="M2.326.924a2 2 0 0 0-2 2.001v75.582a2 2 0 0 0 2 2h83.56a2 2 0 0 0 2-2V2.925a2 2 0 0 0-2-2.001" id="dC"/>
    <path d="M2.326.924a2 2 0 0 0-2 2.001v75.582a2 2 0 0 0 2 2h83.56a2 2 0 0 0 2-2V2.925a2 2 0 0 0-2-2.001" id="dE"/>
    <path d="M2.326.924a2 2 0 0 0-2 2.001v75.582a2 2 0 0 0 2 2h83.56a2 2 0 0 0 2-2V2.925a2 2 0 0 0-2-2.001" id="dG"/>
    <path d="M2.326.924a2 2 0 0 0-2 2.001v75.582a2 2 0 0 0 2 2h83.56a2 2 0 0 0 2-2V2.925a2 2 0 0 0-2-2.001" id="dI"/>
    <path d="M2.326.924a2 2 0 0 0-2 2.001v75.582a2 2 0 0 0 2 2h83.56a2 2 0 0 0 2-2V2.925a2 2 0 0 0-2-2.001" id="dK"/>
    <path d="M2.326.924a2 2 0 0 0-2 2.001v75.582a2 2 0 0 0 2 2h83.56a2 2 0 0 0 2-2V2.925a2 2 0 0 0-2-2.001" id="dM"/>
    <path d="M2.326.924a2 2 0 0 0-2 2.001v75.582a2 2 0 0 0 2 2h83.56a2 2 0 0 0 2-2V2.925a2 2 0 0 0-2-2.001" id="dO"/>
    <path d="M2.326.924a2 2 0 0 0-2 2.001v75.582a2 2 0 0 0 2 2h83.56a2 2 0 0 0 2-2V2.925a2 2 0 0 0-2-2.001" id="dQ"/>
    <path d="M2.326.924a2 2 0 0 0-2 2.001v75.582a2 2 0 0 0 2 2h83.56a2 2 0 0 0 2-2V2.925a2 2 0 0 0-2-2.001" id="dS"/>
    <path d="M2.326.924a2 2 0 0 0-2 2.001v75.582a2 2 0 0 0 2 2h83.56a2 2 0 0 0 2-2V2.925a2 2 0 0 0-2-2.001" id="dU"/>
    <path d="M2.326.924a2 2 0 0 0-2 2.001v75.582a2 2 0 0 0 2 2h83.56a2 2 0 0 0 2-2V2.925a2 2 0 0 0-2-2.001H2.326z" id="dW"/>
    <path d="M2.326.924a2 2 0 0 0-2 2.001v75.582a2 2 0 0 0 2 2h83.56a2 2 0 0 0 2-2V2.925a2 2 0 0 0-2-2.001" id="dY"/>
    <path d="M2.326.924a2 2 0 0 0-2 2.001v75.582a2 2 0 0 0 2 2h83.56a2 2 0 0 0 2-2V2.925a2 2 0 0 0-2-2.001" id="ea"/>
    <path d="M2.326.924a2 2 0 0 0-2 2.001v75.582a2 2 0 0 0 2 2h83.56a2 2 0 0 0 2-2V2.925a2 2 0 0 0-2-2.001H2.326z" id="ec"/>
    <path d="M2.326.924a2 2 0 0 0-2 2.001v75.582a2 2 0 0 0 2 2h83.56a2 2 0 0 0 2-2V2.925a2 2 0 0 0-2-2.001" id="ee"/>
    <path d="M2.326.924a2 2 0 0 0-2 2.001v75.582a2 2 0 0 0 2 2h83.56a2 2 0 0 0 2-2V2.925a2 2 0 0 0-2-2.001" id="eg"/>
    <path d="M2.326.924a2 2 0 0 0-2 2.001v75.582a2 2 0 0 0 2 2h83.56a2 2 0 0 0 2-2V2.925a2 2 0 0 0-2-2.001H2.326z" id="ei"/>
    <path d="M2.326.924a2 2 0 0 0-2 2.001v75.582a2 2 0 0 0 2 2h83.56a2 2 0 0 0 2-2V2.925a2 2 0 0 0-2-2.001" id="ek"/>
    <path d="M2.326.924a2 2 0 0 0-2 2.001v75.582a2 2 0 0 0 2 2h83.56a2 2 0 0 0 2-2V2.925a2 2 0 0 0-2-2.001" id="em"/>
    <path d="M2.326.924a2 2 0 0 0-2 2.001v75.582a2 2 0 0 0 2 2h83.56a2 2 0 0 0 2-2V2.925a2 2 0 0 0-2-2.001H2.326z" id="eo"/>
    <path d="M2.326.924a2 2 0 0 0-2 2.001v75.582a2 2 0 0 0 2 2h83.56a2 2 0 0 0 2-2V2.925a2 2 0 0 0-2-2.001" id="eq"/>
    <path d="M2.326.924a2 2 0 0 0-2 2.001v75.582a2 2 0 0 0 2 2h83.56a2 2 0 0 0 2-2V2.925a2 2 0 0 0-2-2.001" id="es"/>
    <path d="M2.326.924a2 2 0 0 0-2 2.001v75.582a2 2 0 0 0 2 2h83.56a2 2 0 0 0 2-2V2.925a2 2 0 0 0-2-2.001H2.326z" id="eu"/>
    <path d="M2.326.924a2 2 0 0 0-2 2.001v75.582a2 2 0 0 0 2 2h83.56a2 2 0 0 0 2-2V2.925a2 2 0 0 0-2-2.001" id="ew"/>
    <path d="M2.326.924a2 2 0 0 0-2 2.001v75.582a2 2 0 0 0 2 2h83.56a2 2 0 0 0 2-2V2.925a2 2 0 0 0-2-2.001" id="ey"/>
    <path d="M2.326.924a2 2 0 0 0-2 2.001v75.582a2 2 0 0 0 2 2h83.56a2 2 0 0 0 2-2V2.925a2 2 0 0 0-2-2.001H2.326z" id="eA"/>
    <path d="M2.326.924a2 2 0 0 0-2 2.001v75.582a2 2 0 0 0 2 2h83.56a2 2 0 0 0 2-2V2.925a2 2 0 0 0-2-2.001" id="eC"/>
    <path d="M2.326.924a2 2 0 0 0-2 2.001v75.582a2 2 0 0 0 2 2h83.56a2 2 0 0 0 2-2V2.925a2 2 0 0 0-2-2.001" id="eE"/>
    <path d="M2.326.924a2 2 0 0 0-2 2.001v75.582a2 2 0 0 0 2 2h83.56a2 2 0 0 0 2-2V2.925a2 2 0 0 0-2-2.001H2.326z" id="eG"/>
    <path d="M2.326.924a2 2 0 0 0-2 2.001v75.582a2 2 0 0 0 2 2h83.56a2 2 0 0 0 2-2V2.925a2 2 0 0 0-2-2.001" id="eI"/>
    <path d="M2.326.924a2 2 0 0 0-2 2.001v75.582a2 2 0 0 0 2 2h83.56a2 2 0 0 0 2-2V2.925a2 2 0 0 0-2-2.001H2.326z" id="eK"/>
    <path d="M2.326.924a2 2 0 0 0-2 2.001v75.582a2 2 0 0 0 2 2h83.56a2 2 0 0 0 2-2V2.925a2 2 0 0 0-2-2.001H2.326z" id="eM"/>
    <path d="M2.326.924a2 2 0 0 0-2 2.001v75.582a2 2 0 0 0 2 2h83.56a2 2 0 0 0 2-2V2.925a2 2 0 0 0-2-2.001H2.326z" id="eO"/>
    <path d="M2.326.924a2 2 0 0 0-2 2.001v75.582a2 2 0 0 0 2 2h83.56a2 2 0 0 0 2-2V2.925a2 2 0 0 0-2-2.001" id="eQ"/>
    <path d="M2.326.924a2 2 0 0 0-2 2.001v75.582a2 2 0 0 0 2 2h83.56a2 2 0 0 0 2-2V2.925a2 2 0 0 0-2-2.001H2.326z" id="eS"/>
    <path d="M2.326.924a2 2 0 0 0-2 2.001v75.582a2 2 0 0 0 2 2h83.56a2 2 0 0 0 2-2V2.925a2 2 0 0 0-2-2.001" id="eU"/>
  </defs>
  <g fill="none" fill-rule="evenodd">
    <path d="M27.995 197.976c0-57.193 46.364-103.558 103.558-103.558 57.193 0 103.558 46.365 103.558 103.558H27.995z" fill="#E1F2FF"/>
    <path d="M33.61 209.789h22.333" fill="#FFF"/>
    <path d="M33.61 209.789h22.333M243.22 198.826h5" stroke="#ACD3EF" stroke-width="2" stroke-linecap="round"/>
    <path d="M8 198.826h5.334" fill="#FFF"/>
    <path d="M8 198.826h5.334" stroke="#ACD3EF" stroke-width="2" stroke-linecap="round"/>
    <path d="M184.356 171.425h-104.5a2 2 0 0 1-2-2V49.783a2 2 0 0 1 2-2h104.5a2 2 0 0 1 2 2v119.642a2 2 0 0 1-2 2" fill="#FFF"/>
    <path d="M184.356 171.425h-104.5a2 2 0 0 1-2-2V49.783a2 2 0 0 1 2-2h104.5a2 2 0 0 1 2 2v119.642a2 2 0 0 1-2 2z" stroke="#5E63B6" stroke-width="2"/>
    <path d="M173.886 139.296h-83.56a2 2 0 0 1-2-2V61.714a2 2 0 0 1 2-2h83.56a2 2 0 0 1 2 2v75.582a2 2 0 0 1-2 2" fill="#E1F2FF"/>
    <path d="M173.886 139.296h-83.56a2 2 0 0 1-2-2V61.714a2 2 0 0 1 2-2h83.56a2 2 0 0 1 2 2v75.582a2 2 0 0 1-2 2z" stroke="#5E63B6" stroke-width="2"/>
    <path d="M99.347 209.789h55.727" fill="#FFF"/>
    <path d="M99.347 209.789h55.727" stroke="#ACD3EF" stroke-width="2" stroke-linecap="round"/>
    <path d="M161.72 209.789h11.332" fill="#FFF"/>
    <path d="M161.72 209.789h11.332" stroke="#ACD3EF" stroke-width="2" stroke-linecap="round"/>
    <path d="M94.386 209.789h-4.334" fill="#FFF"/>
    <path d="M94.386 209.789h-4.334" stroke="#ACD3EF" stroke-width="2" stroke-linecap="round"/>
    <path d="M22.552 209.789h3.667" fill="#FFF"/>
    <path d="M22.552 209.789h3.667" stroke="#ACD3EF" stroke-width="2" stroke-linecap="round"/>
    <path d="M220.213 209.789h13.667" fill="#FFF"/>
    <path d="M220.213 209.789h13.667M108.724 195.956s1.666-.466 2.666-1.3" stroke="#ACD3EF" stroke-width="2" stroke-linecap="round"/>
    <path d="M239.048 198.826h-16.057a22.96 22.96 0 0 0 .932-6.449c0-12.711-10.305-23.016-23.016-23.016-10.13 0-18.725 6.549-21.8 15.641a15.4 15.4 0 0 0-3.364-.373c-8.095 0-14.716 6.258-15.322 14.197l-13.717.036c-.536-9.608-7.946-17.378-17.404-18.44-3.059-14.837-16.194-25.993-31.937-25.993-10.709 0-20.21 5.162-26.155 13.133a26.503 26.503 0 0 0-6.454-.797c-14.603 0-26.44 11.838-26.44 26.441 0 1.942.214 3.833.613 5.656h-16.26" fill="#FFF"/>
    <path d="M239.048 198.826h-16.057a22.96 22.96 0 0 0 .932-6.449c0-12.711-10.305-23.016-23.016-23.016-10.13 0-18.725 6.549-21.8 15.641a15.4 15.4 0 0 0-3.364-.373c-8.095 0-14.716 6.258-15.322 14.197l-13.717.036c-.536-9.608-7.946-17.378-17.404-18.44-3.059-14.837-16.194-25.993-31.937-25.993-10.709 0-20.21 5.162-26.155 13.133a26.503 26.503 0 0 0-6.454-.797c-14.603 0-26.44 11.838-26.44 26.441 0 1.942.214 3.833.613 5.656h-16.26" stroke="#ACD3EF" stroke-width="2" stroke-linecap="round"/>
    <path d="M227.046 92.814v7M230.546 96.314h-7" stroke="#5E63B6" stroke-width="2" stroke-linecap="round" stroke-linejoin="round"/>
    <path d="M111.39 78.153v7M114.89 81.653h-7" stroke="#FFF" stroke-width="2" stroke-linecap="round" stroke-linejoin="round"/>
    <path d="M41.277 50.483v7M44.777 53.983h-7" stroke="#5E63B6" stroke-width="2" stroke-linecap="round" stroke-linejoin="round"/>
    <path d="M183.203 29.285v3.938M185.171 31.254h-3.938" stroke="#5E63B6" stroke-linecap="round"/>
    <path d="M159.75 88.877v3.938M161.72 90.846h-3.939" stroke="#FFF" stroke-linecap="round"/>
    <path d="M27.995 137.327v3.938M29.963 139.296h-3.938M204.319 137.798v3.938M206.288 139.766h-3.938" stroke="#5E63B6" stroke-linecap="round"/>
    <g>
      <g transform="translate(88 57.789)">
        <mask id="b" fill="#fff">
          <use xlink:href="#a"/>
        </mask>
        <path d="M28.584 143.471h-4.98a4.167 4.167 0 0 1-3.884-2.644c-1.768-4.548-1.328-8.73-1.538-12.306-.392-6.625.643-10.02 1.63-15.56l7.473.172s-.634 2.754-1.058 11.011c-.13 2.556 4.091 12.82 3.893 17.853a1.534 1.534 0 0 1-1.537 1.474" fill="#9452BA" mask="url(#b)"/>
      </g>
      <g transform="translate(88 57.789)">
        <mask id="d" fill="#fff">
          <use xlink:href="#c"/>
        </mask>
        <path d="M28.584 143.471h-4.98a4.167 4.167 0 0 1-3.884-2.644c-1.768-4.548-1.328-8.73-1.538-12.306-.392-6.625.643-10.02 1.63-15.56l7.473.172s-.634 2.754-1.058 11.011c-.13 2.556 4.091 12.82 3.893 17.853a1.534 1.534 0 0 1-1.537 1.474z" stroke="#52267D" stroke-width="2" mask="url(#d)"/>
      </g>
      <g transform="translate(88 57.789)">
        <mask id="f" fill="#fff">
          <use xlink:href="#e"/>
        </mask>
        <path d="M43.078 119.803l6.012-6.817 3.712.147s.52 5.672.734 8.047c.376 4.186 2.11 12.387 3.177 15.986.346 1.17.548 2.266.603 3.257.095 1.67-1.298 3.049-2.97 3.049h-4.412c-2.568 0-4.852-1.714-5.484-4.204-1.966-7.754-1.372-19.465-1.372-19.465" fill="#9452BA" mask="url(#f)"/>
      </g>
      <g transform="translate(88 57.789)">
        <mask id="h" fill="#fff">
          <use xlink:href="#g"/>
        </mask>
        <path d="M43.078 119.803l6.012-6.817 3.712.147s.52 5.672.734 8.047c.376 4.186 2.11 12.387 3.177 15.986.346 1.17.548 2.266.603 3.257.095 1.67-1.298 3.049-2.97 3.049h-4.412c-2.568 0-4.852-1.714-5.484-4.204-1.966-7.754-1.372-19.465-1.372-19.465z" stroke="#52267D" stroke-width="2" mask="url(#h)"/>
      </g>
      <g transform="translate(88 57.789)">
        <mask id="j" fill="#fff">
          <use xlink:href="#i"/>
        </mask>
        <path stroke="#52267D" stroke-width=".5" mask="url(#j)" d="M51.53 124.503l.993.87-.948.857-1.546-.594.31-.678 1.283.304-.012.229-.332-.015"/>
      </g>
      <g transform="translate(88 57.789)">
        <mask id="l" fill="#fff">
          <use xlink:href="#k"/>
        </mask>
        <path d="M51.496 94.417c-4.38-.09-8.484-3.105-17.421-3.518-.13-.584-.286-1.112-.485-1.544-1.617-3.502-3.9-13.593-2.434-20.222l1.16-5.245c.38-1.722.573-3.48.573-5.242a10.655 10.655 0 0 0-1.05-4.611c-.15-.31-.313-.612-.49-.904a10.696 10.696 0 0 0-3.582-3.581 10.578 10.578 0 0 0-5.515-1.54h-1.744a10.603 10.603 0 0 0-8.208 3.87c-.394.477-.744.992-1.052 1.534a9.918 9.918 0 0 0-.541 1.092 10.54 10.54 0 0 0-.781 3.053c-.036.357-.055.72-.055 1.087 0 .733.297 1.396.776 1.875.48.48 1.143.777 1.875.777h10.89l-1.647 9.452c-1.935 9.71-1.354 16.204.145 20.532.334.965 2.236 4.386 2.236 4.386C18.7 104.26 10.35 108.017 1.42 109.106c-7.591.927-23.98-5.995-15.53-14.002 8.45-8.01-1.76-3.03-3.263-2.016-1.503 1.014-10.193 8.522-.762 19.539 3.988 4.658 8.506 8.894 19.375 12.14 1.743.52 11.255 1.213 16.375 2.682 15.246 4.376 27.64-.382 34.586-10.446 6.917-10.023 1.023-22.551-.706-22.586" fill="#9452BA" mask="url(#l)"/>
      </g>
      <g transform="translate(88 57.789)">
        <mask id="n" fill="#fff">
          <use xlink:href="#m"/>
        </mask>
        <path d="M51.496 94.417c-4.38-.09-8.484-3.105-17.421-3.518-.13-.584-.286-1.112-.485-1.544-1.617-3.502-3.9-13.593-2.434-20.222l1.16-5.245c.38-1.722.573-3.48.573-5.242a10.655 10.655 0 0 0-1.05-4.611c-.15-.31-.313-.612-.49-.904a10.696 10.696 0 0 0-3.582-3.581 10.578 10.578 0 0 0-5.515-1.54h-1.744a10.603 10.603 0 0 0-8.208 3.87c-.394.477-.744.992-1.052 1.534a9.918 9.918 0 0 0-.541 1.092 10.54 10.54 0 0 0-.781 3.053c-.036.357-.055.72-.055 1.087 0 .733.297 1.396.776 1.875.48.48 1.143.777 1.875.777h10.89l-1.647 9.452c-1.935 9.71-1.354 16.204.145 20.532.334.965 2.236 4.386 2.236 4.386C18.7 104.26 10.35 108.017 1.42 109.106c-7.591.927-23.98-5.995-15.53-14.002 8.45-8.01-1.76-3.03-3.263-2.016-1.503 1.014-10.193 8.522-.762 19.539 3.988 4.658 8.506 8.894 19.375 12.14 1.743.52 11.255 1.213 16.375 2.682 15.246 4.376 27.64-.382 34.586-10.446 6.917-10.023 1.023-22.551-.706-22.586z" stroke="#52267D" stroke-width="2" mask="url(#n)"/>
      </g>
      <g transform="translate(88 57.789)">
        <mask id="p" fill="#fff">
          <use xlink:href="#o"/>
        </mask>
        <path d="M42.037 79.946c-.35-11.26 8.587-20.109 18.743-21.979 2.109-.388 2.795-1.05 5.102-1.05h1.766c5.952 0 10.777 4.824 10.777 10.776a2.688 2.688 0 0 1-2.687 2.687s-18.12-.006-18.204-.014l-1.477.002c.002.002 1.479.003 1.48.005-4.006 1.7-6.5 6.821-6.94 9.573-.625 3.918-.167 7.15 1.169 9.764.89 1.742.992 3.84.855 5.538l-.104.036c-.062.907-.21 1.94-.48 3.12-1.706-1.189-4.36-2.979-4.845-3.234-1.047-.553-3.41-1.81-4.468-2.417-6.758-3.875-.49-6.403-.687-12.807" fill="#9452BA" mask="url(#p)"/>
      </g>
      <g transform="translate(88 57.789)">
        <mask id="r" fill="#fff">
          <use xlink:href="#q"/>
        </mask>
        <path d="M42.037 79.946c-.35-11.26 8.587-20.109 18.743-21.979 2.109-.388 2.795-1.05 5.102-1.05h1.766c5.952 0 10.777 4.824 10.777 10.776a2.688 2.688 0 0 1-2.687 2.687s-18.12-.006-18.204-.014l-1.477.002c.002.002 1.479.003 1.48.005-4.006 1.7-6.5 6.821-6.94 9.573-.625 3.918-.167 7.15 1.169 9.764.89 1.742.992 3.84.855 5.538l-.104.036c-.062.907-.21 1.94-.48 3.12-1.706-1.189-4.36-2.979-4.845-3.234-1.047-.553-3.41-1.81-4.468-2.417-6.758-3.875-.49-6.403-.687-12.807z" stroke="#52267D" stroke-width="2" mask="url(#r)"/>
      </g>
      <g transform="translate(88 57.789)">
        <mask id="t" fill="#fff">
          <use xlink:href="#s"/>
        </mask>
        <path d="M47.807 92.956c.09-1.738.354-2.631.16-3.34-1.123-4.072-1.488-5.358-1.488-9.67 0-4.286 2.482-8.52 6.147-10.773.202-.124 2.84-.31 4.911 1.2-4.006 1.7-6.5 6.82-6.94 9.573-.626 3.918-.167 7.15 1.17 9.765.89 1.74.991 3.839.853 5.537 0 0-4.916 1.846-4.813-2.292" fill="#F3E3FF" mask="url(#t)"/>
        <path d="M47.807 92.956c.09-1.738.354-2.631.16-3.34-1.123-4.072-1.488-5.358-1.488-9.67 0-4.286 2.482-8.52 6.147-10.773.202-.124 2.84-.31 4.911 1.2-4.006 1.7-6.5 6.82-6.94 9.573-.626 3.918-.167 7.15 1.17 9.765.89 1.74.991 3.839.853 5.537 0 0-4.916 1.846-4.813-2.292" stroke="#52267D" mask="url(#t)"/>
      </g>
      <g transform="translate(88 57.789)">
        <mask id="v" fill="#fff">
          <use xlink:href="#u"/>
        </mask>
        <path d="M73.303 58.748s.004-1.882-1.866-2.63c-.57-.228-1.613-.652-1.613-.652s-1.114 2.355.148 2.949c1.816.854 3.331.333 3.331.333" fill="#FFF" mask="url(#v)"/>
      </g>
      <g transform="translate(88 57.789)">
        <mask id="x" fill="#fff">
          <use xlink:href="#w"/>
        </mask>
        <path d="M73.303 58.748s.004-1.882-1.866-2.63c-.57-.228-1.613-.652-1.613-.652s-1.114 2.355.148 2.949c1.816.854 3.331.333 3.331.333z" stroke="#52267D" mask="url(#x)"/>
      </g>
      <g transform="translate(88 57.789)">
        <mask id="z" fill="#fff">
          <use xlink:href="#y"/>
        </mask>
        <path d="M68.622 57.425s-.054-2.564-2.938-2.938c-.54-.07-1.942-.037-1.942-.037s-.648 2.714.873 2.975c1.87.32 4.007 0 4.007 0" fill="#FFF" mask="url(#z)"/>
      </g>
      <g transform="translate(88 57.789)">
        <mask id="B" fill="#fff">
          <use xlink:href="#A"/>
        </mask>
        <path d="M68.622 57.425s-.054-2.564-2.938-2.938c-.54-.07-1.942-.037-1.942-.037s-.648 2.714.873 2.975c1.87.32 4.007 0 4.007 0z" stroke="#52267D" mask="url(#B)"/>
      </g>
      <g transform="translate(88 57.789)">
        <mask id="D" fill="#fff">
          <use xlink:href="#C"/>
        </mask>
        <path d="M62.885 57.67s-.38-2.844-2.935-2.063c-1.09.334-1.697 1.164-1.697 1.164s.508 2.166 1.525 1.922c1.774-.424 3.107-1.023 3.107-1.023" fill="#FFF" mask="url(#D)"/>
      </g>
      <g transform="translate(88 57.789)">
        <mask id="F" fill="#fff">
          <use xlink:href="#E"/>
        </mask>
        <path d="M62.885 57.67s-.38-2.844-2.935-2.063c-1.09.334-1.697 1.164-1.697 1.164s.508 2.166 1.525 1.922c1.774-.424 3.107-1.023 3.107-1.023z" stroke="#52267D" mask="url(#F)"/>
      </g>
      <g transform="translate(88 57.789)">
        <mask id="H" fill="#fff">
          <use xlink:href="#G"/>
        </mask>
        <path d="M55.466 71.475s-5.955-3.237-4.822-8.687c-.79.652-2.906 2.64-3.672 3.656 0 1.065-.195 5.302 5.653 8.138 1.03-1.067 1.895-2.397 2.841-3.107" fill="#FFF" mask="url(#H)"/>
      </g>
      <g transform="translate(88 57.789)">
        <mask id="J" fill="#fff">
          <use xlink:href="#I"/>
        </mask>
        <path d="M55.466 71.475s-5.955-3.237-4.822-8.687c-.79.652-2.906 2.64-3.672 3.656 0 1.065-.195 5.302 5.653 8.138 1.03-1.067 1.895-2.397 2.841-3.107z" stroke="#52267D" mask="url(#J)"/>
      </g>
      <g transform="translate(88 57.789)">
        <mask id="L" fill="#fff">
          <use xlink:href="#K"/>
        </mask>
        <path d="M72.492 58.23s.002-.975-.966-1.36l-.834-.339s-.577 1.22.076 1.526c.94.443 1.724.172 1.724.172" fill="#F3E3FF" mask="url(#L)"/>
      </g>
      <g transform="translate(88 57.789)">
        <mask id="N" fill="#fff">
          <use xlink:href="#M"/>
        </mask>
        <path d="M67.39 56.845s-.027-1.308-1.498-1.498c-.274-.036-.99-.02-.99-.02s-.33 1.385.445 1.518c.953.163 2.043 0 2.043 0" fill="#F3E3FF" mask="url(#N)"/>
      </g>
      <g transform="translate(88 57.789)">
        <mask id="P" fill="#fff">
          <use xlink:href="#O"/>
        </mask>
        <path d="M61.966 57.465s-.2-1.51-1.557-1.094c-.579.177-.9.617-.9.617s.27 1.15.81 1.02a10.408 10.408 0 0 0 1.647-.543" fill="#F3E3FF" mask="url(#P)"/>
      </g>
      <g transform="translate(88 57.789)">
        <mask id="R" fill="#fff">
          <use xlink:href="#Q"/>
        </mask>
        <path d="M63.498 68.575h5.446a4.966 4.966 0 0 0-4.968-4.966h-.478a2.483 2.483 0 0 0 0 4.966" fill="#F3E3FF" mask="url(#R)"/>
      </g>
      <g transform="translate(88 57.789)">
        <mask id="T" fill="#fff">
          <use xlink:href="#S"/>
        </mask>
        <path d="M63.956 68.482h4.894a3.902 3.902 0 0 0-3.902-3.9h-.991a1.95 1.95 0 1 0 0 3.9" fill="#FFF" mask="url(#T)"/>
      </g>
      <g transform="translate(88 57.789)">
        <mask id="V" fill="#fff">
          <use xlink:href="#U"/>
        </mask>
        <path d="M63.956 68.482h4.894a3.902 3.902 0 0 0-3.902-3.9h-.991a1.95 1.95 0 1 0 0 3.9z" stroke="#52267D" mask="url(#V)"/>
      </g>
      <g transform="translate(88 57.789)">
        <mask id="X" fill="#fff">
          <use xlink:href="#W"/>
        </mask>
        <path d="M67.963 66.417a1.088 1.088 0 1 1-2.179 0 1.09 1.09 0 1 1 2.18 0" fill="#52267D" mask="url(#X)"/>
      </g>
      <g transform="translate(88 57.789)">
        <mask id="Z" fill="#fff">
          <use xlink:href="#Y"/>
        </mask>
        <path d="M75.987 69.56a1.362 1.362 0 0 1-.783-.485l-.365-.46.813.174.479.103a.34.34 0 1 1-.144.668" fill="#52267D" mask="url(#Z)"/>
      </g>
      <g transform="translate(88 57.789)">
        <mask id="ab" fill="#fff">
          <use xlink:href="#aa"/>
        </mask>
        <path d="M54.46 71.583s-4.588-2.471-4.518-7.446c-1.97 1.436-2.505 2.364-2.505 2.364s.343 2.369 1.447 3.564c1.694 1.835 3.46 2.4 5.576 1.518" fill="#E1F2FF" mask="url(#ab)"/>
      </g>
      <g transform="translate(88 57.789)">
        <mask id="ad" fill="#fff">
          <use xlink:href="#ac"/>
        </mask>
        <path d="M50.117 70.709s1.81 1.84 3.574 2.723" fill="#FFF" mask="url(#ad)"/>
        <path d="M50.117 70.709s1.81 1.84 3.574 2.723" stroke="#52267D" mask="url(#ad)"/>
      </g>
      <g transform="translate(88 57.789)">
        <mask id="af" fill="#fff">
          <use xlink:href="#ae"/>
        </mask>
        <path d="M32.126 90.056l1.022-2.016c3.817-9.38 4.405-14.89 2.425-23.844l-1.16-5.245a24.306 24.306 0 0 1-.571-5.242c0-5.875 4.763-10.636 10.636-10.636h1.718c5.794 0 10.492 4.697 10.492 10.492v.3a2.497 2.497 0 0 1-2.498 2.496H43.318l1.648 9.453c5.047 25.33 4.541 35.6-5.39 33.49" fill="#9452BA" mask="url(#af)"/>
        <path d="M32.126 90.056l1.022-2.016c3.817-9.38 4.405-14.89 2.425-23.844l-1.16-5.245a24.306 24.306 0 0 1-.571-5.242c0-5.875 4.763-10.636 10.636-10.636h1.718c5.794 0 10.492 4.697 10.492 10.492v.3a2.497 2.497 0 0 1-2.498 2.496H43.318l1.648 9.453c5.047 25.33 4.541 35.6-5.39 33.49" stroke="#52267D" stroke-width="2" mask="url(#af)"/>
      </g>
      <g transform="translate(88 57.789)">
        <mask id="ah" fill="#fff">
          <use xlink:href="#ag"/>
        </mask>
        <path d="M51.445 44.332s-.175-1.844-2.007-2.576c-.56-.224-1.434.013-1.434.013s-1.058 1.655.178 2.237c1.78.838 3.263.326 3.263.326" fill="#FFF" mask="url(#ah)"/>
      </g>
      <g transform="translate(88 57.789)">
        <mask id="aj" fill="#fff">
          <use xlink:href="#ai"/>
        </mask>
        <path d="M51.445 44.332s-.175-1.844-2.007-2.576c-.56-.224-1.434.013-1.434.013s-1.058 1.655.178 2.237c1.78.838 3.263.326 3.263.326z" stroke="#52267D" mask="url(#aj)"/>
      </g>
      <g transform="translate(88 57.789)">
        <mask id="al" fill="#fff">
          <use xlink:href="#ak"/>
        </mask>
        <path d="M47.083 43.724s-.061-2.904-3.328-3.328c-.61-.078-1.392-.02-1.392-.02s-1.54 3.053.182 3.348c2.117.363 4.538 0 4.538 0" fill="#FFF" mask="url(#al)"/>
      </g>
      <g transform="translate(88 57.789)">
        <mask id="an" fill="#fff">
          <use xlink:href="#am"/>
        </mask>
        <path d="M47.083 43.724s-.061-2.904-3.328-3.328c-.61-.078-1.392-.02-1.392-.02s-1.54 3.053.182 3.348c2.117.363 4.538 0 4.538 0z" stroke="#52267D" mask="url(#an)"/>
      </g>
      <g transform="translate(88 57.789)">
        <mask id="ap" fill="#fff">
          <use xlink:href="#ao"/>
        </mask>
        <path d="M41.238 44.384s-.443-2.775-2.926-1.946a3.503 3.503 0 0 0-1.634 1.18s.553 2.11 1.542 1.846c1.727-.461 3.018-1.08 3.018-1.08" fill="#FFF" mask="url(#ap)"/>
      </g>
      <g transform="translate(88 57.789)">
        <mask id="ar" fill="#fff">
          <use xlink:href="#aq"/>
        </mask>
        <path d="M41.238 44.384s-.443-2.775-2.926-1.946a3.503 3.503 0 0 0-1.634 1.18s.553 2.11 1.542 1.846c1.727-.461 3.018-1.08 3.018-1.08z" stroke="#52267D" mask="url(#ar)"/>
      </g>
      <g transform="translate(88 57.789)">
        <mask id="at" fill="#fff">
          <use xlink:href="#as"/>
        </mask>
        <path d="M51.267 94.08a4.912 4.912 0 0 0-1.787-.86" fill="#F3E3FF" mask="url(#at)"/>
        <path d="M51.267 94.08a4.912 4.912 0 0 0-1.787-.86" stroke="#52267D" mask="url(#at)"/>
      </g>
      <g transform="translate(88 57.789)">
        <mask id="av" fill="#fff">
          <use xlink:href="#au"/>
        </mask>
        <path d="M47.666 94.023c1.778-7.222-1.428-21.029-2.018-24.428L43.313 55.98H42.29c-1.295 0-2.276 1.41-2.093 2.694l1.692 11.81c.572 4 1.168 22.514-5.78 26.491-1.483.85-3.892.292-4.8-.14-3.303-1.579-4.252-5.697-4.976-9.016-1.497-6.869-.33-12.263 0-17.648l.35-6.736c.061-1.218-.907-2.51-2.123-2.51h-1.242L21.08 74.54c-.672 3.878-2.402 17.322 5.52 23.626.143.114-1.927.577-1.328 1.637 2.384 4.212 9.29 4.878 10.588 6.682 5.008 6.944.319 21.74.319 21.74s5.556-2.218 8.998-5.303c8.047-7.21 9.069-17.658 9.105-20.733.045-3.679-.922-5.96-2.11-7.322" fill="#F3E3FF" mask="url(#av)"/>
        <path d="M47.666 94.023c1.778-7.222-1.428-21.029-2.018-24.428L43.313 55.98H42.29c-1.295 0-2.276 1.41-2.093 2.694l1.692 11.81c.572 4 1.168 22.514-5.78 26.491-1.483.85-3.892.292-4.8-.14-3.303-1.579-4.252-5.697-4.976-9.016-1.497-6.869-.33-12.263 0-17.648l.35-6.736c.061-1.218-.907-2.51-2.123-2.51h-1.242L21.08 74.54c-.672 3.878-2.402 17.322 5.52 23.626.143.114-1.927.577-1.328 1.637 2.384 4.212 9.29 4.878 10.588 6.682 5.008 6.944.319 21.74.319 21.74s5.556-2.218 8.998-5.303c8.047-7.21 9.069-17.658 9.105-20.733.045-3.679-.922-5.96-2.11-7.322" stroke="#52267D" mask="url(#av)"/>
      </g>
      <g transform="translate(88 57.789)">
        <mask id="ax" fill="#fff">
          <use xlink:href="#aw"/>
        </mask>
        <path d="M-17.648 100.048s-1.143-1.267-.5-2.966c.196-.52.902-.966.902-.966s1.783.312 1.408 1.514c-.539 1.73-1.81 2.418-1.81 2.418" fill="#FFF" mask="url(#ax)"/>
      </g>
      <g transform="translate(88 57.789)">
        <mask id="az" fill="#fff">
          <use xlink:href="#ay"/>
        </mask>
        <path d="M-17.648 100.048s-1.143-1.267-.5-2.966c.196-.52.902-.966.902-.966s1.783.312 1.408 1.514c-.539 1.73-1.81 2.418-1.81 2.418z" stroke="#52267D" mask="url(#az)"/>
      </g>
      <g transform="translate(88 57.789)">
        <mask id="aB" fill="#fff">
          <use xlink:href="#aA"/>
        </mask>
        <path d="M-17.27 98.288s-.4-.443-.175-1.04c.069-.182.317-.34.317-.34s.625.11.493.532c-.19.607-.634.848-.634.848" fill="#F3E3FF" mask="url(#aB)"/>
      </g>
      <g transform="translate(88 57.789)">
        <mask id="aD" fill="#fff">
          <use xlink:href="#aC"/>
        </mask>
        <path d="M-8.288 109.116s1.086-2.478-1.508-4.113c-.483-.306-1.168-.562-1.168-.562s-2.496 1.975-1.156 2.899c1.646 1.134 3.832 1.776 3.832 1.776" fill="#FFF" mask="url(#aD)"/>
      </g>
      <g transform="translate(88 57.789)">
        <mask id="aF" fill="#fff">
          <use xlink:href="#aE"/>
        </mask>
        <path d="M-8.288 109.116s1.086-2.478-1.508-4.113c-.483-.306-1.168-.562-1.168-.562s-2.496 1.975-1.156 2.899c1.646 1.134 3.832 1.776 3.832 1.776z" stroke="#52267D" mask="url(#aF)"/>
      </g>
      <g transform="translate(88 57.789)">
        <mask id="aH" fill="#fff">
          <use xlink:href="#aG"/>
        </mask>
        <path d="M-9.19 108.183s.601-1.373-.838-2.28c-.267-.17-.647-.312-.647-.312s-1.384 1.095-.642 1.608c.913.63 2.126.984 2.126.984" fill="#F3E3FF" mask="url(#aH)"/>
      </g>
      <g transform="translate(88 57.789)">
        <mask id="aJ" fill="#fff">
          <use xlink:href="#aI"/>
        </mask>
        <path d="M-16.206 101.004s-1.88 1.65-.076 3.128c.77.63 1.665.669 1.665.669s1.326-1.417.657-2.037a17.041 17.041 0 0 0-2.246-1.76" fill="#FFF" mask="url(#aJ)"/>
      </g>
      <g transform="translate(88 57.789)">
        <mask id="aL" fill="#fff">
          <use xlink:href="#aK"/>
        </mask>
        <path d="M-16.206 101.004s-1.88 1.65-.076 3.128c.77.63 1.665.669 1.665.669s1.326-1.417.657-2.037a17.041 17.041 0 0 0-2.246-1.76z" stroke="#52267D" mask="url(#aL)"/>
      </g>
      <g transform="translate(88 57.789)">
        <mask id="aN" fill="#fff">
          <use xlink:href="#aM"/>
        </mask>
        <path d="M-15.932 102.174s-.832.732-.033 1.386c.34.279.737.297.737.297s.587-.628.29-.903c-.515-.48-.994-.78-.994-.78" fill="#F3E3FF" mask="url(#aN)"/>
      </g>
      <g transform="translate(88 57.789)">
        <mask id="aP" fill="#fff">
          <use xlink:href="#aO"/>
        </mask>
        <path d="M.735 110.418s.619-2.204-1.807-3.08c-2.426-.875-3.08-.147-3.08-.147s-1.341 2.259-.141 2.987c1.199.726 5.028.24 5.028.24" fill="#FFF" mask="url(#aP)"/>
      </g>
      <g transform="translate(88 57.789)">
        <mask id="aR" fill="#fff">
          <use xlink:href="#aQ"/>
        </mask>
        <path d="M.735 110.418s.619-2.204-1.807-3.08c-2.426-.875-3.08-.147-3.08-.147s-1.341 2.259-.141 2.987c1.199.726 5.028.24 5.028.24z" stroke="#52267D" mask="url(#aR)"/>
      </g>
      <g transform="translate(88 57.789)">
        <mask id="aT" fill="#fff">
          <use xlink:href="#aS"/>
        </mask>
        <path d="M-.404 109.918s.322-1.146-.94-1.602c-1.262-.456-1.6-.077-1.6-.077s-.699 1.175-.075 1.553c.624.379 2.615.126 2.615.126" fill="#F3E3FF" mask="url(#aT)"/>
      </g>
      <g transform="translate(88 57.789)">
        <mask id="aV" fill="#fff">
          <use xlink:href="#aU"/>
        </mask>
        <path d="M43.843 59.3s-3.873 2.19-9.318.214a3176.75 3176.75 0 0 0 1.134 5.084s5.045 1.547 8.937-.902c-.399-2.241-.753-4.395-.753-4.395" fill="#FFF" mask="url(#aV)"/>
      </g>
      <g transform="translate(88 57.789)">
        <mask id="aX" fill="#fff">
          <use xlink:href="#aW"/>
        </mask>
        <path d="M43.843 59.3s-3.873 2.19-9.318.214a3176.75 3176.75 0 0 0 1.134 5.084s5.045 1.547 8.937-.902c-.399-2.241-.753-4.395-.753-4.395z" stroke="#52267D" mask="url(#aX)"/>
      </g>
      <g transform="translate(88 57.789)">
        <mask id="aZ" fill="#fff">
          <use xlink:href="#aY"/>
        </mask>
        <path d="M14.864 49.459s.177-1.857 2.022-2.596c.563-.225 2.083-.286 2.083-.286s.428 1.968-.817 2.554c-1.793.844-3.288.328-3.288.328" fill="#FFF" mask="url(#aZ)"/>
      </g>
      <g transform="translate(88 57.789)">
        <mask id="bb" fill="#fff">
          <use xlink:href="#ba"/>
        </mask>
        <path d="M14.864 49.459s.177-1.857 2.022-2.596c.563-.225 2.083-.286 2.083-.286s.428 1.968-.817 2.554c-1.793.844-3.288.328-3.288.328z" stroke="#52267D" mask="url(#bb)"/>
      </g>
      <g transform="translate(88 57.789)">
        <mask id="bd" fill="#fff">
          <use xlink:href="#bc"/>
        </mask>
        <path d="M19.546 48.51s.053-2.53 2.9-2.9c.532-.068 1.213-.016 1.213-.016s1.344 2.659-.158 2.917c-1.846.316-3.955 0-3.955 0" fill="#FFF" mask="url(#bd)"/>
      </g>
      <g transform="translate(88 57.789)">
        <mask id="bf" fill="#fff">
          <use xlink:href="#be"/>
        </mask>
        <path d="M19.546 48.51s.053-2.53 2.9-2.9c.532-.068 1.213-.016 1.213-.016s1.344 2.659-.158 2.917c-1.846.316-3.955 0-3.955 0z" stroke="#52267D" mask="url(#bf)"/>
      </g>
      <g transform="translate(88 57.789)">
        <mask id="bh" fill="#fff">
          <use xlink:href="#bg"/>
        </mask>
        <path d="M24.94 48.694s.447-2.797 2.948-1.96c1.069.356 1.646 1.19 1.646 1.19s-.556 2.124-1.553 1.858c-1.74-.464-3.04-1.088-3.04-1.088" fill="#FFF" mask="url(#bh)"/>
      </g>
      <g transform="translate(88 57.789)">
        <mask id="bj" fill="#fff">
          <use xlink:href="#bi"/>
        </mask>
        <path d="M24.94 48.694s.447-2.797 2.948-1.96c1.069.356 1.646 1.19 1.646 1.19s-.556 2.124-1.553 1.858c-1.74-.464-3.04-1.088-3.04-1.088z" stroke="#52267D" mask="url(#bj)"/>
      </g>
      <g transform="translate(88 57.789)">
        <mask id="bl" fill="#fff">
          <use xlink:href="#bk"/>
        </mask>
        <path d="M50.485 43.865s-.093-.984-1.071-1.376c-.3-.119-.767.008-.767.008s-.565.884.096 1.194c.95.447 1.742.174 1.742.174" fill="#F3E3FF" mask="url(#bl)"/>
      </g>
      <g transform="translate(88 57.789)">
        <mask id="bn" fill="#fff">
          <use xlink:href="#bm"/>
        </mask>
        <path d="M46.007 43.235s-.038-1.82-2.086-2.086c-.382-.05-.873-.012-.873-.012s-.966 1.913.114 2.098c1.327.228 2.845 0 2.845 0" fill="#F3E3FF" mask="url(#bn)"/>
      </g>
      <g transform="translate(88 57.789)">
        <mask id="bp" fill="#fff">
          <use xlink:href="#bo"/>
        </mask>
        <path d="M40.16 44.104s-.256-1.602-1.688-1.123c-.613.205-.944.683-.944.683s.319 1.215.89 1.064c.997-.267 1.742-.624 1.742-.624" fill="#F3E3FF" mask="url(#bp)"/>
      </g>
      <g transform="translate(88 57.789)">
        <mask id="br" fill="#fff">
          <use xlink:href="#bq"/>
        </mask>
        <path d="M15.78 48.984s.094-.98 1.069-1.372c.298-.119 1.102-.15 1.102-.15s.226 1.04-.432 1.348c-.948.446-1.738.174-1.738.174" fill="#F3E3FF" mask="url(#br)"/>
      </g>
      <g transform="translate(88 57.789)">
        <mask id="bt" fill="#fff">
          <use xlink:href="#bs"/>
        </mask>
        <path d="M20.652 48.064s.029-1.399 1.604-1.604c.293-.038.67-.008.67-.008s.743 1.47-.087 1.612c-1.021.175-2.187 0-2.187 0" fill="#F3E3FF" mask="url(#bt)"/>
      </g>
      <g transform="translate(88 57.789)">
        <mask id="bv" fill="#fff">
          <use xlink:href="#bu"/>
        </mask>
        <path d="M25.936 48.504s.244-1.53 1.612-1.072c.585.194.901.65.901.65s-.304 1.163-.85 1.018c-.952-.254-1.663-.596-1.663-.596" fill="#F3E3FF" mask="url(#bv)"/>
      </g>
      <g transform="translate(88 57.789)">
        <mask id="bx" fill="#fff">
          <use xlink:href="#bw"/>
        </mask>
        <path d="M32.269 64.097s-4.796.747-9.357-.372c-.446 2.479-.731 4.35-.731 4.35s3.164 2.148 9.009.903c.689-3.184 1.079-4.881 1.079-4.881" fill="#FFF" mask="url(#bx)"/>
      </g>
      <g transform="translate(88 57.789)">
        <mask id="bz" fill="#fff">
          <use xlink:href="#by"/>
        </mask>
        <path d="M32.269 64.097s-4.796.747-9.357-.372c-.446 2.479-.731 4.35-.731 4.35s3.164 2.148 9.009.903c.689-3.184 1.079-4.881 1.079-4.881z" stroke="#52267D" mask="url(#bz)"/>
      </g>
      <g transform="translate(88 57.789)">
        <mask id="bB" fill="#fff">
          <use xlink:href="#bA"/>
        </mask>
        <path d="M24.336 59.28h-5.445a4.966 4.966 0 0 1 4.966-4.968h.48a2.484 2.484 0 0 1 0 4.967" fill="#F3E3FF" mask="url(#bB)"/>
      </g>
      <g transform="translate(88 57.789)">
        <mask id="bD" fill="#fff">
          <use xlink:href="#bC"/>
        </mask>
        <path d="M23.74 59.185h-4.755a3.901 3.901 0 0 1 3.9-3.9h1.13c1.002 0 1.814.81 1.814 1.811a2.09 2.09 0 0 1-2.09 2.09" fill="#FFF" mask="url(#bD)"/>
      </g>
      <g transform="translate(88 57.789)">
        <mask id="bF" fill="#fff">
          <use xlink:href="#bE"/>
        </mask>
        <path d="M23.74 59.185h-4.755a3.901 3.901 0 0 1 3.9-3.9h1.13c1.002 0 1.814.81 1.814 1.811a2.09 2.09 0 0 1-2.09 2.09z" stroke="#52267D" mask="url(#bF)"/>
      </g>
      <g transform="translate(88 57.789)">
        <mask id="bH" fill="#fff">
          <use xlink:href="#bG"/>
        </mask>
        <path d="M21.738 58.272a1.09 1.09 0 1 0-1.96-.952 1.09 1.09 0 0 0 1.96.952" fill="#52267D" mask="url(#bH)"/>
      </g>
      <g transform="translate(88 57.789)">
        <mask id="bJ" fill="#fff">
          <use xlink:href="#bI"/>
        </mask>
        <path d="M43.18 54.57h5.444a4.966 4.966 0 0 0-4.966-4.966h-.479a2.484 2.484 0 0 0 0 4.966" fill="#F3E3FF" mask="url(#bJ)"/>
      </g>
      <g transform="translate(88 57.789)">
        <mask id="bL" fill="#fff">
          <use xlink:href="#bK"/>
        </mask>
        <path d="M43.638 54.477h4.893a3.901 3.901 0 0 0-3.902-3.9h-.992a1.95 1.95 0 1 0 .001 3.9" fill="#FFF" mask="url(#bL)"/>
      </g>
      <g transform="translate(88 57.789)">
        <mask id="bN" fill="#fff">
          <use xlink:href="#bM"/>
        </mask>
        <path d="M43.638 54.477h4.893a3.901 3.901 0 0 0-3.902-3.9h-.992a1.95 1.95 0 1 0 .001 3.9z" stroke="#52267D" mask="url(#bN)"/>
      </g>
      <g transform="translate(88 57.789)">
        <mask id="bP" fill="#fff">
          <use xlink:href="#bO"/>
        </mask>
        <path d="M47.153 53.364a1.09 1.09 0 1 1-1.394-1.675 1.09 1.09 0 0 1 1.394 1.675" fill="#52267D" mask="url(#bP)"/>
      </g>
      <g transform="translate(88 57.789)">
        <mask id="bR" fill="#fff">
          <use xlink:href="#bQ"/>
        </mask>
        <path d="M12.33 60.412c.31-.066.588-.238.784-.486l.365-.46-.812.175-.48.103a.341.341 0 1 0 .144.668" fill="#52267D" mask="url(#bR)"/>
      </g>
      <g transform="translate(88 57.789)">
        <mask id="bT" fill="#fff">
          <use xlink:href="#bS"/>
        </mask>
        <path d="M54.336 55.316a1.364 1.364 0 0 1-.784-.486l-.365-.46.813.175.48.102a.342.342 0 0 1-.144.67" fill="#52267D" mask="url(#bT)"/>
      </g>
      <g transform="translate(88 57.789)">
        <mask id="bV" fill="#fff">
          <use xlink:href="#bU"/>
        </mask>
        <path d="M43.378 60.008s-4.059 1.729-8.15.148c.427 2.402.81 3.627.81 3.627s2.463.146 4.094-.175c2.33-.46 3.246-1.518 3.246-3.6" fill="#E1F2FF" mask="url(#bV)"/>
      </g>
      <g transform="translate(88 57.789)">
        <mask id="bX" fill="#fff">
          <use xlink:href="#bW"/>
        </mask>
        <path d="M37.732 63.086s3.693.309 6.552-1.174" fill="#FFF" mask="url(#bX)"/>
        <path d="M37.732 63.086s3.693.309 6.552-1.174" stroke="#52267D" mask="url(#bX)"/>
      </g>
      <g transform="translate(88 57.789)">
        <mask id="bZ" fill="#fff">
          <use xlink:href="#bY"/>
        </mask>
        <path d="M24.669 64.638s3.6 1.022 6.776.388c-.6 2.365-.919 3.106-.919 3.106s-4.764-.636-5.857-3.495" fill="#E1F2FF" mask="url(#bZ)"/>
      </g>
      <g transform="translate(88 57.789)">
        <mask id="cb" fill="#fff">
          <use xlink:href="#ca"/>
        </mask>
        <path d="M26.6 98.217s.218.157.527.343" fill="#F3E3FF" mask="url(#cb)"/>
        <path d="M26.6 98.217s.218.157.527.343" stroke="#52267D" stroke-width=".5" mask="url(#cb)"/>
      </g>
      <g transform="translate(88 57.789)">
        <mask id="cd" fill="#fff">
          <use xlink:href="#cc"/>
        </mask>
        <path d="M24.322 65.999s3.623.687 7.47.228" fill="#FFF" mask="url(#cd)"/>
        <path d="M24.322 65.999s3.623.687 7.47.228" stroke="#52267D" mask="url(#cd)"/>
      </g>
      <g transform="translate(88 57.789)">
        <mask id="cf" fill="#fff">
          <use xlink:href="#ce"/>
        </mask>
        <path d="M30.26 140.549s.961-.783 2.238.267c1.167.959 2.045 2.44 1.523 2.588a5.55 5.55 0 0 1-2.41.117c-.843-.155-1.586.008-1.924-1.753-.157-.821.573-1.22.573-1.22" fill="#FFF" mask="url(#cf)"/>
      </g>
      <g transform="translate(88 57.789)">
        <mask id="ch" fill="#fff">
          <use xlink:href="#cg"/>
        </mask>
        <path d="M30.26 140.549s.961-.783 2.238.267c1.167.959 2.045 2.44 1.523 2.588a5.55 5.55 0 0 1-2.41.117c-.843-.155-1.586.008-1.924-1.753-.157-.821.573-1.22.573-1.22z" stroke="#52267D" stroke-width=".5" mask="url(#ch)"/>
      </g>
      <g transform="translate(88 57.789)">
        <mask id="cj" fill="#fff">
          <use xlink:href="#ci"/>
        </mask>
        <path d="M30.479 140.835s.598-.487 1.394.165c.725.597 1.272 1.519.946 1.61a3.458 3.458 0 0 1-1.5.074c-.524-.096-.986.005-1.196-1.091-.098-.51.356-.758.356-.758" fill="#E1F2FF" mask="url(#cj)"/>
      </g>
      <g transform="translate(88 57.789)">
        <mask id="cl" fill="#fff">
          <use xlink:href="#ck"/>
        </mask>
        <path d="M28.896 140.532c-.508-.068-1.239 1.034-1.155 1.371.083.336.141 1.446.963 1.567.605.09 2.764.314 3.236-.156.435-.432-.417-2.43-3.044-2.782" fill="#FFF" mask="url(#cl)"/>
      </g>
      <g transform="translate(88 57.789)">
        <mask id="cn" fill="#fff">
          <use xlink:href="#cm"/>
        </mask>
        <path d="M28.896 140.532c-.508-.068-1.239 1.034-1.155 1.371.083.336.141 1.446.963 1.567.605.09 2.764.314 3.236-.156.435-.432-.417-2.43-3.044-2.782z" stroke="#52267D" stroke-width=".5" mask="url(#cn)"/>
      </g>
      <g transform="translate(88 57.789)">
        <mask id="cp" fill="#fff">
          <use xlink:href="#co"/>
        </mask>
        <path d="M28.753 140.838c-.3-.041-.73.61-.682.809.05.198.083.853.57.924.356.053 1.63.186 1.908-.091.257-.255-.245-1.435-1.796-1.642" fill="#E1F2FF" mask="url(#cp)"/>
      </g>
      <g transform="translate(88 57.789)">
        <mask id="cr" fill="#fff">
          <use xlink:href="#cq"/>
        </mask>
        <path d="M26.748 140.746s.438-.23 1.307.269c.767.438 1.913 1.139 1.61 2.012-.3.872-2.725.547-3.264.364-.54-.185-.877-.772-.782-1.286.208-1.12 1.129-1.36 1.129-1.36" fill="#FFF" mask="url(#cr)"/>
      </g>
      <g transform="translate(88 57.789)">
        <mask id="ct" fill="#fff">
          <use xlink:href="#cs"/>
        </mask>
        <path d="M26.748 140.746s.438-.23 1.307.269c.767.438 1.913 1.139 1.61 2.012-.3.872-2.725.547-3.264.364-.54-.185-.877-.772-.782-1.286.208-1.12 1.129-1.36 1.129-1.36z" stroke="#52267D" stroke-width=".5" mask="url(#ct)"/>
      </g>
      <g transform="translate(88 57.789)">
        <mask id="cv" fill="#fff">
          <use xlink:href="#cu"/>
        </mask>
        <path d="M26.582 141.054s.26-.135.774.16c.455.26 1.132.674.955 1.191-.178.517-1.614.325-1.933.215-.32-.108-.52-.457-.463-.76.123-.664.668-.806.668-.806" fill="#E1F2FF" mask="url(#cv)"/>
      </g>
      <g transform="translate(88 57.789)">
        <mask id="cx" fill="#fff">
          <use xlink:href="#cw"/>
        </mask>
        <path d="M36.885 112.933s-.494 5.617.935 14.447c1.33 8.22 3.686 10.798 3.512 12.93-.134 1.65-.83 3.161-2.486 3.161h-4.94a5.367 5.367 0 0 1-5.083-3.656c-.597-1.76-1.219-4.152-1.589-7.179-.38-4.116-.298-8.245-.23-10.669" fill="#9452BA" mask="url(#cx)"/>
        <path d="M36.885 112.933s-.494 5.617.935 14.447c1.33 8.22 3.686 10.798 3.512 12.93-.134 1.65-.83 3.161-2.486 3.161h-4.94a5.367 5.367 0 0 1-5.083-3.656c-.597-1.76-1.219-4.152-1.589-7.179-.38-4.116-.298-8.245-.23-10.669" stroke="#52267D" stroke-width="2" mask="url(#cx)"/>
      </g>
      <g transform="translate(88 57.789)">
        <mask id="cz" fill="#fff">
          <use xlink:href="#cy"/>
        </mask>
        <path d="M11.553 116.65c1.637 1.407 2.485 3.714 2.473 5.834-.018 2.83-1.66 6.432-.619 11.135.927 4.19 2.772 4.927 2.216 8.686-.099.68-.709 1.166-1.394 1.166H8.723a5.19 5.19 0 0 1-5.117-4.337c-1.107-6.674-.262-12.975.628-17.81" fill="#9452BA" mask="url(#cz)"/>
        <path d="M11.553 116.65c1.637 1.407 2.485 3.714 2.473 5.834-.018 2.83-1.66 6.432-.619 11.135.927 4.19 2.772 4.927 2.216 8.686-.099.68-.709 1.166-1.394 1.166H8.723a5.19 5.19 0 0 1-5.117-4.337c-1.107-6.674-.262-12.975.628-17.81" stroke="#52267D" stroke-width="2" mask="url(#cz)"/>
      </g>
      <g transform="translate(88 57.789)">
        <mask id="cB" fill="#fff">
          <use xlink:href="#cA"/>
        </mask>
        <path stroke="#52267D" stroke-width=".5" mask="url(#cB)" d="M10.472 122.886l-.324-.232-1.046.235 1.162.742 1.4-.69-1.455-1.161-.66.22"/>
      </g>
      <g transform="translate(88 57.789)">
        <mask id="cD" fill="#fff">
          <use xlink:href="#cC"/>
        </mask>
        <path d="M40.253 140.549s.962-.783 2.24.267c1.166.959 2.044 2.44 1.521 2.588a5.548 5.548 0 0 1-2.41.117c-.842-.155-1.586.008-1.923-1.753-.157-.821.572-1.22.572-1.22" fill="#FFF" mask="url(#cD)"/>
      </g>
      <g transform="translate(88 57.789)">
        <mask id="cF" fill="#fff">
          <use xlink:href="#cE"/>
        </mask>
        <path d="M40.253 140.549s.962-.783 2.24.267c1.166.959 2.044 2.44 1.521 2.588a5.548 5.548 0 0 1-2.41.117c-.842-.155-1.586.008-1.923-1.753-.157-.821.572-1.22.572-1.22z" stroke="#52267D" mask="url(#cF)"/>
      </g>
      <g transform="translate(88 57.789)">
        <mask id="cH" fill="#fff">
          <use xlink:href="#cG"/>
        </mask>
        <path d="M40.473 140.835s.598-.487 1.393.165c.726.597 1.272 1.519.947 1.61a3.458 3.458 0 0 1-1.5.074c-.524-.096-.986.005-1.196-1.091-.099-.51.356-.758.356-.758" fill="#E1F2FF" mask="url(#cH)"/>
      </g>
      <g transform="translate(88 57.789)">
        <mask id="cJ" fill="#fff">
          <use xlink:href="#cI"/>
        </mask>
        <path stroke="#52267D" stroke-width=".5" mask="url(#cJ)" d="M32.697 125.99l1.969.614-.261 1.824-2.016.146-.94-1.085 1.209-.669.998.29-.635.705"/>
      </g>
      <g transform="translate(88 57.789)">
        <mask id="cL" fill="#fff">
          <use xlink:href="#cK"/>
        </mask>
        <path d="M74.867 65.959a.535.535 0 1 1-1.071 0" stroke="#F3E3FF" stroke-width=".25" mask="url(#cL)"/>
      </g>
      <g transform="translate(88 57.789)">
        <mask id="cN" fill="#fff">
          <use xlink:href="#cM"/>
        </mask>
        <path d="M75.939 65.959a.536.536 0 0 1-1.072 0" stroke="#F3E3FF" stroke-width=".25" mask="url(#cN)"/>
      </g>
      <g transform="translate(88 57.789)">
        <mask id="cP" fill="#fff">
          <use xlink:href="#cO"/>
        </mask>
        <path d="M75.403 66.495a.535.535 0 0 1-1.071 0" stroke="#F3E3FF" stroke-width=".25" mask="url(#cP)"/>
      </g>
      <g transform="translate(88 57.789)">
        <mask id="cR" fill="#fff">
          <use xlink:href="#cQ"/>
        </mask>
        <path d="M54.336 65.457a.79.79 0 0 1-.833-1.342" stroke="#F3E3FF" stroke-width=".25" mask="url(#cR)"/>
      </g>
      <g transform="translate(88 57.789)">
        <mask id="cT" fill="#fff">
          <use xlink:href="#cS"/>
        </mask>
        <path d="M54.083 66.544a.789.789 0 1 1-.834-1.341" stroke="#F3E3FF" stroke-width=".25" mask="url(#cT)"/>
      </g>
      <g transform="translate(88 57.789)">
        <mask id="cV" fill="#fff">
          <use xlink:href="#cU"/>
        </mask>
        <path d="M28.91 83.457a.719.719 0 0 1-1.437 0" stroke="#F3E3FF" stroke-width=".25" mask="url(#cV)"/>
      </g>
      <g transform="translate(88 57.789)">
        <mask id="cX" fill="#fff">
          <use xlink:href="#cW"/>
        </mask>
        <path d="M30.347 83.457a.719.719 0 0 1-1.437 0" stroke="#F3E3FF" stroke-width=".25" mask="url(#cX)"/>
      </g>
      <g transform="translate(88 57.789)">
        <mask id="cZ" fill="#fff">
          <use xlink:href="#cY"/>
        </mask>
        <path d="M29.628 84.176a.719.719 0 0 1-1.437 0" stroke="#F3E3FF" stroke-width=".25" mask="url(#cZ)"/>
      </g>
      <g transform="translate(88 57.789)">
        <mask id="db" fill="#fff">
          <use xlink:href="#da"/>
        </mask>
        <path d="M50.373 128.988a.72.72 0 0 1-1.436 0" stroke="#F3E3FF" stroke-width=".25" mask="url(#db)"/>
      </g>
      <g transform="translate(88 57.789)">
        <mask id="dd" fill="#fff">
          <use xlink:href="#dc"/>
        </mask>
        <path d="M51.811 128.988a.72.72 0 0 1-1.437 0" stroke="#F3E3FF" stroke-width=".25" mask="url(#dd)"/>
      </g>
      <g transform="translate(88 57.789)">
        <mask id="df" fill="#fff">
          <use xlink:href="#de"/>
        </mask>
        <path d="M51.092 129.707a.72.72 0 0 1-1.437 0" stroke="#F3E3FF" stroke-width=".25" mask="url(#df)"/>
      </g>
      <g transform="translate(88 57.789)">
        <mask id="dh" fill="#fff">
          <use xlink:href="#dg"/>
        </mask>
        <path d="M30.023 60.553a.79.79 0 0 1-1.58 0" stroke="#F3E3FF" stroke-width=".25" mask="url(#dh)"/>
      </g>
      <g transform="translate(88 57.789)">
        <mask id="dj" fill="#fff">
          <use xlink:href="#di"/>
        </mask>
        <path d="M30.812 61.342a.79.79 0 1 1-1.579 0" stroke="#F3E3FF" stroke-width=".25" mask="url(#dj)"/>
      </g>
      <g transform="translate(88 57.789)">
        <mask id="dl" fill="#fff">
          <use xlink:href="#dk"/>
        </mask>
        <path d="M40.117 74.499a.96.96 0 0 1-1.92 0" stroke="#F3E3FF" stroke-width=".25" mask="url(#dl)"/>
      </g>
      <g transform="translate(88 57.789)">
        <mask id="dn" fill="#fff">
          <use xlink:href="#dm"/>
        </mask>
        <path d="M41.076 75.459a.96.96 0 0 1-1.92 0" stroke="#F3E3FF" stroke-width=".25" mask="url(#dn)"/>
      </g>
      <g transform="translate(88 57.789)">
        <mask id="dp" fill="#fff">
          <use xlink:href="#do"/>
        </mask>
        <path d="M54.054 50.641a.643.643 0 0 1-1.283 0" stroke="#F3E3FF" stroke-width=".25" mask="url(#dp)"/>
      </g>
      <g transform="translate(88 57.789)">
        <mask id="dr" fill="#fff">
          <use xlink:href="#dq"/>
        </mask>
        <path d="M54.696 51.284a.642.642 0 0 1-1.283 0" stroke="#F3E3FF" stroke-width=".25" mask="url(#dr)"/>
      </g>
      <g transform="translate(88 57.789)">
        <mask id="dt" fill="#fff">
          <use xlink:href="#ds"/>
        </mask>
        <path d="M-6.35 115.347a.738.738 0 1 1-1.127-.956" stroke="#F3E3FF" stroke-width=".25" mask="url(#dt)"/>
      </g>
      <g transform="translate(88 57.789)">
        <mask id="dv" fill="#fff">
          <use xlink:href="#du"/>
        </mask>
        <path d="M-6.263 116.388a.74.74 0 0 1-1.128-.956" stroke="#F3E3FF" stroke-width=".25" mask="url(#dv)"/>
      </g>
      <g transform="translate(88 57.789)">
        <mask id="dx" fill="#fff">
          <use xlink:href="#dw"/>
        </mask>
        <path d="M23.019 105.145a.866.866 0 1 1-1.577-.72" stroke="#F3E3FF" stroke-width=".25" mask="url(#dx)"/>
      </g>
      <g transform="translate(88 57.789)">
        <mask id="dz" fill="#fff">
          <use xlink:href="#dy"/>
        </mask>
        <path d="M24.596 105.865a.867.867 0 1 1-1.577-.72" stroke="#F3E3FF" stroke-width=".25" mask="url(#dz)"/>
      </g>
      <g transform="translate(88 57.789)">
        <mask id="dB" fill="#fff">
          <use xlink:href="#dA"/>
        </mask>
        <path d="M23.448 106.294a.866.866 0 1 1-1.577-.72" stroke="#F3E3FF" stroke-width=".25" mask="url(#dB)"/>
      </g>
      <g transform="translate(88 57.789)">
        <mask id="dD" fill="#fff">
          <use xlink:href="#dC"/>
        </mask>
        <path d="M25.025 107.013a.867.867 0 1 1-1.577-.72" stroke="#F3E3FF" stroke-width=".25" mask="url(#dD)"/>
      </g>
      <g transform="translate(88 57.789)">
        <mask id="dF" fill="#fff">
          <use xlink:href="#dE"/>
        </mask>
        <path d="M22.3 106.722a.866.866 0 1 1-1.578-.72" stroke="#F3E3FF" stroke-width=".25" mask="url(#dF)"/>
      </g>
      <g transform="translate(88 57.789)">
        <mask id="dH" fill="#fff">
          <use xlink:href="#dG"/>
        </mask>
        <path d="M38.113 57.13a.875.875 0 0 1-1.75 0" stroke="#F3E3FF" stroke-width=".25" mask="url(#dH)"/>
      </g>
      <g transform="translate(88 57.789)">
        <mask id="dJ" fill="#fff">
          <use xlink:href="#dI"/>
        </mask>
        <path d="M38.416 90.181a.875.875 0 0 1-1.75 0" stroke="#F3E3FF" stroke-width=".25" mask="url(#dJ)"/>
      </g>
      <g transform="translate(88 57.789)">
        <mask id="dL" fill="#fff">
          <use xlink:href="#dK"/>
        </mask>
        <path d="M28.503 71.962a.663.663 0 0 1-1.325 0" stroke="#F3E3FF" stroke-width=".25" mask="url(#dL)"/>
      </g>
      <g transform="translate(88 57.789)">
        <mask id="dN" fill="#fff">
          <use xlink:href="#dM"/>
        </mask>
        <path d="M12.724 56.905a.498.498 0 0 1-.994 0" stroke="#F3E3FF" stroke-width=".25" mask="url(#dN)"/>
      </g>
      <g transform="translate(88 57.789)">
        <mask id="dP" fill="#fff">
          <use xlink:href="#dO"/>
        </mask>
        <path d="M8.587 130.006a.874.874 0 1 1-1.723-.3" stroke="#F3E3FF" stroke-width=".25" mask="url(#dP)"/>
      </g>
      <g transform="translate(88 57.789)">
        <mask id="dR" fill="#fff">
          <use xlink:href="#dQ"/>
        </mask>
        <path d="M32.748 136.448a.96.96 0 1 1-1.918 0" stroke="#F3E3FF" stroke-width=".25" mask="url(#dR)"/>
      </g>
      <g transform="translate(88 57.789)">
        <mask id="dT" fill="#fff">
          <use xlink:href="#dS"/>
        </mask>
        <path d="M33.709 137.408a.96.96 0 0 1-1.92 0" stroke="#F3E3FF" stroke-width=".25" mask="url(#dT)"/>
      </g>
      <g transform="translate(88 57.789)">
        <mask id="dV" fill="#fff">
          <use xlink:href="#dU"/>
        </mask>
        <path d="M38.89 140.532c-.509-.068-1.239 1.034-1.156 1.371.084.336.141 1.446.963 1.567.605.09 2.765.314 3.237-.156.435-.432-.417-2.43-3.044-2.782" fill="#FFF" mask="url(#dV)"/>
      </g>
      <g transform="translate(88 57.789)">
        <mask id="dX" fill="#fff">
          <use xlink:href="#dW"/>
        </mask>
        <path d="M38.89 140.532c-.509-.068-1.239 1.034-1.156 1.371.084.336.141 1.446.963 1.567.605.09 2.765.314 3.237-.156.435-.432-.417-2.43-3.044-2.782z" stroke="#52267D" mask="url(#dX)"/>
      </g>
      <g transform="translate(88 57.789)">
        <mask id="dZ" fill="#fff">
          <use xlink:href="#dY"/>
        </mask>
        <path d="M38.748 140.838c-.3-.041-.731.61-.682.809.049.198.083.853.569.924.356.053 1.63.186 1.909-.091.257-.255-.245-1.435-1.796-1.642" fill="#E1F2FF" mask="url(#dZ)"/>
      </g>
      <g transform="translate(88 57.789)">
        <mask id="eb" fill="#fff">
          <use xlink:href="#ea"/>
        </mask>
        <path d="M37.085 141.074s.388-.202 1.156.237c.68.388 1.692 1.01 1.425 1.781-.267.771-2.41.484-2.887.321-.477-.163-.776-.683-.692-1.137.184-.99.998-1.202.998-1.202" fill="#FFF" mask="url(#eb)"/>
      </g>
      <g transform="translate(88 57.789)">
        <mask id="ed" fill="#fff">
          <use xlink:href="#ec"/>
        </mask>
        <path d="M37.085 141.074s.388-.202 1.156.237c.68.388 1.692 1.01 1.425 1.781-.267.771-2.41.484-2.887.321-.477-.163-.776-.683-.692-1.137.184-.99.998-1.202.998-1.202z" stroke="#52267D" mask="url(#ed)"/>
      </g>
      <g transform="translate(88 57.789)">
        <mask id="ef" fill="#fff">
          <use xlink:href="#ee"/>
        </mask>
        <path d="M36.94 141.347s.229-.12.685.141c.4.23 1.002.596.843 1.054-.158.457-1.427.286-1.71.19-.282-.096-.46-.405-.41-.672.11-.588.592-.713.592-.713" fill="#E1F2FF" mask="url(#ef)"/>
      </g>
      <g transform="translate(88 57.789)">
        <mask id="eh" fill="#fff">
          <use xlink:href="#eg"/>
        </mask>
        <path d="M57.364 141.288s.389-.202 1.156.237c.679.388 1.692 1.009 1.425 1.78-.267.772-2.41.485-2.887.322-.476-.163-.776-.683-.691-1.137.184-.991.997-1.202.997-1.202" fill="#FFF" mask="url(#eh)"/>
      </g>
      <g transform="translate(88 57.789)">
        <mask id="ej" fill="#fff">
          <use xlink:href="#ei"/>
        </mask>
        <path d="M57.364 141.288s.389-.202 1.156.237c.679.388 1.692 1.009 1.425 1.78-.267.772-2.41.485-2.887.322-.476-.163-.776-.683-.691-1.137.184-.991.997-1.202.997-1.202z" stroke="#52267D" mask="url(#ej)"/>
      </g>
      <g transform="translate(88 57.789)">
        <mask id="el" fill="#fff">
          <use xlink:href="#ek"/>
        </mask>
        <path d="M57.218 141.561s.23-.12.685.141c.402.23 1.002.596.843 1.053-.157.457-1.426.287-1.709.191-.283-.097-.46-.405-.41-.673.11-.587.591-.712.591-.712" fill="#E1F2FF" mask="url(#el)"/>
      </g>
      <g transform="translate(88 57.789)">
        <mask id="en" fill="#fff">
          <use xlink:href="#em"/>
        </mask>
        <path d="M55.019 140.746c-.509-.068-1.239 1.034-1.156 1.37.084.337.141 1.447.963 1.568.606.089 2.765.314 3.237-.156.435-.432-.417-2.43-3.044-2.782" fill="#FFF" mask="url(#en)"/>
      </g>
      <g transform="translate(88 57.789)">
        <mask id="ep" fill="#fff">
          <use xlink:href="#eo"/>
        </mask>
        <path d="M55.019 140.746c-.509-.068-1.239 1.034-1.156 1.37.084.337.141 1.447.963 1.568.606.089 2.765.314 3.237-.156.435-.432-.417-2.43-3.044-2.782z" stroke="#52267D" mask="url(#ep)"/>
      </g>
      <g transform="translate(88 57.789)">
        <mask id="er" fill="#fff">
          <use xlink:href="#eq"/>
        </mask>
        <path d="M54.876 141.052c-.3-.041-.73.61-.682.809.05.198.083.853.57.924.355.053 1.63.186 1.908-.091.257-.255-.245-1.435-1.796-1.642" fill="#E1F2FF" mask="url(#er)"/>
      </g>
      <g transform="translate(88 57.789)">
        <mask id="et" fill="#fff">
          <use xlink:href="#es"/>
        </mask>
        <path d="M13.524 140.549s.962-.783 2.239.267c1.167.959 2.045 2.44 1.522 2.588a5.548 5.548 0 0 1-2.411.117c-.841-.155-1.585.008-1.922-1.753-.157-.821.572-1.22.572-1.22" fill="#FFF" mask="url(#et)"/>
      </g>
      <g transform="translate(88 57.789)">
        <mask id="ev" fill="#fff">
          <use xlink:href="#eu"/>
        </mask>
        <path d="M13.524 140.549s.962-.783 2.239.267c1.167.959 2.045 2.44 1.522 2.588a5.548 5.548 0 0 1-2.411.117c-.841-.155-1.585.008-1.922-1.753-.157-.821.572-1.22.572-1.22z" stroke="#52267D" stroke-width=".5" mask="url(#ev)"/>
      </g>
      <g transform="translate(88 57.789)">
        <mask id="ex" fill="#fff">
          <use xlink:href="#ew"/>
        </mask>
        <path d="M13.744 140.835s.598-.487 1.393.165c.726.597 1.272 1.519.947 1.61a3.462 3.462 0 0 1-1.501.074c-.524-.096-.985.005-1.196-1.091-.098-.51.357-.758.357-.758" fill="#E1F2FF" mask="url(#ex)"/>
      </g>
      <g transform="translate(88 57.789)">
        <mask id="ez" fill="#fff">
          <use xlink:href="#ey"/>
        </mask>
        <path d="M12.16 140.532c-.508-.068-1.238 1.034-1.155 1.371.084.336.14 1.446.963 1.567.605.09 2.765.314 3.236-.156.435-.432-.416-2.43-3.044-2.782" fill="#FFF" mask="url(#ez)"/>
      </g>
      <g transform="translate(88 57.789)">
        <mask id="eB" fill="#fff">
          <use xlink:href="#eA"/>
        </mask>
        <path d="M12.16 140.532c-.508-.068-1.238 1.034-1.155 1.371.084.336.14 1.446.963 1.567.605.09 2.765.314 3.236-.156.435-.432-.416-2.43-3.044-2.782z" stroke="#52267D" stroke-width=".5" mask="url(#eB)"/>
      </g>
      <g transform="translate(88 57.789)">
        <mask id="eD" fill="#fff">
          <use xlink:href="#eC"/>
        </mask>
        <path d="M12.018 140.838c-.3-.041-.73.61-.682.809.05.198.083.853.568.924.357.053 1.632.186 1.91-.091.257-.255-.246-1.435-1.796-1.642" fill="#E1F2FF" mask="url(#eD)"/>
      </g>
      <g transform="translate(88 57.789)">
        <mask id="eF" fill="#fff">
          <use xlink:href="#eE"/>
        </mask>
        <path d="M10.356 141.074s.388-.202 1.156.237c.679.388 1.692 1.01 1.425 1.781-.267.771-2.411.484-2.888.321-.476-.163-.775-.683-.691-1.137.184-.99.998-1.202.998-1.202" fill="#FFF" mask="url(#eF)"/>
      </g>
      <g transform="translate(88 57.789)">
        <mask id="eH" fill="#fff">
          <use xlink:href="#eG"/>
        </mask>
        <path d="M10.356 141.074s.388-.202 1.156.237c.679.388 1.692 1.01 1.425 1.781-.267.771-2.411.484-2.888.321-.476-.163-.775-.683-.691-1.137.184-.99.998-1.202.998-1.202z" stroke="#52267D" stroke-width=".5" mask="url(#eH)"/>
      </g>
      <g transform="translate(88 57.789)">
        <mask id="eJ" fill="#fff">
          <use xlink:href="#eI"/>
        </mask>
        <path d="M10.21 141.347s.23-.12.685.141c.401.23 1.001.596.843 1.054-.158.457-1.427.286-1.71.19-.282-.096-.459-.405-.409-.672.11-.588.591-.713.591-.713" fill="#E1F2FF" mask="url(#eJ)"/>
      </g>
      <g transform="translate(88 57.789)">
        <mask id="eL" fill="#fff">
          <use xlink:href="#eK"/>
        </mask>
        <path d="M48.35 141.22c-.159-.133-.35-.171-.506-.097-.584.276-2.057 1.058-1.753 2.117.238.824.741.576 1.704.594l.727.013a.411.411 0 0 0 .366-.213c.418-.698.191-1.796-.488-2.371l-.05-.042z" fill="#FFF" mask="url(#eL)"/>
      </g>
      <g transform="translate(88 57.789)">
        <mask id="eN" fill="#fff">
          <use xlink:href="#eM"/>
        </mask>
        <path d="M48.35 141.22c-.159-.133-.35-.171-.506-.097-.584.276-2.057 1.058-1.753 2.117.238.824.741.576 1.704.594l.727.013a.411.411 0 0 0 .366-.213c.418-.698.191-1.796-.488-2.371l-.05-.042z" stroke="#52267D" mask="url(#eN)"/>
      </g>
      <g transform="translate(88 57.789)">
        <mask id="eP" fill="#fff">
          <use xlink:href="#eO"/>
        </mask>
        <path d="M48.274 141.458c-.115-.098-.253-.125-.367-.071-.424.2-1.494.768-1.274 1.538.173.598.539.419 1.239.43l.528.01a.301.301 0 0 0 .266-.153c.303-.508.139-1.306-.355-1.724l-.037-.03z" fill="#E1F2FF" mask="url(#eP)"/>
      </g>
      <g transform="translate(88 57.789)">
        <mask id="eR" fill="#fff">
          <use xlink:href="#eQ"/>
        </mask>
        <path d="M51.76 140.904s.89-.862 2.252.075c1.244.857 2.245 2.258 1.736 2.45a5.55 5.55 0 0 1-2.392.322c-.852-.083-1.578.142-2.065-1.584-.226-.804.468-1.263.468-1.263" fill="#FFF" mask="url(#eR)"/>
      </g>
      <g transform="translate(88 57.789)">
        <mask id="eT" fill="#fff">
          <use xlink:href="#eS"/>
        </mask>
        <path d="M51.76 140.904s.89-.862 2.252.075c1.244.857 2.245 2.258 1.736 2.45a5.55 5.55 0 0 1-2.392.322c-.852-.083-1.578.142-2.065-1.584-.226-.804.468-1.263.468-1.263z" stroke="#52267D" mask="url(#eT)"/>
      </g>
      <g transform="translate(88 57.789)">
        <mask id="eV" fill="#fff">
          <use xlink:href="#eU"/>
        </mask>
        <path d="M52.001 141.17s.555-.536 1.402.047c.775.533 1.397 1.405 1.08 1.525-.316.12-.879.258-1.488.199-.53-.05-.982.089-1.285-.985-.14-.5.291-.786.291-.786" fill="#E1F2FF" mask="url(#eV)"/>
      </g>
    </g>
    <g>
      <path d="M175.886 153.966h-11.965" fill="#FFF"/>
      <path d="M175.886 153.966h-11.965" stroke="#ACD3EF" stroke-width="2" stroke-linecap="round"/>
      <path d="M175.886 149.216h-21.965" fill="#FFF"/>
      <path d="M175.886 149.216h-21.965" stroke="#ACD3EF" stroke-width="2" stroke-linecap="round"/>
      <path d="M144.004 53.983h28.667" fill="#FFF"/>
      <path d="M144.004 53.983h28.667" stroke="#E1F2FF" stroke-width="2" stroke-linecap="round"/>
      <g>
        <path d="M98.557 53.983h18.667" fill="#FFF"/>
        <path d="M98.557 53.983h18.667" stroke="#E1F2FF" stroke-width="2" stroke-linecap="round"/>
      </g>
      <path fill="#FFF" d="M136.702 52.983h-10.298v-28.88l10.298 1z"/>
      <path stroke="#ACD3EF" stroke-width="2" d="M136.702 52.983h-10.298v-28.88l10.298 1z"/>
    </g>
  </g>
</svg>
