<?xml version="1.0" encoding="utf-8"?>
<svg viewBox="0 0 256 256" style="enable-background:new 0 0 256 256;" xmlns="http://www.w3.org/2000/svg">
 <defs>
  <style type="text/css">
	.st0{fill:#E1F2FF;}
	.st1{fill:#FFFFFF;stroke:#5E63B6;stroke-width:3;stroke-linecap:round;stroke-linejoin:round;}
	.st2{fill:none;stroke:#5E63B6;stroke-linecap:round;}
	.st3{fill:none;stroke:#5E63B6;stroke-linecap:round;stroke-linejoin:round;}
	.st4{fill:#FFFFFF;stroke:#5E63B6;stroke-width:2;stroke-linecap:round;}
	.st5{fill:none;stroke:#5E63B6;stroke-width:2;stroke-linecap:round;stroke-linejoin:round;}
	.st6{fill:#FFFFFF;stroke:#5563B6;stroke-width:2;}
	.st7{fill:#FFFFFF;stroke:#9ACDED;stroke-width:2;}
	.st8{fill:#9ACDED;}
	.st9{fill:#FFFFFF;stroke:#9ACDED;stroke-width:2;stroke-linecap:round;stroke-linejoin:round;}
	.st10{fill:none;stroke:#E1F2FF;stroke-width:2;stroke-linecap:round;}
	.st11{fill:none;stroke:#5E63B6;stroke-width:4;}
	.st12{fill-rule:evenodd;clip-rule:evenodd;fill:#FFFFFF;stroke:#5E63B6;stroke-width:3;}
	.st13{fill-rule:evenodd;clip-rule:evenodd;fill:#5E63B6;stroke:#5E63B6;stroke-width:2;}
	.st14{fill:#FFFFFF;stroke:#5E63B6;stroke-width:3;}
	.st15{fill:#FFFFFF;stroke:#5E63B6;stroke-width:1.5463;}
	.st16{enable-background:new    ;}
	.st17{fill:#5563B6;}
	.st18{fill:#9452BA;}
	.st19{fill:#5E63B6;}
</style>
 </defs>
 <path class="st0" d="M25,228.6C25,171.4,71.4,125,128.6,125s103.6,46.4,103.6,103.6H25z"/>
 <g>
  <path class="st1" d="M20,220h36 M62,220h176.9 M246,220h7 M3,220h9 M95,230h67.2 M171,230h9.1 M87,229l-5,0.1"/>
 </g>
 <path class="st2" d="M42.7,188.7v3.9 M44.7,190.6h-3.9"/>
 <path class="st3" d="M217.7,128.7v3.9 M219.7,130.6h-3.9"/>
 <path class="st4" d="M26.4,127.3v8.1 M30.5,131.3h-8.1"/>
 <path class="st5" d="M217,68.4v7 M220.5,71.9h-7"/>
 <path class="st5" d="M80.1,36.6v7 M83.6,40.1h-7"/>
 <path class="st2" d="M43.7,92.7v3.9 M45.7,94.7h-3.9"/>
 <path class="st6" d="M174.4,124.7h43.7L242,96h-43.7L174.4,124.7z M174.4,124.7H87L63,96h87.4L174.4,124.7z"/>
 <g transform="matrix(0.99863, 0.052336, -0.052336, 0.99863, 129.053986, 41.561195)">
  <path class="st7" d="M8.1,0.3L54,3.9c1.2,0.1,2.1,1.2,2,2.4l-5.3,68.4c-0.1,1.2-1.2,2.2-2.4,2.1L2.5,73.2c-1.2-0.1-2.2-1.2-2.1-2.4 L5.7,2.4C5.8,1.2,6.9,0.2,8.1,0.3z"/>
  <path class="st0" d="M4.9,65L48,71.4l4.8-61.6L9.1,4.4L4.9,65z"/>
  <path class="st8" d="M19.6,16.9l-1.1-1.3l-3.4,2.9l-1.8-2.1L12,17.5l2.9,3.4l0,0l0,0L19.6,16.9z"/>
  <path class="st9" d="M22.2,18.6l24.9,1.9"/>
  <path class="st8" d="M19,24.5l-1.1-1.2l-3.4,2.9l-1.8-2.1l-1.2,1.1l2.9,3.4l0,0l0,0L19,24.5z"/>
  <path class="st9" d="M21.6,26.7l24.9,1.9"/>
  <path class="st8" d="M18.4,32.2L17.3,31l-3.4,2.9l-1.8-2.1l-1.2,1.1l2.9,3.4l0,0l0,0L18.4,32.2z"/>
  <path class="st9" d="M20.9,35l24.9,1.9"/>
 </g>
 <g transform="matrix(0.920505, -0.390731, 0.390731, 0.920505, 72.222401, 83.196446)">
  <path class="st7" d="M8.1,0.3L54,3.9c1.2,0.1,2.1,1.2,2,2.4l-5.3,68.4c-0.1,1.2-1.2,2.2-2.4,2.1L2.5,73.2c-1.2-0.1-2.2-1.2-2.1-2.4 L5.7,2.4C5.8,1.2,6.9,0.2,8.1,0.3z"/>
  <path class="st0" d="M4.9,65L48,71.4l4.8-61.6L9.1,4.4L4.9,65z"/>
  <path class="st8" d="M19.6,16.9l-1.1-1.3l-3.4,2.9l-1.8-2.1L12,17.5l2.9,3.4l0,0l0,0L19.6,16.9z"/>
  <path class="st9" d="M22.2,18.6l24.9,1.9"/>
  <path class="st8" d="M19,24.5l-1.1-1.2l-3.4,2.9l-1.8-2.1l-1.2,1.1l2.9,3.4l0,0l0,0L19,24.5z"/>
  <path class="st9" d="M21.6,26.7l24.9,1.9"/>
  <path class="st8" d="M18.4,32.2l-1.1-1.3l-3.4,2.9l-1.8-2.1l-1.2,1.1l2.9,3.4l0,0l0,0L18.4,32.2z"/>
  <path class="st9" d="M20.9,35l24.9,1.9"/>
 </g>
 <g transform="matrix(0.97437, 0.224951, -0.224951, 0.97437, 172.390973, 78.575804)">
  <path class="st7" d="M8.1,0.3L54,3.9c1.2,0.1,2.1,1.2,2,2.4l-5.3,68.4c-0.1,1.2-1.2,2.2-2.4,2.1L2.5,73.2c-1.2-0.1-2.2-1.2-2.1-2.4 L5.7,2.4C5.8,1.2,6.9,0.2,8.1,0.3z"/>
  <path class="st0" d="M4.9,65L48,71.4l4.8-61.6L9.1,4.4L4.9,65z"/>
  <path class="st8" d="M19.6,16.9l-1.1-1.3l-3.4,2.9l-1.8-2.1L12,17.5l2.9,3.4l0,0l0,0L19.6,16.9z"/>
  <path class="st9" d="M22.2,18.6l24.9,1.9"/>
  <path class="st8" d="M19,24.5l-1.1-1.2l-3.4,2.9l-1.8-2.1l-1.2,1.1l2.9,3.4l0,0l0,0L19,24.5z"/>
  <path class="st9" d="M21.6,26.7l24.9,1.9"/>
  <path class="st8" d="M18.4,32.2l-1.1-1.3l-3.4,2.9l-1.8-2.1l-1.3,1.1l2.9,3.4l0,0l0,0L18.4,32.2z"/>
  <path class="st9" d="M20.9,35l24.9,1.9"/>
 </g>
 <g transform="matrix(1, 0, 0, 1, 115, 87)">
  <path class="st7" d="M8.1,0.3L54,3.9c1.2,0.1,2.1,1.2,2,2.4l-5.3,68.4c-0.1,1.2-1.2,2.2-2.4,2.1L2.5,73.2c-1.2-0.1-2.2-1.2-2.1-2.4 L5.7,2.4C5.8,1.2,6.9,0.2,8.1,0.3z"/>
  <path class="st0" d="M4.9,65L48,71.4l4.8-61.6L9.1,4.4L4.9,65z"/>
  <path class="st8" d="M19.6,16.9l-1.1-1.3l-3.4,2.9l-1.8-2.1L12,17.5l2.9,3.4l0,0l0,0L19.6,16.9z"/>
  <path class="st9" d="M22.2,18.6l24.9,1.9"/>
  <path class="st8" d="M19,24.5l-1.1-1.2l-3.4,2.9l-1.8-2.1l-1.2,1.1l2.9,3.4l0,0l0,0L19,24.5z"/>
  <path class="st9" d="M21.6,26.7l24.9,1.9"/>
  <path class="st8" d="M18.4,32.2L17.3,31l-3.4,2.9l-1.8-2.1l-1.2,1.1l2.9,3.4l0,0l0,0L18.4,32.2z"/>
  <path class="st9" d="M20.9,35l24.9,1.9"/>
 </g>
 <path class="st6" d="M130.7,124.6h87.4v94.2h-87.4L130.7,124.6z"/>
 <path class="st0" d="M217.1,178.7L130.6,139l0.1-14.4h86.4V178.7z"/>
 <path class="st6" d="M86.9,124.7h43.7v94.2H86.9V124.7z"/>
 <path class="st6" d="M130.6,124.7H86.9L63,153.3h43.7L130.6,124.7z M130.6,124.7H218l24,28.7h-87.4L130.6,124.7z"/>
 <path class="st10" d="M229.1,148.1h-20.4 M86.8,148.1H73.4"/>
 <g transform="matrix(-1, 0, 0, 1, 135, 57)">
  <path class="st11" d="M100.4,12.2h-4.3c-10.9,0-15.9,15.8-15.9,33.3V101c0,25.1-22.1,20.9-26.8,20.9"/>
  <path class="st12" d="M0,0"/>
  <path class="st13" d="M124,9h-8.5V6h8.5c0.6,0,1,0.5,1,1v0.9C125,8.5,124.5,9,124,9z M124,18h-8.5v-3h8.5c0.6,0,1,0.5,1,1v0.9 C125,17.5,124.5,18,124,18z"/>
 </g>
 <circle class="st14" cx="104.3" cy="179.9" r="22.7"/>
 <circle class="st15" cx="104.3" cy="179.9" r="11.7"/>
 <g>
  <path class="st18" d="M107.7,185.1c0-0.2-0.1-0.7,0-1.5c0-0.4,0.2-0.8,0.2-1.2c0.2-0.7,0.6-1.4,1-2c0.3-0.7,0.7-1.3,0.8-2 c0.2-1-0.6-2-1.1-2.6c-0.8-1-1.8-1.8-2.8-2.5c0.1,0.9,0.2,1.9,0.1,2.9c-0.1,0.9-0.2,1.8-0.6,2.6c-0.2,0.5-0.3,0.9-0.6,1.4 c-0.1,0.2-0.1,0.2-0.2,0.2c-0.1,0-0.2,0-0.3,0c-0.2,0-0.5-0.1-0.7-0.1c-0.9-0.2-1.8-0.4-2.6-0.7c-1-0.4-1.9-1-2.7-1.6 c0.1,1,0.2,1.9,0.6,2.8c0.2,0.8,0.6,1.7,1.1,2.4c0.2,0.3,0.6,0.7,1.1,0.8c0.4,0.2,0.8,0.2,1.1,0.2c0.8,0.1,1.7,0,2.5,0.2 C105.7,184,106.8,184.4,107.7,185.1"/>
 </g>
 <path class="st19" d="M31,80.9H19.6V56.9H31c2.1,0,3.7,1.7,3.7,3.7v16.6C34.7,79.2,33,80.9,31,80.9z"/>
 <path d="M 143.812 183.927 L 143.352 184.817 C 143.299 184.917 143.239 184.99 143.172 185.037 C 143.105 185.077 143.025 185.097 142.932 185.097 C 142.839 185.097 142.732 185.06 142.612 184.987 C 142.499 184.914 142.362 184.834 142.202 184.747 C 142.042 184.66 141.855 184.58 141.642 184.507 C 141.429 184.434 141.179 184.397 140.892 184.397 C 140.632 184.397 140.405 184.427 140.212 184.487 C 140.019 184.554 139.855 184.644 139.722 184.757 C 139.589 184.864 139.489 184.997 139.422 185.157 C 139.355 185.31 139.322 185.48 139.322 185.667 C 139.322 185.907 139.389 186.107 139.522 186.267 C 139.655 186.427 139.832 186.56 140.052 186.667 C 140.272 186.78 140.522 186.88 140.802 186.967 C 141.082 187.06 141.369 187.157 141.662 187.257 C 141.949 187.357 142.232 187.474 142.512 187.607 C 142.792 187.74 143.042 187.907 143.262 188.107 C 143.482 188.314 143.659 188.564 143.792 188.857 C 143.925 189.15 143.992 189.507 143.992 189.927 C 143.992 190.387 143.915 190.814 143.762 191.207 C 143.602 191.607 143.372 191.957 143.072 192.257 C 142.772 192.55 142.405 192.784 141.972 192.957 C 141.539 193.124 141.042 193.207 140.482 193.207 C 140.155 193.207 139.839 193.177 139.532 193.117 C 139.219 193.05 138.919 192.96 138.632 192.847 C 138.339 192.727 138.069 192.587 137.822 192.427 C 137.575 192.26 137.352 192.077 137.152 191.877 L 137.702 190.977 C 137.755 190.91 137.815 190.854 137.882 190.807 C 137.955 190.767 138.039 190.747 138.132 190.747 C 138.245 190.747 138.369 190.794 138.502 190.887 C 138.642 190.987 138.802 191.094 138.982 191.207 C 139.169 191.32 139.385 191.427 139.632 191.527 C 139.885 191.62 140.185 191.667 140.532 191.667 C 141.072 191.667 141.489 191.54 141.782 191.287 C 142.075 191.034 142.222 190.667 142.222 190.187 C 142.222 189.927 142.155 189.71 142.022 189.537 C 141.889 189.37 141.712 189.23 141.492 189.117 C 141.272 189.004 141.022 188.907 140.742 188.827 C 140.462 188.747 140.179 188.66 139.892 188.567 C 139.605 188.474 139.322 188.36 139.042 188.227 C 138.762 188.1 138.512 187.93 138.292 187.717 C 138.072 187.51 137.895 187.25 137.762 186.937 C 137.629 186.617 137.562 186.227 137.562 185.767 C 137.562 185.4 137.635 185.04 137.782 184.687 C 137.929 184.34 138.142 184.03 138.422 183.757 C 138.709 183.49 139.055 183.274 139.462 183.107 C 139.875 182.947 140.345 182.867 140.872 182.867 C 141.472 182.867 142.022 182.96 142.522 183.147 C 143.029 183.334 143.459 183.594 143.812 183.927 ZM 151.793 185.917 L 147.883 195.067 C 147.836 195.194 147.77 195.287 147.683 195.347 C 147.603 195.414 147.48 195.447 147.313 195.447 L 146.023 195.447 L 147.363 192.567 L 144.463 185.917 L 145.973 185.917 C 146.113 185.917 146.22 185.95 146.293 186.017 C 146.373 186.077 146.43 186.15 146.463 186.237 L 147.993 189.957 C 148.046 190.084 148.093 190.21 148.133 190.337 C 148.166 190.47 148.196 190.6 148.223 190.727 C 148.263 190.594 148.306 190.464 148.353 190.337 C 148.393 190.21 148.44 190.084 148.493 189.957 L 149.933 186.237 C 149.973 186.144 150.036 186.067 150.123 186.007 C 150.21 185.947 150.306 185.917 150.413 185.917 L 151.793 185.917 ZM 154.532 193.097 L 152.802 193.097 L 152.802 185.917 L 153.862 185.917 C 154.089 185.917 154.235 186.02 154.302 186.227 L 154.422 186.797 C 154.569 186.65 154.722 186.514 154.882 186.387 C 155.042 186.267 155.212 186.164 155.392 186.077 C 155.572 185.99 155.765 185.924 155.972 185.877 C 156.179 185.83 156.402 185.807 156.642 185.807 C 157.035 185.807 157.382 185.874 157.682 186.007 C 157.989 186.134 158.242 186.32 158.442 186.567 C 158.649 186.807 158.802 187.094 158.902 187.427 C 159.009 187.76 159.062 188.127 159.062 188.527 L 159.062 193.097 L 157.332 193.097 L 157.332 188.527 C 157.332 188.087 157.232 187.747 157.032 187.507 C 156.825 187.267 156.522 187.147 156.122 187.147 C 155.822 187.147 155.542 187.214 155.282 187.347 C 155.015 187.487 154.765 187.674 154.532 187.907 L 154.532 193.097 ZM 166.881 193.097 L 165.821 193.097 C 165.594 193.097 165.448 192.99 165.381 192.777 L 165.241 192.087 C 165.088 192.254 164.931 192.407 164.771 192.547 C 164.604 192.68 164.428 192.797 164.241 192.897 C 164.054 192.99 163.851 193.064 163.631 193.117 C 163.411 193.17 163.178 193.197 162.931 193.197 C 162.538 193.197 162.178 193.117 161.851 192.957 C 161.524 192.79 161.244 192.554 161.011 192.247 C 160.771 191.934 160.588 191.55 160.461 191.097 C 160.334 190.637 160.271 190.114 160.271 189.527 C 160.271 188.994 160.341 188.5 160.481 188.047 C 160.628 187.587 160.838 187.19 161.111 186.857 C 161.378 186.517 161.701 186.254 162.081 186.067 C 162.461 185.874 162.884 185.777 163.351 185.777 C 163.758 185.777 164.101 185.844 164.381 185.977 C 164.668 186.104 164.924 186.274 165.151 186.487 L 165.151 182.697 L 166.881 182.697 L 166.881 193.097 Z M 163.521 191.827 C 163.874 191.827 164.178 191.754 164.431 191.607 C 164.684 191.454 164.924 191.24 165.151 190.967 L 165.151 187.747 C 164.951 187.507 164.738 187.34 164.511 187.247 C 164.278 187.147 164.028 187.097 163.761 187.097 C 163.501 187.097 163.264 187.147 163.051 187.247 C 162.838 187.34 162.658 187.487 162.511 187.687 C 162.364 187.887 162.251 188.14 162.171 188.447 C 162.091 188.754 162.051 189.114 162.051 189.527 C 162.051 189.947 162.084 190.304 162.151 190.597 C 162.224 190.89 162.321 191.127 162.441 191.307 C 162.568 191.494 162.724 191.627 162.911 191.707 C 163.091 191.787 163.294 191.827 163.521 191.827 ZM 168.861 185.917 L 170.591 185.917 L 170.591 193.097 L 168.861 193.097 L 168.861 185.917 Z M 170.841 183.817 C 170.841 183.97 170.811 184.11 170.751 184.237 C 170.691 184.37 170.611 184.487 170.511 184.587 C 170.411 184.68 170.294 184.757 170.161 184.817 C 170.028 184.877 169.881 184.907 169.721 184.907 C 169.574 184.907 169.434 184.877 169.301 184.817 C 169.168 184.757 169.051 184.68 168.951 184.587 C 168.858 184.487 168.781 184.37 168.721 184.237 C 168.661 184.11 168.631 183.97 168.631 183.817 C 168.631 183.664 168.661 183.52 168.721 183.387 C 168.781 183.254 168.858 183.137 168.951 183.037 C 169.051 182.937 169.168 182.86 169.301 182.807 C 169.434 182.747 169.574 182.717 169.721 182.717 C 169.881 182.717 170.028 182.747 170.161 182.807 C 170.294 182.86 170.411 182.937 170.511 183.037 C 170.611 183.137 170.691 183.254 170.751 183.387 C 170.811 183.52 170.841 183.664 170.841 183.817 ZM 178.045 186.807 L 177.585 187.437 C 177.532 187.497 177.482 187.547 177.435 187.587 C 177.388 187.627 177.318 187.647 177.225 187.647 C 177.132 187.647 177.045 187.62 176.965 187.567 C 176.878 187.514 176.778 187.45 176.665 187.377 C 176.545 187.31 176.405 187.25 176.245 187.197 C 176.085 187.144 175.885 187.117 175.645 187.117 C 175.345 187.117 175.078 187.174 174.845 187.287 C 174.618 187.394 174.428 187.55 174.275 187.757 C 174.128 187.964 174.015 188.21 173.935 188.497 C 173.862 188.79 173.825 189.124 173.825 189.497 C 173.825 189.877 173.865 190.217 173.945 190.517 C 174.032 190.81 174.152 191.06 174.305 191.267 C 174.458 191.467 174.645 191.62 174.865 191.727 C 175.085 191.834 175.332 191.887 175.605 191.887 C 175.878 191.887 176.102 191.854 176.275 191.787 C 176.442 191.72 176.585 191.644 176.705 191.557 C 176.818 191.477 176.918 191.404 177.005 191.337 C 177.092 191.27 177.188 191.237 177.295 191.237 C 177.435 191.237 177.542 191.29 177.615 191.397 L 178.115 192.027 C 177.922 192.254 177.712 192.44 177.485 192.587 C 177.265 192.74 177.035 192.864 176.795 192.957 C 176.555 193.044 176.305 193.107 176.045 193.147 C 175.792 193.18 175.538 193.197 175.285 193.197 C 174.838 193.197 174.422 193.117 174.035 192.957 C 173.642 192.79 173.298 192.547 173.005 192.227 C 172.712 191.914 172.482 191.527 172.315 191.067 C 172.142 190.607 172.055 190.084 172.055 189.497 C 172.055 188.964 172.132 188.474 172.285 188.027 C 172.438 187.574 172.662 187.184 172.955 186.857 C 173.248 186.53 173.612 186.274 174.045 186.087 C 174.478 185.9 174.978 185.807 175.545 185.807 C 176.078 185.807 176.548 185.89 176.955 186.057 C 177.355 186.23 177.718 186.48 178.045 186.807 ZM 184.843 188.557 L 184.843 193.097 L 184.073 193.097 C 183.906 193.097 183.776 193.074 183.683 193.027 C 183.59 192.974 183.52 192.874 183.473 192.727 L 183.323 192.217 C 183.136 192.377 182.956 192.52 182.783 192.647 C 182.61 192.767 182.43 192.87 182.243 192.957 C 182.056 193.044 181.856 193.107 181.643 193.147 C 181.436 193.187 181.203 193.207 180.943 193.207 C 180.643 193.207 180.363 193.167 180.103 193.087 C 179.85 193.007 179.63 192.884 179.443 192.717 C 179.263 192.557 179.12 192.354 179.013 192.107 C 178.913 191.867 178.863 191.587 178.863 191.267 C 178.863 190.994 178.933 190.724 179.073 190.457 C 179.213 190.197 179.45 189.96 179.783 189.747 C 180.116 189.534 180.556 189.357 181.103 189.217 C 181.656 189.077 182.343 188.997 183.163 188.977 L 183.163 188.557 C 183.163 188.077 183.06 187.724 182.853 187.497 C 182.653 187.264 182.36 187.147 181.973 187.147 C 181.686 187.147 181.453 187.18 181.273 187.247 C 181.08 187.314 180.916 187.387 180.783 187.467 C 180.643 187.547 180.516 187.62 180.403 187.687 C 180.283 187.754 180.153 187.787 180.013 187.787 C 179.9 187.787 179.8 187.757 179.713 187.697 C 179.626 187.63 179.56 187.554 179.513 187.467 L 179.193 186.917 C 180.02 186.157 181.016 185.777 182.183 185.777 C 182.603 185.777 182.98 185.847 183.313 185.987 C 183.64 186.127 183.916 186.32 184.143 186.567 C 184.376 186.807 184.55 187.097 184.663 187.437 C 184.783 187.777 184.843 188.15 184.843 188.557 Z M 181.483 192.017 C 181.663 192.017 181.826 192 181.973 191.967 C 182.126 191.934 182.27 191.887 182.403 191.827 C 182.53 191.76 182.656 191.677 182.783 191.577 C 182.91 191.484 183.036 191.374 183.163 191.247 L 183.163 190.027 C 182.656 190.054 182.233 190.097 181.893 190.157 C 181.553 190.224 181.283 190.307 181.083 190.407 C 180.876 190.5 180.73 190.614 180.643 190.747 C 180.556 190.874 180.513 191.014 180.513 191.167 C 180.513 191.474 180.603 191.694 180.783 191.827 C 180.963 191.954 181.196 192.017 181.483 192.017 ZM 188.902 193.207 C 188.282 193.207 187.805 193.03 187.472 192.677 C 187.132 192.324 186.962 191.837 186.962 191.217 L 186.962 187.207 L 186.242 187.207 C 186.149 187.207 186.065 187.177 185.992 187.117 C 185.925 187.057 185.892 186.967 185.892 186.847 L 185.892 186.157 L 187.052 185.967 L 187.412 184.007 C 187.432 183.914 187.475 183.844 187.542 183.797 C 187.609 183.744 187.695 183.717 187.802 183.717 L 188.692 183.717 L 188.692 185.977 L 190.582 185.977 L 190.582 187.207 L 188.692 187.207 L 188.692 191.097 C 188.692 191.324 188.749 191.5 188.862 191.627 C 188.975 191.754 189.125 191.817 189.312 191.817 C 189.419 191.817 189.509 191.804 189.582 191.777 C 189.655 191.75 189.719 191.724 189.772 191.697 C 189.825 191.67 189.872 191.644 189.912 191.617 C 189.952 191.59 189.995 191.577 190.042 191.577 C 190.089 191.577 190.129 191.59 190.162 191.617 C 190.195 191.644 190.232 191.684 190.272 191.737 L 190.792 192.567 C 190.539 192.78 190.249 192.94 189.922 193.047 C 189.595 193.154 189.255 193.207 188.902 193.207 ZM 192.08 185.917 L 193.81 185.917 L 193.81 193.097 L 192.08 193.097 L 192.08 185.917 Z M 194.06 183.817 C 194.06 183.97 194.03 184.11 193.97 184.237 C 193.91 184.37 193.83 184.487 193.73 184.587 C 193.63 184.68 193.513 184.757 193.38 184.817 C 193.247 184.877 193.1 184.907 192.94 184.907 C 192.793 184.907 192.653 184.877 192.52 184.817 C 192.387 184.757 192.27 184.68 192.17 184.587 C 192.077 184.487 192 184.37 191.94 184.237 C 191.88 184.11 191.85 183.97 191.85 183.817 C 191.85 183.664 191.88 183.52 191.94 183.387 C 192 183.254 192.077 183.137 192.17 183.037 C 192.27 182.937 192.387 182.86 192.52 182.807 C 192.653 182.747 192.793 182.717 192.94 182.717 C 193.1 182.717 193.247 182.747 193.38 182.807 C 193.513 182.86 193.63 182.937 193.73 183.037 C 193.83 183.137 193.91 183.254 193.97 183.387 C 194.03 183.52 194.06 183.664 194.06 183.817 ZM 198.824 185.807 C 199.357 185.807 199.844 185.89 200.284 186.057 C 200.717 186.23 201.091 186.477 201.404 186.797 C 201.711 187.117 201.947 187.504 202.114 187.957 C 202.281 188.417 202.364 188.93 202.364 189.497 C 202.364 190.064 202.281 190.577 202.114 191.037 C 201.947 191.49 201.711 191.877 201.404 192.197 C 201.091 192.524 200.717 192.774 200.284 192.947 C 199.844 193.114 199.357 193.197 198.824 193.197 C 198.291 193.197 197.804 193.114 197.364 192.947 C 196.924 192.774 196.547 192.524 196.234 192.197 C 195.927 191.877 195.687 191.49 195.514 191.037 C 195.347 190.577 195.264 190.064 195.264 189.497 C 195.264 188.93 195.347 188.417 195.514 187.957 C 195.687 187.504 195.927 187.117 196.234 186.797 C 196.547 186.477 196.924 186.23 197.364 186.057 C 197.804 185.89 198.291 185.807 198.824 185.807 Z M 198.824 191.867 C 199.424 191.867 199.867 191.667 200.154 191.267 C 200.441 190.867 200.584 190.28 200.584 189.507 C 200.584 188.734 200.441 188.144 200.154 187.737 C 199.867 187.33 199.424 187.127 198.824 187.127 C 198.217 187.127 197.771 187.33 197.484 187.737 C 197.191 188.144 197.044 188.734 197.044 189.507 C 197.044 190.274 197.191 190.86 197.484 191.267 C 197.771 191.667 198.217 191.867 198.824 191.867 ZM 205.443 193.097 L 203.713 193.097 L 203.713 185.917 L 204.773 185.917 C 205 185.917 205.146 186.02 205.213 186.227 L 205.333 186.797 C 205.48 186.65 205.633 186.514 205.793 186.387 C 205.953 186.267 206.123 186.164 206.303 186.077 C 206.483 185.99 206.676 185.924 206.883 185.877 C 207.09 185.83 207.313 185.807 207.553 185.807 C 207.946 185.807 208.293 185.874 208.593 186.007 C 208.9 186.134 209.153 186.32 209.353 186.567 C 209.56 186.807 209.713 187.094 209.813 187.427 C 209.92 187.76 209.973 188.127 209.973 188.527 L 209.973 193.097 L 208.243 193.097 L 208.243 188.527 C 208.243 188.087 208.143 187.747 207.943 187.507 C 207.736 187.267 207.433 187.147 207.033 187.147 C 206.733 187.147 206.453 187.214 206.193 187.347 C 205.926 187.487 205.676 187.674 205.443 187.907 L 205.443 193.097 Z" transform="matrix(1, 0, 0, 1, 0, 0)" style="fill: rgb(85, 99, 182); white-space: pre;"/>
</svg>