<svg width="256" height="256" xmlns="http://www.w3.org/2000/svg">
  <g fill="none" fill-rule="evenodd">
    <path d="M25 218.56C25 161.365 71.365 115 128.56 115s103.56 46.365 103.56 103.56H25z" fill="#E1F2FF" fill-rule="nonzero"/>
    <g fill="#FFF" fill-rule="nonzero" stroke="#ACD3EF" stroke-linecap="round" stroke-linejoin="round" stroke-width="3">
      <path d="M95 230h67.19M171 230h9.14M87 230l-5 .08"/>
    </g>
    <g stroke="#5E63B6" stroke-linecap="round">
      <path d="M220.98 60.4v7M224.48 63.9h-7M85 24v7M89 28h-7" stroke-width="2" stroke-linejoin="round"/>
      <path d="M47.73 188.68v3.94M49.7 190.65h-3.94"/>
      <path d="M222.73 128.68v3.94M224.7 130.65h-3.94" stroke-linejoin="round"/>
      <path d="M53.73 88.68v3.94M55.7 90.65h-3.94"/>
      <path d="M31.42 127.28v8.12M35.48 131.34h-8.13" stroke-width="2" fill="#FFF" fill-rule="nonzero"/>
    </g>
    <path fill="#FFF" fill-rule="nonzero" d="M50.701 70.464H205.3V217.51H50.7z"/>
    <path d="M51.948 71.71v144.554h152.104V71.71H51.948zm154.597-2.492v149.538H49.455V69.218h157.09z" fill="#5E63B6" fill-rule="nonzero"/>
    <path stroke="#5E63B6" stroke-width="3" fill="#FFF" fill-rule="nonzero" d="M59.74 46h136.348l15.357 23.936H44.627z"/>
    <path d="M66 53h67.19M124 63h67.19" stroke="#E1F2FF" stroke-width="2" fill="#FFF" fill-rule="nonzero" stroke-linecap="round" stroke-linejoin="round"/>
    <path fill="#FFF" fill-rule="nonzero" d="M60.675 210.033h34.91v-99.692h-34.91z"/>
    <path fill="#FFF" d="M105.558 217.51h44.884V110.341h-44.884zM160.416 110.341v99.692h34.909v-99.692h-34.91z"/>
    <path d="M59.429 211.28V109.094H96.83v102.184H59.43zm34.909-2.493v-97.2H61.922v97.2h32.416zm9.974 9.97V109.094h47.376v109.661h-47.376zm44.883-2.493V111.587h-42.39v104.677h42.39zm9.974-107.17h37.402V211.28H159.17V109.095zm2.493 99.693h32.416v-97.2h-32.416v97.2z" fill="#5E63B6" fill-rule="nonzero"/>
    <path fill="#5E63B6" fill-rule="nonzero" d="M50.701 110.341H205.3v7.477H50.7z"/>
    <path d="M118.026 137.754h19.948a4.988 4.988 0 0 1 4.987 4.984v7.477a4.988 4.988 0 0 1-4.987 4.985h-19.948a4.988 4.988 0 0 1-4.987-4.985v-7.477a4.988 4.988 0 0 1 4.987-4.984z" fill="#FFF" fill-rule="nonzero"/>
    <path d="M209.822 77.916L226 94.144v12.195c0 3.573-2.848 6.47-6.364 6.47H36.364c-3.513 0-6.364-2.9-6.364-6.475l.045-12.187 15.968-16.231h163.809z" fill="#5E63B6" fill-rule="nonzero"/>
    <path d="M207.64 80.423H48.203L33.289 95.341l-.042 9.988a4.992 4.992 0 0 0 4.987 4.99h179.532a4.987 4.987 0 0 0 4.987-4.99V95.34L207.64 80.423z" fill="#FFF" fill-rule="nonzero"/>
    <path fill="#E1F2FF" fill-rule="nonzero" d="M94.338 171.402H80.445V156.45H61.922v52.338h32.416zM136.727 181.372h12.468v34.892h-12.468zM106.805 171.402h17.455v44.862h-17.455zM161.662 156.449h32.416v52.338h-32.416zM137.974 137.754h-19.948a4.988 4.988 0 0 0-4.987 4.984v7.477a4.988 4.988 0 0 0 4.987 4.985h19.948a4.988 4.988 0 0 0 4.987-4.985v-7.477a4.988 4.988 0 0 0-4.987-4.984zm1.247 12.461a1.25 1.25 0 0 1-1.247 1.247h-19.948c-.688 0-1.247-.561-1.247-1.247v-7.477c0-.685.559-1.246 1.247-1.246h19.948c.686 0 1.247.561 1.247 1.246v7.477z"/>
    <path fill-opacity=".846" fill="#9452BA" fill-rule="nonzero" d="M95.584 80.433l-2.493 14.952v14.931h9.974V95.385l2.493-14.952zM78.13 80.433l-4.987 14.952v14.931h9.974V95.385l4.987-14.952zM113.039 80.433h9.974v29.883h-9.974zM63.169 80.433l-9.974 14.952v14.931h9.974V95.385l7.48-14.952zM185.35 80.433l7.481 14.952v14.931h9.974V95.385l-7.48-14.952zM222.708 95.34L207.65 80.433h-4.845l9.974 14.952v14.931h4.987a4.987 4.987 0 0 0 4.987-4.99v-9.941l-.03-.045h-.015zM38.234 110.316h4.987V95.385l9.974-14.952h-5.002L33.287 95.34h-.005l-.035.045v9.941a4.989 4.989 0 0 0 4.987 4.99zM132.987 80.433h9.974v29.883h-9.974zM182.857 110.316V95.385l-4.987-14.952h-9.974l4.987 14.952v14.931zM162.91 110.316V95.385l-2.494-14.952h-9.974l2.493 14.952v14.931z"/>
    <path fill-opacity=".335" fill="#9452BA" fill-rule="nonzero" d="M207.645 80.43H48.195L33.29 95.34h-.042v.045h189.506v-.045h-.045z"/>
    <path fill="#9452BA" fill-rule="nonzero" d="M93.09 95.385h9.975l2.493-14.952h-9.974zM132.987 80.433h9.974v14.951h-9.974zM73.143 95.385h9.974l4.987-14.952H78.13zM185.35 80.433l7.481 14.952h9.974l-7.48-14.952zM113.039 80.433h9.974v14.951h-9.974zM202.805 80.433l9.974 14.952h9.974l-.03-.045h-.015L207.65 80.433zM160.416 80.433h-9.974l2.493 14.952h9.974zM53.195 80.433h-5.002L33.289 95.34h-.005l-.037.045h9.974zM177.87 80.433h-9.974l4.987 14.952h9.974zM63.169 95.385l7.48-14.952h-7.48l-9.974 14.952z"/>
    <path fill="#E1F2FF" fill-rule="nonzero" d="M106.805 112.833h42.39v7.477h-42.39zM161.662 112.833h32.416v7.477h-32.416zM61.922 112.833h32.416v7.477H61.922z"/>
    <path d="M240.33 219.438h-16c3.816-12.117-2.913-25.033-15.03-28.85-12.117-3.816-25.034 2.913-28.85 15.03a15.36 15.36 0 0 0-18.69 13.82h-13.72c-.533-9.565-7.882-17.353-17.4-18.44a32.61 32.61 0 0 0-58.09-12.86 26.43 26.43 0 0 0-32.28 31.3H24M9 219h5.33" stroke="#ACD3EF" stroke-width="3" fill="#FFF" fill-rule="nonzero" stroke-linecap="round"/>
  </g>
</svg>
