<svg xmlns="http://www.w3.org/2000/svg" width="256" height="256">
  <g fill="none" fill-rule="evenodd" transform="translate(3 24)">
    <path fill="#E1F2FF" fill-rule="nonzero" d="M20.36 207.44c0-57.2 46.37-103.56 103.56-103.56 57.2 0 103.56 46.37 103.56 103.56H20.36z"/>
    <path stroke="#375D81" d="M240.25 21.78v3.94M242.22 23.75h-3.94M60.6.5v3.94M62.55 2.47h-3.93" stroke-linecap="round"/>
    <path fill="#FFF" fill-rule="nonzero" stroke="#375D81" stroke-width="2" d="M242.22 198.6h6.97M0 198.6h8.97M91.23 207.72h67.2M167.04 207.72h9.14M83.35 207.64l-5 .08" stroke-linecap="round" stroke-linejoin="round"/>
    <path stroke="#375D81" stroke-width="2" d="M22.9 73.03v7M26.4 76.53h-7M230.98 146.35v7M234.48 149.85h-7" stroke-linecap="round" stroke-linejoin="round"/>
    <path stroke="#375D81" d="M19.4 157.9v3.94M21.38 159.87h-3.94" stroke-linecap="round"/>
    <path fill="#FFF" fill-rule="nonzero" stroke="#375D81" stroke-width="2" d="M17.27 198.64h217.9" stroke-linecap="round" stroke-linejoin="round"/>
    <rect width="72.69" height="72.69" x="132.83" y="105.42" fill="#FFF" fill-rule="nonzero" stroke="#375D81" stroke-width="2" rx="2"/>
    <rect width="72.69" height="72.69" x="132.83" y="32.79" fill="#FFF" fill-rule="nonzero" stroke="#375D81" stroke-width="2" rx="2"/>
    <rect width="72.69" height="72.69" x="60.59" y="32.79" fill="#FFF" fill-rule="nonzero" stroke="#375D81" stroke-width="2" rx="2"/>
    <path fill="#9452BA" fill-rule="nonzero" stroke="#52267D" stroke-width="2" d="M78.58 197.78l5-.06c1.7-.03 3.23-1.1 3.83-2.72 1.72-4.57 1.23-8.75 1.4-12.33.3-6.63-.78-10-1.84-15.54l-7.47.27s.66 2.74 1.2 11c.15 2.55-3.94 12.87-3.68 17.9.03.84.72 1.5 1.56 1.48zM63.8 174.3l-6.1-6.75-3.72.2-.63 8.04c-.6 5.4-1.6 10.74-3 16-.3 1.05-.5 2.15-.56 3.25-.03.8.28 1.57.85 2.14.57.56 1.34.87 2.14.85l4.4-.06c2.57-.03 4.8-1.8 5.43-4.28 1.9-7.72 1.16-19.43 1.16-19.43z"/>
    <path stroke="#52267D" stroke-width=".5" d="M55.4 179.1l-.98.88.96.84 1.53-.6-.3-.68-1.28.32v.23l.34-.03"/>
    <path fill="#9452BA" fill-rule="nonzero" stroke="#52267D" stroke-width="2" d="M55.05 149c4.38-.14 8.44-3.2 17.38-3.74.1-.53.26-1.05.47-1.55 1.57-3.5 3.73-13.63 2.18-20.24l-1.23-5.23c-.4-1.7-.62-3.47-.64-5.23 0-.72.06-1.44.2-2.15 0-.17.04-.35.1-.52.13-.5.3-1 .5-1.5l.2-.46c.15-.3.3-.62.48-.9.17-.3.36-.6.56-.87.6-.83 1.32-1.57 2.13-2.2.27-.2.55-.4.84-.57 1.66-1.03 3.56-1.6 5.5-1.6h1.75c2.82-.06 5.54 1.02 7.56 3 .26.23.5.48.7.74.4.47.77.98 1.08 1.52l.34.6.22.48c.42.95.7 1.97.82 3 .04.36.07.73.07 1.1 0 .7-.26 1.37-.75 1.87-.5.5-1.17.8-1.87.8l-10.88.14 1.77 9.5c2.05 9.68 1.55 16.2.1 20.53-.32 1-2.18 4.4-2.18 4.4 5.55 8.53 13.95 12.18 22.9 13.16 7.6.82 23.9-6.3 15.34-14.2-8.55-7.9 1.72-3.06 3.24-2.07 1.52 1 10.3 8.4 1 19.53-3.93 4.7-8.4 9-19.22 12.38-1.74.54-11.24 1.35-16.34 2.9-15.2 4.56-27.64 0-34.7-10-7.08-10-1.3-22.57.4-22.64z"/>
    <path fill="#9452BA" fill-rule="nonzero" stroke="#52267D" stroke-width="2" d="M64.33 134.42c.2-11.26-8.84-20-19-21.74-2.1-.36-2.8-1-5.1-1h-1.78c-5.95.08-10.7 4.96-10.64 10.9.03 1.5 1.25 2.68 2.73 2.66l18.2-.24h1.48-1.47c4 1.65 6.6 6.74 7.06 9.5.72 3.27.37 6.7-1 9.77-.77 1.75-1.04 3.66-.8 5.55h.1c.1 1.05.28 2.1.53 3.1 1.7-1.2 4.32-3 4.8-3.28 1-.57 3.4-1.85 4.44-2.47 6.64-3.9.34-6.34.46-12.75z"/>
    <path fill="#F3E3FF" fill-rule="nonzero" stroke="#52267D" d="M58.72 147.5c-.1-1.73-.4-2.62-.2-3.33 1.07-4.1 1.42-5.38 1.37-9.7-.16-4.4-2.52-8.42-6.3-10.7-1.72-.2-3.47.25-4.9 1.27 4 1.65 6.6 6.74 7.07 9.5.73 3.27.38 6.7-1 9.77-.76 1.76-1.03 3.67-.78 5.56 0 0 4.93 1.78 4.77-2.35"/>
    <path fill="#FFF" fill-rule="nonzero" stroke="#52267D" d="M32.8 113.62c.06-1.15.77-2.17 1.83-2.62l1.6-.67s1.14 2.34-.1 3c-1.05.5-2.22.6-3.33.3zM37.47 112.24c.07-1.6 1.3-2.88 2.9-3 .54-.08 1.94-.06 1.94-.06s.7 2.7-.83 3c-1.32.2-2.67.22-4 .06zM43.2 112.4s.34-2.84 2.9-2.1c.68.2 1.27.6 1.72 1.15 0 0-.48 2.17-1.5 1.94-1.07-.25-2.1-.58-3.12-1zM50.8 126.12s5.9-3.3 4.7-8.75c1.35 1.1 2.6 2.32 3.73 3.63 0 1.07.26 5.3-5.55 8.2-.9-1.08-1.85-2.1-2.88-3.08z"/>
    <path fill="#F3E3FF" fill-rule="nonzero" d="M33.6 113.1c.03-.6.4-1.15.96-1.38l.83-.35s.58 1.2-.07 1.53c-.53.27-1.14.34-1.72.2zM38.7 111.64c.03-.8.66-1.46 1.47-1.52h1s.35 1.38-.43 1.52c-.68.1-1.37.1-2.05 0zM44.12 112.2s.18-1.52 1.54-1.12c.36.1.67.32.9.6 0 0-.25 1.16-.8 1-.55-.1-1.1-.28-1.64-.5z"/>
    <path fill="#F3E3FF" fill-rule="nonzero" d="M42.18 118.37h.48c1.37-.03 2.5 1.07 2.52 2.44 0 1.38-1.08 2.5-2.45 2.52l-5.45.07c-.02-2.74 2.17-4.98 4.9-5.03z" opacity=".3"/>
    <path fill="#FFF" fill-rule="nonzero" stroke="#52267D" d="M41.23 119.34h1c1.1-.03 2 .86 2.02 1.96.02 1.1-.87 2-1.97 2.03l-4.9.06c-.04-1.06.34-2.1 1.07-2.85.72-.76 1.72-1.2 2.78-1.2z"/>
    <circle cx="39.33" cy="121.21" r="1.09" fill="#52267D" fill-rule="nonzero" transform="rotate(-.72 39.33 121.214)"/>
    <path fill="#52267D" fill-rule="nonzero" d="M30.25 124.47c.3-.07.56-.23.75-.47l.36-.46-.8.18-.5.1c-.08.03-.16.08-.2.16-.05.08-.07.17-.05.26.04.1.1.17.18.2.08.05.18.06.27.03z"/>
    <path fill="#EAF3FB" fill-rule="nonzero" d="M51.8 126.22s4.56-2.53 4.42-7.5c.98.6 1.84 1.37 2.54 2.28-.17 1.3-.65 2.52-1.4 3.58-1.67 1.9-3.43 2.5-5.56 1.64z"/>
    <path fill="#FFF" fill-rule="nonzero" stroke="#52267D" d="M56.14 125.3c-1.05 1.07-2.24 2-3.54 2.76"/>
    <path fill="#9452BA" fill-rule="nonzero" stroke="#52267D" stroke-width="2" d="M74.37 144.4l-1-2c-3.93-9.32-4.6-14.82-2.73-23.8l1.1-5.26c.35-1.73.52-3.5.5-5.25-.08-5.88-4.9-10.58-10.77-10.5h-1.72c-2.78.02-5.44 1.16-7.38 3.15-1.94 2-3 4.68-2.98 7.46v.3c0 1.38 1.1 2.5 2.48 2.5l10.87-.14-1.53 9.47c-4.72 25.4-4.1 35.67 5.78 33.42"/>
    <path fill="#FFF" fill-rule="nonzero" stroke="#52267D" d="M54.48 98.93c.15-1.16.92-2.15 2-2.6.47-.12.96-.12 1.43 0 0 0 1.1 1.67-.17 2.23-1 .5-2.16.64-3.25.37zM58.83 98.27c.1-1.8 1.5-3.24 3.3-3.37.45-.04.92-.04 1.38 0 0 0 1.6 3-.13 3.35-1.5.2-3.03.22-4.54.02zM64.68 98.85s.4-2.78 2.9-2c.65.2 1.22.6 1.65 1.15 0 0-.53 2.12-1.52 1.86-1.03-.25-2.04-.6-3.02-1z"/>
    <path fill="#F3E3FF" fill-rule="nonzero" stroke="#52267D" d="M55.28 148.67c.53-.4 1.13-.7 1.78-.88M58.88 148.57c-1.87-7.2 1.17-21 1.7-24.45l2.17-13.64h1c.64.05 1.24.37 1.64.88.4.5.57 1.15.48 1.8L64.36 125c-.52 4-.9 22.53 6.1 26.42 1.5.83 3.9.24 4.8-.2 3.3-1.62 4.2-5.75 4.87-9.08 1.4-6.9.18-12.27-.22-17.65l-.42-6.74c-.1-1.27.82-2.4 2.1-2.54h1.23l2.42 13.6c.72 3.86 2.62 17.28-5.22 23.68-.14.12 1.93.55 1.35 1.62-2.33 4.24-9.23 5-10.5 6.8-4.92 7 0 21.75 0 21.75-3.26-1.28-6.32-3.03-9.07-5.2-8.14-7.1-9.3-17.53-9.36-20.6-.1-3.7.85-6 2-7.36"/>
    <path fill="#FFF" fill-rule="nonzero" stroke="#52267D" d="M124.26 153.77c.7-.84.86-2 .46-3-.2-.4-.52-.75-.9-1 0 0-1.8.33-1.4 1.53.3 1.02.94 1.9 1.84 2.47z"/>
    <path fill="#F3E3FF" fill-rule="nonzero" d="M123.86 152c.22-.28.28-.66.16-1-.08-.14-.2-.25-.32-.33 0 0-.62.12-.5.54.13.34.36.62.66.8z"/>
    <path fill="#FFF" fill-rule="nonzero" stroke="#52267D" d="M115 163c-.62-1.55 0-3.32 1.46-4.13.37-.23.76-.42 1.16-.58 0 0 2.52 1.93 1.2 2.87-1.2.78-2.47 1.4-3.82 1.83z"/>
    <path fill="#F3E3FF" fill-rule="nonzero" d="M115.9 162c-.34-.86 0-1.84.82-2.3.2-.1.42-.22.64-.3 0 0 1.4 1.07.66 1.6-.65.42-1.36.76-2.1 1z"/>
    <path fill="#FFF" fill-rule="nonzero" stroke="#52267D" d="M122.83 154.75s1.9 1.63.12 3.13c-.47.4-1.05.63-1.66.7 0 0-1.35-1.4-.7-2 .7-.68 1.44-1.3 2.23-1.83z"/>
    <path fill="#F3E3FF" fill-rule="nonzero" d="M122.57 155.92s.84.72.05 1.38c-.2.17-.46.28-.73.3 0 0-.6-.6-.3-.9.3-.28.62-.54.97-.78z"/>
    <path fill="#FFF" fill-rule="nonzero" stroke="#52267D" d="M106 164.37c-.35-1.34.43-2.72 1.77-3.1 2.42-.9 3.08-.2 3.08-.2s1.37 2.25.18 3c-1.2.77-5.03.3-5.03.3z"/>
    <path fill="#F3E3FF" fill-rule="nonzero" d="M107.14 163.86c-.18-.7.23-1.4.92-1.6 1.26-.48 1.6-.1 1.6-.1s.7 1.16.1 1.54c-.86.23-1.75.3-2.62.16z"/>
    <path fill="#FFF" fill-rule="nonzero" stroke="#52267D" d="M62.26 113.8c2.96 1.32 6.33 1.35 9.32.1L70.5 119s-5 1.6-8.94-.8c.38-2.2.7-4.4.7-4.4zM91.12 103.6c-.17-1.17-.96-2.17-2.06-2.6-.7-.16-1.4-.25-2.1-.26 0 0-.4 2 .86 2.54 1.02.5 2.2.62 3.3.32zM86.42 102.7c-.1-1.55-1.38-2.78-2.94-2.85-.4-.03-.8-.03-1.2 0 0 0-1.32 2.68.2 2.9 1.3.17 2.63.16 3.94-.04zM81 103s-.48-2.8-3-1.92c-.65.23-1.22.66-1.63 1.2 0 0 .58 2.13 1.58 1.85 1.05-.3 2.07-.67 3.05-1.13z"/>
    <path fill="#F3E3FF" fill-rule="nonzero" d="M55.43 98.45c.08-.62.48-1.15 1.05-1.4.25-.06.52-.06.77 0 0 0 .58.9-.08 1.2-.54.28-1.16.35-1.74.2zM59.9 97.77c.05-1.14.96-2.05 2.1-2.12.3-.02.58-.02.87 0 0 0 1 1.9-.1 2.1-.94.14-1.9.15-2.87.02zM65.76 98.56S66 97 67.43 97.42c.4.12.74.35 1 .67 0 0-.3 1.2-.88 1.07-.6-.15-1.2-.36-1.8-.6zM90.2 103.13c-.1-.62-.5-1.13-1.1-1.36-.35-.1-.72-.13-1.1-.14 0 0-.2 1 .46 1.34.54.26 1.16.32 1.74.16zM85.3 102.28c-.05-.86-.75-1.54-1.6-1.58-.23-.02-.46-.02-.68 0 0 0-.72 1.48.1 1.6.73.1 1.47.1 2.2-.02zM80 102.78s-.26-1.53-1.63-1.05c-.35.13-.66.36-.9.66 0 0 .33 1.15.87 1 .57-.17 1.12-.37 1.66-.62z"/>
    <path fill="#FFF" fill-rule="nonzero" stroke="#52267D" d="M73.9 118.45c3.12.38 6.3.2 9.35-.5.48 2.48.78 4.35.78 4.35s-3.14 2.2-9 1c-.72-3.16-1.13-4.85-1.13-4.85z"/>
    <path fill="#F3E3FF" fill-rule="nonzero" d="M87.2 113.47l-5.43.07c-1.36 0-2.47-1.07-2.5-2.42-.03-1.37 1.07-2.5 2.44-2.5l.5-.02c2.75-.03 5.02 2.18 5.05 4.94l-.04-.07z" opacity=".3"/>
    <path fill="#FFF" fill-rule="nonzero" stroke="#52267D" d="M87.12 113.37l-4.75.06c-1.15 0-2.1-.9-2.12-2.06 0-1 .8-1.82 1.8-1.84h1.12c1.04-.02 2.03.37 2.77 1.1.74.72 1.17 1.7 1.18 2.74z"/>
    <circle cx="85.34" cy="112" r="1.09" fill="#52267D" fill-rule="nonzero" transform="rotate(-26.65 85.34 111.998)"/>
    <path fill="#F3E3FF" fill-rule="nonzero" d="M62.33 104.1h.48c1.38-.02 2.5 1.08 2.52 2.45.02 1.37-1.07 2.5-2.44 2.5l-5.45.08c-.04-2.76 2.17-5.03 4.93-5.06l-.03.04z" opacity=".3"/>
    <path fill="#FFF" fill-rule="nonzero" stroke="#52267D" d="M61.37 105.1l1-.02c1.1-.02 2 .87 2.02 1.97 0 1.1-.88 2-1.98 2.02l-4.9.07c-.03-2.16 1.7-3.93 3.85-3.95v-.1z"/>
    <circle cx="59.56" cy="107.06" r="1.09" fill="#52267D" fill-rule="nonzero" transform="rotate(-50.93 59.564 107.062)"/>
    <path fill="#52267D" fill-rule="nonzero" d="M93.8 114.52c-.33-.07-.6-.26-.8-.52l-.37-.45.82.16.48.1c.1.03.17.08.22.15.05.08.07.17.05.26 0 .1-.06.2-.13.26-.08.06-.18.08-.28.06zM51.72 109.95c.3-.07.6-.25.78-.5l.36-.46-.8.17-.5.1c-.08.03-.16.08-.2.16-.05.08-.07.17-.05.26.03.08.08.16.16.2.08.05.17.07.26.05z"/>
    <path fill="#EAF3FB" fill-rule="nonzero" d="M62.74 114.5c2.63.96 5.52.96 8.15 0-.2 1.23-.46 2.44-.78 3.64-1.37.1-2.74.05-4.1-.13-2.32-.37-3.26-1.4-3.28-3.5z"/>
    <path fill="#FFF" fill-rule="nonzero" stroke="#52267D" d="M68.42 117.5c-2.25.2-4.5-.2-6.57-1.08"/>
    <path fill="#EAF3FB" fill-rule="nonzero" d="M81.5 118.9c-2.2.62-4.5.78-6.76.47.27 1.05.6 2.08 1 3.1 0 0 4.7-.7 5.77-3.57z"/>
    <path fill="#F3E3FF" fill-rule="nonzero" stroke="#52267D" stroke-width=".5" d="M80 152.5l-.52.35"/>
    <path fill="#FFF" fill-rule="nonzero" stroke="#52267D" d="M81.87 120.25c-2.46.44-4.98.55-7.47.32"/>
    <path fill="#FFF" fill-rule="nonzero" stroke="#52267D" stroke-width=".5" d="M76.87 194.87c-.72-.47-1.67-.34-2.24.3-1.15 1-2 2.46-1.5 2.6.8.2 1.62.24 2.42.1.84-.17 1.58 0 1.9-1.8.08-.47-.15-.96-.58-1.2z"/>
    <path fill="#EAF3FB" fill-rule="nonzero" d="M76.65 195.16c-.44-.3-1.03-.2-1.4.18-.7.6-1.24 1.53-.92 1.62.5.13 1 .14 1.5.05.52-.1 1 0 1.18-1.1.05-.3-.1-.6-.35-.74z"/>
    <path fill="#FFF" fill-rule="nonzero" stroke="#52267D" stroke-width=".5" d="M78.23 194.84c.5-.07 1.25 1 1.17 1.36-.08.36-.12 1.45-.94 1.58-.6.1-2.76.35-3.24-.1-.48-.47.4-2.46 3-2.84z"/>
    <path fill="#EAF3FB" fill-rule="nonzero" d="M78.38 195.14c.3 0 .74.6.7.8-.06.2-.08.85-.57.93-.48.08-1.62.2-1.9-.07-.28-.28.23-1.43 1.78-1.66z"/>
    <path fill="#FFF" fill-rule="nonzero" stroke="#52267D" stroke-width=".5" d="M80.38 195s-.44-.22-1.3.28c-.86.5-1.9 1.16-1.6 2 .32.84 2.74.5 3.28.32.53-.2.85-.73.77-1.3-.1-.6-.55-1.1-1.15-1.3z"/>
    <path fill="#EAF3FB" fill-rule="nonzero" d="M80.55 195.33s-.26-.13-.77.17c-.5.3-1.12.7-.94 1.2.18.5 1.62.3 1.94.2.3-.13.5-.45.45-.78-.06-.37-.32-.67-.68-.8z"/>
    <path fill="#9452BA" fill-rule="nonzero" stroke="#52267D" stroke-width="2" d="M69.9 167.34c.3 4.83.04 9.68-.75 14.46-1.23 8.24-3.55 10.84-3.35 13 .15 1.65.87 3.15 2.53 3.13l4.94-.06c2.3-.05 4.3-1.54 5-3.72.74-2.34 1.25-4.76 1.5-7.2.24-3.55.28-7.1.1-10.67M95.27 170.74c-1.6 1.53-2.47 3.66-2.4 5.87.05 2.84 1.74 6.42.76 11.14-.87 4.2-2.7 5-2.1 8.7.1.7.7 1.18 1.4 1.16l5.5-.07c2.54-.03 4.68-1.9 5.07-4.4.75-5.94.47-11.96-.85-17.8"/>
    <path stroke="#52267D" stroke-width=".5" d="M96.43 176.96l.32-.23 1.05.22-1.15.76-1.4-.67 1.43-1.18.66.22"/>
    <path fill="#FFF" fill-rule="nonzero" stroke="#52267D" d="M66.87 195c-.72-.47-1.67-.34-2.24.3-1.15 1-2 2.46-1.5 2.6.8.2 1.62.24 2.42.1.84-.17 1.58 0 1.9-1.8.08-.47-.15-.96-.58-1.2z"/>
    <path fill="#EAF3FB" fill-rule="nonzero" d="M66.66 195.3c-.44-.3-1.03-.22-1.4.17-.7.6-1.24 1.53-.92 1.62.5.12 1 .13 1.5.04.52-.1 1 0 1.18-1.1.04-.3-.1-.6-.36-.75z"/>
    <path stroke="#52267D" stroke-width=".5" d="M74.25 180.35l-1.96.64.27 1.8 2.02.13.9-1.1-1.2-.65-1 .3.65.7"/>
    <g stroke="#F3E3FF" stroke-width=".25" opacity=".3">
      <path d="M31.33 120.85c-.03.2.07.4.24.53.18.1.4.1.6 0 .16-.12.26-.32.23-.53"/>
      <path d="M30.26 120.86c-.03.2.07.4.24.53.18.1.4.1.6 0 .16-.13.26-.33.23-.54"/>
      <path d="M30.8 121.4c-.03.2.07.4.24.52.18.1.4.1.6 0 .16-.12.26-.32.23-.53M51.85 120.1c.37.2.85.08 1.07-.28.22-.37.1-.85-.25-1.08M52.12 121.17c.37.2.85.1 1.07-.27.2-.37.1-.85-.26-1.08M77.5 137.77c0 .4.32.72.72.72.4 0 .72-.33.72-.73M76.06 137.8c0 .4.32.7.72.7.4 0 .72-.3.72-.7M76.8 138.5c0 .4.3.72.7.72.4 0 .73-.32.73-.72M56.6 183.57c0 .4.33.72.73.72.4 0 .72-.33.72-.73M55.17 183.58c0 .4.32.72.72.72.4 0 .7-.32.7-.72M55.9 184.3c0 .4.32.7.72.7.4 0 .72-.3.72-.7M76.1 114.88c0 .44.35.8.8.8.43 0 .78-.36.78-.8M75.32 115.68c0 .44.35.8.8.8.43 0 .78-.36.78-.8M66.18 129c-.12.4.03.85.38 1.1.35.24.8.24 1.16 0 .35-.25.5-.7.38-1.1"/>
      <path d="M65.24 129.92c-.12.4.03.85.38 1.1.35.24.8.24 1.16 0 .35-.25.5-.7.38-1.1M51.95 105.27c0 .35.3.64.64.64s.63-.28.63-.63M51.3 105.92c0 .35.3.64.65.64.35 0 .64-.3.64-.64M113.16 169.2c.28.32.75.35 1.06.07.3-.28.34-.75.06-1.06"/>
      <path d="M113.1 170.26c.27.3.74.34 1.05.06.3-.28.34-.75.06-1.06M83.66 159.38c.22.4.72.56 1.13.36.4-.2.6-.67.43-1.1"/>
      <path d="M82.1 160.12c.12.3.4.52.72.55.32.04.64-.1.82-.4.18-.26.2-.6.03-.9"/>
      <path d="M83.25 160.54c.22.4.72.56 1.13.36.4-.2.6-.67.44-1.1"/>
      <path d="M81.68 161.27c.22.4.72.56 1.13.36.42-.2.62-.67.45-1.1M84.4 161c.22.4.72.56 1.13.36.4-.2.6-.67.44-1.1M68 111.56c0 .48.4.88.88.88s.87-.4.87-.88M68.08 144.6c0 .5.4.9.88.9s.87-.4.87-.9M77.76 126.27c0 .37.3.66.66.66.37 0 .67-.3.67-.66M93.35 111c0 .28.22.5.5.5s.5-.22.5-.5M98.4 184.06c.07.3.28.56.58.66.3.1.62.05.86-.16.24-.2.35-.5.3-.82M74.33 190.8c-.12.4.03.85.38 1.1.36.24.82.24 1.17 0 .35-.25.5-.7.38-1.1"/>
      <path d="M73.38 191.78c-.12.4.03.85.38 1.1.35.24.8.24 1.16 0 .35-.25.5-.7.38-1.1"/>
    </g>
    <path fill="#FFF" fill-rule="nonzero" stroke="#52267D" d="M68.24 195c.5-.07 1.25 1 1.17 1.36-.07.36-.1 1.45-.93 1.58-.6.1-2.76.35-3.24-.1-.48-.47.4-2.5 3-2.84z"/>
    <path fill="#EAF3FB" fill-rule="nonzero" d="M68.38 195.27c.3 0 .74.6.7.8-.06.2-.08.85-.57.93-.48.08-1.62.2-1.9-.07-.28-.28.24-1.43 1.78-1.66z"/>
    <path fill="#FFF" fill-rule="nonzero" stroke="#52267D" d="M70 195.48s-.4-.2-1.15.25c-.76.45-1.68 1-1.4 1.8s2.42.45 2.9.28c.46-.16.75-.64.67-1.14-.1-.55-.48-1-1.02-1.18z"/>
    <path fill="#EAF3FB" fill-rule="nonzero" d="M70.2 195.76s-.23-.12-.68.15c-.45.28-1 .62-.83 1.07.16.45 1.42.27 1.7.17s.45-.4.4-.68c-.05-.33-.28-.6-.6-.7z"/>
    <path fill="#FFF" fill-rule="nonzero" stroke="#52267D" d="M49.78 196s-.4-.2-1.15.25c-.76.45-1.68 1-1.4 1.8s2.42.45 2.9.28c.46-.17.75-.65.67-1.15-.1-.55-.48-1-1.02-1.18z"/>
    <path fill="#EAF3FB" fill-rule="nonzero" d="M49.92 196.22s-.23-.12-.68.15c-.45.27-1 .6-.83 1.06.18.45 1.44.27 1.72.17s.45-.4.4-.68c-.05-.33-.28-.6-.6-.7z"/>
    <path fill="#FFF" fill-rule="nonzero" stroke="#52267D" d="M52.1 195.38c.52-.07 1.26 1 1.18 1.36-.08.36-.12 1.45-.94 1.58-.6.1-2.76.35-3.24-.1-.48-.47.4-2.45 3-2.84z"/>
    <path fill="#EAF3FB" fill-rule="nonzero" d="M52.26 195.7c.3 0 .74.6.7.8-.06.2-.08.84-.57.92-.5.08-1.64.2-1.92-.07-.28-.28.23-1.44 1.78-1.66z"/>
    <path fill="#FFF" fill-rule="nonzero" stroke="#52267D" stroke-width=".5" d="M93.6 194.66c-.72-.47-1.67-.34-2.24.3-1.15 1-2 2.46-1.5 2.6.8.2 1.62.24 2.42.1.84-.17 1.58 0 1.9-1.8.08-.47-.15-.96-.58-1.2z"/>
    <path fill="#EAF3FB" fill-rule="nonzero" d="M93.4 195c-.45-.3-1.04-.2-1.4.18-.72.6-1.25 1.53-.93 1.62.5.13 1 .14 1.5.05.52-.1 1 0 1.18-1.1.04-.3-.1-.6-.36-.75z"/>
    <path fill="#FFF" fill-rule="nonzero" stroke="#52267D" stroke-width=".5" d="M95 194.63c.5-.07 1.25 1 1.17 1.36-.08.35-.12 1.44-.94 1.57-.6.1-2.76.35-3.24-.1-.5-.47.34-2.47 3-2.84z"/>
    <path fill="#EAF3FB" fill-rule="nonzero" d="M95.1 194.93c.3 0 .75.6.7.8-.05.2-.07.85-.56.93-.5.08-1.63.2-1.9-.07-.3-.3.22-1.44 1.77-1.67z"/>
    <path fill="#FFF" fill-rule="nonzero" stroke="#52267D" stroke-width=".5" d="M96.78 195.15s-.4-.2-1.15.25c-.76.45-1.68 1-1.4 1.8s2.42.45 2.9.28c.46-.17.75-.65.67-1.15-.1-.55-.48-1-1.02-1.18z"/>
    <path fill="#EAF3FB" fill-rule="nonzero" d="M96.93 195.42s-.23-.12-.68.15c-.45.27-1 .6-.83 1.06.17.45 1.43.27 1.7.17.3-.1.46-.4.4-.68-.04-.33-.27-.6-.6-.7z"/>
    <path fill="#FFF" fill-rule="nonzero" stroke="#52267D" d="M58.8 195.77c.12-.13.32-.17.5-.1.58.27 2.06 1 1.77 2.1-.23.82-.73.58-1.7.6h-.73c-.15 0-.3-.07-.37-.2-.4-.8-.2-1.78.46-2.38l.06-.03z"/>
    <path fill="#EAF3FB" fill-rule="nonzero" d="M58.87 196c.1-.1.24-.13.37-.08.43.2 1.5.75 1.3 1.52-.17.6-.54.43-1.24.45h-.53c-.1 0-.2-.06-.27-.16-.3-.58-.16-1.3.33-1.73h.04z"/>
    <path fill="#FFF" fill-rule="nonzero" stroke="#52267D" d="M55.38 195.5c-.67-.52-1.63-.48-2.25.1-1.23.87-2.22 2.3-1.7 2.47.76.27 1.58.37 2.4.3.84-.1 1.57.1 2-1.62.1-.47-.06-.96-.45-1.25z"/>
    <path fill="#EAF3FB" fill-rule="nonzero" d="M55.14 195.77c-.42-.33-1-.3-1.4.06-.77.54-1.38 1.42-1.06 1.54.48.17 1 .23 1.5.18.52-.06 1 .08 1.26-1 .07-.3-.05-.6-.3-.78z"/>
    <circle cx="130.31" cy="107.17" r="13.38" fill="#FFF" fill-rule="nonzero"/>
    <circle cx="133.46" cy="104.65" r="13.38" fill="#FFF" fill-rule="nonzero" stroke="#375D81" stroke-width="2"/>
    <path stroke="#375D81" stroke-width="2" d="M133.88 99.68v10.63M139.2 105h-10.63" stroke-linecap="round" stroke-linejoin="round"/>
    <circle cx="174.12" cy="66.33" r="22.5" fill="#EFEFF6" fill-rule="nonzero"/>
    <circle cx="92.69" cy="69.56" r="18.28" fill="#EFEFF6" fill-rule="nonzero"/>
    <circle cx="177.67" cy="148.25" r="18.95" fill="#EFEFF6" fill-rule="nonzero"/>
    <circle cx="169.07" cy="113.57" r="1" stroke="#375D81"/>
    <path stroke="#375D81" d="M122.07 41.2v3.92M124.04 43.16h-3.94M144.6 165.2v3.92M146.58 167.16h-3.94" stroke-linecap="round"/>
    <path fill="#FFF" fill-rule="nonzero" stroke="#9ACDED" stroke-width="2" d="M181.92 157.46l-12.2 9.18-12.18-9.18c-4.45-3.35-7.07-8.6-7.07-14.17V126.2l1.06-.3c6.28-1.72 12.38-4.06 18.2-7l.16.1c5.8 2.9 11.9 5.26 18.17 6.98l.92.25v17.07c-.02 5.56-2.64 10.8-7.08 14.14z"/>
    <path fill="#E1F2FF" fill-rule="nonzero" stroke="#9ACDED" stroke-width="2" d="M178.5 153.36l-8.77 6.64-8.73-6.64c-3.2-2.42-5.1-6.2-5.1-10.2v-12.3l.77-.2c4.52-1.24 8.92-2.92 13.1-5l.12.05c4.18 2.1 8.57 3.78 13.1 5l.65.2v12.28c-.02 4-1.92 7.78-5.14 10.18z"/>
    <circle cx="169.73" cy="141.8" r="8.19" fill="#FFF" fill-rule="nonzero"/>
    <path fill="#9452BA" fill-rule="nonzero" d="M172.26 146.4c0 .12.08.2.1.23-.28-2.58 1.2-3.66 1.66-5.37v-.08-.12c.03-.57-.14-1.14-.5-1.6l-.1-.14-.18-.26-.06-.07-.06-.08-.06-.07-.06-.07v-.05c-.63-.7-1.35-1.35-2.12-1.9.1.9.1 1.82 0 2.72-.15 1.04-.45 2.05-.9 3-1.06-.08-2.1-.32-3.08-.7-.83-.38-1.62-.85-2.35-1.4v1.69l.06.23.22.7c.12.34.27.68.44 1l.07.13.07.1.08.1.1.15.12.14.1.08.05.05H166.25c1.72.46 3.4-.27 5.5 1.24"/>
    <circle cx="169.73" cy="122.27" r="1" fill="#9ACDED" fill-rule="nonzero"/>
    <circle cx="186.02" cy="128.7" r="1" fill="#9ACDED" fill-rule="nonzero"/>
    <circle cx="153.93" cy="128.7" r="1" fill="#9ACDED" fill-rule="nonzero"/>
    <circle cx="153.93" cy="147.74" r="1" fill="#9ACDED" fill-rule="nonzero"/>
    <circle cx="185.61" cy="147.74" r="1" fill="#9ACDED" fill-rule="nonzero"/>
    <circle cx="169.73" cy="163" r="1" fill="#9ACDED" fill-rule="nonzero"/>
    <path fill="#E1F2FF" fill-rule="nonzero" stroke="#9ACDED" stroke-width="2" d="M88.8 59.34l-2.5 2.63-11.7-11.9 1.7-1.8z"/>
    <path fill="#FFF" fill-rule="nonzero" stroke="#9ACDED" stroke-width="2" d="M87.57 65.77l5.1-5.38 23 23.85c1.8 1.78 3.07 4.05 3.64 6.53l.16.65-.66-.1c-2.52-.45-4.86-1.6-6.74-3.33l-24.5-22.23z"/>
    <circle cx="74.14" cy="47.92" r="2.81" fill="#E1F2FF" fill-rule="nonzero" stroke="#9ACDED" stroke-width="2" transform="rotate(-46.51 74.136 47.923)"/>
    <path fill="#FFF" fill-rule="nonzero" stroke="#9ACDED" stroke-width="2" d="M80.48 68.22L94.74 53.2c.94-1 2.5-1.04 3.5-.1l.7.7-17.67 18.63-.72-.7c-.48-.45-.76-1.08-.77-1.74 0-.67.24-1.3.7-1.78z"/>
    <path fill="#FFF" fill-rule="nonzero" stroke="#9ACDED" stroke-width="2" d="M90.12 63.08l11.8 11.2M90.12 63.08L103 75.3" stroke-linecap="round"/>
    <path stroke="#9ACDED" stroke-width="2" d="M78.02 53.46l1.84-1.94M81.93 57.17l1.85-1.94"/>
    <path fill="#FFF" fill-rule="nonzero" stroke="#9ACDED" stroke-width="2" d="M140 80.42h46.56c0 2.47-2 4.48-4.48 4.48h-37.6c-2.47 0-4.48-2-4.48-4.48z"/>
    <path fill="#FFF" fill-rule="nonzero" stroke="#9ACDED" stroke-width="2" d="M153.92 80.42c.15-.66 2.43-4.75 4.12-7.76 1.13-2 3.26-3.25 5.57-3.25h11v11l-20.68.02z"/>
    <path fill="#FFF" fill-rule="nonzero" stroke="#E1F2FF" stroke-width="2" d="M173.65 69.3s9.5-16.24 18-13.95c8.5 2.3 9.6 6.92 5.55 5.78-4.04-1.14-4.43-.18-1.92.88 2.5 1.07 4 3.65-1.36 2.23-3.53-.95-5.6 1-3.15 1.06 1.93 0 6.4 2.4 3.42 2.63-2.17.17-4.6-.4-7.56-.94-1.57-.3 3.07 2.4 1.35 2.93-2.72.86-7.52-1.94-9-.2-3.65 4.17-5.35-.44-5.35-.44z"/>
    <path fill="#E1F2FF" fill-rule="nonzero" stroke="#9ACDED" stroke-width="2" d="M155.68 76.92h7.84l-2 3.5h-7.6z"/>
    <path fill="#E1F2FF" fill-rule="nonzero" stroke="#9ACDED" stroke-width="2" d="M183 84.9h-26.34c3.1-1.88 5.52-4.72 6.87-8.1 1.85-4.46 6.2-7.38 11.05-7.4 6.63 0 12 5.38 12 12 0 .95-.4 1.84-1.07 2.5-.66.64-1.56 1-2.5 1z"/>
    <circle cx="173.53" cy="73.43" r="3.1" fill="#FFF" fill-rule="nonzero"/>
    <circle cx="174.42" cy="71.94" r="1.98" fill="#FFF" fill-rule="nonzero" stroke="#9ACDED" stroke-width="2"/>
    <path stroke="#E1F2FF" stroke-width="2" d="M179.23 66.37s6.33-7.25 9.83-7.75" stroke-linecap="round"/>
    <path stroke="#375D81" d="M195.6 82.93v3.93M197.58 84.9h-3.94" stroke-linecap="round"/>
  </g>
</svg>