<svg width="256" height="256" xmlns="http://www.w3.org/2000/svg">
  <g fill="none" fill-rule="evenodd">
    <path d="M25 228.56C25 171.365 71.365 125 128.56 125s103.56 46.365 103.56 103.56H25z" fill="#E1F2FF" fill-rule="nonzero"/>
    <path d="M212.48 177.24c0-19.794-16.046-35.84-35.84-35.84H79.36c-19.794 0-35.84 16.046-35.84 35.84v41.88h168.96v-41.88z" stroke="#5E63B6" stroke-width="4" fill="#FFF" fill-rule="nonzero"/>
    <path d="M165.497 188.5v-1.505 20.978c.178-.153 1.486-1.308 11.137-10.098 3.157-3.171 3.141-8.295 0-11.484-3.996-4.06-7.957-2.286-11.13.61l-.007 1.499zM165.497 188.5v-1.505 20.978c-.178-.153-1.487-1.308-11.138-10.098-3.156-3.171-3.141-8.295 0-11.484 3.996-4.06 7.958-2.286 11.13.61l.008 1.499z" stroke="#52267D" stroke-width="2" fill="#9452BA" fill-rule="nonzero"/>
    <path d="M106.24 105.56h43.52c17.672 0 32 14.328 32 32s-14.328 32-32 32h-43.52c-17.672 0-32-14.328-32-32s14.328-32 32-32z" stroke="#5E63B6" stroke-width="3" fill="#FFF" fill-rule="nonzero"/>
    <path d="M110.08 36.44h35.84c16.965 0 30.72 13.755 30.72 30.72v61.44c0 16.965-13.755 30.72-30.72 30.72h-35.84c-16.965 0-30.72-13.755-30.72-30.72V67.16c0-16.965 13.755-30.72 30.72-30.72z" stroke="#5E63B6" stroke-width="3" fill="#FFF" fill-rule="nonzero"/>
    <path d="M160 87.111h-15.36c-2.12 0-3.84.692-3.84 1.545 0 .852 1.72 1.544 3.84 1.544H160c2.12 0 3.84-.692 3.84-1.544 0-.853-1.72-1.545-3.84-1.545z" fill="#5E63B6" fill-rule="nonzero"/>
    <path d="M135.2 121s-5.226 3.5-7.68 3.5c-2.666 0-7.68-3.5-7.68-3.5-2.12 0-3.84.858-3.84 1.916 0 1.058 1.72 1.916 3.84 1.916 0 0 5.173 3.168 7.68 3.168 2.613 0 7.68-3.168 7.68-3.168 2.12 0 3.84-.858 3.84-1.916 0-1.058-1.72-1.916-3.84-1.916z" fill="#9ACDED" fill-rule="nonzero"/>
    <path d="M111.36 87.111H96c-2.12 0-3.84.692-3.84 1.545 0 .852 1.72 1.544 3.84 1.544h15.36c2.12 0 3.84-.692 3.84-1.544 0-.853-1.72-1.545-3.84-1.545z" fill="#5E63B6"/>
    <path d="M103.68 97.88a6.4 6.4 0 1 0 .001 12.801 6.4 6.4 0 0 0-.001-12.801z" fill="#9ACDED" fill-rule="nonzero"/>
    <path d="M152.32 97.88a6.4 6.4 0 1 0 .001 12.801 6.4 6.4 0 0 0-.001-12.801zM128.26 138c-1.8 0-3.26 1.434-3.26 3.2 0 1.768 1.46 3.2 3.26 3.2 1.8 0 3.26-1.432 3.26-3.2 0-1.766-1.46-3.2-3.26-3.2z" fill="#9ACDED"/>
    <path d="M79.36 67.16h97.28c5.95 0 20.48-11.028 20.48-33.28 0-4.37-2.23-7.677-7.68-7.677 0 0-71.974-2.83-107.52 10.237-9.815 3.725-12.8 12.59-12.8 17.92 0 .587.025 1.164.073 1.73l-.073.83v15.36c0 6.19 4.398 11.356 10.24 12.541V67.16z" stroke="#5E63B6" stroke-width="3" fill="#FFF" fill-rule="nonzero"/>
    <path d="M102.5 58h75.47M52.5 171.5v39" stroke="#E1F2FF" stroke-width="3" fill="#FFF" fill-rule="nonzero" stroke-linecap="round" stroke-linejoin="round"/>
    <g fill="#FFF" fill-rule="nonzero" stroke="#5E63B6" stroke-linecap="round" stroke-linejoin="round" stroke-width="3">
      <path d="M20 220h36M62 220h176.89M246 220h6.97M3 220h8.97M95 230h67.19M171 230h9.14M87 229l-5 .08"/>
    </g>
    <g stroke="#5E63B6" stroke-linecap="round">
      <path d="M206.98 68.4v7M210.48 71.9h-7M80 24v7M84 28h-7" stroke-width="2" stroke-linejoin="round"/>
      <path d="M42.73 188.68v3.94M44.7 190.65h-3.94"/>
      <path d="M217.73 128.68v3.94M219.7 130.65h-3.94" stroke-linejoin="round"/>
      <path d="M48.73 88.68v3.94M50.7 90.65h-3.94"/>
      <path d="M26.42 127.28v8.12M30.48 131.34h-8.13" stroke-width="2" fill="#FFF" fill-rule="nonzero"/>
    </g>
  </g>
</svg>
