<svg xmlns="http://www.w3.org/2000/svg" width="256" height="256">
  <g fill="none" fill-rule="evenodd" transform="translate(3 25)">
    <path fill="#E1F2FF" fill-rule="nonzero" d="M20.2 205.4c0-57.2 46.37-103.57 103.56-103.57 57.2 0 103.56 46.37 103.56 103.56H20.2z"/>
    <path fill="#FFF" fill-rule="nonzero" stroke="#375D81" stroke-width="2" d="M16.98 196.4h36M59.43 196.4h176.9" stroke-linecap="round" stroke-linejoin="round"/>
    <path stroke="#375D81" d="M132.95 3.13v3.94M134.92 5.1h-3.94M207.48 171.7v3.92M209.45 173.66h-3.94" stroke-linecap="round"/>
    <path stroke="#375D81" d="M214.73 103.68v3.94M216.7 105.65h-3.94" stroke-linecap="round" stroke-linejoin="round"/>
    <path stroke="#375D81" d="M13.2 146.84v3.93M15.17 148.8h-3.94" stroke-linecap="round"/>
    <path fill="#FFF" fill-rule="nonzero" stroke="#375D81" stroke-width="2" d="M33.92 52.26v8.12M37.98 56.32h-8.13M214.73 9.87V18M218.8 13.93h-8.13" stroke-linecap="round"/>
    <path fill="#FFF" fill-rule="nonzero" stroke="#375D81" stroke-width="2" d="M243.17 196.15h6.97M0 196.15h8.97M92.38 205.47h67.2M168.2 205.47h9.13M84.5 205.4l-5 .07" stroke-linecap="round" stroke-linejoin="round"/>
    <path fill="#FFF" fill-rule="nonzero" stroke="#9ACDED" stroke-width="2" d="M228 56l-26.6 66.9c-.3.77-1.16 1.14-1.92.84l-73.4-29.16c-1.84-.73-3.32-2.17-4.1-4L104.4 49.1c-.97-2.32.1-5 2.4-6L148.05 25c1.8-.8 3.87-.83 5.7-.1l73.4 29.16c.37.14.67.43.83.8.16.36.17.77.02 1.14z"/>
    <path fill="#E1F2FF" fill-rule="nonzero" d="M126.86 39.77l26.06-7.42 65.14 28.05-22.96 55.05-87.87-41.62"/>
    <circle cx="160.69" cy="69.8" r="18.33" fill="#EFEFF6" fill-rule="nonzero" transform="rotate(-68.33 160.693 69.798)"/>
    <circle cx="158.08" cy="66.37" r="18.33" fill="#FFF" fill-rule="nonzero" stroke="#9ACDED" stroke-width="2" transform="rotate(-68.33 158.078 66.366)"/>
    <path fill="#9ACDED" fill-rule="nonzero" d="M168.15 65.46h.47c-4.83-1.36-5.72-4.76-8.47-6.84l-.14-.1-.18-.12c-1-.46-2.16-.55-3.23-.26l-.34.07-.6.17h-.07l-.18.05-.18.05-.17.06-.18.06h-.14c-1.72.62-3.37 1.45-4.92 2.44 1.7.46 3.35 1.1 4.9 1.9 1.8 1 3.4 2.3 4.78 3.8-.9 1.83-2.06 3.5-3.47 5-1.26 1.22-2.66 2.3-4.16 3.23l.44.12h.14l.33.07h.16l.33.08h.12l.42.1.48.08.43.07h.1l.38.06h.08l.46.06c.48.06.95.1 1.4.12.73.04 1.45.02 2.16-.06h.53l.26-.05.33-.08h.05l.34-.12.23-.1h.1l.12-.05.1-.05.1-.07.1-.06.1-.07.1-.06.23.03.07-.06.1-.1.06-.05.14-.18.1-.1c2-2.77 2-6.3 6.15-9"/>
    <path stroke="#9ACDED" stroke-width="2" d="M182.56 98.87l15.23-38.34M192.68 102.9l15.24-38.35" stroke-linecap="round"/>
    <circle cx="122.51" cy="52.81" r="5.93" fill="#FFF" fill-rule="nonzero" stroke="#375D81" stroke-width="2" transform="rotate(-68.33 122.514 52.813)"/>
    <path fill="#FFF" fill-rule="nonzero" stroke="#9ACDED" stroke-width="2" d="M234.74 119.33l-62.9 61.76c-.34.33-.8.53-1.28.53-.5 0-.95-.2-1.3-.54l-67.7-69c-1.7-1.74-2.65-4.08-2.6-6.5l.82-55.15c.05-3.08 2.57-5.56 5.65-5.55l55.16.18c2.4.02 4.7 1 6.4 2.7l67.72 69c.7.7.7 1.84.02 2.55z"/>
    <path fill="#E1F2FF" fill-rule="nonzero" d="M128 55l32.15 3.63 59.2 60.5-50.3 50.36L90.9 83.7"/>
    <circle cx="152.56" cy="101.47" r="22.43" fill="#EFEFF6" fill-rule="nonzero" transform="rotate(-44.48 152.564 101.465)"/>
    <circle cx="151.33" cy="96.33" r="22.43" fill="#FFF" fill-rule="nonzero" stroke="#9ACDED" stroke-width="2" transform="rotate(-44.48 151.328 96.327)"/>
    <path fill="#9ACDED" fill-rule="nonzero" d="M163.06 100.32c.26.13.46.2.52.24-4.74-3.92-4-8.17-6.1-11.84l-.1-.17-.17-.24c-.9-1-2.13-1.68-3.48-1.88l-.4-.08-.76-.13h-1.14c-2.25-.13-4.5-.03-6.73.32 1.68 1.35 3.2 2.87 4.56 4.55 1.5 2 2.65 4.24 3.46 6.6-1.9 1.63-4.06 2.94-6.37 3.9-2.02.75-4.12 1.28-6.26 1.57l.44.36.14.1.32.26.15.1.33.26.13.1.43.3.5.34.43.3.1.06.4.26h.08l.48.3c.5.3 1.02.57 1.52.82.78.4 1.6.73 2.44 1l.34.1.3.08.32.07.4.07H151.42l.18-.06h.1l.23-.12.15-.07c3.67-2.1 5.3-6.1 11.36-7"/>
    <path stroke="#9ACDED" stroke-width="2" d="M162.65 144.86l36.03-35.4M172 154.38l36.03-35.4" stroke-linecap="round"/>
    <circle cx="118.22" cy="63.56" r="7.26" fill="#FFF" fill-rule="nonzero" stroke="#375D81" stroke-width="2" transform="rotate(-44.48 118.22 63.557)"/>
    <path fill="#9452BA" fill-rule="nonzero" stroke="#52267D" stroke-width="2" d="M78.76 196.3l5 .15c1.73.07 3.32-.94 4-2.53 1.9-4.5 1.58-8.7 1.9-12.26.58-6.6-.35-10-1.18-15.6H81s.55 2.77.74 11c.06 2.56-4.46 12.7-4.4 17.73 0 .8.62 1.45 1.42 1.5zM65 172.22l-5.8-7h-3.72l-1 8c-.83 5.38-2.04 10.7-3.64 15.9-.36 1.04-.6 2.13-.7 3.23-.07.8.2 1.6.74 2.22.54.6 1.3.96 2.12.98l4.4.13c2.57.1 4.88-1.55 5.62-4 2.2-7.74 1.98-19.46 1.98-19.46z"/>
    <path stroke="#52267D" stroke-width=".5" d="M56.37 176.67l-1.02.84.93.9 1.56-.55-.3-.7-1.28.28v.23h.34"/>
    <path fill="#9452BA" fill-rule="nonzero" stroke="#52267D" stroke-width="2" d="M57.3 146.6c4.37 0 8.56-2.86 17.5-3 .13-.53.3-1.04.54-1.53 1.72-3.45 4.3-13.47 3-20.14l-1-5.28c-.33-1.73-.47-3.5-.42-5.26.02-.73.1-1.45.28-2.15l.13-.5c.14-.5.32-1 .54-1.48l.23-.46c.16-.3.33-.6.52-.88.2-.3.4-.56.6-.83.64-.8 1.38-1.52 2.22-2.1.28-.2.57-.4.86-.56 1.7-.96 3.62-1.44 5.56-1.38l1.74.05c2.8.1 5.47 1.3 7.4 3.35.23.25.45.5.66.78.38.5.7 1 1 1.56l.3.62c.1.2.15.32.2.48.4.98.62 2.02.7 3.07.02.36.02.73 0 1.1-.02.7-.32 1.36-.83 1.84-.5.5-1.2.75-1.9.73l-10.9-.32 1.38 9.5c1.66 9.77.9 16.25-.73 20.53-.36 1-2.36 4.32-2.36 4.32 5.2 8.75 13.44 12.75 22.33 14.1 7.56 1.15 24.14-5.3 15.93-13.54-8.2-8.24 1.85-3 3.32-1.9 1.47 1.07 9.94 8.8.2 19.54-4.13 4.54-8.77 8.64-19.73 11.57-1.76.48-11.3.9-16.45 2.2-15.37 3.94-27.62-1.18-34.27-11.44-6.65-10.26-.27-22.57 1.46-22.56z"/>
    <path fill="#9452BA" fill-rule="nonzero" stroke="#52267D" stroke-width="2" d="M67.16 132.4c.68-11.23-8-20.34-18.1-22.5-2.1-.46-2.75-1.14-5.06-1.2l-1.77-.06c-5.95-.17-10.9 4.5-11.08 10.46-.04 1.48 1.13 2.72 2.6 2.76l18.2.52h1.5-1.5c4 1.82 6.3 7 6.67 9.77.58 3.3.07 6.73-1.45 9.73-.82 1.7-1.17 3.62-1 5.5h.1c.05 1.06.18 2.1.4 3.14 1.73-1.14 4.44-2.85 4.93-3.1 1.06-.5 3.46-1.7 4.54-2.28 6.86-3.62.64-6.33 1.02-12.73z"/>
    <path fill="#F3E3FF" fill-rule="nonzero" stroke="#52267D" d="M61 145.25c0-1.74-.28-2.64-.06-3.34 1.24-4 1.64-5.3 1.77-9.6.05-4.4-2.15-8.53-5.82-10.96-1.72-.28-3.5.1-4.94 1.06 4 1.82 6.3 7 6.66 9.77.58 3.3.07 6.73-1.45 9.73-.82 1.7-1.17 3.62-1 5.5 0 0 4.86 2 4.88-2.14"/>
    <path fill="#FFF" fill-rule="nonzero" stroke="#52267D" d="M36.53 110.3c.1-1.15.85-2.15 1.94-2.56l1.63-.6s1 2.4-.23 2.94c-1.05.48-2.24.56-3.34.23zM41.25 109.12c.14-1.57 1.43-2.8 3-2.85.54-.05 1.94 0 1.94 0s.56 2.73-1 2.95c-1.32.14-2.65.1-3.95-.1zM47 109.54s.46-2.83 3-2c.66.23 1.24.65 1.66 1.2 0 0-.57 2.16-1.58 1.9-1.06-.3-2.1-.65-3.08-1.1zM54 123.55s6-3.06 5.07-8.54c1.28 1.17 2.48 2.42 3.56 3.77 0 1.07 0 5.3-5.9 8-.83-1.13-1.75-2.2-2.73-3.22z"/>
    <path fill="#F3E3FF" fill-rule="nonzero" d="M37.35 109.82c.04-.6.43-1.12 1-1.33l.84-.32s.53 1.24-.13 1.52c-.54.25-1.15.3-1.72.12zM42.5 108.58c.07-.8.7-1.4 1.5-1.45h1s.3 1.4-.5 1.5c-.66.07-1.34.06-2-.05zM47.9 109.36s.25-1.5 1.6-1c.34.12.65.35.87.64 0 0-.3 1.14-.84 1-.56-.17-1.1-.38-1.63-.64z"/>
    <path fill="#F3E3FF" fill-rule="nonzero" d="M45.72 115.44h.48c1.37.05 2.44 1.2 2.4 2.57-.04 1.37-1.18 2.45-2.55 2.4l-5.45-.15c.1-2.73 2.38-4.87 5.12-4.8z" opacity=".3"/>
    <path fill="#FFF" fill-rule="nonzero" stroke="#52267D" d="M44.7 116.38l1 .03c1.1.04 1.98.96 1.95 2.07-.03 1.1-.95 1.97-2.06 1.94l-4.9-.13c.02-1.04.46-2.02 1.22-2.73.75-.7 1.75-1.1 2.8-1.06v-.1z"/>
    <circle cx="42.69" cy="119.16" r="1.09" fill="#52267D" fill-rule="nonzero" transform="rotate(-88.33 42.693 119.16)"/>
    <path fill="#52267D" fill-rule="nonzero" d="M33.53 121c.3-.06.6-.22.8-.46l.38-.45-.8.14-.5.1c-.08 0-.16.06-.2.13-.06.08-.08.17-.06.26.04.18.2.3.4.27z"/>
    <path fill="#EAF3FB" fill-rule="nonzero" d="M55 123.7s4.66-2.35 4.73-7.32c.96.66 1.78 1.48 2.44 2.44-.22 1.28-.75 2.5-1.55 3.52-1.76 1.78-3.54 2.3-5.62 1.35z"/>
    <path fill="#FFF" fill-rule="nonzero" stroke="#52267D" d="M59.36 122.94c-1.1 1.04-2.32 1.92-3.65 2.62"/>
    <path fill="#9452BA" fill-rule="nonzero" stroke="#52267D" stroke-width="2" d="M76.77 142.8l-1-2c-3.54-9.48-4-15-1.73-23.9l1.3-5.2c.44-1.7.7-3.46.74-5.22.1-2.82-.93-5.57-2.86-7.63-1.93-2.06-4.6-3.28-7.42-3.37l-1.72-.05c-5.8-.17-10.62 4.4-10.8 10.18v.3c-.03 1.4 1.05 2.54 2.43 2.58l10.88.32-1.92 9.4c-5.78 25.17-5.58 35.45 4.4 33.63"/>
    <path fill="#FFF" fill-rule="nonzero" stroke="#52267D" d="M58.8 96.54c.2-1.16.98-2.13 2.08-2.54.47-.1.97-.08 1.43.06 0 0 1 1.68-.23 2.23-1.02.47-2.2.56-3.27.24zM63.18 96.06c.16-1.8 1.63-3.17 3.42-3.23.46-.04.93-.04 1.4 0 0 0 1.44 3.1-.3 3.34-1.5.17-3.02.13-4.52-.1zM69 96.9s.52-2.77 3-1.87c.64.24 1.2.67 1.6 1.23 0 0-.6 2.1-1.6 1.8-1.03-.3-2.03-.7-3-1.17z"/>
    <path fill="#F3E3FF" fill-rule="nonzero" stroke="#52267D" d="M57.52 146.27c.54-.4 1.16-.67 1.8-.8M61.12 146.32c-1.57-7.27 2-21 2.73-24.36l2.73-13.54h1c.64.1 1.2.43 1.6.95.37.52.52 1.17.4 1.8l-2 11.76c-.7 4-1.82 22.47 5 26.65 1.46.9 3.88.4 4.8 0 3.35-1.48 4.42-5.57 5.24-8.87 1.7-6.8.7-12.24.5-17.63l-.12-6.7c-.05-1.3.93-2.37 2.2-2.46h1.24l1.84 13.7c.56 3.9 1.9 17.37-6.2 23.44-.16.1 1.9.63 1.27 1.68-2.5 4.14-9.43 4.6-10.78 6.37-5.2 6.8-1 21.7-1 21.7-3.2-1.4-6.18-3.28-8.84-5.55-7.83-7.44-8.55-17.92-8.5-21 .06-3.68 1.1-5.93 2.32-7.26"/>
    <path fill="#FFF" fill-rule="nonzero" stroke="#52267D" d="M126.24 154.25c.73-.82.96-1.97.6-3-.2-.4-.5-.75-.88-1 0 0-1.8.26-1.45 1.47.26 1.03.87 1.93 1.74 2.53z"/>
    <path fill="#F3E3FF" fill-rule="nonzero" d="M125.9 152.48c.25-.28.33-.65.22-1-.07-.14-.18-.26-.3-.35 0 0-.64.1-.52.52.1.34.32.63.6.83z"/>
    <path fill="#FFF" fill-rule="nonzero" stroke="#52267D" d="M116.6 163c-.55-1.57.15-3.32 1.64-4.07.38-.2.77-.4 1.18-.53 0 0 2.44 2 1.07 2.93-1.22.73-2.53 1.3-3.9 1.67z"/>
    <path fill="#F3E3FF" fill-rule="nonzero" d="M117.55 162.13c-.32-.87.07-1.84.9-2.26.2-.12.43-.2.66-.3 0 0 1.36 1.14.6 1.63-.67.4-1.4.72-2.15.93z"/>
    <path fill="#FFF" fill-rule="nonzero" stroke="#52267D" d="M124.77 155.16s1.83 1.7 0 3.13c-.5.36-1.07.57-1.68.6 0 0-1.3-1.45-.6-2.05.7-.63 1.46-1.2 2.27-1.7z"/>
    <path fill="#F3E3FF" fill-rule="nonzero" d="M124.46 156.32s.8.76 0 1.4c-.22.15-.48.25-.75.26 0 0-.56-.64-.25-.9.32-.3.65-.54 1-.76z"/>
    <path fill="#FFF" fill-rule="nonzero" stroke="#52267D" d="M107.56 164.08c-.28-1.35.56-2.68 1.9-3 2.45-.8 3.08-.06 3.08-.06s1.28 2.3.06 3c-1.22.7-5.04.06-5.04.06z"/>
    <path fill="#F3E3FF" fill-rule="nonzero" d="M108.7 163.6c-.14-.7.3-1.4 1-1.56 1.28-.42 1.6 0 1.6 0s.67 1.2 0 1.55c-.85.17-1.73.18-2.6 0z"/>
    <path fill="#FFF" fill-rule="nonzero" stroke="#52267D" d="M66 111.72c2.9 1.44 6.27 1.6 9.3.48-.4 1.68-1.27 5-1.27 5s-5.1 1.4-8.9-1.16c.4-2.17.87-4.32.87-4.32zM95.2 102.73c-.12-1.17-.86-2.18-1.94-2.65-.68-.2-1.37-.3-2.07-.35 0 0-.5 2 .73 2.58 1 .54 2.17.7 3.28.43zM90.56 101.65c-.04-1.57-1.25-2.86-2.8-3-.4-.05-.82-.07-1.22-.05 0 0-1.42 2.62.07 2.92 1.3.22 2.64.27 3.96.13zM85.16 101.67s-.36-2.8-2.9-2c-.65.2-1.23.6-1.67 1.14 0 0 .48 2.15 1.5 1.9 1.04-.25 2.07-.6 3.06-1.03z"/>
    <path fill="#F3E3FF" fill-rule="nonzero" d="M59.77 96.1c.1-.6.53-1.12 1.1-1.34.26-.07.53-.07.78 0 0 0 .54.9-.13 1.2-.55.25-1.17.3-1.75.14zM64.27 95.6c.1-1.1 1.03-1.97 2.15-2 .3-.02.58-.02.87 0 0 0 .9 1.94-.2 2.1-.94.1-1.9.06-2.83-.1zM70.1 96.64s.3-1.6 1.7-1.07c.38.14.7.4.93.7 0 0-.35 1.22-.92 1-.58-.16-1.16-.37-1.7-.63zM94.3 102.23c-.05-.6-.43-1.14-1-1.4-.35-.1-.72-.16-1.1-.18 0 0-.25 1 .4 1.36.53.3 1.13.36 1.7.23zM89.47 101.17c-.03-.87-.7-1.57-1.56-1.65-.2-.02-.44-.02-.66 0 0 0-.8 1.45 0 1.6.74.13 1.5.14 2.23.05zM84.17 101.45s-.2-1.54-1.58-1.12c-.37.1-.7.33-.93.62 0 0 .27 1.17.82 1 .56-.12 1.12-.3 1.67-.5z"/>
    <path fill="#FFF" fill-rule="nonzero" stroke="#52267D" d="M77.4 116.85c3.1.5 6.26.47 9.35-.1.37 2.5.6 4.37.6 4.37s-3.23 2.06-9 .64l-.96-4.9z"/>
    <path fill="#F3E3FF" fill-rule="nonzero" d="M90.94 112.44l-5.44-.16c-.67 0-1.3-.27-1.78-.75-.47-.5-.72-1.13-.7-1.8.02-.66.3-1.28.78-1.74.48-.46 1.1-.7 1.77-.68h.52c2.75.1 4.92 2.4 4.84 5.16v-.04z" opacity=".3"/>
    <path fill="#FFF" fill-rule="nonzero" stroke="#52267D" d="M90.83 112.34l-4.75-.14c-1.16-.03-2.07-1-2.03-2.15 0-.48.2-.93.56-1.26.36-.34.83-.52 1.3-.5l1.12.03c1.03.03 2 .47 2.72 1.22.7.75 1.1 1.75 1.06 2.8h.03z"/>
    <circle cx="88.52" cy="110.01" r="1.09" fill="#52267D" fill-rule="nonzero" transform="rotate(-88.33 88.522 110.014)"/>
    <path fill="#F3E3FF" fill-rule="nonzero" d="M66.44 102.03h.48c1.37.05 2.45 1.2 2.4 2.56 0 .66-.28 1.3-.76 1.75-.48.46-1.12.7-1.8.7l-5.43-.17c.08-2.76 2.38-4.93 5.14-4.85h-.03z" opacity=".3"/>
    <path fill="#FFF" fill-rule="nonzero" stroke="#52267D" d="M65.43 103l1 .04c1.1.03 1.97.95 1.94 2.06-.03 1.1-.95 1.97-2.06 1.94l-4.88-.14c.06-2.16 1.85-3.85 4-3.8v-.1z"/>
    <circle cx="66.11" cy="105.74" r="1.09" fill="#52267D" fill-rule="nonzero" transform="rotate(-88.33 66.11 105.74)"/>
    <path fill="#52267D" fill-rule="nonzero" d="M97.43 113.75c-.3-.08-.58-.26-.77-.5l-.35-.48.82.2.48.12c.18.03.3.22.25.4-.02.1-.08.17-.16.2-.1.06-.18.07-.27.05zM55.6 107.43c.3-.06.58-.22.8-.46l.37-.45-.82.15-.48.1c-.1 0-.17.06-.22.13-.05.08-.07.17-.05.26.04.18.2.3.4.27z"/>
    <path fill="#EAF3FB" fill-rule="nonzero" d="M66.4 112.44c2.58 1.08 5.47 1.22 8.14.4-.24 1.2-.55 2.4-.92 3.6-1.37.03-2.74-.07-4.1-.3-2.3-.53-3.18-1.62-3.12-3.7z"/>
    <path fill="#FFF" fill-rule="nonzero" stroke="#52267D" d="M72 115.68c-2.25.08-4.48-.4-6.5-1.37"/>
    <path fill="#EAF3FB" fill-rule="nonzero" d="M85 117.62c-2.22.52-4.53.6-6.78.2.2 1.05.5 2.1.83 3.12 0 0 4.74-.5 5.95-3.32z"/>
    <path fill="#F3E3FF" fill-rule="nonzero" stroke="#52267D" stroke-width=".5" d="M82.06 151.13s-.22.15-.54.33"/>
    <path fill="#FFF" fill-rule="nonzero" stroke="#52267D" d="M85.28 119c-2.48.34-5 .34-7.47 0"/>
    <path fill="#FFF" fill-rule="nonzero" stroke="#52267D" stroke-width=".5" d="M77.17 193.33c-.7-.5-1.65-.4-2.25.2-1.2.92-2.12 2.38-1.6 2.54.78.24 1.6.3 2.4.2.86-.14 1.6.04 2-1.7.1-.5-.12-1-.55-1.24z"/>
    <path fill="#EAF3FB" fill-rule="nonzero" d="M76.94 193.6c-.43-.3-1.03-.25-1.4.13-.74.58-1.32 1.48-1 1.58.5.16 1 .2 1.5.13.53-.08 1 0 1.23-1.06.06-.3-.07-.6-.33-.76z"/>
    <path fill="#FFF" fill-rule="nonzero" stroke="#52267D" stroke-width=".5" d="M78.53 193.36c.5-.05 1.2 1.07 1.1 1.4-.1.33-.17 1.44-1 1.54-.6.07-2.76.23-3.22-.25-.45-.48.5-2.42 3.13-2.7z"/>
    <path fill="#EAF3FB" fill-rule="nonzero" d="M78.66 193.67c.3 0 .7.63.66.83-.05.2-.1.85-.6.9-.47.07-1.63.15-1.9-.14-.27-.3.3-1.43 1.84-1.6z"/>
    <path fill="#FFF" fill-rule="nonzero" stroke="#52267D" stroke-width=".5" d="M80.67 193.63s-.43-.24-1.3.23c-.9.47-1.96 1.08-1.68 2 .27.92 2.7.63 3.24.46.54-.17.88-.7.82-1.26-.06-.65-.48-1.2-1.1-1.43z"/>
    <path fill="#EAF3FB" fill-rule="nonzero" d="M80.83 193.95s-.26-.14-.78.14c-.52.27-1.15.63-1 1.15.15.52 1.6.37 1.93.27.32-.1.52-.42.5-.75-.05-.37-.3-.7-.65-.82z"/>
    <path fill="#9452BA" fill-rule="nonzero" stroke="#52267D" stroke-width="2" d="M71.35 165.54c.1 4.84-.36 9.67-1.35 14.4-1.57 8.2-4 10.7-3.9 12.83.1 1.65.75 3.18 2.4 3.23l4.94.14c2.3.07 4.4-1.35 5.2-3.5.83-2.32 1.44-4.7 1.8-7.14.4-3.54.58-7.1.56-10.65M96.56 170c-1.66 1.46-2.62 3.55-2.64 5.76-.07 2.83 1.47 6.48.3 11.15-1 4.17-2.92 4.85-2.48 8.63.1.68.67 1.2 1.36 1.2l5.5.17c2.54.07 4.75-1.7 5.24-4.2 1-5.9.96-11.92-.1-17.8"/>
    <path stroke="#52267D" stroke-width=".5" d="M97.46 176.25l.33-.22 1.03.27-1.18.7-1.38-.72 1.5-1.12.64.24"/>
    <path fill="#FFF" fill-rule="nonzero" stroke="#52267D" d="M67.18 193c-.7-.5-1.65-.4-2.25.2-1.2.92-2.12 2.38-1.6 2.54.78.24 1.6.3 2.4.2.86-.14 1.6.04 2-1.7.1-.5-.12-1-.55-1.24z"/>
    <path fill="#EAF3FB" fill-rule="nonzero" d="M66.95 193.32c-.43-.3-1.03-.26-1.4.12-.74.58-1.32 1.48-1 1.58.5.15 1 .2 1.5.12.53-.08 1 0 1.23-1.06.06-.3-.07-.6-.33-.76z"/>
    <path stroke="#52267D" stroke-width=".5" d="M75.16 178.7l-2 .56.22 1.84 2 .2.98-1.06-1.2-.7-1 .26.62.72"/>
    <g stroke="#F3E3FF" stroke-width=".25" opacity=".3">
      <path d="M34.76 117.47c-.03.2.07.4.24.53.18.1.4.1.6 0 .16-.12.26-.32.23-.53"/>
      <path d="M33.68 117.44c-.03.2.07.4.24.53.18.1.4.1.6 0 .16-.12.26-.32.23-.53"/>
      <path d="M34.2 118c-.03.2.07.4.24.53.18.1.4.1.6 0 .16-.12.26-.32.23-.53M55.3 117.57c.35.24.84.14 1.1-.22.23-.37.12-.86-.24-1.1"/>
      <path d="M55.5 118.66c.37.24.86.14 1.1-.23.25-.36.14-.85-.22-1.1M80.18 136.3c0 .4.32.72.72.72.4 0 .72-.32.72-.72"/>
      <path d="M78.75 136.26c0 .4.32.72.72.72.4 0 .72-.32.72-.72M79.44 137c0 .4.32.72.72.72.4 0 .72-.32.72-.72M57.4 181.2c0 .4.32.7.72.7.4 0 .72-.3.72-.7"/>
      <path d="M56 181.15c0 .4.32.72.72.72.4 0 .72-.32.72-.72M56.66 181.9c0 .4.32.7.72.7.4 0 .72-.3.72-.7M79.74 113.38c0 .44.35.8.8.8.43 0 .78-.36.78-.8"/>
      <path d="M78.93 114.14c0 .28.15.54.4.68.24.15.54.15.8 0 .23-.14.38-.4.38-.68M69.24 127c-.13.4 0 .85.35 1.1.33.26.8.28 1.14.04.36-.23.53-.67.42-1.08"/>
      <path d="M68.25 128c.1.43.5.74.94.75.43.02.83-.27.97-.7M56 102.77c0 .35.3.64.64.64.35 0 .64-.28.64-.63"/>
      <path d="M55.35 103.4c0 .34.3.63.64.63s.63-.3.63-.64M114.5 169.2c.27.28.7.3 1 .07.3-.24.36-.66.15-.98M114.38 170.25c.27.27.7.3 1 .06.3-.23.36-.65.15-.97M85.44 158.16c.2.4.7.58 1.1.4.43-.17.64-.64.5-1.07"/>
      <path d="M83.84 158.83c.1.3.37.54.7.6.32.04.64-.1.83-.36.2-.27.22-.62.07-.9"/>
      <path d="M85 159.3c.2.4.7.57 1.1.4.43-.18.64-.65.5-1.08M83.38 160c.1.3.37.54.7.6.32.04.64-.1.83-.36.2-.27.23-.62.08-.9M86.1 159.75c.1.3.38.54.7.6.33.04.65-.1.84-.36.2-.28.22-.63.07-.92M71.75 109.72c0 .3.15.6.42.77.26.15.6.16.87.02.28-.15.45-.44.46-.75M70.48 142.75c0 .3.15.6.42.77.26.16.6.17.87.03.28-.15.45-.44.46-.75M80.92 124.83c0 .37.3.67.66.67.37 0 .67-.3.67-.67M97.14 110.24c0 .28.22.5.5.5s.5-.22.5-.5M99.14 183.43c.07.48.5.8 1 .74.47-.07.8-.5.73-1M74.8 189.16c.1.43.5.74.94.75.44.03.84-.26.98-.68M73.8 190.1c-.12.4.02.84.36 1.1.34.25.8.27 1.15.03.37-.23.54-.67.43-1.08"/>
    </g>
    <path fill="#FFF" fill-rule="nonzero" stroke="#52267D" d="M68.54 193.06c.5-.05 1.2 1.07 1.1 1.4-.1.33-.17 1.44-1 1.54-.6.07-2.76.23-3.22-.25-.46-.48.48-2.4 3.12-2.7z"/>
    <path fill="#EAF3FB" fill-rule="nonzero" d="M68.67 193.37c.3 0 .7.63.66.83-.05.2-.1.85-.6.9-.47.07-1.63.15-1.9-.14-.27-.3.3-1.42 1.84-1.6z"/>
    <path fill="#FFF" fill-rule="nonzero" stroke="#52267D" d="M70.33 193.66s-.38-.2-1.16.2c-.78.4-1.72 1-1.48 1.74.23.74 2.4.55 2.87.4.48-.14.78-.6.72-1.1-.07-.57-.44-1.04-.97-1.24z"/>
    <path fill="#EAF3FB" fill-rule="nonzero" d="M70.47 193.94s-.23-.13-.7.12c-.45.25-1 .57-.86 1 .14.43 1.43.33 1.7.24.3-.1.47-.37.44-.66-.05-.32-.27-.6-.57-.7z"/>
    <path fill="#FFF" fill-rule="nonzero" stroke="#52267D" d="M50.05 193.28s-.38-.2-1.16.2c-.8.4-1.73 1-1.5 1.74.25.74 2.4.55 2.9.4.47-.14.77-.6.7-1.1-.05-.57-.42-1.04-.95-1.24z"/>
    <path fill="#EAF3FB" fill-rule="nonzero" d="M50.2 193.56s-.24-.13-.7.12c-.46.25-1 .57-.87 1 .13.43 1.42.33 1.7.24.28-.1.46-.37.43-.66-.05-.32-.27-.6-.57-.7z"/>
    <path fill="#FFF" fill-rule="nonzero" stroke="#52267D" d="M52.4 192.8c.52-.04 1.22 1.08 1.12 1.4-.1.34-.18 1.45-1 1.55-.6.07-2.77.23-3.23-.25-.47-.48.48-2.42 3.1-2.7z"/>
    <path fill="#EAF3FB" fill-rule="nonzero" d="M52.55 193.12c.3 0 .7.63.66.83-.04.2-.1.85-.58.9-.48.07-1.64.15-1.9-.14-.28-.28.28-1.42 1.83-1.58z"/>
    <path fill="#FFF" fill-rule="nonzero" stroke="#52267D" stroke-width=".5" d="M93.9 193.82c-.7-.5-1.66-.4-2.26.2-1.2.92-2.12 2.38-1.6 2.54.78.24 1.6.3 2.4.2.86-.14 1.6.04 2-1.7.1-.5-.12-1-.55-1.24z"/>
    <path fill="#EAF3FB" fill-rule="nonzero" d="M93.67 194.1c-.43-.3-1.03-.26-1.4.12-.74.58-1.32 1.48-1 1.58.5.15 1 .2 1.5.12.53-.08 1 0 1.23-1.06.06-.3-.07-.6-.33-.76z"/>
    <path fill="#FFF" fill-rule="nonzero" stroke="#52267D" stroke-width=".5" d="M95.26 193.84c.5-.05 1.2 1.07 1.1 1.4-.1.33-.17 1.44-1 1.54-.6.07-2.76.23-3.22-.25-.46-.48.48-2.4 3.12-2.7z"/>
    <path fill="#EAF3FB" fill-rule="nonzero" d="M95.4 194.15c.3 0 .7.63.65.83-.05.2-.1.85-.6.9-.47.07-1.63.15-1.9-.14-.27-.3.3-1.42 1.84-1.6z"/>
    <path fill="#FFF" fill-rule="nonzero" stroke="#52267D" stroke-width=".5" d="M97 194.44s-.38-.2-1.16.2c-.78.4-1.72 1-1.48 1.74s2.4.55 2.88.4c.48-.14.78-.6.72-1.1-.06-.57-.43-1.04-.96-1.24z"/>
    <path fill="#EAF3FB" fill-rule="nonzero" d="M97.18 194.72s-.23-.13-.7.12c-.45.25-1 .57-.86 1 .13.43 1.42.33 1.7.24.28-.1.46-.37.43-.66-.05-.32-.27-.6-.57-.7z"/>
    <path fill="#FFF" fill-rule="nonzero" stroke="#52267D" d="M59.06 193.48c.14-.13.34-.16.5-.08.6.3 2 1.12 1.7 2.17-.26.82-.76.55-1.72.54h-.73c-.14 0-.28-.08-.35-.2-.37-.83-.14-1.8.56-2.37l.06-.05z"/>
    <path fill="#EAF3FB" fill-rule="nonzero" d="M59.13 193.72c.1-.1.25-.12.37-.06.42.2 1.47.8 1.23 1.57-.2.6-.55.4-1.25.4H59c-.1 0-.2-.06-.26-.16-.27-.6-.1-1.3.4-1.7v-.05z"/>
    <path fill="#FFF" fill-rule="nonzero" stroke="#52267D" d="M55.67 193.06c-.65-.55-1.6-.55-2.25 0-1.27.82-2.3 2.2-1.8 2.4.75.3 1.56.44 2.37.4.84-.07 1.56.18 2.1-1.53.13-.47-.04-.98-.43-1.27z"/>
    <path fill="#EAF3FB" fill-rule="nonzero" d="M55.42 193.32c-.4-.34-1-.34-1.4 0-.8.5-1.44 1.36-1.12 1.5.47.18.98.26 1.48.23.53 0 1 .12 1.3-.95.1-.3-.02-.6-.26-.78z"/>
    <path stroke="#9ACDED" stroke-width="2" d="M110.58 55.76C100.88 38.72 49.43 5.1 49.43 5.1"/>
    <path fill="#FFF" fill-rule="nonzero" stroke="#375D81" stroke-width="2" d="M163.66 196.24H66.48c-1.1 0-2-.9-2-2V87.67c0-2.68 1.1-5.24 3-7.1L110.7 37.8c2.42-2.38 6.3-2.38 8.73 0l43.25 42.76c1.9 1.87 3 4.43 3 7.1v106.58c0 .53-.2 1.05-.6 1.42-.37.38-.9.6-1.42.58z"/>
    <circle cx="112.81" cy="118.73" r="24.73" fill="#EFEFF6" fill-rule="nonzero"/>
    <circle cx="115.81" cy="113.73" r="24.73" fill="#FFF" fill-rule="nonzero" stroke="#375D81" stroke-width="2"/>
    <path fill="#9452BA" fill-rule="nonzero" d="M122 125.93l.22.6c-.7-6.75 3.12-9.56 4.35-14v-.23l.06-.3c.07-1.5-.38-3-1.3-4.2l-.24-.36-.5-.7-.06-.06-.15-.2-.16-.18-.16-.2-.16-.2-.12-.13c-1.65-1.86-3.5-3.54-5.53-5 .28 2.36.3 4.74.07 7.1-.38 2.73-1.2 5.38-2.38 7.87-2.75-.2-5.44-.83-8-1.86-2.17-.97-4.23-2.18-6.14-3.6 0 .2 0 .42.07.63v.2c0 .15 0 .3.05.45.06.15 0 .14 0 .2l.07.46v.2c0 .18.06.37.1.55v.05c0 .22.08.43.12.65l.12.58v.12l.12.52v.1c0 .2.1.4.15.6.17.63.35 1.24.55 1.83.3.92.7 1.8 1.15 2.67l.2.34.17.3.2.3.26.36v.06c.1.13.2.25.32.37l.23.23.1.1.16.12.1.1.15.1.12.08.15.1.1.07.17.1.1.05.2.08h.08l.28.1.17.05c4.5 1.2 8.88-.7 14.38 3.23"/>
    <path stroke="#375D81" stroke-width="2" d="M87.23 160.64h55.68M87.23 175.34h55.68" stroke-linecap="round"/>
    <circle cx="115.07" cy="62.38" r="8" fill="#FFF" fill-rule="nonzero" stroke="#375D81" stroke-width="2"/>
    <path stroke="#9ACDED" stroke-width="2" d="M55 .22s2.1 9.12 4.93 12.24C65.6 18.68 73.07 25.08 80 36c12.3 19.38 19.52 38.13 30.42 27.76 1.46-1.4 2.38-5.17.7-7"/>
    <path stroke="#9ACDED" stroke-width="2" d="M64.25 15.8s-4.82 1.75-6.32 0c-1.5-1.73 8.13-9.25 6.32 0z"/>
  </g>
</svg>