<svg xmlns="http://www.w3.org/2000/svg" width="256" height="256">
    <g fill="none" fill-rule="evenodd" transform="translate(3 29)">
        <path fill="#FFF" fill-rule="nonzero" stroke="#375D81" stroke-width="2" d="M223.53 185.3h6.97" stroke-linecap="round" stroke-linejoin="round"/>
        <path fill="#E1F2FF" fill-rule="nonzero" d="M20.2 194.53c0-57.2 46.37-103.56 103.56-103.56 57.2 0 103.56 46.37 103.56 103.56H20.2z"/>
        <path fill="#9452BA" fill-rule="nonzero" stroke="#52267D" d="M162.22 185.16h5c1.72 0 3.26-1.04 3.9-2.64 1.76-4.55 1.32-8.73 1.53-12.3.4-6.64-.64-10-1.63-15.57l-7.47.17s.64 2.75 1.06 11c.14 2.56-4.08 12.82-3.88 17.85.02.82.68 1.47 1.5 1.5zM147.73 161.5l-6-6.83-3.7.15-.74 8c-.68 5.4-1.74 10.75-3.2 16-.3 1.06-.52 2.15-.6 3.26 0 .8.3 1.57.87 2.14.57.57 1.34.88 2.14.86h4.42c2.57 0 4.82-1.7 5.48-4.2 1.92-7.68 1.33-19.4 1.33-19.4z"/>
        <path stroke="#52267D" stroke-width=".25" d="M139.28 166.2l-1 .86.95.86 1.55-.6-.3-.68-1.3.3.02.24.33-.02"/>
        <path fill="#9452BA" fill-rule="nonzero" stroke="#52267D" stroke-width="2" d="M139.3 136.1c4.4-.1 8.5-3.1 17.43-3.52.1-.53.27-1.05.5-1.54 1.6-3.5 3.9-13.6 2.42-20.22l-1.16-5.25c-.4-1.72-.58-3.48-.58-5.24 0-.72.07-1.44.22-2.14.03-.18.07-.35.12-.52.13-.5.3-1 .5-1.48l.2-.47c.16-.3.32-.6.5-.9.18-.3.36-.57.54-.83.6-.82 1.34-1.55 2.16-2.16.27-.2.56-.4.85-.57 1.67-1 3.58-1.54 5.53-1.54h1.74c2.82 0 5.53 1.12 7.52 3.12.23.24.46.5.68.76.4.5.75 1 1.05 1.54.12.2.23.4.33.62.1.2.15.3.2.47.42.97.68 2 .8 3.05.03.36.04.73.04 1.1 0 1.45-1.2 2.64-2.65 2.64H167.4l1.64 9.45c1.93 9.7 1.35 16.2-.15 20.53-.34 1-2.25 4.4-2.25 4.4 5.45 8.58 13.8 12.34 22.73 13.43 7.6.93 24-6 15.53-14-8.46-8 1.77-3 3.27-2s10.2 8.52.76 19.54c-4 4.66-8.5 8.9-19.37 12.14-1.74.53-11.25 1.22-16.38 2.7-15.25 4.37-27.64-.4-34.6-10.46-6.94-10.07-1-22.6.73-22.64z"/>
        <path fill="#9452BA" fill-rule="nonzero" stroke="#52267D" d="M148.77 121.63c.35-11.26-8.6-20.1-18.74-22-2.1-.4-2.8-1-5.1-1h-1.77c-5.95 0-10.78 4.83-10.78 10.78 0 1.5 1.2 2.7 2.7 2.7h18.2c4 1.7 6.5 6.82 6.93 9.57.66 3.3.24 6.7-1.2 9.73-.78 1.74-1.07 3.65-.85 5.54h.1c.08 1.05.24 2.1.48 3.12 1.7-1.2 4.36-3 4.84-3.23 1-.55 3.4-1.8 4.47-2.42 6.8-3.84.53-6.4.73-12.77z"/>
        <path fill="#F3E3FF" fill-rule="nonzero" stroke="#52267D" stroke-width=".5" d="M143 134.64c-.1-1.74-.35-2.63-.16-3.34 1.12-4.07 1.5-5.36 1.5-9.67-.1-4.4-2.42-8.45-6.16-10.77-1.73-.23-3.48.2-4.9 1.2 4 1.7 6.5 6.82 6.93 9.57.67 3.3.25 6.73-1.2 9.77-.78 1.74-1.07 3.65-.85 5.54 0 0 4.92 1.85 4.8-2.3"/>
        <path fill="#FFF" fill-rule="nonzero" stroke="#52267D" stroke-width=".5" d="M117.5 100.43c.06-1.17.8-2.2 1.87-2.63l1.6-.65s1.12 2.36-.14 2.95c-1.03.5-2.22.63-3.33.33zM122.2 99.1c.1-1.57 1.35-2.83 2.93-2.93.54-.07 1.94 0 1.94 0s.65 2.7-.87 3c-1.33.16-2.68.14-4-.06zM127.92 99.36s.38-2.84 2.93-2.06c.67.2 1.26.6 1.7 1.16 0 0-.5 2.17-1.52 1.92-1.06-.25-2.1-.6-3.1-1.02zM135.34 113.16s6-3.24 4.82-8.7c1.32 1.13 2.55 2.35 3.67 3.66 0 1.07.2 5.3-5.65 8.14-.88-1.1-1.83-2.13-2.84-3.1z"/>
        <path fill="#F3E3FF" fill-rule="nonzero" d="M118.06 100.13c.03-.68.46-1.28 1.1-1.53l.93-.38s.64 1.37-.1 1.72c-.6.3-1.3.36-1.94.2zM123 98.76c.04-.95.8-1.72 1.76-1.76h1.14s.38 1.6-.5 1.74c-.8.12-1.6.12-2.4.02zM128.55 99.27s.22-1.68 1.74-1.22c.38.13.73.37 1 .7 0 0-.3 1.27-.9 1.13-.64-.15-1.25-.36-1.85-.6z"/>
        <path fill="#F3E3FF" fill-rule="nonzero" d="M124 105.3h4.54c.7 0 1.28.57 1.28 1.28V109c0 .7-.57 1.28-1.28 1.28h-6.65v-2.88c0-1.16.93-2.1 2.1-2.1z" opacity=".3"/>
        <path fill="#FFF" fill-rule="nonzero" stroke="#52267D" stroke-width=".5" d="M124 106.27h3.82c.55 0 1 .45 1 1v1.9c0 .54-.45 1-1 1H122v-1.9c0-1.1.9-2 2-2z"/>
        <circle cx="123.93" cy="108.17" r="1.09" fill="#52267D" fill-rule="nonzero"/>
        <path fill="#52267D" fill-rule="nonzero" d="M114.82 111.25c.3-.07.58-.24.78-.5l.37-.45-.8.17-.5.1c-.08.02-.16.07-.2.15-.05.08-.07.17-.05.26.02.1.07.17.14.22.08.05.17.07.26.05z"/>
        <path fill="#EAF3FB" fill-rule="nonzero" d="M136.35 113.27s4.6-2.47 4.52-7.45c.98.62 1.83 1.42 2.5 2.36-.18 1.3-.67 2.5-1.44 3.56-1.7 1.85-3.47 2.4-5.58 1.53z"/>
        <path fill="#FFF" fill-rule="nonzero" stroke="#52267D" stroke-width=".5" d="M140.7 112.4c-1.07 1.07-2.27 1.98-3.58 2.72"/>
        <path fill="#9452BA" fill-rule="nonzero" stroke="#52267D" d="M158.68 131.74l-1-2c-3.82-9.38-4.4-14.9-2.43-23.84l1.16-5.25c.4-1.72.6-3.48.6-5.25 0-5.88-4.76-10.64-10.64-10.64h-1.72c-5.8 0-10.5 4.7-10.5 10.5v.3c0 1.37 1.13 2.5 2.5 2.5h10.88l-1.65 9.44c-5 25.33-4.54 35.6 5.4 33.5"/>
        <path fill="#FFF" fill-rule="nonzero" stroke="#52267D" stroke-width=".5" d="M139.36 86c.16-1.15.92-2.14 2-2.58.47-.12.96-.12 1.43 0 0 0 1.05 1.65-.2 2.24-1 .5-2.15.62-3.24.34zM143.72 85.4c.1-1.78 1.54-3.2 3.33-3.32.46-.04.93-.04 1.4 0 0 0 1.53 3.05-.2 3.35-1.5.2-3.02.2-4.53-.02zM149.57 86.07s.44-2.78 2.93-1.95c.65.23 1.2.64 1.63 1.18 0 0-.55 2.1-1.54 1.84-1.04-.27-2.06-.63-3.03-1.07z"/>
        <path fill="#F3E3FF" fill-rule="nonzero" stroke="#52267D" stroke-width=".5" d="M139.54 135.77c.53-.4 1.14-.7 1.8-.86M143.14 135.7c-1.78-7.2 1.43-21 2-24.42l2.33-13.62h1c.64.06 1.23.4 1.62.9.4.5.56 1.15.46 1.8l-1.7 11.8c-.56 4-1.16 22.5 5.8 26.5 1.47.84 3.88.28 4.8-.15 3.3-1.57 4.24-5.7 5-9 1.5-6.86.32-12.25 0-17.64l-.36-6.74c-.08-1.27.85-2.38 2.12-2.5h1.24l2.24 13.6c.67 3.9 2.4 17.33-5.52 23.64-.14.1 1.93.58 1.33 1.64-2.37 4.2-9.28 4.88-10.58 6.68-5 6.94-.32 21.74-.32 21.74-3.24-1.32-6.27-3.1-9-5.3-8-7.2-9.07-17.66-9.1-20.73 0-3.7.9-6 2.1-7.33"/>
        <path fill="#FFF" fill-rule="nonzero" stroke="#52267D" d="M208.45 141.73c.7-.84.9-1.98.5-3-.2-.4-.52-.75-.9-1 0 0-1.78.3-1.4 1.5.26 1.04.9 1.92 1.8 2.5z"/>
        <path fill="#F3E3FF" fill-rule="nonzero" d="M208.08 140c.23-.28.3-.66.18-1-.07-.14-.2-.26-.32-.34 0 0-.62.1-.5.53.12.33.34.6.64.8z"/>
        <path fill="#FFF" fill-rule="nonzero" stroke="#52267D" d="M199.1 150.8c-.6-1.55.03-3.32 1.5-4.1.37-.23.76-.42 1.17-.57 0 0 2.5 2 1.16 2.9-1.2.76-2.5 1.36-3.84 1.77z"/>
        <path fill="#F3E3FF" fill-rule="nonzero" d="M200 149.87c-.34-.86.02-1.84.84-2.28.2-.13.42-.24.65-.32 0 0 1.37 1.1.63 1.6-.66.43-1.38.76-2.13 1z"/>
        <path fill="#FFF" fill-rule="nonzero" stroke="#52267D" d="M207 142.7s1.88 1.64.08 3.12c-.48.38-1.06.62-1.67.67 0 0-1.32-1.43-.65-2 .7-.67 1.45-1.27 2.25-1.8z"/>
        <path fill="#F3E3FF" fill-rule="nonzero" d="M206.74 143.86s.83.73 0 1.4c-.2.16-.47.27-.74.3 0 0-.6-.64-.3-.9.33-.3.67-.57 1.04-.8z"/>
        <path fill="#FFF" fill-rule="nonzero" stroke="#52267D" d="M190.07 152.1c-.34-1.35.47-2.72 1.8-3.08 2.44-.88 3.1-.15 3.1-.15s1.33 2.26.13 3c-1.2.74-5.03.23-5.03.23z"/>
        <path fill="#F3E3FF" fill-rule="nonzero" d="M191.2 151.6c-.16-.7.25-1.4.95-1.6 1.26-.46 1.6-.08 1.6-.08s.7 1.17.07 1.55c-.85.22-1.74.27-2.6.13z"/>
        <path fill="#FFF" fill-rule="nonzero" stroke="#52267D" stroke-width=".5" d="M147 101c2.94 1.35 6.32 1.43 9.32.2l-1.14 5.1s-5 1.54-8.94-.9c.37-2.26.76-4.4.76-4.4zM175.94 91.15c-.16-1.16-.92-2.15-2-2.6-.68-.17-1.38-.27-2.08-.3 0 0-.43 2 .82 2.56 1 .5 2.17.63 3.26.35zM171.26 90.2c-.1-1.56-1.34-2.8-2.9-2.9-.4-.03-.8-.03-1.2 0 0 0-1.35 2.66.15 2.92 1.32.17 2.65.17 3.96-.02zM165.87 90.38s-.45-2.8-2.95-2c-.66.23-1.23.64-1.65 1.2 0 0 .56 2.1 1.55 1.85 1.04-.26 2.06-.62 3.05-1.05z"/>
        <path fill="#F3E3FF" fill-rule="nonzero" d="M140.2 85.63c.1-.65.52-1.2 1.13-1.46.27-.07.54-.07.8 0 0 0 .6.93-.1 1.26-.56.3-1.2.36-1.83.2zM144.64 85c.07-1.18 1-2.12 2.2-2.2.3-.02.6-.02.9 0 0 0 1 2-.12 2.2-1 .14-2 .14-2.98 0zM150.37 85.9s.28-1.77 1.86-1.24c.4.15.75.4 1 .75 0 0-.35 1.35-1 1.18-.64-.18-1.26-.4-1.86-.68zM175.15 90.75c-.1-.65-.54-1.2-1.15-1.44-.38-.1-.77-.14-1.16-.15 0 0-.24 1.1.46 1.42.57.28 1.23.35 1.85.18zM170.28 89.83c-.05-.9-.78-1.63-1.68-1.68-.23-.02-.47-.02-.7 0 0 0-.78 1.54.1 1.7.75.1 1.52.1 2.28-.02zM165.08 90.27s-.26-1.65-1.74-1.16c-.4.14-.74.38-1 .7 0 0 .33 1.27.92 1.1.62-.15 1.23-.37 1.82-.63z"/>
        <path fill="#FFF" fill-rule="nonzero" stroke="#52267D" stroke-width=".5" d="M158.54 105.78c3.12.42 6.28.3 9.36-.37.44 2.5.73 4.36.73 4.36s-3.16 2.15-9 .9c-.7-3.18-1.1-4.88-1.1-4.88z"/>
        <path fill="#F3E3FF" fill-rule="nonzero" d="M171.9 100.96h-6.65c-.7 0-1.28-.57-1.28-1.28v-2.4c0-.7.57-1.28 1.28-1.28h4.54c1.15 0 2.1.94 2.1 2.1v2.86z" opacity=".3"/>
        <path fill="#FFF" fill-rule="nonzero" stroke="#52267D" stroke-width=".5" d="M171.8 100.84h-5.84c-.55 0-1-.45-1-1v-1.9c0-.54.45-1 1-1h3.84c1.1 0 2 .9 2 2v1.9z"/>
        <circle cx="169.85" cy="99.72" r="1.09" fill="#52267D" fill-rule="nonzero"/>
        <path fill="#F3E3FF" fill-rule="nonzero" d="M144.28 91.3h4.54c.7 0 1.28.56 1.28 1.27V95c0 .7-.57 1.28-1.28 1.28h-6.65v-2.9c0-.55.22-1.08.62-1.48.38-.4.92-.6 1.48-.6z" opacity=".3"/>
        <path fill="#FFF" fill-rule="nonzero" stroke="#52267D" stroke-width=".5" d="M144.3 92.26h3.8c.56 0 1 .45 1 1v1.9c0 .54-.44 1-1 1h-5.83v-1.88c0-1.1.9-2 2-2l.02-.02z"/>
        <circle cx="144.25" cy="95.01" r="1.09" fill="#52267D" fill-rule="nonzero"/>
        <path fill="#52267D" fill-rule="nonzero" d="M178.48 102.1c-.3-.07-.58-.24-.78-.5l-.37-.45.8.17.5.1c.08.02.16.07.2.15.05.08.07.17.05.26-.02.1-.07.17-.14.22-.08.05-.17.07-.26.05zM136.47 97c.3-.07.58-.24.78-.5l.37-.45-.8.17-.5.1c-.08.02-.16.07-.2.15-.05.08-.07.17-.05.26.02.1.07.17.14.22.1.05.18.07.27.05z"/>
        <path fill="#EAF3FB" fill-rule="nonzero" d="M147.43 101.7c2.6 1 5.5 1.05 8.15.14-.2 1.22-.47 2.44-.8 3.63-1.38.08-2.75.02-4.1-.18-2.33-.47-3.25-1.52-3.25-3.6z"/>
        <path fill="#FFF" fill-rule="nonzero" stroke="#52267D" stroke-width=".5" d="M153.08 104.77c-2.25.15-4.5-.25-6.55-1.17"/>
        <path fill="#EAF3FB" fill-rule="nonzero" d="M166.14 106.32c-2.2.6-4.52.72-6.78.4.24 1.05.55 2.08.92 3.1 0 0 4.72-.64 5.86-3.5z"/>
        <path fill="#F3E3FF" fill-rule="nonzero" stroke="#52267D" stroke-width=".5" d="M164.2 139.9s-.2.16-.52.34"/>
        <path fill="#FFF" fill-rule="nonzero" stroke="#52267D" stroke-width=".5" d="M166.5 107.68c-2.48.4-5 .5-7.48.23M160.55 182.24c-.7-.47-1.66-.36-2.24.27-1.16 1-2 2.45-1.5 2.6.77.22 1.6.26 2.4.12.84-.15 1.58 0 1.92-1.75.1-.5-.14-.98-.57-1.23z"/>
        <path fill="#EAF3FB" fill-rule="nonzero" d="M160.33 182.52c-.44-.3-1.03-.22-1.4.17-.72.6-1.26 1.5-.94 1.6.48.13 1 .16 1.5.07.5-.1 1 0 1.2-1.1.04-.3-.1-.6-.37-.75z"/>
        <path fill="#FFF" fill-rule="nonzero" stroke="#52267D" stroke-width=".5" d="M161.9 182.22c.52-.07 1.25 1 1.17 1.37-.08.36-.14 1.44-1 1.56-.6.1-2.77.3-3.24-.16-.47-.47.45-2.43 3.08-2.78z"/>
        <path fill="#EAF3FB" fill-rule="nonzero" d="M162.05 182.52c.3 0 .73.6.68.8-.05.2-.08.86-.57.93-.5.07-1.63.2-1.9-.1-.3-.27.24-1.42 1.8-1.63z"/>
        <path fill="#FFF" fill-rule="nonzero" stroke="#52267D" stroke-width=".5" d="M164.06 182.43s-.44-.23-1.3.27c-.88.5-1.92 1.14-1.62 2 .3.86 2.73.55 3.26.36.53-.2.86-.73.78-1.3-.1-.6-.53-1.13-1.12-1.33z"/>
        <path fill="#EAF3FB" fill-rule="nonzero" d="M164.22 182.74s-.26-.14-.77.16c-.5.3-1.13.68-1 1.2.13.5 1.6.3 1.93.2.3-.1.5-.42.46-.75-.04-.36-.28-.67-.62-.8z"/>
        <path fill="#9452BA" fill-rule="nonzero" stroke="#52267D" d="M153.92 154.62c.23 4.84-.08 9.68-.93 14.45-1.34 8.22-3.7 10.8-3.52 12.93.13 1.65.83 3.16 2.5 3.16h4.93c2.32 0 4.37-1.47 5.1-3.66.77-2.33 1.3-4.74 1.6-7.18.28-3.55.35-7.1.22-10.67M179.25 158.34c-1.6 1.5-2.5 3.62-2.47 5.83 0 2.83 1.66 6.43.62 11.13-.93 4.2-2.77 4.93-2.22 8.7.1.67.7 1.17 1.4 1.16h5.5c2.55 0 4.7-1.84 5.13-4.34.84-5.93.62-11.96-.62-17.8"/>
        <path stroke="#52267D" stroke-width=".25" d="M180.34 164.57l.32-.23 1.05.23-1.16.75-1.4-.7 1.46-1.15.66.22"/>
        <path fill="#FFF" fill-rule="nonzero" stroke="#52267D" stroke-width=".5" d="M150.55 182.24c-.7-.47-1.66-.36-2.24.27-1.16 1-2 2.45-1.5 2.6.77.22 1.6.26 2.4.12.84-.15 1.58 0 1.92-1.75.1-.5-.14-.98-.57-1.23z"/>
        <path fill="#EAF3FB" fill-rule="nonzero" d="M150.33 182.52c-.44-.3-1.03-.22-1.4.17-.72.6-1.26 1.5-.94 1.6.48.13 1 .16 1.5.07.5-.1 1 0 1.2-1.1.04-.3-.1-.6-.37-.75z"/>
        <path stroke="#52267D" stroke-width=".25" d="M158.1 167.68l-1.96.6.26 1.83 2.02.16.94-1.08-1.2-.67-1 .3.63.7"/>
        <g stroke="#F3E3FF" stroke-width=".25" opacity=".3">
            <path d="M115.94 107.65c-.03.2.07.4.24.53.18.1.4.1.6 0 .16-.12.26-.32.23-.53"/>
            <path d="M114.87 107.65c.04.27.27.47.54.47s.5-.2.54-.47M115.4 108.18c-.03.2.07.4.24.53.18.12.4.12.6 0 .16-.1.26-.3.23-.52M136.47 107.14c.24.17.56.2.82.06.25-.13.42-.4.42-.7 0-.3-.16-.56-.42-.7"/>
            <path d="M136.72 108.23c.37.2.82.07 1.04-.28.22-.36.13-.82-.2-1.06M161.9 125.14c0 .4.32.72.72.72.4 0 .72-.32.72-.72M160.46 125.14c0 .4.32.72.72.72.4 0 .72-.32.72-.72M161.18 125.86c0 .4.32.72.72.72.4 0 .72-.32.72-.72M140.43 170.67c0 .4.32.72.72.72.4 0 .72-.33.72-.73"/>
            <path d="M139 170.67c0 .4.32.72.72.72.4 0 .72-.33.72-.73M139.7 171.4c0 .4.33.7.73.7.4 0 .72-.3.72-.7M160.78 102.24c0 .44.35.8.8.8.43 0 .78-.36.78-.8"/>
            <path d="M160 103c0 .44.35.8.8.8.43 0 .78-.36.78-.8M150.7 116.2c-.13.4.02.84.37 1.08.35.25.8.25 1.16 0 .35-.24.5-.68.38-1.1"/>
            <path d="M149.73 117.14c.12.43.52.72.96.72.43 0 .83-.3.95-.72M136.75 92.33c0 .35.3.64.64.64s.63-.3.63-.64M136.1 93c0 .35.3.64.65.64.35 0 .64-.3.64-.64M197.16 157c.18.2.45.3.72.24.26-.05.48-.25.56-.5.1-.26.03-.54-.15-.74"/>
            <path d="M197.07 158.07c.18.2.45.3.72.24.25-.04.47-.24.55-.5.1-.25.03-.53-.15-.73M167.8 146.83c.1.3.38.52.7.56.32.02.64-.12.82-.4.2-.26.2-.6.05-.9M166.2 147.55c.23.4.72.57 1.14.38.4-.2.6-.67.45-1.1"/>
            <path d="M167.36 148c.12.3.4.52.7.56.33.03.65-.1.83-.38.18-.27.2-.6.04-.9"/>
            <path d="M165.78 148.7c.22.4.7.57 1.13.38.42-.2.62-.67.46-1.1M168.5 148.4c.23.4.72.58 1.14.4.4-.2.6-.68.45-1.1M152.7 98.82c0 .48.38.88.87.88.48 0 .87-.4.87-.88M152.4 131.87c0 .48.38.88.86.88.5 0 .88-.4.88-.88M162.3 113.65c0 .37.3.67.67.67.36 0 .66-.3.66-.67M178.08 98.6c0 .27.22.5.5.5s.5-.23.5-.5M182.22 171.7c.05.3.27.55.56.66.3.1.62.05.86-.15s.35-.5.3-.8M158.06 178.13c-.12.4.03.85.38 1.1.35.24.8.24 1.16 0 .35-.25.5-.7.38-1.1"/>
            <path d="M157.1 179.1c.12.42.52.7.96.7.44 0 .84-.28.96-.7"/>
        </g>
        <path fill="#FFF" fill-rule="nonzero" stroke="#52267D" stroke-width=".5" d="M151.92 182.22c.5-.07 1.24 1 1.16 1.37-.08.36-.14 1.44-1 1.56-.6.1-2.77.3-3.24-.16-.47-.47.45-2.43 3.08-2.78z"/>
        <path fill="#EAF3FB" fill-rule="nonzero" d="M152.06 182.52c.3 0 .73.6.68.8-.05.2-.08.86-.57.93-.5.07-1.63.2-1.9-.1-.3-.27.24-1.42 1.8-1.63z"/>
        <path fill="#FFF" fill-rule="nonzero" stroke="#52267D" stroke-width=".5" d="M153.72 182.76s-.4-.2-1.16.24c-.77.44-1.7 1-1.42 1.78.27.78 2.4.48 2.9.32.46-.17.75-.64.68-1.14-.08-.56-.47-1.02-1-1.2z"/>
        <path fill="#EAF3FB" fill-rule="nonzero" d="M153.87 183s-.23-.12-.68.14c-.46.26-1 .6-.85 1.05.16.44 1.43.28 1.7.18.3-.1.46-.38.42-.67-.05-.32-.28-.6-.6-.7z"/>
        <path fill="#FFF" fill-rule="nonzero" stroke="#52267D" stroke-width=".5" d="M133.44 183s-.4-.2-1.16.24c-.77.44-1.7 1-1.42 1.78.27.78 2.4.48 2.9.32.46-.17.75-.64.68-1.14-.08-.56-.47-1.02-1-1.2z"/>
        <path fill="#EAF3FB" fill-rule="nonzero" d="M133.6 183.25s-.24-.12-.7.14c-.44.25-1 .6-.83 1.04.16.45 1.43.3 1.7.2.3-.1.46-.4.42-.68-.06-.33-.3-.6-.6-.7z"/>
        <path fill="#FFF" fill-rule="nonzero" stroke="#52267D" stroke-width=".5" d="M135.8 182.43c.5-.07 1.23 1 1.15 1.37-.08.37-.14 1.45-1 1.57-.6.1-2.77.3-3.24-.16-.46-.46.46-2.42 3.1-2.77z"/>
        <path fill="#EAF3FB" fill-rule="nonzero" d="M135.93 182.74c.3 0 .73.6.68.8-.04.2-.07.86-.56.93-.5.07-1.63.2-1.9-.1-.3-.27.24-1.42 1.8-1.63z"/>
        <path fill="#FFF" fill-rule="nonzero" stroke="#52267D" stroke-width=".5" d="M177.28 182.24c-.7-.47-1.66-.36-2.24.27-1.17 1-2 2.45-1.52 2.6.78.22 1.6.26 2.4.12.85-.15 1.6 0 1.93-1.75.1-.5-.14-.98-.57-1.23z"/>
        <path fill="#EAF3FB" fill-rule="nonzero" d="M177.06 182.52c-.44-.3-1.03-.22-1.4.17-.72.6-1.26 1.5-.94 1.6.5.13 1 .16 1.5.07.52-.1 1 0 1.2-1.1.05-.3-.1-.6-.36-.75z"/>
        <path fill="#FFF" fill-rule="nonzero" stroke="#52267D" stroke-width=".5" d="M178.65 182.22c.5-.07 1.24 1 1.16 1.37-.07.36-.13 1.44-1 1.56-.6.1-2.76.3-3.23-.16-.47-.47.43-2.43 3.08-2.78z"/>
        <path fill="#EAF3FB" fill-rule="nonzero" d="M178.8 182.52c.3 0 .72.6.67.8-.05.2-.08.86-.57.93-.5.07-1.63.2-1.9-.1-.3-.27.24-1.42 1.8-1.63z"/>
        <path fill="#FFF" fill-rule="nonzero" stroke="#52267D" stroke-width=".5" d="M180.45 182.76s-.4-.2-1.16.24c-.78.44-1.7 1-1.43 1.78s2.4.48 2.9.32c.46-.17.75-.64.68-1.14-.08-.56-.47-1.02-1-1.2z"/>
        <path fill="#EAF3FB" fill-rule="nonzero" d="M180.6 183s-.23-.12-.68.14c-.45.26-1 .6-.84 1.05.16.44 1.43.28 1.7.18.3-.1.46-.38.42-.67-.05-.32-.28-.6-.6-.7z"/>
        <path fill="#FFF" fill-rule="nonzero" stroke="#52267D" stroke-width=".5" d="M142.46 182.9c.13-.12.34-.16.5-.1.6.3 2.07 1.07 1.76 2.13-.24.82-.74.58-1.7.6h-.73c-.16 0-.3-.1-.38-.22-.4-.8-.2-1.77.5-2.36l.04-.03z"/>
        <path fill="#EAF3FB" fill-rule="nonzero" d="M142.53 183.14c.1-.1.24-.12.37-.07.42.2 1.5.77 1.27 1.54-.17.6-.54.43-1.24.44h-.53c-.1 0-.2-.05-.27-.15-.3-.6-.14-1.3.35-1.73l.05-.03z"/>
        <path fill="#FFF" fill-rule="nonzero" stroke="#52267D" stroke-width=".5" d="M139 182.6c-.67-.54-1.62-.5-2.25.07-1.24.86-2.24 2.26-1.74 2.45.77.28 1.6.4 2.4.32.85-.08 1.58.14 2.06-1.58.13-.48-.06-.98-.46-1.27z"/>
        <path fill="#EAF3FB" fill-rule="nonzero" d="M138.8 182.86c-.4-.34-1-.34-1.4 0-.76.53-1.4 1.4-1.07 1.52.48.18.98.24 1.5.2.52-.05 1 .1 1.27-1 .05-.28-.06-.56-.3-.72z"/>
        <path fill="#FFF" fill-rule="nonzero" stroke="#375D81" stroke-width="2" d="M16.98 185.53h36M192.32 185.53h44" stroke-linecap="round" stroke-linejoin="round"/>
        <rect width="128.64" height="186.53" x="59.44" fill="#FFF" fill-rule="nonzero" stroke="#375D81" stroke-width="2" rx="2.25"/>
        <path stroke="#375D81" stroke-width="2" d="M203.98 32.54v7M207.48 36.04h-7" stroke-linecap="round" stroke-linejoin="round"/>
        <path stroke="#375D81" d="M39.73 152.82v3.94M41.7 154.8h-3.94" stroke-linecap="round"/>
        <path stroke="#375D81" d="M214.73 92.82v3.94M216.7 94.8h-3.94" stroke-linecap="round" stroke-linejoin="round"/>
        <path stroke="#375D81" d="M45.73 52.82v3.94M47.7 54.8h-3.94" stroke-linecap="round"/>
        <path fill="#FFF" fill-rule="nonzero" stroke="#375D81" stroke-width="2" d="M23.42 91.42v8.12M27.48 95.48h-8.13" stroke-linecap="round"/>
        <path fill="#FFF" fill-rule="nonzero" stroke="#375D81" stroke-width="2" d="M243.17 185.3h6.97M0 185.3h8.97M92.38 194.6h67.2M168.2 194.6h9.13M84.5 194.53l-5 .08" stroke-linecap="round" stroke-linejoin="round"/>
        <circle cx="120.73" cy="82.87" r="33.43" fill="#EFEFF6" fill-rule="nonzero"/>
        <circle cx="124.79" cy="76.11" r="33.43" fill="#FFF" fill-rule="nonzero" stroke="#375D81" stroke-width="2" stroke-dasharray="50"/>
        <path fill="#9452BA" fill-rule="nonzero" d="M133.52 91.07c.14.42.26.7.3.8-.94-9.12 4.22-12.92 5.88-19 0-.1.03-.2.05-.3l.08-.42c.25-1.67-.44-3.62-1.74-5.65l-.35-.5c-.2-.32-.44-.63-.68-.94L137 65l-.2-.25-.2-.26-.22-.26-.22-.26-.16-.18c-2.24-2.5-4.74-4.75-7.47-6.7.37 3.2.4 6.4.1 9.6-.53 3.7-1.62 7.28-3.23 10.64-3.72-.27-7.37-1.12-10.83-2.5-2.94-1.32-5.72-2.95-8.3-4.87 0 .3.06.57.1.85v.25c0 .2.05.4.08.6.03.22 0 .2 0 .3 0 .08.06.4.1.6v.25c0 .26.08.5.12.76v.07c.05.3.1.6.17.88v.07l.16.78v.16l.16.7v.15l.2.8c.23.85.48 1.68.75 2.47.43 1.24.95 2.45 1.56 3.6l.26.47.24.4.27.4v.05l.36.48.05.08.43.5.3.32.14.13.2.2.15.1.2.16.14.1.2.15.16.1.2.12.16.08.25.1.12.06.37.13.23.07c6.08 1.6 12-.94 19.43 4.37"/>
        <path stroke="#E1F2FF" stroke-width="2" d="M73.87 117.42c.13-9.1 5.38-17.36 13.58-21.33" stroke-linecap="round" stroke-linejoin="round"/>
        <path fill="#E1F2FF" fill-rule="nonzero" d="M85.84 106.68l-1.9-.6 2.94-9.4-9.6-2.27.46-1.94 11.7 2.76"/>
        <path stroke="#E1F2FF" stroke-width="2" d="M95.16 25.33c9.06.9 16.83 6.85 20.1 15.35" stroke-linecap="round" stroke-linejoin="round"/>
        <path fill="#E1F2FF" fill-rule="nonzero" d="M104.84 38.18l.76-1.85 9.12 3.74 3.07-9.37 1.9.62-3.75 11.42"/>
        <path stroke="#9ACDED" stroke-width="2" d="M76.3 17.75l10.2 10.22M86.5 17.75L76.3 27.97" stroke-linecap="round" stroke-linejoin="round"/>
        <path fill="#9ACDED" fill-rule="nonzero" d="M165.4 18.7c.23-.2.46-.37.7-.53.25-.16.52-.3.8-.42.3-.12.62-.22.94-.28.36-.07.72-.1 1.08-.1.5 0 .98.07 1.45.22.4.12.78.33 1.1.6.32.3.57.63.73 1 .17.4.26.85.25 1.3 0 .4-.06.78-.2 1.16-.1.3-.27.6-.47.86-.2.24-.4.45-.64.63l-.66.5c-.2.14-.37.3-.54.46-.14.15-.24.32-.28.5l-.22 1.3h-1.68l-.17-1.45c-.06-.25-.02-.5.1-.74.12-.2.27-.4.45-.57.2-.18.42-.35.64-.5.22-.17.44-.35.65-.54.2-.2.38-.4.52-.64.14-.25.22-.54.2-.83.03-.36-.13-.7-.4-.94-.3-.25-.68-.38-1.07-.36-.28 0-.56.03-.83.1-.2.07-.4.15-.57.25l-.4.23c-.1.07-.2.1-.33.1-.2.02-.4-.1-.5-.28l-.66-1.06zm1.68 10.45c0-.2.04-.38.1-.56.08-.18.2-.33.32-.46.58-.56 1.5-.56 2.07 0 .13.13.24.28.3.45.24.53.12 1.15-.3 1.56-.13.13-.3.23-.46.3-.17.07-.36.1-.56.1-.2 0-.4-.03-.57-.1-.35-.14-.62-.4-.77-.75-.08-.16-.12-.35-.12-.54z"/>
        <circle cx="74.18" cy="124.02" r="1.73" fill="#9ACDED" fill-rule="nonzero"/>
        <circle cx="79.44" cy="124.02" r="1.73" fill="#9ACDED" fill-rule="nonzero"/>
        <circle cx="84.7" cy="124.02" r="1.73" fill="#9ACDED" fill-rule="nonzero"/>
        <circle cx="149.11" cy="44.44" r="12.16" stroke="#E1F2FF" stroke-width="2"/>
        <path stroke="#E1F2FF" stroke-width="2" d="M150.07 91.36s20.6 10.93 10.06 33.35" stroke-linecap="round" stroke-linejoin="round"/>
        <path fill="#E1F2FF" fill-rule="nonzero" d="M155 115.4l1.88-.7 3.4 9.25 9-4.08.82 1.82-10.94 4.96"/>
        <path fill="#FFF" fill-rule="nonzero" stroke="#E1F2FF" stroke-width="2" d="M165.9 65.42h10.72M165.9 69.45h10.72M165.9 73.48h5.82M165.9 77.45h8.27M165.9 81.48h10.72M73.6 39.44h13.13M73.6 43.47h10.13M73.6 47.5h7.13M73.6 51.76h13.13M73.6 55.8h13.13M73.6 59.82h7.13" stroke-linecap="round" stroke-linejoin="round"/>
        <rect width="8.33" height="8.33" x="91.7" y="135.55" fill="#E1F2FF" fill-rule="nonzero" rx="2"/>
        <rect width="8.33" height="8.33" x="91.7" y="149.14" fill="#E1F2FF" fill-rule="nonzero" rx="2"/>
        <rect width="8.33" height="8.33" x="91.7" y="162.73" fill="#E1F2FF" fill-rule="nonzero" rx="2"/>
        <path fill="#9ACDED" fill-rule="nonzero" d="M109.5 141.16c1.6-1.12 3.2-2.33 4.86-3.37.85-.8 1.88-1.36 3-1.66 1.12-.93 1.95-.68 2.48.75 1.36 1 1.68 3.75 3.35 4.34.9.24 1.9.03 2.63-.57.62-.4.9-1.23 1.5-1.6 1.6-1 3-.33 4.5.22 1.53.54 1.66 1 3.26.85.55 0 1-.74 1.48-.9 1.8-.53 2.43.12 3.82.63 4.35 1.6 7.6.4 12.23-.65 1.4-.32.8-2.5-.6-2.17-1.4.32-3.1.86-4.63 1.06-2.65.34-4.82-.52-7.13-1.36-1.2-.43-1.58-.88-3-.77-.55 0-1 .65-1.5.85-3.14 1.3-2 .66-4.16-.54-1.08-.8-2.48-1.02-3.76-.6-1.18.42-2.1 2.62-3 2.83-1.84.43-3.66-4.24-5.06-5-3.5-1.9-8.82 3.9-11.4 5.7-1.18.8-.06 2.76 1.14 1.93h-.02zM109.76 168.82c5.3-2.75 8.38-3.52 14-1.2 2.82 1.16 3.92-.32 7.2-.16 2.72.13 4.84 1 7.54 0 3.16-1.13 2.64-2.1 7.3-1.72 2.46.2 5.1 1.18 7.5 1.73 1.42.33 2-1.84.6-2.17-3.75-.87-8.6-3-12.5-1.78-3.18 1-4.9 2.46-8.6 1.92-1.48-.3-3-.4-4.53-.36-1.88.13-2.2.54-4.35-.2-1.2-.54-2.45-.94-3.73-1.2-4.17-.52-7.94 1.3-11.54 3.15-1.3.67-.15 2.6 1.14 1.94l-.04.05zM110.5 154.48c1.87-.18 3.73-.52 5.56-1 2.36-.53 3.93-.95 6.3 0 1 .42 1.67.92 2.56 1.3 2 .83 2.4.57 4.1-.57 1.56-1 1.18-1.44 3.17-.35 1 .57 1.8 1.63 3.05 1.8 2.55.32 3.36-2.27 5.05-3.58h-1.6c2.77 2.72 5.3 1.43 8.88 1.36 1.4.1 2.8.02 4.2-.2 1.08-.26 1.4-1.5 2.36-.68.95.8 2.7-.65 1.6-1.6-.66-.65-1.5-1.1-2.4-1.3-.5-.1-1 .1-1.27.53-1.17 1.66-10.73 1.34-11.8.3-.44-.42-1.13-.42-1.58 0-1.37 1.05-1.95 2.74-4.16 2.35-1.3-.22-2.16-2.14-3.57-2.4-1.4-.26-1.6.44-2.76.9-1.14.46-1.1 1-3.35.43-1.2-.33-1.52-.9-2.85-1.18-3.85-.8-7.75 1.37-11.53 1.6-1.44.1-1.45 2.35 0 2.26l.02.04z"/>
    </g>
</svg>