<svg width="256" height="256" xmlns="http://www.w3.org/2000/svg" xmlns:xlink="http://www.w3.org/1999/xlink">
  <defs>
    <path d="M39.919 34.406s-52.239-10.983-35.7 21.371c16.54 32.353 102.04-16.652 102.04-16.652l-24-38.628" id="a"/>
    <path d="M39.919 34.406s-52.239-10.983-35.7 21.371c16.54 32.353 102.04-16.652 102.04-16.652l-24-38.628-42.34 33.909z" id="c"/>
    <path d="M39.919 34.406s-52.239-10.983-35.7 21.371c16.54 32.353 102.04-16.652 102.04-16.652l-24-38.628" id="e"/>
    <path d="M39.919 34.406s-52.239-10.983-35.7 21.371c16.54 32.353 102.04-16.652 102.04-16.652l-24-38.628-42.34 33.909z" id="g"/>
    <path d="M39.919 34.406s-52.239-10.983-35.7 21.371c16.54 32.353 102.04-16.652 102.04-16.652l-24-38.628" id="i"/>
    <path d="M39.919 34.406s-52.239-10.983-35.7 21.371c16.54 32.353 102.04-16.652 102.04-16.652l-24-38.628" id="k"/>
    <path d="M39.919 34.406s-52.239-10.983-35.7 21.371c16.54 32.353 102.04-16.652 102.04-16.652l-24-38.628-42.34 33.909z" id="m"/>
    <path d="M39.919 34.406s-52.239-10.983-35.7 21.371c16.54 32.353 102.04-16.652 102.04-16.652l-24-38.628" id="o"/>
    <path d="M39.919 34.406s-52.239-10.983-35.7 21.371c16.54 32.353 102.04-16.652 102.04-16.652l-24-38.628-42.34 33.909z" id="q"/>
    <path d="M39.919 34.406s-52.239-10.983-35.7 21.371c16.54 32.353 102.04-16.652 102.04-16.652l-24-38.628" id="s"/>
    <path d="M39.919 34.406s-52.239-10.983-35.7 21.371c16.54 32.353 102.04-16.652 102.04-16.652l-24-38.628" id="u"/>
    <path d="M39.919 34.406s-52.239-10.983-35.7 21.371c16.54 32.353 102.04-16.652 102.04-16.652l-24-38.628-42.34 33.909z" id="w"/>
    <path d="M39.919 34.406s-52.239-10.983-35.7 21.371c16.54 32.353 102.04-16.652 102.04-16.652l-24-38.628" id="y"/>
    <path d="M39.919 34.406s-52.239-10.983-35.7 21.371c16.54 32.353 102.04-16.652 102.04-16.652l-24-38.628-42.34 33.909z" id="A"/>
    <path d="M39.919 34.406s-52.239-10.983-35.7 21.371c16.54 32.353 102.04-16.652 102.04-16.652l-24-38.628" id="C"/>
    <path d="M39.919 34.406s-52.239-10.983-35.7 21.371c16.54 32.353 102.04-16.652 102.04-16.652l-24-38.628-42.34 33.909z" id="E"/>
    <path d="M39.919 34.406s-52.239-10.983-35.7 21.371c16.54 32.353 102.04-16.652 102.04-16.652l-24-38.628" id="G"/>
    <path d="M39.919 34.406s-52.239-10.983-35.7 21.371c16.54 32.353 102.04-16.652 102.04-16.652l-24-38.628-42.34 33.909z" id="I"/>
    <path d="M39.919 34.406s-52.239-10.983-35.7 21.371c16.54 32.353 102.04-16.652 102.04-16.652l-24-38.628" id="K"/>
    <path d="M39.919 34.406s-52.239-10.983-35.7 21.371c16.54 32.353 102.04-16.652 102.04-16.652l-24-38.628" id="M"/>
    <path d="M39.919 34.406s-52.239-10.983-35.7 21.371c16.54 32.353 102.04-16.652 102.04-16.652l-24-38.628" id="O"/>
    <path d="M39.919 34.406s-52.239-10.983-35.7 21.371c16.54 32.353 102.04-16.652 102.04-16.652l-24-38.628" id="Q"/>
    <path d="M39.919 34.406s-52.239-10.983-35.7 21.371c16.54 32.353 102.04-16.652 102.04-16.652l-24-38.628" id="S"/>
    <path d="M39.919 34.406s-52.239-10.983-35.7 21.371c16.54 32.353 102.04-16.652 102.04-16.652l-24-38.628-42.34 33.909z" id="U"/>
    <path d="M39.919 34.406s-52.239-10.983-35.7 21.371c16.54 32.353 102.04-16.652 102.04-16.652l-24-38.628" id="W"/>
    <path d="M39.919 34.406s-52.239-10.983-35.7 21.371c16.54 32.353 102.04-16.652 102.04-16.652l-24-38.628" id="Y"/>
    <path d="M39.919 34.406s-52.239-10.983-35.7 21.371c16.54 32.353 102.04-16.652 102.04-16.652l-24-38.628" id="aa"/>
    <path d="M39.919 34.406s-52.239-10.983-35.7 21.371c16.54 32.353 102.04-16.652 102.04-16.652l-24-38.628" id="ac"/>
    <path d="M39.919 34.406s-52.239-10.983-35.7 21.371c16.54 32.353 102.04-16.652 102.04-16.652l-24-38.628" id="ae"/>
    <path d="M39.919 34.406s-52.239-10.983-35.7 21.371c16.54 32.353 102.04-16.652 102.04-16.652l-24-38.628" id="ag"/>
    <path d="M39.919 34.406s-52.239-10.983-35.7 21.371c16.54 32.353 102.04-16.652 102.04-16.652l-24-38.628-42.34 33.909z" id="ai"/>
    <path d="M39.919 34.406s-52.239-10.983-35.7 21.371c16.54 32.353 102.04-16.652 102.04-16.652l-24-38.628" id="ak"/>
    <path d="M39.919 34.406s-52.239-10.983-35.7 21.371c16.54 32.353 102.04-16.652 102.04-16.652l-24-38.628-42.34 33.909z" id="am"/>
    <path d="M39.919 34.406s-52.239-10.983-35.7 21.371c16.54 32.353 102.04-16.652 102.04-16.652l-24-38.628" id="ao"/>
    <path d="M39.919 34.406s-52.239-10.983-35.7 21.371c16.54 32.353 102.04-16.652 102.04-16.652l-24-38.628-42.34 33.909z" id="aq"/>
    <path d="M39.919 34.406s-52.239-10.983-35.7 21.371c16.54 32.353 102.04-16.652 102.04-16.652l-24-38.628" id="as"/>
    <path d="M39.919 34.406s-52.239-10.983-35.7 21.371c16.54 32.353 102.04-16.652 102.04-16.652l-24-38.628" id="au"/>
    <path d="M39.919 34.406s-52.239-10.983-35.7 21.371c16.54 32.353 102.04-16.652 102.04-16.652l-24-38.628" id="aw"/>
    <path d="M39.919 34.406s-52.239-10.983-35.7 21.371c16.54 32.353 102.04-16.652 102.04-16.652l-24-38.628-42.34 33.909z" id="ay"/>
    <path d="M39.919 34.406s-52.239-10.983-35.7 21.371c16.54 32.353 102.04-16.652 102.04-16.652l-24-38.628" id="aA"/>
    <path d="M39.919 34.406s-52.239-10.983-35.7 21.371c16.54 32.353 102.04-16.652 102.04-16.652l-24-38.628" id="aC"/>
    <path d="M39.919 34.406s-52.239-10.983-35.7 21.371c16.54 32.353 102.04-16.652 102.04-16.652l-24-38.628-42.34 33.909z" id="aE"/>
    <path d="M39.919 34.406s-52.239-10.983-35.7 21.371c16.54 32.353 102.04-16.652 102.04-16.652l-24-38.628" id="aG"/>
    <path d="M39.919 34.406s-52.239-10.983-35.7 21.371c16.54 32.353 102.04-16.652 102.04-16.652l-24-38.628" id="aI"/>
    <path d="M39.919 34.406s-52.239-10.983-35.7 21.371c16.54 32.353 102.04-16.652 102.04-16.652l-24-38.628-42.34 33.909z" id="aK"/>
    <path d="M39.919 34.406s-52.239-10.983-35.7 21.371c16.54 32.353 102.04-16.652 102.04-16.652l-24-38.628" id="aM"/>
    <path d="M39.919 34.406s-52.239-10.983-35.7 21.371c16.54 32.353 102.04-16.652 102.04-16.652l-24-38.628" id="aO"/>
    <path d="M39.919 34.406s-52.239-10.983-35.7 21.371c16.54 32.353 102.04-16.652 102.04-16.652l-24-38.628-42.34 33.909z" id="aQ"/>
    <path d="M39.919 34.406s-52.239-10.983-35.7 21.371c16.54 32.353 102.04-16.652 102.04-16.652l-24-38.628" id="aS"/>
    <path d="M39.919 34.406s-52.239-10.983-35.7 21.371c16.54 32.353 102.04-16.652 102.04-16.652l-24-38.628" id="aU"/>
    <path d="M39.919 34.406s-52.239-10.983-35.7 21.371c16.54 32.353 102.04-16.652 102.04-16.652l-24-38.628-42.34 33.909z" id="aW"/>
    <path d="M39.919 34.406s-52.239-10.983-35.7 21.371c16.54 32.353 102.04-16.652 102.04-16.652l-24-38.628" id="aY"/>
    <path d="M39.919 34.406s-52.239-10.983-35.7 21.371c16.54 32.353 102.04-16.652 102.04-16.652l-24-38.628-42.34 33.909z" id="ba"/>
    <path d="M39.919 34.406s-52.239-10.983-35.7 21.371c16.54 32.353 102.04-16.652 102.04-16.652l-24-38.628" id="bc"/>
    <path d="M39.919 34.406s-52.239-10.983-35.7 21.371c16.54 32.353 102.04-16.652 102.04-16.652l-24-38.628-42.34 33.909z" id="be"/>
    <path d="M39.919 34.406s-52.239-10.983-35.7 21.371c16.54 32.353 102.04-16.652 102.04-16.652l-24-38.628" id="bg"/>
    <path d="M39.919 34.406s-52.239-10.983-35.7 21.371c16.54 32.353 102.04-16.652 102.04-16.652l-24-38.628-42.34 33.909z" id="bi"/>
    <path d="M39.919 34.406s-52.239-10.983-35.7 21.371c16.54 32.353 102.04-16.652 102.04-16.652l-24-38.628" id="bk"/>
    <path d="M39.919 34.406s-52.239-10.983-35.7 21.371c16.54 32.353 102.04-16.652 102.04-16.652l-24-38.628" id="bm"/>
    <path d="M39.919 34.406s-52.239-10.983-35.7 21.371c16.54 32.353 102.04-16.652 102.04-16.652l-24-38.628" id="bo"/>
    <path d="M39.919 34.406s-52.239-10.983-35.7 21.371c16.54 32.353 102.04-16.652 102.04-16.652l-24-38.628" id="bq"/>
    <path d="M39.919 34.406s-52.239-10.983-35.7 21.371c16.54 32.353 102.04-16.652 102.04-16.652l-24-38.628" id="bs"/>
    <path d="M39.919 34.406s-52.239-10.983-35.7 21.371c16.54 32.353 102.04-16.652 102.04-16.652l-24-38.628" id="bu"/>
    <path d="M39.919 34.406s-52.239-10.983-35.7 21.371c16.54 32.353 102.04-16.652 102.04-16.652l-24-38.628" id="bw"/>
    <path d="M39.919 34.406s-52.239-10.983-35.7 21.371c16.54 32.353 102.04-16.652 102.04-16.652l-24-38.628-42.34 33.909z" id="by"/>
    <path d="M39.919 34.406s-52.239-10.983-35.7 21.371c16.54 32.353 102.04-16.652 102.04-16.652l-24-38.628" id="bA"/>
    <path d="M39.919 34.406s-52.239-10.983-35.7 21.371c16.54 32.353 102.04-16.652 102.04-16.652l-24-38.628" id="bC"/>
    <path d="M39.919 34.406s-52.239-10.983-35.7 21.371c16.54 32.353 102.04-16.652 102.04-16.652l-24-38.628-42.34 33.909z" id="bE"/>
    <path d="M39.919 34.406s-52.239-10.983-35.7 21.371c16.54 32.353 102.04-16.652 102.04-16.652l-24-38.628" id="bG"/>
    <path d="M39.919 34.406s-52.239-10.983-35.7 21.371c16.54 32.353 102.04-16.652 102.04-16.652l-24-38.628" id="bI"/>
    <path d="M39.919 34.406s-52.239-10.983-35.7 21.371c16.54 32.353 102.04-16.652 102.04-16.652l-24-38.628" id="bK"/>
    <path d="M39.919 34.406s-52.239-10.983-35.7 21.371c16.54 32.353 102.04-16.652 102.04-16.652l-24-38.628-42.34 33.909z" id="bM"/>
    <path d="M39.919 34.406s-52.239-10.983-35.7 21.371c16.54 32.353 102.04-16.652 102.04-16.652l-24-38.628" id="bO"/>
    <path d="M39.919 34.406s-52.239-10.983-35.7 21.371c16.54 32.353 102.04-16.652 102.04-16.652l-24-38.628" id="bQ"/>
    <path d="M39.919 34.406s-52.239-10.983-35.7 21.371c16.54 32.353 102.04-16.652 102.04-16.652l-24-38.628" id="bS"/>
    <path d="M39.919 34.406s-52.239-10.983-35.7 21.371c16.54 32.353 102.04-16.652 102.04-16.652l-24-38.628" id="bU"/>
    <path d="M39.919 34.406s-52.239-10.983-35.7 21.371c16.54 32.353 102.04-16.652 102.04-16.652l-24-38.628" id="bW"/>
    <path d="M39.919 34.406s-52.239-10.983-35.7 21.371c16.54 32.353 102.04-16.652 102.04-16.652l-24-38.628" id="bY"/>
    <path d="M39.919 34.406s-52.239-10.983-35.7 21.371c16.54 32.353 102.04-16.652 102.04-16.652l-24-38.628" id="ca"/>
    <path d="M39.919 34.406s-52.239-10.983-35.7 21.371c16.54 32.353 102.04-16.652 102.04-16.652l-24-38.628" id="cc"/>
    <path d="M39.919 34.406s-52.239-10.983-35.7 21.371c16.54 32.353 102.04-16.652 102.04-16.652l-24-38.628" id="ce"/>
    <path d="M39.919 34.406s-52.239-10.983-35.7 21.371c16.54 32.353 102.04-16.652 102.04-16.652l-24-38.628-42.34 33.909z" id="cg"/>
    <path d="M39.919 34.406s-52.239-10.983-35.7 21.371c16.54 32.353 102.04-16.652 102.04-16.652l-24-38.628" id="ci"/>
    <path d="M39.919 34.406s-52.239-10.983-35.7 21.371c16.54 32.353 102.04-16.652 102.04-16.652l-24-38.628" id="ck"/>
    <path d="M39.919 34.406s-52.239-10.983-35.7 21.371c16.54 32.353 102.04-16.652 102.04-16.652l-24-38.628-42.34 33.909z" id="cm"/>
    <path d="M39.919 34.406s-52.239-10.983-35.7 21.371c16.54 32.353 102.04-16.652 102.04-16.652l-24-38.628" id="co"/>
    <path d="M39.919 34.406s-52.239-10.983-35.7 21.371c16.54 32.353 102.04-16.652 102.04-16.652l-24-38.628" id="cq"/>
    <path d="M39.919 34.406s-52.239-10.983-35.7 21.371c16.54 32.353 102.04-16.652 102.04-16.652l-24-38.628-42.34 33.909z" id="cs"/>
    <path d="M39.919 34.406s-52.239-10.983-35.7 21.371c16.54 32.353 102.04-16.652 102.04-16.652l-24-38.628" id="cu"/>
    <path d="M39.919 34.406s-52.239-10.983-35.7 21.371c16.54 32.353 102.04-16.652 102.04-16.652l-24-38.628" id="cw"/>
    <path d="M39.919 34.406s-52.239-10.983-35.7 21.371c16.54 32.353 102.04-16.652 102.04-16.652l-24-38.628" id="cy"/>
    <path d="M39.919 34.406s-52.239-10.983-35.7 21.371c16.54 32.353 102.04-16.652 102.04-16.652l-24-38.628" id="cA"/>
    <path d="M39.919 34.406s-52.239-10.983-35.7 21.371c16.54 32.353 102.04-16.652 102.04-16.652l-24-38.628" id="cC"/>
    <path d="M39.919 34.406s-52.239-10.983-35.7 21.371c16.54 32.353 102.04-16.652 102.04-16.652l-24-38.628-42.34 33.909z" id="cE"/>
    <path d="M39.919 34.406s-52.239-10.983-35.7 21.371c16.54 32.353 102.04-16.652 102.04-16.652l-24-38.628" id="cG"/>
    <path d="M39.919 34.406s-52.239-10.983-35.7 21.371c16.54 32.353 102.04-16.652 102.04-16.652l-24-38.628" id="cI"/>
    <path d="M39.919 34.406s-52.239-10.983-35.7 21.371c16.54 32.353 102.04-16.652 102.04-16.652l-24-38.628" id="cK"/>
    <path d="M39.919 34.406s-52.239-10.983-35.7 21.371c16.54 32.353 102.04-16.652 102.04-16.652l-24-38.628" id="cM"/>
    <path d="M39.919 34.406s-52.239-10.983-35.7 21.371c16.54 32.353 102.04-16.652 102.04-16.652l-24-38.628" id="cO"/>
    <path d="M39.919 34.406s-52.239-10.983-35.7 21.371c16.54 32.353 102.04-16.652 102.04-16.652l-24-38.628" id="cQ"/>
    <path d="M39.919 34.406s-52.239-10.983-35.7 21.371c16.54 32.353 102.04-16.652 102.04-16.652l-24-38.628" id="cS"/>
    <path d="M39.919 34.406s-52.239-10.983-35.7 21.371c16.54 32.353 102.04-16.652 102.04-16.652l-24-38.628" id="cU"/>
    <path d="M39.919 34.406s-52.239-10.983-35.7 21.371c16.54 32.353 102.04-16.652 102.04-16.652l-24-38.628" id="cW"/>
    <path d="M39.919 34.406s-52.239-10.983-35.7 21.371c16.54 32.353 102.04-16.652 102.04-16.652l-24-38.628" id="cY"/>
    <path d="M39.919 34.406s-52.239-10.983-35.7 21.371c16.54 32.353 102.04-16.652 102.04-16.652l-24-38.628" id="da"/>
    <path d="M39.919 34.406s-52.239-10.983-35.7 21.371c16.54 32.353 102.04-16.652 102.04-16.652l-24-38.628" id="dc"/>
    <path d="M39.919 34.406s-52.239-10.983-35.7 21.371c16.54 32.353 102.04-16.652 102.04-16.652l-24-38.628" id="de"/>
    <path d="M39.919 34.406s-52.239-10.983-35.7 21.371c16.54 32.353 102.04-16.652 102.04-16.652l-24-38.628" id="dg"/>
    <path d="M39.919 34.406s-52.239-10.983-35.7 21.371c16.54 32.353 102.04-16.652 102.04-16.652l-24-38.628" id="di"/>
    <path d="M39.919 34.406s-52.239-10.983-35.7 21.371c16.54 32.353 102.04-16.652 102.04-16.652l-24-38.628" id="dk"/>
    <path d="M39.919 34.406s-52.239-10.983-35.7 21.371c16.54 32.353 102.04-16.652 102.04-16.652l-24-38.628" id="dm"/>
    <path d="M39.919 34.406s-52.239-10.983-35.7 21.371c16.54 32.353 102.04-16.652 102.04-16.652l-24-38.628" id="do"/>
    <path d="M39.919 34.406s-52.239-10.983-35.7 21.371c16.54 32.353 102.04-16.652 102.04-16.652l-24-38.628" id="dq"/>
    <path d="M39.919 34.406s-52.239-10.983-35.7 21.371c16.54 32.353 102.04-16.652 102.04-16.652l-24-38.628" id="ds"/>
    <path d="M39.919 34.406s-52.239-10.983-35.7 21.371c16.54 32.353 102.04-16.652 102.04-16.652l-24-38.628" id="du"/>
    <path d="M39.919 34.406s-52.239-10.983-35.7 21.371c16.54 32.353 102.04-16.652 102.04-16.652l-24-38.628" id="dw"/>
    <path d="M39.919 34.406s-52.239-10.983-35.7 21.371c16.54 32.353 102.04-16.652 102.04-16.652l-24-38.628" id="dy"/>
    <path d="M39.919 34.406s-52.239-10.983-35.7 21.371c16.54 32.353 102.04-16.652 102.04-16.652l-24-38.628" id="dA"/>
    <path d="M39.919 34.406s-52.239-10.983-35.7 21.371c16.54 32.353 102.04-16.652 102.04-16.652l-24-38.628" id="dC"/>
    <path d="M39.919 34.406s-52.239-10.983-35.7 21.371c16.54 32.353 102.04-16.652 102.04-16.652l-24-38.628" id="dE"/>
    <path d="M39.919 34.406s-52.239-10.983-35.7 21.371c16.54 32.353 102.04-16.652 102.04-16.652l-24-38.628" id="dG"/>
    <path d="M39.919 34.406s-52.239-10.983-35.7 21.371c16.54 32.353 102.04-16.652 102.04-16.652l-24-38.628" id="dI"/>
    <path d="M39.919 34.406s-52.239-10.983-35.7 21.371c16.54 32.353 102.04-16.652 102.04-16.652l-24-38.628" id="dK"/>
    <path d="M39.919 34.406s-52.239-10.983-35.7 21.371c16.54 32.353 102.04-16.652 102.04-16.652l-24-38.628" id="dM"/>
    <path d="M39.919 34.406s-52.239-10.983-35.7 21.371c16.54 32.353 102.04-16.652 102.04-16.652l-24-38.628" id="dO"/>
    <path d="M39.919 34.406s-52.239-10.983-35.7 21.371c16.54 32.353 102.04-16.652 102.04-16.652l-24-38.628" id="dQ"/>
    <path d="M39.919 34.406s-52.239-10.983-35.7 21.371c16.54 32.353 102.04-16.652 102.04-16.652l-24-38.628" id="dS"/>
    <path d="M39.919 34.406s-52.239-10.983-35.7 21.371c16.54 32.353 102.04-16.652 102.04-16.652l-24-38.628" id="dU"/>
    <path d="M39.919 34.406s-52.239-10.983-35.7 21.371c16.54 32.353 102.04-16.652 102.04-16.652l-24-38.628-42.34 33.909z" id="dW"/>
    <path d="M39.919 34.406s-52.239-10.983-35.7 21.371c16.54 32.353 102.04-16.652 102.04-16.652l-24-38.628" id="dY"/>
    <path d="M39.919 34.406s-52.239-10.983-35.7 21.371c16.54 32.353 102.04-16.652 102.04-16.652l-24-38.628" id="ea"/>
    <path d="M39.919 34.406s-52.239-10.983-35.7 21.371c16.54 32.353 102.04-16.652 102.04-16.652l-24-38.628-42.34 33.909z" id="ec"/>
    <path d="M39.919 34.406s-52.239-10.983-35.7 21.371c16.54 32.353 102.04-16.652 102.04-16.652l-24-38.628" id="ee"/>
    <path d="M39.919 34.406s-52.239-10.983-35.7 21.371c16.54 32.353 102.04-16.652 102.04-16.652l-24-38.628" id="eg"/>
    <path d="M39.919 34.406s-52.239-10.983-35.7 21.371c16.54 32.353 102.04-16.652 102.04-16.652l-24-38.628-42.34 33.909z" id="ei"/>
    <path d="M39.919 34.406s-52.239-10.983-35.7 21.371c16.54 32.353 102.04-16.652 102.04-16.652l-24-38.628" id="ek"/>
    <path d="M39.919 34.406s-52.239-10.983-35.7 21.371c16.54 32.353 102.04-16.652 102.04-16.652l-24-38.628" id="em"/>
    <path d="M39.919 34.406s-52.239-10.983-35.7 21.371c16.54 32.353 102.04-16.652 102.04-16.652l-24-38.628-42.34 33.909z" id="eo"/>
    <path d="M39.919 34.406s-52.239-10.983-35.7 21.371c16.54 32.353 102.04-16.652 102.04-16.652l-24-38.628" id="eq"/>
    <path d="M39.919 34.406s-52.239-10.983-35.7 21.371c16.54 32.353 102.04-16.652 102.04-16.652l-24-38.628" id="es"/>
    <path d="M39.919 34.406s-52.239-10.983-35.7 21.371c16.54 32.353 102.04-16.652 102.04-16.652l-24-38.628-42.34 33.909z" id="eu"/>
    <path d="M39.919 34.406s-52.239-10.983-35.7 21.371c16.54 32.353 102.04-16.652 102.04-16.652l-24-38.628" id="ew"/>
    <path id="ey" d="M.092.98h43.251v43.25H.092z"/>
    <path id="eA" d="M.8.98h43.252v43.25H.8z"/>
  </defs>
  <g fill="none" fill-rule="evenodd">
    <path d="M24.512 217.702c0-57.193 46.364-103.558 103.558-103.558 57.193 0 103.557 46.365 103.557 103.558H24.512z" fill="#E1F2FF"/>
    <path d="M219.654 208.911H196.01v-21.075a2.537 2.537 0 0 1 2.538-2.537h18.567a2.537 2.537 0 0 1 2.538 2.537v21.075z" fill="#E1F2FF"/>
    <path d="M219.654 208.911H196.01v-21.075a2.537 2.537 0 0 1 2.538-2.537h18.567a2.537 2.537 0 0 1 2.538 2.537v21.075z" stroke="#ACD3EF" stroke-width="2"/>
    <path d="M195.763 193.524h23.445" fill="#E1F2FF"/>
    <path d="M195.763 193.524h23.445" stroke="#ACD3EF" stroke-width="2"/>
    <path d="M195.763 201.176h23.445" fill="#E1F2FF"/>
    <path d="M195.763 201.176h23.445" stroke="#ACD3EF" stroke-width="2"/>
    <path d="M65.237 208.634H41.596v-21.075a2.537 2.537 0 0 1 2.538-2.537H62.7a2.537 2.537 0 0 1 2.537 2.537v21.075z" fill="#E1F2FF"/>
    <path d="M65.237 208.634H41.596v-21.075a2.537 2.537 0 0 1 2.538-2.537H62.7a2.537 2.537 0 0 1 2.537 2.537v21.075z" stroke="#ACD3EF" stroke-width="2"/>
    <path d="M41.348 193.248h23.445" fill="#E1F2FF"/>
    <path d="M41.348 193.248h23.445" stroke="#ACD3EF" stroke-width="2"/>
    <path d="M41.348 200.898h23.445" fill="#E1F2FF"/>
    <path d="M41.348 200.898h23.445" stroke="#ACD3EF" stroke-width="2"/>
    <path d="M50.55 208.895H26.907v-13.25a2.537 2.537 0 0 1 2.538-2.538h18.568a2.537 2.537 0 0 1 2.537 2.537v13.251z" fill="#FFF"/>
    <path d="M50.55 208.895H26.907v-13.25a2.537 2.537 0 0 1 2.538-2.538h18.568a2.537 2.537 0 0 1 2.537 2.537v13.251z" stroke="#5E63B6" stroke-width="2"/>
    <path d="M26.66 201.334h23.445" fill="#FFF"/>
    <path d="M26.66 201.334h23.445" stroke="#5E63B6" stroke-width="2"/>
    <path d="M19.978 208.911h36" fill="#FFF"/>
    <path d="M19.978 208.911h36" stroke="#5E63B6" stroke-width="2" stroke-linecap="round" stroke-linejoin="round"/>
    <path d="M75.858 148.955v3.938M77.826 150.924h-3.938M212.259 176.177v3.938M214.228 178.145h-3.938" stroke="#5E63B6" stroke-linecap="round"/>
    <path d="M123.824 112.683v3.938" fill="#FFF"/>
    <path d="M123.824 112.683v3.938" stroke="#5E63B6" stroke-linecap="round" stroke-linejoin="round"/>
    <path d="M125.793 114.652h-3.938" fill="#FFF"/>
    <path d="M125.793 114.652h-3.938" stroke="#5E63B6" stroke-linecap="round" stroke-linejoin="round"/>
    <path d="M246.166 208.67h6.974" fill="#FFF"/>
    <path d="M246.166 208.67h6.974" stroke="#5E63B6" stroke-width="2" stroke-linecap="round" stroke-linejoin="round"/>
    <path d="M3 208.67h8.973" fill="#FFF"/>
    <path d="M3 208.67h8.973" stroke="#5E63B6" stroke-width="2" stroke-linecap="round" stroke-linejoin="round"/>
    <path d="M95.382 217.986h67.187" fill="#FFF"/>
    <path d="M95.382 217.986h67.187" stroke="#5E63B6" stroke-width="2" stroke-linecap="round" stroke-linejoin="round"/>
    <path d="M171.187 217.986h9.142" fill="#FFF"/>
    <path d="M171.187 217.986h9.142" stroke="#5E63B6" stroke-width="2" stroke-linecap="round" stroke-linejoin="round"/>
    <path d="M87.5 217.911l-5 .075" fill="#FFF"/>
    <path d="M87.5 217.911l-5 .075" stroke="#5E63B6" stroke-width="2" stroke-linecap="round" stroke-linejoin="round"/>
    <path d="M136.966 208.207h-23.644v-82.321a2.537 2.537 0 0 1 2.538-2.537h18.569a2.537 2.537 0 0 1 2.537 2.537v82.32z" fill="#E1F2FF"/>
    <path d="M136.966 208.207h-23.644v-82.321a2.537 2.537 0 0 1 2.538-2.537h18.569a2.537 2.537 0 0 1 2.537 2.537v82.32z" stroke="#ACD3EF" stroke-width="2"/>
    <path d="M113.075 131.575h23.445" fill="#E1F2FF"/>
    <path d="M113.075 131.575h23.445" stroke="#ACD3EF" stroke-width="2"/>
    <path d="M113.075 139.225h23.445" fill="#E1F2FF"/>
    <path d="M113.075 139.225h23.445" stroke="#ACD3EF" stroke-width="2"/>
    <path d="M113.075 146.876h23.445" fill="#E1F2FF"/>
    <path d="M113.075 146.876h23.445" stroke="#ACD3EF" stroke-width="2"/>
    <path d="M113.075 154.527h23.445" fill="#E1F2FF"/>
    <path d="M113.075 154.527h23.445" stroke="#ACD3EF" stroke-width="2"/>
    <path d="M113.075 162.178h23.445" fill="#E1F2FF"/>
    <path d="M113.075 162.178h23.445" stroke="#ACD3EF" stroke-width="2"/>
    <path d="M113.075 169.828h23.445" fill="#E1F2FF"/>
    <path d="M113.075 169.828h23.445" stroke="#ACD3EF" stroke-width="2"/>
    <g>
      <path d="M113.075 177.478h23.445" fill="#E1F2FF"/>
      <path d="M113.075 177.478h23.445" stroke="#ACD3EF" stroke-width="2"/>
    </g>
    <g>
      <path d="M113.075 185.129h23.445" fill="#E1F2FF"/>
      <path d="M113.075 185.129h23.445" stroke="#ACD3EF" stroke-width="2"/>
    </g>
    <g>
      <path d="M113.075 192.78h23.445" fill="#E1F2FF"/>
      <path d="M113.075 192.78h23.445" stroke="#ACD3EF" stroke-width="2"/>
    </g>
    <g>
      <path d="M113.075 200.43h23.445" fill="#E1F2FF"/>
      <path d="M113.075 200.43h23.445" stroke="#ACD3EF" stroke-width="2"/>
    </g>
    <g>
      <path d="M113.075 208.08h23.445" fill="#E1F2FF"/>
      <path d="M113.075 208.08h23.445" stroke="#ACD3EF" stroke-width="2"/>
    </g>
    <path d="M160.856 208.207h-23.644v-89.321a2.538 2.538 0 0 1 2.539-2.537h18.568a2.537 2.537 0 0 1 2.537 2.537v89.32z" fill="#E1F2FF"/>
    <path d="M160.856 208.207h-23.644v-89.321a2.538 2.538 0 0 1 2.539-2.537h18.568a2.537 2.537 0 0 1 2.537 2.537v89.32z" stroke="#ACD3EF" stroke-width="2"/>
    <g>
      <path d="M136.966 124.575h23.445" fill="#E1F2FF"/>
      <path d="M136.966 124.575h23.445" stroke="#ACD3EF" stroke-width="2"/>
    </g>
    <g>
      <path d="M136.966 132.225h23.445" fill="#E1F2FF"/>
      <path d="M136.966 132.225h23.445" stroke="#ACD3EF" stroke-width="2"/>
    </g>
    <g>
      <path d="M136.966 139.876h23.445" fill="#E1F2FF"/>
      <path d="M136.966 139.876h23.445" stroke="#ACD3EF" stroke-width="2"/>
    </g>
    <g>
      <path d="M136.966 147.527h23.445" fill="#E1F2FF"/>
      <path d="M136.966 147.527h23.445" stroke="#ACD3EF" stroke-width="2"/>
    </g>
    <g>
      <path d="M136.966 155.178h23.445" fill="#E1F2FF"/>
      <path d="M136.966 155.178h23.445" stroke="#ACD3EF" stroke-width="2"/>
    </g>
    <g>
      <path d="M136.966 162.828h23.445" fill="#E1F2FF"/>
      <path d="M136.966 162.828h23.445" stroke="#ACD3EF" stroke-width="2"/>
    </g>
    <g>
      <path d="M136.966 170.478h23.445" fill="#E1F2FF"/>
      <path d="M136.966 170.478h23.445" stroke="#ACD3EF" stroke-width="2"/>
    </g>
    <g>
      <path d="M136.966 178.129h23.445" fill="#E1F2FF"/>
      <path d="M136.966 178.129h23.445" stroke="#ACD3EF" stroke-width="2"/>
    </g>
    <g>
      <path d="M136.966 185.78h23.445" fill="#E1F2FF"/>
      <path d="M136.966 185.78h23.445" stroke="#ACD3EF" stroke-width="2"/>
    </g>
    <g>
      <path d="M136.966 193.43h23.445" fill="#E1F2FF"/>
      <path d="M136.966 193.43h23.445" stroke="#ACD3EF" stroke-width="2"/>
    </g>
    <g>
      <path d="M136.966 201.08h23.445" fill="#E1F2FF"/>
      <path d="M136.966 201.08h23.445" stroke="#ACD3EF" stroke-width="2"/>
    </g>
    <g>
      <path d="M136.966 208.731h23.445" fill="#E1F2FF"/>
      <path d="M136.966 208.731h23.445" stroke="#ACD3EF" stroke-width="2"/>
    </g>
    <g>
      <g transform="translate(116 141.02)">
        <mask id="b" fill="#fff">
          <use xlink:href="#a"/>
        </mask>
        <path d="M55.05 76.592l4.727-1.562a4.171 4.171 0 0 0 2.86-3.73c.25-4.875-1.482-8.707-2.403-12.169-1.708-6.413-3.756-9.31-6.432-14.262L46.76 47.38s1.468 2.414 4.462 10.122c.927 2.385.14 13.455 1.906 18.173a1.534 1.534 0 0 0 1.922.917" fill="#9452BA" mask="url(#b)"/>
      </g>
      <g transform="translate(116 141.02)">
        <mask id="d" fill="#fff">
          <use xlink:href="#c"/>
        </mask>
        <path d="M55.05 76.592l4.727-1.562a4.171 4.171 0 0 0 2.86-3.73c.25-4.875-1.482-8.707-2.403-12.169-1.708-6.413-3.756-9.31-6.432-14.262L46.76 47.38s1.468 2.414 4.462 10.122c.927 2.385.14 13.455 1.906 18.173a1.534 1.534 0 0 0 1.922.917z" stroke="#52267D" stroke-width="2" mask="url(#d)"/>
      </g>
      <g transform="translate(116 141.02)">
        <mask id="f" fill="#fff">
          <use xlink:href="#e"/>
        </mask>
        <path d="M33.859 58.668l-7.848-4.586-3.478 1.305s1.286 5.55 1.829 7.871c.956 4.092 1.884 12.424 2.002 16.176.038 1.22.19 2.322.448 3.282.435 1.614 2.19 2.486 3.777 1.962l4.189-1.385c2.439-.806 4.07-3.15 3.888-5.713-.568-7.979-4.807-18.912-4.807-18.912" fill="#9452BA" mask="url(#f)"/>
      </g>
      <g transform="translate(116 141.02)">
        <mask id="h" fill="#fff">
          <use xlink:href="#g"/>
        </mask>
        <path d="M33.859 58.668l-7.848-4.586-3.478 1.305s1.286 5.55 1.829 7.871c.956 4.092 1.884 12.424 2.002 16.176.038 1.22.19 2.322.448 3.282.435 1.614 2.19 2.486 3.777 1.962l4.189-1.385c2.439-.806 4.07-3.15 3.888-5.713-.568-7.979-4.807-18.912-4.807-18.912z" stroke="#52267D" stroke-width="2" mask="url(#h)"/>
      </g>
      <g transform="translate(116 141.02)">
        <mask id="j" fill="#fff">
          <use xlink:href="#i"/>
        </mask>
        <path stroke="#52267D" stroke-width=".5" mask="url(#j)" d="M27.308 65.785l-.67 1.139 1.17.513 1.282-1.048-.507-.546-1.123.69.083.215.31-.12"/>
      </g>
      <g transform="translate(116 141.02)">
        <mask id="l" fill="#fff">
          <use xlink:href="#k"/>
        </mask>
        <path d="M17.899 37.207c4.13-1.46 7.08-5.61 15.437-8.808-.062-.594-.078-1.145-.024-1.619.436-3.832-.564-14.13-4.037-19.964L26.528 2.2a24.268 24.268 0 0 1-2.19-4.797 10.7 10.7 0 0 1-.515-2.629 10.597 10.597 0 0 1 .525-4.076 10.698 10.698 0 0 1 1.998-3.539 10.595 10.595 0 0 1 4.754-3.193l1.655-.547a10.607 10.607 0 0 1 9.009 1.1c.524.33 1.018.707 1.48 1.125.173.157.343.317.507.486a10.508 10.508 0 0 1 2.049 3.034c.147.328.279.667.394 1.016a2.649 2.649 0 0 1-1.686 3.35l-10.34 3.417L38.7 5.404c4.885 8.613 6.37 14.96 6.306 19.541-.014 1.021-.747 4.866-.747 4.866 7.868 6.45 16.975 7.394 25.795 5.626 7.498-1.502 20.885-13.218 10.35-18.169-10.535-4.952.72-3.428 2.466-2.938 1.745.49 12.352 4.893 6.855 18.313C87.4 38.317 84.44 43.756 75.14 50.25c-1.491 1.042-10.305 4.685-14.706 7.686-13.101 8.941-26.363 8.313-36.116.937-9.714-7.345-8.05-21.09-6.42-21.666" fill="#9452BA" mask="url(#l)"/>
      </g>
      <g transform="translate(116 141.02)">
        <mask id="n" fill="#fff">
          <use xlink:href="#m"/>
        </mask>
        <path d="M17.899 37.207c4.13-1.46 7.08-5.61 15.437-8.808-.062-.594-.078-1.145-.024-1.619.436-3.832-.564-14.13-4.037-19.964L26.528 2.2a24.268 24.268 0 0 1-2.19-4.797 10.7 10.7 0 0 1-.515-2.629 10.597 10.597 0 0 1 .525-4.076 10.698 10.698 0 0 1 1.998-3.539 10.595 10.595 0 0 1 4.754-3.193l1.655-.547a10.607 10.607 0 0 1 9.009 1.1c.524.33 1.018.707 1.48 1.125.173.157.343.317.507.486a10.508 10.508 0 0 1 2.049 3.034c.147.328.279.667.394 1.016a2.649 2.649 0 0 1-1.686 3.35l-10.34 3.417L38.7 5.404c4.885 8.613 6.37 14.96 6.306 19.541-.014 1.021-.747 4.866-.747 4.866 7.868 6.45 16.975 7.394 25.795 5.626 7.498-1.502 20.885-13.218 10.35-18.169-10.535-4.952.72-3.428 2.466-2.938 1.745.49 12.352 4.893 6.855 18.313C87.4 38.317 84.44 43.756 75.14 50.25c-1.491 1.042-10.305 4.685-14.706 7.686-13.101 8.941-26.363 8.313-36.116.937-9.714-7.345-8.05-21.09-6.42-21.666z" stroke="#52267D" stroke-width="2" mask="url(#n)"/>
      </g>
      <g transform="translate(116 141.02)">
        <mask id="p" fill="#fff">
          <use xlink:href="#o"/>
        </mask>
        <path d="M22.338 20.498C19.136 9.698 7.873 4.101-2.357 5.513c-2.124.293-2.984-.119-5.173.604l-1.678.555c-5.65 1.868-8.717 7.963-6.85 13.613a2.687 2.687 0 0 0 3.395 1.708s17.202-5.69 17.28-5.726c.001.001 1.402-.462 1.403-.462 0 .003-1.403.466-1.405.47 4.338.356 8.314 4.436 9.595 6.911 1.824 3.523 2.403 6.736 1.954 9.637-.299 1.934.264 3.957.927 5.527l.11.001c.344.842.808 1.777 1.435 2.811 1.247-1.664 3.205-4.196 3.585-4.59.82-.854 2.67-2.79 3.483-3.698 5.201-5.8-1.545-6.232-3.366-12.376" fill="#9452BA" mask="url(#p)"/>
      </g>
      <g transform="translate(116 141.02)">
        <mask id="r" fill="#fff">
          <use xlink:href="#q"/>
        </mask>
        <path d="M22.338 20.498C19.136 9.698 7.873 4.101-2.357 5.513c-2.124.293-2.984-.119-5.173.604l-1.678.555c-5.65 1.868-8.717 7.963-6.85 13.613a2.687 2.687 0 0 0 3.395 1.708s17.202-5.69 17.28-5.726c.001.001 1.402-.462 1.403-.462 0 .003-1.403.466-1.405.47 4.338.356 8.314 4.436 9.595 6.911 1.824 3.523 2.403 6.736 1.954 9.637-.299 1.934.264 3.957.927 5.527l.11.001c.344.842.808 1.777 1.435 2.811 1.247-1.664 3.205-4.196 3.585-4.59.82-.854 2.67-2.79 3.483-3.698 5.201-5.8-1.545-6.232-3.366-12.376z" stroke="#52267D" stroke-width="2" mask="url(#r)"/>
      </g>
      <g transform="translate(116 141.02)">
        <mask id="t" fill="#fff">
          <use xlink:href="#s"/>
        </mask>
        <path d="M20.943 34.663c-.63-1.623-1.163-2.387-1.2-3.12-.212-4.22-.27-5.556-1.622-9.65-1.346-4.069-5.032-7.31-9.22-8.299-.23-.054-2.792.597-4.285 2.68 4.339.357 8.313 4.438 9.595 6.912 1.824 3.523 2.403 6.736 1.954 9.638-.3 1.934.263 3.957.926 5.526 0 0 5.248.209 3.852-3.688" fill="#F3E3FF" mask="url(#t)"/>
        <path d="M20.943 34.663c-.63-1.623-1.163-2.387-1.2-3.12-.212-4.22-.27-5.556-1.622-9.65-1.346-4.069-5.032-7.31-9.22-8.299-.23-.054-2.792.597-4.285 2.68 4.339.357 8.313 4.438 9.595 6.912 1.824 3.523 2.403 6.736 1.954 9.638-.3 1.934.263 3.957.926 5.526 0 0 5.248.209 3.852-3.688" stroke="#52267D" mask="url(#t)"/>
      </g>
      <g transform="translate(116 141.02)">
        <mask id="v" fill="#fff">
          <use xlink:href="#u"/>
        </mask>
        <path d="M-14.002 10.185s-.595-1.785.946-3.082c.47-.396 1.326-1.126 1.326-1.126s1.797 1.888.786 2.848c-1.456 1.381-3.058 1.36-3.058 1.36" fill="#FFF" mask="url(#v)"/>
      </g>
      <g transform="translate(116 141.02)">
        <mask id="x" fill="#fff">
          <use xlink:href="#w"/>
        </mask>
        <path d="M-14.002 10.185s-.595-1.785.946-3.082c.47-.396 1.326-1.126 1.326-1.126s1.797 1.888.786 2.848c-1.456 1.381-3.058 1.36-3.058 1.36z" stroke="#52267D" mask="url(#x)"/>
      </g>
      <g transform="translate(116 141.02)">
        <mask id="z" fill="#fff">
          <use xlink:href="#y"/>
        </mask>
        <path d="M-9.972 7.46s-.754-2.452 1.868-3.713c.488-.235 1.832-.643 1.832-.643s1.467 2.373.105 3.097c-1.675.892-3.805 1.258-3.805 1.258" fill="#FFF" mask="url(#z)"/>
      </g>
      <g transform="translate(116 141.02)">
        <mask id="B" fill="#fff">
          <use xlink:href="#A"/>
        </mask>
        <path d="M-9.972 7.46s-.754-2.452 1.868-3.713c.488-.235 1.832-.643 1.832-.643s1.467 2.373.105 3.097c-1.675.892-3.805 1.258-3.805 1.258z" stroke="#52267D" mask="url(#B)"/>
      </g>
      <g transform="translate(116 141.02)">
        <mask id="D" fill="#fff">
          <use xlink:href="#C"/>
        </mask>
        <path d="M-4.449 5.892s-.532-2.819 2.14-2.879a3.577 3.577 0 0 1 1.976.571s.196 2.216-.845 2.304c-1.818.153-3.271.004-3.271.004" fill="#FFF" mask="url(#D)"/>
      </g>
      <g transform="translate(116 141.02)">
        <mask id="F" fill="#fff">
          <use xlink:href="#E"/>
        </mask>
        <path d="M-4.449 5.892s-.532-2.819 2.14-2.879a3.577 3.577 0 0 1 1.976.571s.196 2.216-.845 2.304c-1.818.153-3.271.004-3.271.004z" stroke="#52267D" mask="url(#F)"/>
      </g>
      <g transform="translate(116 141.02)">
        <mask id="H" fill="#fff">
          <use xlink:href="#G"/>
        </mask>
        <path d="M6.928 16.671s4.639-4.943 1.853-9.76c.956.37 3.585 1.593 4.633 2.317.334 1.012 1.85 4.973-2.813 9.502-1.312-.69-2.552-1.682-3.673-2.059" fill="#FFF" mask="url(#H)"/>
      </g>
      <g transform="translate(116 141.02)">
        <mask id="J" fill="#fff">
          <use xlink:href="#I"/>
        </mask>
        <path d="M6.928 16.671s4.639-4.943 1.853-9.76c.956.37 3.585 1.593 4.633 2.317.334 1.012 1.85 4.973-2.813 9.502-1.312-.69-2.552-1.682-3.673-2.059z" stroke="#52267D" mask="url(#J)"/>
      </g>
      <g transform="translate(116 141.02)">
        <mask id="L" fill="#fff">
          <use xlink:href="#K"/>
        </mask>
        <path d="M-13.394 9.439s-.308-.924.489-1.596c.243-.204.687-.582.687-.582s.93.977.406 1.474c-.753.715-1.582.704-1.582.704" fill="#F3E3FF" mask="url(#L)"/>
      </g>
      <g transform="translate(116 141.02)">
        <mask id="N" fill="#fff">
          <use xlink:href="#M"/>
        </mask>
        <path d="M-8.985 6.522s-.385-1.25.952-1.893c.249-.12.935-.328.935-.328s.747 1.21.052 1.58c-.853.454-1.94.64-1.94.64" fill="#F3E3FF" mask="url(#N)"/>
      </g>
      <g transform="translate(116 141.02)">
        <mask id="P" fill="#fff">
          <use xlink:href="#O"/>
        </mask>
        <path d="M-3.641 5.41s-.282-1.496 1.136-1.527a1.897 1.897 0 0 1 1.049.302s.104 1.176-.45 1.223c-.964.08-1.735.002-1.735.002" fill="#F3E3FF" mask="url(#P)"/>
      </g>
      <g transform="translate(116 141.02)">
        <mask id="R" fill="#fff">
          <use xlink:href="#Q"/>
        </mask>
        <path d="M-1.608 16.439l-5.17 1.709a4.965 4.965 0 0 1 3.156-6.273l.455-.151a2.482 2.482 0 1 1 1.559 4.715" fill="#F3E3FF" mask="url(#R)"/>
      </g>
      <g transform="translate(116 141.02)">
        <mask id="T" fill="#fff">
          <use xlink:href="#S"/>
        </mask>
        <path d="M-2.073 16.494l-4.646 1.535a3.902 3.902 0 0 1 2.48-4.928l.941-.312a1.952 1.952 0 0 1 1.225 3.705" fill="#FFF" mask="url(#T)"/>
      </g>
      <g transform="translate(116 141.02)">
        <mask id="V" fill="#fff">
          <use xlink:href="#U"/>
        </mask>
        <path d="M-2.073 16.494l-4.646 1.535a3.902 3.902 0 0 1 2.48-4.928l.941-.312a1.952 1.952 0 0 1 1.225 3.705z" stroke="#52267D" mask="url(#V)"/>
      </g>
      <g transform="translate(116 141.02)">
        <mask id="X" fill="#fff">
          <use xlink:href="#W"/>
        </mask>
        <path d="M-6.212 16.74a1.09 1.09 0 1 0 2.07-.684 1.09 1.09 0 0 0-2.07.684" fill="#52267D" mask="url(#X)"/>
      </g>
      <g transform="translate(116 141.02)">
        <mask id="Z" fill="#fff">
          <use xlink:href="#Y"/>
        </mask>
        <path d="M-13.157 21.294c.273-.16.482-.41.592-.708l.203-.55-.718.421-.423.247a.342.342 0 1 0 .346.59" fill="#52267D" mask="url(#Z)"/>
      </g>
      <g transform="translate(116 141.02)">
        <mask id="ab" fill="#fff">
          <use xlink:href="#aa"/>
        </mask>
        <path d="M7.917 16.457s3.58-3.785 1.952-8.487c2.322.745 3.121 1.458 3.121 1.458s.417 2.357-.256 3.84c-1.032 2.273-2.53 3.363-4.817 3.19" fill="#E1F2FF" mask="url(#ab)"/>
      </g>
      <g transform="translate(116 141.02)">
        <mask id="ad" fill="#fff">
          <use xlink:href="#ac"/>
        </mask>
        <path d="M11.767 14.265s-1.14 2.315-2.54 3.707" fill="#FFF" mask="url(#ad)"/>
        <path d="M11.767 14.265s-1.14 2.315-2.54 3.707" stroke="#52267D" mask="url(#ad)"/>
      </g>
      <g transform="translate(116 141.02)">
        <mask id="af" fill="#fff">
          <use xlink:href="#ae"/>
        </mask>
        <path d="M34.921 26.989l-1.604-1.595c-6.568-7.71-8.856-12.755-9.787-21.878l-.545-5.343a24.184 24.184 0 0 0-1.1-5.157c-1.845-5.577-7.86-8.604-13.439-6.76l-1.63.539C1.316-11.387-1.67-5.452.148.049l.094.286a2.498 2.498 0 0 0 3.154 1.587L13.72-1.491l1.401 9.49c3.16 25.636 6.862 35.228 15.63 30.107" fill="#9452BA" mask="url(#af)"/>
        <path d="M34.921 26.989l-1.604-1.595c-6.568-7.71-8.856-12.755-9.787-21.878l-.545-5.343a24.184 24.184 0 0 0-1.1-5.157c-1.845-5.577-7.86-8.604-13.439-6.76l-1.63.539C1.316-11.387-1.67-5.452.148.049l.094.286a2.498 2.498 0 0 0 3.154 1.587L13.72-1.491l1.401 9.49c3.16 25.636 6.862 35.228 15.63 30.107" stroke="#52267D" stroke-width="2" mask="url(#af)"/>
      </g>
      <g transform="translate(116 141.02)">
        <mask id="ah" fill="#fff">
          <use xlink:href="#ag"/>
        </mask>
        <path d="M2.227-10.363s-.412-1.806 1.097-3.076c.46-.388 1.367-.437 1.367-.437s1.523 1.24.532 2.18c-1.427 1.354-2.996 1.333-2.996 1.333" fill="#FFF" mask="url(#ah)"/>
      </g>
      <g transform="translate(116 141.02)">
        <mask id="aj" fill="#fff">
          <use xlink:href="#ai"/>
        </mask>
        <path d="M2.227-10.363s-.412-1.806 1.097-3.076c.46-.388 1.367-.437 1.367-.437s1.523 1.24.532 2.18c-1.427 1.354-2.996 1.333-2.996 1.333z" stroke="#52267D" mask="url(#aj)"/>
      </g>
      <g transform="translate(116 141.02)">
        <mask id="al" fill="#fff">
          <use xlink:href="#ak"/>
        </mask>
        <path d="M6.178-12.31s-.854-2.775 2.115-4.203c.554-.267 1.316-.455 1.316-.455s2.42 2.414.877 3.234c-1.897 1.01-4.308 1.425-4.308 1.425" fill="#FFF" mask="url(#al)"/>
      </g>
      <g transform="translate(116 141.02)">
        <mask id="an" fill="#fff">
          <use xlink:href="#am"/>
        </mask>
        <path d="M6.178-12.31s-.854-2.775 2.115-4.203c.554-.267 1.316-.455 1.316-.455s2.42 2.414.877 3.234c-1.897 1.01-4.308 1.425-4.308 1.425z" stroke="#52267D" mask="url(#an)"/>
      </g>
      <g transform="translate(116 141.02)">
        <mask id="ap" fill="#fff">
          <use xlink:href="#ao"/>
        </mask>
        <path d="M11.935-13.517s-.45-2.774 2.167-2.766a3.492 3.492 0 0 1 1.922.61s.138 2.175-.885 2.234a18.979 18.979 0 0 1-3.204-.078" fill="#FFF" mask="url(#ap)"/>
      </g>
      <g transform="translate(116 141.02)">
        <mask id="ar" fill="#fff">
          <use xlink:href="#aq"/>
        </mask>
        <path d="M11.935-13.517s-.45-2.774 2.167-2.766a3.492 3.492 0 0 1 1.922.61s.138 2.175-.885 2.234a18.979 18.979 0 0 1-3.204-.078z" stroke="#52267D" mask="url(#ar)"/>
      </g>
      <g transform="translate(116 141.02)">
        <mask id="at" fill="#fff">
          <use xlink:href="#as"/>
        </mask>
        <path d="M18.01 36.817a4.924 4.924 0 0 1 1.427-1.38" fill="#F3E3FF" mask="url(#at)"/>
        <path d="M18.01 36.817a4.924 4.924 0 0 1 1.427-1.38" stroke="#52267D" mask="url(#at)"/>
      </g>
      <g transform="translate(116 141.02)">
        <mask id="av" fill="#fff">
          <use xlink:href="#au"/>
        </mask>
        <path d="M21.41 35.632c-3.954-6.299-5.243-20.416-5.75-23.827l-2.058-13.66.972-.322c1.232-.406 2.605.623 2.833 1.902l2.101 11.744c.712 3.976 5.957 21.743 13.802 23.338 1.674.341 3.788-.945 4.513-1.64 2.641-2.535 2.25-6.743 1.896-10.12-.735-6.994-3.536-11.748-5.539-16.757L31.734.003c-.442-1.137.072-2.668 1.228-3.05l1.178-.389L40.537 8.79c1.855 3.471 7.72 15.693 2.175 24.164-.1.154 2.01-.056 1.773 1.14-.94 4.746-7.287 7.545-7.955 9.665-2.575 8.166 6.522 20.742 6.522 20.742s-5.972-.36-10.209-2.21C22.94 57.97 18.691 48.37 17.69 45.462c-1.196-3.478-.995-5.949-.293-7.615" fill="#F3E3FF" mask="url(#av)"/>
        <path d="M21.41 35.632c-3.954-6.299-5.243-20.416-5.75-23.827l-2.058-13.66.972-.322c1.232-.406 2.605.623 2.833 1.902l2.101 11.744c.712 3.976 5.957 21.743 13.802 23.338 1.674.341 3.788-.945 4.513-1.64 2.641-2.535 2.25-6.743 1.896-10.12-.735-6.994-3.536-11.748-5.539-16.757L31.734.003c-.442-1.137.072-2.668 1.228-3.05l1.178-.389L40.537 8.79c1.855 3.471 7.72 15.693 2.175 24.164-.1.154 2.01-.056 1.773 1.14-.94 4.746-7.287 7.545-7.955 9.665-2.575 8.166 6.522 20.742 6.522 20.742s-5.972-.36-10.209-2.21C22.94 57.97 18.691 48.37 17.69 45.462c-1.196-3.478-.995-5.949-.293-7.615" stroke="#52267D" mask="url(#av)"/>
      </g>
      <g transform="translate(116 141.02)">
        <mask id="ax" fill="#fff">
          <use xlink:href="#aw"/>
        </mask>
        <path d="M85.316 20.852s.687-1.561-.456-2.973c-.35-.431-1.16-.633-1.16-.633s-1.594.854-.862 1.878c1.055 1.473 2.478 1.728 2.478 1.728" fill="#FFF" mask="url(#ax)"/>
      </g>
      <g transform="translate(116 141.02)">
        <mask id="az" fill="#fff">
          <use xlink:href="#ay"/>
        </mask>
        <path d="M85.316 20.852s.687-1.561-.456-2.973c-.35-.431-1.16-.633-1.16-.633s-1.594.854-.862 1.878c1.055 1.473 2.478 1.728 2.478 1.728z" stroke="#52267D" mask="url(#az)"/>
      </g>
      <g transform="translate(116 141.02)">
        <mask id="aB" fill="#fff">
          <use xlink:href="#aA"/>
        </mask>
        <path d="M84.404 19.3s.242-.547-.16-1.043c-.121-.15-.406-.222-.406-.222s-.56.3-.302.66c.37.516.868.605.868.605" fill="#F3E3FF" mask="url(#aB)"/>
      </g>
      <g transform="translate(116 141.02)">
        <mask id="aD" fill="#fff">
          <use xlink:href="#aC"/>
        </mask>
        <path d="M79.274 32.4s-1.808-2.011.142-4.38c.363-.44.932-.898.932-.898s2.989 1.09 2.008 2.388c-1.207 1.595-3.082 2.89-3.082 2.89" fill="#FFF" mask="url(#aD)"/>
      </g>
      <g transform="translate(116 141.02)">
        <mask id="aF" fill="#fff">
          <use xlink:href="#aE"/>
        </mask>
        <path d="M79.274 32.4s-1.808-2.011.142-4.38c.363-.44.932-.898.932-.898s2.989 1.09 2.008 2.388c-1.207 1.595-3.082 2.89-3.082 2.89z" stroke="#52267D" mask="url(#aF)"/>
      </g>
      <g transform="translate(116 141.02)">
        <mask id="aH" fill="#fff">
          <use xlink:href="#aG"/>
        </mask>
        <path d="M79.84 31.232s-1.003-1.115.078-2.43c.201-.244.518-.498.518-.498s1.657.606 1.113 1.325c-.67.884-1.709 1.603-1.709 1.603" fill="#F3E3FF" mask="url(#aH)"/>
      </g>
      <g transform="translate(116 141.02)">
        <mask id="aJ" fill="#fff">
          <use xlink:href="#aI"/>
        </mask>
        <path d="M84.246 22.212s2.303.98 1.054 2.945a3.112 3.112 0 0 1-1.37 1.16s-1.705-.93-1.265-1.729c.77-1.394 1.581-2.376 1.581-2.376" fill="#FFF" mask="url(#aJ)"/>
      </g>
      <g transform="translate(116 141.02)">
        <mask id="aL" fill="#fff">
          <use xlink:href="#aK"/>
        </mask>
        <path d="M84.246 22.212s2.303.98 1.054 2.945a3.112 3.112 0 0 1-1.37 1.16s-1.705-.93-1.265-1.729c.77-1.394 1.581-2.376 1.581-2.376z" stroke="#52267D" mask="url(#aL)"/>
      </g>
      <g transform="translate(116 141.02)">
        <mask id="aN" fill="#fff">
          <use xlink:href="#aM"/>
        </mask>
        <path d="M84.354 23.41s1.02.434.467 1.305c-.237.372-.608.512-.608.512s-.755-.411-.56-.764c.342-.617.7-1.053.7-1.053" fill="#F3E3FF" mask="url(#aN)"/>
      </g>
      <g transform="translate(116 141.02)">
        <mask id="aP" fill="#fff">
          <use xlink:href="#aO"/>
        </mask>
        <path d="M71.116 36.468s-1.28-1.898.75-3.49c2.028-1.594 2.876-1.108 2.876-1.108s1.983 1.725 1.072 2.791c-.91 1.067-4.698 1.807-4.698 1.807" fill="#FFF" mask="url(#aP)"/>
      </g>
      <g transform="translate(116 141.02)">
        <mask id="aR" fill="#fff">
          <use xlink:href="#aQ"/>
        </mask>
        <path d="M71.116 36.468s-1.28-1.898.75-3.49c2.028-1.594 2.876-1.108 2.876-1.108s1.983 1.725 1.072 2.791c-.91 1.067-4.698 1.807-4.698 1.807z" stroke="#52267D" mask="url(#aR)"/>
      </g>
      <g transform="translate(116 141.02)">
        <mask id="aT" fill="#fff">
          <use xlink:href="#aS"/>
        </mask>
        <path d="M72.041 35.635s-.666-.987.39-1.815c1.054-.829 1.495-.576 1.495-.576s1.032.897.558 1.452c-.473.554-2.443.94-2.443.94" fill="#F3E3FF" mask="url(#aT)"/>
      </g>
      <g transform="translate(116 141.02)">
        <mask id="aV" fill="#fff">
          <use xlink:href="#aU"/>
        </mask>
        <path d="M14.142 1.463s4.365.864 8.915-2.722c.176 1.721.518 5.183.518 5.183s-4.305 3.053-8.768 1.95c-.324-2.254-.665-4.41-.665-4.41" fill="#FFF" mask="url(#aV)"/>
      </g>
      <g transform="translate(116 141.02)">
        <mask id="aX" fill="#fff">
          <use xlink:href="#aW"/>
        </mask>
        <path d="M14.142 1.463s4.365.864 8.915-2.722c.176 1.721.518 5.183.518 5.183s-4.305 3.053-8.768 1.95c-.324-2.254-.665-4.41-.665-4.41z" stroke="#52267D" mask="url(#aX)"/>
      </g>
      <g transform="translate(116 141.02)">
        <mask id="aZ" fill="#fff">
          <use xlink:href="#aY"/>
        </mask>
        <path d="M38.569-16.976s-.75-1.708-2.734-1.83c-.606-.037-2.07.383-2.07.383s.213 2.002 1.579 2.168c1.968.238 3.225-.721 3.225-.721" fill="#FFF" mask="url(#aZ)"/>
      </g>
      <g transform="translate(116 141.02)">
        <mask id="bb" fill="#fff">
          <use xlink:href="#ba"/>
        </mask>
        <path d="M38.569-16.976s-.75-1.708-2.734-1.83c-.606-.037-2.07.383-2.07.383s.213 2.002 1.579 2.168c1.968.238 3.225-.721 3.225-.721z" stroke="#52267D" mask="url(#bb)"/>
      </g>
      <g transform="translate(116 141.02)">
        <mask id="bd" fill="#fff">
          <use xlink:href="#bc"/>
        </mask>
        <path d="M33.824-16.407s-.845-2.387-3.664-1.844c-.525.102-1.156.365-1.156.365s-.44 2.947 1.065 2.72c1.852-.278 3.755-1.24 3.755-1.24" fill="#FFF" mask="url(#bd)"/>
      </g>
      <g transform="translate(116 141.02)">
        <mask id="bf" fill="#fff">
          <use xlink:href="#be"/>
        </mask>
        <path d="M33.824-16.407s-.845-2.387-3.664-1.844c-.525.102-1.156.365-1.156.365s-.44 2.947 1.065 2.72c1.852-.278 3.755-1.24 3.755-1.24z" stroke="#52267D" mask="url(#bf)"/>
      </g>
      <g transform="translate(116 141.02)">
        <mask id="bh" fill="#fff">
          <use xlink:href="#bg"/>
        </mask>
        <path d="M28.761-14.54s-1.302-2.515-3.414-.937c-.902.674-1.19 1.647-1.19 1.647s1.196 1.843 2.059 1.277c1.506-.987 2.545-1.987 2.545-1.987" fill="#FFF" mask="url(#bh)"/>
      </g>
      <g transform="translate(116 141.02)">
        <mask id="bj" fill="#fff">
          <use xlink:href="#bi"/>
        </mask>
        <path d="M28.761-14.54s-1.302-2.515-3.414-.937c-.902.674-1.19 1.647-1.19 1.647s1.196 1.843 2.059 1.277c1.506-.987 2.545-1.987 2.545-1.987z" stroke="#52267D" mask="url(#bj)"/>
      </g>
      <g transform="translate(116 141.02)">
        <mask id="bl" fill="#fff">
          <use xlink:href="#bk"/>
        </mask>
        <path d="M2.991-11.107s-.22-.964.586-1.643c.246-.207.73-.233.73-.233s.814.662.285 1.164c-.762.723-1.6.712-1.6.712" fill="#F3E3FF" mask="url(#bl)"/>
      </g>
      <g transform="translate(116 141.02)">
        <mask id="bn" fill="#fff">
          <use xlink:href="#bm"/>
        </mask>
        <path d="M7.045-13.11s-.535-1.741 1.326-2.636a5.13 5.13 0 0 1 .825-.285s1.518 1.513.55 2.027c-1.188.633-2.7.894-2.7.894" fill="#F3E3FF" mask="url(#bn)"/>
      </g>
      <g transform="translate(116 141.02)">
        <mask id="bp" fill="#fff">
          <use xlink:href="#bo"/>
        </mask>
        <path d="M12.871-14.12s-.26-1.602 1.25-1.597c.646.002 1.11.352 1.11.352s.078 1.255-.51 1.29c-1.03.06-1.85-.046-1.85-.046" fill="#F3E3FF" mask="url(#bp)"/>
      </g>
      <g transform="translate(116 141.02)">
        <mask id="br" fill="#fff">
          <use xlink:href="#bq"/>
        </mask>
        <path d="M37.55-17.138s-.397-.903-1.446-.968c-.32-.02-1.094.202-1.094.202s.112 1.059.835 1.146c1.04.126 1.704-.38 1.704-.38" fill="#F3E3FF" mask="url(#br)"/>
      </g>
      <g transform="translate(116 141.02)">
        <mask id="bt" fill="#fff">
          <use xlink:href="#bs"/>
        </mask>
        <path d="M32.635-16.484s-.467-1.319-2.025-1.019c-.291.056-.64.202-.64.202s-.243 1.629.59 1.504c1.023-.155 2.075-.687 2.075-.687" fill="#F3E3FF" mask="url(#bt)"/>
      </g>
      <g transform="translate(116 141.02)">
        <mask id="bv" fill="#fff">
          <use xlink:href="#bu"/>
        </mask>
        <path d="M27.756-14.408s-.712-1.376-1.868-.513c-.493.37-.65.902-.65.902s.654 1.007 1.125.7a10.482 10.482 0 0 0 1.393-1.089" fill="#F3E3FF" mask="url(#bv)"/>
      </g>
      <g transform="translate(116 141.02)">
        <mask id="bx" fill="#fff">
          <use xlink:href="#bw"/>
        </mask>
        <path d="M26.637 2.384s4.789-.795 8.769-3.289c1.2 2.214 2.058 3.9 2.058 3.9s-2.33 3.034-8.27 3.685c-1.655-2.806-2.557-4.296-2.557-4.296" fill="#FFF" mask="url(#bx)"/>
      </g>
      <g transform="translate(116 141.02)">
        <mask id="bz" fill="#fff">
          <use xlink:href="#by"/>
        </mask>
        <path d="M26.637 2.384s4.789-.795 8.769-3.289c1.2 2.214 2.058 3.9 2.058 3.9s-2.33 3.034-8.27 3.685c-1.655-2.806-2.557-4.296-2.557-4.296z" stroke="#52267D" mask="url(#bz)"/>
      </g>
      <g transform="translate(116 141.02)">
        <mask id="bB" fill="#fff">
          <use xlink:href="#bA"/>
        </mask>
        <path d="M32.657-4.68l5.17-1.708a4.965 4.965 0 0 0-6.273-3.156l-.456.15a2.484 2.484 0 0 0 1.56 4.715" fill="#F3E3FF" mask="url(#bB)"/>
      </g>
      <g transform="translate(116 141.02)">
        <mask id="bD" fill="#fff">
          <use xlink:href="#bC"/>
        </mask>
        <path d="M33.195-4.955l4.515-1.493a3.903 3.903 0 0 0-4.93-2.48l-1.071.355a1.812 1.812 0 0 0-1.153 2.29 2.09 2.09 0 0 0 2.639 1.328" fill="#FFF" mask="url(#bD)"/>
      </g>
      <g transform="translate(116 141.02)">
        <mask id="bF" fill="#fff">
          <use xlink:href="#bE"/>
        </mask>
        <path d="M33.195-4.955l4.515-1.493a3.903 3.903 0 0 0-4.93-2.48l-1.071.355a1.812 1.812 0 0 0-1.153 2.29 2.09 2.09 0 0 0 2.639 1.328z" stroke="#52267D" mask="url(#bF)"/>
      </g>
      <g transform="translate(116 141.02)">
        <mask id="bH" fill="#fff">
          <use xlink:href="#bG"/>
        </mask>
        <path d="M35.807-8.184a1.09 1.09 0 1 1-2.068.684 1.09 1.09 0 0 1 2.068-.684" fill="#52267D" mask="url(#bH)"/>
      </g>
      <g transform="translate(116 141.02)">
        <mask id="bJ" fill="#fff">
          <use xlink:href="#bI"/>
        </mask>
        <path d="M13.288-3.236l-5.17 1.71A4.966 4.966 0 0 1 11.274-7.8l.455-.15a2.483 2.483 0 0 1 1.56 4.714" fill="#F3E3FF" mask="url(#bJ)"/>
      </g>
      <g transform="translate(116 141.02)">
        <mask id="bL" fill="#fff">
          <use xlink:href="#bK"/>
        </mask>
        <path d="M12.823-3.18L8.177-1.644a3.903 3.903 0 0 1 2.48-4.93l.941-.31a1.95 1.95 0 1 1 1.225 3.704" fill="#FFF" mask="url(#bL)"/>
      </g>
      <g transform="translate(116 141.02)">
        <mask id="bN" fill="#fff">
          <use xlink:href="#bM"/>
        </mask>
        <path d="M12.823-3.18L8.177-1.644a3.903 3.903 0 0 1 2.48-4.93l.941-.31a1.95 1.95 0 1 1 1.225 3.704z" stroke="#52267D" mask="url(#bN)"/>
      </g>
      <g transform="translate(116 141.02)">
        <mask id="bP" fill="#fff">
          <use xlink:href="#bO"/>
        </mask>
        <path d="M11.207-3.863a1.089 1.089 0 1 0 2.068-.683 1.089 1.089 0 0 0-2.068.683" fill="#52267D" mask="url(#bP)"/>
      </g>
      <g transform="translate(116 141.02)">
        <mask id="bR" fill="#fff">
          <use xlink:href="#bQ"/>
        </mask>
        <path d="M44.412-7.372a1.365 1.365 0 0 1-.897-.216l-.49-.32.825-.09.488-.054a.342.342 0 0 1 .074.68" fill="#52267D" mask="url(#bR)"/>
      </g>
      <g transform="translate(116 141.02)">
        <mask id="bT" fill="#fff">
          <use xlink:href="#bS"/>
        </mask>
        <path d="M2.929.974c.273-.16.482-.41.592-.708l.202-.551-.717.421-.423.248a.342.342 0 0 0 .346.59" fill="#52267D" mask="url(#bT)"/>
      </g>
      <g transform="translate(116 141.02)">
        <mask id="bV" fill="#fff">
          <use xlink:href="#bU"/>
        </mask>
        <path d="M14.806 1.99s4.396.367 7.786-2.418c.347 2.415.368 3.699.368 3.699s-2.293.91-3.942 1.117c-2.356.295-3.56-.421-4.212-2.398" fill="#E1F2FF" mask="url(#bV)"/>
      </g>
      <g transform="translate(116 141.02)">
        <mask id="bX" fill="#fff">
          <use xlink:href="#bW"/>
        </mask>
        <path d="M21.133 3.14s-3.41 1.451-6.59.941" fill="#FFF" mask="url(#bX)"/>
        <path d="M21.133 3.14s-3.41 1.451-6.59.941" stroke="#52267D" mask="url(#bX)"/>
      </g>
      <g transform="translate(116 141.02)">
        <mask id="bZ" fill="#fff">
          <use xlink:href="#bY"/>
        </mask>
        <path d="M34.024.513s-3.097 2.102-6.312 2.495c1.312 2.057 1.846 2.661 1.846 2.661s4.324-2.098 4.466-5.156" fill="#E1F2FF" mask="url(#bZ)"/>
      </g>
      <g transform="translate(116 141.02)">
        <mask id="cb" fill="#fff">
          <use xlink:href="#ca"/>
        </mask>
        <path d="M42.729 33.001s-.158.218-.393.491" fill="#F3E3FF" mask="url(#cb)"/>
        <path d="M42.729 33.001s-.158.218-.393.491" stroke="#52267D" stroke-width=".5" mask="url(#cb)"/>
      </g>
      <g transform="translate(116 141.02)">
        <mask id="cd" fill="#fff">
          <use xlink:href="#cc"/>
        </mask>
        <path d="M34.78 1.696s-3.226 1.79-7.02 2.562" fill="#FFF" mask="url(#cd)"/>
        <path d="M34.78 1.696s-3.226 1.79-7.02 2.562" stroke="#52267D" mask="url(#cd)"/>
      </g>
      <g transform="translate(116 141.02)">
        <mask id="cf" fill="#fff">
          <use xlink:href="#ce"/>
        </mask>
        <path d="M52.54 74.343s-1.158-.442-2.042.956c-.808 1.276-1.176 2.958-.632 2.936a5.548 5.548 0 0 0 2.325-.647c.751-.41 1.508-.489 1.276-2.267-.109-.829-.927-.978-.927-.978" fill="#FFF" mask="url(#cf)"/>
      </g>
      <g transform="translate(116 141.02)">
        <mask id="ch" fill="#fff">
          <use xlink:href="#cg"/>
        </mask>
        <path d="M52.54 74.343s-1.158-.442-2.042.956c-.808 1.276-1.176 2.958-.632 2.936a5.548 5.548 0 0 0 2.325-.647c.751-.41 1.508-.489 1.276-2.267-.109-.829-.927-.978-.927-.978z" stroke="#52267D" stroke-width=".5" mask="url(#ch)"/>
      </g>
      <g transform="translate(116 141.02)">
        <mask id="cj" fill="#fff">
          <use xlink:href="#ci"/>
        </mask>
        <path d="M52.422 74.683s-.72-.275-1.27.595c-.503.794-.732 1.841-.394 1.827.338-.015.91-.109 1.447-.402.467-.256.938-.305.793-1.412-.066-.515-.576-.608-.576-.608" fill="#E1F2FF" mask="url(#cj)"/>
      </g>
      <g transform="translate(116 141.02)">
        <mask id="cl" fill="#fff">
          <use xlink:href="#ck"/>
        </mask>
        <path d="M53.83 73.899c.461-.225 1.501.594 1.527.939.027.345.32 1.418-.422 1.79-.547.275-2.527 1.167-3.122.869-.548-.275-.368-2.44 2.017-3.598" fill="#FFF" mask="url(#cl)"/>
      </g>
      <g transform="translate(116 141.02)">
        <mask id="cn" fill="#fff">
          <use xlink:href="#cm"/>
        </mask>
        <path d="M53.83 73.899c.461-.225 1.501.594 1.527.939.027.345.32 1.418-.422 1.79-.547.275-2.527 1.167-3.122.869-.548-.275-.368-2.44 2.017-3.598z" stroke="#52267D" stroke-width=".5" mask="url(#cn)"/>
      </g>
      <g transform="translate(116 141.02)">
        <mask id="cp" fill="#fff">
          <use xlink:href="#co"/>
        </mask>
        <path d="M54.062 74.144c.27-.132.886.35.9.555.016.204.19.837-.25 1.056-.321.162-1.49.688-1.84.512-.324-.161-.217-1.438 1.19-2.123" fill="#E1F2FF" mask="url(#cp)"/>
      </g>
      <g transform="translate(116 141.02)">
        <mask id="cr" fill="#fff">
          <use xlink:href="#cq"/>
        </mask>
        <path d="M55.938 73.428s-.488-.08-1.157.665c-.591.657-1.458 1.683-.9 2.416.562.733 2.762-.335 3.215-.68.454-.343.59-1.007.34-1.465-.55-.998-1.498-.936-1.498-.936" fill="#FFF" mask="url(#cr)"/>
      </g>
      <g transform="translate(116 141.02)">
        <mask id="ct" fill="#fff">
          <use xlink:href="#cs"/>
        </mask>
        <path d="M55.938 73.428s-.488-.08-1.157.665c-.591.657-1.458 1.683-.9 2.416.562.733 2.762-.335 3.215-.68.454-.343.59-1.007.34-1.465-.55-.998-1.498-.936-1.498-.936z" stroke="#52267D" stroke-width=".5" mask="url(#ct)"/>
      </g>
      <g transform="translate(116 141.02)">
        <mask id="cv" fill="#fff">
          <use xlink:href="#cu"/>
        </mask>
        <path d="M56.19 73.67s-.288-.048-.684.393c-.35.39-.863.997-.532 1.431.332.434 1.635-.199 1.904-.403.268-.203.349-.596.2-.867-.325-.592-.887-.555-.887-.555" fill="#E1F2FF" mask="url(#cv)"/>
      </g>
      <g transform="translate(116 141.02)">
        <mask id="cx" fill="#fff">
          <use xlink:href="#cw"/>
        </mask>
        <path d="M37.582 50.203s2.232 5.178 3.647 14.01c1.318 8.222-.11 11.41.723 13.379.645 1.525 1.781 2.742 3.353 2.222l4.691-1.55a5.37 5.37 0 0 0 3.678-5.069c.014-1.856-.146-4.324-.744-7.313-.93-4.029-2.305-7.923-3.13-10.203" fill="#9452BA" mask="url(#cx)"/>
        <path d="M37.582 50.203s2.232 5.178 3.647 14.01c1.318 8.222-.11 11.41.723 13.379.645 1.525 1.781 2.742 3.353 2.222l4.691-1.55a5.37 5.37 0 0 0 3.678-5.069c.014-1.856-.146-4.324-.744-7.313-.93-4.029-2.305-7.923-3.13-10.203" stroke="#52267D" stroke-width="2" mask="url(#cx)"/>
      </g>
      <g transform="translate(116 141.02)">
        <mask id="cz" fill="#fff">
          <use xlink:href="#cy"/>
        </mask>
        <path d="M62.801 45.78c-1.112 1.85-1.194 4.308-.517 6.316.905 2.68 3.594 5.586 4.082 10.378.435 4.269-1.086 5.549.622 8.944.308.613 1.04.884 1.691.67l5.227-1.73a5.193 5.193 0 0 0 3.499-5.723c-1.045-6.685-3.826-12.402-6.188-16.713" fill="#9452BA" mask="url(#cz)"/>
        <path d="M62.801 45.78c-1.112 1.85-1.194 4.308-.517 6.316.905 2.68 3.594 5.586 4.082 10.378.435 4.269-1.086 5.549.622 8.944.308.613 1.04.884 1.691.67l5.227-1.73a5.193 5.193 0 0 0 3.499-5.723c-1.045-6.685-3.826-12.402-6.188-16.713" stroke="#52267D" stroke-width="2" mask="url(#cz)"/>
      </g>
      <g transform="translate(116 141.02)">
        <mask id="cB" fill="#fff">
          <use xlink:href="#cA"/>
        </mask>
        <path stroke="#52267D" stroke-width=".5" mask="url(#cB)" d="M65.784 51.362l.234-.322 1.068-.106-.87 1.07-1.545-.215 1.014-1.56.698.003"/>
      </g>
      <g transform="translate(116 141.02)">
        <mask id="cD" fill="#fff">
          <use xlink:href="#cC"/>
        </mask>
        <path d="M43.052 77.48s-1.159-.441-2.043.956c-.807 1.276-1.176 2.958-.632 2.936a5.555 5.555 0 0 0 2.326-.647c.75-.41 1.507-.49 1.275-2.267-.108-.83-.926-.978-.926-.978" fill="#FFF" mask="url(#cD)"/>
      </g>
      <g transform="translate(116 141.02)">
        <mask id="cF" fill="#fff">
          <use xlink:href="#cE"/>
        </mask>
        <path d="M43.052 77.48s-1.159-.441-2.043.956c-.807 1.276-1.176 2.958-.632 2.936a5.555 5.555 0 0 0 2.326-.647c.75-.41 1.507-.49 1.275-2.267-.108-.83-.926-.978-.926-.978z" stroke="#52267D" mask="url(#cF)"/>
      </g>
      <g transform="translate(116 141.02)">
        <mask id="cH" fill="#fff">
          <use xlink:href="#cG"/>
        </mask>
        <path d="M42.933 77.82s-.721-.274-1.271.595c-.501.794-.731 1.84-.393 1.827a3.48 3.48 0 0 0 1.447-.402c.467-.256.939-.305.794-1.412-.067-.515-.577-.608-.577-.608" fill="#E1F2FF" mask="url(#cH)"/>
      </g>
      <g transform="translate(116 141.02)">
        <mask id="cJ" fill="#fff">
          <use xlink:href="#cI"/>
        </mask>
        <path stroke="#52267D" stroke-width=".5" mask="url(#cJ)" d="M45.657 61.285l-1.676 1.2.82 1.65 1.96-.494.55-1.323-1.355-.258-.859.59.825.47"/>
      </g>
      <g transform="translate(116 141.02)">
        <mask id="cL" fill="#fff">
          <use xlink:href="#cK"/>
        </mask>
        <path d="M-13.223 17.523a.536.536 0 1 0 1.017-.336" stroke="#F3E3FF" stroke-width=".25" mask="url(#cL)"/>
      </g>
      <g transform="translate(116 141.02)">
        <mask id="cN" fill="#fff">
          <use xlink:href="#cM"/>
        </mask>
        <path d="M-14.241 17.859a.536.536 0 0 0 1.018-.336" stroke="#F3E3FF" stroke-width=".25" mask="url(#cN)"/>
      </g>
      <g transform="translate(116 141.02)">
        <mask id="cP" fill="#fff">
          <use xlink:href="#cO"/>
        </mask>
        <path d="M-13.564 18.2a.536.536 0 0 0 1.018-.336" stroke="#F3E3FF" stroke-width=".25" mask="url(#cP)"/>
      </g>
      <g transform="translate(116 141.02)">
        <mask id="cR" fill="#fff">
          <use xlink:href="#cQ"/>
        </mask>
        <path d="M6.112 10.603a.79.79 0 0 0 .37-1.536" stroke="#F3E3FF" stroke-width=".25" mask="url(#cR)"/>
      </g>
      <g transform="translate(116 141.02)">
        <mask id="cT" fill="#fff">
          <use xlink:href="#cS"/>
        </mask>
        <path d="M6.694 11.555a.789.789 0 1 0 .371-1.535" stroke="#F3E3FF" stroke-width=".25" mask="url(#cT)"/>
      </g>
      <g transform="translate(116 141.02)">
        <mask id="cV" fill="#fff">
          <use xlink:href="#cU"/>
        </mask>
        <path d="M35.904 19.712a.72.72 0 0 0 1.364-.45" stroke="#F3E3FF" stroke-width=".25" mask="url(#cV)"/>
      </g>
      <g transform="translate(116 141.02)">
        <mask id="cX" fill="#fff">
          <use xlink:href="#cW"/>
        </mask>
        <path d="M34.54 20.163a.718.718 0 1 0 1.363-.45" stroke="#F3E3FF" stroke-width=".25" mask="url(#cX)"/>
      </g>
      <g transform="translate(116 141.02)">
        <mask id="cZ" fill="#fff">
          <use xlink:href="#cY"/>
        </mask>
        <path d="M35.447 20.62a.718.718 0 0 0 1.364-.45" stroke="#F3E3FF" stroke-width=".25" mask="url(#cZ)"/>
      </g>
      <g transform="translate(116 141.02)">
        <mask id="db" fill="#fff">
          <use xlink:href="#da"/>
        </mask>
        <path d="M29.815 69.68a.718.718 0 0 0 1.364-.45" stroke="#F3E3FF" stroke-width=".25" mask="url(#db)"/>
      </g>
      <g transform="translate(116 141.02)">
        <mask id="dd" fill="#fff">
          <use xlink:href="#dc"/>
        </mask>
        <path d="M28.45 70.131a.719.719 0 0 0 1.364-.45" stroke="#F3E3FF" stroke-width=".25" mask="url(#dd)"/>
      </g>
      <g transform="translate(116 141.02)">
        <mask id="df" fill="#fff">
          <use xlink:href="#de"/>
        </mask>
        <path d="M29.358 70.587a.719.719 0 1 0 1.365-.45" stroke="#F3E3FF" stroke-width=".25" mask="url(#df)"/>
      </g>
      <g transform="translate(116 141.02)">
        <mask id="dh" fill="#fff">
          <use xlink:href="#dg"/>
        </mask>
        <path d="M27.657-1.685a.79.79 0 0 0 1.5-.496" stroke="#F3E3FF" stroke-width=".25" mask="url(#dh)"/>
      </g>
      <g transform="translate(116 141.02)">
        <mask id="dj" fill="#fff">
          <use xlink:href="#di"/>
        </mask>
        <path d="M27.155-.688a.79.79 0 0 0 1.5-.495" stroke="#F3E3FF" stroke-width=".25" mask="url(#dj)"/>
      </g>
      <g transform="translate(116 141.02)">
        <mask id="dl" fill="#fff">
          <use xlink:href="#dk"/>
        </mask>
        <path d="M22.451 14.724a.959.959 0 1 0 1.821-.602" stroke="#F3E3FF" stroke-width=".25" mask="url(#dl)"/>
      </g>
      <g transform="translate(116 141.02)">
        <mask id="dn" fill="#fff">
          <use xlink:href="#dm"/>
        </mask>
        <path d="M21.841 15.937a.96.96 0 0 0 1.822-.603" stroke="#F3E3FF" stroke-width=".25" mask="url(#dn)"/>
      </g>
      <g transform="translate(116 141.02)">
        <mask id="dp" fill="#fff">
          <use xlink:href="#do"/>
        </mask>
        <path d="M1.73-3.552a.641.641 0 1 0 1.219-.403" stroke="#F3E3FF" stroke-width=".25" mask="url(#dp)"/>
      </g>
      <g transform="translate(116 141.02)">
        <mask id="dr" fill="#fff">
          <use xlink:href="#dq"/>
        </mask>
        <path d="M1.321-2.742a.642.642 0 0 0 1.22-.402" stroke="#F3E3FF" stroke-width=".25" mask="url(#dr)"/>
      </g>
      <g transform="translate(116 141.02)">
        <mask id="dt" fill="#fff">
          <use xlink:href="#ds"/>
        </mask>
        <path d="M79.39 38.924a.739.739 0 1 0 .77-1.26" stroke="#F3E3FF" stroke-width=".25" mask="url(#dt)"/>
      </g>
      <g transform="translate(116 141.02)">
        <mask id="dv" fill="#fff">
          <use xlink:href="#du"/>
        </mask>
        <path d="M79.635 39.94a.738.738 0 1 0 .771-1.261" stroke="#F3E3FF" stroke-width=".25" mask="url(#dv)"/>
      </g>
      <g transform="translate(116 141.02)">
        <mask id="dx" fill="#fff">
          <use xlink:href="#dw"/>
        </mask>
        <path d="M48.304 38.456a.867.867 0 1 0 1.27-1.179" stroke="#F3E3FF" stroke-width=".25" mask="url(#dx)"/>
      </g>
      <g transform="translate(116 141.02)">
        <mask id="dz" fill="#fff">
          <use xlink:href="#dy"/>
        </mask>
        <path d="M47.032 39.634a.868.868 0 0 0 1.272-1.178" stroke="#F3E3FF" stroke-width=".25" mask="url(#dz)"/>
      </g>
      <g transform="translate(116 141.02)">
        <mask id="dB" fill="#fff">
          <use xlink:href="#dA"/>
        </mask>
        <path d="M48.257 39.681a.866.866 0 1 0 1.271-1.178" stroke="#F3E3FF" stroke-width=".25" mask="url(#dB)"/>
      </g>
      <g transform="translate(116 141.02)">
        <mask id="dD" fill="#fff">
          <use xlink:href="#dC"/>
        </mask>
        <path d="M46.985 40.859a.868.868 0 0 0 1.272-1.178" stroke="#F3E3FF" stroke-width=".25" mask="url(#dD)"/>
      </g>
      <g transform="translate(116 141.02)">
        <mask id="dF" fill="#fff">
          <use xlink:href="#dE"/>
        </mask>
        <path d="M49.482 39.728a.866.866 0 1 0 1.27-1.178" stroke="#F3E3FF" stroke-width=".25" mask="url(#dF)"/>
      </g>
      <g transform="translate(116 141.02)">
        <mask id="dH" fill="#fff">
          <use xlink:href="#dG"/>
        </mask>
        <path d="M18.903-2.396a.873.873 0 1 0 1.66-.55" stroke="#F3E3FF" stroke-width=".25" mask="url(#dH)"/>
      </g>
      <g transform="translate(116 141.02)">
        <mask id="dJ" fill="#fff">
          <use xlink:href="#dI"/>
        </mask>
        <path d="M28.988 29.081a.875.875 0 1 0 1.66-.55" stroke="#F3E3FF" stroke-width=".25" mask="url(#dJ)"/>
      </g>
      <g transform="translate(116 141.02)">
        <mask id="dL" fill="#fff">
          <use xlink:href="#dK"/>
        </mask>
        <path d="M32.68 8.671a.663.663 0 0 0 1.26-.416" stroke="#F3E3FF" stroke-width=".25" mask="url(#dL)"/>
      </g>
      <g transform="translate(116 141.02)">
        <mask id="dN" fill="#fff">
          <use xlink:href="#dM"/>
        </mask>
        <path d="M42.937-10.578a.496.496 0 1 0 .944-.312" stroke="#F3E3FF" stroke-width=".25" mask="url(#dN)"/>
      </g>
      <g transform="translate(116 141.02)">
        <mask id="dP" fill="#fff">
          <use xlink:href="#dO"/>
        </mask>
        <path d="M69.809 57.53a.874.874 0 1 0 1.542-.823" stroke="#F3E3FF" stroke-width=".25" mask="url(#dP)"/>
      </g>
      <g transform="translate(116 141.02)">
        <mask id="dR" fill="#fff">
          <use xlink:href="#dQ"/>
        </mask>
        <path d="M48.89 71.23a.96.96 0 0 0 1.822-.601" stroke="#F3E3FF" stroke-width=".25" mask="url(#dR)"/>
      </g>
      <g transform="translate(116 141.02)">
        <mask id="dT" fill="#fff">
          <use xlink:href="#dS"/>
        </mask>
        <path d="M48.28 72.444a.96.96 0 0 0 1.822-.603" stroke="#F3E3FF" stroke-width=".25" mask="url(#dT)"/>
      </g>
      <g transform="translate(116 141.02)">
        <mask id="dV" fill="#fff">
          <use xlink:href="#dU"/>
        </mask>
        <path d="M44.341 77.035c.461-.224 1.501.594 1.527.94.027.346.321 1.418-.422 1.79-.546.275-2.527 1.166-3.122.868-.547-.274-.367-2.438 2.017-3.597" fill="#FFF" mask="url(#dV)"/>
      </g>
      <g transform="translate(116 141.02)">
        <mask id="dX" fill="#fff">
          <use xlink:href="#dW"/>
        </mask>
        <path d="M44.341 77.035c.461-.224 1.501.594 1.527.94.027.346.321 1.418-.422 1.79-.546.275-2.527 1.166-3.122.868-.547-.274-.367-2.438 2.017-3.597z" stroke="#52267D" mask="url(#dX)"/>
      </g>
      <g transform="translate(116 141.02)">
        <mask id="dZ" fill="#fff">
          <use xlink:href="#dY"/>
        </mask>
        <path d="M44.572 77.28c.271-.131.886.352.901.556.017.204.19.837-.248 1.056-.324.162-1.492.688-1.843.512-.323-.161-.216-1.438 1.19-2.123" fill="#E1F2FF" mask="url(#dZ)"/>
      </g>
      <g transform="translate(116 141.02)">
        <mask id="eb" fill="#fff">
          <use xlink:href="#ea"/>
        </mask>
        <path d="M46.225 76.985s-.433-.07-1.023.588c-.523.58-1.29 1.488-.794 2.137.495.649 2.44-.297 2.84-.601.403-.305.524-.892.3-1.297-.484-.883-1.323-.827-1.323-.827" fill="#FFF" mask="url(#eb)"/>
      </g>
      <g transform="translate(116 141.02)">
        <mask id="ed" fill="#fff">
          <use xlink:href="#ec"/>
        </mask>
        <path d="M46.225 76.985s-.433-.07-1.023.588c-.523.58-1.29 1.488-.794 2.137.495.649 2.44-.297 2.84-.601.403-.305.524-.892.3-1.297-.484-.883-1.323-.827-1.323-.827z" stroke="#52267D" mask="url(#ed)"/>
      </g>
      <g transform="translate(116 141.02)">
        <mask id="ef" fill="#fff">
          <use xlink:href="#ee"/>
        </mask>
        <path d="M46.449 77.198s-.256-.041-.605.349c-.31.344-.764.88-.471 1.265.293.384 1.445-.176 1.683-.356a.623.623 0 0 0 .177-.768c-.287-.522-.784-.49-.784-.49" fill="#E1F2FF" mask="url(#ef)"/>
      </g>
      <g transform="translate(116 141.02)">
        <mask id="eh" fill="#fff">
          <use xlink:href="#eg"/>
        </mask>
        <path d="M68.43 69.09s-1.158-.44-2.042.956c-.807 1.276-1.176 2.958-.632 2.936a5.555 5.555 0 0 0 2.326-.647c.75-.41 1.507-.489 1.275-2.267-.108-.829-.926-.978-.926-.978" fill="#FFF" mask="url(#eh)"/>
      </g>
      <g transform="translate(116 141.02)">
        <mask id="ej" fill="#fff">
          <use xlink:href="#ei"/>
        </mask>
        <path d="M68.43 69.09s-1.158-.44-2.042.956c-.807 1.276-1.176 2.958-.632 2.936a5.555 5.555 0 0 0 2.326-.647c.75-.41 1.507-.489 1.275-2.267-.108-.829-.926-.978-.926-.978z" stroke="#52267D" stroke-width=".5" mask="url(#ej)"/>
      </g>
      <g transform="translate(116 141.02)">
        <mask id="el" fill="#fff">
          <use xlink:href="#ek"/>
        </mask>
        <path d="M68.312 69.43s-.721-.274-1.271.595c-.501.795-.731 1.841-.393 1.827a3.476 3.476 0 0 0 1.447-.402c.467-.255.939-.305.794-1.412-.067-.515-.577-.608-.577-.608" fill="#E1F2FF" mask="url(#el)"/>
      </g>
      <g transform="translate(116 141.02)">
        <mask id="en" fill="#fff">
          <use xlink:href="#em"/>
        </mask>
        <path d="M69.72 68.646c.461-.224 1.501.594 1.527.939.027.346.321 1.418-.422 1.79-.546.275-2.527 1.167-3.122.869-.547-.275-.367-2.44 2.017-3.598" fill="#FFF" mask="url(#en)"/>
      </g>
      <g transform="translate(116 141.02)">
        <mask id="ep" fill="#fff">
          <use xlink:href="#eo"/>
        </mask>
        <path d="M69.72 68.646c.461-.224 1.501.594 1.527.939.027.346.321 1.418-.422 1.79-.546.275-2.527 1.167-3.122.869-.547-.275-.367-2.44 2.017-3.598z" stroke="#52267D" stroke-width=".5" mask="url(#ep)"/>
      </g>
      <g transform="translate(116 141.02)">
        <mask id="er" fill="#fff">
          <use xlink:href="#eq"/>
        </mask>
        <path d="M69.951 68.892c.271-.133.886.35.901.554.016.204.19.837-.249 1.056-.323.162-1.49.688-1.842.512-.324-.161-.217-1.438 1.19-2.122" fill="#E1F2FF" mask="url(#er)"/>
      </g>
      <g transform="translate(116 141.02)">
        <mask id="et" fill="#fff">
          <use xlink:href="#es"/>
        </mask>
        <path d="M71.604 68.595s-.432-.07-1.023.588c-.523.581-1.29 1.488-.794 2.137.495.65 2.44-.296 2.84-.6.403-.306.524-.893.3-1.297-.484-.884-1.323-.828-1.323-.828" fill="#FFF" mask="url(#et)"/>
      </g>
      <g transform="translate(116 141.02)">
        <mask id="ev" fill="#fff">
          <use xlink:href="#eu"/>
        </mask>
        <path d="M71.604 68.595s-.432-.07-1.023.588c-.523.581-1.29 1.488-.794 2.137.495.65 2.44-.296 2.84-.6.403-.306.524-.893.3-1.297-.484-.884-1.323-.828-1.323-.828z" stroke="#52267D" stroke-width=".5" mask="url(#ev)"/>
      </g>
      <g transform="translate(116 141.02)">
        <mask id="ex" fill="#fff">
          <use xlink:href="#ew"/>
        </mask>
        <path d="M71.827 68.809s-.256-.042-.605.348c-.31.344-.764.881-.47 1.265.292.384 1.444-.176 1.682-.355.238-.181.31-.529.177-.768-.287-.523-.784-.49-.784-.49" fill="#E1F2FF" mask="url(#ex)"/>
      </g>
    </g>
    <g>
      <path d="M184.746 208.207h-23.644v-66.651a2.14 2.14 0 0 1 2.141-2.141h19.361c1.183 0 2.142.958 2.142 2.14v66.652z" fill="#E1F2FF"/>
      <path d="M184.746 208.207h-23.644v-66.651a2.14 2.14 0 0 1 2.141-2.141h19.361c1.183 0 2.142.958 2.142 2.14v66.652z" stroke="#ACD3EF" stroke-width="2"/>
      <path d="M160.856 147.64H184.3" fill="#E1F2FF"/>
      <path d="M160.856 147.64H184.3" stroke="#ACD3EF" stroke-width="2"/>
      <path d="M160.856 155.292H184.3" fill="#E1F2FF"/>
      <path d="M160.856 155.292H184.3" stroke="#ACD3EF" stroke-width="2"/>
      <path d="M160.856 162.942H184.3" fill="#E1F2FF"/>
      <path d="M160.856 162.942H184.3" stroke="#ACD3EF" stroke-width="2"/>
      <path d="M160.856 170.593H184.3" fill="#E1F2FF"/>
      <path d="M160.856 170.593H184.3" stroke="#ACD3EF" stroke-width="2"/>
      <path d="M160.856 178.243H184.3" fill="#E1F2FF"/>
      <path d="M160.856 178.243H184.3" stroke="#ACD3EF" stroke-width="2"/>
      <path d="M160.856 185.893H184.3" fill="#E1F2FF"/>
      <path d="M160.856 185.893H184.3" stroke="#ACD3EF" stroke-width="2"/>
      <path d="M160.856 193.545H184.3" fill="#E1F2FF"/>
      <path d="M160.856 193.545H184.3" stroke="#ACD3EF" stroke-width="2"/>
      <path d="M160.856 201.195H184.3" fill="#E1F2FF"/>
      <path d="M160.856 201.195H184.3" stroke="#ACD3EF" stroke-width="2"/>
      <path d="M160.856 208.846H184.3" fill="#E1F2FF"/>
      <path d="M160.856 208.846H184.3" stroke="#ACD3EF" stroke-width="2"/>
      <path d="M89.128 208.786H65.484v-36.438a2.538 2.538 0 0 1 2.538-2.538h18.57a2.537 2.537 0 0 1 2.536 2.538v36.438z" fill="#E1F2FF"/>
      <path d="M89.128 208.786H65.484v-36.438a2.538 2.538 0 0 1 2.538-2.538h18.57a2.537 2.537 0 0 1 2.536 2.538v36.438z" stroke="#ACD3EF" stroke-width="2"/>
      <path d="M65.237 178.037h23.446" fill="#E1F2FF"/>
      <path d="M65.237 178.037h23.446" stroke="#ACD3EF" stroke-width="2"/>
      <path d="M65.237 185.687h23.446" fill="#E1F2FF"/>
      <path d="M65.237 185.687h23.446" stroke="#ACD3EF" stroke-width="2"/>
      <path d="M65.237 193.338h23.446" fill="#E1F2FF"/>
      <path d="M65.237 193.338h23.446" stroke="#ACD3EF" stroke-width="2"/>
      <path d="M65.237 200.99h23.446" fill="#E1F2FF"/>
      <path d="M65.237 200.99h23.446" stroke="#ACD3EF" stroke-width="2"/>
      <path d="M65.237 208.64h23.446" fill="#E1F2FF"/>
      <path d="M65.237 208.64h23.446" stroke="#ACD3EF" stroke-width="2"/>
      <path d="M126.875 208.911h-23.644V134.26a2.14 2.14 0 0 1 2.141-2.141h19.361c1.183 0 2.142.958 2.142 2.141v74.651z" fill="#FFF"/>
      <path d="M126.875 208.911h-23.644V134.26a2.14 2.14 0 0 1 2.141-2.141h19.361c1.183 0 2.142.958 2.142 2.141v74.651z" stroke="#5E63B6" stroke-width="2"/>
      <path d="M102.985 140.345h23.445" fill="#FFF"/>
      <path d="M102.985 140.345h23.445" stroke="#5E63B6" stroke-width="2"/>
      <path d="M102.985 147.996h23.445" fill="#FFF"/>
      <path d="M102.985 147.996h23.445" stroke="#5E63B6" stroke-width="2"/>
      <path d="M102.985 155.646h23.445" fill="#FFF"/>
      <path d="M102.985 155.646h23.445" stroke="#5E63B6" stroke-width="2"/>
      <path d="M102.985 163.297h23.445" fill="#FFF"/>
      <path d="M102.985 163.297h23.445" stroke="#5E63B6" stroke-width="2"/>
      <path d="M102.985 170.947h23.445" fill="#FFF"/>
      <path d="M102.985 170.947h23.445" stroke="#5E63B6" stroke-width="2"/>
      <path d="M102.985 178.597h23.445" fill="#FFF"/>
      <path d="M102.985 178.597h23.445" stroke="#5E63B6" stroke-width="2"/>
      <path d="M102.985 186.249h23.445" fill="#FFF"/>
      <path d="M102.985 186.249h23.445" stroke="#5E63B6" stroke-width="2"/>
      <path d="M102.985 193.9h23.445" fill="#FFF"/>
      <path d="M102.985 193.9h23.445" stroke="#5E63B6" stroke-width="2"/>
      <path d="M102.985 201.55h23.445" fill="#FFF"/>
      <path d="M102.985 201.55h23.445" stroke="#5E63B6" stroke-width="2"/>
      <path d="M196.208 208.911h-23.644v-28.899a2.538 2.538 0 0 1 2.538-2.538h18.568a2.538 2.538 0 0 1 2.538 2.538v28.899z" fill="#FFF"/>
      <path d="M196.208 208.911h-23.644v-28.899a2.538 2.538 0 0 1 2.538-2.538h18.568a2.538 2.538 0 0 1 2.538 2.538v28.899z" stroke="#5E63B6" stroke-width="2"/>
      <path d="M172.318 185.7h23.445" fill="#FFF"/>
      <path d="M172.318 185.7h23.445" stroke="#5E63B6" stroke-width="2"/>
      <path d="M172.318 193.351h23.445" fill="#FFF"/>
      <path d="M172.318 193.351h23.445" stroke="#5E63B6" stroke-width="2"/>
      <path d="M172.318 201.002h23.445" fill="#FFF"/>
      <path d="M172.318 201.002h23.445" stroke="#5E63B6" stroke-width="2"/>
      <path d="M149.54 208.911h-23.644v-44.438a2.538 2.538 0 0 1 2.538-2.538h18.568a2.537 2.537 0 0 1 2.537 2.538v44.438z" fill="#FFF"/>
      <path d="M149.54 208.911h-23.644v-44.438a2.538 2.538 0 0 1 2.538-2.538h18.568a2.537 2.537 0 0 1 2.537 2.538v44.438z" stroke="#5E63B6" stroke-width="2"/>
      <path d="M125.65 170.162h23.445" fill="#FFF"/>
      <path d="M125.65 170.162h23.445" stroke="#5E63B6" stroke-width="2"/>
      <path d="M125.65 177.812h23.445" fill="#FFF"/>
      <path d="M125.65 177.812h23.445" stroke="#5E63B6" stroke-width="2"/>
      <path d="M125.65 185.463h23.445" fill="#FFF"/>
      <path d="M125.65 185.463h23.445" stroke="#5E63B6" stroke-width="2"/>
      <path d="M125.65 193.113h23.445" fill="#FFF"/>
      <path d="M125.65 193.113h23.445" stroke="#5E63B6" stroke-width="2"/>
      <path d="M125.65 200.764h23.445" fill="#FFF"/>
      <path d="M125.65 200.764h23.445" stroke="#5E63B6" stroke-width="2"/>
      <path d="M172.763 208.911h-23.644v-58.503a2.537 2.537 0 0 1 2.538-2.537h18.568a2.538 2.538 0 0 1 2.538 2.537v58.503z" fill="#FFF"/>
      <path d="M172.763 208.911h-23.644v-58.503a2.537 2.537 0 0 1 2.538-2.537h18.568a2.538 2.538 0 0 1 2.538 2.537v58.503z" stroke="#5E63B6" stroke-width="2"/>
      <g>
        <path d="M148.872 156.097h23.445" fill="#FFF"/>
        <path d="M148.872 156.097h23.445" stroke="#5E63B6" stroke-width="2"/>
      </g>
      <g>
        <path d="M148.872 163.748h23.445" fill="#FFF"/>
        <path d="M148.872 163.748h23.445" stroke="#5E63B6" stroke-width="2"/>
      </g>
      <g>
        <path d="M148.872 171.398h23.445" fill="#FFF"/>
        <path d="M148.872 171.398h23.445" stroke="#5E63B6" stroke-width="2"/>
      </g>
      <g>
        <path d="M148.872 179.049h23.445" fill="#FFF"/>
        <path d="M148.872 179.049h23.445" stroke="#5E63B6" stroke-width="2"/>
      </g>
      <g>
        <path d="M148.872 186.7h23.445" fill="#FFF"/>
        <path d="M148.872 186.7h23.445" stroke="#5E63B6" stroke-width="2"/>
      </g>
      <g>
        <path d="M148.872 194.35h23.445" fill="#FFF"/>
        <path d="M148.872 194.35h23.445" stroke="#5E63B6" stroke-width="2"/>
      </g>
      <g>
        <path d="M148.872 202h23.445" fill="#FFF"/>
        <path d="M148.872 202h23.445" stroke="#5E63B6" stroke-width="2"/>
      </g>
      <path d="M103.43 208.911H79.786v-44.438a2.538 2.538 0 0 1 2.538-2.538h18.569c1.4 0 2.537 1.136 2.537 2.538v44.438z" fill="#FFF"/>
      <path d="M103.43 208.911H79.786v-44.438a2.538 2.538 0 0 1 2.538-2.538h18.569c1.4 0 2.537 1.136 2.537 2.538v44.438z" stroke="#5E63B6" stroke-width="2"/>
      <g>
        <path d="M79.54 170.162h23.444" fill="#FFF"/>
        <path d="M79.54 170.162h23.444" stroke="#5E63B6" stroke-width="2"/>
      </g>
      <g>
        <path d="M79.54 177.812h23.444" fill="#FFF"/>
        <path d="M79.54 177.812h23.444" stroke="#5E63B6" stroke-width="2"/>
      </g>
      <g>
        <path d="M79.54 185.463h23.444" fill="#FFF"/>
        <path d="M79.54 185.463h23.444" stroke="#5E63B6" stroke-width="2"/>
      </g>
      <g>
        <path d="M79.54 193.113h23.444" fill="#FFF"/>
        <path d="M79.54 193.113h23.444" stroke="#5E63B6" stroke-width="2"/>
      </g>
      <g>
        <path d="M79.54 200.764h23.444" fill="#FFF"/>
        <path d="M79.54 200.764h23.444" stroke="#5E63B6" stroke-width="2"/>
      </g>
      <path d="M59.233 54.997c-11.943 0-21.626 9.683-21.626 21.626 0 11.943 9.683 21.626 21.626 21.626 11.943 0 21.625-9.683 21.625-21.626 0-11.943-9.682-21.626-21.625-21.626" fill="#E1F2FF"/>
      <path d="M54.506 97.249c-11.373 0-20.625-9.253-20.625-20.626 0-11.373 9.252-20.626 20.625-20.626s20.626 9.253 20.626 20.626c0 11.373-9.253 20.626-20.626 20.626" fill="#FFF"/>
      <path d="M54.506 54.997c-11.943 0-21.626 9.683-21.626 21.626 0 11.943 9.683 21.626 21.626 21.626 11.944 0 21.626-9.683 21.626-21.626 0-11.943-9.682-21.626-21.626-21.626m0 2c10.822 0 19.626 8.805 19.626 19.626 0 10.82-8.804 19.626-19.626 19.626-10.82 0-19.626-8.805-19.626-19.626 0-10.821 8.805-19.626 19.626-19.626" fill="#5E63B6"/>
      <path d="M61.19 82.099c-.087.434-.166.885-.233 1.352a17.86 17.86 0 0 1-.223 1.245c-.545.176-.985.295-1.322.355-.337.06-.714.09-1.13.09-.65 0-1.307-.064-1.972-.188a24.727 24.727 0 0 1-2.061-.48 21.435 21.435 0 0 0-1.552-.384 5.853 5.853 0 0 0-1.064-.091c-.377 0-.745.029-1.106.084-.36.057-.681.129-.961.217-.281.089-.51.177-.686.265a8.896 8.896 0 0 0-.685.397l.06-.914c.024-.304.044-.677.06-1.118l.06-1.49c.337-.105.605-.215.806-.331.2-.116.385-.287.553-.511.168-.225.307-.505.415-.842a3.39 3.39 0 0 0 .162-1.034c0-.112-.01-.265-.024-.456-.986.023-1.904.06-2.753.107.104-.577.206-1.191.306-1.845.1-.653.19-1.196.27-1.628l.518.012c.168 0 .376-.004.625-.012a11.113 11.113 0 0 1-.168-.482l-.193-.565a8.576 8.576 0 0 1-.108-.408 2.73 2.73 0 0 1-.054-.337 3.96 3.96 0 0 1 .517-2.356c.357-.633.889-1.17 1.599-1.605a6.113 6.113 0 0 1 2.236-.848 15.827 15.827 0 0 1 2.555-.192c.617 0 1.234.026 1.85.078.618.053 1.412.166 2.382.343.008.569.092 1.92.252 4.05-.85-.32-1.551-.55-2.104-.69a6.421 6.421 0 0 0-1.587-.211c-.761 0-1.38.16-1.851.482-.473.32-.71.745-.71 1.27 0 .15.018.298.054.446.037.148.088.33.157.549.068.218.11.376.126.476h.577c.962-.02 1.823-.05 2.585-.087l1.983-.058c-.096.425-.196.954-.3 1.587a49.108 49.108 0 0 1-.361 1.947 64.16 64.16 0 0 0-1.526-.023h-2.43l-.047.753a9.122 9.122 0 0 1-.048.557 2.277 2.277 0 0 1-.2.668c-.051.115-.153.334-.305.655.424.096.77.164 1.034.204.088.016.294.042.619.078s.653.076.986.12c.332.044.547.07.643.078.176.008.392.012.649.012a7.21 7.21 0 0 0 1.852-.223 8.607 8.607 0 0 0 1.562-.57c-.103.569-.2 1.069-.288 1.502" fill="#5E63B6"/>
      <g transform="translate(109 25.02)">
        <mask id="ez" fill="#fff">
          <use xlink:href="#ey"/>
        </mask>
        <path d="M21.718.98C9.775.98.092 10.663.092 22.606c0 11.943 9.683 21.625 21.626 21.625 11.943 0 21.625-9.682 21.625-21.625S33.661.98 21.718.98" fill="#E1F2FF" mask="url(#ez)"/>
      </g>
      <path d="M125.426 68.25C114.053 68.25 104.8 59 104.8 47.627S114.053 27 125.426 27c11.373 0 20.626 9.253 20.626 20.626 0 11.373-9.253 20.625-20.626 20.625" fill="#FFF"/>
      <g transform="translate(103 25.02)">
        <mask id="eB" fill="#fff">
          <use xlink:href="#eA"/>
        </mask>
        <path d="M22.426.98C10.483.98.8 10.662.8 22.606c0 11.943 9.683 21.625 21.626 21.625 11.943 0 21.626-9.682 21.626-21.625C44.052 10.662 34.369.98 22.426.98m0 2c10.822 0 19.626 8.804 19.626 19.626 0 10.82-8.804 19.625-19.626 19.625C11.605 42.23 2.8 33.427 2.8 22.606 2.8 11.784 11.605 2.98 22.426 2.98" fill="#5E63B6" mask="url(#eB)"/>
      </g>
      <path d="M125.835 44.988c.146.211.356.445.628.702.98.921 1.703 1.656 2.168 2.207.464.551.79 1.073.978 1.568.19.494.284.983.284 1.465 0 .401-.05.776-.154 1.126a3.487 3.487 0 0 1-.446.968 4.239 4.239 0 0 1-.68.792c-.257.235-.52.435-.792.601-.27.166-.672.358-1.2.577l-.022 1.437c0 .475.004.936.011 1.381a112.39 112.39 0 0 0-1.958-.022c-.483 0-1.196.007-2.139.022.038-.528.056-1.196.056-2.004v-.464a19.982 19.982 0 0 1-1.534-.259 16.322 16.322 0 0 1-1.51-.43c-.053-1.895-.114-3.196-.18-3.905.738.332 1.417.573 2.036.723.618.152 1.15.227 1.596.227.392 0 .728-.096 1.007-.288a.918.918 0 0 0 .42-.798 1.19 1.19 0 0 0-.029-.254 1.058 1.058 0 0 0-.085-.243 2.36 2.36 0 0 0-.182-.288 2.228 2.228 0 0 0-.214-.266c-.06-.06-.302-.295-.725-.7-1.207-1.17-2.01-1.995-2.41-2.478a4.3 4.3 0 0 1-.72-1.26 3.968 3.968 0 0 1-.254-1.364c0-.346.051-.687.153-1.022.101-.336.251-.654.447-.956a3.935 3.935 0 0 1 1.613-1.407c.328-.156.816-.316 1.466-.482.015-.24.022-.384.022-.429l-.01-.736v-1.29a96.494 96.494 0 0 0 4.086 0 56.918 56.918 0 0 0-.058 1.471v.974a16.7 16.7 0 0 1 2.207.463c.053 1.22.125 2.483.216 3.792a9.084 9.084 0 0 0-1.693-.599c-.516-.12-.945-.182-1.285-.182-.385 0-.703.09-.956.266-.253.177-.379.406-.379.685 0 .242.074.468.221.68" fill="#5E63B6"/>
      <path d="M201.633 54.997c-11.943 0-21.625 9.683-21.625 21.626 0 11.943 9.682 21.626 21.625 21.626s21.626-9.683 21.626-21.626c0-11.943-9.683-21.626-21.626-21.626" fill="#E1F2FF"/>
      <path d="M196.915 97.249c-11.373 0-20.625-9.253-20.625-20.626 0-11.373 9.252-20.626 20.625-20.626s20.626 9.253 20.626 20.626c0 11.373-9.253 20.626-20.626 20.626" fill="#FFF"/>
      <path d="M196.915 54.997c-11.943 0-21.625 9.683-21.625 21.626 0 11.943 9.682 21.626 21.625 21.626 11.944 0 21.626-9.683 21.626-21.626 0-11.943-9.682-21.626-21.626-21.626m0 2c10.822 0 19.626 8.805 19.626 19.626 0 10.82-8.804 19.626-19.626 19.626-10.82 0-19.625-8.805-19.625-19.626 0-10.821 8.804-19.626 19.625-19.626" fill="#5E63B6"/>
      <path d="M186.185 74.256h2.117a7.398 7.398 0 0 1 1.234-2.423 7.913 7.913 0 0 1 2.036-1.854 9.707 9.707 0 0 1 2.712-1.183c1.009-.273 2.1-.411 3.269-.411 1.554 0 2.887.203 3.996.607 1.107.405 2.026.949 2.755 1.632l-1.624 1.158a3.117 3.117 0 0 1-.38.24c-.132.07-.32.105-.562.105-.242 0-.461-.058-.652-.178-.194-.118-.422-.25-.687-.395a5.187 5.187 0 0 0-1.01-.396c-.41-.12-.956-.176-1.637-.176-1.182 0-2.184.273-3.005.823-.822.549-1.404 1.367-1.746 2.45h7.994v.926c0 .178-.114.346-.34.506-.226.16-.533.24-.918.24h-7.051c-.011.11-.016.224-.016.34v.819h6.736v.924c0 .179-.114.348-.34.507-.226.16-.527.24-.902.24h-5.246c.299 1.18.85 2.06 1.657 2.64.804.58 1.796.869 2.978.869a6.98 6.98 0 0 0 1.28-.101c.36-.066.669-.148.928-.244.259-.097.477-.203.654-.317.175-.117.339-.222.488-.318.148-.096.29-.18.43-.245.138-.067.294-.101.472-.101.143 0 .26.014.356.04.094.025.196.08.306.16l1.986 1.203c-.763.818-1.748 1.442-2.963 1.873-1.214.43-2.61.645-4.185.645-1.304 0-2.47-.146-3.501-.44-1.031-.292-1.93-.707-2.687-1.242a6.915 6.915 0 0 1-1.87-1.927 7.686 7.686 0 0 1-1.044-2.495h-2.018v-1.671h1.805a1.402 1.402 0 0 1-.02-.235v-.234c0-.118.003-.234.012-.344.005-.112.013-.227.023-.345h-1.82v-1.672zM126.4 84.424h-.924l-3.828-7.332h1.627c.124 0 .237.03.343.093.104.06.19.163.259.304l1.728 3.357c.142.289.253.606.333.952.08-.346.19-.663.333-.952l1.72-3.357a.735.735 0 0 1 .263-.304.627.627 0 0 1 .337-.093h1.627l-3.818 7.332zM197.383 113.977h-.925l-3.828-7.33h1.628c.123 0 .236.03.342.091.104.061.19.163.259.305l1.728 3.356c.142.29.253.607.333.952.08-.345.192-.662.333-.952l1.72-3.356a.74.74 0 0 1 .264-.305.629.629 0 0 1 .336-.092h1.628l-3.818 7.331zM54.974 113.977h-.925l-3.828-7.33h1.627c.124 0 .237.03.343.091.104.061.19.163.259.305l1.728 3.356c.142.29.253.607.333.952.08-.345.192-.662.333-.952l1.72-3.356a.734.734 0 0 1 .264-.305.629.629 0 0 1 .336-.092h1.627l-3.817 7.331z" fill="#5E63B6"/>
      <g>
        <path d="M62.426 208.911H239.32" fill="#FFF"/>
        <path d="M62.426 208.911H239.32" stroke="#5E63B6" stroke-width="2" stroke-linecap="round" stroke-linejoin="round"/>
      </g>
    </g>
  </g>
</svg>
