<svg width="256" height="256" xmlns="http://www.w3.org/2000/svg">
  <g fill="none" fill-rule="evenodd">
    <path d="M25 228.56C25 171.365 71.365 125 128.56 125s103.56 46.365 103.56 103.56H25z" fill="#E1F2FF" fill-rule="nonzero"/>
    <g fill="#FFF" fill-rule="nonzero" stroke="#5E63B6" stroke-linecap="round" stroke-linejoin="round" stroke-width="3">
      <path d="M20 220h36M62 220h176.89M246 220h6.97M3 220h8.97M95 230h67.19M171 230h9.14M87 229l-5 .08"/>
    </g>
    <g stroke="#5E63B6" stroke-linecap="round">
      <path d="M206.98 68.4v7M210.48 71.9h-7M80 24v7M84 28h-7" stroke-width="2" stroke-linejoin="round"/>
      <path d="M42.73 188.68v3.94M44.7 190.65h-3.94"/>
      <path d="M217.73 128.68v3.94M219.7 130.65h-3.94" stroke-linejoin="round"/>
      <path d="M48.73 88.68v3.94M50.7 90.65h-3.94"/>
      <path d="M26.42 127.28v8.12M30.48 131.34h-8.13" stroke-width="2" fill="#FFF" fill-rule="nonzero"/>
    </g>
    <g transform="translate(44 26)">
      <rect stroke="#5E63B6" stroke-width="2" fill="#FFF" fill-rule="nonzero" width="116.18" height="116.18" rx="2"/>
      <path d="M14 12h87.97a2 2 0 0 1 2 2v87.97a2 2 0 0 1-2 2H14a2 2 0 0 1-2-2V14a2 2 0 0 1 2-2z" stroke="#E1F2FF" stroke-width="2" fill="#FFF" fill-rule="nonzero" stroke-linecap="round" stroke-linejoin="round" stroke-dasharray="50"/>
      <text fill="#5E63B6" font-family="Lato-Black, Lato" font-size="18" font-weight="700">
        <tspan x="51" y="96">O</tspan>
      </text>
      <text fill="#5E63B6" font-family="Lato-Black, Lato" font-size="18" font-weight="700">
        <tspan x="56" y="33">I</tspan>
      </text>
      <path stroke="#5E63B6" stroke-width="2" fill="#FFF" fill-rule="nonzero" d="M47 43h22v24H47z"/>
      <path stroke="#5E63B6" stroke-width="2" fill="#E1F2FF" fill-rule="nonzero" d="M47 67h22v9.38H47z"/>
      <path d="M55 47h7.72" stroke="#E1F2FF" stroke-width="2" fill="#FFF" fill-rule="nonzero" stroke-linecap="round" stroke-linejoin="round" stroke-dasharray="50"/>
    </g>
    <ellipse stroke="#5E63B6" stroke-width="4" fill="#FFF" cx="96.5" cy="188.5" rx="31.5" ry="30.5"/>
    <ellipse stroke="#5E63B6" stroke-width="3" fill="#FFF" cx="97" cy="188.5" rx="16" ry="15.5"/>
    <path d="M101.127 196.366c.065.202.13.338.143.384-.455-4.384 2.03-6.212 2.83-9.107a.976.976 0 0 1 0-.143c.016-.066.029-.134.039-.202a4.17 4.17 0 0 0-.84-2.719l-.162-.24c-.104-.15-.215-.3-.325-.45l-.033-.045-.098-.123-.097-.124-.104-.123-.104-.13-.078-.092A22.051 22.051 0 0 0 98.7 180c.18 1.533.196 3.082.046 4.618a17.427 17.427 0 0 1-1.548 5.12 17.426 17.426 0 0 1-5.204-1.21A21.232 21.232 0 0 1 88 186.186c0 .137 0 .273.046.41v.124c0 .097 0 .195.039.292.039.098 0 .091 0 .137l.045.293v.117c0 .123.04.247.065.364v.032c0 .144.052.28.078.423l.078.378v.078l.078.338v.065c0 .13.065.26.098.39.108.412.228.809.358 1.19.201.599.451 1.18.748 1.737l.123.222.117.188.13.195.17.234v.04c.065.084.136.162.208.24l.15.156.064.059.098.084.072.059.09.072.072.052.098.065.071.045.104.059.072.039.117.052h.059l.182.058.11.04c2.927.773 5.777-.456 9.354 2.1" fill="#9452BA" fill-rule="nonzero"/>
    <path d="M180.5 95.973h-20.726c-9.274 0-13.503 11.256-13.503 23.647v39.5C146.27 177 127.508 174 123.5 174" stroke="#5E63B6" stroke-width="5"/>
    <path d="M202.517 92.987H194V90h8.517c.575 0 1.042.466 1.042 1.042v.903c0 .576-.467 1.042-1.042 1.042zM202.517 101.986H194V99h8.517c.575 0 1.042.465 1.042 1.041v.904c0 .575-.467 1.041-1.042 1.041z" stroke="#5E63B6" stroke-width="2" fill="#5E63B6"/>
    <path d="M183.075 84h9.526c.935 0 1.692.758 1.692 1.691v20.129c0 .935-.757 1.692-1.692 1.692h-9.526a4.075 4.075 0 0 1-4.075-4.075V88.075A4.075 4.075 0 0 1 183.075 84z" stroke="#5E63B6" stroke-width="2" fill="#5E63B6"/>
    <path d="M161.048 159.88a47.39 47.39 0 0 1 1.633-.184 64.77 64.77 0 0 1 1.978-.161c.69-.046 1.38-.084 2.07-.115.69-.03 1.357-.046 2.001-.046 1.687 0 3.289.169 4.807.506 1.518.337 2.852.92 4.002 1.748s2.062 1.924 2.737 3.289c.675 1.365 1.012 3.074 1.012 5.129 0 2.147-.36 3.933-1.081 5.359-.72 1.426-1.671 2.568-2.852 3.427-1.18.859-2.522 1.464-4.025 1.817a20.065 20.065 0 0 1-4.6.529c-.583 0-1.096-.008-1.541-.023a17.677 17.677 0 0 1-1.449-.115V193c-.736.092-1.518.138-2.346.138-.368 0-.759-.008-1.173-.023a9.214 9.214 0 0 1-1.173-.115v-33.12zm4.692 17.066c.49.061.92.107 1.288.138.368.03.905.046 1.61.046.95 0 1.894-.1 2.829-.299.935-.2 1.771-.56 2.507-1.081.736-.521 1.326-1.234 1.771-2.139.445-.905.667-2.078.667-3.519 0-1.257-.192-2.315-.575-3.174-.383-.859-.912-1.549-1.587-2.07-.675-.521-1.487-.89-2.438-1.104a13.98 13.98 0 0 0-3.082-.322 28.43 28.43 0 0 0-2.99.138v13.386zm21.344-17.02c.368-.061.751-.107 1.15-.138a15.588 15.588 0 0 1 2.392 0c.399.03.782.077 1.15.138v13.616h14.076v-13.616c.337-.061.705-.107 1.104-.138a15.588 15.588 0 0 1 2.415 0c.414.03.805.077 1.173.138V193c-.337.061-.705.107-1.104.138a16.202 16.202 0 0 1-2.461 0c-.414-.03-.79-.077-1.127-.138v-15.318h-14.076V193c-.368.061-.744.107-1.127.138a16.501 16.501 0 0 1-2.438 0c-.414-.03-.79-.077-1.127-.138v-33.074zm31.556-.046a47.39 47.39 0 0 1 1.633-.184 64.77 64.77 0 0 1 1.978-.161c.69-.046 1.38-.084 2.07-.115.69-.03 1.357-.046 2.001-.046 1.687 0 3.289.169 4.807.506 1.518.337 2.852.92 4.002 1.748s2.062 1.924 2.737 3.289c.675 1.365 1.012 3.074 1.012 5.129 0 2.147-.36 3.933-1.081 5.359-.72 1.426-1.671 2.568-2.852 3.427-1.18.859-2.522 1.464-4.025 1.817a20.065 20.065 0 0 1-4.6.529c-.583 0-1.096-.008-1.541-.023a17.677 17.677 0 0 1-1.449-.115V193c-.736.092-1.518.138-2.346.138-.368 0-.759-.008-1.173-.023a9.214 9.214 0 0 1-1.173-.115v-33.12zm4.692 17.066c.49.061.92.107 1.288.138.368.03.905.046 1.61.046.95 0 1.894-.1 2.829-.299.935-.2 1.771-.56 2.507-1.081.736-.521 1.326-1.234 1.771-2.139.445-.905.667-2.078.667-3.519 0-1.257-.192-2.315-.575-3.174-.383-.859-.912-1.549-1.587-2.07-.675-.521-1.487-.89-2.438-1.104a13.98 13.98 0 0 0-3.082-.322 28.43 28.43 0 0 0-2.99.138v13.386z" fill="#5E63B6"/>
  </g>
</svg>
