<?xml version="1.0" encoding="utf-8"?>
<svg viewBox="3 24 249.97 206" xmlns="http://www.w3.org/2000/svg">
 <g>
  <g fill="none" fill-rule="evenodd">
   <path d="M25 228.56C25 171.365 71.365 125 128.56 125s103.56 46.365 103.56 103.56H25z" fill="#E1F2FF" fill-rule="nonzero"/>
   <g fill="#FFF" fill-rule="nonzero" stroke="#5E63B6" stroke-linecap="round" stroke-linejoin="round" stroke-width="3">
    <path d="M20 220h36M62 220h176.89M246 220h6.97M3 220h8.97M95 230h67.19M171 230h9.14M87 229l-5 .08"/>
   </g>
   <g stroke="#5E63B6" stroke-linecap="round">
    <path stroke-width="2" stroke-linejoin="round" d="M80 24v7M84 28h-7"/>
    <path d="M42.73 188.68v3.94M44.7 190.65h-3.94"/>
    <path stroke-linejoin="round" d="M217.73 128.68v3.94M219.7 130.65h-3.94"/>
    <path d="M48.73 88.68v3.94M50.7 90.65h-3.94"/>
    <path stroke-width="2" fill="#FFF" fill-rule="nonzero" d="M26.42 127.28v8.12M30.48 131.34h-8.13"/>
    <path stroke-width="2" stroke-linejoin="round" d="M216.98 68.4v7M220.48 71.9h-7"/>
   </g>
   <path d="M144.587 218.608l5.359-.067a4.489 4.489 0 004.145-2.896c1.84-4.917 1.31-9.407 1.488-13.256.33-7.13-.828-10.767-1.965-16.711l-8.04.286s.72 2.953 1.287 11.828c.176 2.746-4.23 13.84-3.948 19.252a1.651 1.651 0 001.674 1.564" fill="#9452BA"/>
   <path d="M146.861 186.995c.266 1.62.703 4.92 1.075 10.729.08 1.27-.539 3.565-1.556 7.202-1.135 4.054-2.546 9.1-2.392 12.063.016.31.307.53.586.544l5.358-.068c1.399-.018 2.666-.9 3.15-2.197 1.348-3.6 1.361-6.913 1.373-10.116.004-.971.007-1.91.05-2.812.263-5.683-.437-9.07-1.324-13.36-.146-.705-.296-1.432-.448-2.194l-5.872.209zm-2.297 32.689a2.721 2.721 0 01-2.726-2.585c-.172-3.313 1.231-8.328 2.469-12.751.758-2.713 1.543-5.516 1.48-6.488-.555-8.68-1.252-11.612-1.26-11.64l-.313-1.284 10.284-.366.173.906c.208 1.089.418 2.1.618 3.069.88 4.26 1.641 7.94 1.366 13.892-.041.876-.044 1.785-.048 2.724-.011 3.232-.025 6.9-1.508 10.86-.795 2.123-2.86 3.567-5.14 3.595l-5.359.068h-.036z" fill="#52267D"/>
   <path d="M128.67 193.35l-6.562-7.25-3.993.209s-.483 6.106-.68 8.663c-.349 4.506-2.105 13.35-3.203 17.234-.357 1.265-.56 2.445-.606 3.512-.078 1.797 1.438 3.26 3.239 3.238l4.746-.06c2.765-.034 5.199-1.908 5.845-4.596 2.01-8.365 1.213-20.95 1.213-20.95" fill="#9452BA"/>
   <path d="M119.114 187.334c-.143 1.813-.458 5.785-.606 7.72-.343 4.434-2.067 13.298-3.24 17.444-.333 1.177-.523 2.277-.567 3.266-.023.541.177 1.06.567 1.46.405.418.971.656 1.556.656h.027l4.747-.059c2.306-.029 4.285-1.58 4.811-3.771 1.761-7.323 1.317-18.132 1.207-20.261l-5.963-6.588-2.54.133zm-2.29 32.696a4.34 4.34 0 01-3.103-1.31 4.092 4.092 0 01-1.17-3.05c.05-1.156.267-2.418.646-3.756 1.121-3.97 2.837-12.781 3.164-17.026.198-2.556.681-8.664.681-8.664l.076-.94 5.445-.285 7.156 7.908.024.374c.033.522.785 12.845-1.24 21.271-.757 3.15-3.586 5.38-6.878 5.42l-4.746.058h-.055z" fill="#52267D"/>
   <path d="M118.986 199.467l.32.28-.033-.538-.287.258zm.448.393l.233.206 1.235-.493-.126-.267-.855.216.02.308-.507.03zm.125.827l-1.383-1.216 1.28-1.15.36.398-.42.379 1.679-.42.56 1.182-2.076.827z" fill="#52267D"/>
   <path d="M119.267 166.164c4.713-.156 9.088-3.455 18.7-4.018.13-.63.292-1.2.502-1.667 1.693-3.789 4.012-14.672 2.345-21.78l-1.319-5.625a26.157 26.157 0 01-.687-5.628 11.498 11.498 0 01.325-2.863 11.295 11.295 0 011.258-3.09 11.591 11.591 0 013.805-3.9 11.41 11.41 0 015.914-1.73l1.877-.024a11.41 11.41 0 018.136 3.25 11.43 11.43 0 011.902 2.436 10.977 10.977 0 011.156 2.756 11.4 11.4 0 01.396 2.854c.011.786-.3 1.503-.81 2.026a2.85 2.85 0 01-2.007.862l-11.719.146 1.902 10.143c2.212 10.415 1.674 17.406.12 22.081-.346 1.043-2.347 4.746-2.347 4.746 5.976 9.168 15.013 13.094 24.636 14.146 8.182.894 25.722-6.771 16.522-15.27-9.2-8.497 1.854-3.28 3.486-2.21 1.63 1.07 11.083 9.027 1.084 21.001-4.229 5.063-9.033 9.68-20.686 13.318-1.87.583-12.095 1.455-17.586 3.105-16.346 4.912-29.75-.038-37.359-10.766-7.578-10.686-1.406-24.238.454-24.3" fill="#9452BA"/>
   <path d="M119.459 167.233c-.515.41-1.917 2.666-2.715 6.346-.75 3.463-1.366 10.18 2.947 16.261 7.89 11.12 21.073 14.9 36.17 10.358 3.505-1.051 8.869-1.792 12.786-2.333 2.145-.296 4.172-.576 4.79-.767 11.67-3.644 16.204-8.22 20.18-12.981 3.305-3.956 4.705-7.811 4.162-11.457-.63-4.245-3.83-7.182-5.01-7.957-.86-.563-3.29-1.694-4.809-2.17.464.56 1.265 1.418 2.644 2.693 3.571 3.298 3.257 6.325 2.365 8.282-2.639 5.784-13.832 9.488-19.733 8.846-11.35-1.241-19.902-6.161-25.42-14.627l-.35-.536.304-.562c.755-1.4 2.04-3.88 2.272-4.574 1.79-5.382 1.738-12.623-.153-21.52l-2.142-11.425 12.999-.164c.475-.005.92-.196 1.249-.535.334-.341.512-.789.506-1.262a10.426 10.426 0 00-.066-1.06 10.198 10.198 0 00-1.34-4.023 10.691 10.691 0 00-1.044-1.48 10.32 10.32 0 00-.679-.726 10.308 10.308 0 00-7.372-2.945l-1.876.024a10.366 10.366 0 00-10.24 10.494c.023 1.814.245 3.63.66 5.396l1.318 5.624c1.724 7.351-.654 18.532-2.411 22.465-.16.359-.306.845-.432 1.447l-.167.806-.823.048c-5.408.317-9.177 1.543-12.207 2.528-2.29.744-4.276 1.39-6.363 1.486m24.546 36.947c-10.709 0-20-4.539-26.07-13.095-6.042-8.521-3.828-18.5-1.566-23.054 1.438-2.894 2.51-2.93 2.862-2.941 1.842-.062 3.644-.648 5.925-1.389 2.997-.973 6.694-2.176 11.948-2.576.115-.41.24-.77.382-1.085 1.609-3.6 3.872-14.308 2.28-21.095l-1.318-5.625a27.264 27.264 0 01-.717-5.86 12.673 12.673 0 01.357-3.135 12.344 12.344 0 011.376-3.378 12.613 12.613 0 014.16-4.265 12.532 12.532 0 016.473-1.894l1.876-.024c3.358-.072 6.508 1.223 8.9 3.555.288.278.561.572.82.878a12.655 12.655 0 011.914 3.065 12.397 12.397 0 01.965 3.581c.049.419.075.846.081 1.277a3.892 3.892 0 01-1.116 2.792 3.905 3.905 0 01-2.762 1.185l-10.44.131 1.664 8.885c1.967 9.251 1.998 16.87.085 22.62-.29.876-1.52 3.228-2.114 4.346 5.16 7.577 13.062 11.996 23.5 13.136 5.608.63 15.49-3.102 17.54-7.598.883-1.936.271-3.837-1.866-5.811-3.642-3.364-4.565-4.89-3.661-6.046 1.575-2.01 8.4 2.102 8.467 2.146 1.746 1.145 5.24 4.59 5.96 9.438.635 4.278-.926 8.703-4.641 13.15-4.023 4.819-8.974 9.842-21.19 13.656-.788.246-2.614.498-5.138.846-3.847.531-9.115 1.258-12.46 2.263-4.292 1.29-8.482 1.92-12.476 1.92" fill="#52267D"/>
   <path d="M129.252 150.475c.223-12.114-9.513-21.51-20.469-23.383-2.273-.39-3.02-1.092-5.503-1.061l-1.9.024c-6.406.081-11.532 5.335-11.451 11.735a2.89 2.89 0 002.927 2.852s19.498-.25 19.59-.26c0 0 1.587-.019 1.588-.018-.002.003-1.59.023-1.593.025 4.335 1.775 7.088 7.248 7.597 10.201.728 4.206.278 7.688-1.124 10.517-.937 1.884-1.016 4.142-.846 5.967l.113.036c.08.976.252 2.085.558 3.348 1.82-1.301 4.653-3.26 5.17-3.542 1.119-.608 3.645-1.993 4.775-2.66 7.222-4.259.44-6.892.568-13.781" fill="#9452BA"/>
   <path d="M119.09 166.27l.014.003.15.75c.041.516.11 1.054.205 1.608 1.563-1.097 3.452-2.397 3.937-2.66 1.254-.682 3.665-2.007 4.741-2.64 3.665-2.161 3.123-3.32 1.815-6.122-.815-1.743-1.829-3.914-1.777-6.754.227-12.273-9.915-20.651-19.573-22.303-.93-.16-1.627-.369-2.241-.553-.947-.285-1.702-.506-3.068-.492l-1.9.023c-5.802.074-10.462 4.85-10.389 10.646.007.484.202.938.548 1.276.348.339.812.564 1.29.515 6.603-.085 19.191-.25 19.562-.26l.465-.013.009.007.35-.003c.204-.003.361-.021.52-.005l.248-.003.001.006c.457.015.57.08.799.308l.76.76-.38.382c3.33 2.538 5.454 6.938 5.923 9.662.741 4.286.33 8.046-1.221 11.177-.736 1.481-.855 3.263-.788 4.685zm-1.02 5.99l-.376-1.547a23.891 23.891 0 01-.514-2.807l-.118-.04-.065-.693c-.242-2.583.08-4.784.952-6.544 1.344-2.712 1.692-6.028 1.029-9.856-.417-2.42-2.824-7.575-6.766-9.312-.947.016-4.626.068-19.343.257-1.064-.014-2.06-.387-2.82-1.126a3.94 3.94 0 01-1.197-2.789c-.088-6.983 5.525-12.736 12.513-12.824l1.902-.023c1.714-.023 2.68.272 3.712.583.584.175 1.186.356 1.987.493 10.541 1.803 21.611 10.99 21.361 24.463-.043 2.342.816 4.181 1.575 5.804 1.316 2.818 2.676 5.73-2.671 8.884-1.102.65-3.54 1.988-4.808 2.678-.41.223-3.01 2.007-5.057 3.472l-1.295.926z" fill="#52267D"/>
   <path d="M123.218 164.543c-.118-1.868-.418-2.825-.217-3.589 1.152-4.395 1.529-5.782 1.47-10.419-.059-4.61-2.787-9.13-6.761-11.503-.219-.13-3.06-.295-5.27 1.357 4.337 1.775 7.089 7.248 7.599 10.201.727 4.206.277 7.688-1.126 10.517-.935 1.884-1.015 4.142-.845 5.967 0 0 5.316 1.918 5.15-2.53" fill="#F3E3FF"/>
   <path d="M118.575 166.67c.864.247 2.505.525 3.397-.128.504-.369.743-1.032.708-1.971a28.258 28.258 0 00-.173-1.74c-.102-.837-.177-1.44-.027-2.011l.033-.127c1.135-4.326 1.477-5.632 1.42-10.152-.055-4.387-2.606-8.723-6.5-11.047-.156-.031-2.076-.131-3.884.83 3.958 2.159 6.507 7.2 7.021 10.175.72 4.172.325 7.821-1.174 10.846-.852 1.718-.931 3.783-.821 5.325m1.834 1.35c-1.279 0-2.447-.413-2.524-.44l-.32-.117-.033-.34c-.158-1.707-.132-4.177.899-6.256 1.396-2.816 1.76-6.242 1.077-10.185-.53-3.077-3.352-8.19-7.27-9.795l-.88-.36.76-.568c2.311-1.729 5.387-1.676 5.867-1.389 4.207 2.511 6.964 7.205 7.024 11.958.058 4.666-.323 6.12-1.456 10.438l-.032.126c-.097.372-.037.863.054 1.607.061.496.134 1.086.18 1.81v.014c.05 1.323-.336 2.295-1.149 2.888-.634.463-1.435.609-2.197.609" fill="#52267D"/>
   <path d="M95.319 128.101s-.03-2.024 1.973-2.853c.61-.254 1.726-.724 1.726-.724s1.23 2.519-.12 3.174c-1.942.944-3.58.403-3.58.403" fill="#FFF"/>
   <path d="M95.906 127.675c.56.075 1.602.102 2.758-.46a.503.503 0 00.27-.316c.157-.45-.026-1.168-.207-1.669l-1.229.514c-1.129.468-1.48 1.39-1.592 1.93m.612 1.12c-.802 0-1.328-.169-1.368-.183l-.364-.119-.005-.384c-.001-.097-.009-2.398 2.305-3.357.61-.252 1.722-.723 1.722-.723l.47-.197.223.457c.088.182.852 1.802.452 2.962-.145.42-.428.742-.82.932-.99.481-1.91.611-2.615.611" fill="#52267D"/>
   <path d="M100.338 126.614s.023-2.757 3.122-3.2c.578-.081 2.09-.064 2.09-.064s.733 2.91-.9 3.21c-2.008.37-4.312.054-4.312.054" fill="#FFF"/>
   <path d="M100.947 126.137c.78.067 2.274.14 3.606-.106a.562.562 0 00.405-.268c.288-.45.234-1.315.148-1.877-.517.001-1.242.015-1.57.061-1.866.266-2.423 1.493-2.59 2.19m1.486 1.142c-1.186 0-2.106-.124-2.167-.133l-.469-.064.005-.473c.008-1.114.77-3.326 3.585-3.726.6-.085 2.008-.072 2.17-.071l.415.004.1.402c.053.207.488 2.043-.208 3.126-.257.4-.643.659-1.115.745-.78.144-1.597.19-2.316.19" fill="#52267D"/>
   <path d="M106.515 126.8s.37-3.063 3.13-2.256c1.179.344 1.842 1.228 1.842 1.228s-.518 2.336-1.614 2.087c-1.916-.433-3.358-1.058-3.358-1.058" fill="#FFF"/>
   <path d="M107.137 126.471a21.9 21.9 0 002.854.865c.037.005.08.012.156-.036.306-.192.594-.855.747-1.386a3.336 3.336 0 00-1.4-.854c-.633-.184-1.129-.147-1.525.113-.479.316-.72.906-.832 1.298m2.896 1.945a1.24 1.24 0 01-.279-.033c-1.943-.439-3.393-1.062-3.453-1.088l-.368-.16.048-.398c.009-.068.215-1.682 1.396-2.46.666-.44 1.479-.525 2.42-.248a4.37 4.37 0 012.12 1.42l.149.197-.054.242c-.04.179-.413 1.767-1.288 2.32-.216.138-.45.208-.69.208" fill="#52267D"/>
   <path d="M114.685 141.547s6.365-3.563 5.072-9.406c.86.69 3.161 2.797 4 3.88.014 1.147.282 5.7-5.972 8.828-1.122-1.132-2.072-2.552-3.1-3.302" fill="#FFF"/>
   <path d="M115.587 141.604c.458.434.898.954 1.357 1.495.308.365.624.738.951 1.089 5.317-2.818 5.349-6.611 5.327-7.975-.604-.733-1.798-1.887-2.759-2.752.128 4.222-3.396 7.117-4.876 8.143zm2.089 3.901l-.274-.277c-.453-.459-.873-.955-1.28-1.435-.606-.716-1.18-1.393-1.754-1.812l-.675-.493.728-.41c.062-.034 6-3.443 4.81-8.82l-.33-1.494 1.193.958c.919.737 3.227 2.858 4.088 3.97l.111.142.002.18c.072 4.1-2.038 7.2-6.27 9.317l-.35.174z" fill="#52267D"/>
   <path d="M96.184 127.533s-.015-1.048 1.021-1.477c.317-.13.893-.375.893-.375s.638 1.303-.06 1.643c-1.007.49-1.854.209-1.854.209M101.656 125.974s.012-1.407 1.592-1.632c.295-.042 1.065-.032 1.065-.032s.374 1.483-.46 1.636c-1.023.189-2.197.028-2.197.028M107.5 126.568s.198-1.625 1.661-1.197c.627.183.977.65.977.65s-.274 1.24-.856 1.108c-1.016-.229-1.781-.561-1.781-.561M106.003 138.537l-5.86.073a5.344 5.344 0 015.277-5.408l.516-.006a2.671 2.671 0 11.067 5.34" fill="#F3E3FF"/>
   <path d="M105.508 138.443l-5.266.066a4.199 4.199 0 014.147-4.25l1.066-.011a2.098 2.098 0 11.053 4.195" fill="#FFF"/>
   <path d="M105.483 134.785h-.022l-1.066.013a3.637 3.637 0 00-2.574 1.103 3.623 3.623 0 00-1.008 2.062l4.69-.058a1.561 1.561 0 00-.02-3.12zm-5.77 4.267l-.008-.536a4.7 4.7 0 011.345-3.365 4.701 4.701 0 013.333-1.429l1.066-.012h.034a2.638 2.638 0 012.635 2.601 2.639 2.639 0 01-2.604 2.67l-5.802.071z" fill="#52267D"/>
   <path d="M101.169 136.275a1.172 1.172 0 102.343-.029 1.172 1.172 0 00-2.343.03M92.577 139.765a1.47 1.47 0 00.836-.533l.388-.499-.874.199-.514.116a.368.368 0 00.164.717" fill="#52267D"/>
   <path d="M115.769 141.648s4.904-2.717 4.76-8.068c2.141 1.518 2.729 2.51 2.729 2.51s-.337 2.551-1.509 3.852c-1.798 1.997-3.69 2.627-5.98 1.706" fill="#EAF3FB"/>
   <path d="M120.43 140.65s-1.92 2.003-3.808 2.978" fill="#FFF"/>
   <path d="M116.869 144.105l-.494-.956c1.788-.922 3.65-2.851 3.667-2.87l.778.744c-.081.085-2.006 2.079-3.951 3.082" fill="#52267D"/>
   <path d="M140.053 161.214l-1.127-2.155c-4.234-10.038-4.943-15.954-2.932-25.608l1.176-5.657c.387-1.857.57-3.75.545-5.644-.079-6.318-5.268-11.375-11.59-11.295l-1.847.023c-6.236.08-11.227 5.192-11.149 11.423l.005.325a2.685 2.685 0 002.72 2.65l11.7-.147-1.646 10.188c-5.087 27.308-4.404 38.344 6.254 35.94" fill="#9452BA"/>
   <path d="M129.542 172.657c-1.963 0-3.539-.59-4.773-1.777-4.016-3.864-3.994-13.89.081-35.76l1.438-8.9-10.42.131c-.994-.007-1.954-.366-2.675-1.067a3.733 3.733 0 01-1.135-2.645l-.004-.324a12.272 12.272 0 013.511-8.784 12.293 12.293 0 018.699-3.728l1.847-.024c3.336-.08 6.504 1.219 8.9 3.555a12.426 12.426 0 013.78 8.801 27.298 27.298 0 01-.567 5.877l-1.176 5.657c-1.966 9.435-1.322 15.037 2.87 24.972l1.088 2.075-1.906.996-1.128-2.155c-4.377-10.37-5.078-16.5-3.032-26.326l1.176-5.656c.37-1.778.546-3.6.523-5.412a10.3 10.3 0 00-3.128-7.29c-1.985-1.932-4.607-3.004-7.372-2.943l-1.848.024c-5.632.07-10.156 4.707-10.085 10.334l.004.325c.006.429.178.831.486 1.131.307.3.749.449 1.145.456l12.98-.162-1.85 11.45c-2.698 14.49-4.89 29.819-.709 33.842 1.222 1.177 3.073 1.464 5.663.879l.473 2.098c-1.032.233-1.983.35-2.856.35" fill="#52267D"/>
   <path d="M118.646 112.302s.163-1.985 2.125-2.797c.598-.249 1.543-.004 1.543-.004s1.161 1.764-.162 2.407c-1.903.924-3.506.394-3.506.394" fill="#FFF"/>
   <path d="M119.282 111.885c.553.069 1.53.076 2.635-.461.22-.106.28-.233.306-.33.094-.337-.102-.827-.255-1.116-.314-.055-.743-.082-.99.024-1.099.454-1.53 1.338-1.696 1.883m.54 1.106c-.787 0-1.306-.166-1.345-.179l-.401-.133.034-.42c.008-.095.215-2.324 2.454-3.25.745-.312 1.77-.059 1.884-.029l.201.053.115.173c.08.12.765 1.201.498 2.171-.123.446-.424.796-.874 1.015a5.86 5.86 0 01-2.566.599" fill="#52267D"/>
   <path d="M123.331 111.59s.025-3.124 3.536-3.623c.655-.094 1.498-.04 1.498-.04s1.7 3.26-.15 3.6c-2.274.42-4.884.063-4.884.063" fill="#FFF"/>
   <path d="M123.928 111.113c.857.077 2.62.175 4.189-.114.228-.043.303-.138.346-.226.23-.47-.09-1.554-.44-2.322a6.702 6.702 0 00-1.08.048c-2.252.32-2.854 1.826-3.015 2.614m1.77 1.157c-1.336 0-2.371-.138-2.439-.148l-.47-.064.004-.473c.01-1.24.859-3.705 3.998-4.151.703-.099 1.572-.045 1.607-.044l.304.02.14.27c.123.235 1.186 2.343.588 3.565-.148.304-.462.692-1.118.812-.882.162-1.804.213-2.614.213" fill="#52267D"/>
   <path d="M129.63 112.221s.439-2.99 3.122-2.133a3.754 3.754 0 011.775 1.25s-.568 2.274-1.635 2.004c-1.864-.472-3.262-1.12-3.262-1.12" fill="#FFF"/>
   <path d="M130.261 111.907c.535.22 1.551.606 2.763.914.038.009.078.012.145-.03.298-.178.599-.82.761-1.326a3.245 3.245 0 00-1.342-.865c-.609-.194-1.094-.17-1.487.073-.47.293-.719.853-.84 1.234m2.805 1.994c-.101 0-.204-.012-.307-.039a20.896 20.896 0 01-3.355-1.154l-.365-.167.058-.397c.01-.068.254-1.648 1.435-2.384.665-.415 1.466-.477 2.384-.185a4.307 4.307 0 012.048 1.45l.145.201-.06.241c-.072.284-.469 1.734-1.327 2.248-.207.124-.43.186-.656.186" fill="#52267D"/>
   <path d="M119.509 165.8a5.31 5.31 0 011.911-.951" fill="#F3E3FF"/>
   <path d="M119.837 166.226l-.655-.853a5.857 5.857 0 012.108-1.045l.262 1.042a4.77 4.77 0 00-1.715.856" fill="#52267D"/>
   <path d="M123.383 165.69c-2.01-7.742 1.254-22.635 1.841-26.297l2.328-14.674 1.101-.013c1.396-.018 2.47 1.483 2.29 2.87l-1.662 12.721c-.56 4.309-.95 24.227 6.58 28.411 1.606.893 4.191.261 5.163-.217 3.532-1.741 4.498-6.183 5.232-9.762 1.519-7.407.19-13.191-.24-18.977l-.465-7.241c-.084-1.308.94-2.711 2.25-2.728l1.337-.016 2.59 14.612c.777 4.16 2.82 18.596-5.62 25.48-.152.126 2.081.596 1.45 1.743-2.507 4.562-9.929 5.372-11.303 7.33-5.295 7.534-.048 23.383-.048 23.383s-6.01-2.31-9.756-5.581c-8.756-7.647-9.997-18.867-10.078-22.173-.097-3.956.911-6.423 2.173-7.904" fill="#F3E3FF"/>
   <path d="M137.075 203.224l-1.061-.407c-.25-.096-6.143-2.383-9.917-5.678-9.444-8.247-10.206-20.243-10.262-22.565-.088-3.589.686-6.37 2.301-8.265l.82.697c-1.418 1.665-2.126 4.273-2.045 7.541.034 1.374.597 13.662 9.894 21.782 2.708 2.363 6.684 4.241 8.552 5.051-1.096-3.783-4.17-16.172.458-22.758.62-.884 2.066-1.474 3.897-2.222 2.64-1.079 5.925-2.42 7.374-5.057.061-.112.046-.159.04-.177-.084-.25-.71-.53-.945-.633-.305-.136-.569-.253-.613-.586l-.04-.298.238-.205c8.124-6.627 6.213-20.786 5.434-24.967l-2.512-14.167-.88.011c-.4.006-.8.2-1.124.549-.403.434-.631 1.05-.596 1.607l.466 7.24c.097 1.314.242 2.633.39 3.972.505 4.598 1.027 9.354-.16 15.149-.714 3.48-1.691 8.246-5.522 10.135-1.003.492-3.819 1.231-5.664.204-8.077-4.487-7.324-25.306-6.85-28.95l1.662-12.721c.075-.575-.132-1.22-.543-1.681-.335-.375-.756-.582-1.19-.582h-.016l-.649.009-2.256 14.225c-.08.497-.21 1.201-.366 2.065-.957 5.215-3.194 17.431-1.485 24.012l-1.043.271c-1.768-6.812.418-18.743 1.468-24.478.157-.853.284-1.548.362-2.04l2.4-15.12 1.555-.02h.031c.745 0 1.451.335 1.993.943.62.699.922 1.645.807 2.535l-1.662 12.721c-.653 5.011-.741 23.957 6.305 27.871 1.375.765 3.755.219 4.665-.228 3.358-1.656 4.274-6.125 4.943-9.389 1.153-5.628.641-10.298.145-14.815-.149-1.351-.295-2.681-.394-4.013l-.466-7.246c-.055-.854.274-1.753.88-2.407.527-.567 1.202-.884 1.902-.893l1.792-.023 2.67 15.061c.787 4.22 2.677 18.287-5.206 25.47.437.226.92.557 1.094 1.07.078.233.121.603-.117 1.038-1.632 2.969-5.113 4.39-7.91 5.533-1.535.627-2.984 1.22-3.424 1.844-5.08 7.232-.029 22.752.023 22.907l.357 1.078z" fill="#52267D"/>
   <path d="M193.75 171.285s1.212-1.377.499-3.196c-.219-.555-.985-1.026-.985-1.026s-1.913.359-1.495 1.645c.604 1.853 1.98 2.577 1.98 2.577" fill="#FFF"/>
   <path d="M193.159 167.644c-.3.09-.714.273-.859.519-.043.073-.083.18-.018.379a4.293 4.293 0 001.324 1.99c.247-.46.521-1.277.141-2.246-.086-.22-.37-.478-.588-.642zm.714 4.314l-.374-.198c-.064-.033-1.578-.848-2.242-2.885-.145-.448-.105-.885.119-1.26.482-.815 1.657-1.057 1.788-1.08l.205-.039.176.109c.095.058.928.585 1.204 1.287.825 2.101-.537 3.681-.596 3.748l-.28.318z" fill="#52267D"/>
   <path d="M193.318 169.399s.427-.483.176-1.122c-.077-.195-.346-.36-.346-.36s-.67.127-.524.577c.212.65.694.905.694.905" fill="#F3E3FF"/>
   <path d="M183.8 181.164s-1.202-2.65 1.567-4.444c.516-.335 1.25-.62 1.25-.62s2.712 2.09 1.283 3.102c-1.756 1.242-4.1 1.962-4.1 1.962" fill="#FFF"/>
   <path d="M186.526 176.721a6.588 6.588 0 00-.866.45c-1.724 1.118-1.68 2.574-1.517 3.307.766-.277 2.26-.875 3.445-1.716.164-.115.188-.21.19-.296.01-.466-.675-1.244-1.252-1.745zm-3.02 5.096l-.196-.43c-.483-1.063-.734-3.499 1.763-5.119.557-.36 1.316-.656 1.349-.669l.283-.11.24.186c.323.25 1.935 1.555 1.909 2.813-.008.323-.124.785-.644 1.153-1.804 1.277-4.153 2.006-4.253 2.036l-.452.14z" fill="#52267D"/>
   <path d="M184.76 180.15s-.667-1.47.869-2.465c.286-.186.692-.343.692-.343s1.506 1.158.712 1.719c-.974.69-2.274 1.088-2.274 1.088" fill="#F3E3FF"/>
   <path d="M192.21 172.333s2.046 1.75.126 3.362c-.82.69-1.784.742-1.784.742s-1.446-1.506-.735-2.181a18.332 18.332 0 012.394-1.923" fill="#FFF"/>
   <path d="M192.137 173.037c-.426.305-1.173.872-1.949 1.609-.031.352.283.862.575 1.217.287-.06.787-.21 1.227-.58.422-.353.627-.716.63-1.107.001-.452-.264-.873-.483-1.14zm-1.802 3.951l-.17-.178c-.186-.192-1.103-1.195-1.082-2.106.007-.33.133-.619.364-.838a18.706 18.706 0 012.472-1.984l.337-.218.305.26c.046.04 1.14.992 1.134 2.256-.003.716-.344 1.365-1.013 1.926a3.891 3.891 0 01-2.1.868l-.247.014z" fill="#52267D"/>
   <path d="M191.932 173.595s.906.776.055 1.49c-.364.304-.79.328-.79.328s-.64-.667-.325-.966c.549-.522 1.06-.852 1.06-.852" fill="#F3E3FF"/>
   <path d="M174.109 182.686s-.696-2.362 1.903-3.337c2.599-.974 3.31-.2 3.31-.2s1.474 2.412.194 3.21c-1.281.798-5.407.327-5.407.327" fill="#FFF"/>
   <path d="M174.565 182.192c1.56.144 3.917.177 4.666-.29.647-.403-.025-1.867-.317-2.385-.168-.087-.888-.348-2.713.336-1.579.591-1.69 1.758-1.636 2.339m2.024 1.172c-1.218 0-2.319-.12-2.54-.144l-.356-.04-.1-.342c-.29-.983-.198-3.083 2.229-3.99 2.8-1.053 3.737-.237 3.896-.062.713 1.147 1.45 3.176.083 4.029-.696.433-2.01.55-3.212.55" fill="#52267D"/>
   <path d="M175.327 182.132s-.362-1.23.99-1.735c1.352-.506 1.722-.104 1.722-.104s.766 1.254.1 1.67c-.666.414-2.812.169-2.812.169" fill="#F3E3FF"/>
   <path d="M127.028 128.296s4.197 2.304 10.03.105c-.38 1.82-1.153 5.481-1.153 5.481s-5.407 1.732-9.627-.848c.399-2.416.75-4.738.75-4.738" fill="#FFF"/>
   <path d="M126.869 132.756c3.359 1.85 7.455.986 8.577.697.16-.76.576-2.726.892-4.236-4.247 1.321-7.522.397-8.886-.14-.123.804-.34 2.202-.583 3.679m4.954 2.24c-1.799 0-3.915-.335-5.827-1.502l-.309-.19.06-.357c.398-2.41.749-4.73.749-4.73l.115-.759.674.367c.041.022 4.075 2.15 9.583.072l.917-.345-.2.958c-.38 1.822-1.153 5.484-1.153 5.484l-.065.306-.298.095c-.129.04-1.922.6-4.246.6" fill="#52267D"/>
   <path d="M158.08 117.322s-.215-1.995-2.21-2.764c-.61-.234-2.248-.28-2.248-.28s-.433 2.123.916 2.736c1.94.883 3.542.308 3.542.308" fill="#FFF"/>
   <path d="M154.102 114.838c-.026.54.036 1.404.658 1.686a4.737 4.737 0 002.674.398c-.18-.546-.636-1.43-1.758-1.862-.29-.11-.992-.185-1.574-.222m2.668 3.205c-.676 0-1.532-.12-2.455-.54-1.718-.781-1.241-3.228-1.22-3.331l.09-.444.452.012c.177.006 1.749.056 2.425.315 2.278.878 2.542 3.115 2.552 3.21l.045.42-.398.143c-.042.015-.618.215-1.491.215" fill="#52267D"/>
   <path d="M153.028 116.366s-.092-2.721-3.161-3.08c-.573-.067-1.305-.002-1.305-.002s-1.41 2.88.21 3.135c1.99.315 4.256-.053 4.256-.053" fill="#FFF"/>
   <path d="M148.92 113.8c-.272.654-.514 1.563-.32 1.936.022.041.064.121.256.151 1.32.21 2.785.102 3.55.017-.183-.684-.764-1.869-2.601-2.083a5.668 5.668 0 00-.886-.02m1.652 3.284c-.601 0-1.254-.035-1.883-.134-.602-.096-.9-.444-1.044-.72-.55-1.06.266-2.838.435-3.183l.133-.272.303-.028c.029-.002.792-.068 1.415.003 2.79.327 3.599 2.495 3.635 3.596l.016.474-.468.075c-.065.012-1.18.19-2.542.19" fill="#52267D"/>
   <path d="M147.226 116.635s-.517-3.001-3.2-2.069c-1.143.398-1.755 1.303-1.755 1.303s.628 2.276 1.698 1.977a20.668 20.668 0 003.257-1.21" fill="#FFF"/>
   <path d="M142.871 115.982c.179.513.493 1.147.802 1.322.073.042.114.035.15.025a21.237 21.237 0 002.765-.992c-.131-.38-.397-.944-.884-1.23-.403-.235-.895-.244-1.5-.033-.655.227-1.11.66-1.333.908m.905 2.43c-.216 0-.432-.058-.633-.172-.875-.494-1.312-1.943-1.39-2.229l-.066-.238.139-.205a4.34 4.34 0 012.024-1.51c.913-.315 1.723-.276 2.403.125 1.207.71 1.492 2.294 1.504 2.36l.068.396-.36.179c-.059.028-1.458.717-3.352 1.246a1.254 1.254 0 01-.337.048" fill="#52267D"/>
   <path d="M119.672 111.788s.087-1.06 1.135-1.494c.32-.133.825-.003.825-.003s.62.942-.087 1.287c-1.016.493-1.873.21-1.873.21M124.482 111.05s.016-1.958 2.217-2.271c.41-.06.939-.025.939-.025s1.065 2.044-.095 2.257c-1.425.263-3.06.04-3.06.04M130.787 111.906s.253-1.725 1.802-1.231c.661.213 1.023.72 1.023.72s-.326 1.313-.943 1.159c-1.076-.274-1.882-.648-1.882-.648M157.086 116.824s-.113-1.054-1.168-1.461c-.322-.125-1.187-.147-1.187-.147s-.23 1.121.484 1.445c1.025.467 1.871.163 1.871.163M151.833 115.9s-.051-1.503-1.747-1.702c-.318-.037-.722-.001-.722-.001s-.78 1.591.115 1.732c1.1.174 2.354-.029 2.354-.029M146.152 116.444s-.284-1.64-1.75-1.131c-.626.217-.96.712-.96.712s.344 1.246.928 1.082c1.021-.285 1.782-.663 1.782-.663" fill="#F3E3FF"/>
   <path d="M139.548 133.298s5.172.739 10.065-.526c.512 2.66.844 4.669.844 4.669s-3.376 2.353-9.681 1.091c-.786-3.414-1.228-5.234-1.228-5.234" fill="#FFF"/>
   <path d="M141.221 138.07c4.775.87 7.749-.426 8.644-.905-.107-.627-.348-2.011-.675-3.736-3.69.843-7.37.638-8.94.49.187.787.518 2.186.971 4.151m3.171 1.374c-1.104 0-2.345-.109-3.722-.384l-.341-.07-.078-.337a474.625 474.625 0 00-1.227-5.228l-.187-.77.787.11c.05.009 5.125.71 9.855-.514l.554-.143.108.562c.514 2.669.846 4.683.846 4.683l.056.334-.278.194c-.114.08-2.302 1.563-6.373 1.563" fill="#52267D"/>
   <path d="M148.02 128.01l5.858-.073a5.343 5.343 0 00-5.41-5.274l-.515.007a2.673 2.673 0 00-2.64 2.704 2.673 2.673 0 002.707 2.637" fill="#F3E3FF"/>
   <path d="M148.66 127.902l5.117-.065a4.199 4.199 0 00-4.251-4.143l-1.215.016a1.949 1.949 0 00-1.926 1.974 2.245 2.245 0 002.275 2.218" fill="#FFF"/>
   <path d="M149.578 124.232h-.046l-1.214.016a1.41 1.41 0 00-1.396 1.43c.006.456.189.882.516 1.2.322.315.745.486 1.192.486h.015l4.547-.057a3.665 3.665 0 00-3.614-3.075zm-.948 4.207c-.73 0-1.42-.28-1.944-.79a2.765 2.765 0 01-.84-1.959 2.473 2.473 0 01.706-1.767 2.475 2.475 0 011.752-.75l1.214-.017h.06a4.742 4.742 0 014.737 4.676l.006.537-5.655.07h-.036z" fill="#52267D"/>
   <path d="M150.803 126.892a1.173 1.173 0 012.095-1.052 1.17 1.17 0 01-.522 1.574 1.171 1.171 0 01-1.573-.522" fill="#52267D"/>
   <path d="M127.678 123.202l-5.859.073a5.342 5.342 0 015.277-5.408l.515-.006a2.67 2.67 0 11.067 5.34" fill="#F3E3FF"/>
   <path d="M127.184 123.107l-5.267.067a4.2 4.2 0 014.147-4.25l1.068-.012a2.098 2.098 0 11.053 4.195" fill="#FFF"/>
   <path d="M127.157 119.449h-.02l-1.066.014a3.666 3.666 0 00-3.583 3.165l4.69-.059a1.552 1.552 0 001.097-.47c.292-.298.449-.693.444-1.108a1.564 1.564 0 00-1.562-1.542zm-5.77 4.269l-.007-.538a4.743 4.743 0 014.677-4.792l1.068-.014h.03a2.641 2.641 0 012.64 2.603 2.618 2.618 0 01-.75 1.873 2.613 2.613 0 01-1.855.794l-5.804.074z" fill="#52267D"/>
   <path d="M123.386 121.957a1.172 1.172 0 101.48-1.818 1.172 1.172 0 00-1.48 1.818M160.954 129.066a1.46 1.46 0 01-.85-.513l-.398-.488.877.176.516.105c.2.04.329.234.288.432a.366.366 0 01-.433.288M115.683 124.154c.332-.075.628-.264.836-.533l.387-.5-.873.2-.513.116a.368.368 0 10.163.717" fill="#52267D"/>
   <path d="M127.537 129.05s4.391 1.806 8.775.051c-.429 2.588-.824 3.912-.824 3.912s-2.65.188-4.408-.135c-2.513-.461-3.515-1.588-3.543-3.827" fill="#EAF3FB"/>
   <path d="M133.655 132.285s-3.969.381-7.065-1.174" fill="#FFF"/>
   <path d="M132.519 132.866c-1.457 0-3.998-.183-6.17-1.275l.482-.96c2.923 1.467 6.735 1.122 6.773 1.119l.103 1.071c-.054.005-.5.045-1.188.045" fill="#52267D"/>
   <path d="M147.734 133.778s-3.86 1.148-7.287.509c.678 2.534 1.03 3.326 1.03 3.326s5.118-.746 6.257-3.835" fill="#EAF3FB"/>
   <path d="M146.109 169.914s-.232.171-.562.377" fill="#F3E3FF"/>
   <path d="M145.689 170.518l-.284-.456c.316-.197.54-.361.544-.364l.32.433s-.24.176-.58.387" fill="#52267D"/>
   <path d="M148.126 135.237s-3.89.787-8.036.345" fill="#FFF"/>
   <path d="M142.76 136.255c-.868 0-1.789-.038-2.726-.138l.113-1.07c4.012.425 7.834-.33 7.872-.337l.214 1.054c-.126.025-2.475.491-5.473.491" fill="#52267D"/>
   <path d="M142.744 215.487s-1.046-.829-2.405.317c-1.244 1.047-2.169 2.652-1.604 2.804a5.972 5.972 0 002.597.093c.903-.177 1.705-.012 2.045-1.911.158-.884-.633-1.303-.633-1.303" fill="#FFF"/>
   <path d="M141.802 215.466c-.346 0-.79.122-1.29.543-1.099.925-1.76 2.123-1.674 2.372.254.045 1.282.284 2.442.057.124-.025.247-.043.366-.061.726-.108 1.205-.179 1.466-1.634.12-.674-.47-1.005-.495-1.019l-.039-.024a1.334 1.334 0 00-.776-.234m-1.537 3.605a6.288 6.288 0 01-1.6-.203.483.483 0 01-.353-.375c-.147-.663.859-2.058 1.853-2.895 1.39-1.173 2.537-.467 2.72-.34.337.186.907.74.756 1.579-.328 1.836-1.135 1.957-1.915 2.072-.112.016-.226.032-.344.056-.391.077-.77.106-1.117.106" fill="#52267D"/>
   <path d="M142.512 215.797s-.65-.516-1.497.197c-.773.652-1.35 1.651-.997 1.746a3.7 3.7 0 001.615.057c.562-.11 1.061-.007 1.272-1.189.1-.55-.393-.81-.393-.81" fill="#EAF3FB"/>
   <path d="M144.21 215.45c.548-.08 1.348 1.097 1.263 1.458-.085.363-.132 1.56-1.016 1.7-.65.104-2.97.375-3.484-.124-.473-.459.415-2.62 3.238-3.034" fill="#FFF"/>
   <path d="M144.25 215.715c-1.985.292-2.864 1.455-3.072 2.095-.091.288-.051.448-.018.481.332.32 2.102.237 3.256.05.517-.081.66-.697.753-1.267.015-.09.029-.17.043-.226.01-.12-.21-.574-.555-.903-.194-.183-.325-.223-.407-.23m-1.794 3.332c-.699 0-1.377-.085-1.67-.37-.22-.213-.263-.59-.119-1.032.328-1.017 1.54-2.173 3.505-2.46.373-.062.739.237.973.492.287.31.68.912.59 1.293a2.026 2.026 0 00-.033.19c-.084.507-.258 1.562-1.202 1.714-.175.027-1.128.173-2.044.173" fill="#52267D"/>
   <path d="M144.763 215.336c.545-.08 1.347 1.097 1.262 1.458-.085.363-.132 1.558-1.016 1.7-.65.102-2.97.373-3.485-.125-.472-.459.416-2.62 3.239-3.033" fill="#FFF"/>
   <path d="M144.812 215.872c-1.643.249-2.373 1.113-2.612 1.475-.236.358-.273.634-.254.704.213.127 1.684.12 2.978-.09.342-.053.453-.568.533-1.045.015-.097.03-.181.044-.245-.038-.15-.468-.728-.689-.799m-1.776 3.331c-.772 0-1.53-.102-1.885-.446-.297-.289-.365-.766-.189-1.311.33-1.016 1.502-2.317 3.723-2.643.398-.06.811.143 1.21.578.3.327.776 1.017.653 1.537-.01.044-.018.102-.03.172-.086.524-.288 1.753-1.423 1.934-.383.06-1.23.179-2.059.179" fill="#52267D"/>
   <path d="M144.92 215.662c.322-.047.794.648.744.862-.05.214-.078.918-.597 1-.386.062-1.755.222-2.057-.071-.28-.271.244-1.546 1.91-1.79" fill="#EAF3FB"/>
   <path d="M146.711 215.894s-.42-.212-1.24.271c-.725.426-1.807 1.107-1.51 1.934.298.825 2.6.488 3.112.306.51-.181.826-.744.73-1.232-.213-1.063-1.092-1.279-1.092-1.279" fill="#FFF"/>
   <path d="M146.439 216.386c-.109 0-.337.032-.695.243-.355.209-1.435.844-1.276 1.288.204.277 1.833.192 2.424-.018.27-.097.424-.408.382-.62-.137-.687-.642-.848-.7-.865l-.068-.023a.354.354 0 00-.067-.005m-1.03 2.78c-.843.001-1.703-.19-1.953-.885-.462-1.283 1.082-2.19 1.742-2.58.885-.519 1.468-.398 1.683-.319.458.13 1.237.617 1.449 1.687.151.766-.321 1.574-1.076 1.843-.188.067-1.009.254-1.845.254" fill="#52267D"/>
   <path d="M146.872 216.186s-.249-.125-.735.16c-.429.253-1.07.657-.893 1.146.175.49 1.54.288 1.842.182.301-.109.489-.441.432-.73-.125-.63-.646-.758-.646-.758M144.369 215.777c.321-.047.794.647.743.86-.048.215-.077.92-.597 1.003-.385.061-1.754.22-2.057-.073-.28-.271.245-1.546 1.91-1.79" fill="#EAF3FB"/>
   <path d="M146.526 215.651s-.474-.24-1.403.307c-.82.482-2.043 1.252-1.707 2.185.337.935 2.941.553 3.52.347.576-.206.932-.842.824-1.392-.24-1.202-1.234-1.447-1.234-1.447" fill="#FFF"/>
   <path d="M146.218 215.869c-.186 0-.507.055-.959.321-.922.542-1.832 1.188-1.59 1.862.231.64 2.5.424 3.176.185.438-.156.737-.654.65-1.087-.2-1.01-1.001-1.229-1.035-1.238l-.048-.017a.585.585 0 00-.194-.026m-1.167 3.15c-.842 0-1.67-.177-1.888-.784-.426-1.185 1.093-2.08 1.823-2.51.928-.544 1.486-.384 1.63-.327.175.05 1.156.389 1.407 1.647.137.69-.31 1.453-.998 1.698-.276.1-1.133.276-1.974.276" fill="#52267D"/>
   <path d="M146.708 215.982s-.282-.143-.83.18c-.487.287-1.21.742-1.011 1.296.199.552 1.74.327 2.083.204.341-.122.552-.497.488-.824-.141-.712-.73-.856-.73-.856" fill="#EAF3FB"/>
   <path d="M135.241 185.878s.607 6.035-.81 15.55c-1.32 8.857-3.822 11.662-3.607 13.952.167 1.772.938 3.388 2.719 3.367l5.316-.068a5.771 5.771 0 005.42-4c.62-1.9 1.256-4.483 1.613-7.742.354-4.43.211-8.87.104-11.476" fill="#9452BA"/>
   <path d="M133.506 219.822c-2.097 0-3.498-1.619-3.753-4.343-.114-1.214.334-2.417.955-4.081.807-2.166 1.914-5.132 2.658-10.128 1.377-9.25.81-15.226.804-15.285l2.141-.214c.026.25.605 6.278-.815 15.816-.778 5.217-1.977 8.434-2.771 10.561-.54 1.45-.897 2.407-.83 3.13.104 1.094.468 2.393 1.615 2.393h.018l5.318-.068a4.702 4.702 0 004.41-3.257c.742-2.277 1.269-4.809 1.567-7.527.37-4.649.173-9.492.098-11.314l2.15-.088c.12 2.918.238 7.294-.105 11.606-.318 2.895-.876 5.572-1.663 7.988a6.857 6.857 0 01-6.43 4.744l-5.317.067h-.05z" fill="#52267D"/>
   <path d="M162.55 189.533c-1.74 1.537-2.623 4.029-2.58 6.308.056 3.042 1.871 6.895.814 11.966-.94 4.517-2.916 5.337-2.267 9.371.117.728.78 1.245 1.517 1.236l5.925-.075a5.582 5.582 0 005.447-4.732c1.101-7.194.107-13.959-.915-19.146" fill="#9452BA"/>
   <path d="M160.014 219.489c-1.264 0-2.36-.914-2.56-2.14-.441-2.744.209-4.21.963-5.907.452-1.017.963-2.169 1.313-3.854.655-3.136.13-5.797-.332-8.145-.249-1.261-.484-2.454-.505-3.582-.052-2.751 1.076-5.485 2.944-7.135l1.426 1.613c-1.408 1.244-2.259 3.343-2.218 5.482.018.938.225 1.99.465 3.207.477 2.422 1.071 5.434.329 8.999-.399 1.909-.984 3.227-1.454 4.287-.69 1.553-1.145 2.58-.805 4.694.03.187.27.35.44.33l5.925-.074a4.49 4.49 0 004.399-3.82c1.081-7.07.081-13.747-.91-18.775l2.113-.416c1.024 5.199 2.055 12.116.923 19.517a6.631 6.631 0 01-6.498 5.645l-5.924.074h-.034z" fill="#52267D"/>
   <path fill="#52267D" d="M164.053 197.33l-2.034-.97 1.989-1.629.854.273-.163.512-.576-.184-1.107.908.995.475.574-.377-.378-.08-.249.183-.32-.432.442-.326 1.881.397z"/>
   <path d="M131.99 215.622s-1.047-.83-2.406.317c-1.244 1.047-2.169 2.651-1.604 2.804a5.956 5.956 0 002.597.092c.903-.176 1.705-.011 2.045-1.91.158-.884-.633-1.303-.633-1.303" fill="#FFF"/>
   <path d="M128.397 218.289a5.467 5.467 0 002.076.02c.13-.026.255-.044.378-.063.676-.1 1.016-.15 1.242-1.415.088-.492-.351-.731-.355-.734l-.079-.05c-.084-.062-.765-.508-1.728.302-.808.68-1.371 1.522-1.534 1.94m1.105 1.187a6.484 6.484 0 01-1.662-.214.753.753 0 01-.545-.576c-.194-.876 1.044-2.402 1.941-3.158 1.306-1.1 2.54-.73 3.047-.357.424.243 1.043.88.869 1.848-.336 1.875-1.17 2.147-2.143 2.29-.108.017-.217.032-.33.054a6.023 6.023 0 01-1.177.113" fill="#52267D"/>
   <path d="M131.757 215.932s-.65-.515-1.497.198c-.773.65-1.35 1.65-.996 1.745.35.096.968.184 1.615.057.562-.11 1.061-.007 1.272-1.19.099-.549-.394-.81-.394-.81" fill="#EAF3FB"/>
   <path fill="#52267D" d="M140.41 202.915l-2.523-.152-.372-2.397 2.326-.757.166.51-1.892.617.237 1.517 1.82.109.695-.823-.918-.494-.552.168.401.435-.396.365-.983-1.064 1.587-.483 1.7.913z"/>
   <g fill="#F3E3FF">
    <path d="M94.31 136.58a.713.713 0 01-.711-.701l.269-.005c0 .119.05.23.133.311a.437.437 0 00.309.126h.005a.442.442 0 00.436-.447l.27-.005a.706.706 0 01-.202.506.702.702 0 01-.5.215h-.009z"/>
    <path d="M93.156 136.595a.705.705 0 01-.71-.702l.269-.004a.442.442 0 00.441.437h.003a.44.44 0 00.44-.448l.268-.004a.706.706 0 01-.2.506.707.707 0 01-.501.215h-.01z"/>
    <path d="M93.74 137.163a.704.704 0 01-.496-.201.705.705 0 01-.215-.5l.27-.004a.438.438 0 00.441.436h.006a.442.442 0 00.437-.447l.269-.003a.712.712 0 01-.703.719h-.01zM116.256 135.315a.98.98 0 01-.507-.14l.14-.232a.712.712 0 00.98-.24.712.712 0 00-.24-.981l.139-.232a.983.983 0 01-.512 1.825"/>
    <path d="M116.544 136.481a.98.98 0 01-.507-.14l.14-.232a.712.712 0 001.064-.782.712.712 0 00-.324-.44l.138-.23a.983.983 0 01-.51 1.824M144.198 154.97a.903.903 0 01-.908-.895l.27-.004a.637.637 0 00.64.63h.004a.64.64 0 00.634-.646l.269-.003a.909.909 0 01-.897.918h-.012z"/>
    <path d="M142.652 154.99a.91.91 0 01-.909-.896l.27-.004c.004.35.29.631.64.631h.007a.631.631 0 00.449-.192.633.633 0 00.182-.454l.269-.003a.903.903 0 01-.895.918h-.013z"/>
    <path d="M143.435 155.753a.908.908 0 01-.908-.895l.27-.005c.003.35.29.63.638.63h.006a.64.64 0 00.633-.646l.269-.003a.908.908 0 01-.896.919h-.012zM121.716 204.224a.903.903 0 01-.908-.896l.269-.004a.635.635 0 00.64.631h.007a.634.634 0 00.45-.192.633.633 0 00.181-.454l.27-.003a.896.896 0 01-.259.644.901.901 0 01-.638.274h-.012z"/>
    <path d="M120.17 204.243a.91.91 0 01-.91-.895l.27-.004c.004.35.29.63.64.63h.008a.639.639 0 00.63-.646l.27-.003a.908.908 0 01-.896.918h-.012z"/>
    <path d="M120.953 205.007a.908.908 0 01-.908-.896l.269-.004a.635.635 0 00.192.45c.121.118.288.198.455.181a.631.631 0 00.448-.193.633.633 0 00.182-.453l.27-.004a.903.903 0 01-.895.918h-.013zM142.768 130.43a.987.987 0 01-.986-.972l.27-.004a.718.718 0 00.716.707h.005a.711.711 0 00.708-.724l.27-.004a.98.98 0 01-.971.997h-.012z"/>
    <path d="M141.927 131.289a.985.985 0 01-.983-.97l.269-.005a.711.711 0 00.714.706h.007a.712.712 0 00.709-.723l.269-.004a.979.979 0 01-.972.996h-.013zM132.277 145.745c-.306 0-.596-.118-.815-.333a1.15 1.15 0 01-.352-.82l.269-.001c.005.49.408.885.898.885h.011a.9.9 0 00.887-.91l.269-.002a1.17 1.17 0 01-1.153 1.18h-.014z"/>
    <path d="M131.256 146.788c-.306 0-.595-.117-.815-.332a1.153 1.153 0 01-.35-.82l.268-.002a.894.894 0 00.897.886h.012a.896.896 0 00.886-.908l.27-.004c.004.311-.115.607-.333.83a1.154 1.154 0 01-.82.35h-.015zM116.611 119.94a.826.826 0 01-.824-.815l.27-.004a.557.557 0 001.113-.013l.27-.002a.826.826 0 01-.817.834h-.012z"/>
    <path d="M115.933 120.639a.826.826 0 01-.827-.815l.27-.002a.552.552 0 00.557.548h.006a.558.558 0 00.549-.562l.269-.005a.827.827 0 01-.815.836h-.01zM182.4 188.298c-.022 0-.043 0-.066-.002a.922.922 0 01-.637-.317l.204-.177a.66.66 0 10.996-.866l.204-.177a.915.915 0 01.225.674.917.917 0 01-.318.637.92.92 0 01-.608.228"/>
    <path d="M182.321 189.419a.93.93 0 01-.703-.32l.204-.176a.661.661 0 00.996-.867l.204-.176a.931.931 0 01-.7 1.539M150.901 177.987a1.076 1.076 0 01-.966-.612l.243-.116a.8.8 0 001.444-.68l.244-.115a1.069 1.069 0 01-.965 1.523"/>
    <path d="M149.215 178.78c-.4 0-.785-.226-.967-.61l.243-.116a.79.79 0 00.452.41.797.797 0 00.991-1.09l.245-.115a1.069 1.069 0 01-.964 1.522"/>
    <path d="M150.456 179.227a1.059 1.059 0 01-.966-.612l.243-.116c.09.194.251.34.452.412.202.072.42.062.609-.03a.792.792 0 00.412-.45.784.784 0 00-.03-.61l.244-.116a1.064 1.064 0 01-.964 1.522"/>
    <path d="M148.768 180.022a1.076 1.076 0 01-.966-.612l.243-.116a.798.798 0 101.444-.68l.243-.115a1.069 1.069 0 01-.964 1.523M151.698 179.672a1.07 1.07 0 01-.967-.61l.243-.117a.798.798 0 001.444-.68l.244-.114a1.068 1.068 0 01-.964 1.521M134.107 126.948a1.077 1.077 0 01-1.076-1.06l.269-.005c.005.441.367.796.807.796h.01a.807.807 0 00.796-.815l.27-.004c.007.593-.47 1.08-1.062 1.088h-.014zM134.228 162.496a1.077 1.077 0 01-1.076-1.06l.269-.004c.005.44.367.795.807.795h.01a.808.808 0 00.796-.816l.269-.004a1.077 1.077 0 01-1.061 1.09h-.014zM144.421 142.544a.85.85 0 01-.849-.835l.27-.004a.58.58 0 00.58.57h.006a.577.577 0 00.57-.585l.27-.004a.837.837 0 01-.242.602.84.84 0 01-.595.256h-.01zM161.02 125.963a.667.667 0 01-.671-.662l.269-.002a.399.399 0 00.4.395h.005a.402.402 0 00.395-.405l.27-.003a.671.671 0 01-.661.677h-.008zM166.845 204.76c-.215 0-.425-.066-.605-.19a1.061 1.061 0 01-.449-.689l.265-.048a.809.809 0 001.457.307.799.799 0 00.127-.604l.265-.05c.052.282-.007.569-.17.805a1.059 1.059 0 01-.89.47M141.041 212.264c-.305 0-.595-.116-.813-.331a1.157 1.157 0 01-.353-.82l.269-.004a.9.9 0 00.897.886h.012a.89.89 0 00.887-.909l.269-.004a1.16 1.16 0 01-.332.83 1.162 1.162 0 01-.82.352h-.016z"/>
    <path d="M140.022 213.31a1.168 1.168 0 01-1.167-1.152l.27-.004a.899.899 0 00.897.886h.008a.903.903 0 00.637-.27.89.89 0 00.253-.638l.27-.005a1.16 1.16 0 01-.332.83 1.162 1.162 0 01-.82.352h-.016z"/>
   </g>
   <path d="M133.456 215.585c.546-.08 1.348 1.097 1.263 1.458-.085.364-.133 1.559-1.016 1.7-.65.103-2.97.374-3.485-.124-.472-.46.416-2.62 3.238-3.034" fill="#FFF"/>
   <path d="M133.506 216.122c-1.643.248-2.373 1.113-2.612 1.474-.236.358-.273.635-.254.705.213.127 1.684.12 2.978-.09.342-.053.453-.569.532-1.045.016-.098.03-.182.045-.245-.038-.15-.469-.728-.69-.8m-1.775 3.332c-.773 0-1.53-.103-1.885-.447-.297-.288-.365-.766-.189-1.31.33-1.016 1.502-2.317 3.723-2.643.398-.06.811.143 1.21.577.3.327.775 1.018.653 1.537-.01.044-.019.102-.03.172-.086.525-.288 1.753-1.423 1.935-.383.06-1.23.179-2.059.179" fill="#52267D"/>
   <path d="M133.614 215.912c.322-.048.794.647.744.861-.05.214-.078.919-.598 1.001-.385.062-1.754.222-2.056-.072-.28-.27.244-1.545 1.91-1.79" fill="#EAF3FB"/>
   <path d="M135.405 216.144s-.42-.212-1.24.27c-.725.427-1.807 1.107-1.51 1.935.298.824 2.6.488 3.111.306.512-.182.827-.744.73-1.232-.212-1.063-1.091-1.28-1.091-1.28M148.378 216.206s-.42-.212-1.24.271c-.725.426-1.806 1.107-1.51 1.934.299.825 2.6.488 3.112.306.511-.181.826-.744.73-1.232-.213-1.063-1.092-1.279-1.092-1.279" fill="#FFF"/>
   <path d="M135.133 216.635c-.109 0-.337.033-.695.243-.356.21-1.435.845-1.276 1.289.204.276 1.833.191 2.424-.018.27-.097.424-.408.382-.62-.137-.687-.643-.848-.7-.866l-.069-.022a.354.354 0 00-.066-.006m-1.03 2.78c-.843.002-1.703-.19-1.953-.885-.462-1.283 1.082-2.19 1.742-2.579.885-.519 1.468-.399 1.683-.319.457.13 1.237.616 1.449 1.686.151.766-.321 1.575-1.077 1.844-.187.066-1.008.254-1.844.254M148.106 216.698c-.109 0-.337.032-.695.243-.355.208-1.435.844-1.275 1.288.203.277 1.832.192 2.423-.018.27-.097.424-.408.382-.62-.136-.687-.642-.848-.7-.865l-.068-.023a.354.354 0 00-.067-.005m-1.03 2.78c-.843 0-1.702-.19-1.953-.885-.462-1.283 1.083-2.191 1.742-2.58.885-.519 1.468-.398 1.683-.319.458.13 1.237.616 1.449 1.687.152.765-.32 1.574-1.076 1.843-.188.067-1.009.254-1.845.254" fill="#52267D"/>
   <path d="M135.566 216.436s-.249-.125-.735.16c-.429.253-1.07.656-.894 1.145.176.49 1.54.289 1.843.182.301-.108.488-.44.431-.73-.124-.63-.645-.757-.645-.757M148.539 216.498s-.249-.125-.735.16c-.428.253-1.07.656-.893 1.146.175.489 1.54.288 1.842.181.302-.108.489-.44.432-.73-.125-.629-.646-.757-.646-.757" fill="#EAF3FB"/>
   <path d="M161.046 215.622s-1.046-.83-2.405.317c-1.244 1.047-2.168 2.651-1.603 2.804a5.956 5.956 0 002.596.092c.903-.176 1.705-.011 2.045-1.91.158-.884-.633-1.303-.633-1.303" fill="#FFF"/>
   <path d="M157.454 218.289a5.467 5.467 0 002.076.02c.13-.026.255-.044.378-.063.676-.1 1.016-.15 1.242-1.415.088-.492-.351-.731-.355-.734l-.079-.05c-.084-.062-.765-.508-1.728.302-.807.68-1.371 1.522-1.534 1.94m1.105 1.187a6.484 6.484 0 01-1.662-.214.753.753 0 01-.545-.576c-.194-.876 1.044-2.402 1.942-3.158 1.305-1.1 2.54-.73 3.046-.357.424.243 1.043.88.869 1.848-.336 1.875-1.169 2.147-2.143 2.29-.107.017-.217.032-.33.054a6.023 6.023 0 01-1.177.113" fill="#52267D"/>
   <path d="M160.814 215.932s-.65-.515-1.497.198c-.772.65-1.35 1.65-.996 1.745.35.096.968.184 1.615.057.562-.11 1.061-.007 1.272-1.19.1-.549-.394-.81-.394-.81" fill="#EAF3FB"/>
   <path d="M162.514 215.585c.545-.08 1.347 1.097 1.262 1.458-.085.364-.132 1.559-1.016 1.7-.65.103-2.97.374-3.485-.124-.472-.46.416-2.62 3.239-3.034" fill="#FFF"/>
   <path d="M162.563 216.122c-1.643.248-2.373 1.113-2.612 1.474-.236.358-.273.635-.254.705.213.127 1.684.12 2.978-.09.342-.053.453-.569.533-1.045.015-.098.03-.182.044-.245-.038-.15-.468-.728-.689-.8m-1.776 3.332c-.772 0-1.53-.103-1.885-.447-.297-.288-.365-.766-.189-1.31.33-1.016 1.502-2.317 3.723-2.643.398-.06.811.143 1.21.577.3.327.776 1.018.653 1.537-.01.044-.018.102-.03.172-.086.525-.288 1.753-1.423 1.935-.383.06-1.23.179-2.059.179" fill="#52267D"/>
   <path d="M162.671 215.912c.322-.048.794.647.744.861-.05.214-.078.919-.597 1.001-.386.062-1.755.222-2.057-.072-.28-.27.244-1.545 1.91-1.79" fill="#EAF3FB"/>
   <path d="M164.462 216.144s-.42-.212-1.24.27c-.725.427-1.807 1.107-1.51 1.935.298.824 2.6.488 3.112.306.51-.182.826-.744.73-1.232-.213-1.063-1.092-1.28-1.092-1.28" fill="#FFF"/>
   <path d="M164.19 216.635c-.109 0-.337.033-.695.243-.355.21-1.435.845-1.276 1.289.204.276 1.833.191 2.424-.018.27-.097.424-.408.382-.62-.137-.687-.642-.848-.7-.866l-.068-.022a.354.354 0 00-.067-.006m-1.03 2.78c-.843.002-1.703-.19-1.953-.885-.462-1.283 1.082-2.19 1.742-2.579.885-.519 1.468-.399 1.683-.319.458.13 1.237.616 1.449 1.686.151.766-.321 1.575-1.076 1.844-.188.066-1.009.254-1.845.254" fill="#52267D"/>
   <path d="M164.623 216.436s-.249-.125-.735.16c-.429.253-1.07.656-.893 1.145.175.49 1.54.289 1.842.182.301-.108.489-.44.432-.73-.125-.63-.646-.757-.646-.757" fill="#EAF3FB"/>
   <path d="M113.587 216.648s-.42-.212-1.241.271c-.725.426-1.807 1.107-1.51 1.934.298.825 2.6.488 3.111.306.512-.183.827-.744.73-1.232-.212-1.063-1.09-1.279-1.09-1.279" fill="#FFF"/>
   <path d="M113.314 217.14c-.11 0-.338.032-.696.243-.355.208-1.434.844-1.275 1.288.204.277 1.833.192 2.424-.018.27-.097.424-.408.382-.62-.137-.687-.642-.85-.7-.866l-.069-.022a.317.317 0 00-.066-.006m-1.03 2.78c-.843 0-1.703-.19-1.954-.885-.461-1.283 1.083-2.19 1.743-2.579.887-.521 1.469-.397 1.684-.319.456.13 1.235.616 1.447 1.686.151.764-.32 1.574-1.075 1.844-.188.066-1.01.254-1.845.254" fill="#52267D"/>
   <path d="M113.747 216.94s-.248-.126-.735.16c-.429.253-1.07.656-.894 1.146.176.488 1.54.288 1.843.18.302-.107.488-.44.432-.729-.126-.629-.646-.757-.646-.757" fill="#EAF3FB"/>
   <path d="M116.103 216.033c.547-.08 1.347 1.096 1.262 1.459-.085.362-.132 1.558-1.016 1.7-.65.102-2.97.373-3.484-.126-.473-.458.415-2.618 3.238-3.033" fill="#FFF"/>
   <path d="M116.153 216.57c-1.643.249-2.374 1.112-2.612 1.474-.235.358-.274.634-.255.704.212.126 1.686.117 2.98-.09.34-.052.451-.567.53-1.043.016-.1.031-.182.046-.246-.039-.15-.47-.729-.689-.8m-1.775 3.332c-.773 0-1.532-.102-1.888-.448-.295-.287-.364-.763-.187-1.307.328-1.017 1.499-2.319 3.722-2.646.39-.054.812.142 1.21.577.3.327.776 1.017.654 1.539-.01.044-.02.103-.031.172-.086.525-.287 1.753-1.423 1.934-.383.06-1.229.179-2.057.179" fill="#52267D"/>
   <path d="M116.26 216.36c.322-.047.795.647.744.86-.048.215-.077.919-.597 1.003-.385.061-1.754.22-2.057-.073-.28-.271.245-1.546 1.91-1.79" fill="#EAF3FB"/>
   <path d="M123.286 216.454c.17-.147.374-.19.543-.112.631.288 2.227 1.11 1.914 2.252-.243.89-.789.63-1.825.661l-.781.025a.442.442 0 01-.397-.224c-.46-.745-.232-1.93.492-2.556l.054-.046z" fill="#FFF"/>
   <path d="M123.605 216.83l.032.03-.054.047c-.523.454-.708 1.343-.385 1.868l.703-.057c.232-.006.442 0 .63.006.61.019.615.02.693-.271.2-.727-1.19-1.425-1.62-1.622zm-.484 2.987a.98.98 0 01-.84-.48c-.593-.962-.319-2.448.6-3.244l.053-.046c.328-.283.757-.358 1.116-.195 2.322 1.06 2.383 2.262 2.213 2.883-.305 1.111-1.123 1.086-1.767 1.064-.166-.005-.354-.01-.56-.005l-.782.023h-.033z" fill="#52267D"/>
   <path d="M123.37 216.708c.123-.108.271-.138.394-.082.46.21 1.619.807 1.392 1.636-.178.647-.574.458-1.326.483l-.57.016a.32.32 0 01-.287-.161c-.335-.542-.168-1.403.359-1.859l.038-.033z" fill="#EAF3FB"/>
   <path d="M119.613 216.16s-.97-.916-2.423.111c-1.327.937-2.386 2.458-1.836 2.658a5.978 5.978 0 002.578.313c.916-.1 1.702.132 2.2-1.73.233-.868-.519-1.352-.519-1.352" fill="#FFF"/>
   <path d="M115.808 218.511a5.466 5.466 0 002.067.197c.13-.014.257-.023.382-.031.681-.042 1.023-.063 1.356-1.306.12-.45-.226-.715-.297-.763l-.066-.051c-.069-.061-.712-.578-1.75.153-.862.608-1.494 1.399-1.692 1.801m1.54 1.3a6.535 6.535 0 01-2.179-.377.753.753 0 01-.495-.62c-.118-.889 1.246-2.305 2.205-2.982 1.395-.984 2.592-.512 3.067-.098.4.279.962.965.708 1.916-.494 1.84-1.348 2.04-2.33 2.1-.109.008-.22.014-.333.027a6.069 6.069 0 01-.643.034" fill="#52267D"/>
   <path d="M119.356 216.448s-.605-.569-1.508.07c-.827.583-1.484 1.53-1.143 1.655.342.124.95.266 1.605.194.57-.062 1.058.082 1.37-1.078.145-.54-.324-.84-.324-.84" fill="#EAF3FB"/>
   <g>
    <path stroke="#5563B6" stroke-width="2" fill="#FFF" fill-rule="nonzero" d="M128.35 124.66h43.7L196 96h-43.7zM128.35 124.66h-87.4L17 96h87.4z"/>
    <path d="M124.456 143.546l-58.722-13.977a2.254 2.254 0 01-1.672-2.715l20.736-87.121a2.254 2.254 0 012.716-1.671l58.72 13.975a2.255 2.255 0 011.673 2.716l-20.735 87.121a2.255 2.255 0 01-2.716 1.672" fill="#FFF"/>
    <path d="M124.456 143.546l-58.722-13.977a2.254 2.254 0 01-1.672-2.715l20.736-87.121a2.254 2.254 0 012.716-1.671l58.72 13.975a2.255 2.255 0 011.673 2.716l-20.735 87.121a2.255 2.255 0 01-2.716 1.672z" stroke="#ACD3EF" stroke-width="2"/>
    <path fill="#E1F2FF" d="M125.306 132.439L70 123.277 88.393 46l55.637 10.574z"/>
    <path d="M115.378 84.87l-12.832-2.998a8.472 8.472 0 01-6.322-10.178l.735-3.147a8.474 8.474 0 0110.18-6.323l12.831 2.999a8.473 8.473 0 016.322 10.178l-.735 3.147a8.474 8.474 0 01-10.179 6.322z" stroke="#ACD3EF" stroke-width="2"/>
    <path d="M105.83 71.703c.218.052.414.07.589.054.175-.016.328-.062.46-.138a.983.983 0 00.329-.313c.088-.134.153-.29.196-.469.04-.171.05-.332.03-.483a.937.937 0 00-.154-.41 1.098 1.098 0 00-.348-.318 1.955 1.955 0 00-.556-.214l-.888-.212-.545 2.292.887.211zm.765-3.21c.426.102.784.239 1.072.414.288.175.512.375.673.604.16.227.26.478.299.752.039.273.023.559-.047.856-.074.309-.194.58-.358.813a1.819 1.819 0 01-.622.554c-.25.137-.543.22-.877.248a3.501 3.501 0 01-1.126-.104l-.886-.211-.536 2.247-1.187-.282L104.519 68l2.076.493zM113.21 73.251c.084-.351.112-.676.085-.976a2.018 2.018 0 00-.233-.801 1.789 1.789 0 00-.531-.596 2.25 2.25 0 00-.803-.355l-1.242-.294-1.069 4.494 1.24.296c.313.074.605.088.878.044.274-.043.521-.141.742-.291.221-.152.411-.355.57-.612.159-.256.28-.558.363-.909m1.219.29a3.558 3.558 0 01-.541 1.233c-.249.355-.549.64-.899.855a3.02 3.02 0 01-1.176.415 3.715 3.715 0 01-1.38-.081L108 75.384 109.52 69l2.432.579c.486.115.908.299 1.269.551.359.252.647.553.862.9.216.349.356.738.419 1.166.062.429.038.877-.073 1.345M117.486 72.229l-.449 1.89 2.392.569-.225.95-2.394-.57-.619 2.6-1.191-.283L116.519 71l4.027.959-.225.945z" fill="#ACD3EF"/>
    <path stroke="#ACD3EF" stroke-width="2" stroke-linecap="round" stroke-linejoin="round" d="M90 94l31.283 7.445"/>
    <path d="M142.59 161.727L90.813 151.33a2.254 2.254 0 01-1.768-2.654l8.204-40.864a2.255 2.255 0 012.655-1.768l51.778 10.396a2.253 2.253 0 011.766 2.654l-8.203 40.864a2.255 2.255 0 01-2.655 1.768z" stroke="#ACD3EF" stroke-width="2" fill="#FFF"/>
    <path d="M139.516 153.314l-41.704-8.373a2.255 2.255 0 01-1.767-2.654l5.315-26.475a2.255 2.255 0 012.655-1.767l41.704 8.373a2.255 2.255 0 011.767 2.655l-5.315 26.474a2.255 2.255 0 01-2.655 1.767" stroke="#ACD3EF" stroke-width="2" fill="#E1F2FF"/>
    <path d="M101 118.353l.588-2.927a1.776 1.776 0 012.091-1.39l42.643 8.56a1.777 1.777 0 011.392 2.091l-.574 2.86-46.14-9.194zM142.721 149.45l-.56 2.805a1.775 1.775 0 01-2.09 1.391l-42.644-8.561a1.776 1.776 0 01-1.392-2.091l.602-2.994 46.084 9.45z" stroke="#ACD3EF" stroke-width="2"/>
    <path d="M128.032 133.54l-7-6.213a1.293 1.293 0 00-2.125.707l-1.88 9.17c-.199.975.731 1.8 1.675 1.485l8.881-2.956a1.293 1.293 0 00.45-2.193z" stroke="#ACD3EF" stroke-width="2" fill="#FFF"/>
    <path d="M100.357 136.933L49.63 150.676a2.256 2.256 0 01-2.766-1.587l-11.785-43.5a2.253 2.253 0 011.587-2.766L87.392 89.08a2.256 2.256 0 012.767 1.587l11.785 43.5a2.256 2.256 0 01-1.587 2.767" fill="#FFF"/>
    <path d="M100.357 136.933L49.63 150.676a2.256 2.256 0 01-2.766-1.587l-11.785-43.5a2.253 2.253 0 011.587-2.766L87.392 89.08a2.256 2.256 0 012.767 1.587l11.785 43.5a2.256 2.256 0 01-1.587 2.767z" stroke="#ACD3EF" stroke-width="2"/>
    <path d="M92.724 127.359L51.87 138.427a2.254 2.254 0 01-2.766-1.587l-7.025-25.927a2.255 2.255 0 011.587-2.766L84.52 97.079a2.256 2.256 0 012.767 1.587l7.024 25.927a2.255 2.255 0 01-1.587 2.766" fill="#E1F2FF"/>
    <path d="M92.724 127.359L51.87 138.427a2.254 2.254 0 01-2.766-1.587l-7.025-25.927a2.255 2.255 0 011.587-2.766L84.52 97.079a2.256 2.256 0 012.767 1.587l7.024 25.927a2.255 2.255 0 01-1.587 2.766z" stroke="#ACD3EF" stroke-width="2"/>
    <path d="M48.001 133.723c-.074-.275 4.181-6.39 6.483-9.672a2.98 2.98 0 013.703-.987l7.386 3.44a.865.865 0 001.099-.327l7.338-11.77a2.987 2.987 0 013.505-1.245l14.821 5.093 1.509 5.585a2.438 2.438 0 01-1.726 2.993l-41.25 10.994a1.908 1.908 0 01-2.365-1.484l-.503-2.62z" fill="#ACD3EF"/>
    <path d="M83.296 104.379a3.202 3.202 0 11-6.188 1.647 3.202 3.202 0 016.188-1.647z" stroke="#ACD3EF" stroke-width="2"/>
    <path stroke="#5563B6" stroke-width="2" fill="#FFF" fill-rule="nonzero" d="M84.73 124.56h87.4v94.16h-87.4z"/>
    <path fill="#E1F2FF" fill-rule="nonzero" d="M171.09 178.73l-86.44-39.74.08-14.43h86.36z"/>
    <path stroke="#5563B6" stroke-width="2" fill="#FFF" fill-rule="nonzero" d="M40.94 124.66h43.7v94.16h-43.7z"/>
    <path stroke="#5563B6" stroke-width="2" fill="#FFF" fill-rule="nonzero" d="M84.65 124.66h-43.7L17 153.32h43.7zM84.65 124.66h87.4L196 153.32h-87.41z"/>
    <path stroke="#E1F2FF" stroke-width="2" stroke-linecap="round" d="M183.09 148.11h-20.38M40.8 148.11H27.41"/>
   </g>
   <g transform="translate(117 30)">
    <ellipse stroke="#5E63B6" stroke-width="4" fill="#FFF" cx="31.5" cy="91.5" rx="31.5" ry="30.5"/>
    <ellipse stroke="#5E63B6" stroke-width="3" fill="#FFF" cx="32" cy="91.5" rx="16" ry="15.5"/>
    <path d="M36.127 99.366c.065.202.13.338.143.384-.455-4.384 2.03-6.212 2.83-9.107a.976.976 0 010-.143c.016-.066.029-.134.039-.202a4.17 4.17 0 00-.84-2.719l-.162-.24c-.104-.15-.215-.3-.325-.45l-.033-.045-.098-.123-.097-.124-.104-.123-.104-.13-.078-.092A22.051 22.051 0 0033.7 83c.18 1.533.196 3.082.046 4.618a17.427 17.427 0 01-1.548 5.12 17.427 17.427 0 01-5.204-1.21A21.232 21.232 0 0123 89.186c0 .137 0 .273.046.41v.124c0 .097 0 .195.039.292.039.098 0 .091 0 .137l.045.293v.117c0 .123.04.247.065.364v.032c0 .144.052.28.078.423l.078.378v.078l.078.338v.065c0 .13.065.26.098.39.108.412.228.809.358 1.19.201.599.451 1.18.748 1.737l.123.222.117.188.13.195.17.234v.04c.065.084.136.162.208.24l.15.156.064.059.098.084.072.059.09.072.072.052.098.065.071.045.104.059.072.039.117.052h.059l.182.058.11.04c2.927.773 5.777-.456 9.354 2.1" fill="#9452BA" fill-rule="nonzero"/>
    <path d="M120.5 11.973H99.047c-9.6 0-13.977 11.256-13.977 23.647v39.5C85.07 93 65.65 90 61.5 90" stroke="#5E63B6" stroke-width="5"/>
    <path d="M128.517 8.987H120V6h8.517c.575 0 1.042.466 1.042 1.042v.903c0 .576-.467 1.042-1.042 1.042zM128.517 17.986H120V15h8.517c.575 0 1.042.465 1.042 1.041v.904c0 .575-.467 1.041-1.042 1.041z" stroke="#5E63B6" stroke-width="2" fill="#5E63B6"/>
    <path d="M109.075 0h9.526c.935 0 1.692.758 1.692 1.691V21.82c0 .935-.757 1.692-1.692 1.692h-9.526A4.075 4.075 0 01105 19.437V4.075A4.075 4.075 0 01109.075 0z" stroke="#5E63B6" stroke-width="2" fill="#5E63B6"/>
   </g>
  </g>
  <path d="M 108.91 177.771 L 119.07 177.771 L 119.07 179.591 L 111.15 179.591 L 111.15 185.061 L 117.56 185.061 L 117.56 186.811 L 111.15 186.811 L 111.15 192.431 L 119.07 192.431 L 119.07 194.251 L 108.91 194.251 L 108.91 177.771 ZM 126.407 187.371 L 124.717 187.371 L 124.717 194.251 L 122.497 194.251 L 122.497 177.771 L 127.157 177.771 C 128.197 177.771 129.097 177.878 129.857 178.091 C 130.617 178.298 131.244 178.601 131.737 179.001 C 132.231 179.401 132.597 179.881 132.837 180.441 C 133.077 181.008 133.197 181.641 133.197 182.341 C 133.197 182.921 133.104 183.464 132.917 183.971 C 132.731 184.478 132.464 184.931 132.117 185.331 C 131.771 185.738 131.344 186.081 130.837 186.361 C 130.337 186.648 129.771 186.861 129.137 187.001 C 129.411 187.168 129.654 187.404 129.867 187.711 L 134.677 194.251 L 132.697 194.251 C 132.291 194.251 131.991 194.094 131.797 193.781 L 127.527 187.891 C 127.394 187.704 127.251 187.571 127.097 187.491 C 126.944 187.411 126.714 187.371 126.407 187.371 Z M 124.717 179.531 L 124.717 185.751 L 127.057 185.751 C 127.704 185.751 128.274 185.674 128.767 185.521 C 129.267 185.361 129.684 185.138 130.017 184.851 C 130.351 184.564 130.601 184.221 130.767 183.821 C 130.934 183.421 131.017 182.981 131.017 182.501 C 131.017 181.521 130.694 180.781 130.047 180.281 C 129.401 179.781 128.437 179.531 127.157 179.531 L 124.717 179.531 ZM 142.173 188.091 L 139.523 188.091 L 139.523 194.251 L 137.303 194.251 L 137.303 177.771 L 142.173 177.771 C 143.213 177.771 144.12 177.891 144.893 178.131 C 145.66 178.378 146.296 178.721 146.803 179.161 C 147.31 179.608 147.686 180.144 147.933 180.771 C 148.186 181.398 148.313 182.101 148.313 182.881 C 148.313 183.648 148.176 184.348 147.903 184.981 C 147.636 185.621 147.246 186.171 146.733 186.631 C 146.213 187.091 145.57 187.448 144.803 187.701 C 144.036 187.961 143.16 188.091 142.173 188.091 Z M 139.523 179.531 L 139.523 186.321 L 142.173 186.321 C 142.806 186.321 143.366 186.234 143.853 186.061 C 144.34 185.894 144.746 185.658 145.073 185.351 C 145.406 185.051 145.656 184.691 145.823 184.271 C 145.996 183.851 146.083 183.388 146.083 182.881 C 146.083 181.828 145.756 181.008 145.103 180.421 C 144.456 179.828 143.48 179.531 142.173 179.531 L 139.523 179.531 Z" transform="matrix(1, 0, 0, 1, 0, 0)" style="fill: rgb(85, 99, 182); white-space: pre;"/>
 </g>
</svg>