<svg width="256" height="256" xmlns="http://www.w3.org/2000/svg" xmlns:xlink="http://www.w3.org/1999/xlink">
  <defs>
    <path id="a" d="M.77 0h9.14v1H.77z"/>
  </defs>
  <g fill="none" fill-rule="evenodd">
    <path d="M23.36 218.472c0-57.193 46.365-103.558 103.559-103.558 57.193 0 103.557 46.365 103.557 103.558H23.36z" fill="#E1F2FF"/>
    <path d="M18.826 209.681h36" fill="#FFF"/>
    <path d="M18.826 209.681h36" stroke="#5E63B6" stroke-width="2" stroke-linecap="round" stroke-linejoin="round"/>
    <path d="M82.706 149.725v3.938M84.675 151.694h-3.938M236.2 147.965v3.938M238.168 149.933h-3.938" stroke="#5E63B6" stroke-linecap="round"/>
    <path d="M225.868 84.142v3.938" fill="#FFF"/>
    <path d="M225.868 84.142v3.938" stroke="#5E63B6" stroke-linecap="round" stroke-linejoin="round"/>
    <path d="M227.836 86.111h-3.938" fill="#FFF"/>
    <path d="M227.836 86.111h-3.938" stroke="#5E63B6" stroke-linecap="round" stroke-linejoin="round"/>
    <path d="M245.217 209.642h6.974" fill="#FFF"/>
    <path d="M245.217 209.642h6.974" stroke="#5E63B6" stroke-width="2" stroke-linecap="round" stroke-linejoin="round"/>
    <path d="M3 209.642h8.973" fill="#FFF"/>
    <path d="M3 209.642h8.973" stroke="#5E63B6" stroke-width="2" stroke-linecap="round" stroke-linejoin="round"/>
    <path d="M93.965 219.392h67.186v1H93.965z"/>
    <path d="M93.965 219.392h67.186" fill="#FFF"/>
    <path d="M93.965 219.392h67.186" stroke="#5E63B6" stroke-width="2" stroke-linecap="round" stroke-linejoin="round"/>
    <g transform="translate(169 219.392)">
      <mask id="b" fill="#fff">
        <use xlink:href="#a"/>
      </mask>
      <path d="M.77 0h9.14" fill="#FFF" mask="url(#b)"/>
      <path d="M.77 0h9.14" stroke="#5E63B6" stroke-width="2" stroke-linecap="round" stroke-linejoin="round" mask="url(#b)"/>
    </g>
    <path d="M86.082 219.316l-5 .076" fill="#FFF"/>
    <path d="M86.082 219.316l-5 .076" stroke="#5E63B6" stroke-width="2" stroke-linecap="round" stroke-linejoin="round"/>
    <path d="M61.275 209.681h176.894" fill="#FFF"/>
    <path d="M61.275 209.681h176.894" stroke="#5E63B6" stroke-width="2" stroke-linecap="round" stroke-linejoin="round"/>
    <path d="M165.092 208.504l4.978.11a4.169 4.169 0 0 0 3.944-2.555c1.868-4.51 1.52-8.701 1.811-12.271.54-6.614-.42-10.031-1.283-15.593l-7.476.007s.574 2.766.813 11.03c.074 2.559-4.377 12.726-4.29 17.764a1.535 1.535 0 0 0 1.503 1.508" fill="#9452BA"/>
    <path d="M165.092 208.504l4.978.11a4.169 4.169 0 0 0 3.944-2.555c1.868-4.51 1.52-8.701 1.811-12.271.54-6.614-.42-10.031-1.283-15.593l-7.476.007s.574 2.766.813 11.03c.074 2.559-4.377 12.726-4.29 17.764a1.535 1.535 0 0 0 1.503 1.508zM151.13 184.517l-5.859-6.95-3.714.064s-.648 5.658-.914 8.03c-.469 4.174-2.387 12.335-3.533 15.911-.372 1.163-.598 2.252-.675 3.242-.132 1.667 1.23 3.077 2.901 3.114l4.41.1c2.57.056 4.891-1.607 5.577-4.082 2.14-7.708 1.806-19.429 1.806-19.429z" stroke="#52267D" stroke-width="2"/>
    <path stroke="#52267D" stroke-width=".5" d="M142.574 189.027l-1.012.85.93.876 1.559-.56-.295-.685-1.29.276.006.23.333-.008"/>
    <path d="M143.28 158.949c4.38.009 8.552-2.915 17.495-3.128.142-.581.31-1.104.52-1.533 1.695-3.465 4.202-13.502 2.884-20.162l-1.043-5.271a24.358 24.358 0 0 1-.455-5.252 10.734 10.734 0 0 1 .395-2.65 10.43 10.43 0 0 1 1.267-2.83 10.647 10.647 0 0 1 3.662-3.5 10.574 10.574 0 0 1 5.547-1.417l1.745.039a10.6 10.6 0 0 1 8.119 4.053c.383.486.722 1.007 1.016 1.556a9.947 9.947 0 0 1 .518 1.105 10.555 10.555 0 0 1 .743 4.157 2.645 2.645 0 0 1-.818 1.857 2.647 2.647 0 0 1-1.892.735l-10.888-.242 1.438 9.486c1.717 9.751.99 16.229-.604 20.523-.355.958-2.334 4.335-2.334 4.335 5.253 8.712 13.518 12.654 22.42 13.943 7.569 1.095 24.107-5.459 15.838-13.654-8.268-8.195 1.827-2.989 3.308-1.942 1.48 1.047 10 8.748.325 19.551-4.091 4.568-8.701 8.702-19.641 11.705-1.753.481-11.28.961-16.43 2.316-15.34 4.035-27.625-.999-34.344-11.215-6.692-10.174-.52-22.568 1.209-22.565" fill="#9452BA"/>
    <path d="M143.28 158.949c4.38.009 8.552-2.915 17.495-3.128.142-.581.31-1.104.52-1.533 1.695-3.465 4.202-13.502 2.884-20.162l-1.043-5.271a24.358 24.358 0 0 1-.455-5.252 10.734 10.734 0 0 1 .395-2.65 10.43 10.43 0 0 1 1.267-2.83 10.647 10.647 0 0 1 3.662-3.5 10.574 10.574 0 0 1 5.547-1.417l1.745.039a10.6 10.6 0 0 1 8.119 4.053c.383.486.722 1.007 1.016 1.556a9.947 9.947 0 0 1 .518 1.105 10.555 10.555 0 0 1 .743 4.157 2.645 2.645 0 0 1-.818 1.857 2.647 2.647 0 0 1-1.892.735l-10.888-.242 1.438 9.486c1.717 9.751.99 16.229-.604 20.523-.355.958-2.334 4.335-2.334 4.335 5.253 8.712 13.518 12.654 22.42 13.943 7.569 1.095 24.107-5.459 15.838-13.654-8.268-8.195 1.827-2.989 3.308-1.942 1.48 1.047 10 8.748.325 19.551-4.091 4.568-8.701 8.702-19.641 11.705-1.753.481-11.28.961-16.43 2.316-15.34 4.035-27.625-.999-34.344-11.215-6.692-10.174-.52-22.568 1.209-22.565z" stroke="#52267D" stroke-width="2"/>
    <path d="M153.06 144.693c.6-11.249-8.137-20.296-18.25-22.392-2.1-.435-2.77-1.112-5.075-1.163l-1.767-.04c-5.95-.133-10.881 4.583-11.013 10.533a2.685 2.685 0 0 0 2.626 2.746s18.114.4 18.199.393l1.475.034c-.001.002-1.476-.03-1.48-.028 3.97 1.79 6.347 6.965 6.726 9.726.538 3.931.008 7.153-1.386 9.736-.93 1.722-1.077 3.816-.978 5.518l.103.038c.042.91.166 1.945.41 3.13 1.732-1.152 4.426-2.88 4.916-3.126 1.058-.529 3.45-1.734 4.52-2.317 6.844-3.723.632-6.39.974-12.788" fill="#9452BA"/>
    <path d="M153.06 144.693c.6-11.249-8.137-20.296-18.25-22.392-2.1-.435-2.77-1.112-5.075-1.163l-1.767-.04c-5.95-.133-10.881 4.583-11.013 10.533a2.685 2.685 0 0 0 2.626 2.746s18.114.4 18.199.393l1.475.034c-.001.002-1.476-.03-1.48-.028 3.97 1.79 6.347 6.965 6.726 9.726.538 3.931.008 7.153-1.386 9.736-.93 1.722-1.077 3.816-.978 5.518l.103.038c.042.91.166 1.945.41 3.13 1.732-1.152 4.426-2.88 4.916-3.126 1.058-.529 3.45-1.734 4.52-2.317 6.844-3.723.632-6.39.974-12.788z" stroke="#52267D" stroke-width="2"/>
    <path d="M147 157.571c-.05-1.74-.296-2.639-.085-3.342 1.213-4.047 1.606-5.324 1.703-9.635.096-4.285-2.292-8.574-5.906-10.908-.199-.128-2.832-.373-4.937 1.09 3.97 1.79 6.347 6.965 6.726 9.726.538 3.931.008 7.153-1.387 9.736-.929 1.722-1.077 3.816-.977 5.518 0 0 4.873 1.955 4.863-2.185" fill="#F3E3FF"/>
    <path d="M147 157.571c-.05-1.74-.296-2.639-.085-3.342 1.213-4.047 1.606-5.324 1.703-9.635.096-4.285-2.292-8.574-5.906-10.908-.199-.128-2.832-.373-4.937 1.09 3.97 1.79 6.347 6.965 6.726 9.726.538 3.931.008 7.153-1.387 9.736-.929 1.722-1.077 3.816-.977 5.518 0 0 4.873 1.955 4.863-2.185" stroke="#52267D"/>
    <path d="M122.274 122.802s.038-1.88 1.924-2.587c.576-.216 1.627-.616 1.627-.616s1.06 2.38-.214 2.945c-1.835.814-3.337.258-3.337.258" fill="#FFF"/>
    <path d="M122.274 122.802s.038-1.88 1.924-2.587c.576-.216 1.627-.616 1.627-.616s1.06 2.38-.214 2.945c-1.835.814-3.337.258-3.337.258z" stroke="#52267D"/>
    <path d="M126.984 121.584s.11-2.562 3.003-2.871c.54-.058 1.942.007 1.942.007s.587 2.727-.94 2.954c-1.876.278-4.005-.09-4.005-.09" fill="#FFF"/>
    <path d="M126.984 121.584s.11-2.562 3.003-2.871c.54-.058 1.942.007 1.942.007s.587 2.727-.94 2.954c-1.876.278-4.005-.09-4.005-.09z" stroke="#52267D"/>
    <path d="M132.713 121.958s.443-2.835 2.98-1.996c1.083.357 1.67 1.2 1.67 1.2s-.556 2.154-1.567 1.888c-1.764-.464-3.083-1.092-3.083-1.092" fill="#FFF"/>
    <path d="M132.713 121.958s.443-2.835 2.98-1.996c1.083.357 1.67 1.2 1.67 1.2s-.556 2.154-1.567 1.888c-1.764-.464-3.083-1.092-3.083-1.092z" stroke="#52267D"/>
    <path d="M139.822 135.925s6.026-3.104 5.016-8.576c.776.669 2.845 2.703 3.588 3.736-.023 1.066.079 5.306-5.833 8.01-1.003-1.09-1.84-2.44-2.771-3.17" fill="#FFF"/>
    <path d="M139.822 135.925s6.026-3.104 5.016-8.576c.776.669 2.845 2.703 3.588 3.736-.023 1.066.079 5.306-5.833 8.01-1.003-1.09-1.84-2.44-2.771-3.17z" stroke="#52267D"/>
    <path d="M123.096 122.303s.02-.975.996-1.34c.298-.11.842-.317.842-.317s.55 1.23-.11 1.523c-.95.421-1.728.135-1.728.135M128.228 121.032s.057-1.307 1.53-1.465c.276-.029.99.004.99.004s.3 1.391-.478 1.506c-.956.142-2.042-.045-2.042-.045M133.636 121.773s.235-1.504 1.581-1.059c.575.19.887.637.887.637s-.295 1.143-.832 1.002c-.936-.247-1.636-.58-1.636-.58M131.857 132.846l-5.443-.12a4.966 4.966 0 0 1 5.075-4.855l.479.01a2.483 2.483 0 0 1-.111 4.966" fill="#F3E3FF"/>
    <path d="M131.4 132.743l-4.891-.108a3.902 3.902 0 0 1 3.988-3.815l.99.023a1.951 1.951 0 0 1-.086 3.9" fill="#FFF"/>
    <path d="M131.4 132.743l-4.891-.108a3.902 3.902 0 0 1 3.988-3.815l.99.023a1.951 1.951 0 0 1-.086 3.9z" stroke="#52267D"/>
    <path d="M127.44 130.589a1.09 1.09 0 1 0 1.113-1.065 1.09 1.09 0 0 0-1.112 1.065M119.349 133.554c.312-.06.592-.226.795-.47l.375-.45-.817.156-.481.091a.342.342 0 0 0 .128.672" fill="#52267D"/>
    <path d="M140.826 136.055s4.642-2.368 4.683-7.344c1.938 1.48 2.452 2.42 2.452 2.42s-.397 2.361-1.527 3.531c-1.734 1.797-3.51 2.322-5.608 1.393" fill="#E1F2FF"/>
    <path d="M145.187 135.278s-1.85 1.8-3.633 2.643" fill="#FFF"/>
    <path d="M145.187 135.278s-1.85 1.8-3.633 2.643" stroke="#52267D"/>
    <path d="M162.743 155.023l-.978-2.04c-3.606-9.464-4.072-14.984-1.892-23.892l1.276-5.218a24.31 24.31 0 0 0 .69-5.227c.13-5.873-4.525-10.74-10.398-10.87l-1.717-.04c-5.793-.129-10.592 4.462-10.722 10.255l-.007.302a2.496 2.496 0 0 0 2.44 2.55l10.87.242-1.858 9.414c-5.61 25.211-5.334 35.49 4.643 33.601" fill="#9452BA"/>
    <path d="M162.743 155.023l-.978-2.04c-3.606-9.464-4.072-14.984-1.892-23.892l1.276-5.218a24.31 24.31 0 0 0 .69-5.227c.13-5.873-4.525-10.74-10.398-10.87l-1.717-.04c-5.793-.129-10.592 4.462-10.722 10.255l-.007.302a2.496 2.496 0 0 0 2.44 2.55l10.87.242-1.858 9.414c-5.61 25.211-5.334 35.49 4.643 33.601" stroke="#52267D" stroke-width="2"/>
    <path d="M144.449 108.878s.216-1.84 2.063-2.531c.564-.211 1.434.047 1.434.047s1.02 1.677-.228 2.23c-1.797.799-3.27.254-3.27.254" fill="#FFF"/>
    <path d="M144.449 108.878s.216-1.84 2.063-2.531c.564-.211 1.434.047 1.434.047s1.02 1.677-.228 2.23c-1.797.799-3.27.254-3.27.254z" stroke="#52267D"/>
    <path d="M148.823 108.367s.125-2.901 3.4-3.252c.612-.065 1.393.012 1.393.012s1.473 3.085-.257 3.342c-2.125.315-4.536-.102-4.536-.102" fill="#FFF"/>
    <path d="M148.823 108.367s.125-2.901 3.4-3.252c.612-.065 1.393.012 1.393.012s1.473 3.085-.257 3.342c-2.125.315-4.536-.102-4.536-.102z" stroke="#52267D"/>
    <path d="M154.652 109.158s.505-2.765 2.968-1.881a3.496 3.496 0 0 1 1.607 1.218s-.6 2.096-1.582 1.809c-1.717-.499-2.993-1.146-2.993-1.146" fill="#FFF"/>
    <path d="M154.652 109.158s.505-2.765 2.968-1.881a3.496 3.496 0 0 1 1.607 1.218s-.6 2.096-1.582 1.809c-1.717-.499-2.993-1.146-2.993-1.146z" stroke="#52267D"/>
    <path d="M143.516 158.619a4.92 4.92 0 0 1 1.806-.821" fill="#F3E3FF"/>
    <path d="M143.516 158.619a4.92 4.92 0 0 1 1.806-.821" stroke="#52267D"/>
    <path d="M147.117 158.641c-1.615-7.26 1.898-20.992 2.563-24.377l2.637-13.56 1.024.023c1.296.03 2.245 1.46 2.033 2.74l-1.955 11.77c-.661 3.985-1.67 22.482 5.187 26.613 1.463.882 3.885.38 4.802-.034 3.337-1.504 4.378-5.599 5.176-8.902 1.65-6.834.604-12.252.392-17.642l-.197-6.743c-.035-1.219.962-2.49 2.179-2.462l1.24.027 1.933 13.662c.586 3.892 2.015 17.371-6.045 23.496-.146.112 1.913.62 1.289 1.667-2.476 4.16-9.394 4.67-10.734 6.444-5.161 6.831-.802 21.728-.802 21.728s-5.506-2.34-8.88-5.502c-7.883-7.389-8.671-17.856-8.64-20.93.038-3.68 1.055-5.94 2.276-7.276" fill="#F3E3FF"/>
    <path d="M147.117 158.641c-1.615-7.26 1.898-20.992 2.563-24.377l2.637-13.56 1.024.023c1.296.03 2.245 1.46 2.033 2.74l-1.955 11.77c-.661 3.985-1.67 22.482 5.187 26.613 1.463.882 3.885.38 4.802-.034 3.337-1.504 4.378-5.599 5.176-8.902 1.65-6.834.604-12.252.392-17.642l-.197-6.743c-.035-1.219.962-2.49 2.179-2.462l1.24.027 1.933 13.662c.586 3.892 2.015 17.371-6.045 23.496-.146.112 1.913.62 1.289 1.667-2.476 4.16-9.394 4.67-10.734 6.444-5.161 6.831-.802 21.728-.802 21.728s-5.506-2.34-8.88-5.502c-7.883-7.389-8.671-17.856-8.64-20.93.038-3.68 1.055-5.94 2.276-7.276" stroke="#52267D"/>
    <path d="M212.28 166.12s1.172-1.24.567-2.953c-.184-.523-.88-.984-.88-.984s-1.79.27-1.441 1.48c.5 1.74 1.755 2.458 1.755 2.458" fill="#FFF"/>
    <path d="M212.28 166.12s1.172-1.24.567-2.953c-.184-.523-.88-.984-.88-.984s-1.79.27-1.441 1.48c.5 1.74 1.755 2.458 1.755 2.458z" stroke="#52267D"/>
    <path d="M211.942 164.354s.41-.436.198-1.036c-.064-.184-.308-.346-.308-.346s-.627.095-.505.52c.175.61.615.862.615.862" fill="#F3E3FF"/>
    <path d="M202.72 174.978s-1.03-2.5 1.6-4.079c.49-.294 1.18-.534 1.18-.534s2.451 2.03 1.091 2.923c-1.67 1.098-3.87 1.69-3.87 1.69" fill="#FFF"/>
    <path d="M202.72 174.978s-1.03-2.5 1.6-4.079c.49-.294 1.18-.534 1.18-.534s2.451 2.03 1.091 2.923c-1.67 1.098-3.87 1.69-3.87 1.69z" stroke="#52267D"/>
    <path d="M203.645 174.067s-.571-1.387.887-2.262c.272-.164.654-.297.654-.297s1.359 1.125.605 1.622c-.926.61-2.146.937-2.146.937" fill="#F3E3FF"/>
    <path d="M210.817 167.045s1.844 1.693.008 3.129a3.12 3.12 0 0 1-1.681.632s-1.294-1.447-.611-2.051a16.9 16.9 0 0 1 2.284-1.71" fill="#FFF"/>
    <path d="M210.817 167.045s1.844 1.693.008 3.129a3.12 3.12 0 0 1-1.681.632s-1.294-1.447-.611-2.051a16.9 16.9 0 0 1 2.284-1.71z" stroke="#52267D"/>
    <path d="M210.518 168.209s.815.75.003 1.386c-.348.27-.744.28-.744.28s-.573-.641-.272-.908c.528-.468 1.013-.758 1.013-.758" fill="#F3E3FF"/>
    <path d="M193.671 176.079s-.57-2.218 1.875-3.038c2.445-.821 3.081-.08 3.081-.08s1.291 2.29.076 2.99c-1.215.7-5.032.128-5.032.128" fill="#FFF"/>
    <path d="M193.671 176.079s-.57-2.218 1.875-3.038c2.445-.821 3.081-.08 3.081-.08s1.291 2.29.076 2.99c-1.215.7-5.032.128-5.032.128z" stroke="#52267D"/>
    <path d="M194.822 175.604s-.297-1.153.975-1.58c1.27-.428 1.602-.04 1.602-.04s.67 1.19.039 1.553c-.632.364-2.616.067-2.616.067" fill="#F3E3FF"/>
    <path d="M151.713 124.013s3.824 2.274 9.312.42c-.412 1.681-1.249 5.058-1.249 5.058s-5.078 1.433-8.914-1.102c.45-2.23.851-4.377.851-4.377" fill="#FFF"/>
    <path d="M151.713 124.013s3.824 2.274 9.312.42c-.412 1.681-1.249 5.058-1.249 5.058s-5.078 1.433-8.914-1.102c.45-2.23.851-4.377.851-4.377z" stroke="#52267D"/>
    <path d="M180.906 114.82s-.135-1.86-1.964-2.64c-.557-.238-2.077-.333-2.077-.333s-.471 1.957.762 2.572c1.773.883 3.279.401 3.279.401" fill="#FFF"/>
    <path d="M180.906 114.82s-.135-1.86-1.964-2.64c-.557-.238-2.077-.333-2.077-.333s-.471 1.957.762 2.572c1.773.883 3.279.401 3.279.401z" stroke="#52267D"/>
    <path d="M176.244 113.767s.005-2.532-2.833-2.964c-.53-.08-1.214-.044-1.214-.044s-1.401 2.63.095 2.92c1.838.358 3.952.088 3.952.088" fill="#FFF"/>
    <path d="M176.244 113.767s.005-2.532-2.833-2.964c-.53-.08-1.214-.044-1.214-.044s-1.401 2.63.095 2.92c1.838.358 3.952.088 3.952.088z" stroke="#52267D"/>
    <path d="M170.848 113.83s-.384-2.806-2.903-2.026a3.532 3.532 0 0 0-1.672 1.154s.509 2.136 1.512 1.893c1.75-.426 3.063-1.021 3.063-1.021" fill="#FFF"/>
    <path d="M170.848 113.83s-.384-2.806-2.903-2.026a3.532 3.532 0 0 0-1.672 1.154s.509 2.136 1.512 1.893c1.75-.426 3.063-1.021 3.063-1.021z" stroke="#52267D"/>
    <path d="M145.418 108.433s.115-.982 1.102-1.353c.301-.112.766.026.766.026s.545.895-.122 1.192c-.96.426-1.746.135-1.746.135M149.909 107.903s.078-1.819 2.132-2.039c.384-.04.873.008.873.008s.923 1.933-.161 2.094c-1.332.2-2.844-.063-2.844-.063M155.736 108.903s.29-1.596 1.713-1.086c.607.22.928.703.928.703s-.346 1.21-.913 1.044c-.992-.287-1.728-.66-1.728-.66M180 114.325s-.072-.983-1.039-1.396c-.295-.125-1.098-.175-1.098-.175s-.249 1.034.403 1.359c.937.467 1.733.212 1.733.212M175.15 113.297s.003-1.4-1.566-1.64c-.293-.044-.671-.023-.671-.023s-.775 1.453.05 1.614c1.018.197 2.187.049 2.187.049M169.858 113.618s-.21-1.535-1.59-1.108c-.588.182-.914.63-.914.63s.279 1.169.827 1.037c.958-.234 1.677-.56 1.677-.56" fill="#F3E3FF"/>
    <path d="M163.178 129.065s4.778.854 9.363-.162c.39 2.487.633 4.365.633 4.365s-3.21 2.077-9.026.701c-.618-3.198-.97-4.904-.97-4.904" fill="#FFF"/>
    <path d="M163.178 129.065s4.778.854 9.363-.162c.39 2.487.633 4.365.633 4.365s-3.21 2.077-9.026.701c-.618-3.198-.97-4.904-.97-4.904z" stroke="#52267D"/>
    <path d="M171.216 124.426l5.444.121a4.966 4.966 0 0 0-4.854-5.076l-.479-.01a2.483 2.483 0 0 0-.11 4.965" fill="#F3E3FF"/>
    <path d="M171.815 124.346l4.754.105a3.901 3.901 0 0 0-3.814-3.986l-1.128-.026a1.813 1.813 0 0 0-1.854 1.773 2.09 2.09 0 0 0 2.042 2.134" fill="#FFF"/>
    <path d="M171.815 124.346l4.754.105a3.901 3.901 0 0 0-3.814-3.986l-1.128-.026a1.813 1.813 0 0 0-1.854 1.773 2.09 2.09 0 0 0 2.042 2.134z" stroke="#52267D"/>
    <path d="M173.837 123.477a1.089 1.089 0 1 1 1.98-.91 1.089 1.089 0 0 1-1.98.91" fill="#52267D"/>
    <path d="M152.484 119.299l-5.444-.121a4.966 4.966 0 0 1 5.075-4.855l.479.01a2.483 2.483 0 1 1-.11 4.966" fill="#F3E3FF"/>
    <path d="M152.027 119.195l-4.892-.109a3.901 3.901 0 0 1 3.988-3.814l.99.023a1.95 1.95 0 1 1-.086 3.9" fill="#FFF"/>
    <path d="M152.027 119.195l-4.892-.109a3.901 3.901 0 0 1 3.988-3.814l.99.023a1.95 1.95 0 1 1-.086 3.9z" stroke="#52267D"/>
    <path d="M148.537 118.004a1.09 1.09 0 1 0 1.433-1.642 1.09 1.09 0 0 0-1.433 1.642M183.194 125.827a1.36 1.36 0 0 1-.772-.504l-.355-.467.809.193.476.113a.341.341 0 1 1-.158.665M141.312 119.795c.312-.06.593-.225.795-.47l.375-.45-.816.157-.482.092a.34.34 0 1 0 .128.67" fill="#52267D"/>
    <path d="M152.162 124.73s4.02 1.818 8.147.33c-.482 2.392-.892 3.608-.892 3.608s-2.465.09-4.089-.267c-2.317-.51-3.213-1.59-3.166-3.672" fill="#E1F2FF"/>
    <path d="M157.739 127.933s-3.7.226-6.523-1.32" fill="#FFF"/>
    <path d="M157.739 127.933s-3.7.226-6.523-1.32" stroke="#52267D"/>
    <path d="M170.765 129.776s-3.622.943-6.783.237c.547 2.377.847 3.125.847 3.125s4.778-.529 5.936-3.362" fill="#E1F2FF"/>
    <path d="M168.084 163.303s-.222.152-.534.331" fill="#F3E3FF"/>
    <path d="M168.084 163.303s-.222.152-.534.331" stroke="#52267D" stroke-width=".5"/>
    <path d="M171.081 131.144s-3.638.606-7.474.062" fill="#FFF"/>
    <path d="M171.081 131.144s-3.638.606-7.474.062" stroke="#52267D"/>
    <path d="M163.482 205.544s-.944-.805-2.245.217c-1.188.93-2.1 2.393-1.58 2.554.52.16 1.438.326 2.409.17.845-.135 1.584.043 1.96-1.71.177-.816-.544-1.231-.544-1.231" fill="#FFF"/>
    <path d="M163.482 205.544s-.944-.805-2.245.217c-1.188.93-2.1 2.393-1.58 2.554.52.16 1.438.326 2.409.17.845-.135 1.584.043 1.96-1.71.177-.816-.544-1.231-.544-1.231z" stroke="#52267D" stroke-width=".5"/>
    <path d="M163.256 205.824s-.587-.5-1.396.135c-.74.58-1.307 1.49-.983 1.59.323.099.894.203 1.498.105.526-.084.985.027 1.221-1.063.108-.508-.34-.767-.34-.767" fill="#E1F2FF"/>
    <path d="M164.845 205.557c.51-.057 1.216 1.062 1.125 1.396-.09.334-.174 1.443-.997 1.545-.607.076-2.772.252-3.232-.227-.425-.443.47-2.42 3.104-2.714" fill="#FFF"/>
    <path d="M164.845 205.557c.51-.057 1.216 1.062 1.125 1.396-.09.334-.174 1.443-.997 1.545-.607.076-2.772.252-3.232-.227-.425-.443.47-2.42 3.104-2.714z" stroke="#52267D" stroke-width=".5"/>
    <path d="M164.98 205.866c.302-.034.719.627.665.824-.054.197-.102.852-.59.911-.357.045-1.635.15-1.906-.133-.251-.261.277-1.429 1.832-1.602" fill="#E1F2FF"/>
    <path d="M166.989 205.82s-.434-.239-1.312.238c-.778.422-1.938 1.098-1.657 1.976.282.88 2.713.608 3.256.436.543-.172.895-.752.81-1.267-.182-1.124-1.097-1.384-1.097-1.384" fill="#FFF"/>
    <path d="M166.989 205.82s-.434-.239-1.312.238c-.778.422-1.938 1.098-1.657 1.976.282.88 2.713.608 3.256.436.543-.172.895-.752.81-1.267-.182-1.124-1.097-1.384-1.097-1.384z" stroke="#52267D" stroke-width=".5"/>
    <path d="M167.147 206.132s-.257-.141-.777.142c-.46.25-1.148.649-.981 1.17.167.52 1.607.36 1.928.258.32-.102.529-.445.479-.751-.107-.666-.65-.82-.65-.82" fill="#E1F2FF"/>
    <path d="M157.474 177.787s.368 5.627-1.257 14.423c-1.513 8.188-3.926 10.714-3.801 12.848.098 1.653.76 3.179 2.415 3.216l4.941.11a5.366 5.366 0 0 0 5.162-3.541c.637-1.746 1.311-4.125 1.749-7.142.472-4.106.482-8.236.469-10.661" fill="#9452BA"/>
    <path d="M157.474 177.787s.368 5.627-1.257 14.423c-1.513 8.188-3.926 10.714-3.801 12.848.098 1.653.76 3.179 2.415 3.216l4.941.11a5.366 5.366 0 0 0 5.162-3.541c.637-1.746 1.311-4.125 1.749-7.142.472-4.106.482-8.236.469-10.661" stroke="#52267D" stroke-width="2"/>
    <path d="M182.716 182.067c-1.667 1.372-2.567 3.66-2.602 5.778-.045 2.83 1.515 6.468.37 11.147-1.02 4.167-2.88 4.864-2.41 8.635.085.68.683 1.181 1.37 1.197l5.503.122a5.19 5.19 0 0 0 5.213-4.222c1.255-6.648.551-12.967-.23-17.82" fill="#9452BA"/>
    <path d="M182.716 182.067c-1.667 1.372-2.567 3.66-2.602 5.778-.045 2.83 1.515 6.468.37 11.147-1.02 4.167-2.88 4.864-2.41 8.635.085.68.683 1.181 1.37 1.197l5.503.122a5.19 5.19 0 0 0 5.213-4.222c1.255-6.648.551-12.967-.23-17.82" stroke="#52267D" stroke-width="2"/>
    <path stroke="#52267D" stroke-width=".5" d="M183.659 188.326l.329-.226 1.04.259-1.18.716-1.381-.72 1.479-1.13.655.237"/>
    <path d="M153.49 205.321s-.943-.805-2.244.216c-1.19.932-2.1 2.394-1.58 2.555a5.537 5.537 0 0 0 2.409.17c.845-.136 1.584.043 1.96-1.71.177-.816-.545-1.23-.545-1.23" fill="#FFF"/>
    <path d="M153.49 205.321s-.943-.805-2.244.216c-1.19.932-2.1 2.394-1.58 2.555a5.537 5.537 0 0 0 2.409.17c.845-.136 1.584.043 1.96-1.71.177-.816-.545-1.23-.545-1.23z" stroke="#52267D"/>
    <path d="M153.265 205.601s-.588-.5-1.397.135c-.74.58-1.306 1.49-.983 1.59.323.1.895.202 1.499.105.526-.084.985.027 1.22-1.063.109-.509-.339-.767-.339-.767" fill="#E1F2FF"/>
    <path stroke="#52267D" stroke-width=".5" d="M161.37 190.934l-1.982.57.22 1.828 2.011.192.964-1.064-1.192-.696-1.004.27.619.717"/>
    <g stroke="#F3E3FF" stroke-width=".25">
      <path d="M120.55 129.977a.536.536 0 1 0 1.07.023M119.478 129.953a.536.536 0 1 0 1.07.024M120.001 130.5a.535.535 0 1 0 1.071.024M141.085 129.933a.79.79 0 0 0 .863-1.322M141.316 131.026a.79.79 0 0 0 .862-1.322M166.105 148.496a.718.718 0 1 0 1.437.032M164.668 148.464a.72.72 0 1 0 1.437.032M165.37 149.199a.718.718 0 1 0 1.438.031M143.63 193.537a.72.72 0 0 0 1.437.032M142.194 193.506a.718.718 0 1 0 1.437.03M142.896 194.24a.718.718 0 0 0 1.437.032M165.503 125.572a.79.79 0 1 0 1.578.035M164.696 126.344a.79.79 0 0 0 1.579.036M155.101 139.29a.96.96 0 0 0 1.918.042M154.12 140.228a.959.959 0 0 0 1.918.043M141.699 115.129a.64.64 0 1 0 1.283.028M141.042 115.756a.642.642 0 1 0 1.283.028M200.644 181.165a.74.74 0 0 0 1.148-.931M200.534 182.204a.739.739 0 1 0 1.148-.93M171.51 170.31a.867.867 0 1 0 1.593-.684M169.917 170.995a.866.866 0 1 0 1.593-.685M171.056 171.449a.867.867 0 0 0 1.593-.684M169.463 172.134a.866.866 0 1 0 1.593-.685M172.195 171.903a.866.866 0 1 0 1.593-.684M157.492 121.97a.875.875 0 0 0 1.749.04M156.452 155.008a.874.874 0 1 0 1.748.038M166.767 137.013a.663.663 0 0 0 1.326.03M182.878 122.311a.497.497 0 0 0 .994.022M185.383 195.487a.873.873 0 1 0 1.73-.26M161.084 201.388a.96.96 0 1 0 1.92.044M160.104 202.327a.959.959 0 1 0 1.918.043"/>
    </g>
    <path d="M154.854 205.334c.51-.057 1.216 1.062 1.125 1.396-.091.335-.174 1.444-.998 1.546-.607.076-2.772.252-3.232-.227-.425-.443.47-2.421 3.105-2.715" fill="#FFF"/>
    <path d="M154.854 205.334c.51-.057 1.216 1.062 1.125 1.396-.091.335-.174 1.444-.998 1.546-.607.076-2.772.252-3.232-.227-.425-.443.47-2.421 3.105-2.715z" stroke="#52267D"/>
    <path d="M154.99 205.642c.3-.033.717.627.663.824-.054.197-.102.852-.588.912-.358.045-1.636.15-1.907-.133-.251-.262.277-1.429 1.832-1.603" fill="#E1F2FF"/>
    <path d="M156.646 205.917s-.384-.211-1.161.21c-.688.374-1.714.972-1.465 1.749.25.777 2.399.538 2.88.386.48-.153.79-.665.717-1.121-.161-.995-.971-1.224-.971-1.224" fill="#FFF"/>
    <path d="M156.646 205.917s-.384-.211-1.161.21c-.688.374-1.714.972-1.465 1.749.25.777 2.399.538 2.88.386.48-.153.79-.665.717-1.121-.161-.995-.971-1.224-.971-1.224z" stroke="#52267D"/>
    <path d="M156.786 206.193s-.228-.125-.688.125c-.408.221-1.015.575-.868 1.035.149.46 1.422.32 1.706.23.284-.092.468-.395.423-.665-.095-.589-.573-.725-.573-.725" fill="#E1F2FF"/>
    <path d="M136.368 205.678s-.384-.21-1.161.212c-.688.373-1.714.97-1.465 1.748.25.775 2.399.537 2.88.385.48-.154.79-.665.717-1.12-.161-.995-.971-1.225-.971-1.225" fill="#FFF"/>
    <path d="M136.368 205.678s-.384-.21-1.161.212c-.688.373-1.714.97-1.465 1.748.25.775 2.399.537 2.88.385.48-.154.79-.665.717-1.12-.161-.995-.971-1.225-.971-1.225z" stroke="#52267D"/>
    <path d="M136.507 205.955s-.228-.125-.687.125c-.408.22-1.015.574-.868 1.035.148.46 1.421.319 1.705.228a.622.622 0 0 0 .424-.663c-.095-.59-.574-.725-.574-.725" fill="#E1F2FF"/>
    <path d="M138.724 205.188c.51-.057 1.216 1.062 1.125 1.396-.091.334-.174 1.444-.998 1.545-.607.077-2.772.252-3.231-.227-.425-.442.469-2.42 3.104-2.714" fill="#FFF"/>
    <path d="M138.724 205.188c.51-.057 1.216 1.062 1.125 1.396-.091.334-.174 1.444-.998 1.545-.607.077-2.772.252-3.231-.227-.425-.442.469-2.42 3.104-2.714z" stroke="#52267D"/>
    <path d="M138.86 205.497c.3-.033.718.627.664.824-.054.197-.102.852-.59.912-.357.044-1.635.149-1.906-.134-.251-.261.277-1.43 1.832-1.602" fill="#E1F2FF"/>
    <path d="M180.213 205.917s-.944-.804-2.245.217c-1.188.932-2.099 2.393-1.579 2.554.52.16 1.437.326 2.408.17.845-.135 1.585.043 1.961-1.71.176-.816-.545-1.231-.545-1.231" fill="#FFF"/>
    <path d="M180.213 205.917s-.944-.804-2.245.217c-1.188.932-2.099 2.393-1.579 2.554.52.16 1.437.326 2.408.17.845-.135 1.585.043 1.961-1.71.176-.816-.545-1.231-.545-1.231z" stroke="#52267D" stroke-width=".5"/>
    <path d="M179.988 206.198s-.587-.501-1.396.135c-.74.58-1.307 1.489-.983 1.589.323.1.894.203 1.498.106.526-.085.986.026 1.22-1.064.109-.508-.34-.766-.34-.766" fill="#E1F2FF"/>
    <path d="M181.577 205.93c.51-.056 1.215 1.063 1.125 1.397-.091.333-.174 1.444-.998 1.546-.607.076-2.772.251-3.232-.228-.424-.443.47-2.422 3.105-2.715" fill="#FFF"/>
    <path d="M181.577 205.93c.51-.056 1.215 1.063 1.125 1.397-.091.333-.174 1.444-.998 1.546-.607.076-2.772.251-3.232-.228-.424-.443.47-2.422 3.105-2.715z" stroke="#52267D" stroke-width=".5"/>
    <path d="M181.712 206.239c.301-.033.718.627.664.824-.054.197-.102.852-.589.912-.358.044-1.636.149-1.907-.134-.25-.261.277-1.429 1.832-1.602" fill="#E1F2FF"/>
    <path d="M183.369 206.513s-.383-.21-1.161.212c-.688.373-1.714.97-1.464 1.748.249.775 2.399.536 2.879.384.48-.153.79-.663.716-1.12-.16-.994-.97-1.224-.97-1.224" fill="#FFF"/>
    <path d="M183.369 206.513s-.383-.21-1.161.212c-.688.373-1.714.97-1.464 1.748.249.775 2.399.536 2.879.384.48-.153.79-.663.716-1.12-.16-.994-.97-1.224-.97-1.224z" stroke="#52267D" stroke-width=".5"/>
    <path d="M183.508 206.79s-.227-.125-.687.125c-.408.22-1.015.574-.868 1.034.148.46 1.421.32 1.705.229.285-.09.47-.394.425-.663-.096-.59-.575-.725-.575-.725" fill="#E1F2FF"/>
    <path d="M145.381 205.811c.162-.13.353-.163.508-.086.577.288 2.032 1.104 1.704 2.154-.255.82-.753.561-1.716.557l-.726-.003a.411.411 0 0 1-.362-.22c-.402-.709-.152-1.8.541-2.36l.051-.042z" fill="#FFF"/>
    <path d="M145.381 205.811c.162-.13.353-.163.508-.086.577.288 2.032 1.104 1.704 2.154-.255.82-.753.561-1.716.557l-.726-.003a.411.411 0 0 1-.362-.22c-.402-.709-.152-1.8.541-2.36l.051-.042z" stroke="#52267D"/>
    <path d="M145.452 206.05c.117-.094.256-.118.368-.062.42.209 1.478.8 1.239 1.566-.185.595-.547.406-1.249.404l-.526-.002a.302.302 0 0 1-.263-.161c-.293-.514-.11-1.307.394-1.714l.037-.03z" fill="#E1F2FF"/>
    <path d="M141.98 205.42s-.872-.882-2.255.024c-1.263.829-2.295 2.207-1.79 2.412a5.558 5.558 0 0 0 2.385.374c.852-.064 1.575.177 2.099-1.538.245-.797-.44-1.272-.44-1.272" fill="#FFF"/>
    <path d="M141.98 205.42s-.872-.882-2.255.024c-1.263.829-2.295 2.207-1.79 2.412a5.558 5.558 0 0 0 2.385.374c.852-.064 1.575.177 2.099-1.538.245-.797-.44-1.272-.44-1.272z" stroke="#52267D"/>
    <path d="M141.732 205.68s-.543-.55-1.403.016c-.786.514-1.428 1.373-1.115 1.5a3.47 3.47 0 0 0 1.485.232c.53-.038.979.11 1.305-.956.153-.497-.272-.793-.272-.793" fill="#E1F2FF"/>
    <path fill="#FFF" d="M84.15 209.586h87.404v-94.163H84.15z"/>
    <path stroke="#5E63B6" stroke-width="2" d="M84.15 209.586h87.404v-94.163H84.15z"/>
    <path fill="#5E63B6" d="M92.453 209.586h79.432v-85.574H92.453z"/>
    <path stroke="#5E63B6" stroke-width="2" d="M92.453 209.586h79.432v-85.574H92.453z"/>
    <path d="M142.142 196.43H96.977v-60.715a3.285 3.285 0 0 1 3.285-3.285h26.194c1.563 0 2.91 1.1 3.22 2.631l12.466 61.37z" fill="#E1F2FF"/>
    <path d="M142.142 196.43H96.977v-60.715a3.285 3.285 0 0 1 3.285-3.285h26.194c1.563 0 2.91 1.1 3.22 2.631l12.466 61.37z" stroke="#ACD3EF" stroke-width="2" stroke-linecap="round"/>
    <path d="M169.699 204.43h-66.657a6.065 6.065 0 0 1-6.065-6.064v-51.873a6.064 6.064 0 0 1 6.065-6.063h66.657a6.063 6.063 0 0 1 6.063 6.063v51.874a6.064 6.064 0 0 1-6.063 6.064" fill="#E1F2FF"/>
    <path d="M169.699 204.43h-66.657a6.065 6.065 0 0 1-6.065-6.064v-51.873a6.064 6.064 0 0 1 6.065-6.063h66.657a6.063 6.063 0 0 1 6.063 6.063v51.874a6.064 6.064 0 0 1-6.063 6.064z" stroke="#ACD3EF" stroke-width="2" stroke-linecap="round"/>
    <path d="M143.737 185.481l-16.93-.034a8.472 8.472 0 0 1-8.454-8.489l.012-5.745a8.473 8.473 0 0 1 8.489-8.455l16.928.035a8.47 8.47 0 0 1 8.456 8.488l-.012 5.744a8.473 8.473 0 0 1-8.49 8.456" fill="#FFF"/>
    <path d="M146.022 182.66l-16.928-.034a8.473 8.473 0 0 1-8.456-8.49l.012-5.744a8.473 8.473 0 0 1 8.489-8.455l16.929.034a8.471 8.471 0 0 1 8.455 8.489l-.012 5.744a8.472 8.472 0 0 1-8.49 8.456" fill="#FFF"/>
    <path d="M146.022 182.66l-16.928-.034a8.473 8.473 0 0 1-8.456-8.49l.012-5.744a8.473 8.473 0 0 1 8.489-8.455l16.929.034a8.471 8.471 0 0 1 8.455 8.489l-.012 5.744a8.472 8.472 0 0 1-8.49 8.456z" stroke="#ACD3EF" stroke-width="2"/>
    <path d="M130.913 171.583c.252 0 .472-.03.66-.091.188-.061.344-.151.469-.267.125-.117.219-.26.28-.427.063-.17.095-.357.095-.564a1.471 1.471 0 0 0-.088-.536 1.075 1.075 0 0 0-.273-.411 1.252 1.252 0 0 0-.463-.26 2.214 2.214 0 0 0-.662-.093l-1.027-.006-.016 2.648 1.025.007zm.023-3.711c.494.003.92.064 1.281.182.36.118.656.28.89.49.233.209.406.458.518.748.113.29.167.607.166.95a2.618 2.618 0 0 1-.185.982 2.033 2.033 0 0 1-.541.764 2.475 2.475 0 0 1-.898.495c-.36.118-.78.174-1.26.17l-1.026-.005-.015 2.598-1.373-.01.045-7.38 2.398.016zM139.978 171.617a3.433 3.433 0 0 0-.154-1.091 2.28 2.28 0 0 0-.46-.818 2.035 2.035 0 0 0-.732-.519 2.53 2.53 0 0 0-.97-.183l-1.435-.009-.031 5.195 1.433.009c.362.002.686-.056.974-.173.288-.117.534-.287.738-.509.203-.22.36-.492.469-.813.109-.32.166-.684.168-1.089m1.408.009a3.982 3.982 0 0 1-.28 1.488c-.183.452-.44.84-.767 1.164a3.401 3.401 0 0 1-1.183.754 4.156 4.156 0 0 1-1.532.261l-2.813-.017.045-7.38 2.812.017a4.135 4.135 0 0 1 1.53.283c.458.184.849.441 1.174.768.324.326.576.716.753 1.17.177.454.265.951.26 1.492M143.99 169.044l-.013 2.185 2.766.016-.007 1.098-2.766-.017-.018 3.006-1.378-.01.045-7.38 4.654.03-.007 1.093z" fill="#ACD3EF"/>
    <path d="M147.018 196.687h-45.165v-60.714a3.287 3.287 0 0 1 3.286-3.286h26.194a3.286 3.286 0 0 1 3.22 2.632l12.465 61.368z" fill="#E1F2FF"/>
    <path d="M147.018 196.687h-45.165v-60.714a3.287 3.287 0 0 1 3.286-3.286h26.194a3.286 3.286 0 0 1 3.22 2.632l12.465 61.368z" stroke="#ACD3EF" stroke-width="2" stroke-linecap="round"/>
    <path d="M174.575 204.687h-66.657a6.065 6.065 0 0 1-6.065-6.064v-51.872a6.065 6.065 0 0 1 6.065-6.064h66.657a6.063 6.063 0 0 1 6.064 6.064v51.872a6.063 6.063 0 0 1-6.064 6.064" fill="#E1F2FF"/>
    <path d="M174.575 204.687h-66.657a6.065 6.065 0 0 1-6.065-6.064v-51.872a6.065 6.065 0 0 1 6.065-6.064h66.657a6.063 6.063 0 0 1 6.064 6.064v51.872a6.063 6.063 0 0 1-6.064 6.064z" stroke="#ACD3EF" stroke-width="2" stroke-linecap="round"/>
    <path d="M148.613 185.738l-16.928-.033a8.473 8.473 0 0 1-8.455-8.489l.01-5.745a8.473 8.473 0 0 1 8.49-8.455l16.929.034a8.471 8.471 0 0 1 8.455 8.49l-.012 5.743a8.47 8.47 0 0 1-8.49 8.455" fill="#FFF"/>
    <path d="M150.899 182.917l-16.93-.033a8.473 8.473 0 0 1-8.454-8.49l.012-5.744a8.473 8.473 0 0 1 8.489-8.456l16.928.035a8.47 8.47 0 0 1 8.455 8.489l-.011 5.744a8.472 8.472 0 0 1-8.49 8.455" fill="#FFF"/>
    <path d="M150.899 182.917l-16.93-.033a8.473 8.473 0 0 1-8.454-8.49l.012-5.744a8.473 8.473 0 0 1 8.489-8.456l16.928.035a8.47 8.47 0 0 1 8.455 8.489l-.011 5.744a8.472 8.472 0 0 1-8.49 8.455z" stroke="#ACD3EF" stroke-width="2"/>
    <path d="M135.79 171.84a2.02 2.02 0 0 0 .66-.091c.187-.061.343-.15.467-.266.126-.118.22-.26.281-.428.063-.168.095-.356.096-.564a1.475 1.475 0 0 0-.089-.536 1.067 1.067 0 0 0-.273-.41 1.237 1.237 0 0 0-.463-.261 2.239 2.239 0 0 0-.663-.092l-1.026-.006-.015 2.648 1.025.006zm.022-3.71c.494.003.92.064 1.281.18.36.119.656.283.89.492.233.208.406.458.518.748.112.289.168.606.166.95a2.602 2.602 0 0 1-.186.982c-.12.296-.3.55-.54.764a2.474 2.474 0 0 1-.898.494c-.36.118-.779.175-1.26.172l-1.025-.007-.016 2.598-1.373-.008.045-7.38 2.398.015zM144.855 171.875a3.457 3.457 0 0 0-.155-1.091 2.246 2.246 0 0 0-.46-.82 2.012 2.012 0 0 0-.732-.517 2.522 2.522 0 0 0-.97-.184l-1.434-.01-.032 5.196 1.434.009c.36.003.685-.056.973-.173.289-.117.535-.287.739-.508.203-.221.36-.493.469-.814.109-.32.165-.684.168-1.088m1.408.009a4.002 4.002 0 0 1-.28 1.488c-.183.45-.44.84-.768 1.164a3.41 3.41 0 0 1-1.182.753 4.161 4.161 0 0 1-1.533.262l-2.812-.018.045-7.38 2.81.018a4.151 4.151 0 0 1 1.53.282c.459.185.85.44 1.175.768.325.327.576.717.753 1.17.178.454.265.952.262 1.493M148.867 169.302l-.014 2.184 2.767.017-.007 1.097-2.767-.018-.018 3.006-1.377-.007.045-7.38 4.654.029-.007 1.091z" fill="#ACD3EF"/>
    <path d="M152.828 141.62h-45.165V80.907a3.285 3.285 0 0 1 3.285-3.285h26.195a3.287 3.287 0 0 1 3.22 2.632l12.465 61.368z" fill="#E1F2FF"/>
    <path d="M152.828 141.62h-45.165V80.907a3.285 3.285 0 0 1 3.285-3.285h26.195a3.287 3.287 0 0 1 3.22 2.632l12.465 61.368z" stroke="#ACD3EF" stroke-width="2" stroke-linecap="round"/>
    <path d="M180.385 149.62h-66.657a6.064 6.064 0 0 1-6.065-6.063V91.685a6.064 6.064 0 0 1 6.065-6.064h66.657a6.064 6.064 0 0 1 6.064 6.064v51.872a6.064 6.064 0 0 1-6.064 6.064" fill="#E1F2FF"/>
    <path d="M180.385 149.62h-66.657a6.064 6.064 0 0 1-6.065-6.063V91.685a6.064 6.064 0 0 1 6.065-6.064h66.657a6.064 6.064 0 0 1 6.064 6.064v51.872a6.064 6.064 0 0 1-6.064 6.064z" stroke="#ACD3EF" stroke-width="2" stroke-linecap="round"/>
    <path d="M164.569 134.182l-32.898-.19a2.255 2.255 0 0 1-2.242-2.268l.167-28.979a2.256 2.256 0 0 1 2.268-2.243l32.898.191a2.256 2.256 0 0 1 2.243 2.267l-.168 28.98a2.256 2.256 0 0 1-2.268 2.242" fill="#FFF"/>
    <path d="M164.569 134.182l-32.898-.19a2.255 2.255 0 0 1-2.242-2.268l.167-28.979a2.256 2.256 0 0 1 2.268-2.243l32.898.191a2.256 2.256 0 0 1 2.243 2.267l-.168 28.98a2.256 2.256 0 0 1-2.268 2.242z" stroke="#ACD3EF" stroke-width="2"/>
    <path d="M160.43 126.3l-24.513-.141a1.546 1.546 0 0 1-1.538-1.555l.102-17.472a1.547 1.547 0 0 1 1.555-1.538l24.513.142a1.545 1.545 0 0 1 1.538 1.555l-.1 17.472a1.548 1.548 0 0 1-1.557 1.538" fill="#E1F2FF"/>
    <path d="M160.43 126.3l-24.513-.141a1.546 1.546 0 0 1-1.538-1.555l.102-17.472a1.547 1.547 0 0 1 1.555-1.538l24.513.142a1.545 1.545 0 0 1 1.538 1.555l-.1 17.472a1.548 1.548 0 0 1-1.557 1.538z" stroke="#ACD3EF" stroke-width="2"/>
    <path d="M134.393 122.657c0-.187 3.38-3.308 5.207-4.98.659-.604 1.608-.593 2.257.022l3.648 3.462a.472.472 0 0 0 .675-.015l6.025-6.157c.603-.617 1.509-.69 2.185-.175l7.607 5.803-.026 3.793c-.006.885-.657 1.598-1.453 1.59l-25.146-.248c-.652-.007-1.162-.627-1.108-1.351l.129-1.744z" fill="#ACD3EF"/>
    <path d="M159.402 110.704a2.1 2.1 0 1 1-4.198-.044 2.1 2.1 0 0 1 4.198.044" fill="#FFF"/>
    <path d="M159.402 110.704a2.1 2.1 0 1 1-4.198-.044 2.1 2.1 0 0 1 4.198.044z" stroke="#ACD3EF" stroke-width="2"/>
    <path fill="#FFF" d="M114.556 209.299h85v-85h-85z"/>
    <path stroke="#5E63B6" stroke-width="2" d="M114.556 209.299h85v-85h-85z"/>
    <path fill="#E1F2FF" d="M92.453 209.252h21.934v-32.306H92.453z"/>
    <path stroke="#5E63B6" stroke-width="2" d="M92.453 209.252h21.934v-32.306H92.453z"/>
    <path fill="#FFF" d="M40.365 209.681h43.703v-94.163H40.365z"/>
    <path stroke="#5E63B6" stroke-width="2" d="M40.365 209.681h43.703v-94.163H40.365z"/>
    <path d="M190.847 18v7M194.347 21.5h-7M54.827 58.132v7M58.327 61.632h-7" stroke="#5E63B6" stroke-width="2" stroke-linecap="round" stroke-linejoin="round"/>
    <path d="M135.527 56.163V60.1M137.495 58.132h-3.938M22.409 168.943v3.938M24.377 170.912H20.44" stroke="#5E63B6" stroke-linecap="round"/>
    <path d="M51.046 158.741h20.221M51.046 166.007h20.221M51.046 173.272h20.221" stroke="#ACD3EF" stroke-width="2" stroke-linecap="round"/>
    <path d="M188.577 205.538v-14.25" stroke="#E1F2FF" stroke-width="2" stroke-linecap="round"/>
    <path d="M119.61 205.538v-24.25" stroke="#5E63B6" stroke-width="2" stroke-linecap="round"/>
    <text font-family="Lato-Bold, Lato" font-size="18" font-weight="bold" fill="#5E63B6" transform="translate(3 17)">
      <tspan x="130.176" y="149.87">ASSET</tspan>
    </text>
    <g>
      <path fill="#E1F2FF" d="M141.643 201.117l33.098-8.846.238-1.995h-33.336z"/>
      <path d="M173.614 192.444h-28.917a2.135 2.135 0 0 1-2.135-2.136v-.904c0-1.179.956-2.135 2.135-2.135h28.917c1.18 0 2.136.956 2.136 2.135v.904c0 1.18-.956 2.136-2.136 2.136" fill="#FFF"/>
      <path d="M173.614 192.444h-28.917a2.135 2.135 0 0 1-2.135-2.136v-.904c0-1.179.956-2.135 2.135-2.135h28.917c1.18 0 2.136.956 2.136 2.135v.904c0 1.18-.956 2.136-2.136 2.136z" stroke="#5E63B6" stroke-width="2"/>
      <path d="M107.663 182.478H92.549" fill="#E1F2FF"/>
      <path d="M107.663 182.478H92.549" stroke="#5E63B6" stroke-width="2" stroke-linecap="round"/>
      <g>
        <path d="M99.734 203.307h-7.187" fill="#E1F2FF"/>
        <path d="M99.734 203.307h-7.187" stroke="#5E63B6" stroke-width="2" stroke-linecap="round"/>
      </g>
    </g>
    <path d="M169.77 219.392h9.14" stroke="#5E63B6" stroke-width="2" stroke-linecap="round" stroke-linejoin="round"/>
  </g>
</svg>
