<svg xmlns="http://www.w3.org/2000/svg" width="256" height="256">
  <g fill="none" fill-rule="evenodd">
    <path fill="#E1F2FF" fill-rule="nonzero" d="M25 228.56C25 171.36 71.37 125 128.56 125c57.2 0 103.56 46.37 103.56 103.56H25z"/>
    <g fill="#FFF" fill-rule="nonzero" stroke="#375D81" stroke-width="3" stroke-linecap="round" stroke-linejoin="round">
      <path d="M20 220h36M62 220h176.9M246 220h6.97M3 220h8.97M95 230h67.2M171 230h9.14M87 229l-5 .08"/>
    </g>
    <g stroke="#375D81" stroke-linecap="round">
      <path stroke-width="2" d="M206.98 68.4v7M210.48 71.9h-7M80 24v7M84 28h-7" stroke-linejoin="round"/>
      <path d="M42.73 188.68v3.94M44.7 190.65h-3.94"/>
      <path d="M217.73 128.68v3.94M219.7 130.65h-3.94" stroke-linejoin="round"/>
      <path d="M48.73 88.68v3.94M50.7 90.65h-3.94"/>
      <path fill="#FFF" fill-rule="nonzero" stroke-width="2" d="M26.42 127.28v8.12M30.48 131.34h-8.13"/>
    </g>
    <g transform="translate(30 115)">
      <path fill="#9452BA" fill-rule="nonzero" stroke="#52267D" stroke-width="2" d="M50.08 103.5h5c1.72 0 3.26-1.03 3.9-2.63 1.76-4.55 1.32-8.73 1.53-12.3.4-6.64-.63-10-1.62-15.57l-7.47.17s.65 2.75 1.07 11c.13 2.56-4.1 12.82-3.9 17.85.03.82.7 1.47 1.5 1.5zM35.6 79.85l-6-6.82-3.72.15-.73 8c-.67 5.4-1.73 10.75-3.18 16-.32 1.06-.53 2.15-.6 3.26-.02.8.3 1.57.86 2.14.57.57 1.34.88 2.14.86h4.4c2.58 0 4.83-1.7 5.5-4.2 1.9-7.68 1.32-19.4 1.32-19.4z"/>
      <path stroke="#52267D" stroke-width=".5" d="M27.14 84.54l-1 .88.95.85 1.54-.6-.3-.67-1.3.3.02.23h.33"/>
      <path fill="#9452BA" fill-rule="nonzero" stroke="#52267D" stroke-width="2" d="M27.17 54.46c4.38-.1 8.48-3.1 17.42-3.52.1-.53.26-1.05.48-1.54 1.62-3.5 3.9-13.6 2.43-20.22l-1.15-5.25c-.38-1.72-.57-3.48-.57-5.24 0-.73.07-1.45.22-2.15.03-.17.07-.34.12-.5.13-.52.3-1 .5-1.5l.2-.46c.16-.32.32-.62.5-.9.18-.3.37-.6.57-.86.6-.82 1.33-1.55 2.15-2.16.27-.2.56-.4.85-.57 1.66-1 3.57-1.53 5.52-1.53h1.74c2.82 0 5.53 1.12 7.52 3.12.24.23.47.48.7.75.38.48.74 1 1.04 1.53.12.2.23.4.33.62.1.2.15.3.2.47.42.97.68 2 .8 3.05.03.36.04.73.04 1.1 0 .7-.3 1.37-.8 1.86-.48.5-1.16.78-1.86.78h-10.9l1.66 9.45c1.93 9.72 1.35 16.2-.15 20.54-.33 1-2.24 4.4-2.24 4.4 5.46 8.58 13.8 12.34 22.74 13.43 7.6.93 24-6 15.53-14s1.76-3 3.26-2c1.5 1 10.2 8.52.76 19.54-4 4.67-8.52 8.9-19.38 12.15-1.74.52-11.25 1.2-16.38 2.68-15.25 4.38-27.64-.38-34.6-10.45-6.94-10.07-1-22.6.73-22.62z"/>
      <path fill="#9452BA" fill-rule="nonzero" stroke="#52267D" stroke-width="2" d="M36.63 40C37 28.73 28 19.88 17.9 18c-2.12-.4-2.8-1-5.1-1H11C5.05 17 .22 21.83.22 27.78c0 1.5 1.2 2.7 2.7 2.7h18.2c4 1.7 6.5 6.8 6.93 9.56.67 3.3.26 6.72-1.17 9.76-.78 1.74-1.07 3.65-.85 5.54h.1c.08 1.05.24 2.1.48 3.12 1.72-1.2 4.37-3 4.85-3.23 1-.55 3.4-1.8 4.47-2.42 6.78-3.88.5-6.4.7-12.8z"/>
      <path fill="#F3E3FF" fill-rule="nonzero" stroke="#52267D" d="M30.86 53c-.1-1.74-.35-2.63-.16-3.34 1.12-4.07 1.5-5.36 1.5-9.67-.1-4.42-2.44-8.48-6.2-10.8-1.73-.22-3.48.2-4.9 1.2 4 1.7 6.5 6.83 6.93 9.58.67 3.3.26 6.72-1.17 9.76-.78 1.74-1.07 3.65-.85 5.54 0 0 5 1.86 4.86-2.28"/>
      <path fill="#FFF" fill-rule="nonzero" stroke="#52267D" d="M5.36 18.8c.06-1.18.8-2.2 1.87-2.64l1.6-.65s1.12 2.37-.14 2.96c-1.04.5-2.23.63-3.34.33zM10 17.47c.1-1.6 1.4-2.87 3-2.94.54-.07 1.94 0 1.94 0s.65 2.7-.87 3c-1.35.17-2.72.15-4.07-.06zM15.78 17.7s.38-2.83 2.93-2.05c.68.2 1.27.6 1.7 1.16 0 0-.5 2.18-1.5 1.93-1.07-.25-2.1-.6-3.12-1.02zM23.2 31.52s6-3.24 4.82-8.7c1.32 1.13 2.55 2.35 3.67 3.66 0 1.07.2 5.3-5.66 8.14-.88-1.1-1.83-2.13-2.84-3.1z"/>
      <path fill="#F3E3FF" fill-rule="nonzero" d="M6.18 18.27c.03-.6.42-1.15 1-1.36l.83-.33s.6 1.22-.07 1.53c-.54.27-1.17.33-1.75.17zM11.28 16.9c.05-.82.7-1.46 1.5-1.5h1s.33 1.37-.45 1.5c-.68.1-1.37.1-2.05 0zM16.7 17.5s.2-1.5 1.56-1.08c.35.1.67.33.9.62 0 0-.27 1.15-.8 1-.57-.13-1.13-.3-1.66-.53z"/>
      <path fill="#F3E3FF" fill-rule="nonzero" d="M14.7 23.65h.47c1.37 0 2.48 1.1 2.48 2.48 0 1.37-1.1 2.48-2.48 2.48H9.72c0-2.75 2.24-5 5-5l-.03.05z" opacity=".3"/>
      <path fill="#FFF" fill-rule="nonzero" stroke="#52267D" d="M13.72 24.62h1c1.1 0 2 .9 2 2s-.9 2-2 2h-4.9c-.03-1.05.37-2.07 1.1-2.82.74-.76 1.75-1.18 2.8-1.18z"/>
      <circle cx="11.79" cy="27.46" r="1.09" fill="#52267D" fill-rule="nonzero"/>
      <path fill="#52267D" fill-rule="nonzero" d="M2.68 29.6c.3-.07.58-.24.78-.5l.37-.45-.8.17-.5.1c-.08.02-.16.07-.2.15-.05.08-.07.17-.05.26.02.1.07.17.14.22.08.05.17.07.26.05z"/>
      <path fill="#EAF3FB" fill-rule="nonzero" d="M24.2 31.63s4.6-2.47 4.53-7.45c.98.62 1.83 1.42 2.5 2.36-.18 1.3-.67 2.5-1.44 3.56-1.7 1.84-3.48 2.4-5.6 1.53z"/>
      <path fill="#FFF" fill-rule="nonzero" stroke="#52267D" d="M28.55 30.75C27.5 31.8 26.3 32.73 25 33.47"/>
      <path fill="#9452BA" fill-rule="nonzero" stroke="#52267D" stroke-width="2" d="M46.54 50.1l-1-2c-3.82-9.38-4.4-14.9-2.43-23.84L44.26 19c.38-1.72.57-3.48.57-5.24 0-5.88-4.76-10.64-10.64-10.64h-1.7c-5.8 0-10.48 4.7-10.48 10.5v.3c0 1.37 1.12 2.5 2.5 2.5h10.85l-1.65 9.44c-5 25.33-4.54 35.6 5.4 33.5"/>
      <path fill="#FFF" fill-rule="nonzero" stroke="#52267D" d="M27.22 4.37c.16-1.15.92-2.14 2-2.58.47-.13.96-.13 1.43 0 0 0 1.06 1.64-.18 2.23-1 .5-2.16.62-3.25.34zM31.58 3.77c.1-1.8 1.54-3.22 3.33-3.33.47-.04.94-.04 1.4 0 0 0 1.54 3.05-.18 3.35-1.5.2-3.03.18-4.54-.03zM37.43 4.43s.44-2.78 2.93-1.95c.65.22 1.22.63 1.64 1.18 0 0-.55 2.1-1.54 1.84-1.04-.27-2.05-.63-3.03-1.07z"/>
      <path fill="#F3E3FF" fill-rule="nonzero" stroke="#52267D" d="M27.4 54.12c.53-.4 1.14-.7 1.8-.86M31 54.07c-1.78-7.22 1.43-21 2-24.43L35.35 16h1c.64.06 1.23.4 1.62.9.4.5.57 1.15.47 1.8l-1.7 11.8c-.56 4-1.16 22.5 5.8 26.5 1.47.84 3.88.28 4.8-.15 3.3-1.58 4.24-5.7 5-9 1.5-6.87.32-12.26 0-17.65L52 23.48c-.07-1.26.86-2.34 2.1-2.48h1.25l2.24 13.62c.66 3.88 2.4 17.32-5.53 23.63-.14.1 1.93.58 1.33 1.64-2.38 4.2-9.3 4.87-10.6 6.67-5 6.94-.3 21.74-.3 21.74-3.25-1.3-6.28-3.1-9-5.3-8-7.2-9.08-17.65-9.12-20.72 0-3.68.92-6 2.1-7.32"/>
      <path fill="#FFF" fill-rule="nonzero" stroke="#52267D" d="M96.3 60.1c.7-.85.9-2 .5-3-.2-.42-.5-.76-.9-1 0 0-1.77.3-1.4 1.5.27 1.03.92 1.9 1.8 2.5z"/>
      <path fill="#F3E3FF" fill-rule="nonzero" d="M95.94 58.33c.23-.28.3-.66.18-1-.07-.14-.2-.26-.32-.34 0 0-.62.1-.5.52.12.34.34.62.64.8z"/>
      <path fill="#FFF" fill-rule="nonzero" stroke="#52267D" d="M87 69.16c-.6-1.55.04-3.32 1.5-4.1.38-.23.77-.42 1.18-.57 0 0 2.5 2 1.16 2.9-1.2.75-2.5 1.35-3.84 1.76z"/>
      <path fill="#F3E3FF" fill-rule="nonzero" d="M87.86 68.23c-.34-.86.02-1.84.84-2.28.2-.12.42-.23.65-.3 0 0 1.38 1.08.64 1.6-.67.42-1.4.75-2.14.98z"/>
      <path fill="#FFF" fill-rule="nonzero" stroke="#52267D" d="M94.87 61s1.88 1.65.08 3.13c-.48.38-1.06.62-1.67.67 0 0-1.33-1.42-.66-2 .7-.66 1.45-1.26 2.25-1.8z"/>
      <path fill="#F3E3FF" fill-rule="nonzero" d="M94.6 62.22s.83.73 0 1.4c-.2.16-.47.27-.74.3 0 0-.6-.64-.3-.9.33-.3.67-.57 1.04-.8z"/>
      <path fill="#FFF" fill-rule="nonzero" stroke="#52267D" d="M77.93 70.46c-.34-1.35.47-2.72 1.8-3.08 2.44-.88 3.1-.15 3.1-.15s1.33 2.26.13 3c-1.2.74-5.03.23-5.03.23z"/>
      <path fill="#F3E3FF" fill-rule="nonzero" d="M79.07 70c-.17-.7.24-1.4.94-1.6 1.27-.46 1.6-.08 1.6-.08s.7 1.17.08 1.55c-.85.22-1.74.27-2.6.13z"/>
      <path fill="#FFF" fill-rule="nonzero" stroke="#52267D" d="M34.82 19.34c2.94 1.35 6.32 1.43 9.32.2L43 24.65s-5 1.54-8.94-.9c.4-2.24.76-4.4.76-4.4zM63.8 9.5c-.16-1.16-.92-2.15-2-2.6-.68-.17-1.38-.27-2.08-.3 0 0-.43 2 .82 2.56 1 .5 2.17.62 3.26.34zM59.12 8.55c-.1-1.56-1.34-2.8-2.9-2.9-.4-.03-.8-.03-1.2 0 0 0-1.35 2.66.15 2.92 1.3.17 2.64.17 3.95-.02zM53.73 8.74s-.45-2.8-2.95-2c-.66.24-1.24.68-1.65 1.26 0 0 .56 2.12 1.55 1.86 1.05-.3 2.07-.66 3.05-1.12z"/>
      <path fill="#F3E3FF" fill-rule="nonzero" d="M28.18 3.9c.1-.6.5-1.13 1.07-1.37.25-.07.52-.07.77 0 0 0 .57.88-.1 1.2-.54.26-1.16.33-1.74.18zM32.66 3.28c.07-1.12.97-2.02 2.1-2.1h.86s1 1.92-.1 2.1c-.96.14-1.9.13-2.86 0zM38.5 4.15s.27-1.6 1.7-1.12c.37.13.7.37.94.68 0 0-.32 1.23-.9 1.07-.6-.16-1.17-.36-1.73-.62zM62.9 9c-.1-.6-.5-1.14-1.08-1.37-.36-.1-.73-.14-1.1-.15 0 0-.23 1 .43 1.35.54.27 1.16.33 1.74.17zM58 8.1c-.05-.85-.74-1.54-1.6-1.6h-.67S55 8 55.83 8.13c.7.1 1.45.1 2.17 0zM52.73 8.55s-.24-1.53-1.6-1.07c-.37.12-.68.35-.9.65 0 0 .3 1.16.84 1 .57-.15 1.12-.34 1.66-.58z"/>
      <path fill="#FFF" fill-rule="nonzero" stroke="#52267D" d="M46.4 24.14c3.12.42 6.28.3 9.36-.37.44 2.48.73 4.35.73 4.35s-3.17 2.15-9 .9c-.7-3.18-1.1-4.88-1.1-4.88z"/>
      <path fill="#F3E3FF" fill-rule="nonzero" d="M59.77 19.33h-5.45c-1.37 0-2.48-1.1-2.48-2.48 0-1.37 1.1-2.48 2.48-2.48h.48c2.76 0 5 2.24 5 5l-.03-.04z" opacity=".3"/>
      <path fill="#FFF" fill-rule="nonzero" stroke="#52267D" d="M59.68 19.22h-4.76c-1.15 0-2.1-.94-2.1-2.1 0-1 .82-1.8 1.82-1.8h1.14c2.15 0 3.9 1.75 3.9 3.9z"/>
      <circle cx="57.33" cy="16.98" r="1.09" fill="#52267D" fill-rule="nonzero"/>
      <path fill="#F3E3FF" fill-rule="nonzero" d="M35 9.65h.48c.66 0 1.3.25 1.78.7.47.48.74 1.12.74 1.78 0 1.37-1.1 2.48-2.48 2.48H30c0-2.75 2.24-5 5-5v.05z" opacity=".3"/>
      <path fill="#FFF" fill-rule="nonzero" stroke="#52267D" d="M34 10.62h1c1.1 0 2 .9 2 2s-.9 2-2 2h-4.86c-.03-1.04.37-2.06 1.1-2.8.72-.76 1.72-1.2 2.76-1.2z"/>
      <circle cx="34.8" cy="13.36" r="1.09" fill="#52267D" fill-rule="nonzero"/>
      <path fill="#52267D" fill-rule="nonzero" d="M66.34 20.45c-.3-.07-.58-.24-.78-.5l-.37-.45.8.17.48.1c.1.02.17.07.22.15.04.08.06.17.04.26-.02.1-.07.17-.14.22-.08.05-.17.07-.26.05zM24.33 15.36c.3-.07.58-.24.78-.5l.38-.45-.8.18-.5.1c-.08.02-.16.07-.2.15-.05.08-.07.17-.05.26.02.08.07.16.14.2.08.06.17.08.26.06z"/>
      <path fill="#EAF3FB" fill-rule="nonzero" d="M35.3 20c2.6 1 5.5 1.06 8.14.15-.2 1.22-.47 2.44-.8 3.63-1.38.08-2.75.02-4.1-.18-2.33-.4-3.25-1.47-3.25-3.6z"/>
      <path fill="#FFF" fill-rule="nonzero" stroke="#52267D" d="M40.93 23.13c-2.24.16-4.5-.23-6.55-1.13"/>
      <path fill="#EAF3FB" fill-rule="nonzero" d="M54 24.68c-2.2.6-4.52.72-6.78.4.24 1.05.55 2.08.92 3.1 0 0 4.76-.64 5.86-3.5z"/>
      <path fill="#F3E3FF" fill-rule="nonzero" stroke="#52267D" stroke-width=".5" d="M52.07 58.26s-.22.16-.53.34"/>
      <path fill="#FFF" fill-rule="nonzero" stroke="#52267D" d="M54.35 26c-2.47.4-4.98.5-7.47.23"/>
      <path fill="#FFF" fill-rule="nonzero" stroke="#52267D" stroke-width=".5" d="M48.4 100.6c-.7-.48-1.65-.37-2.23.26-1.17 1-2 2.44-1.52 2.6.78.2 1.6.25 2.4.1.85-.14 1.6 0 1.93-1.74.1-.5-.14-.98-.57-1.23z"/>
      <path fill="#EAF3FB" fill-rule="nonzero" d="M48.2 100.88c-.45-.3-1.04-.22-1.4.17-.73.6-1.27 1.52-.95 1.6.5.14 1 .17 1.5.08.52-.1 1 0 1.2-1.1.05-.3-.1-.6-.36-.75z"/>
      <path fill="#FFF" fill-rule="nonzero" stroke="#52267D" stroke-width=".5" d="M49.77 100.57c.5-.07 1.24 1 1.16 1.37-.08.37-.14 1.45-1 1.57-.6.1-2.77.32-3.24-.15-.48-.47.44-2.42 3.07-2.78z"/>
      <path fill="#EAF3FB" fill-rule="nonzero" d="M49.9 100.88c.3 0 .74.6.7.8-.06.2-.1.86-.58.93-.5.08-1.63.2-1.9-.08-.3-.28.24-1.43 1.8-1.64z"/>
      <path fill="#FFF" fill-rule="nonzero" stroke="#52267D" stroke-width=".5" d="M51.92 100.8s-.44-.24-1.3.26c-.88.5-1.92 1.14-1.62 2 .3.86 2.73.55 3.26.36.53-.2.86-.73.78-1.3-.1-.6-.53-1.13-1.12-1.33z"/>
      <path fill="#EAF3FB" fill-rule="nonzero" d="M52.08 101.1s-.26-.14-.77.16c-.5.3-1.12.68-1 1.2.14.5 1.62.3 1.94.2.3-.1.5-.42.46-.75-.04-.35-.28-.66-.62-.8z"/>
      <path fill="#9452BA" fill-rule="nonzero" stroke="#52267D" stroke-width="2" d="M41.78 73c.23 4.84-.08 9.68-.93 14.45-1.33 8.22-3.7 10.8-3.5 12.93.12 1.65.82 3.16 2.48 3.16h4.94c2.3 0 4.35-1.48 5.08-3.66.77-2.33 1.3-4.74 1.6-7.18.27-3.56.35-7.13.2-10.7M67.1 76.7c-1.6 1.5-2.5 3.6-2.46 5.82 0 2.83 1.66 6.43.62 11.13-.93 4.2-2.77 4.93-2.22 8.7.1.67.7 1.17 1.4 1.16h5.5c2.55 0 4.7-1.83 5.13-4.33.83-5.93.6-11.96-.63-17.8"/>
      <path stroke="#52267D" stroke-width=".5" d="M68.2 82.93l.32-.24 1.04.23-1.16.74-1.4-.7 1.46-1.15.66.22"/>
      <path fill="#FFF" fill-rule="nonzero" stroke="#52267D" d="M38.4 100.6c-.7-.48-1.65-.37-2.23.26-1.17 1-2 2.44-1.52 2.6.78.2 1.6.25 2.4.1.85-.14 1.6 0 1.93-1.74.1-.5-.14-.98-.57-1.23z"/>
      <path fill="#EAF3FB" fill-rule="nonzero" d="M38.2 100.88c-.45-.3-1.04-.22-1.4.17-.73.6-1.27 1.52-.95 1.6.5.14 1 .17 1.5.08.52-.1 1 0 1.2-1.1.05-.3-.1-.6-.36-.75z"/>
      <path stroke="#52267D" stroke-width=".5" d="M45.97 86.03l-1.97.62.26 1.82 2.02.15.94-1.1-1.2-.66-1 .3.63.7"/>
      <g stroke="#F3E3FF" stroke-width=".25" opacity=".3">
        <path d="M3.8 26c-.03.2.07.4.24.53.18.1.4.1.6 0 .16-.12.26-.32.23-.53"/>
        <path d="M2.73 26c-.03.2.07.4.24.53.18.1.4.1.6 0 .16-.12.26-.32.23-.53"/>
        <path d="M3.26 26.54c.04.27.27.47.53.47s.5-.2.53-.46M24.33 25.5c.24.17.56.2.82.06.26-.13.43-.4.43-.7 0-.3-.16-.56-.42-.7"/>
        <path d="M24.58 26.6c.24.16.56.2.82.05.26-.13.43-.4.43-.7 0-.3-.16-.56-.42-.7M49.76 43.5c0 .4.32.72.72.72.4 0 .72-.32.72-.72M48.32 43.5c0 .4.32.72.72.72.4 0 .72-.32.72-.72M49 44.22c0 .4.32.72.72.72.4 0 .72-.32.72-.72M28.3 89c0 .4.3.72.7.72.4 0 .73-.32.73-.72M26.86 89c0 .4.32.72.72.72.4 0 .72-.32.72-.72M27.57 89.75c0 .4.32.72.72.72.4 0 .7-.32.7-.72M48.64 20.6c0 .43.35.78.8.78.43 0 .78-.35.78-.8"/>
        <path d="M47.85 21.38c0 .44.35.8.8.8.43 0 .78-.36.78-.8M38.55 34.54c-.12.4.03.85.38 1.1.35.24.8.24 1.16 0 .34-.25.5-.7.37-1.1"/>
        <path d="M37.6 35.5c.1.43.5.72.95.72.44 0 .84-.3.96-.72M24.6 10.68c0 .35.3.64.65.64.35 0 .64-.3.64-.64M24 11.33c0 .35.3.64.64.64.35 0 .64-.3.64-.64M85 75.4c.28.3.75.33 1.06.05.32-.27.35-.75.07-1.06"/>
        <path d="M84.93 76.43c.28.3.75.34 1.06.06.3-.28.34-.76.06-1.07M55.65 65.2c.22.4.7.56 1.13.37.4-.2.6-.67.45-1.1M54.07 65.9c.22.4.7.58 1.13.4.4-.2.6-.68.45-1.1M55.22 66.34c.22.4.7.57 1.13.38.4-.2.6-.67.45-1.1"/>
        <path d="M53.64 67.06c.22.4.7.57 1.13.38.4-.2.6-.67.45-1.1M56.37 66.76c.12.3.4.52.7.56.33.03.65-.1.83-.38.2-.27.2-.6.05-.9M40.55 17.17c0 .48.4.88.88.88s.87-.4.87-.88M40.25 50.22c0 .48.4.88.88.88s.87-.4.87-.88M50.16 32c0 .37.3.66.67.66.36 0 .66-.3.66-.66M65.94 16.95c0 .28.22.5.5.5s.5-.22.5-.5M70.08 90c.08.47.54.8 1 .7.48-.07.8-.53.72-1M45.92 96.5c.12.42.52.7.96.7.44 0 .84-.28.96-.7M45 97.45c.12.43.52.72.96.72.44 0 .84-.3.96-.72"/>
      </g>
      <path fill="#FFF" fill-rule="nonzero" stroke="#52267D" d="M39.78 100.57c.5-.07 1.24 1 1.16 1.37-.08.37-.14 1.45-1 1.57-.6.1-2.77.32-3.24-.15-.47-.47.45-2.42 3.08-2.78z"/>
      <path fill="#EAF3FB" fill-rule="nonzero" d="M39.92 100.88c.3 0 .73.6.68.8-.05.2-.08.86-.57.93-.5.08-1.63.2-1.9-.08-.3-.28.24-1.43 1.8-1.64z"/>
      <path fill="#FFF" fill-rule="nonzero" stroke="#52267D" d="M41.58 101.12s-.4-.2-1.16.24c-.77.44-1.7 1-1.42 1.78.27.78 2.4.48 2.9.32.46-.17.75-.64.68-1.14-.08-.56-.47-1.02-1-1.2z"/>
      <path fill="#EAF3FB" fill-rule="nonzero" d="M41.73 101.4s-.23-.13-.68.13c-.45.26-1 .6-.84 1.05.17.45 1.44.3 1.72.2.28-.1.45-.4.4-.68-.04-.33-.27-.6-.6-.7z"/>
      <path fill="#FFF" fill-rule="nonzero" stroke="#52267D" d="M21.3 101.33s-.4-.2-1.16.24c-.77.44-1.7 1-1.42 1.78.27.78 2.4.48 2.9.32.46-.17.75-.64.68-1.14-.08-.56-.47-1.02-1-1.2z"/>
      <path fill="#EAF3FB" fill-rule="nonzero" d="M21.45 101.6s-.23-.12-.68.14c-.45.26-1 .6-.84 1.05.16.44 1.43.28 1.7.18.3-.1.46-.38.42-.67-.05-.32-.28-.6-.6-.7z"/>
      <path fill="#FFF" fill-rule="nonzero" stroke="#52267D" d="M23.65 100.8c.5-.08 1.24 1 1.16 1.36-.07.37-.13 1.45-1 1.57-.6.1-2.76.3-3.23-.16-.47-.47.43-2.43 3.08-2.78z"/>
      <path fill="#EAF3FB" fill-rule="nonzero" d="M23.8 101.1c.3 0 .72.6.67.8-.05.2-.08.85-.57.92-.5.07-1.63.2-1.9-.1-.3-.27.24-1.42 1.8-1.63z"/>
      <path fill="#FFF" fill-rule="nonzero" stroke="#52267D" stroke-width=".5" d="M65.14 100.6c-.7-.48-1.66-.37-2.24.26-1.17 1-2 2.44-1.52 2.6.78.2 1.6.25 2.4.1.85-.14 1.6 0 1.93-1.74.1-.5-.13-.98-.56-1.23z"/>
      <path fill="#EAF3FB" fill-rule="nonzero" d="M64.92 100.88c-.44-.3-1.03-.22-1.4.17-.72.6-1.26 1.52-.94 1.6.5.14 1 .17 1.5.08.52-.1 1 0 1.2-1.1.05-.3-.1-.6-.36-.75z"/>
      <path fill="#FFF" fill-rule="nonzero" stroke="#52267D" stroke-width=".5" d="M66.5 100.57c.52-.07 1.25 1 1.17 1.37-.08.37-.14 1.45-1 1.57-.6.1-2.77.32-3.24-.15-.47-.47.45-2.42 3.08-2.78z"/>
      <path fill="#EAF3FB" fill-rule="nonzero" d="M66.65 100.88c.3 0 .73.6.68.8-.05.2-.08.86-.57.93-.5.08-1.63.2-1.9-.08-.3-.28.24-1.43 1.8-1.64z"/>
      <path fill="#FFF" fill-rule="nonzero" stroke="#52267D" stroke-width=".5" d="M68.3 101.12s-.38-.2-1.15.24c-.77.44-1.7 1-1.42 1.78.27.78 2.4.48 2.9.32.46-.17.75-.64.68-1.14-.07-.56-.46-1.02-1-1.2z"/>
      <path fill="#EAF3FB" fill-rule="nonzero" d="M68.46 101.4s-.23-.13-.68.13c-.45.26-1 .6-.84 1.05.16.45 1.43.3 1.7.2.3-.1.46-.4.42-.68-.05-.33-.28-.6-.6-.7z"/>
      <path fill="#FFF" fill-rule="nonzero" stroke="#52267D" d="M30.32 101.26c.13-.13.34-.17.5-.1.6.28 2.07 1.06 1.76 2.12-.24.82-.74.58-1.7.6h-.73c-.15 0-.3-.1-.37-.22-.4-.8-.2-1.78.5-2.37l.04-.04z"/>
      <path fill="#EAF3FB" fill-rule="nonzero" d="M30.4 101.5c.1-.1.23-.12.36-.07.42.2 1.5.77 1.27 1.54-.17.6-.54.42-1.24.43h-.54c-.1 0-.2-.05-.27-.15-.3-.6-.15-1.3.34-1.72l.05-.03z"/>
      <path fill="#FFF" fill-rule="nonzero" stroke="#52267D" d="M26.9 100.95c-.66-.53-1.6-.5-2.24.08-1.24.86-2.24 2.26-1.74 2.45.76.28 1.58.4 2.4.32.84-.08 1.57.14 2.05-1.58.13-.48-.06-.98-.46-1.27z"/>
      <path fill="#EAF3FB" fill-rule="nonzero" d="M26.67 101.2c-.4-.33-1-.33-1.4 0-.77.54-1.4 1.4-1.08 1.53.47.18.97.24 1.48.2.53-.05 1 .1 1.28-1 .05-.28-.06-.56-.3-.72z"/>
    </g>
    <g>
      <path fill="#FFF" d="M197.22 176H80.78C74.83 176 70 171.17 70 165.2V90.8C70 84.82 74.83 80 80.78 80h116.44c5.95 0 10.78 4.83 10.78 10.8v74.4c0 5.97-4.83 10.8-10.78 10.8"/>
      <path stroke="#375D81" stroke-width="3" d="M197.22 176H80.78C74.83 176 70 171.17 70 165.2V90.8C70 84.82 74.83 80 80.78 80h116.44c5.95 0 10.78 4.83 10.78 10.8v74.4c0 5.97-4.83 10.8-10.78 10.8z"/>
      <path fill="#FFF" d="M79 168h114V88H79"/>
      <path stroke="#9ACDED" stroke-width="2" d="M79 168h114V88H79z"/>
      <path stroke="#375D81" stroke-width="2" d="M204 128.5c0 1.93-1.57 3.5-3.5 3.5s-3.5-1.57-3.5-3.5 1.57-3.5 3.5-3.5 3.5 1.57 3.5 3.5z"/>
      <g fill="#9452BA">
        <path d="M102.67 140.97c0-1.35-.03-2.48-.07-3.4-.05-.94-.2-1.74-.42-2.4-.23-.66-.6-1.22-1.06-1.7-.48-.45-1.15-.9-2-1.34v-.46c.62-.32 1.16-.66 1.6-1.02.47-.36.83-.78 1.1-1.24.3-.45.5-.98.62-1.57.13-.6.2-1.3.2-2.08 0-1.64.04-3.1.15-4.35.1-1.25.37-2.3.82-3.15.46-.85 1.13-1.48 2.04-1.9.9-.44 2.15-.66 3.73-.66h.47c.05.22.08.45.1.67.03.22.04.46.04.7 0 .27 0 .5-.02.73l-.1.64c-.9 0-1.6.1-2.1.28-.5.2-.9.5-1.16.92-.27.43-.44.98-.52 1.66-.1.67-.13 1.5-.13 2.47v.2c0 1.3-.04 2.36-.14 3.25-.1.88-.25 1.62-.48 2.2-.24.6-.54 1.1-.93 1.47-.38.37-.85.7-1.4.98.55.3 1.02.65 1.4 1.03.4.4.7.88.93 1.47.23.6.4 1.33.48 2.2.1.9.14 1.97.14 3.25v.25c0 .95.04 1.76.13 2.43.08.68.25 1.22.52 1.64.26.42.65.73 1.16.92.5.2 1.2.3 2.1.3l.1.64c.02.22.03.46.03.72 0 .23 0 .46-.02.7l-.1.7c-1.4 0-2.55-.15-3.47-.43-.9-.3-1.65-.72-2.2-1.3-.56-.58-.95-1.32-1.2-2.23-.22-.9-.33-1.97-.33-3.2M170.83 122.83c0 1.35.02 2.48.07 3.4.05.94.2 1.74.42 2.4.23.66.58 1.22 1.06 1.7.48.45 1.14.9 2 1.34v.46c-.62.32-1.16.66-1.62 1.02-.45.36-.82.78-1.1 1.24-.27.45-.48.98-.6 1.58-.13.6-.2 1.28-.2 2.07 0 1.64-.05 3.1-.15 4.35-.1 1.25-.37 2.3-.83 3.15-.45.85-1.13 1.5-2.03 1.92-.9.42-2.15.64-3.73.64h-.48c-.04-.22-.08-.45-.1-.67-.02-.22-.04-.46-.04-.7 0-.27.02-.5.04-.73.02-.22.06-.43.1-.64.9 0 1.58-.1 2.1-.28.5-.2.9-.5 1.16-.92.27-.43.44-.98.52-1.66.08-.67.12-1.5.12-2.47v-.2c0-1.28.05-2.36.14-3.25.1-.88.26-1.6.5-2.2.22-.6.53-1.1.9-1.47.4-.37.87-.7 1.42-.98-.55-.3-1.02-.65-1.4-1.03-.4-.4-.7-.88-.93-1.47-.23-.6-.4-1.33-.5-2.2-.08-.9-.13-1.97-.13-3.25v-.24c0-.96-.04-1.77-.12-2.44-.08-.68-.25-1.22-.52-1.64-.27-.42-.66-.72-1.17-.92-.5-.2-1.2-.3-2.08-.3-.04-.2-.08-.42-.1-.64-.02-.22-.04-.46-.04-.72 0-.23.02-.46.04-.7.02-.22.06-.46.1-.7 1.4 0 2.55.15 3.47.43.9.3 1.64.72 2.2 1.3.56.58.95 1.32 1.18 2.23.23.9.35 1.97.35 3.2M117 134.35l-.15-1.2c-.05-.4-.07-.8-.07-1.2 0-.4.02-.83.07-1.25.04-.43.1-.84.15-1.25.4-.06.8-.1 1.2-.13.4-.03.8-.05 1.2-.05.42 0 .83.02 1.23.05.4.03.82.07 1.23.13.06.4.1.82.15 1.22.06.4.08.82.08 1.23 0 .4-.02.82-.07 1.23-.03.4-.08.8-.14 1.22-.4.06-.8.1-1.2.13-.4.03-.8.05-1.2.05-.42 0-.82-.02-1.23-.05-.4-.03-.82-.07-1.23-.13M134.4 134.35c-.07-.4-.12-.8-.16-1.2-.04-.4-.07-.8-.07-1.2 0-.4.03-.83.07-1.25.04-.43.1-.84.15-1.25.4-.06.8-.1 1.2-.13.4-.03.8-.05 1.2-.05.4 0 .82.02 1.23.05.4.03.8.07 1.22.13l.16 1.22c.05.4.07.82.07 1.23 0 .4-.02.82-.06 1.23l-.15 1.22c-.4.06-.8.1-1.2.13-.4.03-.8.05-1.2.05-.4 0-.82-.02-1.23-.05-.4-.03-.82-.07-1.23-.13M151.78 134.35l-.15-1.2c-.04-.4-.06-.8-.06-1.2 0-.4.02-.83.06-1.25.04-.43.1-.84.15-1.25.4-.06.8-.1 1.2-.13.4-.03.8-.05 1.2-.05.42 0 .83.02 1.24.05.4.03.8.07 1.22.13l.16 1.22c.04.4.06.82.06 1.23 0 .4-.02.82-.06 1.23l-.16 1.22c-.4.06-.8.1-1.2.13-.4.03-.8.05-1.2.05-.4 0-.82-.02-1.23-.05-.4-.03-.8-.07-1.22-.13"/>
      </g>
    </g>
    <g fill="#FFF" fill-rule="nonzero" stroke="#375D81" stroke-width="3" stroke-linecap="round" stroke-linejoin="round">
      <path d="M169.5 153.5l6 7M186.5 145.5l-11 15"/>
    </g>
  </g>
</svg>