<svg xmlns="http://www.w3.org/2000/svg" width="256" height="256" xmlns:xlink="http://www.w3.org/1999/xlink">
  <defs>
    <path id="a" d="M7 0h91v44H7z"/>
  </defs>
  <g fill="none" fill-rule="evenodd" transform="translate(3 22)">
    <path fill="#E1F2FF" fill-rule="nonzero" d="M21.5 208.9c0-57.2 46.38-103.56 103.57-103.56 57.2 0 103.56 46.37 103.56 103.56H21.5z"/>
    <path stroke="#375D81" d="M107.86 19.58v3.94M109.83 21.55h-3.94M220.15 160.44v4.78M222.53 162.83h-4.77" stroke-linecap="round"/>
    <path fill="#FFF" fill-rule="nonzero" stroke="#375D81" d="M228.52 81.95v4.77M230.9 84.34h-4.77" stroke-linecap="round" stroke-linejoin="round"/>
    <path fill="#FFF" fill-rule="nonzero" stroke="#375D81" stroke-width="2" d="M243.17 200.14h6.97" stroke-linecap="round" stroke-linejoin="round"/>
    <path fill="#E1F2FF" fill-rule="nonzero" stroke="#9ACDED" stroke-width="2" d="M230.54 200.1h-38l3.9-22.87c.55-3.23 3.35-5.6 6.62-5.6H220c3.27 0 6.07 2.37 6.62 5.6l3.92 22.88z"/>
    <circle cx="211.56" cy="166.69" r="5.64" stroke="#9ACDED" stroke-width="2"/>
    <path fill="#E1F2FF" fill-rule="nonzero" stroke="#9ACDED" stroke-width="2" d="M59.5 116.22l25.5 62.6c.52 1.27.5 2.7-.02 3.97-.54 1.26-1.56 2.27-2.84 2.8-1.28.5-2.7.5-3.98-.03-1.27-.54-2.28-1.56-2.8-2.84l-25.54-62.6c-.52-1.28-.5-2.7.02-3.98.54-1.27 1.56-2.28 2.84-2.8 1.3-.54 2.73-.53 4.02 0 1.28.55 2.3 1.58 2.8 2.87z"/>
    <path stroke="#9ACDED" stroke-width="2" d="M73.35 177.9l5.66-2.3M71.22 172.67l3.5-1.42M69.1 167.44l3.5-1.4M66.98 162.22l3.5-1.42M64.86 157l3.5-1.42M62.74 151.77l5.66-2.3M60.6 146.55l3.5-1.42M58.5 141.32l3.48-1.42M56.37 136.1l3.5-1.42M54.25 130.87l3.48-1.4M52.12 125.65l5.67-2.3"/>
    <circle cx="54.66" cy="118.14" r="1.59" fill="#9ACDED" fill-rule="nonzero" transform="rotate(-22.04 54.66 118.137)"/>
    <circle cx="80.15" cy="181.08" r="1.59" fill="#9ACDED" fill-rule="nonzero" transform="rotate(-22.04 80.146 181.082)"/>
    <path fill="#E1F2FF" fill-rule="nonzero" stroke="#9ACDED" stroke-width="2" d="M114.42 86.05l-56.86 36.57c-1.17.74-2.58 1-3.93.68-1.35-.3-2.52-1.13-3.26-2.3-.75-1.16-1-2.57-.7-3.92.3-1.35 1.1-2.53 2.27-3.27l56.86-36.5c1.16-.76 2.58-1 3.93-.72 1.35.3 2.53 1.12 3.27 2.3 1.55 2.4.84 5.62-1.58 7.17z"/>
    <path stroke="#9ACDED" stroke-width="2" d="M56.32 110.95l3.3 5.15M61.06 107.9l2.03 3.18M65.8 104.87l2.04 3.17M70.56 101.82L72.6 105M75.3 98.78l2.04 3.17M80.05 95.74l3.3 5.14M84.8 92.7l2.03 3.16M89.55 89.65l2.03 3.17M94.3 86.6l2.03 3.18M99.04 83.56l2.03 3.17M103.8 80.52l3.3 5.15"/>
    <circle cx="111.65" cy="81.64" r="1.59" fill="#9ACDED" fill-rule="nonzero" transform="rotate(-32.6 111.653 81.644)"/>
    <circle cx="54.44" cy="118.22" r="1.59" fill="#9ACDED" fill-rule="nonzero" transform="rotate(-32.6 54.444 118.224)"/>
    <path fill="#E1F2FF" fill-rule="nonzero" stroke="#9ACDED" stroke-width="2" d="M64.08 33.77L115.3 77.9c1.05.9 1.7 2.17 1.8 3.55.1 1.37-.36 2.74-1.26 3.78-.9 1.05-2.18 1.7-3.56 1.8-1.37.1-2.74-.36-3.78-1.26L57.28 41.64c-1.05-.9-1.7-2.18-1.8-3.56-.1-1.37.36-2.74 1.26-3.78.9-1.04 2.18-1.7 3.56-1.8 1.38-.1 2.74.37 3.78 1.27z"/>
    <path stroke="#9ACDED" stroke-width="2" d="M104.47 82.4l4-4.63M100.2 78.7l2.46-2.84M95.93 75.02l2.47-2.85M91.67 71.34l2.46-2.85M87.4 67.65l2.46-2.85M83.13 63.96l4-4.62M78.87 60.28l2.46-2.85M74.6 56.6l2.46-2.86M70.33 52.9l2.46-2.85M66.06 49.22l2.47-2.85M61.8 45.53l4-4.63"/>
    <circle cx="60.64" cy="37.67" r="1.59" fill="#9ACDED" fill-rule="nonzero" transform="rotate(-49.11 60.637 37.67)"/>
    <circle cx="111.99" cy="82.12" r="1.59" fill="#9ACDED" fill-rule="nonzero" transform="rotate(-49.11 111.985 82.124)"/>
    <path fill="#E1F2FF" fill-rule="nonzero" stroke="#9ACDED" stroke-width="2" d="M108.05 175.58l128.1-70.08-62.28-37.94-65.82 108.02zM203 104.73l-48.23 26.4 24.78-40.7 23.45 14.3z"/>
    <path fill="#FFF" fill-rule="nonzero" stroke="#9ACDED" stroke-width="2" d="M170.15 73.67l9.55 5.8M166.8 79.15l5.88 3.57M163.47 84.63l5.87 3.57M160.13 90.1l5.87 3.58M156.8 95.58l5.86 3.58M153.46 101.06l9.55 5.82M150.12 106.54l5.87 3.58M146.78 112.02l5.87 3.58M143.44 117.5l5.87 3.58M140.1 122.98l5.87 3.58M136.76 128.46l9.55 5.82M133.43 133.94l5.87 3.58M130.1 139.42l5.86 3.58M126.75 144.9l5.87 3.57M123.5 150.22l5.88 3.58"/>
    <path fill="#375D81" fill-rule="nonzero" d="M105.58 104.92c1.53 1.75 4.8 1.38 7.33-.82 2.53-2.2 3.34-5.4 1.8-7.16-2.4 3.33-5.5 6.06-9.13 8v-.02z"/>
    <path fill="#375D81" fill-rule="nonzero" d="M120.25 103.27c-1.53-1.75-4.8-1.38-7.33.82-2.52 2.2-3.33 5.4-1.8 7.15 2.4-3.33 5.52-6.06 9.14-8v.02z"/>
    <circle cx="143.18" cy="112.86" r="2.51" fill="#375D81" fill-rule="nonzero" transform="rotate(-41.13 143.182 112.86)"/>
    <path fill="#E1F2FF" fill-rule="nonzero" stroke="#375D81" stroke-width="2" d="M128.27 103.86l3.67-3.2 14.1 16.13-3.67 3.2z"/>
    <path fill="#E1F2FF" fill-rule="nonzero" stroke="#375D81" stroke-width="2" d="M151.28 83.78l-19.34 16.9 5.53 6.32 10.2-8.9 7.23-10.18zM117.04 113.65l3.67-3.2 14.1 16.14-3.66 3.2z"/>
    <path fill="#FFF" fill-rule="nonzero" stroke="#375D81" stroke-width="2" d="M142.38 73.33l-11.86 6.5-20.76 18.1 5.07 5.82.46.53 69.27 79.34 7.57-6.6-69.28-79.35L146 77.47z"/>
    <circle cx="121.24" cy="120.31" r="2.72" fill="#375D81" fill-rule="nonzero" transform="rotate(-41.13 121.236 120.312)"/>
    <path fill="#FFF" fill-rule="nonzero" stroke="#375D81" stroke-width="2" d="M186.82 176.37l-61.24-70.14" stroke-linecap="round" stroke-dasharray="3"/>
    <path fill="#FFF" fill-rule="nonzero" stroke="#375D81" stroke-width="2" d="M139.6 80.56l1.4 1.58M140.96 79.38l1.38 1.6M142.3 78.2l1.4 1.6M146.26 88.17l1.38 1.58M147.6 87l1.4 1.58M148.95 85.8l1.4 1.6"/>
    <path stroke="#E1F2FF" stroke-width="2" d="M115.46 99.63l69.66 78.8" stroke-linecap="round"/>
    <path fill="#FFF" fill-rule="nonzero" stroke="#375D81" stroke-width="2" d="M0 200.14h8.97M92.38 209.2h67.2M168.2 209.2h9.13M84.5 209.1l-5 .1" stroke-linecap="round" stroke-linejoin="round"/>
    <rect width="7.25" height="82.81" x="77.49" y="105.76" fill="#FFF" fill-rule="nonzero" stroke="#375D81" stroke-width="2" stroke-linecap="round" rx="2" transform="rotate(-6.39 81.115 147.163)"/>
    <rect width="7.25" height="82.81" x="103.55" y="95.92" fill="#FFF" fill-rule="nonzero" stroke="#375D81" stroke-width="2" stroke-linecap="round" rx="2" transform="rotate(145.02 107.18 137.328)"/>
    <rect width="11.51" height="14.54" x="64.74" y="73.13" fill="#E1F2FF" fill-rule="nonzero" stroke="#375D81" stroke-width="2" stroke-linecap="round" rx="2" transform="rotate(-20.68 70.492 80.4)"/>
    <path fill="#FFF" fill-rule="nonzero" stroke="#375D81" stroke-width="2" d="M72.24 85c-6.44 2.43-9.7 9.62-7.26 16.06 2.43 6.43 9.62 9.68 16.06 7.25 6.44-2.4 9.7-9.6 7.26-16.04-1.17-3.1-3.5-5.6-6.53-6.96-3-1.36-6.44-1.47-9.53-.3zm6.43 17c-2.18.84-4.66.3-6.26-1.4-1.6-1.7-2.02-4.22-1.06-6.35.97-2.13 3.13-3.46 5.47-3.38 2.34.1 4.4 1.58 5.2 3.78 1.13 2.97-.36 6.28-3.32 7.42V102zM85.36 188.36l.53 5.78M130.8 171.2l3.43 4.7M65.17 132.93l44.55-16.82" stroke-linecap="round"/>
    <g transform="translate(27 98)">
      <mask id="b" fill="#fff">
        <use xlink:href="#a"/>
      </mask>
      <g transform="translate(0 6)" mask="url(#b)">
        <path fill="#9452BA" fill-rule="nonzero" stroke="#52267D" stroke-width="2" d="M59.14 104.64l-4.87 1c-1.68.36-3.4-.34-4.36-1.77-2.68-4.08-3.12-8.26-4.08-11.7-1.78-6.4-1.48-9.94-1.68-15.57l7.34-1.4s0 2.82 1.28 11c.4 2.53 6.7 11.67 7.56 16.63.17.83-.36 1.63-1.18 1.8zM68.33 78.45l4.44-7.93 3.66-.64 2.4 7.7c1.8 5.16 3.96 10.17 6.48 15 .55.98.98 2 1.3 3.07.2.78.06 1.6-.37 2.3-.42.67-1.1 1.15-1.9 1.3l-4.3.94c-2.53.54-5.1-.7-6.26-3-3.56-7.2-5.44-18.75-5.44-18.75z"/>
        <path stroke="#52267D" stroke-width=".5" d="M77.58 81.27l1.15.64-.74 1.05-1.65-.26.16-.74 1.33.03.04.22-.33.05"/>
        <path fill="#9452BA" fill-rule="nonzero" stroke="#52267D" stroke-width="2" d="M71.2 51.86c-4.3.83-8.94-1.25-17.76.23-.22-.5-.48-.98-.8-1.42C50.34 47.6 46 38.2 46 31.43v-5.37c0-1.76-.17-3.52-.54-5.24-.15-.7-.37-1.4-.66-2.05l-.22-.48c-.23-.48-.5-.92-.8-1.35l-.3-.42c-.22-.27-.45-.53-.68-.78-.23-.25-.48-.48-.74-.7-.77-.68-1.64-1.24-2.57-1.67-.32-.14-.65-.27-1-.38-1.85-.64-3.83-.75-5.73-.34l-1.7.37c-2.76.6-5.17 2.26-6.7 4.63-.2.3-.36.58-.5.88-.3.55-.53 1.13-.72 1.72l-.2.68-.1.5c-.2 1.05-.24 2.1-.12 3.16.04.36.1.72.18 1.07.33 1.42 1.74 2.3 3.16 2l10.65-2.3.4 9.6c.14 9.9 2.08 16.13 4.45 20 .53.87 3.1 3.82 3.1 3.82-3.5 9.54-10.88 15-19.38 17.9-7.23 2.5-24.7-.8-18.13-10.4 6.57-9.62-2.36-2.6-3.6-1.3C2.27 66.33-4.57 75.54 7 84.33c4.88 3.7 10.2 6.9 21.5 7.8 1.8.13 11.26-1.2 16.57-.83C60.9 92.35 72 85.1 76.67 73.8c4.68-11.3-3.76-22.27-5.46-21.94z"/>
        <path fill="#9452BA" fill-rule="nonzero" stroke="#52267D" stroke-width="2" d="M58.92 39.7c-2.7-10.92 4.16-21.46 13.7-25.42 2-.82 2.5-1.6 4.77-2.1l1.72-.37c5.82-1.24 11.55 2.46 12.8 8.28.3 1.45-.6 2.88-2.06 3.2l-17.8 3.8-1.44.32 1.45-.3c-3.56 2.5-4.92 8-4.77 10.8.04 3.37 1.16 6.64 3.2 9.3 1.13 1.54 1.82 3.35 2 5.24l-.1.06c.16 1.04.22 2.1.2 3.15-1.92-.8-4.9-2-5.42-2.14-1.14-.3-3.72-1.04-4.88-1.4-7.43-2.38-1.84-6.17-3.38-12.4z"/>
        <path fill="#F3E3FF" fill-rule="nonzero" stroke="#52267D" d="M67.3 51.2c-.28-1.7-.2-2.64-.55-3.3-2-3.74-2.58-4.92-3.5-9.13-.82-4.32.58-8.77 3.75-11.82 1.64-.6 3.44-.54 5.05.14-3.56 2.5-4.92 8-4.77 10.8.04 3.37 1.16 6.64 3.2 9.3 1.13 1.54 1.82 3.35 2 5.24 0 0-4.42 2.84-5.2-1.23"/>
        <path fill="#FFF" fill-rule="nonzero" stroke="#52267D" d="M85 12.4c-.3-1.13-1.23-1.98-2.38-2.18l-1.7-.3s-.6 2.54.76 2.85c1.1.28 2.3.15 3.32-.37zM80.17 12.1c-.43-1.53-1.93-2.5-3.5-2.26-.53 0-1.9.37-1.9.37s-.06 2.8 1.48 2.73c1.34-.1 2.66-.38 3.92-.84zM74.6 13.54s-1-2.7-3.3-1.4c-.6.35-1.1.87-1.4 1.5 0 0 1 2 1.9 1.55.98-.48 1.92-1.03 2.8-1.66zM70.27 28.6s-6.5-1.9-6.54-7.48c-1.05 1.37-2 2.83-2.82 4.35.23 1 .93 5.23 7.25 6.77.63-1.26 1.34-2.47 2.12-3.64z"/>
        <path fill="#F3E3FF" fill-rule="nonzero" d="M84.12 12.07c-.15-.6-.63-1.03-1.23-1.13l-.9-.15s-.3 1.3.4 1.47c.58.14 1.2.07 1.72-.2zM78.84 11.8c-.22-.8-.98-1.28-1.78-1.16-.28 0-1 .2-1 .2s0 1.4.75 1.38c.7-.05 1.4-.2 2.04-.43zM73.67 13.53s-.5-1.43-1.75-.74c-.32.17-.58.45-.75.78 0 0 .5 1.07 1 .83.52-.24 1.03-.54 1.5-.87z"/>
        <path fill="#F3E3FF" fill-rule="nonzero" d="M82.83 22.93l-5.33 1.15c-1.34.28-2.66-.57-2.95-1.9-.13-.65 0-1.32.35-1.87s.9-.93 1.56-1.07l.47-.1c2.7-.6 5.36 1.13 5.94 3.83l-.04-.03z" opacity=".3"/>
        <path fill="#FFF" fill-rule="nonzero" stroke="#52267D" d="M82.72 22.85l-4.78 1.03c-1.08.24-2.14-.45-2.38-1.53-.23-1.08.46-2.15 1.54-2.38l.97-.2c1.02-.23 2.07-.03 2.94.53.88.56 1.5 1.44 1.7 2.45l.02.1z"/>
        <circle cx="80.57" cy="22.23" r="1.09" fill="#52267D" fill-rule="nonzero" transform="rotate(-12.15 80.566 22.232)"/>
        <path fill="#52267D" fill-rule="nonzero" d="M89.93 22.4c-.32 0-.62-.1-.87-.3l-.45-.37h1.33c.2 0 .34.15.34.34 0 .2-.15.34-.34.34z"/>
        <path fill="#EAF3FB" fill-rule="nonzero" d="M69.3 28.92s-5-1.45-6-6.33c-.83.8-1.5 1.77-2 2.83.46 1.22 1.2 2.3 2.17 3.18 2.1 1.4 3.95 1.62 5.84.32z"/>
        <path fill="#FFF" fill-rule="nonzero" stroke="#52267D" d="M64.88 29c1.26.82 2.63 1.46 4.07 1.9"/>
        <path fill="#9452BA" fill-rule="nonzero" stroke="#52267D" stroke-width="2" d="M51.36 51.68l.57-2.2c1.76-10 1.17-15.47-2.65-23.8l-2.24-4.9c-.73-1.6-1.3-3.27-1.66-5-1.24-5.73 2.42-11.4 8.16-12.63l1.68-.36c5.65-1.23 11.22 2.35 12.46 8l.06.28c.15.65.03 1.34-.33 1.9-.35.56-.92.96-1.57 1.1l-10.63 2.3 3.6 8.88c10.26 23.7 11.93 33.85 1.78 33.87"/>
        <path fill="#FFF" fill-rule="nonzero" stroke="#52267D" d="M60.62 2.9c-.4-1.08-1.35-1.88-2.5-2.1-.5 0-.97.1-1.4.33 0 0-.7 1.84.65 2.15 1.1.27 2.25.14 3.25-.37zM56.23 3.23c-.5-1.75-2.2-2.85-4-2.55-.46.05-.92.14-1.36.27 0 0-.86 3.3.88 3.23 1.53-.1 3.04-.43 4.48-.95zM50.66 5.1s-1-2.6-3.27-1.28c-.6.36-1.07.88-1.36 1.5 0 0 1 1.94 1.9 1.48.95-.5 1.86-1.05 2.72-1.7z"/>
        <path fill="#F3E3FF" fill-rule="nonzero" stroke="#52267D" d="M70.92 51.58c-.6-.3-1.26-.45-1.93-.47M67.4 52.28c.2-7.43-5.83-20.26-7.12-23.46L55.13 16l-1 .22c-.6.2-1.12.64-1.4 1.22-.28.58-.3 1.25-.08 1.85l4.14 11.18c1.4 3.8 5.87 21.76-.1 27.1-1.26 1.15-3.73 1.1-4.7.88-3.57-.85-5.37-4.67-6.77-7.77-2.9-6.4-2.9-11.93-3.7-17.26l-1.1-6.66c-.18-1.26-1.33-2.14-2.6-2l-1.2.26.68 13.78c.17 3.93 1.3 17.44 10.38 21.93.16.08-1.76 1-1 1.88 3.22 3.62 10.1 2.8 11.76 4.3 6.36 5.74 4.9 21.2 4.9 21.2 2.88-1.98 5.46-4.36 7.66-7.07 6.35-8.74 5.15-19.17 4.54-22.2-.73-3.6-2.16-5.62-3.6-6.7"/>
        <path fill="#FFF" fill-rule="nonzero" stroke="#52267D" d="M4.8 71.92c-.84-.66-1.27-1.73-1.1-2.8.1-.42.35-.8.67-1.12 0 0 1.8-.07 1.7 1.18-.08 1.04-.53 2-1.27 2.74z"/>
        <path fill="#F3E3FF" fill-rule="nonzero" d="M4.8 70.12c-.3-.24-.45-.62-.4-1 .05-.15.14-.3.25-.4 0 0 .63 0 .6.4-.03.38-.2.74-.45 1z"/>
        <path fill="#FFF" fill-rule="nonzero" stroke="#52267D" d="M15.86 78.8c.26-1.64-.74-3.22-2.34-3.7-.4-.13-.83-.23-1.26-.3 0 0-2 2.47-.52 3.1 1.33.48 2.7.8 4.12.9z"/>
        <path fill="#F3E3FF" fill-rule="nonzero" d="M14.78 78.1c.15-.92-.4-1.8-1.3-2.06-.23-.08-.46-.13-.7-.17 0 0-1.12 1.36-.3 1.7.75.28 1.52.46 2.3.52z"/>
        <path fill="#FFF" fill-rule="nonzero" stroke="#52267D" d="M6.42 72.55s-1.5 2 .58 3.07c.55.27 1.16.38 1.77.3 0 0 1-1.66.2-2.13-.8-.5-1.66-.9-2.55-1.25z"/>
        <path fill="#F3E3FF" fill-rule="nonzero" d="M6.93 73.64s-.66.9.26 1.36c.23.12.5.16.77.13 0 0 .44-.74.1-.94-.37-.22-.75-.4-1.14-.56z"/>
        <path fill="#FFF" fill-rule="nonzero" stroke="#52267D" d="M25 78.2c.05-1.4-1.03-2.56-2.4-2.64-2.57-.35-3 .5-3 .5s-.85 2.5.48 2.95c1.33.47 4.92-.8 4.92-.8z"/>
        <path fill="#F3E3FF" fill-rule="nonzero" d="M23.74 77.94c.02-.72-.54-1.33-1.26-1.37-1.33-.18-1.58.26-1.58.26s-.44 1.3.25 1.53c.88.04 1.76-.1 2.6-.42z"/>
        <path fill="#FFF" fill-rule="nonzero" stroke="#52267D" d="M56.34 19.14c-2.6 1.94-5.88 2.73-9.07 2.17l2.2 4.7s5.25.45 8.54-2.76c-.86-2.07-1.66-4.1-1.66-4.1zM25.94 15.62c-.1-1.18.45-2.33 1.43-3 .64-.3 1.3-.55 2-.72 0 0 .83 1.83-.26 2.67-.88.73-2 1.1-3.16 1.05zM30.32 13.7c-.24-1.54.7-3.02 2.22-3.44.38-.12.78-.2 1.18-.27 0 0 1.87 2.3.46 2.87-1.24.45-2.54.74-3.86.84zM35.63 12.75s-.15-2.83 2.47-2.54c.7.08 1.36.35 1.9.8 0 0-.1 2.2-1.13 2.14-1.1-.04-2.17-.17-3.24-.4z"/>
        <path fill="#F3E3FF" fill-rule="nonzero" d="M59.6 2.66c-.23-.6-.74-1-1.35-1.12-.26 0-.52.05-.75.17 0 0-.37 1 .34 1.16.6.15 1.2.08 1.75-.2zM55.08 3c-.3-1.08-1.37-1.77-2.48-1.6-.3.03-.58.1-.86.17 0 0-.54 2.07.55 2 .94-.06 1.88-.25 2.78-.57zM49.54 5.06s-.6-1.5-1.9-.74c-.33.2-.6.5-.77.87 0 0 .57 1.1 1.1.84.54-.28 1.07-.6 1.57-.98zM26.74 15c-.05-.62.24-1.22.76-1.57.32-.16.65-.3 1-.38 0 0 .44 1-.14 1.4-.46.38-1.03.57-1.62.55zM31.3 13c-.12-.86.4-1.68 1.24-1.9.2-.08.43-.13.65-.16 0 0 1 1.28.24 1.6-.7.24-1.4.4-2.13.46zM36.56 12.36s-.08-1.55 1.35-1.4c.38.06.73.22 1 .46 0 0-.04 1.2-.6 1.17-.6-.04-1.17-.12-1.74-.24z"/>
        <path fill="#FFF" fill-rule="nonzero" stroke="#52267D" d="M46 26.27c-2.96 1.07-6.08 1.6-9.23 1.6.1 2.53.2 4.42.2 4.42s3.55 1.42 9-1c.03-3.3.03-5.03.03-5.03z"/>
        <path fill="#F3E3FF" fill-rule="nonzero" d="M35.76 18.47l.47-.1c1.34-.3 2.66.56 2.95 1.9.28 1.34-.57 2.66-1.9 2.95l-5.33 1.14c-.6-2.7 1.13-5.35 3.83-5.94l-.02.05z" opacity=".3"/>
        <path fill="#FFF" fill-rule="nonzero" stroke="#52267D" d="M35 19.62l1.1-.24c1-.2 1.96.4 2.17 1.4.24 1.12-.48 2.23-1.6 2.47l-4.65 1c-.45-2.1.88-4.18 3-4.63z"/>
        <circle cx="33.84" cy="21.57" r="1.09" fill="#52267D" fill-rule="nonzero" transform="rotate(-12.15 33.844 21.572)"/>
        <path fill="#F3E3FF" fill-rule="nonzero" d="M59.88 13.2l-5.33 1.14c-1.34.3-2.66-.57-2.95-1.9-.3-1.35.57-2.67 1.9-2.96l.48-.1c2.7-.58 5.37 1.14 5.95 3.85l-.05-.03z" opacity=".3"/>
        <path fill="#FFF" fill-rule="nonzero" stroke="#52267D" d="M59.9 13.44l-4.77 1.03c-1.08.23-2.14-.45-2.38-1.53-.23-1.08.46-2.15 1.54-2.38l.97-.2c2.1-.46 4.18.88 4.63 2.98v.1z"/>
        <circle cx="55.11" cy="13.29" r="1.09" fill="#52267D" fill-rule="nonzero" transform="rotate(-12.15 55.115 13.29)"/>
        <path fill="#52267D" fill-rule="nonzero" d="M25.77 26.86c.3-.13.52-.36.66-.64l.26-.53-.77.33-.45.2c-.08.04-.15.1-.18.2-.03.07-.03.17 0 .25.05.1.1.15.2.2.1.02.2.02.27-.02zM65.76 13c-.32 0-.62-.1-.87-.3l-.46-.38h1.32c.1 0 .18.04.24.1.06.06.1.15.1.24 0 .2-.15.34-.34.34z"/>
        <path fill="#EAF3FB" fill-rule="nonzero" d="M56 19.93c-2.35 1.53-5.16 2.2-7.94 1.86.46 1.15.98 2.27 1.56 3.37 1.36-.2 2.7-.53 4-1C55.8 23.2 56.48 22 56 19.93z"/>
        <path fill="#FFF" fill-rule="nonzero" stroke="#52267D" d="M51.16 24.13c2.23-.33 4.34-1.2 6.16-2.53"/>
        <path fill="#EAF3FB" fill-rule="nonzero" d="M38.72 28.4c2.28.13 4.56-.2 6.7-1 0 1.08-.08 2.16-.23 3.23 0 0-4.8.37-6.48-2.23z"/>
        <path fill="#F3E3FF" fill-rule="nonzero" stroke="#52267D" stroke-width=".5" d="M47.68 60.82l.6.22"/>
        <path fill="#FFF" fill-rule="nonzero" stroke="#52267D" d="M38.67 29.8c2.5-.12 4.96-.57 7.33-1.35"/>
        <path fill="#FFF" fill-rule="nonzero" stroke="#52267D" stroke-width=".5" d="M60.16 101.43c.6-.6 1.54-.7 2.24-.2 1.34.68 2.5 2 2 2.2-.72.37-1.52.6-2.33.62-.85 0-1.55.34-2.25-1.3-.17-.47-.04-1 .34-1.32z"/>
        <path fill="#EAF3FB" fill-rule="nonzero" d="M60.44 101.66c.37-.38.97-.44 1.4-.13.84.43 1.56 1.22 1.26 1.38-.45.24-.94.38-1.45.4-.53 0-1 .2-1.4-.8-.12-.3-.04-.63.2-.84z"/>
        <path fill="#FFF" fill-rule="nonzero" stroke="#52267D" stroke-width=".5" d="M58.83 101.7c-.5 0-1 1.27-.84 1.58.15.3.43 1.38 1.26 1.33.6 0 2.77-.27 3.13-.82.35-.55-.93-2.3-3.57-2.08z"/>
        <path fill="#EAF3FB" fill-rule="nonzero" d="M58.75 102c-.3 0-.6.75-.5.93.1.18.26.82.75.78.5-.03 1.63-.15 1.85-.48.22-.33-.54-1.3-2.1-1.22z"/>
        <path fill="#FFF" fill-rule="nonzero" stroke="#52267D" stroke-width=".5" d="M56.77 102.36s.38-.32 1.33 0c.95.32 2.1.7 2 1.63-.1.9-2.55 1.1-3.12 1-.55-.1-.96-.55-1-1.1-.04-.62.26-1.2.8-1.54z"/>
        <path fill="#EAF3FB" fill-rule="nonzero" d="M56.67 102.7s.23-.2.8 0c.55.2 1.24.42 1.17 1-.07.58-1.5.66-1.84.62-.33-.05-.58-.32-.6-.65-.05-.4.13-.77.47-.97z"/>
        <path fill="#9452BA" fill-rule="nonzero" stroke="#52267D" stroke-width="2" d="M60.83 73c.8 4.78 2.15 9.45 4 13.93 3 7.76 5.88 9.78 6.16 11.9.2 1.64-.16 3.27-1.78 3.6l-4.83 1c-2.26.53-4.6-.45-5.8-2.43-1.25-2.12-2.27-4.35-3.06-6.68-1.02-3.4-1.85-6.83-2.47-10.32M36.85 82c1.9 1.13 3.2 3.02 3.64 5.18.57 2.77-.28 6.64 1.73 11 1.8 3.9 3.75 4.23 4 8 .03.7-.45 1.3-1.12 1.43l-5.37 1.17c-2.48.54-4.98-.8-5.92-3.16-2.04-5.6-3.1-11.55-3.12-17.53"/>
        <path stroke="#52267D" stroke-width=".5" d="M37.1 88.33l-.37-.16-.97.45 1.3.48 1.22-.97-1.67-.83-.6.36"/>
        <path fill="#FFF" fill-rule="nonzero" stroke="#52267D" d="M69.93 99.33c.6-.6 1.54-.7 2.24-.2 1.34.68 2.5 2 2 2.2-.72.37-1.52.6-2.33.62-.85 0-1.55.34-2.25-1.3-.18-.47-.05-1 .33-1.32z"/>
        <path fill="#EAF3FB" fill-rule="nonzero" d="M70.2 99.56c.38-.38.98-.44 1.4-.13.85.43 1.57 1.22 1.27 1.38-.45.24-.94.38-1.45.4-.53 0-1 .2-1.4-.8-.12-.3-.04-.63.2-.84z"/>
        <path stroke="#52267D" stroke-width=".5" d="M59.48 86.7l2.05.17.13 1.84-1.94.58-1.14-.87 1.04-.9 1.04.08-.48.82"/>
        <g stroke="#F3E3FF" stroke-width=".25" opacity=".3">
          <path d="M88.07 19.12c-.02.23-.2.42-.42.48-.22.05-.46-.05-.58-.25M89.12 18.9c-.02.23-.2.42-.42.48-.22.05-.46-.05-.58-.25M88.7 19.53c.13.2.1.46-.04.63-.16.18-.4.24-.62.15-.22-.1-.35-.3-.33-.54M67.9 23c-.3.3-.82.3-1.12-.02-.3-.3-.3-.82.02-1.12"/>
          <path d="M67.88 24.07c-.3.3-.82.3-1.12-.02-.3-.3-.3-.82.02-1.12M46.83 45.9c.08.4-.17.77-.55.85-.4.1-.78-.16-.86-.55"/>
          <path d="M48.23 45.6c.08.4-.17.77-.55.85-.4.1-.78-.16-.86-.55"/>
          <path d="M47.68 46.45c.08.4-.17.77-.55.85-.4.1-.78-.16-.86-.55M77.4 85.9c.07.4-.18.77-.57.85-.38.1-.77-.16-.85-.55"/>
          <path d="M78.8 85.6c.05.24-.03.5-.22.68-.2.17-.46.23-.7.15-.25-.08-.44-.3-.5-.54"/>
          <path d="M78.25 86.45c.08.4-.17.77-.55.85-.4.1-.78-.16-.86-.55M43.1 23.28c.08.28 0 .6-.22.8-.22.2-.53.27-.8.17-.3-.1-.5-.35-.53-.64"/>
          <path d="M44 23.88c.1.28 0 .6-.2.8-.23.2-.54.27-.82.17-.28-.1-.48-.35-.52-.64M55.9 34.8c-.03.43-.35.8-.8.9-.43.1-.87-.12-1.08-.5M57 35.52c.2.37.14.84-.15 1.15-.28.3-.74.4-1.13.24-.4-.16-.63-.56-.6-.98M64.5 8.53c.06.34-.16.66-.5.73-.33.08-.66-.13-.75-.46M65.26 9c.06.34-.16.66-.5.73-.33.08-.66-.13-.75-.46M19.07 84.5c-.2.33-.63.44-.98.26-.35-.2-.5-.6-.33-.96M19.37 85.5c-.2.33-.63.44-.98.26-.35-.2-.5-.6-.33-.96M45.63 68.34c-.04.33-.26.6-.57.72-.32.12-.67.04-.9-.2-.24-.23-.33-.57-.22-.9"/>
          <path d="M47.33 68.72c-.04.33-.26.6-.57.72-.32.12-.67.04-.9-.2-.24-.23-.33-.57-.22-.9"/>
          <path d="M46.3 69.38c-.05.33-.28.6-.6.7-.3.12-.65.04-.88-.2-.24-.22-.32-.57-.22-.88"/>
          <path d="M48 69.75c-.04.33-.26.6-.57.72-.32.12-.67.04-.9-.2-.24-.23-.33-.57-.22-.9M45.26 70c-.14.42-.58.67-1 .57-.45-.1-.74-.5-.7-.94M50.28 18.23c.1.47-.2.94-.67 1.04-.46.1-.93-.2-1.03-.67M57.54 50.47c.07.3-.04.62-.27.83-.23.2-.55.28-.85.2-.3-.1-.52-.35-.6-.66M44 34.75c.08.36-.15.7-.5.8-.37.07-.72-.16-.8-.52M25.42 23.35c.04.18-.02.36-.16.5-.14.1-.33.15-.5.1-.17-.07-.3-.2-.34-.4M36.76 95.7c0 .3-.14.6-.4.77-.27.16-.6.18-.88.03s-.46-.43-.47-.74M61.73 96.9c-.03.44-.35.8-.8.9-.43.1-.87-.1-1.08-.5M62.87 97.63c-.05.43-.37.78-.8.87-.43.08-.86-.12-1.07-.5"/>
        </g>
        <path fill="#FFF" fill-rule="nonzero" stroke="#52267D" d="M68.6 99.6c-.5 0-1 1.27-.84 1.58.16.3.44 1.38 1.27 1.33.6 0 2.77-.27 3.13-.82.36-.55-.92-2.3-3.56-2.08z"/>
        <path fill="#EAF3FB" fill-rule="nonzero" d="M68.52 99.93c-.3 0-.6.75-.5.93.1.18.26.82.75.78.5-.04 1.63-.16 1.85-.5.22-.32-.54-1.34-2.1-1.2z"/>
        <path fill="#FFF" fill-rule="nonzero" stroke="#52267D" d="M66.95 100.5s.34-.27 1.18 0c.84.3 1.87.64 1.77 1.45-.1.8-2.25 1-2.75.92-.5-.06-.9-.5-.92-1-.03-.55.25-1.08.72-1.36z"/>
        <path fill="#EAF3FB" fill-rule="nonzero" d="M66.86 100.8s.2-.16.7 0c.5.18 1.1.38 1 .86-.1.48-1.34.58-1.63.55-.3-.03-.52-.27-.54-.56-.03-.34.15-.67.46-.83z"/>
        <path fill="#FFF" fill-rule="nonzero" stroke="#52267D" d="M86.82 96.45s.34-.28 1.18 0c.84.28 1.87.63 1.77 1.44-.1.8-2.25 1-2.75.9-.5-.05-.9-.48-.92-1-.03-.54.25-1.07.72-1.35z"/>
        <path fill="#EAF3FB" fill-rule="nonzero" d="M86.73 96.75s.2-.17.7 0c.5.17 1.1.37 1 .85-.1.48-1.34.58-1.63.55-.3-.04-.52-.28-.54-.57-.02-.34.16-.67.47-.83z"/>
        <path fill="#FFF" fill-rule="nonzero" stroke="#52267D" d="M84.4 96.4c-.5 0-1 1.28-.83 1.6.16.3.44 1.37 1.27 1.32.6 0 2.77-.28 3.13-.83.36-.56-.92-2.3-3.56-2.1z"/>
        <path fill="#EAF3FB" fill-rule="nonzero" d="M84.33 96.74c-.3 0-.6.75-.5.93.1.18.26.82.75.78.5-.04 1.63-.16 1.85-.5.22-.32-.54-1.33-2.1-1.2z"/>
        <path fill="#FFF" fill-rule="nonzero" stroke="#52267D" stroke-width=".5" d="M43.8 105c.6-.6 1.54-.7 2.24-.2 1.34.68 2.5 2 2 2.2-.72.37-1.52.6-2.33.62-.84 0-1.54.34-2.24-1.3-.17-.47-.04-1 .34-1.32z"/>
        <path fill="#EAF3FB" fill-rule="nonzero" d="M44.08 105.2c.37-.4.97-.45 1.4-.14.84.43 1.56 1.22 1.26 1.38-.45.23-.94.37-1.45.4-.54 0-1 .2-1.4-.82-.13-.3-.05-.62.18-.83z"/>
        <path fill="#FFF" fill-rule="nonzero" stroke="#52267D" stroke-width=".5" d="M42.47 105.22c-.5 0-1 1.27-.84 1.58.16.3.44 1.38 1.27 1.33.6 0 2.77-.28 3.13-.83.36-.55-.92-2.3-3.56-2.08z"/>
        <path fill="#EAF3FB" fill-rule="nonzero" d="M42.4 105.55c-.3 0-.6.75-.5.93.08.18.25.82.74.78.5-.04 1.63-.16 1.85-.5.2-.32-.55-1.33-2.1-1.2z"/>
        <path fill="#FFF" fill-rule="nonzero" stroke="#52267D" stroke-width=".5" d="M40.82 106.13s.34-.28 1.18 0c.84.28 1.87.63 1.77 1.44-.1.8-2.25 1-2.75.92-.5-.07-.9-.5-.92-1-.03-.56.25-1.1.72-1.37z"/>
        <path fill="#EAF3FB" fill-rule="nonzero" d="M40.73 106.43s.2-.17.7 0c.5.17 1.1.37 1 .85-.1.48-1.34.58-1.63.55-.3-.04-.52-.28-.54-.57-.02-.34.16-.67.47-.83z"/>
        <path fill="#FFF" fill-rule="nonzero" stroke="#52267D" d="M78 98.28c-.16-.1-.35-.1-.5 0-.52.4-1.8 1.47-1.28 2.44.4.76.85.4 1.8.22l.7-.14c.15-.03.27-.14.3-.3.22-.87-.2-1.78-1-2.2l-.02-.02z"/>
        <path fill="#EAF3FB" fill-rule="nonzero" d="M78 98.53c-.1-.07-.26-.07-.37 0-.37.28-1.3 1.07-.92 1.77.3.55.62.3 1.3.16l.53-.1c.1-.02.2-.1.23-.2.16-.65-.13-1.3-.7-1.62H78z"/>
        <path fill="#FFF" fill-rule="nonzero" stroke="#52267D" d="M81.26 97.25c.54-.66 1.48-.83 2.22-.4 1.4.58 2.67 1.73 2.2 2-.68.44-1.45.72-2.26.82-.85.1-1.5.47-2.35-1.1-.2-.44-.14-.96.2-1.32z"/>
        <path fill="#EAF3FB" fill-rule="nonzero" d="M81.55 97.46c.34-.4.92-.52 1.38-.25.87.37 1.66 1.1 1.38 1.27-.42.27-.9.45-1.4.5-.53.07-.94.3-1.46-.68-.14-.28-.1-.6.1-.84z"/>
      </g>
    </g>
    <path fill="#FFF" fill-rule="nonzero" stroke="#375D81" stroke-width="2" d="M18.43 200.1h217.9" stroke-linecap="round" stroke-linejoin="round"/>
    <path fill="#FFF" fill-rule="nonzero" stroke="#375D81" stroke-width="2" d="M91.73 130.6h105.92v69.52H91.73z"/>
    <path fill="#E1F2FF" fill-rule="nonzero" d="M126.55 177.55l41.68-8.85.3-2h-41.98"/>
    <path fill="#FFF" fill-rule="nonzero" stroke="#375D81" stroke-width="2" d="M48.55 130.6h43.1v69.52h-43.1z"/>
    <path stroke="#375D81" stroke-width="2" d="M208.4 46.57v7M211.9 50.07h-7M42.27 16.08v7M45.77 19.58h-7" stroke-linecap="round" stroke-linejoin="round"/>
    <path stroke="#375D81" d="M172.95.5v3.94M174.92 2.47h-3.94M20.56 159.37v3.94M22.53 161.34H18.6" stroke-linecap="round"/>
    <path stroke="#9ACDED" stroke-width="2" d="M59.5 161.73h16.63M59.5 170.53h16.63" stroke-linecap="round"/>
    <path fill="#FFF" fill-rule="nonzero" stroke="#375D81" stroke-width="2" d="M12.08 130.6h36.38v13.3c0 3.98-3.23 7.2-7.2 7.2H24.1c-6.62 0-12-5.36-12-12v-8.47l-.02-.02z"/>
    <path stroke="#375D81" stroke-width="2" d="M109.4 130.5h17.47v5.95c0 3.98-3.23 7.2-7.2 7.2h-3.07c-3.98 0-7.2-3.22-7.2-7.2v-5.94z"/>
    <path fill="#375D81" fill-rule="nonzero" d="M113.46 131.65h9.32v4.22c0 2.13-1.72 3.85-3.85 3.85h-1.63c-2.13 0-3.85-1.72-3.85-3.85v-4.22zM171.25 131.65h9.32v4.22c0 2.13-1.72 3.85-3.85 3.85h-1.62c-2.13 0-3.85-1.72-3.85-3.85v-4.22z"/>
    <path stroke="#375D81" stroke-width="2" d="M167.17 130.5h17.48v5.95c0 3.98-3.23 7.2-7.2 7.2h-3.06c-1.92 0-3.76-.75-5.1-2.1-1.36-1.35-2.12-3.2-2.12-5.1v-5.94z"/>
    <rect width="44.63" height="5.17" x="126.07" y="163.7" fill="#FFF" fill-rule="nonzero" stroke="#375D81" stroke-width="2" rx="2.14"/>
    <path fill="#FFF" fill-rule="nonzero" stroke="#375D81" stroke-width="2" d="M205.94 200.1h-27l2.77-16.27c.4-2.3 2.38-4 4.72-4h12c2.34 0 4.33 1.7 4.7 4l2.82 16.28z"/>
    <path fill="#FFF" fill-rule="nonzero" stroke="#9ACDED" stroke-width="2" d="M198.72 194.7h-12.57l1.3-7.58c.17-1.07 1.1-1.85 2.18-1.85h5.6c1.1 0 2.02.78 2.2 1.85l1.3 7.58z" stroke-dasharray="10"/>
    <circle cx="192.44" cy="176.34" r="4.01" stroke="#375D81" stroke-width="2"/>
    <path stroke="#9ACDED" stroke-width="2" d="M208.73 179.58h9.24l2.88 15.5h-6.06"/>
    <path stroke="#E1F2FF" stroke-width="2" d="M17.66 136.52h17.27M190.27 144.74V162" stroke-linecap="round"/>
  </g>
</svg>