<svg xmlns="http://www.w3.org/2000/svg" width="256" height="256">
  <g fill="none" fill-rule="evenodd">
    <path fill="#E1F2FF" fill-rule="nonzero" d="M25 218.56C25 161.36 71.37 115 128.56 115c57.2 0 103.56 46.37 103.56 103.56H25z"/>
    <g fill="#FFF" fill-rule="nonzero" stroke-linecap="round" stroke-linejoin="round">
      <path stroke="#9ACDED" stroke-width="3" d="M95 230h67.2"/>
      <path stroke="#E1F2FF" stroke-width="2" d="M66 53h67.2M124 63h67.2"/>
      <path stroke="#9ACDED" stroke-width="3" d="M171 230h9.14M87 230l-5 .08"/>
    </g>
    <g stroke="#375D81" stroke-linecap="round">
      <path stroke-width="2" d="M220.98 60.4v7M224.48 63.9h-7M85 24v7M89 28h-7" stroke-linejoin="round"/>
      <path d="M47.73 188.68v3.94M49.7 190.65h-3.94"/>
      <path d="M222.73 128.68v3.94M224.7 130.65h-3.94" stroke-linejoin="round"/>
      <path d="M53.73 88.68v3.94M55.7 90.65h-3.94"/>
      <path fill="#FFF" fill-rule="nonzero" stroke-width="2" d="M31.42 127.28v8.12M35.48 131.34h-8.13"/>
    </g>
    <path fill="#FFF" fill-rule="nonzero" d="M50.7 70.46h154.6V217.5H50.7"/>
    <path fill="#375D81" fill-rule="nonzero" d="M51.95 71.7v144.56h152.1V71.7H51.95zm154.6-2.48v149.54H49.45V69.22h157.1z"/>
    <path stroke="#375D81" stroke-width="3" d="M59.74 46H196.1l15.34 23.94H44.64z"/>
    <path fill="#FFF" fill-rule="nonzero" d="M60.68 210.03h34.9v-99.7h-34.9"/>
    <path fill="#FFF" d="M105.56 217.5h44.88V110.35h-44.88M160.42 110.34v99.7h34.9v-99.7h-34.9"/>
    <path fill="#375D81" fill-rule="nonzero" d="M59.43 211.28v-102.2h37.4v102.2h-37.4zm34.9-2.5v-97.2h-32.4v97.2h32.4zm9.98 9.98V109.1h47.4v109.66h-47.4zm44.9-2.5V111.6h-42.4v104.66h42.4zm9.97-107.17h37.4v102.18h-37.4v-102.2zm2.5 99.7h32.4v-97.2h-32.4v97.2z"/>
    <path fill="#375D81" fill-rule="nonzero" d="M50.7 110.34h154.6v7.48H50.7"/>
    <path fill="#FFF" fill-rule="nonzero" d="M118.03 137.75h19.94c2.76 0 5 2.24 5 5v7.47c0 2.75-2.24 4.98-5 4.98h-19.94c-2.76 0-5-2.23-5-4.98v-7.48c0-2.75 2.24-5 5-5z"/>
    <path fill="#375D81" fill-rule="nonzero" d="M209.82 77.92L226 94.14v12.2c0 3.57-2.85 6.47-6.36 6.47H36.36c-3.5 0-6.36-2.9-6.36-6.47l.05-12.18L46 77.92h163.82z"/>
    <path fill="#FFF" fill-rule="nonzero" d="M207.64 80.42H48.2L33.3 95.34l-.05 10c0 2.74 2.23 4.98 4.98 4.98h179.54c2.75 0 4.98-2.23 4.98-5v-9.98l-15.1-14.92z"/>
    <path fill="#E1F2FF" fill-rule="nonzero" d="M94.34 171.4h-13.9v-14.95H61.93v52.34h32.42M136.73 181.37h12.47v34.9h-12.47zM106.8 171.4h17.46v44.86H106.8zM161.66 156.45h32.42v52.34h-32.42z"/>
    <path fill="#9ACDED" fill-rule="nonzero" d="M137.97 137.75h-19.94c-2.76 0-5 2.24-5 5v7.47c0 2.75 2.24 4.98 5 4.98h19.94c2.76 0 5-2.23 5-4.98v-7.48c0-2.75-2.24-5-5-5zm1.25 12.47c0 .68-.56 1.24-1.25 1.24h-19.94c-.7 0-1.25-.56-1.25-1.24v-7.48c0-.7.56-1.25 1.25-1.25h19.94c.7 0 1.25.55 1.25 1.24v7.48z"/>
    <path fill="#9452BA" fill-opacity=".85" fill-rule="nonzero" d="M95.58 80.43l-2.5 14.95v14.94h9.98V95.38l2.5-14.95M78.13 80.43l-5 14.95v14.94h10V95.38l4.97-14.95M113.04 80.43H123v29.88h-9.96zM63.17 80.43L53.2 95.38v14.94h9.97V95.38l7.48-14.95M185.35 80.43l7.48 14.95v14.94h9.98V95.38l-7.48-14.95M222.7 95.34l-15.05-14.9h-4.84l9.98 14.94v14.94h5c2.74 0 4.97-2.24 4.97-5V95.4l-.03-.04zM38.23 110.32h5V95.38l9.96-14.95h-5l-14.9 14.9h-.02l-.03.05v9.95c0 2.75 2.23 5 4.98 5zM133 80.43h9.96v29.88H133zM182.86 110.32V95.38l-5-14.95h-9.96l4.98 14.95v14.94M162.9 110.32V95.38l-2.48-14.95h-9.98l2.5 14.95v14.94"/>
    <path fill="#9452BA" fill-opacity=".34" fill-rule="nonzero" d="M207.65 80.43H48.2l-14.9 14.9h-.05v.05h189.5v-.04h-.04"/>
    <path fill="#9452BA" fill-rule="nonzero" d="M93.1 95.38h9.96l2.5-14.95h-9.98M133 80.43h9.96v14.95H133zM73.14 95.38h9.98l4.98-14.95h-9.97M185.35 80.43l7.48 14.95h9.98l-7.48-14.95M113.04 80.43H123v14.95h-9.96zM202.8 80.43l9.98 14.95h9.97l-.03-.04-15.07-14.9M160.42 80.43h-9.98l2.5 14.95h9.97M53.2 80.43h-5l-14.9 14.9h-.02l-.03.05h9.97M177.87 80.43h-9.97l4.98 14.95h9.98M63.17 95.38l7.48-14.95h-7.48L53.2 95.38"/>
    <path fill="#E1F2FF" fill-rule="nonzero" d="M106.8 112.83h42.4v7.48h-42.4zM161.66 112.83h32.42v7.48h-32.42zM61.92 112.83h32.42v7.48H61.92z"/>
    <path fill="#FFF" fill-rule="nonzero" stroke="#9ACDED" stroke-width="3" d="M240.33 219.44h-16c3.82-12.12-2.9-25.04-15.03-28.85-12.12-3.83-25.03 2.9-28.85 15.02-4.35-.98-8.92-.02-12.5 2.63-3.6 2.66-5.85 6.74-6.2 11.2h-13.7c-.54-9.58-7.9-17.37-17.4-18.45-2.6-12.58-12.36-22.45-24.9-25.23-12.53-2.77-25.53 2.07-33.2 12.37-8.88-2.24-18.3.27-24.86 6.65-6.6 6.37-9.4 15.7-7.43 24.64H24M9 219h5.33" stroke-linecap="round"/>
  </g>
</svg>