<svg width="256" height="256" xmlns="http://www.w3.org/2000/svg">
  <g fill="none" fill-rule="evenodd">
    <path d="M95 230h67.19M171 230h9.14" stroke="#ACD3EF" stroke-width="3" fill="#FFF" fill-rule="nonzero" stroke-linecap="round" stroke-linejoin="round"/>
    <path d="M21 218.56C21 161.365 67.365 115 124.56 115s103.56 46.365 103.56 103.56H21z" fill="#E1F2FF" fill-rule="nonzero"/>
    <g stroke="#5E63B6" stroke-linecap="round">
      <path d="M206.98 67.4v7M210.48 70.9h-7M80 23v7M84 27h-7" stroke-width="2" stroke-linejoin="round"/>
      <path d="M42.73 187.68v3.94M44.7 189.65h-3.94"/>
      <path d="M217.73 127.68v3.94M219.7 129.65h-3.94" stroke-linejoin="round"/>
      <path d="M48.73 87.68v3.94M50.7 89.65h-3.94"/>
      <path d="M26.42 126.28v8.12M30.48 130.34h-8.13" stroke-width="2" fill="#FFF" fill-rule="nonzero"/>
    </g>
    <path d="M89 230l-5 .08" stroke="#ACD3EF" stroke-width="3" fill="#FFF" fill-rule="nonzero" stroke-linecap="round" stroke-linejoin="round"/>
    <path d="M201.68 115.945c-4.654 36.287-37.846 61.924-74.127 57.265-36.287-4.655-61.924-37.846-57.27-74.13 4.657-36.286 37.842-61.926 74.132-57.266 36.285 4.653 61.928 37.847 57.265 74.13" fill="#F15A24" fill-rule="nonzero"/>
    <path d="M152.872 88.682c4.353 4.627.057 15.567.057 15.567s-4.246 15.467-28.556 35.524l-4.538-4.454 30.86-31.54.596-.805c.821-1.338 1.501-14.382 1.581-14.292" fill="#999" fill-rule="nonzero"/>
    <path d="M152.872 88.682c4.353 4.627.057 15.567.057 15.567s-4.246 15.467-28.556 35.524l-4.538-4.454 30.86-31.54.596-.805c.821-1.338 1.501-14.382 1.581-14.292z" stroke="#FFF" stroke-width="1.918" stroke-linecap="round" stroke-linejoin="round"/>
    <path d="M113.17 128.762l39.637-40.194c2.012 2.389 2.44 4.963 1.856 8.63-.393 2.54-4.78 7.616-4.78 7.616l-30.048 30.505" fill="#666" fill-rule="nonzero"/>
    <path d="M113.17 128.762l39.637-40.194c2.012 2.389 2.44 4.963 1.856 8.63-.393 2.54-4.78 7.616-4.78 7.616l-30.048 30.505" stroke="#FFF" stroke-width="1.201" stroke-linecap="round" stroke-linejoin="round"/>
    <path d="M152.872 88.71l-39.702 40.053.08-.078-.015.006-9.85-9.706c20.541-25.551 33.822-30.315 33.822-30.315s8.646-3.375 14.814-.756c.474.254.68.4.85.797" fill="#FF931E" fill-rule="nonzero"/>
    <path d="M152.872 88.71l-39.702 40.053.08-.078-.015.006-9.85-9.706c20.541-25.551 33.822-30.315 33.822-30.315s8.646-3.375 14.814-.756c.474.254.68.4.85.797l.001-.001z" stroke="#FFF" stroke-width="1.918" stroke-linecap="round" stroke-linejoin="round"/>
    <path d="M124.373 139.772c-9.472 7.801-21.594 20.055-38.071 28.602l3.665 15.668-15.534-15.3 38.736-39.98" fill="#999" fill-rule="nonzero"/>
    <path d="M124.373 139.772c-9.472 7.801-21.594 20.055-38.071 28.602l3.665 15.668-15.534-15.3 38.736-39.98" stroke="#FFF" stroke-width="1.918" stroke-linecap="round" stroke-linejoin="round"/>
    <path fill="#F15A24" fill-rule="nonzero" d="M103.65 119.116l9.623 9.585-22.231 4.815 12.395-14.573.214.173z"/>
    <path stroke="#FFF" stroke-width="1.918" stroke-linecap="round" stroke-linejoin="round" d="M103.65 119.116l9.623 9.585-22.231 4.815 12.395-14.573.214.173z"/>
    <path d="M149.082 77.087c-.944 8.52 5.19 16.19 13.71 17.14 8.513.946 16.19-5.193 17.14-13.71.947-8.517-5.197-16.195-13.713-17.142-8.521-.941-16.192 5.19-17.137 13.712" fill="#999" fill-rule="nonzero"/>
    <path d="M149.082 77.087c-.944 8.52 5.19 16.19 13.71 17.14 8.513.946 16.19-5.193 17.14-13.71.947-8.517-5.197-16.195-13.713-17.142-8.521-.941-16.192 5.19-17.137 13.712z" stroke="#FFF" stroke-width="1.918" stroke-linecap="round" stroke-linejoin="round"/>
    <path d="M177.703 87.378c2.863-4.183 2.715-10.441 2.14-12.295-.705-2.27-2.283-5.962-5.035-7.881l-14.552 13.404s11.184 12.016 11.475 12.056c.121.014 3.361-1.47 5.972-5.284" fill="#666" fill-rule="nonzero"/>
    <path d="M177.703 87.378c2.863-4.183 2.715-10.441 2.14-12.295-.705-2.27-2.283-5.962-5.035-7.881l-14.552 13.404s11.184 12.016 11.475 12.056c.121.014 3.361-1.47 5.972-5.284zm-2.936-10.5s1.399 3.436-.376 6.109l.376-6.109z" stroke="#FFF" stroke-width="1.918" stroke-linecap="round" stroke-linejoin="round"/>
    <path fill="#666" fill-rule="nonzero" d="M120.178 135.325l-16.06 2.858 9.694-10.072"/>
    <path stroke="#FFF" stroke-width="1.918" stroke-linecap="round" stroke-linejoin="round" d="M120.178 135.325l-16.06 2.858 9.694-10.072M104.023 119.186l20.417 19.215"/>
    <path d="M182.65 205c-.804-17.004-11.9-30.85-26.272-32.782-3.932-22.354-18.64-39.91-37.571-44.845-18.931-4.935-38.56 3.672-50.137 21.984-13.41-3.984-27.614.49-37.543 11.826C21.2 172.517 16.962 189.097 19.931 205" stroke="#ACD3EF" stroke-width="3" fill="#FFF" fill-rule="nonzero" stroke-linecap="round"/>
    <path fill="#FFF" d="M21 204h55v25H21z"/>
    <path d="M14 206h5.33" stroke="#9ACDED" stroke-width="3" fill="#FFF" fill-rule="nonzero" stroke-linecap="round"/>
    <path fill="#FFF" d="M118 199h55v25h-55z"/>
    <path d="M240.33 219.438h-16.567c3.951-12.117-3.016-25.033-15.563-28.85-12.547-3.816-25.921 2.913-29.873 15.03-4.508-.98-9.235-.018-12.95 2.635-3.715 2.653-6.052 6.736-6.403 11.185h-14.206c-.552-9.565-8.162-17.353-18.017-18.44-2.697-12.574-12.784-22.45-25.766-25.226-12.983-2.775-26.443 2.066-34.384 12.366-9.195-2.24-18.937.277-25.746 6.653-6.809 6.376-9.714 15.702-7.678 24.647H16.33" stroke="#ACD3EF" stroke-width="3" fill="#FFF" fill-rule="nonzero" stroke-linecap="round"/>
  </g>
</svg>
