<svg width="256" height="256" xmlns="http://www.w3.org/2000/svg">
  <g fill="none" fill-rule="evenodd">
    <path d="M23.204 225.532c0-57.193 46.364-103.558 103.558-103.558 57.193 0 103.557 46.365 103.557 103.558H23.204z" fill="#E1F2FF"/>
    <path d="M19.978 216.532h36" fill="#FFF"/>
    <path d="M19.978 216.532h36" stroke="#5E63B6" stroke-width="2" stroke-linecap="round" stroke-linejoin="round"/>
    <path d="M195.32 216.532h44" fill="#FFF"/>
    <path d="M195.32 216.532h44" stroke="#5E63B6" stroke-width="2" stroke-linecap="round" stroke-linejoin="round"/>
    <path d="M165.224 216.159h4.979a4.168 4.168 0 0 0 3.885-2.644c1.768-4.55 1.327-8.731 1.538-12.307.392-6.625-.643-10.02-1.631-15.561l-7.473.173s.635 2.752 1.058 11.012c.13 2.555-4.091 12.817-3.893 17.853a1.534 1.534 0 0 0 1.537 1.474" fill="#9452BA"/>
    <path d="M165.224 216.159h4.979a4.168 4.168 0 0 0 3.885-2.644c1.768-4.55 1.327-8.731 1.538-12.307.392-6.625-.643-10.02-1.631-15.561l-7.473.173s.635 2.752 1.058 11.012c.13 2.555-4.091 12.817-3.893 17.853a1.534 1.534 0 0 0 1.537 1.474z" stroke="#52267D"/>
    <path d="M150.73 192.49l-6.012-6.817-3.712.147s-.521 5.67-.734 8.046c-.377 4.185-2.111 12.387-3.177 15.986-.346 1.172-.548 2.266-.603 3.257-.095 1.67 1.298 3.05 2.97 3.05h4.41c2.57 0 4.854-1.715 5.486-4.206 1.966-7.754 1.372-19.464 1.372-19.464" fill="#9452BA"/>
    <path d="M150.73 192.49l-6.012-6.817-3.712.147s-.521 5.67-.734 8.046c-.377 4.185-2.111 12.387-3.177 15.986-.346 1.172-.548 2.266-.603 3.257-.095 1.67 1.298 3.05 2.97 3.05h4.41c2.57 0 4.854-1.715 5.486-4.206 1.966-7.754 1.372-19.464 1.372-19.464z" stroke="#52267D"/>
    <path stroke="#52267D" stroke-width=".25" d="M142.277 197.19l-.992.87.948.857 1.546-.594-.31-.678-1.283.304.012.229.332-.015"/>
    <path d="M142.312 167.103c4.38-.09 8.483-3.105 17.42-3.518.13-.584.287-1.111.486-1.544 1.617-3.501 3.9-13.592 2.434-20.222l-1.16-5.245a24.316 24.316 0 0 1-.573-5.242 10.728 10.728 0 0 1 .335-2.658 10.483 10.483 0 0 1 .714-1.953c.15-.31.314-.611.49-.904a10.7 10.7 0 0 1 3.582-3.581 10.587 10.587 0 0 1 5.516-1.54h1.744a10.607 10.607 0 0 1 8.208 3.87c.394.478.744.992 1.052 1.534a10.205 10.205 0 0 1 1.042 2.574 10.544 10.544 0 0 1 .335 2.658c0 .733-.297 1.396-.776 1.875a2.644 2.644 0 0 1-1.875.778h-10.891l1.648 9.452c1.935 9.71 1.354 16.203-.145 20.532-.334.965-2.236 4.385-2.236 4.385 5.446 8.593 13.796 12.349 22.725 13.438 7.59.928 23.979-5.995 15.529-14.002-8.45-8.008 1.76-3.03 3.264-2.015 1.503 1.013 10.193 8.52.762 19.538-3.988 4.659-8.506 8.894-19.375 12.14-1.743.52-11.255 1.213-16.375 2.682-15.246 4.377-27.641-.382-34.586-10.445-6.917-10.024-1.023-22.552.706-22.587" fill="#9452BA"/>
    <path d="M142.312 167.103c4.38-.09 8.483-3.105 17.42-3.518.13-.584.287-1.111.486-1.544 1.617-3.501 3.9-13.592 2.434-20.222l-1.16-5.245a24.316 24.316 0 0 1-.573-5.242 10.728 10.728 0 0 1 .335-2.658 10.483 10.483 0 0 1 .714-1.953c.15-.31.314-.611.49-.904a10.7 10.7 0 0 1 3.582-3.581 10.587 10.587 0 0 1 5.516-1.54h1.744a10.607 10.607 0 0 1 8.208 3.87c.394.478.744.992 1.052 1.534a10.205 10.205 0 0 1 1.042 2.574 10.544 10.544 0 0 1 .335 2.658c0 .733-.297 1.396-.776 1.875a2.644 2.644 0 0 1-1.875.778h-10.891l1.648 9.452c1.935 9.71 1.354 16.203-.145 20.532-.334.965-2.236 4.385-2.236 4.385 5.446 8.593 13.796 12.349 22.725 13.438 7.59.928 23.979-5.995 15.529-14.002-8.45-8.008 1.76-3.03 3.264-2.015 1.503 1.013 10.193 8.52.762 19.538-3.988 4.659-8.506 8.894-19.375 12.14-1.743.52-11.255 1.213-16.375 2.682-15.246 4.377-27.641-.382-34.586-10.445-6.917-10.024-1.023-22.552.706-22.587z" stroke="#52267D" stroke-width="2"/>
    <path d="M151.77 152.632c.35-11.26-8.586-20.109-18.742-21.979-2.11-.388-2.795-1.05-5.102-1.05h-1.766c-5.952 0-10.777 4.825-10.777 10.776a2.688 2.688 0 0 0 2.687 2.687s18.119-.005 18.204-.013l1.477.001c-.002.002-1.48.003-1.481.005 4.007 1.701 6.5 6.821 6.94 9.573.626 3.918.167 7.15-1.168 9.765-.891 1.741-.992 3.84-.855 5.538l.104.035c.062.908.209 1.941.48 3.12 1.706-1.189 4.359-2.978 4.845-3.234 1.046-.553 3.41-1.81 4.468-2.416 6.758-3.875.489-6.404.687-12.808" fill="#9452BA"/>
    <path d="M151.77 152.632c.35-11.26-8.586-20.109-18.742-21.979-2.11-.388-2.795-1.05-5.102-1.05h-1.766c-5.952 0-10.777 4.825-10.777 10.776a2.688 2.688 0 0 0 2.687 2.687s18.119-.005 18.204-.013l1.477.001c-.002.002-1.48.003-1.481.005 4.007 1.701 6.5 6.821 6.94 9.573.626 3.918.167 7.15-1.168 9.765-.891 1.741-.992 3.84-.855 5.538l.104.035c.062.908.209 1.941.48 3.12 1.706-1.189 4.359-2.978 4.845-3.234 1.046-.553 3.41-1.81 4.468-2.416 6.758-3.875.489-6.404.687-12.808z" stroke="#52267D"/>
    <path d="M146 165.643c-.089-1.74-.354-2.632-.159-3.34 1.122-4.073 1.487-5.358 1.487-9.671 0-4.285-2.482-8.52-6.147-10.773-.202-.123-2.84-.31-4.91 1.2 4.005 1.7 6.5 6.82 6.94 9.573.625 3.918.166 7.15-1.17 9.765-.89 1.74-.992 3.839-.854 5.538 0 0 4.916 1.846 4.813-2.292" fill="#F3E3FF"/>
    <path d="M146 165.643c-.089-1.74-.354-2.632-.159-3.34 1.122-4.073 1.487-5.358 1.487-9.671 0-4.285-2.482-8.52-6.147-10.773-.202-.123-2.84-.31-4.91 1.2 4.005 1.7 6.5 6.82 6.94 9.573.625 3.918.166 7.15-1.17 9.765-.89 1.74-.992 3.839-.854 5.538 0 0 4.916 1.846 4.813-2.292" stroke="#52267D" stroke-width=".5"/>
    <path d="M120.504 131.434s-.004-1.882 1.866-2.63a265.79 265.79 0 0 0 1.613-.652s1.114 2.355-.148 2.95c-1.816.854-3.33.332-3.33.332" fill="#FFF"/>
    <path d="M120.504 131.434s-.004-1.882 1.866-2.63a265.79 265.79 0 0 0 1.613-.652s1.114 2.355-.148 2.95c-1.816.854-3.33.332-3.33.332z" stroke="#52267D" stroke-width=".5"/>
    <path d="M125.186 130.11s.054-2.563 2.938-2.937c.539-.07 1.942-.036 1.942-.036s.648 2.713-.873 2.974c-1.87.32-4.007 0-4.007 0" fill="#FFF"/>
    <path d="M125.186 130.11s.054-2.563 2.938-2.937c.539-.07 1.942-.036 1.942-.036s.648 2.713-.873 2.974c-1.87.32-4.007 0-4.007 0z" stroke="#52267D" stroke-width=".5"/>
    <path d="M130.922 130.356s.38-2.844 2.935-2.062c1.091.334 1.697 1.164 1.697 1.164s-.508 2.166-1.525 1.92c-1.774-.423-3.107-1.022-3.107-1.022" fill="#FFF"/>
    <path d="M130.922 130.356s.38-2.844 2.935-2.062c1.091.334 1.697 1.164 1.697 1.164s-.508 2.166-1.525 1.92c-1.774-.423-3.107-1.022-3.107-1.022z" stroke="#52267D" stroke-width=".5"/>
    <path d="M138.341 144.161s5.955-3.237 4.822-8.686c.791.652 2.906 2.638 3.672 3.655 0 1.066.195 5.302-5.653 8.138-1.029-1.066-1.895-2.397-2.84-3.107" fill="#FFF"/>
    <path d="M138.341 144.161s5.955-3.237 4.822-8.686c.791.652 2.906 2.638 3.672 3.655 0 1.066.195 5.302-5.653 8.138-1.029-1.066-1.895-2.397-2.84-3.107z" stroke="#52267D" stroke-width=".5"/>
    <path d="M121.056 131.133s-.002-1.099 1.089-1.535c.333-.133.94-.38.94-.38s.65 1.374-.086 1.721c-1.06.5-1.943.194-1.943.194M126.037 129.756s.031-1.5 1.721-1.72c.315-.04 1.136-.02 1.136-.02s.38 1.588-.51 1.74c-1.095.187-2.347 0-2.347 0M131.553 130.27s.225-1.682 1.735-1.22a2.112 2.112 0 0 1 1.004.689s-.301 1.28-.901 1.137c-1.05-.251-1.838-.605-1.838-.605M131.51 141.262h-6.646v-2.865c0-1.16.941-2.102 2.101-2.102h4.545c.708 0 1.282.574 1.282 1.282v2.403c0 .708-.574 1.282-1.282 1.282" fill="#F3E3FF"/>
    <path d="M130.794 141.168h-5.837v-1.887c0-1.112.902-2.014 2.015-2.014h3.822c.557 0 1.008.451 1.008 1.007v1.887c0 .556-.45 1.007-1.008 1.007" fill="#FFF"/>
    <path d="M130.794 141.168h-5.837v-1.887c0-1.112.902-2.014 2.015-2.014h3.822c.557 0 1.008.451 1.008 1.007v1.887c0 .556-.45 1.007-1.008 1.007z" stroke="#52267D" stroke-width=".5"/>
    <path d="M125.844 139.165a1.09 1.09 0 1 0 2.179.002 1.09 1.09 0 0 0-2.179-.002M117.82 142.247c.31-.066.587-.238.784-.486l.365-.459-.813.174-.48.102a.343.343 0 0 0 .145.67" fill="#52267D"/>
    <path d="M139.347 144.269s4.588-2.47 4.518-7.446c1.971 1.436 2.505 2.365 2.505 2.365s-.343 2.368-1.447 3.564c-1.694 1.835-3.459 2.4-5.576 1.517" fill="#E1F2FF"/>
    <path d="M143.69 143.396s-1.81 1.84-3.573 2.723" fill="#FFF"/>
    <path d="M143.69 143.396s-1.81 1.84-3.573 2.723" stroke="#52267D" stroke-width=".5"/>
    <path d="M161.682 162.743l-1.022-2.017c-3.818-9.38-4.406-14.89-2.426-23.844l1.16-5.245c.38-1.72.572-3.479.572-5.242 0-5.874-4.763-10.636-10.637-10.636h-1.717c-5.794 0-10.492 4.697-10.492 10.491v.302a2.497 2.497 0 0 0 2.497 2.496h10.874l-1.65 9.452c-5.046 25.33-4.54 35.6 5.392 33.49" fill="#9452BA"/>
    <path d="M161.682 162.743l-1.022-2.017c-3.818-9.38-4.406-14.89-2.426-23.844l1.16-5.245c.38-1.72.572-3.479.572-5.242 0-5.874-4.763-10.636-10.637-10.636h-1.717c-5.794 0-10.492 4.697-10.492 10.491v.302a2.497 2.497 0 0 0 2.497 2.496h10.874l-1.65 9.452c-5.046 25.33-4.54 35.6 5.392 33.49" stroke="#52267D"/>
    <path d="M142.363 117.018s.175-1.844 2.007-2.576c.558-.224 1.434.014 1.434.014s1.058 1.654-.178 2.236c-1.78.838-3.263.326-3.263.326" fill="#FFF"/>
    <path d="M142.363 117.018s.175-1.844 2.007-2.576c.558-.224 1.434.014 1.434.014s1.058 1.654-.178 2.236c-1.78.838-3.263.326-3.263.326z" stroke="#52267D" stroke-width=".5"/>
    <path d="M146.725 116.41s.06-2.904 3.327-3.328c.61-.08 1.392-.02 1.392-.02s1.54 3.053-.182 3.348c-2.117.363-4.537 0-4.537 0" fill="#FFF"/>
    <path d="M146.725 116.41s.06-2.904 3.327-3.328c.61-.08 1.392-.02 1.392-.02s1.54 3.053-.182 3.348c-2.117.363-4.537 0-4.537 0z" stroke="#52267D" stroke-width=".5"/>
    <path d="M152.57 117.07s.443-2.775 2.926-1.946a3.51 3.51 0 0 1 1.634 1.182s-.553 2.108-1.542 1.845c-1.727-.461-3.018-1.08-3.018-1.08" fill="#FFF"/>
    <path d="M152.57 117.07s.443-2.775 2.926-1.946a3.51 3.51 0 0 1 1.634 1.182s-.553 2.108-1.542 1.845c-1.727-.461-3.018-1.08-3.018-1.08z" stroke="#52267D" stroke-width=".5"/>
    <path d="M142.54 166.767a4.928 4.928 0 0 1 1.787-.861" fill="#F3E3FF"/>
    <path d="M142.54 166.767a4.928 4.928 0 0 1 1.787-.861" stroke="#52267D" stroke-width=".5"/>
    <path d="M146.14 166.71c-1.776-7.223 1.43-21.03 2.02-24.429l2.334-13.615h1.023c1.296 0 2.277 1.41 2.094 2.694l-1.693 11.81c-.572 4-1.168 22.515 5.78 26.491 1.483.85 3.892.292 4.8-.14 3.303-1.579 4.252-5.696 4.976-9.015 1.498-6.87.33-12.263 0-17.648l-.35-6.737c-.061-1.218.908-2.51 2.124-2.51h1.242l2.236 13.616c.673 3.877 2.403 17.322-5.52 23.625-.142.114 1.927.577 1.328 1.637-2.384 4.212-9.29 4.878-10.588 6.682-5.007 6.944-.318 21.741-.318 21.741s-5.557-2.218-9-5.303c-8.046-7.212-9.067-17.658-9.104-20.733-.045-3.679.922-5.96 2.11-7.323" fill="#F3E3FF"/>
    <path d="M146.14 166.71c-1.776-7.223 1.43-21.03 2.02-24.429l2.334-13.615h1.023c1.296 0 2.277 1.41 2.094 2.694l-1.693 11.81c-.572 4-1.168 22.515 5.78 26.491 1.483.85 3.892.292 4.8-.14 3.303-1.579 4.252-5.696 4.976-9.015 1.498-6.87.33-12.263 0-17.648l-.35-6.737c-.061-1.218.908-2.51 2.124-2.51h1.242l2.236 13.616c.673 3.877 2.403 17.322-5.52 23.625-.142.114 1.927.577 1.328 1.637-2.384 4.212-9.29 4.878-10.588 6.682-5.007 6.944-.318 21.741-.318 21.741s-5.557-2.218-9-5.303c-8.046-7.212-9.067-17.658-9.104-20.733-.045-3.679.922-5.96 2.11-7.323" stroke="#52267D" stroke-width=".5"/>
    <path d="M211.455 172.734s1.143-1.266.5-2.966c-.196-.518-.902-.965-.902-.965s-1.783.31-1.408 1.513c.54 1.73 1.81 2.418 1.81 2.418" fill="#FFF"/>
    <path d="M211.455 172.734s1.143-1.266.5-2.966c-.196-.518-.902-.965-.902-.965s-1.783.31-1.408 1.513c.54 1.73 1.81 2.418 1.81 2.418z" stroke="#52267D"/>
    <path d="M211.076 170.975s.401-.444.176-1.04c-.069-.183-.317-.34-.317-.34s-.625.11-.493.53c.19.608.634.85.634.85" fill="#F3E3FF"/>
    <path d="M202.095 181.802s-1.086-2.477 1.508-4.113c.483-.306 1.168-.561 1.168-.561s2.496 1.974 1.156 2.898c-1.646 1.135-3.832 1.776-3.832 1.776" fill="#FFF"/>
    <path d="M202.095 181.802s-1.086-2.477 1.508-4.113c.483-.306 1.168-.561 1.168-.561s2.496 1.974 1.156 2.898c-1.646 1.135-3.832 1.776-3.832 1.776z" stroke="#52267D"/>
    <path d="M202.998 180.87s-.602-1.374.837-2.28c.267-.17.647-.312.647-.312s1.384 1.095.642 1.607c-.913.63-2.126.985-2.126.985" fill="#F3E3FF"/>
    <path d="M210.013 173.69s1.88 1.65.076 3.128c-.77.63-1.665.669-1.665.669s-1.326-1.417-.657-2.036a17.002 17.002 0 0 1 2.246-1.761" fill="#FFF"/>
    <path d="M210.013 173.69s1.88 1.65.076 3.128c-.77.63-1.665.669-1.665.669s-1.326-1.417-.657-2.036a17.002 17.002 0 0 1 2.246-1.761z" stroke="#52267D"/>
    <path d="M209.74 174.86s.831.732.032 1.386c-.34.279-.736.297-.736.297s-.588-.628-.292-.903c.517-.48.995-.78.995-.78" fill="#F3E3FF"/>
    <path d="M193.072 183.105s-.619-2.205 1.808-3.08c2.425-.875 3.078-.148 3.078-.148s1.343 2.26.143 2.987c-1.2.727-5.029.24-5.029.24" fill="#FFF"/>
    <path d="M193.072 183.105s-.619-2.205 1.808-3.08c2.425-.875 3.078-.148 3.078-.148s1.343 2.26.143 2.987c-1.2.727-5.029.24-5.029.24z" stroke="#52267D"/>
    <path d="M194.211 182.604s-.322-1.146.94-1.602c1.262-.455 1.601-.076 1.601-.076s.698 1.175.074 1.553c-.624.378-2.615.125-2.615.125" fill="#F3E3FF"/>
    <path d="M149.964 131.987s3.873 2.19 9.318.213c-.374 1.689-1.135 5.084-1.135 5.084s-5.044 1.547-8.936-.901c.4-2.242.753-4.396.753-4.396" fill="#FFF"/>
    <path d="M149.964 131.987s3.873 2.19 9.318.213c-.374 1.689-1.135 5.084-1.135 5.084s-5.044 1.547-8.936-.901c.4-2.242.753-4.396.753-4.396z" stroke="#52267D" stroke-width=".5"/>
    <path d="M178.944 122.145s-.177-1.857-2.022-2.596c-.563-.225-2.084-.286-2.084-.286s-.427 1.967.818 2.554c1.793.844 3.288.328 3.288.328" fill="#FFF"/>
    <path d="M178.944 122.145s-.177-1.857-2.022-2.596c-.563-.225-2.084-.286-2.084-.286s-.427 1.967.818 2.554c1.793.844 3.288.328 3.288.328z" stroke="#52267D" stroke-width=".5"/>
    <path d="M174.26 121.197s-.053-2.531-2.899-2.9c-.532-.069-1.214-.017-1.214-.017s-1.343 2.659.159 2.917c1.846.316 3.954 0 3.954 0" fill="#FFF"/>
    <path d="M174.26 121.197s-.053-2.531-2.899-2.9c-.532-.069-1.214-.017-1.214-.017s-1.343 2.659.159 2.917c1.846.316 3.954 0 3.954 0z" stroke="#52267D" stroke-width=".5"/>
    <path d="M168.867 121.38s-.446-2.796-2.947-1.96a3.517 3.517 0 0 0-1.646 1.19s.555 2.124 1.553 1.858c1.74-.464 3.04-1.088 3.04-1.088" fill="#FFF"/>
    <path d="M168.867 121.38s-.446-2.796-2.947-1.96a3.517 3.517 0 0 0-1.646 1.19s.555 2.124 1.553 1.858c1.74-.464 3.04-1.088 3.04-1.088z" stroke="#52267D" stroke-width=".5"/>
    <path d="M143.202 116.635s.1-1.043 1.134-1.457c.316-.126.811.008.811.008s.598.935-.1 1.264c-1.006.474-1.845.184-1.845.184M147.639 116.023s.04-1.908 2.187-2.186c.4-.052.914-.012.914-.012s1.012 2.004-.12 2.198c-1.391.239-2.981 0-2.981 0M153.37 116.898s.282-1.766 1.862-1.24a2.226 2.226 0 0 1 1.04.753s-.352 1.342-.982 1.174c-1.099-.293-1.92-.687-1.92-.687M178.146 121.753s-.098-1.035-1.126-1.446c-.314-.126-1.161-.16-1.161-.16s-.238 1.096.455 1.423c.999.47 1.832.183 1.832.183M173.28 120.828s-.031-1.467-1.681-1.68c-.307-.04-.703-.01-.703-.01s-.777 1.541.092 1.69c1.069.183 2.292 0 2.292 0M168.081 121.27s-.265-1.653-1.744-1.16c-.632.212-.974.705-.974.705s.33 1.257.92 1.1c1.028-.275 1.798-.644 1.798-.644" fill="#F3E3FF"/>
    <path d="M161.538 136.782s4.796.748 9.357-.37c.445 2.477.731 4.35.731 4.35s-3.164 2.147-9.009.901c-.689-3.184-1.079-4.88-1.079-4.88" fill="#FFF"/>
    <path d="M161.538 136.782s4.796.748 9.357-.37c.445 2.477.731 4.35.731 4.35s-3.164 2.147-9.009.901c-.689-3.184-1.079-4.88-1.079-4.88z" stroke="#52267D" stroke-width=".5"/>
    <path d="M168.27 131.965h6.646V129.1a2.1 2.1 0 0 0-2.101-2.1h-4.545c-.708 0-1.282.573-1.282 1.281v2.402c0 .708.574 1.282 1.282 1.282" fill="#F3E3FF"/>
    <path d="M168.987 131.872h5.836v-1.887a2.014 2.014 0 0 0-2.015-2.015h-3.821c-.557 0-1.008.451-1.008 1.007v1.887c0 .557.45 1.008 1.008 1.008" fill="#FFF"/>
    <path d="M168.987 131.872h5.836v-1.887a2.014 2.014 0 0 0-2.015-2.015h-3.821c-.557 0-1.008.451-1.008 1.007v1.887c0 .557.45 1.008 1.008 1.008z" stroke="#52267D" stroke-width=".5"/>
    <path d="M173.937 130.716a1.09 1.09 0 1 1-2.18 0 1.09 1.09 0 0 1 2.18 0" fill="#52267D"/>
    <path d="M151.83 127.257h-6.647v-2.865a2.1 2.1 0 0 1 2.101-2.1h4.545c.708 0 1.282.573 1.282 1.281v2.402c0 .708-.574 1.282-1.282 1.282" fill="#F3E3FF"/>
    <path d="M151.113 127.163h-5.836v-1.887c0-1.113.902-2.014 2.015-2.014h3.82c.558 0 1.009.451 1.009 1.007v1.887c0 .556-.451 1.007-1.008 1.007" fill="#FFF"/>
    <path d="M151.113 127.163h-5.836v-1.887c0-1.113.902-2.014 2.015-2.014h3.82c.558 0 1.009.451 1.009 1.007v1.887c0 .556-.451 1.007-1.008 1.007z" stroke="#52267D" stroke-width=".5"/>
    <path d="M146.162 126.007a1.09 1.09 0 1 0 2.18.001 1.09 1.09 0 0 0-2.18 0M181.477 133.098a1.368 1.368 0 0 1-.784-.485l-.364-.46.812.174.48.103a.342.342 0 0 1-.144.668M139.471 128.002c.31-.066.587-.238.784-.486l.365-.459-.813.174-.48.103a.341.341 0 1 0 .144.668" fill="#52267D"/>
    <path d="M150.429 132.694s4.058 1.729 8.151.149c-.428 2.402-.811 3.627-.811 3.627s-2.463.145-4.094-.176c-2.329-.46-3.246-1.518-3.246-3.6" fill="#E1F2FF"/>
    <path d="M156.076 135.773s-3.693.308-6.552-1.175" fill="#FFF"/>
    <path d="M156.076 135.773s-3.693.308-6.552-1.175" stroke="#52267D" stroke-width=".5"/>
    <path d="M169.139 137.323s-3.6 1.023-6.776.39c.6 2.364.918 3.105.918 3.105s4.763-.636 5.858-3.495" fill="#E1F2FF"/>
    <path d="M167.207 170.903s-.218.157-.527.344" fill="#F3E3FF"/>
    <path d="M167.207 170.903s-.218.157-.527.344" stroke="#52267D" stroke-width=".5"/>
    <path d="M169.486 138.685s-3.623.687-7.47.229" fill="#FFF"/>
    <path d="M169.486 138.685s-3.623.687-7.47.229" stroke="#52267D" stroke-width=".5"/>
    <path d="M163.547 213.236s-.96-.783-2.238.266c-1.167.959-2.045 2.44-1.523 2.589a5.582 5.582 0 0 0 2.411.117c.842-.155 1.585.007 1.923-1.753.157-.821-.573-1.22-.573-1.22" fill="#FFF"/>
    <path d="M163.547 213.236s-.96-.783-2.238.266c-1.167.959-2.045 2.44-1.523 2.589a5.582 5.582 0 0 0 2.411.117c.842-.155 1.585.007 1.923-1.753.157-.821-.573-1.22-.573-1.22z" stroke="#52267D" stroke-width=".5"/>
    <path d="M163.328 213.52s-.598-.486-1.394.167c-.725.597-1.272 1.519-.946 1.61.325.093.9.184 1.5.074.524-.097.986.004 1.196-1.091.098-.511-.356-.76-.356-.76" fill="#E1F2FF"/>
    <path d="M164.911 213.218c.508-.068 1.24 1.035 1.155 1.371-.083.336-.14 1.446-.963 1.567-.605.089-2.764.314-3.236-.155-.435-.432.416-2.431 3.044-2.783" fill="#FFF"/>
    <path d="M164.911 213.218c.508-.068 1.24 1.035 1.155 1.371-.083.336-.14 1.446-.963 1.567-.605.089-2.764.314-3.236-.155-.435-.432.416-2.431 3.044-2.783z" stroke="#52267D" stroke-width=".5"/>
    <path d="M165.054 213.524c.3-.04.731.61.682.809-.049.199-.083.854-.569.925-.357.052-1.632.185-1.909-.091-.257-.256.245-1.435 1.796-1.643" fill="#E1F2FF"/>
    <path d="M167.06 213.433s-.438-.23-1.307.268c-.767.438-1.913 1.14-1.611 2.012.3.872 2.726.548 3.265.364.539-.185.877-.772.782-1.286-.208-1.12-1.13-1.358-1.13-1.358" fill="#FFF"/>
    <path d="M167.06 213.433s-.438-.23-1.307.268c-.767.438-1.913 1.14-1.611 2.012.3.872 2.726.548 3.265.364.539-.185.877-.772.782-1.286-.208-1.12-1.13-1.358-1.13-1.358z" stroke="#52267D" stroke-width=".5"/>
    <path d="M167.225 213.742s-.26-.136-.774.157c-.455.262-1.132.677-.955 1.194.179.516 1.615.324 1.934.214.319-.11.52-.457.463-.76-.123-.663-.668-.805-.668-.805" fill="#E1F2FF"/>
    <path d="M156.922 185.62s.494 5.616-.935 14.446c-1.329 8.22-3.686 10.798-3.512 12.93.134 1.65.83 3.162 2.486 3.162h4.94a5.368 5.368 0 0 0 5.083-3.657c.597-1.759 1.218-4.153 1.59-7.179.38-4.116.297-8.244.23-10.669" fill="#9452BA"/>
    <path d="M156.922 185.62s.494 5.616-.935 14.446c-1.329 8.22-3.686 10.798-3.512 12.93.134 1.65.83 3.162 2.486 3.162h4.94a5.368 5.368 0 0 0 5.083-3.657c.597-1.759 1.218-4.153 1.59-7.179.38-4.116.297-8.244.23-10.669" stroke="#52267D"/>
    <path d="M182.254 189.335c-1.637 1.41-2.485 3.716-2.473 5.835.018 2.83 1.66 6.433.62 11.135-.928 4.19-2.774 4.928-2.217 8.686.1.68.71 1.167 1.394 1.167h5.506a5.191 5.191 0 0 0 5.117-4.337c1.107-6.675.262-12.976-.628-17.81" fill="#9452BA"/>
    <path d="M182.254 189.335c-1.637 1.41-2.485 3.716-2.473 5.835.018 2.83 1.66 6.433.62 11.135-.928 4.19-2.774 4.928-2.217 8.686.1.68.71 1.167 1.394 1.167h5.506a5.191 5.191 0 0 0 5.117-4.337c1.107-6.675.262-12.976-.628-17.81" stroke="#52267D"/>
    <path stroke="#52267D" stroke-width=".25" d="M183.335 195.572l.324-.232 1.046.235-1.162.742-1.399-.69 1.454-1.161.661.22"/>
    <path d="M153.554 213.236s-.962-.783-2.239.266c-1.167.959-2.045 2.44-1.523 2.589a5.585 5.585 0 0 0 2.412.117c.841-.155 1.584.007 1.922-1.753.157-.821-.572-1.22-.572-1.22" fill="#FFF"/>
    <path d="M153.554 213.236s-.962-.783-2.239.266c-1.167.959-2.045 2.44-1.523 2.589a5.585 5.585 0 0 0 2.412.117c.841-.155 1.584.007 1.922-1.753.157-.821-.572-1.22-.572-1.22z" stroke="#52267D" stroke-width=".5"/>
    <path d="M153.334 213.52s-.598-.486-1.393.167c-.726.597-1.273 1.519-.947 1.61.325.093.9.184 1.5.074.524-.097.986.004 1.196-1.091.1-.511-.356-.76-.356-.76" fill="#E1F2FF"/>
    <path stroke="#52267D" stroke-width=".25" d="M161.11 198.677l-1.968.613.26 1.824 2.017.146.939-1.084-1.208-.67-.998.29.635.706"/>
    <g stroke="#F3E3FF" stroke-width=".25">
      <path d="M118.94 138.645a.535.535 0 1 0 1.072 0M117.868 138.645a.536.536 0 0 0 1.072 0M118.405 139.18a.536.536 0 0 0 1.07 0M139.471 138.143a.79.79 0 0 0 .833-1.341M139.725 139.23a.79.79 0 0 0 .833-1.341M164.898 156.143a.72.72 0 0 0 1.437 0M163.46 156.143a.72.72 0 0 0 1.437 0M164.179 156.862a.72.72 0 0 0 1.437 0M143.434 201.674a.718.718 0 1 0 1.437 0M141.996 201.674a.718.718 0 1 0 1.437 0M142.715 202.393a.718.718 0 1 0 1.437 0M163.785 133.239a.79.79 0 1 0 1.578 0M162.994 134.029a.79.79 0 0 0 1.58 0M153.69 147.185a.96.96 0 0 0 1.92 0M152.732 148.145a.959.959 0 1 0 1.919 0M139.753 123.328a.642.642 0 0 0 1.283 0M139.11 123.97a.643.643 0 0 0 1.285 0M200.157 188.034a.739.739 0 1 0 1.127-.956M200.07 189.075a.739.739 0 1 0 1.129-.955M170.788 177.831a.867.867 0 1 0 1.577-.719M169.211 178.551a.866.866 0 1 0 1.577-.72M170.36 178.98a.867.867 0 1 0 1.577-.72M168.782 179.7a.868.868 0 0 0 1.577-.72M171.508 179.41a.867.867 0 1 0 1.577-.72M155.695 129.816a.875.875 0 0 0 1.749 0M155.392 162.868a.875.875 0 0 0 1.749 0M165.304 144.649a.663.663 0 0 0 1.325 0M181.083 129.591a.498.498 0 0 0 .994 0M185.22 202.693a.874.874 0 1 0 1.723-.3M161.058 209.135a.96.96 0 0 0 1.919 0M160.099 210.094a.96.96 0 0 0 1.919 0"/>
    </g>
    <path d="M154.917 213.218c.508-.068 1.24 1.035 1.156 1.371-.084.336-.14 1.446-.963 1.567-.606.089-2.765.314-3.237-.155-.435-.432.417-2.431 3.044-2.783" fill="#FFF"/>
    <path d="M154.917 213.218c.508-.068 1.24 1.035 1.156 1.371-.084.336-.14 1.446-.963 1.567-.606.089-2.765.314-3.237-.155-.435-.432.417-2.431 3.044-2.783z" stroke="#52267D" stroke-width=".5"/>
    <path d="M155.06 213.524c.3-.04.73.61.682.809-.05.199-.083.854-.57.925-.355.052-1.63.185-1.908-.091-.257-.256.245-1.435 1.796-1.643" fill="#E1F2FF"/>
    <path d="M156.722 213.761s-.388-.203-1.156.236c-.679.389-1.692 1.009-1.425 1.781.267.771 2.41.484 2.887.321.476-.163.776-.682.692-1.137-.184-.99-.998-1.201-.998-1.201" fill="#FFF"/>
    <path d="M156.722 213.761s-.388-.203-1.156.236c-.679.389-1.692 1.009-1.425 1.781.267.771 2.41.484 2.887.321.476-.163.776-.682.692-1.137-.184-.99-.998-1.201-.998-1.201z" stroke="#52267D" stroke-width=".5"/>
    <path d="M156.868 214.034s-.23-.12-.685.14c-.401.23-1.002.597-.844 1.053.159.458 1.428.287 1.71.191.282-.097.46-.404.41-.673-.11-.587-.591-.712-.591-.712" fill="#E1F2FF"/>
    <path d="M136.443 213.975s-.388-.203-1.155.236c-.68.389-1.692 1.009-1.425 1.78.266.772 2.41.485 2.887.322.476-.163.776-.682.69-1.137-.183-.99-.997-1.201-.997-1.201" fill="#FFF"/>
    <path d="M136.443 213.975s-.388-.203-1.155.236c-.68.389-1.692 1.009-1.425 1.78.266.772 2.41.485 2.887.322.476-.163.776-.682.69-1.137-.183-.99-.997-1.201-.997-1.201z" stroke="#52267D" stroke-width=".5"/>
    <path d="M136.59 214.247s-.23-.119-.686.141c-.402.23-1.002.597-.843 1.053.157.457 1.426.287 1.71.191.281-.097.46-.404.41-.673-.11-.587-.592-.712-.592-.712" fill="#E1F2FF"/>
    <path d="M138.788 213.432c.508-.068 1.24 1.035 1.155 1.37-.083.337-.14 1.447-.962 1.568-.606.089-2.765.314-3.237-.155-.435-.432.417-2.431 3.044-2.783" fill="#FFF"/>
    <path d="M138.788 213.432c.508-.068 1.24 1.035 1.155 1.37-.083.337-.14 1.447-.962 1.568-.606.089-2.765.314-3.237-.155-.435-.432.417-2.431 3.044-2.783z" stroke="#52267D" stroke-width=".5"/>
    <path d="M138.93 213.738c.3-.04.732.61.683.809-.05.199-.083.854-.57.925-.356.052-1.63.185-1.908-.091-.257-.256.245-1.435 1.796-1.643" fill="#E1F2FF"/>
    <path d="M180.284 213.236s-.963-.783-2.24.266c-1.167.959-2.044 2.44-1.522 2.589a5.58 5.58 0 0 0 2.412.117c.84-.155 1.584.007 1.922-1.753.156-.821-.572-1.22-.572-1.22" fill="#FFF"/>
    <path d="M180.284 213.236s-.963-.783-2.24.266c-1.167.959-2.044 2.44-1.522 2.589a5.58 5.58 0 0 0 2.412.117c.84-.155 1.584.007 1.922-1.753.156-.821-.572-1.22-.572-1.22z" stroke="#52267D" stroke-width=".5"/>
    <path d="M180.064 213.52s-.598-.486-1.393.167c-.726.597-1.272 1.519-.947 1.61.325.093.899.184 1.5.074.525-.097.986.004 1.196-1.091.099-.511-.356-.76-.356-.76" fill="#E1F2FF"/>
    <path d="M181.647 213.218c.509-.068 1.239 1.035 1.156 1.371-.084.336-.141 1.446-.963 1.567-.605.089-2.765.314-3.236-.155-.435-.432.416-2.431 3.043-2.783" fill="#FFF"/>
    <path d="M181.647 213.218c.509-.068 1.239 1.035 1.156 1.371-.084.336-.141 1.446-.963 1.567-.605.089-2.765.314-3.236-.155-.435-.432.416-2.431 3.043-2.783z" stroke="#52267D" stroke-width=".5"/>
    <path d="M181.79 213.524c.3-.04.73.61.681.809-.049.199-.083.854-.568.925-.357.052-1.632.185-1.91-.091-.257-.256.245-1.435 1.796-1.643" fill="#E1F2FF"/>
    <path d="M183.451 213.761s-.388-.203-1.156.236c-.679.389-1.692 1.009-1.425 1.781.267.771 2.41.484 2.888.321.476-.163.775-.682.691-1.137-.184-.99-.998-1.201-.998-1.201" fill="#FFF"/>
    <path d="M183.451 213.761s-.388-.203-1.156.236c-.679.389-1.692 1.009-1.425 1.781.267.771 2.41.484 2.888.321.476-.163.775-.682.691-1.137-.184-.99-.998-1.201-.998-1.201z" stroke="#52267D" stroke-width=".5"/>
    <path d="M183.597 214.034s-.229-.12-.685.14c-.401.23-1.001.597-.843 1.053.158.458 1.427.287 1.71.191.282-.097.459-.404.409-.673-.109-.587-.591-.712-.591-.712" fill="#E1F2FF"/>
    <path d="M145.458 213.906c.158-.133.35-.17.505-.097.583.275 2.057 1.058 1.753 2.117-.237.825-.74.577-1.704.594l-.727.013a.413.413 0 0 1-.366-.212c-.418-.698-.19-1.797.488-2.371l.051-.043z" fill="#FFF"/>
    <path d="M145.458 213.906c.158-.133.35-.17.505-.097.583.275 2.057 1.058 1.753 2.117-.237.825-.74.577-1.704.594l-.727.013a.413.413 0 0 1-.366-.212c-.418-.698-.19-1.797.488-2.371l.051-.043z" stroke="#52267D" stroke-width=".5"/>
    <path d="M145.532 214.144c.117-.098.254-.125.368-.071.424.2 1.494.768 1.273 1.538-.172.599-.537.419-1.238.43l-.528.01a.3.3 0 0 1-.266-.153c-.302-.508-.138-1.306.356-1.723l.035-.031z" fill="#E1F2FF"/>
    <path d="M142.048 213.59s-.89-.86-2.253.075c-1.244.857-2.245 2.258-1.736 2.451a5.567 5.567 0 0 0 2.392.321c.852-.082 1.578.142 2.065-1.583.226-.804-.468-1.264-.468-1.264" fill="#FFF"/>
    <path d="M142.048 213.59s-.89-.86-2.253.075c-1.244.857-2.245 2.258-1.736 2.451a5.567 5.567 0 0 0 2.392.321c.852-.082 1.578.142 2.065-1.583.226-.804-.468-1.264-.468-1.264z" stroke="#52267D" stroke-width=".5"/>
    <path d="M141.806 213.857s-.555-.537-1.402.047c-.775.532-1.397 1.404-1.08 1.524.316.12.879.259 1.488.2.53-.051.982.088 1.285-.985.14-.501-.291-.786-.291-.786" fill="#E1F2FF"/>
    <path d="M188.828 216.532H64.694a2.256 2.256 0 0 1-2.255-2.255V32.256a2.256 2.256 0 0 1 2.255-2.256h124.134a2.256 2.256 0 0 1 2.255 2.256v182.022a2.256 2.256 0 0 1-2.255 2.256" fill="#FFF"/>
    <path d="M188.828 216.532H64.694a2.256 2.256 0 0 1-2.255-2.255V32.256a2.256 2.256 0 0 1 2.255-2.256h124.134a2.256 2.256 0 0 1 2.255 2.256v182.022a2.256 2.256 0 0 1-2.255 2.256z" stroke="#5E63B6" stroke-width="2"/>
    <path d="M180.548 209.135H72.976a2.255 2.255 0 0 1-2.255-2.255V39.571a2.254 2.254 0 0 1 2.255-2.255h107.572a2.255 2.255 0 0 1 2.255 2.255V206.88a2.256 2.256 0 0 1-2.255 2.255" fill="#FFF"/>
    <path d="M180.548 209.135H72.976a2.255 2.255 0 0 1-2.255-2.255V39.571a2.254 2.254 0 0 1 2.255-2.255h107.572a2.255 2.255 0 0 1 2.255 2.255V206.88a2.256 2.256 0 0 1-2.255 2.255z" stroke="#E1F2FF" stroke-width="2" stroke-dasharray="70,20,110,35"/>
    <path d="M147.85 88.809c0 13.66-11.072 24.732-24.731 24.732-13.66 0-24.733-11.072-24.733-24.732s11.073-24.732 24.733-24.732c13.659 0 24.732 11.073 24.732 24.732" fill="#E1F2FF"/>
    <path d="M150.85 83.809c0 13.66-11.072 24.732-24.731 24.732-13.66 0-24.733-11.072-24.733-24.732s11.073-24.732 24.733-24.732c13.659 0 24.732 11.073 24.732 24.732" fill="#FFF"/>
    <path d="M150.85 83.809c0 13.66-11.072 24.732-24.731 24.732-13.66 0-24.733-11.072-24.733-24.732s11.073-24.732 24.733-24.732c13.659 0 24.732 11.073 24.732 24.732z" stroke="#ACD3EF" stroke-width="2" stroke-dasharray="30,5,70,10"/>
    <path d="M132.266 96.007c.104.308.196.518.223.588.008.007-.008-.004 0 0 0 0 0 .002 0 0h-.001c-.7-6.74 3.124-9.549 4.352-14.026.007-.067.02-.139.039-.22.026-.1.047-.204.062-.308.183-1.238-.325-2.68-1.286-4.18-.004-.01-.011-.018-.015-.025-.08-.126-.164-.25-.25-.375 0 0-.002-.002-.002-.005a17.909 17.909 0 0 0-.504-.689c-.017-.024-.034-.049-.054-.072l-.15-.188-.152-.194-.158-.189a10.01 10.01 0 0 0-.165-.195l-.118-.136c-1.51-1.74-3.476-3.459-5.527-4.954 0 0-.016-.023 0 0 .27 2.536.306 5.073.065 7.101-.29 2.445-1.165 5.292-2.38 7.872-2.84-.232-5.746-.89-8.01-1.858-1.894-.808-4.064-2.085-6.138-3.598.023.211.048.42.072.63l.026.187c.019.15.037.298.06.45l.03.206c.022.151.044.3.069.45l.029.181a25.593 25.593 0 0 0 .107.62c.039.22.08.435.124.651l.009.05a48.91 48.91 0 0 0 .267 1.216c.01.033.018.066.025.102.05.2.099.4.15.596.002.001.002.003.002.003.168.633.352 1.244.552 1.83 0 .008.004.014.006.021.337.98.72 1.881 1.15 2.67.063.114.128.227.192.337.003.004.003.01.006.013h.002c.058.1.118.2.177.293l.002.002.008.011c.063.103.129.204.197.3a.473.473 0 0 0 .028.04v.002a11.294 11.294 0 0 0 .31.417l.015.022c.103.13.207.254.317.371.073.083.15.16.227.237.032.033.067.062.099.093.049.046.097.088.145.132.037.032.074.06.112.091.046.04.094.075.14.113l.115.081.146.101.114.07.158.09.108.055c.06.028.12.054.182.081.028.01.059.026.09.037.093.038.187.07.28.095.063.02.116.038.168.058 4.5 1.188 8.88-.695 14.376 3.234" fill="#ACD3EF"/>
    <path d="M95.05 137.173h63.768" fill="#FFF"/>
    <path d="M95.05 137.173h63.768" stroke="#ACD3EF" stroke-width="2" stroke-linecap="round" stroke-linejoin="round" stroke-dasharray="2,5"/>
    <path d="M95.05 157.732h63.768" fill="#FFF"/>
    <path d="M95.05 157.732h63.768" stroke="#ACD3EF" stroke-width="2" stroke-linecap="round" stroke-linejoin="round" stroke-dasharray="2,5"/>
    <path d="M95.05 178.984h63.768" fill="#FFF"/>
    <path d="M95.05 178.984h63.768" stroke="#ACD3EF" stroke-width="2" stroke-linecap="round" stroke-linejoin="round" stroke-dasharray="2,5"/>
    <path d="M206.978 63.541v7M210.478 67.041h-7" stroke="#5E63B6" stroke-width="2" stroke-linecap="round" stroke-linejoin="round"/>
    <path d="M42.728 183.822v3.939M44.697 185.791h-3.938" stroke="#5E63B6" stroke-linecap="round"/>
    <path d="M217.728 123.823v3.938M219.697 125.791h-3.938" stroke="#5E63B6" stroke-linecap="round" stroke-linejoin="round"/>
    <path d="M48.728 83.822v3.938M50.697 85.791h-3.938" stroke="#5E63B6" stroke-linecap="round"/>
    <g>
      <path d="M26.415 122.416v8.125" fill="#FFF"/>
      <path d="M26.415 122.416v8.125" stroke="#5E63B6" stroke-width="2" stroke-linecap="round"/>
    </g>
    <g>
      <path d="M30.478 126.479h-8.125" fill="#FFF"/>
      <path d="M30.478 126.479h-8.125" stroke="#5E63B6" stroke-width="2" stroke-linecap="round"/>
    </g>
    <g>
      <path d="M246.166 216.291h6.974" fill="#FFF"/>
      <path d="M246.166 216.291h6.974" stroke="#5E63B6" stroke-width="2" stroke-linecap="round" stroke-linejoin="round"/>
    </g>
    <g>
      <path d="M3 216.291h8.973" fill="#FFF"/>
      <path d="M3 216.291h8.973" stroke="#5E63B6" stroke-width="2" stroke-linecap="round" stroke-linejoin="round"/>
    </g>
    <g>
      <path d="M95.382 225.608h67.187" fill="#FFF"/>
      <path d="M95.382 225.608h67.187" stroke="#5E63B6" stroke-width="2" stroke-linecap="round" stroke-linejoin="round"/>
    </g>
    <g>
      <path d="M171.187 225.608h9.142" fill="#FFF"/>
      <path d="M171.187 225.608h9.142" stroke="#5E63B6" stroke-width="2" stroke-linecap="round" stroke-linejoin="round"/>
    </g>
    <g>
      <path d="M87.5 225.532l-5 .075" fill="#FFF"/>
      <path d="M87.5 225.532l-5 .075" stroke="#5E63B6" stroke-width="2" stroke-linecap="round" stroke-linejoin="round"/>
    </g>
  </g>
</svg>
