<svg xmlns="http://www.w3.org/2000/svg" width="256" height="256">
  <g fill="none" fill-rule="evenodd" transform="translate(3 27)">
    <path fill="#E1F2FF" fill-rule="nonzero" d="M20.36 200.47c0-57.2 46.37-103.56 103.56-103.56 57.2 0 103.56 46.38 103.56 103.57H20.36z"/>
    <path fill="#FFF" fill-rule="nonzero" stroke="#375D81" stroke-width="2" d="M15.83 191.68h36" stroke-linecap="round" stroke-linejoin="round"/>
    <path stroke="#375D81" d="M79.7 131.73v3.93M81.68 133.7h-3.94M233.2 129.96v3.94M235.17 131.93h-3.94" stroke-linecap="round"/>
    <path fill="#FFF" fill-rule="nonzero" stroke="#375D81" d="M222.87 66.14v3.94M224.84 68.1h-3.94" stroke-linecap="round" stroke-linejoin="round"/>
    <path fill="#FFF" fill-rule="nonzero" stroke="#375D81" stroke-width="2" d="M242.22 191.64h6.97M0 191.64h8.97M90.96 201.4h67.2M166.77 201.4h9.14M83.08 201.32l-5 .07M58.27 191.68h176.9" stroke-linecap="round" stroke-linejoin="round"/>
    <path fill="#9452BA" fill-rule="nonzero" stroke="#52267D" stroke-width="2" d="M162.1 190.5l5 .1c1.7.05 3.27-.97 3.93-2.55 1.87-4.5 1.52-8.7 1.8-12.27.55-6.6-.4-10-1.27-15.6h-7.48s.57 2.78.8 11c.08 2.57-4.37 12.73-4.28 17.77 0 .84.65 1.53 1.5 1.55zM148.13 166.52l-5.86-6.95-3.7.06-.92 8c-.8 5.38-1.97 10.7-3.53 15.9-.35 1.06-.58 2.15-.68 3.25-.05.8.24 1.6.78 2.18.55.58 1.32.92 2.12.93l4.4.1c2.58.06 4.88-1.62 5.6-4.1 2.12-7.66 1.8-19.38 1.8-19.38z"/>
    <path stroke="#52267D" stroke-width=".5" d="M139.57 171.03l-1 .85.92.87 1.55-.56-.3-.7-1.28.28v.23h.34"/>
    <path fill="#9452BA" fill-rule="nonzero" stroke="#52267D" stroke-width="2" d="M140.28 140.95c4.38 0 8.55-2.92 17.5-3.13.1-.53.28-1.04.5-1.53 1.7-3.48 4.2-13.5 2.9-20.17l-1-5.27c-.35-1.73-.5-3.5-.47-5.25.02-.7.1-1.43.27-2.13l.13-.5c.14-.5.32-1 .53-1.48l.22-.48c.15-.3.32-.6.5-.9l.6-.83c.63-.82 1.38-1.53 2.2-2.12.3-.2.58-.38.87-.55 1.68-.97 3.6-1.47 5.55-1.42h1.74c2.83.07 5.5 1.25 7.46 3.3.23.24.46.5.67.76.38.5.7 1 1 1.56.1.2.22.4.3.63.1.22.15.32.2.48.4.98.64 2.02.72 3.07.02.36.02.73 0 1.1-.02.7-.3 1.36-.82 1.85-.5.48-1.2.75-1.9.73l-10.88-.24 1.44 9.5c1.7 9.74 1 16.22-.6 20.5-.37 1-2.34 4.34-2.34 4.34 5.25 8.7 13.52 12.65 22.42 13.94 7.57 1.1 24.1-5.46 15.84-13.65-8.27-8.2 1.83-3 3.3-1.94 1.5 1.06 10 8.75.34 19.55-4.1 4.57-8.7 8.7-19.64 11.7-1.75.5-11.28 1-16.43 2.33-15.35 4-27.63-1-34.35-11.2-6.72-10.23-.5-22.55 1.23-22.55z"/>
    <path fill="#9452BA" fill-rule="nonzero" stroke="#52267D" stroke-width="2" d="M150.06 126.7c.6-11.26-8.14-20.3-18.25-22.4-2.1-.44-2.76-1.1-5.07-1.16h-1.77c-5.94-.12-10.86 4.6-11 10.53-.02.7.25 1.4.75 1.92.5.5 1.18.8 1.9.82l18.2.4h1.47-1.48c4 1.78 6.34 7 6.72 9.72.6 3.3.1 6.73-1.4 9.74-.82 1.72-1.16 3.62-1 5.52h.1c.06 1.05.2 2.1.42 3.13 1.73-1.15 4.43-2.88 4.92-3.13 1.06-.53 3.45-1.73 4.52-2.32 6.85-3.72.64-6.4.98-12.8z"/>
    <path fill="#F3E3FF" fill-rule="nonzero" stroke="#52267D" d="M144 139.57c0-1.74-.3-2.64-.1-3.34 1.22-4 1.62-5.32 1.7-9.64 0-4.4-2.2-8.52-5.9-10.92-1.73-.27-3.5.12-4.94 1.1 4 1.78 6.35 7 6.73 9.72.6 3.3.1 6.73-1.4 9.74-.83 1.72-1.17 3.62-1 5.52 0 0 4.87 2 4.86-2.18"/>
    <path fill="#FFF" fill-rule="nonzero" stroke="#52267D" d="M119.27 104.8c.08-1.16.83-2.17 1.92-2.6l1.62-.6s1.06 2.37-.2 2.94c-1.05.5-2.24.58-3.35.26zM124 103.58c.13-1.58 1.42-2.8 3-2.87.54-.05 1.94 0 1.94 0s.6 2.74-.94 3c-1.33.15-2.68.1-4-.12zM129.7 104s.45-2.83 3-2c.67.23 1.25.64 1.68 1.2 0 0-.56 2.15-1.57 1.9-1.05-.3-2.1-.65-3.1-1.1zM136.82 117.93s6-3.1 5-8.58c1.3 1.15 2.5 2.4 3.6 3.74 0 1.06.07 5.3-5.84 8-.85-1.12-1.77-2.18-2.76-3.17z"/>
    <path fill="#F3E3FF" fill-rule="nonzero" d="M120.1 104.3c.04-.6.43-1.13 1-1.34l.84-.32s.55 1.23-.1 1.52c-.55.26-1.17.3-1.74.14zM125.23 103c.07-.8.73-1.43 1.53-1.46h1s.3 1.4-.48 1.5c-.68.1-1.37.07-2.05-.04zM130.64 103.77s.24-1.5 1.58-1.06c.35.13.66.35.9.65 0 0-.3 1.14-.84 1-.56-.15-1.1-.34-1.64-.58z"/>
    <path fill="#F3E3FF" fill-rule="nonzero" d="M128.48 109.87h.48c1.37.04 2.46 1.18 2.43 2.55-.05 1.37-1.18 2.45-2.55 2.42l-5.45-.12c.06-2.76 2.35-4.95 5.1-4.9l-.02.05z" opacity=".3"/>
    <path fill="#FFF" fill-rule="nonzero" stroke="#52267D" d="M127.5 110.82l1 .02c1.1.03 1.97.94 1.94 2.05-.02 1.1-.94 1.97-2.04 1.94l-4.9-.1c.06-2.16 1.84-3.87 4-3.82v-.1z"/>
    <circle cx="125.53" cy="112.62" r="1.09" fill="#52267D" fill-rule="nonzero" transform="rotate(-88.72 125.528 112.62)"/>
    <path fill="#52267D" fill-rule="nonzero" d="M116.35 115.55c.3-.06.6-.23.8-.47l.37-.45-.82.16-.48.08c-.1.02-.17.07-.22.14-.05.08-.07.17-.05.26.02.1.07.17.14.22.07.05.16.07.25.05z"/>
    <path fill="#EAF3FB" fill-rule="nonzero" d="M137.83 118.06s4.64-2.37 4.68-7.34c.97.65 1.8 1.47 2.46 2.42-.22 1.28-.74 2.5-1.53 3.53-1.73 1.8-3.5 2.33-5.6 1.4z"/>
    <path fill="#FFF" fill-rule="nonzero" stroke="#52267D" d="M142.2 117.28c-1.1 1.04-2.32 1.93-3.64 2.64"/>
    <path fill="#9452BA" fill-rule="nonzero" stroke="#52267D" stroke-width="2" d="M159.74 137l-1-2c-3.6-9.46-4.07-15-1.9-23.9l1.3-5.2c.4-1.72.64-3.48.68-5.24.13-5.87-4.53-10.74-10.4-10.87h-1.72c-5.77-.13-10.55 4.43-10.7 10.2v.3c-.03 1.38 1.06 2.52 2.44 2.55l10.87.24-1.85 9.4c-5.6 25.2-5.33 35.5 4.64 33.6"/>
    <path fill="#FFF" fill-rule="nonzero" stroke="#52267D" d="M141.45 90.88c.2-1.15.97-2.1 2.06-2.53.48-.12.97-.12 1.44 0 0 0 1 1.68-.23 2.23-1 .5-2.16.6-3.25.3zM145.82 90.37c.15-1.8 1.6-3.18 3.4-3.25.46-.04.93-.04 1.4 0 0 0 1.46 3.08-.27 3.34-1.5.18-3.03.15-4.53-.1zM151.65 91.16s.5-2.76 3-1.88c.64.24 1.2.66 1.6 1.22 0 0-.6 2.1-1.57 1.8-1.04-.3-2.05-.67-3.03-1.14z"/>
    <path fill="#F3E3FF" fill-rule="nonzero" stroke="#52267D" d="M140.52 140.62c.54-.4 1.16-.67 1.8-.82M144.12 140.64c-1.62-7.26 1.9-21 2.56-24.38l2.64-13.56h1c.63.1 1.2.43 1.58.94.38.52.53 1.17.42 1.8l-2 11.77c-.66 4-1.67 22.5 5.2 26.62 1.45.88 3.87.38 4.8 0 3.33-1.5 4.37-5.6 5.17-8.9 1.64-6.83.6-12.25.38-17.64l-.2-6.74c-.05-1.27.9-2.36 2.18-2.46h1.24l1.93 13.66c.6 3.9 2 17.37-6 23.5-.15.1 1.9.62 1.3 1.67-2.5 4.17-9.4 4.68-10.74 6.45-5.17 6.83-.8 21.73-.8 21.73-3.22-1.4-6.2-3.24-8.9-5.5-7.87-7.4-8.66-17.86-8.63-20.93 0-3.68 1.05-5.94 2.27-7.27"/>
    <path fill="#FFF" fill-rule="nonzero" stroke="#52267D" d="M209.28 148.12c.72-.82.94-1.97.57-3-.2-.4-.5-.75-.88-1 0 0-1.8.27-1.44 1.48.25 1.03.88 1.92 1.75 2.52z"/>
    <path fill="#F3E3FF" fill-rule="nonzero" d="M208.94 146.35c.23-.28.3-.65.2-1-.07-.14-.18-.26-.3-.35 0 0-.64.1-.52.52.1.34.32.64.62.83z"/>
    <path fill="#FFF" fill-rule="nonzero" stroke="#52267D" d="M199.72 157c-.57-1.57.1-3.32 1.6-4.08.38-.2.77-.4 1.18-.53 0 0 2.45 2 1.1 2.9-1.22.75-2.52 1.32-3.88 1.7z"/>
    <path fill="#F3E3FF" fill-rule="nonzero" d="M200.64 156.07c-.32-.87.06-1.84.9-2.26l.64-.3s1.36 1.14.6 1.63c-.66.4-1.38.73-2.14.94z"/>
    <path fill="#FFF" fill-rule="nonzero" stroke="#52267D" d="M207.82 149s1.84 1.7 0 3.13c-.5.37-1.07.6-1.68.63 0 0-1.3-1.45-.6-2.05.7-.62 1.47-1.2 2.28-1.7z"/>
    <path fill="#F3E3FF" fill-rule="nonzero" d="M207.52 150.2s.82.76 0 1.4c-.2.16-.47.26-.74.28 0 0-.57-.64-.27-.9.32-.3.66-.55 1.02-.77z"/>
    <path fill="#FFF" fill-rule="nonzero" stroke="#52267D" d="M190.67 158.08c-.28-1.34.55-2.67 1.88-3 2.45-.82 3.08-.08 3.08-.08s1.3 2.3.08 3c-1.2.7-5.03.08-5.03.08z"/>
    <path fill="#F3E3FF" fill-rule="nonzero" d="M191.82 157.6c-.16-.7.3-1.42 1-1.58 1.27-.43 1.6 0 1.6 0s.67 1.2 0 1.55c-.86.2-1.74.2-2.6.03z"/>
    <path fill="#FFF" fill-rule="nonzero" stroke="#52267D" d="M148.7 106c2.92 1.42 6.3 1.57 9.32.42-.4 1.68-1.25 5.06-1.25 5.06s-5.08 1.43-8.9-1.1c.44-2.22.84-4.38.84-4.38zM177.9 96.82c-.13-1.18-.9-2.18-2-2.64-.67-.2-1.37-.3-2.07-.33 0 0-.47 2 .76 2.57 1 .54 2.2.68 3.3.4zM173.24 95.77c-.04-1.58-1.26-2.87-2.83-3-.4-.03-.8-.03-1.2 0 0 0-1.4 2.63.1 2.92 1.3.2 2.63.22 3.94.07zM167.85 95.83s-.38-2.8-2.9-2c-.66.2-1.25.62-1.68 1.17 0 0 .5 2.14 1.5 1.9 1.06-.28 2.1-.63 3.08-1.07z"/>
    <path fill="#F3E3FF" fill-rule="nonzero" d="M142.42 90.43c.1-.6.52-1.13 1.1-1.35.25-.07.52-.07.77 0 0 0 .54.9-.13 1.2-.54.25-1.17.3-1.75.15zM146.9 89.9c.12-1.1 1.03-1.96 2.14-2 .3-.02.58-.02.87 0 0 0 .93 1.93-.15 2.1-.95.1-1.9.06-2.84-.1zM152.74 90.9s.3-1.6 1.7-1.1c.38.15.7.4.94.7 0 0-.35 1.22-.9 1-.6-.14-1.18-.35-1.74-.6zM177 96.33c-.06-.6-.44-1.14-1-1.4-.36-.1-.73-.16-1.1-.18 0 0-.25 1 .4 1.36.52.28 1.13.36 1.7.23zM172.15 95.3c-.03-.87-.7-1.57-1.57-1.64-.22-.02-.45-.02-.67 0 0 0-.77 1.45.06 1.6.73.12 1.46.13 2.2.04zM166.86 95.62s-.2-1.54-1.6-1.1c-.35.1-.66.33-.9.62 0 0 .28 1.17.83 1 .56-.13 1.12-.3 1.66-.52z"/>
    <path fill="#FFF" fill-rule="nonzero" stroke="#52267D" d="M160.18 111.07c3.1.5 6.27.43 9.36-.16.4 2.5.63 4.38.63 4.38s-3.2 2.08-9 .7c-.64-3.2-1-4.9-1-4.9z"/>
    <path fill="#F3E3FF" fill-rule="nonzero" d="M173.66 106.55l-5.45-.12c-1.36-.03-2.44-1.17-2.4-2.54.02-1.38 1.15-2.46 2.52-2.43h.48c2.76.07 4.95 2.36 4.9 5.12l-.04-.05z" opacity=".3"/>
    <path fill="#FFF" fill-rule="nonzero" stroke="#52267D" d="M173.57 106.44l-4.76-.1c-1.14-.03-2.05-1-2.03-2.14.02-1 .85-1.8 1.85-1.77l1.13.02c2.15.05 3.86 1.83 3.8 4h.02z"/>
    <circle cx="171.83" cy="105.02" r="1.09" fill="#52267D" fill-rule="nonzero" transform="rotate(-24.65 171.83 105.016)"/>
    <path fill="#F3E3FF" fill-rule="nonzero" d="M149.1 96.33h.5c1.35.05 2.42 1.18 2.4 2.54-.04 1.37-1.17 2.46-2.54 2.43l-5.45-.12c.1-2.75 2.37-4.9 5.1-4.85z" opacity=".3"/>
    <path fill="#FFF" fill-rule="nonzero" stroke="#52267D" d="M148.12 97.28l1 .02c1.1.02 1.98.94 1.95 2.04-.02 1.1-.94 1.98-2.04 1.96l-4.9-.1c0-1.06.43-2.07 1.17-2.8.75-.74 1.77-1.15 2.82-1.12z"/>
    <circle cx="146.25" cy="99.17" r="1.09" fill="#52267D" fill-rule="nonzero" transform="rotate(-48.94 146.25 99.173)"/>
    <path fill="#52267D" fill-rule="nonzero" d="M180.2 107.83c-.32-.07-.6-.25-.78-.5l-.35-.47.8.2.5.1c.17.04.28.23.24.4 0 .1-.06.18-.14.23-.08.04-.18.05-.27.03zM138.3 101.8c.32-.06.6-.23.8-.47l.38-.45-.82.16-.48.1c-.1 0-.17.06-.22.13-.05.08-.07.17-.05.26.03.1.08.17.15.22.08.05.17.07.26.05z"/>
    <path fill="#EAF3FB" fill-rule="nonzero" d="M149.16 106.73c2.6 1.06 5.48 1.18 8.15.33-.22 1.22-.52 2.42-.88 3.6-1.37.06-2.74-.03-4.1-.26-2.32-.5-3.2-1.6-3.16-3.67z"/>
    <path fill="#FFF" fill-rule="nonzero" stroke="#52267D" d="M154.74 109.93c-2.25.1-4.5-.36-6.52-1.32"/>
    <path fill="#EAF3FB" fill-rule="nonzero" d="M167.76 111.78c-2.2.53-4.52.6-6.76.22.22 1.06.5 2.1.85 3.13 0 0 4.76-.52 5.9-3.35z"/>
    <path fill="#F3E3FF" fill-rule="nonzero" stroke="#52267D" stroke-width=".5" d="M165.08 145.3s-.22.15-.53.33"/>
    <path fill="#FFF" fill-rule="nonzero" stroke="#52267D" d="M168.08 113.14c-2.48.36-5 .38-7.47.06"/>
    <path fill="#FFF" fill-rule="nonzero" stroke="#52267D" stroke-width=".5" d="M160.48 187.54c-.7-.48-1.65-.4-2.24.22-1.2.93-2.1 2.4-1.58 2.55.78.24 1.6.3 2.4.18.85-.14 1.6 0 2-1.7.1-.5-.14-1-.58-1.24z"/>
    <path fill="#EAF3FB" fill-rule="nonzero" d="M160.26 187.82c-.43-.3-1.03-.25-1.4.13-.74.58-1.3 1.5-1 1.6.5.14 1 .17 1.5.1.53-.08 1 0 1.22-1.06.06-.3-.06-.62-.32-.78z"/>
    <path fill="#FFF" fill-rule="nonzero" stroke="#52267D" stroke-width=".5" d="M161.85 187.56c.5-.06 1.22 1.06 1.12 1.4-.1.34-.17 1.44-1 1.55-.6.1-2.77.26-3.23-.22-.46-.48.47-2.43 3.1-2.72z"/>
    <path fill="#EAF3FB" fill-rule="nonzero" d="M162 187.87c.3 0 .72.63.66.82-.06.18-.1.84-.6.9-.48.06-1.63.15-1.9-.13s.27-1.47 1.84-1.6z"/>
    <path fill="#FFF" fill-rule="nonzero" stroke="#52267D" stroke-width=".5" d="M164 187.82s-.43-.24-1.3.24c-.9.48-1.95 1.1-1.67 2 .28.9 2.7.6 3.26.44.53-.18.87-.7.8-1.27-.07-.64-.5-1.2-1.1-1.4z"/>
    <path fill="#EAF3FB" fill-rule="nonzero" d="M164.15 188.13s-.26-.14-.78.14-1.15.65-1 1.17c.15.52 1.6.36 1.93.26.32-.1.52-.42.48-.75-.04-.37-.28-.68-.63-.82z"/>
    <path fill="#9452BA" fill-rule="nonzero" stroke="#52267D" stroke-width="2" d="M154.47 159.8c.12 4.83-.3 9.67-1.26 14.4-1.5 8.2-3.92 10.72-3.8 12.86.1 1.65.77 3.18 2.43 3.22l4.94.1c2.3.06 4.38-1.37 5.16-3.53.83-2.3 1.4-4.7 1.75-7.14.36-3.53.52-7.1.47-10.65M179.72 164.07c-1.65 1.47-2.6 3.57-2.6 5.78 0 2.83 1.5 6.47.37 11.15-1 4.17-2.9 4.86-2.42 8.63.1.68.68 1.2 1.37 1.2l5.5.12c2.53.05 4.74-1.73 5.2-4.22.97-5.9.9-11.94-.22-17.82"/>
    <path stroke="#52267D" stroke-width=".5" d="M180.66 170.33l.33-.23 1.03.26-1.18.72-1.38-.73 1.47-1.12.66.23"/>
    <path fill="#FFF" fill-rule="nonzero" stroke="#52267D" d="M150.5 187.32c-.7-.48-1.66-.4-2.25.22-1.2.93-2.1 2.4-1.58 2.55.78.22 1.6.28 2.4.16.85-.14 1.6 0 2-1.7.1-.5-.14-1-.58-1.24z"/>
    <path fill="#EAF3FB" fill-rule="nonzero" d="M150.26 187.6c-.43-.3-1.03-.25-1.4.13-.74.58-1.3 1.5-1 1.6.5.14 1 .17 1.5.1.53-.08 1 0 1.22-1.06.06-.3-.06-.6-.32-.77z"/>
    <path stroke="#52267D" stroke-width=".5" d="M158.37 172.94l-1.98.56.2 1.83 2.02.2.96-1.07-1.2-.7-1 .27.62.72"/>
    <g stroke="#F3E3FF" stroke-width=".25" opacity=".3">
      <path d="M117.55 112c-.03.2.07.4.24.53.17.1.4.1.58 0 .17-.12.27-.32.24-.53"/>
      <path d="M116.48 112c.04.27.27.47.53.47.28 0 .5-.2.55-.47M117 112.5c-.03.2.07.4.24.53.18.1.4.1.6 0 .16-.12.26-.32.23-.53M138.1 111.93c.35.2.8.08 1.03-.26.23-.35.15-.8-.18-1.06M138.32 113c.36.2.82.08 1.04-.26.23-.35.15-.8-.18-1.06M163.1 130.5c0 .4.33.72.73.72.4 0 .72-.32.72-.72"/>
      <path d="M161.67 130.46c0 .26.14.5.36.62.22.13.5.13.72 0 .22-.13.36-.36.36-.62"/>
      <path d="M162.37 131.2c0 .4.32.72.72.72.4 0 .7-.32.7-.72M140.63 175.54c0 .4.32.72.72.72.4 0 .72-.32.72-.72M139.2 175.5c0 .4.3.73.7.73.4 0 .73-.32.73-.72"/>
      <path d="M139.9 176.24c0 .26.14.5.36.62.22.13.5.13.72 0 .22-.13.36-.36.36-.62M162.5 107.57c0 .44.35.8.8.8.43 0 .78-.36.78-.8"/>
      <path d="M161.7 108.34c0 .44.35.8.8.8.43 0 .78-.36.78-.8M152.1 121.3c.12.42.52.7.96.7.44 0 .84-.28.96-.7M151.12 122.23c.12.43.52.72.96.72.44 0 .84-.3.96-.72M138.7 97.13c0 .35.3.64.64.64.35 0 .64-.3.64-.64"/>
      <path d="M138 97.76c0 .35.3.64.64.64.35 0 .64-.3.64-.64M197.64 163.16c.16.22.43.33.7.3.27-.05.5-.23.6-.5.08-.24.03-.53-.15-.73"/>
      <path d="M197.53 164.2c.16.22.43.33.7.3.27-.05.5-.23.6-.5.08-.24.03-.53-.15-.73M168.5 152.3c.1.33.38.57.7.62.34.05.67-.1.86-.37.2-.27.2-.63.04-.92"/>
      <path d="M166.92 153c.1.32.37.56.7.6.33.06.66-.08.85-.36.2-.27.2-.63.04-.92"/>
      <path d="M168.06 153.45c.22.4.7.55 1.1.37.4-.17.62-.63.5-1.05M166.46 154.13c.1.32.37.56.7.6.33.06.66-.08.85-.36.2-.27.2-.63.05-.92M169.2 153.9c.2.4.68.55 1.1.37.4-.17.6-.63.48-1.05M154.5 104c0 .48.38.88.87.88.48 0 .87-.4.87-.88M153.45 137c0 .48.4.88.88.88s.87-.4.87-.88M163.77 119c0 .37.3.66.66.66.37 0 .67-.3.67-.66M179.88 104.3c0 .3.22.5.5.5s.5-.2.5-.5M182.38 177.5c.07.47.52.8 1 .73.47-.08.8-.52.73-1M158.08 183.4c-.12.4.03.84.38 1.08.35.25.8.25 1.16 0 .35-.24.5-.68.38-1.1"/>
      <path d="M157.1 184.33c-.12.4.03.85.38 1.1.35.24.8.24 1.16 0 .35-.25.5-.7.38-1.1"/>
    </g>
    <path fill="#FFF" fill-rule="nonzero" stroke="#52267D" d="M151.85 187.33c.5-.06 1.22 1.06 1.12 1.4-.1.34-.17 1.44-1 1.55-.6.08-2.77.25-3.23-.23-.46-.48.48-2.42 3.1-2.72z"/>
    <path fill="#EAF3FB" fill-rule="nonzero" d="M152 187.64c.3 0 .72.63.66.82-.06.2-.1.85-.6.9-.48.07-1.63.16-1.9-.12s.27-1.42 1.84-1.6z"/>
    <path fill="#FFF" fill-rule="nonzero" stroke="#52267D" d="M153.65 187.92s-.38-.2-1.16.2c-.8.43-1.72 1-1.47 1.76.25.75 2.4.54 2.88.4.5-.16.8-.63.73-1.13-.07-.56-.45-1.04-.98-1.23z"/>
    <path fill="#EAF3FB" fill-rule="nonzero" d="M153.8 188.2s-.24-.13-.7.12c-.46.25-1 .57-.87 1 .13.43 1.42.32 1.7.23.28-.1.45-.37.42-.66-.04-.33-.26-.6-.56-.7z"/>
    <path fill="#FFF" fill-rule="nonzero" stroke="#52267D" d="M133.37 187.68s-.38-.2-1.16.2c-.77.43-1.7 1-1.45 1.76.25.75 2.4.54 2.88.4.48-.16.78-.63.72-1.13-.07-.55-.45-1.03-.98-1.22z"/>
    <path fill="#EAF3FB" fill-rule="nonzero" d="M133.5 188s-.22-.12-.68.13c-.46.25-1 .57-.87 1 .13.43 1.42.32 1.7.23.28-.1.45-.37.42-.66-.04-.32-.26-.6-.56-.7z"/>
    <path fill="#FFF" fill-rule="nonzero" stroke="#52267D" d="M135.72 187.2c.5-.07 1.22 1.05 1.12 1.4-.1.33-.17 1.43-1 1.54-.6.08-2.77.25-3.23-.23-.45-.47.5-2.42 3.12-2.7z"/>
    <path fill="#EAF3FB" fill-rule="nonzero" d="M135.86 187.5c.3 0 .72.63.66.82-.06.2-.1.85-.6.9-.48.07-1.63.16-1.9-.12s.3-1.43 1.84-1.6z"/>
    <path fill="#FFF" fill-rule="nonzero" stroke="#52267D" stroke-width=".5" d="M177.2 187.92c-.7-.48-1.64-.4-2.23.22-1.2.93-2.1 2.4-1.58 2.55.77.22 1.6.28 2.4.16.84-.14 1.58 0 2-1.7.08-.5-.15-1-.6-1.24z"/>
    <path fill="#EAF3FB" fill-rule="nonzero" d="M177 188.2c-.43-.3-1.03-.25-1.4.13-.74.58-1.3 1.5-1 1.6.5.14 1 .17 1.5.1.53-.08 1 0 1.22-1.06.06-.3-.06-.6-.32-.77z"/>
    <path fill="#FFF" fill-rule="nonzero" stroke="#52267D" stroke-width=".5" d="M178.58 187.93c.5-.06 1.22 1.06 1.12 1.4-.1.34-.17 1.44-1 1.55-.6.08-2.77.25-3.23-.23-.46-.48.47-2.43 3.1-2.72z"/>
    <path fill="#EAF3FB" fill-rule="nonzero" d="M178.7 188.24c.3 0 .73.63.67.82-.06.2-.1.85-.6.9-.48.07-1.63.16-1.9-.12s.3-1.43 1.84-1.6z"/>
    <path fill="#FFF" fill-rule="nonzero" stroke="#52267D" stroke-width=".5" d="M180.37 188.5s-.38-.2-1.16.22c-.77.42-1.7 1-1.45 1.75s2.4.54 2.88.4c.48-.16.78-.63.72-1.13-.07-.56-.45-1.04-.98-1.23z"/>
    <path fill="#EAF3FB" fill-rule="nonzero" d="M180.5 188.8s-.22-.13-.68.12c-.46.25-1 .57-.87 1 .13.43 1.42.32 1.7.23.28-.1.45-.37.42-.66-.04-.33-.26-.6-.56-.7z"/>
    <path fill="#FFF" fill-rule="nonzero" stroke="#52267D" d="M142.38 187.8c.14-.12.34-.15.5-.08.6.3 2 1.1 1.7 2.15-.25.82-.74.56-1.7.56h-.74c-.15 0-.3-.1-.36-.22-.37-.8-.15-1.77.54-2.35l.06-.04z"/>
    <path fill="#EAF3FB" fill-rule="nonzero" d="M142.45 188.05c.1-.1.25-.12.37-.06.42.2 1.48.8 1.24 1.56-.2.6-.55.4-1.25.4h-.52c-.1 0-.2-.06-.26-.16-.27-.6-.1-1.3.4-1.7l.03-.05z"/>
    <path fill="#FFF" fill-rule="nonzero" stroke="#52267D" d="M139 187.42c-.65-.55-1.6-.55-2.25 0-1.26.83-2.3 2.2-1.8 2.4.77.3 1.58.43 2.4.38.84-.06 1.56.18 2.1-1.54.1-.46-.07-.95-.45-1.24z"/>
    <path fill="#EAF3FB" fill-rule="nonzero" d="M138.73 187.68c-.4-.34-1-.34-1.4 0-.8.52-1.43 1.37-1.1 1.5.46.18.97.26 1.47.23.53 0 1 .12 1.3-1 .07-.27-.04-.55-.27-.72z"/>
    <path fill="#FFF" fill-rule="nonzero" stroke="#375D81" stroke-width="2" d="M81.15 97.42h87.4v94.16h-87.4z"/>
    <path fill="#375D81" fill-rule="nonzero" stroke="#375D81" stroke-width="2" d="M89.45 106h79.43v85.58H89.45z"/>
    <path fill="#E1F2FF" fill-rule="nonzero" stroke="#9ACDED" stroke-width="2" d="M138.47 178.43H93.3v-60.7c0-1.83 1.48-3.3 3.3-3.3h26.2c1.55 0 2.9 1.1 3.2 2.63l12.47 61.37z" stroke-linecap="round"/>
    <rect width="78.79" height="64" x="93.31" y="122.43" fill="#E1F2FF" fill-rule="nonzero" stroke="#9ACDED" stroke-width="2" stroke-linecap="round" rx="6.06"/>
    <path fill="#E1F2FF" fill-rule="nonzero" stroke="#9ACDED" stroke-width="2" d="M143.35 178.7H98.18V118c0-1.82 1.47-3.3 3.3-3.3h26.18c1.56 0 2.9 1.1 3.22 2.64l12.47 61.35z" stroke-linecap="round"/>
    <rect width="78.79" height="64" x="98.18" y="122.69" fill="#E1F2FF" fill-rule="nonzero" stroke="#9ACDED" stroke-width="2" stroke-linecap="round" rx="6.06"/>
    <path fill="#E1F2FF" fill-rule="nonzero" stroke="#9ACDED" stroke-width="2" d="M149.16 123.62H104v-60.7c0-1.83 1.47-3.3 3.3-3.3h26.18c1.56 0 2.9 1.1 3.22 2.63l12.46 61.37z" stroke-linecap="round"/>
    <rect width="78.79" height="64" x="103.99" y="67.62" fill="#E1F2FF" fill-rule="nonzero" stroke="#9ACDED" stroke-width="2" stroke-linecap="round" rx="6.06"/>
    <circle cx="143.92" cy="100.03" r="12.3" fill="#FFF" fill-rule="nonzero" transform="rotate(-86.99 143.92 100.035)"/>
    <circle cx="145.55" cy="97.63" r="12.3" fill="#FFF" fill-rule="nonzero" stroke="#9ACDED" stroke-width="2" transform="rotate(-86.99 145.548 97.63)"/>
    <path fill="#9ACDED" fill-rule="nonzero" d="M148.27 103.84c0 .16.08.26.1.3-.17-3.37 1.8-4.66 2.53-6.85v-.12-.15c.08-.74-.1-1.5-.53-2.1l-.1-.2-.24-.36-.07-.1-.07-.1-.08-.1-.08-.1-.06-.07c-.77-.96-1.65-1.84-2.62-2.6.08 1.17.03 2.35-.15 3.52-.25 1.35-.72 2.65-1.38 3.85-1.36-.17-2.7-.55-3.93-1.13-1.08-.54-2.08-1.2-3-1.95v2.29l.05.3c.07.3.14.62.23.9.13.48.3.93.5 1.37l.1.17.07.15.1.14.1.2.16.18.12.12.07.07h.04l.07.07h.06l.07.05h.28l.14.05h.08c2.2.7 4.43-.1 7.06 2"/>
    <path fill="#FFF" fill-rule="nonzero" stroke="#375D81" stroke-width="2" d="M111.56 106.3h85v85h-85z"/>
    <path fill="#E1F2FF" fill-rule="nonzero" stroke="#375D81" stroke-width="2" d="M89.45 158.95h21.93v32.3H89.45z"/>
    <path fill="#FFF" fill-rule="nonzero" stroke="#375D81" stroke-width="2" d="M37.36 97.52h43.7v94.16h-43.7z"/>
    <path stroke="#375D81" stroke-width="2" d="M187.85 0v7M191.35 3.5h-7M51.83 40.13v7M55.33 43.63h-7" stroke-linecap="round" stroke-linejoin="round"/>
    <path stroke="#375D81" d="M132.53 38.16v3.94M134.5 40.13h-3.94M19.4 150.94v3.94M21.38 152.9h-3.94" stroke-linecap="round"/>
    <path stroke="#9ACDED" stroke-width="2" d="M48.05 140.74h20.22M48.05 148h20.22M48.05 155.27h20.22" stroke-linecap="round"/>
    <path stroke="#E1F2FF" stroke-width="2" d="M185.58 187.54V173.3" stroke-linecap="round"/>
    <path fill="#E1F2FF" fill-rule="nonzero" d="M138.64 183.12l33.1-8.85.24-2h-33.34"/>
    <rect width="33.19" height="5.17" x="139.56" y="169.27" fill="#FFF" fill-rule="nonzero" stroke="#375D81" stroke-width="2" rx="2.14"/>
    <path fill="#E1F2FF" fill-rule="nonzero" stroke="#375D81" stroke-width="2" d="M104.66 164.48h-15.1M96.73 185.3h-7.18" stroke-linecap="round"/>
    <path stroke="#375D81" stroke-width="2" d="M116.6 187.54V163.3" stroke-linecap="round"/>
    <circle cx="151.69" cy="142.12" r="17.63" fill="#EFEFF6" fill-rule="nonzero"/>
    <circle cx="155.85" cy="138.8" r="17.63" fill="#FFF" fill-rule="nonzero" stroke="#375D81" stroke-width="2"/>
    <path fill="#9452BA" fill-rule="nonzero" d="M161.5 147.7c.07.22.14.38.16.43-.52-5 2.32-7.1 3.24-10.43v-.16-.23c.04-1.1-.3-2.2-1-3.1l-.18-.28-.37-.5v-.06l-.1-.14-.12-.14-.12-.14-.1-.15-.1-.1c-1.23-1.38-2.6-2.62-4.1-3.7.18 1.76.18 3.54 0 5.3-.3 2.02-.9 4-1.78 5.85-2.06-.15-4.08-.6-6-1.38-1.62-.72-3.15-1.62-4.57-2.68 0 .15 0 .3.05.46v.62l.05.33v.15l.07.42c0 .16.06.32.1.48l.08.43v.1l.1.38v.08l.1.44c.13.47.26.93.4 1.36.24.7.53 1.36.87 2l.14.25.14.2.15.23.2.27.23.28.17.18.07.07.1.1.1.07.1.08.07.06.1.08.1.05.1.07h.1l.13.06h.07l.2.07h.13c3.35.88 6.6-.52 10.7 2.4"/>
  </g>
</svg>