<svg xmlns="http://www.w3.org/2000/svg" xmlns:xlink="http://www.w3.org/1999/xlink" width="840" height="466">
  <defs>
    <rect id="b" width="300" height="346" rx="10"/>
    <filter id="a" width="119.3%" height="116.8%" x="-9%" y="-7.2%" filterUnits="objectBoundingBox">
      <feOffset dx="2" dy="4" in="SourceAlpha" result="shadowOffsetOuter1"/>
      <feGaussianBlur in="shadowOffsetOuter1" result="shadowBlurOuter1" stdDeviation="9"/>
      <feColorMatrix in="shadowBlurOuter1" values="0 0 0 0 0.0352941176 0 0 0 0 0.117647059 0 0 0 0 0.258823529 0 0 0 0.14 0"/>
    </filter>
    <rect id="d" width="300" height="269" rx="10"/>
    <filter id="c" width="119.3%" height="121.6%" x="-9%" y="-9.3%" filterUnits="objectBoundingBox">
      <feOffset dx="2" dy="4" in="SourceAlpha" result="shadowOffsetOuter1"/>
      <feGaussianBlur in="shadowOffsetOuter1" result="shadowBlurOuter1" stdDeviation="9"/>
      <feColorMatrix in="shadowBlurOuter1" values="0 0 0 0 0.0352941176 0 0 0 0 0.117647059 0 0 0 0 0.258823529 0 0 0 0.14 0"/>
    </filter>
    <rect id="f" width="260" height="58" rx="10"/>
    <filter id="e" width="122.3%" height="200%" x="-10.4%" y="-43.1%" filterUnits="objectBoundingBox">
      <feOffset dx="2" dy="4" in="SourceAlpha" result="shadowOffsetOuter1"/>
      <feGaussianBlur in="shadowOffsetOuter1" result="shadowBlurOuter1" stdDeviation="9"/>
      <feColorMatrix in="shadowBlurOuter1" values="0 0 0 0 0.0352941176 0 0 0 0 0.117647059 0 0 0 0 0.258823529 0 0 0 0.14 0"/>
    </filter>
    <rect id="h" width="260" height="58" rx="10"/>
    <filter id="g" width="122.3%" height="200%" x="-10.4%" y="-43.1%" filterUnits="objectBoundingBox">
      <feOffset dx="2" dy="4" in="SourceAlpha" result="shadowOffsetOuter1"/>
      <feGaussianBlur in="shadowOffsetOuter1" result="shadowBlurOuter1" stdDeviation="9"/>
      <feColorMatrix in="shadowBlurOuter1" values="0 0 0 0 0.0352941176 0 0 0 0 0.117647059 0 0 0 0 0.258823529 0 0 0 0.14 0"/>
    </filter>
  </defs>
  <g fill="none" fill-rule="evenodd">
    <path fill="#FFF" d="M0 0h840v466H0z"/>
    <path fill="#F5F9F8" d="M0 0h840v872H0z"/>
    <g transform="translate(480 60)">
      <use fill="#000" filter="url(#a)" xlink:href="#b"/>
      <use fill="#FFF" xlink:href="#b"/>
    </g>
    <g transform="translate(500 80)">
      <rect width="48" height="48" fill="#5D63AA" rx="5"/>
      <path stroke="#FFF" stroke-linecap="round" stroke-linejoin="round" d="M19.886 16C16.962 17.609 15 20.575 15 23.97c0 3.437 2.013 6.436 5 8.03m2-.5l3 2.5v-5l-3 2.5zM27.114 16C30.038 17.609 32 20.575 32 23.97c0 3.437-2.013 6.436-5 8.03m-2-15.5L22 19v-5l3 2.5z"/>
    </g>
    <path fill="#EEEEF7" d="M500 148h260v1H500z"/>
    <text fill="#8F92C7" font-family="Lato-MediumItalic, Lato" font-size="16" font-style="italic" font-weight="500" transform="translate(480 60)">
      <tspan x="83" y="66">Synchronization application</tspan>
    </text>
    <text fill="#3A438B" font-family="Lato-MediumItalic, Lato" font-size="24" font-style="italic" font-weight="500" transform="translate(480 60)">
      <tspan x="83" y="46">App</tspan>
    </text>
    <g transform="translate(60 137)">
      <use fill="#000" filter="url(#c)" xlink:href="#d"/>
      <use fill="#FFF" xlink:href="#d"/>
    </g>
    <g transform="translate(80 157)">
      <rect width="48" height="48" fill="#82549D" rx="5"/>
      <path fill="#FFF" d="M34.716 23.306a.91.91 0 0 1 .036-.194c.017-.088.053-.176.053-.265.194-1.058-.195-2.329-.99-3.652a3.992 3.992 0 0 1-.23-.353 9.764 9.764 0 0 0-.424-.617c-.017-.018-.035-.036-.053-.071-.035-.053-.088-.106-.123-.159-.036-.053-.089-.123-.124-.176-.035-.053-.088-.106-.124-.159-.053-.053-.088-.124-.141-.176-.035-.036-.07-.089-.106-.124-1.255-1.553-2.898-3.088-4.63-4.429.16 2.188.124 4.394-.141 6.123-.318 2.1-1.166 4.534-2.28 6.722-2.456-.282-4.93-.935-6.873-1.835-1.608-.758-3.446-1.923-5.195-3.282l.053.547c0 .053.017.106.017.16.018.123.018.264.036.387 0 .053.017.124.017.177.018.123.036.265.053.388 0 .053.018.106.018.159.018.159.035.335.07.494.036.247.054.423.089.617.035.212.053.37.088.53 0 .035.018.07.018.106.035.158.053.3.088.458 0 .036.018.053.018.089a20.827 20.827 0 0 0 .53 2.1c.265.864.566 1.658.919 2.346.053.106.106.194.159.3.053.106.088.194.141.282.053.106.106.194.16.282.088.142.158.247.23.353.034.053.034.07.052.07.088.107.177.23.265.336.07.07.124.141.195.212l.088.088c.035.035.088.07.124.124l.088.088c.035.035.07.07.124.106.035.017.07.053.088.07.035.036.088.07.124.089.035.017.07.035.088.07.035.035.088.053.141.088.036.018.071.036.089.053.053.018.106.053.159.07.017.018.053.018.07.036.071.035.16.07.23.088.053.018.106.036.142.053 3.852 1.147 7.775-.335 12.404 3.212-.406-5.84 2.969-8.152 4.17-11.98z"/>
    </g>
    <path fill="#FFF" d="M80 225h260v1H80z"/>
    <text fill="#8F92C7" font-family="Lato-MediumItalic, Lato" font-size="13" font-style="italic" font-weight="500" transform="translate(60 137)">
      <tspan x="83" y="63">Asset manager</tspan>
    </text>
    <text fill="#3A438B" font-family="Lato-MediumItalic, Lato" font-size="24" font-style="italic" font-weight="500" transform="translate(60 137)">
      <tspan x="83" y="46">PIM</tspan>
    </text>
    <g transform="translate(80 253)">
      <use fill="#000" filter="url(#e)" xlink:href="#f"/>
      <use fill="#FFF" xlink:href="#f"/>
    </g>
    <g transform="translate(90 263)">
      <rect width="38" height="38" fill="#C8AAD1" rx="5"/>
      <path stroke="#FFF" stroke-linecap="round" stroke-linejoin="round" d="M12.083 12.667h12.25a1 1 0 0 1 1 1v12.25a1 1 0 0 1-1 1h-12.25a1 1 0 0 1-1-1v-12.25a1 1 0 0 1 1-1zm8.5 6.333a1.583 1.583 0 1 0 0-3.167 1.583 1.583 0 0 0 0 3.167zm-9.588 2.991l3.958-2.814 3.454 3.518 2.88-2.111 3.957 2.11m-11.786-11.61h13.547v13.853"/>
    </g>
    <text fill="#3A438B" font-family="Lato-MediumItalic, Lato" font-size="17" font-style="italic" font-weight="500" transform="translate(80 253)">
      <tspan x="63" y="36">Asset family</tspan>
    </text>
    <g>
      <g transform="translate(80 321)">
        <use fill="#000" filter="url(#g)" xlink:href="#h"/>
        <use fill="#FFF" xlink:href="#h"/>
      </g>
      <g transform="translate(90 331)">
        <rect width="38" height="38" fill="#C8AAD1" rx="5"/>
        <path stroke="#FFF" stroke-linecap="round" stroke-linejoin="round" d="M12.083 11.083h13.834a1 1 0 0 1 1 1v13.834a1 1 0 0 1-1 1H12.083a1 1 0 0 1-1-1V12.083a1 1 0 0 1 1-1zm9.688 7.125a1.98 1.98 0 1 0 0-3.958 1.98 1.98 0 0 0 0 3.958zm-10.688 3.167l4.398-3.167 3.838 3.959 3.2-2.375 4.398 2.375"/>
      </g>
      <text fill="#3A438B" font-family="Lato-MediumItalic, Lato" font-size="17" font-style="italic" font-weight="500" transform="translate(80 321)">
        <tspan x="63" y="36">Asset</tspan>
      </text>
    </g>
    <g>
      <path stroke="#8F92C7" stroke-dasharray="2 6" stroke-linecap="round" stroke-linejoin="round" stroke-width="2" d="M312.5 282h188"/>
      <path fill="#8F92C7" d="M316.5 276.621v10.758c0 1.171-.888 2.121-1.984 2.121a1.922 1.922 0 0 1-1.403-.621l-5.032-5.379c-.775-.828-.775-2.172 0-3l5.032-5.379a1.895 1.895 0 0 1 2.806 0c.372.398.581.938.581 1.5z"/>
    </g>
    <g>
      <path stroke="#8F92C7" stroke-dasharray="2 6" stroke-linecap="round" stroke-linejoin="round" stroke-width="2" d="M312.5 350h188"/>
      <path fill="#8F92C7" d="M316.5 344.621v10.758c0 1.171-.888 2.121-1.984 2.121a1.922 1.922 0 0 1-1.403-.621l-5.032-5.379c-.775-.828-.775-2.172 0-3l5.032-5.379a1.895 1.895 0 0 1 2.806 0c.372.398.581.938.581 1.5z"/>
    </g>
    <path stroke="#8F92C7" stroke-dasharray="2 6" stroke-linecap="round" stroke-linejoin="round" stroke-width="2" d="M505 162v20H351c-11.046 0-20 8.954-20 20s8.954 20 20 20h154v128"/>
    <g transform="translate(500 267)">
      <text fill="#3A438B" font-family="Lato-Medium, Lato" font-size="14" font-weight="400">
        <tspan x="16" y="20.159">Upsert asset attribute options</tspan>
      </text>
      <circle cx="5" cy="15" r="5" fill="#4EA7DD"/>
    </g>
    <g transform="translate(500 335)">
      <text fill="#3A438B" font-family="Lato-Medium, Lato" font-size="14" font-weight="400">
        <tspan x="16" y="20.159">Upsert assets</tspan>
      </text>
      <circle cx="5" cy="15" r="5" fill="#4EA7DD"/>
    </g>
    <g transform="translate(500 167)">
      <text fill="#3A438B" font-family="Lato-Medium, Lato" font-size="14" font-weight="400">
        <tspan x="16" y="20.159">Fetch asset attribute options</tspan>
      </text>
      <circle cx="5" cy="15" r="5" fill="#4EA7DD"/>
    </g>
    <g transform="translate(500 207)">
      <text fill="#3A438B" font-family="Lato-Medium, Lato" font-size="14" font-weight="400">
        <tspan x="16" y="20.159">Asset attribute options</tspan>
      </text>
      <circle cx="5" cy="15" r="5" fill="#4EA7DD"/>
    </g>
  </g>
</svg>
