<?xml version="1.0" encoding="utf-8"?>
<svg viewBox="0 0 1028 469" style="enable-background:new 0 0 1028 469;" xmlns="http://www.w3.org/2000/svg">
 <defs>
  <style type="text/css">
	.st0{fill-rule:evenodd;clip-rule:evenodd;fill:#F5F9F8;}
	.st1{filter:url(#d);}
	.st2{fill-rule:evenodd;clip-rule:evenodd;}
	.st3{fill-rule:evenodd;clip-rule:evenodd;fill:#FFFFFF;}
	.st4{fill-rule:evenodd;clip-rule:evenodd;fill:#4EA7DD;}
	.st5{fill-rule:evenodd;clip-rule:evenodd;fill:#E0F1FC;}
	.st6{enable-background:new    ;}
	.st7{fill:#3A438B;}
	.st8{font-family:'Lato-Italic';}
	.st9{font-size:24px;}
	.st10{fill-rule:evenodd;clip-rule:evenodd;fill:#8F92C7;}
	.st11{filter:url(#i);}
	.st12{fill-rule:evenodd;clip-rule:evenodd;fill:#5D63AA;}
	.st13{fill:none;stroke:#FFFFFF;stroke-linecap:round;stroke-linejoin:round;}
	.st14{fill:#8F92C7;}
	.st15{font-size:13px;}
	.st16{font-size:17px;}
	.st17{fill:none;stroke:#8F92C7;stroke-width:2;stroke-linecap:round;stroke-linejoin:round;stroke-dasharray:2,6;}
	.st18{filter:url(#k);}
	.st19{fill-rule:evenodd;clip-rule:evenodd;fill:#82549D;}
	.st20{fill-rule:evenodd;clip-rule:evenodd;fill:#F9F9FB;}
	.st21{fill:#FFFFFF;}
	.st22{fill-rule:evenodd;clip-rule:evenodd;fill:#FFFFFF;stroke:#B9A7C9;stroke-miterlimit:10;}
	.st23{fill-rule:evenodd;clip-rule:evenodd;fill:#B9A7C9;stroke:#FFFFFF;stroke-miterlimit:10;}
	.st24{fill:#FFFFFF;stroke:#B9A7C9;stroke-miterlimit:10;}
	.st25{fill:none;stroke:#B9A7C9;stroke-miterlimit:10;}
	.st26{fill-rule:evenodd;clip-rule:evenodd;fill:#FFFFFF;stroke:#B1D9E8;stroke-miterlimit:10;}
	.st27{fill-rule:evenodd;clip-rule:evenodd;fill:#B1D9E8;}
	.st28{fill:none;stroke:#B1D9E8;stroke-miterlimit:10;}
	.st29{fill-rule:evenodd;clip-rule:evenodd;fill:#DD5B03;}
	.st30{fill-rule:evenodd;clip-rule:evenodd;fill:#E5A300;}
	.st31{fill-rule:evenodd;clip-rule:evenodd;fill:#FFFFFF;stroke:#F7CD6F;stroke-miterlimit:10;}
	.st32{fill:#FFFFFF;stroke:#F7CD6F;stroke-miterlimit:10;}
	.st33{fill:none;stroke:#F7CD6F;stroke-miterlimit:10;}
	.st34{fill:none;stroke:#E5A300;stroke-miterlimit:10;}
	.st35{fill-rule:evenodd;clip-rule:evenodd;fill:#F7CD6F;stroke:#FFFFFF;stroke-miterlimit:10;}
	.st36{fill:#E5A300;}
	.st37{font-family:'MyriadPro-Regular';}
	.st38{font-size:20px;}
	.st39{fill:#4EA7DD;}
	.st40{fill:none;stroke:#E5A300;stroke-width:3;stroke-miterlimit:10;}
	.st41{fill:none;stroke:#4EA7DD;stroke-width:3;stroke-miterlimit:10;}
</style>
 </defs>
 <filter filterUnits="objectBoundingBox" height="177.3%" id="i" width="124.5%" x="-11.4%" y="-33.3%">
  <feOffset dx="2" dy="4" in="SourceAlpha" result="shadowOffsetOuter1"/>
  <feGaussianBlur in="shadowOffsetOuter1" result="shadowBlurOuter1" stdDeviation="9"/>
  <feColorMatrix in="shadowBlurOuter1" values="0 0 0 0 0.0352941176 0 0 0 0 0.117647059 0 0 0 0 0.258823529 0 0 0 0.14 0"/>
 </filter>
 <filter filterUnits="objectBoundingBox" height="114.7%" id="k" width="117.7%" x="-8.2%" y="-6.3%">
  <feOffset dx="2" dy="4" in="SourceAlpha" result="shadowOffsetOuter1"/>
  <feGaussianBlur in="shadowOffsetOuter1" result="shadowBlurOuter1" stdDeviation="9"/>
  <feColorMatrix in="shadowBlurOuter1" values="0 0 0 0 0.0352941176 0 0 0 0 0.117647059 0 0 0 0 0.258823529 0 0 0 0.14 0"/>
 </filter>
 <filter filterUnits="objectBoundingBox" height="114.7%" id="d" width="123.4%" x="-10.9%" y="-6.3%">
  <feOffset dx="2" dy="4" in="SourceAlpha" result="shadowOffsetOuter1"/>
  <feGaussianBlur in="shadowOffsetOuter1" result="shadowBlurOuter1" stdDeviation="9"/>
  <feColorMatrix in="shadowBlurOuter1" values="0 0 0 0 0.0352941176 0 0 0 0 0.117647059 0 0 0 0 0.258823529 0 0 0 0.14 0"/>
 </filter>
 <path class="st0" d="M0,0h1028v469H0V0z"/>
 <path class="st10" d="M390.5,135.4v-10.8c0-1.2,0.9-2.1,2-2.1c0.5,0,1,0.2,1.4,0.6l5,5.4c0.8,0.8,0.8,2.2,0,3l-5,5.4 c-0.7,0.8-1.9,0.8-2.7,0.1c0,0-0.1-0.1-0.1-0.1C390.7,136.5,390.5,135.9,390.5,135.4L390.5,135.4z"/>
 <g transform="matrix(1, 0, 0, 1, 347, 219)">
  <g class="st11">
   <path id="j_3_" class="st2" d="M58.4-126h246.2c3,0,5.4,2.2,5.4,5v65c0,2.8-2.4,5-5.4,5H58.4c-3,0-5.4-2.2-5.4-5v-65 C53-123.8,55.4-126,58.4-126z"/>
  </g>
  <g>
   <path id="j_1_" class="st3" d="M58.4-126h246.2c3,0,5.4,2.2,5.4,5v65c0,2.8-2.4,5-5.4,5H58.4c-3,0-5.4-2.2-5.4-5v-65 C53-123.8,55.4-126,58.4-126z"/>
  </g>
 </g>
 <g transform="matrix(1, 0, 0, 1, 357, 229)">
  <path class="st12" d="M57-126h28c2.8,0,5,2.2,5,5v28c0,2.8-2.2,5-5,5H57c-2.8,0-5-2.2-5-5v-28C52-123.8,54.2-126,57-126z"/>
  <path class="st13" d="M67.7-113.3c-2.3,1.3-3.9,3.6-3.9,6.3c0,2.7,1.6,5.1,4,6.4 M69.4-101.1l2.4,2v-4L69.4-101.1L69.4-101.1z M73.5-113.3c2.3,1.3,3.9,3.6,3.9,6.3c0,2.7-1.6,5.1-4,6.4 M71.8-112.9l-2.4,2v-4L71.8-112.9z"/>
 </g>
 <text class="st14 st8 st15" style="white-space: pre; font-size: 13px;" x="455" y="136">The piece of software you are </text>
 <text class="st14 st8 st15" style="white-space: pre; font-size: 13px;" x="455" y="152">going to write</text>
 <text class="st7 st8 st16" style="white-space: pre; font-size: 17px;" x="455" y="119">PIM/Syndication App</text>
 <g>
  <path class="st17" d="M662,130.5h65"/>
  <circle class="st10" cx="662.5" cy="130.5" r="5.5"/>
  <path class="st10" d="M723,135.9v-10.8c0-1.2,0.9-2.1,2-2.1c0.5,0,1,0.2,1.4,0.6l5,5.4c0.8,0.8,0.8,2.2,0,3l-5,5.4 c-0.7,0.8-1.9,0.8-2.7,0.1c0,0-0.1-0.1-0.1-0.1C723.2,137,723,136.4,723,135.9L723,135.9z"/>
 </g>
 <g transform="matrix(1, 0, 0, 1, 654, 34)">
  <g class="st18">
   <path id="l_3_" class="st2" d="M-605-19h278c5,0,9,2.4,9,5.3v197.5c0,2.9-4,5.3-9,5.3h-278c-5,0-9-2.4-9-5.3V-13.8 C-614-16.7-610-19-605-19z"/>
  </g>
  <g>
   <path id="l_1_" class="st3" d="M-605-19h278c5,0,9,2.4,9,5.3v197.5c0,2.9-4,5.3-9,5.3h-278c-5,0-9-2.4-9-5.3V-13.8 C-614-16.7-610-19-605-19z"/>
  </g>
 </g>
 <g transform="matrix(1, 0, 0, 1, 674, 54)">
  <path class="st19" d="M-609-32h38c2.8,0,5,2.2,5,5v38c0,2.8-2.2,5-5,5h-38c-2.8,0-5-2.2-5-5v-38C-614-29.8-611.8-32-609-32z"/>
  <path class="st20" d="M-579.3-8.7c0-0.1,0-0.1,0-0.2c0-0.1,0.1-0.2,0.1-0.3c0.2-1.1-0.2-2.3-1-3.7c-0.1-0.1-0.2-0.2-0.2-0.4 c-0.1-0.2-0.3-0.4-0.4-0.6c0,0,0,0-0.1-0.1c0-0.1-0.1-0.1-0.1-0.2c0-0.1-0.1-0.1-0.1-0.2c0-0.1-0.1-0.1-0.1-0.2 c-0.1-0.1-0.1-0.1-0.1-0.2c0,0-0.1-0.1-0.1-0.1c-1.3-1.6-2.9-3.1-4.6-4.4c0.2,2.2,0.1,4.4-0.1,6.1c-0.3,2.1-1.2,4.5-2.3,6.7 c-2.5-0.3-4.9-0.9-6.9-1.8c-1.6-0.8-3.4-1.9-5.2-3.3l0.1,0.5c0,0.1,0,0.1,0,0.2c0,0.1,0,0.3,0,0.4c0,0.1,0,0.1,0,0.2 c0,0.1,0,0.3,0.1,0.4c0,0.1,0,0.1,0,0.2c0,0.2,0,0.3,0.1,0.5c0,0.2,0.1,0.4,0.1,0.6c0,0.2,0.1,0.4,0.1,0.5c0,0,0,0.1,0,0.1 c0,0.2,0.1,0.3,0.1,0.5c0,0,0,0.1,0,0.1c0.1,0.7,0.3,1.4,0.5,2.1c0.3,0.9,0.6,1.7,0.9,2.3c0.1,0.1,0.1,0.2,0.2,0.3 c0.1,0.1,0.1,0.2,0.1,0.3c0.1,0.1,0.1,0.2,0.2,0.3c0.1,0.1,0.2,0.2,0.2,0.4c0,0.1,0,0.1,0.1,0.1c0.1,0.1,0.2,0.2,0.3,0.3 c0.1,0.1,0.1,0.1,0.2,0.2l0.1,0.1c0,0,0.1,0.1,0.1,0.1l0.1,0.1c0,0,0.1,0.1,0.1,0.1c0,0,0.1,0.1,0.1,0.1c0,0,0.1,0.1,0.1,0.1 c0,0,0.1,0,0.1,0.1c0,0,0.1,0.1,0.1,0.1c0,0,0.1,0,0.1,0.1c0.1,0,0.1,0.1,0.2,0.1c0,0,0.1,0,0.1,0c0.1,0,0.2,0.1,0.2,0.1 c0.1,0,0.1,0,0.1,0.1c3.9,1.1,7.8-0.3,12.4,3.2C-583.9-2.6-580.5-4.9-579.3-8.7L-579.3-8.7z"/>
 </g>
 <path class="st5" d="M58,83H318v1H58V83z"/>
 <text transform="matrix(1, 0, 0, 1, 123, 65)" class="st14 st8 st15" style="white-space: pre;">«Cold» product information</text>
 <text transform="matrix(1, 0, 0, 1, 123, 48)" class="st7 st8 st9" style="white-space: pre;">Akeneo PIM</text>
 <path class="st17" d="M337.5,130h51"/>
 <circle class="st10" cx="338" cy="130" r="5.5"/>
 <g>
  <rect x="106.4" y="100.8" class="st22" width="61.1" height="80.4"/>
  <rect x="112" y="106.8" class="st23" width="11.9" height="21"/>
  <line class="st24" x1="131.9" y1="111.8" x2="156" y2="111.8"/>
  <line class="st24" x1="131.9" y1="119.8" x2="156" y2="119.8"/>
  <line class="st25" x1="114" y1="136" x2="158" y2="136"/>
  <line class="st25" x1="114" y1="146.3" x2="158" y2="146.3"/>
  <line class="st25" x1="114" y1="158.3" x2="158" y2="158.3"/>
 </g>
 <g>
  <rect x="148.4" y="114.1" class="st22" width="61.1" height="80.4"/>
  <rect x="154" y="120.1" class="st23" width="11.9" height="21"/>
  <line class="st24" x1="173.9" y1="125.1" x2="198" y2="125.1"/>
  <line class="st24" x1="173.9" y1="133.1" x2="198" y2="133.1"/>
  <line class="st25" x1="156" y1="149.3" x2="200" y2="149.3"/>
  <line class="st25" x1="156" y1="159.6" x2="200" y2="159.6"/>
  <line class="st25" x1="156" y1="171.6" x2="200" y2="171.6"/>
 </g>
 <g>
  <rect x="200" y="123.4" class="st22" width="61.1" height="80.4"/>
  <rect x="205.6" y="129.4" class="st23" width="11.9" height="21"/>
  <line class="st24" x1="225.4" y1="134.4" x2="249.6" y2="134.4"/>
  <line class="st24" x1="225.4" y1="142.4" x2="249.6" y2="142.4"/>
  <line class="st25" x1="207.6" y1="158.6" x2="251.6" y2="158.6"/>
  <line class="st25" x1="207.6" y1="168.9" x2="251.6" y2="168.9"/>
  <line class="st25" x1="207.6" y1="180.9" x2="251.6" y2="180.9"/>
 </g>
 <path class="st10" d="M390.5,360.4v-10.8c0-1.2,0.9-2.1,2-2.1c0.5,0,1,0.2,1.4,0.6l5,5.4c0.8,0.8,0.8,2.2,0,3l-5,5.4 c-0.7,0.8-1.9,0.8-2.7,0.1c0,0-0.1-0.1-0.1-0.1C390.7,361.5,390.5,361,390.5,360.4L390.5,360.4z"/>
 <g transform="matrix(1, 0, 0, 1, 347, 219)">
  <g class="st11">
   <path id="j_3_" class="st2" d="M58.5,99h246.2c3,0,5.4,2.2,5.4,5v65c0,2.8-2.4,5-5.4,5H58.5c-3,0-5.4-2.2-5.4-5v-65 C53,101.3,55.5,99,58.5,99z"/>
  </g>
  <g>
   <path id="j_2_" class="st3" d="M58.5,99h246.2c3,0,5.4,2.2,5.4,5v65c0,2.8-2.4,5-5.4,5H58.5c-3,0-5.4-2.2-5.4-5v-65 C53,101.3,55.5,99,58.5,99z"/>
  </g>
 </g>
 <path class="st29" d="M414,328h28c2.8,0,5,2.2,5,5v28c0,2.8-2.2,5-5,5h-28c-2.8,0-5-2.2-5-5v-28C409,330.3,411.3,328,414,328z"/>
 <path class="st13" d="M424.8,340.7c-2.3,1.3-3.9,3.6-3.9,6.3c0,2.7,1.6,5.1,4,6.4 M426.5,353l2.4,2v-4L426.5,353L426.5,353z M430.5,340.7c2.3,1.3,3.9,3.6,3.9,6.3c0,2.7-1.6,5.1-4,6.4 M428.8,341.1l-2.4,2v-4L428.8,341.1z"/>
 <text class="st14 st8 st15" style="white-space: pre; font-size: 13px;" x="455.039" y="361.029">The piece of software Filip will</text>
 <text class="st14 st8 st15" style="white-space: pre; font-size: 13px;" x="455.039" y="377.029">have to write</text>
 <text class="st7 st8 st16" style="white-space: pre; font-size: 17px;" x="455.039" y="344.029">ERP/Syndication App</text>
 <g>
  <path class="st17" d="M662,355.5h65"/>
  <circle class="st10" cx="662.5" cy="355.5" r="5.5"/>
  <path class="st10" d="M723,360.9v-10.8c0-1.2,0.9-2.1,2-2.1c0.5,0,1,0.2,1.4,0.6l5,5.4c0.8,0.8,0.8,2.2,0,3l-5,5.4 c-0.7,0.8-1.9,0.8-2.7,0.1c0,0-0.1-0.1-0.1-0.1C723.2,362,723,361.5,723,360.9L723,360.9z"/>
 </g>
 <g transform="matrix(1, 0, 0, 1, 654, 34)">
  <g class="st18">
   <path id="l_3_" class="st2" d="M-604.9,206h278c5,0,9,2.4,9,5.3v197.5c0,2.9-4,5.3-9,5.3h-278c-5,0-9-2.4-9-5.3V211.3 C-614,208.4-609.9,206-604.9,206z"/>
  </g>
  <g>
   <path id="l_2_" class="st3" d="M-604.9,206h278c5,0,9,2.4,9,5.3v197.5c0,2.9-4,5.3-9,5.3h-278c-5,0-9-2.4-9-5.3V211.3 C-614,208.4-609.9,206-604.9,206z"/>
  </g>
 </g>
 <path class="st30" d="M65,247h38c2.8,0,5,2.2,5,5v38c0,2.8-2.2,5-5,5H65c-2.8,0-5-2.2-5-5v-38C60,249.3,62.3,247,65,247z"/>
 <path class="st5" d="M58.1,308H318v1H58.1V308z"/>
 <text transform="matrix(1, 0, 0, 1, 123.038498, 290.0289)" class="st14 st8 st15" style="white-space: pre;">«Hot» product information</text>
 <text transform="matrix(1, 0, 0, 1, 123.038498, 273.0289)" class="st7 st8 st9" style="white-space: pre;">ERP</text>
 <path class="st17" d="M337.5,355h51"/>
 <circle class="st10" cx="338" cy="355" r="5.5"/>
 <g>
  <rect x="104.5" y="325.8" class="st31" width="61.1" height="80.4"/>
  <line class="st32" x1="118.9" y1="336.8" x2="143" y2="336.8"/>
  <line class="st32" x1="118.9" y1="344.8" x2="143" y2="344.8"/>
  <path class="st33" d="M156,361"/>
  <path class="st33" d="M112,361"/>
  <path class="st34" d="M156,371.3"/>
  <path class="st34" d="M112,371.3"/>
  <path class="st34" d="M156,383.3"/>
  <path class="st34" d="M112,383.3"/>
 </g>
 <g>
  <rect x="146.5" y="339.1" class="st31" width="61.1" height="80.4"/>
  <line class="st32" x1="160.9" y1="350.1" x2="185" y2="350.1"/>
  <line class="st32" x1="160.9" y1="358.1" x2="185" y2="358.1"/>
  <path class="st25" d="M198,374.3"/>
  <path class="st25" d="M198,384.6"/>
  <path class="st25" d="M198,396.6"/>
  <path class="st25" d="M154,396.6"/>
 </g>
 <g>
  <rect x="198" y="348.4" class="st31" width="61.1" height="80.4"/>
  <path class="st35" d="M215.5,354.4"/>
  <path class="st35" d="M203.6,375.4"/>
  <line class="st32" x1="212.5" y1="359.4" x2="236.6" y2="359.4"/>
  <line class="st32" x1="212.5" y1="367.4" x2="236.6" y2="367.4"/>
  <path class="st25" d="M249.6,383.6"/>
  <path class="st25" d="M205.6,383.6"/>
  <path class="st25" d="M249.6,393.9"/>
  <path class="st25" d="M205.6,393.9"/>
  <path class="st25" d="M249.6,405.9"/>
  <path class="st25" d="M205.6,405.9"/>
 </g>
 <text transform="matrix(1, 0, 0, 1, 111, 393.639191)" class="st36 st37 st38" style="white-space: pre;">$</text>
 <text transform="matrix(1, 0, 0, 1, 152.975998, 407.944214)" class="st36 st37 st38" style="white-space: pre;">$</text>
 <text transform="matrix(1, 0, 0, 1, 204.611404, 418.5289)" class="st36 st37 st38" style="white-space: pre;">$</text>
 <path class="st21" d="M84.1,255.2c-0.5,1.2-0.8,2.5-1,3.7c-0.5,0.1-0.9,0.2-1.4,0.3c-0.4,0.2-0.9,0.3-1.3,0.5 c-0.8-0.9-1.8-1.8-2.8-2.6c-0.6,0.4-1.2,0.8-1.8,1.3c0.4,1.3,0.8,2.5,1.4,3.6c-0.3,0.3-0.6,0.7-0.9,1.1c-0.3,0.4-0.5,0.8-0.8,1.2 c-1.2-0.2-2.5-0.4-3.8-0.4c-0.3,0.7-0.5,1.4-0.7,2.1c1,0.8,2.1,1.6,3.2,2.1c-0.1,0.5-0.1,1-0.1,1.4c0,0.5,0,1,0.1,1.4 c-1.1,0.5-2.3,1.1-3.3,1.9c0.2,0.7,0.4,1.4,0.7,2.1c1.3,0.1,2.6,0,3.9-0.2c0.3,0.4,0.5,0.8,0.8,1.2c0.3,0.4,0.6,0.8,0.9,1.1 c-0.6,1.1-1.1,2.2-1.6,3.5c0.5,0.5,1.1,0.9,1.7,1.3c1.1-0.7,2.1-1.5,3-2.4c0.4,0.2,0.9,0.4,1.3,0.5c0.5,0.1,0.9,0.3,1.4,0.3 c0.1,1.2,0.4,2.5,0.8,3.7c0.7,0.1,1.4,0.1,2.2,0c0.5-1.2,0.8-2.5,1-3.7c0.5-0.1,0.9-0.2,1.4-0.3c0.4-0.2,0.9-0.3,1.3-0.5 c0.8,0.9,1.8,1.8,2.8,2.6c0.6-0.4,1.2-0.8,1.8-1.3c-0.4-1.3-0.8-2.5-1.4-3.6c0.3-0.3,0.6-0.7,0.9-1.1c0.3-0.4,0.5-0.8,0.8-1.2 c1.2,0.2,2.5,0.4,3.8,0.4c0.3-0.7,0.5-1.4,0.7-2.1c-1-0.8-2.1-1.6-3.2-2.1c0.1-0.5,0.1-1,0.1-1.4c0-0.5,0-1-0.1-1.4 c1.1-0.5,2.3-1.1,3.3-1.9c-0.2-0.7-0.4-1.4-0.7-2.1c-1.3-0.1-2.6,0-3.9,0.2c-0.3-0.4-0.5-0.8-0.8-1.2c-0.3-0.4-0.6-0.8-0.9-1.1 c0.6-1.1,1.1-2.2,1.6-3.5c-0.5-0.5-1.1-0.9-1.7-1.3c-1.1,0.7-2.1,1.5-3,2.4c-0.4-0.2-0.9-0.4-1.3-0.5c-0.5-0.1-0.9-0.3-1.4-0.3 c-0.1-1.2-0.4-2.5-0.8-3.7C85.5,255.2,84.8,255.2,84.1,255.2z M87.1,263.3c1.3,0.4,2.6,1.3,3.4,2.5c0.8,1.1,1.3,2.5,1.3,4 c0,1.4-0.4,2.8-1.3,4c-0.8,1.2-2,2-3.4,2.5c-1.3,0.4-2.8,0.4-4.2,0c-1.3-0.4-2.6-1.3-3.4-2.5c-0.8-1.1-1.3-2.5-1.3-4 c0-1.4,0.4-2.8,1.3-4c0.8-1.2,2-2,3.4-2.5C84.3,262.9,85.8,262.9,87.1,263.3z"/>
 <g>
  <line class="st40" x1="224.5" y1="419.9" x2="224.5" y2="414.9"/>
  <line class="st40" x1="229" y1="419.9" x2="229" y2="412"/>
  <line class="st40" x1="233.7" y1="419.9" x2="233.7" y2="409.3"/>
 </g>
 <g>
  <line class="st40" x1="172.1" y1="409.4" x2="172.1" y2="404.4"/>
  <line class="st40" x1="176.6" y1="409.3" x2="176.6" y2="401.5"/>
  <line class="st40" x1="181.3" y1="409.4" x2="181.3" y2="398.8"/>
 </g>
 <g>
  <line class="st40" x1="131.1" y1="395.4" x2="131.1" y2="390.4"/>
  <line class="st40" x1="135.6" y1="395.3" x2="135.6" y2="387.5"/>
  <line class="st40" x1="140.3" y1="395.4" x2="140.3" y2="384.8"/>
 </g>
 <g transform="matrix(1, 0, 0, 2.091192, 45.200317, -207.620453)" style="">
  <g class="st1">
   <path id="e_2_" class="st2" d="M699,107h228c5.5,0,10,2.4,10,5.3v197.5c0,2.9-4.5,5.3-10,5.3H699c-5.5,0-10-2.4-10-5.3V112.2 C689,109.3,693.5,107,699,107z"/>
  </g>
  <g>
   <path id="e_1_" class="st3" d="M699,107h228c5.5,0,10,2.4,10,5.3v197.5c0,2.9-4.5,5.3-10,5.3H699c-5.5,0-10-2.4-10-5.3V112.2 C689,109.3,693.5,107,699,107z"/>
  </g>
 </g>
 <path class="st5" d="M 754.2 93.137 L 962.2 93.137 L 962.2 94.137 L 754.2 94.137 L 754.2 93.137 Z"/>
 <text class="st6" style="white-space: pre;" x="803.201" y="45.106"><tspan x="803.201" y="45.106" class="st7 st8 st9" style="font-size: 24px; word-spacing: 0px;">Your Syndication</tspan><tspan x="803.201" y="73.906" class="st7 st8 st9" style="font-size: 24px; word-spacing: 0px;">Solution</tspan></text>
 <path class="st35" d="M 752.861 28.645 L 790.861 28.645 C 793.661 28.645 795.861 30.707 795.861 33.331 L 795.861 68.952 C 795.861 71.576 793.661 73.638 790.861 73.638 L 752.861 73.638 C 750.061 73.638 747.861 71.576 747.861 68.952 L 747.861 33.331 C 747.861 30.801 750.061 28.645 752.861 28.645 Z" style="fill: rgb(255, 103, 255); clip-rule: evenodd; fill-rule: evenodd;"/>
 <path d="M 787.151 49.667 C 786.432 49.667 785.822 50.048 785.601 50.619 L 778.843 50.619 L 778.843 46.14 L 777.403 44.902 L 783.662 39.517 C 783.883 39.613 784.106 39.661 784.382 39.661 C 785.324 39.661 786.044 39.041 786.044 38.232 C 786.044 37.421 785.324 36.802 784.382 36.802 C 783.441 36.802 782.721 37.421 782.721 38.232 C 782.721 38.47 782.776 38.66 782.886 38.851 L 776.627 44.235 L 775.188 42.996 L 772.196 42.996 L 772.196 39.565 C 772.861 39.375 773.303 38.851 773.303 38.232 C 773.303 37.421 772.584 36.802 771.642 36.802 C 770.7 36.802 769.981 37.421 769.981 38.232 C 769.981 38.851 770.423 39.375 771.088 39.565 L 771.088 42.996 L 765.217 42.996 L 760.398 38.851 C 760.508 38.66 760.564 38.47 760.564 38.232 C 760.564 37.421 759.844 36.802 758.902 36.802 C 757.961 36.802 757.24 37.421 757.24 38.232 C 757.24 39.041 757.961 39.661 758.902 39.661 C 759.179 39.661 759.401 39.613 759.622 39.517 L 764.441 43.664 L 764.441 50.619 L 758.237 50.619 C 758.016 50.048 757.407 49.667 756.687 49.667 C 755.745 49.667 755.025 50.286 755.025 51.096 C 755.025 51.907 755.745 52.525 756.687 52.525 C 757.407 52.525 758.016 52.145 758.237 51.572 L 764.441 51.572 L 764.441 58.529 L 759.622 62.675 C 759.401 62.58 759.179 62.532 758.902 62.532 C 757.961 62.532 757.24 63.151 757.24 63.961 C 757.24 64.771 757.961 65.391 758.902 65.391 C 759.844 65.391 760.564 64.771 760.564 63.961 C 760.564 63.723 760.508 63.533 760.398 63.342 L 765.217 59.196 L 771.088 59.196 L 771.088 62.628 C 770.423 62.818 769.981 63.342 769.981 63.961 C 769.981 64.771 770.7 65.391 771.642 65.391 C 772.584 65.391 773.303 64.771 773.303 63.961 C 773.303 63.342 772.861 62.818 772.196 62.628 L 772.196 59.196 L 778.068 59.196 L 782.886 63.342 C 782.776 63.533 782.721 63.723 782.721 63.961 C 782.721 64.771 783.441 65.391 784.382 65.391 C 785.324 65.391 786.044 64.771 786.044 63.961 C 786.044 63.151 785.324 62.532 784.382 62.532 C 784.106 62.532 783.883 62.58 783.662 62.675 L 778.843 58.529 L 778.843 51.572 L 785.601 51.572 C 785.822 52.145 786.432 52.525 787.151 52.525 C 788.094 52.525 788.813 51.907 788.813 51.096 C 788.813 50.286 788.094 49.667 787.151 49.667 Z M 784.382 37.755 C 784.715 37.755 784.936 37.945 784.936 38.232 C 784.936 38.518 784.715 38.708 784.382 38.708 C 784.05 38.708 783.828 38.518 783.828 38.232 C 783.828 37.945 784.05 37.755 784.382 37.755 Z M 771.642 37.755 C 771.974 37.755 772.196 37.945 772.196 38.232 C 772.196 38.518 771.974 38.708 771.642 38.708 C 771.31 38.708 771.088 38.518 771.088 38.232 C 771.088 37.945 771.31 37.755 771.642 37.755 Z M 756.687 51.572 C 756.354 51.572 756.133 51.382 756.133 51.096 C 756.133 50.811 756.354 50.619 756.687 50.619 C 757.019 50.619 757.24 50.811 757.24 51.096 C 757.24 51.382 757.019 51.572 756.687 51.572 Z M 771.642 64.437 C 771.31 64.437 771.088 64.247 771.088 63.961 C 771.088 63.675 771.31 63.485 771.642 63.485 C 771.974 63.485 772.196 63.675 772.196 63.961 C 772.196 64.247 771.974 64.437 771.642 64.437 Z M 775.52 44.616 L 776.959 45.855 L 775.52 45.855 L 775.52 44.616 Z M 758.349 38.232 C 758.349 37.945 758.57 37.755 758.902 37.755 C 759.235 37.755 759.457 37.945 759.457 38.232 C 759.457 38.518 759.235 38.708 758.902 38.708 C 758.57 38.708 758.349 38.518 758.349 38.232 Z M 758.902 64.437 C 758.57 64.437 758.349 64.247 758.349 63.961 C 758.349 63.675 758.57 63.485 758.902 63.485 C 759.235 63.485 759.457 63.675 759.457 63.961 C 759.457 64.247 759.235 64.437 758.902 64.437 Z M 765.549 58.243 L 765.549 43.95 L 774.412 43.95 L 774.412 46.809 L 777.735 46.809 L 777.735 58.243 L 765.549 58.243 Z M 784.936 63.961 C 784.936 64.247 784.715 64.437 784.382 64.437 C 784.05 64.437 783.828 64.247 783.828 63.961 C 783.828 63.675 784.05 63.485 784.382 63.485 C 784.715 63.485 784.936 63.675 784.936 63.961 Z M 787.151 51.572 C 786.819 51.572 786.598 51.382 786.598 51.096 C 786.598 50.811 786.819 50.619 787.151 50.619 C 787.484 50.619 787.706 50.811 787.706 51.096 C 787.706 51.382 787.484 51.572 787.151 51.572 Z" style="fill: rgb(255, 255, 255);"/>
 <rect x="780.799" y="193.46" class="st37" width="61.1" height="82.21" style="stroke: rgb(232, 177, 221); clip-rule: evenodd; fill: rgb(255, 255, 255); fill-rule: evenodd; stroke-miterlimit: 10;"/>
 <rect x="786.4" y="198.483" class="st38" width="11.9" height="17.58" style="stroke: rgb(232, 177, 221); fill: rgb(232, 177, 221); clip-rule: evenodd; fill-rule: evenodd;"/>
 <line class="st39" x1="806.299" y1="202.668" x2="830.4" y2="202.668" style="stroke: rgb(232, 177, 221); fill: none; stroke-miterlimit: 10;"/>
 <line class="st39" x1="806.299" y1="210.365" x2="830.4" y2="210.365" style="stroke: rgb(232, 177, 221); fill: none; stroke-miterlimit: 10;"/>
 <line class="st39" x1="788.4" y1="222.928" x2="832.4" y2="222.928" style="stroke: rgb(232, 177, 221); fill: none; stroke-miterlimit: 10;"/>
 <line class="st39" x1="788.4" y1="234.115" x2="832.4" y2="234.115" style="stroke: rgb(232, 177, 221); fill: none; stroke-miterlimit: 10;"/>
 <line class="st39" x1="788.4" y1="244.984" x2="832.4" y2="244.984" style="stroke: rgb(232, 177, 221); fill: none; stroke-miterlimit: 10;"/>
 <rect x="830.4" y="204.342" class="st37" width="61.1" height="82.21" style="stroke: rgb(232, 177, 221); clip-rule: evenodd; fill: rgb(255, 255, 255); fill-rule: evenodd; stroke-miterlimit: 10;"/>
 <rect x="835.999" y="208.779" class="st38" width="11.9" height="17.58" style="stroke: rgb(232, 177, 221); fill: rgb(232, 177, 221); clip-rule: evenodd; fill-rule: evenodd;"/>
 <line class="st39" x1="855.799" y1="212.966" x2="879.999" y2="212.966" style="stroke: rgb(232, 177, 221); fill: none; stroke-miterlimit: 10;"/>
 <line class="st39" x1="855.799" y1="220.662" x2="879.999" y2="220.662" style="stroke: rgb(232, 177, 221); fill: none; stroke-miterlimit: 10;"/>
 <line class="st39" x1="837.999" y1="235.092" x2="881.999" y2="235.092" style="stroke: rgb(232, 177, 221); fill: none; stroke-miterlimit: 10;"/>
 <line class="st39" x1="837.999" y1="245.28" x2="881.999" y2="245.28" style="stroke: rgb(232, 177, 221); fill: none; stroke-miterlimit: 10;"/>
 <line class="st39" x1="837.999" y1="257.149" x2="881.999" y2="257.149" style="stroke: rgb(232, 177, 221); fill: none; stroke-miterlimit: 10;"/>
 <rect x="879.999" y="213.132" class="st37" width="61.1" height="82.21" style="stroke: rgb(232, 177, 221); clip-rule: evenodd; fill: rgb(255, 255, 255); fill-rule: evenodd; stroke-miterlimit: 10;"/>
 <rect x="885.599" y="217.988" class="st38" width="11.9" height="17.58" style="stroke: rgb(232, 177, 221); fill: rgb(232, 177, 221); clip-rule: evenodd; fill-rule: evenodd;"/>
 <line class="st39" x1="905.4" y1="222.174" x2="929.599" y2="222.174" style="stroke: rgb(232, 177, 221); fill: none; stroke-miterlimit: 10;"/>
 <line class="st39" x1="905.4" y1="229.871" x2="929.599" y2="229.871" style="stroke: rgb(232, 177, 221); fill: none; stroke-miterlimit: 10;"/>
 <line class="st39" x1="887.599" y1="244.974" x2="931.599" y2="244.974" style="stroke: rgb(232, 177, 221); fill: none; stroke-miterlimit: 10;"/>
 <line class="st39" x1="887.599" y1="256.16" x2="931.599" y2="256.16" style="stroke: rgb(232, 177, 221); fill: none; stroke-miterlimit: 10;"/>
 <line class="st39" x1="887.599" y1="268.028" x2="931.599" y2="268.028" style="stroke: rgb(232, 177, 221); fill: none; stroke-miterlimit: 10;"/>
 <text class="st36 st37 st38" style="fill: rgb(232, 177, 221); white-space: pre;" x="788.231" y="268.903">$</text>
 <g transform="matrix(1, 0, 0, 1, 583.619385, -149.625854)">
  <line class="st40" x1="224.5" y1="419.9" x2="224.5" y2="414.9" style="fill: rgb(232, 177, 221); stroke: rgb(232, 177, 221);"/>
  <line class="st40" x1="229" y1="419.9" x2="229" y2="412" style="fill: rgb(232, 177, 221); stroke: rgb(232, 177, 221);"/>
  <line class="st40" x1="233.7" y1="419.9" x2="233.7" y2="409.3" style="fill: rgb(232, 177, 221); stroke: rgb(232, 177, 221);"/>
 </g>
 <text class="st36 st37 st38" style="fill: rgb(232, 177, 221); white-space: pre;" x="838.76" y="279.975">$</text>
 <g transform="matrix(1, 0, 0, 1, 634.148254, -138.554123)">
  <line class="st40" x1="224.5" y1="419.9" x2="224.5" y2="414.9" style="fill: rgb(232, 177, 221); stroke: rgb(232, 177, 221);"/>
  <line class="st40" x1="229" y1="419.9" x2="229" y2="412" style="fill: rgb(232, 177, 221); stroke: rgb(232, 177, 221);"/>
  <line class="st40" x1="233.7" y1="419.9" x2="233.7" y2="409.3" style="fill: rgb(232, 177, 221); stroke: rgb(232, 177, 221);"/>
 </g>
 <text class="st36 st37 st38" style="fill: rgb(232, 177, 221); white-space: pre;" x="888.212" y="288.425">$</text>
 <g transform="matrix(1, 0, 0, 1, 683.600403, -130.104126)">
  <line class="st40" x1="224.5" y1="419.9" x2="224.5" y2="414.9" style="fill: rgb(232, 177, 221); stroke: rgb(232, 177, 221);"/>
  <line class="st40" x1="229" y1="419.9" x2="229" y2="412" style="fill: rgb(232, 177, 221); stroke: rgb(232, 177, 221);"/>
  <line class="st40" x1="233.7" y1="419.9" x2="233.7" y2="409.3" style="fill: rgb(232, 177, 221); stroke: rgb(232, 177, 221);"/>
 </g>
</svg>