<?xml version="1.0" encoding="UTF-8"?>
<svg width="256px" height="282px" viewBox="0 0 256 282" version="1.1" xmlns="http://www.w3.org/2000/svg" xmlns:xlink="http://www.w3.org/1999/xlink">
    <!-- Generator: Sketch 61 (89581) - https://sketch.com -->
    <title>illus--how-to-connect</title>
    <desc>Created with Sketch.</desc>
    <g id="illus--how-to-connect" stroke="none" stroke-width="1" fill="none" fill-rule="evenodd">
        <circle id="Oval-3" fill="#E1F2FF" cx="126" cy="172" r="100"></circle>
        <g id="Group-4" transform="translate(39.000000, 38.000000)" stroke="#5E63B6" stroke-linecap="round">
            <g id="Group-2">
                <line x1="141" y1="178" x2="141" y2="185" id="Shape" stroke-width="2" stroke-linejoin="round"></line>
                <line x1="144" y1="182" x2="137" y2="182" id="Shape" stroke-width="2" stroke-linejoin="round"></line>
                <line x1="34" y1="0" x2="34" y2="7" id="Shape" stroke-width="2" stroke-linejoin="round"></line>
                <line x1="38" y1="4" x2="31" y2="4" id="Shape" stroke-width="2" stroke-linejoin="round"></line>
                <line x1="96" y1="7" x2="96" y2="10.94" id="Shape"></line>
                <line x1="97.94" y1="9" x2="94" y2="9" id="Shape"></line>
                <line x1="171.73" y1="104.68" x2="171.73" y2="108.62" id="Shape" stroke-linejoin="round"></line>
                <line x1="173.7" y1="106.65" x2="169.76" y2="106.65" id="Shape" stroke-linejoin="round"></line>
                <line x1="2.73" y1="64.68" x2="2.73" y2="68.62" id="Shape"></line>
                <line x1="4.7" y1="66.65" x2="0.76" y2="66.65" id="Shape"></line>
                <line x1="22" y1="107" x2="22" y2="115.12" id="Shape" stroke-width="2" fill="#FFFFFF" fill-rule="nonzero"></line>
                <line x1="26.13" y1="111" x2="18" y2="111" id="Shape" stroke-width="2" fill="#FFFFFF" fill-rule="nonzero"></line>
            </g>
        </g>
        <g id="Group" transform="translate(134.000000, 11.000000)">
            <rect id="Rectangle-path" stroke="#5E63B6" stroke-width="2" fill="#FFFFFF" fill-rule="nonzero" x="0" y="0" width="99" height="99" rx="2"></rect>
            <path d="M12,10 L87,10 C88.1045695,10 89,10.8954305 89,12 L89,87 C89,88.1045695 88.1045695,89 87,89 L12,89 C10.8954305,89 10,88.1045695 10,87 L10,12 C10,10.8954305 10.8954305,10 12,10 Z" id="Rectangle-path" stroke="#E1F2FF" stroke-width="2" fill="#FFFFFF" fill-rule="nonzero" stroke-linecap="round" stroke-linejoin="round" stroke-dasharray="50"></path>
            <text id="O" fill="#5E63B6" font-family="Lato-Black, Lato" font-size="18" font-weight="700">
                <tspan x="44" y="85">O</tspan>
            </text>
            <text id="I" fill="#5E63B6" font-family="Lato-Black, Lato" font-size="18" font-weight="700">
                <tspan x="48" y="31">I</tspan>
            </text>
            <polygon id="Rectangle-path" stroke="#5E63B6" stroke-width="2" fill="#FFFFFF" fill-rule="nonzero" points="40 37 59 37 59 58 40 58"></polygon>
            <polygon id="Rectangle-path" stroke="#5E63B6" stroke-width="2" fill="#E1F2FF" fill-rule="nonzero" points="40 57 59 57 59 65 40 65"></polygon>
            <line x1="47" y1="40" x2="54" y2="40" id="Shape" stroke="#E1F2FF" stroke-width="2" fill="#FFFFFF" fill-rule="nonzero" stroke-linecap="round" stroke-linejoin="round" stroke-dasharray="50"></line>
        </g>
        <g id="Group-3" transform="translate(20.000000, 60.000000)">
            <ellipse id="Oval-2" stroke="#5E63B6" stroke-width="4" fill="#FFFFFF" cx="99.5" cy="167.5" rx="31.5" ry="30.5"></ellipse>
            <ellipse id="Oval-2" stroke="#5E63B6" stroke-width="3" fill="#FFFFFF" cx="100" cy="167.5" rx="16" ry="15.5"></ellipse>
            <path d="M104.01009,175.610485 C104.07456,175.815146 104.13903,175.953786 104.151924,176 L104.151924,176 C103.700633,171.550291 106.163395,169.695146 106.956379,166.757282 C106.952907,166.708933 106.952907,166.660388 106.956379,166.612039 C106.972692,166.544543 106.985603,166.476233 106.995061,166.407379 C107.042418,165.416101 106.748042,164.439313 106.163395,163.647767 L106.163395,163.647767 L106.002219,163.403495 L106.002219,163.403495 C105.899067,163.25165 105.789468,163.099806 105.679868,162.947961 L105.647633,162.901748 L105.550928,162.776311 L105.454223,162.650874 L105.35107,162.525437 L105.247918,162.393398 L105.170554,162.300971 C104.104278,161.06977 102.908649,159.962754 101.605351,159 L101.605351,159 C101.784126,160.556306 101.799256,162.127766 101.65048,163.687379 C101.403139,165.489821 100.885581,167.242365 100.116089,168.883107 C98.3454656,168.747697 96.6058196,168.33351 94.9584713,167.655146 C93.5583225,167.013044 92.2309421,166.216074 91,165.278447 C91,165.417087 91,165.555728 91.0451292,165.694369 L91.0451292,165.819806 C91.0451292,165.918835 91.0451292,166.017864 91.0838113,166.116893 C91.1224934,166.215922 91.0838113,166.20932 91.0838113,166.255534 L91.1289404,166.552621 L91.1289404,166.671456 C91.1289404,166.796893 91.1676226,166.92233 91.1934107,167.041165 L91.1934107,167.074175 C91.1934107,167.219417 91.2449868,167.358058 91.2707749,167.503301 L91.2707749,167.503301 L91.3481392,167.886214 L91.3481392,167.965437 L91.4255034,168.308738 L91.4255034,168.374757 C91.4255034,168.506796 91.4899736,168.638835 91.5222088,168.770874 L91.5222088,168.770874 C91.6296591,169.188997 91.7478545,169.591715 91.8767949,169.979029 L91.8767949,169.979029 C92.0764211,170.586384 92.3243893,171.175935 92.6182024,171.741748 L92.7406959,171.966214 L92.7406959,171.966214 L92.8567422,172.15767 L92.8567422,172.15767 L92.9856827,172.355728 L92.9856827,172.355728 L92.9856827,172.355728 L92.9856827,172.355728 L93.1533052,172.593398 L93.1533052,172.63301 L93.1533052,172.63301 C93.2177755,172.718835 93.2886927,172.798058 93.3596099,172.877282 L93.5078914,173.035728 L93.5723616,173.095146 L93.669067,173.180971 L93.7399842,173.240388 L93.8302425,173.31301 L93.9011598,173.365825 L93.9978651,173.431845 L94.0687823,173.478058 L94.1719347,173.537476 L94.2428519,173.577087 L94.3588983,173.629903 L94.4169215,173.629903 L94.5974381,173.68932 L94.7070375,173.728932 C97.6081972,174.514563 100.431993,173.266796 103.977855,175.861359" id="Fill-7" fill="#9452BA" fill-rule="nonzero"></path>
            <path d="M127,153 L147.725567,153 C157,153 161.229261,141.775098 161.229261,129.418332 L161.229261,90.0274621 C161.229261,72.197159 179.991552,75.1888706 184,75.1888706" id="Stroke-633" stroke="#5E63B6" stroke-width="5" transform="translate(155.500000, 114.000000) scale(-1, -1) translate(-155.500000, -114.000000) "></path>
            <path d="M29.5997132,99.4002868 L70.6872418,99.4002868 C86.5997132,99.4002868 97.4577226,101.400287 97.4577226,88.5164399 L97.4577226,75.9002868 C97.0997132,63.9002868 97.0997132,63.9002868 142.599713,63.4874578" id="Stroke-633" stroke="#5E63B6" stroke-width="5" transform="translate(86.099713, 81.500000) scale(-1, -1) rotate(90.000000) translate(-86.099713, -81.500000) "></path>
            <path d="M131,175.99888 C145.370305,175.99888 154.199207,175.99888 157.486705,175.99888 C177.811851,176.240919 157.486705,137.172395 175.801342,137.172395 C189.18473,136.784506 205.357463,137.172395 210,137.172395" id="Stroke-633" stroke="#5E63B6" stroke-width="5" transform="translate(170.500000, 156.500000) scale(-1, -1) translate(-170.500000, -156.500000) "></path>
            <path d="M205.909928,72 L197,72 L197,69 L205.909928,69 C206.511455,69 207,69.4680281 207,70.046535 L207,70.953465 C207,71.5319719 206.511455,72 205.909928,72 Z" id="Stroke-630" stroke="#5E63B6" stroke-width="2" fill="#5E63B6"></path>
            <path d="M205.909928,81 L197,81 L197,78 L205.909928,78 C206.511455,78 207,78.4671802 207,79.0458808 L207,79.9541192 C207,80.5318151 206.511455,81 205.909928,81 Z" id="Stroke-632" stroke="#5E63B6" stroke-width="2" fill="#5E63B6"></path>
            <g id="Group" transform="translate(182.000000, 63.000000)" fill="#FFFFFF" stroke="#5E63B6" stroke-width="2">
                <path d="M3.9969267,0 L13.3404172,0 C14.2575034,0 15,0.773732562 15,1.72609731 L15,22.2728819 C15,23.2272882 14.2575034,24 13.3404172,24 L3.9969267,24 C1.78905382,24 0,22.1371215 0,19.8404219 L0,4.15957809 C0,1.86287853 1.78905382,0 3.9969267,0 Z" id="Stroke-628"></path>
                <path d="M23.9099278,9 L15,9 L15,6 L23.9099278,6 C24.5114552,6 25,6.46802812 25,7.04653498 L25,7.95346502 C25,8.53197188 24.5114552,9 23.9099278,9 Z" id="Stroke-630"></path>
                <path d="M23.9099278,18 L15,18 L15,15 L23.9099278,15 C24.5114552,15 25,15.4671802 25,16.0458808 L25,16.9541192 C25,17.5318151 24.5114552,18 23.9099278,18 Z" id="Stroke-632"></path>
            </g>
            <path d="M18.9360886,148.36246 L39.6616561,148.36246 C51.6234929,149.340595 51.6234929,149.340595 53.2240412,134.602393 L54.4686833,124.834453 C55.9392456,113.020631 71.9276403,117.437524 75.9360886,117.437524" id="Stroke-633" stroke="#5E63B6" stroke-width="5" transform="translate(47.436089, 132.675595) scale(1, -1) rotate(-20.000000) translate(-47.436089, -132.675595) "></path>
            <g id="Group" transform="translate(15.500000, 105.000000) scale(-1, 1) rotate(-17.000000) translate(-15.500000, -105.000000) translate(3.000000, 93.000000)" fill="#FFFFFF" stroke="#5E63B6" stroke-width="2">
                <path d="M3.9969267,0 L13.3404172,0 C14.2575034,0 15,0.773732562 15,1.72609731 L15,22.2728819 C15,23.2272882 14.2575034,24 13.3404172,24 L3.9969267,24 C1.78905382,24 0,22.1371215 0,19.8404219 L0,4.15957809 C0,1.86287853 1.78905382,0 3.9969267,0 Z" id="Stroke-628"></path>
                <path d="M23.9099278,9 L15,9 L15,6 L23.9099278,6 C24.5114552,6 25,6.46802812 25,7.04653498 L25,7.95346502 C25,8.53197188 24.5114552,9 23.9099278,9 Z" id="Stroke-630"></path>
                <path d="M23.9099278,18 L15,18 L15,15 L23.9099278,15 C24.5114552,15 25,15.4671802 25,16.0458808 L25,16.9541192 C25,17.5318151 24.5114552,18 23.9099278,18 Z" id="Stroke-632"></path>
            </g>
            <g id="Group" transform="translate(68.500000, 13.000000) rotate(-90.000000) translate(-68.500000, -13.000000) translate(56.000000, 1.000000)" fill="#FFFFFF" stroke="#5E63B6" stroke-width="2">
                <path d="M3.9969267,0 L13.3404172,0 C14.2575034,0 15,0.773732562 15,1.72609731 L15,22.2728819 C15,23.2272882 14.2575034,24 13.3404172,24 L3.9969267,24 C1.78905382,24 0,22.1371215 0,19.8404219 L0,4.15957809 C0,1.86287853 1.78905382,0 3.9969267,0 Z" id="Stroke-628"></path>
                <path d="M23.9099278,9 L15,9 L15,6 L23.9099278,6 C24.5114552,6 25,6.46802812 25,7.04653498 L25,7.95346502 C25,8.53197188 24.5114552,9 23.9099278,9 Z" id="Stroke-630"></path>
                <path d="M23.9099278,18 L15,18 L15,15 L23.9099278,15 C24.5114552,15 25,15.4671802 25,16.0458808 L25,16.9541192 C25,17.5318151 24.5114552,18 23.9099278,18 Z" id="Stroke-632"></path>
            </g>
            <path d="M225.909928,134 L217,134 L217,131 L225.909928,131 C226.511455,131 227,131.468028 227,132.046535 L227,132.953465 C227,133.531972 226.511455,134 225.909928,134 Z" id="Stroke-630" stroke="#5E63B6" stroke-width="2" fill="#FFFFFF"></path>
            <path d="M225.909928,143 L217,143 L217,140 L225.909928,140 C226.511455,140 227,140.46718 227,141.045881 L227,141.954119 C227,142.531815 226.511455,143 225.909928,143 Z" id="Stroke-632" stroke="#5E63B6" stroke-width="2" fill="#FFFFFF"></path>
            <path d="M209.664618,125 L215.893611,125 C216.505002,125 217,125.773733 217,126.726097 L217,147.272882 C217,148.227288 216.505002,149 215.893611,149 L209.664618,149 C208.192703,149 207,147.137121 207,144.840422 L207,129.159578 C207,126.862879 208.192703,125 209.664618,125 Z" id="Stroke-628" stroke="#5E63B6" stroke-width="2" fill="#FFFFFF"></path>
        </g>
    </g>
</svg>