<svg width="256" height="256" xmlns="http://www.w3.org/2000/svg">
  <g fill="none" fill-rule="evenodd">
    <path d="M25 228.56C25 171.365 71.365 125 128.56 125s103.56 46.365 103.56 103.56H25z" fill="#E1F2FF" fill-rule="nonzero"/>
    <g fill-rule="nonzero">
      <path d="M133.4 166.545c4.38 0 8.57-2.86 17.52-3 .122-.527.3-1.04.53-1.53 1.72-3.45 4.29-13.47 3-20.14l-1-5.28a24.27 24.27 0 0 1-.42-5.26c.02-.721.114-1.438.28-2.14a10.56 10.56 0 0 1 .67-1.98l.23-.46a10.701 10.701 0 0 1 1.12-1.72 10.7 10.7 0 0 1 3.08-2.65 10.59 10.59 0 0 1 5.56-1.38l1.74.05a10.6 10.6 0 0 1 7.43 3.33c.233.247.453.507.66.78.378.49.712 1.012 1 1.56.11.21.21.42.31.63.1.21.14.32.2.48.382.983.614 2.018.69 3.07.018.363.018.727 0 1.09a2.65 2.65 0 0 1-2.73 2.57l-10.89-.32 1.37 9.5c1.65 9.76.88 16.24-.74 20.52-.36 1-2.36 4.32-2.36 4.32 5.19 8.75 13.43 12.75 22.32 14.1 7.56 1.15 24.14-5.29 15.93-13.54s1.85-3 3.32-1.92c1.47 1.08 9.94 8.82.19 19.55-4.12 4.54-8.76 8.64-19.72 11.57-1.76.47-11.29.88-16.45 2.2-15.37 3.93-27.62-1.19-34.27-11.45-6.65-10.26-.3-22.56 1.43-22.55z" stroke="#52267D" stroke-width="2" fill="#9452BA"/>
      <path d="M201.74 173.75a3 3 0 0 0 .59-3 2.57 2.57 0 0 0-.87-1s-1.79.26-1.45 1.47a4.29 4.29 0 0 0 1.73 2.53z" stroke="#52267D" fill="#FFF"/>
      <path d="M201.41 172a1.06 1.06 0 0 0 .21-1 .9.9 0 0 0-.31-.35s-.63.09-.51.52a1.5 1.5 0 0 0 .61.83z" fill="#F3E3FF"/>
      <path d="M192.11 182.54a3.31 3.31 0 0 1 1.63-4.07 7.59 7.59 0 0 1 1.18-.53s2.44 2 1.07 2.93a15.53 15.53 0 0 1-3.88 1.67z" stroke="#52267D" fill="#FFF"/>
      <path d="M193 181.63a1.83 1.83 0 0 1 .9-2.26 4.21 4.21 0 0 1 .66-.29s1.35 1.13.59 1.62a8.61 8.61 0 0 1-2.15.93z" fill="#F3E3FF"/>
      <path d="M200.27 174.66s1.83 1.71 0 3.13a3.11 3.11 0 0 1-1.68.62s-1.28-1.46-.6-2.06a17 17 0 0 1 2.28-1.69z" stroke="#52267D" fill="#FFF"/>
      <path d="M200 175.82s.81.76 0 1.39a1.38 1.38 0 0 1-.75.27s-.57-.64-.26-.91a7.54 7.54 0 0 1 1.01-.75z" fill="#F3E3FF"/>
      <path d="M183.06 183.58a2.55 2.55 0 0 1 1.9-3c2.45-.8 3.08-.06 3.08-.06s1.28 2.3.06 3c-1.22.7-5.04.06-5.04.06z" stroke="#52267D" fill="#FFF"/>
      <path d="M184.21 183.11a1.33 1.33 0 0 1 1-1.57c1.27-.42 1.6 0 1.6 0s.66 1.19 0 1.55a6.41 6.41 0 0 1-2.6.02z" fill="#F3E3FF"/>
      <path d="M69.267 123h107.466c4.566 0 8.267 3.736 8.267 8.348v79.306c0 4.61-3.701 8.346-8.267 8.346H69.267C64.7 219 61 215.264 61 210.654v-79.306c0-4.612 3.701-8.348 8.267-8.348z" stroke="#5E63B6" stroke-width="3" fill="#FFF"/>
      <path d="M69.867 124h102.266c4.345 0 7.867 3.73 7.867 8.333v8.332c0 4.604-3.522 8.335-7.867 8.335H69.867c-4.345 0-7.867-3.731-7.867-8.335v-8.332c0-4.604 3.522-8.333 7.867-8.333z" fill="#E1F2FF"/>
      <path d="M69.267 118h107.466c4.566 0 8.267 3.73 8.267 8.333v8.332c0 4.604-3.701 8.335-8.267 8.335H69.267C64.7 143 61 139.269 61 134.665v-8.332c0-4.604 3.701-8.333 8.267-8.333z" stroke="#5E63B6" stroke-width="3" fill="#FFF"/>
      <path d="M86.307 127c-5.14 0-9.307 1.792-9.307 4.001 0 2.209 4.167 3.999 9.307 3.999 5.14 0 9.307-1.79 9.307-3.999S91.446 127 86.307 127zm72.386 0c-5.14 0-9.307 1.792-9.307 4.001 0 2.209 4.168 3.999 9.307 3.999 5.14 0 9.307-1.79 9.307-3.999S163.833 127 158.693 127z" fill="#9ACDED"/>
      <path d="M122.5 160c10.218 0 18.5 8.282 18.5 18.501 0 10.217-8.282 18.499-18.5 18.499s-18.5-8.282-18.5-18.499c0-10.219 8.282-18.501 18.5-18.501z" fill="#5E63B6"/>
      <path d="M122.5 164c8.008 0 14.5 6.492 14.5 14.5s-6.492 14.5-14.5 14.5-14.5-6.492-14.5-14.5 6.492-14.5 14.5-14.5z" fill="#FFF"/>
      <path d="M123 173c1.106 0 2 .894 2 2v8a2 2 0 1 1-4 0v-8c0-1.106.894-2 2-2z" fill="#ACD3EF"/>
      <path d="M122.5 60C98.476 60 79 79.61 79 103.8v25.026c0 2.305 3.246 4.174 7.25 4.174 4.006 0 7.25-1.869 7.25-4.174V103.8c0-16.125 12.984-29.198 29-29.198s29 13.073 29 29.198v25.026c0 2.305 3.246 4.174 7.25 4.174s7.25-1.869 7.25-4.174V103.8c0-24.19-19.476-43.8-43.5-43.8z" stroke="#5E63B6" stroke-width="3" fill="#FFF"/>
      <path d="M122 67c-20.435 0-37 15.728-37 35.13V131c3.687-.291 6.53-1.994 6.53-4.077v-24.795c0-15.976 13.642-28.929 30.47-28.929s30.47 12.953 30.47 28.929v24.795c0 2.083 2.845 3.786 6.53 4.077v-28.87C159 82.728 142.435 67 122 67z" fill="#E1F2FF"/>
    </g>
    <g fill="#FFF" fill-rule="nonzero" stroke="#5E63B6" stroke-linecap="round" stroke-linejoin="round" stroke-width="3">
      <path d="M20 220h36M62 220h176.89M246 220h6.97M3 220h8.97M95 230h67.19M171 230h9.14M87 229l-5 .08"/>
    </g>
    <g stroke="#5E63B6" stroke-linecap="round">
      <path d="M206.98 68.4v7M210.48 71.9h-7M80 24v7M84 28h-7" stroke-width="2" stroke-linejoin="round"/>
      <path d="M42.73 188.68v3.94M44.7 190.65h-3.94"/>
      <path d="M217.73 128.68v3.94M219.7 130.65h-3.94" stroke-linejoin="round"/>
      <path d="M48.73 88.68v3.94M50.7 90.65h-3.94"/>
      <path d="M26.42 127.28v8.12M30.48 131.34h-8.13" stroke-width="2" fill="#FFF" fill-rule="nonzero"/>
    </g>
  </g>
</svg>
