<svg width="256" height="256" xmlns="http://www.w3.org/2000/svg" xmlns:xlink="http://www.w3.org/1999/xlink">
  <defs>
    <path id="a" d="M0 211h251.191V.812H0z"/>
  </defs>
  <g fill="none" fill-rule="evenodd">
    <path fill="#FFF" d="M148.77 115.95h43.702l23.946-28.659h-43.702z"/>
    <path stroke="#5E63B6" stroke-width="2" d="M148.77 115.95h43.702l23.946-28.659h-43.702z"/>
    <path fill="#FFF" d="M148.77 115.95H61.365L37.418 87.29h87.406z"/>
    <path stroke="#5E63B6" stroke-width="2" d="M148.77 115.95H61.365L37.418 87.29h87.406z"/>
    <g transform="translate(2 9.188)">
      <path d="M21.36 209.716c0-57.193 46.365-103.558 103.559-103.558 57.193 0 103.557 46.365 103.557 103.558H21.36z" fill="#E1F2FF"/>
      <path d="M16.826 200.925h36" fill="#FFF"/>
      <path d="M16.826 200.925h36" stroke="#5E63B6" stroke-width="2" stroke-linecap="round" stroke-linejoin="round"/>
      <path d="M72.706 140.969v3.938M74.675 142.937h-3.938M209.108 168.19v3.938M211.077 170.159h-3.939" stroke="#5E63B6" stroke-linecap="round"/>
      <path d="M144.137 123.22l-56.903 17.347a2.256 2.256 0 0 1-2.815-1.499l-25.747-84.45a2.256 2.256 0 0 1 1.5-2.815l56.903-17.348a2.255 2.255 0 0 1 2.814 1.498l25.747 84.452a2.255 2.255 0 0 1-1.499 2.814" fill="#FFF"/>
      <path d="M144.137 123.22l-56.903 17.347a2.256 2.256 0 0 1-2.815-1.499l-25.747-84.45a2.256 2.256 0 0 1 1.5-2.815l56.903-17.348a2.255 2.255 0 0 1 2.814 1.498l25.747 84.452a2.255 2.255 0 0 1-1.499 2.814z" stroke="#ACD3EF" stroke-width="2"/>
      <path fill="#E1F2FF" d="M86.801 129.55l53.893-12.416-22.854-74.96-54.132 13.828z"/>
      <path d="M107.19 68.055c1.983 6.5-1.68 13.375-8.18 15.356-6.5 1.983-13.376-1.68-15.357-8.18-1.982-6.5 1.68-13.375 8.18-15.357 6.5-1.983 13.377 1.68 15.358 8.18" fill="#FFF"/>
      <path d="M107.893 65.24c1.982 6.5-1.681 13.376-8.181 15.357-6.5 1.982-13.376-1.68-15.357-8.18-1.982-6.5 1.68-13.376 8.18-15.358 6.5-1.982 13.377 1.681 15.358 8.181" fill="#FFF"/>
      <path d="M107.893 65.24c1.982 6.5-1.681 13.376-8.181 15.357-6.5 1.982-13.376-1.68-15.357-8.18-1.982-6.5 1.68-13.376 8.18-15.358 6.5-1.982 13.377 1.681 15.358 8.181z" stroke="#ACD3EF" stroke-width="2"/>
      <path d="M100.819 73.741c.095.132.169.218.19.247.007.003-.003 0 0 0 0 0 .002.001 0 0 .002.001 0 0 0 0-1.31-3.105.102-4.997.038-7.306a.657.657 0 0 1-.014-.11 1.355 1.355 0 0 0-.015-.155c-.093-.616-.544-1.229-1.22-1.804l-.01-.009c-.055-.048-.114-.095-.172-.142 0 0-.002 0-.003-.002a9.977 9.977 0 0 0-.34-.255l-.035-.027a5.752 5.752 0 0 1-.1-.067c-.033-.023-.066-.048-.1-.07l-.102-.067-.106-.069c-.025-.016-.051-.031-.076-.048-.972-.608-2.157-1.141-3.35-1.554 0 0-.011-.009 0 0 .497 1.167.882 2.369 1.06 3.369.218 1.206.215 2.687.01 4.091-1.384.301-2.862.41-4.081.278-1.018-.11-2.235-.403-3.442-.821.04.096.084.192.126.289l.039.085c.03.069.06.136.094.205.014.031.029.063.045.093.032.07.064.137.097.204l.04.083c.042.085.085.17.129.254.003.009.008.018.012.026.05.098.1.195.153.291.003.008.008.014.013.022.046.087.093.172.14.257l.03.052c.044.078.088.155.133.231l.027.045c.052.088.104.177.157.263v.001c.173.276.35.54.529.791l.006.009c.303.417.617.79.935 1.103l.14.133.005.005.128.114.006.004a2.452 2.452 0 0 0 .156.129v.001c.06.048.12.092.179.134l.03.02c.003.002.007.004.01.008a3.345 3.345 0 0 0 .496.282l.067.028.084.032c.02.009.043.015.065.022l.085.028.065.016.086.02.06.011.099.011c.014.001.032.005.048.005.05.005.099.006.147.005.033 0 .06.001.088.003 2.314-.087 4.126-1.619 7.31-.547M91.073 96.014l-1.844-.981-2.69 5.05-3.14-1.672-.981 1.843 4.967 2.646.008-.017.016.01z" fill="#ACD3EF"/>
      <path d="M94.947 96.941l30.346-9.25" fill="#FFF"/>
      <path d="M94.947 96.941l30.346-9.25" stroke="#ACD3EF" stroke-width="2" stroke-linecap="round" stroke-linejoin="round"/>
      <path fill="#ACD3EF" d="M93.918 105.35l-1.844-.982-2.69 5.05-3.138-1.672-.982 1.843 4.966 2.647.008-.017.016.01z"/>
      <path d="M97.93 106.724l30.345-9.25" fill="#FFF"/>
      <path d="M97.93 106.724l30.345-9.25" stroke="#ACD3EF" stroke-width="2" stroke-linecap="round" stroke-linejoin="round"/>
      <path fill="#ACD3EF" d="M96.765 114.686l-1.844-.982-2.69 5.05-3.139-1.672-.982 1.843 4.967 2.646.008-.016.016.01z"/>
      <path d="M101.013 116.838l30.345-9.252" fill="#FFF"/>
      <path d="M101.013 116.838l30.345-9.252" stroke="#ACD3EF" stroke-width="2" stroke-linecap="round" stroke-linejoin="round"/>
      <path d="M173.868 105.386v3.938" fill="#FFF"/>
      <path d="M173.868 105.386v3.938" stroke="#5E63B6" stroke-linecap="round" stroke-linejoin="round"/>
      <path d="M175.836 107.354h-3.938" fill="#FFF"/>
      <path d="M175.836 107.354h-3.938" stroke="#5E63B6" stroke-linecap="round" stroke-linejoin="round"/>
      <path d="M243.217 200.886h6.974" fill="#FFF"/>
      <path d="M243.217 200.886h6.974" stroke="#5E63B6" stroke-width="2" stroke-linecap="round" stroke-linejoin="round"/>
      <path d="M1 200.886h8.973" fill="#FFF"/>
      <path d="M1 200.886h8.973" stroke="#5E63B6" stroke-width="2" stroke-linecap="round" stroke-linejoin="round"/>
      <path d="M92.23 210h67.188" fill="#FFF"/>
      <path d="M92.23 210h67.188" stroke="#5E63B6" stroke-width="2" stroke-linecap="round" stroke-linejoin="round"/>
      <path d="M168.036 210h9.142" fill="#FFF"/>
      <path d="M168.036 210h9.142" stroke="#5E63B6" stroke-width="2" stroke-linecap="round" stroke-linejoin="round"/>
      <path d="M84.349 209.925l-5 .075" fill="#FFF"/>
      <path d="M84.349 209.925l-5 .075" stroke="#5E63B6" stroke-width="2" stroke-linecap="round" stroke-linejoin="round"/>
      <path d="M59.275 200.925h176.894" fill="#FFF"/>
      <path d="M59.275 200.925h176.894" stroke="#5E63B6" stroke-width="2" stroke-linecap="round" stroke-linejoin="round"/>
      <path d="M167.795 158.456L110.716 138.2a2.255 2.255 0 0 1-1.37-2.88l30.05-84.676a2.254 2.254 0 0 1 2.878-1.372l57.08 20.256a2.256 2.256 0 0 1 1.371 2.879l-30.05 84.678a2.255 2.255 0 0 1-2.88 1.37" fill="#FFF"/>
      <path d="M167.795 158.456L110.716 138.2a2.255 2.255 0 0 1-1.37-2.88l30.05-84.676a2.254 2.254 0 0 1 2.878-1.372l57.08 20.256a2.256 2.256 0 0 1 1.371 2.879l-30.05 84.678a2.255 2.255 0 0 1-2.88 1.37z" stroke="#ACD3EF" stroke-width="2"/>
      <path fill="#E1F2FF" d="M117.06 128.944l51.565 22.442 26.65-75.097-52.612-21.433z"/>
      <path d="M170.92 91.005c-2.313 6.512-9.465 9.918-15.977 7.606-6.51-2.31-9.918-9.462-7.606-15.974 2.311-6.513 9.463-9.918 15.975-7.608 6.512 2.312 9.918 9.464 7.607 15.976" fill="#FFF"/>
      <path d="M173.195 89.129c-2.311 6.512-9.463 9.918-15.975 7.606-6.512-2.31-9.918-9.462-7.607-15.975 2.31-6.512 9.464-9.917 15.976-7.607 6.51 2.312 9.918 9.464 7.606 15.976" fill="#FFF"/>
      <path d="M173.195 89.129c-2.311 6.512-9.463 9.918-15.975 7.606-6.512-2.31-9.918-9.462-7.607-15.975 2.31-6.512 9.464-9.917 15.976-7.607 6.51 2.312 9.918 9.464 7.606 15.976z" stroke="#ACD3EF" stroke-width="2"/>
      <path d="M162.27 91.8c-.001.165.007.28.008.318.003.005-.003-.004 0 0l-.001-.001c.808-3.331 3.105-4.023 4.448-5.95a.897.897 0 0 1 .057-.098c.029-.043.056-.09.08-.136.298-.56.3-1.333.095-2.211l-.003-.015c-.016-.072-.036-.146-.055-.22l-.001-.002a9.125 9.125 0 0 0-.123-.414l-.014-.044c-.012-.04-.027-.077-.04-.115l-.04-.12a5.441 5.441 0 0 0-.043-.115l-.045-.121-.034-.085c-.426-1.084-1.072-2.236-1.797-3.297 0 0-.004-.014 0 0-.3 1.256-.713 2.47-1.17 3.397-.551 1.117-1.451 2.326-2.466 3.35-1.315-.591-2.588-1.396-3.505-2.241-.766-.706-1.584-1.681-2.317-2.754-.025.104-.05.208-.072.312l-.02.094c-.016.075-.033.149-.047.225l-.021.103c-.015.076-.03.15-.043.226l-.017.092-.05.286-.004.027c-.02.112-.035.222-.051.33l-.004.027a30.01 30.01 0 0 0-.08.625.327.327 0 0 1-.004.053l-.03.31c.002 0 0 0 0 0-.026.33-.041.654-.045.967l-.001.01a8.915 8.915 0 0 0 .097 1.468c.01.066.022.13.034.194v.007h.002c.01.058.022.115.035.17l.002.007c.013.06.027.119.044.177h-.001a.202.202 0 0 1 .007.023v.002c.02.075.043.147.064.217a.765.765 0 0 1 .013.034c0 .004.003.008.004.013.026.079.055.156.088.23.02.052.045.102.068.152l.03.06.048.088c.012.022.025.04.038.063.015.026.032.052.048.077l.04.059c.019.024.035.048.054.073l.042.052.059.069.043.045c.024.024.048.047.074.069.01.01.023.024.036.033.038.034.077.065.117.093a.95.95 0 0 1 .07.056c1.945 1.328 4.352 1.172 6.307 3.974" fill="#9452BA"/>
      <path fill="#ACD3EF" d="M140.833 104.113l-.913-1.918-5.253 2.502-1.555-3.266-1.918.914 2.46 5.166.017-.007.008.016z"/>
      <path d="M143.44 107.215l30.4 10.788" fill="#FFF"/>
      <path d="M143.44 107.215l30.4 10.788" stroke="#ACD3EF" stroke-width="2" stroke-linecap="round" stroke-linejoin="round"/>
      <path fill="#ACD3EF" d="M137.514 113.467l-.913-1.918-5.253 2.5-1.555-3.264-1.918.913 2.46 5.166.017-.007.008.016z"/>
      <path d="M139.962 117.015l30.4 10.788" fill="#FFF"/>
      <path d="M139.962 117.015l30.4 10.788" stroke="#ACD3EF" stroke-width="2" stroke-linecap="round" stroke-linejoin="round"/>
      <path fill="#ACD3EF" d="M134.196 122.82l-.914-1.919-5.253 2.502-1.555-3.266-1.918.914 2.46 5.166.017-.007.008.016z"/>
      <path d="M136.367 127.147l30.4 10.788" fill="#FFF"/>
      <path d="M136.367 127.147l30.4 10.788" stroke="#ACD3EF" stroke-width="2" stroke-linecap="round" stroke-linejoin="round"/>
      <path d="M159.806 138.129l-58.007-16.7a2.256 2.256 0 0 1-1.543-2.79l24.776-86.06a2.254 2.254 0 0 1 2.791-1.542l58.005 16.698a2.254 2.254 0 0 1 1.543 2.79l-24.774 86.06a2.256 2.256 0 0 1-2.791 1.544" fill="#FFF"/>
      <path d="M159.806 138.129l-58.007-16.7a2.256 2.256 0 0 1-1.543-2.79l24.776-86.06a2.254 2.254 0 0 1 2.791-1.542l58.005 16.698a2.254 2.254 0 0 1 1.543 2.79l-24.774 86.06a2.256 2.256 0 0 1-2.791 1.544z" stroke="#ACD3EF" stroke-width="2"/>
      <path fill="#E1F2FF" d="M160.664 127.127l-54.818-11.731 21.975-76.335 55.083 13.157z"/>
      <path d="M150.618 80.357l-12.68-3.594a8.472 8.472 0 0 1-5.84-10.46l.882-3.11a8.472 8.472 0 0 1 10.46-5.84l12.68 3.592a8.473 8.473 0 0 1 5.84 10.462l-.881 3.11a8.472 8.472 0 0 1-10.461 5.84" fill="#FFF"/>
      <path d="M153.253 78.492l-12.679-3.593a8.474 8.474 0 0 1-5.84-10.462l.881-3.109a8.473 8.473 0 0 1 10.462-5.841l12.678 3.594a8.472 8.472 0 0 1 5.841 10.461l-.88 3.109a8.473 8.473 0 0 1-10.463 5.841" fill="#FFF"/>
      <path d="M153.253 78.492l-12.679-3.593a8.474 8.474 0 0 1-5.84-10.462l.881-3.109a8.473 8.473 0 0 1 10.462-5.841l12.678 3.594a8.472 8.472 0 0 1 5.841 10.461l-.88 3.109a8.473 8.473 0 0 1-10.463 5.841z" stroke="#ACD3EF" stroke-width="2"/>
      <path d="M143.89 65.628c.215.062.41.089.586.08.175-.007.33-.046.465-.115a.961.961 0 0 0 .344-.298c.093-.13.166-.282.217-.46.048-.168.066-.328.053-.48a.95.95 0 0 0-.135-.416 1.076 1.076 0 0 0-.334-.335 1.955 1.955 0 0 0-.545-.24l-.877-.252-.651 2.263.877.253zm.912-3.171a3.7 3.7 0 0 1 1.053.464c.279.187.494.398.643.634.15.234.238.49.264.765.026.275-.003.56-.087.853-.088.306-.22.57-.394.796a1.814 1.814 0 0 1-.648.524 2.198 2.198 0 0 1-.888.207 3.573 3.573 0 0 1-1.119-.156l-.877-.253-.638 2.22-1.174-.337 1.815-6.307 2.05.59zM151.641 67.84c.1-.346.143-.67.13-.971a2.017 2.017 0 0 0-.195-.811 1.83 1.83 0 0 0-.503-.62 2.238 2.238 0 0 0-.786-.391l-1.226-.353-1.278 4.44 1.225.352c.309.089.6.118.875.086.276-.03.527-.116.754-.256.228-.141.428-.335.598-.584.171-.248.306-.545.406-.892m1.203.347a3.546 3.546 0 0 1-.598 1.207 3.035 3.035 0 0 1-.937.81 3.02 3.02 0 0 1-1.194.362 3.698 3.698 0 0 1-1.375-.146l-2.404-.692 1.816-6.307 2.403.692c.48.138.894.34 1.241.61.348.268.621.582.821.94.199.359.32.753.363 1.184.042.43-.003.878-.136 1.34M155.695 66.603l-.537 1.866 2.363.681-.27.937-2.364-.679-.74 2.568-1.177-.339 1.816-6.306 3.977 1.145-.268.933z" fill="#ACD3EF"/>
      <path d="M127.15 87.083l30.9 8.896" fill="#FFF"/>
      <path d="M127.15 87.083l30.9 8.896" stroke="#ACD3EF" stroke-width="2" stroke-linecap="round" stroke-linejoin="round"/>
      <path d="M124.282 97.046l30.9 8.896" fill="#FFF"/>
      <path d="M124.282 97.046l30.9 8.896" stroke="#ACD3EF" stroke-width="2" stroke-linecap="round" stroke-linejoin="round"/>
      <path d="M121.317 107.344l30.9 8.896" fill="#FFF"/>
      <path d="M121.317 107.344l30.9 8.896" stroke="#ACD3EF" stroke-width="2" stroke-linecap="round" stroke-linejoin="round"/>
      <path d="M128.453 197.778l-60.392-31.836a2.255 2.255 0 0 1-.943-3.046l39.13-74.229a2.254 2.254 0 0 1 3.046-.944l60.391 31.835a2.256 2.256 0 0 1 .945 3.047l-39.13 74.23a2.256 2.256 0 0 1-3.047.943" fill="#FFF"/>
      <path d="M128.453 197.778l-60.392-31.836a2.255 2.255 0 0 1-.943-3.046l39.13-74.229a2.254 2.254 0 0 1 3.046-.944l60.391 31.835a2.256 2.256 0 0 1 .945 3.047l-39.13 74.23a2.256 2.256 0 0 1-3.047.943z" stroke="#ACD3EF" stroke-width="2"/>
      <path fill="#E1F2FF" d="M130.746 187.5L73.54 161.479l34.82-66.054 57.284 27.438z"/>
      <path d="M137.045 133.865c-3.02 5.728-11.009 7.45-17.845 3.847-6.836-3.604-9.929-11.168-6.91-16.897 3.02-5.727 11.008-7.449 17.844-3.846 6.836 3.604 9.931 11.168 6.911 16.896" fill="#FFF"/>
      <path d="M139.652 132.56c-3.02 5.728-11.01 7.45-17.845 3.846-6.836-3.604-9.93-11.168-6.91-16.896 3.019-5.727 11.009-7.45 17.845-3.846 6.836 3.603 9.93 11.167 6.91 16.896" fill="#FFF"/>
      <path d="M139.652 132.56c-3.02 5.728-11.01 7.45-17.845 3.846-6.836-3.604-9.93-11.168-6.91-16.896 3.019-5.727 11.009-7.45 17.845-3.846 6.836 3.603 9.93 11.167 6.91 16.896z" stroke="#ACD3EF" stroke-width="2"/>
      <path d="M127.655 132.772c-.017.156-.017.27-.02.305.004.006-.002-.004 0 0 0 0 0 .001 0 0 0 .001 0 0 0 0 1.14-3.01 3.674-3.18 5.279-4.734a.752.752 0 0 1 .069-.082c.034-.035.068-.073.099-.112.365-.472.429-1.21.28-2.093l-.002-.014c-.012-.074-.027-.148-.042-.223l-.001-.003a7.696 7.696 0 0 0-.11-.466l-.033-.118a4.341 4.341 0 0 0-.072-.243l-.038-.125-.03-.088c-.371-1.128-.975-2.367-1.671-3.536 0 0-.003-.014 0 0-.425 1.136-.97 2.208-1.537 2.995-.686.95-1.753 1.912-2.931 2.674-1.371-.848-2.678-1.89-3.598-2.893-.77-.839-1.573-1.946-2.277-3.129l-.102.283-.03.086-.068.204a11.913 11.913 0 0 0-.096.301l-.025.084c-.026.088-.053.175-.076.263l-.008.026c-.03.102-.056.203-.082.305l-.006.023c-.023.092-.046.183-.067.275-.004.018-.01.037-.013.056-.02.083-.037.166-.056.25a21.039 21.039 0 0 0-.066.339v.002c-.056.31-.1.615-.13.912v.011c-.048.5-.055.98-.015 1.423l.022.192v.008l.025.17v.007c.01.061.022.12.034.178 0 .008.003.015.005.023v.002c.016.075.035.15.052.222.005.011.008.023.01.035a3.027 3.027 0 0 0 .079.252c.019.055.04.107.062.16.009.022.02.043.03.064.013.033.028.063.043.094.01.024.024.045.036.068l.046.085.039.063a1.373 1.373 0 0 0 .093.141c.018.026.039.052.058.08l.042.051.073.082c.012.011.024.027.038.04.038.04.078.077.118.113.027.024.049.047.07.068 1.99 1.686 4.6 2.052 6.48 5.15M103.537 139.946l-.829-2.028-5.867 1.264-1.412-3.453-2.144.462 2.234 5.464.02-.004.007.018z" fill="#ACD3EF"/>
      <path d="M106.285 143.76l31.915 16.822" fill="#FFF"/>
      <path d="M106.285 143.76l31.915 16.822" stroke="#ACD3EF" stroke-width="2" stroke-linecap="round" stroke-linejoin="round"/>
      <path fill="#ACD3EF" d="M99.2 148.173l-.828-2.028-5.868 1.264-1.412-3.453-2.143.462 2.234 5.464.019-.004.008.018z"/>
      <path d="M101.553 152.089l31.913 16.823" fill="#FFF"/>
      <path d="M101.553 152.089l31.913 16.823" stroke="#ACD3EF" stroke-width="2" stroke-linecap="round" stroke-linejoin="round"/>
      <path fill="#ACD3EF" d="M94.865 156.4l-.83-2.029-5.868 1.264-1.412-3.453-2.143.462 2.234 5.464.019-.004.008.018z"/>
      <path d="M96.856 161l31.913 16.823" fill="#FFF"/>
      <path d="M96.856 161l31.913 16.823" stroke="#ACD3EF" stroke-width="2" stroke-linecap="round" stroke-linejoin="round"/>
      <path d="M122.868 113.335L72.65 129.679a2.256 2.256 0 0 1-2.843-1.447L56.909 88.599a2.255 2.255 0 0 1 1.447-2.842l50.218-16.344a2.257 2.257 0 0 1 2.844 1.446l12.897 39.634a2.255 2.255 0 0 1-1.445 2.842" fill="#FFF"/>
      <path d="M122.868 113.335L72.65 129.679a2.256 2.256 0 0 1-2.843-1.447L56.909 88.599a2.255 2.255 0 0 1 1.447-2.842l50.218-16.344a2.257 2.257 0 0 1 2.844 1.446l12.897 39.634a2.255 2.255 0 0 1-1.445 2.842z" stroke="#ACD3EF" stroke-width="2"/>
      <path d="M115.503 107.303l-40.448 13.164a2.255 2.255 0 0 1-2.842-1.446l-8.356-25.678a2.253 2.253 0 0 1 1.446-2.842l40.448-13.164a2.255 2.255 0 0 1 2.842 1.446l8.356 25.678a2.254 2.254 0 0 1-1.446 2.842" fill="#E1F2FF"/>
      <path d="M115.503 107.303l-40.448 13.164a2.255 2.255 0 0 1-2.842-1.446l-8.356-25.678a2.253 2.253 0 0 1 1.446-2.842l40.448-13.164a2.255 2.255 0 0 1 2.842 1.446l8.356 25.678a2.254 2.254 0 0 1-1.446 2.842z" stroke="#ACD3EF" stroke-width="2"/>
      <path d="M64.632 95.725l-.924-2.838a1.774 1.774 0 0 1 1.14-2.238l41.358-13.46a1.776 1.776 0 0 1 2.24 1.14l.902 2.772-44.716 14.624z" fill="#ACD3EF"/>
      <path d="M64.632 95.725l-.924-2.838a1.774 1.774 0 0 1 1.14-2.238l41.358-13.46a1.776 1.776 0 0 1 2.24 1.14l.902 2.772-44.716 14.624z" stroke="#ACD3EF" stroke-width="2"/>
      <path d="M116.21 102.197l.888 2.72a1.776 1.776 0 0 1-1.139 2.237L74.6 120.614a1.776 1.776 0 0 1-2.239-1.139l-.945-2.904 44.794-14.374z" fill="#ACD3EF"/>
      <path d="M116.21 102.197l.888 2.72a1.776 1.776 0 0 1-1.139 2.237L74.6 120.614a1.776 1.776 0 0 1-2.239-1.139l-.945-2.904 44.794-14.374z" stroke="#ACD3EF" stroke-width="2"/>
      <path d="M95.89 95.37l-9.148-1.978a1.292 1.292 0 0 0-1.504 1.658l2.86 8.912a1.293 1.293 0 0 0 2.188.473l6.289-6.933a1.292 1.292 0 0 0-.685-2.131" fill="#FFF"/>
      <path d="M95.89 95.37l-9.148-1.978a1.292 1.292 0 0 0-1.504 1.658l2.86 8.912a1.293 1.293 0 0 0 2.188.473l6.289-6.933a1.292 1.292 0 0 0-.685-2.131z" stroke="#ACD3EF" stroke-width="2"/>
      <path d="M145.265 173.486l4.964-.398a4.17 4.17 0 0 0 3.661-2.947c1.397-4.677.623-8.809.548-12.39-.141-6.636-1.444-9.937-2.872-15.38l-7.437.77s.854 2.694 1.938 10.891c.335 2.537-3.052 13.105-2.451 18.108a1.533 1.533 0 0 0 1.649 1.346" fill="#9452BA"/>
      <path d="M145.265 173.486l4.964-.398a4.17 4.17 0 0 0 3.661-2.947c1.397-4.677.623-8.809.548-12.39-.141-6.636-1.444-9.937-2.872-15.38l-7.437.77s.854 2.694 1.938 10.891c.335 2.537-3.052 13.105-2.451 18.108a1.533 1.533 0 0 0 1.649 1.346z" stroke="#52267D" stroke-width="2"/>
      <path d="M128.922 151.054l-6.538-6.314-3.689.445s-.065 5.694-.087 8.078c-.04 4.202-1.113 12.517-1.886 16.19-.252 1.196-.365 2.303-.34 3.296.04 1.67 1.537 2.935 3.204 2.8l4.397-.353c2.561-.206 4.701-2.097 5.13-4.63 1.338-7.887-.19-19.512-.19-19.512" fill="#9452BA"/>
      <path d="M128.922 151.054l-6.538-6.314-3.689.445s-.065 5.694-.087 8.078c-.04 4.202-1.113 12.517-1.886 16.19-.252 1.196-.365 2.303-.34 3.296.04 1.67 1.537 2.935 3.204 2.8l4.397-.353c2.561-.206 4.701-2.097 5.13-4.63 1.338-7.887-.19-19.512-.19-19.512z" stroke="#52267D" stroke-width="2"/>
      <path stroke="#52267D" stroke-width=".5" d="M120.872 156.417l-.919.947 1.014.777 1.493-.715-.362-.652-1.255.406.03.228.33-.043"/>
      <path d="M118.498 126.424c4.358-.44 8.208-3.775 17.083-4.901.082-.593.196-1.131.36-1.578 1.332-3.621 2.8-13.863.807-20.353l-1.576-5.136a24.135 24.135 0 0 1-.99-5.178 10.653 10.653 0 0 1 .12-2.676 10.567 10.567 0 0 1 1.476-3.836 10.671 10.671 0 0 1 2.78-2.965 10.585 10.585 0 0 1 5.374-1.978l1.738-.14a10.602 10.602 0 0 1 7.747 2.505 10.43 10.43 0 0 1 1.916 2.14 10.445 10.445 0 0 1 1.245 2.483 10.51 10.51 0 0 1 .547 2.624 2.644 2.644 0 0 1-.624 1.93 2.64 2.64 0 0 1-1.807.925l-10.855.872 2.4 9.29c2.705 9.524 2.646 16.043 1.5 20.478-.257.989-1.879 4.55-1.879 4.55 6.117 8.13 14.741 11.205 23.73 11.576 7.64.316 23.42-7.897 14.357-15.202-9.063-7.305 1.512-3.16 3.091-2.27 1.58.89 10.843 7.679 2.324 19.415-3.6 4.963-7.765 9.546-18.34 13.654-1.696.658-11.122 2.109-16.108 3.984-14.847 5.583-27.582 1.833-35.31-7.643-7.699-9.436-2.827-22.396-1.106-22.57" fill="#9452BA"/>
      <path d="M118.498 126.424c4.358-.44 8.208-3.775 17.083-4.901.082-.593.196-1.131.36-1.578 1.332-3.621 2.8-13.863.807-20.353l-1.576-5.136a24.135 24.135 0 0 1-.99-5.178 10.653 10.653 0 0 1 .12-2.676 10.567 10.567 0 0 1 1.476-3.836 10.671 10.671 0 0 1 2.78-2.965 10.585 10.585 0 0 1 5.374-1.978l1.738-.14a10.602 10.602 0 0 1 7.747 2.505 10.43 10.43 0 0 1 1.916 2.14 10.445 10.445 0 0 1 1.245 2.483 10.51 10.51 0 0 1 .547 2.624 2.644 2.644 0 0 1-.624 1.93 2.64 2.64 0 0 1-1.807.925l-10.855.872 2.4 9.29c2.705 9.524 2.646 16.043 1.5 20.478-.257.989-1.879 4.55-1.879 4.55 6.117 8.13 14.741 11.205 23.73 11.576 7.64.316 23.42-7.897 14.357-15.202-9.063-7.305 1.512-3.16 3.091-2.27 1.58.89 10.843 7.679 2.324 19.415-3.6 4.963-7.765 9.546-18.34 13.654-1.696.658-11.122 2.109-16.108 3.984-14.847 5.583-27.582 1.833-35.31-7.643-7.699-9.436-2.827-22.396-1.106-22.57z" stroke="#52267D" stroke-width="2"/>
      <path d="M126.769 111.242c-.554-11.252-10.171-19.357-20.444-20.408-2.133-.218-2.87-.822-5.17-.638l-1.76.142c-5.933.476-10.355 5.672-9.88 11.604a2.687 2.687 0 0 0 2.894 2.463s18.06-1.456 18.145-1.471l1.473-.117c-.003.002-1.475.121-1.477.123 4.13 1.375 7.027 6.28 7.685 8.988.938 3.855.74 7.114-.383 9.826-.75 1.807-.681 3.906-.408 5.589l.105.027a20.4 20.4 0 0 0 .729 3.071c1.606-1.322 4.107-3.318 4.57-3.612.999-.634 3.255-2.077 4.26-2.767 6.428-4.403-.025-6.421-.34-12.82" fill="#9452BA"/>
      <path d="M126.769 111.242c-.554-11.252-10.171-19.357-20.444-20.408-2.133-.218-2.87-.822-5.17-.638l-1.76.142c-5.933.476-10.355 5.672-9.88 11.604a2.687 2.687 0 0 0 2.894 2.463s18.06-1.456 18.145-1.471l1.473-.117c-.003.002-1.475.121-1.477.123 4.13 1.375 7.027 6.28 7.685 8.988.938 3.855.74 7.114-.383 9.826-.75 1.807-.681 3.906-.408 5.589l.105.027a20.4 20.4 0 0 0 .729 3.071c1.606-1.322 4.107-3.318 4.57-3.612.999-.634 3.255-2.077 4.26-2.767 6.428-4.403-.025-6.421-.34-12.82z" stroke="#52267D" stroke-width="2"/>
      <path d="M122.058 124.673c-.228-1.727-.564-2.595-.427-3.316.793-4.15 1.055-5.461.709-9.76-.343-4.271-3.157-8.293-6.991-10.245-.211-.108-2.854-.081-4.799 1.589 4.131 1.375 7.027 6.279 7.685 8.987.938 3.855.74 7.114-.383 9.826-.748 1.808-.681 3.907-.408 5.589 0 0 5.048 1.446 4.614-2.67" fill="#F3E3FF"/>
      <path d="M122.058 124.673c-.228-1.727-.564-2.595-.427-3.316.793-4.15 1.055-5.461.709-9.76-.343-4.271-3.157-8.293-6.991-10.245-.211-.108-2.854-.081-4.799 1.589 4.131 1.375 7.027 6.279 7.685 8.987.938 3.855.74 7.114-.383 9.826-.748 1.808-.681 3.907-.408 5.589 0 0 5.048 1.446 4.614-2.67" stroke="#52267D"/>
      <path d="M93.905 92.616s-.154-1.876 1.649-2.771c.55-.273 1.555-.78 1.555-.78s1.3 2.259.089 2.952c-1.742.997-3.293.599-3.293.599" fill="#FFF"/>
      <path d="M93.905 92.616s-.154-1.876 1.649-2.771c.55-.273 1.555-.78 1.555-.78s1.3 2.259.089 2.952c-1.742.997-3.293.599-3.293.599z" stroke="#52267D"/>
      <path d="M98.465 90.922s-.152-2.561 2.693-3.164c.532-.112 1.933-.191 1.933-.191s.863 2.653-.632 3.034c-1.839.469-3.994.32-3.994.32" fill="#FFF"/>
      <path d="M98.465 90.922s-.152-2.561 2.693-3.164c.532-.112 1.933-.191 1.933-.191s.863 2.653-.632 3.034c-1.839.469-3.994.32-3.994.32z" stroke="#52267D"/>
      <path d="M104.203 90.707s.15-2.865 2.76-2.29a3.564 3.564 0 0 1 1.785 1.023s-.334 2.2-1.366 2.038c-1.803-.282-3.18-.771-3.18-.771" fill="#FFF"/>
      <path d="M104.203 90.707s.15-2.865 2.76-2.29a3.564 3.564 0 0 1 1.785 1.023s-.334 2.2-1.366 2.038c-1.803-.282-3.18-.771-3.18-.771z" stroke="#52267D"/>
      <path d="M112.704 103.874s5.677-3.704 4.11-9.044c.842.586 3.108 2.397 3.953 3.349.086 1.062.62 5.27-4.983 8.565-1.11-.981-2.08-2.238-3.08-2.87" fill="#FFF"/>
      <path d="M112.704 103.874s5.677-3.704 4.11-9.044c.842.586 3.108 2.397 3.953 3.349.086 1.062.62 5.27-4.983 8.565-1.11-.981-2.08-2.238-3.08-2.87z" stroke="#52267D"/>
      <path d="M94.671 92.034s-.08-.971.854-1.434c.285-.141.805-.403.805-.403s.672 1.169.046 1.527c-.902.517-1.705.31-1.705.31M99.646 90.245s-.077-1.306 1.374-1.613c.27-.058.985-.098.985-.098s.44 1.353-.323 1.547c-.936.239-2.036.164-2.036.164M105.102 90.43s.08-1.522 1.465-1.217c.59.132.947.544.947.544s-.178 1.166-.725 1.081c-.957-.148-1.687-.408-1.687-.408M104.465 101.627l-5.428.436a4.967 4.967 0 0 1 4.553-5.348l.478-.038a2.482 2.482 0 1 1 .397 4.95" fill="#F3E3FF"/>
      <path d="M104 101.57l-4.877.392a3.902 3.902 0 0 1 3.576-4.202l.99-.079a1.95 1.95 0 0 1 2.1 1.788A1.95 1.95 0 0 1 104 101.57" fill="#FFF"/>
      <path d="M104 101.57l-4.877.392a3.902 3.902 0 0 1 3.576-4.202l.99-.079a1.95 1.95 0 0 1 2.1 1.788A1.95 1.95 0 0 1 104 101.57z" stroke="#52267D"/>
      <path d="M99.841 99.832a1.089 1.089 0 1 0 2.172-.174 1.089 1.089 0 1 0-2.172.174M92.095 103.61c.304-.092.565-.286.742-.549l.327-.486-.797.238-.468.141a.343.343 0 0 0-.23.426c.055.18.245.283.426.23" fill="#52267D"/>
      <path d="M113.714 103.9s4.376-2.829 3.907-7.784c2.08 1.274 2.687 2.156 2.687 2.156s-.153 2.39-1.157 3.67c-1.54 1.964-3.255 2.668-5.437 1.958" fill="#E1F2FF"/>
      <path d="M117.974 102.681s-1.655 1.98-3.344 3" fill="#FFF"/>
      <path d="M117.974 102.681s-1.655 1.98-3.344 3" stroke="#52267D"/>
      <path d="M137.456 120.526l-1.18-1.928c-4.556-9.046-5.584-14.49-4.328-23.573l.737-5.322c.241-1.745.292-3.513.151-5.27-.47-5.855-5.6-10.22-11.455-9.75l-1.712.137c-5.775.464-10.08 5.522-9.617 11.298l.024.3a2.496 2.496 0 0 0 2.688 2.288l10.838-.87-.885 9.553c-3.002 25.654-1.675 35.85 8.054 32.95" fill="#9452BA"/>
      <path d="M137.456 120.526l-1.18-1.928c-4.556-9.046-5.584-14.49-4.328-23.573l.737-5.322c.241-1.745.292-3.513.151-5.27-.47-5.855-5.6-10.22-11.455-9.75l-1.712.137c-5.775.464-10.08 5.522-9.617 11.298l.024.3a2.496 2.496 0 0 0 2.688 2.288l10.838-.87-.885 9.553c-3.002 25.654-1.675 35.85 8.054 32.95" stroke="#52267D" stroke-width="2"/>
      <path d="M114.538 76.495s.026-1.852 1.794-2.73c.54-.266 1.431-.1 1.431-.1s1.188 1.565.001 2.244c-1.706.978-3.225.586-3.225.586" fill="#FFF"/>
      <path d="M114.538 76.495s.026-1.852 1.794-2.73c.54-.266 1.431-.1 1.431-.1s1.188 1.565.001 2.244c-1.706.978-3.225.586-3.225.586z" stroke="#52267D"/>
      <path d="M118.837 75.54s-.172-2.9 3.051-3.583c.6-.128 1.386-.131 1.386-.131s1.78 2.918.086 3.35c-2.082.532-4.523.364-4.523.364" fill="#FFF"/>
      <path d="M118.837 75.54s-.172-2.9 3.051-3.583c.6-.128 1.386-.131 1.386-.131s1.78 2.918.086 3.35c-2.082.532-4.523.364-4.523.364z" stroke="#52267D"/>
      <path d="M124.717 75.73s.22-2.803 2.76-2.175a3.496 3.496 0 0 1 1.722 1.047s-.38 2.147-1.388 1.962c-1.759-.32-3.094-.834-3.094-.834" fill="#FFF"/>
      <path d="M124.717 75.73s.22-2.803 2.76-2.175a3.496 3.496 0 0 1 1.722 1.047s-.38 2.147-1.388 1.962c-1.759-.32-3.094-.834-3.094-.834z" stroke="#52267D"/>
      <path d="M118.7 126.07a4.932 4.932 0 0 1 1.712-1" fill="#F3E3FF"/>
      <path d="M118.7 126.07a4.932 4.932 0 0 1 1.712-1" stroke="#52267D"/>
      <path d="M122.284 125.725c-2.35-7.057-.26-21.077.056-24.512l1.236-13.759 1.02-.08c1.292-.105 2.383 1.221 2.302 2.517l-.74 11.907c-.25 4.032.639 22.535 7.883 25.944 1.546.726 3.903-.02 4.773-.526 3.166-1.837 3.782-6.017 4.239-9.384.942-6.967-.653-12.25-1.415-17.59l-.886-6.688c-.16-1.209.702-2.575 1.915-2.673l1.237-.098 3.319 13.392c.98 3.812 3.784 17.074-3.61 23.991-.133.126 1.968.421 1.454 1.527-2.038 4.39-8.866 5.606-10.018 7.508-4.435 7.323 1.424 21.696 1.424 21.696s-5.716-1.766-9.394-4.565c-8.6-6.545-10.453-16.876-10.736-19.937-.34-3.664.44-6.016 1.517-7.469" fill="#F3E3FF"/>
      <path d="M122.284 125.725c-2.35-7.057-.26-21.077.056-24.512l1.236-13.759 1.02-.08c1.292-.105 2.383 1.221 2.302 2.517l-.74 11.907c-.25 4.032.639 22.535 7.883 25.944 1.546.726 3.903-.02 4.773-.526 3.166-1.837 3.782-6.017 4.239-9.384.942-6.967-.653-12.25-1.415-17.59l-.886-6.688c-.16-1.209.702-2.575 1.915-2.673l1.237-.098 3.319 13.392c.98 3.812 3.784 17.074-3.61 23.991-.133.126 1.968.421 1.454 1.527-2.038 4.39-8.866 5.606-10.018 7.508-4.435 7.323 1.424 21.696 1.424 21.696s-5.716-1.766-9.394-4.565c-8.6-6.545-10.453-16.876-10.736-19.937-.34-3.664.44-6.016 1.517-7.469" stroke="#52267D"/>
      <path d="M187.87 126.499s1.038-1.354.262-2.996c-.238-.502-.977-.89-.977-.89s-1.751.452-1.281 1.62c.675 1.682 1.996 2.266 1.996 2.266" fill="#FFF"/>
      <path d="M187.87 126.499s1.038-1.354.262-2.996c-.238-.502-.977-.89-.977-.89s-1.751.452-1.281 1.62c.675 1.682 1.996 2.266 1.996 2.266z" stroke="#52267D"/>
      <path d="M187.353 124.776s.364-.476.092-1.052c-.083-.176-.343-.31-.343-.31s-.614.157-.45.567c.237.59.7.795.7.795" fill="#F3E3FF"/>
      <path d="M179.267 136.288s-1.281-2.382 1.174-4.221c.457-.343 1.119-.653 1.119-.653s2.645 1.769 1.385 2.796c-1.55 1.264-3.678 2.078-3.678 2.078" fill="#FFF"/>
      <path d="M179.267 136.288s-1.281-2.382 1.174-4.221c.457-.343 1.119-.653 1.119-.653s2.645 1.769 1.385 2.796c-1.55 1.264-3.678 2.078-3.678 2.078z" stroke="#52267D"/>
      <path d="M180.093 135.287s-.71-1.321.65-2.341c.254-.19.621-.362.621-.362s1.468.98.768 1.55c-.859.7-2.039 1.153-2.039 1.153" fill="#F3E3FF"/>
      <path d="M186.51 127.567s2.006 1.496.326 3.112c-.717.69-1.606.8-1.606.8s-1.435-1.306-.819-1.977a17.116 17.116 0 0 1 2.098-1.935" fill="#FFF"/>
      <path d="M186.51 127.567s2.006 1.496.326 3.112c-.717.69-1.606.8-1.606.8s-1.435-1.306-.819-1.977a17.116 17.116 0 0 1 2.098-1.935z" stroke="#52267D"/>
      <path d="M186.33 128.757s.89.662.145 1.378c-.318.306-.71.354-.71.354s-.637-.58-.365-.876a7.58 7.58 0 0 1 .93-.856" fill="#F3E3FF"/>
      <path d="M170.378 138.308s-.795-2.147 1.554-3.215c2.348-1.066 3.056-.392 3.056-.392s1.52 2.144.382 2.964c-1.138.822-4.992.643-4.992.643" fill="#FFF"/>
      <path d="M170.378 138.308s-.795-2.147 1.554-3.215c2.348-1.066 3.056-.392 3.056-.392s1.52 2.144.382 2.964c-1.138.822-4.992.643-4.992.643z" stroke="#52267D"/>
      <path d="M171.473 137.719s-.413-1.117.809-1.672c1.22-.555 1.588-.205 1.588-.205s.791 1.115.2 1.543c-.592.427-2.597.334-2.597.334" fill="#F3E3FF"/>
      <path d="M123.314 90.807s4.036 1.872 9.306-.534c-.238 1.714-.725 5.158-.725 5.158s-4.904 1.946-8.98-.183c.219-2.265.399-4.44.399-4.44" fill="#FFF"/>
      <path d="M123.314 90.807s4.036 1.872 9.306-.534c-.238 1.714-.725 5.158-.725 5.158s-4.904 1.946-8.98-.183c.219-2.265.399-4.44.399-4.44z" stroke="#52267D"/>
      <path d="M151.411 78.677s-.323-1.837-2.222-2.425c-.58-.18-2.1-.12-2.1-.12s-.27 1.997 1.02 2.482c1.855.697 3.302.063 3.302.063" fill="#FFF"/>
      <path d="M151.411 78.677s-.323-1.837-2.222-2.425c-.58-.18-2.1-.12-2.1-.12s-.27 1.997 1.02 2.482c1.855.697 3.302.063 3.302.063z" stroke="#52267D"/>
      <path d="M146.668 78.106s-.256-2.519-3.123-2.658c-.535-.027-1.21.08-1.21.08s-1.126 2.76.391 2.894c1.865.168 3.942-.316 3.942-.316" fill="#FFF"/>
      <path d="M146.668 78.106s-.256-2.519-3.123-2.658c-.535-.027-1.21.08-1.21.08s-1.126 2.76.391 2.894c1.865.168 3.942-.316 3.942-.316z" stroke="#52267D"/>
      <path d="M141.306 78.722s-.669-2.752-3.095-1.72a3.523 3.523 0 0 0-1.545 1.32s.725 2.072 1.697 1.727c1.698-.602 2.943-1.328 2.943-1.328" fill="#FFF"/>
      <path d="M141.306 78.722s-.669-2.752-3.095-1.72a3.523 3.523 0 0 0-1.545 1.32s.725 2.072 1.697 1.727c1.698-.602 2.943-1.328 2.943-1.328z" stroke="#52267D"/>
      <path d="M115.457 75.954s.014-.99.958-1.458c.288-.143.765-.054.765-.054s.633.836.001 1.199c-.912.522-1.724.313-1.724.313M119.87 74.968s-.108-1.818 1.912-2.247a5.13 5.13 0 0 1 .87-.082s1.115 1.83.053 2.1c-1.305.333-2.834.229-2.834.229M125.769 75.365s.127-1.616 1.593-1.255c.627.155.995.605.995.605s-.221 1.238-.802 1.132c-1.015-.185-1.786-.482-1.786-.482M150.46 78.277s-.172-.972-1.176-1.282c-.305-.095-1.109-.063-1.109-.063s-.143 1.055.54 1.311c.98.37 1.745.034 1.745.034M145.53 77.75s-.14-1.393-1.726-1.47c-.295-.014-.67.045-.67.045s-.621 1.525.218 1.6c1.032.093 2.179-.175 2.179-.175M140.3 78.611s-.367-1.505-1.694-.94c-.568.242-.846.721-.846.721s.396 1.134.93.946c.927-.33 1.61-.727 1.61-.727" fill="#F3E3FF"/>
      <path d="M135.235 94.66s4.84.362 9.298-1.12c.64 2.436 1.076 4.279 1.076 4.279s-2.981 2.395-8.907 1.62c-.943-3.117-1.467-4.778-1.467-4.778" fill="#FFF"/>
      <path d="M135.235 94.66s4.84.362 9.298-1.12c.64 2.436 1.076 4.279 1.076 4.279s-2.981 2.395-8.907 1.62c-.943-3.117-1.467-4.778-1.467-4.778z" stroke="#52267D"/>
      <path d="M142.756 89.223l5.428-.436a4.965 4.965 0 0 0-5.348-4.552l-.477.038a2.484 2.484 0 0 0 .397 4.95" fill="#F3E3FF"/>
      <path d="M143.343 89.083l4.74-.381a3.9 3.9 0 0 0-4.2-3.576l-1.127.09a1.813 1.813 0 0 0-1.662 1.952 2.089 2.089 0 0 0 2.25 1.915" fill="#FFF"/>
      <path d="M143.343 89.083l4.74-.381a3.9 3.9 0 0 0-4.2-3.576l-1.127.09a1.813 1.813 0 0 0-1.662 1.952 2.089 2.089 0 0 0 2.25 1.915z" stroke="#52267D"/>
      <path d="M145.266 88.013a1.089 1.089 0 1 1 1.492.385 1.09 1.09 0 0 1-1.492-.385" fill="#52267D"/>
      <path d="M123.597 86.04l-5.428.436a4.967 4.967 0 0 1 4.553-5.348l.478-.038a2.484 2.484 0 0 1 .397 4.95" fill="#F3E3FF"/>
      <path d="M123.132 85.983l-4.877.392a3.902 3.902 0 0 1 3.576-4.202l.99-.079a1.95 1.95 0 1 1 .311 3.89" fill="#FFF"/>
      <path d="M123.132 85.983l-4.877.392a3.902 3.902 0 0 1 3.576-4.202l.99-.079a1.95 1.95 0 1 1 .311 3.89z" stroke="#52267D"/>
      <path d="M119.54 85.155a1.09 1.09 0 1 0 1.255-1.782 1.09 1.09 0 0 0-1.256 1.782M154.815 89.391a1.36 1.36 0 0 1-.82-.422l-.401-.429.825.11.485.063a.344.344 0 0 1 .295.384.343.343 0 0 1-.384.294M112.535 87.676c.305-.091.566-.284.743-.547l.326-.487-.796.239-.469.14a.342.342 0 0 0 .196.654" fill="#52267D"/>
      <path d="M123.833 91.474s4.185 1.4 8.138-.504c-.236 2.428-.519 3.681-.519 3.681s-2.443.341-4.095.151c-2.358-.27-3.357-1.252-3.524-3.328" fill="#E1F2FF"/>
      <path d="M129.708 94.092s-3.656.603-6.625-.646" fill="#FFF"/>
      <path d="M129.708 94.092s-3.656.603-6.625-.646" stroke="#52267D"/>
      <path d="M142.854 94.592s-3.506 1.309-6.723.93c.787 2.308 1.163 3.022 1.163 3.022s4.699-1.014 5.56-3.952" fill="#E1F2FF"/>
      <path d="M143.618 128.218s-.204.174-.497.384" fill="#F3E3FF"/>
      <path d="M143.618 128.218s-.204.174-.497.384" stroke="#52267D" stroke-width=".5"/>
      <path d="M143.31 95.92s-3.558.976-7.43.826" fill="#FFF"/>
      <path d="M143.31 95.92s-3.558.976-7.43.826" stroke="#52267D"/>
      <path d="M143.36 170.707s-1.02-.703-2.21.445c-1.086 1.049-1.843 2.596-1.31 2.702a5.548 5.548 0 0 0 2.414-.077c.826-.22 1.58-.12 1.776-1.901.09-.83-.67-1.17-.67-1.17" fill="#FFF"/>
      <path d="M143.36 170.707s-1.02-.703-2.21.445c-1.086 1.049-1.843 2.596-1.31 2.702a5.548 5.548 0 0 0 2.414-.077c.826-.22 1.58-.12 1.776-1.901.09-.83-.67-1.17-.67-1.17z" stroke="#52267D" stroke-width=".5"/>
      <path d="M143.165 171.01s-.636-.438-1.376.276c-.676.653-1.146 1.616-.814 1.682.332.066.91.11 1.501-.048.514-.138.983-.074 1.105-1.182.057-.517-.416-.728-.416-.728" fill="#E1F2FF"/>
      <path d="M144.72 170.58c.5-.107 1.316.933 1.26 1.274-.056.343-.025 1.455-.834 1.64-.597.138-2.73.534-3.239.105-.467-.397.22-2.456 2.812-3.018" fill="#FFF"/>
      <path d="M144.72 170.58c.5-.107 1.316.933 1.26 1.274-.056.343-.025 1.455-.834 1.64-.597.138-2.73.534-3.239.105-.467-.397.22-2.456 2.812-3.018z" stroke="#52267D" stroke-width=".5"/>
      <path d="M144.885 170.874c.296-.064.777.55.744.752-.033.202-.015.857-.492.968-.352.08-1.61.314-1.91.06-.277-.233.13-1.45 1.658-1.78" fill="#E1F2FF"/>
      <path d="M146.877 170.622s-.455-.192-1.28.372c-.73.499-1.817 1.29-1.447 2.136.372.845 2.762.327 3.285.1.522-.227.812-.838.675-1.343-.296-1.1-1.233-1.265-1.233-1.265" fill="#FFF"/>
      <path d="M146.877 170.622s-.455-.192-1.28.372c-.73.499-1.817 1.29-1.447 2.136.372.845 2.762.327 3.285.1.522-.227.812-.838.675-1.343-.296-1.1-1.233-1.265-1.233-1.265z" stroke="#52267D" stroke-width=".5"/>
      <path d="M147.067 170.917s-.27-.114-.76.22c-.431.296-1.074.764-.854 1.264.218.5 1.635.195 1.944.06.309-.134.48-.496.4-.795-.175-.651-.73-.75-.73-.75" fill="#E1F2FF"/>
      <path d="M134.544 143.71s.942 5.56.227 14.477c-.667 8.299-2.81 11.058-2.467 13.169.265 1.634 1.081 3.085 2.731 2.953l4.925-.396a5.365 5.365 0 0 0 4.773-4.053c.455-1.8.882-4.236 1.01-7.282.05-4.134-.363-8.242-.625-10.653" fill="#9452BA"/>
      <path d="M134.544 143.71s.942 5.56.227 14.477c-.667 8.299-2.81 11.058-2.467 13.169.265 1.634 1.081 3.085 2.731 2.953l4.925-.396a5.365 5.365 0 0 0 4.773-4.053c.455-1.8.882-4.236 1.01-7.282.05-4.134-.363-8.242-.625-10.653" stroke="#52267D" stroke-width="2"/>
      <path d="M160.093 145.387c-1.519 1.534-2.18 3.9-1.997 6.014.244 2.819 2.168 6.278 1.508 11.049-.589 4.25-2.369 5.134-1.514 8.836.154.668.8 1.106 1.484 1.05l5.488-.44a5.19 5.19 0 0 0 4.754-4.733c.568-6.743-.779-12.956-2.053-17.704" fill="#9452BA"/>
      <path d="M160.093 145.387c-1.519 1.534-2.18 3.9-1.997 6.014.244 2.819 2.168 6.278 1.508 11.049-.589 4.25-2.369 5.134-1.514 8.836.154.668.8 1.106 1.484 1.05l5.488-.44a5.19 5.19 0 0 0 4.754-4.733c.568-6.743-.779-12.956-2.053-17.704" stroke="#52267D" stroke-width="2"/>
      <path stroke="#52267D" stroke-width=".5" d="M161.67 151.515l.304-.258 1.062.151-1.099.833-1.45-.576 1.356-1.274.677.168"/>
      <path d="M133.399 171.508s-1.021-.704-2.211.444c-1.086 1.049-1.843 2.597-1.31 2.703a5.564 5.564 0 0 0 2.414-.077c.826-.221 1.58-.12 1.776-1.901.09-.83-.67-1.17-.67-1.17" fill="#FFF"/>
      <path d="M133.399 171.508s-1.021-.704-2.211.444c-1.086 1.049-1.843 2.597-1.31 2.703a5.564 5.564 0 0 0 2.414-.077c.826-.221 1.58-.12 1.776-1.901.09-.83-.67-1.17-.67-1.17z" stroke="#52267D"/>
      <path d="M133.203 171.81s-.636-.438-1.376.276c-.675.653-1.145 1.616-.814 1.682.332.066.91.11 1.501-.048.514-.138.983-.074 1.105-1.183.058-.517-.416-.728-.416-.728" fill="#E1F2FF"/>
      <path stroke="#52267D" stroke-width=".5" d="M139.765 156.39l-1.912.77.405 1.796 2.022-.015.848-1.156-1.257-.572-.972.37.689.652"/>
      <g stroke="#F3E3FF" stroke-width=".25">
        <path d="M92.923 99.928a.535.535 0 1 0 1.068-.085M91.855 100.014a.535.535 0 1 0 1.068-.085M92.432 100.506a.535.535 0 1 0 1.068-.086M113.347 97.784c.388.2.864.048 1.063-.34a.788.788 0 0 0-.339-1.063M113.688 98.847a.788.788 0 1 0 .723-1.403M140.134 113.69a.72.72 0 0 0 1.433-.115M138.702 113.805a.718.718 0 0 0 1.433-.115M139.476 114.464a.72.72 0 0 0 1.433-.114M122.385 160.794a.719.719 0 0 0 1.433-.114M120.953 160.909a.72.72 0 0 0 1.433-.115M121.727 161.568a.718.718 0 1 0 1.433-.115M137.19 90.948a.79.79 0 0 0 1.574-.126M136.466 91.799a.79.79 0 1 0 1.574-.127M128.245 105.658a.96.96 0 0 0 1.913-.153M127.367 106.692a.96.96 0 0 0 1.912-.154M112.442 82.994a.642.642 0 1 0 1.28-.103M111.854 83.685a.642.642 0 1 0 1.279-.103M177.834 142.654a.74.74 0 0 0 1.047-1.043M177.831 143.699a.74.74 0 0 0 1.048-1.043M147.743 134.838a.868.868 0 0 0 1.515-.844M146.228 135.68a.868.868 0 0 0 1.515-.843M147.408 136.016a.868.868 0 0 0 1.515-.844M145.893 136.86a.867.867 0 0 0 1.515-.844M148.586 136.352a.867.867 0 0 0 1.515-.844M128.852 88.184a.876.876 0 0 0 1.744-.14M131.197 121.155a.876.876 0 0 0 1.744-.141M139.618 102.2a.662.662 0 0 0 1.321-.106M154.141 85.928a.496.496 0 1 0 .991-.08M164.118 158.463a.875.875 0 0 0 1.695-.437M140.551 166.82a.96.96 0 0 0 1.912-.154M139.671 167.852a.96.96 0 0 0 1.913-.153"/>
      </g>
      <path d="M134.757 171.38c.501-.107 1.317.934 1.262 1.275-.057.342-.026 1.454-.835 1.64-.597.137-2.73.534-3.239.105-.467-.397.22-2.457 2.812-3.02" fill="#FFF"/>
      <path d="M134.757 171.38c.501-.107 1.317.934 1.262 1.275-.057.342-.026 1.454-.835 1.64-.597.137-2.73.534-3.239.105-.467-.397.22-2.457 2.812-3.02z" stroke="#52267D"/>
      <path d="M134.923 171.675c.296-.064.777.55.744.752-.033.2-.015.857-.492.967-.352.08-1.61.315-1.91.06-.277-.232.13-1.448 1.658-1.78" fill="#E1F2FF"/>
      <path d="M136.599 171.777s-.403-.17-1.134.33c-.645.441-1.605 1.14-1.277 1.888.327.747 2.441.29 2.903.09.462-.203.719-.744.599-1.19-.263-.972-1.091-1.118-1.091-1.118" fill="#FFF"/>
      <path d="M136.599 171.777s-.403-.17-1.134.33c-.645.441-1.605 1.14-1.277 1.888.327.747 2.441.29 2.903.09.462-.203.719-.744.599-1.19-.263-.972-1.091-1.118-1.091-1.118z" stroke="#52267D"/>
      <path d="M136.766 172.038s-.238-.101-.671.195c-.383.26-.951.675-.757 1.118.194.443 1.446.17 1.719.052a.622.622 0 0 0 .355-.703c-.156-.576-.646-.662-.646-.662" fill="#E1F2FF"/>
      <path d="M116.403 173.614s-.403-.17-1.134.33c-.645.441-1.605 1.14-1.277 1.888.327.747 2.44.29 2.903.09.462-.203.719-.744.599-1.19-.263-.972-1.091-1.118-1.091-1.118" fill="#FFF"/>
      <path d="M116.403 173.614s-.403-.17-1.134.33c-.645.441-1.605 1.14-1.277 1.888.327.747 2.44.29 2.903.09.462-.203.719-.744.599-1.19-.263-.972-1.091-1.118-1.091-1.118z" stroke="#52267D"/>
      <path d="M116.57 173.875s-.238-.101-.671.195c-.383.26-.951.676-.757 1.118.194.443 1.446.17 1.719.053a.624.624 0 0 0 .355-.704c-.156-.576-.646-.662-.646-.662" fill="#E1F2FF"/>
      <path d="M118.697 172.886c.5-.108 1.318.933 1.262 1.274-.057.342-.026 1.454-.834 1.64-.597.137-2.732.534-3.24.105-.467-.397.22-2.457 2.812-3.02" fill="#FFF"/>
      <path d="M118.697 172.886c.5-.108 1.318.933 1.262 1.274-.057.342-.026 1.454-.834 1.64-.597.137-2.732.534-3.24.105-.467-.397.22-2.457 2.812-3.02z" stroke="#52267D"/>
      <path d="M118.864 173.18c.295-.065.777.55.744.751-.033.201-.015.857-.492.968-.353.08-1.611.315-1.911.06-.277-.233.13-1.448 1.659-1.78" fill="#E1F2FF"/>
      <path d="M160.042 169.367s-1.02-.704-2.21.444c-1.087 1.049-1.844 2.596-1.31 2.703a5.56 5.56 0 0 0 2.413-.077c.826-.221 1.581-.119 1.776-1.901.091-.83-.669-1.169-.669-1.169" fill="#FFF"/>
      <path d="M160.042 169.367s-1.02-.704-2.21.444c-1.087 1.049-1.844 2.596-1.31 2.703a5.56 5.56 0 0 0 2.413-.077c.826-.221 1.581-.119 1.776-1.901.091-.83-.669-1.169-.669-1.169z" stroke="#52267D" stroke-width=".5"/>
      <path d="M159.847 169.669s-.636-.437-1.376.277c-.676.653-1.146 1.616-.814 1.682.332.066.91.11 1.501-.048.514-.138.983-.074 1.105-1.183.057-.517-.416-.728-.416-.728" fill="#E1F2FF"/>
      <path d="M161.4 169.24c.502-.108 1.318.933 1.263 1.274-.057.342-.026 1.454-.834 1.64-.597.137-2.732.534-3.24.105-.467-.397.22-2.457 2.812-3.019" fill="#FFF"/>
      <path d="M161.4 169.24c.502-.108 1.318.933 1.263 1.274-.057.342-.026 1.454-.834 1.64-.597.137-2.732.534-3.24.105-.467-.397.22-2.457 2.812-3.019z" stroke="#52267D" stroke-width=".5"/>
      <path d="M161.567 169.534c.296-.064.778.55.745.752-.033.201-.016.857-.493.967-.352.081-1.611.315-1.91.061-.277-.233.13-1.449 1.658-1.78" fill="#E1F2FF"/>
      <path d="M163.243 169.637s-.403-.172-1.134.328c-.644.442-1.604 1.142-1.277 1.89.327.746 2.44.288 2.903.089.462-.202.719-.743.599-1.19-.263-.971-1.091-1.117-1.091-1.117" fill="#FFF"/>
      <path d="M163.243 169.637s-.403-.172-1.134.328c-.644.442-1.604 1.142-1.277 1.89.327.746 2.44.288 2.903.089.462-.202.719-.743.599-1.19-.263-.971-1.091-1.117-1.091-1.117z" stroke="#52267D" stroke-width=".5"/>
      <path d="M163.41 169.897s-.238-.1-.672.195c-.381.261-.95.675-.756 1.118.195.443 1.447.171 1.72.052.273-.118.425-.438.353-.703-.155-.576-.645-.662-.645-.662" fill="#E1F2FF"/>
      <path d="M125.383 172.825c.147-.146.333-.199.495-.138.604.228 2.136.89 1.917 1.969-.17.841-.692.635-1.65.73l-.724.071a.416.416 0 0 1-.382-.183c-.472-.663-.335-1.775.297-2.402l.047-.047z" fill="#FFF"/>
      <path d="M125.383 172.825c.147-.146.333-.199.495-.138.604.228 2.136.89 1.917 1.969-.17.841-.692.635-1.65.73l-.724.071a.416.416 0 0 1-.382-.183c-.472-.663-.335-1.775.297-2.402l.047-.047z" stroke="#52267D"/>
      <path d="M125.477 173.055c.106-.106.242-.144.36-.1.439.165 1.55.646 1.393 1.431-.124.61-.504.46-1.2.53l-.526.052a.298.298 0 0 1-.277-.133c-.344-.482-.243-1.29.216-1.746l.034-.034z" fill="#E1F2FF"/>
      <path d="M121.96 172.783s-.959-.788-2.24.255c-1.173.953-2.059 2.431-1.536 2.582a5.564 5.564 0 0 0 2.411.128c.842-.151 1.585.015 1.93-1.743.162-.82-.566-1.222-.566-1.222" fill="#FFF"/>
      <path d="M121.96 172.783s-.959-.788-2.24.255c-1.173.953-2.059 2.431-1.536 2.582a5.564 5.564 0 0 0 2.411.128c.842-.151 1.585.015 1.93-1.743.162-.82-.566-1.222-.566-1.222z" stroke="#52267D"/>
      <path d="M121.739 173.067s-.596-.49-1.395.16c-.728.592-1.28 1.511-.954 1.606.326.093.898.187 1.5.08.524-.094.987.01 1.202-1.085.1-.51-.353-.76-.353-.76" fill="#E1F2FF"/>
      <path d="M176.57 130.03l-52.134-6.636a2.255 2.255 0 0 1-1.952-2.52l5.69-44.71a2.254 2.254 0 0 1 2.522-1.95l52.135 6.634a2.256 2.256 0 0 1 1.952 2.522l-5.692 44.708a2.255 2.255 0 0 1-2.521 1.952" fill="#FFF"/>
      <path d="M176.57 130.03l-52.134-6.636a2.255 2.255 0 0 1-1.952-2.52l5.69-44.71a2.254 2.254 0 0 1 2.522-1.95l52.135 6.634a2.256 2.256 0 0 1 1.952 2.522l-5.692 44.708a2.255 2.255 0 0 1-2.521 1.952z" stroke="#ACD3EF" stroke-width="2"/>
      <path d="M172.961 117.902l-41.987-5.345a2.253 2.253 0 0 1-1.952-2.52l3.391-26.648a2.255 2.255 0 0 1 2.522-1.952l41.988 5.345a2.255 2.255 0 0 1 1.952 2.521l-3.393 26.647a2.255 2.255 0 0 1-2.52 1.952" fill="#E1F2FF"/>
      <path d="M172.961 117.902l-41.987-5.345a2.253 2.253 0 0 1-1.952-2.52l3.391-26.648a2.255 2.255 0 0 1 2.522-1.952l41.988 5.345a2.255 2.255 0 0 1 1.952 2.521l-3.393 26.647a2.255 2.255 0 0 1-2.52 1.952z" stroke="#ACD3EF" stroke-width="2"/>
      <path d="M129.41 106.985c.036-.282 6.3-4.312 9.681-6.469a2.979 2.979 0 0 1 3.797.5l5.518 5.995a.866.866 0 0 0 1.14.118l11.273-8.083a2.986 2.986 0 0 1 3.714.185l11.76 10.358-.736 5.74a2.437 2.437 0 0 1-2.736 2.11l-42.326-5.565a1.908 1.908 0 0 1-1.62-2.274l.535-2.615z" fill="#ACD3EF"/>
      <path d="M173.062 93.415a3.202 3.202 0 1 1-6.35-.836 3.202 3.202 0 0 1 6.35.836" fill="#FFF"/>
      <path d="M173.062 93.415a3.202 3.202 0 1 1-6.35-.836 3.202 3.202 0 0 1 6.35.836z" stroke="#ACD3EF" stroke-width="2"/>
      <mask id="b" fill="#fff">
        <use xlink:href="#a"/>
      </mask>
      <path fill="#FFF" mask="url(#b)" d="M103.15 200.829h87.404v-94.163H103.15z"/>
      <path stroke="#5E63B6" stroke-width="2" mask="url(#b)" d="M103.15 200.829h87.404v-94.163H103.15z"/>
      <path fill="#E1F2FF" mask="url(#b)" d="M189.515 160.829l-86.447-39.738.081-14.425h86.366z"/>
      <path fill="#FFF" mask="url(#b)" d="M59.365 200.925h43.703v-94.163H59.365z"/>
      <path stroke="#5E63B6" stroke-width="2" mask="url(#b)" d="M59.365 200.925h43.703v-94.163H59.365z"/>
      <path fill="#E1F2FF" mask="url(#b)" d="M60.347 140.295l41.776-19.204-.081-14.425H59.365z"/>
      <path fill="#FFF" mask="url(#b)" d="M103.068 106.761H59.365L35.419 135.42H79.12z"/>
      <path stroke="#5E63B6" stroke-width="2" mask="url(#b)" d="M103.068 106.761H59.365L35.419 135.42H79.12z"/>
      <path fill="#FFF" mask="url(#b)" d="M103.068 106.761h87.404l23.947 28.659h-87.405z"/>
      <path stroke="#5E63B6" stroke-width="2" mask="url(#b)" d="M103.068 106.761h87.404l23.947 28.659h-87.405z"/>
      <path d="M208.253 47.387v7M211.753 50.887h-7M52.12 36.897v7M55.62 40.397h-7" stroke="#5E63B6" stroke-width="2" stroke-linecap="round" stroke-linejoin="round" mask="url(#b)"/>
      <path d="M172.796 1.312V5.25M174.765 3.281h-3.938M20.409 160.187v3.938M22.377 162.156H18.44" stroke="#5E63B6" stroke-linecap="round" mask="url(#b)"/>
      <path d="M70.046 161.985h20.221M70.046 169.25h20.221M70.046 176.516h20.221" stroke="#ACD3EF" stroke-width="2" stroke-linecap="round" mask="url(#b)"/>
      <path d="M201.515 130.216H181.13M59.215 130.216H45.83M185.015 196.781v-14.25" stroke="#E1F2FF" stroke-width="2" stroke-linecap="round" mask="url(#b)"/>
    </g>
    <path d="M132.325 167.086l-1.584-4.329a9.474 9.474 0 0 1-.243-.684 22.28 22.28 0 0 1-.252-.855 16.22 16.22 0 0 1-.243.86c-.084.267-.165.499-.243.697l-1.575 4.311h4.14zM136.6 172h-1.872a.8.8 0 0 1-.513-.157.98.98 0 0 1-.297-.392l-.972-2.655h-5.391l-.972 2.655a.863.863 0 0 1-.279.378.779.779 0 0 1-.513.171h-1.89l5.121-13.014h2.466L136.6 172zm8.28-10.647a.836.836 0 0 1-.23.274.51.51 0 0 1-.301.086.777.777 0 0 1-.41-.14 11.402 11.402 0 0 0-.526-.31 4.336 4.336 0 0 0-.716-.31 3.007 3.007 0 0 0-.967-.14c-.336 0-.63.04-.882.122a1.852 1.852 0 0 0-.635.337 1.349 1.349 0 0 0-.382.518 1.699 1.699 0 0 0-.126.661c0 .306.085.561.256.765.172.204.398.378.68.522.282.144.603.273.963.387.36.114.729.235 1.107.364.378.13.747.28 1.107.45.36.172.681.387.963.649.282.26.508.58.68.958.17.378.256.837.256 1.377 0 .588-.1 1.138-.302 1.651a3.81 3.81 0 0 1-.881 1.341c-.388.382-.86.681-1.418.9-.558.22-1.197.329-1.917.329-.414 0-.822-.04-1.224-.121a6.443 6.443 0 0 1-1.156-.347 6.195 6.195 0 0 1-1.04-.54 5.012 5.012 0 0 1-.864-.702l.711-1.161a.759.759 0 0 1 .234-.212.59.59 0 0 1 .306-.085c.15 0 .312.061.486.185.174.123.381.259.621.409.24.15.52.286.841.41.322.123.707.184 1.157.184.69 0 1.224-.163 1.602-.49.378-.328.567-.797.567-1.409 0-.342-.085-.621-.256-.837a2.07 2.07 0 0 0-.68-.544 5.073 5.073 0 0 0-.963-.374c-.36-.102-.726-.213-1.098-.333a9.468 9.468 0 0 1-1.098-.432 3.557 3.557 0 0 1-.963-.657 2.99 2.99 0 0 1-.68-1.012c-.17-.406-.256-.905-.256-1.499 0-.474.094-.936.284-1.386.189-.45.463-.849.823-1.197.36-.348.804-.627 1.332-.837.528-.21 1.134-.315 1.818-.315.768 0 1.476.12 2.124.36.648.24 1.2.576 1.656 1.008l-.603 1.143zm9.873 0a.836.836 0 0 1-.23.274.51.51 0 0 1-.301.086.777.777 0 0 1-.41-.14 11.402 11.402 0 0 0-.526-.31 4.336 4.336 0 0 0-.715-.31 3.007 3.007 0 0 0-.968-.14c-.336 0-.63.04-.882.122a1.852 1.852 0 0 0-.635.337 1.349 1.349 0 0 0-.382.518 1.699 1.699 0 0 0-.126.661c0 .306.085.561.256.765.172.204.398.378.68.522.282.144.603.273.963.387.36.114.729.235 1.107.364.378.13.747.28 1.107.45.36.172.681.387.963.649.282.26.508.58.68.958.17.378.256.837.256 1.377 0 .588-.1 1.138-.302 1.651a3.81 3.81 0 0 1-.882 1.341c-.387.382-.859.681-1.417.9-.558.22-1.197.329-1.917.329-.414 0-.822-.04-1.224-.121a6.443 6.443 0 0 1-1.157-.347 6.195 6.195 0 0 1-1.039-.54 5.012 5.012 0 0 1-.864-.702l.711-1.161a.759.759 0 0 1 .234-.212.59.59 0 0 1 .306-.085c.15 0 .312.061.486.185.174.123.381.259.621.409.24.15.52.286.842.41.32.123.706.184 1.156.184.69 0 1.224-.163 1.602-.49.378-.328.567-.797.567-1.409 0-.342-.085-.621-.256-.837a2.07 2.07 0 0 0-.68-.544 5.073 5.073 0 0 0-.963-.374c-.36-.102-.726-.213-1.098-.333a9.468 9.468 0 0 1-1.098-.432 3.557 3.557 0 0 1-.963-.657 2.99 2.99 0 0 1-.68-1.012c-.17-.406-.256-.905-.256-1.499 0-.474.094-.936.284-1.386.189-.45.463-.849.823-1.197.36-.348.804-.627 1.332-.837.528-.21 1.134-.315 1.818-.315.768 0 1.476.12 2.124.36.648.24 1.2.576 1.656 1.008l-.603 1.143zm5.373-.441v3.609h4.554v1.863h-4.554v3.681h5.778V172h-8.208v-13.014h8.208v1.926h-5.778zm17.01.063h-3.924V172h-2.421v-11.025h-3.924v-1.989h10.269v1.989z" fill="#5E63B6"/>
  </g>
</svg>
