<?xml version="1.0" encoding="utf-8"?>
<!-- Generator: Adobe Illustrator 24.2.1, SVG Export Plug-In . SVG Version: 6.00 Build 0)  -->
<svg version="1.1" id="Layer_1" xmlns:bx="https://boxy-svg.com"
	 xmlns="http://www.w3.org/2000/svg" xmlns:xlink="http://www.w3.org/1999/xlink" x="0px" y="0px" viewBox="0 0 256 256"
	 style="enable-background:new 0 0 256 256;" xml:space="preserve">
<style type="text/css">
	.st0{fill:#E1F2FF;}
	.st1{fill:#FFFFFF;stroke:#5E63B6;stroke-width:3;stroke-linecap:round;stroke-linejoin:round;}
	.st2{fill:none;stroke:#5E63B6;stroke-linecap:round;}
	.st3{fill:none;stroke:#5E63B6;stroke-linecap:round;stroke-linejoin:round;}
	.st4{fill:#FFFFFF;stroke:#5E63B6;stroke-width:2;stroke-linecap:round;}
	.st5{fill:none;stroke:#5E63B6;stroke-width:2;stroke-linecap:round;stroke-linejoin:round;}
	.st6{fill:#FFFFFF;stroke:#5563B6;stroke-width:2;}
	.st7{fill:#FFFFFF;stroke:#9ACDED;stroke-width:2;}
	.st8{fill:#9ACDED;}
	.st9{fill:#FFFFFF;stroke:#9ACDED;stroke-width:2;stroke-linecap:round;stroke-linejoin:round;}
	.st10{fill:none;stroke:#E1F2FF;stroke-width:2;stroke-linecap:round;}
	.st11{fill:none;stroke:#5E63B6;stroke-width:4;}
	.st12{fill-rule:evenodd;clip-rule:evenodd;fill:#FFFFFF;stroke:#5E63B6;stroke-width:3;}
	.st13{fill-rule:evenodd;clip-rule:evenodd;fill:#5E63B6;stroke:#5E63B6;stroke-width:2;}
	.st14{fill:#FFFFFF;stroke:#5E63B6;stroke-width:3;}
	.st15{fill:#FFFFFF;stroke:#5E63B6;stroke-width:1.5463;}
	.st16{enable-background:new    ;}
	.st17{fill:#5563B6;}
	.st18{fill:#9452BA;}
	.st19{fill:#5E63B6;}
</style>
<path class="st0" d="M25,228.6C25,171.4,71.4,125,128.6,125s103.6,46.4,103.6,103.6H25z"/>
<g>
	<path class="st1" d="M20,220h36 M62,220h176.9 M246,220h7 M3,220h9 M95,230h67.2 M171,230h9.1 M87,229l-5,0.1"/>
</g>
<path class="st2" d="M42.7,188.7v3.9 M44.7,190.6h-3.9"/>
<path class="st3" d="M217.7,128.7v3.9 M219.7,130.6h-3.9"/>
<path class="st4" d="M26.4,127.3v8.1 M30.5,131.3h-8.1"/>
<path class="st5" d="M217,68.4v7 M220.5,71.9h-7"/>
<path class="st5" d="M80.1,36.6v7 M83.6,40.1h-7"/>
<path class="st2" d="M43.7,92.7v3.9 M45.7,94.7h-3.9"/>
<path class="st6" d="M174.4,124.7h43.7L242,96h-43.7L174.4,124.7z M174.4,124.7H87L63,96h87.4L174.4,124.7z"/>
<g transform="rotate(3 -729.052 2484.967)">
	<path class="st7" d="M8.1,0.3L54,3.9c1.2,0.1,2.1,1.2,2,2.4l-5.3,68.4c-0.1,1.2-1.2,2.2-2.4,2.1L2.5,73.2c-1.2-0.1-2.2-1.2-2.1-2.4
		L5.7,2.4C5.8,1.2,6.9,0.2,8.1,0.3z"/>
	<path class="st0" d="M4.9,65L48,71.4l4.8-61.6L9.1,4.4L4.9,65z"/>
	<path class="st8" d="M19.6,16.9l-1.1-1.3l-3.4,2.9l-1.8-2.1L12,17.5l2.9,3.4l0,0l0,0L19.6,16.9z"/>
	<path class="st9" d="M22.2,18.6l24.9,1.9"/>
	<path class="st8" d="M19,24.5l-1.1-1.2l-3.4,2.9l-1.8-2.1l-1.2,1.1l2.9,3.4l0,0l0,0L19,24.5z"/>
	<path class="st9" d="M21.6,26.7l24.9,1.9"/>
	<path class="st8" d="M18.4,32.2L17.3,31l-3.4,2.9l-1.8-2.1l-1.2,1.1l2.9,3.4l0,0l0,0L18.4,32.2z"/>
	<path class="st9" d="M20.9,35l24.9,1.9"/>
</g>
<g transform="rotate(-23 240.573 -135.894)">
	<path class="st7" d="M8.1,0.3L54,3.9c1.2,0.1,2.1,1.2,2,2.4l-5.3,68.4c-0.1,1.2-1.2,2.2-2.4,2.1L2.5,73.2c-1.2-0.1-2.2-1.2-2.1-2.4
		L5.7,2.4C5.8,1.2,6.9,0.2,8.1,0.3z"/>
	<path class="st0" d="M4.9,65L48,71.4l4.8-61.6L9.1,4.4L4.9,65z"/>
	<path class="st8" d="M19.6,16.9l-1.1-1.3l-3.4,2.9l-1.8-2.1L12,17.5l2.9,3.4l0,0l0,0L19.6,16.9z"/>
	<path class="st9" d="M22.2,18.6l24.9,1.9"/>
	<path class="st8" d="M19,24.5l-1.1-1.2l-3.4,2.9l-1.8-2.1l-1.2,1.1l2.9,3.4l0,0l0,0L19,24.5z"/>
	<path class="st9" d="M21.6,26.7l24.9,1.9"/>
	<path class="st8" d="M18.4,32.2l-1.1-1.3l-3.4,2.9l-1.8-2.1l-1.2,1.1l2.9,3.4l0,0l0,0L18.4,32.2z"/>
	<path class="st9" d="M20.9,35l24.9,1.9"/>
</g>
<g transform="rotate(13 -258.63 795.816)">
	<path class="st7" d="M8.1,0.3L54,3.9c1.2,0.1,2.1,1.2,2,2.4l-5.3,68.4c-0.1,1.2-1.2,2.2-2.4,2.1L2.5,73.2c-1.2-0.1-2.2-1.2-2.1-2.4
		L5.7,2.4C5.8,1.2,6.9,0.2,8.1,0.3z"/>
	<path class="st0" d="M4.9,65L48,71.4l4.8-61.6L9.1,4.4L4.9,65z"/>
	<path class="st8" d="M19.6,16.9l-1.1-1.3l-3.4,2.9l-1.8-2.1L12,17.5l2.9,3.4l0,0l0,0L19.6,16.9z"/>
	<path class="st9" d="M22.2,18.6l24.9,1.9"/>
	<path class="st8" d="M19,24.5l-1.1-1.2l-3.4,2.9l-1.8-2.1l-1.2,1.1l2.9,3.4l0,0l0,0L19,24.5z"/>
	<path class="st9" d="M21.6,26.7l24.9,1.9"/>
	<path class="st8" d="M18.4,32.2l-1.1-1.3l-3.4,2.9l-1.8-2.1l-1.3,1.1l2.9,3.4l0,0l0,0L18.4,32.2z"/>
	<path class="st9" d="M20.9,35l24.9,1.9"/>
</g>
<g transform="translate(115 87)">
	<path class="st7" d="M8.1,0.3L54,3.9c1.2,0.1,2.1,1.2,2,2.4l-5.3,68.4c-0.1,1.2-1.2,2.2-2.4,2.1L2.5,73.2c-1.2-0.1-2.2-1.2-2.1-2.4
		L5.7,2.4C5.8,1.2,6.9,0.2,8.1,0.3z"/>
	<path class="st0" d="M4.9,65L48,71.4l4.8-61.6L9.1,4.4L4.9,65z"/>
	<path class="st8" d="M19.6,16.9l-1.1-1.3l-3.4,2.9l-1.8-2.1L12,17.5l2.9,3.4l0,0l0,0L19.6,16.9z"/>
	<path class="st9" d="M22.2,18.6l24.9,1.9"/>
	<path class="st8" d="M19,24.5l-1.1-1.2l-3.4,2.9l-1.8-2.1l-1.2,1.1l2.9,3.4l0,0l0,0L19,24.5z"/>
	<path class="st9" d="M21.6,26.7l24.9,1.9"/>
	<path class="st8" d="M18.4,32.2L17.3,31l-3.4,2.9l-1.8-2.1l-1.2,1.1l2.9,3.4l0,0l0,0L18.4,32.2z"/>
	<path class="st9" d="M20.9,35l24.9,1.9"/>
</g>
<path class="st6" d="M130.7,124.6h87.4v94.2h-87.4L130.7,124.6z"/>
<path class="st0" d="M217.1,178.7L130.6,139l0.1-14.4h86.4V178.7z"/>
<path class="st6" d="M86.9,124.7h43.7v94.2H86.9V124.7z"/>
<path class="st6" d="M130.6,124.7H86.9L63,153.3h43.7L130.6,124.7z M130.6,124.7H218l24,28.7h-87.4L130.6,124.7z"/>
<path class="st10" d="M229.1,148.1h-20.4 M86.8,148.1H73.4"/>
<g transform="matrix(-1 0 0 1 135 57)">
	<path class="st11" d="M100.4,12.2h-4.3c-10.9,0-15.9,15.8-15.9,33.3V101c0,25.1-22.1,20.9-26.8,20.9"/>
	<path class="st12" d="M0,0"/>
	<path class="st13" d="M124,9h-8.5V6h8.5c0.6,0,1,0.5,1,1v0.9C125,8.5,124.5,9,124,9z M124,18h-8.5v-3h8.5c0.6,0,1,0.5,1,1v0.9
		C125,17.5,124.5,18,124,18z"/>
</g>
<circle class="st14" cx="104.3" cy="179.9" r="22.7"/>
<circle class="st15" cx="104.3" cy="179.9" r="11.7"/>
<g class="st16">
	<path class="st17" d="M141.2,189.4c0,0.4,0.1,0.7,0.2,1c0.1,0.3,0.2,0.5,0.4,0.7s0.4,0.3,0.6,0.4c0.2,0.1,0.5,0.1,0.8,0.1
		s0.5,0,0.7-0.1s0.4-0.1,0.5-0.2c0.2-0.1,0.3-0.2,0.4-0.2s0.2-0.1,0.3-0.1s0.3,0.1,0.3,0.2l0.5,0.6c-0.2,0.2-0.4,0.4-0.6,0.6
		c-0.2,0.2-0.5,0.3-0.7,0.4c-0.3,0.1-0.5,0.2-0.8,0.2s-0.5,0.1-0.8,0.1c-0.5,0-1-0.1-1.4-0.2c-0.4-0.2-0.8-0.4-1.1-0.7
		s-0.6-0.7-0.7-1.2c-0.2-0.5-0.3-1-0.3-1.7c0-0.5,0.1-1,0.2-1.4c0.2-0.4,0.4-0.8,0.7-1.1s0.7-0.6,1.1-0.8s0.9-0.3,1.4-0.3
		s0.9,0.1,1.3,0.2s0.7,0.4,1,0.6s0.5,0.6,0.6,1c0.2,0.4,0.2,0.9,0.2,1.4c0,0.3,0,0.4-0.1,0.5s-0.2,0.1-0.3,0.1h-4.4V189.4z
		 M144.5,188.4c0-0.2,0-0.4-0.1-0.6c-0.1-0.2-0.2-0.4-0.3-0.5s-0.3-0.3-0.5-0.4c-0.2-0.1-0.4-0.1-0.7-0.1c-0.5,0-0.9,0.1-1.2,0.4
		s-0.5,0.7-0.5,1.2L144.5,188.4L144.5,188.4z"/>
	<path class="st17" d="M154.6,190.4c0.1,0,0.2,0,0.3,0.1l0.7,0.8c-0.4,0.5-0.9,0.9-1.5,1.2s-1.3,0.4-2.2,0.4c-0.8,0-1.4-0.1-2-0.4
		c-0.6-0.3-1.1-0.6-1.5-1.1s-0.8-1-1-1.6s-0.3-1.3-0.3-2.1s0.1-1.5,0.4-2.1c0.2-0.6,0.6-1.2,1-1.6c0.4-0.5,1-0.8,1.6-1.1
		s1.3-0.4,2-0.4s1.4,0.1,2,0.4c0.6,0.2,1.1,0.6,1.5,1l-0.6,0.9c0,0.1-0.1,0.1-0.1,0.1c-0.1,0-0.1,0.1-0.2,0.1c-0.1,0-0.1,0-0.2-0.1
		c-0.1,0-0.2-0.1-0.2-0.1c-0.1-0.1-0.2-0.1-0.3-0.2c-0.1-0.1-0.3-0.1-0.4-0.2c-0.2-0.1-0.3-0.1-0.5-0.1s-0.4-0.1-0.7-0.1
		c-0.5,0-0.9,0.1-1.2,0.2c-0.4,0.2-0.7,0.4-1,0.7s-0.5,0.7-0.6,1.1c-0.1,0.4-0.2,0.9-0.2,1.5s0.1,1.1,0.2,1.5s0.4,0.8,0.7,1.1
		s0.6,0.5,1,0.7s0.8,0.2,1.2,0.2c0.3,0,0.5,0,0.7,0s0.4-0.1,0.6-0.1s0.3-0.1,0.5-0.2s0.3-0.2,0.5-0.4l0.1-0.1
		C154.5,190.4,154.5,190.4,154.6,190.4z"/>
	<path class="st17" d="M159.7,185.5c0.5,0,1,0.1,1.5,0.3s0.8,0.4,1.1,0.7s0.5,0.7,0.7,1.2s0.3,1,0.3,1.5c0,0.6-0.1,1.1-0.3,1.5
		c-0.2,0.5-0.4,0.8-0.7,1.2c-0.3,0.3-0.7,0.6-1.1,0.7c-0.4,0.2-0.9,0.3-1.5,0.3c-0.5,0-1-0.1-1.5-0.3c-0.4-0.2-0.8-0.4-1.1-0.7
		s-0.6-0.7-0.7-1.2c-0.2-0.5-0.3-1-0.3-1.5c0-0.6,0.1-1.1,0.3-1.5c0.2-0.5,0.4-0.8,0.7-1.2s0.7-0.6,1.1-0.7
		C158.6,185.6,159.1,185.5,159.7,185.5z M159.7,191.6c0.6,0,1-0.2,1.3-0.6s0.4-1,0.4-1.8s-0.1-1.4-0.4-1.8c-0.3-0.4-0.7-0.6-1.3-0.6
		s-1.1,0.2-1.3,0.6c-0.3,0.4-0.4,1-0.4,1.8s0.1,1.4,0.4,1.8C158.6,191.4,159.1,191.6,159.7,191.6z"/>
	<path class="st17" d="M164.5,192.8v-7.2h1.1c0.2,0,0.4,0.1,0.4,0.3l0.1,0.5c0.1-0.1,0.3-0.3,0.4-0.4c0.1-0.1,0.3-0.2,0.4-0.3
		c0.2-0.1,0.3-0.2,0.5-0.2s0.4-0.1,0.6-0.1c0.5,0,0.8,0.1,1.1,0.4c0.3,0.2,0.5,0.6,0.7,1c0.1-0.2,0.3-0.4,0.4-0.6s0.4-0.3,0.6-0.4
		c0.2-0.1,0.4-0.2,0.6-0.2c0.2-0.1,0.5-0.1,0.7-0.1c0.4,0,0.7,0.1,1.1,0.2c0.3,0.1,0.6,0.3,0.8,0.5s0.4,0.5,0.5,0.9s0.2,0.7,0.2,1.2
		v4.6H173v-4.6c0-0.5-0.1-0.8-0.3-1s-0.5-0.3-0.9-0.3c-0.2,0-0.3,0-0.5,0.1s-0.3,0.1-0.4,0.3c-0.1,0.1-0.2,0.3-0.3,0.4
		c-0.1,0.2-0.1,0.4-0.1,0.6v4.6h-1.7v-4.6c0-0.5-0.1-0.8-0.3-1s-0.5-0.3-0.9-0.3c-0.3,0-0.5,0.1-0.7,0.2c-0.2,0.1-0.4,0.3-0.6,0.5
		v5.3h-1.8V192.8z"/>
	<path class="st17" d="M176.2,192.8v-7.2h1.1c0.2,0,0.4,0.1,0.4,0.3l0.1,0.5c0.1-0.1,0.3-0.3,0.4-0.4c0.1-0.1,0.3-0.2,0.4-0.3
		c0.2-0.1,0.3-0.2,0.5-0.2s0.4-0.1,0.6-0.1c0.5,0,0.8,0.1,1.1,0.4s0.5,0.6,0.7,1c0.1-0.2,0.3-0.4,0.4-0.6s0.4-0.3,0.6-0.4
		c0.2-0.1,0.4-0.2,0.6-0.2c0.2-0.1,0.5-0.1,0.7-0.1c0.4,0,0.7,0.1,1.1,0.2c0.3,0.1,0.6,0.3,0.8,0.5s0.4,0.5,0.5,0.9
		c0.1,0.3,0.2,0.7,0.2,1.2v4.6h-1.7v-4.6c0-0.5-0.1-0.8-0.3-1s-0.5-0.3-0.9-0.3c-0.2,0-0.3,0-0.5,0.1s-0.3,0.1-0.4,0.3
		s-0.2,0.3-0.3,0.4s-0.1,0.4-0.1,0.6v4.6h-1.7v-4.6c0-0.5-0.1-0.8-0.3-1s-0.5-0.3-0.9-0.3c-0.3,0-0.5,0.1-0.7,0.2
		c-0.2,0.1-0.4,0.3-0.6,0.5v5.3h-1.8V192.8z"/>
	<path class="st17" d="M189.3,189.4c0,0.4,0.1,0.7,0.2,1c0.1,0.3,0.2,0.5,0.4,0.7s0.4,0.3,0.6,0.4c0.2,0.1,0.5,0.1,0.8,0.1
		s0.5,0,0.7-0.1s0.4-0.1,0.5-0.2c0.2-0.1,0.3-0.2,0.4-0.2s0.2-0.1,0.3-0.1s0.3,0.1,0.3,0.2l0.5,0.6c-0.2,0.2-0.4,0.4-0.6,0.6
		c-0.2,0.2-0.5,0.3-0.7,0.4c-0.3,0.1-0.5,0.2-0.8,0.2s-0.5,0.1-0.8,0.1c-0.5,0-1-0.1-1.4-0.2c-0.4-0.2-0.8-0.4-1.1-0.7
		s-0.6-0.7-0.7-1.2c-0.2-0.5-0.3-1-0.3-1.7c0-0.5,0.1-1,0.2-1.4c0.2-0.4,0.4-0.8,0.7-1.1s0.7-0.6,1.1-0.8s0.9-0.3,1.4-0.3
		s0.9,0.1,1.3,0.2s0.7,0.4,1,0.6s0.5,0.6,0.6,1c0.2,0.4,0.2,0.9,0.2,1.4c0,0.3,0,0.4-0.1,0.5s-0.2,0.1-0.3,0.1h-4.4V189.4z
		 M192.6,188.4c0-0.2,0-0.4-0.1-0.6c-0.1-0.2-0.2-0.4-0.3-0.5s-0.3-0.3-0.5-0.4c-0.2-0.1-0.4-0.1-0.7-0.1c-0.5,0-0.9,0.1-1.2,0.4
		s-0.5,0.7-0.5,1.2L192.6,188.4L192.6,188.4z"/>
	<path class="st17" d="M197.1,186.8c0.2-0.4,0.5-0.8,0.8-1s0.7-0.4,1.1-0.4c0.3,0,0.6,0.1,0.8,0.2l-0.1,1.3c0,0.1-0.1,0.1-0.1,0.2
		c0,0-0.1,0.1-0.2,0.1c-0.1,0-0.2,0-0.3,0s-0.3,0-0.4,0c-0.2,0-0.4,0-0.5,0.1s-0.3,0.1-0.4,0.2c-0.1,0.1-0.2,0.2-0.3,0.4
		c-0.1,0.1-0.2,0.3-0.3,0.5v4.4h-1.7v-7.2h1c0.2,0,0.3,0,0.4,0.1c0.1,0.1,0.1,0.2,0.1,0.3L197.1,186.8z"/>
	<path class="st17" d="M205.6,187.1c-0.1,0.1-0.1,0.1-0.2,0.2s-0.1,0.1-0.2,0.1c-0.1,0-0.2,0-0.3-0.1s-0.2-0.1-0.3-0.2
		c-0.1-0.1-0.3-0.1-0.4-0.2c-0.2-0.1-0.4-0.1-0.6-0.1c-0.3,0-0.6,0.1-0.8,0.2c-0.2,0.1-0.4,0.3-0.6,0.5c-0.2,0.2-0.3,0.5-0.3,0.7
		c-0.1,0.3-0.1,0.6-0.1,1s0,0.7,0.1,1s0.2,0.5,0.4,0.8c0.2,0.2,0.3,0.4,0.6,0.5c0.2,0.1,0.5,0.2,0.7,0.2s0.5,0,0.7-0.1
		s0.3-0.1,0.4-0.2c0.1-0.1,0.2-0.2,0.3-0.2c0.1-0.1,0.2-0.1,0.3-0.1s0.2,0.1,0.3,0.2l0.5,0.6c-0.2,0.2-0.4,0.4-0.6,0.6
		c-0.2,0.2-0.5,0.3-0.7,0.4c-0.2,0.1-0.5,0.2-0.7,0.2c-0.3,0-0.5,0.1-0.8,0.1c-0.4,0-0.9-0.1-1.3-0.2s-0.7-0.4-1-0.7
		s-0.5-0.7-0.7-1.2s-0.3-1-0.3-1.6c0-0.5,0.1-1,0.2-1.5c0.2-0.5,0.4-0.8,0.7-1.2s0.7-0.6,1.1-0.8c0.4-0.2,0.9-0.3,1.5-0.3
		c0.5,0,1,0.1,1.4,0.3s0.8,0.4,1.1,0.7L205.6,187.1z"/>
	<path class="st17" d="M208.4,189.4c0,0.4,0.1,0.7,0.2,1c0.1,0.3,0.2,0.5,0.4,0.7s0.4,0.3,0.6,0.4c0.2,0.1,0.5,0.1,0.8,0.1
		s0.5,0,0.7-0.1s0.4-0.1,0.5-0.2c0.2-0.1,0.3-0.2,0.4-0.2s0.2-0.1,0.3-0.1s0.3,0.1,0.3,0.2l0.5,0.6c-0.2,0.2-0.4,0.4-0.6,0.6
		c-0.2,0.2-0.5,0.3-0.7,0.4c-0.3,0.1-0.5,0.2-0.8,0.2s-0.5,0.1-0.8,0.1c-0.5,0-1-0.1-1.4-0.2c-0.4-0.2-0.8-0.4-1.1-0.7
		s-0.6-0.7-0.7-1.2c-0.2-0.5-0.3-1-0.3-1.7c0-0.5,0.1-1,0.2-1.4c0.2-0.4,0.4-0.8,0.7-1.1s0.7-0.6,1.1-0.8s0.9-0.3,1.4-0.3
		s0.9,0.1,1.3,0.2s0.7,0.4,1,0.6s0.5,0.6,0.6,1c0.2,0.4,0.2,0.9,0.2,1.4c0,0.3,0,0.4-0.1,0.5s-0.2,0.1-0.3,0.1h-4.4V189.4z
		 M211.7,188.4c0-0.2,0-0.4-0.1-0.6c-0.1-0.2-0.2-0.4-0.3-0.5s-0.3-0.3-0.5-0.4c-0.2-0.1-0.4-0.1-0.7-0.1c-0.5,0-0.9,0.1-1.2,0.4
		s-0.5,0.7-0.5,1.2L211.7,188.4L211.7,188.4z"/>
</g>
<g>
	<path class="st18" d="M107.7,185.1c0-0.2-0.1-0.7,0-1.5c0-0.4,0.2-0.8,0.2-1.2c0.2-0.7,0.6-1.4,1-2c0.3-0.7,0.7-1.3,0.8-2
		c0.2-1-0.6-2-1.1-2.6c-0.8-1-1.8-1.8-2.8-2.5c0.1,0.9,0.2,1.9,0.1,2.9c-0.1,0.9-0.2,1.8-0.6,2.6c-0.2,0.5-0.3,0.9-0.6,1.4
		c-0.1,0.2-0.1,0.2-0.2,0.2c-0.1,0-0.2,0-0.3,0c-0.2,0-0.5-0.1-0.7-0.1c-0.9-0.2-1.8-0.4-2.6-0.7c-1-0.4-1.9-1-2.7-1.6
		c0.1,1,0.2,1.9,0.6,2.8c0.2,0.8,0.6,1.7,1.1,2.4c0.2,0.3,0.6,0.7,1.1,0.8c0.4,0.2,0.8,0.2,1.1,0.2c0.8,0.1,1.7,0,2.5,0.2
		C105.7,184,106.8,184.4,107.7,185.1"/>
</g>
<path class="st19" d="M31,80.9H19.6V56.9H31c2.1,0,3.7,1.7,3.7,3.7v16.6C34.7,79.2,33,80.9,31,80.9z"/>
</svg>
