<svg width="256" height="256" xmlns="http://www.w3.org/2000/svg" xmlns:xlink="http://www.w3.org/1999/xlink">
  <defs>
    <path d="M8.382 4.195L.057 30.318l3.255 12.577s10.912 15.133 10.867 18.283c-.044 3.151 24.387-2.613 26.942-4.56.872 1.409 15.777 1.637 20.028 1.529 4.251-.107 18.408-5.619 26.575-21.932C95.89 19.9 74.89 5.908 74.89 5.908L62.832.027" id="a"/>
    <path d="M8.382 4.195L.057 30.318l3.255 12.577s10.912 15.133 10.867 18.283c-.044 3.151 24.387-2.613 26.942-4.56.872 1.409 15.777 1.637 20.028 1.529 4.251-.107 18.408-5.619 26.575-21.932C95.89 19.9 74.89 5.908 74.89 5.908L62.832.027 8.382 4.195z" id="c"/>
    <path d="M8.382 4.195L.057 30.318l3.255 12.577s10.912 15.133 10.867 18.283c-.044 3.151 24.387-2.613 26.942-4.56.872 1.409 15.777 1.637 20.028 1.529 4.251-.107 18.408-5.619 26.575-21.932C95.89 19.9 74.89 5.908 74.89 5.908L62.832.027" id="e"/>
    <path d="M8.382 4.195L.057 30.318l3.255 12.577s10.912 15.133 10.867 18.283c-.044 3.151 24.387-2.613 26.942-4.56.872 1.409 15.777 1.637 20.028 1.529 4.251-.107 18.408-5.619 26.575-21.932C95.89 19.9 74.89 5.908 74.89 5.908L62.832.027 8.382 4.195z" id="g"/>
    <path d="M8.382 4.195L.057 30.318l3.255 12.577s10.912 15.133 10.867 18.283c-.044 3.151 24.387-2.613 26.942-4.56.872 1.409 15.777 1.637 20.028 1.529 4.251-.107 18.408-5.619 26.575-21.932C95.89 19.9 74.89 5.908 74.89 5.908L62.832.027" id="i"/>
    <path d="M8.382 4.195L.057 30.318l3.255 12.577s10.912 15.133 10.867 18.283c-.044 3.151 24.387-2.613 26.942-4.56.872 1.409 15.777 1.637 20.028 1.529 4.251-.107 18.408-5.619 26.575-21.932C95.89 19.9 74.89 5.908 74.89 5.908L62.832.027" id="k"/>
    <path d="M8.382 4.195L.057 30.318l3.255 12.577s10.912 15.133 10.867 18.283c-.044 3.151 24.387-2.613 26.942-4.56.872 1.409 15.777 1.637 20.028 1.529 4.251-.107 18.408-5.619 26.575-21.932C95.89 19.9 74.89 5.908 74.89 5.908L62.832.027 8.382 4.195z" id="m"/>
    <path d="M8.382 4.195L.057 30.318l3.255 12.577s10.912 15.133 10.867 18.283c-.044 3.151 24.387-2.613 26.942-4.56.872 1.409 15.777 1.637 20.028 1.529 4.251-.107 18.408-5.619 26.575-21.932C95.89 19.9 74.89 5.908 74.89 5.908L62.832.027" id="o"/>
    <path d="M8.382 4.195L.057 30.318l3.255 12.577s10.912 15.133 10.867 18.283c-.044 3.151 24.387-2.613 26.942-4.56.872 1.409 15.777 1.637 20.028 1.529 4.251-.107 18.408-5.619 26.575-21.932C95.89 19.9 74.89 5.908 74.89 5.908L62.832.027 8.382 4.195z" id="q"/>
    <path d="M8.382 4.195L.057 30.318l3.255 12.577s10.912 15.133 10.867 18.283c-.044 3.151 24.387-2.613 26.942-4.56.872 1.409 15.777 1.637 20.028 1.529 4.251-.107 18.408-5.619 26.575-21.932C95.89 19.9 74.89 5.908 74.89 5.908L62.832.027" id="s"/>
    <path d="M8.382 4.195L.057 30.318l3.255 12.577s10.912 15.133 10.867 18.283c-.044 3.151 24.387-2.613 26.942-4.56.872 1.409 15.777 1.637 20.028 1.529 4.251-.107 18.408-5.619 26.575-21.932C95.89 19.9 74.89 5.908 74.89 5.908L62.832.027 8.382 4.195z" id="u"/>
    <path d="M8.382 4.195L.057 30.318l3.255 12.577s10.912 15.133 10.867 18.283c-.044 3.151 24.387-2.613 26.942-4.56.872 1.409 15.777 1.637 20.028 1.529 4.251-.107 18.408-5.619 26.575-21.932C95.89 19.9 74.89 5.908 74.89 5.908L62.832.027" id="w"/>
    <path d="M8.382 4.195L.057 30.318l3.255 12.577s10.912 15.133 10.867 18.283c-.044 3.151 24.387-2.613 26.942-4.56.872 1.409 15.777 1.637 20.028 1.529 4.251-.107 18.408-5.619 26.575-21.932C95.89 19.9 74.89 5.908 74.89 5.908L62.832.027 8.382 4.195z" id="y"/>
    <path d="M8.382 4.195L.057 30.318l3.255 12.577s10.912 15.133 10.867 18.283c-.044 3.151 24.387-2.613 26.942-4.56.872 1.409 15.777 1.637 20.028 1.529 4.251-.107 18.408-5.619 26.575-21.932C95.89 19.9 74.89 5.908 74.89 5.908L62.832.027" id="A"/>
    <path d="M8.382 4.195L.057 30.318l3.255 12.577s10.912 15.133 10.867 18.283c-.044 3.151 24.387-2.613 26.942-4.56.872 1.409 15.777 1.637 20.028 1.529 4.251-.107 18.408-5.619 26.575-21.932C95.89 19.9 74.89 5.908 74.89 5.908L62.832.027" id="C"/>
    <path d="M8.382 4.195L.057 30.318l3.255 12.577s10.912 15.133 10.867 18.283c-.044 3.151 24.387-2.613 26.942-4.56.872 1.409 15.777 1.637 20.028 1.529 4.251-.107 18.408-5.619 26.575-21.932C95.89 19.9 74.89 5.908 74.89 5.908L62.832.027" id="E"/>
    <path d="M8.382 4.195L.057 30.318l3.255 12.577s10.912 15.133 10.867 18.283c-.044 3.151 24.387-2.613 26.942-4.56.872 1.409 15.777 1.637 20.028 1.529 4.251-.107 18.408-5.619 26.575-21.932C95.89 19.9 74.89 5.908 74.89 5.908L62.832.027" id="G"/>
    <path d="M8.382 4.195L.057 30.318l3.255 12.577s10.912 15.133 10.867 18.283c-.044 3.151 24.387-2.613 26.942-4.56.872 1.409 15.777 1.637 20.028 1.529 4.251-.107 18.408-5.619 26.575-21.932C95.89 19.9 74.89 5.908 74.89 5.908L62.832.027" id="I"/>
    <path d="M8.382 4.195L.057 30.318l3.255 12.577s10.912 15.133 10.867 18.283c-.044 3.151 24.387-2.613 26.942-4.56.872 1.409 15.777 1.637 20.028 1.529 4.251-.107 18.408-5.619 26.575-21.932C95.89 19.9 74.89 5.908 74.89 5.908L62.832.027 8.382 4.195z" id="K"/>
    <path d="M8.382 4.195L.057 30.318l3.255 12.577s10.912 15.133 10.867 18.283c-.044 3.151 24.387-2.613 26.942-4.56.872 1.409 15.777 1.637 20.028 1.529 4.251-.107 18.408-5.619 26.575-21.932C95.89 19.9 74.89 5.908 74.89 5.908L62.832.027" id="M"/>
    <path d="M8.382 4.195L.057 30.318l3.255 12.577s10.912 15.133 10.867 18.283c-.044 3.151 24.387-2.613 26.942-4.56.872 1.409 15.777 1.637 20.028 1.529 4.251-.107 18.408-5.619 26.575-21.932C95.89 19.9 74.89 5.908 74.89 5.908L62.832.027" id="O"/>
    <path d="M8.382 4.195L.057 30.318l3.255 12.577s10.912 15.133 10.867 18.283c-.044 3.151 24.387-2.613 26.942-4.56.872 1.409 15.777 1.637 20.028 1.529 4.251-.107 18.408-5.619 26.575-21.932C95.89 19.9 74.89 5.908 74.89 5.908L62.832.027" id="Q"/>
    <path d="M8.382 4.195L.057 30.318l3.255 12.577s10.912 15.133 10.867 18.283c-.044 3.151 24.387-2.613 26.942-4.56.872 1.409 15.777 1.637 20.028 1.529 4.251-.107 18.408-5.619 26.575-21.932C95.89 19.9 74.89 5.908 74.89 5.908L62.832.027" id="S"/>
    <path d="M8.382 4.195L.057 30.318l3.255 12.577s10.912 15.133 10.867 18.283c-.044 3.151 24.387-2.613 26.942-4.56.872 1.409 15.777 1.637 20.028 1.529 4.251-.107 18.408-5.619 26.575-21.932C95.89 19.9 74.89 5.908 74.89 5.908L62.832.027" id="U"/>
    <path d="M8.382 4.195L.057 30.318l3.255 12.577s10.912 15.133 10.867 18.283c-.044 3.151 24.387-2.613 26.942-4.56.872 1.409 15.777 1.637 20.028 1.529 4.251-.107 18.408-5.619 26.575-21.932C95.89 19.9 74.89 5.908 74.89 5.908L62.832.027" id="W"/>
    <path d="M8.382 4.195L.057 30.318l3.255 12.577s10.912 15.133 10.867 18.283c-.044 3.151 24.387-2.613 26.942-4.56.872 1.409 15.777 1.637 20.028 1.529 4.251-.107 18.408-5.619 26.575-21.932C95.89 19.9 74.89 5.908 74.89 5.908L62.832.027 8.382 4.195z" id="Y"/>
    <path d="M8.382 4.195L.057 30.318l3.255 12.577s10.912 15.133 10.867 18.283c-.044 3.151 24.387-2.613 26.942-4.56.872 1.409 15.777 1.637 20.028 1.529 4.251-.107 18.408-5.619 26.575-21.932C95.89 19.9 74.89 5.908 74.89 5.908L62.832.027" id="aa"/>
    <path d="M8.382 4.195L.057 30.318l3.255 12.577s10.912 15.133 10.867 18.283c-.044 3.151 24.387-2.613 26.942-4.56.872 1.409 15.777 1.637 20.028 1.529 4.251-.107 18.408-5.619 26.575-21.932C95.89 19.9 74.89 5.908 74.89 5.908L62.832.027 8.382 4.195z" id="ac"/>
    <path d="M8.382 4.195L.057 30.318l3.255 12.577s10.912 15.133 10.867 18.283c-.044 3.151 24.387-2.613 26.942-4.56.872 1.409 15.777 1.637 20.028 1.529 4.251-.107 18.408-5.619 26.575-21.932C95.89 19.9 74.89 5.908 74.89 5.908L62.832.027" id="ae"/>
    <path d="M8.382 4.195L.057 30.318l3.255 12.577s10.912 15.133 10.867 18.283c-.044 3.151 24.387-2.613 26.942-4.56.872 1.409 15.777 1.637 20.028 1.529 4.251-.107 18.408-5.619 26.575-21.932C95.89 19.9 74.89 5.908 74.89 5.908L62.832.027 8.382 4.195z" id="ag"/>
    <path d="M8.382 4.195L.057 30.318l3.255 12.577s10.912 15.133 10.867 18.283c-.044 3.151 24.387-2.613 26.942-4.56.872 1.409 15.777 1.637 20.028 1.529 4.251-.107 18.408-5.619 26.575-21.932C95.89 19.9 74.89 5.908 74.89 5.908L62.832.027" id="ai"/>
    <path d="M8.382 4.195L.057 30.318l3.255 12.577s10.912 15.133 10.867 18.283c-.044 3.151 24.387-2.613 26.942-4.56.872 1.409 15.777 1.637 20.028 1.529 4.251-.107 18.408-5.619 26.575-21.932C95.89 19.9 74.89 5.908 74.89 5.908L62.832.027" id="ak"/>
    <path d="M8.382 4.195L.057 30.318l3.255 12.577s10.912 15.133 10.867 18.283c-.044 3.151 24.387-2.613 26.942-4.56.872 1.409 15.777 1.637 20.028 1.529 4.251-.107 18.408-5.619 26.575-21.932C95.89 19.9 74.89 5.908 74.89 5.908L62.832.027" id="am"/>
    <path d="M8.382 4.195L.057 30.318l3.255 12.577s10.912 15.133 10.867 18.283c-.044 3.151 24.387-2.613 26.942-4.56.872 1.409 15.777 1.637 20.028 1.529 4.251-.107 18.408-5.619 26.575-21.932C95.89 19.9 74.89 5.908 74.89 5.908L62.832.027 8.382 4.195z" id="ao"/>
    <path d="M8.382 4.195L.057 30.318l3.255 12.577s10.912 15.133 10.867 18.283c-.044 3.151 24.387-2.613 26.942-4.56.872 1.409 15.777 1.637 20.028 1.529 4.251-.107 18.408-5.619 26.575-21.932C95.89 19.9 74.89 5.908 74.89 5.908L62.832.027" id="aq"/>
    <path d="M8.382 4.195L.057 30.318l3.255 12.577s10.912 15.133 10.867 18.283c-.044 3.151 24.387-2.613 26.942-4.56.872 1.409 15.777 1.637 20.028 1.529 4.251-.107 18.408-5.619 26.575-21.932C95.89 19.9 74.89 5.908 74.89 5.908L62.832.027" id="as"/>
    <path d="M8.382 4.195L.057 30.318l3.255 12.577s10.912 15.133 10.867 18.283c-.044 3.151 24.387-2.613 26.942-4.56.872 1.409 15.777 1.637 20.028 1.529 4.251-.107 18.408-5.619 26.575-21.932C95.89 19.9 74.89 5.908 74.89 5.908L62.832.027 8.382 4.195z" id="au"/>
    <path d="M8.382 4.195L.057 30.318l3.255 12.577s10.912 15.133 10.867 18.283c-.044 3.151 24.387-2.613 26.942-4.56.872 1.409 15.777 1.637 20.028 1.529 4.251-.107 18.408-5.619 26.575-21.932C95.89 19.9 74.89 5.908 74.89 5.908L62.832.027" id="aw"/>
    <path d="M8.382 4.195L.057 30.318l3.255 12.577s10.912 15.133 10.867 18.283c-.044 3.151 24.387-2.613 26.942-4.56.872 1.409 15.777 1.637 20.028 1.529 4.251-.107 18.408-5.619 26.575-21.932C95.89 19.9 74.89 5.908 74.89 5.908L62.832.027 8.382 4.195z" id="ay"/>
    <path d="M8.382 4.195L.057 30.318l3.255 12.577s10.912 15.133 10.867 18.283c-.044 3.151 24.387-2.613 26.942-4.56.872 1.409 15.777 1.637 20.028 1.529 4.251-.107 18.408-5.619 26.575-21.932C95.89 19.9 74.89 5.908 74.89 5.908L62.832.027" id="aA"/>
    <path d="M8.382 4.195L.057 30.318l3.255 12.577s10.912 15.133 10.867 18.283c-.044 3.151 24.387-2.613 26.942-4.56.872 1.409 15.777 1.637 20.028 1.529 4.251-.107 18.408-5.619 26.575-21.932C95.89 19.9 74.89 5.908 74.89 5.908L62.832.027 8.382 4.195z" id="aC"/>
    <path d="M8.382 4.195L.057 30.318l3.255 12.577s10.912 15.133 10.867 18.283c-.044 3.151 24.387-2.613 26.942-4.56.872 1.409 15.777 1.637 20.028 1.529 4.251-.107 18.408-5.619 26.575-21.932C95.89 19.9 74.89 5.908 74.89 5.908L62.832.027" id="aE"/>
    <path d="M8.382 4.195L.057 30.318l3.255 12.577s10.912 15.133 10.867 18.283c-.044 3.151 24.387-2.613 26.942-4.56.872 1.409 15.777 1.637 20.028 1.529 4.251-.107 18.408-5.619 26.575-21.932C95.89 19.9 74.89 5.908 74.89 5.908L62.832.027 8.382 4.195z" id="aG"/>
    <path d="M8.382 4.195L.057 30.318l3.255 12.577s10.912 15.133 10.867 18.283c-.044 3.151 24.387-2.613 26.942-4.56.872 1.409 15.777 1.637 20.028 1.529 4.251-.107 18.408-5.619 26.575-21.932C95.89 19.9 74.89 5.908 74.89 5.908L62.832.027" id="aI"/>
    <path d="M8.382 4.195L.057 30.318l3.255 12.577s10.912 15.133 10.867 18.283c-.044 3.151 24.387-2.613 26.942-4.56.872 1.409 15.777 1.637 20.028 1.529 4.251-.107 18.408-5.619 26.575-21.932C95.89 19.9 74.89 5.908 74.89 5.908L62.832.027" id="aK"/>
    <path d="M8.382 4.195L.057 30.318l3.255 12.577s10.912 15.133 10.867 18.283c-.044 3.151 24.387-2.613 26.942-4.56.872 1.409 15.777 1.637 20.028 1.529 4.251-.107 18.408-5.619 26.575-21.932C95.89 19.9 74.89 5.908 74.89 5.908L62.832.027" id="aM"/>
    <path d="M8.382 4.195L.057 30.318l3.255 12.577s10.912 15.133 10.867 18.283c-.044 3.151 24.387-2.613 26.942-4.56.872 1.409 15.777 1.637 20.028 1.529 4.251-.107 18.408-5.619 26.575-21.932C95.89 19.9 74.89 5.908 74.89 5.908L62.832.027" id="aO"/>
    <path d="M8.382 4.195L.057 30.318l3.255 12.577s10.912 15.133 10.867 18.283c-.044 3.151 24.387-2.613 26.942-4.56.872 1.409 15.777 1.637 20.028 1.529 4.251-.107 18.408-5.619 26.575-21.932C95.89 19.9 74.89 5.908 74.89 5.908L62.832.027" id="aQ"/>
    <path d="M8.382 4.195L.057 30.318l3.255 12.577s10.912 15.133 10.867 18.283c-.044 3.151 24.387-2.613 26.942-4.56.872 1.409 15.777 1.637 20.028 1.529 4.251-.107 18.408-5.619 26.575-21.932C95.89 19.9 74.89 5.908 74.89 5.908L62.832.027" id="aS"/>
    <path d="M8.382 4.195L.057 30.318l3.255 12.577s10.912 15.133 10.867 18.283c-.044 3.151 24.387-2.613 26.942-4.56.872 1.409 15.777 1.637 20.028 1.529 4.251-.107 18.408-5.619 26.575-21.932C95.89 19.9 74.89 5.908 74.89 5.908L62.832.027" id="aU"/>
    <path d="M8.382 4.195L.057 30.318l3.255 12.577s10.912 15.133 10.867 18.283c-.044 3.151 24.387-2.613 26.942-4.56.872 1.409 15.777 1.637 20.028 1.529 4.251-.107 18.408-5.619 26.575-21.932C95.89 19.9 74.89 5.908 74.89 5.908L62.832.027 8.382 4.195z" id="aW"/>
    <path d="M8.382 4.195L.057 30.318l3.255 12.577s10.912 15.133 10.867 18.283c-.044 3.151 24.387-2.613 26.942-4.56.872 1.409 15.777 1.637 20.028 1.529 4.251-.107 18.408-5.619 26.575-21.932C95.89 19.9 74.89 5.908 74.89 5.908L62.832.027" id="aY"/>
    <path d="M8.382 4.195L.057 30.318l3.255 12.577s10.912 15.133 10.867 18.283c-.044 3.151 24.387-2.613 26.942-4.56.872 1.409 15.777 1.637 20.028 1.529 4.251-.107 18.408-5.619 26.575-21.932C95.89 19.9 74.89 5.908 74.89 5.908L62.832.027" id="ba"/>
    <path d="M8.382 4.195L.057 30.318l3.255 12.577s10.912 15.133 10.867 18.283c-.044 3.151 24.387-2.613 26.942-4.56.872 1.409 15.777 1.637 20.028 1.529 4.251-.107 18.408-5.619 26.575-21.932C95.89 19.9 74.89 5.908 74.89 5.908L62.832.027 8.382 4.195z" id="bc"/>
    <path d="M8.382 4.195L.057 30.318l3.255 12.577s10.912 15.133 10.867 18.283c-.044 3.151 24.387-2.613 26.942-4.56.872 1.409 15.777 1.637 20.028 1.529 4.251-.107 18.408-5.619 26.575-21.932C95.89 19.9 74.89 5.908 74.89 5.908L62.832.027" id="be"/>
    <path d="M8.382 4.195L.057 30.318l3.255 12.577s10.912 15.133 10.867 18.283c-.044 3.151 24.387-2.613 26.942-4.56.872 1.409 15.777 1.637 20.028 1.529 4.251-.107 18.408-5.619 26.575-21.932C95.89 19.9 74.89 5.908 74.89 5.908L62.832.027" id="bg"/>
    <path d="M8.382 4.195L.057 30.318l3.255 12.577s10.912 15.133 10.867 18.283c-.044 3.151 24.387-2.613 26.942-4.56.872 1.409 15.777 1.637 20.028 1.529 4.251-.107 18.408-5.619 26.575-21.932C95.89 19.9 74.89 5.908 74.89 5.908L62.832.027" id="bi"/>
    <path d="M8.382 4.195L.057 30.318l3.255 12.577s10.912 15.133 10.867 18.283c-.044 3.151 24.387-2.613 26.942-4.56.872 1.409 15.777 1.637 20.028 1.529 4.251-.107 18.408-5.619 26.575-21.932C95.89 19.9 74.89 5.908 74.89 5.908L62.832.027 8.382 4.195z" id="bk"/>
    <path d="M8.382 4.195L.057 30.318l3.255 12.577s10.912 15.133 10.867 18.283c-.044 3.151 24.387-2.613 26.942-4.56.872 1.409 15.777 1.637 20.028 1.529 4.251-.107 18.408-5.619 26.575-21.932C95.89 19.9 74.89 5.908 74.89 5.908L62.832.027" id="bm"/>
    <path d="M8.382 4.195L.057 30.318l3.255 12.577s10.912 15.133 10.867 18.283c-.044 3.151 24.387-2.613 26.942-4.56.872 1.409 15.777 1.637 20.028 1.529 4.251-.107 18.408-5.619 26.575-21.932C95.89 19.9 74.89 5.908 74.89 5.908L62.832.027" id="bo"/>
    <path d="M8.382 4.195L.057 30.318l3.255 12.577s10.912 15.133 10.867 18.283c-.044 3.151 24.387-2.613 26.942-4.56.872 1.409 15.777 1.637 20.028 1.529 4.251-.107 18.408-5.619 26.575-21.932C95.89 19.9 74.89 5.908 74.89 5.908L62.832.027" id="bq"/>
    <path d="M8.382 4.195L.057 30.318l3.255 12.577s10.912 15.133 10.867 18.283c-.044 3.151 24.387-2.613 26.942-4.56.872 1.409 15.777 1.637 20.028 1.529 4.251-.107 18.408-5.619 26.575-21.932C95.89 19.9 74.89 5.908 74.89 5.908L62.832.027" id="bs"/>
    <path d="M8.382 4.195L.057 30.318l3.255 12.577s10.912 15.133 10.867 18.283c-.044 3.151 24.387-2.613 26.942-4.56.872 1.409 15.777 1.637 20.028 1.529 4.251-.107 18.408-5.619 26.575-21.932C95.89 19.9 74.89 5.908 74.89 5.908L62.832.027" id="bu"/>
    <path d="M8.382 4.195L.057 30.318l3.255 12.577s10.912 15.133 10.867 18.283c-.044 3.151 24.387-2.613 26.942-4.56.872 1.409 15.777 1.637 20.028 1.529 4.251-.107 18.408-5.619 26.575-21.932C95.89 19.9 74.89 5.908 74.89 5.908L62.832.027" id="bw"/>
    <path d="M8.382 4.195L.057 30.318l3.255 12.577s10.912 15.133 10.867 18.283c-.044 3.151 24.387-2.613 26.942-4.56.872 1.409 15.777 1.637 20.028 1.529 4.251-.107 18.408-5.619 26.575-21.932C95.89 19.9 74.89 5.908 74.89 5.908L62.832.027" id="by"/>
    <path d="M8.382 4.195L.057 30.318l3.255 12.577s10.912 15.133 10.867 18.283c-.044 3.151 24.387-2.613 26.942-4.56.872 1.409 15.777 1.637 20.028 1.529 4.251-.107 18.408-5.619 26.575-21.932C95.89 19.9 74.89 5.908 74.89 5.908L62.832.027" id="bA"/>
    <path d="M8.382 4.195L.057 30.318l3.255 12.577s10.912 15.133 10.867 18.283c-.044 3.151 24.387-2.613 26.942-4.56.872 1.409 15.777 1.637 20.028 1.529 4.251-.107 18.408-5.619 26.575-21.932C95.89 19.9 74.89 5.908 74.89 5.908L62.832.027" id="bC"/>
    <path d="M8.382 4.195L.057 30.318l3.255 12.577s10.912 15.133 10.867 18.283c-.044 3.151 24.387-2.613 26.942-4.56.872 1.409 15.777 1.637 20.028 1.529 4.251-.107 18.408-5.619 26.575-21.932C95.89 19.9 74.89 5.908 74.89 5.908L62.832.027" id="bE"/>
    <path d="M8.382 4.195L.057 30.318l3.255 12.577s10.912 15.133 10.867 18.283c-.044 3.151 24.387-2.613 26.942-4.56.872 1.409 15.777 1.637 20.028 1.529 4.251-.107 18.408-5.619 26.575-21.932C95.89 19.9 74.89 5.908 74.89 5.908L62.832.027" id="bG"/>
    <path d="M8.382 4.195L.057 30.318l3.255 12.577s10.912 15.133 10.867 18.283c-.044 3.151 24.387-2.613 26.942-4.56.872 1.409 15.777 1.637 20.028 1.529 4.251-.107 18.408-5.619 26.575-21.932C95.89 19.9 74.89 5.908 74.89 5.908L62.832.027" id="bI"/>
    <path d="M8.382 4.195L.057 30.318l3.255 12.577s10.912 15.133 10.867 18.283c-.044 3.151 24.387-2.613 26.942-4.56.872 1.409 15.777 1.637 20.028 1.529 4.251-.107 18.408-5.619 26.575-21.932C95.89 19.9 74.89 5.908 74.89 5.908L62.832.027" id="bK"/>
    <path d="M8.382 4.195L.057 30.318l3.255 12.577s10.912 15.133 10.867 18.283c-.044 3.151 24.387-2.613 26.942-4.56.872 1.409 15.777 1.637 20.028 1.529 4.251-.107 18.408-5.619 26.575-21.932C95.89 19.9 74.89 5.908 74.89 5.908L62.832.027" id="bM"/>
    <path d="M8.382 4.195L.057 30.318l3.255 12.577s10.912 15.133 10.867 18.283c-.044 3.151 24.387-2.613 26.942-4.56.872 1.409 15.777 1.637 20.028 1.529 4.251-.107 18.408-5.619 26.575-21.932C95.89 19.9 74.89 5.908 74.89 5.908L62.832.027" id="bO"/>
    <path d="M8.382 4.195L.057 30.318l3.255 12.577s10.912 15.133 10.867 18.283c-.044 3.151 24.387-2.613 26.942-4.56.872 1.409 15.777 1.637 20.028 1.529 4.251-.107 18.408-5.619 26.575-21.932C95.89 19.9 74.89 5.908 74.89 5.908L62.832.027" id="bQ"/>
    <path d="M8.382 4.195L.057 30.318l3.255 12.577s10.912 15.133 10.867 18.283c-.044 3.151 24.387-2.613 26.942-4.56.872 1.409 15.777 1.637 20.028 1.529 4.251-.107 18.408-5.619 26.575-21.932C95.89 19.9 74.89 5.908 74.89 5.908L62.832.027" id="bS"/>
    <path d="M8.382 4.195L.057 30.318l3.255 12.577s10.912 15.133 10.867 18.283c-.044 3.151 24.387-2.613 26.942-4.56.872 1.409 15.777 1.637 20.028 1.529 4.251-.107 18.408-5.619 26.575-21.932C95.89 19.9 74.89 5.908 74.89 5.908L62.832.027" id="bU"/>
    <path d="M8.382 4.195L.057 30.318l3.255 12.577s10.912 15.133 10.867 18.283c-.044 3.151 24.387-2.613 26.942-4.56.872 1.409 15.777 1.637 20.028 1.529 4.251-.107 18.408-5.619 26.575-21.932C95.89 19.9 74.89 5.908 74.89 5.908L62.832.027" id="bW"/>
    <path d="M8.382 4.195L.057 30.318l3.255 12.577s10.912 15.133 10.867 18.283c-.044 3.151 24.387-2.613 26.942-4.56.872 1.409 15.777 1.637 20.028 1.529 4.251-.107 18.408-5.619 26.575-21.932C95.89 19.9 74.89 5.908 74.89 5.908L62.832.027" id="bY"/>
    <path d="M8.382 4.195L.057 30.318l3.255 12.577s10.912 15.133 10.867 18.283c-.044 3.151 24.387-2.613 26.942-4.56.872 1.409 15.777 1.637 20.028 1.529 4.251-.107 18.408-5.619 26.575-21.932C95.89 19.9 74.89 5.908 74.89 5.908L62.832.027" id="ca"/>
    <path d="M8.382 4.195L.057 30.318l3.255 12.577s10.912 15.133 10.867 18.283c-.044 3.151 24.387-2.613 26.942-4.56.872 1.409 15.777 1.637 20.028 1.529 4.251-.107 18.408-5.619 26.575-21.932C95.89 19.9 74.89 5.908 74.89 5.908L62.832.027" id="cc"/>
    <path d="M8.382 4.195L.057 30.318l3.255 12.577s10.912 15.133 10.867 18.283c-.044 3.151 24.387-2.613 26.942-4.56.872 1.409 15.777 1.637 20.028 1.529 4.251-.107 18.408-5.619 26.575-21.932C95.89 19.9 74.89 5.908 74.89 5.908L62.832.027" id="ce"/>
    <path d="M8.382 4.195L.057 30.318l3.255 12.577s10.912 15.133 10.867 18.283c-.044 3.151 24.387-2.613 26.942-4.56.872 1.409 15.777 1.637 20.028 1.529 4.251-.107 18.408-5.619 26.575-21.932C95.89 19.9 74.89 5.908 74.89 5.908L62.832.027" id="cg"/>
    <path d="M8.382 4.195L.057 30.318l3.255 12.577s10.912 15.133 10.867 18.283c-.044 3.151 24.387-2.613 26.942-4.56.872 1.409 15.777 1.637 20.028 1.529 4.251-.107 18.408-5.619 26.575-21.932C95.89 19.9 74.89 5.908 74.89 5.908L62.832.027" id="ci"/>
    <path d="M.625 12.165l6.78 143.227s4.266 1.429 8.39.508c4.126-.92 2.57-18.854 2.57-18.854L20.852 2.032 10.311.993" id="ck"/>
    <path d="M.625 12.165l6.78 143.227s4.266 1.429 8.39.508c4.126-.92 2.57-18.854 2.57-18.854L20.852 2.032 10.311.993.625 12.165z" id="cm"/>
  </defs>
  <g fill="none" fill-rule="evenodd">
    <path d="M26.995 206.715c0-57.193 46.364-103.558 103.558-103.558 57.193 0 103.558 46.365 103.558 103.558H26.995z" fill="#E1F2FF"/>
    <path d="M32.61 218.528h22.333" fill="#FFF"/>
    <path d="M32.61 218.528h22.333M242.22 207.565h5" stroke="#ACD3EF" stroke-width="2" stroke-linecap="round"/>
    <path d="M7 207.565h5.333" fill="#FFF"/>
    <path d="M7 207.565h5.333" stroke="#ACD3EF" stroke-width="2" stroke-linecap="round"/>
    <path d="M98.347 218.528h55.727" fill="#FFF"/>
    <path d="M98.347 218.528h55.727" stroke="#ACD3EF" stroke-width="2" stroke-linecap="round"/>
    <path d="M160.72 218.528h11.332" fill="#FFF"/>
    <path d="M160.72 218.528h11.332" stroke="#ACD3EF" stroke-width="2" stroke-linecap="round"/>
    <g>
      <path d="M93.386 218.528h-4.334" fill="#FFF"/>
      <path d="M93.386 218.528h-4.334" stroke="#ACD3EF" stroke-width="2" stroke-linecap="round"/>
    </g>
    <g>
      <path d="M21.552 218.528h3.667" fill="#FFF"/>
      <path d="M21.552 218.528h3.667" stroke="#ACD3EF" stroke-width="2" stroke-linecap="round"/>
    </g>
    <g>
      <path d="M219.213 218.528h13.667" fill="#FFF"/>
      <path d="M219.213 218.528h13.667" stroke="#ACD3EF" stroke-width="2" stroke-linecap="round"/>
    </g>
    <g>
      <g transform="translate(160 144)">
        <mask id="b" fill="#fff">
          <use xlink:href="#a"/>
        </mask>
        <path d="M49.496 71.945c-4.38-.09-8.484-3.105-17.421-3.518-.13-.584-.286-1.111-.485-1.544-1.617-3.501-3.9-13.593-2.434-20.222l1.16-5.245c.38-1.722.573-3.48.573-5.242a10.655 10.655 0 0 0-1.05-4.611c-.15-.31-.313-.611-.49-.904a10.696 10.696 0 0 0-3.582-3.581 10.578 10.578 0 0 0-5.515-1.54h-1.744a10.603 10.603 0 0 0-8.208 3.87 10.72 10.72 0 0 0-1.052 1.534 9.918 9.918 0 0 0-.541 1.092 10.54 10.54 0 0 0-.781 3.053c-.036.358-.055.72-.055 1.087 0 .733.297 1.396.776 1.875.48.48 1.143.777 1.875.777h10.89l-1.647 9.452c-1.935 9.71-1.354 16.204.145 20.532.334.966 2.236 4.386 2.236 4.386C16.7 81.789 8.35 85.545-.58 86.634c-7.591.927-23.98-5.995-15.53-14.002 8.45-8.008-1.76-3.03-3.263-2.016-1.503 1.014-10.193 8.522-.762 19.539 3.988 4.658 8.506 8.894 19.375 12.14 1.743.52 11.255 1.212 16.375 2.682 15.246 4.376 27.64-.382 34.586-10.446 6.917-10.023 1.023-22.551-.706-22.586" fill="#9452BA" mask="url(#b)"/>
      </g>
      <g transform="translate(160 144)">
        <mask id="d" fill="#fff">
          <use xlink:href="#c"/>
        </mask>
        <path d="M49.496 71.945c-4.38-.09-8.484-3.105-17.421-3.518-.13-.584-.286-1.111-.485-1.544-1.617-3.501-3.9-13.593-2.434-20.222l1.16-5.245c.38-1.722.573-3.48.573-5.242a10.655 10.655 0 0 0-1.05-4.611c-.15-.31-.313-.611-.49-.904a10.696 10.696 0 0 0-3.582-3.581 10.578 10.578 0 0 0-5.515-1.54h-1.744a10.603 10.603 0 0 0-8.208 3.87 10.72 10.72 0 0 0-1.052 1.534 9.918 9.918 0 0 0-.541 1.092 10.54 10.54 0 0 0-.781 3.053c-.036.358-.055.72-.055 1.087 0 .733.297 1.396.776 1.875.48.48 1.143.777 1.875.777h10.89l-1.647 9.452c-1.935 9.71-1.354 16.204.145 20.532.334.966 2.236 4.386 2.236 4.386C16.7 81.789 8.35 85.545-.58 86.634c-7.591.927-23.98-5.995-15.53-14.002 8.45-8.008-1.76-3.03-3.263-2.016-1.503 1.014-10.193 8.522-.762 19.539 3.988 4.658 8.506 8.894 19.375 12.14 1.743.52 11.255 1.212 16.375 2.682 15.246 4.376 27.64-.382 34.586-10.446 6.917-10.023 1.023-22.551-.706-22.586z" stroke="#52267D" stroke-width="2" mask="url(#d)"/>
      </g>
      <g transform="translate(160 144)">
        <mask id="f" fill="#fff">
          <use xlink:href="#e"/>
        </mask>
        <path d="M40.037 57.474c-.35-11.26 8.587-20.109 18.743-21.979 2.109-.388 2.795-1.05 5.102-1.05h1.766c5.952 0 10.777 4.825 10.777 10.776a2.688 2.688 0 0 1-2.687 2.687s-18.12-.005-18.204-.014l-1.477.002c.002.002 1.479.003 1.48.005-4.006 1.7-6.5 6.821-6.94 9.573-.625 3.918-.167 7.15 1.169 9.765.89 1.741.992 3.84.855 5.537l-.104.036a20.016 20.016 0 0 1-.48 3.12c-1.706-1.189-4.36-2.979-4.845-3.234-1.047-.553-3.41-1.81-4.468-2.417-6.758-3.875-.49-6.403-.687-12.807" fill="#9452BA" mask="url(#f)"/>
      </g>
      <g transform="translate(160 144)">
        <mask id="h" fill="#fff">
          <use xlink:href="#g"/>
        </mask>
        <path d="M40.037 57.474c-.35-11.26 8.587-20.109 18.743-21.979 2.109-.388 2.795-1.05 5.102-1.05h1.766c5.952 0 10.777 4.825 10.777 10.776a2.688 2.688 0 0 1-2.687 2.687s-18.12-.005-18.204-.014l-1.477.002c.002.002 1.479.003 1.48.005-4.006 1.7-6.5 6.821-6.94 9.573-.625 3.918-.167 7.15 1.169 9.765.89 1.741.992 3.84.855 5.537l-.104.036a20.016 20.016 0 0 1-.48 3.12c-1.706-1.189-4.36-2.979-4.845-3.234-1.047-.553-3.41-1.81-4.468-2.417-6.758-3.875-.49-6.403-.687-12.807z" stroke="#52267D" stroke-width="2" mask="url(#h)"/>
      </g>
      <g transform="translate(160 144)">
        <mask id="j" fill="#fff">
          <use xlink:href="#i"/>
        </mask>
        <path d="M45.807 70.484c.09-1.738.354-2.631.16-3.34-1.123-4.072-1.488-5.358-1.488-9.67 0-4.285 2.482-8.52 6.147-10.773.202-.124 2.84-.31 4.911 1.2-4.006 1.7-6.5 6.82-6.94 9.573-.626 3.918-.167 7.15 1.17 9.765.89 1.74.991 3.839.853 5.537 0 0-4.916 1.846-4.813-2.292" fill="#F3E3FF" mask="url(#j)"/>
        <path d="M45.807 70.484c.09-1.738.354-2.631.16-3.34-1.123-4.072-1.488-5.358-1.488-9.67 0-4.285 2.482-8.52 6.147-10.773.202-.124 2.84-.31 4.911 1.2-4.006 1.7-6.5 6.82-6.94 9.573-.626 3.918-.167 7.15 1.17 9.765.89 1.74.991 3.839.853 5.537 0 0-4.916 1.846-4.813-2.292" stroke="#52267D" mask="url(#j)"/>
      </g>
      <g transform="translate(160 144)">
        <mask id="l" fill="#fff">
          <use xlink:href="#k"/>
        </mask>
        <path d="M71.303 36.276s.004-1.882-1.866-2.63c-.57-.228-1.613-.652-1.613-.652s-1.114 2.355.148 2.949c1.816.855 3.331.333 3.331.333" fill="#FFF" mask="url(#l)"/>
      </g>
      <g transform="translate(160 144)">
        <mask id="n" fill="#fff">
          <use xlink:href="#m"/>
        </mask>
        <path d="M71.303 36.276s.004-1.882-1.866-2.63c-.57-.228-1.613-.652-1.613-.652s-1.114 2.355.148 2.949c1.816.855 3.331.333 3.331.333z" stroke="#52267D" mask="url(#n)"/>
      </g>
      <g transform="translate(160 144)">
        <mask id="p" fill="#fff">
          <use xlink:href="#o"/>
        </mask>
        <path d="M66.622 34.953s-.054-2.564-2.938-2.938c-.54-.07-1.942-.037-1.942-.037s-.648 2.714.873 2.975c1.87.32 4.007 0 4.007 0" fill="#FFF" mask="url(#p)"/>
      </g>
      <g transform="translate(160 144)">
        <mask id="r" fill="#fff">
          <use xlink:href="#q"/>
        </mask>
        <path d="M66.622 34.953s-.054-2.564-2.938-2.938c-.54-.07-1.942-.037-1.942-.037s-.648 2.714.873 2.975c1.87.32 4.007 0 4.007 0z" stroke="#52267D" mask="url(#r)"/>
      </g>
      <g transform="translate(160 144)">
        <mask id="t" fill="#fff">
          <use xlink:href="#s"/>
        </mask>
        <path d="M60.885 35.198s-.38-2.844-2.935-2.062c-1.09.333-1.697 1.164-1.697 1.164s.508 2.165 1.525 1.92c1.774-.423 3.107-1.022 3.107-1.022" fill="#FFF" mask="url(#t)"/>
      </g>
      <g transform="translate(160 144)">
        <mask id="v" fill="#fff">
          <use xlink:href="#u"/>
        </mask>
        <path d="M60.885 35.198s-.38-2.844-2.935-2.062c-1.09.333-1.697 1.164-1.697 1.164s.508 2.165 1.525 1.92c1.774-.423 3.107-1.022 3.107-1.022z" stroke="#52267D" mask="url(#v)"/>
      </g>
      <g transform="translate(160 144)">
        <mask id="x" fill="#fff">
          <use xlink:href="#w"/>
        </mask>
        <path d="M53.466 49.004s-5.955-3.237-4.822-8.686c-.79.651-2.906 2.638-3.672 3.654 0 1.066-.195 5.303 5.653 8.139 1.03-1.066 1.895-2.397 2.841-3.107" fill="#FFF" mask="url(#x)"/>
      </g>
      <g transform="translate(160 144)">
        <mask id="z" fill="#fff">
          <use xlink:href="#y"/>
        </mask>
        <path d="M53.466 49.004s-5.955-3.237-4.822-8.686c-.79.651-2.906 2.638-3.672 3.654 0 1.066-.195 5.303 5.653 8.139 1.03-1.066 1.895-2.397 2.841-3.107z" stroke="#52267D" mask="url(#z)"/>
      </g>
      <g transform="translate(160 144)">
        <mask id="B" fill="#fff">
          <use xlink:href="#A"/>
        </mask>
        <path d="M70.492 35.758s.002-.975-.966-1.36l-.834-.339s-.577 1.22.076 1.526c.94.443 1.724.173 1.724.173" fill="#F3E3FF" mask="url(#B)"/>
      </g>
      <g transform="translate(160 144)">
        <mask id="D" fill="#fff">
          <use xlink:href="#C"/>
        </mask>
        <path d="M65.39 34.373s-.027-1.308-1.498-1.498c-.274-.036-.99-.02-.99-.02s-.33 1.385.445 1.518c.953.163 2.043 0 2.043 0" fill="#F3E3FF" mask="url(#D)"/>
      </g>
      <g transform="translate(160 144)">
        <mask id="F" fill="#fff">
          <use xlink:href="#E"/>
        </mask>
        <path d="M59.966 34.994s-.2-1.51-1.557-1.095c-.579.178-.9.617-.9.617s.27 1.15.81 1.02c.94-.225 1.647-.542 1.647-.542" fill="#F3E3FF" mask="url(#F)"/>
      </g>
      <g transform="translate(160 144)">
        <mask id="H" fill="#fff">
          <use xlink:href="#G"/>
        </mask>
        <path d="M61.498 46.103h5.446a4.966 4.966 0 0 0-4.968-4.966h-.478a2.483 2.483 0 0 0 0 4.966" fill="#F3E3FF" mask="url(#H)"/>
      </g>
      <g transform="translate(160 144)">
        <mask id="J" fill="#fff">
          <use xlink:href="#I"/>
        </mask>
        <path d="M61.956 46.01h4.894a3.902 3.902 0 0 0-3.902-3.9h-.992a1.95 1.95 0 1 0 0 3.9" fill="#FFF" mask="url(#J)"/>
      </g>
      <g transform="translate(160 144)">
        <mask id="L" fill="#fff">
          <use xlink:href="#K"/>
        </mask>
        <path d="M61.956 46.01h4.894a3.902 3.902 0 0 0-3.902-3.9h-.992a1.95 1.95 0 1 0 0 3.9z" stroke="#52267D" mask="url(#L)"/>
      </g>
      <g transform="translate(160 144)">
        <mask id="N" fill="#fff">
          <use xlink:href="#M"/>
        </mask>
        <path d="M65.963 43.945a1.09 1.09 0 1 1-2.178.001 1.09 1.09 0 0 1 2.178-.001" fill="#52267D" mask="url(#N)"/>
      </g>
      <g transform="translate(160 144)">
        <mask id="P" fill="#fff">
          <use xlink:href="#O"/>
        </mask>
        <path d="M73.987 47.09a1.358 1.358 0 0 1-.783-.487l-.365-.46.813.175.479.102a.343.343 0 0 1-.144.67" fill="#52267D" mask="url(#P)"/>
      </g>
      <g transform="translate(160 144)">
        <mask id="R" fill="#fff">
          <use xlink:href="#Q"/>
        </mask>
        <path d="M52.46 49.11s-4.588-2.47-4.518-7.445c-1.97 1.436-2.505 2.364-2.505 2.364s.343 2.369 1.447 3.564c1.694 1.835 3.46 2.4 5.576 1.518" fill="#E1F2FF" mask="url(#R)"/>
      </g>
      <g transform="translate(160 144)">
        <mask id="T" fill="#fff">
          <use xlink:href="#S"/>
        </mask>
        <path d="M48.117 48.237s1.81 1.84 3.574 2.724" fill="#FFF" mask="url(#T)"/>
        <path d="M48.117 48.237s1.81 1.84 3.574 2.724" stroke="#52267D" mask="url(#T)"/>
      </g>
      <g transform="translate(160 144)">
        <mask id="V" fill="#fff">
          <use xlink:href="#U"/>
        </mask>
        <path d="M30.125 67.585l1.023-2.017c3.817-9.38 4.405-14.89 2.426-23.843l-1.16-5.245a24.322 24.322 0 0 1-.573-5.242c0-5.875 4.764-10.636 10.637-10.636h1.718c5.794 0 10.492 4.697 10.492 10.49v.302a2.497 2.497 0 0 1-2.498 2.495H41.318l1.648 9.453c5.047 25.33 4.541 35.6-5.39 33.49" fill="#9452BA" mask="url(#V)"/>
        <path d="M30.125 67.585l1.023-2.017c3.817-9.38 4.405-14.89 2.426-23.843l-1.16-5.245a24.322 24.322 0 0 1-.573-5.242c0-5.875 4.764-10.636 10.637-10.636h1.718c5.794 0 10.492 4.697 10.492 10.49v.302a2.497 2.497 0 0 1-2.498 2.495H41.318l1.648 9.453c5.047 25.33 4.541 35.6-5.39 33.49" stroke="#52267D" stroke-width="2" mask="url(#V)"/>
      </g>
      <g transform="translate(160 144)">
        <mask id="X" fill="#fff">
          <use xlink:href="#W"/>
        </mask>
        <path d="M49.445 21.86s-.175-1.844-2.007-2.576c-.56-.224-1.434.013-1.434.013s-1.058 1.655.178 2.237c1.78.838 3.263.326 3.263.326" fill="#FFF" mask="url(#X)"/>
      </g>
      <g transform="translate(160 144)">
        <mask id="Z" fill="#fff">
          <use xlink:href="#Y"/>
        </mask>
        <path d="M49.445 21.86s-.175-1.844-2.007-2.576c-.56-.224-1.434.013-1.434.013s-1.058 1.655.178 2.237c1.78.838 3.263.326 3.263.326z" stroke="#52267D" mask="url(#Z)"/>
      </g>
      <g transform="translate(160 144)">
        <mask id="ab" fill="#fff">
          <use xlink:href="#aa"/>
        </mask>
        <path d="M45.083 21.252s-.061-2.904-3.328-3.328c-.61-.078-1.392-.02-1.392-.02s-1.54 3.052.182 3.348c2.117.363 4.538 0 4.538 0" fill="#FFF" mask="url(#ab)"/>
      </g>
      <g transform="translate(160 144)">
        <mask id="ad" fill="#fff">
          <use xlink:href="#ac"/>
        </mask>
        <path d="M45.083 21.252s-.061-2.904-3.328-3.328c-.61-.078-1.392-.02-1.392-.02s-1.54 3.052.182 3.348c2.117.363 4.538 0 4.538 0z" stroke="#52267D" mask="url(#ad)"/>
      </g>
      <g transform="translate(160 144)">
        <mask id="af" fill="#fff">
          <use xlink:href="#ae"/>
        </mask>
        <path d="M39.238 21.913s-.443-2.776-2.926-1.947c-1.06.354-1.634 1.18-1.634 1.18s.553 2.11 1.542 1.846a19.125 19.125 0 0 0 3.018-1.08" fill="#FFF" mask="url(#af)"/>
      </g>
      <g transform="translate(160 144)">
        <mask id="ah" fill="#fff">
          <use xlink:href="#ag"/>
        </mask>
        <path d="M39.238 21.913s-.443-2.776-2.926-1.947c-1.06.354-1.634 1.18-1.634 1.18s.553 2.11 1.542 1.846a19.125 19.125 0 0 0 3.018-1.08z" stroke="#52267D" mask="url(#ah)"/>
      </g>
      <g transform="translate(160 144)">
        <mask id="aj" fill="#fff">
          <use xlink:href="#ai"/>
        </mask>
        <path d="M49.267 71.609a4.912 4.912 0 0 0-1.787-.861" fill="#F3E3FF" mask="url(#aj)"/>
        <path d="M49.267 71.609a4.912 4.912 0 0 0-1.787-.861" stroke="#52267D" mask="url(#aj)"/>
      </g>
      <g transform="translate(160 144)">
        <mask id="al" fill="#fff">
          <use xlink:href="#ak"/>
        </mask>
        <path d="M45.666 71.551c1.778-7.222-1.428-21.029-2.018-24.428l-2.335-13.615H40.29c-1.295 0-2.276 1.41-2.093 2.694l1.692 11.81c.572 4 1.168 22.514-5.78 26.491-1.483.85-3.893.292-4.8-.14-3.303-1.579-4.252-5.697-4.976-9.016-1.497-6.869-.33-12.262 0-17.647l.35-6.737c.061-1.218-.907-2.51-2.123-2.51h-1.242L19.08 52.068c-.672 3.877-2.402 17.321 5.52 23.625.143.114-1.927.577-1.328 1.637 2.384 4.212 9.29 4.878 10.588 6.682 5.008 6.944.319 21.74.319 21.74s5.556-2.218 8.998-5.303c8.047-7.21 9.069-17.657 9.105-20.733.045-3.679-.922-5.96-2.11-7.322" fill="#F3E3FF" mask="url(#al)"/>
        <path d="M45.666 71.551c1.778-7.222-1.428-21.029-2.018-24.428l-2.335-13.615H40.29c-1.295 0-2.276 1.41-2.093 2.694l1.692 11.81c.572 4 1.168 22.514-5.78 26.491-1.483.85-3.893.292-4.8-.14-3.303-1.579-4.252-5.697-4.976-9.016-1.497-6.869-.33-12.262 0-17.647l.35-6.737c.061-1.218-.907-2.51-2.123-2.51h-1.242L19.08 52.068c-.672 3.877-2.402 17.321 5.52 23.625.143.114-1.927.577-1.328 1.637 2.384 4.212 9.29 4.878 10.588 6.682 5.008 6.944.319 21.74.319 21.74s5.556-2.218 8.998-5.303c8.047-7.21 9.069-17.657 9.105-20.733.045-3.679-.922-5.96-2.11-7.322" stroke="#52267D" mask="url(#al)"/>
      </g>
      <g transform="translate(160 144)">
        <mask id="an" fill="#fff">
          <use xlink:href="#am"/>
        </mask>
        <path d="M-19.648 77.576s-1.143-1.266-.5-2.966c.196-.518.902-.966.902-.966s1.783.312 1.408 1.514c-.539 1.73-1.81 2.418-1.81 2.418" fill="#FFF" mask="url(#an)"/>
      </g>
      <g transform="translate(160 144)">
        <mask id="ap" fill="#fff">
          <use xlink:href="#ao"/>
        </mask>
        <path d="M-19.648 77.576s-1.143-1.266-.5-2.966c.196-.518.902-.966.902-.966s1.783.312 1.408 1.514c-.539 1.73-1.81 2.418-1.81 2.418z" stroke="#52267D" mask="url(#ap)"/>
      </g>
      <g transform="translate(160 144)">
        <mask id="ar" fill="#fff">
          <use xlink:href="#aq"/>
        </mask>
        <path d="M-19.27 75.817s-.4-.444-.175-1.041c.069-.182.317-.338.317-.338s.625.108.493.53c-.19.607-.634.849-.634.849" fill="#F3E3FF" mask="url(#ar)"/>
      </g>
      <g transform="translate(160 144)">
        <mask id="at" fill="#fff">
          <use xlink:href="#as"/>
        </mask>
        <path d="M41.843 36.829s-3.873 2.189-9.318.213a3176.75 3176.75 0 0 0 1.134 5.084s5.045 1.547 8.937-.901c-.399-2.242-.753-4.396-.753-4.396" fill="#FFF" mask="url(#at)"/>
      </g>
      <g transform="translate(160 144)">
        <mask id="av" fill="#fff">
          <use xlink:href="#au"/>
        </mask>
        <path d="M41.843 36.829s-3.873 2.189-9.318.213a3176.75 3176.75 0 0 0 1.134 5.084s5.045 1.547 8.937-.901c-.399-2.242-.753-4.396-.753-4.396z" stroke="#52267D" mask="url(#av)"/>
      </g>
      <g transform="translate(160 144)">
        <mask id="ax" fill="#fff">
          <use xlink:href="#aw"/>
        </mask>
        <path d="M12.864 26.987s.177-1.857 2.022-2.596c.563-.224 2.083-.286 2.083-.286s.428 1.968-.817 2.554c-1.793.844-3.288.328-3.288.328" fill="#FFF" mask="url(#ax)"/>
      </g>
      <g transform="translate(160 144)">
        <mask id="az" fill="#fff">
          <use xlink:href="#ay"/>
        </mask>
        <path d="M12.864 26.987s.177-1.857 2.022-2.596c.563-.224 2.083-.286 2.083-.286s.428 1.968-.817 2.554c-1.793.844-3.288.328-3.288.328z" stroke="#52267D" mask="url(#az)"/>
      </g>
      <g transform="translate(160 144)">
        <mask id="aB" fill="#fff">
          <use xlink:href="#aA"/>
        </mask>
        <path d="M17.546 26.039s.053-2.531 2.9-2.9c.532-.07 1.213-.017 1.213-.017s1.344 2.659-.158 2.917c-1.846.316-3.955 0-3.955 0" fill="#FFF" mask="url(#aB)"/>
      </g>
      <g transform="translate(160 144)">
        <mask id="aD" fill="#fff">
          <use xlink:href="#aC"/>
        </mask>
        <path d="M17.546 26.039s.053-2.531 2.9-2.9c.532-.07 1.213-.017 1.213-.017s1.344 2.659-.158 2.917c-1.846.316-3.955 0-3.955 0z" stroke="#52267D" mask="url(#aD)"/>
      </g>
      <g transform="translate(160 144)">
        <mask id="aF" fill="#fff">
          <use xlink:href="#aE"/>
        </mask>
        <path d="M22.94 26.222s.447-2.797 2.948-1.96a3.523 3.523 0 0 1 1.646 1.19s-.556 2.124-1.553 1.858c-1.74-.464-3.04-1.088-3.04-1.088" fill="#FFF" mask="url(#aF)"/>
      </g>
      <g transform="translate(160 144)">
        <mask id="aH" fill="#fff">
          <use xlink:href="#aG"/>
        </mask>
        <path d="M22.94 26.222s.447-2.797 2.948-1.96a3.523 3.523 0 0 1 1.646 1.19s-.556 2.124-1.553 1.858c-1.74-.464-3.04-1.088-3.04-1.088z" stroke="#52267D" mask="url(#aH)"/>
      </g>
      <g transform="translate(160 144)">
        <mask id="aJ" fill="#fff">
          <use xlink:href="#aI"/>
        </mask>
        <path d="M48.485 21.394s-.093-.985-1.071-1.377c-.3-.119-.767.008-.767.008s-.565.884.096 1.194c.95.447 1.742.175 1.742.175" fill="#F3E3FF" mask="url(#aJ)"/>
      </g>
      <g transform="translate(160 144)">
        <mask id="aL" fill="#fff">
          <use xlink:href="#aK"/>
        </mask>
        <path d="M44.007 20.763s-.038-1.82-2.086-2.086c-.382-.05-.873-.012-.873-.012s-.966 1.913.114 2.098c1.327.228 2.845 0 2.845 0" fill="#F3E3FF" mask="url(#aL)"/>
      </g>
      <g transform="translate(160 144)">
        <mask id="aN" fill="#fff">
          <use xlink:href="#aM"/>
        </mask>
        <path d="M38.16 21.633s-.256-1.603-1.688-1.124a2.022 2.022 0 0 0-.944.683s.319 1.216.89 1.064a11.077 11.077 0 0 0 1.742-.623" fill="#F3E3FF" mask="url(#aN)"/>
      </g>
      <g transform="translate(160 144)">
        <mask id="aP" fill="#fff">
          <use xlink:href="#aO"/>
        </mask>
        <path d="M13.78 26.512s.094-.98 1.069-1.372c.298-.119 1.102-.15 1.102-.15s.226 1.04-.432 1.35c-.948.444-1.738.172-1.738.172" fill="#F3E3FF" mask="url(#aP)"/>
      </g>
      <g transform="translate(160 144)">
        <mask id="aR" fill="#fff">
          <use xlink:href="#aQ"/>
        </mask>
        <path d="M18.652 25.592s.029-1.399 1.604-1.604c.293-.038.67-.008.67-.008s.743 1.47-.087 1.612c-1.021.175-2.187 0-2.187 0" fill="#F3E3FF" mask="url(#aR)"/>
      </g>
      <g transform="translate(160 144)">
        <mask id="aT" fill="#fff">
          <use xlink:href="#aS"/>
        </mask>
        <path d="M23.936 26.032s.244-1.53 1.612-1.072c.585.195.901.65.901.65s-.304 1.163-.85 1.018c-.952-.254-1.663-.596-1.663-.596" fill="#F3E3FF" mask="url(#aT)"/>
      </g>
      <g transform="translate(160 144)">
        <mask id="aV" fill="#fff">
          <use xlink:href="#aU"/>
        </mask>
        <path d="M30.269 41.625s-4.796.748-9.357-.371c-.446 2.478-.731 4.35-.731 4.35s3.164 2.148 9.009.902c.689-3.184 1.079-4.881 1.079-4.881" fill="#FFF" mask="url(#aV)"/>
      </g>
      <g transform="translate(160 144)">
        <mask id="aX" fill="#fff">
          <use xlink:href="#aW"/>
        </mask>
        <path d="M30.269 41.625s-4.796.748-9.357-.371c-.446 2.478-.731 4.35-.731 4.35s3.164 2.148 9.009.902c.689-3.184 1.079-4.881 1.079-4.881z" stroke="#52267D" mask="url(#aX)"/>
      </g>
      <g transform="translate(160 144)">
        <mask id="aZ" fill="#fff">
          <use xlink:href="#aY"/>
        </mask>
        <path d="M22.336 36.807h-5.445a4.966 4.966 0 0 1 4.966-4.966h.48a2.483 2.483 0 0 1 0 4.966" fill="#F3E3FF" mask="url(#aZ)"/>
      </g>
      <g transform="translate(160 144)">
        <mask id="bb" fill="#fff">
          <use xlink:href="#ba"/>
        </mask>
        <path d="M21.74 36.713h-4.755a3.901 3.901 0 0 1 3.9-3.9h1.13c1.002 0 1.814.81 1.814 1.812a2.09 2.09 0 0 1-2.09 2.088" fill="#FFF" mask="url(#bb)"/>
      </g>
      <g transform="translate(160 144)">
        <mask id="bd" fill="#fff">
          <use xlink:href="#bc"/>
        </mask>
        <path d="M21.74 36.713h-4.755a3.901 3.901 0 0 1 3.9-3.9h1.13c1.002 0 1.814.81 1.814 1.812a2.09 2.09 0 0 1-2.09 2.088z" stroke="#52267D" mask="url(#bd)"/>
      </g>
      <g transform="translate(160 144)">
        <mask id="bf" fill="#fff">
          <use xlink:href="#be"/>
        </mask>
        <path d="M20.738 34.8a1.09 1.09 0 1 0-1.96-.952 1.09 1.09 0 0 0 1.96.952" fill="#52267D" mask="url(#bf)"/>
      </g>
      <g transform="translate(160 144)">
        <mask id="bh" fill="#fff">
          <use xlink:href="#bg"/>
        </mask>
        <path d="M41.18 32.1h5.444a4.966 4.966 0 0 0-4.966-4.968h-.479a2.484 2.484 0 0 0 0 4.967" fill="#F3E3FF" mask="url(#bh)"/>
      </g>
      <g transform="translate(160 144)">
        <mask id="bj" fill="#fff">
          <use xlink:href="#bi"/>
        </mask>
        <path d="M41.638 32.005h4.893a3.902 3.902 0 0 0-3.902-3.9h-.992a1.95 1.95 0 1 0 .001 3.9" fill="#FFF" mask="url(#bj)"/>
      </g>
      <g transform="translate(160 144)">
        <mask id="bl" fill="#fff">
          <use xlink:href="#bk"/>
        </mask>
        <path d="M41.638 32.005h4.893a3.902 3.902 0 0 0-3.902-3.9h-.992a1.95 1.95 0 1 0 .001 3.9z" stroke="#52267D" mask="url(#bl)"/>
      </g>
      <g transform="translate(160 144)">
        <mask id="bn" fill="#fff">
          <use xlink:href="#bm"/>
        </mask>
        <path d="M44.776 29.58a1.09 1.09 0 1 1-2.18 0 1.09 1.09 0 0 1 2.18 0" fill="#52267D" mask="url(#bn)"/>
      </g>
      <g transform="translate(160 144)">
        <mask id="bp" fill="#fff">
          <use xlink:href="#bo"/>
        </mask>
        <path d="M10.33 37.94c.31-.066.588-.238.784-.486l.365-.459-.812.174-.48.103a.341.341 0 1 0 .144.668" fill="#52267D" mask="url(#bp)"/>
      </g>
      <g transform="translate(160 144)">
        <mask id="br" fill="#fff">
          <use xlink:href="#bq"/>
        </mask>
        <path d="M52.336 32.844a1.364 1.364 0 0 1-.784-.486l-.365-.459.813.174.48.102a.342.342 0 0 1-.144.67" fill="#52267D" mask="url(#br)"/>
      </g>
      <g transform="translate(160 144)">
        <mask id="bt" fill="#fff">
          <use xlink:href="#bs"/>
        </mask>
        <path d="M41.378 37.536s-4.059 1.729-8.15.148c.427 2.402.81 3.628.81 3.628s2.463.145 4.094-.176c2.33-.46 3.246-1.518 3.246-3.6" fill="#E1F2FF" mask="url(#bt)"/>
      </g>
      <g transform="translate(160 144)">
        <mask id="bv" fill="#fff">
          <use xlink:href="#bu"/>
        </mask>
        <path d="M35.732 40.614s3.693.309 6.552-1.174" fill="#FFF" mask="url(#bv)"/>
        <path d="M35.732 40.614s3.693.309 6.552-1.174" stroke="#52267D" mask="url(#bv)"/>
      </g>
      <g transform="translate(160 144)">
        <mask id="bx" fill="#fff">
          <use xlink:href="#bw"/>
        </mask>
        <path d="M22.668 42.166s3.6 1.023 6.776.389c-.6 2.364-.918 3.105-.918 3.105s-4.764-.636-5.858-3.494" fill="#E1F2FF" mask="url(#bx)"/>
      </g>
      <g transform="translate(160 144)">
        <mask id="bz" fill="#fff">
          <use xlink:href="#by"/>
        </mask>
        <path d="M22.322 43.527s3.623.687 7.47.228" fill="#FFF" mask="url(#bz)"/>
        <path d="M22.322 43.527s3.623.687 7.47.228" stroke="#52267D" mask="url(#bz)"/>
      </g>
      <g transform="translate(160 144)">
        <mask id="bB" fill="#fff">
          <use xlink:href="#bA"/>
        </mask>
        <path d="M72.867 43.487a.535.535 0 1 1-1.071 0" stroke="#F3E3FF" stroke-width=".25" mask="url(#bB)"/>
      </g>
      <g transform="translate(160 144)">
        <mask id="bD" fill="#fff">
          <use xlink:href="#bC"/>
        </mask>
        <path d="M73.939 43.487a.536.536 0 0 1-1.072 0" stroke="#F3E3FF" stroke-width=".25" mask="url(#bD)"/>
      </g>
      <g transform="translate(160 144)">
        <mask id="bF" fill="#fff">
          <use xlink:href="#bE"/>
        </mask>
        <path d="M73.403 44.023a.535.535 0 0 1-1.071 0" stroke="#F3E3FF" stroke-width=".25" mask="url(#bF)"/>
      </g>
      <g transform="translate(160 144)">
        <mask id="bH" fill="#fff">
          <use xlink:href="#bG"/>
        </mask>
        <path d="M52.336 42.985a.79.79 0 0 1-.833-1.342" stroke="#F3E3FF" stroke-width=".25" mask="url(#bH)"/>
      </g>
      <g transform="translate(160 144)">
        <mask id="bJ" fill="#fff">
          <use xlink:href="#bI"/>
        </mask>
        <path d="M52.083 44.073a.79.79 0 0 1-.834-1.342" stroke="#F3E3FF" stroke-width=".25" mask="url(#bJ)"/>
      </g>
      <g transform="translate(160 144)">
        <mask id="bL" fill="#fff">
          <use xlink:href="#bK"/>
        </mask>
        <path d="M26.91 60.985a.72.72 0 0 1-1.437 0" stroke="#F3E3FF" stroke-width=".25" mask="url(#bL)"/>
      </g>
      <g transform="translate(160 144)">
        <mask id="bN" fill="#fff">
          <use xlink:href="#bM"/>
        </mask>
        <path d="M28.347 60.985a.72.72 0 0 1-1.437 0" stroke="#F3E3FF" stroke-width=".25" mask="url(#bN)"/>
      </g>
      <g transform="translate(160 144)">
        <mask id="bP" fill="#fff">
          <use xlink:href="#bO"/>
        </mask>
        <path d="M27.628 61.704a.719.719 0 0 1-1.437 0" stroke="#F3E3FF" stroke-width=".25" mask="url(#bP)"/>
      </g>
      <g transform="translate(160 144)">
        <mask id="bR" fill="#fff">
          <use xlink:href="#bQ"/>
        </mask>
        <path d="M28.023 38.08a.79.79 0 0 1-1.58 0" stroke="#F3E3FF" stroke-width=".25" mask="url(#bR)"/>
      </g>
      <g transform="translate(160 144)">
        <mask id="bT" fill="#fff">
          <use xlink:href="#bS"/>
        </mask>
        <path d="M28.812 38.87a.79.79 0 1 1-1.579 0" stroke="#F3E3FF" stroke-width=".25" mask="url(#bT)"/>
      </g>
      <g transform="translate(160 144)">
        <mask id="bV" fill="#fff">
          <use xlink:href="#bU"/>
        </mask>
        <path d="M38.117 52.027a.96.96 0 0 1-1.92 0" stroke="#F3E3FF" stroke-width=".25" mask="url(#bV)"/>
      </g>
      <g transform="translate(160 144)">
        <mask id="bX" fill="#fff">
          <use xlink:href="#bW"/>
        </mask>
        <path d="M39.076 52.987a.96.96 0 0 1-1.92 0" stroke="#F3E3FF" stroke-width=".25" mask="url(#bX)"/>
      </g>
      <g transform="translate(160 144)">
        <mask id="bZ" fill="#fff">
          <use xlink:href="#bY"/>
        </mask>
        <path d="M52.054 28.17a.642.642 0 0 1-1.283 0" stroke="#F3E3FF" stroke-width=".25" mask="url(#bZ)"/>
      </g>
      <g transform="translate(160 144)">
        <mask id="cb" fill="#fff">
          <use xlink:href="#ca"/>
        </mask>
        <path d="M52.696 28.812a.642.642 0 0 1-1.283 0" stroke="#F3E3FF" stroke-width=".25" mask="url(#cb)"/>
      </g>
      <g transform="translate(160 144)">
        <mask id="cd" fill="#fff">
          <use xlink:href="#cc"/>
        </mask>
        <path d="M36.113 34.658a.875.875 0 0 1-1.75 0" stroke="#F3E3FF" stroke-width=".25" mask="url(#cd)"/>
      </g>
      <g transform="translate(160 144)">
        <mask id="cf" fill="#fff">
          <use xlink:href="#ce"/>
        </mask>
        <path d="M36.416 67.71a.875.875 0 0 1-1.75 0" stroke="#F3E3FF" stroke-width=".25" mask="url(#cf)"/>
      </g>
      <g transform="translate(160 144)">
        <mask id="ch" fill="#fff">
          <use xlink:href="#cg"/>
        </mask>
        <path d="M26.503 49.49a.663.663 0 0 1-1.325 0" stroke="#F3E3FF" stroke-width=".25" mask="url(#ch)"/>
      </g>
      <g transform="translate(160 144)">
        <mask id="cj" fill="#fff">
          <use xlink:href="#ci"/>
        </mask>
        <path d="M10.724 34.433a.498.498 0 0 1-.994 0" stroke="#F3E3FF" stroke-width=".25" mask="url(#cj)"/>
      </g>
    </g>
    <g>
      <path d="M107.724 204.695s1.666-.466 2.666-1.3" stroke="#ACD3EF" stroke-width="2" stroke-linecap="round"/>
      <path d="M238.048 207.565h-16.057c.598-2.047.932-4.208.932-6.449 0-12.711-10.305-23.015-23.016-23.015-10.13 0-18.725 6.548-21.8 15.64a15.462 15.462 0 0 0-3.364-.373c-8.095 0-14.716 6.258-15.322 14.197l-13.717.036c-.536-9.607-7.946-17.377-17.404-18.44-3.059-14.837-16.194-25.992-31.937-25.992-10.709 0-20.21 5.162-26.155 13.132a26.503 26.503 0 0 0-6.454-.797c-14.603 0-26.44 11.838-26.44 26.442 0 1.942.214 3.833.613 5.655h-16.26" fill="#FFF"/>
      <path d="M238.048 207.565h-16.057c.598-2.047.932-4.208.932-6.449 0-12.711-10.305-23.015-23.016-23.015-10.13 0-18.725 6.548-21.8 15.64a15.462 15.462 0 0 0-3.364-.373c-8.095 0-14.716 6.258-15.322 14.197l-13.717.036c-.536-9.607-7.946-17.377-17.404-18.44-3.059-14.837-16.194-25.992-31.937-25.992-10.709 0-20.21 5.162-26.155 13.132a26.503 26.503 0 0 0-6.454-.797c-14.603 0-26.44 11.838-26.44 26.442 0 1.942.214 3.833.613 5.655h-16.26" stroke="#ACD3EF" stroke-width="2" stroke-linecap="round"/>
      <path d="M226.046 101.553v7M229.546 105.053h-7M40.277 59.222v7M43.777 62.722h-7" stroke="#5E63B6" stroke-width="2" stroke-linecap="round" stroke-linejoin="round"/>
      <path d="M163.904 17.024v3.938M165.873 18.993h-3.938M26.995 146.066v3.938M28.963 148.035h-3.938M203.319 146.537v3.938M205.288 148.505h-3.938" stroke="#5E63B6" stroke-linecap="round"/>
      <path d="M149.72 157.254c6.213 0 11.25 5.037 11.25 11.251 0 2.047-.555 3.96-1.51 5.614l.697 2.605.813 3.032-3.032-.813-2.605-.698a11.175 11.175 0 0 1-5.614 1.511c-6.214 0-11.25-5.037-11.25-11.25 0-6.215 5.036-11.252 11.25-11.252" fill="#FFF"/>
      <path d="M153.38 169.078a1.305 1.305 0 1 0 2.611 0 1.305 1.305 0 0 0-2.61 0M148.415 169.078a1.305 1.305 0 1 0 2.61 0 1.305 1.305 0 0 0-2.61 0M143.449 169.078a1.305 1.305 0 1 0 2.61 0 1.305 1.305 0 0 0-2.61 0" fill="#E1F2FF"/>
      <path d="M185.636 138.229a100.056 100.056 0 0 1-42.324.105l-21.66-4.63a111.284 111.284 0 0 0-44.408-.433l-1.685.326V66.594a111.278 111.278 0 0 1 45.637.299l21.012 4.546a100.056 100.056 0 0 0 40.91.294l2.518-.507v67.003z" fill="#FFF"/>
      <path d="M185.636 138.229a100.056 100.056 0 0 1-42.324.105l-21.66-4.63a111.284 111.284 0 0 0-44.408-.433l-1.685.326V66.594a111.278 111.278 0 0 1 45.637.299l21.012 4.546a100.056 100.056 0 0 0 40.91.294l2.518-.507v67.003z" stroke="#5E63B6" stroke-width="2" stroke-linecap="round" stroke-linejoin="round"/>
      <path d="M81.617 131.385a69.453 69.453 0 0 0-4.848.996l-1.3.316V67.885a70.448 70.448 0 0 1 6.236-1.287c-.088 2.721-.088 53.986-.088 64.787M145.395 106.112c0 9.735-7.893 17.629-17.629 17.629s-17.629-7.894-17.629-17.63c0-9.735 7.893-17.628 17.629-17.628s17.629 7.893 17.629 17.629" fill="#E1F2FF"/>
      <path d="M149.547 102.79c0 9.735-7.893 17.629-17.628 17.629-9.736 0-17.629-7.894-17.629-17.63 0-9.735 7.893-17.628 17.63-17.628 9.734 0 17.627 7.893 17.627 17.629" fill="#FFF"/>
      <path d="M149.547 102.79c0 9.735-7.893 17.629-17.628 17.629-9.736 0-17.629-7.894-17.629-17.63 0-9.735 7.893-17.628 17.63-17.628 9.734 0 17.627 7.893 17.627 17.629z" stroke="#5E63B6" stroke-width="2"/>
      <path d="M137.565 111.687c.078.23.146.386.166.437.007.006-.006-.002 0 0 0 0 0 .002 0 0h-.001c-.52-5.013 2.324-7.102 3.238-10.432a.925.925 0 0 1 .03-.164c.018-.075.034-.152.045-.229.136-.922-.242-1.994-.957-3.11l-.011-.019a10.3 10.3 0 0 0-.185-.278s-.003-.002-.003-.004a14.074 14.074 0 0 0-.374-.513c-.013-.017-.026-.036-.04-.052l-.111-.14c-.038-.05-.076-.099-.114-.145l-.118-.14-.122-.146-.088-.1c-1.124-1.294-2.585-2.573-4.112-3.686 0 0-.012-.016 0 0 .202 1.887.228 3.774.049 5.283-.216 1.82-.866 3.936-1.77 5.855-2.113-.173-4.274-.663-5.96-1.382-1.408-.6-3.021-1.55-4.564-2.677.017.157.036.312.054.468l.018.14c.015.112.029.222.046.334.006.052.014.102.022.154l.05.334.023.136.072.42.007.041a24.365 24.365 0 0 0 .208 1.037l.09.39a.767.767 0 0 1 .019.075c.037.148.073.297.112.443v.002c.126.471.262.926.41 1.361l.006.016c.25.73.536 1.4.855 1.986.047.085.095.17.143.25.003.003.003.007.005.01.044.075.089.15.133.22l.006.008c.048.077.097.151.147.222v.001l.02.03v.001c.066.093.132.183.198.27l.034.04c.003.006.008.01.012.017a4.896 4.896 0 0 0 .404.452l.073.07.108.098.083.067c.035.03.07.056.106.084.027.021.055.04.084.06.037.026.072.051.109.075l.085.053.116.066.082.041c.044.022.088.041.134.061.022.007.045.02.069.028.068.027.137.051.207.07.047.014.087.03.125.043 3.346.884 6.606-.517 10.693 2.405" fill="#9452BA"/>
      <path d="M154.288 118.037v14.804" fill="#FFF"/>
      <path d="M154.288 118.037v14.804" stroke="#E1F2FF" stroke-width="2" stroke-linecap="round" stroke-linejoin="round"/>
      <g>
        <path d="M99.624 85.807v23.53" fill="#FFF"/>
        <path d="M99.624 85.807v23.53" stroke="#E1F2FF" stroke-width="2" stroke-linecap="round" stroke-linejoin="round"/>
      </g>
      <path d="M79.936 194c1.832 3.37-15.012-.253-15.012-.253s1.642-4.301 5.815-4.68c4.217-.381 7.238 1.328 9.197 4.933" fill="#E1F2FF"/>
    </g>
    <g>
      <g transform="translate(60 39)">
        <mask id="cl" fill="#fff">
          <use xlink:href="#ck"/>
        </mask>
        <path d="M12.503 167.405h-.382c-1 0-1.81-.811-1.81-1.811V18.923c0-1 .81-1.811 1.81-1.811h.382c1.001 0 1.812.81 1.812 1.81v146.672c0 1-.81 1.81-1.812 1.81" fill="#FFF" mask="url(#cl)"/>
      </g>
      <g transform="translate(60 39)">
        <mask id="cn" fill="#fff">
          <use xlink:href="#cm"/>
        </mask>
        <path d="M12.503 167.405h-.382c-1 0-1.81-.811-1.81-1.811V18.923c0-1 .81-1.811 1.81-1.811h.382c1.001 0 1.812.81 1.812 1.81v146.672c0 1-.81 1.81-1.812 1.81z" stroke="#5E63B6" stroke-width="2" stroke-linecap="round" stroke-linejoin="round" mask="url(#cn)"/>
      </g>
    </g>
    <g stroke="#ACD3EF" stroke-linecap="round" stroke-width="2">
      <path d="M65.52 193.596s6.35 4.154 14.416.403M80.747 197.75s.614-.217 1.52-.69"/>
    </g>
  </g>
</svg>
