<?xml version="1.0" encoding="utf-8"?>
<svg width="730px" height="88.208333333333px" viewBox="0 0.979 744.35 86.021" fill="none" xmlns="http://www.w3.org/2000/svg" xmlns:bx="https://boxy-svg.com" preserveAspectRatio="none"><defs/><path d="M471.927 73.0354C465.811 79.072 458.344 82.0903 449.528 82.0903C440.711 82.0903 433.245 79.072 427.129 73.0354C421.092 66.9194 418.074 59.453 418.074 50.6364C418.074 41.8198 421.092 34.3931 427.129 28.3565C433.245 22.2405 440.711 19.1825 449.528 19.1825C458.344 19.1825 465.811 22.2405 471.927 28.3565C478.043 34.3931 481.101 41.8198 481.101 50.6364C481.101 59.453 478.043 66.9194 471.927 73.0354ZM437.971 62.4316C441.068 65.5294 444.921 67.0782 449.528 67.0782C454.134 67.0782 457.987 65.5294 461.084 62.4316C464.182 59.3339 465.731 55.4021 465.731 50.6364C465.731 45.8706 464.182 41.9389 461.084 38.8412C457.987 35.7434 454.134 34.1946 449.528 34.1946C444.921 34.1946 441.068 35.7434 437.971 38.8412C434.952 41.9389 433.443 45.8706 433.443 50.6364C433.443 55.4021 434.952 59.3339 437.971 62.4316Z" fill="#230052"/><path d="M367.426 56.953C369.491 64.4193 375.091 68.1525 384.225 68.1525C390.103 68.1525 394.551 66.1668 397.569 62.1953L409.96 69.3439C404.083 77.8428 395.425 82.0923 383.987 82.0923C374.138 82.0923 366.235 79.1137 360.277 73.1565C354.32 67.1993 351.342 59.6933 351.342 50.6384C351.342 41.6629 354.281 34.1966 360.158 28.2394C366.036 22.2028 373.582 19.1845 382.796 19.1845C391.533 19.1845 398.721 22.2028 404.361 28.2394C410.08 34.276 412.939 41.7423 412.939 50.6384C412.939 52.6241 412.74 54.729 412.343 56.953H367.426ZM367.188 45.0386H397.569C396.696 40.9877 394.869 37.9694 392.089 35.9837C389.388 33.998 386.291 33.0051 382.796 33.0051C378.665 33.0051 375.25 34.0774 372.549 36.222C369.849 38.2872 368.062 41.226 367.188 45.0386Z" fill="#230052"/><path d="M323.324 19.1845C329.837 19.1845 335.199 21.3688 339.408 25.7374C343.698 30.106 345.842 36.1426 345.842 43.8472V80.4243H330.473V45.7535C330.473 41.782 329.4 38.7637 327.256 36.6986C325.111 34.554 322.252 33.4817 318.677 33.4817C314.706 33.4817 311.529 34.7128 309.146 37.1751C306.763 39.6374 305.572 43.3309 305.572 48.2555V80.4243H290.202V20.8525H305.572V27.5245C309.305 21.9645 315.222 19.1845 323.324 19.1845Z" fill="#230052"/><path d="M238.486 56.953C240.551 64.4193 246.151 68.1525 255.285 68.1525C261.163 68.1525 265.611 66.1668 268.629 62.1953L281.02 69.3439C275.142 77.8428 266.485 82.0923 255.047 82.0923C245.198 82.0923 237.294 79.1137 231.337 73.1565C225.38 67.1993 222.401 59.6933 222.401 50.6384C222.401 41.6629 225.34 34.1966 231.218 28.2394C237.096 22.2028 244.642 19.1845 253.855 19.1845C262.593 19.1845 269.781 22.2028 275.42 28.2394C281.139 34.276 283.999 41.7423 283.999 50.6384C283.999 52.6241 283.8 54.729 283.403 56.953H238.486ZM238.247 45.0386H268.629C267.755 40.9877 265.929 37.9694 263.149 35.9837C260.448 33.998 257.35 33.0051 253.855 33.0051C249.725 33.0051 246.31 34.0774 243.609 36.222C240.908 38.2872 239.121 41.226 238.247 45.0386Z" fill="#230052"/><path d="M226.658 80.4257H208.787L187.103 53.3801V80.4257H171.733L171.733 0.874779H187.103L187.103 47.0655L207.595 20.8539H225.943L201.996 50.2824L226.658 80.4257Z" fill="#230052"/><path d="M146.953 20.8525H162.323V80.4243H146.953V73.3948C142.346 79.1931 135.873 82.0923 127.533 82.0923C119.59 82.0923 112.759 79.074 107.04 73.0374C101.401 66.9213 98.5808 59.455 98.5808 50.6384C98.5808 41.8217 101.401 34.3951 107.04 28.3585C112.759 22.2425 119.59 19.1845 127.533 19.1845C135.873 19.1845 142.346 22.0836 146.953 27.8819V20.8525ZM118.597 62.791C121.695 65.8888 125.626 67.4376 130.392 67.4376C135.158 67.4376 139.09 65.8888 142.187 62.791C145.365 59.6139 146.953 55.563 146.953 50.6384C146.953 45.7138 145.365 41.7026 142.187 38.6049C139.09 35.4277 135.158 33.8391 130.392 33.8391C125.626 33.8391 121.695 35.4277 118.597 38.6049C115.499 41.7026 113.95 45.7138 113.95 50.6384C113.95 55.563 115.499 59.6139 118.597 62.791Z" fill="#230052"/><path fill-rule="evenodd" clip-rule="evenodd" d="M13.628 5.44095C6.45108 5.44095 0.632996 11.259 0.632996 18.436V73.665C0.632996 80.8419 6.45108 86.66 13.628 86.66H68.857C76.034 86.66 81.8521 80.8419 81.8521 73.665V18.436C81.8521 11.259 76.034 5.44095 68.857 5.44095H13.628ZM56.0787 72.1862C56.079 72.1884 56.0794 72.1906 56.0797 72.1928L56.082 72.1886C56.0809 72.1878 56.0798 72.187 56.0787 72.1862ZM56.0787 72.1862C55.9057 71.0938 55.8725 68.9565 56.0733 65.9169C56.1969 64.0471 56.6914 62.2187 57.2847 60.4412C58.2569 57.5271 59.7167 54.8311 61.1743 52.139C61.275 51.953 61.3757 51.7671 61.4762 51.5811C61.5494 51.4456 61.6232 51.3094 61.6972 51.1727C63.1545 48.4821 64.732 45.5696 65.128 42.5175C65.6746 38.2988 62.7379 34.1189 60.2154 31.0193C56.7556 26.7683 52.5248 23.1283 48.1082 19.9082C48.5234 23.9344 48.7222 28.1776 48.4311 32.2911C48.1543 36.1789 47.2921 39.9878 46.0632 43.6813C45.3848 45.7184 44.5985 47.718 43.7077 49.6716C43.4259 50.2895 43.3996 50.3052 42.7228 50.2419C42.2025 50.193 41.6827 50.1373 41.1636 50.0749C40.0675 49.9435 38.9757 49.7823 37.8882 49.5913C34.033 48.9148 30.2064 47.8866 26.6243 46.2955C22.4014 44.4215 18.436 41.9467 14.7118 39.2241C15.1468 43.3491 15.9006 47.4695 17.0645 51.4528C18.131 55.1058 19.5141 58.8302 21.8331 61.886C22.9924 63.4144 24.4538 64.7752 26.2917 65.419C27.9317 65.993 29.7054 66.2302 31.4298 66.3881C33.1438 66.5472 34.8639 66.5958 36.5841 66.6444C38.5441 66.6998 40.5042 66.7551 42.4553 66.9741C47.4103 67.5277 52.0172 69.2805 56.0787 72.1862Z" fill="#994AFF"/><path d="M 549.47 3.17 L 558.21 3.17 L 589.34 81.57 L 579.37 81.57 L 571.31 60.4 L 536.37 60.4 L 528.19 81.57 L 518.33 81.57 Z M 567.95 51.89 L 553.84 14.93 L 539.61 51.89 Z M 600.31 3.17 L 629.88 3.17 Q 637.49 3.17 643.21 6.08 Q 648.92 8.99 651.94 14.26 Q 654.97 19.52 654.97 26.35 Q 654.97 33.19 651.94 38.45 Q 648.92 43.71 643.21 46.63 Q 637.49 49.54 629.88 49.54 L 609.94 49.54 L 609.94 81.57 L 600.31 81.57 Z M 629.88 41.03 Q 637.61 41.03 641.3 36.88 Q 645 32.74 645 26.35 Q 645 19.97 641.3 15.83 Q 637.61 11.68 629.88 11.68 L 609.94 11.68 L 609.94 41.03 L 629.88 41.03 Z M 667.28 3.17 L 676.92 3.17 L 676.92 81.57 L 667.28 81.57 Z M 712.64 82.47 Q 702.79 82.47 696.96 77.48 Q 691.14 72.5 690.47 63.54 L 698.87 63.54 Q 699.43 68.8 703.01 71.77 Q 706.59 74.74 712.64 74.74 Q 718.13 74.74 721.49 72.22 Q 724.85 69.7 724.85 65.44 Q 724.85 62.31 723 60.51 Q 721.15 58.72 718.41 57.94 Q 715.67 57.15 710.85 56.37 Q 704.8 55.36 700.99 54.13 Q 697.19 52.9 694.5 49.76 Q 691.81 46.63 691.81 40.91 Q 691.81 33.52 697.41 28.87 Q 703.01 24.23 711.75 24.23 Q 721.27 24.23 726.92 28.76 Q 732.58 33.3 733.25 41.47 L 724.74 41.47 Q 724.29 36.99 720.76 34.36 Q 717.23 31.73 711.86 31.73 Q 707.15 31.73 703.85 34.08 Q 700.55 36.43 700.55 40.35 Q 700.55 43.27 702.28 44.95 Q 704.02 46.63 706.65 47.35 Q 709.28 48.08 713.99 48.75 Q 720.26 49.76 724.18 51.05 Q 728.1 52.34 730.84 55.64 Q 733.59 58.95 733.59 65.11 Q 733.59 73.06 727.99 77.76 Q 722.39 82.47 712.64 82.47 Z" style="fill: rgb(35, 0, 83); text-wrap-mode: nowrap;"/></svg>