<svg enable-background="new 0 0 1415.8 163.3" viewBox="0 0 1415.8 163.3" xmlns="http://www.w3.org/2000/svg" xmlns:xlink="http://www.w3.org/1999/xlink"><linearGradient id="a" gradientTransform="matrix(.8818 -.4717 .4717 .8818 -351.3506 121.8636)" gradientUnits="userSpaceOnUse" x1="324.0109" x2="477.1374" y1="184.7081" y2="184.7081"><stop offset=".0429448" stop-color="#5c257e"/><stop offset=".9693" stop-color="#8b4f99"/></linearGradient><linearGradient id="b"><stop offset=".0429448" stop-color="#5c257e"/><stop offset="1" stop-color="#fff"/></linearGradient><linearGradient id="c" gradientTransform="matrix(.8818 -.4717 .4717 .8818 -351.3506 121.8636)" gradientUnits="userSpaceOnUse" x1="438.8509" x2="438.8509" xlink:href="#b" y1="255.0257" y2="108.2703"/><linearGradient id="d" gradientTransform="matrix(.8818 -.4717 .4717 .8818 -351.3506 121.8636)" gradientUnits="userSpaceOnUse" x1="362.2867" x2="362.2867" xlink:href="#b" y1="255.0196" y2="108.2638"/><linearGradient id="e"><stop offset=".2331" stop-color="#4e256f"/><stop offset=".8405" stop-color="#5c257e"/></linearGradient><linearGradient id="f" gradientTransform="matrix(.8818 -.4717 .4717 .8818 -351.3506 121.8636)" gradientUnits="userSpaceOnUse" x1="362.292" x2="362.292" xlink:href="#e" y1="134.6694" y2="248.9242"/><linearGradient id="g" gradientTransform="matrix(.8818 -.4717 .4717 .8818 -351.3506 121.8636)" gradientUnits="userSpaceOnUse" x1="438.8468" x2="438.8468" xlink:href="#e" y1="134.6756" y2="248.9287"/><path d="m245 85.9c0-6.9-1.8-11.8-5.3-14.5s-8.6-4.1-15.3-4.1c-4.1 0-8 .3-11.6 1-3.6.6-7.1 1.5-10.5 2.6-2.2-3.9-3.4-8.5-3.4-13.9 4-1.3 8.4-2.3 13.2-3s9.5-1.1 13.9-1.1c11.8 0 20.7 2.7 26.8 8 6.1 5.4 9.2 13.9 9.2 25.7v56.6c-4.1.9-9.1 1.9-15 2.9s-11.9 1.5-18 1.5c-5.8 0-11-.5-15.6-1.6s-8.6-2.8-11.8-5.1c-3.2-2.4-5.7-5.4-7.5-9s-2.6-8.1-2.6-13.2 1-9.5 3.1-13.3 4.9-7 8.4-9.5 7.6-4.4 12.2-5.6 9.4-1.9 14.5-1.9c3.8 0 6.9.1 9.3.3s4.4.4 6.1.6v-3.4zm0 17.1c-1.8-.2-4-.5-6.7-.7s-5-.4-6.9-.4c-7.3 0-12.9 1.4-16.7 4.1s-5.7 6.8-5.7 12.3c0 3.5.6 6.3 1.9 8.3s2.9 3.5 4.9 4.6c1.9 1.1 4.1 1.7 6.4 1.9 2.4.2 4.6.4 6.7.4 2.7 0 5.5-.1 8.4-.4s5.4-.7 7.7-1.3z"/><path d="m287.7 16.2c1.3-.2 2.7-.4 4.3-.5s3-.2 4.3-.2 2.8.1 4.4.2 3.1.3 4.4.5v129.3c-1.3.2-2.8.4-4.4.5s-3.1.2-4.4.2-2.7-.1-4.3-.2-3-.3-4.3-.5zm17.8 82.4 33.2-43.6c1.5-.2 3.1-.4 4.6-.5s3.1-.2 4.8-.2c1.8 0 3.4.1 5 .2s3.2.3 4.9.5l-33.2 42.3 38.1 48.2c-1.6.2-3.2.4-4.8.5-1.5.1-3.1.2-4.8.2-1.6 0-3.3-.1-4.9-.2s-3.3-.3-4.9-.5z"/><path d="m388.6 104.6c.2 9.9 2.8 17.1 7.7 21.7s12.1 6.9 21.6 6.9c8.3 0 16.3-1.5 23.8-4.4.9 1.8 1.7 3.9 2.3 6.4s.9 5 1.1 7.5c-3.9 1.6-8.1 2.9-12.8 3.7-4.6.8-9.8 1.2-15.4 1.2-8.2 0-15.3-1.1-21.2-3.4s-10.7-5.5-14.6-9.7c-3.8-4.2-6.6-9.1-8.4-14.8s-2.6-12-2.6-18.8c0-6.7.9-13 2.6-18.8s4.3-10.9 7.9-15.2c3.5-4.3 8-7.7 13.3-10.2s11.7-3.8 19-3.8c6.2 0 11.7 1.1 16.4 3.2s8.6 5 11.8 8.7 5.6 8.1 7.2 13.2 2.5 10.7 2.5 16.7c0 1.7-.1 3.4-.2 5.2s-.2 3.4-.4 4.7zm44.8-13.1c0-3.3-.4-6.4-1.3-9.4s-2.2-5.6-3.9-7.9c-1.7-2.2-3.9-4-6.5-5.4s-5.8-2-9.4-2c-7.2 0-12.7 2.2-16.5 6.5-3.8 4.4-6.1 10.4-7 18.2z"/><path d="m473.6 55c1.3-.2 2.6-.4 3.8-.5s2.5-.2 3.8-.2 2.5.1 3.6.2 2.3.3 3.6.5c.4 1.8.7 4.1 1.1 7.1s.5 5.5.5 7.5c1.2-2 2.7-4 4.5-6s3.9-3.8 6.3-5.4 5.1-2.9 8.1-3.9c3.1-1 6.4-1.5 10.1-1.5 10.4 0 18 3 22.9 8.9s7.4 14.7 7.4 26.4v57.3c-1.3.2-2.8.4-4.4.5s-3.1.2-4.4.2-2.7-.1-4.3-.2-3-.3-4.3-.5v-52.4c0-8.3-1.3-14.5-3.9-18.4s-6.7-5.9-12.4-5.9c-3.3 0-6.4.6-9.3 1.8s-5.5 3-7.8 5.5c-2.2 2.5-4 5.7-5.4 9.6s-2 8.7-2 14.2v45.9c-1.3.2-2.7.4-4.3.5s-3 .2-4.3.2-2.8-.1-4.4-.2-3.1-.3-4.4-.5v-90.7z"/><path d="m588.6 104.6c.2 9.9 2.8 17.1 7.7 21.7s12.1 6.9 21.6 6.9c8.3 0 16.3-1.5 23.8-4.4.9 1.8 1.7 3.9 2.3 6.4s.9 5 1.1 7.5c-3.9 1.6-8.1 2.9-12.8 3.7-4.6.8-9.8 1.2-15.4 1.2-8.2 0-15.3-1.1-21.2-3.4s-10.7-5.5-14.6-9.7c-3.8-4.2-6.6-9.1-8.4-14.8s-2.6-12-2.6-18.8c0-6.7.8-13 2.6-18.8 1.7-5.8 4.3-10.9 7.9-15.2 3.5-4.3 8-7.7 13.3-10.2 5.4-2.5 11.7-3.8 19-3.8 6.2 0 11.7 1.1 16.4 3.2s8.6 5 11.8 8.7 5.6 8.1 7.2 13.2 2.5 10.7 2.5 16.7c0 1.7-.1 3.4-.2 5.2s-.2 3.4-.4 4.7zm44.9-13.1c0-3.3-.4-6.4-1.3-9.4s-2.2-5.6-3.9-7.9c-1.7-2.2-3.9-4-6.5-5.4s-5.8-2-9.4-2c-7.2 0-12.7 2.2-16.5 6.5-3.8 4.4-6.1 10.4-7 18.2z"/><path d="m710.4 147.7c-7.1 0-13.2-1.2-18.5-3.6s-9.7-5.7-13.2-10c-3.5-4.2-6.1-9.2-7.8-15s-2.6-12-2.6-18.7.9-12.9 2.6-18.7 4.3-10.8 7.8-15 7.9-7.6 13.2-10.1 11.5-3.7 18.5-3.7c7.1 0 13.2 1.2 18.5 3.7s9.7 5.8 13.2 10.1c3.5 4.2 6.1 9.2 7.9 15 1.7 5.8 2.6 12 2.6 18.7s-.9 12.9-2.6 18.7-4.3 10.8-7.9 15c-3.5 4.2-7.9 7.6-13.2 10-5.3 2.3-11.5 3.6-18.5 3.6zm0-14c8.1 0 14.1-2.9 18-8.8s5.8-14.1 5.8-24.5c0-10.5-1.9-18.6-5.8-24.4s-9.9-8.7-18-8.7-14.1 2.9-17.9 8.7-5.7 14-5.7 24.4c0 10.5 1.9 18.6 5.7 24.5s9.8 8.8 17.9 8.8z"/><path d="m123.8 159.5c.6 2 1.1 3.3 1.3 3.8-3-42.6 21.7-59.5 30.4-87.5.1-.4.2-.9.3-1.4.2-.6.3-1.3.4-1.9 1.4-7.8-1.5-17-7.2-26.6 0-.1-.1-.1-.1-.2-.5-.8-1-1.6-1.5-2.4-.9-1.5-2-3-3-4.5-.1-.1-.2-.3-.3-.5-.3-.4-.6-.8-.9-1.2s-.6-.8-.9-1.3c-.3-.4-.6-.8-1-1.2-.3-.4-.7-.8-1-1.3-.2-.3-.5-.6-.7-.9-9.2-11.3-21.2-22.5-33.8-32.4s-.1-.1 0 0c1.2 16 .9 32.1-1.1 44.8-2.4 15.4-8.5 33.2-16.7 49.2-17.9-2.1-36-6.8-50.1-13.4-11.8-5.5-25.2-14-37.9-24 .1 1.3.2 2.7.3 4 0 .4.1.8.1 1.2.1 1 .2 1.9.3 2.8 0 .4.1.9.1 1.3.1 1 .2 1.9.3 2.8 0 .4.1.8.1 1.2.2 1.2.3 2.4.5 3.6v.4c.2 1.4.4 2.8.6 4.1 0 .1 0 .2.1.3.4 1.2.6 2.4.8 3.7 0 .3.1.5.1.7.3 1.1.5 2.2.7 3.3.1.2.1.4.1.6.3 1.3.5 2.5.8 3.8.9 4 2 7.9 3.1 11.6v.1c1.9 6.2 4.2 12 6.7 17.1.4.7.8 1.5 1.1 2.2v.1c.3.6.7 1.3 1.1 1.9v.1c.4.7.8 1.3 1.2 1.9.1.1.1.2.2.2.5.8 1.1 1.6 1.6 2.3.1.1.2.2.3.4 0 0 .1.1.1.1.6.8 1.3 1.6 1.9 2.4.5.5.9 1 1.4 1.5.2.2.4.4.6.6.3.3.6.6.9.9.2.2.4.4.7.6.3.3.6.5.9.7.2.2.5.4.7.5.3.2.6.5.9.7.2.2.5.3.7.5.3.2.6.4 1 .6.2.1.5.3.7.4.4.2.7.4 1.1.5.2.1.4.2.6.3.6.3 1.2.5 1.7.7.4.1.7.3 1 .4 28.1 8.4 56.1-2.5 89.9 23.4" fill="url(#a)"/><g opacity=".8"><path d="m104.7 44.9c-2.4 15.3-8.5 33.1-16.7 49.1 31.7 3.7 62.5-1.1 67.8-19.6 5.8-20.2-20.4-51.2-50-74.3 1.2 16.1.8 31.9-1.1 44.8z" fill="url(#c)" opacity=".51"/><path d="m37.9 80.6c-11.8-5.5-25.2-14-37.9-24 2.8 37.5 14.1 76.5 34.1 82.9 18.3 5.8 39.4-17.1 53.9-45.5-17.8-2.1-36-6.8-50.1-13.4z" fill="url(#d)" opacity=".51"/></g><g opacity=".7"><path d="m63.1 116.1c-46.6-17.3-63.1-59.5-63.1-59.5 1.7 23 6.6 46.5 14.8 62.8.4.7.7 1.4 1.1 2.1 0 .1.1.1.1.2.4.6.7 1.3 1.1 1.9 0 .1.1.2.2.2.4.6.7 1.2 1.1 1.8.1.1.1.2.2.2.4.6.7 1.1 1.1 1.7.3.4.5.7.7 1 .1.1.1.2.2.3.2.2.4.5.5.7.4.6.9 1.1 1.3 1.6 3.5 4.1 7.5 7.1 11.8 8.5.4.1.7.3 1 .4 28.1 8.4 56.1-2.5 89.9 23.4-2.6-3.5-26.6-34.2-62-47.3z" fill="url(#f)"/><path d="m155.8 74.4c5.8-20.2-20.4-51.2-50-74.3s25.8 37.1 14.3 85.6c-8.9 37.4 4 74.8 5 77.7-3-42.6 21.7-59.5 30.4-87.5.1-.6.1-1 .3-1.5z" fill="url(#g)"/></g><path d="m925.4 54.9-30.5 91.5h-6.5c-1 0-1.7-.6-2.1-1.9l-25-74.3c-.3-.9-.6-1.8-.8-2.8-.2-.9-.5-1.8-.6-2.8-.3 1.8-.8 3.7-1.4 5.5l-25.4 74.3c-.4 1.3-1.1 1.9-2.2 1.9h-6.3l-30.5-91.5h6.6c.9 0 1.6.2 2.1.7s.9 1 1.1 1.5l23.1 72.2c.4 1.4.7 2.8 1 4.1s.6 2.6.7 3.9c.4-1.3.7-2.6 1.1-3.9s.8-2.7 1.3-4.1l24.5-72.9c.4-1.3 1.3-2 2.6-2h3.6c1.3 0 2.2.7 2.7 2l24.3 72.9c.4 1.4.8 2.8 1.2 4s.7 2.6 1 3.9c.2-1.3.5-2.6.8-3.9s.6-2.6 1.1-4l23.3-72.2c.2-.7.6-1.2 1.2-1.6s1.2-.6 1.9-.6h6.1z"/><path d="m947.1 97.1v1.7c0 6.9.8 12.9 2.4 18.1s3.9 9.6 6.8 13.1 6.5 6.2 10.7 8 8.8 2.7 14 2.7c4.6 0 8.6-.5 12-1.5s6.2-2.1 8.5-3.4 4.1-2.4 5.5-3.4c1.3-1 2.3-1.5 2.9-1.5.8 0 1.4.3 1.8.9l2.4 2.9c-1.5 1.8-3.4 3.6-5.8 5.2s-5.1 3-8.1 4.1-6.2 2-9.6 2.7-6.8 1-10.3 1c-6.3 0-12-1.1-17.1-3.3-5.2-2.2-9.6-5.4-13.2-9.5-3.7-4.2-6.5-9.3-8.5-15.3s-3-13-3-20.7c0-6.6.9-12.6 2.8-18.2 1.9-5.5 4.6-10.3 8.1-14.4 3.5-4 7.9-7.2 13-9.4 5.1-2.3 10.9-3.4 17.4-3.4 5.2 0 9.9.9 14.4 2.7 4.4 1.8 8.2 4.4 11.5 7.8s5.8 7.6 7.7 12.6 2.8 10.7 2.8 17.1c0 1.3-.2 2.3-.6 2.8s-1 .7-1.8.7h-66.7zm61.1-5.7c0-4.9-.7-9.3-2.1-13.2s-3.3-7.2-5.8-9.9-5.5-4.8-9-6.2-7.3-2.2-11.5-2.2c-4.7 0-9 .7-12.7 2.2s-7 3.6-9.7 6.3c-2.7 2.8-4.9 6.1-6.6 9.9-1.7 3.9-2.8 8.2-3.3 13h60.7z"/><path d="m1048.8 70.8c4-5.4 8.6-9.6 14-12.7 5.3-3.1 11.5-4.6 18.6-4.6 5.5 0 10.5 1 14.8 3 4.4 2 8 4.9 11.1 8.7 3 3.8 5.4 8.5 6.9 14 1.6 5.6 2.4 11.9 2.4 18.9 0 7.4-.9 14.2-2.7 20.3s-4.4 11.3-7.8 15.6-7.6 7.7-12.5 10c-4.9 2.4-10.5 3.5-16.8 3.5-6.5 0-12-1.2-16.6-3.7s-8.5-6.2-11.8-11.1l-.6 11.3c-.2 1.5-1 2.3-2.5 2.3h-5.3v-133.7h8.8zm0 55.7c3.6 5.3 7.5 9 11.7 11.1 4.3 2.1 9.1 3.2 14.4 3.2 5.5 0 10.2-1 14.3-2.9 4.1-2 7.5-4.8 10.2-8.4s4.8-8.1 6.1-13.3 2-11.1 2-17.6c0-12.6-2.5-22.1-7.5-28.5s-12.1-9.6-21.2-9.6c-6.5 0-12.2 1.6-17 4.7s-9.2 7.5-13.1 13.1v48.2z"/><path d="m1278.3 146.5h-7.3c-.9 0-1.6-.2-2.1-.7s-1-1.1-1.3-1.8l-15.3-37.8h-63.9l-15.3 37.8c-.2.7-.7 1.3-1.3 1.7-.6.5-1.4.7-2.2.7h-7.2l53.3-130.2h9.3zm-28.8-47.3-26.5-65.8c-.9-2.1-1.8-4.7-2.7-7.7-.4 1.5-.8 2.9-1.2 4.2s-.9 2.5-1.4 3.6l-26.5 65.7z"/><path d="m1333.6 16.3c15.3 0 26.8 3.3 34.5 10 7.8 6.7 11.6 16.2 11.6 28.6 0 5.7-1.1 10.9-3.2 15.7s-5.2 8.9-9.2 12.4-8.8 6.2-14.5 8.1-12.1 2.9-19.2 2.9h-24.2v52.4h-9.5v-130.1zm0 70.2c5.7 0 10.8-.8 15.4-2.4 4.5-1.6 8.4-3.8 11.5-6.6 3.2-2.8 5.6-6.1 7.3-10 1.7-3.8 2.5-8 2.5-12.6 0-10-3.1-17.7-9.2-23.1s-15.3-8.1-27.5-8.1h-24.2v62.7h24.2z"/><path d="m1415.8 146.5h-9.5v-130.2h9.5z"/></svg>