<svg xmlns="http://www.w3.org/2000/svg">
	<defs>
		<g fill-rule="nonzero" fill="none" id="icon_Attributes"><path d="M50 0c27.616 0 50 22.386 50 50 0 27.616-22.384 50-50 50-27.614 0-50-22.384-50-50C0 22.386 22.386 0 50 0z" fill="#F1F4F9"/><path d="M49.986 28.148c-2.824 0-4.942.702-7.06 2.814L13.135 60.5c-1.656 1.647-1.656 4.32 0 5.967L33.62 86.87c1.655 1.65 4.338 1.65 5.992 0l30.145-29.887c2.118-2.11 2.118-6.742 2.118-7.736v-16.88c0-2.33-1.695-4.244-4.034-4.244l-17.854.025zm9.39 10.133c0-1.293 1.048-2.343 2.343-2.343 1.293 0 2.343 1.05 2.343 2.344 0 1.296-1.05 2.345-2.344 2.345-1.296 0-2.345-1.05-2.345-2.344z" fill="#A1A9B7"/><rect fill="#67768A" transform="rotate(-45 32.607 56.607)" x="19.107" y="55.107" width="27" height="3" rx="1.5"/><rect fill="#67768A" transform="rotate(-45 40.607 58.607)" x="23.107" y="57.107" width="35" height="3" rx="1.5"/><rect fill="#67768A" transform="rotate(-45 42.607 70.607)" x="33.107" y="69.107" width="19" height="3" rx="1.5"/><path d="M61.72 33.594c-2.59 0-4.69 2.1-4.69 4.687 0 2.59 2.1 4.69 4.69 4.69 2.586 0 4.686-2.1 4.686-4.69 0-2.587-2.1-4.686-4.687-4.686zm0 6.69c-1.108 0-2.004-.896-2.004-2.003 0-1.105.896-2.002 2.003-2.002 1.105 0 2.002.897 2.002 2.003 0 1.108-.897 2.004-2.003 2.004z" fill="#67768A"/><path d="M56.695.46c-3.112 4.753-5.138 10.72-5.138 16.814 0 3.833.716 7.503 2.015 10.878h2.523c-1.417-3.344-2.203-7.022-2.203-10.878 0-6 2.118-11.85 5.353-16.407-.843-.158-1.693-.293-2.55-.408zM98.89 39.514c-4.674 3.476-10.695 5.69-16.974 5.69-3.564 0-6.982-.666-10.12-1.877-2.996-1.155-5.744-2.815-8.143-4.864-.676-.583-1.63-1.427-2.344-2.143-.787.162-1.403.786-1.557 1.576.717.755 1.613 1.667 2.32 2.273 2.825 2.45 6.12 4.375 9.724 5.64 3.17 1.117 6.57 1.722 10.12 1.722 6.393 0 12.548-2.132 17.443-5.495-.134-.848-.292-1.69-.47-2.523z" fill="#CBD7EC"/></g>
		<g fill-rule="nonzero" fill="none" id="icon_Products"><path d="M50 0c27.614 0 50 22.386 50 50s-22.386 50-50 50S0 77.614 0 50 22.386 0 50 0z" fill="#F1F4F9"/><path d="M66.52 10c-5.807 0-10.53 4.674-10.53 10.42 0 4.79 3.725 8.865 8.186 10.075.45.122.776.51.776.977v9.555c0 .554.45 1.003 1.003 1.003.554 0 1.003-.45 1.003-1.003V30.063l-.006-.03.006-.028c0-.5-.38-.927-.882-.98-4.288-.437-8.08-4.25-8.08-8.606 0-4.65 3.823-8.435 8.524-8.435 4.404 0 8.038 2.818 8.48 7.06.053.5.483.968.99.968.602 0 1.098-.428 1.033-1.02C76.46 13.77 71.947 10 66.52 10z" fill="#CBCFD6"/><path d="M.292 44.622l91.282-22.4c-3.367-5.03-7.628-9.406-12.548-12.92L5.422 27.362c-2.688 5.283-4.47 11.1-5.13 17.26z" fill="#DEDEDE"/><path d="M.292 44.622l91.282-22.4c-.817-1.22-1.692-2.4-2.61-3.542L.953 40.277C.67 41.705.448 43.153.29 44.622z" fill="#CAC8C8"/><path d="M2.245 35.143l83.19-20.415c-1.097-1.103-2.247-2.152-3.442-3.148L3.83 30.79c-.592 1.42-1.124 2.87-1.585 4.353z" fill="#EBEBEB"/><path d="M67.08 10c-3.34 0-6.322 1.51-8.277 3.862l4.78-1.15c.9-.393 1.882-.634 2.914-.702l.058-.014v.012l.526-.026c4.46 0 8.137 2.816 8.586 7.054.053.498.488.966 1 .966.61 0 1.11-.428 1.047-1.02C77.143 13.764 72.573 10 67.08 10z" fill="#CBCFD6"/><path d="M66 36c1.104 0 2 .896 2 2v2h-4v-2c0-1.104.896-2 2-2z" fill="#9098A5"/><path d="M66 36c-.812 0-1.507.485-1.82 1.18.25-.114.527-.18.82-.18 1.104 0 2 .896 2 2v1h1v-2c0-1.104-.896-2-2-2z" fill="#8B93A0"/><path d="M99.51 56.934L72.335 40.57c-3.954-2.105-8.713-2.105-12.666 0L13.605 68.306c-1.586.845-2.093 2.857-1.094 4.34.76 1.127 2.185 1.616 3.487 1.198l45.886-16.647c2.677-.857 5.56-.857 8.235 0l26.925 9.77c1.155-3.206 1.986-6.563 2.468-10.032z" fill="#A1A9B7"/><path d="M72.334 40.57c-3.954-2.105-8.713-2.105-12.666 0l-.607.366c3.646-1.436 7.774-1.23 11.274.635L97.51 57.934l2-1L72.335 40.57z" fill="#A1A9B7"/><path d="M50 100c-17.434 0-32.776-8.928-41.724-22.455 1.305-8.9 7.222-16.58 15.73-20.02L42.122 51h.788c-.588.954-.91 1.96-.91 3 0 6.075 10.745 11 24 11s24-4.925 24-11c0-1.04-.322-2.046-.91-3h1.07l9.635 3.406C97.563 79.956 76.13 100 50 100z" fill="#67768A"/><path d="M94 56.5c0-1.562-.69-3.21-1.93-4.824L90.16 51h-1.07c.588.954.91 1.96.91 3 0 6.075-10.745 11-24 11s-24-4.925-24-11c0-1.04.322-2.046.91-3h-.787l-2.48.894C38.582 53.438 38 55.008 38 56.5 38 63.404 50.312 69 65.5 69S94 63.404 94 56.5z" fill="#3B454B"/></g>
		<g id="icon_Families"><g fill="none" fill-rule="evenodd"><path d="M50.006-.005c27.072 0 49.02 22.386 49.02 50 0 27.615-21.948 50-49.02 50-27.073 0-49.02-22.385-49.02-50s21.947-50 49.02-50z" fill="#F1F4F9" fill-rule="nonzero"/><path d="M22.947 20.088l17.046 4.647c1.57.428 2.5 2.07 2.08 3.665l-18.27 69.385c-.42 1.596-2.032 2.545-3.602 2.117L3.157 95.254c-1.57-.428-2.5-2.068-2.08-3.666l18.27-69.383c.42-1.597 2.033-2.545 3.6-2.117z" fill="#A1A9B7" fill-rule="nonzero"/><path d="M16.96 78.158c2.615.715 4.166 3.457 3.465 6.123-.7 2.67-3.388 4.253-6.002 3.538-2.616-.715-4.168-3.457-3.467-6.125.7-2.666 3.388-4.25 6.004-3.535z" fill="#A1A9B7" fill-rule="nonzero"/><path d="M17.72 75.29c-4.185-1.142-8.485 1.386-9.606 5.645-1.122 4.26 1.362 8.637 5.546 9.78 4.184 1.14 8.484-1.388 9.606-5.647 1.12-4.26-1.36-8.636-5.546-9.78zm2.705 9.003c-.7 2.662-3.39 4.242-6.003 3.53-2.615-.714-4.167-3.45-3.466-6.112.7-2.66 3.388-4.24 6.003-3.528 2.615.713 4.166 3.45 3.465 6.11zM36.54 30.618L23.477 27.02c-.514-.142-1.044.173-1.183.702l-9.5 36.434c-.137.53.17 1.074.684 1.217L26.54 68.97c.515.142 1.044-.173 1.183-.702l9.5-36.435c.138-.53-.168-1.075-.683-1.215z" fill="#FFF" fill-rule="nonzero"/><path d="M20.72 43.993l-.518 1.873 9.672 2.51.517-1.873-9.67-2.51zm-1.737 6.494l9.672 2.51.518-1.874-9.672-2.51-.517 1.874zM24.04 32.99l9.287 2.473L31.834 41l-9.285-2.474" fill="#F1F4F9" fill-rule="nonzero"/><g transform="translate(.98 -1)"><mask id="b" fill="#fff"><path d="M49.025.995c27.073 0 49.02 22.386 49.02 50 0 27.615-21.947 50-49.02 50-27.072 0-49.02-22.385-49.02-50s21.948-50 49.02-50z"/></mask><g mask="url(#b)" fill-rule="nonzero"><path d="M67.653 22.995H85.3c1.625 0 2.94 1.344 2.94 3v72c0 1.658-1.315 3-2.94 3H67.653c-1.625 0-2.94-1.342-2.94-3v-72c0-1.657 1.315-3 2.94-3z" fill="#A1A9B7"/><path d="M75.986 81.994c2.978 0 5.392 2.238 5.392 5s-2.414 5-5.392 5c-2.977 0-5.392-2.238-5.392-5s2.415-5 5.392-5zM44.124 22.995H61.77c1.625 0 2.942 1.344 2.942 3v72c0 1.658-1.317 3-2.94 3H44.123c-1.625 0-2.942-1.342-2.942-3v-72c0-1.657 1.317-3 2.942-3z" fill="#A1A9B7"/><path d="M52.947 81.994c2.708 0 4.902 2.238 4.902 5s-2.195 5-4.903 5c-2.708 0-4.902-2.238-4.902-5s2.194-5 4.902-5z" fill="#A1A9B7"/><path d="M52.947 78.994c-4.33 0-7.843 3.582-7.843 8s3.512 8 7.843 8c4.33 0 7.843-3.582 7.843-8s-3.512-8-7.843-8zm0 13c-2.708 0-4.902-2.238-4.902-5s2.194-5 4.902-5 4.902 2.238 4.902 5-2.195 5-4.903 5zm6.863-61H46.084c-.542 0-.98.448-.98 1v38c0 .554.438 1 .98 1H59.81c.542 0 .98-.446.98-1v-38c0-.552-.438-1-.98-1z" fill="#FFF"/><path d="M48.045 46.995v2h9.804v-2h-9.805zm0 7h9.804v-2h-9.805v2zM48.045 36.995h9.804v6h-9.805" fill="#F1F4F9"/><path d="M43.143 97.994v-72c0-1.656 1.317-3 2.94-3h-1.96c-1.624 0-2.94 1.344-2.94 3v72c0 1.658 1.316 3 2.94 3h1.96c-1.623 0-2.94-1.342-2.94-3zm23.53 0v-72c0-1.656 1.316-3 2.94-3h-1.96c-1.625 0-2.94 1.344-2.94 3v72c0 1.658 1.315 3 2.94 3h1.96c-1.624 0-2.94-1.342-2.94-3zM75.986 81.994c-1.844 0-3.47.86-4.442 2.17.936-.73 2.144-1.17 3.462-1.17 2.977 0 5.392 2.238 5.392 5 0 1.053-.35 2.025-.95 2.832 1.18-.918 1.93-2.293 1.93-3.832 0-2.762-2.414-5-5.392-5z" fill="#67768A"/><path d="M76.476 78.994c-4.33 0-7.843 3.582-7.843 8s3.512 8 7.843 8c4.332 0 7.844-3.582 7.844-8s-3.512-8-7.844-8zm0 13c-2.707 0-4.9-2.238-4.9-5s2.193-5 4.9-5c2.708 0 4.902 2.238 4.902 5s-2.194 5-4.902 5zm6.863-61H69.613c-.542 0-.98.448-.98 1v38c0 .554.438 1 .98 1H83.34c.54 0 .98-.446.98-1v-38c0-.552-.44-1-.98-1z" fill="#FFF"/><path d="M71.575 46.995v2h9.803v-2h-9.803zm0 7h9.803v-2h-9.803v2zM71.575 36.995h9.803v6h-9.803" fill="#F1F4F9"/><path d="M52.947 81.994c-1.605 0-3.015.797-3.91 2.014.82-.63 1.827-1.014 2.93-1.014 2.708 0 4.902 2.238 4.902 5 0 1.125-.38 2.152-.995 2.988 1.193-.912 1.974-2.352 1.974-3.988 0-2.762-2.195-5-4.903-5z" fill="#67768A"/></g></g><path d="M16.96 78.158c-2.005-.547-4.043.262-5.206 1.867 1.165-.902 2.702-1.283 4.225-.867 2.614.715 4.166 3.457 3.465 6.123-.164.624-.444 1.183-.798 1.67.836-.645 1.486-1.554 1.778-2.67.7-2.665-.85-5.407-3.465-6.122zM22.947 20.088c-1.57-.43-3.18.52-3.602 2.116L1.075 91.588c-.42 1.598.512 3.238 2.08 3.666l1.545.422c-1.558-.438-2.48-2.096-2.062-3.686l18.27-69.384c.4-1.518 1.878-2.435 3.37-2.155l-1.33-.362z" fill="#67768A" fill-rule="nonzero"/></g></g>
		<g fill="none" id="icon_Categories"><path d="M50 0c27.614 0 50 22.386 50 50s-22.386 50-50 50S0 77.614 0 50 22.386 0 50 0z" fill="#F1F4F9"/><path d="M8 65v21l28-30v-7.982l-13.12-.023L8 65zm68.91-17.246L64 47.75V56l28 30V65L76.91 47.754z" fill="#A1A9B7"/><path d="M63 31H44.03l-1-1H35c-.597 0-1 .468-1 .906V49c0 1.104.896 2 2 2h27c1.104 0 2-.896 2-2V33c0-1.104-.896-2-2-2z" fill="#757C87"/><path d="M34 33h31c1.104 0 2 .896 2 2v16c0 1.104-.896 2-2 2H34c-1.104 0-2-.896-2-2V35c0-1.104.896-2 2-2z" fill="#878F9B"/><path d="M70.03 36h-10c-.275 0-2.03 1.725-2.03 2H29c-1.104 0-2 .896-2 2v16c0 1.104.896 2 2 2h41c1.104 0 2-.896 2-2V37.97c0-1.066-.988-1.97-1.97-1.97z" fill="#A5AFC0"/><path d="M27 41h45c1.104 0 2 .896 2 2v16c0 1.104-.896 2-2 2H27c-1.104 0-2-.896-2-2V43c0-1.104.896-2 2-2z" fill="#BDC7D9"/><path d="M23 46h54c1.104 0 2 .896 2 2v16c0 1.104-.896 2-2 2H23c-1.104 0-2-.896-2-2V48c0-1.104.896-2 2-2z" fill="#CBD7EC"/><path d="M30.562 39.94L71.13 50.81c1.067.285 1.7 1.382 1.415 2.45l-4.66 17.386c-.284 1.067-1.382 1.7-2.448 1.414l-40.57-10.87c-1.065-.286-1.7-1.383-1.413-2.45l4.66-17.387c.285-1.066 1.382-1.7 2.448-1.414z" fill="#F1F4F9"/><path d="M20 50h60c1.104 0 2 .896 2 2v16c0 1.104-.896 2-2 2H20c-1.104 0-2-.896-2-2V52c0-1.104.896-2 2-2z" fill="#D0DDF4"/><path d="M11 62h78c1.657 0 3 1.344 3 3v30c0 1.657-1.343 3-3 3H11c-1.657 0-3-1.343-3-3V65c0-1.656 1.343-3 3-3z" fill="#A1A9B7"/><path d="M31 76c-2.21 0-4 1.79-4 4s1.79 4 4 4 4-1.79 4-4-1.79-4-4-4zm38 0c-2.21 0-4 1.79-4 4s1.79 4 4 4 4-1.79 4-4-1.79-4-4-4z" fill="#9098A6"/><path d="M69 79c-1.104 0-2 .896-2 2v1c0 1.657-1.343 3-3 3H36c-1.657 0-3-1.343-3-3v-1c0-1.104-.896-2-2-2s-2 .896-2 2v3c0 2.762 2.238 5 5 5h32c2.762 0 5-2.238 5-5v-3c0-1.104-.896-2-2-2z" fill="#F1F4F9"/><path d="M52 72c0-1.104-.896-2-2-2s-2 .896-2 2c0 .71.374 1.33.933 1.687L48 78h4l-.933-4.313c.56-.356.933-.976.933-1.687z" fill="#6E7480"/><path fill="#E7EAF0" d="M25.796 50h42.31l-7.463-2h-34.31"/><path d="M89 62H11c-1.657 0-3 1.344-3 3v2c0-1.656 1.343-3 3-3h78c1.657 0 3 1.344 3 3v-2c0-1.656-1.343-3-3-3z" fill="#9098A6"/><path d="M66 89H34c-2.762 0-5-2.238-5-5v1c0 2.762 2.238 5 5 5h32c2.762 0 5-2.238 5-5v-1c0 2.762-2.238 5-5 5z" fill="#8F97A4"/><path d="M89 98H11c-1.657 0-3-1.343-3-3v2c0 1.657 1.343 3 3 3h78c1.657 0 3-1.343 3-3v-2c0 1.657-1.343 3-3 3z" fill="#9098A6"/></g>
  	<g id="store" fill="none" fill-rule="evenodd">
    	<path fill="#F1F4F9" fill-rule="nonzero" d="M50 0C22.4 0 0 22.4 0 50s22.4 50 50 50 50-22.4 50-50S77.6 0 50 0z"/>
    	<mask id="b" fill="#fff">
    		<path id="a" d="M50 0C22.4 0 0 22.4 0 50s22.4 50 50 50 50-22.4 50-50S77.6 0 50 0z"/>
    	</mask>
    	<g fill-rule="nonzero" mask="url(#b)">
		    <path fill="#D7EFEF" d="M102 74v28H38V74h64"/>
		    <path fill="#FC0" d="M26 36h78v72H26"/>
		    <path fill="#CCE3E3" d="M36 71h66c.55 0 1 .45 1 1v30c0 .55-.45 1-1 1H36c-.55 0-1-.45-1-1V72c0-.55.45-1 1-1z"/>
		    <path fill="#FFF" d="M101 73v28H37V73h64zm1-2H36c-.55 0-1 .45-1 1v30c0 .55.45 1 1 1h66c.55 0 1-.45 1-1V72c0-.55-.45-1-1-1z"/>
		    <path fill="#DBE4F4" d="M102 74v28H38V74h64"/>
		    <path fill="#BCC7DA" d="M58 92v-4h-2v-5h-5v-2h2v-3h-6v3h2v2h-3v5h-2v4h-7v8h46v-8H58zm0 0v-4h-2v-5h-5v-2h2v-3h-6v3h2v2h-3v5h-2v4h-7v8h46v-8H58z"/>
		    <path fill="#E4EBF5" d="M60 75h36v27H72"/>
		    <path fill="#DDC66B" d="M96 51c-2 0-3.7 1.17-4.5 2.86C90.7 52.16 89 51 87 51c-1.64 0-3.1.8-4 2.03-.9-1.23-2.36-2.03-4-2.03-1.64 0-3.1.8-4 2.03-.9-1.23-2.36-2.03-4-2.03-1.64 0-3.1.8-4 2.03-.9-1.23-2.36-2.03-4-2.03-1.64 0-3.1.8-4 2.03-.9-1.23-2.36-2.03-4-2.03-1.64 0-3.1.8-4 2.03-.9-1.23-2.36-2.03-4-2.03-1.64 0-3.1.8-4 2.03-.9-1.23-2.36-2.03-4-2.03-1.64 0-3.1.8-4 2.03-.9-1.23-2.36-2.03-4-2.03-2.76 0-5 2.24-5 5v6c0 2.76 2.24 5 5 5 1.64 0 3.1-.8 4-2.03.9 1.23 2.36 2.03 4 2.03 1.64 0 3.1-.8 4-2.03.9 1.23 2.36 2.03 4 2.03 1.64 0 3.1-.8 4-2.03.9 1.23 2.36 2.03 4 2.03 1.64 0 3.1-.8 4-2.03.9 1.23 2.36 2.03 4 2.03 1.64 0 3.1-.8 4-2.03.9 1.23 2.36 2.03 4 2.03 1.64 0 3.1-.8 4-2.03.9 1.23 2.36 2.03 4 2.03 1.64 0 3.1-.8 4-2.03.9 1.23 2.36 2.03 4 2.03 2 0 3.7-1.17 4.5-2.86C92.3 65.84 94 67 96 67c2.76 0 5-2.24 5-5v-6c0-2.76-2.24-5-5-5zM26 37v2h78v-2H26z"/>
		    <path fill="#FFF" d="M20 59c0 2.2 1.8 4 4 4s4-1.8 4-4v-8h-8v8zm16 0c0 2.2 1.8 4 4 4s4-1.8 4-4v-8h-8v8zm16 0c0 2.2 1.8 4 4 4s4-1.8 4-4v-8h-8v8zm16 0c0 2.2 1.8 4 4 4s4-1.8 4-4v-8h-8v8zm16 0c0 2.2 1.8 4 4 4s4-1.8 4-4v-8h-8v8zm16-8v8c0 2.2 1.8 4 4 4s4-1.8 4-4v-8h-8z"/>
		    <path fill="#E9E9E9" d="M26 45h78l-2 6H20"/>
		    <path fill="#11324D" d="M28 51h8l6-6h-8l-6 6zm16 0h8l6-6h-8l-6 6zm16 0h8l6-6h-8l-6 6zm16 0h8l6-6h-8l-6 6zm22-6l-6 6h8l6-6h-8zM28 59c0 2.2 1.8 4 4 4s4-1.8 4-4v-8h-8v8zm16 0c0 2.2 1.8 4 4 4s4-1.8 4-4v-8h-8v8zm16 0c0 2.2 1.8 4 4 4s4-1.8 4-4v-8h-8v8zm16 0c0 2.2 1.8 4 4 4s4-1.8 4-4v-8h-8v8zm16-8v8c0 2.2 1.8 4 4 4s4-1.8 4-4v-8h-8z"/>
		    <path fill="#CCCFD6" d="M106.5 32H102v-3c.55 0 1-.45 1-1s-.45-1-1-1c0-.55-.45-1-1-1s-1 .45-1 1H30c0-.55-.45-1-1-1s-1 .45-1 1v5h-2.5c-1.38 0-2.5 1.12-2.5 2.5s1.12 2.5 2.5 2.5h81c1.38 0 2.5-1.12 2.5-2.5s-1.12-2.5-2.5-2.5zm-6.5-3v3h-7v-3h7zm-9 0v3h-7v-3h7zm-9 0v3h-7v-3h7zm-9 0v3h-7v-3h7zm-9 0v3h-7v-3h7zm-9 0v3h-7v-3h7zm-9 0v3h-7v-3h7zm-16 0h7v3h-7v-3z"/>
		    <path fill="#E0EEEE" d="M71.1 100H83v-8H67.56"/>
		    <path fill="#C2D7D7" d="M37 92h1v9h-1"/>
		  </g>
		</g>
		<g fill="none" fill-rule="nonzero" id="icon_Files">
	     <path fill="#F1F4F9" d="M50 0c27.6 0 50 22.4 50 50s-22.4 50-50 50S0 77.6 0 50 22.4 0 50 0z"/>
    	<path fill="#67768A" d="M31 39v-3h-9s-3 1.34-3 3v32.17l.02.02c.1 3.2 2.73 5.8 5.98 5.8h6V39z"/>
    	<path fill="#A1A9B7" d="M31 29h-3c-1.66 0-3 1.34-3 3v39c0 2.22-1.2 4.15-3 5.2.88.5 1.9.8 3 .8h6V29z"/>
    	<path fill="#DBDCDF" d="M76 23H34c-1.45 0-3 1.63-3 3v45c0 3.3-2.7 6-6 6h48c3.3 0 6-2.68 6-6V26c0-1.45-1.67-3-3-3z"/>
    	<path fill="#B7BBC2" d="M37 64h36v-2H37v2zm2-9h10c1.1 0 2-.9 2-2V42c0-1.1-.9-2-2-2H39c-1.1 0-2 .9-2 2v11c0 1.1.9 2 2 2zm0-12c0-.55.45-1 1-1h8c.55 0 1 .45 1 1v9c0 .55-.45 1-1 1h-8c-.55 0-1-.45-1-1v-9zm-2 25h31v-2H37v2zm0-8h36v-2H37v2zm18-10h18v-2H55v2zm0 4h18v-2H55v2zm0-12h18v-2H55v2zm0 4h18v-2H55v2zM37 28v7h36v-7H37z"/>
  	</g>
  	<g fill="none" fill-rule="nonzero" id="icon_Channels">
    <path fill="#F1F4F9" d="M50 0c27.6 0 50 22.4 50 50 0 27.62-22.4 50-50 50S0 77.62 0 50C0 22.4 22.4 0 50 0z"/>
    <path fill="#FFF" d="M25.78 29.7h48.44v46.08H25.78"/>
    <path fill="#A1A9B7" d="M28.93 26.56h42.1l3.2 3.12H25.77M28.9 73.44h10.94V42.2H28.9v31.24zm14.07 2.34h14.06v-33.6H42.97v33.6zm17.2-33.6v31.26h10.92V42.2H60.15z"/>
    <path fill="#BDBFBF" d="M25.78 42.2h48.44v2.33H25.78"/>
    <path fill="#3A4F5B" d="M46.88 50.78h6.24c.87 0 1.57.7 1.57 1.56v2.35c0 .85-.7 1.55-1.58 1.55h-6.24c-.87 0-1.57-.7-1.57-1.56v-2.36c0-.86.7-1.56 1.58-1.56z"/>
    <path fill="#E4E8E8" d="M79.67 37.5l-4.72-4.7H25l-4.67 4.7h-.02v3.12c0 .86.7 1.56 1.57 1.56h56.25c.87 0 1.57-.7 1.57-1.56V37.5h-.03z"/>
    <g fill="#67768A">
      <path d="M39.85 61.72h-4.7v-4.7h-6.24v16.42h10.95M53.13 64.84h3.9v10.94h-3.9zM42.97 61.72h5.47v14.06h-5.47zM60.16 57.03H71.1v16.4H60.16z"/>
    </g>
    <path fill="#E4E8E8" d="M53.13 50.78h-6.26c-.86 0-1.56.7-1.56 1.56v2.35c0 .85.7 1.55 1.58 1.55h6.24c.87 0 1.57-.7 1.57-1.56v-2.36c0-.86-.7-1.56-1.58-1.56zm.4 3.9c0 .22-.2.4-.4.4h-6.26c-.2 0-.4-.18-.4-.4v-2.34c0-.2.2-.4.4-.4h6.26c.2 0 .4.2.4.4v2.35z"/>
    <path fill="#3A4F5B" d="M74.22 66.4c-2.7 0-4.95 1.98-5.38 4.58-.58-.42-1.28-.67-2.05-.67-1.95 0-3.52 1.6-3.52 3.53 0 1.94 1.57 3.5 3.5 3.5h7.44c3.02 0 5.47-2.43 5.47-5.45 0-3.03-2.46-5.47-5.48-5.47zM33.2 70.3c-.76 0-1.46.26-2.04.67-.43-2.6-2.67-4.56-5.38-4.56-3.02 0-5.47 2.45-5.47 5.47 0 3.03 2.46 5.47 5.48 5.47h7.43c1.95 0 3.52-1.57 3.52-3.5 0-1.96-1.57-3.53-3.5-3.53z"/>
    <path fill="#3B454B" d="M74.22 75.78H66.8c-1.68 0-3.07-1.17-3.42-2.74-.06.26-.1.52-.1.8 0 1.93 1.57 3.5 3.5 3.5h7.44c3.02 0 5.47-2.44 5.47-5.47 0-.26-.04-.52-.07-.78-.38 2.64-2.66 4.68-5.4 4.68zM33.2 75.78H25.8c-2.76 0-5.03-2.04-5.4-4.7-.04.27-.07.53-.07.8 0 3.02 2.46 5.46 5.48 5.46h7.43c1.95 0 3.52-1.57 3.52-3.5 0-.28-.04-.54-.1-.8-.35 1.57-1.74 2.74-3.4 2.74z"/>
    <g fill="#3B454B">
      <path d="M39.84 32.8l-.78 4.7v4.68h3.13V37.5l.77-4.7M34.37 32.8l-1.56 4.7v4.68h3.14V37.5l1.56-4.7M45.3 32.8h3.14v9.38H45.3zM29.7 32.8l-3.14 4.7v4.68h3.13V37.5l2.33-4.7M67.97 32.8l2.34 4.7v4.68h3.14V37.5l-2.35-4.7M79.67 37.5l-4.7-4.7h-1.53l3.12 4.7v4.68h1.56c.87 0 1.57-.7 1.57-1.56V37.5h-.02zM21.88 42.18h1.56V37.5l3.12-4.7H25l-4.67 4.7h-.02v3.12c0 .86.7 1.56 1.58 1.56zM51.56 32.8h3.13v9.38h-3.14zM67.2 42.18V37.5l-1.58-4.7H62.5l1.56 4.7v4.68M60.94 42.18V37.5l-.8-4.7h-3.1l.77 4.7v4.68"/>
    </g>
    <path fill="#C2C6C6" d="M74.95 32.8H25l-4.67 4.7h-.02 59.4-.03"/>
    <g fill="#262D32">
      <path d="M39.06 37.5h3.13l.77-4.7h-3.13M51.56 32.8h3.13v4.7h-3.14zM32.8 37.5h3.14l1.56-4.7h-3.13M67.97 32.8l2.34 4.7h3.14l-2.35-4.7M45.3 32.8h3.14v4.7H45.3zM73.44 32.8l3.12 4.7h3.13l-.02-.02-4.73-4.67M60.15 32.8h-3.12l.78 4.7h3.14M26.56 32.8H25L20.3 37.5v.02h3.12M65.62 32.8H62.5l1.56 4.7h3.13M29.7 37.5l2.33-4.7H29.7l-3.14 4.7"/>
    </g>
    <g fill="#67768A">
      <path d="M42.97 42.2h14.06v2.33H42.97zM60.16 42.2H71.1v2.33H60.16zM28.9 42.2h10.95v2.33H28.9z"/>
    </g>
  </g>
		<g id="bulb" fill="none" fill-rule="nonzero">
		    <path fill="#CCD0D2" d="M63.1 75.72H38.14v17.53h2.77v1.35c0 2.98 2.5 5.4 5.56 5.4h8.32c3.07 0 5.55-2.42 5.55-5.4v-1.35h2.77V75.72z"/>
		    <path fill="#91A8BA" d="M38.83 81.1H62.4c1.16 0 2.1-.9 2.1-2 0-1.13-.94-2.03-2.1-2.03H38.84c-1.14 0-2.08.9-2.08 2.02 0 1.1.94 2 2.08 2zm23.58 2.7H38.84c-1.14 0-2.08.92-2.08 2.03 0 1.12.94 2.03 2.08 2.03H62.4c1.16 0 2.1-.9 2.1-2.03 0-1.1-.94-2.02-2.1-2.02zm0 6.76H38.84c-1.14 0-2.08.9-2.08 2.02s.94 2.02 2.08 2.02H62.4c1.16 0 2.1-.9 2.1-2.02s-.94-2.02-2.1-2.02z"/>
		    <path fill="#1A4263" d="M74.48 32.7c-5.5-11.18-16.77-14.98-23.83-14.98-7.06 0-18.35 3.8-23.85 15-5.5 11.18-1.08 21.55 4.3 28.47 5.38 6.9 6.7 9.96 7.02 11.65.1 1.74 0 1.05 0 2.88 0 .94 1.44 1.3 1.44 1.3h22.18s1.36-.3 1.36-1.3V72.8c.4-1.67 1.67-4.7 7.05-11.6 5.38-6.93 9.84-17.3 4.33-28.5z"/>
		    <path fill="#11324D" d="M51.32.17c-1.15 0-2.1.9-2.1 2.02v6.74c0 1.12.95 2.02 2.1 2.02 1.14 0 2.08-.9 2.08-2.02V2.2c0-1.12-.94-2.03-2.08-2.03zM17.34 44c0-1.1-.93-2-2.08-2H8.32c-1.14 0-2.08.9-2.08 2 0 1.13.94 2.04 2.08 2.04h6.94c1.15 0 2.08-.9 2.08-2.03zm75.58-2h-6.94c-1.15 0-2.07.9-2.07 2v.02c0 1.1.93 2.02 2.08 2.02h6.94c1.15 0 2.08-.9 2.08-2.02s-.93-2.03-2.08-2.03zM74.64 7.15c-.9-.53-2.06-.2-2.58.7l-3.16 5.6c-.52.93-.2 2.12.7 2.65.9.55 2.06.23 2.58-.7l3.15-5.6c.52-.92.2-2.1-.7-2.64zm9.4 21.06l5.77-3.1c.96-.53 1.3-1.63.8-2.48-.53-.85-1.73-1.12-2.7-.6l-5.74 3.1c-.96.52-1.3 1.63-.78 2.48.52.85 1.72 1.12 2.67.6zM29.2 7.87c-.53-.92-1.7-1.24-2.6-.7-.9.53-1.2 1.7-.7 2.64l3.16 5.6c.53.93 1.68 1.25 2.6.7.9-.52 1.2-1.7.68-2.63l-3.15-5.6zM11.43 25.1l5.75 3.12c.95.52 2.14.25 2.67-.6.52-.85.17-1.96-.8-2.47l-5.74-3.12c-.96-.5-2.15-.24-2.67.6-.53.86-.18 1.96.78 2.48zm76.98 37.82l-5.75-3.12c-.96-.5-2.15-.24-2.68.6-.53.86-.18 1.97.77 2.48L86.53 66c.96.5 2.15.24 2.67-.6.53-.86.18-1.96-.78-2.48zM18.58 59.8l-5.76 3.12c-.95.52-1.3 1.62-.78 2.47.52.84 1.72 1.1 2.67.6l5.77-3.12c.96-.5 1.3-1.62.78-2.47-.52-.84-1.72-1.1-2.67-.6z"/>
		    <path fill="#FFF" d="M63.1 44.68h-8.46l5.1-9.43H46.8l-5.87 16.2H49L45.1 63.6l18-18.9"/>
		    <path fill="#11324D" d="M43.72 77.04s-1.43-.37-1.43-1.3c0-1.83.07-1.15-.02-2.9-.33-1.68-1.64-4.74-7.02-11.65-5.37-6.93-9.8-17.3-4.3-28.5 5-10.14 14.74-14.2 21.77-14.86-.72-.07-1.42-.12-2.08-.12-7.05 0-18.34 3.8-23.85 15-5.5 11.18-1.07 21.55 4.3 28.47 5.38 6.9 6.7 9.96 7.02 11.65.1 1.74 0 1.05 0 2.88 0 .94 1.44 1.3 1.44 1.3h22.18-18.02z"/>
		</g>
		<g fill="none" fill-rule="nonzero" id="lock">
    <path fill="#1D5685" d="M17.13 39.58h66.74c2.83 0 5.13 2.35 5.13 5.25v49.92c0 2.9-2.3 5.25-5.13 5.25H17.13C14.3 100 12 97.65 12 94.75V44.83c0-2.9 2.3-5.25 5.13-5.25z"/>
    <path fill="#11324D" d="M17.13 36.95h66.74c2.83 0 5.13 2.36 5.13 5.26v5.26c0 2.9-2.3 5.26-5.13 5.26H17.13c-2.83 0-5.13-2.36-5.13-5.26V42.2c0-2.9 2.3-5.25 5.13-5.25z"/>
    <path fill="#01080E" d="M28.04 42.2c-3.2 0-5.77 1.18-5.77 2.63s2.58 2.63 5.77 2.63c3.2 0 5.78-1.18 5.78-2.63s-2.6-2.62-5.78-2.62zm44.92 0c-3.2 0-5.78 1.18-5.78 2.63s2.6 2.63 5.78 2.63c3.2 0 5.77-1.18 5.77-2.63s-2.58-2.62-5.77-2.62z"/>
    <path fill="#11324D" d="M50.5 63.22c6.38 0 11.55 5.3 11.55 11.82 0 6.53-5.17 11.82-11.55 11.82-6.38 0-11.55-5.3-11.55-11.82 0-6.52 5.17-11.82 11.55-11.82z"/>
    <path fill="#E4E7E7" d="M50.5 65.85c4.96 0 8.98 4.12 8.98 9.2 0 5.07-4.02 9.2-8.98 9.2-4.96 0-8.98-4.13-8.98-9.2 0-5.08 4.02-9.2 8.98-9.2z"/>
    <path fill="#324D5B" d="M50.5 71.1c.7 0 1.28.6 1.28 1.32v5.25c0 .73-.57 1.3-1.28 1.3-.7 0-1.28-.57-1.28-1.3v-5.25c0-.73.57-1.32 1.28-1.32z"/>
    <path fill="#DADDE2" d="M50.5.18c-14.88 0-26.95 12.34-26.95 27.58v15.76c0 1.45 2 2.63 4.5 2.63 2.47 0 4.48-1.18 4.48-2.63V27.76c0-10.16 8.05-18.4 17.97-18.4 9.92 0 17.97 8.24 17.97 18.4v15.76c0 1.45 2 2.63 4.5 2.63 2.47 0 4.48-1.18 4.48-2.63V27.76C77.45 12.52 65.38.18 50.5.18z"/>
    <path fill="#C3C8D0" d="M50.5 5.43c-12.05 0-21.82 10-21.82 22.33V46.1c2.18-.18 3.85-1.26 3.85-2.58V27.76c0-10.16 8.05-18.4 17.97-18.4 9.92 0 17.97 8.24 17.97 18.4v15.76c0 1.32 1.67 2.4 3.85 2.6V27.75c0-12.33-9.77-22.33-21.82-22.33z"/>
  </g>
  <g fill="none" fill-rule="nonzero" id="developer">
    <path fill="#1D5685" d="M92 73.63c0-9.6-7.88-17.4-17.6-17.4H26.6c-9.72 0-17.6 7.8-17.6 17.4v10.64c11.07 9.63 25.6 15.5 41.5 15.5 15.9 0 30.42-5.87 41.5-15.5V73.63z"/>
    <path fill="#11324D" d="M9 73.08v11.2c2 1.72 4.08 3.34 6.3 4.82V73.08c0-9.48 7.87-17.16 17.6-17.16h-6.3C16.9 55.92 9 63.6 9 73.08z"/>
    <path fill="#11324D" d="M39.8 38.8h21.4c8.67 0 15.7 6.97 15.7 15.55 0 8.6-7.03 15.55-15.7 15.55H39.8c-8.67 0-15.7-6.96-15.7-15.55 0-8.58 7.03-15.55 15.7-15.55z"/>
    <path fill="#E9AD9A" d="M41.7 5.22h17.6c8.34 0 15.1 6.68 15.1 14.93V50c0 8.24-6.76 14.93-15.1 14.93H41.7c-8.34 0-15.1-6.7-15.1-14.93V20.15c0-8.25 6.76-14.93 15.1-14.93z"/>
    <path fill="#D49F8F" d="M47.98 50c-1.2 0-2.5-.5-2.5-2.46 0-1.62 5.02-5.78 5.02-7.46V16.4H27.1c-.3 1.2-.5 2.46-.5 3.75V50c0 8.24 6.76 14.93 15.1 14.93h8.8V50h-2.52z"/>
    <path fill="#657078" d="M66.22 27.6h-7.55c-1.04 0-1.88.85-1.88 1.88 0 1.03.83 1.86 1.87 1.86h7.55c1.04 0 1.9-.83 1.9-1.86 0-1.03-.86-1.87-1.9-1.87zm-23.9 0H34.8c-1.04 0-1.9.85-1.9 1.88 0 1.03.86 1.86 1.9 1.86h7.55c1.04 0 1.88-.83 1.88-1.86 0-1.03-.83-1.87-1.87-1.87z"/>
    <path fill="#11324D" d="M38.55 35.07c-1.73 0-3.14 1.4-3.14 3.1 0 1.73 1.42 3.12 3.15 3.12 1.74 0 3.15-1.4 3.15-3.12 0-1.7-1.4-3.1-3.15-3.1zm23.9 0c-1.74 0-3.15 1.4-3.15 3.1 0 1.73 1.4 3.12 3.15 3.12 1.73 0 3.14-1.4 3.14-3.12 0-1.7-1.42-3.1-3.15-3.1z"/>
    <path fill="#22384A" d="M27.86 5.22C45.33-1.13 80.68.25 80.68.25c2.68 0 3.77 1.6 3.77 3.73 0 10.8-7.13 16.17-10.06 16.17H26.6c-3.28 0-5.02-2.8-5.02-6.22 0-2.6 1.46-6.9 6.28-8.7z"/>
    <path fill="#FC0" d="M68.6 89.8c-.23 0-.44-.06-.63-.2l-3-2.3-3 2.3c-.2.14-.4.2-.63.2-.22 0-.43-.06-.62-.2-.37-.27-.52-.77-.38-1.2l1.2-3.67L58.47 83c-.37-.3-.52-.78-.38-1.23.14-.44.54-.74 1-.74l3.74.03 1.13-3.68c.13-.45.54-.76 1-.76.45 0 .85.3 1 .76l1.12 3.68 3.72-.03c.47 0 .87.3 1 .74.15.45 0 .94-.38 1.22l-3.04 1.73 1.18 3.66c.15.43 0 .92-.37 1.2-.17.14-.4.2-.6.2z"/>
    <path fill="#1B496E" d="M76.9 17.66H29.13c-3.28 0-5.03-2.8-5.03-6.22 0-1.42.44-3.37 1.64-5.13-3.14 2.12-4.16 5.47-4.16 7.63 0 .24.02.48.04.72l-.04.52v7.46c0 3 2.16 5.52 5.03 6.1v-8.58h47.8c1.46 0 4-1.36 6.15-4.07-1.4 1.05-2.72 1.58-3.64 1.58z"/>
  </g>
  <g fill="none" fill-rule="nonzero" id="icon_Locales">
    <path fill="#F1F4F9" d="M50 0c27.6 0 50 22.4 50 50s-22.4 50-50 50S0 77.6 0 50 22.4 0 50 0z"/>
    <path fill="#E4E2E2" d="M25 24c-1.66 0-3 1.34-3 3v64.43c1.9 1.3 3.9 2.45 6 3.47V27c0-1.66-1.34-3-3-3z"/>
    <path fill="#475259" d="M82 33H49v37c0 1.66 1.34 3 3 3h30l-6-19.98L82 33zm0 0H49v37c0 1.66 1.34 3 3 3h30l-6-19.98L82 33z"/>
    <path fill="#D9D9D9" d="M53 49v8h24.2L76 53.02 77.2 49"/>
    <path fill="#67768A" d="M54 28H28v40h29V31c0-1.66-1.34-3-3-3zm0 0H28v40h29V31c0-1.66-1.34-3-3-3z"/>
    <path fill="#FFF" d="M28 44h29v8H28"/>
    <path fill="#CAC8C8" d="M22 27v64.43c.66.44 1.32.87 2 1.28v-65.7c0-1.3.84-2.4 2-2.82-.3-.1-.65-.18-1-.18-1.66 0-3 1.34-3 3z"/>
    <path fill="#3B454B" d="M49 68v2c0 1.66 1.34 3 3 3l5-5h-8z"/>
  </g>
	</defs>
</svg>