<?xml version="1.0" encoding="utf-8"?>
<!-- Generator: Adobe Illustrator 24.0.3, SVG Export Plug-In . SVG Version: 6.00 Build 0)  -->
<svg version="1.1" id="Logo_AKENEO_-_Couleur_-_Fond_Noir"
	 xmlns="http://www.w3.org/2000/svg" xmlns:xlink="http://www.w3.org/1999/xlink" x="0px" y="0px" viewBox="0 0 1141.6 191.3"
	 style="enable-background:new 0 0 1141.6 191.3;" xml:space="preserve">
<style type="text/css">
	.st0{fill:url(#SVGID_1_);}
	.st1{opacity:0.8;}
	.st2{opacity:0.51;fill:url(#SVGID_2_);enable-background:new    ;}
	.st3{opacity:0.51;fill:url(#SVGID_3_);enable-background:new    ;}
	.st4{opacity:0.7;}
	.st5{fill:url(#SVGID_4_);}
	.st6{fill:url(#SVGID_5_);}
	.st7{enable-background:new    ;}
</style>
<title>Akeneo_APIs_Logo_Long_Black_2018_WEB</title>
<path d="M245,96.5c0-6.9-1.8-11.8-5.3-14.5S231,78,224.3,78c-3.9,0-7.7,0.3-11.6,1c-3.5,0.6-7,1.5-10.5,2.6
	c-2.3-4.3-3.5-9.1-3.4-13.9c4.3-1.4,8.8-2.4,13.2-3c4.6-0.7,9.3-1,13.9-1.1c11.8,0,20.7,2.7,26.8,8s9.2,13.9,9.2,25.7v56.6
	c-4.1,0.9-9.1,1.9-15,2.9c-5.9,1-12,1.5-18,1.5c-5.2,0.1-10.5-0.5-15.6-1.6c-4.2-0.9-8.3-2.6-11.8-5.1c-3.2-2.3-5.8-5.4-7.5-9
	c-1.9-4.2-2.8-8.7-2.6-13.2c-0.3-9.1,4.1-17.6,11.5-22.9c3.7-2.6,7.8-4.5,12.2-5.6c4.7-1.3,9.6-1.9,14.5-1.9c3.8,0,6.8,0.1,9.3,0.3
	c2.4,0.2,4.4,0.4,6.1,0.6L245,96.5z M245,113.6c-1.8-0.2-4-0.5-6.7-0.7s-5-0.4-6.9-0.4c-7.3,0-12.9,1.4-16.7,4.1
	c-3.8,2.7-5.7,6.8-5.7,12.3c0,3.5,0.6,6.3,1.9,8.3c1.2,1.9,2.9,3.5,4.9,4.6c2,1.1,4.2,1.7,6.4,1.9c2.2,0.2,4.5,0.4,6.7,0.4
	c2.8,0,5.6-0.2,8.4-0.4c2.6-0.2,5.2-0.7,7.7-1.3V113.6z"/>
<path d="M287.7,26.8c1.4-0.3,2.9-0.4,4.3-0.5c1.6-0.1,3-0.2,4.3-0.2s2.8,0.1,4.4,0.2c1.5,0.1,3,0.3,4.4,0.5v129.3
	c-1.5,0.3-2.9,0.4-4.4,0.5c-1.7,0.1-3.1,0.2-4.4,0.2c-1.3,0-2.7-0.1-4.3-0.2c-1.4-0.1-2.9-0.3-4.3-0.5V26.8z M305.4,109.2l33.2-43.6
	c1.5-0.2,3-0.4,4.6-0.5s3.1-0.2,4.8-0.2s3.4,0.1,5,0.2s3.2,0.3,4.9,0.5L324.7,108l38.1,48.2c-1.6,0.2-3.2,0.4-4.8,0.5
	s-3.1,0.2-4.8,0.2s-3.3-0.1-4.9-0.2s-3.3-0.3-4.9-0.5L305.4,109.2z"/>
<path d="M388.6,115.2c0.2,9.9,2.8,17.1,7.7,21.7c4.9,4.6,12.1,6.9,21.6,6.9c8.1,0,16.2-1.5,23.8-4.4c1,2,1.8,4.2,2.3,6.4
	c0.6,2.5,0.9,5,1.1,7.5c-4.1,1.7-8.4,3-12.8,3.7c-5.1,0.9-10.3,1.3-15.4,1.2c-8.2,0-15.3-1.1-21.2-3.4
	c-11.1-4.1-19.6-13.2-22.9-24.5c-1.8-6.1-2.7-12.4-2.6-18.8c0-6.4,0.8-12.7,2.6-18.8c1.6-5.5,4.2-10.7,7.9-15.2
	c3.6-4.4,8.2-7.9,13.3-10.2c6-2.7,12.5-4,19-3.8c5.6-0.1,11.2,1,16.4,3.2c4.5,2,8.6,5,11.8,8.7c3.3,3.9,5.7,8.4,7.2,13.2
	c1.7,5.4,2.5,11,2.5,16.7c0,1.6-0.1,3.4-0.2,5.2s-0.2,3.4-0.3,4.7H388.6z M433.4,102.2c0-3.2-0.4-6.4-1.3-9.4
	c-0.8-2.8-2.1-5.5-3.9-7.9c-1.7-2.3-4-4.1-6.5-5.4c-2.9-1.4-6.2-2.1-9.4-2c-7.2,0-12.7,2.2-16.5,6.5s-6.2,10.4-7,18.2L433.4,102.2z"
	/>
<path d="M473.6,65.7c1.3-0.2,2.5-0.4,3.8-0.5s2.5-0.2,3.8-0.2c1.2,0,2.4,0.1,3.6,0.2c1.1,0.1,2.3,0.3,3.6,0.5
	c0.3,1.8,0.7,4.1,1.1,7.1c0.3,2.5,0.5,5,0.5,7.5c1.3-2.1,2.8-4.2,4.5-6c1.9-2,4-3.8,6.3-5.4c2.5-1.7,5.2-3,8.1-3.9
	c3.3-1,6.6-1.5,10-1.5c10.3,0,18,3,22.9,8.9s7.4,14.7,7.4,26.4v57.3c-1.5,0.3-2.9,0.4-4.4,0.5c-1.6,0.1-3.1,0.2-4.4,0.2
	s-2.7-0.1-4.3-0.2c-1.4-0.1-2.9-0.3-4.3-0.5v-52.5c0-8.4-1.3-14.5-3.9-18.4c-2.6-3.9-6.7-5.9-12.3-5.9c-3.2,0-6.4,0.6-9.3,1.8
	c-3,1.2-5.6,3.1-7.8,5.5c-2.4,2.8-4.3,6.1-5.4,9.6c-1.4,4.6-2.1,9.4-2,14.2v45.9c-1.4,0.3-2.9,0.4-4.3,0.5c-1.6,0.1-3,0.2-4.3,0.2
	c-1.3,0-2.8-0.1-4.4-0.2c-1.5-0.1-3-0.3-4.4-0.5L473.6,65.7z"/>
<path d="M588.6,115.2c0.2,9.9,2.8,17.1,7.7,21.7c4.9,4.6,12.1,6.9,21.6,6.9c8.1,0,16.2-1.5,23.8-4.4c1,2,1.8,4.2,2.3,6.4
	c0.6,2.5,0.9,5,1,7.5c-4.1,1.7-8.4,3-12.8,3.7c-5.1,0.9-10.3,1.3-15.4,1.2c-8.2,0-15.3-1.1-21.2-3.4c-5.5-2.1-10.5-5.4-14.6-9.7
	c-3.9-4.3-6.7-9.3-8.4-14.8c-1.8-6.1-2.7-12.4-2.6-18.8c0-6.4,0.8-12.7,2.5-18.8c1.6-5.5,4.2-10.7,7.8-15.2
	c3.6-4.4,8.2-7.9,13.3-10.2c6-2.7,12.5-4,19-3.8c5.6-0.1,11.2,1,16.4,3.2c4.5,2,8.6,5,11.8,8.7c3.3,3.9,5.7,8.4,7.2,13.2
	c1.7,5.4,2.5,11,2.5,16.7c0,1.6-0.1,3.4-0.2,5.2s-0.2,3.4-0.3,4.7L588.6,115.2z M633.4,102.2c0-3.2-0.4-6.4-1.3-9.4
	c-0.8-2.8-2.1-5.5-3.9-7.9c-1.7-2.3-4-4.1-6.5-5.4c-2.9-1.4-6.2-2.1-9.4-2c-7.2,0-12.7,2.2-16.5,6.5c-3.8,4.4-6.1,10.4-7,18.2
	L633.4,102.2z"/>
<path d="M710.4,158.3c-6.4,0.1-12.7-1.1-18.5-3.6c-5.1-2.3-9.6-5.7-13.2-10c-3.6-4.4-6.3-9.5-7.8-15c-3.4-12.2-3.4-25.2,0-37.4
	c1.6-5.5,4.2-10.6,7.8-15c3.6-4.3,8.1-7.7,13.2-10.1c11.8-4.9,25.2-4.9,37,0c5.1,2.3,9.7,5.8,13.3,10.1c3.6,4.4,6.3,9.5,7.8,15
	c3.4,12.2,3.4,25.2,0,37.4c-1.6,5.5-4.2,10.6-7.8,15c-3.6,4.3-8.1,7.7-13.2,10C723,157.2,716.7,158.4,710.4,158.3z M710.4,144.3
	c8.1,0,14.1-2.9,18-8.8s5.8-14.1,5.8-24.5c0-10.5-1.9-18.6-5.8-24.4s-9.9-8.7-18-8.7c-8.1,0-14.1,2.9-17.9,8.7s-5.7,14-5.7,24.4
	c0,10.5,1.9,18.6,5.7,24.5C696.3,141.4,702.2,144.3,710.4,144.3z"/>
<linearGradient id="SVGID_1_" gradientUnits="userSpaceOnUse" x1="218.6839" y1="55.6198" x2="371.8139" y2="55.6198" gradientTransform="matrix(0.8818 -0.4716 -0.4716 -0.8818 -145.2702 294.805)">
	<stop  offset="4.000000e-02" style="stop-color:#5C257E"/>
	<stop  offset="0.97" style="stop-color:#8B4F99"/>
</linearGradient>
<path class="st0" d="M123.8,170.2c0.6,2,1.1,3.3,1.3,3.8c0,0-0.1,0,0,0l0,0c-3-42.6,21.7-59.6,30.4-87.5c0.1-0.5,0.2-0.9,0.3-1.4
	c0.2-0.6,0.3-1.3,0.5-1.9c1.4-7.8-1.5-17-7.2-26.6c0-0.1-0.1-0.1-0.1-0.1c-0.5-0.8-1-1.6-1.5-2.4l0,0c-1-1.5-2-3-3-4.4
	c-0.1-0.2-0.2-0.3-0.3-0.5c-0.3-0.4-0.6-0.8-0.9-1.2l-0.9-1.3l-1-1.2l-1-1.3l-0.7-0.9c-9.2-11.3-21.2-22.5-33.8-32.4l0,0
	c1.2,16,0.9,32.1-1.1,44.8c-2.4,15.4-8.5,33.1-16.7,49.1c-17.9-2.1-36-6.8-50.1-13.4c-11.8-5.5-25.2-14-37.9-24
	c0.1,1.3,0.2,2.6,0.3,4c0,0.4,0.1,0.8,0.1,1.2c0.1,1,0.2,1.9,0.3,2.8c0,0.4,0.1,0.9,0.1,1.3c0.1,1,0.2,1.9,0.3,2.9
	c0,0.4,0.1,0.8,0.1,1.1c0.2,1.2,0.3,2.4,0.5,3.6c0,0.1,0,0.2,0,0.4c0.2,1.4,0.4,2.8,0.6,4.1c0,0.1,0,0.2,0,0.3
	c0.2,1.2,0.4,2.4,0.6,3.7c0,0.2,0.1,0.5,0.1,0.8c0.2,1.1,0.4,2.2,0.7,3.3C4,96.9,4,97.1,4,97.3c0.3,1.3,0.5,2.5,0.8,3.8l0,0
	c0.9,4,2,7.9,3.1,11.6c0,0,0,0.1,0,0.1c1.8,5.9,4,11.6,6.7,17.1c0.4,0.7,0.8,1.5,1.1,2.2v0.1l0,0c0.3,0.6,0.7,1.3,1.1,1.9l0,0v0.1
	c0.4,0.7,0.8,1.3,1.2,1.9l0,0l0.2,0.2l0,0c0.5,0.8,1.1,1.6,1.6,2.3l0.3,0.4c0,0,0.1,0.1,0.1,0.1c0.6,0.8,1.3,1.6,1.9,2.4l0,0
	c0.4,0.5,0.9,1,1.4,1.5c0.2,0.2,0.4,0.4,0.6,0.6s0.6,0.6,0.9,0.9s0.4,0.4,0.7,0.6s0.6,0.5,0.9,0.7l0.7,0.5l0.9,0.7l0.7,0.5
	c0.3,0.2,0.7,0.4,1,0.6l0.7,0.4c0.4,0.2,0.8,0.4,1.1,0.6c0.2,0.1,0.4,0.2,0.6,0.3c0.6,0.3,1.1,0.5,1.7,0.6c0.4,0.1,0.7,0.3,1,0.4
	c28.1,8.4,56.1-2.5,89.9,23.4"/>
<g class="st1">
	
		<linearGradient id="SVGID_2_" gradientUnits="userSpaceOnUse" x1="333.7029" y1="-14.7018" x2="333.7029" y2="132.0582" gradientTransform="matrix(0.8818 -0.4716 -0.4716 -0.8818 -145.2702 294.805)">
		<stop  offset="4.000000e-02" style="stop-color:#5C257E"/>
		<stop  offset="1" style="stop-color:#FFFFFF"/>
	</linearGradient>
	<path class="st2" d="M104.7,55.5c-2.4,15.4-8.5,33.1-16.7,49.1c31.7,3.7,62.5-1.1,67.8-19.6c5.8-20.2-20.4-51.2-50-74.3
		C107,26.8,106.6,42.7,104.7,55.5z"/>
	
		<linearGradient id="SVGID_3_" gradientUnits="userSpaceOnUse" x1="257.1435" y1="-14.6918" x2="257.1435" y2="132.0582" gradientTransform="matrix(0.8818 -0.4716 -0.4716 -0.8818 -145.2702 294.805)">
		<stop  offset="4.000000e-02" style="stop-color:#5C257E"/>
		<stop  offset="1" style="stop-color:#FFFFFF"/>
	</linearGradient>
	<path class="st3" d="M37.9,91.2c-11.8-5.5-25.2-14-37.9-24c2.8,37.5,14.1,76.5,34.1,82.9c18.3,5.9,39.4-17.1,53.9-45.5
		C70.2,102.5,52,97.8,37.9,91.2z"/>
</g>
<g class="st4">
	
		<linearGradient id="SVGID_4_" gradientUnits="userSpaceOnUse" x1="257.1272" y1="105.6582" x2="257.1272" y2="-8.6018" gradientTransform="matrix(0.8818 -0.4716 -0.4716 -0.8818 -145.2702 294.805)">
		<stop  offset="0.23" style="stop-color:#4E256F"/>
		<stop  offset="0.84" style="stop-color:#5C257E"/>
	</linearGradient>
	<path class="st5" d="M63.1,126.7C16.5,109.4,0,67.2,0,67.2l0,0c1.7,23,6.6,46.5,14.8,62.8c0.3,0.7,0.7,1.4,1.1,2.1
		c0,0.1,0.1,0.1,0.1,0.2c0.4,0.6,0.7,1.3,1.1,1.9l0.2,0.2c0.4,0.6,0.7,1.2,1.1,1.8l0.2,0.2c0.4,0.6,0.7,1.1,1.1,1.7l0.8,1l0.2,0.2
		c0.2,0.2,0.3,0.5,0.5,0.7c0.4,0.6,0.9,1.1,1.3,1.6c3.5,4.1,7.5,7.1,11.8,8.4c0.4,0.1,0.7,0.3,1,0.4c28.1,8.4,56.1-2.5,89.9,23.4
		C122.5,170.5,98.5,139.8,63.1,126.7z"/>
	
		<linearGradient id="SVGID_5_" gradientUnits="userSpaceOnUse" x1="333.6884" y1="105.6482" x2="333.6884" y2="-8.6018" gradientTransform="matrix(0.8818 -0.4716 -0.4716 -0.8818 -145.2702 294.805)">
		<stop  offset="0.23" style="stop-color:#4E256F"/>
		<stop  offset="0.84" style="stop-color:#5C257E"/>
	</linearGradient>
	<path class="st6" d="M155.8,85c5.8-20.2-20.4-51.2-50-74.3l0,0c0,0,25.8,37.1,14.3,85.6c-8.9,37.4,4,74.8,5,77.7c0,0-0.1,0,0,0l0,0
		c-3-42.6,21.7-59.6,30.4-87.5C155.5,85.9,155.6,85.5,155.8,85z"/>
</g>
<g class="st7">
	<path d="M906.6,157.1h-7.3c-0.9,0-1.6-0.2-2.1-0.7c-0.6-0.5-1-1.1-1.3-1.8l-15.4-37.8h-63.9l-15.3,37.8c-0.2,0.7-0.7,1.3-1.3,1.7
		c-0.6,0.5-1.3,0.7-2.2,0.7h-7.2L844,26.9h9.4L906.6,157.1z M819.5,109.8h58.3L851.2,44c-0.4-1-0.9-2.2-1.3-3.5
		c-0.4-1.3-0.9-2.7-1.3-4.2c-0.4,1.5-0.9,2.9-1.3,4.2c-0.4,1.3-0.9,2.5-1.3,3.6L819.5,109.8z"/>
	<path d="M939.4,104.6v52.4H930V26.9h33.6c15.3,0,26.8,3.3,34.5,10c7.8,6.7,11.6,16.2,11.6,28.6c0,5.7-1.1,10.9-3.2,15.7
		c-2.1,4.8-5.2,8.9-9.2,12.4c-4,3.5-8.8,6.2-14.5,8.1s-12.1,2.9-19.3,2.9H939.4z M939.4,97.1h24.2c5.8,0,10.9-0.8,15.5-2.4
		c4.5-1.6,8.4-3.8,11.5-6.6c3.2-2.8,5.6-6.1,7.3-10c1.7-3.8,2.5-8,2.5-12.6c0-10-3.1-17.7-9.2-23.1c-6.2-5.4-15.3-8.1-27.6-8.1
		h-24.2V97.1z"/>
	<path d="M1049.3,157.1h-9.5V26.9h9.5V157.1z"/>
	<path d="M1137.4,77c-0.4,0.9-1.1,1.3-2,1.3c-0.7,0-1.5-0.4-2.6-1.2c-1.1-0.8-2.5-1.6-4.2-2.6c-1.7-1-3.9-1.8-6.4-2.6
		c-2.5-0.8-5.7-1.1-9.3-1.1c-3.3,0-6.3,0.5-9.1,1.4c-2.7,0.9-5.1,2.2-7,3.8c-1.9,1.6-3.4,3.4-4.5,5.5s-1.6,4.3-1.6,6.7
		c0,2.9,0.7,5.3,2.2,7.2c1.5,1.9,3.4,3.5,5.8,4.9c2.4,1.3,5.1,2.5,8.1,3.5c3,1,6.1,2,9.3,2.9c3.2,1,6.3,2.1,9.3,3.3
		c3,1.2,5.8,2.7,8.1,4.5c2.4,1.8,4.3,4,5.8,6.5s2.2,5.7,2.2,9.4c0,4-0.7,7.7-2.2,11.1c-1.4,3.4-3.5,6.4-6.3,8.9
		c-2.7,2.5-6.1,4.5-10.1,6c-4,1.5-8.5,2.2-13.6,2.2c-6.4,0-12-1-16.7-3.1c-4.7-2.1-8.8-4.7-12.5-8l2.1-3.1c0.3-0.5,0.6-0.9,1-1.1
		c0.4-0.2,0.9-0.4,1.6-0.4c0.8,0,1.8,0.5,2.9,1.5c1.2,1,2.7,2,4.6,3.2c1.9,1.1,4.2,2.2,7,3.2c2.8,1,6.2,1.5,10.3,1.5
		c3.9,0,7.3-0.5,10.2-1.6c2.9-1.1,5.4-2.5,7.4-4.4c2-1.8,3.5-4,4.5-6.5c1-2.5,1.5-5.1,1.5-7.9c0-3.1-0.7-5.6-2.2-7.6
		c-1.5-2-3.4-3.7-5.8-5.2c-2.4-1.4-5.1-2.6-8.1-3.6c-3-1-6.2-2-9.4-2.9c-3.2-1-6.3-2.1-9.4-3.2c-3-1.2-5.8-2.6-8.1-4.4
		c-2.4-1.8-4.3-3.9-5.8-6.5c-1.5-2.5-2.2-5.7-2.2-9.5c0-3.3,0.7-6.4,2.1-9.4c1.4-3,3.4-5.6,6-7.9c2.6-2.3,5.8-4.1,9.5-5.4
		c3.7-1.3,7.9-2,12.6-2c5.6,0,10.5,0.8,14.9,2.4c4.3,1.6,8.3,4.1,11.9,7.4L1137.4,77z"/>
</g>
</svg>
