<svg width="707" height="420" xmlns="http://www.w3.org/2000/svg" xmlns:xlink="http://www.w3.org/1999/xlink">
  <defs>
    <rect id="b" width="306" height="299" rx="10"/>
    <filter x="-8.8%" y="-8.4%" width="119%" height="119.4%" filterUnits="objectBoundingBox" id="a">
      <feOffset dx="2" dy="4" in="SourceAlpha" result="shadowOffsetOuter1"/>
      <feGaussianBlur stdDeviation="9" in="shadowOffsetOuter1" result="shadowBlurOuter1"/>
      <feColorMatrix values="0 0 0 0 0.0352941176 0 0 0 0 0.117647059 0 0 0 0 0.258823529 0 0 0 0.14 0" in="shadowBlurOuter1"/>
    </filter>
    <path d="M5.582.11c.005.023.008.08.008.167v17.525c0 .747.198 1.223.596 1.427.398.203 1.14.325 2.227.363V20H.203v-.437c1.175-.058 1.942-.218 2.3-.48.36-.262.54-.83.54-1.703V3.9c0-.466-.059-.82-.175-1.063-.117-.242-.37-.363-.757-.363-.253 0-.58.07-.983.21A14.8 14.8 0 0 0 0 3.13v-.408L5.342 0h.175c.039.049.06.085.065.11zm8.848 5.488c.625.914.937 1.933.937 3.058 0 .792-.148 1.597-.445 2.414a6.729 6.729 0 0 1-1.297 2.188c-.661.74-1.5 1.289-2.516 1.648-.567.203-1.283.36-2.148.469l-.078-.313a9.878 9.878 0 0 0 1.351-.398c.646-.255 1.164-.568 1.555-.937a6.51 6.51 0 0 0 1.324-1.762c.331-.649.538-1.192.621-1.63l-.273.204a3.365 3.365 0 0 1-1.36.602c-.27.062-.518.093-.742.093-.885 0-1.587-.313-2.105-.941-.518-.628-.777-1.376-.777-2.246 0-1.11.308-2.024.925-2.742.618-.72 1.408-1.078 2.371-1.078 1.146 0 2.032.457 2.657 1.37zm-1.34 4.629c.377-.198.592-.365.644-.5.021-.053.04-.247.055-.582.016-.336.024-.609.024-.817 0-1.083-.183-1.963-.547-2.64-.365-.678-.899-1.016-1.602-1.016-.51 0-.923.232-1.238.695-.315.464-.473 1.156-.473 2.078 0 .76.147 1.464.442 2.11.294.646.826.968 1.597.968.354 0 .72-.099 1.098-.296z" id="c"/>
    <rect id="e" width="306" height="299" rx="10"/>
    <filter x="-8.8%" y="-8.4%" width="119%" height="119.4%" filterUnits="objectBoundingBox" id="d">
      <feOffset dx="2" dy="4" in="SourceAlpha" result="shadowOffsetOuter1"/>
      <feGaussianBlur stdDeviation="9" in="shadowOffsetOuter1" result="shadowBlurOuter1"/>
      <feColorMatrix values="0 0 0 0 0.0352941176 0 0 0 0 0.117647059 0 0 0 0 0.258823529 0 0 0 0.14 0" in="shadowBlurOuter1"/>
    </filter>
    <path d="M5.582.11c.005.023.008.08.008.167v17.525c0 .747.198 1.223.596 1.427.398.203 1.14.325 2.227.363V20H.203v-.437c1.175-.058 1.942-.218 2.3-.48.36-.262.54-.83.54-1.703V3.9c0-.466-.059-.82-.175-1.063-.117-.242-.37-.363-.757-.363-.253 0-.58.07-.983.21A14.8 14.8 0 0 0 0 3.13v-.408L5.342 0h.175c.039.049.06.085.065.11zm8.848 5.488c.625.914.937 1.933.937 3.058 0 .792-.148 1.597-.445 2.414a6.729 6.729 0 0 1-1.297 2.188c-.661.74-1.5 1.289-2.516 1.648-.567.203-1.283.36-2.148.469l-.078-.313a9.878 9.878 0 0 0 1.351-.398c.646-.255 1.164-.568 1.555-.937a6.51 6.51 0 0 0 1.324-1.762c.331-.649.538-1.192.621-1.63l-.273.204a3.365 3.365 0 0 1-1.36.602c-.27.062-.518.093-.742.093-.885 0-1.587-.313-2.105-.941-.518-.628-.777-1.376-.777-2.246 0-1.11.308-2.024.925-2.742.618-.72 1.408-1.078 2.371-1.078 1.146 0 2.032.457 2.657 1.37zm-1.34 4.629c.377-.198.592-.365.644-.5.021-.053.04-.247.055-.582.016-.336.024-.609.024-.817 0-1.083-.183-1.963-.547-2.64-.365-.678-.899-1.016-1.602-1.016-.51 0-.923.232-1.238.695-.315.464-.473 1.156-.473 2.078 0 .76.147 1.464.442 2.11.294.646.826.968 1.597.968.354 0 .72-.099 1.098-.296z" id="f"/>
  </defs>
  <g fill="none" fill-rule="evenodd">
    <path fill="#F5F9F8" d="M0 0h707v420H0z"/>
    <g transform="translate(41 65)">
      <use fill="#000" filter="url(#a)" xlink:href="#b"/>
      <use fill="#FFF" xlink:href="#b"/>
    </g>
    <g transform="translate(61 85)">
      <rect fill="#E0F1FC" width="48" height="48" rx="5"/>
      <use stroke="#4EA7DD" xlink:href="#c" transform="translate(16 14)"/>
    </g>
    <path fill="#EADBED" d="M61 153h266v1H61z"/>
    <text font-family="Lato-MediumItalic, Lato" font-size="13" font-style="italic" font-weight="500" fill="#8F92C7" transform="translate(41 65)">
      <tspan x="83" y="63">Asset attribute</tspan>
    </text>
    <text font-family="Lato-MediumItalic, Lato" font-size="24" font-style="italic" font-weight="500" fill="#3A438B" transform="translate(41 65)">
      <tspan x="83" y="46">Number of pages</tspan>
    </text>
    <g transform="translate(78 161)">
      <text font-family="Lato-Medium, Lato" font-size="14" font-weight="400" fill="#3A438B">
        <tspan x="16" y="27">Number attribute type</tspan>
      </text>
      <circle fill="#4EA7DD" cx="3.877" cy="22" r="4"/>
    </g>
    <g transform="translate(78 205)">
      <text font-family="Lato-Medium, Lato" font-size="14" font-weight="400" fill="#3A438B">
        <tspan x="16" y="27">Same values for all locales</tspan>
      </text>
      <circle fill="#4EA7DD" cx="3.877" cy="22" r="4"/>
    </g>
    <g transform="translate(78 249)">
      <text font-family="Lato-Medium, Lato" font-size="14" font-weight="400" fill="#3A438B">
        <tspan x="16" y="27">Same values for all channels</tspan>
      </text>
      <circle fill="#4EA7DD" cx="3.877" cy="22" r="4"/>
    </g>
    <g transform="translate(78 293)">
      <text font-family="Lato-Medium, Lato" font-size="14" font-weight="400" fill="#3A438B">
        <tspan x="16" y="27">Required for completeness</tspan>
      </text>
      <circle fill="#4EA7DD" cx="3.877" cy="22" r="4"/>
    </g>
    <g>
      <g transform="translate(360 65)">
        <use fill="#000" filter="url(#d)" xlink:href="#e"/>
        <use fill="#FFF" xlink:href="#e"/>
      </g>
      <g transform="translate(380 85)">
        <rect fill="#E0F1FC" width="48" height="48" rx="5"/>
        <use stroke="#4EA7DD" xlink:href="#f" transform="translate(16 14)"/>
      </g>
      <path fill="#EADBED" d="M380 153h266v1H380z"/>
      <text font-family="Lato-MediumItalic, Lato" font-size="13" font-style="italic" font-weight="500" fill="#8F92C7" transform="translate(360 65)">
        <tspan x="83" y="63">Asset attribute</tspan>
      </text>
      <text font-family="Lato-MediumItalic, Lato" font-size="24" font-style="italic" font-weight="500" fill="#3A438B" transform="translate(360 65)">
        <tspan x="83" y="46">Video duration (in s)</tspan>
      </text>
      <g transform="translate(397 161)">
        <text font-family="Lato-Medium, Lato" font-size="14" font-weight="400" fill="#3A438B">
          <tspan x="16" y="27">Number attribute type</tspan>
        </text>
        <circle fill="#4EA7DD" cx="3.877" cy="22" r="4"/>
      </g>
      <g transform="translate(397 205)">
        <text font-family="Lato-Medium, Lato" font-size="14" font-weight="400" fill="#3A438B">
          <tspan x="16" y="27">Same values for all locales</tspan>
        </text>
        <circle fill="#4EA7DD" cx="3.877" cy="22" r="4"/>
      </g>
      <g transform="translate(397 249)">
        <text font-family="Lato-Medium, Lato" font-size="14" font-weight="400" fill="#3A438B">
          <tspan x="16" y="27">Same values for all channels</tspan>
        </text>
        <circle fill="#4EA7DD" cx="3.877" cy="22" r="4"/>
      </g>
      <g transform="translate(397 293)">
        <text font-family="Lato-Medium, Lato" font-size="14" font-weight="400" fill="#3A438B">
          <tspan x="16" y="27">Not required for completeness</tspan>
        </text>
        <circle fill="#4EA7DD" cx="3.877" cy="22" r="4"/>
      </g>
    </g>
  </g>
</svg>
